<?xml version="1.0" encoding="UTF-8"?>
<svg xmlns="http://www.w3.org/2000/svg" xmlns:xlink="http://www.w3.org/1999/xlink" width="16.898mm" height="20.784mm" viewBox="-522.174255 262.201294 16.897705 20.784485">
    <path transform="matrix(-1,0,0,1,0,0)" style="stroke:none;fill:#000000;fill-rule:evenodd" d="M520.364075,262.20163L520.525818,262.208588L520.561157,262.211731L520.712463,262.232544L520.751709,262.240082L520.892517,262.274841L520.934143,262.287628L521.064636,262.336273L521.107422,262.355347L521.227417,262.417847L521.269409,262.443268L521.378967,262.519775L521.417358,262.550415L521.516479,262.640747L521.549683,262.675171L521.597351,262.73111L521.647217,262.760651L521.694031,262.793365L521.784485,262.86731L521.812988,262.893097L521.828064,262.909149L521.904541,262.995239L521.928589,263.025269L521.940918,263.043274L522.00354,263.14151L522.03064,263.19223L522.079407,263.302643L522.097412,263.352753L522.13208,263.475311L522.141907,263.520325L522.162842,263.65506L522.166931,263.695435L522.173889,263.842438L522.174255,263.860321L522.174255,276.153351L522.172302,276.191803L522.164307,276.240082L522.097534,276.524628L522.089966,276.551727L522.000977,276.834839L521.992065,276.860138L521.881042,277.141998L521.870728,277.16571L521.737427,277.446381L521.726257,277.46814L521.570862,277.747345L521.559082,277.767181L521.381531,278.045044L521.369324,278.062775L521.169556,278.339447L521.157288,278.355499L520.935242,278.630798L520.92334,278.64502L520.67926,278.919128L520.667358,278.931885L520.401001,279.204529L520.389465,279.215698L520.100891,279.487122L520.089966,279.497101L519.779358,279.767181L519.768799,279.776062L519.435974,280.0448L519.425903,280.052704L519.070923,280.320129L519.061462,280.327057L518.684204,280.593231L518.67511,280.599457L518.275635,280.864288L518.237549,280.886536L514.398071,282.833435L514.362915,282.848999L514.308777,282.865417L513.807922,282.976807L513.769958,282.983246L513.731689,282.985779L513.693237,282.984467L513.657471,282.979706L513.045227,282.868317L513.007874,282.859558L512.975403,282.848511L512.491211,282.659882L512.480103,282.655396L512.000977,282.451233L511.990051,282.44635L511.516174,282.226501L511.505493,282.221405L511.036804,281.98584L511.026489,281.980377L510.563049,281.729248L510.552795,281.723541L510.094604,281.456757L510.084778,281.450775L509.631775,281.168182L509.622559,281.162231L508.775818,280.599213L508.766602,280.592865L508.390686,280.326691L508.380859,280.319519L508.027954,280.052094L508.017395,280.043823L507.687622,279.775085L507.676514,279.765594L507.369873,279.495514L507.358276,279.484955L507.074585,279.213531L507.062683,279.201599L506.801941,278.928986L506.789551,278.915222L506.551941,278.641144L506.539307,278.625824L506.324768,278.350494L506.312134,278.333344L506.120605,278.056702L506.108093,278.037506L505.939514,277.759644L505.92749,277.738098L505.782043,277.458893L505.770752,277.435181L505.648438,277.154541L505.638306,277.12912L505.539001,276.847229L505.530457,276.819763L505.454224,276.536652L505.447632,276.507721L505.398987,276.247986L505.296143,275.940186L505.285828,275.903229L505.279236,275.865295L505.27655,275.819916L505.27655,263.860321L505.276917,263.842072L505.283997,263.695068L505.287964,263.655426L505.308777,263.520691L505.318726,263.474945L505.353516,263.352386L505.371399,263.303009L505.420044,263.192596L505.437317,263.158173L505.447266,263.14151L505.509888,263.043274L505.532166,263.012024L505.546265,262.995239L505.622742,262.909149L505.649658,262.881775L505.666321,262.86731L505.756775,262.793365L505.803711,262.760529L505.873291,262.719421L505.955322,262.643188L505.9776,262.623962L506.091431,262.53363L506.118164,262.514282L506.233948,262.437805L506.264832,262.419434L506.382202,262.356934L506.417175,262.340515L506.536377,262.29187L506.574646,262.278625L506.695435,262.243835L506.737,262.234344L506.859741,262.213562L506.902039,262.208832L507.026306,262.201874L507.047485,262.201294L520.347778,262.201294L520.364075,262.20163zM506.101624,263.025574C505.804626,263.174316,505.656372,263.452087,505.656372,263.860382L505.656372,275.820038L505.7677,276.153442C505.990295,277.674316,507.195984,279.139069,509.385193,280.548126C510.572144,281.364227,511.815247,282.012848,513.113464,282.495026L513.725708,282.606323L514.226563,282.495026L518.066162,280.548126C520.255371,279.139069,521.497986,277.674316,521.794983,276.153442L521.794983,263.860382C521.794983,263.452087,521.646729,263.174316,521.349731,263.025574C521.127136,262.729095,520.793213,262.580841,520.347961,262.580841L507.047729,262.580841C506.713806,262.580841,506.39859,262.729095,506.101624,263.025574zM507.270355,275.875671L507.270355,272.593597L512.946533,272.593597L512.946533,280.715088C511.536957,280.121613,510.349518,279.417328,509.385193,278.601227C508.086426,277.711273,507.381653,276.802582,507.270355,275.875671zM507.649658,272.973053L507.649658,275.845459L507.670227,275.974121L507.705444,276.119934L507.75238,276.265961L507.81189,276.413116L507.884338,276.562195L507.969482,276.71225L508.069702,276.866211L508.182251,277.019684L508.309326,277.175079L508.450317,277.331207L508.605347,277.488464L508.777527,277.6492L508.959839,277.806824L509.160095,277.967804L509.368774,278.125061L509.603821,278.291046L509.623535,278.306L509.988708,278.601257L510.370422,278.88324L510.768799,279.152588L511.193787,279.415985L511.635681,279.667114L512.099121,279.908844L512.566711,280.132721L512.566711,272.973053L507.649658,272.973053zM520.236694,271.147095L514.504822,271.147095L514.504822,264.08252L520.236694,264.08252L520.236694,271.147095zM514.884094,264.461884L514.884094,270.767426L519.856873,270.767426L519.856873,264.461884L514.884094,264.461884z"/>
</svg>
