<?xml version="1.0" encoding="UTF-8"?>
<svg xmlns="http://www.w3.org/2000/svg" xmlns:xlink="http://www.w3.org/1999/xlink" width="23.250mm" height="14.808mm" viewBox="-242.571472 265.189575 23.249680 14.807800">
    <path transform="matrix(-1,0,0,1,0,0)" style="stroke:none;fill:#000000;fill-rule:evenodd" d="M234.006302,265.191284L234.044357,265.196869L234.083405,265.206726L234.587189,265.363831L234.623322,265.377197L234.657852,265.393982L234.690445,265.414307L234.720856,265.437775L234.74881,265.464142L234.773865,265.493225L234.793564,265.521179L235.077026,265.962616L235.096115,265.995911L235.111801,266.030945L235.12384,266.067413L235.131989,266.105011L235.13649,266.143188L235.136963,266.18161L235.133575,266.219788L235.126389,266.257629L235.115448,266.294464L235.100739,266.329956L235.082611,266.36377L235.061096,266.39563L235.03653,266.425079L235.009048,266.451935L234.979004,266.475891L234.946777,266.496704L234.917114,266.511902L234.979736,266.534149L235.015137,266.548737L235.049057,266.566986L235.080795,266.588501L235.110336,266.61319L235.137085,266.640656L235.161041,266.670715L235.186707,266.711914L235.407059,267.121735L235.423462,267.156403L235.436356,267.192627L235.44548,267.22995L235.450836,267.268036L235.452057,267.287354L235.470047,267.77243L238.851364,267.77243L238.851364,267.049622L238.853302,267.0112L238.859131,266.973267L238.868744,266.936035L238.882004,266.900055L238.898911,266.865509L238.927246,266.821991L239.021973,266.695648L239.046539,266.666077L239.073898,266.639221L239.103928,266.615143L239.136276,266.59433L239.155365,266.584137L239.344101,266.48938L239.379242,266.473816L239.415848,266.462036L239.453308,266.453888L239.491486,266.449615L239.529907,266.449249L239.568207,266.452789L239.605911,266.460205L239.642639,266.471405L239.678146,266.486115L239.709641,266.503143L239.867477,266.59787L239.899338,266.619263L239.929016,266.643829L239.955887,266.671204L239.976685,266.696716L240.070679,266.823059L240.092087,266.855042L240.110077,266.888977L240.124542,266.9245L240.135376,266.961456L240.142303,266.999146L240.145706,267.049622L240.145706,268.102234L240.172836,268.131531L240.216125,268.185638L240.246277,268.229309L240.281784,268.289246L240.305618,268.33667L240.333099,268.402588L240.348785,268.448303L240.368484,268.520172L240.377853,268.564087L240.389526,268.641785L240.393295,268.680084L240.397308,268.763855L240.397675,268.781982L240.397675,268.906281L241.026489,268.906281L241.064911,268.908203L241.102844,268.914063L241.146759,268.925842L241.524933,269.052185L241.560699,269.066162L241.594864,269.083679L241.62709,269.104614L241.65712,269.128693L241.684479,269.15567L241.708923,269.185242L241.724976,269.208588L241.83345,269.379181L242.191925,269.379181L242.230362,269.381134L242.268311,269.386963L242.305511,269.396576L242.341507,269.409821L242.376038,269.426727L242.40863,269.447052L242.439026,269.470642L242.466888,269.497009L242.491943,269.526215L242.513824,269.557709L242.532547,269.591248L242.54776,269.626526L242.559296,269.663239L242.567078,269.700836L242.570984,269.739014L242.571472,269.758698L242.571472,270.640717L242.569519,270.679138L242.56369,270.717072L242.554077,270.754272L242.540817,270.790283L242.523926,270.824799L242.503601,270.857391L242.480011,270.887787L242.453629,270.915649L242.424438,270.940704L242.392944,270.962585L242.359375,270.981323L242.324127,270.996521L242.287384,271.008057L242.249817,271.015839L242.211639,271.019745L242.191925,271.020233L241.833206,271.020233L241.724854,271.19046L241.702606,271.221832L241.677307,271.250671L241.647522,271.278381L241.564697,271.347351L241.533936,271.370331L241.50354,271.388916L241.412933,271.438293L241.378281,271.454956L241.340714,271.468445L241.242218,271.498138L241.205002,271.507263L241.167786,271.512604L241.061508,271.522461L241.026489,271.524017L240.397675,271.524017L240.397675,272.373199L240.395721,272.411621L240.389893,272.449554L240.38028,272.486755L240.370682,272.513763L240.245056,272.828827L240.229126,272.863739L240.209549,272.89682L240.186935,272.927826L240.161148,272.95639L240.142426,272.973907L240.105347,273.006378L240.19046,273.060608L240.22171,273.082886L240.250656,273.108276L240.276794,273.136383L240.300018,273.166901L240.320099,273.199738L240.336746,273.234375L240.34964,273.270508L240.356323,273.295319L240.45105,273.705109L240.457748,273.74295L240.460785,273.790619L240.460785,275.176392L240.458832,275.214813L240.453003,275.252777L240.44339,275.289978L240.430267,275.325623L240.241547,275.766907L240.22464,275.801453L240.204315,275.834045L240.180847,275.864563L240.154465,275.892395L240.125275,275.91745L240.093781,275.939453L240.062042,275.957336L239.683853,276.146057L239.64859,276.161377L239.612,276.173187L239.574417,276.181213L239.536224,276.185333L239.514343,276.185944L236.364441,276.185944L236.327957,276.184265L236.205872,276.172455L236.167801,276.166748L236.12999,276.157135L236.015808,276.121735L235.979691,276.108612L235.944183,276.091217L235.837769,276.032257L235.805176,276.011932L235.778076,275.991272L235.679443,275.908691L235.651352,275.882568L235.625946,275.853729L235.603561,275.822479L235.584473,275.789154L235.565628,275.745148L235.501297,275.564667L235.485489,275.577454L235.453384,275.598602L235.420547,275.615753L235.011475,275.804474L234.975723,275.818848L234.938873,275.829407L234.901062,275.836212L234.852417,275.839386L234.759033,275.839386L234.759033,276.908783L234.75708,276.947205L234.751251,276.985138L234.741638,277.022339L234.728745,277.057495L234.634628,277.278564L234.617722,277.31311L234.597534,277.345703L234.565918,277.385468L234.528595,277.426422L234.501343,277.45343L234.471436,277.477631L234.442017,277.497101L234.392517,277.52652L234.358582,277.544403L234.322952,277.558868L234.304352,277.564697L234.243179,277.582458L234.205856,277.591339L234.167664,277.596313L234.094711,277.602142L234.056274,277.603241L234.017975,277.600586L233.980148,277.593872L233.943192,277.583557L233.90744,277.569427L233.869614,277.549622L233.712387,277.455627L233.680527,277.434204L233.650848,277.40979L233.623856,277.382416L233.599777,277.352509L233.577652,277.318085L233.559402,277.286224L233.545914,277.313843L233.525604,277.346405L233.502136,277.376831L233.475616,277.404663L233.446564,277.429718L233.41507,277.451721L233.383087,277.469604L233.194351,277.563599L233.15921,277.578918L233.122604,277.590729L233.085037,277.598633L233.046844,277.602753L233.008423,277.602997L232.970123,277.599365L232.932541,277.591949L232.895813,277.580627L232.876236,277.572968L232.655884,277.478973L232.621353,277.462067L232.58876,277.441864L232.558365,277.418396L232.530396,277.392029L232.505341,277.362946L232.483337,277.331451L232.474091,277.315033L232.460358,277.338379L232.437607,277.369415L232.411835,277.39798L232.383377,277.423767L232.352493,277.446503L232.31929,277.466064L232.292175,277.478973L232.071838,277.572968L232.035721,277.586212L231.998505,277.595825L231.960556,277.601532L231.922134,277.603363L231.88382,277.60141L231.845886,277.595459L231.808685,277.585846L231.772675,277.572357L231.754196,277.563843L231.564743,277.469849L231.531174,277.450989L231.499802,277.428986L231.470734,277.403809L231.444351,277.375854L231.421005,277.345337L231.418457,277.341187L231.397766,277.369415L231.371994,277.39798L231.343536,277.423767L231.312653,277.446503L231.279465,277.466064L231.25235,277.478973L231.031998,277.572968L230.99588,277.586212L230.958664,277.595825L230.920731,277.601532L230.882294,277.603363L230.843994,277.60141L230.806061,277.595459L230.768845,277.585846L230.73407,277.572968L230.513718,277.478973L230.479187,277.462067L230.446594,277.441864L230.416199,277.418396L230.388229,277.392029L230.363174,277.362946L230.341156,277.331451L230.322311,277.297913L230.313797,277.279297L230.21907,277.058228L230.205811,277.022217L230.196091,276.985016L230.190369,276.947083L230.188431,276.908783L230.188431,275.839386L230.095764,275.839386L230.057343,275.837433L230.009064,275.829407L229.473648,275.703796L229.436798,275.693085L229.401047,275.678741L229.367126,275.660858L229.335022,275.639709L229.302063,275.612335L228.860764,275.202545L228.834015,275.175049L228.810059,275.144897L228.789505,275.112793L228.554077,274.700928L228.203735,274.788727L228.166046,274.796265L228.127853,274.799805L228.089417,274.799561L228.051239,274.79541L227.996521,274.78241L227.303253,274.562073L227.267273,274.548553L227.232849,274.531525L227.200256,274.510986L227.169983,274.487396L227.142258,274.460876L227.125229,274.441559L226.805176,274.052917L226.512344,274.067627L226.007446,274.572632L225.910049,275.131287L225.968903,275.86676L226.095245,277.252655L226.096832,277.286469L226.097198,277.517029L226.097076,277.528839L226.090622,277.748199L226.090027,277.7612L226.076767,277.969147L226.075546,277.983734L226.055359,278.180389L226.053299,278.196564L226.026184,278.381866L226.023132,278.399506L225.989212,278.573517L225.984833,278.593475L225.94397,278.756042L225.937775,278.777832L225.889984,278.929199L225.881714,278.952698L225.827118,279.092773L225.815918,279.118805L225.754395,279.247437L225.739807,279.274933L225.671341,279.392273L225.652847,279.42099L225.577454,279.527008L225.554718,279.555847L225.472519,279.650574L225.445282,279.678894L225.35614,279.762329L225.324646,279.788696L225.228577,279.860809L225.193314,279.884277L225.090317,279.944977L225.056259,279.96286L225.02063,279.977081L224.983673,279.98764L224.945847,279.994476L224.907547,279.997375L224.869232,279.996399L224.831055,279.991669L224.78862,279.981445L222.583939,279.319794L222.547699,279.306915L222.513046,279.290497L222.480209,279.270569L222.449448,279.247437L222.421356,279.221313L222.395935,279.192474L222.373566,279.161224L222.354477,279.12793L222.333557,279.078064L222.305588,278.995483L222.295502,278.960358L222.274338,278.869995L222.26825,278.837646L222.254028,278.739136L222.250992,278.711304L222.243561,278.605011L222.242722,278.580688L222.242111,278.466522L222.242599,278.444855L222.248917,278.322662L222.250381,278.303436L222.263763,278.173462L222.265823,278.157288L222.284668,278.028503L222.308746,277.772522L222.312149,277.745758L222.355927,277.482605L222.361282,277.456238L222.423782,277.195862L222.430969,277.170349L222.512192,276.912903L222.520828,276.888336L222.620789,276.633942L222.630753,276.610718L222.749451,276.359131L222.760498,276.337463L222.897919,276.088928L222.909836,276.06897L223.065979,275.823212L223.209595,275.589355L223.337036,275.374237L223.446472,275.180298L223.53598,275.011993L223.606628,274.867645L223.659042,274.746765L223.690292,274.660065L223.688583,274.657867L223.666092,274.62674L223.646881,274.593445L223.636169,274.570557L223.567841,274.411621L223.183441,274.002563L223.131271,273.992218L223.061111,273.984192L222.983765,273.981293L222.904114,273.984192L222.817657,273.993439L222.727066,274.009003L222.622131,274.033691L222.580536,274.041107L221.793274,274.135834L221.754974,274.138519L221.734055,274.138275L221.51796,274.130371L221.488892,274.128174L221.281555,274.104584L221.250549,274.099731L221.052216,274.060333L221.020233,274.052551L220.830658,273.997467L220.797821,273.986267L220.617249,273.915375L220.585144,273.901031L220.413437,273.814453L220.382538,273.797058L220.219604,273.694794L220.190292,273.674469L220.036346,273.556396L220.007156,273.531464L219.98053,273.503754L219.95694,273.47345L219.936981,273.441956L219.527191,272.717194L219.51004,272.682922L219.496414,272.646912L219.483521,272.594757L219.326416,271.681152L219.321793,271.642975L219.322159,271.585815L219.336517,271.410706L219.340393,271.379822L219.367401,271.216492L219.374817,271.181854L219.414703,271.030212L219.426498,270.992981L219.479156,270.853149L219.496414,270.814117L219.561844,270.686188L219.584824,270.647156L219.663025,270.530884L219.692078,270.493195L219.783035,270.388977L219.816238,270.355286L219.919968,270.262756L219.942703,270.244019L220.060913,270.154053L220.075745,270.143341L220.193817,270.062103L220.210724,270.051056L220.328918,269.978699L220.347397,269.968109L220.465485,269.904633L220.485779,269.894531L220.603989,269.839813L220.626358,269.8302L220.744446,269.784485L220.768524,269.776093L220.879181,269.741577L221.017807,269.523529L221.040054,269.492279L221.065353,269.463348L221.093445,269.437073L221.123962,269.413849L221.156799,269.393768L221.201538,269.373108L221.611359,269.215149L221.647949,269.203094L221.68541,269.194824L221.723587,269.19046L221.737823,269.189972L221.807007,269.075653L221.824402,269.049408L221.922409,268.914063L221.941986,268.889252L222.050705,268.762787L222.072357,268.739685L222.191895,268.62207L222.215118,268.601044L222.345474,268.492462L222.369431,268.474091L222.510742,268.374237L222.534927,268.358429L222.605591,268.316254L222.745911,268.082642L222.767319,268.050781L222.791885,268.02124L222.819244,267.994354L222.849274,267.970276L222.8815,267.949493L222.91568,267.931976L222.950821,267.918243L223.235001,267.823273L223.249115,267.772552L223.406342,267.331268L223.421051,267.295868L223.439301,267.261932L223.460815,267.230194L223.485504,267.200775L223.513,267.173889L223.54303,267.149933L223.575378,267.129272L223.614532,267.109802L224.055832,266.920959L224.091827,266.907593L224.129028,266.89798L224.167099,266.892273L224.205154,266.89032L226.227432,266.89032L226.365448,266.717773L226.390869,266.689056L226.419205,266.663055L226.449966,266.639954L226.482803,266.620239L226.508331,266.608215L226.487793,266.598969L226.45459,266.57962L226.423462,266.557007L226.394882,266.531464L226.368973,266.503021L226.345993,266.47226L226.326416,266.439178L226.31012,266.404388L226.29747,266.368164L226.288605,266.330688L226.283493,266.292633L226.282272,266.254211L226.285065,266.215912L226.291519,266.178101L226.301849,266.141113L226.315948,266.105255L226.333466,266.071198L226.353043,266.040924L226.667999,265.60022L226.691833,265.57019L226.718704,265.542694L226.748138,265.518036L226.779877,265.496368L226.81369,265.478149L226.863419,265.458679L227.36795,265.300842L227.405167,265.291229L227.4431,265.285522L227.481537,265.283569L227.519836,265.285522L227.557892,265.291351L227.594986,265.300964L227.631104,265.314331L227.667343,265.332336L228.171143,265.615784L228.203735,265.63623L228.233887,265.659943L228.261627,265.686554L228.286545,265.715881L228.308319,265.747498L228.329117,265.786285L228.549454,266.259186L228.563934,266.29483L228.574631,266.331665L228.58168,266.369507L228.584839,266.407684L228.583984,266.446106L228.579376,266.484283L228.570984,266.521729L228.558701,266.558228L228.542877,266.593109L228.52356,266.626434L228.501053,266.65744L228.475525,266.686157L228.447189,266.712036L228.41629,266.735046L228.383347,266.75473L228.348572,266.771027L228.339203,266.774323L228.440735,266.89032L228.457275,266.89032L228.490845,266.891785L228.624969,266.903687L228.66304,266.909058L228.700241,266.918182L228.818451,266.953552L228.854675,266.966431L228.899307,266.988464L229.001694,267.047546L229.034042,267.068359L229.073563,267.101196L229.160278,267.183624L229.189941,267.21524L229.266556,267.306946L229.319077,267.109344L229.330887,267.072723L229.346207,267.037476L229.365051,267.004028L229.395569,266.962311L229.463791,266.881195L229.461731,266.880707L229.425247,266.868927L229.389984,266.853363L229.356659,266.834381L229.325287,266.812256L229.296341,266.786957L229.270203,266.758881L229.246857,266.72821L229.226913,266.695404L229.210251,266.660858L229.197235,266.624603L229.187866,266.587402L229.182404,266.549347L229.180817,266.511047L229.183136,266.472626L229.189209,266.434662L229.204895,266.381165L229.393631,265.876617L229.408829,265.841492L229.427551,265.807922L229.449692,265.776428L229.483856,265.738251L229.584427,265.639984L229.613251,265.614441L229.639023,265.595612L229.751144,265.520813L229.784088,265.501251L229.817169,265.485687L229.941086,265.434601L229.977203,265.421844L230.009674,265.413696L230.145386,265.385956L230.183441,265.380249L230.221741,265.378296L230.260178,265.380249L230.287415,265.384003L230.823441,265.478729L230.860901,265.487366L230.897263,265.499786L230.932281,265.515717L230.965363,265.535034L230.99649,265.5578L231.025055,265.583435L231.047195,265.607513L231.393158,266.016602L231.416504,266.047119L231.436569,266.079834L231.453232,266.114502L231.46637,266.150604L231.475723,266.187805L231.481201,266.225891L231.48291,266.264191L231.480713,266.302612L231.47464,266.340546L231.464783,266.377625L231.451172,266.413635L231.434021,266.447937L231.413467,266.480408L231.389755,266.510681L231.363113,266.538391L231.333817,266.563202L231.3022,266.584961L231.268509,266.603333L231.25235,266.610138L231.272766,266.614288L231.309982,266.623779L231.3461,266.636902L231.38063,266.653687L231.413345,266.673737L231.443863,266.697083L231.471832,266.72348L231.497009,266.752533L231.519135,266.783905L231.532394,266.806671L231.752747,267.216461L231.769165,267.251129L231.782043,267.287354L231.789948,267.318604L231.884674,267.77243L232.781998,267.77243L232.743561,267.47583L232.74054,267.437531L232.741379,267.399231L232.746124,267.361053L232.754761,267.323608L232.762421,267.29953L232.919647,266.858826L232.934372,266.823303L232.952606,266.78952L232.974243,266.757782L232.998932,266.728333L233.026413,266.701477L233.056458,266.677643L233.088806,266.65683L233.107651,266.646881L233.146439,266.627533L233.120667,266.619995L233.085144,266.605652L233.051102,266.587646L233.019241,266.566254L232.989578,266.541809L232.962585,266.514557L232.938385,266.48465L232.917465,266.452423L232.899826,266.418243L232.885727,266.382507L232.875381,266.345551L232.86882,266.307709L232.866028,266.269409L232.867233,266.230988L232.872223,266.192932L232.881104,266.155457L232.893753,266.119232L232.901657,266.101105L233.121994,265.628815L233.139877,265.594879L233.161285,265.562897L233.185715,265.533356L233.212952,265.506348L233.242874,265.482147L233.275101,265.461243L233.314011,265.441406L233.818542,265.221191L233.854538,265.207703L233.891632,265.197845L233.929565,265.191772L233.967987,265.189575L234.006302,265.191284zM226.661835,266.261688L227.10318,266.293243L227.040039,266.828644L226.661835,266.954926L226.409943,267.269989L224.205261,267.269989L223.763916,267.45874L223.606735,267.900085L223.606735,268.151978L223.448868,268.151978L223.07135,268.27829L222.881912,268.593323C222.461853,268.823975,222.157776,269.149323,221.968338,269.569366L221.748001,269.569366L221.338226,269.727234L221.117905,270.073883C220.802856,270.136322,220.487793,270.294189,220.172745,270.546112C219.878983,270.776733,219.721802,271.134338,219.700516,271.616852L219.857697,272.530457L220.267471,273.25528C220.66626,273.590912,221.159775,273.759064,221.748001,273.759064L222.535294,273.664368C222.850342,273.580627,223.13382,273.580627,223.386414,273.664368L223.890213,274.200409L223.98494,274.420746C224.047394,274.483887,224.078964,274.567627,224.078964,274.672668C224.037094,274.903961,223.805786,275.354919,223.386414,276.026886C222.945068,276.678284,222.703461,277.360535,222.661591,278.074371C222.598434,278.452576,222.609421,278.74704,222.693161,278.95639L224.897827,279.618073C225.465469,279.32428,225.737961,278.547302,225.717377,277.287109L225.59108,275.901276L225.527924,275.113312L225.654221,274.389191L226.347473,273.695923L226.976898,273.664368L227.418243,274.200409L228.111481,274.420746L228.740906,274.262878L229.119095,274.924561L229.56044,275.33432L230.095825,275.45993L230.568054,275.45993L230.568054,276.908905L230.662781,277.129913L230.883118,277.223938L231.103439,277.129913L231.166595,276.908905L231.166595,276.341949L231.671082,276.341949L231.671082,276.908905L231.733551,277.129913L231.922989,277.223938L232.143311,277.129913L232.206467,276.908905L232.206467,276.341949L232.741852,276.341949L232.741852,276.908905L232.804993,277.129913L233.025314,277.223938L233.214081,277.129913L233.308792,276.908905L233.308792,276.341949L233.781036,276.341949L233.781036,276.908905L233.907333,277.129913L234.064514,277.223938C234.169525,277.223938,234.243652,277.192383,234.285522,277.129913L234.379562,276.908905L234.379562,275.45993L234.852478,275.45993L235.261566,275.271179L235.451004,274.86142L235.451004,274.231323L235.766052,274.231323L235.766052,275.176453L235.923248,275.617798C236.04953,275.743408,236.196426,275.806549,236.364594,275.806549L239.514404,275.806549L239.892609,275.617798L240.08136,275.176453L240.08136,273.790649L239.986649,273.38089L239.640701,273.160553L239.640701,272.90863L239.892609,272.688324L240.018219,272.37326L240.018219,271.144623L241.02652,271.144623C241.173401,271.144623,241.299698,271.091766,241.404724,270.986755L241.625046,270.640839L242.192001,270.640839L242.192001,269.75882L241.625046,269.75882L241.404724,269.412201L241.02652,269.285889L240.018219,269.285889L240.018219,268.782104C240.018219,268.550781,239.934479,268.383301,239.766312,268.27829L239.766312,267.049652L239.672287,266.92337L239.514404,266.828644L239.325653,266.92337L239.230927,267.049652L239.230927,268.151978L235.104385,268.151978L235.072815,267.301544L234.852478,266.891785L234.411133,266.734589L234.379562,266.261688L234.317093,266.199219L234.757751,266.167664L234.474274,265.726318L233.970474,265.569122L233.465973,265.789459L233.245651,266.261688L233.686996,266.230804L233.686996,266.324829L233.718567,266.766174L233.277222,266.986511L233.120041,267.427155L233.214081,268.151978L231.576355,268.151978L231.418488,267.396271L231.198166,266.986511L230.725922,266.891785L230.662781,266.419556L230.662781,266.324829L231.103439,266.261688L230.757507,265.8526L230.221436,265.757874C230.032684,265.779144,229.875504,265.862885,229.749207,266.009766L229.56044,266.514282L230.001099,266.451141L230.001099,266.514282L230.064255,266.986511C229.896088,267.007782,229.770477,267.081238,229.68605,267.206848L229.56044,267.679749L229.62291,268.151978L229.087524,268.151978L229.087524,267.900085C229.087524,267.731934,229.024384,267.585022,228.898773,267.45874C228.793747,267.33313,228.646866,267.269989,228.457428,267.269989L228.268661,267.269989L228.04834,267.018066L227.733292,266.92337L227.764862,266.451141L227.764862,266.356415L228.205521,266.419556L227.985199,265.946625L227.481384,265.663147L226.976898,265.821014L226.661835,266.261688M235.072815,269.160278L235.356293,269.821289C235.356293,270.094452,235.261566,270.314789,235.072815,270.482971C234.862778,270.671722,234.642441,270.766418,234.411133,270.766418C234.138641,270.766418,233.907333,270.671722,233.718567,270.482971C233.5504,270.314789,233.465973,270.094452,233.465973,269.821289C233.465973,269.548798,233.5504,269.327759,233.718567,269.160278C233.907333,268.970856,234.138641,268.876801,234.411133,268.876801C234.642441,268.876801,234.862778,268.970856,235.072815,269.160278zM234.345093,269.259521L234.284286,269.267792L234.229935,269.280823L234.177277,269.299286L234.127655,269.322632L234.080475,269.351105L234.034393,269.385742L233.987091,269.428925L233.954132,269.465271L233.927017,269.502502L233.903549,269.543243L233.883972,269.587494L233.868408,269.635406L233.856369,269.689636L233.84845,269.752502L233.845779,269.821228L233.84845,269.890167L233.856125,269.951569L233.868164,270.006409L233.884216,270.05603L233.903427,270.099335L233.927017,270.140289L233.954132,270.177521L233.987457,270.214355L234.034393,270.257172L234.080109,270.291443L234.128387,270.320648L234.17691,270.343506L234.229935,270.362122L234.28392,270.375L234.346069,270.383636L234.409668,270.386444L234.458313,270.383881L234.503906,270.376709L234.551819,270.364166L234.601074,270.345825L234.650909,270.321625L234.704437,270.28952L234.760605,270.249268L234.817154,270.201843L234.858139,270.161346L234.889633,270.122803L234.914795,270.083893L234.935715,270.041809L234.952744,269.994995L234.965271,269.944153L234.972809,269.890289L234.759521,269.392914L234.703583,269.352783L234.651779,269.321655L234.600693,269.296967L234.551819,269.278748L234.504517,269.266327L234.458176,269.259155L234.409668,269.256622L234.345093,269.259521zM230.379303,271.113068C230.169266,270.944885,230.064255,270.724548,230.064255,270.451385C230.064255,270.178192,230.169266,269.957886,230.379303,269.789703C230.568054,269.600952,230.778091,269.506226,231.009399,269.506226C231.282593,269.506226,231.513214,269.600952,231.701965,269.789703C231.870132,269.957886,231.954559,270.178192,231.954559,270.451385C231.954559,270.724548,231.870132,270.944885,231.701965,271.113068C231.513214,271.301819,231.282593,271.396545,231.009399,271.396545C230.778091,271.396545,230.568054,271.301819,230.379303,271.113068zM230.963409,269.88858L230.919266,269.89563L230.877319,269.906952L230.833176,269.924225L230.789886,269.94635L230.744888,269.975281L230.697464,270.012268L230.637024,270.068207L230.631195,270.073425L230.572571,270.125458L230.536697,270.164856L230.508606,270.20401L230.486115,270.244751L230.468613,270.287811L230.455597,270.335602L230.447205,270.389832L230.444153,270.451233L230.447205,270.512787L230.455597,270.567017L230.468613,270.614807L230.486115,270.657837L230.508606,270.698578L230.536697,270.737732L230.572571,270.77713L230.631195,270.829193L230.637024,270.834412L230.697464,270.89035L230.744644,270.927216L230.78952,270.955902L230.833893,270.97876L230.877319,270.995667L230.919266,271.006958L230.963409,271.014038L231.010956,271.016449L231.075531,271.01355L231.136322,271.00528L231.191544,270.992004L231.242493,270.97403L231.292969,270.950317L231.339417,270.922333L231.38623,270.887085L231.432922,270.844513L231.466248,270.807678L231.493729,270.769836L231.517075,270.729218L231.536163,270.686188L231.552216,270.636566L231.564377,270.581116L231.571793,270.521301L231.574585,270.451233L231.571793,270.381317L231.564255,270.32077L231.552216,270.266052L231.536163,270.216431L231.516953,270.173126L231.493362,270.132141L231.466248,270.09494L231.4328,270.057983L231.385986,270.015289L231.339905,269.980652L231.292221,269.951935L231.242615,269.928589L231.191544,269.910583L231.136322,269.897339L231.075531,269.889069L231.010956,269.886139L230.963409,269.88858zM227.733292,269.569366C227.943329,269.75882,228.04834,269.989441,228.04834,270.262634C228.04834,270.514526,227.943329,270.734863,227.733292,270.924316C227.565125,271.091766,227.355087,271.176208,227.10318,271.176208C226.830002,271.176208,226.60968,271.091766,226.441513,270.924316C226.231476,270.734863,226.126465,270.514526,226.126465,270.262634C226.126465,269.989441,226.231476,269.75882,226.441513,269.569366C226.60968,269.401215,226.830002,269.317474,227.10318,269.317474C227.355087,269.317474,227.565125,269.401215,227.733292,269.569366zM227.033051,269.699982L226.972626,269.70752L226.91777,269.719543L226.867432,269.735718L226.824631,269.7547L226.783768,269.778046L226.746185,269.80542L226.702667,269.844696L226.647812,269.898804L226.608047,269.946594L226.576309,269.993896L226.551147,270.042175L226.532043,270.090942L226.518188,270.143341L226.509308,270.200989L226.506393,270.261047L226.509186,270.314209L226.517334,270.363678L226.530106,270.408936L226.548096,270.45282L226.573151,270.498779L226.605255,270.545258L226.645508,270.592682L226.702423,270.648621L226.745453,270.687408L226.783401,270.714874L226.824509,270.738464L226.869019,270.758179L226.917175,270.773743L226.97226,270.785889L227.034027,270.793549L227.103348,270.796234L227.162201,270.793793L227.215088,270.786743L227.264587,270.775208L227.308365,270.760254L227.348862,270.741516L227.38887,270.717682L227.427048,270.689453L227.473755,270.647156L227.528961,270.592804L227.569321,270.545258L227.601791,270.498291L227.626236,270.45343L227.644592,270.408813L227.657242,270.363678L227.665405,270.314209L227.668182,270.261047L227.665268,270.200989L227.656403,270.143341L227.64241,270.090576L227.623444,270.041931L227.598633,269.994507L227.566528,269.946594L227.526764,269.898804L227.472046,269.844818L227.427048,269.803955L227.388504,269.775238L227.349228,269.751892L227.309341,269.733551L227.264099,269.718109L227.21582,269.706909L227.161835,269.699738L227.103348,269.697296L227.033051,269.699982zM221.748001,271.648438L221.968338,271.616852C222.178375,272.058197,222.493423,272.39386,222.913483,272.625153L223.291687,272.971802L223.291687,273.003357L222.378113,273.065826C221.64299,273.233978,221.086334,273.139282,220.708817,272.782349L220.425339,272.31012L220.330612,271.616852L220.550949,271.018341L221.117905,270.734863L221.117905,271.018341L221.307343,271.459686C221.432953,271.585297,221.579834,271.648438,221.748001,271.648438zM220.719269,271.659241L220.790649,272.181549L220.99968,272.529572L221.074585,272.590363L221.191208,272.658112L221.323517,272.710266L221.473328,272.746033L221.645767,272.764404L221.839478,272.763184L222.05423,272.740814L222.307281,272.69278L222.334167,272.689362L222.241501,272.611786L222.218887,272.591339L222.095825,272.470245L222.075027,272.447968L221.961823,272.317139L221.942841,272.293427L221.839478,272.152588L221.822937,272.128174L221.760437,272.027466L221.711426,272.026123L221.58934,272.014343L221.551285,272.008636L221.513458,271.999023L221.399277,271.963623L221.363159,271.9505L221.327042,271.932739L221.220886,271.873657L221.188293,271.853333L221.161545,271.832794L221.063278,271.750336L221.035065,271.724182L221.009781,271.695374L220.987396,271.664001L220.96843,271.630676L220.958466,271.609283L220.839661,271.33252L220.719269,271.659241z"/>
</svg>
