<?xml version="1.0" encoding="UTF-8"?>
<svg xmlns="http://www.w3.org/2000/svg" xmlns:xlink="http://www.w3.org/1999/xlink" width="23.243mm" height="23.250mm" viewBox="-211.147827 260.968597 23.243454 23.249786">
    <path transform="matrix(-1,0,0,1,0,0)" style="stroke:none;fill:#000000;fill-rule:evenodd" d="M199.629288,260.972229L199.666977,260.979645L199.703705,260.990967L199.73909,261.005798L199.772781,261.024292L199.801834,261.043976L200.184158,261.330231L200.213715,261.354675L200.240585,261.382172L200.264542,261.412201L200.281815,261.438202L200.568665,261.914551L200.586792,261.948334L200.601379,261.983856L200.612335,262.020691L200.619507,262.058502L200.623032,262.110321L200.623032,265.077209L202.266998,263.371338L202.294952,263.345093L202.325485,263.321747L202.3582,263.301666L202.392853,263.285004L202.420822,263.274445L202.994553,263.084381L203.031631,263.074158L203.06958,263.067719L203.10788,263.065155L203.146179,263.066498L203.18425,263.071716L203.22171,263.080719L203.254044,263.091919L203.732559,263.281982L203.767578,263.298035L203.800659,263.317352L203.831665,263.340088L203.860245,263.365753L203.886017,263.394226L203.90889,263.42511L203.931747,263.464508L204.218613,264.036285L204.234055,264.071533L204.24585,264.108032L204.253998,264.145599L204.258255,264.183777L204.258499,264.222198L204.254974,264.260529L204.247681,264.298218L204.236481,264.33493L204.221649,264.370331L204.203415,264.404144L204.182739,264.43454L203.895874,264.816132L203.864014,264.85321L200.623032,268.173126L200.623032,269.964478L202.080811,268.51239L202.10939,268.486603L202.140396,268.463989L202.173599,268.44455L202.208496,268.428619L202.228928,268.421082L202.80278,268.230286L202.839874,268.220062L202.877686,268.213623L202.915985,268.210938L202.954422,268.21228L202.992477,268.217377L203.029816,268.226379L203.063126,268.237946L203.541519,268.428741L203.576416,268.444794L203.609619,268.464233L203.640625,268.486969L203.669083,268.512634L203.694855,268.541077L203.717606,268.572113L203.740097,268.610779L203.931625,268.99176L203.947067,269.026886L203.958984,269.063507L203.96701,269.101074L203.971268,269.139252L203.971756,269.177551L203.968231,269.215881L203.960815,269.253571L203.952423,269.282623L203.760895,269.855133L203.746902,269.8909L203.729279,269.925079L203.708359,269.957275L203.68428,269.987335L203.668716,270.003754L202.11937,271.546783L203.914108,271.546783L207.247269,268.226868L207.28801,268.191711L207.670944,267.905579L207.702805,267.884186L207.736725,267.866058L207.772232,267.851471L207.809082,267.840668L207.846893,267.833466L207.885208,267.830322L207.923508,267.830933L207.9617,267.835419L207.999268,267.843811L208.035629,267.855865L208.06749,267.869965L208.641342,268.156097L208.674774,268.174957L208.706146,268.197083L208.735214,268.22226L208.761475,268.250336L208.784836,268.280853L208.804901,268.313568L208.824112,268.354187L209.01564,268.830627L209.028168,268.867004L209.036911,268.904327L209.041901,268.942383L209.042877,268.980804L209.04007,269.019104L209.033386,269.056946L209.022934,269.093903L209.01564,269.113739L208.824112,269.590057L208.807938,269.624939L208.788361,269.65802L208.765625,269.688904L208.739838,269.717377L206.903259,271.546783L210.098633,271.546783L210.13707,271.548706L210.175003,271.554565L210.212219,271.564148L210.248215,271.577423L210.268158,271.58667L210.650482,271.777466L210.683914,271.796295L210.715286,271.818542L210.744232,271.843719L210.770508,271.871826L210.793854,271.902344L210.805878,271.920959L211.093475,272.3974L211.111603,272.431183L211.126312,272.466827L211.137253,272.50354L211.144424,272.541382L211.147827,272.579559L211.147354,272.617981L211.142853,272.656158L211.134705,272.693726L211.122665,272.730225L211.107574,272.76416L210.819992,273.335815L210.801025,273.369141L210.778763,273.400513L210.753479,273.429443L210.725388,273.455597L210.694733,273.478821L210.650482,273.5047L210.268158,273.695618L210.233002,273.71109L210.196411,273.72287L210.158829,273.730896L210.120651,273.735046L210.098633,273.735626L207.094788,273.735626L208.739838,275.374237L208.765625,275.40271L208.788361,275.433594L208.807938,275.466675L208.824112,275.501556L209.01564,275.977905L209.028168,276.01413L209.036911,276.051575L209.041901,276.08963L209.042877,276.128082L209.04007,276.166382L209.033386,276.204193L209.023422,276.23996L208.831894,276.811737L208.81778,276.847473L208.800278,276.881653L208.779236,276.913879L208.755157,276.943787L208.728165,276.971161L208.698608,276.995605L208.666626,277.016998L208.632706,277.035004L208.591721,277.051422L208.017883,277.242218L207.980789,277.252411L207.942963,277.25885L207.904663,277.261536L207.866241,277.260193L207.828171,277.255096L207.790848,277.246094L207.754608,277.233337L207.728821,277.221771L207.345886,277.030975L207.312454,277.012146L207.281082,276.98999L207.25116,276.963867L203.917282,273.735626L202.149155,273.735626L203.66275,275.17749L203.689148,275.205353L203.712616,275.235748L203.732925,275.268463L203.753113,275.310883L203.944641,275.787933L203.957153,275.82431L203.965912,275.861755L203.970901,275.899811L203.971878,275.938263L203.969086,275.976563L203.962387,276.014374L203.952301,276.049988L203.760773,276.621674L203.74678,276.65741L203.729279,276.691589L203.708237,276.723694L203.684158,276.753723L203.657166,276.780975L203.627609,276.805511L203.595642,276.826813L203.561707,276.844818L203.541153,276.853668L203.062759,277.043884L203.026413,277.056274L202.988953,277.064911L202.950897,277.069641L202.91246,277.070618L202.874161,277.067719L202.836334,277.060883L202.803146,277.051544L202.229294,276.861328L202.193542,276.847351L202.159256,276.829956L202.127029,276.809052L202.096985,276.785095L202.074982,276.763947L200.623032,275.251923L200.623032,276.9151L203.860245,280.139038L203.886139,280.167511L203.917755,280.212494L204.20462,280.689545L204.222748,280.723358L204.237335,280.75885L204.248154,280.795715L204.255341,280.833527L204.258621,280.871826L204.258011,280.910126L204.25351,280.948334L204.245239,280.985901L204.2332,281.022369L204.218613,281.055328L203.931747,281.626984L203.912781,281.660431L203.890518,281.691681L203.865234,281.720642L203.837143,281.746887L203.80661,281.770111L203.773788,281.790192L203.73317,281.809265L203.254654,282.000183L203.218292,282.012604L203.180847,282.02124L203.142654,282.026093L203.104355,282.027069L203.066055,282.024139L203.028229,282.017334L202.994186,282.007721L202.420456,281.816803L202.384583,281.802948L202.350403,281.785431L202.318192,281.764526L202.288147,281.740448L202.266998,281.720154L200.623032,280.014771L200.623032,283.07663L200.621078,283.115051L200.61525,283.152985L200.605637,283.190216L200.592392,283.226196L200.582779,283.246887L200.295914,283.818665L200.276947,283.85199L200.2547,283.883362L200.229401,283.912292L200.201309,283.938568L200.170792,283.961792L200.12616,283.988037L199.743835,284.178864L199.708572,284.194183L199.671967,284.205963L199.634399,284.213989L199.596207,284.21814L199.557785,284.218384L199.519592,284.214844L199.481903,284.207306L199.454666,284.199402L198.880203,284.008606L198.844452,283.994629L198.810165,283.977234L198.777939,283.956299L198.748016,283.932343L198.720535,283.905365L198.695969,283.875824L198.674576,283.843964L198.656448,283.810028L198.639923,283.768677L198.449005,283.196899L198.43866,283.159821L198.432098,283.121979L198.429413,283.07663L198.429413,279.988007L196.684891,281.725616L196.656311,281.751404L196.625305,281.774017L196.592102,281.793457L196.557693,281.809265L196.079178,282.000183L196.042816,282.012604L196.005371,282.02124L195.967194,282.026093L195.928879,282.027069L195.890579,282.024139L195.852753,282.017334L195.818832,282.007843L195.24437,281.816925L195.208496,281.802948L195.174332,281.785431L195.142105,281.764648L195.112061,281.74057L195.084717,281.713684L195.06015,281.684143L195.038742,281.652283L195.02063,281.618347L195.003967,281.576904L194.813171,281.005219L194.802948,280.968262L194.796387,280.930328L194.793716,280.892029L194.795044,280.853607L194.800156,280.815521L194.809036,280.778198L194.820831,280.744141L195.011627,280.26709L195.027679,280.232208L195.047134,280.199127L195.06987,280.168121L195.100037,280.135406L198.429413,276.912048L198.429413,275.222595L196.876297,276.769897L196.847717,276.795685L196.816711,276.818298L196.78363,276.837738L196.748611,276.853668L196.270218,277.043884L196.233856,277.056274L196.196411,277.064911L196.158356,277.069641L196.119919,277.070618L196.081619,277.067719L196.043793,277.060883L196.010727,277.051544L195.436264,276.861328L195.400513,276.847473L195.366226,276.829956L195.334,276.809174L195.303955,276.785217L195.276474,276.758209L195.251907,276.72879L195.230515,276.69693L195.212265,276.662994L195.19574,276.621674L195.004211,276.049988L194.993744,276.012909L194.987305,275.975098L194.984512,275.936798L194.985718,275.898376L194.990829,275.860291L194.99971,275.822968L195.011871,275.787933L195.2034,275.310883L195.219452,275.276001L195.239029,275.24292L195.261765,275.212036L195.293747,275.17749L196.807343,273.735626L195.138458,273.735626L191.900635,276.960205L191.872177,276.98587L191.841171,277.008484L191.807968,277.027954L191.773071,277.043884L191.75264,277.051422L191.178802,277.242218L191.141708,277.252411L191.103882,277.25885L191.065582,277.261536L191.027161,277.260193L190.98909,277.255096L190.951767,277.246094L190.918442,277.234558L190.440048,277.043762L190.405151,277.02771L190.371948,277.00824L190.340942,276.985504L190.312485,276.959839L190.286713,276.931396L190.263977,276.900391L190.244385,276.86731L190.228348,276.832397L190.220673,276.811737L190.02916,276.23996L190.018814,276.202972L190.012375,276.165161L190.009583,276.126862L190.010788,276.08844L190.0159,276.050354L190.02478,276.012909L190.036942,275.977905L190.228455,275.501556L190.244629,275.466675L190.264221,275.433594L190.286957,275.40271L190.312729,275.374237L191.957672,273.735626L189.050003,273.735626L189.011566,273.733704L188.973633,273.727844L188.930344,273.716309L188.355759,273.525391L188.319885,273.511414L188.285721,273.493896L188.253494,273.473083L188.223465,273.449005L188.196106,273.42215L188.171539,273.392609L188.150131,273.360748L188.132019,273.326813L188.115601,273.285828L187.924072,272.714172L187.91362,272.677094L187.907166,272.639252L187.904373,272.600952L187.905594,272.562531L187.91069,272.524475L187.919571,272.487122L187.931732,272.451996L188.12326,271.975555L188.139435,271.940643L188.15889,271.907562L188.181747,271.876678L188.207535,271.848236L188.236099,271.822449L188.26712,271.799835L188.300308,271.780365L188.33522,271.764435L188.355759,271.756897L188.930344,271.566101L188.967438,271.555878L189.005249,271.549438L189.050003,271.546783L192.078781,271.546783L190.307632,269.712128L190.282333,269.683197L190.260086,269.651825L190.241226,269.618378L190.228455,269.590057L190.036942,269.113739L190.024414,269.077484L190.015656,269.040039L190.010666,269.001984L190.009705,268.963531L190.012497,268.925232L190.01918,268.887421L190.029633,268.850464L190.036942,268.830627L190.228455,268.354187L190.244629,268.319275L190.264099,268.286224L190.286957,268.25531L190.312729,268.226868L190.341309,268.20108L190.385818,268.169952L190.864212,267.88382L190.898132,267.865814L190.93364,267.851349L190.970612,267.840546L191.008301,267.833466L191.046616,267.830322L191.085037,267.830933L191.12323,267.835541L191.160675,267.843933L191.197159,267.85611L191.228409,267.869965L191.802261,268.156097L191.835693,268.174957L191.867065,268.197083L191.904404,268.230652L195.141495,271.546783L196.837143,271.546783L195.287781,270.003754L195.261887,269.975281L195.239151,269.944275L195.219574,269.911194L195.2034,269.876434L195.195618,269.855133L195.004089,269.282623L194.993744,269.245667L194.987183,269.207855L194.984512,269.169434L194.985718,269.131104L194.990829,269.092926L194.999832,269.055603L195.012482,269.019348L195.024872,268.99176L195.2164,268.610779L195.235382,268.577332L195.257629,268.546082L195.282928,268.517151L195.311005,268.490997L195.34166,268.467773L195.374496,268.447693L195.409149,268.431152L195.435898,268.421082L196.010361,268.230286L196.04744,268.220062L196.085266,268.213623L196.123566,268.210938L196.162003,268.21228L196.200058,268.217377L196.237396,268.226379L196.270584,268.237946L196.748978,268.428741L196.783875,268.444794L196.817078,268.464233L196.848083,268.486969L196.870209,268.506439L198.429413,269.992188L198.429413,268.176392L195.096252,264.857117L195.070358,264.828644L195.047623,264.797638L195.024521,264.757874L194.83371,264.376282L194.81839,264.341034L194.806595,264.304535L194.798569,264.266968L194.794312,264.22879L194.794067,264.190338L194.797607,264.152039L194.805023,264.114349L194.813171,264.086395L195.003967,263.514587L195.017944,263.478851L195.035583,263.444672L195.056381,263.412445L195.080444,263.382416L195.107452,263.355042L195.136993,263.330627L195.168976,263.309204L195.202911,263.291107L195.244858,263.274445L195.819321,263.084381L195.856277,263.074158L195.894226,263.067719L195.932526,263.065155L195.970963,263.066498L196.009018,263.071716L196.046356,263.080719L196.078583,263.091919L196.557083,263.281982L196.592102,263.298035L196.625183,263.317352L196.656189,263.340088L196.684891,263.365875L198.429413,265.103973L198.429413,262.110321L198.431366,262.071899L198.437195,262.033966L198.446808,261.996735L198.456665,261.969147L198.647583,261.492828L198.663635,261.457916L198.683212,261.424835L198.705948,261.393829L198.73172,261.365387L198.7603,261.3396L198.791199,261.316986L198.830597,261.29425L199.405045,261.007996L199.440308,260.992645L199.476791,260.980988L199.514374,260.972961L199.552551,260.968811L199.590973,260.968597L199.629288,260.972229zM195.938522,263.444885L195.364014,263.63504L195.173203,264.206787L195.364014,264.588409L198.80899,268.018982L198.80899,270.878448L196.608429,268.781555L196.13002,268.590729L195.555527,268.781555L195.364014,269.162506L195.555527,269.734924L197.756073,271.926575L194.981705,271.926575L191.632828,268.496002L191.059006,268.209778L190.580597,268.496002L190.389099,268.972351L190.580597,269.44873L192.972656,271.926575L189.049957,271.926575L188.475449,272.117371L188.283951,272.59375L188.475449,273.165497L189.049957,273.356323L192.876556,273.356323L190.580597,275.643341L190.389099,276.11969L190.580597,276.691467L191.059006,276.882263L191.632828,276.691467L194.981705,273.356323L197.756073,273.356323L195.555527,275.452545L195.364014,275.929565L195.555527,276.501343L196.13002,276.691467L196.608429,276.501343L198.80899,274.309021L198.80899,277.07309L195.364014,280.408234L195.173203,280.885284L195.364014,281.457031L195.938522,281.647858L196.416931,281.457031L198.80899,279.074585L198.80899,283.076904L198.999802,283.648651L199.57431,283.839478L199.956619,283.648651L200.24353,283.076904L200.24353,279.074585L202.540176,281.457031L203.113998,281.647858L203.592407,281.457031L203.879318,280.885284L203.592407,280.408234L200.24353,277.07309L200.24353,274.309021L202.348679,276.501343L202.922501,276.691467L203.400909,276.501343L203.592407,275.929565L203.400909,275.452545L201.200348,273.356323L204.070816,273.356323L207.515106,276.691467L207.898102,276.882263L208.471924,276.691467L208.663422,276.11969L208.471924,275.643341L206.175964,273.356323L210.098663,273.356323L210.480972,273.165497L210.76857,272.59375L210.480972,272.117371L210.098663,271.926575L205.984467,271.926575L208.471924,269.44873L208.663422,268.972351L208.471924,268.496002L207.898102,268.209778L207.515106,268.496002L204.070816,271.926575L201.200348,271.926575L203.400909,269.734924L203.592407,269.162506L203.400909,268.781555L202.922501,268.590729L202.348679,268.781555L200.24353,270.878448L200.24353,268.018982L203.592407,264.588409L203.879318,264.206787L203.592407,263.63504L203.113998,263.444885L202.540176,263.63504L200.24353,266.018158L200.24353,262.110565L199.956619,261.634216L199.57431,261.347992L198.999802,261.634216L198.80899,262.110565L198.80899,266.018158L196.416931,263.63504L195.938522,263.444885"/>
</svg>
