<?xml version="1.0" encoding="UTF-8"?>
<svg xmlns="http://www.w3.org/2000/svg" xmlns:xlink="http://www.w3.org/1999/xlink" width="14.482mm" height="24.677mm" viewBox="-518.585022 293.550964 14.482056 24.677185">
    <path transform="matrix(-1,0,0,1,0,0)" style="stroke:none;fill:#000000;fill-rule:evenodd" d="M514.584595,293.552917L514.622559,293.558746L514.659729,293.568359L514.69574,293.581604L514.730286,293.598511L514.77356,293.626617L515.179993,293.930725L515.209534,293.955292L515.236389,293.982666L515.260437,294.012695L515.28125,294.044922L515.298767,294.079224L515.312744,294.11496L515.320679,294.142334L518.573547,307.114899L518.581116,307.152588L518.585022,307.207184L518.585022,307.409668L518.583069,307.44809L518.577209,307.486023L518.567627,307.523224L518.554321,307.559235L518.537476,307.593781L518.517151,307.626343L518.49353,307.656769L518.467163,307.684601L518.437988,307.709656L518.415588,307.725708L518.110596,307.928406L518.077515,307.94812L518.042786,307.964294L518.006409,307.976807L517.969055,307.985687L517.930908,307.990692L517.900513,307.991882L513.181274,307.991882L515.121216,317.468353L515.126953,317.506287L515.128906,317.544708L515.126953,317.583038L515.121094,317.621094L515.111511,317.658295L515.098145,317.694305L515.081238,317.728699L515.060791,317.761292L515.037354,317.791687L515.010803,317.81955L514.98175,317.844604L514.959473,317.860535L514.686157,318.042328L514.611328,318.117126L514.582886,318.142883L514.55188,318.165619L514.518799,318.185089L514.483887,318.201141L514.447571,318.213531L514.410095,318.22229L514.372009,318.227173L514.333618,318.228149L514.295288,318.22522L514.257507,318.218536L514.22052,318.207947L514.173706,318.188507L513.970154,318.087067L513.936707,318.068237L513.905334,318.046082L513.876282,318.020813L513.849976,317.992828L513.824951,317.959869L504.16803,303.669617L504.148193,303.636658L504.131653,303.60199L504.118896,303.565765L504.109741,303.528442L504.104431,303.490356L504.102966,303.457062L504.102966,303.15329L504.104919,303.114868L504.110718,303.076904L504.120361,303.039703L504.133606,303.003723L504.150513,302.969177L504.170837,302.936584L504.194397,302.906189L504.220764,302.878326L504.25,302.853271L504.281494,302.83139L504.312988,302.813629L504.516174,302.712219L504.551453,302.696899L504.587891,302.68512L504.625488,302.677094L504.663696,302.672943L504.685669,302.672333L510.730103,302.672333L505.985291,294.629852L505.967407,294.595795L505.953186,294.56015L505.942444,294.523193L505.935669,294.485382L505.932617,294.436981L505.932617,294.031799L505.93457,293.993378L505.940369,293.955414L505.950012,293.918213L505.963257,293.882233L505.980164,293.847687L506.000488,293.815094L506.024048,293.784698L506.050415,293.756836L506.079651,293.731812L506.111145,293.7099L506.142883,293.692139L506.346069,293.590851L506.381226,293.575409L506.417786,293.563751L506.455383,293.555725L506.493591,293.551575L506.51532,293.550964L514.546143,293.550964L514.584595,293.552917zM506.311707,294.436523L511.394257,303.051422L504.685272,303.051422L504.482056,303.152832L504.482056,303.456573L514.138977,317.746857L514.34259,317.848267L514.44397,317.746857L514.748962,317.544098L512.715698,307.611938L517.900085,307.611938L518.205078,307.409149L518.205078,307.206787L514.952148,294.234161L514.545776,293.929993L506.514923,293.929993L506.311707,294.031372L506.311707,294.436523"/>
</svg>
