<?xml version="1.0" encoding="UTF-8"?>
<svg xmlns="http://www.w3.org/2000/svg" xmlns:xlink="http://www.w3.org/1999/xlink" width="23.176mm" height="23.127mm" viewBox="-491.952087 294.326202 23.175842 23.126709">
    <path transform="matrix(-1,0,0,1,0,0)" style="stroke:none;fill:#000000;fill-rule:evenodd" d="M486.316833,294.331909L486.327026,294.332275L486.674561,294.347351L486.684814,294.347961L487.031006,294.372284L487.041199,294.373138L487.386108,294.40683L487.396301,294.407928L487.739685,294.450836L487.750061,294.452301L488.092102,294.504578L488.102234,294.506287L488.442932,294.56781L488.453064,294.569763L488.792297,294.640656L488.802307,294.642853L489.140076,294.722992L489.150085,294.725555L489.486694,294.815033L489.496521,294.817719L489.831665,294.916595L489.841248,294.919617L490.174927,295.02774L490.184326,295.030884L490.516663,295.148224L490.526123,295.151642L490.857117,295.278473L490.892273,295.294037L490.925598,295.313141L490.956848,295.335388L490.985779,295.360687L491.011963,295.388885L491.035156,295.419525L491.055115,295.452362L491.071655,295.48703L491.080505,295.510498L491.191162,295.835175L491.193848,295.843323L491.296875,296.169464L491.299438,296.177856L491.394653,296.505341L491.396973,296.513611L491.484497,296.842407L491.486694,296.8508L491.566589,297.181091L491.568542,297.189728L491.640625,297.52121L491.642334,297.529602L491.706909,297.862549L491.708496,297.871429L491.765137,298.205841L491.766479,298.214233L491.815613,298.549866L491.816833,298.558746L491.858093,298.895813L491.85907,298.904327L491.8927,299.242767L491.893433,299.251526L491.919373,299.591278L491.919983,299.599792L491.938232,299.940887L491.938599,299.949646L491.949036,300.292206L491.949158,300.300598L491.952087,300.64447L491.952087,300.653107L491.947083,300.998352L491.946716,301.010376L491.924561,301.490845L491.923584,301.505676L491.883484,301.975067L491.881775,301.990387L491.823792,302.448334L491.821472,302.464142L491.745605,302.911041L491.742432,302.92746L491.648682,303.363037L491.644653,303.3797L491.53302,303.804108L491.528137,303.821014L491.398621,304.234222L491.392822,304.251495L491.245422,304.653381L491.238647,304.670654L491.073242,305.061371L491.065552,305.078278L490.882446,305.457916L490.873657,305.474945L490.672546,305.84317L490.663086,305.859711L490.444031,306.216858L490.433594,306.23291L490.196716,306.578735L490.185669,306.594055L489.93103,306.928711L489.919067,306.943542L489.646484,307.266907L489.634033,307.280884L489.343445,307.593048L489.315918,307.619781L489.287109,307.642639L486.361816,309.744446L486.32959,309.765259L486.306885,309.777283L485.927551,309.962372L485.915771,309.967834L485.5354,310.137604L485.52301,310.142822L485.141541,310.29715L485.128906,310.302124L484.746338,310.441132L484.733032,310.445618L484.349304,310.569275L484.335754,310.573303L483.950928,310.681641L483.936951,310.685303L483.550964,310.77832L483.536621,310.781494L483.509094,310.786957L483.872131,312.982513L483.876465,313.020691L483.876953,313.059113L483.873535,313.097321L483.866272,313.135132L483.855225,313.171844L483.840515,313.207367L483.822266,313.24118L483.80072,313.273041L483.76532,313.313507L479.713013,317.342621L479.684448,317.368286L479.65332,317.391022L479.620239,317.410339L479.585205,317.42627L479.548828,317.43869L479.511414,317.447327L479.473328,317.452057L479.434937,317.452911L479.396606,317.44986L479.358765,317.443054L479.321838,317.432373L479.286194,317.418121L479.252258,317.400269L479.220154,317.378967L479.187195,317.351746L478.130127,316.37088L478.103333,316.343414L478.079407,316.313232L478.058716,316.280884L478.041321,316.246613L478.027588,316.210724L478.017517,316.173645L478.011169,316.135834L478.008728,316.097504L478.010193,316.059082L478.015564,316.021027L478.024658,315.983704L478.037537,315.947449L478.054077,315.912811L478.073914,315.879974L478.097046,315.849213L478.120605,315.823547L479.573181,314.37912L478.567139,313.40155L477.105347,314.855225L477.076782,314.880859L477.045776,314.903625L477.012573,314.922943L476.977661,314.938873L476.941162,314.951294L476.903748,314.959778L476.865662,314.964661L476.827209,314.965515L476.78894,314.962463L476.751099,314.955658L476.714294,314.944946L476.67865,314.930725L476.644592,314.912842L476.612488,314.891693L476.582825,314.867249L476.568237,314.853394L474.066345,312.330841L474.04071,312.302277L474.018066,312.271118L473.997009,312.234528L473.954102,312.149536L471.495667,309.705292L471.469849,309.676971L471.447021,309.645966L471.427429,309.613007L471.411255,309.578094L471.398743,309.541748L471.389954,309.504395L471.38501,309.466339L471.383911,309.427917L471.386536,309.389618L471.39325,309.351776L471.403687,309.314819L471.417786,309.279083L471.435425,309.244904L471.456482,309.212799L471.480713,309.182892L471.495667,309.167084L472.887512,307.783356L471.930603,306.786438L470.477478,308.201416L470.448608,308.226837L470.417358,308.249084L470.384033,308.268188L470.348938,308.283752L470.312439,308.295776L470.274841,308.303925L470.236694,308.308319L470.198242,308.308807L470.160095,308.305389L470.122253,308.298096L470.08551,308.28714L470.049988,308.27243L470.016235,308.254181L469.984375,308.232666L469.949707,308.203125L468.8927,307.187256L468.866455,307.159271L468.843079,307.128754L468.822937,307.096039L468.806152,307.061493L468.792969,307.025391L468.78363,306.98819L468.777893,306.950104L468.776245,306.911804L468.778259,306.873383L468.784363,306.835449L468.794067,306.79837L468.807617,306.76236L468.824707,306.727936L468.845154,306.695465L468.868896,306.665192L468.890503,306.642212L473.012878,302.613861L473.041565,302.58844L473.072815,302.566071L473.10614,302.546844L473.141296,302.531281L473.177795,302.519226L473.21521,302.510986L473.253418,302.50647L473.29187,302.505981L473.342651,302.5112L475.410278,302.868378L475.416504,302.837341L475.419922,302.822144L475.515259,302.429749L475.519165,302.415283L475.630798,302.023956L475.635132,302.009491L475.763428,301.619141L475.768188,301.605408L475.912903,301.216156L475.918274,301.202881L476.079468,300.814728L476.085083,300.801849L476.262878,300.414764L476.268738,300.402618L476.463013,300.01651L476.471191,300.00119L476.69043,299.610962L476.697754,299.59845L476.932434,299.215759L476.940186,299.203613L477.190247,298.828705L477.198364,298.817017L477.463684,298.449768L477.472229,298.438477L477.752991,298.078888L477.76178,298.068054L478.057983,297.716034L478.066956,297.705811L478.37854,297.361542L478.387634,297.351807L478.714539,297.015228L478.725708,297.00415L479.035217,296.710846L479.048828,296.698456L479.369385,296.422882L479.38385,296.411102L479.715332,296.153412L479.73053,296.142212L480.072937,295.902313L480.088867,295.891724L480.442383,295.669678L480.458679,295.660065L480.823242,295.455658L480.840027,295.446655L481.215576,295.260223L481.232483,295.252441L481.619019,295.083679L481.636169,295.076599L482.033691,294.92569L482.050842,294.919617L482.459412,294.786469L482.476318,294.781494L482.895874,294.666077L482.912781,294.661835L483.343384,294.564301L483.35968,294.561005L483.801331,294.481232L483.817261,294.478699L484.269897,294.416656L484.285461,294.414856L484.748962,294.370697L484.763977,294.369598L485.238708,294.343231L485.24585,294.342865L485.597534,294.329956L485.607605,294.329712L485.957947,294.326202L485.967957,294.326202L486.316833,294.331909zM475.709625,303.305267L473.27774,302.885193L469.155334,306.913605L470.212341,307.929443L471.939301,306.247803L473.419159,307.789429L471.762909,309.436066L474.264771,311.923523L474.33548,312.063568L476.837341,314.586029L478.563599,312.869385L480.114136,314.375977L478.387878,316.092651L479.444916,317.073486L483.497345,313.044403L483.074524,310.486938C484.108215,310.300232,485.130249,309.950165,486.139923,309.436066L489.065308,307.334351C490.662537,305.699402,491.49649,303.585327,491.567169,300.992828C491.613861,299.147827,491.331757,297.361176,490.720856,295.632843C488.959595,294.932068,487.138611,294.628662,485.259308,294.722015C482.698395,294.815369,480.607666,295.667877,478.98642,297.27951C478.094116,298.166992,477.365875,299.136169,476.801666,300.187012C476.261475,301.21524,475.897675,302.254425,475.709625,303.305267z"/>
</svg>
