<?xml version="1.0" encoding="UTF-8"?>
<svg xmlns="http://www.w3.org/2000/svg" xmlns:xlink="http://www.w3.org/1999/xlink" width="23.237mm" height="12.005mm" viewBox="-460.999878 299.887634 23.236633 12.004578">
    <path transform="matrix(-1,0,0,1,0,0)" style="stroke:none;fill:#000000;fill-rule:evenodd" d="M445.181702,299.891022L445.219482,299.898315L445.256226,299.909393L445.27948,299.918518L445.45105,299.992676L445.485474,300.009705L445.518066,300.030151L445.54834,300.053741L445.57605,300.080231L445.601074,300.109436L445.622864,300.141052L445.640137,300.171936L445.713562,300.319427L445.728882,300.354584L445.740723,300.391174L445.748596,300.428772L445.752747,300.466949L445.753357,300.488586L445.753357,300.651917L446.087036,300.675629L446.125183,300.680237L446.167542,300.690094L446.57782,300.811066L446.748779,300.854126L447.029602,300.748444L447.066162,300.736786L447.10376,300.72876L447.141907,300.724731L447.180359,300.724487L447.218567,300.728149L447.256226,300.735687L447.292969,300.747009L447.328369,300.761963L447.336609,300.766449L447.348755,300.742371L447.369568,300.710144L447.393555,300.680115L447.42041,300.652618L447.449829,300.62796L447.481689,300.606415L447.506897,300.59256L447.653748,300.518372L447.688904,300.502808L447.725403,300.490906L447.762939,300.482758L447.801147,300.478363L447.8396,300.477875L447.877747,300.481293L447.915588,300.488586L447.952332,300.499664L447.975525,300.508759L448.147095,300.582947L448.15625,300.587463L448.164978,300.582947L448.336548,300.508759L448.372559,300.495392L448.40979,300.485657L448.447693,300.479706L448.486145,300.477631L448.524475,300.479462L448.5625,300.485168L448.599731,300.494659L448.635742,300.507935L448.658325,300.518372L448.805237,300.59256L448.805725,300.592804L448.806213,300.59256L448.953125,300.518372L448.98822,300.502808L449.024719,300.490906L449.062317,300.482758L449.100464,300.478363L449.138916,300.477875L449.177124,300.481293L449.214905,300.488586L449.251648,300.499664L449.295288,300.518372L449.4422,300.59256L449.442688,300.592804L449.443909,300.592194L449.591492,300.518005L449.626648,300.502563L449.663147,300.490662L449.700745,300.482635L449.738892,300.478363L449.777344,300.477875L449.815613,300.481415L449.853333,300.488831L449.890076,300.499908L449.912537,300.508759L450.084167,300.582947L450.092896,300.587219L450.101257,300.582947L450.272888,300.508759L450.308838,300.495392L450.346069,300.485657L450.384033,300.479706L450.422424,300.477631L450.460754,300.479462L450.498779,300.485168L450.536011,300.494659L450.572021,300.507935L450.594604,300.518372L450.741516,300.59256L450.742004,300.592804L450.742493,300.59256L450.889404,300.518372L450.924561,300.502808L450.960999,300.490906L450.998596,300.482758L451.036804,300.478363L451.075195,300.477875L451.113403,300.481293L451.151184,300.488586L451.187927,300.499664L451.22345,300.514374L451.256775,300.532257L451.36792,300.599365L451.380188,300.592194L451.527832,300.518005L451.562988,300.502563L451.599426,300.490662L451.637024,300.482635L451.675171,300.478363L451.713623,300.477875L451.751953,300.481415L451.789612,300.488831L451.826355,300.499908L451.869263,300.518372L452.015564,300.592194L452.113586,300.532715L452.1474,300.514496L452.1828,300.499786L452.219604,300.488708L452.257324,300.481415L452.295593,300.477875L452.334045,300.478363L452.372253,300.482635L452.409668,300.490784L452.446289,300.502686L452.480957,300.518127L452.628479,300.592316L452.661865,300.611298L452.693115,300.633545L452.722107,300.658844L452.748352,300.68692L452.773987,300.7211L452.872131,300.868591L452.891724,300.901672L452.907898,300.936462L452.920532,300.972809L452.929443,301.010132L452.934387,301.048218L452.935608,301.078857L452.935608,301.294952L458.478943,301.362427L458.579712,301.299072L458.613281,301.280334L458.648438,301.265015L458.685181,301.253357L458.722717,301.245575L458.760925,301.241425L458.799377,301.241302L458.837524,301.245087L458.875244,301.252625L458.911987,301.264069L458.947327,301.279022L458.981018,301.297485L459.002441,301.311737L459.08783,301.372772L459.401672,301.39624L459.424866,301.375336L459.455872,301.352692L459.493713,301.330811L459.591858,301.281433L459.627014,301.265869L459.663574,301.254089L459.701172,301.245941L459.73938,301.241669L459.777649,301.24118L459.815979,301.24472L459.853638,301.252014L459.904602,301.268555L460.026855,301.317932L460.061707,301.334106L460.094666,301.353668L460.125549,301.376526L460.154053,301.402435L460.179688,301.43103L460.190247,301.445496L460.297974,301.480988L460.33374,301.494873L460.368042,301.512238L460.400391,301.533051L460.43042,301.556885L460.457886,301.58374L460.482483,301.613312L460.504028,301.645172L460.518982,301.67215L460.592773,301.820404L460.812622,301.973358L460.843018,301.996948L460.87085,302.023346L460.895935,302.052521L460.917786,302.084015L460.936523,302.117584L460.951599,302.152985L460.963196,302.189575L460.970947,302.227264L460.97522,302.274567L460.999878,303.184662L460.999023,303.223083L460.994202,303.261261L460.985535,303.298706L460.973267,303.335083L460.957336,303.369995L460.937866,303.403168L460.915161,303.434174L460.889465,303.462769L460.861023,303.488556L460.831726,303.510315L460.634216,303.642609L460.62915,303.657318L460.607117,303.70282L460.508972,303.875L460.488281,303.907471L460.467896,303.933624L460.440186,303.966095L460.413635,303.993927L460.384583,304.019104L460.366333,304.032349L460.33252,304.055573L460.299805,304.075775L460.26532,304.092438L460.24231,304.101318L460.202393,304.115173L460.180542,304.121613L460.178345,304.124542L460.152588,304.152985L460.123962,304.17865L460.092957,304.201385L460.059875,304.220856L460.024902,304.236786L459.988525,304.249176L459.960205,304.256104L459.837952,304.280914L459.799927,304.286621L459.761597,304.288452L459.723206,304.286377L459.669434,304.276917L459.571289,304.252106L459.534546,304.240784L459.499207,304.22583L459.465515,304.207458L459.433899,304.185699L459.404602,304.160767L459.38623,304.140839L459.159424,304.140839L459.132446,304.16745L459.102539,304.191528L459.070313,304.212463L459.036133,304.22995L459.000366,304.24408L458.972778,304.252106L458.874512,304.276917L458.836792,304.284454L458.798645,304.288086L458.760193,304.287842L458.738098,304.286011L458.670715,304.278229L458.632751,304.27179L458.595642,304.261688L458.567444,304.251129L458.51239,304.228027L458.477722,304.211365L458.445007,304.191406L458.412903,304.166229L452.93512,304.188629L452.933655,304.217682L452.927856,304.255615L452.918213,304.292847L452.904968,304.328827L452.888062,304.363373L452.872131,304.389374L452.773987,304.537018L452.747131,304.572754L452.719543,304.605225L452.693115,304.633209L452.664185,304.658386L452.644531,304.672729L452.610718,304.695831L452.578003,304.715881L452.543335,304.732422L452.522156,304.74057L452.4823,304.754547L452.445435,304.765503L452.39447,304.774139L452.348267,304.778748L452.309875,304.780579L452.271545,304.778625L452.243835,304.77475L452.217896,304.770142L452.180481,304.761383L452.144104,304.749084L452.120056,304.738495L452.090942,304.724518L452.057129,304.706055L452.033813,304.690491L452.015442,304.677216L452.010437,304.680634L451.973755,304.703735L451.940186,304.722443L451.906372,304.737305L451.869507,304.751282L451.832947,304.763062L451.782349,304.773041L451.745728,304.777679L451.707397,304.780457L451.660339,304.778748L451.614136,304.774139L451.576233,304.768311L451.526733,304.754669L451.486694,304.740692L451.451233,304.726227L451.417297,304.708221L451.397339,304.695465L451.374939,304.680145L451.361572,304.690826L451.329224,304.711639L451.279724,304.735474L451.244385,304.749451L451.208008,304.761749L451.170532,304.770233L451.144165,304.773895L451.099792,304.778503L451.061462,304.780579L451.022461,304.778625L450.976563,304.774017L450.93866,304.768311L450.888428,304.754303L450.848755,304.740326L450.813171,304.725739L450.779358,304.707611L450.760376,304.695465L450.737244,304.679657L450.735474,304.680878L450.698608,304.703979L450.665039,304.722687L450.63208,304.737183L450.595337,304.75116L450.558777,304.762939L450.50769,304.773041L450.470947,304.777679L450.432678,304.780457L450.394226,304.77948L450.356018,304.774506L450.318726,304.765869L450.272888,304.749451L450.103455,304.676239L450.080139,304.690704L450.038757,304.713837L450.004272,304.730835L449.967896,304.744354L449.923645,304.758331L449.886536,304.768066L449.84613,304.774139L449.798706,304.778748L449.760315,304.780579L449.714844,304.777679L449.677856,304.773041L449.640015,304.766357L449.59021,304.751282L449.553345,304.737305L449.518188,304.721863L449.48645,304.703979L449.449585,304.680878L449.447815,304.679657L449.424683,304.695465L449.391968,304.715515L449.357422,304.732178L449.335693,304.74057L449.295776,304.754547L449.258911,304.765503L449.20813,304.774017L449.162109,304.778625L449.12384,304.780579L449.086121,304.778625L449.040283,304.774017L449.00238,304.768311L448.952759,304.754547L448.912842,304.74057L448.877319,304.726105L448.843384,304.707977L448.824341,304.695831L448.80072,304.679657L448.799255,304.680634L448.762573,304.703735L448.729004,304.722443L448.695923,304.737061L448.659302,304.751038L448.622681,304.762817L448.571411,304.773041L448.53479,304.777679L448.49646,304.780457L448.450745,304.77887L448.402954,304.774261L448.364929,304.768555L448.325378,304.758453L448.281006,304.744476L448.244995,304.731079L448.209839,304.713837L448.168518,304.690704L448.156128,304.682922L448.143921,304.690491L448.102722,304.713593L448.068298,304.730591L448.031006,304.744598L447.98645,304.758575L447.94928,304.768188L447.909119,304.774261L447.861328,304.77887L447.823059,304.780579L447.777344,304.777679L447.740723,304.773041L447.702881,304.766235L447.653503,304.751282L447.616699,304.737305L447.581543,304.721863L447.549316,304.703735L447.512573,304.680634L447.481079,304.658508L447.463318,304.643646L447.426636,304.611176L447.407654,304.59259L447.395691,304.602814L447.364197,304.624695L447.330688,304.643402L447.29541,304.65863L447.258667,304.670166L447.221069,304.677948L447.182922,304.681854L447.127563,304.680634L447.029724,304.671387L446.991638,304.665924L446.961975,304.658752L446.863953,304.631012L446.827576,304.618744L446.805237,304.609009L446.741272,304.578857L446.623779,304.628082L446.587646,304.641113L446.563843,304.647552L446.510681,304.660065L446.598267,304.747498L446.624023,304.77597L446.64679,304.806976L446.666199,304.840057L446.682373,304.874939L446.690308,304.896606L446.763733,305.118286L446.773987,305.155365L446.780396,305.193176L446.782959,305.237701L446.782959,308.303192L447.457642,308.303192L447.496033,308.305145L447.550537,308.314758L447.746155,308.364136L447.782898,308.375305L447.818298,308.390259L447.85199,308.408752L447.883606,308.430511L447.912903,308.455322L447.939636,308.482941L447.963379,308.513214L447.983948,308.545685L448.001038,308.579987L448.018066,308.627533L448.067444,308.799835L448.076233,308.83728L448.081055,308.875336L448.082153,308.904419L448.082153,310.503632L448.0802,310.542053L448.074402,310.579987L448.062622,310.624023L448.013245,310.771637L447.999268,310.807373L447.981628,310.841553L447.960693,310.873779L447.936584,310.903687L447.909729,310.931061L447.880066,310.955627L447.848206,310.976898L447.81427,310.995026L447.778625,311.009491L447.746155,311.019226L447.550537,311.068604L447.512817,311.076141L447.457642,311.080139L446.710144,311.080139L446.690308,311.139862L446.676453,311.17572L446.658936,311.2099L446.638123,311.242249L446.621582,311.263519L446.498657,311.411041L446.472534,311.43924L446.443787,311.464783L446.412537,311.487152L446.370239,311.510742L445.904846,311.732422L445.869446,311.747131L445.84906,311.753845L445.432434,311.87677L445.395081,311.885651L445.357056,311.890869L445.325073,311.892212L441.378418,311.892212L441.339966,311.890259L441.302063,311.88443L441.281494,311.8797L440.816101,311.756744L440.77948,311.745087L440.742676,311.728912L440.301208,311.507233L440.267822,311.488251L440.236572,311.466003L440.207581,311.440704L440.179871,311.410919L440.057068,311.263397L440.034058,311.232635L440.014221,311.199799L439.997864,311.165039L439.985046,311.128784L439.978149,311.10202L439.929382,310.880219L439.923035,310.842407L439.920471,310.798767L439.920471,305.237701L439.922424,305.19928L439.929382,305.156097L439.978149,304.934418L439.98822,304.89743L440.002075,304.861572L440.01947,304.827271L440.040283,304.794922L440.064087,304.764893L440.080383,304.74762L440.100464,304.72757L439.556641,304.681L439.518616,304.675751L439.481262,304.666779L439.445007,304.653992L439.410217,304.637573L439.377319,304.617767L439.346497,304.594788L439.331421,304.581635L439.28656,304.540161L439.245728,304.516327L439.163513,304.484222L439.067078,304.45871L438.4953,304.43573L438.457092,304.43219L438.419434,304.424896L438.388794,304.415894L438.359375,304.405914L438.32373,304.391815L438.274963,304.365051L438.247742,304.347443L438.216553,304.324921L438.182312,304.293915L438.157471,304.268524L438.132202,304.239685L438.115906,304.217682L438.093262,304.184601L438.067017,304.140106L438.046692,304.099487L438.030396,304.061676L438.01239,304.013153L438.002686,303.983459L437.987,303.927399L437.98114,303.903687L437.97583,303.878296L437.89386,303.693207L437.880127,303.657318L437.869995,303.620239L437.863831,303.582428L437.861389,303.539612L437.861389,301.312439L437.842529,301.281311L437.82428,301.247528L437.804565,301.19693L437.786133,301.136993L437.776733,301.09964L437.770813,301.058411L437.764709,300.989349L437.763245,300.956024L437.763245,300.857178L437.765198,300.818756L437.771057,300.780792L437.78064,300.743591L437.794128,300.707245L437.868164,300.535034L437.885071,300.500519L437.905396,300.467926L437.929016,300.437622L437.955505,300.40979L437.98468,300.384735L438.016174,300.362854L438.049744,300.344116L438.067505,300.33609L438.239075,300.262634L438.275085,300.249268L438.312256,300.239655L438.35022,300.233948L438.388428,300.231995L439.098816,300.231995L439.137268,300.233948L439.175171,300.239777L439.212402,300.24939L439.248413,300.262634L439.268555,300.272003L439.415466,300.345459L439.448914,300.364441L439.480286,300.386566L439.509216,300.411865L439.535522,300.439819L439.558838,300.470459L439.5755,300.497101L439.673645,300.669281L439.68396,300.689728L440.137939,300.65094L440.180603,300.565186L440.199463,300.531647L440.221558,300.500275L440.246765,300.471313L440.274719,300.444946L440.305237,300.42157L440.337952,300.40152L440.37262,300.384735L440.399963,300.37439L440.547607,300.325043L440.584595,300.314697L440.622498,300.308136L440.667969,300.30545L440.691956,300.30545L440.730347,300.307404L440.768311,300.313232L440.812317,300.325043L440.959961,300.37439L440.995728,300.388397L441.029907,300.406006L441.062134,300.426941L441.092041,300.451019L441.119385,300.477875L441.143921,300.507568L441.15564,300.524109L441.253784,300.6716L441.273315,300.704681L441.27356,300.705048L441.430298,300.74881L441.807678,300.74881L441.809998,300.742126L441.825928,300.707123L441.845337,300.674042L441.867981,300.642914L441.893616,300.614319L441.921997,300.588531L441.953003,300.565674L441.985962,300.546112L442.020813,300.529938L442.071533,300.513397L442.267822,300.464752L442.305481,300.457458L442.359131,300.453674L444.55481,300.453674L444.554932,300.450165L444.560791,300.412231L444.572571,300.368073L444.621948,300.220581L444.636047,300.184814L444.653564,300.150665L444.6745,300.118439L444.698547,300.088501L444.725525,300.061157L444.755188,300.036713L444.787048,300.01532L444.810791,300.002289L444.957703,299.928101L444.992859,299.912537L445.029297,299.900635L445.066895,299.892487L445.105042,299.888123L445.143494,299.887634L445.181702,299.891022zM445.300018,300.341125L445.128418,300.266998L444.981537,300.341125L444.932129,300.488708L444.932129,300.833252L442.358856,300.833252L442.162567,300.881989L442.113831,301.054291L442.113831,301.128418L441.378021,301.128418L440.937347,301.005554L440.937347,300.881989L440.839203,300.734436L440.69162,300.684998L440.667603,300.684998L440.52002,300.734436L440.446594,300.881989L440.446594,301.005554L439.588593,301.078979C439.506927,301.177155,439.376526,301.251282,439.196686,301.30069L439.196686,301.177155C439.29483,301.128418,439.343567,301.054291,439.343567,300.956116L439.343567,300.8573L439.245422,300.684998L439.098541,300.611572L438.388123,300.611572L438.216522,300.684998L438.142395,300.8573L438.142395,300.956116C438.142395,301.054291,438.175354,301.128418,438.24054,301.177155L438.24054,303.539673L438.338684,303.761383C438.371643,303.941895,438.428619,304.04007,438.510284,304.056519L439.12323,304.081238C439.351807,304.130676,439.506927,304.204102,439.588593,304.302948L440.446594,304.376404L440.52002,304.523956L440.667603,304.573395L440.69162,304.573395L440.839203,304.523956L440.912659,304.376404L440.937347,304.376404L441.378021,304.25354L441.672485,304.25354L441.672485,304.523956L441.378021,304.523956L441.132965,304.548676L440.912659,304.647522L440.471313,304.89325L440.34845,305.016113L440.299713,305.237793L440.299713,310.798889L440.34845,311.020599L440.471313,311.168182L440.912659,311.389893L441.378021,311.512756L445.324738,311.512756L445.741364,311.389893L446.206726,311.168182L446.32959,311.020599L446.403046,310.798889L446.403046,310.700745L447.457336,310.700745L447.652954,310.651337L447.702362,310.503754L447.702362,308.90448L447.652954,308.732178L447.457336,308.68277L446.403046,308.68277L446.403046,305.237793L446.32959,305.016113L446.206726,304.89325L445.741364,304.647522L445.373474,304.523956L445.373474,304.401093L446.059845,304.376404L446.476501,304.278229L446.770935,304.154694C446.901367,304.25354,447.032471,304.302948,447.162872,304.302948L447.162872,304.130676L447.628937,304.130676L447.628937,304.179382L447.677673,304.326965C447.72641,304.376404,447.775818,304.401093,447.824554,304.401093C447.890442,304.401093,447.947418,304.376404,447.996155,304.326965L448.045563,304.179382L448.045563,304.130676L448.2659,304.130676L448.2659,304.179382L448.315308,304.326965C448.364044,304.376404,448.421021,304.401093,448.486908,304.401093C448.535645,304.401093,448.584381,304.376404,448.633789,304.326965L448.682526,304.179382L448.682526,304.081238L448.903534,304.081238L448.903534,304.179382L448.97699,304.326965C449.009247,304.376404,449.058655,304.401093,449.123871,304.401093C449.189087,304.401093,449.238495,304.376404,449.270752,304.326965C449.32019,304.294708,449.344208,304.2453,449.344208,304.179382L449.344208,304.130676L449.565216,304.130676L449.565216,304.179382L449.613953,304.326965C449.663391,304.376404,449.712097,304.401093,449.761536,304.401093C449.826721,304.401093,449.883698,304.376404,449.933136,304.326965L449.981873,304.179382L449.981873,304.130676L450.202179,304.154694L450.202179,304.179382L450.251617,304.326965L450.423218,304.401093C450.471924,304.401093,450.521362,304.376404,450.570099,304.326965L450.618835,304.179382L450.618835,304.154694L450.839844,304.154694L450.839844,304.179382C450.839844,304.2453,450.864563,304.294708,450.913269,304.326965C450.946228,304.376404,450.994965,304.401093,451.060181,304.401093C451.125366,304.401093,451.166565,304.376404,451.183044,304.326965L451.281189,304.179382L451.281189,304.154694L451.476807,304.179382C451.476807,304.2453,451.501526,304.294708,451.550262,304.326965C451.583191,304.376404,451.631927,304.401093,451.697815,304.401093C451.746552,304.401093,451.79599,304.376404,451.844696,304.326965L451.918152,304.179382L451.918152,304.154694L452.13916,304.130676L452.13916,304.179382L452.187897,304.326965C452.236633,304.376404,452.277832,304.401093,452.310089,304.401093C452.375977,304.401093,452.424713,304.376404,452.457642,304.326965L452.555817,304.179382L452.555817,303.810822L458.585693,303.786102C458.61795,303.867767,458.683167,303.908966,458.781311,303.908966L458.879486,303.884247L458.952911,303.761383L459.565857,303.761383L459.664001,303.884247L459.762177,303.908966L459.884338,303.884247L459.933777,303.761383L460.031219,303.761383C460.097137,303.761383,460.145844,303.736664,460.178802,303.687256L460.276947,303.514984L460.252258,303.441528L460.620148,303.195129L460.595428,302.284973L460.276947,302.063263L460.276947,302.038574L460.178802,301.841553L460.031219,301.792847L459.933777,301.792847L459.884338,301.669983L459.762177,301.620544L459.664001,301.669983L459.614594,301.792847L458.952911,301.743408L458.781311,301.620544L458.585693,301.743408L452.555817,301.669983L452.555817,301.078979L452.457642,300.931427L452.310089,300.8573L452.187897,300.931427L452.13916,301.078979L452.13916,301.325409L451.918152,301.30069L451.918152,301.078979L451.844696,300.931427L451.697815,300.8573L451.550262,300.931427L451.476807,301.078979L451.476807,301.251282L451.281189,301.251282L451.281189,301.078979L451.183044,300.931427L451.060181,300.8573L450.913269,300.931427L450.839844,301.078979L450.839844,301.30069L450.618835,301.30069L450.618835,301.078979L450.570099,300.931427L450.423218,300.8573L450.251617,300.931427L450.202179,301.078979L450.202179,301.30069L449.981873,301.325409L449.981873,301.078979L449.933136,300.931427L449.761536,300.8573L449.613953,300.931427L449.565216,301.078979L449.565216,301.325409L449.344208,301.325409L449.344208,301.078979L449.270752,300.931427L449.123871,300.8573L448.97699,300.931427L448.903534,301.078979L448.903534,301.325409L448.682526,301.349426L448.682526,301.078979L448.633789,300.931427L448.486908,300.8573L448.315308,300.931427L448.2659,301.078979L448.2659,301.30069L448.045563,301.30069L448.045563,301.078979L447.996155,300.931427L447.824554,300.8573L447.677673,300.931427L447.628937,301.078979L447.628937,301.30069L447.162872,301.30069L447.162872,301.103699L446.770935,301.251282L446.476501,301.177155L446.059845,301.054291L445.373474,301.005554L445.373474,300.488708L445.300018,300.341125M458.952911,302.481964L458.952911,302.284973L459.565857,302.284973L459.565857,302.530701L458.952911,302.481964zM459.565857,303.022827L459.565857,303.269257L458.952911,303.219818L458.952911,303.022827L459.565857,303.022827zM458.585693,303.047546L458.585693,303.219818L452.555817,303.17041L452.555817,303.072266L458.585693,303.047546zM458.585693,302.284973L458.585693,302.481964L452.555817,302.432556L452.555817,302.334381L458.585693,302.284973z"/>
</svg>
