<?xml version="1.0" encoding="UTF-8"?>
<svg xmlns="http://www.w3.org/2000/svg" xmlns:xlink="http://www.w3.org/1999/xlink" width="23.372mm" height="7.919mm" viewBox="-430.086639 301.930084 23.372467 7.918945">
    <path transform="matrix(-1,0,0,1,0,0)" style="stroke:none;fill:#000000;fill-rule:evenodd" d="M421.184631,301.955505L421.206787,301.956238L421.255432,301.959381L421.293579,301.963898L421.313171,301.967651L421.356934,301.977386L421.394043,301.98761L421.418976,301.996826L421.458008,302.012878L421.492798,302.029297L421.521851,302.04657L421.556152,302.069061L421.587158,302.091797L421.612915,302.114777L421.642456,302.143616L421.658386,302.160767L421.871338,302.160767L421.926056,302.164642L422.07782,302.186768L426.414581,302.186768L426.440125,302.187622L426.517822,302.192871L426.555878,302.197357L426.577759,302.201721L426.645142,302.217285L426.681976,302.227875L426.716278,302.241364L426.773438,302.267273L426.807617,302.284912L426.850037,302.313477L426.896729,302.349854L426.925781,302.375031L426.963257,302.416595L426.999603,302.46344L427.021606,302.494934L427.035004,302.519714L427.43457,302.519714L427.651886,302.392517L427.685944,302.374908L427.72168,302.360657L427.758667,302.35022L427.796478,302.343536L427.843536,302.340607L429.37561,302.340607L429.398743,302.341339L429.47644,302.346069L429.532379,302.353607L429.599731,302.367981L429.636841,302.37793L429.668579,302.38974L429.725464,302.413818L429.76001,302.430481L429.79953,302.455414L429.84613,302.488953L429.876038,302.512909L429.914459,302.552307L429.950806,302.59549L429.97406,302.626129L430.001404,302.673065L430.027283,302.725952L430.04248,302.761353L430.054901,302.801849L430.070343,302.864349L430.077637,302.902039L430.080444,302.927948L430.085663,303.000061L430.086639,303.027557L430.086639,304.796387L430.085785,304.821686L430.080566,304.899872L430.07605,304.938049L430.07193,304.958984L430.056488,305.026703L430.046021,305.06369L430.03241,305.09845L430.0065,305.155853L429.989014,305.190033L429.960297,305.232452L429.92395,305.279266L429.898865,305.308472L429.858276,305.345306L429.811707,305.381805L429.780212,305.403931L429.755157,305.417542L429.755157,307.770447L429.753204,307.808868L429.747375,307.846832L429.737762,307.884033L429.724487,307.920013L429.707611,307.954559L429.687317,307.987152L429.663696,308.017548L429.637329,308.04541L429.608154,308.070465L429.57663,308.092346L429.543091,308.111053L429.507813,308.126282L429.471069,308.137817L429.433502,308.145599L429.395325,308.149506L429.37561,308.149994L425.036194,308.149994L424.996429,308.147919L424.921387,308.140015L424.883484,308.134064L424.840393,308.122375L424.768677,308.098297L424.73291,308.084198L424.697876,308.066193L424.629425,308.026184L424.621277,308.020844L420.752075,307.997253L420.736633,308.012817L420.708191,308.038605L420.677307,308.061462L420.644226,308.081024L420.609436,308.097076L420.57309,308.109619L420.535645,308.1185L420.514587,308.121643L420.310791,308.147064L420.263855,308.149994L418.961731,308.149994L418.923279,308.148041L418.868835,308.138428L418.665009,308.087006L418.628296,308.075806L418.592896,308.060852L418.559204,308.042358L418.527466,308.020599L418.498169,307.995789L418.471558,307.96817L418.447815,307.937897L418.427277,307.905426L418.41098,307.872833L418.308716,307.642151L418.294861,307.606293L418.284882,307.569214L418.278564,307.53125L418.276123,307.488342L418.276123,307.43689L418.276367,307.432037L416.18454,307.432037L415.631836,307.986908L415.603394,308.012695L415.57251,308.035431L415.539429,308.055023L415.504517,308.071167L415.468292,308.08371L415.433167,308.09198L415.02478,308.168823L414.986755,308.174072L414.948425,308.175385L414.910004,308.172852L414.879974,308.167969L414.496918,308.091125L414.459717,308.081635L414.423584,308.068512L414.389038,308.051727L414.356323,308.031647L414.317078,308.000641L414.118347,307.821045L413.729004,307.684357L412.726379,307.614075L412.490845,307.653229L412.208466,307.717316L411.916504,307.800385L411.613342,307.903015L411.300323,308.025085L410.971497,308.168823L410.633331,308.332031L410.285767,308.514923L409.957947,308.691956L409.666809,308.862579L409.398071,309.034393L409.153534,309.20636L408.750916,309.509644L408.720154,309.530548L408.603271,309.601807L408.590149,309.609467L408.482147,309.669556L408.465393,309.678284L408.36615,309.727173L408.343994,309.737152L408.25354,309.774719L408.224609,309.785431L408.142883,309.811829L408.102997,309.822388L408.029907,309.837463L407.976898,309.844543L407.912689,309.848541L407.874268,309.84903L407.8396,309.8461L407.784027,309.838806L407.75,309.832733L407.643066,309.808655L407.60614,309.798309L407.553711,309.776306L407.462891,309.729858L407.429565,309.710632L407.398438,309.688141L407.378845,309.671356L407.303955,309.602539L407.277039,309.575165L407.252991,309.545258L407.241669,309.528717L407.1828,309.437408L407.163727,309.404083L407.148041,309.369049L407.133575,309.323456L407.00589,308.810791L406.996765,308.758362L406.818237,307.040344L406.816895,307.025391L406.714661,305.436401L406.714172,305.398102L406.71756,305.359772L406.724731,305.322083L406.735687,305.285248L406.750397,305.249725L406.768494,305.21579L406.790039,305.184052L406.814606,305.15451L406.842102,305.127655L406.872131,305.103699L406.916016,305.076569L407.401337,304.819855L407.436096,304.80368L407.472351,304.791046L407.508484,304.78241L407.916077,304.705566L407.954163,304.700317L407.992462,304.698975L408.030884,304.701538L408.068695,304.707977L408.120026,304.723297L408.492981,304.863647L409.039581,304.951813L411.230896,304.676605L413.5,304.368835L413.538208,304.365662L413.589142,304.367371L414.354523,304.444824L414.392578,304.450562L414.423584,304.458344L414.539246,304.492371L414.561615,304.499695L414.666077,304.537628L414.691956,304.548187L414.78537,304.590149L414.815399,304.605347L414.897583,304.651428L414.930542,304.672119L415.001709,304.722229L415.037811,304.751038L415.097656,304.805145L415.133759,304.842712L415.182526,304.900848L415.20575,304.931488L415.216675,304.948517L415.25415,305.010529L415.272278,305.044464L415.286987,305.079987L415.298157,305.117676L415.37149,305.421326L415.903015,304.907288L415.81488,304.836639L415.786163,304.811096L415.760132,304.782898L415.73703,304.752136L415.717346,304.719177L415.700928,304.684387L415.691925,304.660065L415.615051,304.42865L415.604858,304.391571L415.598389,304.35376L415.595734,304.30899L415.595734,302.847687L415.597656,302.809265L415.603516,302.771332L415.615173,302.727661L415.692047,302.497101L415.706024,302.461365L415.723541,302.427185L415.744446,302.394836L415.768524,302.364929L415.79541,302.337555L415.824951,302.312988L415.867035,302.285767L416.096985,302.157349L416.131531,302.14032L416.167389,302.126953L416.20459,302.117218L416.242554,302.111267L416.282043,302.109192L416.815674,302.109192L416.828186,302.095093L416.856384,302.069061L416.887146,302.045959L416.920105,302.026276L416.954895,302.009857L416.977997,302.001221L417.131104,301.949768L417.16806,301.939453L417.205872,301.932861L417.254395,301.930084L421.184631,301.955505zM416.052277,302.616486L415.975403,302.847107L415.975403,304.308441L416.052277,304.539734L416.307617,304.744293L416.536865,304.821838L415.1586,306.154816L414.929352,305.206238C414.844238,305.035309,414.639709,304.906952,414.316406,304.821838L413.551086,304.744293L411.279175,305.05246L409.033295,305.334564L408.394958,305.231628L407.986572,305.077881L407.578857,305.154755L407.093567,305.411469L407.195862,307.000427L407.374298,308.718445L407.501984,309.231201C407.569946,309.367767,407.68045,309.444641,407.833496,309.461823C407.970093,309.496124,408.199341,309.411011,408.522644,309.20578L408.93103,308.898285C409.254333,308.658752,409.64624,308.419189,410.105438,308.180328C411.075317,307.650452,411.942902,307.334015,412.708893,307.23175L413.806427,307.308624L414.316406,307.487762L414.571747,307.718384L414.954742,307.795258L415.363159,307.718384L416.026886,307.05191L418.630341,307.05191L418.911072,306.43692L419.166412,306.43692L419.242615,307.078003L418.961884,307.078003C418.87677,307.078003,418.808807,307.111633,418.758026,307.180267L418.655731,307.436279L418.655731,307.487762L418.758026,307.718384L418.961884,307.769867L420.263947,307.769867L420.467804,307.744476L420.595459,307.616119L424.755646,307.64151C424.840759,307.727325,424.934113,307.769867,425.036377,307.769867L429.375702,307.769867L429.375702,305.129364C429.596741,305.129364,429.707245,305.018158,429.707245,304.795776L429.707245,303.026947C429.707245,302.821716,429.596741,302.719452,429.375702,302.719452L427.843689,302.719452L427.537567,302.89859L426.746857,302.89859C426.746857,302.676208,426.635651,302.565704,426.414642,302.565704L422.049927,302.565704L421.87146,302.539612L421.437653,302.539612C421.403351,302.403015,421.318237,302.334381,421.182343,302.334381L417.252075,302.30899L417.09903,302.360474L416.996765,302.488129L416.282227,302.488129L416.052277,302.616486M416.716003,306.462311L416.716003,306.410828L416.818298,306.180206L417.047546,306.077942L418.170471,306.077942L418.425812,306.180206L418.528076,306.410828L418.528076,306.462311L418.425812,306.719025L418.170471,306.795898L417.047546,306.795898L416.818298,306.719025L416.716003,306.462311zM411.177582,305.770447C411.330627,305.615997,411.491943,305.539124,411.66217,305.539124C411.849548,305.539124,412.019775,305.615997,412.172821,305.770447C412.275116,305.889862,412.325897,306.051849,412.325897,306.25708C412.325897,306.44516,412.275116,306.598907,412.172821,306.719025C412.019775,306.855621,411.849548,306.923553,411.66217,306.923553C411.491943,306.923553,411.330627,306.855621,411.177582,306.719025C411.040985,306.598907,410.973022,306.44516,410.973022,306.25708C410.973022,306.051849,411.040985,305.889862,411.177582,305.770447zM411.62146,305.926453L411.576233,305.942383L411.51825,305.977539L411.442963,306.04306L411.397217,306.092804L411.37561,306.131348L411.360413,306.1828L411.353943,306.256256L411.35968,306.316803L411.373047,306.359253L411.394196,306.395233L411.434082,306.438293L411.500244,306.489105L411.561035,306.521698L411.612366,306.53775L411.66333,306.542877L411.728241,306.536774L411.78894,306.519043L411.851685,306.486816L411.895325,306.453735L411.907104,306.436707L411.925964,306.393524L411.939819,306.334686L411.945435,306.2565L411.939453,306.165649L411.9245,306.097931L411.904938,306.051697L411.887665,306.02655L411.834167,305.98056L411.773499,305.945435L411.719116,305.927429L411.66391,305.9216L411.62146,305.926453zM413.270355,305.488342C413.423431,305.334564,413.593658,305.25769,413.781036,305.25769C413.984894,305.25769,414.155121,305.334564,414.291016,305.488342C414.427612,305.607758,414.495575,305.778656,414.495575,306.001068C414.495575,306.206299,414.427612,306.385437,414.291016,306.539185C414.155121,306.65863,413.984894,306.719025,413.781036,306.719025C413.593658,306.719025,413.423431,306.65863,413.270355,306.539185L413.040436,306.001068L413.270355,305.488342zM413.723877,305.645905L413.668915,305.664032L413.608948,305.698822L413.581482,305.72229L413.454651,306.005371L413.574432,306.285919L413.639008,306.315216L413.706726,306.332733L413.782135,306.338928L413.86615,306.332367L413.933533,306.31546L413.98996,306.289215L414.021088,306.266571L414.055481,306.22049L414.08783,306.154816L414.107544,306.083435L414.115204,305.992859L414.113617,305.951996L414.108276,305.909424L414.100494,305.874542L414.091614,305.848389L414.080566,305.824677L414.069489,305.806915L414.05658,305.790863L414.024963,305.759735L414.019257,305.753906L413.979736,305.713409L413.953979,305.69165L413.92926,305.67511L413.904602,305.662201L413.879517,305.652496L413.850464,305.644958L413.81897,305.640198L413.79126,305.638855L413.723877,305.645905zM408.67569,307.539246C408.489014,307.351166,408.394958,307.128784,408.394958,306.872772C408.394958,306.598907,408.489014,306.377197,408.67569,306.206299C408.863068,306.018219,409.084106,305.924194,409.339417,305.924194C409.611938,305.924194,409.832947,306.018219,410.003174,306.206299C410.207703,306.377197,410.309296,306.598907,410.309296,306.872772C410.309296,307.128784,410.207703,307.351166,410.003174,307.539246C409.832947,307.710144,409.611938,307.795258,409.339417,307.795258C409.084106,307.795258,408.863068,307.710144,408.67569,307.539246zM409.280853,306.307556L409.2276,306.315216L409.178833,306.327515L409.130432,306.345123L409.084473,306.367645L409.037659,306.396576L408.992523,306.431122L408.938416,306.480835L408.893921,306.526093L408.862427,306.565369L408.836487,306.60611L408.815613,306.649139L408.798584,306.69632L408.785553,306.749847L408.777649,306.80722L408.774719,306.87204L408.777527,306.931519L408.785431,306.986237L408.797852,307.035858L408.815491,307.084625L408.838074,307.131683L408.866669,307.178009L408.902161,307.224945L408.938782,307.265198L408.97757,307.297668L409.024384,307.330139L409.071198,307.356506L409.118378,307.377441L409.167999,307.39386L409.22113,307.405884L409.278778,307.413422L409.338745,307.415985L409.408051,307.413177L409.470184,307.405396L409.523193,307.393738L409.572937,307.377319L409.616455,307.357971L409.657837,307.333893L409.696106,307.305817L409.742096,307.264099L409.793762,307.212158L409.832214,307.165588L409.863708,307.118652L409.887268,307.073669L409.905273,307.027832L409.918396,306.979431L409.926331,306.928711L409.929138,306.873138L409.926086,306.809174L409.917908,306.754822L409.904663,306.704834L409.887146,306.659851L409.865051,306.618256L409.837311,306.578247L409.802521,306.538483L409.745239,306.485474L409.735168,306.475739L409.682861,306.423706L409.643127,306.391479L409.603821,306.366302L409.560425,306.34491L409.514465,306.328369L409.463135,306.315826L409.404053,306.307556L409.340332,306.304779L409.280853,306.307556zM427.512177,304.795776C427.512177,305.018158,427.622681,305.129364,427.843689,305.129364L428.890442,305.129364L428.890442,306.692932L428.328979,307.180267L425.036377,307.180267C424.917633,307.180267,424.823608,307.23175,424.755646,307.334015L420.595459,307.308624L420.595459,307.257141L419.931732,306.180206L419.37027,305.283112L421.309998,305.334564L422.330658,305.66748L422.35675,305.66748L422.35675,305.847321L422.484406,305.949585L422.637482,305.847321L422.637482,305.66748L423.019775,305.66748L423.019775,305.847321L423.147461,305.949585L423.275116,305.847321L423.275116,305.66748L423.683533,305.66748L423.683533,305.847321L423.811188,305.949585L423.913452,305.847321L423.913452,305.66748L424.296448,305.66748L424.296448,305.847321L424.449524,305.949585L424.577179,305.847321L424.577179,305.66748L424.960205,305.66748L424.960205,305.847321L425.087189,305.949585L425.214844,305.847321L425.214844,305.66748L425.62323,305.66748L425.62323,305.847321C425.62323,305.915253,425.665802,305.949585,425.750916,305.949585L425.827789,305.847321L425.827789,305.66748L426.08313,305.66748C426.321289,305.66748,426.440033,305.565216,426.440033,305.359985L426.440033,304.949524L426.695374,304.795776L427.512177,304.795776zM426.819397,305.175903L426.819397,305.360626L426.818298,305.389343L426.812805,305.461456L426.807983,305.499634L426.800903,305.531128L426.784119,305.593628L426.772339,305.630219L426.753235,305.672424L426.725403,305.725189L426.705811,305.758148L426.671631,305.802185L426.632629,305.845459L426.605499,305.872711L426.561951,305.906647L426.511841,305.940186L426.478882,305.9599L426.439148,305.978271L426.377747,306.00235L426.34137,306.014496L426.312927,306.021301L426.240417,306.035645L426.188141,306.042236L426.151672,306.044281L426.130981,306.076141L426.054016,306.178406L426.029327,306.207855L426.001831,306.234711L425.971802,306.258667L425.939453,306.27948L425.905304,306.296875L425.869446,306.31073L425.832336,306.320831L425.794495,306.327148L425.756104,306.329681L425.707214,306.327271L425.651367,306.320831L425.613464,306.314362L425.576477,306.304291L425.530151,306.285675L425.490265,306.266449L425.456573,306.248108L425.424957,306.226318L425.395538,306.201538L425.388855,306.19458L425.32428,306.246399L425.293152,306.26889L425.259827,306.288116L425.224792,306.303802L425.188324,306.315948L425.150879,306.324341L425.112671,306.328857L425.07428,306.329437L425.036072,306.326294L424.99826,306.319244L424.961426,306.308289L424.925903,306.293823L424.891968,306.275696L424.848938,306.245789L424.768433,306.180847L424.686584,306.246399L424.655457,306.26889L424.622131,306.288116L424.587097,306.303802L424.550629,306.315948L424.513184,306.324341L424.474976,306.328857L424.436584,306.329437L424.398376,306.326294L424.360565,306.319244L424.32373,306.308289L424.288208,306.293823L424.238342,306.265717L424.114807,306.183167L424.079407,306.218536L424.050964,306.244324L424.019958,306.267059L423.986877,306.28653L423.951965,306.302582L423.915619,306.314972L423.878174,306.32373L423.840088,306.328613L423.801697,306.329559L423.763367,306.32666L423.725555,306.319977L423.688599,306.309387L423.652832,306.295166L423.618774,306.277405L423.573792,306.246399L423.479187,306.170624L423.384583,306.246399L423.353455,306.26889L423.320129,306.288116L423.285095,306.303802L423.248627,306.315948L423.211182,306.324341L423.172974,306.328857L423.134552,306.329437L423.096375,306.326294L423.058533,306.319244L423.021729,306.308289L422.986206,306.293823L422.952271,306.275696L422.910095,306.246399L422.825439,306.17865L422.695068,306.265717L422.661987,306.285431L422.627228,306.301727L422.591003,306.314362L422.55365,306.323364L422.515472,306.328491L422.477173,306.329681L422.438843,306.327026L422.40094,306.320465L422.363953,306.31012L422.328186,306.296143L422.294037,306.278625L422.246826,306.246277L422.119293,306.144012L422.090576,306.118469L422.064575,306.090271L422.041565,306.059479L422.021759,306.02655L422.005463,305.99176L421.993286,305.957214L421.24469,305.713165L420.06723,305.681915L420.253418,305.979462L420.25473,305.981659L420.839905,306.931152L424.596863,306.954132L424.652527,306.913269L424.684631,306.892242L424.718689,306.874481L424.740112,306.865479L424.815002,306.836548L424.851501,306.824493L424.889038,306.816223L424.908875,306.813446L424.993286,306.803833L425.036194,306.801392L428.187073,306.801392L428.510773,306.520355L428.510773,305.509491L427.843536,305.509491L427.817993,305.508636L427.740295,305.503387L427.70224,305.498901L427.680237,305.494507L427.612976,305.478943L427.575989,305.468384L427.540375,305.454163L427.483337,305.428009L427.44928,305.410248L427.407471,305.381805L427.360901,305.345306L427.33197,305.320129L427.295227,305.279266L427.25885,305.232452L427.236877,305.200958L427.22348,305.175903L426.819397,305.175903z"/>
</svg>
