<?xml version="1.0" encoding="UTF-8"?>
<svg xmlns="http://www.w3.org/2000/svg" xmlns:xlink="http://www.w3.org/1999/xlink" width="23.240mm" height="19.736mm" viewBox="-399.039490 296.021729 23.240173 19.735535">
    <path transform="matrix(-1,0,0,1,0,0)" style="stroke:none;fill:#000000;fill-rule:evenodd" d="M385.770813,296.022217L385.791504,296.023895L385.885132,296.034729L385.9198,296.040436L386.011597,296.059784L386.044922,296.06842L386.135132,296.09613L386.167603,296.107697L386.256042,296.143921L386.285706,296.157684L386.372406,296.202301L386.400024,296.217865L386.484985,296.270996L386.508728,296.28717L386.592163,296.348602L386.614136,296.366089L386.69574,296.436035L386.717163,296.455841L388.170685,297.909363L388.240967,297.978455L388.261902,298.000702L388.324646,298.073181L388.344574,298.098358L388.39978,298.174225L388.418274,298.202057L388.46582,298.28125L388.482117,298.311523L388.521973,298.394073L388.53537,298.425079L388.567841,298.511078L388.578674,298.544128L388.603333,298.633514L388.610535,298.665131L388.627808,298.757935L388.632874,298.79599L388.634094,298.816406L388.63678,298.909332L388.636169,298.944702L388.630341,299.035187L388.626221,299.071411L388.612,299.159332L388.604065,299.19632L388.581329,299.281677L388.569885,299.317413L388.538757,299.40036L388.523804,299.434906L388.484192,299.515259L388.466675,299.546753L388.418518,299.624725L388.399292,299.653046L388.342743,299.728455L388.307617,299.768951L387.47229,300.60495L387.443848,300.630737L387.423065,300.646545L387.30658,300.729004L387.274109,300.749542L387.241028,300.766205L387.107849,300.825195L387.071991,300.838928L387.041595,300.847443L386.891663,300.882935L386.853943,300.889893L386.830963,300.892181L386.664246,300.903992L386.607727,300.90387L386.467987,300.892914L386.763245,301.206787L387.049866,301.508972L387.049744,301.509094L387.323242,301.794861L387.586731,302.067719L387.839539,302.32663L388.081421,302.571411L388.314301,302.804169L388.532227,303.019043L388.532349,303.018921L388.743683,303.223816L388.938965,303.409882L388.939087,303.40976L389.128906,303.586914L389.300842,303.743683L389.464783,303.888977L389.622375,304.024445L389.763672,304.141449L389.780823,304.156403L391.184387,305.467896L391.628601,305.109039L391.659607,305.086426L391.69281,305.067078L391.725891,305.052002L392.130219,304.890015L392.179352,304.874084L393.042114,304.658508L393.065247,304.653503L393.792786,304.519012L393.830841,304.513916L393.869263,304.512695L393.907593,304.515503L393.945404,304.522064L393.982361,304.532379L394.018127,304.546387L394.052307,304.563995L394.084534,304.58493L394.114441,304.609009L394.141785,304.635986L394.166229,304.66568L394.187622,304.697662L394.205627,304.731567L394.220093,304.76709L394.230927,304.803925L394.236145,304.829712L394.317139,305.315033L394.321533,305.35321L394.322021,305.391632L394.318604,305.429962L394.311432,305.467651L394.300354,305.504486L394.285767,305.540009L394.267517,305.573792L394.246124,305.605652L394.221436,305.635101L394.19397,305.661957L394.16394,305.685913L394.131592,305.706726L394.097412,305.724121L394.061523,305.737976L394.011658,305.750732L393.291779,305.883759L392.539795,306.045135L392.501831,306.051208L392.5,306.051331L392.461487,306.070679L392.468506,306.073242L392.560333,306.109833L392.595215,306.125763L392.617859,306.138519L392.701141,306.189484L392.732788,306.211243L392.752472,306.227173L392.827393,306.29248L392.85498,306.319244L392.869324,306.335297L392.935852,306.414948L392.967468,306.458954L393.025452,306.552948L393.049316,306.598206L393.086517,306.681976L393.099152,306.714325L393.129578,306.804077L393.138428,306.834351L393.16217,306.929932L393.168213,306.958984L393.18512,307.060547L393.188538,307.087402L393.198608,307.194794L393.200195,307.218872L393.203613,307.332062L393.203613,307.353973L393.200317,307.473145L393.199219,307.493195L393.189148,307.618195L393.18512,307.650543L393.163239,307.780792L393.160339,307.79599L393.134888,307.91687L393.131134,307.933411L393.102448,308.044922L393.097107,308.063507L393.065125,308.165924L393.057556,308.187683L393.022186,308.280701L393.011841,308.305145L392.973053,308.388947L392.959198,308.416046L392.917114,308.490601L392.898254,308.520752L392.852783,308.586182L392.829315,308.616455L392.809509,308.637848L392.755249,308.692078L392.743103,308.703766L392.667358,308.773071L392.647156,308.790222L392.554504,308.8638L392.538452,308.875824L392.428894,308.953796L392.415863,308.962769L392.289642,309.044861L392.278564,309.051666L392.135315,309.138L392.126221,309.143372L391.966187,309.233826L391.958496,309.238098L391.781586,309.332825L391.774902,309.336212L391.581055,309.435089L391.551392,309.4487L390.608704,309.83139L390.95163,309.730835L390.989075,309.721954L391.027161,309.716858L391.065582,309.715515L391.094391,309.71759L391.630188,309.567505L391.667755,309.559113L391.705811,309.554504L391.744263,309.55365L391.782532,309.556824L391.820374,309.563751L391.857239,309.574554L391.892853,309.58905L391.926758,309.606903L391.95874,309.628326L391.988434,309.652649L392.015442,309.679993L392.039612,309.7099L392.058105,309.737885L392.300476,310.14209L392.318481,310.176025L392.333069,310.211517L392.343872,310.248383L392.351044,310.286194L392.354218,310.324493L392.353607,310.362793L392.349121,310.401001L392.340698,310.438568L392.328552,310.474915L392.312866,310.510071L392.302185,310.528687L392.333679,310.534637L392.370514,310.545441L392.406006,310.560059L392.455017,310.587646L392.859253,310.85675L392.890015,310.879608L392.918457,310.905518L392.944092,310.934113L392.966736,310.96524L392.986084,310.998413L393.001892,311.033325L393.01416,311.069824L393.022675,311.107269L393.027405,311.145325L393.028259,311.183746L393.025208,311.222046L393.018311,311.259888L393.015015,311.271179L393.022919,311.26828L393.06012,311.258911L393.098206,311.253296L393.136597,311.251617L393.174927,311.253784L393.21286,311.259888L393.249939,311.269714L393.28595,311.283234L393.335449,311.309357L393.766541,311.579071L393.798035,311.601105L393.827209,311.62616L393.853577,311.653992L393.877075,311.684509L393.888611,311.703003L394.449097,311.375031L395.102478,310.814941L395.526978,309.641937L395.822723,308.808716L395.837311,308.773193L395.864441,308.725281L396.295532,308.078125L396.318481,308.047241L396.344391,308.01889L396.372986,307.993225L396.403992,307.970612L396.429993,307.95517L396.726471,307.793793L396.761139,307.77713L396.797241,307.76413L396.834473,307.754761L396.872528,307.749176L396.91095,307.747589L396.949249,307.749786L396.987183,307.755981L397.024292,307.765839L397.060272,307.779449L397.094574,307.7966L397.127045,307.817261L397.157196,307.840973L397.184937,307.867615L397.209717,307.896912L397.231384,307.92865L397.249878,307.962341L397.263245,307.993591L397.425232,308.424683L397.43689,308.461273L397.444794,308.498871L397.448792,308.537048L397.449036,308.57547L397.445404,308.61377L397.437866,308.651489L397.426544,308.688202L397.411469,308.723572L397.393127,308.757263L397.371338,308.788879L397.346405,308.818207L397.318665,308.844818L397.280151,308.874268L397.161316,308.953308L397.127869,308.991974L397.089722,309.052643L397.059906,309.121094L397.031952,309.223999L397.021362,309.256805L396.404846,310.915131L398.632141,313.141937L398.65509,313.166992L398.72467,313.250275L398.74704,313.279968L398.807251,313.368378L398.826813,313.400452L398.877747,313.493988L398.894043,313.527679L398.935791,313.626282L398.948303,313.660706L398.980774,313.764313L398.989868,313.798828L399.013,313.907562L399.018463,313.940521L399.032349,314.054199L399.034882,314.085449L399.03949,314.204132L399.03949,314.233582L399.034882,314.352875L399.032471,314.383514L399.018585,314.498535L399.013245,314.53064L398.990112,314.641418L398.98175,314.6745L398.94928,314.781158L398.937592,314.813995L398.895874,314.91626L398.881287,314.947754L398.830322,315.045898L398.81308,315.075684L398.752869,315.169678L398.733429,315.197296L398.663879,315.28714L398.638794,315.316345L398.608398,315.345032L398.518555,315.420776L398.491455,315.441711L398.397552,315.507385L398.367035,315.526581L398.268921,315.582153L398.235962,315.598694L398.133545,315.644165L398.098755,315.657684L397.992249,315.692932L397.957458,315.702667L397.84668,315.727966L397.811432,315.734283L397.696259,315.749359L397.66333,315.752167L397.544006,315.757263L397.511414,315.757263L397.392273,315.752167L397.359192,315.749359L397.244263,315.734283L397.209106,315.727966L397.098328,315.702667L397.063568,315.692932L396.957031,315.657684L396.922119,315.644165L396.819885,315.598694L396.787048,315.582153L396.688904,315.526581L396.658386,315.507385L396.564514,315.441711L396.537018,315.420563L396.447388,315.344788L396.422607,315.321808L394.108826,312.983246L393.600525,313.23764L393.565369,313.253082L393.528778,313.264893L393.474182,313.27533L392.773376,313.356323L392.735077,313.358765L392.696655,313.3573L392.658569,313.352081L392.621277,313.342957L392.585144,313.330048L392.563721,313.320465L392.485046,313.282135L392.446747,313.26062L392.372192,313.212952L392.337799,313.188263L392.267517,313.131348L392.237976,313.104736L392.171814,313.038574L392.146881,313.010956L392.084961,312.935577L392.064697,312.908569L392.006897,312.823822L391.991943,312.799866L391.973694,312.798889L391.878357,312.789154L391.839355,312.783081L391.749115,312.764221L391.707275,312.753052L391.622162,312.724823L391.580811,312.708405L391.500671,312.670959L391.460541,312.649078L391.385498,312.602264L391.349274,312.576599L391.279236,312.520538L391.250427,312.494995L391.224396,312.466797L391.212341,312.451477L391.116516,312.323303L391.095123,312.291443L391.082703,312.268951L391.010254,312.127411L390.994446,312.092377L390.986053,312.068298L390.958191,311.979889L390.955627,311.979401L390.853271,311.954102L390.81192,311.941345L390.717163,311.906067L390.674133,311.886871L390.586945,311.8414L390.545227,311.816223L390.465576,311.760651L390.427032,311.729767L390.355042,311.664093L390.321472,311.629303L390.257141,311.553558L390.247437,311.541626L390.203888,311.485931L390.178589,311.449463L390.142731,311.390472L390.121216,311.349609L390.092987,311.287231L390.076813,311.244812L390.056152,311.179138L390.045319,311.136078L390.032318,311.067871L389.649017,310.976166L389.612183,310.965485L389.559509,310.942383L389.475372,310.897736L389.438416,310.875488L389.360931,310.822357L389.326904,310.795959L389.256104,310.734558L389.224854,310.704132L389.160889,310.634216L389.134644,310.602112L389.077362,310.523804L389.055603,310.490356L389.005127,310.403534L388.98822,310.371063L388.94458,310.275848L388.931915,310.244843L388.909424,310.18161L388.899445,310.162903L388.888733,310.140381L388.875244,310.108276L388.863953,310.077515L388.856506,310.054901L388.844971,310.016113L388.840942,310.001648L388.828918,309.954468L388.826477,309.944366L388.813965,309.889038L388.812134,309.880768L388.799255,309.817291L388.798035,309.81073L388.78479,309.738983L388.783569,309.732056L388.755737,309.563995L388.754639,309.55719L388.725067,309.356171L388.724335,309.351318L388.693085,309.117584L388.692596,309.113556L388.65979,308.846893L388.656982,308.800568L388.656982,308.746948L388.658936,308.708496L388.666687,308.66156L388.747681,308.310852L388.758148,308.273895L388.774933,308.23291L388.928162,307.91153L387.503906,306.510895L387.478882,306.483643L387.357391,306.338196L387.224121,306.185608L387.070404,306.015961L386.910278,305.844727L386.73114,305.658691L386.534363,305.459381L386.328857,305.255554L386.103516,305.036438L385.866272,304.809784L385.614441,304.572754L385.349976,304.32724L385.349854,304.327362L385.06723,304.068604L384.771973,303.801544L384.591278,303.639709L384.585327,303.724579L384.580933,303.761414L384.564392,303.858704L384.556,303.896515L384.530212,303.989563L384.517456,304.027374L384.482422,304.11615L384.465759,304.15274L384.421509,304.237366L384.401062,304.27179L384.347595,304.352173L384.324707,304.383057L384.264404,304.45639L380.78714,308.769684L380.772064,308.78717L380.703003,308.862946L380.67746,308.888489L380.60498,308.954132L380.574341,308.979065L380.498474,309.034637L380.463318,309.057495L380.384155,309.102997L380.344147,309.122925L380.261566,309.158203L380.219604,309.173279L380.133636,309.198578L380.090088,309.208649L380.000732,309.223877L379.957458,309.228729L379.864655,309.233704L379.852722,309.23407L379.759338,309.236145L379.721405,309.235168L379.6297,309.227997L379.591309,309.223022L379.501068,309.206604L379.463257,309.197601L379.374817,309.171936L379.339081,309.159668L379.252258,309.124756L379.219055,309.109558L379.133942,309.065399L379.104126,309.048157L379.020721,308.994751L378.994324,308.976288L378.912598,308.913666L378.876526,308.882172L376.23941,306.27121L376.170105,306.207733L376.143219,306.180603L376.077423,306.106903L376.051636,306.074799L375.995972,305.996857L375.972839,305.960144L375.927368,305.878052L375.908264,305.838409L375.872772,305.752075L375.858154,305.709381L375.833008,305.618805L375.823883,305.577209L375.808685,305.482361L375.804443,305.441864L375.799316,305.342865L375.799316,305.304443L375.803101,305.266266L375.810852,305.228577L375.822327,305.191833L375.841644,305.148071L376.192444,304.47403L376.211914,304.440948L376.23468,304.409943L376.260315,304.381348L376.282104,304.361176L380.460022,300.776184L380.47522,300.763763L380.616882,300.654449L380.664795,300.622955L380.819733,300.537109L380.872009,300.513153L381.040558,300.450775L381.092957,300.435577L381.275146,300.396667L381.31308,300.390442L381.351379,300.388275L381.389832,300.389832L381.427856,300.395447L381.456818,300.402374L381.545227,300.427185L381.43103,300.231506L381.413269,300.197357L381.39917,300.161591L381.388733,300.124634L381.382141,300.086823L381.379333,300.048492L381.380432,300.010071L381.385437,299.972015L381.394196,299.93457L381.406708,299.898315L381.422882,299.863434L381.442444,299.830353L381.46521,299.799469L381.48468,299.777557L382.009277,299.229858L382.010712,299.226349L382.029327,299.192657L382.051208,299.161163L382.076141,299.131989L382.092072,299.116058L382.954224,298.307495L382.983551,298.282684L383.015289,298.260925L383.04895,298.242554L383.084351,298.2276L383.121094,298.216431L383.158783,298.208893L383.19696,298.205231L383.235413,298.205475L383.27356,298.209625L383.311157,298.217529L383.347748,298.229309L383.382996,298.244629L383.407104,298.25766L383.799377,298.489655L383.800964,298.488922L383.79245,298.467651L383.779572,298.42923L383.756348,298.345917L383.747345,298.305084L383.733459,298.220062L383.728973,298.179199L383.724365,298.092499L383.723999,298.083008L383.721558,297.997162L383.722412,297.959106L383.728394,297.876648L383.733459,297.836273L383.747833,297.757111L383.75769,297.715912L383.780426,297.640015L383.795502,297.598663L383.826752,297.526184L383.846313,297.487152L383.886108,297.418091L383.908447,297.383667L383.956482,297.317902L383.981812,297.286774L384.03833,297.224365L384.046753,297.215393L384.855286,296.379364L384.873535,296.361847L384.936157,296.305176L384.965942,296.280731L385.032959,296.231476L385.066254,296.209717L385.13739,296.168121L385.172424,296.149872L385.247925,296.115723L385.284424,296.101501L385.363953,296.074982L385.400299,296.06488L385.484192,296.045929L385.51947,296.039581L385.607513,296.02829L385.64035,296.025482L385.732422,296.021729L385.770813,296.022217zM390.103455,309.788605L390.122681,309.812195L390.14151,309.829437L390.164124,309.844666L390.192444,309.858521L390.229065,309.870544L390.246704,309.874084L390.31662,309.869202L390.29071,309.861908L390.253754,309.847321L390.095062,309.774963L390.103455,309.788605zM386.44873,296.724274C386.233185,296.526611,385.999817,296.418854,385.747925,296.401001C385.496704,296.401001,385.289398,296.481995,385.128113,296.64328L384.31955,297.479309C384.157562,297.641296,384.08548,297.838989,384.103333,298.072357C384.103333,298.305725,384.202179,298.52124,384.399841,298.718933C384.184326,298.718933,383.986664,298.790985,383.806824,298.93515L383.213776,298.584381L382.351685,299.392944L382.378448,299.392944L381.758636,300.040222L382.136169,300.686798L382.02771,300.956543L381.35437,300.767792C381.102448,300.804169,380.886932,300.903015,380.707092,301.064301L376.529083,304.649292L376.178345,305.323334C376.178345,305.593079,376.286102,305.817535,376.502289,305.997345L379.143524,308.612488C379.359039,308.791626,379.593109,308.87262,379.844299,308.854797C380.096222,308.854797,380.311737,308.747009,380.491577,308.531494L383.968811,304.218262C384.148651,304.020569,384.229645,303.778259,384.211792,303.490692C384.193268,303.185242,384.094421,302.942261,383.915253,302.762421L383.861053,302.735657C383.933105,302.735657,383.995575,302.708893,384.049805,302.654663C385.90097,304.272461,387.140594,305.467468,387.77002,306.240326L389.387146,307.830688L389.117371,308.396271L389.036377,308.747009L389.036377,308.800568C389.126312,309.555573,389.198364,309.959869,389.252594,310.014099C389.341827,310.301697,389.503815,310.499359,389.737183,310.607117L390.411224,310.768433C390.375519,310.98465,390.420135,311.163788,390.546448,311.307922C390.707733,311.523438,390.950714,311.631226,391.274017,311.631226C391.29184,311.864594,391.372833,312.062256,391.516296,312.224243C391.696136,312.38623,391.930206,312.4487,392.217773,312.412994C392.343384,312.700592,392.514313,312.889343,392.729828,312.979279L393.430634,312.898285L394.184967,312.520782L396.692322,315.054901C396.92572,315.270416,397.204376,315.378204,397.527679,315.378204C397.851654,315.378204,398.129639,315.270416,398.363678,315.054901C398.561371,314.820862,398.660217,314.542847,398.660217,314.218872C398.660217,313.895599,398.561371,313.625854,398.363678,313.410339L395.964081,311.011414L396.665558,309.124542C396.701263,308.944702,396.782257,308.791626,396.907867,308.666016L397.069855,308.558258L396.907867,308.127228L396.611328,308.288513L396.180298,308.935791L395.883789,309.771118L395.425262,311.038177L394.670258,311.685425L393.565155,312.332001L393.215118,312.493988L392.891144,312.520782L392.729828,312.332001L393.484161,311.981964L393.565155,311.90097L393.134125,311.631226L392.837585,311.793213L392.298096,311.927734L391.867035,311.874207L391.759277,311.577667C392.118958,311.54129,392.396942,311.433533,392.594604,311.253693L392.648834,311.172699L392.244568,310.903656L391.759277,311.092407L391.489532,311.145935L390.923279,311.038177C390.86972,310.948273,390.860809,310.831573,390.896484,310.68811L391.974792,310.337372L391.732513,309.933105L391.058472,310.121857L391.058472,310.095093L390.599976,310.229614L390.222473,310.256378C389.971252,310.220703,389.800323,310.08548,389.710419,309.852112L389.521667,308.773804L389.737183,308.180756L390.061157,308.504028L390.006927,308.989319L390.114716,309.366821L390.411224,309.502045L391.408539,309.097076C391.948029,308.828003,392.307007,308.602875,392.486847,308.423737L392.541077,308.369507C392.666687,308.20752,392.756592,307.947388,392.810822,307.587708C392.846527,307.246582,392.810822,306.967896,392.702362,306.75238C392.558929,306.482635,392.325562,306.365936,392.001587,306.401642L391.974792,306.455872L391.893799,306.455872L391.759277,306.536865L391.516296,306.293884L392.13678,305.808594L392.405853,305.674072L392.460083,305.674072L393.215118,305.512085L393.942688,305.377563L393.861694,304.892273L393.134125,305.026794L392.271332,305.24234L391.867035,305.404327L391.16626,305.970581L389.521667,304.433777C388.767334,303.822876,387.553802,302.618958,385.882446,300.822021C385.972351,300.677856,386.01767,300.516571,386.01767,300.336731C386.233185,300.462341,386.439789,300.525482,386.637482,300.525482C386.87085,300.525482,387.059601,300.462341,387.203735,300.336731L388.039063,299.500732C388.20105,299.30304,388.273132,299.078583,388.254608,298.827362C388.218903,298.57547,388.102234,298.359955,387.904541,298.180115L386.44873,296.724274z"/>
</svg>
