<?xml version="1.0" encoding="UTF-8"?>
<svg xmlns="http://www.w3.org/2000/svg" xmlns:xlink="http://www.w3.org/1999/xlink" width="23.382mm" height="11.477mm" viewBox="-368.129639 300.151245 23.382324 11.477325">
    <path transform="matrix(-1,0,0,1,0,0)" style="stroke:none;fill:#000000;fill-rule:evenodd" d="M358.659882,300.154785L358.697571,300.162201L358.734314,300.173401L358.769684,300.188354L358.790222,300.198914L359.029053,300.332092L359.061646,300.352509L359.091919,300.375977L359.119781,300.402496L359.144714,300.431671L359.17572,300.478729L359.308899,300.71756L359.325897,300.751984L359.339294,300.788086L359.348999,300.825195L359.354858,300.863129L359.356934,300.902405L359.356934,302.225189L367.058929,302.225189L367.097351,302.227142L367.135315,302.232971L367.172485,302.242584L367.208496,302.255859L367.228699,302.265198L367.441498,302.371613L367.474915,302.390594L367.506287,302.41272L367.535248,302.438019L367.561523,302.465973L367.584869,302.496613L367.611511,302.54187L367.691162,302.701782L367.706482,302.73703L367.718262,302.773651L367.726166,302.811218L367.730286,302.849396L367.73053,302.887817L367.726898,302.925995L367.719482,302.963715L367.708191,303.000427L367.700256,303.020477L367.651245,303.134918L367.651245,303.596527L367.806061,303.685059L367.838409,303.705719L367.868561,303.729675L367.896057,303.756439L367.920715,303.785858L367.949921,303.830872L368.082336,304.070404L368.099121,304.10495L368.112366,304.140961L368.122009,304.178162L368.127808,304.216217L368.129639,304.254517L368.127686,304.292938L368.121887,304.330902L368.112122,304.368103L368.098755,304.404114L368.081848,304.438507L368.061432,304.4711L368.041992,304.496643L367.909546,304.655945L367.883545,304.684265L367.854828,304.709686L367.823578,304.732178L367.806061,304.742767L367.651245,304.831299L367.651245,306.874359L367.722656,306.894897L367.758881,306.90744L367.793762,306.923492L367.826843,306.943054L367.857849,306.96579L367.886322,306.991577L367.912109,307.020172L367.939941,307.059204L368.072388,307.272003L368.090973,307.305573L368.106079,307.340942L368.117615,307.377563L368.125275,307.415253L368.12915,307.45343L368.12915,307.491852L368.125275,307.53006L368.117493,307.567749L368.106079,307.60434L368.082092,307.656647L367.949677,307.895477L367.929382,307.92804L367.905762,307.958466L367.879395,307.986298L367.85022,308.011353L367.818726,308.033234L367.785156,308.051971L367.749878,308.067169L367.722778,308.07605L367.651245,308.096588L367.651245,308.537415L367.676697,308.57962L367.694794,308.613525L367.709381,308.649048L367.720215,308.685883L367.727386,308.723572L367.730652,308.761902L367.730042,308.800323L367.725677,308.838501L367.717285,308.875946L367.705261,308.912445L367.691162,308.94455L367.611511,309.104462L367.592651,309.137878L367.570496,309.16925L367.545349,309.198334L367.517273,309.224579L367.486725,309.247955L367.454041,309.268005L367.411438,309.287598L367.412292,309.298889L367.411194,309.337311L367.406372,309.375397L367.397461,309.41272L367.389709,309.436798L367.283295,309.729858L367.268311,309.765259L367.249969,309.799042L367.22821,309.830658L367.2034,309.859985L367.175659,309.886597L367.145508,309.910309L367.113037,309.930878L367.083008,309.946075L366.790527,310.078491L366.754791,310.09259L366.717834,310.102936L366.679993,310.109497L366.634033,310.112305L363.815735,310.112305L363.775024,310.110107L363.683716,310.10025L363.645752,310.094177L363.602844,310.082397L363.514771,310.052582L363.479034,310.038483L363.443542,310.019989L363.359009,309.970154L363.333252,309.953125L355.634766,309.953125L355.634766,310.717041L355.633789,310.744629L355.625488,310.857849L355.620758,310.896027L355.615295,310.921936L355.590485,311.021667L355.579285,311.05838L355.564575,311.093658L355.523254,311.180115L355.504883,311.213898L355.478241,311.252228L355.420105,311.325531L355.394714,311.35437L355.366852,311.380249L355.283813,311.450073L355.253143,311.473297L355.223602,311.491516L355.13385,311.54126L355.099304,311.558167L355.06189,311.571899L354.965454,311.601715L354.928223,311.611176L354.890045,311.616913L354.787292,311.626862L354.750671,311.628571L347.412506,311.628571L347.374084,311.626648L347.336121,311.620789L347.29892,311.611176L347.271545,311.601471L346.873413,311.442169L346.838531,311.426117L346.805359,311.406525L346.774445,311.383789L346.74588,311.358002L346.720215,311.329559L346.697479,311.298553L346.677917,311.265472L346.656982,311.217438L346.523804,310.844727L346.512756,310.807983L346.505463,310.770172L346.501709,310.717041L346.501709,310.322083L346.496094,310.322906L346.457672,310.325104L346.41925,310.323395L346.381287,310.31781L346.344116,310.308319L346.307983,310.295197L346.273315,310.278412L346.240601,310.258362L346.210083,310.234985L346.182129,310.208618L346.159241,310.182587L345.521545,309.384979L345.499207,309.353851L345.47998,309.320526L345.464294,309.285522L345.452148,309.249023L345.443848,309.211456L345.439362,309.173279L345.438751,309.134979L345.442017,309.09668L345.449097,309.058838L345.460022,309.022003L345.474487,308.986481L345.492615,308.952576L345.514038,308.920715L345.549286,308.879974L345.677338,308.751556L345.677338,308.628235L344.844238,307.699188L344.82016,307.669281L344.799133,307.637177L344.781372,307.602997L344.767273,307.567261L344.756805,307.530273L344.750244,307.492462L344.747314,307.44577L344.747314,305.796326L344.749268,305.757904L344.755096,305.719971L344.764709,305.68277L344.777954,305.646759L344.794861,305.612244L344.815186,305.579651L344.838745,305.549255L344.865143,305.521393L344.894348,305.496338L344.925842,305.474457L344.959412,305.455719L344.994659,305.440521L345.031372,305.428986L345.06897,305.421204L345.107147,305.417297L345.126831,305.416809L345.810486,305.416809L345.810486,304.519745L345.812439,304.481323L345.818298,304.44339L345.827881,304.406158L345.841125,304.370178L345.858032,304.335632L345.878357,304.30304L345.901947,304.272644L345.928345,304.244812L345.95752,304.219757L345.989014,304.197845L346.022583,304.179138L346.057861,304.16394L346.094543,304.152374L346.132141,304.144592L346.170319,304.140717L346.190002,304.140228L346.71936,304.140228L346.719604,304.138519L346.730286,304.074066L346.709656,304.072968L346.671692,304.067139L346.634491,304.057526L346.598633,304.044281L346.412659,303.96463L346.378143,303.947723L346.345551,303.927399L346.315155,303.903931L346.287292,303.877441L346.262268,303.848358L346.240234,303.816864L346.215332,303.769806L346.108917,303.530243L346.095032,303.494385L346.084961,303.457306L346.078613,303.419464L346.076202,303.381042L346.077667,303.342743L346.083008,303.304688L346.092133,303.267334L346.108917,303.222107L346.215332,302.982544L346.232605,302.948273L346.253357,302.915924L346.277222,302.885864L346.304077,302.858276L346.333496,302.83371L346.365234,302.812073L346.399048,302.793823L346.43457,302.779114L346.458282,302.771576L346.644226,302.718658L346.681671,302.710052L346.719727,302.705292L346.748047,302.704193L347.139404,302.704193L347.139404,300.743225L347.141327,300.704803L347.147156,300.66687L347.156769,300.629639L347.170044,300.593658L347.186951,300.559113L347.207245,300.52652L347.230835,300.496124L347.257202,300.468292L347.286407,300.443237L347.317902,300.421326L347.35144,300.402618L347.386719,300.387421L347.423462,300.375854L347.461029,300.368073L347.499207,300.364197L347.518921,300.363708L349.061218,300.363708L349.09964,300.365631L349.137573,300.37149L349.174805,300.381104L349.210785,300.394348L349.2453,300.411255L349.277893,300.431549L349.308289,300.455139L349.336151,300.481537L349.361206,300.510712L349.383087,300.542206L349.401825,300.575775L349.417023,300.611053L349.428589,300.647766L349.43634,300.685333L349.440247,300.723511L349.440735,300.743225L349.440735,301.248383L349.438782,301.286804L349.432953,301.324738L349.42334,301.361938L349.410095,301.397949L349.393188,301.432465L349.372864,301.465057L349.349304,301.495453L349.314392,301.531097L348.935608,301.870361L348.935608,302.704193L351.639954,302.704193L351.678345,302.706146L351.731506,302.715393L351.944305,302.76828L351.981018,302.77948L352.016541,302.794189L352.050354,302.812561L352.082092,302.834198L352.111389,302.858887L352.138153,302.886475L352.161987,302.916656L352.182648,302.948975L352.199921,302.983276L352.213684,303.019165L352.223389,303.054779L352.276306,303.294342L352.282593,303.332275L352.283691,303.347839L352.318726,303.249115L352.333435,303.213593L352.351563,303.179779L352.373108,303.147919L352.397766,303.1185L352.425232,303.091644L352.455292,303.067688L352.48764,303.046875L352.52179,303.02948L352.556213,303.016113L352.955078,302.882965L352.992065,302.872742L353.029846,302.86618L353.075226,302.863495L354.112366,302.863495L354.150818,302.865448L354.188751,302.871277L354.240295,302.88562L354.612305,303.018799L354.647827,303.03363L354.681488,303.05188L354.713348,303.073517L354.742798,303.098206L354.775146,303.132233L354.84491,303.215424L354.868042,303.246063L354.885559,303.274414L354.935638,303.364136L354.952667,303.39856L354.966644,303.436371L354.988525,303.506775L355.199036,303.452423L355.229187,303.38736L355.216553,303.380432L355.184814,303.358673L355.155518,303.333862L355.128876,303.306152L355.105164,303.27597L355.084595,303.2435L355.067444,303.209106L355.050415,303.16217L354.996826,302.976227L354.988037,302.938782L354.983063,302.900726L354.982117,302.862274L354.984894,302.823975L354.991577,302.786163L355.001678,302.750397L355.055298,302.590515L355.069275,302.554749L355.086914,302.520569L355.107849,302.488342L355.131897,302.458435L355.158905,302.431091L355.188599,302.406647L355.220581,302.385223L355.245361,302.371613L355.458191,302.265198L355.493439,302.249878L355.529907,302.238098L355.567505,302.230072L355.605682,302.2258L355.62793,302.225189L357.879913,302.225189L357.879913,300.902405L357.880768,300.876495L357.885864,300.801727L357.890503,300.763641L357.894745,300.742126L357.909698,300.677429L357.920288,300.640472L357.933777,300.606171L357.958588,300.551453L357.976227,300.517395L358.004944,300.474854L358.039703,300.430206L358.06488,300.401154L358.092712,300.374756L358.12323,300.35141L358.169312,300.324066L358.435638,300.190887L358.470886,300.175568L358.507385,300.163788L358.544983,300.155762L358.58313,300.151489L358.621582,300.151245L358.659882,300.154785zM354.484253,303.375763L354.112244,303.242584L353.075104,303.242584L352.676331,303.375763L352.543854,303.748474L352.543854,303.987335L351.746277,303.987335L351.293945,304.147247L351.293945,304.014099L351.241089,303.694916L351.639893,303.694916C351.728424,303.694916,351.799133,303.668152,351.852661,303.615295L351.905518,303.375763L351.852661,303.1362L351.639893,303.083344L348.555939,303.083344L348.555939,301.700287L349.061127,301.247955L349.061127,300.742767L347.518829,300.742767L347.518829,303.083344L346.748016,303.083344L346.562012,303.1362L346.455597,303.375763L346.562012,303.615295L346.748016,303.694916L347.412445,303.694916L347.14679,303.88092L347.093964,304.200104L347.093964,304.519287L346.189972,304.519287L346.189972,305.795959L345.12677,305.795959L345.12677,307.445343L346.056824,308.482452L346.056824,308.90802L345.817963,309.147583L346.455597,309.94516L346.881165,309.706299L346.881165,310.716644L347.014343,311.089355L347.412445,311.248596L354.75058,311.248596C354.891968,311.248596,355.016205,311.19574,355.122589,311.089355C355.211151,311.000122,355.255066,310.876587,355.255066,310.716644L355.255066,309.57312L363.470428,309.57312C363.576813,309.679504,363.691437,309.732361,363.815674,309.732361L366.633972,309.732361L366.926361,309.599884L367.032776,309.306824L366.899597,309.014404L367.058838,309.014404L367.271637,308.934784L367.351257,308.774872L367.271637,308.642395L367.271637,307.764496L367.431549,307.764496L367.617554,307.710968L367.750031,307.472107L367.617554,307.259338L367.431549,307.20578L367.271637,307.20578L367.271637,304.519287L367.431549,304.519287L367.617554,304.412872L367.750031,304.253632L367.617554,304.014099L367.431549,303.907715L367.271637,303.907715L367.271637,303.05658L367.351257,302.870575L367.271637,302.710632L367.058838,302.604248L358.977356,302.604248L358.977356,300.902008L358.844177,300.663147L358.605316,300.529999L358.33902,300.663147C358.286163,300.716003,358.259399,300.795624,358.259399,300.902008L358.259399,302.604248L355.627777,302.604248L355.415009,302.710632L355.36145,302.870575L355.415009,303.05658L355.627777,303.110107L357.807739,303.110107L357.807739,303.774536L356.930542,303.774536L356.770599,303.429291L356.425354,303.269379L355.999817,303.269379C355.840576,303.269379,355.716339,303.322906,355.627777,303.429291L355.467865,303.774536L354.644196,303.987335L354.644196,303.748474C354.644196,303.606384,354.590637,303.482147,354.484253,303.375763zM357.807739,307.977295L357.807739,308.536011L356.717773,308.536011L356.292206,307.977295L357.807739,307.977295zM365.995636,304.466431C366.013489,304.502106,366.058105,304.519287,366.128784,304.519287L366.39444,304.519287L366.39444,307.20578L366.128784,307.20578L365.995636,307.232544L365.995636,304.466431zM352.543854,307.232544L352.543854,307.658112L352.676331,308.004059C352.782715,308.110443,352.915863,308.1633,353.075104,308.1633L353.101868,308.1633L352.836243,308.536011L352.304291,308.536011L351.081177,307.232544L352.543854,307.232544zM351.957947,307.612488L352.231537,307.904114L352.189453,307.794281L352.177551,307.757813L352.169403,307.720245L352.165161,307.682037L352.164429,307.658569L352.164429,307.612488L351.957947,307.612488zM353.660614,308.536011L353.926239,308.1633L354.112244,308.1633L354.484253,308.004059C354.590637,307.914825,354.644196,307.7995,354.644196,307.658112L354.644196,307.232544L354.989441,307.232544L355.920197,308.536011L353.660614,308.536011zM354.964844,307.969635L354.950958,308.005524L354.927734,308.049652L354.877625,308.131256L354.859985,308.156921L355.182861,308.156921L354.991455,307.888763L354.964844,307.969635zM359.61499,308.536011L359.61499,307.977295L365.995636,307.977295L365.995636,307.737732L366.128784,307.764496L366.39444,307.764496L366.39444,308.536011L359.61499,308.536011zM366.128784,303.907715L365.995636,303.987335L365.995636,303.774536L359.61499,303.774536L359.61499,303.110107L366.39444,303.110107L366.39444,303.907715L366.128784,303.907715z"/>
</svg>
