<?xml version="1.0" encoding="UTF-8"?>
<svg xmlns="http://www.w3.org/2000/svg" xmlns:xlink="http://www.w3.org/1999/xlink" width="22.970mm" height="20.965mm" viewBox="-336.942444 295.407135 22.970245 20.964844">
    <path transform="matrix(-1,0,0,1,0,0)" style="stroke:none;fill:#000000;fill-rule:evenodd" d="M319.399963,301.964355L319.400085,301.964355L318.389709,303.334351L318.353455,303.376556L317.925171,303.807648L317.896729,303.833405L317.865845,303.856262L317.823029,303.880829L317.733521,303.924744L317.713562,303.933868L317.610107,303.977386L317.594177,303.983704L317.476685,304.027008L317.463562,304.031494L317.332092,304.074554L317.320801,304.078094L317.175232,304.120758L317.165894,304.123444L317.00647,304.165741L316.998535,304.167694L316.825134,304.209778L316.818359,304.211365L316.630951,304.253174L316.624756,304.254517L316.42337,304.29599L316.418274,304.296967L316.202881,304.338196L316.198059,304.339172L315.968689,304.380035L315.964417,304.380737L315.7211,304.421234L315.71759,304.421844L315.460388,304.462097L315.456848,304.462585L315.185547,304.502472L315.182648,304.502838L314.897369,304.54248L314.89444,304.542969L314.595306,304.582245L314.557007,304.585297L314.511536,304.583832L314.45813,304.578979L314.420074,304.573608L314.371674,304.560852L314.327881,304.546143L314.292145,304.532013L314.257965,304.514404L314.226959,304.494202L314.193054,304.469757L314.162994,304.445801L314.135498,304.418945L314.104614,304.380493L314.080566,304.346344L314.059998,304.313873L314.042847,304.279449L314.030579,304.247345L313.991516,304.129883L313.981323,304.092926L313.974884,304.054962L313.972198,304.010223L313.972198,302.835175L313.974152,302.796753L313.97998,302.758789L313.989594,302.721588L314.002838,302.685608L314.019745,302.651062L314.040039,302.618469L314.06366,302.588074L314.082733,302.567383L314.238525,302.410889L314.266968,302.385101L314.297852,302.362244L314.330933,302.342682L314.365845,302.32663L314.402069,302.314087L314.439514,302.305206L314.462891,302.301819L315.784119,302.145294L315.786285,302.144958L315.986572,302.122437L316.157043,302.095337L316.314758,302.061646L316.452576,302.023346L316.573792,301.980286L316.678375,301.933228L316.764709,301.884491L316.790497,301.865997L317.139008,301.303711L317.15979,301.273529L319.726257,297.906097L319.743896,297.884674L319.979431,297.6185L319.984314,297.612915L320.2146,297.36264L320.220337,297.356689L320.445557,297.122345L320.451721,297.116028L320.671722,296.897614L320.678772,296.890808L320.893646,296.688232L320.901794,296.680817L321.111572,296.494263L321.120544,296.486481L321.325073,296.315765L321.335449,296.307373L321.534729,296.152557L321.546906,296.143555L321.741211,296.0047L321.755066,295.995209L321.944183,295.872253L321.959991,295.862549L322.14386,295.755402L322.162476,295.7453L322.341217,295.654114L322.362854,295.64389L322.536499,295.568756L322.561218,295.559021L322.729614,295.499664L322.757935,295.490906L322.921265,295.447388L322.954102,295.440216L323.112305,295.41272L323.15036,295.408112L323.177246,295.407135L323.215668,295.407135L323.254089,295.409088L323.298828,295.416382L329.75296,296.865417L329.789917,296.87561L329.840637,296.89679L329.918091,296.935822L329.951416,296.954773L329.982788,296.977051L330.011597,297.002441L330.041412,297.034912L331.743866,299.122986L334.099548,299.605255L334.13678,299.614868L334.167542,299.625916L334.450867,299.742188L334.466797,299.749237L334.733368,299.873138L334.750397,299.881531L335.000183,300.013245L335.01767,300.023102L335.250793,300.162323L335.269531,300.174255L335.485962,300.321259L335.504944,300.334991L335.704742,300.489563L335.724182,300.505737L335.907227,300.667938L335.92691,300.686676L336.09314,300.856689L336.112,300.877472L336.261566,301.055023L336.279663,301.078247L336.412598,301.263458L336.429382,301.288971L336.545502,301.481842L336.560364,301.508972L336.659821,301.709503L336.672455,301.737823L336.75528,301.946014L336.765503,301.975189L336.831635,302.191162L336.839417,302.220459L336.888794,302.44397L336.894043,302.472778L336.926636,302.703949L336.929779,302.73642L336.940125,302.926727L336.940613,302.943634L336.942444,303.132599L336.9422,303.14975L336.935486,303.337646L336.934509,303.354889L336.919312,303.541443L336.91748,303.558838L336.893799,303.744263L336.891113,303.761536L336.858887,303.94577L336.855591,303.962677L336.815002,304.145569L336.810852,304.162476L336.761597,304.344269L336.756714,304.360443L336.699097,304.541016L336.693481,304.55719L336.627228,304.73645L336.621399,304.751526L336.546722,304.929657L336.540039,304.944641L336.456848,305.121429L336.449921,305.135559L336.358215,305.311127L336.350708,305.324646L336.250366,305.499023L336.242828,305.511658L336.147125,305.664032L336.233948,305.820526L336.244171,305.84024L336.327332,306.013275L336.336853,306.034698L336.406738,306.206635L336.415649,306.230591L336.472046,306.401306L336.47937,306.426605L336.522522,306.596008L336.528625,306.62384L336.558289,306.792023L336.562286,306.822083L336.598145,307.200134L336.599854,307.235779L336.599976,307.438354L336.598145,307.47641L336.578705,307.670502L336.57251,307.710388L336.533691,307.895844L336.522644,307.937042L336.464294,308.113861L336.448364,308.154114L336.370636,308.322296L336.35022,308.360596L336.25293,308.520264L336.229218,308.55481L336.116241,308.70108L336.014343,308.84082L335.99292,308.867432L335.873779,309.003265L335.851624,309.026611L335.717987,309.155151L335.695007,309.175476L335.546753,309.29657L335.523926,309.313843L335.361084,309.427551L335.338959,309.441895L335.16153,309.548309L335.140259,309.560089L334.970123,309.647766L334.984863,309.810242L334.985352,309.816193L335.003937,310.064758L335.005035,310.097351L335.00235,310.334106L335.000305,310.370087L334.976318,310.594818L334.970123,310.633484L334.924896,310.846191L334.91394,310.886566L334.847412,311.087433L334.83136,311.12793L334.743713,311.316895L334.722534,311.356293L334.613464,311.533234L334.588287,311.569244L334.458069,311.734253L334.42984,311.766113L334.278198,311.91922L334.248657,311.946075L334.075867,312.08728L334.046082,312.109283L333.85199,312.238556L333.823059,312.25592L333.607666,312.373169L333.580688,312.386536L333.344055,312.491974L333.318878,312.502167L333.060944,312.595581L333.038086,312.602997L332.809845,312.669617L332.819336,312.876831L332.819458,312.907715L332.811523,313.127838L332.80899,313.160797L332.782959,313.371277L332.776764,313.406677L332.732361,313.6073L332.722534,313.643677L332.659912,313.834595L332.645813,313.870941L332.564941,314.052155L332.547058,314.087158L332.448059,314.258636L332.426544,314.291931L332.309204,314.453552L332.284149,314.484436L332.176636,314.603851L332.157196,314.623932L332.038757,314.737488L332.018921,314.755127L331.889526,314.862885L331.869843,314.878204L331.729492,314.980225L331.709808,314.993713L331.558533,315.089783L331.539917,315.100861L331.377716,315.191315L331.359344,315.200928L331.186188,315.285461L331.169037,315.293243L330.984924,315.37204L330.968628,315.378601L330.773712,315.451569L330.75824,315.457031L330.552246,315.52417L330.538147,315.528412L330.32135,315.589813L330.307861,315.593353L330.080078,315.648926L330.067322,315.651825L329.828491,315.701447L329.817047,315.703644L329.567505,315.747528L329.55658,315.749237L329.295959,315.787292L329.286011,315.788635L329.018127,315.820496L328.165894,315.9375L328.114349,315.94101L326.250916,315.94101L324.502258,316.324188L324.464294,316.330505L324.431946,316.332825L323.071442,316.371857L323.060486,316.371979L323.021362,316.371979L322.98291,316.370026L322.944977,316.364197L322.908752,316.35495L322.545288,316.241974L322.535034,316.238586L322.173279,316.114777L322.16333,316.111267L321.803345,315.976776L321.793518,315.97287L321.435394,315.827667L321.426025,315.823792L321.069733,315.667999L321.060242,315.663757L320.705872,315.497162L320.696899,315.492767L320.344238,315.315491L320.33548,315.310852L319.98465,315.122864L319.976135,315.118134L319.627136,314.919434L319.618866,314.914673L319.271698,314.705261L319.263672,314.700287L318.918457,314.480194L318.910767,314.475189L318.567261,314.244385L318.559937,314.239288L318.218262,313.997772L318.21106,313.992554L317.871185,313.740356L317.864258,313.735107L317.526306,313.472076L317.519867,313.46698L317.304138,313.291382L315.093628,313.499939L314.874512,313.693054L314.84436,313.716888L314.812134,313.737671L314.794495,313.74704L314.716919,313.786194L314.681763,313.801758L314.645264,313.81369L314.607697,313.821838L314.569519,313.826202L314.531219,313.826691L314.49292,313.823273L314.4552,313.815979L314.425171,313.80722L314.308441,313.768066L314.272705,313.754089L314.238647,313.73645L314.206421,313.715546L314.176514,313.691467L314.149139,313.664337L314.124695,313.634796L314.103271,313.602814L314.088806,313.57605L314.011353,313.418945L313.996033,313.383698L313.984497,313.347076L313.976685,313.309509L313.972687,313.27121L313.972198,313.251129L313.972198,311.841858L313.974152,311.803436L313.97998,311.765503L313.989594,311.728302L314.002838,311.692291L314.011353,311.674072L314.088806,311.516937L314.107422,311.483398L314.129456,311.451874L314.154602,311.422821L314.182434,311.396301L314.21286,311.372833L314.245544,311.352661L314.279968,311.335754L314.308441,311.324921L314.425171,311.285767L314.46228,311.275452L314.500061,311.26886L314.538391,311.266083L314.576813,311.267303L314.614868,311.2724L314.652222,311.281281L314.688568,311.293915L314.716431,311.306458L314.780151,311.33844L317.812927,311.033325L317.851257,311.031372L317.889648,311.033325L317.94342,311.042816L318.098572,311.081848L318.135437,311.09317L318.170807,311.108002L318.204498,311.126465L318.236237,311.148132L318.261658,311.169403L318.534058,311.417603L318.810944,311.656921L319.093323,311.888336L319.386108,312.115967L319.687561,312.338257L319.993652,312.552643L320.312622,312.764221L320.635254,312.967438L320.966125,313.164795L321.304321,313.356323L321.652222,313.542633L321.829285,313.632477L321.829865,313.626404L321.837402,313.588715L321.848724,313.551971L321.861023,313.522186L322.012146,313.196777L322.019958,313.181213L322.182037,312.870392L322.190796,312.854462L322.363831,312.558228L322.373932,312.541809L322.558044,312.260437L322.569214,312.244385L322.76416,311.97757L322.776672,311.961273L322.982666,311.709198L322.996399,311.69339L323.029358,311.657288L322.434021,311.457733L322.398254,311.443726L322.364075,311.426117L322.324677,311.399841L322.169617,311.281769L322.14032,311.256958L322.113586,311.22934L322.089844,311.199188L322.069183,311.166718L322.052063,311.132324L322.038422,311.096436L322.028442,311.059357L322.022369,311.021423L322.020081,310.979828L322.020081,310.823303L322.022003,310.784882L322.027832,310.746948L322.037445,310.709747L322.05072,310.673737L322.061157,310.651367L322.23056,310.317932L322.238586,310.303223L322.416626,309.988129L322.42572,309.972809L322.612274,309.676117L322.62262,309.660431L322.817535,309.38208L322.82959,309.365906L323.03302,309.105896L323.046631,309.089478L323.215057,308.897491L323.192444,308.88678L323.159485,308.866943L323.128723,308.843964L323.102112,308.819519L322.985474,308.702057L322.959808,308.673492L322.937195,308.642365L322.917847,308.609283L322.901917,308.574249L322.889526,308.537903L322.881012,308.500458L322.876282,308.46225L322.875305,308.434662L322.875305,308.239105L322.877258,308.200684L322.883087,308.16275L322.8927,308.125549L322.904724,308.09259L323.059509,307.722534L323.070007,307.699677L323.243042,307.352753L323.256042,307.328918L323.447449,307.00531L323.462769,306.981476L323.672302,306.681L323.69043,306.657043L323.918274,306.379913L323.938965,306.356812L324.185089,306.102905L324.207947,306.081146L324.283234,306.01535L324.190796,305.922333L324.165161,305.893738L324.142517,305.862732L324.123077,305.829529L324.107147,305.794647L324.094849,305.758148L324.086243,305.720703L324.081482,305.682648L324.080505,305.654785L324.080505,305.537445L324.082458,305.499023L324.088318,305.46109L324.0979,305.423859L324.105927,305.400879L324.185822,305.193665L324.189941,305.18335L324.274109,304.982941L324.278748,304.972473L324.367004,304.778748L324.372375,304.767578L324.465027,304.580658L324.470612,304.569611L324.567413,304.389374L324.573853,304.37796L324.674927,304.204437L324.682068,304.192627L324.787537,304.025909L324.795166,304.014374L324.904724,303.85434L324.913269,303.842285L325.027222,303.688934L325.036316,303.677277L325.154419,303.530731L325.164368,303.518829L325.286804,303.378967L325.297424,303.36731L325.424011,303.234283L325.435181,303.223083L325.56604,303.096619L325.57843,303.085175L325.713654,302.965637L325.726074,302.955078L325.865417,302.842102L325.876465,302.833466L325.894592,302.399841L325.675964,302.694336L325.663208,302.710754L325.349091,303.088837L325.335449,303.104279L325.000793,303.46521L324.98645,303.479919L324.631134,303.823792L324.616058,303.837555L324.240051,304.164185L324.224609,304.176819L323.827942,304.48642L323.812378,304.498108L323.395142,304.790558L323.382141,304.799316L322.953857,305.073883L322.92041,305.092865L322.8703,305.113892L322.754303,305.153046L322.717346,305.163513L322.679504,305.170197L322.641205,305.172882L322.5849,305.169952L322.545868,305.164978L322.508057,305.158173L322.460632,305.143829L322.421722,305.129211L322.386475,305.114014L322.353149,305.095306L322.314209,305.070862L322.282715,305.048828L322.265564,305.034607L322.226563,305.000336L322.199066,304.973572L322.174255,304.944031L321.55249,304.121124L321.53949,304.102753L321.461182,303.985291L321.441467,303.952332L321.425293,303.917572L321.412659,303.881195L321.403778,303.843872L321.398682,303.805817L321.397461,303.767395L321.400238,303.729065L321.406799,303.691132L321.417145,303.654175L321.431152,303.618408L321.448761,303.584259L321.469666,303.552032L321.493774,303.522095L321.507874,303.507141L321.624603,303.389801L321.665344,303.354309L321.976868,303.119598L321.987732,303.111816L322.21524,302.952637L322.440796,302.785309L322.655212,302.616638L322.863281,302.442993L323.067566,302.262054L323.266846,302.075256L323.460083,301.883148L323.646027,301.687347L323.830139,301.481842L324.003052,301.277313L324.174988,301.061707L324.34259,300.838806L324.499939,300.616882L324.653137,300.387421L324.804443,300.146759L324.949371,299.901367L324.97052,299.869385L325.007019,299.826813L325.123749,299.709473L325.152222,299.683563L325.183105,299.660828L325.216187,299.641266L325.251068,299.625092L325.287292,299.612549L325.324768,299.603668L325.362823,299.598816L325.392883,299.597595L325.432007,299.597595L325.470459,299.599548L325.508392,299.605377L325.559692,299.61972L326.764923,300.050079L326.800293,300.064789L326.834106,300.083038L326.865967,300.104553L326.897827,300.131561L327.517517,300.716949L327.989471,301.155579L328.611206,301.503601L329.363464,301.71994L330.516632,301.901245L330.948212,301.814301L331.017273,301.762268L328.677612,298.791107L323.087128,297.551971L323.038025,297.579224L322.97113,297.622375L322.896698,297.676636L322.807922,297.74765L322.715271,297.827667L322.611664,297.922516L322.498566,298.03183L322.38269,298.148926L322.254272,298.283905L322.125732,298.423523L321.982727,298.583557L321.839722,298.747955L321.684082,298.931213L321.530487,299.115692L319.399963,301.964355zM323.216217,295.786682L323.177765,295.786682C322.347931,295.891022,321.298462,296.674194,320.028625,298.1362L317.46225,301.503601L317.073761,302.13028C316.814301,302.33963,316.399719,302.470032,315.829346,302.522186L314.508026,302.678711L314.352234,302.835205L314.352234,304.010284L314.391357,304.127655C314.416748,304.17981,314.468903,304.205902,314.546478,304.205902C316.179382,303.997253,317.216522,303.774841,317.656494,303.5401L318.084808,303.10907L319.095154,301.739044L321.233246,298.880249C322.114563,297.81015,322.72406,297.235657,323.061096,297.15741L328.892609,298.44986L331.575012,301.856415L331.41922,301.934662L331.108276,302.169403L330.525543,302.286774L329.281128,302.091156L328.464996,301.856415L327.764893,301.464478L327.259705,300.994995L326.637848,300.40744L325.432556,299.977081L325.393433,299.977081L325.276733,300.094452C324.499054,301.451447,323.475677,302.56131,322.205841,303.422729L321.894226,303.657471L321.777557,303.774841L321.855804,303.892212L322.477661,304.71521C322.529816,304.767365,322.581299,304.793457,322.633484,304.793457L322.749481,304.754333L323.177765,304.479767C324.317871,303.722687,325.238312,302.78302,325.937744,301.660797L326.287781,302.091156L326.248657,303.030823C325.470978,303.579224,324.875214,304.414551,324.460632,305.537506L324.460632,305.654877L324.577332,305.772247L325.004944,305.928741C324.227264,306.45108,323.643829,307.221191,323.255341,308.239105L323.255341,308.434723L323.372009,308.552094L323.993896,308.670166C323.372009,309.191803,322.840759,309.90976,322.400085,310.823334L322.400085,310.979858L322.555237,311.0979L323.722076,311.489136C323.099518,312.06366,322.59436,312.794647,322.205841,313.682129L322.283417,313.838654L322.360962,313.916901L324.654877,314.621796L323.372009,314.739166C321.246277,313.903839,319.458252,312.807678,318.006531,311.450012L317.85141,311.410889L314.740723,311.723877L314.702271,311.723877L314.624023,311.684753L314.546478,311.64563L314.429779,311.684753L314.352234,311.841949L314.352234,313.251099L314.429779,313.408264L314.546478,313.447388L314.624023,313.408264L314.935669,313.133728L317.423798,312.898987C319.211853,314.387054,321.078125,315.41803,323.021973,315.992523L323.061096,315.992523L324.421509,315.9534L326.210236,315.561462L328.11496,315.561462L328.970184,315.444092C330.447296,315.287598,331.458344,314.882629,332.002625,314.23056C332.339661,313.812561,332.482422,313.290222,332.430267,312.664246L332.352692,312.389679C334.011688,312.050598,334.763275,311.20224,334.607483,309.844574L334.568359,309.413513C335.138733,309.178772,335.553314,308.865784,335.812775,308.473846C336.14978,308.082611,336.27951,307.599396,336.201263,307.024902C336.175873,306.581482,336.007019,306.124359,335.696075,305.654877C336.344025,304.741272,336.628876,303.774841,336.5513,302.756958C336.4216,301.503601,335.579407,300.576996,334.024048,299.977081L331.535889,299.467773L329.747864,297.27478L329.670288,297.235657L323.216217,295.786682M330.914032,312.664246C330.940125,313.029388,330.810394,313.329346,330.525543,313.564758C330.162445,313.7995,329.605103,313.969055,328.853485,314.073395L328.11496,314.112518L324.343933,313.016357L324.460632,312.93811L325.354309,311.920197L328.814362,312.82074L328.853485,312.898987L330.914032,312.664246zM325.060516,312.829529L328.158386,313.730011L328.814667,313.695343L329.061035,313.657166L329.302185,313.61145L329.521912,313.560852L329.72403,313.504791L329.903503,313.444977L330.06366,313.380768L330.200958,313.314606L330.298218,313.25769L330.352478,313.207977L330.408173,313.144135L330.437958,313.100464L328.895905,313.276062L328.857605,313.278503L328.819153,313.277039L328.781128,313.271698L328.743896,313.262451L328.707642,313.249542L328.673004,313.233154L328.640045,313.213196L328.609406,313.190094L328.581177,313.16394L328.568054,313.148865L325.484558,312.346527L325.060516,312.829529zM329.514496,310.196686L329.514496,310.157562L333.091248,309.844574L333.130371,309.961945C333.181854,310.640778,332.378784,311.071808,330.719788,311.254395L329.009308,311.450012L324.577332,310.157562C324.862152,309.740234,325.22525,309.400482,325.665924,309.139648L329.475372,310.157562L329.514496,310.196686zM325.714752,309.556824L325.576477,309.654449L325.446228,309.757355L325.321716,309.867401L325.234283,309.953979L329.041565,311.064209L330.672668,310.877686L330.971802,310.840698L331.236633,310.800201L331.484863,310.753876L331.712128,310.702332L331.913147,310.647247L332.094086,310.587524L332.252289,310.524536L332.385803,310.459717L332.495728,310.394409L332.582947,310.32962L332.647369,310.268555L332.651031,310.263947L329.7099,310.521362L329.681335,310.537292L329.646057,310.552521L329.609344,310.564056L329.571777,310.571838L329.533569,310.575745L329.495178,310.575745L329.456848,310.57196L329.419281,310.564301L329.382568,310.552765L329.34729,310.537659L329.313599,310.519073L329.286011,310.499847L325.727264,309.54892L325.714752,309.556824zM326.442902,306.633636L326.832092,306.477142L330.563965,307.455933L330.603088,307.495056L331.847504,307.338562C332.961517,307.20816,333.829803,306.985779,334.45166,306.67276L334.724152,307.103821C334.775635,307.442902,334.594421,307.729797,334.17984,307.96524L332.119324,308.473846L329.670288,308.787537L325.315857,307.573303L326.442902,306.633636zM326.639404,306.963379L326.113464,307.402008L329.69751,308.401337L332.049316,308.100006L334.029175,307.611389L334.105896,307.563232L334.194885,307.493927L334.259827,307.42923L334.303986,307.370392L334.330383,307.319427L334.345215,307.270905L334.350555,307.223969L334.306519,307.154297L334.076599,307.244019L334.057495,307.250977L333.766479,307.347046L333.749451,307.352142L333.435486,307.439697L333.420166,307.443695L333.083069,307.522614L333.069458,307.525543L332.709412,307.596069L332.696869,307.598267L332.31369,307.660034L332.30249,307.661743L331.89624,307.714874L331.894287,307.715118L330.64978,307.871643L330.611481,307.87442L330.573181,307.873444L330.535004,307.868469L330.497681,307.859833L330.461304,307.847321L330.426392,307.831268L330.393311,307.811676L330.37619,307.799164L326.85672,306.876068L326.639404,306.963379zM333.635559,302.169403L333.596436,302.052032L332.780304,301.034119L333.052124,301.073242C334.270447,301.412323,334.931458,301.986816,335.035095,302.796082C335.11264,303.579224,334.866913,304.271118,334.296539,304.871704C333.77832,305.471588,333.052124,305.824402,332.119324,305.928741L330.758911,306.046112L326.598724,304.871704L326.598724,304.675385C327.06546,304.101563,327.674286,303.748779,328.425873,303.618347L329.164429,303.5401L329.631165,303.579224L329.747864,303.618347L331.380768,303.971161L331.458344,303.971161L332.702759,303.422729L332.780304,303.383606L333.324615,302.483063L333.596436,302.286774L333.635559,302.169403zM333.91449,301.845795L333.933716,301.878998L333.955933,301.931915L333.995117,302.049255L334.00531,302.086212L334.011902,302.124146L334.014587,302.162445L334.013245,302.200897L334.008118,302.238953L333.995117,302.28952L333.955933,302.406891L333.941956,302.442627L333.924316,302.476807L333.903564,302.509033L333.879456,302.539063L333.852478,302.566437L333.818054,302.594391L333.608887,302.745422L333.104614,303.579865L333.083069,303.611725L333.058533,303.641266L333.031036,303.668152L333.001007,303.691986L332.968658,303.712769L332.950775,303.722382L332.873199,303.761536L332.855316,303.77005L331.61084,304.318481L331.574829,304.332245L331.53772,304.342194L331.499939,304.348419L331.457733,304.350708L331.380249,304.350708L331.341858,304.348755L331.30011,304.342194L329.667114,303.989319L329.62674,303.978241L329.553162,303.953552L329.168396,303.921326L328.485107,303.993683L328.245911,304.045258L328.016357,304.115662L327.798798,304.204071L327.595337,304.309357L327.403198,304.433044L327.222748,304.574463L327.158325,304.635376L330.794739,305.661957L332.074982,305.551544L332.388367,305.50473L332.678406,305.437744L332.947876,305.3508L333.196533,305.244507L333.425903,305.118774L333.63736,304.97345L333.831055,304.808563L334.017853,304.613251L334.112213,304.509155L334.197327,304.406158L334.271515,304.30658L334.342407,304.200653L334.403931,304.097168L334.4599,303.990295L334.508881,303.882416L334.55011,303.776245L334.586731,303.662933L334.615295,303.553833L334.638153,303.440033L334.654694,303.323517L334.665039,303.203735L334.668793,303.082153L334.666138,302.961273L334.657471,302.842957L334.637665,302.729492L334.60788,302.6203L334.56897,302.516937L334.519958,302.417328L334.459656,302.319458L334.389709,302.22641L334.306885,302.134369L334.211426,302.044617L334.103699,301.957916L333.981995,301.873657L333.898315,301.823547L333.91449,301.845795z"/>
</svg>
