<?xml version="1.0" encoding="UTF-8"?>
<svg xmlns="http://www.w3.org/2000/svg" xmlns:xlink="http://www.w3.org/1999/xlink" width="23.235mm" height="19.711mm" viewBox="-306.093262 296.032898 23.234711 19.711121">
    <path transform="matrix(-1,0,0,1,0,0)" style="stroke:none;fill:#000000;fill-rule:evenodd" d="M292.802063,296.034973L292.836121,296.037292L292.92868,296.047729L292.961731,296.052856L293.050873,296.070953L293.083954,296.079346L293.1698,296.105011L293.203247,296.116699L293.285706,296.149994L293.31781,296.164734L293.396851,296.205566L293.42688,296.222961L293.502625,296.271362L293.531097,296.291321L293.603333,296.347382L293.628143,296.36853L293.697083,296.432251L293.705475,296.440155L295.283051,297.989502L295.303833,298.011627L295.366577,298.083984L295.386414,298.108917L295.44162,298.18457L295.460327,298.212646L295.507874,298.291687L295.524292,298.322083L295.564178,298.404541L295.577698,298.436035L295.610046,298.521881L295.620483,298.553864L295.645294,298.643005L295.652832,298.675598L295.669983,298.768127L295.67511,298.806335L295.676178,298.826752L295.678741,298.918793L295.678009,298.954559L295.67218,299.04248L295.667542,299.081512L295.653198,299.165161L295.644196,299.204926L295.621582,299.284332L295.607239,299.325439L295.576111,299.400726L295.557007,299.440247L295.517487,299.511261L295.494385,299.547729L295.44635,299.614746L295.419861,299.647705L295.363281,299.710449L295.34967,299.724792L294.515717,300.558746L294.461731,300.613586L294.431702,300.640961L294.371368,300.690338L294.337097,300.715393L294.272766,300.756958L294.235413,300.778259L294.16684,300.812286L294.128052,300.828827L294.055328,300.855347L294.015564,300.867493L293.938599,300.886353L293.900635,300.893524L293.819427,300.904846L293.783905,300.908112L293.698547,300.911896L293.655487,300.911407L293.531952,300.902771L295.746704,303.160706L296.465759,302.781311L296.500549,302.765015L296.536896,302.752472L296.574219,302.743591L296.612305,302.738617L296.642822,302.737396L296.723816,302.737396L296.763916,302.739471L298.028992,302.874084L298.066925,302.880157L298.104126,302.889893L298.135498,302.901428L298.238861,302.944733L298.266724,302.957733L298.361816,303.006989L298.391357,303.024017L298.477936,303.079224L298.507233,303.099884L298.585571,303.16095L298.614502,303.186127L298.684418,303.252991L298.712158,303.282318L298.77356,303.355011L298.798126,303.387604L298.851135,303.466156L298.87207,303.501068L298.916687,303.585449L298.932861,303.620239L298.945496,303.656586L298.952789,303.685547L299.040588,304.107513L299.384857,304.20575L299.421204,304.21817L299.456116,304.2341L299.489197,304.25354L299.520203,304.276306L299.548523,304.301819L299.61261,304.365662L299.639618,304.395477L299.696899,304.466125L299.719635,304.497498L299.770203,304.574829L299.789307,304.607422L299.833099,304.691559L299.847931,304.723785L299.884888,304.814758L299.895844,304.845276L299.926117,304.942932L299.929993,304.957764L300.069489,305.00824L300.104858,305.023071L300.125793,305.033875L300.263794,305.111237L300.296265,305.131653L300.320007,305.14978L300.438049,305.247314L300.4664,305.273193L300.482086,305.2901L300.537903,305.353943L300.569031,305.394806L300.615601,305.465454L300.640533,305.509369L300.677856,305.5867L300.696106,305.631561L300.724213,305.715729L300.735748,305.758636L300.754608,305.849365L300.760681,305.888885L300.770416,305.98642L300.772217,306.022766L300.772339,306.046234L300.814056,306.075165L302.105988,305.788422L302.143799,305.781982L302.18222,305.779449L302.22052,305.780762L302.258606,305.786011L302.295929,305.795013L302.332153,305.80777L302.366943,305.824188L302.399902,305.843994L302.430664,305.867004L302.458984,305.893005L302.484406,305.921722L302.506897,305.95285L302.526123,305.986176L302.541809,306.021179L302.553955,306.057678L302.562622,306.096954L302.642883,306.581543L302.647247,306.61972L302.647736,306.658142L302.644318,306.696442L302.637024,306.734161L302.625977,306.770874L302.611267,306.806396L302.593018,306.840179L302.571472,306.87204L302.546936,306.901489L302.519318,306.928345L302.489288,306.952179L302.45694,306.972992L302.422638,306.990356L302.386902,307.00412L302.35321,307.013458L301.351807,307.242828L301.348145,307.266418L301.33902,307.301422L301.298645,307.430939L301.2854,307.466919L301.274719,307.489685L301.208557,307.620148L301.192139,307.653107L301.232269,307.691528L301.26886,307.732025L301.329285,307.809357L301.35144,307.840851L301.3703,307.874298L301.381958,307.900208L301.418549,307.990326L301.429993,308.022675L301.458923,308.117767L301.466827,308.148529L301.488342,308.248596L301.493591,308.278748L301.507446,308.38382L301.510132,308.411682L301.516449,308.521851L301.517059,308.547638L301.515839,308.662903L301.514862,308.686493L301.506104,308.806763L301.503906,308.828033L301.48764,308.95343L301.480835,308.991241L301.473755,309.017151L301.231415,309.797577L301.21814,309.833588L301.201385,309.868134L301.181061,309.900818L301.157715,309.931244L301.131348,309.959198L301.102264,309.984375L301.07077,310.006378L301.039276,310.024139L301.00061,310.062439L300.976776,310.084076L300.879974,310.164825L300.85907,310.181L300.74707,310.261871L300.728821,310.274292L300.601868,310.355133L300.585327,310.365112L300.443054,310.445862L300.429321,310.4534L300.272095,310.534271L300.259552,310.540344L300.087128,310.621216L300.07605,310.62619L299.88855,310.70694L299.88562,310.70816L298.862823,311.138519L298.826691,311.15152L298.78949,311.161011L298.73233,311.167816L298.654877,311.171234L298.616455,311.17099L298.578247,311.16684L298.549927,311.161133L298.479279,311.144226L298.464691,311.139984L298.482544,311.157257L298.509064,311.176697L298.543365,311.195557L298.578735,311.209534L298.84906,311.170624L299.281372,311.043671L299.318817,311.03479L299.356873,311.029694L299.39032,311.028473L299.900818,310.836945L299.937439,310.825256L299.975128,310.817352L300.013306,310.813354L300.051727,310.81311L300.089905,310.816864L300.127625,310.824402L300.164337,310.835724L300.199707,310.850677L300.233398,310.869171L300.265015,310.89093L300.294342,310.915863L300.320953,310.943573L300.344543,310.973755L300.365112,311.006226L300.607452,311.437286L300.624481,311.47171L300.638123,311.50769L300.647949,311.5448L300.653931,311.582733L300.656097,311.621155L300.654419,311.659454L300.648804,311.69754L300.639435,311.734741L300.626312,311.770844L300.609528,311.805511L300.59021,311.837006L300.604797,311.837494L300.642853,311.84259L300.680298,311.851593L300.716553,311.864258L300.751312,311.880554L300.768463,311.890259L301.172058,312.132629L301.203918,312.154022L301.233459,312.178589L301.260468,312.205963L301.284424,312.235992L301.305359,312.268219L301.322876,312.302399L301.336853,312.338257L301.347046,312.375214L301.353516,312.413177L301.356171,312.451477L301.354828,312.489899L301.349731,312.527954L301.340729,312.565277L301.333923,312.584625L301.362488,312.575378L301.400085,312.567352L301.438263,312.56311L301.476563,312.562622L301.514862,312.566132L301.552551,312.573547L301.589417,312.584625L301.624817,312.599457L301.66275,312.62027L302.093079,312.889984L302.124573,312.911987L302.153778,312.937164L302.180176,312.964996L302.203644,312.995514L302.207153,313.001251L302.290833,312.95697L302.457794,312.865295L302.612213,312.777252L302.75354,312.693085L302.876099,312.616486L302.991272,312.540253L303.088196,312.472015L303.176819,312.404907L303.248566,312.345551L303.306458,312.292419L303.349365,312.247528L303.377716,312.212769L303.390747,312.192688L303.398499,312.176147L304.146484,310.146118L304.153931,310.127502L304.241333,309.924072L304.259216,309.888062L304.360291,309.708099L304.384827,309.6698L304.499268,309.513397L304.532349,309.473999L304.6604,309.341217L304.688477,309.314941L304.710144,309.298035L305.005981,309.082428L305.038086,309.061401L305.072266,309.04364L305.108032,309.029541L305.144989,309.019073L305.1828,309.012512L305.2211,309.009735L305.259521,309.010803L305.297607,309.015686L305.33493,309.024567L305.371277,309.037079L305.406189,309.053253L305.43927,309.072845L305.470154,309.095581L305.498596,309.12146L305.524261,309.150055L305.546875,309.181061L305.566345,309.214142L305.582275,309.249146L305.589447,309.26886L305.751404,309.753448L305.76178,309.790405L305.768311,309.828247L305.770996,309.866547L305.769775,309.904968L305.764679,309.943024L305.755676,309.980469L305.743042,310.016724L305.726746,310.051514L305.707153,310.084442L305.684174,310.115356L305.658264,310.143677L305.629578,310.16922L305.601746,310.189758L305.462616,310.282318L305.429291,310.312225L305.406555,310.344452L305.382721,310.398438L305.354858,310.506409L305.343689,310.542297L304.727509,312.225769L305.627502,313.126373L305.705933,313.200073L305.734161,313.229614L305.805298,313.312561L305.831299,313.346588L305.89151,313.435364L305.914124,313.473297L305.963379,313.568024L305.981384,313.608276L306.019562,313.70874L306.032471,313.748993L306.059814,313.855255L306.067719,313.894897L306.084137,314.007141L306.087769,314.044495L306.093262,314.162445L306.093262,314.197449L306.087769,314.31662L306.084381,314.352875L306.067963,314.467773L306.060669,314.505371L306.033295,314.615906L306.022095,314.652863L305.983948,314.759277L305.968628,314.795746L305.919373,314.89801L305.900879,314.931946L305.840698,315.029968L305.819519,315.060852L305.748383,315.154602L305.726135,315.181244L305.644165,315.270844L305.620453,315.294678L305.530823,315.37677L305.503479,315.399506L305.409607,315.47052L305.379456,315.491211L305.281555,315.551392L305.24762,315.569885L305.145477,315.619141L305.1091,315.63446L305.002716,315.67276L304.965393,315.684052L304.854828,315.711426L304.817383,315.718719L304.702698,315.735138L304.666473,315.738556L304.547668,315.744019L304.51178,315.743896L304.398956,315.738434L304.361023,315.734772L304.251556,315.718353L304.213013,315.710449L304.106964,315.683105L304.069153,315.671173L303.966522,315.632874L303.930664,315.61731L303.831299,315.568054L303.798096,315.549561L303.702148,315.48938L303.672852,315.468933L303.580322,315.397919L303.554291,315.376038L303.465149,315.293945L303.456879,315.286163L302.444519,314.296692L301.936218,314.568848L301.90155,314.585266L301.865326,314.598145L301.828003,314.607147L301.771576,314.613586L301.072113,314.64035L301.033691,314.639862L300.995483,314.635468L300.958038,314.627319L300.92157,314.615295L300.886414,314.599731L300.852966,314.58075L300.821716,314.55838L300.796448,314.536377L300.366455,314.128265L300.296753,314.123047L300.257721,314.118042L300.167267,314.101624L300.12677,314.091919L300.040527,314.066254L300.000061,314.051788L299.918091,314.016876L299.879303,313.99765L299.801605,313.953522L299.766205,313.930664L299.692627,313.877289L299.661133,313.851746L299.591827,313.789124L299.564575,313.761871L299.552063,313.747284L299.456116,313.629578L299.43338,313.598572L299.414154,313.565979L299.341797,313.427948L299.325623,313.393036L299.315186,313.363495L299.28479,313.264893L299.190674,313.243591L299.151489,313.232544L299.056885,313.200195L299.016174,313.183533L298.929077,313.141937L298.888,313.119202L298.808594,313.068359L298.769775,313.039917L298.697937,312.979828L298.663147,312.946777L298.598816,312.877441L298.592499,312.870392L298.548706,312.82077L298.518799,312.782104L298.481812,312.727386L298.457397,312.685791L298.427246,312.625977L298.409607,312.585114L298.385986,312.520416L298.373474,312.478943L298.356689,312.409027L298.351471,312.381317L297.976929,312.287415L297.940094,312.276123L297.892059,312.254974L297.808136,312.210693L297.774109,312.190399L297.696869,312.138702L297.664154,312.114136L297.593506,312.054932L297.562988,312.026337L297.499023,311.959473L297.472534,311.928589L297.415375,311.854279L297.393005,311.821808L297.342529,311.739838L297.324646,311.707245L297.281006,311.617767L297.267242,311.586029L297.230408,311.488861L297.218597,311.45224L297.210571,311.414673L297.207428,311.390839L297.172882,311.03479L297.120361,311.056305L297.031464,311.102509L296.962524,311.148376L296.940491,311.167572L296.864746,311.30014L296.843933,311.332458L296.820129,311.36264L296.793365,311.390106L296.763794,311.414795L296.732056,311.436432L296.698273,311.454681L296.66275,311.469391L296.626038,311.480469L296.588318,311.487762L296.550049,311.491302L296.511597,311.490814L296.473419,311.486542L296.435852,311.478394L296.390503,311.462952L295.932648,311.274231L295.897888,311.257813L295.864929,311.237854L295.83429,311.214874L295.806061,311.188751L295.780518,311.160034L295.758148,311.128784L295.739075,311.095459L295.723358,311.060455L295.711334,311.023956L295.702942,310.986389L295.698547,310.948212L295.697937,310.909912L295.701233,310.871582L295.708405,310.833771L295.71936,310.797058L295.733948,310.761414L295.752075,310.727631L295.766541,310.705353L295.955261,310.436249L295.970947,310.415344L296.034058,310.337402L296.053528,310.315125L296.121613,310.243256L296.142761,310.222717L296.215881,310.156677L296.238953,310.13736L296.317291,310.077148L296.35376,310.052338L296.52533,309.949707L296.575317,309.924652L296.76709,309.84549L296.787781,309.837708L298.790222,309.144592L299.341064,308.501648L299.657745,307.897522L299.649231,307.891937L299.619446,307.867859L299.592194,307.840729L299.557159,307.795868L299.288055,307.392273L299.268372,307.359314L299.252197,307.324524L299.239532,307.288177L299.230652,307.250854L299.225555,307.212769L299.224335,307.174347L299.227142,307.136047L299.233582,307.098236L299.244049,307.061127L299.246582,307.054199L299.223846,307.061981L299.186401,307.07074L299.148346,307.075623L299.109924,307.076599L299.071594,307.073669L299.033783,307.066986L298.996826,307.056396L298.96106,307.042175L298.927002,307.024414L298.894897,307.003387L298.865112,306.979065L298.838013,306.951935L298.81369,306.922272L298.788513,306.883362L298.546265,306.453003L298.529114,306.418579L298.515625,306.382721L298.505798,306.34549L298.50238,306.324585L298.477692,306.338196L298.442322,306.353271L298.405701,306.364716L298.368011,306.372253L298.329834,306.37616L298.291382,306.376038L298.253082,306.372009L298.215515,306.364227L298.178925,306.352692L298.134155,306.332611L297.677063,306.091095L297.643982,306.071411L297.61322,306.048553L297.584747,306.022644L297.559082,305.99408L297.536621,305.962952L297.517151,305.929749L297.501343,305.894836L297.489044,305.858368L297.48053,305.820892L297.4758,305.782837L297.474945,305.744415L297.477997,305.706116L297.484924,305.668304L297.495605,305.631439L297.690308,305.068787L297.69104,305.048828L297.696259,305.010773L297.70697,304.968231L297.828461,304.581635L297.848999,304.249664L297.847046,304.240784L297.836243,304.210022L297.824677,304.187897L297.809967,304.16745L297.792572,304.149475L297.768494,304.130493L297.735046,304.110535L297.724243,304.105682L297.509003,304.078796L297.51059,304.080627L297.533936,304.111145L297.556427,304.148132L297.596802,304.223877L297.61322,304.258667L297.625854,304.294891L297.634979,304.332947L297.648468,304.405426L297.653595,304.443512L297.654907,304.481812L297.652252,304.520233L297.64801,304.546997L297.634613,304.616058L297.624146,304.657776L297.328308,305.599457L297.314911,305.635468L297.296204,305.673035L296.730621,306.668976L296.70993,306.701447L296.686218,306.731598L296.668945,306.749969L296.587982,306.830933L296.559509,306.85672L296.528503,306.879456L296.495422,306.898926L296.469299,306.911316L295.715576,307.23468L295.679474,307.248047L295.642273,307.25766L295.604309,307.263489L295.56601,307.265442L295.544128,307.264832L294.602417,307.210602L294.564117,307.206451L294.52655,307.198425L294.490051,307.186768L294.454803,307.171326L294.421356,307.152466L294.382935,307.124725L294.292084,307.049957L294.263763,307.024048L294.234802,306.991211L294.164185,306.901245L294.142029,306.869873L294.120758,306.831543L294.07016,306.726501L294.055206,306.691101L294.044006,306.65451L294.044006,306.654388L293.934448,306.878357L293.675079,308.019501L293.664612,308.056458L293.650513,308.092224L293.632874,308.126404L293.611969,308.158508L293.587769,308.188416L293.56076,308.215759L293.531097,308.240082L293.499115,308.261505L293.465179,308.279358L293.429565,308.293854L293.3927,308.304657L293.354889,308.311584L293.316589,308.314758L293.260895,308.312317L292.80304,308.25882L292.765106,308.252502L292.728149,308.242279L292.692261,308.228424L292.65799,308.210907L292.625763,308.190125L292.595703,308.166168L292.568237,308.139282L292.543671,308.109863L292.522156,308.078003L292.504028,308.044067L292.489319,308.008545L292.478363,307.971832L292.471191,307.934021L292.467804,307.895844L292.468262,307.857391L292.470581,307.833435L292.498932,307.612976L292.500122,307.604706L292.530914,307.401154L292.532471,307.391174L292.565796,307.204376L292.568115,307.192719L292.604004,307.022705L292.607147,307.008972L292.645447,306.855743L292.650085,306.839081L292.690796,306.702789L292.697754,306.681854L292.74115,306.562439L292.751251,306.537262L292.797089,306.434631L292.801605,306.425018L293.35318,305.277222L291.62677,303.670715L291.621552,303.717529L291.617188,303.746704L291.598206,303.845947L291.591156,303.875732L291.564636,303.97168L291.555054,304.001709L291.520996,304.094238L291.508575,304.124054L291.466858,304.213196L291.452515,304.240784L291.403381,304.32663L291.386719,304.353271L291.329956,304.435852L291.310974,304.460999L287.811096,308.741211L287.785309,308.769684L287.756744,308.795319L287.725861,308.818085L287.697876,308.834747L287.052063,309.184113L287.017395,309.200623L286.98114,309.213654L286.943939,309.2229L286.905884,309.228241L286.877563,309.229828L286.778687,309.231415L286.734314,309.229462L286.639679,309.219849L286.593842,309.212311L286.503479,309.191772L286.457397,309.178253L286.371185,309.146759L286.326569,309.127075L286.244598,309.084503L286.204834,309.060669L286.127014,309.007294L286.091492,308.979797L286.017944,308.915344L285.988861,308.886902L285.928802,308.821594L283.245361,306.272186L283.218872,306.244324L283.206696,306.22937L283.143707,306.14801L283.126556,306.123932L283.07196,306.040771L283.05603,306.014252L283.009705,305.929382L282.995117,305.899475L282.957275,305.812866L282.945007,305.780884L282.915588,305.692505L282.906097,305.659058L282.885071,305.569061L282.878601,305.534393L282.865967,305.442719L282.862793,305.408173L282.858551,305.314911L282.858795,305.276733L282.863892,305.184174L282.86853,305.141876L282.883606,305.052612L282.893799,305.008484L282.919098,304.922729L282.934174,304.88092L282.969452,304.798462L282.989136,304.758942L283.034485,304.679779L283.057739,304.644135L283.11319,304.568512L283.138245,304.537872L283.203766,304.465637L283.228943,304.440338L283.304474,304.371399L283.31189,304.364685L287.51123,300.730347L287.541626,300.706757L287.574097,300.686188L287.621277,300.66394L288.240356,300.42157L288.276855,300.409302L288.314301,300.400909L288.352478,300.396301L288.3909,300.395569L288.429077,300.398712L288.4776,300.408569L288.564911,300.432159L288.560181,300.424622L288.453156,300.236633L288.435913,300.202332L288.42215,300.166473L288.41217,300.129364L288.405975,300.091431L288.403564,300.053131L288.405151,300.014709L288.410492,299.976624L288.419739,299.939423L288.432617,299.903198L288.449158,299.86853L288.469086,299.835693L288.493164,299.803955L289.084778,299.10376L289.111053,299.075684L289.128174,299.06012L289.316925,298.898865L289.347321,298.875397L289.379913,298.855194L289.391357,298.849609L289.940979,298.299835L289.969452,298.274048L290.000458,298.251312L290.033539,298.231873L290.06842,298.21582L290.104797,298.2034L290.142242,298.194641L290.180298,298.189789L290.21875,298.188812L290.257019,298.191742L290.294861,298.198425L290.331818,298.209015L290.367462,298.223236L290.396759,298.23819L290.580261,298.342407L290.824677,298.471924L290.791962,298.375L290.781525,298.338013L290.776764,298.31369L290.749542,298.143707L290.745392,298.10553L290.746002,298.053223L290.759521,297.884918L290.764496,297.846863L290.770569,297.819275L290.811066,297.664459L290.822754,297.627869L290.835632,297.597351L290.902985,297.455902L290.921234,297.422119L290.940094,297.394012L291.03421,297.266205L291.071411,297.222931L291.96875,296.325714L292.000366,296.297516L292.06723,296.244141L292.103577,296.218353L292.174622,296.174194L292.215332,296.152191L292.290619,296.11731L292.333801,296.100525L292.41333,296.07486L292.45636,296.06366L292.540161,296.047119L292.582703,296.041168L292.670624,296.033997L292.710022,296.032898L292.802063,296.034973zM293.439789,296.710266C293.260651,296.530457,293.045135,296.43161,292.793915,296.413757C292.542694,296.395905,292.33609,296.476898,292.174805,296.656067L291.340149,297.490692C291.196686,297.652008,291.124634,297.84967,291.124634,298.083038C291.143158,298.316437,291.232391,298.522339,291.394379,298.702179L290.85556,298.917023L290.398438,298.674713L290.209656,298.567627L289.590546,299.186768L289.563782,299.186768L289.375031,299.348053L288.783356,300.048187L288.890442,300.236237L289.186951,300.667297L289.079193,300.963135L288.379089,300.774384L287.759949,301.016663L283.560638,304.651062C283.345825,304.830231,283.238037,305.045746,283.238037,305.296967C283.238037,305.548187,283.327972,305.781555,283.507111,305.996399L286.199127,308.553864C286.378265,308.769379,286.602722,308.868225,286.871765,308.849701L287.51767,308.500336L291.017548,304.220032C291.178833,304.004517,291.259827,303.753296,291.259827,303.46637C291.241302,303.179474,291.124634,302.946106,290.90979,302.766266L290.90979,302.739502L291.097839,302.65918L293.81662,305.189209L293.143982,306.588745C293.018372,306.839966,292.919525,307.270996,292.847443,307.881195L293.305267,307.934753L293.574341,306.750732L294.166687,305.539246L294.462524,305.808319C294.301208,306.31076,294.355438,306.651886,294.624512,306.831024L295.566223,306.885254L296.319885,306.561981L296.400879,306.480988L296.966461,305.485046L297.262268,304.543304C297.297974,304.4534,297.262268,304.354553,297.15451,304.246796L296.777679,304.139709L296.293091,304.193268L296.050812,303.977722L296.750916,303.600922L297.82785,303.735443C298.060547,303.825348,298.195068,303.986664,298.231445,304.220032L298.204681,304.651062L298.069458,305.081451L298.096924,305.054657L297.854645,305.754791L298.311768,305.996399L298.661835,304.893372L298.958344,304.946899C299.083954,305.018982,299.119629,305.19812,299.066101,305.485046L299.038635,305.781555L298.87735,306.266144L299.119629,306.696503L299.200623,306.615509L299.550018,305.754791L299.846527,305.889313C299.917908,305.978546,299.926819,306.131622,299.873291,306.346436L299.73877,306.857819L299.604218,307.181091L299.873291,307.584686L299.954285,307.531158L300.276886,306.750732L300.492401,306.938812L300.465637,307.207855L300.250122,307.584686L299.657776,308.715179L299.011871,309.468811L296.912231,310.195709C296.643158,310.285614,296.427643,310.437988,296.266327,310.653534L296.077576,310.922577L296.5354,311.111328L296.643158,310.922577C296.750916,310.814819,296.90329,310.725586,297.100983,310.653534L297.504578,310.518982L297.585571,311.353638C297.674805,311.622681,297.836792,311.81076,298.069458,311.918518L298.716034,312.080505C298.698212,312.313202,298.75174,312.493042,298.87735,312.618652C299.038635,312.815643,299.280945,312.914459,299.604218,312.914459C299.62207,313.16568,299.703064,313.363373,299.846527,313.506836C300.025665,313.685974,300.250122,313.766968,300.519196,313.749115L301.057983,314.260468L301.757416,314.233704L302.511078,313.830109L303.722534,315.01413C303.955902,315.247498,304.224976,315.364197,304.530426,315.364197C304.853027,315.364197,305.131012,315.247498,305.36438,315.01413C305.597748,314.780762,305.714447,314.502777,305.714447,314.179474C305.714447,313.856873,305.597748,313.596741,305.36438,313.399048L304.288116,312.322113L304.987549,310.411224C305.023926,310.213531,305.104248,310.070099,305.229858,309.980865L305.391846,309.873108L305.229858,309.388519L304.934021,309.604034C304.754181,309.76535,304.610718,309.989777,304.50296,310.276703L303.749298,312.322113C303.641541,312.609711,303.02243,313.031158,301.891968,313.58783L301.541901,313.775879L301.219299,313.802643L301.057983,313.641357C301.452667,313.515747,301.703888,313.399048,301.811646,313.29129L301.891968,313.210999L301.461578,312.941254L301.192535,313.076477L300.626953,313.210999L300.196594,313.156769L300.088806,312.914459C300.48349,312.843079,300.761475,312.72641,300.922791,312.564423L300.97699,312.457336L300.573395,312.215057L300.088806,312.376343L299.792297,312.429871L299.254181,312.322113L299.200623,311.972748C299.720917,311.882843,300.079895,311.766144,300.276886,311.622681L300.034607,311.19165L299.388702,311.433929L299.388702,311.407166L298.930878,311.541687L298.554047,311.595917C298.302856,311.541687,298.132629,311.398254,298.042694,311.164886L297.989166,310.330231L298.311768,310.223145C298.330292,310.437988,298.374908,310.591064,298.446991,310.680298C298.518372,310.770203,298.608276,310.805908,298.716034,310.788055L299.73877,310.357697C300.259033,310.142151,300.618011,309.926636,300.815704,309.711121L300.869232,309.684357L301.111542,308.903931C301.16507,308.562775,301.138306,308.275879,301.030548,308.042511C300.959167,307.934753,300.851379,307.844818,300.707947,307.773438L300.869232,307.450165C300.97699,307.270996,301.012695,307.100098,300.97699,306.938812L302.268768,306.642975L302.188477,306.158386L300.734711,306.480988L300.384644,306.238678C300.420349,305.933929,300.35788,305.700562,300.196594,305.539246C300.052429,305.395813,299.855438,305.305878,299.604218,305.270203C299.568542,304.964752,299.460785,304.731384,299.280945,304.570068L298.716034,304.408783L298.581512,303.762207C298.473755,303.52951,298.276062,303.358612,297.989166,303.250854L296.724152,303.116333L296.643158,303.116333L295.673981,303.627686L292.928436,300.828583L293.062988,300.343994C293.242798,300.469604,293.44873,300.532074,293.682098,300.532074C293.915466,300.532074,294.103546,300.451782,294.247681,300.289795L295.081635,299.455811C295.243622,299.293823,295.315002,299.087921,295.29715,298.8367C295.261475,298.58548,295.144775,298.369965,294.947113,298.190826L293.439789,296.710266z"/>
</svg>
