<?xml version="1.0" encoding="UTF-8"?>
<svg xmlns="http://www.w3.org/2000/svg" xmlns:xlink="http://www.w3.org/1999/xlink" width="16.338mm" height="26.419mm" viewBox="-490.474365 259.384094 16.337708 26.419006">
    <path transform="matrix(-1,0,0,1,0,0)" style="stroke:none;fill:#000000;fill-rule:evenodd" d="M482.415771,259.387726L482.453369,259.395264L482.490051,259.406586L482.525452,259.421539L482.559143,259.440033L482.590881,259.461792L482.620178,259.486725L482.646851,259.514435L482.663635,259.535248L482.990112,259.969727L483.011658,260.001587L483.029785,260.0354L483.044495,260.070892L483.05542,260.107758L483.062561,260.145447L483.066223,260.190552L483.070007,260.390594L483.080811,260.589905L483.098694,260.792023L483.124146,261.002625L483.15686,261.217865L483.196716,261.437866L483.245117,261.668762L483.299988,261.899811L483.36322,262.139618L483.432983,262.381989L483.511536,262.633331L483.597046,262.888336L483.688843,263.144562L483.790405,263.412445L483.900452,263.687653L484.007568,263.943024L486.392456,268.053833L486.395752,268.059662L489.118958,272.952759L489.133301,272.981201L489.291626,273.332031L489.294556,273.338715L489.442627,273.684448L489.445557,273.691498L489.583496,274.032104L489.586365,274.03952L489.71405,274.375031L489.71698,274.382935L489.834473,274.71347L489.83728,274.72171L489.944519,275.047028L489.947327,275.055756L490.044373,275.375946L490.046997,275.385193L490.13385,275.700378L490.136414,275.710114L490.213013,276.020203L490.215454,276.030548L490.28186,276.335419L490.284058,276.346222L490.34021,276.646118L490.342163,276.657532L490.388123,276.952301L490.389832,276.964355L490.425598,277.253998L490.426941,277.266541L490.452454,277.551086L490.453308,277.564209L490.468628,277.843658L490.469238,277.857391L490.474365,278.131744L490.474243,278.14743L490.465698,278.524139L490.464966,278.541656L490.439453,278.910736L490.437744,278.928986L490.395203,279.290375L490.392517,279.30899L490.332886,279.662842L490.329163,279.681946L490.252563,280.028015L490.247803,280.047119L490.154175,280.385651L490.148315,280.404877L490.037659,280.735748L490.030701,280.754852L489.903015,281.078064L489.89502,281.096802L489.750305,281.412354L489.741333,281.430603L489.57959,281.738495L489.569702,281.756256L489.390991,282.056488L489.380371,282.073273L489.184753,282.365967L489.173279,282.382019L488.96051,282.667084L488.948547,282.682281L488.71875,282.959534L488.706604,282.973511L488.459839,283.243225L488.447205,283.256348L488.18335,283.518433L488.171143,283.529968L487.881409,283.793365L487.868225,283.80481L487.570801,284.051178L487.556824,284.062103L487.251709,284.291565L487.236755,284.302277L486.924011,284.514587L486.908447,284.524689L486.588013,284.720093L486.571716,284.729462L486.243652,284.907867L486.226746,284.916504L485.890991,285.07785L485.873596,285.085663L485.530151,285.22998L485.512634,285.236908L485.161621,285.364349L485.143738,285.370331L484.785095,285.480743L484.767212,285.485718L484.400818,285.579102L484.383057,285.583252L484.009033,285.659729L483.991394,285.662903L483.60968,285.722351L483.592407,285.72467L483.203064,285.76712L483.186157,285.768585L482.789124,285.793976L482.772949,285.794586L482.368225,285.803101L482.351929,285.803101L481.9599,285.794586L481.943237,285.793854L481.557251,285.768463L481.5401,285.766998L481.159973,285.724548L481.142456,285.722107L480.768433,285.662659L480.750793,285.659485L480.38269,285.583008L480.365173,285.578857L480.00293,285.485474L479.985291,285.480499L479.629089,285.370087L479.611694,285.364227L479.261475,285.236816L479.244446,285.230103L478.900208,285.085754L478.883545,285.078339L478.545227,284.916992L478.529175,284.908844L478.196838,284.730438L478.181396,284.72168L477.855042,284.526276L477.840332,284.517029L477.519775,284.304718L477.505676,284.294861L477.191223,284.065399L477.17804,284.05542L476.869568,283.809052L476.8573,283.798706L476.554749,283.535309L476.54303,283.52475L476.266052,283.262695L476.253174,283.249908L475.994019,282.980194L475.981384,282.966461L475.740112,282.689209L475.727722,282.674133L475.504333,282.389099L475.492493,282.373169L475.286865,282.080444L475.275574,282.063416L475.087952,281.763184L475.077454,281.7453L474.907715,281.437408L474.898132,281.418823L474.746094,281.103241L474.737488,281.083923L474.603455,280.760681L474.595947,280.741119L474.479797,280.410217L474.47345,280.390289L474.375244,280.051727L474.369995,280.031921L474.28949,279.685822L474.285339,279.665894L474.222839,279.312012L474.220032,279.292694L474.175293,278.931274L474.17334,278.912079L474.146606,278.542999L474.145752,278.524628L474.13678,278.147919L474.136658,278.131744L474.141724,277.85788L474.142334,277.844025L474.157654,277.565796L474.15863,277.552551L474.184204,277.270172L474.185486,277.257416L474.221252,276.970673L474.222961,276.958374L474.268921,276.667389L474.270996,276.655579L474.327209,276.360443L474.329468,276.349274L474.395874,276.049774L474.398438,276.039063L474.475037,275.735413L474.477722,275.725311L474.564575,275.417419L474.567322,275.407806L474.664368,275.09552L474.667419,275.086304L474.774658,274.769867L474.77771,274.761139L474.895203,274.44046L474.898376,274.43219L475.026062,274.107269L475.029175,274.099487L475.167114,273.770172L475.17041,273.762756L475.318481,273.429321L475.321655,273.422394L475.479858,273.084686L475.491882,273.061096L478.21521,268.168121L478.216431,268.165955L480.605957,263.938873L480.731812,263.669159L480.852173,263.397858L480.961914,263.137512L481.067566,262.871429L481.160706,262.621552L481.247192,262.372742L481.325378,262.128693L481.394897,261.890717L481.456543,261.656982L481.508972,261.432129L481.552856,261.214966L481.590088,260.99472L481.61792,260.787018L481.637756,260.585052L481.649536,260.389008L481.653687,260.189941L481.656372,260.151642L481.662903,260.113708L481.673035,260.077606L481.78186,259.751465L481.795837,259.715698L481.813477,259.681519L481.83429,259.649292L481.858337,259.619263L481.885315,259.591919L481.914917,259.567474L481.946899,259.546051L481.973145,259.531586L482.191406,259.423248L482.226685,259.407928L482.263306,259.39624L482.300842,259.388336L482.33905,259.384338L482.377502,259.384094L482.415771,259.387726zM480.944092,264.112122L478.546997,268.352417L475.823792,273.245453C474.952332,275.05777,474.516388,276.688934,474.516388,278.138489C474.516388,280.168091,475.278961,281.871521,476.804108,283.24881C478.402008,284.698853,480.253784,285.423401,482.360352,285.423401C484.539215,285.423401,486.390991,284.698853,487.916138,283.24881C489.368561,281.871521,490.095001,280.168091,490.095001,278.138489C490.095001,276.688934,489.659027,275.021637,488.787598,273.137054L486.064362,268.244019L483.667297,264.112122C483.01358,262.589844,482.686981,261.285278,482.686981,260.19751L482.360352,259.76297L482.142151,259.871368L482.033264,260.19751C482.033264,261.285278,481.670044,262.589844,480.944092,264.112122zM483.667297,269.331299L484.103271,269.983582L486.173248,273.245453C486.899231,274.405487,487.262451,275.456635,487.262451,276.398926C487.262451,277.341217,486.935822,278.174622,486.282104,278.899658C485.628418,279.624664,484.756958,280.131958,483.667297,280.421967L483.667297,269.331299zM484.046631,279.905823L484.299438,279.812653L484.633972,279.663208L484.947693,279.495514L485.239075,279.311157L485.511902,279.107483L485.765015,278.886169L486.003235,278.64212L486.107178,278.521851L486.210815,278.391724L486.302246,278.265747L486.389282,278.134033L486.468567,278.001373L486.542053,277.864319L486.605286,277.731537L486.663513,277.59314L486.714844,277.452332L486.759583,277.30835L486.79657,277.16571L486.827942,277.014923L486.851624,276.866089L486.868896,276.713959L486.879272,276.557831L486.882507,276.400208L486.878784,276.238861L486.867065,276.075043L486.848022,275.911133L486.820496,275.740021L486.784851,275.564331L486.742676,275.392487L486.690125,275.209106L486.630432,275.026093L486.562927,274.841248L486.486206,274.650574L486.403015,274.460876L486.308044,274.261078L486.208252,274.06543L486.097717,273.862122L485.976196,273.651855L485.848999,273.443176L484.046631,270.603241L484.046631,279.905823z"/>
</svg>
