<?xml version="1.0" encoding="UTF-8"?>
<svg xmlns="http://www.w3.org/2000/svg" xmlns:xlink="http://www.w3.org/1999/xlink" width="23.250mm" height="11.765mm" viewBox="-275.120056 300.006683 23.250153 11.765259">
    <path transform="matrix(-1,0,0,1,0,0)" style="stroke:none;fill:#000000;fill-rule:evenodd" d="M262.653961,300.00885L262.678894,300.012512L263.147797,300.095551L263.185242,300.104065L263.221619,300.116486L263.256622,300.132416L263.278137,300.144562L263.403534,300.220459L263.435364,300.241974L263.458618,300.260956L263.56015,300.3508L263.587524,300.377686L263.612305,300.407471L263.668488,300.482513L273.262054,300.726074L273.300354,300.729004L273.338196,300.735809L273.375153,300.746277L273.410767,300.76062L273.441193,300.776184L273.492371,300.805481L273.494568,300.802094L273.519623,300.770599L273.562683,300.722076L273.589661,300.69458L273.620178,300.669281L273.666626,300.634766L273.698608,300.613464L273.748718,300.588287L273.798706,300.567749L273.83493,300.554993L273.872253,300.54599L273.894287,300.54245L273.947784,300.535522L273.996552,300.532379L274.437134,300.532379L274.475555,300.534302L274.513489,300.540161L274.55069,300.549744L274.5867,300.563019L274.621216,300.579926L274.64798,300.596313L274.896545,300.762451L274.927429,300.785431L274.95575,300.81131L274.981293,300.840027L275.003906,300.871033L275.023132,300.904358L275.03894,300.939362L275.051208,300.975739L275.058044,301.004181L275.112854,301.280823L275.118347,301.318909L275.120056,301.354645L275.120056,304.702881L275.118103,304.741302L275.112854,304.776703L275.058044,305.053223L275.048523,305.090546L275.035522,305.126678L275.01886,305.161194L274.998688,305.194031L274.975464,305.224548L274.949188,305.252533L274.920258,305.277832L274.888885,305.299957L274.870636,305.310791L274.62207,305.449524L274.587646,305.466553L274.551666,305.480042L274.514465,305.489777L274.476501,305.495605L274.437134,305.497681L273.996552,305.497681L273.95813,305.495728L273.902679,305.485901L273.893433,305.483582L273.785461,305.701721L273.766724,305.735291L273.744568,305.766663L273.726105,305.788666L273.693146,305.824921L273.665894,305.85202L273.636108,305.876099L273.607666,305.894958L273.564484,305.920868L273.530579,305.938995L273.495056,305.953583L273.47644,305.959534L273.423187,305.97522L273.385864,305.984222L273.347046,305.989441L273.283569,305.99469L273.252441,305.99588L272.289734,305.99588L272.283142,306.007568L272.268555,306.031525L272.144043,306.219879L272.126404,306.244446L271.992523,306.41568L271.971008,306.440704L271.827515,306.594543L271.802826,306.618744L271.649963,306.75531L271.622009,306.777924L271.459656,306.897339L271.42865,306.917999L271.256805,307.02005L271.223755,307.037415L271.178497,307.058594L270.90332,307.748932L270.881897,307.793915L270.776733,307.981567L270.767853,307.996521L270.65863,308.171997L270.64856,308.187439L270.535461,308.350861L270.523804,308.366791L270.406921,308.518188L270.393188,308.534973L270.27243,308.674225L270.256622,308.691376L270.131989,308.818451L270.113983,308.835571L269.985321,308.950623L269.965393,308.967285L269.832947,309.070282L269.810577,309.086456L269.674377,309.177277L269.649475,309.192505L269.509247,309.271179L269.482849,309.284668L269.338745,309.351318L269.310669,309.362976L269.162781,309.41745L269.133728,309.426819L268.981842,309.469269L268.952179,309.476318L268.796509,309.506592L268.766846,309.511078L268.6073,309.529205L268.578613,309.531403L268.415161,309.537476L268.401062,309.53772L268.373596,309.53772L268.357788,309.537354L268.217346,309.531525L268.185608,309.528961L268.046967,309.511444L268.015472,309.506104L267.878418,309.476929L267.847656,309.469025L267.712433,309.428162L267.683228,309.417938L267.549713,309.365417L267.522125,309.353241L267.390442,309.28891L267.365845,309.275787L267.235748,309.199921L267.213013,309.185547L267.084717,309.097992L267.064636,309.083282L266.937927,308.98407L266.919922,308.969116L266.795044,308.858215L266.779236,308.843353L266.656067,308.720795L266.642334,308.706329L266.520966,308.572083L266.509033,308.558319L266.389252,308.412415L266.378906,308.399139L266.260864,308.241547L266.251831,308.229034L266.164673,308.102203L266.557678,309.348755L266.567291,309.385956L266.573242,309.423889L266.574829,309.480804L266.547455,310.061462L266.543701,310.09964L266.536041,310.13736L266.524719,310.174072L266.509766,310.209473L266.49115,310.243011L266.469391,310.274628L266.445801,310.302612L266.032593,310.745361L266.005005,310.772003L265.974823,310.795837L265.942383,310.816498L265.904541,310.835236L263.908905,311.690002L263.901611,311.695709L263.885315,311.706879L263.877167,311.712128L263.843842,311.731201L263.808716,311.746765L263.772217,311.75882L263.73465,311.766968L263.696472,311.771454L263.658142,311.771942L263.619873,311.768555L263.582031,311.761383L263.545319,311.750427L263.509796,311.735718L263.483398,311.721985L263.474304,311.716736L263.441956,311.695953L263.411926,311.671997L263.38443,311.645111L263.359741,311.615692L263.343079,311.591492L263.333252,311.57605L263.314148,311.542725L263.302338,311.516937L263.291656,311.491058L263.280823,311.461365L263.269287,311.42514L263.26416,311.407501L263.25177,311.360931L263.24884,311.349365L263.243622,311.327118L263.037384,310.861877L263.02179,310.820404L261.329102,305.360992L260.945801,305.53064L260.369019,307.59436L260.261658,308.777222L260.256287,308.815277L260.24707,308.8526L260.234161,308.888733L260.217621,308.92337L260.197693,308.956207L260.174438,308.986847L260.148315,309.015076L260.119507,309.040375L260.088135,309.062744L260.05481,309.081696L260.019653,309.09726L259.983185,309.109192L259.945587,309.11734L259.90741,309.121704L259.883698,309.122437L258.257629,309.122437L258.219177,309.120514L258.181244,309.114655L258.144043,309.105072L258.108032,309.091797L258.073517,309.07489L258.040924,309.054596L258.010529,309.031006L257.982666,309.004608L257.957611,308.975433L257.93573,308.943939L257.916992,308.91037L257.901794,308.875092L257.890259,308.838379L257.882477,308.800812L257.878571,308.762634L257.879425,308.710449L257.906311,308.39743L257.907776,308.383698L257.946564,308.067413L257.948486,308.054047L257.999329,307.7341L258.001526,307.721191L258.064392,307.397858L258.067078,307.38559L258.141968,307.058838L258.144897,307.047028L258.201324,306.832397L257.836243,306.99707L257.836121,307.016022L257.835999,307.023071L257.829468,307.26944L257.829224,307.276855L257.818512,307.507782L257.818024,307.516785L257.802948,307.732025L257.801971,307.742371L257.782501,307.942169L257.781311,307.953705L257.757568,308.137939L257.755524,308.151672L257.727539,308.320343L257.724487,308.336517L257.668091,308.604065L257.661621,308.630188L257.630615,308.738556L257.621643,308.7659L257.583679,308.868286L257.572021,308.896271L257.527283,308.992706L257.512299,309.021637L257.46051,309.112L257.443115,309.139465L257.384613,309.223877L257.363953,309.250977L257.298523,309.329285L257.275665,309.35434L257.20343,309.426575L257.104309,309.529327L257.07843,309.553772L256.959991,309.655426L256.93396,309.675995L256.800812,309.771454L256.776367,309.787506L256.628723,309.876984L256.605621,309.889893L256.443298,309.973419L256.421509,309.983765L256.244476,310.061096L256.225128,310.069L256.0336,310.140381L256.015625,310.146606L255.80925,310.211884L255.753189,310.225037L254.512939,310.41861L254.474762,310.422638L254.441437,310.422882L254.253937,310.416443L254.225235,310.414368L254.049042,310.394897L254.017776,310.390167L253.852753,310.357819L253.818359,310.349426L253.66452,310.304077L253.628159,310.29129L253.485519,310.232941L253.448059,310.215057L253.316742,310.143677L253.279404,310.120575L253.159378,310.036041L253.124969,310.008698L252.943176,309.846222L252.919342,309.822998L252.85257,309.751862L252.830688,309.72644L252.770004,309.649109L252.751282,309.622955L252.696564,309.539551L252.680511,309.512543L252.631866,309.423065L252.618851,309.39679L252.576172,309.301331L252.565704,309.275299L252.528992,309.173645L252.520966,309.149078L252.490204,309.041473L252.482895,309.011169L252.262543,307.904114L252.259995,307.890106L251.984802,306.174164L251.980682,306.136719L251.870132,304.282745L251.869904,304.244324L251.872192,304.214508L251.982742,303.301636L251.992462,303.250824L252.037949,303.077759L252.045853,303.051758L252.100098,302.8927L252.110901,302.864471L252.173782,302.719147L252.188614,302.688873L252.259995,302.557312L252.279938,302.524475L252.360077,302.406891L252.385254,302.374054L252.47403,302.270203L252.504547,302.238342L252.601837,302.148224L252.638184,302.118561L252.74411,302.04245L252.776459,302.021515L252.799072,302.009613L253.818954,301.511261L253.857391,301.494995L254.074081,301.417267L254.085999,301.413269L254.294922,301.346008L254.307678,301.342133L254.508942,301.285095L254.523529,301.281311L254.716888,301.234741L254.733063,301.231232L254.91861,301.194977L254.936615,301.191833L255.114532,301.165924L255.134705,301.163605L255.30484,301.148041L255.327209,301.146576L255.48967,301.141357L255.51387,301.141357L255.66272,301.146088L255.688126,301.147797L255.831741,301.162018L255.858246,301.16568L255.996887,301.189392L256.024475,301.195099L256.15802,301.228302L256.186218,301.23645L256.314514,301.279144L256.343201,301.289948L256.466278,301.342255L256.493866,301.355377L256.611816,301.417145L256.638947,301.432831L256.751801,301.504333L256.783051,301.526489L256.812103,301.551636L256.828766,301.568909L256.960815,301.713501L262.501953,300.023224L262.539276,300.013855L262.577209,300.00824L262.615662,300.006683L262.653961,300.00885zM263.440338,300.855865C263.384735,300.689758,263.26532,300.56073,263.082062,300.46875L262.613251,300.385681L256.990387,302.100983L256.852417,302.156586L256.549042,301.824371C256.255249,301.621185,255.905884,301.520294,255.502289,301.520294C255.079483,301.520294,254.574295,301.630798,253.986069,301.851807L252.966095,302.350128C252.672333,302.53476,252.469849,302.866974,252.360016,303.346771L252.249512,304.259644L252.360016,306.113586L252.635254,307.829559L252.855591,308.936676C252.929718,309.231842,253.067001,309.462463,253.269485,309.627869C253.544724,309.905182,253.940079,310.043152,254.454865,310.043152L255.69516,309.849579C256.264862,309.683472,256.67807,309.45285,256.935455,309.157715C257.137268,308.973053,257.266296,308.723907,257.321228,308.410919C257.413177,308.023102,257.459167,307.469879,257.459167,306.750549L258.809296,306.141724C258.497009,307.045685,258.313721,307.912598,258.258118,308.742432L259.884186,308.742432L259.99469,307.52478L260.628906,305.255615L261.565826,304.841034L263.384735,310.70755L263.605774,311.205872C263.642151,311.371307,263.669586,311.42691,263.688141,311.371307L265.755524,310.48587L266.168732,310.043152L266.196167,309.462463L264.983337,305.615967L265.50705,305.615967C265.728058,306.445801,266.003296,307.128754,266.334137,307.663452C266.940918,308.659393,267.620422,309.157715,268.374084,309.157715L268.40155,309.157715C269.283539,309.157715,270.000122,308.640869,270.5513,307.607849L270.882141,306.778015C271.378387,306.574829,271.773071,306.187714,272.067535,305.615967L273.252899,305.615967C273.344208,305.615967,273.408722,305.587799,273.445801,305.532898L273.583069,305.255615L273.583069,305.089508L273.886444,305.089508L273.996948,305.117645L274.437622,305.117645L274.686096,304.979004L274.740997,304.702362L274.740997,301.354187L274.686096,301.077576L274.437622,300.911469L273.996948,300.911469C273.923523,300.911469,273.858978,300.947845,273.804077,301.021973L273.693573,301.215546L273.445801,301.215546L273.252899,301.105042L263.440338,300.855865zM254.289444,304.481354L254.868073,304.425751L255.474152,304.425751L255.529755,306.169189L255.529755,307.829559L255.11586,307.829559L254.619598,307.802094L254.426727,306.141724L254.289444,304.481354zM254.886154,304.805756L254.698151,304.823761L254.804199,306.106903L254.959229,307.441284L255.125458,307.450531L255.14978,307.450531L255.14978,306.177948L255.106018,304.805756L254.886154,304.805756zM266.554474,305.615967L268.070709,305.615967L268.787292,306.473236C269.081055,306.694946,269.394043,306.832916,269.724213,306.888519C269.394043,307.589325,268.943787,307.949677,268.374084,307.967499C267.969788,307.967499,267.592987,307.7005,267.243622,307.165131C266.986908,306.75946,266.756958,306.242615,266.554474,305.615967zM267.0914,305.99588L267.144409,306.130615L267.225891,306.321533L267.306519,306.495453L267.390778,306.662292L267.477478,306.819275L267.560791,306.957306L267.678253,307.124512L267.791229,307.260925L267.901642,307.371826L268.007813,307.457336L268.105713,307.517639L268.198364,307.557648L268.286041,307.579773L268.375793,307.587311L268.43866,307.582947L268.509552,307.572235L268.579346,307.555939L268.646484,307.534302L268.711273,307.50705L268.776703,307.473145L268.839203,307.43399L268.901489,307.387878L268.963379,307.334625L269.026489,307.272003L269.087036,307.203552L269.147827,307.125702L269.153564,307.117554L269.098602,307.095184L269.077545,307.085938L268.961304,307.030243L268.941223,307.019806L268.826569,306.956207L268.807831,306.945129L268.695007,306.873749L268.677246,306.861847L268.566223,306.782562L268.536163,306.758698L268.508575,306.731842L268.495544,306.717133L267.892639,305.99588L267.0914,305.99588z"/>
</svg>
