<?xml version="1.0" encoding="UTF-8"?>
<svg xmlns="http://www.w3.org/2000/svg" xmlns:xlink="http://www.w3.org/1999/xlink" width="23.208mm" height="7.762mm" viewBox="-244.117645 302.008759 23.207581 7.761841">
    <path transform="matrix(-1,0,0,1,0,0)" style="stroke:none;fill:#000000;fill-rule:evenodd" d="M241.626114,302.010712L241.664063,302.016541L241.701263,302.026154L241.721207,302.032959L241.931213,302.111877L241.966492,302.127197L241.999924,302.146027L242.031418,302.168182L242.060364,302.193207L242.086746,302.221191L242.110107,302.251709L242.129547,302.282959L242.152283,302.323822L243.423782,302.323822L243.462219,302.325775L243.500153,302.331604L243.537354,302.341217L243.57724,302.356171L243.813278,302.46051L243.847565,302.477905L243.879913,302.498444L243.910065,302.5224L243.937683,302.549164L243.962372,302.578461L243.984009,302.610321L244.002258,302.644012L244.01709,302.679504L244.026093,302.708344L244.104401,302.997253L244.112671,303.034851L244.116913,303.073029L244.117645,303.096619L244.117645,304.46051L244.115707,304.498962L244.109863,304.536896L244.098328,304.580292L244.020004,304.815735L244.006012,304.851593L243.98851,304.885773L243.96759,304.917999L243.943634,304.948029L243.916641,304.975403L243.887085,304.999969L243.844055,305.027802L243.608002,305.158905L243.573608,305.175812L243.537598,305.189178L243.500397,305.198792L243.462463,305.20462L243.423782,305.206573L242.334457,305.206573L242.334457,305.628906L242.387238,305.697479L242.409119,305.729095L242.427612,305.762787L242.438904,305.788208L242.478195,305.886566L242.490601,305.922943L242.499237,305.960266L242.502625,305.98288L242.515778,306.094269L242.518311,306.138641L242.518311,307.895844L242.516373,307.934265L242.510529,307.972198L242.495453,308.025696L242.390518,308.314026L242.375549,308.349426L242.357071,308.383087L242.335297,308.414703L242.310501,308.444031L242.282776,308.470642L242.252625,308.494354L242.218079,308.516022L241.981934,308.647095L241.947388,308.664001L241.911407,308.677368L241.874176,308.686981L241.836243,308.69281L241.797699,308.694763L239.725449,308.694763L239.687012,308.69281L239.649078,308.686981L239.611877,308.677368L239.575867,308.664124L239.540848,308.646851L239.30542,308.515778L239.272842,308.495331L239.242432,308.471863L239.214584,308.445343L239.189667,308.416168L239.16777,308.384552L239.14917,308.350983L239.133972,308.315735L239.123993,308.284363L239.045074,307.996033L239.036804,307.958466L239.032303,307.92038L239.031586,307.895844L239.031586,307.514832L237.823441,307.514832L237.823441,307.633667L237.821503,307.672089L237.815659,307.710022L237.800583,307.763519L237.695633,308.051849L237.680679,308.087219L237.662201,308.120911L237.640427,308.152527L237.615631,308.181854L237.587891,308.208466L237.572571,308.22113L237.337158,308.404999L237.305771,308.427002L237.272217,308.445831L237.236938,308.461151L237.200348,308.472839L237.162766,308.480743L237.124588,308.484741L237.103546,308.485352L234.244766,308.485352L234.206345,308.483429L234.168396,308.47757L234.131195,308.467987L234.095184,308.454712L234.060669,308.437805L234.028076,308.417511L234.011658,308.405334L233.775497,308.221497L233.746307,308.19632L233.719925,308.168457L233.696579,308.137939L233.680649,308.112396L233.660339,308.173218L233.646225,308.209076L233.628723,308.243256L233.607819,308.275482L233.58374,308.305389L233.556854,308.332764L233.527191,308.35733L233.495331,308.378601L233.461395,308.396729L233.434158,308.408264L233.224762,308.487183L233.188156,308.498871L233.150574,308.506775L233.112396,308.510895L233.090866,308.511505L232.015289,308.511505L231.976852,308.509552L231.938919,308.503723L231.901703,308.49411L231.88176,308.487305L231.671753,308.408386L231.63649,308.393066L231.603043,308.374207L231.571548,308.352081L231.542618,308.327026L231.51622,308.299072L231.492874,308.268555L231.472687,308.23584L231.455902,308.201294L231.445084,308.172607L231.340744,307.858246L231.330536,307.821289L231.324097,307.783356L231.321411,307.738708L231.321411,307.630981L229.222778,307.691162L228.454483,309.414307L228.437088,309.448578L228.41629,309.480804L228.392334,309.510956L228.365463,309.53833L228.336044,309.563019L228.304184,309.584534L228.270386,309.602661L228.227814,309.619812L227.834427,309.750885L227.797333,309.76123L227.759521,309.76767L227.715378,309.770355L227.625626,309.770599L227.572372,309.766937L227.486633,309.755035L227.431061,309.742981L227.349472,309.718781L227.296082,309.698486L227.218628,309.662109L227.169983,309.634766L227.096527,309.585999L227.055313,309.554382L226.986115,309.493347L226.953156,309.460388L226.888107,309.386932L226.863052,309.355438L226.802002,309.269714L226.781342,309.237366L226.760788,309.195526L226.718948,309.095093L226.705933,309.05896L226.695358,309.014465L226.674805,308.896881L226.670197,308.858795L226.66922,308.829132L226.670074,308.694275L226.674072,308.641754L226.696335,308.489746L226.704239,308.45047L226.74765,308.281189L226.756775,308.250671L226.821594,308.064362L226.83046,308.041504L226.916443,307.837952L226.924591,307.819702L227.03183,307.598877L227.050079,307.565796L227.620636,306.638702L227.615662,306.623718L227.594376,306.57605L227.561432,306.515259L227.557404,306.508698L227.463409,306.494232L227.424866,306.486206L227.330627,306.461517L227.294617,306.450195L227.221664,306.423096L227.217407,306.433411L227.199036,306.467224L227.177399,306.498962L227.15271,306.528381L227.119873,306.559662L227.079147,306.594055L227.048615,306.617401L227.01944,306.635406L226.975296,306.660095L226.940887,306.677124L226.904037,306.690857L226.856491,306.705811L226.819275,306.715546L226.779633,306.721497L226.728806,306.726501L226.691711,306.728302L223.719849,306.728302L222.023468,308.718597L221.997192,308.74646L221.96814,308.771606L221.936646,308.79364L221.905151,308.811493L221.74791,308.890533L221.712769,308.906006L221.676163,308.917908L221.638596,308.925934L221.600403,308.930176L221.562103,308.930664L221.523804,308.927155L221.486099,308.919739L221.443787,308.906586L221.233765,308.827545L221.198502,308.812225L221.164948,308.793396L221.133575,308.77124L221.104507,308.746094L221.078247,308.718109L221.054901,308.687714L221.027649,308.64151L220.949463,308.484406L220.934021,308.449127L220.922348,308.412537L220.914444,308.374939L220.910309,308.336761L220.910065,308.29834L220.913712,308.260162L220.920883,308.223419L220.973053,308.014038L220.984238,307.977295L221.007233,307.925995L221.332397,307.321869L221.434296,304.447021L221.437576,304.408844L221.445236,304.36908L221.497406,304.159058L221.508484,304.122223L221.523315,304.086823L221.541672,304.05304L221.563324,304.021301L221.588013,303.991852L221.615601,303.965118L221.645645,303.941284L221.678116,303.920593L221.712402,303.90332L221.732101,303.895294L221.942108,303.816254L221.978714,303.804596L222.016296,303.79657L222.054474,303.792542L222.092896,303.792297L222.11528,303.794006L222.162827,303.799011L222.200882,303.804962L222.237976,303.814697L222.261688,303.82309L222.299255,303.837799L222.33429,303.853607L222.367493,303.872803L222.412598,303.907104L222.440445,303.931793L222.467926,303.958801L222.492493,303.988342L222.513885,304.020203L222.525085,304.040009L222.543198,304.074677L222.546234,304.08075L222.651306,304.290771L222.666748,304.325897L222.678543,304.362518L222.686569,304.399963L222.690948,304.441681L222.699097,304.605347L224.002686,304.605347L224.025421,304.564484L224.045746,304.531891L224.069336,304.501495L224.095718,304.473663L224.124908,304.448608L224.156403,304.426727L224.187042,304.409576L224.344269,304.330658L224.379425,304.315094L224.416016,304.303284L224.453476,304.295135L224.491653,304.290894L224.514526,304.290283L226.272064,304.290283L226.334564,304.08197L226.346481,304.048035L226.392685,303.934601L226.402298,303.912933L226.455811,303.80191L226.466995,303.780518L226.52803,303.672058L226.539825,303.652588L226.60817,303.546539L226.630554,303.515411L226.65596,303.486603L226.669952,303.473114L226.756653,303.393219L226.780609,303.372772L226.869629,303.303467L226.898071,303.283386L226.989517,303.224792L227.021378,303.206421L227.115265,303.158386L227.151016,303.142456L227.247314,303.105133L227.285751,303.092468L227.308853,303.086273L227.308853,302.807678L227.310791,302.769257L227.316635,302.731323L227.326233,302.694122L227.335724,302.667358L227.440063,302.405182L227.456116,302.37027L227.475449,302.337067L227.498184,302.306061L227.523972,302.277618L227.552429,302.251709L227.582336,302.229584L227.818497,302.072357L227.851578,302.052643L227.886353,302.036469L227.922699,302.023956L227.960037,302.015076L227.998108,302.009979L228.02887,302.008759L241.587677,302.008759L241.626114,302.010712zM227.793289,302.545197L227.688965,302.807373L227.688965,303.410706C227.40892,303.410706,227.15564,303.524658,226.927765,303.751862C226.735565,304.031219,226.622314,304.337341,226.587311,304.669556L224.515106,304.669556L224.357925,304.748474L224.226837,304.984589L222.338593,304.984589L222.3125,304.460205L222.207489,304.250153C222.189636,304.197327,222.146393,304.171234,222.076385,304.171234L221.866348,304.250153L221.814178,304.460205L221.709167,307.42334L221.341949,308.105591L221.289795,308.314941L221.368042,308.472137L221.578064,308.551056L221.735245,308.472137L223.545258,306.34845L226.692322,306.34845C226.762344,306.34845,226.823425,306.321686,226.875595,306.269501L226.927765,306.059479L226.796661,305.823364L226.980606,305.823364C227.207809,306.033386,227.45285,306.138397,227.715042,306.138397L227.767212,306.138397C227.959396,306.400604,228.03833,306.601715,228.003326,306.74173L227.373901,307.764465C227.05954,308.376038,226.97168,308.804321,227.11171,309.049377C227.26889,309.294403,227.470001,309.407654,227.715042,309.390503L228.108337,309.259399L228.973877,307.318298L231.701569,307.240051L231.701569,307.738373L231.805908,308.052734L232.01593,308.131683L233.091507,308.131683L233.300842,308.052734L233.405869,307.738373L233.405869,307.13504L233.90419,307.13504L233.90419,307.633362L234.009201,307.921631L234.245316,308.105591L237.104111,308.105591L237.339539,307.921631L237.444565,307.633362L237.444565,307.13504L239.411743,307.13504L239.411743,307.895569L239.490677,308.183838L239.726105,308.314941L241.798309,308.314941L242.034424,308.183838L242.139435,307.895569L242.139435,306.138397C242.139435,305.981232,242.069427,305.858368,241.929398,305.77121L241.95549,305.692261L241.95549,304.826721L243.424347,304.826721L243.660461,304.695618L243.738724,304.460205L243.738724,303.096344L243.660461,302.807373L243.424347,302.703064L241.929398,302.703064L241.798309,302.466949L241.588272,302.388L228.029404,302.388L227.793289,302.545197M231.04538,303.122437L231.255417,302.991333L240.539474,302.991333L240.775589,303.122437L240.8806,303.410706L240.8806,304.381256L240.775589,304.617371L240.539474,304.748474L240.460541,304.748474L240.460541,303.672913L240.355515,303.384644C240.30336,303.262451,240.224426,303.200684,240.120087,303.200684L239.883972,303.200684L239.647858,303.384644L239.595001,303.672913L239.595001,304.748474L238.861267,304.748474L238.861267,303.672913L238.756241,303.384644L238.520126,303.200684L238.284012,303.200684L238.021805,303.384644L237.942871,303.672913L237.942871,304.748474L237.235214,304.748474L237.235214,303.672913L237.130188,303.384644L236.920166,303.200684L236.657959,303.200684L236.447922,303.384644L236.343597,303.672913L236.343597,304.748474L235.635254,304.748474L235.635254,303.672913L235.530228,303.384644L235.294113,303.200684L235.057999,303.200684L234.821884,303.384644L234.717545,303.672913L234.717545,304.748474L234.009201,304.748474L234.009201,303.672913L233.930267,303.384644C233.878098,303.262451,233.799164,303.200684,233.694153,303.200684L233.431946,303.200684L233.222595,303.384644L233.117584,303.672913L233.117584,304.748474L232.409241,304.748474L232.409241,303.672913L232.357071,303.384644L232.0681,303.200684L231.858749,303.200684L231.596558,303.384644L231.491531,303.672913L231.491531,304.748474L231.255417,304.748474C231.168243,304.748474,231.098236,304.704559,231.04538,304.617371L230.914291,304.381256L230.914291,303.410706L231.04538,303.122437zM234.319427,303.371185L234.363815,303.533661L234.422668,303.371185L234.319427,303.371185zM232.739685,303.371185L232.767395,303.52417L232.822968,303.371185L232.739685,303.371185zM239.154633,303.371185L239.21727,303.543396L239.226624,303.574036L239.26384,303.371185L239.154633,303.371185zM235.928619,303.371185L235.988922,303.536469L236.048767,303.371185L235.928619,303.371185zM237.528549,303.371185L237.58728,303.53244L237.631439,303.371185L237.528549,303.371185z"/>
</svg>
