<?xml version="1.0" encoding="UTF-8"?>
<svg xmlns="http://www.w3.org/2000/svg" xmlns:xlink="http://www.w3.org/1999/xlink" width="22.802mm" height="7.261mm" viewBox="-212.933716 302.259247 22.802170 7.260590">
    <path transform="matrix(-1,0,0,1,0,0)" style="stroke:none;fill:#000000;fill-rule:evenodd" d="M203.519272,302.2612L203.557205,302.267029L203.601959,302.279083L203.755051,302.330627L203.790802,302.344727L203.824982,302.362366L203.857086,302.383423L203.886993,302.407501L203.914352,302.434479L203.938797,302.464142L203.94075,302.467072L204.202805,302.419281L204.24086,302.414307L204.283905,302.41333L205.762375,302.46402L205.76857,302.464264L206.787857,302.515839L206.826035,302.519714L206.863617,302.527374L206.90033,302.53894L206.935608,302.554016L206.969284,302.572632L207.000778,302.594635L207.029968,302.619568L207.056473,302.6474L207.073135,302.669067L208.552567,302.669067L208.590988,302.67099L208.644135,302.680237L208.701416,302.694458L208.90947,302.694458L208.947906,302.696411L208.98584,302.70224L209.023056,302.711853L209.059052,302.725128L209.093582,302.742004L209.126175,302.762329L209.15657,302.785919L209.184418,302.812317L209.213364,302.846588L209.366455,303.051147L209.387863,303.083008L209.408539,303.122406L209.512756,303.353455L209.525513,303.360992L209.572815,303.381531L209.727264,303.425568L209.763611,303.437958L209.798645,303.45401L209.81311,303.462524L210.91217,303.462524L210.942688,303.397827L210.944275,303.394531L211.005798,303.267578L211.007263,303.264679L211.065506,303.147095L211.067215,303.143677L211.122055,303.035706L211.123871,303.032166L211.175323,302.933411L211.17775,302.928925L211.225784,302.839661L211.228455,302.834686L211.273087,302.754669L211.277344,302.747375L211.318695,302.676971L211.323547,302.668701L211.361496,302.607635L211.368301,302.597198L211.402832,302.545502L211.412689,302.531525L211.443817,302.489197L211.459137,302.469757L211.486862,302.436798L211.514343,302.407379L211.538788,302.383911L211.567856,302.358734L211.590347,302.342438L211.611389,302.328308L211.644348,302.308502L211.679123,302.292206L211.724121,302.277008L211.741745,302.272278L211.779327,302.26413L211.817505,302.259979L211.840363,302.259247L212.01889,302.259247L212.057312,302.2612L212.095245,302.267029L212.140121,302.279083L212.293091,302.330627L212.328857,302.344727L212.3629,302.362366L212.395126,302.383423L212.425034,302.407623L212.452271,302.434601L212.476715,302.464264L212.498001,302.496246L212.511749,302.521423L212.613403,302.725952L212.628723,302.761108L212.640396,302.797699L212.648422,302.835419L212.652435,302.873596L212.653046,302.894867L212.653046,303.556641L212.699127,303.579742L212.732574,303.598724L212.763947,303.620972L212.79277,303.646271L212.819031,303.674347L212.842255,303.704865L212.862335,303.737701L212.87886,303.772369L212.891876,303.808472L212.901001,303.844849L212.926407,303.972534L212.932007,304.010468L212.933716,304.048889L212.931519,304.087189L212.928604,304.10849L212.903183,304.262177L212.895035,304.299774L212.883118,304.336243L212.867554,304.371399L212.848587,304.404694L212.826202,304.436096L212.800919,304.464905L212.772705,304.491058L212.742065,304.514282L212.709229,304.53421L212.674561,304.550751L212.638336,304.563629L212.591034,304.574707L212.438049,304.600128L212.399872,304.604492L212.375793,304.605225L209.852142,304.605225L209.824295,304.624573L209.790741,304.64328L209.755463,304.658508L209.71875,304.670044L209.681168,304.677826L209.653809,304.681L209.15596,304.72113L209.127869,304.749451L209.099426,304.775238L209.068527,304.798096L209.035583,304.817688L209.000671,304.833832L208.964325,304.846375L208.926987,304.855133L208.888916,304.860107L208.858765,304.861328L208.654831,304.861328L208.616409,304.859375L208.578461,304.853546L208.54126,304.843933L208.505264,304.830688L208.470734,304.813782L208.438141,304.793488L208.407745,304.769897L208.379883,304.7435L208.354843,304.714325L208.332947,304.6828L208.315201,304.651184L208.292328,304.605225L207.44014,304.605225L207.436249,304.606934L207.399521,304.6185L207.361938,304.626282L207.323761,304.630157L207.304062,304.630646L207.192184,304.630646L207.187073,304.639282L207.164337,304.670288L207.138565,304.69873L207.109985,304.724518L207.078979,304.747253L207.045898,304.766724L207.011002,304.782776L206.975616,304.794922L206.797089,304.846497L206.759766,304.855255L206.721588,304.860229L206.691788,304.861328L204.270294,304.861328L203.729034,305.087891L203.692917,305.100891L203.660934,305.109161L203.176956,305.211426L203.139008,305.217377L203.100708,305.219574L203.062881,305.217865L202.927429,305.205109L202.889359,305.199646L202.869904,305.195251L202.718506,305.156952L202.676315,305.143585L202.508987,305.079742L202.477722,305.066101L202.389694,305.023071L201.606812,305.094452L201.779114,305.452698L201.995941,305.837921L202.221878,306.185364L203.517929,307.462067L203.543945,307.490417L203.56694,307.521179L203.586639,307.554108L203.600861,307.583923L203.677109,307.763031L203.690369,307.799042L203.699844,307.836243L203.705566,307.874298L203.707382,307.912598L203.705322,307.95105L203.699478,307.988983L203.689758,308.026184L203.676254,308.062195L203.659348,308.096588L203.638916,308.129181L203.615326,308.159454L203.588821,308.187317L203.559631,308.21225L203.540176,308.226227L203.529602,308.233398L202.858353,309.291962L202.83609,309.323334L202.810928,309.352264L202.782837,309.37854L202.752319,309.401886L202.708649,309.427673L202.606384,309.479218L202.571243,309.494812L202.53476,309.506714L202.497192,309.514862L202.459,309.519104L202.435532,309.519836L202.231598,309.519836L202.193176,309.517914L202.155243,309.512054L202.118027,309.502472L202.082031,309.489197L202.047501,309.47229L202.014908,309.451996L201.998978,309.440186L201.735947,309.236145L201.723419,309.226044L201.469025,309.010803L201.456985,309.000122L201.211349,308.773804L201.199921,308.762878L200.962906,308.52536L200.951843,308.513824L200.723724,308.265137L200.713379,308.253357L200.494003,307.993347L200.484283,307.981445L200.273666,307.710266L200.264664,307.69809L200.062805,307.415741L200.034958,307.370392L199.274445,305.910767L198.994629,305.910767L198.956207,305.908813L198.918274,305.902985L198.881058,305.893372L198.845062,305.880127L198.810532,305.86322L198.777939,305.842926L198.747528,305.819336L198.719696,305.792938L198.694641,305.763763L198.672745,305.732269L198.654022,305.6987L198.638824,305.663422L198.633469,305.646637L198.623016,305.664276L198.600159,305.69516L198.574371,305.723633L198.545792,305.749268L198.502747,305.779449L198.375183,305.856293L198.341263,305.874542L198.305756,305.88913L198.268906,305.900055L198.231201,305.907257L198.192902,305.910522L198.15448,305.909912L198.116287,305.905548L198.078842,305.897278L198.045395,305.886444L197.844147,305.810577L197.819458,305.827728L197.785889,305.846436L197.750626,305.861633L197.713898,305.873199L197.676331,305.880981L197.638138,305.884857L197.618439,305.885345L197.548401,305.885345L196.850998,306.996826L196.850998,307.041321L196.84906,307.079742L196.843216,307.117676L196.831909,307.160248L196.781204,307.313965L196.767334,307.349701L196.749954,307.384003L196.729156,307.416351L196.7052,307.446381L196.678329,307.473877L196.648773,307.498444L196.616913,307.519958L196.583115,307.538086L196.547607,307.552795L196.500656,307.56604L196.143631,307.642883L196.105698,307.649109L196.067383,307.651398L196.028961,307.649811L196.00708,307.647156L195.497803,307.570282L195.46022,307.562622L195.423492,307.551208L195.388107,307.536255L195.354553,307.517639L195.322937,307.495758L195.293747,307.470825L195.26712,307.443085L195.245346,307.415253L194.990097,307.057007L194.969421,307.024658L194.952164,306.990356L194.934036,306.940399L194.883209,306.761261L194.874695,306.723816L194.869843,306.68576L194.868988,306.647339L194.872025,306.609009L194.87883,306.571198L194.889404,306.534241L194.903763,306.498596L194.927231,306.455444L195.63327,305.334137L193.193649,306.488617L193.16507,306.500793L191.329712,307.191986L191.293106,307.203674L191.251999,307.212158L191.180374,307.22287L191.142197,307.226654L191.087463,307.225189L191.025208,307.219116L190.987152,307.213501L190.949936,307.204041L190.91066,307.189423L190.858124,307.166565L190.823715,307.149414L190.791122,307.128998L190.752457,307.097748L190.709412,307.058105L190.682404,307.030609L190.658447,307.000702L190.640457,306.973236L190.606888,306.916931L190.588898,306.882996L190.572113,306.840424L190.548157,306.76709L190.538071,306.730011L190.53418,306.708984L190.519821,306.618988L190.515442,306.57605L190.511795,306.494232L190.144806,304.463318L190.140305,304.430237L190.133118,304.35144L190.131546,304.313141L190.132278,304.241638L190.135681,304.194458L190.14444,304.130005L190.156113,304.075043L190.17276,304.017761L190.18541,303.981537L190.197205,303.955017L190.222015,303.905029L190.24086,303.871582L190.25972,303.84436L190.292297,303.801422L190.317108,303.772003L190.343872,303.745972L190.384476,303.710236L190.41452,303.686401L190.446869,303.665588L190.481155,303.648346L190.517029,303.63446L190.554123,303.62439L190.584152,303.619019L193.031067,303.286804L193.032761,303.28656L193.618896,303.209717L193.651367,303.206909L194.23761,303.180756L194.276047,303.181L194.301941,303.183319L195.532333,303.338379L196.139008,302.666016L196.166138,302.638885L196.195923,302.614594L196.227905,302.593414L196.261948,302.575531L196.297577,302.56131L196.334549,302.550629L196.372375,302.543793L196.42247,302.540771L201.822647,302.56485L201.825211,302.5578L201.84053,302.522522L201.859253,302.488953L201.881134,302.457458L201.906311,302.428406L201.934158,302.401886L201.964569,302.378418L201.997269,302.358246L202.031693,302.341339L202.059662,302.330627L202.212631,302.279083L202.249603,302.268738L202.287415,302.262054L202.333878,302.259247L203.480835,302.259247L203.519272,302.2612zM198.995178,305.531433L199.505157,305.531433L200.37207,307.195221C200.898529,307.963287,201.519012,308.611237,202.232178,309.140442L202.436035,309.140442L202.5383,309.088959L203.252136,307.963287L203.328323,307.911835L203.252136,307.732666L201.926727,306.427185C201.569809,305.915131,201.280838,305.360535,201.05983,304.763367L202.461426,304.635712C202.716766,304.772308,202.928848,304.84024,203.099075,304.84024L203.582977,304.737976L204.19455,304.481964L206.692307,304.481964L206.870773,304.430481L206.922241,304.251312L207.304565,304.251312L207.304565,304.225922L208.527695,304.225922L208.655365,304.481964L208.859222,304.481964L208.986206,304.354279L209.623856,304.302795L209.623856,304.225922L212.376266,304.225922L212.529327,304.200531L212.554733,304.046783L212.529327,303.919128L212.376266,303.842255L212.273987,303.842255L212.273987,302.89502L212.172409,302.690491L212.019348,302.639008L211.840881,302.639008C211.755768,302.639008,211.52652,303.039856,211.153122,303.842255L209.623856,303.842255L209.623856,303.790771L209.445404,303.73996C209.309494,303.688477,209.22438,303.628784,209.190063,303.56015L209.06308,303.278717L208.910019,303.074188L208.655365,303.074188L208.553101,303.048767L206.819977,303.048767L206.76918,302.89502L205.749893,302.843536L204.271423,302.792755L203.710648,302.89502L203.63446,302.690491L203.4814,302.639008L202.334442,302.639008L202.181381,302.690491L202.105194,302.89502L202.105194,302.945831L196.421234,302.920441L195.681992,303.73996L194.255005,303.56015L193.668823,303.586212L193.082657,303.663086L190.635681,303.9953C190.516937,304.081116,190.48262,304.243103,190.534103,304.481964L190.890335,306.452576C190.890335,306.760071,190.992615,306.887726,191.196472,306.836945L193.03186,306.145752L195.681992,304.891724L196.03891,304.891724L196.064316,305.121674C196.081467,305.275421,196.073242,305.369446,196.03891,305.403076L195.248886,306.657806L195.299683,306.836945L195.555008,307.195221L196.064316,307.272125L196.421234,307.195221L196.472031,307.041473L196.472031,306.887726L197.338928,305.506042L197.618973,305.506042L197.618973,305.070862L197.975891,305.454559L198.179749,305.531433L198.307419,305.454559L198.078171,305.198547L198.128952,304.865631L198.995178,304.865631L198.995178,305.531433M208.40004,303.534729L208.40004,303.842255L207.304565,303.842255L207.304565,303.663086L206.870773,303.663086L206.870773,303.534729L208.40004,303.534729z"/>
</svg>
