<?xml version="1.0" encoding="UTF-8"?>
<svg xmlns="http://www.w3.org/2000/svg" xmlns:xlink="http://www.w3.org/1999/xlink" width="23.242mm" height="23.075mm" viewBox="-524.675415 324.970703 23.242249 23.074799">
    <path transform="matrix(-1,0,0,1,0,0)" style="stroke:none;fill:#000000;fill-rule:evenodd" d="M523.966187,324.971313L524.048767,324.976166L524.104126,324.983582L524.175598,324.998535L524.21283,325.00827L524.24176,325.01886L524.302307,325.043671L524.337097,325.059967L524.376099,325.083923L524.425598,325.118561L524.455994,325.142151L524.495544,325.181793L524.534119,325.226563L524.557678,325.256836L524.58551,325.30365L524.613037,325.358246L524.628479,325.393402L524.641724,325.434753L524.658264,325.499298L524.665771,325.536896L524.669067,325.565582L524.674561,325.640137L524.675415,325.678558L524.671997,325.71991L524.357178,327.998016L524.353638,328.08194L524.350464,328.117676L524.337219,328.213623L524.329773,328.252411L524.3078,328.341797L524.2948,328.383759L524.263916,328.466553L524.244934,328.509247L524.205261,328.585358L524.179993,328.627197L524.13147,328.696747L524.100952,328.734955L524.04364,328.797943L524.008911,328.831604L523.954773,328.877716L517.728882,335.151489L517.722229,335.158051L517.713074,335.166809L517.73938,335.203522L517.760132,335.23587L517.777405,335.270172L517.789124,335.299469L517.806213,335.348602L517.817078,335.385468L517.823975,335.423157L517.826904,335.455017L517.82959,335.509613L517.82959,335.548035L517.823242,335.599854L517.811707,335.659912L517.802612,335.697235L517.791748,335.728363L517.765747,335.793915L517.743225,335.840729L517.703003,335.911865L517.682068,335.944824L517.627502,336.021698L517.60376,336.051849L517.583557,336.07312L516.131409,337.493683L516.111206,337.523621L516.088074,337.55426L516.062073,337.582458L516.034241,337.607147L515.979248,337.651306L515.94812,337.673798L515.914917,337.692993L515.879456,337.708923L515.811096,337.735565L515.774597,337.747742L515.737183,337.756104L515.713806,337.759277L515.632324,337.768036L515.594055,337.770233L515.551331,337.768036L515.469604,337.759277L515.431702,337.753326L515.394592,337.743469L515.372314,337.735565L515.304016,337.708923L515.268982,337.693237L515.235657,337.674042L515.204163,337.651306L515.14917,337.607147L515.120483,337.581482L515.094482,337.553284L515.073059,337.524841L515.050964,337.492249L514.651367,337.092041L514.636658,337.083282L511.541321,340.010773L511.370361,340.23877L511.226135,340.527954L510.918701,341.656799L510.906677,341.693268L510.884338,341.741302L510.707886,342.059174L510.679993,342.102234L510.468689,342.384979L510.434143,342.424988L505.042603,347.862488L505.014282,347.888275L504.983398,347.911133L504.950317,347.930817L504.915527,347.946991L504.893616,347.955139L504.682129,348.025909L504.645081,348.036255L504.607239,348.042816L504.56897,348.045502L504.530518,348.044281L504.492432,348.039185L504.455139,348.030304L504.418762,348.017639L504.383972,348.001343L504.351013,347.981659L504.320129,347.958801L504.293274,347.934357L504.116821,347.757904L504.091064,347.729462L504.068298,347.698456L504.048828,347.665375L504.032776,347.630463L504.019409,347.590942L503.843079,346.955322L503.834717,346.917877L503.8302,346.879669L503.829346,346.853912L503.829346,346.522034L503.724304,346.567169L503.688293,346.580536L503.651062,346.590149L503.613159,346.595978L503.574707,346.597931L503.536377,346.595978L503.498352,346.590271L503.461121,346.580658L503.42511,346.567291L503.404724,346.5578L503.193359,346.451996L503.159912,346.433044L503.12854,346.410889L503.099609,346.38562L503.073364,346.357635L503.05011,346.326996L503.030029,346.294281L503.013367,346.259613L502.998291,346.216705L502.927673,345.968994L502.918884,345.931549L502.914185,345.893463L502.913208,345.855042L502.916077,345.816742L502.922913,345.778931L502.932617,345.744629L502.954651,345.678711L502.94043,345.679443L502.623291,345.679443L502.584839,345.677521L502.546936,345.671661L502.503235,345.660004L501.86908,345.448639L501.833374,345.434662L501.799194,345.417145L501.75177,345.384674L501.575317,345.243256L501.546631,345.217834L501.520569,345.189514L501.49762,345.158752L501.477783,345.125793L501.461487,345.091003L501.44873,345.054779L501.439697,345.017456L501.434509,344.97937L501.433167,344.940948L501.43573,344.902649L501.442139,344.864838L501.452576,344.82724L501.523254,344.615173L501.537231,344.579315L501.554749,344.545135L501.575684,344.512909L501.599609,344.48288L501.614685,344.466949L507.006348,339.064453L507.041626,339.033203L507.358643,338.786102L507.390137,338.764099L507.437927,338.738556L507.755066,338.597748L507.801758,338.580597L508.976013,338.234375L509.240723,338.116302L509.502991,337.941437L512.504944,335.036926L512.511841,335.02478L512.499817,335.003754L512.071167,334.541656L512.044678,334.509674L511.998474,334.447388L511.977173,334.415405L511.96637,334.396088L511.933411,334.332611L511.91748,334.297699L511.907349,334.269135L511.887573,334.204559L511.878174,334.167358L511.872681,334.130981L511.86615,334.065308L511.864319,334.026886L511.86615,333.990295L511.872681,333.923523L511.878418,333.88559L511.886108,333.85434L511.905884,333.786499L511.918579,333.750122L511.927673,333.729462L511.960632,333.66037L511.986145,333.615021L512.032349,333.544861L512.055115,333.513977L512.084045,333.482239L513.564575,332.034546L513.593384,332.009125L513.624512,331.986755L513.657837,331.967651L513.692993,331.951965L513.729492,331.939941L513.772034,331.930817L514.229858,331.860168L514.258789,331.856873L514.575745,331.832672L520.71405,325.647675L520.740173,325.623596L520.819458,325.557434L520.840393,325.54126L520.919678,325.483978L520.943848,325.467926L521.023132,325.419403L521.051453,325.403595L521.130737,325.363953L521.16272,325.349854L521.242004,325.31897L521.278259,325.306946L521.357544,325.284912L521.396484,325.276276L521.475769,325.263031L521.517456,325.258423L521.584106,325.254761L523.89801,324.973511L523.936401,324.970703L523.966187,324.971313zM512.948547,335.024597L512.807861,335.271698L509.74176,338.238281L509.424652,338.449677L509.107513,338.591064L507.909088,338.94455L507.59198,339.085266L507.274872,339.332367L501.883331,344.734924L501.812622,344.946991L501.989014,345.088409L502.62323,345.299805L502.940369,345.299805L503.257477,345.123413L504.631592,343.710815L504.913696,343.640137L505.195801,343.710815L505.230835,343.8172L503.363159,345.65329L503.29248,345.864685L503.363159,346.112488L503.574585,346.218201L503.820984,346.112488L505.689331,344.275726L505.759338,344.311401L505.865051,344.558502L505.759338,344.805603L504.350189,346.253204L504.208801,346.500305L504.208801,346.85379L504.385193,347.48938L504.561584,347.665771L504.77301,347.595093L510.164551,342.157532L510.375977,341.874756L510.552368,341.556946L510.869476,340.392151L511.045868,340.038666L511.257294,339.756561L514.393372,336.79068C514.510742,336.649292,514.675476,336.649292,514.886902,336.79068L515.344727,337.249176C515.39209,337.343231,515.473755,337.390594,515.591797,337.390594C515.709167,337.390594,515.791565,337.343231,515.838196,337.249176L517.318054,335.801605C517.482788,335.589508,517.494446,335.437134,517.35376,335.342407C517.259705,335.177673,517.294739,335.024597,517.459473,334.883911L523.696655,328.598663C523.884705,328.457275,523.97876,328.245178,523.97876,327.963074L524.295898,325.667816C524.295898,325.455719,524.178528,325.350006,523.943726,325.350006L521.617615,325.632782C521.406189,325.632782,521.194763,325.726837,520.983398,325.914886L514.745483,332.200134L514.287659,332.235138L513.829834,332.305847L512.349304,333.753418C512.208618,333.942169,512.208618,334.118591,512.349304,334.283325L512.807861,334.777527L512.948547,335.024597"/>
</svg>
