<?xml version="1.0" encoding="UTF-8"?>
<svg xmlns="http://www.w3.org/2000/svg" xmlns:xlink="http://www.w3.org/1999/xlink" width="23.041mm" height="7.714mm" viewBox="-493.503845 332.651062 23.041443 7.714417">
    <path transform="matrix(-1,0,0,1,0,0)" style="stroke:none;fill:#000000;fill-rule:evenodd" d="M483.873413,332.654846L483.911133,332.662506L483.947266,332.673676L484.218323,332.772552L484.253723,332.787506L484.287354,332.806L484.319092,332.827759L484.348328,332.852692L484.374939,332.88028L484.398621,332.910583L484.420288,332.944977L484.543213,333.166656L484.56012,333.201202L484.573364,333.237213L484.583008,333.274414L484.588867,333.312347L484.590759,333.350769L484.588867,333.389099L484.583008,333.427155L484.574829,333.458893L484.590881,333.484314L484.608154,333.518707L484.620728,333.5513L484.694885,333.773712L484.705078,333.810699L484.71167,333.848511L484.713745,333.871368L484.717346,333.932892L486.278992,333.932892L486.321594,333.826385L486.337646,333.791473L486.357056,333.75827L486.379822,333.727386L486.405579,333.698822L486.434082,333.673157L486.465088,333.650299L486.498169,333.630829L486.53302,333.614777L486.569397,333.602386L486.599182,333.595093L486.721985,333.570404L486.759949,333.564789L486.798401,333.562988L486.836792,333.565033L486.889343,333.574402L486.987488,333.599091L487.02417,333.610413L487.059692,333.625244L487.093384,333.643707L487.125122,333.665375L487.154419,333.690186L487.181091,333.717896L487.204773,333.748047L487.225342,333.780518L487.247192,333.826019L487.290039,333.932892L487.387817,333.932892L487.426208,333.934845L487.464172,333.940674L487.501343,333.950287L487.537354,333.963531L487.558411,333.973389L487.592712,333.990662L488.30957,334.058136L488.343933,334.062897L489.711731,334.319733L489.716614,334.315704L489.748596,334.294434L489.783508,334.276184L489.797363,334.269867L489.80719,334.237396L489.82373,334.198608L489.846741,334.152039L489.865479,334.118469L489.897949,334.074188L489.930298,334.036133L489.956543,334.008179L489.998596,333.973267L490.0401,333.943604L490.072449,333.922791L490.115479,333.901642L490.166199,333.880615L490.202454,333.867706L490.233337,333.859802L490.293274,333.847168L490.348328,333.839752L490.417664,333.83548L490.440918,333.834747L491.134888,333.834747L491.140259,333.825287L491.173096,333.78125L491.200073,333.75L491.226563,333.722168L491.268799,333.687744L491.303284,333.663422L491.335754,333.643005L491.377991,333.622559L491.42041,333.605164L491.456665,333.592407L491.486694,333.584869L491.536804,333.574402L491.592102,333.566986L491.650024,333.563599L491.694641,333.563599L491.752258,333.566986L491.807617,333.574402L491.857605,333.584869L491.894775,333.594604L491.924438,333.605408L491.966675,333.622803L492.001465,333.639221L492.040588,333.663422L492.075134,333.687744L492.105408,333.711456L492.14447,333.75061L492.171326,333.78186L492.194763,333.812256L492.222534,333.858704L492.241699,333.896912L492.257263,333.932037L492.257507,333.932892L493.026428,333.932892L493.06488,333.934845L493.102783,333.940674L493.140015,333.950287L493.176025,333.963531L493.210571,333.980438L493.243164,334.000763L493.27356,334.024353L493.301392,334.05072L493.323608,334.076385L493.421753,334.199951L493.444153,334.231201L493.463257,334.264496L493.478821,334.299652L493.490723,334.336121L493.498962,334.373718L493.503357,334.411774L493.503845,334.450195L493.500427,334.488495L493.493286,334.526215L493.482178,334.563049L493.467468,334.598541L493.449402,334.632355L493.427856,334.664215L493.393921,334.703369L493.304199,334.793854L493.323608,334.816345L493.421753,334.939911L493.444153,334.971161L493.463257,335.004456L493.478821,335.039612L493.490723,335.07608L493.498962,335.113678L493.503357,335.151733L493.503845,335.190155L493.500427,335.228455L493.493286,335.266174L493.482178,335.303009L493.467468,335.338501L493.449402,335.372314L493.421753,335.411957L493.323608,335.535522L493.298218,335.564331L493.291382,335.570648L493.301392,335.580017L493.323608,335.605682L493.421753,335.729218L493.444153,335.760468L493.463257,335.793793L493.478821,335.828949L493.490723,335.865417L493.498962,335.902985L493.503357,335.941071L493.503845,335.979492L493.500427,336.017792L493.493286,336.055481L493.482178,336.092346L493.467468,336.127838L493.440613,336.175507L493.342468,336.323029L493.319641,336.353912L493.293701,336.382233L493.265015,336.407898L493.234009,336.430511L493.200806,336.44986L493.165894,336.46579L493.129456,336.478058L493.09198,336.486572L493.053894,336.491302L493.026428,336.492279L492.275024,336.492279L492.272766,336.502625L492.262268,336.539581L492.248291,336.575104L492.229065,336.617432L492.211426,336.651581L492.18335,336.693176L492.156494,336.727844L492.131409,336.756897L492.090332,336.79422L492.055786,336.821228L492.024414,336.843353L491.980164,336.867188L491.937988,336.886536L491.902344,336.900757L491.865356,336.911346L491.815369,336.922882L491.777588,336.929565L491.7547,336.931763L491.697083,336.935547L491.65863,336.936157L491.620361,336.932861L491.582642,336.92569L491.545776,336.914734L491.510254,336.900146L491.476379,336.881897L491.454712,336.866943L491.410461,336.987579L491.400208,337.012634L491.340881,337.144318L491.326538,337.172791L491.262695,337.287689L491.242004,337.320892L491.173584,337.418793L491.14447,337.455261L491.071533,337.536255L491.030945,337.575043L490.953308,337.639008L490.922546,337.661987L490.901672,337.674896L490.738831,337.76889L490.69928,337.788696L490.531128,337.861176L490.48761,337.876862L490.313965,337.927704L490.268677,337.938049L490.089844,337.967346L490.04425,337.971954L489.859863,337.979614L489.816223,337.979004L489.626526,337.965027L489.586365,337.95993L489.391357,337.924408L489.355225,337.915894L489.154846,337.858765L489.128662,337.850372L488.983582,337.797333L488.962341,337.788818L488.822693,337.728027L488.801575,337.717926L488.667297,337.649353L488.646484,337.637909L488.517639,337.561554L488.497681,337.54892L488.374146,337.464874L488.354797,337.450775L488.236694,337.35907L488.218445,337.343994L488.105591,337.244537L488.088623,337.228485L487.984253,337.124268L487.984131,337.12439L487.923584,337.065277L487.918579,337.072937L487.894775,337.103119L487.867981,337.130585L487.838562,337.155273L487.806824,337.17691L487.779724,337.191986L487.582703,337.290863L487.547607,337.306305L487.510986,337.318115L487.473389,337.326263L487.435242,337.330505L487.412476,337.331116L487.126953,337.331116L487.126953,337.617371L487.125,337.655792L487.119141,337.693726L487.109558,337.730957L487.096313,337.766937L487.077209,337.805237L486.979065,337.97757L486.958435,338.009918L486.927307,338.048096L486.887146,338.091248L486.859558,338.118011L486.819641,338.148651L486.773315,338.179535L486.740356,338.199249L486.690002,338.221375L486.637756,338.23999L486.601013,338.250916L486.550659,338.259796L486.492432,338.265991L486.452271,338.268066L484.999146,338.268066L484.960693,338.266113L484.922791,338.260284L484.885559,338.250671L484.857483,338.240601L484.611816,338.141724L484.576904,338.125671L484.543823,338.106079L484.512939,338.083221L484.484497,338.057465L484.484009,338.056976L484.418457,338.086151L484.418457,338.431396L484.416504,338.469818L484.407043,338.523926L484.382385,338.62207L484.371033,338.658783L484.356201,338.694305L484.337708,338.727966L484.316101,338.759705L484.29126,338.789032L484.26355,338.815643L484.233398,338.839355L484.18512,338.868439L484.086975,338.917908L484.051941,338.933472L484.015381,338.945404L483.977783,338.953552L483.939697,338.957794L483.901306,338.958282L483.862976,338.954773L483.825317,338.947479L483.774353,338.931061L483.651367,338.881561L483.646545,338.879364L483.570068,338.917908L483.535034,338.933472L483.498413,338.945404L483.460815,338.953552L483.422791,338.957794L483.384338,338.958282L483.346069,338.954773L483.30835,338.947479L483.257996,338.931305L483.135681,338.882294L483.11731,338.894562L483.084351,338.914276L483.049561,338.930573L483.013367,338.943207L482.975891,338.952087L482.937805,338.957184L482.899414,338.958527L482.861084,338.955872L482.823303,338.94928L482.786316,338.938965L482.764648,338.931061L482.641724,338.881561L482.636841,338.879364L482.560364,338.917908L482.52533,338.933472L482.48877,338.945404L482.451172,338.953552L482.413086,338.957794L482.374695,338.958282L482.336365,338.954773L482.298645,338.947479L482.261841,338.936401L482.21936,338.918274L482.120667,338.868805L482.087341,338.849945L482.055969,338.827698L482.027039,338.802399L482.000732,338.774292L481.977539,338.743774L481.957458,338.710938L481.940796,338.676422L481.927795,338.640289L481.92218,338.619995L481.898132,338.521851L481.890808,338.484039L481.887146,338.431396L481.887146,338.097229L481.66449,338.030212L481.628296,338.017334L481.593628,338.000793L481.560791,337.980835L481.523438,337.952026L481.326477,337.779114L481.298828,337.75235L481.27417,337.722931L481.259705,337.70224L480.827759,337.044983L480.771545,337.134491L480.760254,337.151398L480.699097,337.238098L480.681213,337.261444L480.625427,337.328796L480.595276,337.361267L480.5448,337.409424L480.515625,337.434479L480.487,337.454651L480.441895,337.48349L480.408569,337.502563L480.373474,337.518005L480.326965,337.532501L480.287354,337.542084L480.249634,337.549255L480.211365,337.552551L480.172913,337.551941L480.118103,337.544281L479.812988,337.478607L479.749634,337.478607L479.325806,338.193054L478.960266,338.924622L478.976074,339.115173L478.976929,339.166351L478.972717,339.248322L478.967712,339.292938L478.955078,339.366516L478.941772,339.420013L478.920532,339.485199L478.906799,339.521088L478.895813,339.543701L478.86615,339.60025L478.846558,339.633301L478.827881,339.65921L478.789795,339.707367L478.764404,339.736328L478.737976,339.761108L478.691406,339.800751L478.660889,339.824097L478.631592,339.842468L478.576477,339.873474L478.542114,339.890625L478.517761,339.900238L478.454285,339.922852L478.417419,339.933929L478.379761,339.941223L478.341431,339.944611L478.30304,339.944122L478.264832,339.939758L478.24176,339.934418L478.199402,339.998016L478.176575,340.0289L478.151855,340.056122L478.089966,340.118042L478.059082,340.14563L477.996338,340.195984L477.957153,340.223572L477.893677,340.262482L477.844177,340.288025L477.780029,340.315399L477.743896,340.328644L477.720886,340.335083L477.655945,340.350891L477.618286,340.358063L477.590027,340.36087L477.524292,340.36499L477.48584,340.365479L477.459106,340.363556L477.392578,340.356262L477.354614,340.350037L477.331055,340.344208L477.263672,340.325226L477.227295,340.312958L477.209167,340.305298L477.158508,340.282196L477.124329,340.264557L477.082336,340.236115L477.040894,340.203766L477.011841,340.178589L476.975098,340.13797L476.942749,340.096497L476.920776,340.065002L476.896545,340.020142L476.873474,339.969299L476.859314,339.933563L476.849121,339.897552L476.835266,339.837494L476.82843,339.799683L476.826355,339.777405L476.821777,339.708221L476.821533,339.660675L476.826111,339.582123L476.830261,339.544678L476.844238,339.456879L476.852173,339.419281L476.863464,339.383667L476.881348,339.335876L476.864685,339.324432L476.83551,339.2995L476.808899,339.271912L476.785156,339.241638L476.764587,339.209167L476.747559,339.174744L476.733948,339.138763L476.724121,339.101654L476.71814,339.063721L476.715942,339.028229L476.714966,338.956604L476.718262,338.901611L476.727173,338.834625L476.73407,338.796814L476.740295,338.774078L476.759277,338.71167L476.772278,338.675568L476.782593,338.652954L476.811401,338.595062L476.830261,338.561615L476.844604,338.540466L476.883423,338.487335L476.907593,338.457397L476.922302,338.442078L476.971191,338.393433L477.011597,338.358551L477.070435,338.314514L477.109131,338.288971L477.177917,338.249573L477.196777,338.239624L477.392944,338.141479L477.632019,337.742737L477.701416,337.622833L477.760559,337.515594L477.805054,337.429382L477.838013,337.359192L477.849548,337.330505L477.849915,337.297058L477.854431,337.258881L477.868042,337.203186L477.893066,337.126831L477.892212,337.115753L477.881165,337.071869L477.864624,337.035858L477.820374,336.973602L477.799805,336.941254L477.782532,336.906952L477.768799,336.870972L477.75885,336.833862L477.752625,336.796051L477.750305,336.753845L477.750305,336.483643L477.618774,336.369476L477.34906,336.369476L477.340271,336.375671L477.305115,336.39563L477.203491,336.44632L477.168335,336.461761L477.141724,336.470642L477.021667,336.506165L476.968445,336.517822L476.832581,336.537537L476.793701,336.544098L476.755493,336.548584L476.718262,336.549316L476.668274,336.547729L476.630005,336.544586L476.607361,336.540802L476.552795,336.530121L476.503784,336.516968L476.444641,336.496918L476.408813,336.482819L476.344971,336.453613L476.31665,336.439148L476.248169,336.400604L476.227234,336.387939L476.154053,336.340271L476.136902,336.328369L476.074768,336.282898L476.022583,336.252136L475.972961,336.226593L475.970032,336.22525L475.859985,336.31488L475.656799,336.490479L475.478516,336.655487L475.313049,336.820496L475.167114,336.978821L475.039917,337.130585L474.928528,337.278717L474.827209,337.431915L474.814453,337.450043L474.445129,337.943634L474.410217,337.984009L474.358582,338.035919L474.326477,338.064636L474.270142,338.109619L474.234619,338.134918L474.173828,338.172974L474.136047,338.193634L474.070618,338.224915L474.030945,338.24118L473.960938,338.265381L473.923218,338.276337L473.848694,338.293732L473.811707,338.300415L473.732666,338.31076L473.699341,338.313538L473.615662,338.317078L473.599731,338.317444L473.402771,338.317444L473.364319,338.315491L473.326355,338.309662L473.27179,338.294098L473.137512,338.24472L473.102173,338.229645L473.068726,338.211273L472.949036,338.137238L472.917542,338.115326L472.888977,338.091003L472.783936,337.992279L472.757263,337.964661L472.737793,337.940216L472.647339,337.816925L472.62616,337.784943L472.615601,337.765594L472.539734,337.617615L472.519653,337.571289L472.458496,337.398712L472.44696,337.359314L472.441101,337.334625L471.891479,337.467926L471.85376,337.475098L471.802063,337.478607L471.679138,337.478607L471.640686,337.476685L471.602783,337.470825L471.565552,337.461243L471.529541,337.447968L471.495056,337.431061L471.462463,337.410767L471.432068,337.387177L471.404175,337.360779L471.37915,337.331604L471.357239,337.30011L471.338501,337.266541L471.323303,337.231262L471.311768,337.19455L471.304016,337.156982L471.30011,337.118805L471.299622,337.099091L471.299622,336.92691L471.300476,336.901123L471.315674,336.67688L471.325867,336.466156L471.330505,336.284943L471.330017,336.12735L471.324768,335.986664L471.31543,335.873932L471.302795,335.785156L471.300842,335.777008L470.760681,335.010437L470.547974,334.750427L470.525269,334.719543L470.505676,334.686462L470.489624,334.651581L470.477112,334.615204L470.468323,334.577759L470.463318,334.539703L470.462402,334.501282L470.465149,334.462952L470.471863,334.42514L470.4823,334.388184L470.496521,334.352417L470.514282,334.31839L470.535339,334.286285L470.559509,334.25647L470.58667,334.229248L470.616333,334.204803L470.648315,334.183655L470.682373,334.165771L470.717957,334.151428L470.754822,334.140717L470.792664,334.133789L470.841797,334.130615L476.701477,334.130615L476.739929,334.132568L476.777893,334.138397L476.815063,334.14801L476.851074,334.161255L476.88562,334.178162L476.918213,334.198486L476.948608,334.222076L476.974121,334.246033L477.552368,334.842865L477.566223,334.819275L477.588989,334.788269L477.614624,334.759674L477.643066,334.733887L477.67395,334.711029L477.714233,334.687927L477.911072,334.589813L477.946228,334.574341L477.982849,334.562683L478.001465,334.558655L478.311768,334.211243L478.364197,334.149719L478.390564,334.121735L478.419617,334.09671L478.438843,334.082581L478.506592,334.036255L478.539307,334.016205L478.573975,333.999542L478.596069,333.991028L478.63147,333.978729L478.684875,333.834991L478.700073,333.799622L478.718811,333.766052L478.740784,333.734558L478.765869,333.705505L478.793701,333.678986L478.824097,333.655518L478.856689,333.635223L478.891235,333.618317L478.921265,333.606873L479.142944,333.533417L479.180054,333.523224L479.217834,333.516754L479.262329,333.514221L480.061035,333.514221L480.072571,333.495605L480.076111,333.490631L480.073303,333.480286L480.067139,333.442352L480.064819,333.403931L480.066406,333.365601L480.071716,333.327545L480.081116,333.290222L480.09729,333.246552L480.195435,333.024872L480.212708,332.990601L480.233337,332.95813L480.257324,332.92807L480.284058,332.900482L480.313477,332.875793L480.345215,332.854156L480.379028,332.835907L480.414551,332.821198L480.433289,332.815002L480.679626,332.740936L480.716858,332.731689L480.754944,332.726349L480.793335,332.724884L480.831665,332.727325L480.869568,332.733521L480.906677,332.743622L480.95813,332.764648L481.20459,332.887482L481.238037,332.906311L481.269409,332.928558L481.298462,332.953735L481.324768,332.98172L481.348083,333.012238L481.368286,333.044952L481.382629,333.074005L481.459961,333.249359L481.484558,333.167511L481.497437,333.131287L481.513855,333.096619L481.533813,333.06366L481.556885,333.03302L481.583008,333.004822L481.611877,332.979523L481.65271,332.951202L481.898499,332.80368L481.932434,332.785553L481.967896,332.770966L482.004761,332.760162L482.04248,332.75296L482.08075,332.749817L482.119202,332.750427L482.157349,332.754913L482.176208,332.758575L482.397888,332.807953L482.434998,332.818268L482.470764,332.832153L482.505066,332.84964L482.537231,332.870453L482.567322,332.894531L482.594666,332.921387L482.615234,332.945587L482.787415,333.167267L482.809387,333.198761L482.828125,333.23233L482.843323,333.267609L482.854919,333.304321L482.862671,333.341888L482.866699,333.380096L482.866699,333.418518L482.862915,333.456818L482.855225,333.494385L482.850891,333.508484L482.869141,333.536835L482.991943,333.758636L483.00885,333.793182L483.022217,333.829163L483.031799,333.866394L483.036194,333.892151L483.041687,333.932892L483.093384,333.932892L483.093384,333.929382L483.096619,333.891052L483.102234,333.859802L483.151733,333.638L483.161926,333.601044L483.167419,333.586823L483.156738,333.567596L483.141541,333.532318L483.129944,333.495605L483.122192,333.458038L483.118286,333.419861L483.118286,333.381409L483.12207,333.343109L483.1297,333.305542L483.141296,333.268829L483.157654,333.230621L483.28064,332.984253L483.2995,332.950836L483.321716,332.919464L483.346924,332.890503L483.374878,332.864227L483.41864,332.832275L483.615662,332.70871L483.649109,332.689972L483.684326,332.674652L483.721069,332.663116L483.758667,332.655212L483.796814,332.651184L483.835266,332.651062L483.873413,332.654846zM480.394806,333.695801L480.271942,333.893463L479.262268,333.893463L479.040558,333.966919L478.967133,334.164581L478.967133,334.312164L478.893005,334.312164C478.761902,334.312164,478.663055,334.361572,478.597839,334.460419L478.179169,334.92923L478.080322,334.92923L477.883331,335.027374L477.785156,335.274475L477.785156,335.323212L477.489349,335.323212L476.701355,334.509857L470.841705,334.509857L471.063385,334.780975L471.654388,335.61972C471.719574,335.84967,471.727814,336.285522,471.679077,336.926605L471.679077,337.098907L471.801941,337.098907L472.614624,336.901886L472.737488,336.852478C472.803375,337.477081,473.025085,337.838806,473.402588,337.937653L473.599579,337.937653C473.828857,337.937653,474.009369,337.863525,474.141144,337.715942L474.510437,337.222443C474.773315,336.79483,475.216034,336.334961,475.839966,335.841431C475.922333,335.792023,476.069885,335.833191,476.283356,335.964996C476.496826,336.129028,476.660858,336.194916,476.775513,336.161987C476.972504,336.145508,477.120056,336.08786,477.218903,335.989685L477.760468,335.989685L478.12973,336.310242L478.12973,336.753632C478.228577,336.868958,478.277313,337.008972,478.277313,337.173035L478.228577,337.321289C478.260834,337.370697,478.170929,337.575928,477.957458,337.937653L477.661621,338.431152L477.366486,338.578735C477.169495,338.677582,477.079559,338.825836,477.095367,339.022827L477.366486,339.121674L477.218903,339.516357C477.169495,339.762756,477.218903,339.910339,477.366486,339.959747C477.546997,340.025635,477.719269,339.967987,477.883331,339.787476L478.080322,339.491638L478.326721,339.565063C478.507263,339.516357,478.597839,339.376312,478.597839,339.146393L478.573151,338.849854L478.991852,338.01178L479.533386,337.098907L479.853241,337.098907L480.197815,337.173035C480.296661,337.173035,480.452454,336.967804,480.665924,336.556641L480.96109,336.556641L481.576752,337.493561L481.773743,337.666534L482.020172,337.740662L482.266571,337.740662L482.266571,338.431152L482.290619,338.529327L482.389435,338.578735L482.48761,338.529327L482.537018,338.431152L482.537018,338.134644L482.758728,338.134644L482.758728,338.431152L482.783447,338.529327L482.906281,338.578735L482.980438,338.529327L483.053864,338.431152L483.053864,338.134644L483.250854,338.134644L483.250854,338.431152L483.275574,338.529327L483.399109,338.578735L483.497284,338.529327L483.521973,338.431152L483.521973,338.134644L483.768402,338.134644L483.768402,338.431152L483.793091,338.529327L483.915955,338.578735L484.01413,338.529327L484.038818,338.431152L484.038818,337.740662L484.260529,337.740662L484.482239,337.641815L484.580383,337.444153L484.580383,337.173035L484.67923,337.173035L484.67923,337.617126L484.753357,337.789398L484.999084,337.888245L486.452148,337.888245C486.533844,337.888245,486.599731,337.855286,486.64917,337.789398L486.747314,337.617126L486.747314,336.951324L487.412415,336.951324L487.609406,336.852478L487.70755,336.680206L487.70755,336.211395L487.682861,336.08786L487.70755,336.08786C487.822876,336.383667,488.003387,336.639008,488.249115,336.852478C488.528473,337.148315,488.864807,337.362457,489.258789,337.493561C489.800354,337.674774,490.284943,337.625336,490.711884,337.345978C490.924652,337.197723,491.089386,336.868958,491.20401,336.35965L491.42572,336.35965L491.672119,336.556641C491.836182,336.556641,491.917847,336.474274,491.917847,336.310242L491.917847,336.112549L493.026367,336.112549L493.124512,335.964996L493.026367,335.841431L491.917847,335.841431L491.917847,335.299194L493.026367,335.299194L493.124512,335.175629L493.026367,335.052094L491.917847,335.052094L491.917847,334.534546L493.026367,334.534546L493.124512,334.43573L493.026367,334.312164L491.917847,334.312164L491.917847,334.164581C491.917847,334.016327,491.836182,333.9422,491.672119,333.9422C491.507385,333.9422,491.42572,334.016327,491.42572,334.164581L491.42572,334.21402L490.440735,334.21402C490.243744,334.21402,490.145599,334.303925,490.145599,334.485138L490.145599,334.583984L490.071472,334.583984C489.972626,334.583984,489.8992,334.632721,489.849762,334.731537L489.061798,334.583984L488.273834,334.43573L487.48587,334.361572L487.387695,334.312164L486.944305,334.312164L486.944305,334.090454L486.894867,333.966919L486.796722,333.9422L486.673859,333.966919L486.624451,334.090454L486.624451,334.312164L484.359375,334.312164L484.334656,333.893463L484.260529,333.671082L484.063538,333.621674L484.038818,333.375244L484.211121,333.350555L484.088257,333.128845L483.817139,333.029999L483.620148,333.153534L483.497284,333.399963L483.718964,333.399963L483.718964,333.621674L483.521973,333.72049L483.472565,333.9422L483.497284,334.312164L482.70929,334.312164L482.659882,333.9422L482.537018,333.72049L482.315308,333.671082L482.290619,333.449371L482.266571,333.424683L482.48761,333.399963L482.315308,333.178253L482.093628,333.128845L481.8479,333.276398L481.773743,333.523499L481.970764,333.49881L481.970764,333.523499L481.995453,333.72049L481.823181,333.844055L481.773743,334.041046L481.823181,334.312164L481.552063,334.312164L481.552063,334.164581L481.453918,333.966919L481.281616,333.893463L481.158081,333.893463L480.887634,333.695801L480.912354,333.49881L480.912354,333.449371L481.133362,333.449371L481.035217,333.22699L480.788788,333.104126L480.542389,333.178253L480.444214,333.399963L480.616516,333.424683L480.591797,333.646362L480.394806,333.695801M471.530823,334.855103L471.530823,334.90451L471.482086,334.855103L471.530823,334.855103zM487.978699,335.052094L487.732269,334.632721L488.988373,334.879822L487.978699,335.052094zM471.974243,336.285522L472.614624,336.285522L472.614624,336.58136L471.974243,336.778351L471.974243,336.285522zM481.010498,335.15094C481.010498,335.282715,480.969299,335.380859,480.887634,335.446777C480.805267,335.545593,480.690643,335.595032,480.542389,335.595032C480.444214,335.595032,480.346069,335.545593,480.247223,335.446777L480.09967,335.15094L480.247223,334.855103L480.542389,334.706848C480.690643,334.706848,480.805267,334.756256,480.887634,334.855103C480.969299,334.90451,481.010498,335.002686,481.010498,335.15094zM480.530579,335.137878L480.523987,335.151123L480.552795,335.209015L480.558777,335.212769L480.575195,335.211304L480.58844,335.207428L480.590271,335.206329L480.619568,335.178253L480.628296,335.16925L480.629883,335.14978L480.62854,335.132507L480.625305,335.129608L480.598267,335.103821L480.530579,335.137878zM476.578491,334.855103L477.07132,335.299194L475.765839,335.299194L475.298401,334.855103L476.578491,334.855103zM483.718964,334.632721C483.817139,334.534546,483.924194,334.485138,484.038818,334.485138L484.334656,334.632721L484.482239,334.92923L484.334656,335.274475C484.252289,335.356171,484.154144,335.397339,484.038818,335.397339L483.718964,335.274475C483.636597,335.175629,483.5961,335.060333,483.5961,334.92923L483.718964,334.632721zM483.989441,334.972015L484.042725,334.992432L484.064453,334.941467L484.051697,334.915955L484.019348,334.89978L483.989441,334.972015zM482.438873,334.780975L482.758728,334.90451L482.906281,335.249756L482.758728,335.545593C482.692841,335.64444,482.586426,335.693176,482.438873,335.693176C482.323547,335.693176,482.225403,335.64444,482.143036,335.545593C482.044891,335.463226,481.995453,335.36441,481.995453,335.249756C481.995453,335.117981,482.044891,335.002686,482.143036,334.90451L482.438873,334.780975zM482.383057,335.215942L482.378784,335.229309L482.377502,335.243164L482.445801,335.311768L482.45166,335.311279L482.488403,335.237701L482.472717,335.201111L482.44458,335.190155L482.383057,335.215942zM474.264008,337.074188L473.919434,337.592407L473.451324,337.641815C473.222076,337.625336,473.082062,337.337769,473.033325,336.778351L474.2146,336.680206L475.470673,335.767303L474.264008,337.074188zM473.473633,337.122803L473.487122,337.172791L473.516113,337.24527L473.520691,337.253052L473.702271,337.233948L473.793823,337.096161L473.473633,337.122803zM474.116455,336.383667L473.968872,336.383667L473.968872,334.855103L474.904419,334.855103L475.470673,335.397339L474.116455,336.383667zM474.34845,335.234894L474.34845,335.745392L474.880493,335.357849L474.752075,335.234894L474.34845,335.234894zM490.440735,336.35965L490.884155,336.35965C490.785309,336.819519,490.654205,337.090668,490.490173,337.173035C489.816833,337.53476,489.135925,337.370697,488.446106,336.680206L488.028107,336.08786L489.775635,336.038422L489.775635,336.630768C489.775635,336.81131,489.874481,336.901886,490.071472,336.901886C490.284943,336.901886,490.391327,336.81131,490.391327,336.630768L490.391327,336.310242L490.440735,336.35965zM488.751709,336.447296L488.828918,336.520996L488.94397,336.620087L489.054749,336.704865L489.162964,336.777466L489.267029,336.837402L489.369934,336.886902L489.454834,336.919617L489.45459,336.919006L489.439148,336.883728L489.426086,336.842255L489.412231,336.78717L489.404846,336.749481L489.401794,336.722107L489.397156,336.65863L489.396179,336.631042L489.396179,336.429169L488.751709,336.447296z"/>
</svg>
