<?xml version="1.0" encoding="UTF-8"?>
<svg xmlns="http://www.w3.org/2000/svg" xmlns:xlink="http://www.w3.org/1999/xlink" width="23.175mm" height="6.206mm" viewBox="-462.499756 333.405487 23.174988 6.206055">
    <path transform="matrix(-1,0,0,1,0,0)" style="stroke:none;fill:#000000;fill-rule:evenodd" d="M444.588501,334.850159L444.601868,334.814148L444.618896,334.779633L444.639343,334.747162L444.662903,334.716766L444.689453,334.689026L444.718628,334.664093L444.750244,334.642212L444.783813,334.623596L444.820374,334.608032L445.372986,334.406921L445.409668,334.395599L445.447388,334.388062L445.485718,334.384399L445.524109,334.384644L445.562317,334.388672L445.599854,334.396698L445.636475,334.408356L445.671753,334.423676L445.7052,334.442413L445.736572,334.464539L445.765625,334.489716L445.791992,334.5177L445.815369,334.548218L445.835571,334.580933L445.852356,334.615448L445.865479,334.651581L445.874939,334.688782L445.880554,334.726715L445.882263,334.754211L445.893677,335.218964L446.079102,335.147217L446.117676,335.070374L446.136658,335.036926L446.158875,335.005676L446.184204,334.976746L446.21228,334.95047L446.242798,334.927246L446.28656,334.901459L446.43689,334.825958L446.441345,334.824005L446.519226,334.668854L446.548645,334.619965L446.579773,334.575928L446.603455,334.545654L446.630127,334.518066L446.669128,334.486206L446.712891,334.454956L446.745239,334.434143L446.779541,334.41687L446.814087,334.403503L446.870667,334.384766L446.907593,334.374573L446.913574,334.373596L446.961365,334.262329L446.978394,334.227783L446.998657,334.19519L447.022156,334.164795L447.048645,334.136932L447.07782,334.11203L447.109314,334.089996L447.142883,334.071411L447.161499,334.062897L447.337219,333.988098L447.37323,333.974854L447.410461,333.965363L447.448486,333.959656L447.48584,333.957825L447.66156,333.957825L447.699951,333.959778L447.737915,333.965607L447.765625,333.97229L447.790588,333.97934L447.797363,333.974121L447.830078,333.953918L447.864624,333.937164L447.908875,333.921478L448.084595,333.871368L448.12207,333.862732L448.160095,333.858002L448.188721,333.856903L450.674866,333.856903L450.678406,333.834045L450.688049,333.796814L450.701294,333.760834L450.718201,333.726288L450.747009,333.682037L450.82251,333.581818L450.847229,333.552277L450.874695,333.525513L450.904846,333.501556L450.953979,333.471771L451.004089,333.44635L451.039185,333.430664L451.075684,333.41864L451.113159,333.410492L451.151306,333.405975L451.189758,333.405487L451.228088,333.408905L451.251038,333.412811L451.376648,333.438202L451.413879,333.447693L451.450012,333.460938L451.484497,333.477722L451.51709,333.497925L451.547668,333.521393L451.575623,333.547791L451.600647,333.576843L451.622803,333.608215L451.641541,333.641785L451.65686,333.677032L451.669983,333.71936L451.694641,333.81955L451.701843,333.857391L451.705627,333.9104L451.705627,334.547974L451.727844,334.592224L451.756897,334.573029L451.789978,334.553436L451.841187,334.531189L451.894714,334.512451L451.931519,334.501648L451.980896,334.493256L452.040649,334.48703L452.079773,334.484985L453.911743,334.484985L453.942261,334.486206L454.001099,334.490936L454.039185,334.495911L454.071655,334.503326L454.122742,334.517456L454.15918,334.529602L454.203003,334.549927L454.246155,334.573395L454.27887,334.593445L454.323486,334.629089L454.358765,334.661896L454.385498,334.689392L454.418457,334.732941L454.445923,334.775238L454.451904,334.785583L456.643799,334.785583L456.645386,334.781097L456.658508,334.752991L456.674927,334.721252L456.694275,334.688049L456.723816,334.648651L456.744995,334.623962L456.771484,334.59613L456.800537,334.571075L456.817932,334.558319L456.84375,334.540558L456.876465,334.520477L456.91095,334.503693L456.934692,334.494598L456.96521,334.484009L457.002075,334.473297L457.051697,334.464905L457.086914,334.461395L457.125366,334.459564L457.157104,334.460907L457.198303,334.464417L457.236389,334.469666L457.273987,334.47879L457.30957,334.489349L457.345825,334.502136L457.393616,334.525848L457.423889,334.543579L457.455994,334.564636L457.485779,334.588837L457.500244,334.60257L457.524963,334.627258L457.55072,334.655701L457.581238,334.699127L457.600464,334.730865L457.618713,334.764679L457.627319,334.785583L459.05835,334.785583L459.083069,334.768433L459.116638,334.749695L459.151855,334.734497L459.188599,334.722961L459.226196,334.715179L459.264343,334.711273L459.284058,334.710785L461.0448,334.710785L461.044983,334.710175L461.066528,334.667145L461.08551,334.633698L461.117615,334.590179L461.147766,334.554901L461.174133,334.527039L461.216858,334.491913L461.255615,334.464417L461.287964,334.443878L461.3302,334.423309L461.377625,334.403748L461.413818,334.390869L461.444214,334.383209L461.500305,334.371399L461.555725,334.363861L461.620422,334.359955L461.643188,334.359375L461.844299,334.359375L461.867065,334.359955L461.931763,334.363861L461.987183,334.371399L462.043274,334.383209L462.080322,334.392914L462.109924,334.403748L462.157349,334.423309L462.192078,334.439728L462.231873,334.464417L462.27063,334.491913L462.300964,334.515747L462.339722,334.554901L462.369873,334.590179L462.393372,334.620697L462.420959,334.667145L462.442505,334.710175L462.457825,334.745453L462.470825,334.786682L462.483704,334.837494L462.491272,334.875214L462.494263,334.902557L462.498657,334.961182L462.499756,334.98938L462.499756,337.324554L462.498657,337.352753L462.494263,337.411377L462.489563,337.449554L462.483704,337.47644L462.470825,337.527252L462.459534,337.563995L462.442505,337.60376L462.420959,337.64679L462.401978,337.680237L462.369873,337.723785L462.339722,337.759033L462.313354,337.786896L462.27063,337.822021L462.231873,337.849518L462.199524,337.870056L462.157349,337.890625L462.109924,337.910187L462.073669,337.923065L462.043274,337.930756L461.987183,337.942535L461.931763,337.950073L461.867065,337.953979L461.844299,337.95459L461.643188,337.95459L461.620422,337.953979L461.555725,337.950073L461.500305,337.942535L461.444214,337.930756L461.407166,337.921021L461.377625,337.910187L461.3302,337.890625L461.29541,337.874207L461.255615,337.849518L461.216858,337.822021L461.186584,337.798187L461.147766,337.759033L461.117615,337.723785L461.094116,337.693237L461.066528,337.64679L461.044983,337.60376L461.029663,337.568481L461.016785,337.528107L461.003784,337.477295L460.996277,337.439575L460.992981,337.410645L460.988708,337.35202L460.987732,337.324554L460.987732,337.0513L454.431458,337.0513L454.427002,337.057983L454.399475,337.093262L454.374329,337.122314L454.332092,337.160248L454.296875,337.1875L454.265259,337.209381L454.221558,337.232727L454.178406,337.252319L454.142639,337.266418L454.106201,337.276764L454.055115,337.288422L454.017273,337.294983L453.995667,337.297058L453.936768,337.300964L453.911743,337.301819L449.009155,337.301819L446.871948,338.766632L446.839111,338.786835L446.804626,338.803497L446.768494,338.816498L446.73114,338.825989L446.693237,338.831451L446.654785,338.83316L446.616455,338.830963L446.578552,338.82489L446.541321,338.815033L446.505432,338.801422L446.471069,338.784271L446.438599,338.763733L446.408325,338.740143L446.380676,338.713379L446.361023,338.690765L446.274292,338.582428L446.138611,338.773956L446.114746,338.804108L446.097595,338.822571L446.014038,338.906372L445.994385,338.924866L445.906921,339.000854L445.884766,339.018616L445.793335,339.086823L445.769531,339.103241L445.674316,339.163574L445.648743,339.178284L445.549561,339.230804L445.523254,339.243561L445.420288,339.28833L445.392517,339.299042L445.285522,339.335876L445.258667,339.344025L445.147888,339.373199L445.110291,339.381104L445.072144,339.385132L445.033691,339.385376L445.012512,339.383789L444.03302,339.283569L443.995056,339.27774L443.957886,339.268127L443.921875,339.254761L443.874329,339.230194L443.483093,338.991974L442.420044,339.565948L442.385376,339.582489L442.349182,339.59549L442.311829,339.604614L442.273865,339.610077L442.235474,339.611542L442.197144,339.609131L442.159241,339.602905L442.122131,339.592957L442.086243,339.579193L442.051941,339.561798L442.01947,339.541138L441.989441,339.517303L441.961853,339.49054L441.937195,339.461121L441.915527,339.429382L441.896912,339.394836L441.579895,338.727478L440.312683,339.301819L440.294189,339.309479L440.198486,339.346924L440.162109,339.359222L440.114319,339.369202L440.028259,339.381592L439.989929,339.385132L439.951599,339.384888L439.913696,339.380615L439.836853,339.368225L439.799255,339.360199L439.762634,339.348389L439.712769,339.325287L439.645447,339.287842L439.612854,339.267517L439.582581,339.243927L439.554688,339.217438L439.529663,339.188354L439.507751,339.156738L439.489075,339.123199L439.479553,339.102142L439.353943,338.800812L439.340942,338.764709L439.331665,338.727356L439.326355,338.689301L439.324768,338.650879L439.327087,338.612579L439.333252,338.574646L439.343262,338.537537L439.356995,338.501678L439.370117,338.474792L439.705627,337.851563L439.75061,337.714417L439.786865,337.56604L439.806946,337.434479L439.813477,337.311768L439.807312,337.202332L439.789795,337.104065L439.761169,337.013L439.711731,336.90683L439.697205,336.871216L439.686401,336.834351L439.679504,336.796539L439.676331,336.75824L439.677185,336.719818L439.681763,336.681763L439.690186,336.644165L439.702454,336.607819L439.718262,336.572784L439.73761,336.539581L439.760071,336.508453L439.785767,336.479767L439.814087,336.453857L439.844849,336.431L439.87793,336.411316L439.91272,336.39502L439.948975,336.382355L439.973511,336.376038L442.684692,335.774109L442.722473,335.767639L442.760803,335.765106L442.785461,335.765594L443.287231,335.790283L443.3255,335.794037L443.363098,335.801697L443.388977,335.809357L443.835144,335.958557L444.136719,336.052948L444.263672,336.023621L444.264526,336.022644L444.292542,335.980957L444.324524,335.920013L444.358398,335.838806L444.391235,335.741516L444.422852,335.626099L444.453979,335.485535L444.578796,334.887238L444.588501,334.850159zM447.937439,334.563354L447.83725,334.387665L447.66153,334.337555L447.485809,334.337555L447.310089,334.412354L447.234589,334.588074L447.234589,334.813904L447.058868,334.739075C446.958679,334.739075,446.891388,334.772034,446.858459,334.839294L446.757568,335.040405L446.757568,335.190735L446.657349,335.165314L446.607239,335.165314L446.456909,335.240814L446.356018,335.441925L446.356018,335.466644L446.305908,335.466644L445.527557,335.767975L445.502838,334.763794L444.950317,334.964905L444.824707,335.567535C444.741638,335.985565,444.616028,336.253235,444.448547,336.370605L444.121826,336.446106L443.720306,336.320526L443.268646,336.169495L442.766907,336.144806L440.055695,336.746765C440.239624,337.081726,440.239624,337.500397,440.055695,338.002167L439.704254,338.654907L439.829865,338.956238C439.913605,339.022827,440.022064,339.022827,440.155884,338.956238L441.762726,338.227966L442.239777,339.232147L443.494476,338.554688L444.071716,338.906128L445.051208,339.006348C445.351837,338.939087,445.611298,338.788757,445.828888,338.554688L446.255798,337.952057L446.657349,338.453796L448.891541,336.922485L453.911743,336.922485C454.079224,336.922485,454.162964,336.839417,454.162964,336.671936L461.367279,336.671936L461.367279,337.324707C461.367279,337.491486,461.459259,337.575226,461.643188,337.575226L461.844299,337.575226C462.028259,337.575226,462.120239,337.491486,462.120239,337.324707L462.120239,334.989624C462.120239,334.822815,462.028259,334.739075,461.844299,334.739075L461.643188,334.739075C461.459259,334.739075,461.367279,334.822815,461.367279,334.989624L461.367279,335.090515L459.284088,335.090515L459.284088,335.165314L457.300446,335.165314L457.300446,335.065125C457.300446,334.914795,457.242096,334.839294,457.124725,334.839294C457.024506,334.839294,456.974396,334.914795,456.974396,335.065125L456.974396,335.165314L454.162964,335.165314C454.162964,334.964905,454.079224,334.864685,453.911743,334.864685L452.079803,334.864685C451.996063,334.864685,451.928772,334.897644,451.878662,334.964905L451.778473,335.165314L451.778473,335.818085L451.427032,335.818085L451.427032,334.839294L451.326141,334.638184L451.326141,333.910614L451.301422,333.810394L451.175812,333.785004L451.125702,333.810394L451.050201,333.910614L451.050201,334.638184L450.950012,334.839294L450.950012,334.487854L450.849792,334.286743L450.674072,334.236633L448.18866,334.236633L448.012939,334.286743L447.937439,334.487854L447.937439,334.563354M450.573181,335.692474L450.573181,335.793365L448.31427,335.793365L448.31427,335.692474L450.573181,335.692474zM450.573181,334.588074L450.573181,334.713684L448.31427,334.713684L448.31427,334.588074L450.573181,334.588074zM450.573181,335.090515L450.573181,335.316345L448.31427,335.316345L448.31427,335.090515L450.573181,335.090515zM459.284088,335.592255L459.284088,335.843475L459.208588,335.943695L457.300446,335.943695L457.300446,335.492035L459.208588,335.492035L459.284088,335.592255zM456.974396,335.492035L456.974396,335.943695L454.162964,335.943695L454.162964,335.492035L456.974396,335.492035zM443.544586,338.203278L442.364685,338.830627L442.038666,338.152466L443.394257,337.575226L445.878967,337.500397L446.054688,337.726227C445.954468,337.960297,445.828888,338.161407,445.678558,338.328186C445.494598,338.545776,445.277008,338.688538,445.025818,338.755127L443.996918,338.579407L443.720306,338.403687L443.544586,338.203278zM443.819092,337.942047L443.829956,337.952881L443.969788,338.112427L444.135864,338.217957L444.992493,338.364258L445.05304,338.342865L445.169739,338.279022L445.280518,338.193512L445.394958,338.075317L445.483032,337.968323L445.536255,337.890381L443.819092,337.942047z"/>
</svg>
