<?xml version="1.0" encoding="UTF-8"?>
<svg xmlns="http://www.w3.org/2000/svg" xmlns:xlink="http://www.w3.org/1999/xlink" width="20.283mm" height="21.070mm" viewBox="-429.982544 325.973328 20.283264 21.070160">
    <path transform="matrix(-1,0,0,1,0,0)" style="stroke:none;fill:#000000;fill-rule:evenodd" d="M413.834656,333.579651L413.87262,333.58548L413.909821,333.595093L413.945801,333.608337L413.980347,333.625244L414.012939,333.645538L414.043335,333.669128L414.065125,333.689331L414.100128,333.724457L414.125793,333.753052L414.148529,333.784058L414.167969,333.817139L414.183899,333.85202L414.19632,333.888397L414.204956,333.925842L414.209686,333.96402L414.210663,334.002441L414.207764,334.040771L414.200928,334.078461L414.191101,334.112976L414.188171,334.121735L414.28656,333.83429L414.300781,333.798645L414.318665,333.764587L414.339691,333.732483L414.364014,333.70282L414.391235,333.675568L414.420898,333.651276L414.453003,333.630219L414.487061,333.612335L414.522827,333.598114L414.559662,333.587555L414.597473,333.580719L414.64563,333.577698L418.963806,333.577698L419.002197,333.579651L419.040161,333.58548L419.077362,333.595093L419.113342,333.608337L419.147888,333.625244L419.180481,333.645538L419.210876,333.669128L419.238739,333.695526L419.263794,333.724701L419.285675,333.756195L419.308777,333.798889L419.37384,333.940674L419.379791,333.954529L419.441956,334.10556L419.446899,334.118225L419.506409,334.27887L419.510498,334.290527L419.5672,334.460419L419.570587,334.4711L419.624573,334.650482L419.627502,334.660706L419.678589,334.849304L419.680908,334.858551L419.729279,335.056763L419.731232,335.065277L419.776855,335.272736L419.778534,335.280518L419.821472,335.497437L419.822815,335.504974L419.862793,335.731171L419.864014,335.737976L419.901367,335.973785L419.902344,335.980103L419.936859,336.225128L419.937592,336.230957L419.969452,336.485474L419.970062,336.491089L419.999146,336.754822L419.999725,336.760071L420.026001,337.033295L420.026367,337.0383L420.049835,337.320892L420.051178,337.359192L420.048492,337.397644L420.041931,337.435455L420.031708,337.472412L420.017609,337.508301L420.000092,337.54245L419.979187,337.574677L419.955109,337.604614L419.928223,337.631958L419.89856,337.656525L419.866699,337.677795L419.832764,337.695923L419.797241,337.710388L419.760437,337.721344L419.722595,337.728394L419.671631,337.731812L413.972931,337.731812L413.934509,337.729858L413.896545,337.72403L413.859344,337.714417L413.823364,337.701141L413.788818,337.684265L413.756226,337.66394L413.72583,337.64035L413.697998,337.613953L413.672913,337.584778L413.651062,337.553284L413.632324,337.519714L413.617126,337.484467L413.60556,337.447723L413.597778,337.410156L413.593872,337.371979L413.594849,337.319427L413.636322,336.841064L413.637421,336.830231L413.69104,336.367157L413.692505,336.355499L413.758423,335.90799L413.760376,335.895935L413.838318,335.463776L413.841003,335.450745L413.931213,335.034149L413.934387,335.02063L414.036774,334.619354L414.040649,334.605255L414.152771,334.227051L414.059631,334.505035L413.943115,334.899292L413.84137,335.295837L413.752563,335.701996L413.678162,336.111053L413.617371,336.528656L413.570923,336.947815L413.537598,337.381348L413.532715,337.419525L413.523987,337.45697L413.511566,337.493225L413.495514,337.528107L413.475952,337.56131L413.453186,337.592194L413.427429,337.620758L413.398956,337.646423L413.36795,337.669159L413.334869,337.688751L413.299988,337.704681L413.263611,337.717194L413.226166,337.72583L413.18811,337.730713L413.159149,337.731812L410.221436,337.731812L410.183044,337.729858L410.145081,337.72403L410.10788,337.714417L410.071899,337.701141L410.037354,337.684265L410.004761,337.66394L409.974365,337.64035L409.946503,337.613953L409.921448,337.584778L409.899567,337.553284L409.880859,337.519714L409.865662,337.484467L409.854095,337.447723L409.846313,337.410156L409.842407,337.371979L409.842407,337.333557L409.846191,337.295227L409.857483,337.244659L410.317261,335.688721L410.330048,335.652496L410.343658,335.622833L411.016357,334.31424L411.035706,334.281036L411.062836,334.244202L411.147461,334.143036L411.175171,334.113342L411.269806,334.022156L411.300323,333.995636L411.404907,333.914398L411.437256,333.891907L411.551819,333.820648L411.584625,333.802429L411.709045,333.741119L411.74115,333.727142L411.87561,333.67569L411.906372,333.665375L412.05072,333.623901L412.079681,333.616852L412.234009,333.585358L412.271942,333.579529L412.309875,333.577698L413.796234,333.577698L413.834656,333.579651zM412.309937,333.957367C411.885254,334.028168,411.566437,334.204803,411.354095,334.487946L410.681366,335.796478L410.221619,337.352417L413.159302,337.352417C413.230103,336.17337,413.453918,335.053558,413.831421,333.992462L413.796326,333.957367L412.309937,333.957367zM414.645691,333.957367C414.291809,334.924103,414.067352,336.056,413.972992,337.352417L419.671722,337.352417C419.553772,335.820068,419.317841,334.688171,418.963928,333.957367L414.645691,333.957367z"/>
    <path transform="matrix(-1,0,0,1,0,0)" style="stroke:none;fill:#000000;fill-rule:evenodd" d="M419.568542,325.975281L419.606445,325.98111L419.628723,325.986328L420.548889,326.233795L420.585388,326.245605L420.620514,326.261169L420.653961,326.279999L420.687408,326.303955L421.395142,326.870148L421.407166,326.880127L422.504639,327.834839L422.651672,327.956665L422.651672,327.956543L422.797363,328.07608L422.937317,328.189423L423.065247,328.291443L423.187073,328.387268L423.266602,328.4487L423.307129,328.415985L423.32135,328.405029L423.458618,328.304352L423.47345,328.294006L423.614288,328.200745L423.629974,328.190887L423.774414,328.105042L423.790833,328.095795L423.938843,328.017487L423.955383,328.009216L424.107025,327.938202L424.124634,327.930542L424.279938,327.867188L424.296967,327.860748L424.45578,327.804688L424.473541,327.798828L424.635986,327.750305L424.653381,327.745575L424.819519,327.704468L424.837006,327.700592L425.006653,327.667023L425.023682,327.664093L425.19696,327.63797L425.213867,327.635773L425.390686,327.617157L425.406738,327.615814L425.587311,327.604523L425.603455,327.60379L425.787598,327.600128L425.81189,327.600494L425.996155,327.608643L426.011841,327.609619L426.192993,327.625183L426.20929,327.627014L426.387573,327.650116L426.403992,327.652557L426.579102,327.683075L426.595642,327.68634L426.7677,327.724304L426.784607,327.728424L426.953644,327.773895L426.970306,327.778778L427.136292,327.831665L427.152954,327.837494L427.315918,327.897949L427.332214,327.904388L427.492126,327.97226L427.508057,327.979431L427.664917,328.054688L427.680603,328.062714L427.834412,328.145538L427.849365,328.153931L428.000305,328.244141L428.014893,328.253387L428.162628,328.351166L428.176392,328.360657L428.321075,328.46582L428.334106,328.4758L428.475769,328.588409L428.488159,328.598633L428.62677,328.718781L428.642334,328.733002L428.771606,328.858246L428.782562,328.869324L428.904541,328.99762L428.915222,329.009399L429.030151,329.140869L429.040588,329.153381L429.148224,329.28775L429.158447,329.300995L429.258881,329.438416L429.26886,329.452759L429.362,329.593353L429.371002,329.607697L429.457092,329.75119L429.465973,329.766876L429.544769,329.913513L429.552795,329.929199L429.62442,330.078796L429.631836,330.095215L429.696289,330.247925L429.702759,330.264343L429.76001,330.420013L429.765869,330.437164L429.815826,330.595978L429.820679,330.612518L429.863617,330.774231L429.867737,330.791504L429.903381,330.95639L429.906555,330.973053L429.934998,331.140869L429.937439,331.15741L429.95871,331.3284L429.961029,331.353546L429.982056,331.71994L429.982544,331.75L429.974762,332.106415L429.972839,332.137909L429.93634,332.484344L429.931458,332.516815L429.866302,332.853302L429.858398,332.886017L429.764404,333.212646L429.753571,333.244995L429.630737,333.561646L429.617126,333.592407L429.465607,333.8992L429.449799,333.928162L429.269592,334.224976L429.249146,334.25528L429.064941,334.50177L429.046326,334.524628L428.84787,334.751038L428.826721,334.773285L428.61377,334.979919L428.590424,335.000824L428.363037,335.187592L428.337738,335.206696L428.096008,335.373535L428.069336,335.39032L427.813385,335.537201L427.785889,335.551453L427.515442,335.67865L427.487732,335.69043L427.202942,335.797699L427.154663,335.812286L426.707153,335.915771L426.560364,335.960632L426.592712,336.256622L426.593079,336.260742L426.650604,336.846649L426.651093,336.851135L426.699738,337.414886L426.700104,337.419647L426.739868,337.961151L426.740234,337.96637L426.77124,338.48587L426.771484,338.491577L426.79361,338.988922L426.793854,338.99527L426.807129,339.47049L426.807251,339.477417L426.811493,339.922852L426.846375,340.731506L426.84613,340.769958L426.841034,340.813721L426.735107,341.415039L426.726501,341.452515L426.714203,341.488983L426.698273,341.523895L426.678955,341.557098L426.656311,341.588104L426.630676,341.616669L426.602203,341.642578L426.57132,341.665436L426.545288,341.681244L426.22644,341.857941L426.191895,341.874847L426.155945,341.888214L426.118713,341.897827L426.076538,341.904022L425.6875,341.939056L425.649078,341.940491L425.610779,341.93808L425.572815,341.931885L425.535736,341.921783L425.499878,341.908051L425.465576,341.890778L425.433228,341.870087L425.403076,341.846252L425.37561,341.819519L425.352844,341.792755L424.998383,341.333099L424.976501,341.301483L424.958008,341.267914L424.94281,341.232513L424.931366,341.195923L424.922607,341.15033L424.816833,340.337158L424.813904,340.301758L424.789581,339.62674L424.752502,338.980804L424.702271,338.357697L424.639038,337.758179L424.563049,337.183472L424.474731,336.636505L424.371765,336.102783L424.299866,335.786621L424.153229,335.724243L424.134033,335.715485L423.830994,335.566284L423.810547,335.55545L423.529663,335.395172L423.508362,335.38205L423.249451,335.210815L423.227234,335.195007L423.053223,335.061005L423.166901,335.303253L423.171387,335.31311L423.300293,335.609436L423.304932,335.620514L423.419373,335.90799L423.423859,335.919769L423.524048,336.198242L423.528687,336.211884L423.61441,336.481598L423.618652,336.496307L423.690063,336.757141L423.694183,336.77356L423.751221,337.025391L423.754852,337.043762L423.797424,337.286835L423.802155,337.324921L423.803009,337.363342L423.799988,337.401642L423.79303,337.439453L423.782349,337.476318L423.767883,337.511932L423.75,337.54599L423.728699,337.577972L423.704407,337.607635L423.677155,337.634766L423.647217,337.658966L423.615112,337.679993L423.580963,337.697632L423.545349,337.711731L423.508362,337.722198L423.470551,337.728882L423.423615,337.731812L420.556671,337.731812L420.51825,337.729858L420.480316,337.72403L420.443115,337.714417L420.407104,337.701141L420.372559,337.684265L420.339966,337.66394L420.30957,337.64035L420.281738,337.613953L420.256683,337.584778L420.234802,337.553284L420.216064,337.519714L420.200867,337.484467L420.189331,337.447723L420.181519,337.410156L420.177887,337.376343L420.152222,336.973602L420.110901,336.572784L420.054199,336.172729L419.980652,335.762909L419.891632,335.352386L419.784607,334.929443L419.662903,334.507233L419.522797,334.073944L419.512817,334.036865L419.506744,333.998932L419.504456,333.96051L419.506042,333.92218L419.511475,333.884125L419.520874,333.846924L419.533875,333.810699L419.550415,333.776031L419.570465,333.743317L419.593689,333.712677L419.619843,333.68457L419.648804,333.659302L419.680176,333.637024L419.713593,333.618073L419.748749,333.602631L419.785217,333.590698L419.822815,333.582672L419.860962,333.57843L419.883972,333.577698L421.441101,333.577698L421.479523,333.579651L421.516357,333.585236L421.628723,333.607971L421.664246,333.616974L421.770996,333.649567L421.807007,333.662567L421.908203,333.705017L421.944061,333.72229L422.003174,333.754761L421.982239,333.711578L421.974579,333.694794L421.91037,333.544128L421.903809,333.52771L421.845917,333.372192L421.84021,333.355774L421.788635,333.195129L421.783905,333.179199L421.738647,333.013702L421.734772,332.997772L421.695984,332.827271L421.69281,332.812195L421.660339,332.636719L421.657928,332.621765L421.631897,332.441315L421.630188,332.427551L421.610352,332.242126L421.609161,332.228363L421.595764,332.038055L421.595032,332.025177L421.588013,331.829773L421.587769,331.817108L421.587646,331.783173L420.447601,331.763L420.681946,333.04007L420.68692,333.078156L420.687988,333.116577L420.685333,333.154877L420.67865,333.192688L420.668304,333.229675L420.654205,333.265411L420.636566,333.299591L420.615662,333.331696L420.591461,333.361603L420.564453,333.388977L420.53479,333.413269L420.502808,333.434692L420.468872,333.452576L420.433228,333.467041L420.396423,333.477844L420.358582,333.484772L420.308594,333.488068L413.442383,333.488068L413.403931,333.486115L413.365997,333.480286L413.328796,333.470673L413.292786,333.457428L413.25827,333.440521L413.225677,333.420227L413.195251,333.396637L413.167419,333.370239L413.142395,333.341064L413.120483,333.30957L413.101746,333.276001L413.086548,333.240723L413.075012,333.20401L413.06723,333.166443L413.063354,333.128235L413.063354,333.089813L413.067596,333.048584L413.670013,329.278625L412.627991,329.278625L412.589569,329.276703L412.551636,329.270844L412.514404,329.26123L412.478424,329.247986L412.443878,329.231079L412.411316,329.210785L412.38089,329.187195L412.353027,329.160797L412.328003,329.131622L412.306091,329.100128L412.287384,329.066559L412.272156,329.031281L412.26062,328.994568L412.252838,328.957001L412.248962,328.918823L412.248474,328.899109L412.248474,327.908752L412.249939,327.875214L412.270966,327.638214L412.272522,327.623474L412.300262,327.407532L412.302948,327.390137L412.337219,327.195068L412.341492,327.174042L412.382355,327.000031L412.389404,326.974121L412.436951,326.821014L412.448364,326.789398L412.502625,326.657349L412.520752,326.619415L412.581543,326.50827L412.610718,326.462891L412.678223,326.372803L412.702759,326.343231L412.734253,326.312714L412.801758,326.254578L412.844818,326.222595L412.923248,326.172394L412.965088,326.14917L413.054688,326.106598L413.093506,326.090668L413.194061,326.055878L413.228943,326.045685L413.340698,326.018677L413.37085,326.012726L413.493683,325.993378L413.519958,325.990112L413.653717,325.978546L413.676208,325.977325L413.821045,325.97345L413.831238,325.973328L419.53009,325.973328L419.568542,325.975281zM420.698364,333.957367L419.884064,333.957367C420.285156,335.135834,420.509613,336.267731,420.556793,337.352417L423.423706,337.352417C423.329346,336.716003,423.081299,335.985229,422.680206,335.159454L422.184753,334.417145C421.996002,334.157623,421.747955,334.004578,421.441254,333.957367L420.698364,333.957367zM412.628143,328.899292L414.115143,328.899292L413.442444,333.108612L420.308746,333.108612L419.99054,331.375397L421.972412,331.410492C421.925232,332.518768,422.149048,333.414734,422.644531,334.098938C423.069824,334.688171,423.730438,335.159454,424.626984,335.513336C424.957306,336.857574,425.146057,338.449219,425.193237,340.28833L425.299103,341.101379L425.653595,341.561157L426.042603,341.526062L426.36142,341.349426L426.467285,340.748077L426.43219,339.934418C426.43219,338.755341,426.33783,337.340942,426.149078,335.690002L426.608856,335.549042L427.069214,335.442566C427.847809,335.183044,428.473328,334.711761,428.945221,334.028168C429.464264,333.249573,429.676605,332.365723,429.582245,331.375397C429.487854,330.455841,429.086761,329.665771,428.378357,329.005768C427.646973,328.345154,426.786102,328.003326,425.795166,327.979736C424.803619,327.979736,423.96637,328.298553,423.282166,328.934967C423.022614,328.746216,422.680206,328.47522,422.255524,328.121307L421.158142,327.166687L420.450317,326.600433L419.530182,326.352997L413.831421,326.352997C413.430328,326.352997,413.147217,326.435272,412.982056,326.600433C412.793304,326.812775,412.675323,327.248932,412.628143,327.908966L412.628143,328.899292zM427.423126,329.996094C427.871399,330.420166,428.13092,330.939209,428.201721,331.552063C428.272491,332.282837,428.095245,332.896271,427.670563,333.391144C427.24588,333.863007,426.668121,334.157623,425.936737,334.275604L425.405579,332.189087C425.169647,331.457672,424.886505,330.879944,424.556213,330.455841L423.954254,331.339691L423.352936,332.189087C423.305756,331.339691,423.529572,330.644592,424.025055,330.101959C424.496918,329.607086,425.110352,329.371155,425.865936,329.394745C426.43219,329.418335,426.951263,329.618591,427.423126,329.996094zM425.610901,329.777222L425.385071,329.800934L425.172638,329.845062L424.975159,329.908783L424.79129,329.991486L424.634277,330.084747L424.647186,330.087311L424.683899,330.098358L424.719421,330.11319L424.753235,330.131439L424.784973,330.152954L424.814392,330.177643L424.841248,330.205261L424.862305,330.231506L424.984009,330.397766L424.996185,330.415375L425.113403,330.595978L425.123627,330.61264L425.236359,330.807678L425.244873,330.823242L425.35321,331.032776L425.360291,331.047241L425.464233,331.270996L425.470337,331.284607L425.569916,331.522949L425.57489,331.535492L425.669983,331.788055L425.674133,331.799713L425.764832,332.066895L425.773376,332.095337L426.21405,333.82663L426.34259,333.791473L426.551758,333.716309L426.745209,333.627899L426.925781,333.525513L427.092896,333.409515L427.24585,333.280853L427.384247,333.140778L427.505737,332.983429L427.608337,332.816559L427.691895,332.640747L427.756836,332.453949L427.802551,332.257568L427.829437,332.047913L427.836609,331.823669L427.823853,331.591888L427.793945,331.401459L427.748444,331.2164L427.688843,331.041412L427.61322,330.871521L427.524933,330.713562L427.419373,330.55899L427.30011,330.413574L427.172058,330.282227L427.028931,330.175812L426.869141,330.07428L426.70752,329.98819L426.542847,329.916931L426.375183,329.859894L426.205536,329.817596L426.030182,329.788879L425.852539,329.774414L425.610901,329.777222z"/>
    <path transform="matrix(-1,0,0,1,0,0)" style="stroke:none;fill:#000000;fill-rule:evenodd" d="M423.603577,337.78833L423.641541,337.794189L423.678711,337.803772L423.714722,337.817047L423.749268,337.833954L423.78186,337.854248L423.812256,337.877838L423.840088,337.904236L423.865173,337.933411L423.887024,337.964905L423.905762,337.998474L423.920959,338.033752L423.936646,338.087982L423.976563,338.278046L423.980072,338.297729L424.010956,338.496674L424.013367,338.514679L424.035522,338.722382L424.036865,338.73941L424.05011,338.956116L424.050842,338.971802L424.055359,339.197235L424.055359,339.212067L424.050842,339.446533L424.050354,339.4599L424.037109,339.703003L424.036133,339.715515L424.013977,339.967468L424.006836,340.014923L423.652954,341.641602L423.642853,341.67868L423.62912,341.714569L423.611847,341.748871L423.591187,341.781311L423.5672,341.811371L423.540466,341.838959L423.511047,341.863647L423.479309,341.885284L423.445496,341.903534L423.409973,341.918243L423.37326,341.929443L423.335571,341.936737L423.282043,341.940491L420.485901,341.940491L420.447479,341.938568L420.409546,341.932709L420.372314,341.923126L420.336334,341.909851L420.301819,341.892944L420.269226,341.87265L420.2388,341.84906L420.210938,341.822662L420.185913,341.793488L420.164001,341.761993L420.145294,341.728424L420.130096,341.693176L420.11853,341.656433L420.110779,341.618866L420.106873,341.580688L420.107117,341.537262L420.319427,338.142212L420.323792,338.104034L420.33197,338.066559L420.343872,338.029968L420.359436,337.994812L420.378418,337.961517L420.400787,337.930267L420.426086,337.901306L420.454285,337.875183L420.484924,337.852051L420.517639,337.832001L420.552429,337.81546L420.588531,337.802582L420.625854,337.793335L420.66394,337.787964L420.698242,337.786407L423.565155,337.786407L423.603577,337.78833zM423.636047,339.934418C423.706848,339.250793,423.683228,338.66098,423.565277,338.166107L420.698364,338.166107L420.486023,341.561157L423.282166,341.561157L423.636047,339.934418z"/>
    <path transform="matrix(-1,0,0,1,0,0)" style="stroke:none;fill:#000000;fill-rule:evenodd" d="M413.197571,337.78833L413.235535,337.794189L413.272736,337.803772L413.308716,337.817047L413.343262,337.833954L413.375854,337.854248L413.40625,337.877838L413.434082,337.904236L413.459167,337.933411L413.481049,337.964905L413.499756,337.998474L413.514954,338.033752L413.52652,338.070465L413.530396,338.089447L413.540039,338.052338L413.553284,338.016357L413.57019,337.981812L413.590485,337.949219L413.614075,337.918823L413.640442,337.890991L413.669647,337.865936L413.701141,337.844025L413.734711,337.825317L413.769958,337.81012L413.806702,337.798553L413.844269,337.790771L413.882446,337.786896L413.902161,337.786407L419.742432,337.786407L419.780853,337.78833L419.818787,337.794189L419.856018,337.803772L419.891998,337.817047L419.926514,337.833954L419.959106,337.854248L419.989502,337.877838L420.017365,337.904236L420.042419,337.933411L420.064301,337.964905L420.083038,337.998474L420.098236,338.033752L420.109802,338.070465L420.117554,338.108032L420.121948,338.158264L420.156982,339.891479L420.154907,339.93927L419.978333,341.601105L419.972229,341.639038L419.962524,341.676147L419.949036,341.712128L419.932007,341.746552L419.911438,341.779144L419.887878,341.809418L419.861206,341.837128L419.832031,341.862061L419.800415,341.88385L419.766724,341.902313L419.731354,341.917389L419.694641,341.928711L419.657043,341.936371L419.600891,341.940491L413.972931,341.940491L413.934509,341.938568L413.896545,341.932709L413.859344,341.923126L413.823364,341.909851L413.788818,341.892944L413.756226,341.87265L413.72583,341.84906L413.697998,341.822662L413.672913,341.793488L413.651062,341.761993L413.632324,341.728424L413.618835,341.697174L413.614563,341.708984L413.5979,341.7435L413.577698,341.776215L413.554382,341.806732L413.527985,341.834717L413.499023,341.859894L413.467529,341.882019L413.434082,341.900848L413.398834,341.916168L413.362244,341.927856L413.324646,341.93576L413.286469,341.93988L413.265076,341.940491L410.504669,341.940491L410.466248,341.938568L410.428284,341.932709L410.391083,341.923126L410.355103,341.909851L410.320557,341.892944L410.287964,341.87265L410.257568,341.84906L410.229736,341.822662L410.204651,341.793488L410.1828,341.761993L410.164063,341.728424L410.148865,341.693176L410.139496,341.664459L410.067627,341.410919L410.065796,341.404114L410.000488,341.156036L409.998535,341.148499L409.939941,340.905884L409.93811,340.89798L409.886169,340.66098L409.884491,340.65271L409.839111,340.421173L409.837555,340.412445L409.798767,340.186371L409.79718,340.17688L409.765076,339.956421L409.763733,339.94632L409.738342,339.731445L409.737244,339.720642L409.718506,339.511108L409.717651,339.499908L409.705505,339.29599L409.705017,339.284058L409.699402,339.085724L409.69928,339.072845L409.700378,338.879974L409.700745,338.866364L409.708527,338.678955L409.709381,338.664856L409.723724,338.483063L409.725189,338.467987L409.746216,338.291656L409.748413,338.276093L409.776001,338.105377L409.784058,338.06778L409.795837,338.031189L409.811279,337.996033L409.830261,337.962616L409.852386,337.931213L409.877686,337.902283L409.90564,337.876007L409.936279,337.852783L409.968994,337.832733L410.003662,337.816071L410.039795,337.802948L410.076965,337.793579L410.115051,337.788086L410.150696,337.786407L413.159149,337.786407L413.197571,337.78833zM413.46875,339.886871L413.557159,340.71814L413.52301,339.915314L413.522644,339.899139L413.522644,338.568542L413.46875,339.886871zM413.159302,338.166107L410.150818,338.166107C409.985657,339.062073,410.103638,340.193939,410.50473,341.561157L413.265167,341.561157L413.088531,339.899323L413.159302,338.166107zM413.902191,339.899323L413.972992,341.561157L419.600952,341.561157L419.777588,339.899323L419.742523,338.166107L413.902191,338.166107L413.902191,339.899323z"/>
    <path transform="matrix(-1,0,0,1,0,0)" style="stroke:none;fill:#000000;fill-rule:evenodd" d="M423.037415,342.032806L423.075317,342.038635L423.112549,342.048248L423.14856,342.061493L423.183075,342.0784L423.215668,342.098724L423.246063,342.122314L423.273926,342.148682L423.29895,342.177887L423.320862,342.209381L423.3396,342.24292L423.354797,342.278198L423.366333,342.314911L423.374115,342.352509L423.377991,342.390686L423.377991,342.429108L423.374237,342.467407L423.366577,342.504974L423.355042,342.541718L423.339844,342.577209L423.161926,342.940704L423.154724,342.954681L422.96637,343.302338L422.958252,343.316681L422.759277,343.64856L422.750305,343.662781L422.541016,343.979065L422.53067,343.993896L422.310669,344.294373L422.2995,344.308868L422.069183,344.593536L422.056885,344.608002L421.81601,344.876984L421.802612,344.891083L421.55127,345.144409L421.536926,345.158264L421.275116,345.395752L421.259674,345.408997L420.987274,345.630676L420.971222,345.642975L420.688354,345.849091L420.671356,345.860901L420.378052,346.051086L420.360535,346.061768L420.056641,346.236267L420.038757,346.24588L419.724426,346.404572L419.706177,346.413208L419.381256,346.556213L419.363037,346.563629L419.027649,346.690826L418.991028,346.702637L418.953461,346.710663L418.915283,346.714905L418.876831,346.715149L418.838654,346.711639L418.800964,346.704224L418.764099,346.693024L418.728729,346.678192L418.695068,346.659821L418.66333,346.638062L418.633881,346.613373L418.607239,346.585754L418.583435,346.555481L418.562866,346.523132L418.545593,346.488739L418.531982,346.45285L418.522003,346.415771L418.515808,346.377838L418.513489,346.339508L418.515076,346.301086L418.520538,346.263031L418.529785,346.22583L418.542786,346.189697L418.568817,346.138641L418.850952,345.675079L419.101563,345.214447L419.324829,344.749542L419.521118,344.280518L419.690979,343.805298L419.83374,343.326538L419.950256,342.841461L420.041809,342.341919L420.05069,342.304596L420.063232,342.268219L420.079376,342.233459L420.098969,342.200378L420.121826,342.169495L420.147705,342.141022L420.1763,342.115356L420.207306,342.092743L420.240509,342.073425L420.275513,342.057495L420.31189,342.045197L420.349365,342.03656L420.38739,342.03183L420.415131,342.030853L422.998962,342.030853L423.037415,342.032806zM420.415222,342.410522C420.202881,343.77774,419.695313,345.086273,418.893158,346.336121C420.709839,345.699707,422.078278,344.390564,422.999023,342.410522L420.415222,342.410522z"/>
    <path transform="matrix(-1,0,0,1,0,0)" style="stroke:none;fill:#000000;fill-rule:evenodd" d="M413.410034,342.032806L413.447968,342.038635L413.485168,342.048248L413.521179,342.061493L413.555725,342.0784L413.588318,342.098724L413.618713,342.122314L413.646545,342.148682L413.6716,342.177887L413.693481,342.209381L413.712219,342.24292L413.727417,342.278198L413.734589,342.299591L414.363159,344.358582L414.518188,344.680969L413.85791,342.521393L413.848511,342.48407L413.843079,342.446136L413.84137,342.407715L413.843536,342.369385L413.849609,342.331451L413.859467,342.29425L413.873108,342.258362L413.890259,342.223969L413.910767,342.191498L413.934509,342.161346L413.961121,342.133606L413.990417,342.108795L414.022156,342.087036L414.055847,342.068542L414.091248,342.053711L414.127991,342.042419L414.165649,342.034882L414.220886,342.030853L419.494354,342.030853L419.532776,342.032806L419.570709,342.038635L419.60791,342.048248L419.643921,342.061493L419.678467,342.0784L419.71106,342.098724L419.741455,342.122314L419.760437,342.139679L419.796173,342.174835L419.822205,342.203156L419.845154,342.233948L419.86499,342.266876L419.881287,342.301666L419.894043,342.337891L419.903076,342.375244L419.908264,342.4133L419.909607,342.451599L419.907074,342.490021L419.900635,342.527863L419.890411,342.564941L419.868896,342.616608L419.852844,342.648346L419.773071,342.976685L419.771118,342.984344L419.677734,343.336395L419.675293,343.34491L419.578491,343.678223L419.575684,343.687347L419.475739,344.001801L419.472351,344.012146L419.368958,344.30777L419.36496,344.318939L419.258301,344.595856L419.253204,344.608246L419.143158,344.866302L419.137085,344.879913L419.023743,345.11911L419.022522,345.121643L418.92926,345.31488L418.924377,345.324615L418.830261,345.506165L418.824432,345.516876L418.72934,345.686737L418.7229,345.697815L418.627075,345.85614L418.619293,345.868561L418.522614,346.015198L418.513733,346.028107L418.416321,346.16333L418.405151,346.17804L418.306763,346.301453L418.294006,346.31665L418.194885,346.428528L418.179688,346.444702L418.079712,346.545044L418.061493,346.562164L417.960693,346.650818L417.939392,346.668213L417.837738,346.7453L417.812561,346.762817L417.710052,346.828247L417.681458,346.844788L417.578247,346.898651L417.545532,346.913727L417.441437,346.956055L417.404968,346.968811L417.299988,346.999451L417.260986,347.008698L417.155182,347.027802L417.113831,347.032898L416.968872,347.042877L416.92804,347.043488L416.784912,347.037903L416.744141,347.033997L416.602966,347.013092L416.562378,347.004822L416.423126,346.968323L416.385071,346.956177L416.247772,346.904236L416.212891,346.889038L416.077515,346.821686L416.046265,346.804291L415.912872,346.721344L415.886108,346.703125L415.754547,346.604858L415.731201,346.585754L415.601685,346.471954L415.58197,346.453461L415.454285,346.324066L415.437897,346.306335L415.312256,346.161621L415.298523,346.144836L415.174744,345.984558L415.163208,345.968872L415.081116,345.850433L415.235535,346.171448L415.250488,346.206848L415.261688,346.243561L415.269226,346.281281L415.272766,346.319458L415.272522,346.35788L415.268372,346.396057L415.260345,346.433655L415.248535,346.470245L415.233215,346.505524L415.214386,346.53894L415.192139,346.570313L415.166962,346.599274L415.138855,346.625519L415.108337,346.648865L415.075623,346.669067L415.041077,346.68573L415.004974,346.698853L414.967651,346.708221L414.929688,346.713806L414.891296,346.715515L414.852966,346.713318L414.815033,346.707367L414.777832,346.69751L414.755676,346.689606L414.408142,346.554138L414.390747,346.546844L414.055725,346.396667L414.038208,346.388275L413.716095,346.223511L413.698486,346.213898L413.388977,346.034424L413.371704,346.023712L413.075012,345.829742L413.057983,345.817963L412.773926,345.609161L412.757385,345.596283L412.486206,345.372894L412.470398,345.359161L412.211731,345.121063L412.196777,345.106567L411.951019,344.854004L411.93692,344.838684L411.703796,344.571289L411.690918,344.555603L411.470581,344.273712L411.458649,344.25766L411.250946,343.960938L411.240234,343.944763L411.045319,343.633606L411.035706,343.61731L410.853546,343.291412L410.845032,343.27536L410.675537,342.934723L410.668091,342.918793L410.511353,342.563599L410.49762,342.52774L410.487518,342.490631L410.481323,342.452698L410.479004,342.414398L410.480591,342.375977L410.485962,342.337891L410.495178,342.30069L410.508179,342.264465L410.524719,342.229797L410.544678,342.19696L410.56778,342.166321L410.594055,342.138245L410.622864,342.112823L410.654114,342.090576L410.687561,342.071594L410.722717,342.05603L410.759186,342.044098L410.796753,342.03595L410.834961,342.031586L410.858521,342.030853L413.371582,342.030853L413.410034,342.032806zM410.858643,342.410522C411.660828,344.343994,413.005646,345.652527,414.893738,346.336121L414.008667,344.49704L413.371643,342.410522L410.858643,342.410522zM418.680817,344.956818C418.987518,344.343994,419.258545,343.530304,419.494476,342.516388L419.530182,342.445618L419.494476,342.410522L414.221008,342.410522L414.999603,344.956818C415.613037,346.183075,416.309357,346.748718,417.087952,346.654327C417.654175,346.583557,418.185333,346.017914,418.680817,344.956818z"/>
</svg>
