<?xml version="1.0" encoding="UTF-8"?>
<svg xmlns="http://www.w3.org/2000/svg" xmlns:xlink="http://www.w3.org/1999/xlink" width="20.825mm" height="20.710mm" viewBox="-399.183228 326.152679 20.825378 20.709503">
    <path transform="matrix(-1,0,0,1,0,0)" style="stroke:none;fill:#000000;fill-rule:evenodd" d="M394.459778,326.154633L394.476074,326.155121L394.641602,326.164124L394.6586,326.165466L394.817291,326.181274L394.835785,326.183563L394.987915,326.206329L395.007721,326.209839L395.153168,326.239502L395.17395,326.244385L395.312836,326.280975L395.334961,326.287537L395.467041,326.331085L395.489502,326.339233L395.615021,326.389557L395.638489,326.400024L395.757294,326.457306L395.780884,326.469574L395.893005,326.533661L395.916962,326.548615L396.0224,326.619781L396.045258,326.636414L396.143982,326.714386L396.165771,326.732971L396.257935,326.817749L396.284332,326.844604L396.4086,326.9841L396.437195,327.020325L396.543335,327.173431L396.567047,327.212463L396.655212,327.379425L396.673462,327.419434L396.7435,327.600128L396.756287,327.63916L396.808319,327.83374L396.816223,327.870697L396.822418,327.908417L396.824371,327.903046L396.841034,327.868408L396.861206,327.835693L396.884583,327.805176L396.91095,327.777191L396.93988,327.752014L396.971375,327.729889L397.004822,327.711029L397.0401,327.695709L397.076569,327.684052L397.114258,327.676147L397.152466,327.671997L397.190887,327.671753L397.229065,327.675415L397.266754,327.682953L397.303467,327.694244L397.338867,327.709106L397.372559,327.72757L397.404297,327.749359L397.433594,327.774139L397.460236,327.80188L397.483948,327.832031L397.503174,327.862305L398.960205,330.405792L398.9776,330.439941L398.992065,330.477661L399.059326,330.685699L399.067719,330.716125L399.118652,330.934143L399.12439,330.96344L399.159058,331.191467L399.162201,331.219666L399.180298,331.45752L399.181396,331.483551L399.183228,331.731384L399.182617,331.755585L399.16803,332.013367L399.166199,332.035522L399.135315,332.303284L399.132385,332.323456L399.085083,332.601105L399.081451,332.619446L399.017731,332.907043L399.013733,332.923706L398.933594,333.221283L398.929199,333.236115L398.832764,333.543518L398.828278,333.557129L398.715424,333.874512L398.710815,333.886688L398.581543,334.21405L398.577026,334.225098L398.431488,334.562317L398.42688,334.572418L398.264893,334.919586L398.26062,334.928589L398.082336,335.285736L398.077148,335.295715L397.880493,335.662231L397.876221,335.669891L397.668518,336.036285L397.664307,336.043701L397.445526,336.410217L397.441162,336.417389L397.211182,336.783905L397.206818,336.790588L396.965912,337.157104L396.961548,337.163788L396.709473,337.530304L396.704956,337.536621L396.441681,337.903137L396.437317,337.909088L396.163086,338.275604L396.158691,338.281433L395.873291,338.647949L395.868927,338.653442L395.572449,339.019958L395.568085,339.025299L395.260437,339.391815L395.256042,339.39679L394.937317,339.763184L394.933044,339.768066L394.603271,340.134552L394.598999,340.139191L394.258057,340.505707L394.253906,340.510071L393.901855,340.876587L393.897736,340.880859L393.534607,341.247253L393.530487,341.251251L393.166046,341.608032L393.161682,341.612305L392.7966,341.958252L392.791992,341.962646L392.426331,342.297791L392.42157,342.302032L392.05542,342.626465L392.050323,342.630859L391.683563,342.944458L391.678467,342.948853L391.311218,343.25177L391.305725,343.256134L390.937897,343.548218L390.93219,343.552734L390.563721,343.834106L390.557861,343.838379L390.188934,344.10907L390.182739,344.113556L389.813171,344.373444L389.806732,344.37793L389.436584,344.626984L389.429993,344.631226L389.059357,344.869568L389.052429,344.873962L388.681152,345.101471L388.674011,345.105713L388.302246,345.32254L388.29483,345.326813L387.922485,345.532806L387.914703,345.536926L387.541748,345.732117L387.536987,345.734528L387.177917,345.916107L387.169006,345.920471L386.820251,346.08548L386.810425,346.089996L386.471863,346.238464L386.460938,346.243073L386.132599,346.375031L386.120544,346.379639L385.802551,346.495056L385.789063,346.499664L385.481415,346.598419L385.466461,346.602783L385.168884,346.684998L385.152588,346.689117L384.865479,346.754913L384.846985,346.758698L384.570007,346.8078L384.549561,346.810852L384.28302,346.843323L384.260864,346.845398L384.004395,346.86145L383.97998,346.862183L383.733826,346.861694L383.707092,346.860718L383.471313,346.843567L383.442719,346.840393L383.217041,346.806732L383.18689,346.800995L382.971619,346.750793L382.940369,346.742035L382.735352,346.675262L382.699463,346.66153L382.657654,346.639893L380.241028,345.191101L380.209167,345.169678L380.179504,345.145142L380.152618,345.117767L380.12854,345.08786L380.107605,345.055634L380.090088,345.021454L380.076111,344.985596L380.065796,344.948608L380.059326,344.910797L380.056671,344.872375L380.057983,344.834076L380.06311,344.79599L380.071991,344.758545L380.084778,344.722321L380.101074,344.687531L380.120758,344.654572L380.143616,344.623688L380.169617,344.595367L380.198334,344.569824L380.22934,344.547333L380.233704,344.544769L380.185791,344.544769L380.169739,344.544403L380.029053,344.53833L379.983704,344.533569L379.89386,344.518738L379.848969,344.508545L379.756775,344.481537L379.718018,344.467926L379.623657,344.428772L379.590942,344.41333L379.494385,344.362L379.467499,344.346191L379.368652,344.282715L379.346252,344.267273L379.245209,344.19162L379.226959,344.177032L379.123718,344.089355L379.108398,344.075623L379.002991,343.9758L378.98584,343.958527L378.900696,343.866821L378.880402,343.842987L378.802795,343.744263L378.785187,343.71994L378.715027,343.61438L378.699463,343.588837L378.636841,343.476349L378.623932,343.45108L378.568726,343.331665L378.558044,343.306122L378.510498,343.179901L378.502319,343.155701L378.462219,343.022522L378.455994,342.999298L378.423279,342.859222L378.418671,342.836609L378.393616,342.689575L378.390686,342.669037L378.373047,342.515076L378.371368,342.496002L378.361145,342.335236L378.360413,342.316986L378.357849,342.149292L378.357971,342.132874L378.362854,341.958252L378.363586,341.942932L378.375977,341.761505L378.377197,341.74765L378.397034,341.559265L378.398621,341.546387L378.425232,341.356201L378.446167,341.173553L378.447845,341.1604L378.47644,340.969971L378.478638,340.957092L378.514496,340.763489L378.516785,340.751831L378.559723,340.55484L378.562531,340.543274L378.612854,340.342865L378.615662,340.332306L378.673065,340.128723L378.676086,340.1185L378.740784,339.91156L378.743835,339.902069L378.815704,339.691681L378.81897,339.682434L378.898132,339.468903L378.901428,339.46051L378.987793,339.243439L378.99118,339.235321L379.084808,339.015076L379.087952,339.007782L379.18866,338.784149L379.1922,338.776611L379.300293,338.549835L379.303345,338.543396L379.418488,338.313049L379.421875,338.306488L379.544373,338.073029L379.547516,338.067169L379.644073,337.890869L379.67215,337.691681L379.677246,337.66333L379.737335,337.390198L379.743896,337.364441L379.825989,337.085724L379.833771,337.062134L379.93811,336.777924L379.946594,336.756897L380.073212,336.467133L380.082092,336.448151L380.230927,336.152893L380.239929,336.136108L380.411011,335.835266L380.420013,335.820313L380.613373,335.513977L380.635498,335.482605L380.660675,335.453552L380.68866,335.427277L380.719177,335.403931L380.751892,335.383759L380.786407,335.366974L380.82251,335.353821L380.859741,335.344482L380.897797,335.338745L380.936096,335.337067L380.974548,335.339111L381.012451,335.345215L381.039001,335.352142L381.027435,335.294373L381.022217,335.259583L381.011505,335.157562L381.00943,335.124725L381.007507,335.016998L381.008118,334.988525L381.014526,334.875458L381.016968,334.848938L381.032166,334.730255L381.03595,334.706909L381.059784,334.582611L381.06427,334.562317L381.096619,334.432556L381.101624,334.414337L381.142578,334.279114L381.147827,334.263062L381.197449,334.122223L381.202789,334.10788L381.261047,333.961609L381.266266,333.949188L381.333008,333.797424L381.337036,333.788666L381.490845,333.461914L381.50061,333.442719L381.677643,333.116089L381.687744,333.09845L381.888123,332.771698L381.898621,332.755768L382.122345,332.429016L382.132813,332.414429L382.379913,332.087677L382.390137,332.074677L382.660583,331.747803L382.670776,331.736115L382.964478,331.409363L382.974182,331.398804L383.291077,331.07193L383.303833,331.059387L383.639709,330.744202L383.649109,330.735687L383.981689,330.443726L383.992126,330.434967L384.321411,330.166229L384.332886,330.157227L384.658752,329.911591L384.671753,329.902222L384.994385,329.679688L385.00885,329.670197L385.328064,329.470886L385.344238,329.461273L385.660156,329.285187L385.678162,329.275848L385.990692,329.122864L386.02594,329.107666L386.062683,329.096222L386.10025,329.088562L386.1427,329.084442L387.789795,329.020233L387.769623,329.009033L387.738007,328.987152L387.708832,328.962219L387.682312,328.934387L387.658844,328.904083L387.638428,328.87149L387.621399,328.837097L387.608032,328.800964L387.598297,328.763885L387.592468,328.725952L387.590393,328.687531L387.592224,328.6492L387.597931,328.611145L387.607544,328.573944L387.620789,328.537933L387.637573,328.503418L387.657776,328.470703L387.681213,328.440308L387.707611,328.412323L387.736694,328.387268L387.778015,328.359192L388.078369,328.183228L388.092712,328.175201L388.389832,328.017975L388.405518,328.010193L388.69928,327.871674L388.716431,327.864136L389.006836,327.744354L389.025574,327.737183L389.312653,327.636139L389.332947,327.629578L389.616669,327.547363L389.638428,327.541779L389.918854,327.47818L389.942078,327.473663L390.158539,327.43866L390.58548,327.215881L390.59729,327.210022L391.064362,326.986511L391.077393,326.98056L391.529968,326.784668L391.544678,326.778595L391.982849,326.610291L391.994995,326.605896L392.208649,326.532104L392.217407,326.529175L392.427551,326.46228L392.436646,326.459503L392.643127,326.399414L392.653259,326.396637L392.856079,326.343597L392.866272,326.341187L393.065491,326.294952L393.076416,326.292542L393.271973,326.253265L393.283508,326.25119L393.475525,326.218719L393.488037,326.216766L393.676392,326.191345L393.690277,326.189789L393.882385,326.171051L393.895416,326.169952L394.08075,326.158295L394.094238,326.157684L394.273132,326.152802L394.28772,326.152679L394.459778,326.154633zM381.798645,336.090271L381.869537,336.113983L381.957214,336.136108L382.044159,336.151428L382.17804,336.159088L382.328613,336.154602L382.492981,336.136597L382.665802,336.10498L382.851868,336.058899L382.894409,336.045776L381.798645,336.090271zM396.747131,329.464569L396.743011,329.482819L396.668823,329.774048L396.664215,329.790344L396.571899,330.095337L396.567291,330.109558L396.456879,330.428406L396.452393,330.440796L396.324097,330.773376L396.31958,330.784576L396.173157,331.131012L395.990173,331.568787L395.984558,331.581329L395.780029,332.024689L395.774445,332.036499L395.549103,332.483978L395.543396,332.494934L395.297272,332.946564L395.291443,332.956787L395.024384,333.412445L395.018677,333.421783L394.730957,333.881714L394.72525,333.890564L394.416626,334.354614L394.411011,334.362885L394.081604,334.831177L394.075989,334.838837L393.725769,335.311157L393.720428,335.318329L393.349426,335.794769L393.344055,335.801331L392.952148,336.282043L392.947021,336.288239L392.534424,336.772949L392.529327,336.778778L392.095825,337.267639L392.090942,337.27298L391.636627,337.766083L391.631897,337.771088L391.156799,338.268188L391.152283,338.272949L390.65625,338.774292L390.651398,338.779053L390.177002,339.24176L390.17157,339.246979L389.69873,339.690094L389.693054,339.695465L389.221924,340.118988L389.215759,340.124481L388.746338,340.52832L388.739685,340.533905L388.271851,340.918182L388.264923,340.923767L387.798828,341.288574L387.791138,341.294434L387.32663,341.639404L387.318726,341.645142L386.856018,341.970673L386.847504,341.976501L386.386383,342.28244L386.377136,342.2883L385.917603,342.574554L385.90802,342.580383L385.450165,342.847046L385.439941,342.852783L384.983826,343.100006L384.97287,343.105713L384.518311,343.333221L384.506775,343.338715L384.053894,343.546631L384.041748,343.552002L383.590454,343.740356L383.577698,343.745453L383.128235,343.914246L383.121948,343.916565L382.893921,343.997559L382.888458,343.999512L382.666168,344.074646L382.660583,344.076477L382.444214,344.145905L382.438049,344.147858L382.227539,344.211456L382.220978,344.213287L382.016296,344.271149L382.009155,344.273224L381.810181,344.325287L381.802551,344.327087L381.609558,344.373322L381.601135,344.375244L381.413879,344.415619L381.405151,344.41745L381.223694,344.452118L381.213989,344.453796L381.038391,344.482635L381.027802,344.484222L380.858032,344.507202L380.846863,344.508545L380.745056,344.519226L380.865692,344.528595L381.058929,344.53418L381.259827,344.53067L381.462524,344.518005L381.672913,344.49588L381.889832,344.464264L382.111023,344.423279L382.338074,344.372589L382.570709,344.312256L382.80954,344.241852L383.050537,344.162811L383.300201,344.072815L383.552673,343.973969L383.813843,343.8638L384.083191,343.742432L384.4935,343.552002L384.905884,343.344421L385.326599,343.116302L385.750763,342.8703L386.179291,342.605927L386.611603,342.323547L387.052795,342.019653L387.48642,341.706055L390.970856,338.73175L393.962891,335.267609L394.286987,334.827667L394.601318,334.378082L394.889404,333.942749L395.162048,333.505219L395.411682,333.077667L395.643616,332.651184L395.854218,332.232391L396.044159,331.820526L396.160278,331.544708L396.26886,331.269165L396.365784,331.005768L396.452759,330.749786L396.532166,330.494415L396.601227,330.247925L396.662262,330.002533L396.71225,329.771973L396.754944,329.537537L396.786926,329.318024L396.798828,329.209564L396.747131,329.464569zM386.157623,329.46405L387.970001,329.393341C388.278076,329.699493,388.2547,330.300476,387.899292,331.195007C387.496552,331.996094,386.845062,332.843872,385.944855,333.738403C385.09201,334.610199,384.239166,335.24588,383.386322,335.646118L381.644623,335.716827C381.289215,335.363922,381.301208,334.774963,381.680603,333.9505C382.059357,333.079346,382.6875,332.208191,383.56369,331.336395C384.463898,330.46524,385.328735,329.840912,386.157623,329.46405zM396.392487,331.972107C397.055298,330.441895,397.31604,329.134521,397.173981,328.051239L398.630981,330.594666C399.033722,331.677917,398.737671,333.185394,397.742767,335.116486C396.723907,337.070892,395.231567,339.02597,393.265137,340.980408C391.322693,342.911469,389.356293,344.383606,387.365875,345.396149C385.423431,346.408722,383.919098,346.714905,382.852875,346.314667L380.436371,344.865906C381.502594,345.031281,382.770203,344.77182,384.239166,344.088806C385.352722,343.594513,386.513031,342.899475,387.721283,342.004944L391.23938,339.001984L394.26004,335.5047C395.184204,334.280029,395.89502,333.102722,396.392487,331.972107zM388.432098,331.407104C388.740143,330.771423,388.846832,330.229767,388.752136,329.782196C388.728149,329.452667,388.610107,329.181854,388.396729,328.969757C388.278076,328.828339,388.136017,328.734283,387.970001,328.686951C388.775513,328.192657,389.545654,327.898468,390.279846,327.803772C391.582794,327.097382,392.73233,326.68515,393.727234,326.567749C394.76947,326.449707,395.527618,326.626465,396.001068,327.097382C396.711914,327.803772,396.652557,329.099152,395.8237,330.983521C394.899506,333.314819,393.087128,335.822876,390.386536,338.50769C387.851959,341.02774,385.388092,342.711365,382.994934,343.559143C381.763306,344.006714,380.780396,344.206848,380.045593,344.159485C379.808868,344.136139,379.548157,343.982727,379.264099,343.700562C378.790009,343.229614,378.635956,342.463898,378.802002,341.403992C378.896667,340.415405,379.299438,339.28479,380.010254,338.012756C380.081573,337.306366,380.389008,336.54126,380.934448,335.716827L381.183167,336.141022C381.395905,336.352509,381.66861,336.482544,382.000031,336.529266C382.450134,336.57663,382.994934,336.458557,383.63504,336.176392C384.558594,335.752167,385.482788,335.081116,386.406952,334.162628C387.354492,333.220764,388.029327,332.302246,388.432098,331.407104z"/>
</svg>
