<?xml version="1.0" encoding="UTF-8"?>
<svg xmlns="http://www.w3.org/2000/svg" xmlns:xlink="http://www.w3.org/1999/xlink" width="23.075mm" height="14.623mm" viewBox="-369.236969 329.196930 23.074799 14.622589">
    <path transform="matrix(-1,0,0,1,0,0)" style="stroke:none;fill:#000000;fill-rule:evenodd" d="M354.419922,329.198364L354.457977,329.203735L354.4953,329.21286L354.52002,329.221222L354.806274,329.328979L354.841522,329.344299L354.875092,329.363159L354.906464,329.385284L354.940979,329.415802L355.008972,329.483765L362.338135,329.483765L362.376587,329.485718L362.41452,329.491577L362.451721,329.50116L362.487732,329.514435L362.522278,329.531342L362.55484,329.551636L362.585266,329.575226L362.613098,329.601624L362.638153,329.630798L362.660034,329.662292L362.678772,329.695862L362.680237,329.699371L368.857452,329.699371L368.895874,329.701324L368.933838,329.707153L368.971008,329.716766L369.007019,329.730042L369.041565,329.746918L369.074158,329.767242L369.104553,329.790833L369.132385,329.81723L369.15744,329.846405L369.179321,329.877899L369.198059,329.911469L369.213257,329.946716L369.224792,329.983459L369.232605,330.021027L369.236481,330.059204L369.236969,330.078918L369.236969,332.269836L369.235046,332.308258L369.229187,332.346222L369.219604,332.383423L369.206329,332.419403L369.189423,332.453949L369.169128,332.486542L369.145508,332.516937L369.119141,332.5448L369.089966,332.569855L369.058472,332.591736L369.024902,332.610443L368.989624,332.625641L368.952911,332.637207L368.915344,332.644989L368.877136,332.648895L368.857452,332.649384L362.595337,332.649384L361.831299,334.565613L361.806763,334.61618L361.555511,335.047272L361.534485,335.079376L361.510254,335.109283L361.496399,335.123993L360.851929,335.770569L360.823334,335.796478L360.79245,335.819214L360.759369,335.838806L360.724487,335.854858L360.679108,335.869934L359.874573,336.080414L359.785339,336.114471L359.692657,336.154724L359.620911,336.190826L359.56485,336.224152L359.522766,336.254181L359.493103,336.780731L359.48642,336.833618L359.307312,337.732147L359.297913,337.769501L359.286011,337.802704L359.223145,337.95517L359.211365,337.980957L359.139343,338.124207L359.124756,338.150482L359.043518,338.284485L359.026154,338.310638L358.935669,338.435272L358.915741,338.460571L358.81604,338.575958L358.79364,338.599548L358.68457,338.705841L358.66037,338.7276L358.542175,338.824524L358.516632,338.843628L358.389191,338.931305L358.362793,338.947968L358.226135,339.026276L358.199951,339.039886L358.054047,339.10907L358.028259,339.120148L357.873108,339.180084L357.847931,339.188843L357.683533,339.239441L357.659912,339.24588L357.486145,339.287354L357.463806,339.291962L357.280884,339.324066L357.260101,339.327118L357.067963,339.349976L357.048767,339.351807L356.847382,339.365417L356.819275,339.366272L356.480255,339.364075L356.453369,339.362976L356.134399,339.338318L356.104492,339.334778L355.805725,339.287598L355.77301,339.280914L355.494293,339.211365L355.458923,339.200653L355.200378,339.108582L355.163513,339.093262L354.925049,338.978851L354.887482,338.95816L354.669067,338.821136L354.632965,338.795349L354.434753,338.635925L354.406067,338.610382L354.380157,338.582062L354.365814,338.563568L353.685547,337.629395L353.66452,337.59729L353.648834,337.567505L353.404053,337.046692L352.906311,336.690247L352.139709,337.019806L352.054504,337.08194L351.951599,337.170349L351.850677,337.271515L351.753387,337.384247L351.659882,337.508667L351.567688,337.648987L351.481628,337.798553L351.397095,337.965149L351.334961,338.09613L351.282043,338.227814L351.233032,338.373505L351.190002,338.528412L351.152893,338.690765L351.121277,338.865509L351.094788,339.056427L351.075073,339.251709L351.06134,339.459167L351.054047,339.676361L351.052979,339.907043L351.058167,340.140289L351.070221,340.394562L351.088226,340.649567L351.113281,340.919525L351.144775,341.198853L351.501312,343.378723L351.505554,343.416901L351.506042,343.455322L351.502533,343.493622L351.495239,343.531311L351.484039,343.568054L351.46933,343.603546L351.450958,343.63736L351.429321,343.669098L351.404633,343.698517L351.377136,343.725281L351.346985,343.749115L351.314636,343.769775L351.280334,343.787048L351.244476,343.800812L351.207397,343.810883L351.169434,343.817078L351.12677,343.819519L346.541687,343.819519L346.503296,343.817566L346.465332,343.811737L346.428101,343.802124L346.39212,343.788879L346.357605,343.771973L346.325012,343.751678L346.294617,343.728088L346.266754,343.701691L346.241699,343.672516L346.219818,343.641022L346.201111,343.607452L346.185883,343.572174L346.174316,343.535461L346.166565,343.497894L346.162659,343.459686L346.16217,343.440002L346.16217,341.608765L346.163025,341.583954L346.198181,341.047455L346.19928,341.034058L346.251312,340.519928L346.252991,340.505463L346.321838,340.013824L346.324402,339.99826L346.410126,339.528992L346.413513,339.512329L346.516052,339.065552L346.520538,339.047791L346.639709,338.623383L346.645691,338.604309L346.781738,338.202515L346.789185,338.182465L346.941895,337.80307L346.951874,337.780304L347.170776,337.325165L347.176819,337.313232L347.403503,336.881653L347.410431,336.868896L347.64502,336.460907L347.653015,336.447662L347.895386,336.063263L347.90451,336.04953L348.154663,335.688599L348.1651,335.674255L348.423035,335.337067L348.434937,335.322205L348.700775,335.008606L348.714172,334.993652L348.862366,334.836548L348.748444,334.03833L348.73288,333.984467L348.725342,333.953217L348.710266,333.877441L348.704895,333.841461L348.697632,333.768982L348.695679,333.727631L348.696289,333.658569L348.69931,333.613678L348.707703,333.548035L348.717072,333.500122L348.733368,333.437836L348.749298,333.389801L348.773499,333.330841L348.796234,333.28476L348.828339,333.229309L348.849243,333.197083L348.873352,333.167145L348.900208,333.139801L348.931702,333.113892L349.468445,332.718567L349.500549,332.697388L349.54895,332.673218L349.584351,332.6586L349.608185,332.643646L349.65271,332.607178L349.713867,332.546967L349.787048,332.464783L349.869141,332.362396L349.961914,332.236511L350.162231,331.945892L350.178619,331.923767L350.282227,331.794617L350.302063,331.771881L350.408936,331.658417L350.433624,331.63446L350.543945,331.536804L350.573853,331.51297L350.687531,331.431152L350.722198,331.408875L350.801483,331.363892L350.692749,331.019623L350.683044,330.982422L350.677185,330.944489L350.67514,330.906189L350.676941,330.867737L350.682678,330.829803L350.692261,330.792603L350.705536,330.75647L350.722321,330.721954L350.742615,330.689362L350.765991,330.658844L350.792358,330.630981L350.821533,330.605804L350.852905,330.583801L350.886475,330.565094L350.921753,330.549744L350.958344,330.538208L350.995911,330.530304L351.034241,330.526276L351.054657,330.525787L353.577209,330.525787L353.577209,330.078918L353.579163,330.040466L353.584991,330.002533L353.594604,329.965332L353.607849,329.929321L353.616852,329.910004L353.795227,329.551025L353.814087,329.517578L353.836121,329.486084L353.861267,329.457031L353.889343,329.430756L353.919769,329.40741L353.946899,329.390381L354.19812,329.246887L354.232422,329.229492L354.26828,329.215759L354.305359,329.205658L354.343201,329.199341L354.381622,329.19693L354.419922,329.198364zM351.054199,330.904755L351.269745,331.587006C350.935455,331.659088,350.636902,331.897949,350.373993,332.305664C350.087097,332.736023,349.860596,332.975586,349.693115,333.023621L349.156342,333.418976C349.060272,333.562439,349.048584,333.742279,349.119965,333.957794L349.263428,334.963348C348.523499,335.705322,347.866638,336.699219,347.293518,337.944336C346.863831,338.925842,346.61261,340.147614,346.541229,341.608246L346.541229,343.439514L351.126282,343.439514L350.767975,341.248596C350.577179,339.692535,350.672577,338.542847,351.054199,337.800873C351.29306,337.29776,351.591644,336.927094,351.949951,336.687561L352.952759,336.2565L353.705017,336.795319L353.991943,337.405518L354.67215,338.339691C355.173889,338.794769,355.890472,339.010284,356.821228,338.986267C357.920135,338.938202,358.624359,338.495483,358.934601,337.65741L359.113739,336.758942L359.150116,336.112366C359.221527,335.968903,359.424683,335.837128,359.758942,335.717682L360.582611,335.502167L361.227142,334.855591L361.478363,334.42453L362.337708,332.269287L368.856995,332.269287L368.856995,330.078339L362.337708,330.078339L362.337708,329.862823L354.851288,329.862823L354.67215,329.683685L354.385925,329.575897L354.134705,329.71936L353.956238,330.078339L353.956238,330.904755L351.054199,330.904755M355.209595,335.933228L356.642761,335.825439L357.931793,335.933228C358.266052,336.052643,358.433533,336.327881,358.433533,336.758942C358.433533,337.21402,358.242035,337.609375,357.860413,337.944336C357.502106,338.303314,357.048401,338.483124,356.499298,338.483124C355.973541,338.483124,355.532196,338.303314,355.173889,337.944336C354.815613,337.609375,354.636444,337.21402,354.636444,336.758942C354.636444,336.327881,354.827271,336.052643,355.209595,335.933228zM355.294495,336.307953L355.239655,336.329224L355.175812,336.365814L355.128998,336.404358L355.093506,336.446686L355.06369,336.499237L355.039978,336.565735L355.023315,336.652191L355.016998,336.761536L355.023315,336.888611L355.042297,337.011047L355.073669,337.127655L355.11731,337.240021L355.174835,337.350555L355.245117,337.45697L355.331482,337.563019L355.438721,337.672211L355.55426,337.777771L355.671692,337.865814L355.790527,337.937317L355.918091,337.997131L356.05014,338.043091L356.191559,338.076538L356.340271,338.096863L356.500305,338.10379L356.667297,338.096863L356.827209,338.075806L356.973602,338.042267L357.111755,337.995667L357.241608,337.936218L357.363953,337.863861L357.481171,337.777161L357.604248,337.665161L357.720001,337.554382L357.811951,337.448456L357.888306,337.340118L357.948608,337.231262L357.994324,337.121094L358.027161,337.006439L358.047119,336.886169L358.053925,336.75824L358.048218,336.646973L358.032532,336.553955L358.010132,336.482452L357.983154,336.42807L357.952393,336.386261L357.915771,336.351715L357.867615,336.320221L357.836975,336.30661L356.641602,336.206757L355.294495,336.307953z"/>
</svg>
