<?xml version="1.0" encoding="UTF-8"?>
<svg xmlns="http://www.w3.org/2000/svg" xmlns:xlink="http://www.w3.org/1999/xlink" width="23.359mm" height="7.436mm" viewBox="-338.308411 332.790192 23.358887 7.436188">
    <path transform="matrix(-1,0,0,1,0,0)" style="stroke:none;fill:#000000;fill-rule:evenodd" d="M320.558502,332.791534L320.596558,332.796753L320.633911,332.805756L320.670135,332.818512L320.704895,332.83493L320.737854,332.854645L320.768616,332.877747L320.796844,332.903778L320.822388,332.932465L320.842346,332.959686L320.867859,332.998138L320.899719,332.987793L320.937195,332.979767L320.975342,332.975525L321.013794,332.975037L321.038208,332.976837L323.794739,333.267242L323.832703,333.273193L323.869904,333.282928L323.905884,333.296417L323.940308,333.313446L323.97934,333.338623L324.267639,333.549957L324.297455,333.574158L324.324707,333.601288L324.348999,333.631073L324.370178,333.663177L324.388062,333.697113L324.401672,333.730927L324.436218,333.829773L324.448486,333.873322L324.473175,333.985443L324.474396,333.992615L324.754333,334.02774L325.39093,333.954041L325.429321,333.951508L325.477966,333.953918L326.396332,334.059723L326.434265,334.06604L326.471375,334.076263L326.498596,334.086365L327.21875,334.385742L327.803406,334.479858L329.097168,334.503571L329.125244,334.488617L329.166962,334.469543L329.302551,334.417236L329.337708,334.405579L329.493835,334.362274L329.523254,334.355469L329.700073,334.321289L329.724243,334.317413L329.921509,334.292358L329.941223,334.290283L330.158875,334.274109L330.175781,334.273254L330.414124,334.266205L330.427979,334.266083L330.686768,334.267914L330.726166,334.270233L331.729736,334.382233L331.738159,334.375763L331.852692,334.295532L331.885284,334.275085L331.903046,334.265717L332.041321,334.197754L332.085571,334.179382L332.247559,334.12381L332.284637,334.113098L332.470459,334.069824L332.501221,334.063995L332.710876,334.033112L332.736267,334.030304L332.969604,334.01181L332.990417,334.010712L333.247498,334.004517L333.269135,334.004639L334.056396,334.03067L334.071594,334.031403L334.438843,334.058258L334.476898,334.063019L334.514343,334.071655L334.550842,334.083923L334.585754,334.099854L334.618958,334.119202L334.661743,334.151794L334.871765,334.336365L334.899231,334.363129L334.92392,334.392548L334.945435,334.424286L334.963806,334.458099L334.984009,334.510284L335.08905,334.853424L335.098419,334.890778L335.101685,334.913391L337.833191,334.201263L337.870728,334.193481L337.908936,334.189484L337.947357,334.189484L337.985657,334.193237L338.023254,334.200897L338.059967,334.212341L338.095215,334.227417L338.128906,334.245911L338.160522,334.267792L338.189697,334.292847L338.216217,334.320557L338.239807,334.350861L338.260254,334.383423L338.277283,334.417847L338.290649,334.453857L338.300354,334.491058L338.306335,334.528992L338.308411,334.567291L338.30658,334.605743L338.300842,334.643799L338.289673,334.686218L337.738434,336.375427L337.724701,336.411316L337.707428,336.445587L337.686768,336.478058L337.662781,336.508087L337.643219,336.5289L337.572693,336.597961L337.553467,336.615479L337.473083,336.684052L337.455811,336.697937L337.365601,336.766266L337.349182,336.778046L337.249084,336.845795L337.234985,336.854919L337.125061,336.922394L337.111816,336.930176L336.992035,336.997192L336.97998,337.003632L336.850372,337.07016L336.840027,337.075256L336.700562,337.141541L336.690582,337.146027L336.54126,337.211823L336.532379,337.215576L336.373322,337.280884L336.365662,337.284058L336.196747,337.349121L336.188965,337.351898L336.010071,337.416351L336.003784,337.418671L335.815155,337.48288L335.808838,337.484955L335.610352,337.548676L335.604675,337.550476L335.396362,337.613708L335.391235,337.615173L335.173218,337.67804L335.168579,337.679382L334.719025,337.802948L334.707703,337.805847L334.2388,337.919312L334.228088,337.921753L333.739624,338.025116L333.729645,338.027039L333.221832,338.120331L333.212341,338.121887L332.684937,338.205078L332.676086,338.206421L332.129211,338.27951L332.120972,338.280487L331.554626,338.343475L331.546875,338.34433L330.96109,338.397217L330.953674,338.397705L330.34845,338.440369L330.341522,338.440857L329.716858,338.473572L329.710388,338.473816L329.066162,338.496429L329.059937,338.496674L328.39624,338.509216L328.390381,338.509216L327.707214,338.511627L327.701752,338.511627L326.999146,338.503967L326.993896,338.503845L326.27182,338.485992L326.266968,338.48587L326.189484,338.482941L326.529724,339.112488L326.546265,339.147156L326.559143,339.18338L326.56842,339.220581L326.573761,339.258667L326.575317,339.297089L326.573029,339.335388L326.566711,339.373322L326.556732,339.410431L326.542969,339.446289L326.525726,339.480591L326.512085,339.502838L326.249817,339.898163L326.226929,339.929047L326.201172,339.957397L326.172485,339.983154L326.141449,340.005798L326.108398,340.025116L326.073364,340.041168L326.036987,340.053467L325.999542,340.062103L325.961487,340.066833L325.923035,340.067688L325.884766,340.064636L325.846924,340.057831L325.798889,340.043121L324.617615,339.594879L324.582367,339.579437L324.54895,339.560608L324.517578,339.53833L324.495544,339.519623L324.000366,339.065063L323.464844,339.065063L322.841492,340.049805L322.819366,340.081177L322.794189,340.11026L322.766113,340.136505L322.735596,340.159851L322.702881,340.179932L322.668213,340.196594L322.63208,340.209717L322.594879,340.219086L322.556824,340.22467L322.520813,340.226379L321.129578,340.226379L321.091125,340.224426L321.053192,340.218597L321.015991,340.208984L320.97998,340.19574L320.945435,340.178833L320.912842,340.158508L320.882446,340.134918L320.85498,340.108917L320.337677,339.566803L318.347626,339.566803L318.309204,339.56485L318.27124,339.559021L318.23407,339.549408L318.198059,339.536163L318.163513,339.519257L318.13092,339.498932L318.100525,339.475342L318.072693,339.448975L318.047607,339.419769L318.025757,339.388275L318.007019,339.354736L317.991821,339.319458L317.980255,339.282745L317.972473,339.245148L317.968567,339.20697L317.968079,339.187286L317.968079,338.765076L317.970032,338.726624L317.975891,338.68869L317.985474,338.651489L317.998749,338.615479L318.015656,338.580963L318.03595,338.54837L318.05954,338.517975L318.085938,338.490112L318.115112,338.465057L318.146606,338.443176L318.180176,338.424438L318.215454,338.409241L318.252167,338.397705L318.289734,338.389923L318.327942,338.386017L318.347626,338.385529L320.575897,338.385529L320.498535,338.212494L315.356659,338.589111L315.318237,338.589966L315.279907,338.586914L315.242126,338.579987L315.205261,338.569397L315.169617,338.555054L315.13559,338.53717L315.103607,338.5159L315.073792,338.491577L315.046692,338.464325L315.022491,338.43454L315.001465,338.402435L314.983704,338.368286L314.969604,338.332642L314.959015,338.295685L314.952332,338.257843L314.949524,338.20166L315.002319,335.958557L315.005096,335.920258L315.01178,335.882324L315.022369,335.84549L315.036499,335.809723L315.05423,335.775665L315.075256,335.743469L315.099487,335.713654L315.126587,335.686432L315.15625,335.662109L315.188354,335.640808L315.22229,335.622955L315.257935,335.608582L315.294891,335.598022L315.332703,335.591095L315.381714,335.587921L319.822327,335.587921L319.822083,335.587433L319.806152,335.552429L319.793732,335.516052L319.78241,335.459991L319.729553,335.037903L319.726746,334.999603L319.727234,334.96933L319.806152,333.570404L319.810272,333.532227L319.818176,333.494629L319.82489,333.472137L319.929932,333.155731L319.943787,333.119965L319.961304,333.085815L319.982239,333.053467L320.006165,333.023529L320.033173,332.996063L320.062744,332.971497L320.094604,332.950104L320.135071,332.928925L320.371094,332.823273L320.40686,332.809387L320.44397,332.799194L320.48175,332.792725L320.520081,332.790192L320.558502,332.791534zM324.752838,334.410309L324.122742,334.33139C324.122742,334.137817,324.096649,333.979248,324.043793,333.856384L323.755524,333.644989L320.998993,333.354645L320.736786,333.48645L320.526764,333.170013L320.290649,333.275726L320.185638,333.592133L320.106689,334.990997L320.159546,335.413116L320.342804,335.597748L320.631775,335.387024L320.867889,335.597748L321.7341,335.677368L321.603027,335.967712L315.382294,335.967712L315.329437,338.210815L320.736786,337.814789L320.9729,338.342621L321.7341,338.289764L321.550171,338.765442L318.348175,338.765442L318.348175,339.187561L320.500671,339.187561L321.130096,339.847168L322.521393,339.847168L323.2565,338.685822L324.148804,338.685822L324.752838,339.240417L325.934113,339.688629L326.196289,339.293274L325.540131,338.079041C329.547241,338.254761,332.723145,337.99942,335.068512,337.313721C336.258026,336.979462,337.028168,336.62735,337.378204,336.258057L337.929382,334.568878L334.385559,335.492737L334.385559,335.43988C334.473419,335.43988,334.543427,335.387024,334.595612,335.281342L334.726715,334.964905L334.621674,334.621704L334.411652,334.437073L334.044434,334.410309L333.257141,334.384216C332.539886,334.384216,332.075897,334.516022,331.865845,334.779602L330.68457,334.647797C329.967316,334.630646,329.468292,334.709564,329.188934,334.885284L327.770874,334.859222L327.114685,334.75351L326.353485,334.437073L325.435089,334.33139L324.752838,334.410309M333.729401,335.387024L333.729401,335.650604L332.259827,335.940948L332.259827,335.545593L332.784912,335.413116L333.729401,335.387024zM326.590302,336.073425L326.590302,335.545593L326.905334,335.677368L328.479919,335.940948L328.479919,336.258057L328.453827,336.258057L327.508667,336.152344L326.590302,336.073425zM325.934113,336.020569L325.382935,335.914856L324.306671,336.099518L324.043793,335.597748L324.069885,335.334198L324.936096,335.413116L325.540131,335.307404L325.934113,335.334198L325.934113,336.020569zM331.603638,335.703461L331.603638,336.099518L330.894623,336.231293L330.264526,336.178436L329.661194,336.178436L329.16217,336.231293L329.16217,336.020569C329.285034,336.03772,329.372223,335.976654,329.425049,335.835938C329.53009,335.712372,329.792267,335.642365,330.212341,335.624542L331.603638,335.703461z"/>
</svg>
