<?xml version="1.0" encoding="UTF-8"?>
<svg xmlns="http://www.w3.org/2000/svg" xmlns:xlink="http://www.w3.org/1999/xlink" width="23.226mm" height="16.573mm" viewBox="-462.498779 264.306854 23.225708 16.573364">
    <path transform="matrix(-1,0,0,1,0,0)" style="stroke:none;fill:#000000;fill-rule:evenodd" d="M461.7547,264.308807L461.792664,264.314636L461.829834,264.324249L461.849426,264.330933L462.142639,264.440735L462.177856,264.456055L462.211304,264.474792L462.242798,264.496796L462.271851,264.521973L462.298279,264.549927L462.321594,264.580322L462.341919,264.613037L462.365051,264.663269L462.474854,264.957062L462.486389,264.993652L462.494263,265.031372L462.498291,265.06955L462.498779,265.089966L462.498779,267.10788L462.496826,267.146301L462.491028,267.184235L462.481384,267.221436L462.474854,267.240784L462.365051,267.534576L462.34967,267.569855L462.330994,267.603271L462.30896,267.634766L462.283813,267.663849L462.25592,267.690216L462.225525,267.713715L462.19281,267.734009L462.142639,267.757111L461.849426,267.866913L461.812805,267.878601L461.775146,267.886383L461.736938,267.890503L461.716248,267.890991L461.707764,267.890991L461.638916,267.930389L461.583862,268.04129L461.583862,269.052429L461.581909,269.090851L461.57605,269.128815L461.566467,269.166016L461.559875,269.185364L461.450073,269.479156L461.434753,269.514404L461.416016,269.547852L461.394043,269.579346L461.368835,269.608398L461.341003,269.634796L461.310608,269.658264L461.277893,269.678558L461.227905,269.701569L460.935425,269.811371L460.898865,269.823029L460.861267,269.830933L460.823059,269.834961L460.802063,269.835571L456.123596,269.835571L455.942261,269.840424L455.800964,269.85321L455.694702,269.872162L455.647644,269.886627L455.61676,270.170715L455.613586,270.193573L455.557007,270.524811L455.552185,270.548645L455.476196,270.868591L455.469482,270.893158L455.374023,271.201538L455.365417,271.226227L455.250488,271.523193L455.239868,271.547852L455.10553,271.833405L455.09314,271.857483L454.939392,272.131561L454.925171,272.154907L454.751892,272.41745L454.743164,272.430115L454.596008,272.634521L454.580811,272.654205L454.423218,272.845367L454.406189,272.864716L454.237854,273.042755L454.219299,273.061096L454.040527,273.225891L454.020447,273.243134L453.830994,273.394775L453.809814,273.410461L453.609924,273.548859L453.588013,273.562958L453.37738,273.688324L453.354919,273.700745L453.13385,273.812744L453.111328,273.823181L452.8797,273.92218L452.857178,273.930939L452.614807,274.016663L452.592834,274.023712L452.340027,274.096191L452.318848,274.101654L452.055481,274.161011L452.035156,274.165009L451.761047,274.211243L451.741577,274.213898L451.457031,274.246857L451.438782,274.248566L451.143555,274.268372L451.126282,274.269104L450.820557,274.275696L450.765869,274.27301L448.414246,273.982483L448.395935,274.002441L448.349487,274.072968L448.293884,274.184479L448.235657,274.332214L448.175903,274.518402L446.568237,280.272705L446.55603,280.309052L446.540222,280.344086L446.511536,280.391022L446.328308,280.647705L446.304443,280.677887L446.27771,280.705353L446.248169,280.730042L446.216431,280.751678L446.182617,280.769928L446.147095,280.784637L446.10199,280.797668L445.772461,280.871094L445.734619,280.877563L445.696167,280.880219L445.657898,280.878876L445.622986,280.874268L439.878662,279.84671L439.841309,279.838074L439.804993,279.825684L439.769958,279.809631L439.724609,279.781769L439.468628,279.598511L439.438599,279.574554L439.411072,279.547699L439.386414,279.51825L439.364868,279.486389L439.346619,279.452606L439.331909,279.417084L439.320984,279.380371L439.312988,279.337433L439.275879,279.04364L439.273071,279.005341L439.274048,278.966919L439.278931,278.928864L439.287659,278.891388L439.29364,278.872559L441.754028,271.724792L441.736511,271.565247L441.638611,271.408264L439.760315,270.057983L439.730286,270.034027L439.702942,270.007141L439.678284,269.9776L439.659912,269.950714L439.476624,269.656921L439.457886,269.623352L439.44281,269.587982L439.431274,269.551361L439.421448,269.49762L439.385071,269.16748L439.382751,269.129059L439.384338,269.090729L439.389832,269.052673L439.400513,269.011078L440.681274,264.975189L440.694763,264.939178L440.711792,264.904785L440.739136,264.862701L440.958862,264.568909L440.983337,264.539368L441.010803,264.51236L441.04071,264.488403L441.073059,264.467499L441.107239,264.449982L441.142761,264.436127L441.472168,264.326294L441.509155,264.315979L441.547058,264.309509L441.592163,264.306854L461.716248,264.306854L461.7547,264.308807zM439.762695,269.125549L439.799072,269.455688L439.98233,269.749481L441.921356,271.143524L442.104614,271.437286L442.140991,271.767456L439.652863,278.995758L439.689911,279.289551L439.945953,279.472809L445.690308,280.500336L446.019775,280.42688L446.203033,280.170166L447.812622,274.409332C447.983521,273.822479,448.190796,273.553406,448.434479,273.602142L450.812805,273.895935C452.471802,273.895935,453.679138,273.333099,454.435547,272.208099C454.923553,271.523102,455.203613,270.715912,455.277069,269.78653C455.277069,269.566193,455.5578,269.455688,456.118561,269.455688L460.80246,269.455688L461.094849,269.345886L461.204681,269.052094L461.204681,267.951813L461.350891,267.658051L461.606903,267.511169L461.716736,267.511169L462.009827,267.401337L462.119629,267.107574L462.119629,265.0896L462.009827,264.795837L461.716736,264.686005L441.59259,264.686005L441.263123,264.795837L441.043488,265.0896L439.762695,269.125549zM450.008362,269.455688C449.861481,270.483215,449.971283,271.290405,450.337128,271.87796L450.959686,272.391357L451.545166,272.35498L451.325531,271.951385C451.17865,271.632904,451.118256,271.290405,451.142273,270.923889C451.166992,270.58136,451.410645,270.09198,451.873962,269.455688L453.338013,269.455688L453.740234,269.529144L453.923492,269.822906C453.874756,270.89917,453.581696,271.718719,453.044922,272.281555C452.581604,272.746216,451.983765,272.978241,451.252075,272.978241L450.008362,272.868408L448.837372,272.574646L448.58136,272.134674L448.544312,271.840881L449.093414,269.859283L449.313049,269.566193L449.642517,269.455688L450.008362,269.455688zM449.545532,269.888824L449.439758,270.029999L448.929993,271.869263L448.947876,272.010803L449.084656,272.245758L450.071106,272.493347L450.535645,272.534302L450.095215,272.171082L450.066895,272.145172L450.041321,272.116486L450.018738,272.08548L450.008606,272.069061L449.943054,271.956329L449.932495,271.936768L449.872925,271.818909L449.863647,271.799347L449.810059,271.67627L449.802124,271.656708L449.754578,271.528534L449.748047,271.50943L449.706421,271.376038L449.701233,271.357666L449.665588,271.219177L449.661438,271.20105L449.631897,271.057434L449.628723,271.040405L449.605164,270.891693L449.602966,270.875153L449.585449,270.721191L449.583984,270.70575L449.572449,270.54657L449.571716,270.531982L449.566101,270.367706L449.565857,270.353729L449.566345,270.184326L449.566589,270.171204L449.573181,269.996582L449.573792,269.984406L449.581299,269.876801L449.545532,269.888824zM452.070435,269.835571L452.023743,269.901703L451.889343,270.106506L451.775757,270.296448L451.682983,270.469727L451.612915,270.622345L451.563354,270.755493L451.533875,270.865051L451.520386,270.958588L451.516479,271.064484L451.518799,271.174408L451.52771,271.281799L451.543274,271.388916L451.565247,271.493256L451.59375,271.59552L451.627869,271.69342L451.667297,271.786346L451.878174,272.173889L451.894714,272.208527L451.907837,272.244659L451.917053,272.281982L451.922668,272.319916L451.924255,272.358368L451.922058,272.396667L451.915833,272.434601L451.906006,272.47168L451.892395,272.50769L451.885437,272.521423L451.917175,272.514252L452.111511,272.450043L452.292236,272.368805L452.463684,272.268738L452.623596,272.151154L452.775696,272.013367L452.853149,271.927399L452.931641,271.829742L453.005676,271.726257L453.076538,271.61499L453.140625,271.501648L453.202393,271.377991L453.25824,271.250671L453.30896,271.118225L453.355896,270.977051L453.398438,270.827728L453.434692,270.677185L453.467407,270.513641L453.494263,270.346893L453.516296,270.171204L453.532593,269.992432L453.536926,269.921417L453.506531,269.87265L453.303345,269.835571L452.070435,269.835571z"/>
</svg>
