<?xml version="1.0" encoding="UTF-8"?>
<svg xmlns="http://www.w3.org/2000/svg" xmlns:xlink="http://www.w3.org/1999/xlink" width="23.238mm" height="7.612mm" viewBox="-307.176880 332.702515 23.238251 7.611908">
    <path transform="matrix(-1,0,0,1,0,0)" style="stroke:none;fill:#000000;fill-rule:evenodd" d="M286.033997,340.020996L285.936829,340.016357L285.898376,340.012482L285.807068,339.998749L285.764984,339.98999L285.679504,339.96701L285.636108,339.952515L285.556458,339.92041L285.512909,339.899506L285.439087,339.858154L285.39801,339.831543L285.330139,339.781067L285.29364,339.750305L285.231506,339.690582L285.199524,339.655701L285.087158,339.516937L285.062012,339.481934L285.013245,339.405304L284.993408,339.3703L284.952087,339.286987L284.93689,339.251831L284.903076,339.161987L284.891998,339.12793L284.865723,339.031372L284.858551,338.999878L284.839722,338.896515L284.835571,338.866852L284.824402,338.75705L284.822571,338.730896L284.818787,338.614288L284.818665,338.60199L284.818665,337.994476L284.585205,337.994476L284.546753,337.992523L284.493866,337.983276L284.280457,337.930389L284.243713,337.919312L284.208221,337.904602L284.174408,337.88623L284.14267,337.864594L284.113251,337.839905L284.086487,337.812408L284.062653,337.782257L284.041992,337.749908L284.024719,337.715637L284.010986,337.679626L284.001373,337.644714L283.947754,337.404572L283.941284,337.36673L283.938629,337.321869L283.938629,335.881836L283.940582,335.843414L283.946411,335.805481L283.953339,335.777008L284.006958,335.590363L284.019501,335.553986L284.035553,335.519104L284.054993,335.486023L284.077881,335.455139L284.103638,335.426544L284.13208,335.400909L284.163116,335.378143L284.202393,335.35553L284.415802,335.249146L284.45105,335.233704L284.487671,335.222015L284.525238,335.213989L284.563416,335.209869L284.585205,335.209259L284.868652,335.209259L284.91037,335.042786L284.921539,335.006042L284.936401,334.970673L284.954742,334.936859L284.976501,334.905121L285.001312,334.875824L285.028931,334.84906L285.059082,334.825348L285.091553,334.80481L285.125854,334.787537L285.145782,334.77951L285.359192,334.69986L285.395813,334.688293L285.43338,334.680389L285.471558,334.676392L285.491882,334.675903L285.598267,334.675903L285.636719,334.677826L285.674652,334.683685L285.711853,334.693298L285.747131,334.706299L285.933899,334.78595L285.968445,334.802734L286.00116,334.823029L286.031555,334.846497L286.059509,334.872894L286.084564,334.901947L286.106567,334.933441L286.125305,334.96701L286.140259,335.001434L286.218445,335.209259L290.462433,335.209259L290.541351,334.94635L290.55423,334.910095L290.570648,334.875458L290.590607,334.842621L290.613708,334.811981L290.639832,334.783752L290.661987,334.763824L290.821899,334.630646L290.852539,334.607544L290.885498,334.587738L290.920258,334.57132L290.956512,334.558533L290.993835,334.549438L291.031891,334.544189L291.064728,334.542725L291.278137,334.542725L291.316589,334.544678L291.354492,334.550507L291.395874,334.561462L291.936401,334.737915L291.632507,334.502258L291.603302,334.477203L291.576935,334.449341L291.553345,334.418945L291.525726,334.372498L291.445465,334.212585L291.430023,334.177429L291.418213,334.140839L291.410095,334.103271L291.405823,334.065094L291.405457,334.026764L291.410339,333.97995L291.437073,333.819305L291.445343,333.78186L291.457275,333.74527L291.472961,333.710236L291.491913,333.676788L291.514282,333.645538L291.539703,333.61673L291.567932,333.590698L291.598572,333.567474L291.631409,333.547668L291.666077,333.531128L291.692322,333.521393L291.852234,333.468506L291.889221,333.458282L291.927124,333.451843L291.965454,333.44928L292.003876,333.450623L292.034027,333.454498L292.193939,333.481262L292.231506,333.48941L292.268005,333.501434L292.303009,333.51712L292.336334,333.536224L292.366974,333.558105L292.95639,334.025085L292.961731,334.012177L292.97998,333.978363L293.005524,333.941406L293.779175,332.954346L293.804443,332.925293L293.832428,332.899017L293.862946,332.875671L293.889954,332.858643L294.076599,332.752258L294.110901,332.734985L294.14679,332.721222L294.183868,332.711151L294.221802,332.704956L294.260101,332.702515L294.298523,332.703979L294.336609,332.70932L294.369202,332.717224L294.555847,332.770721L294.592224,332.783142L294.627106,332.799194L294.660187,332.818634L294.684265,332.835907L295.654297,333.590088L295.666565,333.584259L295.70282,333.571503L295.740143,333.562378L295.778198,333.557129L295.816528,333.555695L295.85495,333.558228L295.892761,333.564545L295.915619,333.570404L296.102295,333.623901L296.138641,333.636292L296.174622,333.652954L297.568237,334.387329L297.954559,334.408844L300.450958,334.408844L300.469086,334.40921L301.028564,334.435974L301.614594,334.462738L301.648621,334.465759L302.801575,334.622986L303.834839,334.649017L304.705383,334.622498L304.707581,334.622498L304.811432,334.619965L304.843414,334.620453L304.941284,334.626282L304.976563,334.630035L305.068726,334.644287L305.106689,334.652191L305.192902,334.674683L305.233276,334.687683L305.31366,334.718567L305.35376,334.736694L305.428436,334.775848L305.467834,334.799683L305.536682,334.847229L305.572418,334.875214L305.635529,334.93103L305.662903,334.957886L305.687561,334.987457L305.708984,335.019318L305.723572,335.045563L305.798706,335.195984L305.87146,335.209259L305.94342,335.209259L305.973206,335.210358L306.141785,335.223602L306.17984,335.228577L306.204651,335.233948L306.363098,335.273834L306.399811,335.285126L306.426208,335.295837L306.574554,335.362579L306.608734,335.380096L306.63147,335.394318L306.769714,335.487854L306.800354,335.510956L306.828583,335.536957L306.854004,335.565796L306.876373,335.597046L306.895477,335.630371L306.905823,335.652374L307.146118,336.211761L307.159485,336.247742L307.169067,336.284943L307.174927,336.322906L307.17688,336.361328L307.174927,336.399628L307.169189,336.437683L307.163361,336.461761L307.002747,337.048615L306.990814,337.085114L306.975128,337.120239L306.956024,337.153564L306.934753,337.183472L306.535278,337.690094L306.51001,337.718903L306.481903,337.745178L306.462799,337.760254L305.236328,338.666931L305.204346,338.688202L305.173676,338.704498L304.613586,338.970825L304.578064,338.985535L304.541351,338.996613L304.51886,339.001343L303.931976,339.108459L303.893799,339.113464L303.86377,339.114685L302.10379,339.114685L302.067688,339.112976L301.507568,339.059479L301.469635,339.053864L301.432312,339.044525L301.412354,339.037689L300.905884,338.850922L300.901123,338.849213L300.598816,338.733093L300.214691,338.687714L300.045532,338.687714L299.643494,338.732605L299.269348,338.896149L299.252563,338.902954L298.692444,339.116486L298.655853,339.128418L298.622162,339.135834L298.009277,339.242249L297.9711,339.246857L297.944336,339.247833L297.464478,339.247833L297.426056,339.24588L297.396759,339.24176L296.809906,339.135345L296.772583,339.126587L296.736572,339.114197L296.24408,338.916962L295.997711,338.878876L295.768005,338.914398L295.732849,338.92984L295.678253,338.946136L295.065247,339.079285L295.027313,339.08548L294.988892,339.087921L294.950562,339.086456L294.912506,339.080994L294.888794,339.075653L294.275208,338.915619L294.238586,338.904053L294.195923,338.885101L293.577545,338.563568L293.577545,339.18811L293.577057,339.208801L293.572449,339.293427L293.567444,339.337219L293.553589,339.417725L293.543152,339.462219L293.520264,339.538452L293.503357,339.583832L293.471252,339.655945L293.448883,339.698853L293.407532,339.766846L293.381042,339.804901L293.330688,339.868622L293.30127,339.901703L293.241791,339.961151L293.212006,339.987915L293.143433,340.043365L293.112427,340.065979L293.079224,340.085327L293.044189,340.101257L293.003571,340.114746L292.310425,340.301392L292.272858,340.309418L292.23468,340.31369L292.2117,340.314423L290.87793,340.314423L290.839996,340.312592L290.306763,340.259094L290.268829,340.253265L290.21521,340.238159L289.679291,340.04361L289.353027,340.021851L288.652466,340.047852L288.63327,340.048096L286.633118,340.021362L286.051971,340.021362L286.033997,340.020996zM293.30484,334.175415L293.251984,334.388885L293.358368,334.575562L293.651459,334.788361L293.545074,334.975067L292.131805,333.85556L291.971893,333.828796L291.811951,333.881653L291.785187,334.042267L291.865479,334.202179L292.931458,335.028595L292.878601,335.028595L292.691895,335.134979L292.584808,335.321686L292.584808,335.34845L291.278625,334.922211L291.065155,334.922211L290.905243,335.055359L290.7453,335.588684L285.865784,335.588684L285.865784,335.34845L285.785492,335.134979L285.598785,335.055359L285.492401,335.055359L285.278931,335.134979L285.225403,335.34845L285.225403,335.588684L284.585693,335.588684L284.372223,335.695068L284.318665,335.881775L284.318665,337.321808L284.372223,337.562042L284.585693,337.614899L285.198639,337.614899L285.198639,338.601929C285.198639,338.921783,285.278931,339.170227,285.438873,339.348022C285.580933,339.54364,285.785492,339.641785,286.05249,339.641785L286.638672,339.641785L288.638794,339.668549L289.358795,339.641785L289.758972,339.668549L290.345154,339.881348L290.878479,339.934875L292.212128,339.934875L292.905365,339.748169C293.100281,339.60611,293.198456,339.419403,293.198456,339.18808L293.198456,338.174988L293.43869,338.015045L293.705017,338.201752L294.37149,338.54837L294.985107,338.708313L295.598053,338.575134L295.651581,338.54837L295.99823,338.494843L296.344849,338.54837L296.878174,338.761841L297.465027,338.868225L297.944794,338.868225L298.557739,338.761841L299.117828,338.54837L299.544769,338.361694L300.024567,338.308136L300.238007,338.308136L300.69104,338.361694L301.037659,338.494843L301.54422,338.681549L302.104309,338.735077L303.864197,338.735077L304.45105,338.627991L305.011139,338.361694L306.237732,337.454956L306.637207,336.948425L306.797821,336.361542L306.557587,335.802155C306.379791,335.659393,306.175262,335.588684,305.943939,335.588684L305.837555,335.588684L305.544464,335.535156L305.384552,335.215302C305.223938,335.055359,305.002228,334.983978,304.717377,335.001831L303.837433,335.028595L302.770782,335.001831L301.597748,334.841888L301.010895,334.815125L300.451477,334.788361L297.944794,334.788361L297.465027,334.761597L295.99823,333.988708L295.811523,333.935181L295.651581,334.068329L294.451782,333.135529L294.265106,333.082001L294.0784,333.188385L293.30484,334.175415M286.05249,339.081696C285.856873,339.081696,285.758728,338.921783,285.758728,338.601929L285.758728,337.614899L291.278625,337.614899L291.492096,337.48172L291.571716,337.641663L291.571716,337.934753L290.371918,338.015045L289.758972,338.148224L289.89212,338.441315L290.7453,338.54837L291.411774,338.761841L292.638367,338.494843L292.638367,339.18808L292.531982,339.321259L292.212128,339.374786L291.865479,339.428314L290.558594,339.348022L289.998535,339.161316L289.198883,339.081696L286.05249,339.081696zM291.978943,339.026764L292.150269,339.000244L292.258392,338.982239L292.258392,338.965942L291.978943,339.026764zM290.631104,338.97229L290.870056,338.987L290.662842,338.920593L290.363312,338.883026L290.631104,338.97229zM286.137695,337.994476L286.137695,338.591064L286.141357,338.68042L286.144409,338.702209L289.198364,338.702209L289.235931,338.70401L289.666534,338.746948L289.637817,338.723602L289.610596,338.696472L289.586273,338.666809L289.565002,338.634705L289.546021,338.598358L289.412872,338.305267L289.398743,338.269531L289.388428,338.232574L289.381744,338.194733L289.379059,338.156433L289.380157,338.118011L289.385132,338.079956L289.39389,338.04248L289.406555,338.006256L289.412018,337.994476L286.137695,337.994476z"/>
</svg>
