<?xml version="1.0" encoding="UTF-8"?>
<svg xmlns="http://www.w3.org/2000/svg" xmlns:xlink="http://www.w3.org/1999/xlink" width="23.251mm" height="8.124mm" viewBox="-276.112213 332.446533 23.250519 8.123993">
    <path transform="matrix(-1,0,0,1,0,0)" style="stroke:none;fill:#000000;fill-rule:evenodd" d="M270.613647,332.448486L270.667755,332.457977L270.880554,332.511475L270.917297,332.522766L270.952698,332.537628L270.986481,332.555969L271.018097,332.577759L271.047546,332.602539L271.074158,332.630157L271.09787,332.660431L271.118439,332.692902L271.134857,332.725494L271.241241,332.965057L271.255127,333.000916L271.265198,333.038025L271.271545,333.075836L271.273956,333.11911L271.273956,334.041718L272.090759,334.041718L272.125305,334.043304L272.198395,334.049988L272.23645,334.055481L272.284119,334.067993L272.343842,334.087952L272.379578,334.101929L272.413757,334.119446L272.445129,334.13974L272.491455,334.173065L272.521484,334.197021L272.548981,334.223907L272.579498,334.261597L272.612457,334.308044L272.632629,334.339661L272.739044,334.526337L272.756317,334.560608L272.77005,334.596497L272.780151,334.633575L272.786346,334.671509L272.788788,334.714325L272.788788,335.796844L274.828796,335.796844L274.867249,335.798798L274.905182,335.804626L274.942383,335.81424L274.978394,335.827484L275.012909,335.844391L275.045502,335.864685L275.075897,335.888275L275.10376,335.914673L275.128784,335.943848L275.150696,335.975342L275.169434,336.008911L275.184631,336.044189L275.196167,336.080902L275.20105,336.104492L275.809418,336.230103L275.846619,336.239838L275.882629,336.253204L275.917175,336.270111L275.949738,336.290436L275.980042,336.314026L276.007874,336.340515L276.032928,336.36972L276.05481,336.401215L276.073547,336.434784L276.088623,336.470154L276.100159,336.506775L276.107849,336.544464L276.111725,336.582642L276.112213,336.601868L276.112213,337.665161L276.11026,337.703583L276.104431,337.741516L276.094818,337.778748L276.081573,337.814728L276.064667,337.849274L276.044373,337.881866L276.020752,337.912262L275.994385,337.940094L275.965179,337.965149L275.933685,337.98703L275.900146,338.005768L275.864868,338.020966L275.819641,338.034576L275.196899,338.181122L275.190948,338.204224L275.177673,338.240234L275.160767,338.27475L275.140472,338.307343L275.116882,338.337738L275.090485,338.365601L275.06131,338.390656L275.029816,338.412537L274.996246,338.431274L274.960999,338.446472L274.924255,338.458008L274.886688,338.46579L274.848511,338.469696L274.828796,338.470184L272.697937,338.470184L272.655151,338.577057L272.639099,338.611969L272.619629,338.64505L272.596771,338.675934L272.570984,338.704498L272.542542,338.730164L272.511536,338.752899L272.478455,338.772369L272.436249,338.791199L272.224182,338.87085L272.187561,338.882538L272.149994,338.890442L272.111816,338.89444L272.090759,338.89505L269.218994,338.89505L269.180542,338.893127L269.142609,338.887268L269.105408,338.877655L269.069641,338.86441L268.883606,338.78476L268.84906,338.767853L268.816467,338.747681L268.786072,338.724091L268.758118,338.697693L268.733032,338.66864L268.711029,338.637024L268.692444,338.603455L268.680634,338.577057L268.637817,338.470184L267.943481,338.470184L267.259216,338.888367L267.259216,339.871765L267.257263,339.910217L267.251434,339.948151L267.241821,339.985352L267.228577,340.021362L267.219208,340.041534L267.112793,340.254333L267.093842,340.287781L267.071716,340.319153L267.046417,340.348114L267.018433,340.374359L266.987793,340.397705L266.955078,340.417786L266.927368,340.431396L266.687927,340.537811L266.652161,340.551666L266.615082,340.561768L266.577148,340.568085L266.533844,340.570526L261.828613,340.570526L261.790222,340.568573L261.752258,340.562744L261.715057,340.553131L261.679077,340.539886L261.658875,340.530518L261.446075,340.424103L261.412628,340.405121L261.381256,340.382996L261.352295,340.357697L261.32605,340.329742L261.302704,340.299103L261.276306,340.254333L261.169922,340.041534L261.154572,340.006287L261.142792,339.969788L261.134766,339.93222L261.130493,339.894043L261.129883,339.871765L261.129883,339.542358L260.827576,339.383301L260.794525,339.363708L260.763611,339.340973L260.735168,339.315063L260.709503,339.286499L260.68689,339.255493L260.667419,339.22229L260.651489,339.187408L260.639099,339.151031L260.630585,339.113586L260.625732,339.075409L260.624756,339.047424L260.624756,338.510193L260.571747,338.524414L260.489777,338.556885L260.396881,338.605286L260.293152,338.671295L260.185028,338.751923L260.066101,338.853241L259.936218,338.976654L259.907166,339.001709L259.875671,339.02359L259.84198,339.042328L259.806732,339.057404L259.770142,339.068939L259.732422,339.076721L259.694244,339.080627L259.655823,339.080627L259.617615,339.076843L259.579926,339.069061L259.543335,339.057648L259.507935,339.04245L259.459778,339.014343L258.64917,338.457031L258.477356,338.394409L258.187195,338.413879L253.802185,339.391083L253.775665,339.396057L253.674622,339.411133L253.636307,339.414917L253.584381,339.413696L253.493057,339.405426L253.454987,339.400085L253.417664,339.390839L253.389694,339.381226L253.30835,339.349609L253.273315,339.333923L253.240005,339.314728L253.215195,339.297333L253.143692,339.242615L253.11438,339.217682L253.083252,339.184723L253.053345,339.148956L253.030243,339.118317L253.014801,339.093384L252.991577,339.052643L252.974182,339.018372L252.964569,338.994659L252.947906,338.948944L252.9366,338.912201L252.932098,338.892151L252.922119,338.841431L252.915802,338.791321L252.912399,338.735626L252.912155,338.691986L252.915436,338.631287L252.919098,338.595551L252.92894,338.529877L252.934784,338.499725L252.947418,338.445862L253.048111,337.741516L253.050537,337.555603L253.046417,337.364441L253.034973,337.174988L253.017456,337.000946L252.992783,336.831573L252.961288,336.668365L252.924805,336.52063L252.877991,336.366058L252.868744,336.328857L252.863281,336.290802L252.861694,336.25238L252.864014,336.21405L252.870209,336.176117L252.880188,336.139038L252.893799,336.103149L252.911072,336.068756L252.931732,336.036407L252.955444,336.006226L252.982208,335.978638L253.011505,335.953827L253.043243,335.93219L253.077057,335.913818L253.112442,335.898987L253.149292,335.887787L253.186981,335.880371L253.241211,335.876495L257.707611,335.876495L257.746033,335.878448L257.783966,335.884277L257.804382,335.889008L258.30954,336.022156L258.34613,336.033844L258.389313,336.053192L258.89447,336.318756L258.9133,336.329346L259.210266,336.507599L259.358124,336.497772L259.525818,336.345276L259.774261,336.01413L259.774261,335.511932L259.776215,335.47348L259.782043,335.435547L259.791656,335.398346L259.79834,335.378876L259.877991,335.166077L259.893188,335.130829L259.912048,335.09726L259.934052,335.065887L259.959229,335.036804L259.987061,335.010437L260.017578,334.986969L260.050171,334.966766L260.099548,334.944031L260.312347,334.86377L260.348846,334.85199L260.386536,334.844086L260.424713,334.839935L260.446228,334.839325L260.669006,334.839325L260.709991,334.746796L260.727264,334.712494L260.747925,334.680145L260.77179,334.649994L260.798523,334.622498L260.827942,334.597717L260.859802,334.576172L260.893494,334.557831L260.922913,334.545288L261.135742,334.464905L261.172333,334.453247L261.2099,334.445221L261.248108,334.441071L261.269867,334.44046L261.555511,334.44046L261.555511,334.209167L261.557465,334.170746L261.564392,334.127472L261.617157,333.887909L261.627258,333.850922L261.641113,333.815063L261.658508,333.780762L261.679321,333.748535L261.703247,333.718506L261.730133,333.69104L261.759552,333.666351L261.791412,333.644806L261.825226,333.626709L261.868042,333.609436L262.107605,333.529785L262.144684,333.519562L262.182495,333.513123L262.193085,333.512512L262.193085,333.464478L262.195007,333.426056L262.200867,333.388123L262.210449,333.350891L262.223724,333.314911L262.239655,333.282318L262.399689,332.989868L262.419739,332.957153L262.443085,332.926636L262.469482,332.898529L262.498413,332.873352L262.529785,332.851227L262.563232,332.832367L262.596069,332.817902L262.941315,332.684753L262.977783,332.672729L263.015381,332.664581L263.053436,332.660065L263.077881,332.659332L265.391022,332.659332L265.422882,332.660675L265.522339,332.669067L265.560425,332.674164L265.595795,332.682556L265.682129,332.707489L265.718506,332.720032L265.764709,332.742401L265.837891,332.784119L265.870239,332.804779L265.91391,332.841125L265.973999,332.899261L266.000244,332.927368L266.023468,332.957886L266.043549,332.990723L266.055817,333.015381L266.188354,333.307861L266.202362,333.343597L266.21283,333.380585L266.21936,333.418396L266.222168,333.464478L266.222168,333.60675L266.242004,333.614166L266.277252,333.629364L266.310822,333.648224L266.342194,333.670227L266.371277,333.695404L266.397644,333.723236L266.421112,333.753784L266.441315,333.786377L266.455902,333.815674L266.562195,334.055237L266.575928,334.091095L266.585999,334.128204L266.592346,334.166138L266.594788,334.209167L266.594788,334.281281L268.733521,334.281281L268.750916,334.254059L268.774872,334.223907L268.801636,334.196411L268.831055,334.171722L268.862915,334.150208L268.896729,334.131958L268.938812,334.114929L269.098114,334.061432L269.135071,334.051086L269.173004,334.044525L269.218994,334.041718L269.477753,334.041718L269.477753,333.11911L269.479706,333.080688L269.485535,333.042755L269.495148,333.005554L269.510468,332.965057L269.616882,332.725494L269.634125,332.691193L269.654938,332.658844L269.678772,332.628815L269.705627,332.601227L269.735046,332.57666L269.766815,332.554993L269.800598,332.536774L269.836121,332.522064L269.858734,332.514862L270.044678,332.461365L270.082001,332.452606L270.120178,332.447632L270.149597,332.446533L270.575226,332.446533L270.613647,332.448486zM262.732849,333.171478L262.572937,333.463867L262.572937,333.889435L262.227692,333.889435L261.988129,333.969055L261.935272,334.208618L261.935272,334.819489L261.270172,334.819489L261.057404,334.899811L260.951691,335.138672L260.951691,335.218292L260.446503,335.218292L260.233734,335.298584L260.154114,335.511383L260.154114,336.096161L260.12735,336.175781L259.808167,336.601349L259.515778,336.866974L259.116974,336.893738L258.718201,336.654205L258.213013,336.38858L257.707825,336.255402L253.241516,336.255402C253.383606,336.680969,253.445374,337.186157,253.427521,337.770966L253.321136,338.514984C253.26828,338.70993,253.286133,338.85202,253.37468,338.940552C253.463226,339.029083,253.578537,339.055878,253.719925,339.020172L258.133392,338.036591L258.532166,338.009827L258.824585,338.116211L259.675018,338.701019C260.047729,338.328979,260.384033,338.134064,260.685364,338.116211L261.004547,338.142975L261.004547,339.046936L261.509705,339.312561L261.509705,339.871277L261.616119,340.084076L261.828888,340.19046L266.534058,340.19046L266.773621,340.084076L266.880005,339.871277L266.880005,338.674927L267.836823,338.090118L268.926788,338.090118L268.926788,338.169739L269.033203,338.435364L269.219208,338.514984L272.091034,338.514984L272.303131,338.435364L272.409515,338.169739L272.409515,338.090118L274.829041,338.090118L274.829041,337.87735L275.733002,337.664551L275.733002,336.601349L274.829041,336.414642L274.829041,336.175781L272.409515,336.175781L272.409515,334.713776L272.303131,334.5271C272.268127,334.45639,272.197418,334.420715,272.091034,334.420715L270.894684,334.420715L270.894684,333.118622L270.788269,332.879089L270.5755,332.825531L270.149933,332.825531L269.963928,332.879089L269.857544,333.118622L269.857544,334.420715L269.219208,334.420715L269.059967,334.474243L268.953583,334.660248L266.215576,334.660248L266.215576,334.208618L266.109192,333.969055L265.896423,333.889435L265.842865,333.889435L265.842865,333.463867L265.710388,333.171478C265.639008,333.082947,265.532623,333.03833,265.391235,333.03833L263.078094,333.03833L262.732849,333.171478M268.926788,335.72345L268.926788,336.175781L266.560822,336.175781L266.560822,335.72345L268.926788,335.72345zM262.918854,333.384247L263.078094,333.330719L265.391235,333.330719L265.49762,333.384247L265.524384,333.463867L265.524384,333.889435L262.89209,333.889435L262.89209,333.463867L262.918854,333.384247z"/>
</svg>
