<?xml version="1.0" encoding="UTF-8"?>
<svg xmlns="http://www.w3.org/2000/svg" xmlns:xlink="http://www.w3.org/1999/xlink" width="23.249mm" height="15.694mm" viewBox="-245.040253 328.661255 23.248932 15.694427">
    <path transform="matrix(-1,0,0,1,0,0)" style="stroke:none;fill:#000000;fill-rule:evenodd" d="M233.457626,328.661865L233.495804,328.666229L233.520737,328.671356L233.716278,328.717926L233.731476,328.721802L233.919342,328.774841L233.935287,328.779694L234.115631,328.839294L234.132278,328.845245L234.305084,328.911377L234.322113,328.918457L234.487244,328.991028L234.504883,328.999298L234.662476,329.078461L234.680115,329.087952L234.830048,329.173462L234.84816,329.184509L234.990433,329.276581L235.013901,329.292969L235.880219,329.951233L235.904419,329.971161L236.133759,330.177399L236.600357,330.151764L236.638779,330.15152L236.690582,330.157593L238.18071,330.434967L238.218048,330.443848L238.25441,330.456482L238.274475,330.465363L239.729584,331.158508L239.763382,331.176758L239.781265,331.188293L240.304047,331.547394L242.416168,332.433411L242.429794,332.439362L242.695007,332.563019L242.698303,332.564606L242.948059,332.684021L242.952209,332.685974L243.186646,332.801483L243.19104,332.80368L243.409912,332.91507L243.414795,332.917633L243.618225,333.024872L243.62381,333.027924L243.811951,333.131165L243.818512,333.134796L243.991058,333.234039L243.998352,333.238403L244.155472,333.333496L244.164108,333.338867L244.305893,333.429932L244.316101,333.436768L244.442459,333.523834L244.454498,333.53244L244.565277,333.615387L244.579742,333.626709L244.675201,333.705627L244.692719,333.721069L244.772736,333.795959L244.793884,333.817505L244.858459,333.888397L244.883636,333.919037L244.93277,333.985779L244.961456,334.031281L244.995148,334.094025L245.011566,334.128693L245.024445,334.164917L245.033569,334.20224L245.038803,334.240295L245.040253,334.278748L245.037827,334.317047L245.031387,334.35498L245.021301,334.391937L245.014725,334.410431L244.990158,334.473907L244.967178,334.522552L244.928375,334.591736L244.906494,334.626404L244.853241,334.701202L244.834991,334.724792L244.767502,334.805267L244.751572,334.823151L244.669617,334.909241L244.656967,334.921906L244.560776,335.013824L244.549469,335.024292L244.438812,335.121826L244.429688,335.129608L244.30481,335.232849L244.296661,335.239288L244.157288,335.348236L244.150604,335.353363L243.997025,335.468018L243.990936,335.472534L243.822998,335.592773L243.81778,335.596436L243.635376,335.722412L243.630753,335.725586L243.43399,335.857269L243.429871,335.859955L243.218872,335.997253L243.215363,335.999542L242.989899,336.14267L242.986496,336.144745L242.746689,336.293457L242.73053,336.302948L240.842499,337.348755L240.363617,337.859375L240.347809,337.875183L239.689575,338.499115L239.660385,338.52417L239.628891,338.546051L239.595215,338.564667L239.559937,338.579742L239.523224,338.591156L239.485641,338.598969L239.447342,338.602722L239.408905,338.602722L239.370728,338.598846L239.333145,338.591064L239.296417,338.579498L239.25119,338.559326L238.721848,338.279633L238.133896,338.202637L237.441254,338.664368L237.313919,338.775513L237.180161,338.903564L237.052475,339.037201L236.930511,339.177185L236.813644,339.324066L236.704926,339.47403L236.598282,339.635376L236.501724,339.796387L236.441895,339.910706L236.423416,339.942322L236.348877,340.056366L236.326508,340.08725L236.24295,340.190735L236.21608,340.220551L236.123169,340.313568L236.093018,340.340698L235.990875,340.423126L235.958405,340.446594L235.847137,340.518463L235.813324,340.537933L235.692825,340.599213L235.659256,340.614288L235.529633,340.665131L235.496429,340.6763L235.357574,340.716431L235.326797,340.723969L235.17868,340.753662L235.149872,340.75827L234.992508,340.777374L234.966492,340.779663L234.800003,340.7883L234.775818,340.788788L234.600098,340.786713L234.578934,340.785889L234.394104,340.773346L234.374634,340.771515L234.180557,340.748291L234.163651,340.74588L233.960449,340.712189L233.904877,340.6987L232.506927,340.243408L232.490265,340.293854L232.469589,340.381409L232.451111,340.492096L232.436401,340.622925L232.427887,340.748291L232.528442,341.791412L232.529663,341.808929L232.540131,342.017853L232.540619,342.043976L232.536957,342.237823L232.535141,342.268463L232.517258,342.447113L232.512024,342.482117L232.480057,342.645569L232.470078,342.685089L232.424118,342.833435L232.407455,342.877472L232.34726,343.01062L232.322815,343.056091L232.248642,343.174164L232.215317,343.219421L232.127167,343.322174L232.111359,343.339447L231.99704,343.457153L231.964569,343.486938L231.829712,343.596863L231.798706,343.619598L231.643295,343.721985L231.614471,343.739258L231.438385,343.834106L231.412369,343.846893L231.215851,343.934082L231.192627,343.943451L230.975449,344.023102L230.954773,344.030029L230.717163,344.10202L230.699158,344.106995L230.44101,344.17157L230.390778,344.180573L229.455154,344.28418L229.440323,344.285522L228.469803,344.354828L228.431381,344.355682L228.391129,344.352264L228.277908,344.3367L228.256638,344.333191L228.151077,344.3125L228.127121,344.307037L228.029114,344.281128L228.00296,344.273224L227.912491,344.242218L227.883789,344.231018L227.80098,344.194916L227.769974,344.179718L227.694702,344.138367L227.662598,344.118439L227.594986,344.07196L227.562637,344.04718L227.502563,343.995605L227.471436,343.965698L227.4189,343.909027L227.390213,343.874115L227.345215,343.812225L227.320648,343.773804L227.28331,343.706787L227.264099,343.667023L227.234314,343.59491L227.220444,343.555023L227.198196,343.477814L227.189194,343.438904L227.174606,343.356445L227.169983,343.32132L227.162811,343.233765L227.161591,343.200806L227.162079,343.108154L227.162689,343.087952L227.176788,342.846802L227.178253,342.829193L227.203308,342.591461L227.20549,342.574066L227.241241,342.339478L227.2444,342.321716L227.290985,342.090576L227.294983,342.072815L227.352386,341.844788L227.357376,341.827179L227.425598,341.60257L227.431183,341.585297L227.510223,341.363861L227.5168,341.346832L227.606659,341.128662L227.623077,341.094025L227.633774,341.075287L228.777222,339.204285L228.808228,339.160767L230.436981,337.185303L230.43808,337.18396L230.532806,337.07016L230.612335,336.969574L230.683594,336.874481L230.749146,336.780731L230.803375,336.696838L230.850433,336.617065L230.88765,336.546661L230.91745,336.481598L230.93811,336.427612L230.951614,336.381744L230.958664,336.346985L230.960739,336.323883L230.960373,336.310242L230.960007,336.308075L230.957458,336.303192L230.896042,336.210907L230.828552,336.127838L230.755951,336.054993L230.679474,335.992737L230.5952,335.937653L230.504242,335.890961L230.405121,335.852173L230.307358,335.82431L229.78215,335.758667L229.744324,335.751953L229.707367,335.741516L229.671738,335.727295L229.637573,335.709656L229.605469,335.688477L229.575668,335.664276L229.548431,335.637299L229.523987,335.607513L229.506104,335.580994L229.264114,335.18808L228.736359,334.771973L227.74942,334.617279L226.526337,334.583588L226.498123,334.581787L226.291397,334.560608L226.277283,334.558899L226.07312,334.530212L226.058517,334.527893L225.856781,334.491547L225.84256,334.488617L225.64325,334.444733L225.628891,334.441315L225.4319,334.389893L225.417664,334.385864L225.223221,334.326904L225.209,334.322266L225.016983,334.255646L225.003006,334.250397L224.813293,334.176117L224.799805,334.170502L224.612656,334.088806L224.599274,334.082703L224.414444,333.993347L224.40155,333.986755L224.219269,333.889862L224.206863,333.882904L224.026886,333.778473L224.014725,333.771027L223.837311,333.658936L223.825882,333.65152L223.650772,333.53186L223.639587,333.523834L223.467026,333.396515L223.456818,333.388733L223.28656,333.253967L223.257751,333.228699L223.231476,333.200592L223.208374,333.169952L223.188309,333.137115L223.171768,333.102478L223.158875,333.066345L223.149521,333.029022L223.144165,332.990967L223.142578,332.952637L223.144897,332.914215L223.151093,332.876282L223.159485,332.845276L223.015991,332.795044L222.980362,332.780579L222.946442,332.762573L222.92807,332.750793L221.957428,332.091827L221.926788,332.068726L221.898575,332.042572L221.873291,332.013733L221.850906,331.982361L221.83194,331.949066L221.816254,331.91391L221.804337,331.877441L221.796188,331.839844L221.791809,331.801666L221.791321,331.763367L221.794739,331.725067L221.802032,331.687347L221.813095,331.650513L221.827805,331.615021L221.845917,331.581207L221.867569,331.549347L221.903198,331.508484L221.938339,331.473572L221.970688,331.444885L222.015564,331.409485L222.042068,331.390411L222.096802,331.354401L222.118073,331.3414L222.182404,331.304932L222.199921,331.295563L222.274094,331.258453L222.288315,331.25177L222.372223,331.214081L222.384995,331.208618L222.47876,331.170532L222.48848,331.166779L222.591843,331.128113L222.600479,331.124939L222.713684,331.085663L222.721222,331.083099L222.844177,331.043335L222.850494,331.041412L222.983154,331.001038L222.988998,330.999329L223.131393,330.958466L223.136505,330.957001L223.288635,330.915649L223.293015,330.914581L223.454865,330.87262L223.459,330.871521L223.630585,330.829071L223.634232,330.828217L223.808975,330.786896L226.578979,330.059204L226.632004,330.049225L230.236221,329.633972L230.274521,329.631531L230.311859,329.632874L232.317352,329.803955L232.24086,329.718719L232.213867,329.684906L232.152695,329.598816L232.132019,329.566345L232.119141,329.541656L232.082886,329.465302L232.068176,329.429779L232.057236,329.393066L232.051758,329.366913L232.040329,329.300415L232.035721,329.262207L232.034973,329.223785L232.038269,329.185486L232.045319,329.147797L232.058929,329.090881L232.069763,329.053925L232.084229,329.018402L232.102234,328.984467L232.123505,328.952484L232.148071,328.922943L232.17543,328.895935L232.205353,328.871857L232.237579,328.85083L232.271622,328.833313L232.307495,328.819214L232.344467,328.808868L232.376083,328.803162L233.38089,328.66452L233.419189,328.661255L233.457626,328.661865zM233.121796,330.252838L230.280167,330.010559L226.675949,330.425812L223.903641,331.154083C222.910446,331.384705,222.332504,331.592682,222.171204,331.777313L223.141754,332.436249L223.83432,332.678528L223.522705,332.955841C224.42392,333.695068,225.428787,334.111023,226.537308,334.203674L227.785156,334.238007L228.893661,334.411652L229.552597,334.931244L229.829895,335.381531L230.383804,335.450836C230.7771,335.543518,231.077057,335.763153,231.285034,336.1091C231.447021,336.363739,231.261688,336.802338,230.730438,337.42627L229.101639,339.401672L227.958115,341.272766C227.704163,341.850037,227.565506,342.46228,227.542175,343.109528C227.519516,343.617462,227.819473,343.906433,228.44339,343.975769L229.41394,343.906433L230.349487,343.802795C231.065384,343.640808,231.562332,343.398499,231.83963,343.074524C232.093597,342.820587,232.197922,342.404633,232.151245,341.827362L232.047607,340.753174C232.070251,340.291229,232.151245,340.002258,232.289902,339.886963L232.532883,339.851959L234.023026,340.337219C235.131531,340.545197,235.848129,340.302216,236.171417,339.60965C236.448715,339.12439,236.795334,338.708435,237.210602,338.361816L238.042496,337.80722L238.839386,337.91153L239.429001,338.223175L240.08725,337.599243L240.606842,337.045319L242.547241,335.970459C243.864426,335.161896,244.568649,334.596313,244.661316,334.27301C244.522659,333.949036,243.725769,333.452789,242.269943,332.782867L240.121567,331.881653L239.566956,331.500702L238.111832,330.807465L236.621674,330.530151L235.997757,330.564484L235.651138,330.252838L234.784912,329.594604C234.415634,329.340637,233.964676,329.155334,233.433426,329.040009L232.428558,329.17865C232.359222,329.317322,232.555527,329.559601,233.017471,329.906219L233.329773,330.218536L233.121796,330.252838M232.913818,339.332367L233.294769,339.055054C233.803375,339.309021,234.16098,339.401672,234.368958,339.332367L234.923569,338.466156L235.270187,337.634247L235.755463,337.599243C236.05542,337.576599,236.240738,337.634247,236.310059,337.772888C236.379395,338.00351,236.298401,338.385162,236.067078,338.916412C235.836456,339.540344,235.478165,339.863617,234.992889,339.886963L233.433426,339.678986L232.913818,339.332367zM235.77771,337.978668L235.530121,337.996521L235.273285,338.612701L235.256744,338.647339L235.242645,338.671295L234.731537,339.469757L234.993347,339.504669L235.086868,339.492615L235.187439,339.461365L235.280579,339.412964L235.370575,339.344269L235.459595,339.250397L235.546783,339.127808L235.631775,338.971802L235.716537,338.769928L235.71666,338.769928L235.792053,338.588135L235.852249,338.424438L235.897964,338.279266L235.92923,338.15329L235.946976,338.049805L235.952332,337.979492L235.929703,337.976837L235.863922,337.974884L235.77771,337.978668z"/>
</svg>
