<?xml version="1.0" encoding="UTF-8"?>
<svg xmlns="http://www.w3.org/2000/svg" xmlns:xlink="http://www.w3.org/1999/xlink" width="23.602mm" height="5.669mm" viewBox="-214.145859 333.673645 23.601959 5.669403">
    <path transform="matrix(-1,0,0,1,0,0)" style="stroke:none;fill:#000000;fill-rule:evenodd" d="M199.692764,333.675568L199.730698,333.681427L199.767914,333.69104L199.803909,333.704285L199.83844,333.721191L199.871033,333.741486L199.901428,333.765076L199.929276,333.791473L199.95433,333.820648L199.976227,333.852142L199.994949,333.885712L200.014526,333.933502L200.039825,334.009613L200.050034,334.0466L200.052338,334.060211L200.082748,334.056335L200.11145,334.055237L200.263809,334.055237L200.302246,334.05719L200.340179,334.063019L200.377396,334.072632L200.413391,334.085876L200.447922,334.102783L200.480515,334.123077L200.51091,334.146667L200.532196,334.166382L200.633728,334.267914L200.659515,334.296356L200.682251,334.327393L200.701706,334.360443L200.701828,334.360687L203.062286,334.360687L203.078934,334.326782L203.099243,334.294189L203.122833,334.263794L203.149231,334.235931L203.183273,334.207245L203.284821,334.131104L203.316681,334.109589L203.350479,334.091461L203.386108,334.076874L203.422836,334.065918L203.460648,334.058746L203.512451,334.055237L203.690247,334.055237L203.728668,334.05719L203.766602,334.063019L203.803818,334.072632L203.839813,334.085876L203.874344,334.102783L203.906937,334.123077L203.937347,334.146667L203.965179,334.173065L203.990234,334.20224L204.004105,334.222198L204.014191,334.22876L204.044113,334.252838L204.071472,334.279724L204.096039,334.309387L204.117432,334.341248L204.127777,334.360687L206.236496,334.360687L206.249878,334.339905L206.273956,334.309875L206.300827,334.282501L206.330383,334.257935L206.362244,334.236542L206.388138,334.222198L206.489807,334.171356L206.52507,334.156036L206.561554,334.144257L206.599121,334.13623L206.637314,334.131958L206.659561,334.131348L208.258774,334.131348L208.297195,334.133301L208.335144,334.13913L208.372345,334.148743L208.40834,334.161987L208.428528,334.171356L208.530197,334.222198L208.563629,334.24115L208.595001,334.263306L208.623947,334.288574L208.650208,334.316559L208.673569,334.347198L208.681824,334.360687L213.639374,334.360687L213.677795,334.36264L213.715744,334.368469L213.75296,334.378082L213.78894,334.391357L213.823486,334.408234L213.856079,334.428558L213.876373,334.443878L214.003326,334.54541L214.03215,334.570831L214.058182,334.599152L214.081161,334.629822L214.100983,334.66275L214.117401,334.69754L214.130157,334.733765L214.139282,334.771118L214.144516,334.809174L214.145859,334.841766L214.145859,335.375732L214.143906,335.414154L214.135635,335.463043L214.127731,335.49649L214.117035,335.533325L214.102692,335.568939L214.084808,335.602997L214.063538,335.634979L214.028137,335.676208L214.004303,335.700287L213.975983,335.726196L213.945084,335.749054L213.91214,335.768738L213.865311,335.789551L213.825546,335.804138L213.78894,335.815552L213.751251,335.82312L213.728027,335.825897L213.672577,335.83078L213.639374,335.832214L208.944733,335.832214L209.453049,336.525482L209.474197,336.557587L209.491959,336.591644L209.50618,336.62738L209.516754,336.664368L209.523453,336.702179L209.526489,336.749969L209.526489,336.851501L209.524551,336.889923L209.518707,336.927887L209.509094,336.965088L209.49585,337.001068L209.478943,337.035614L209.458633,337.068207L209.435043,337.098602L209.408661,337.126465L209.379471,337.151489L209.343475,337.176178L209.216522,337.253052L209.182724,337.271271L209.147217,337.286011L209.110489,337.296936L209.072662,337.30423L209.02002,337.307892L207.370575,337.307892L207.332153,337.305939L207.29422,337.30011L207.257004,337.290497L207.236206,337.283325L207.033127,337.206482L206.997986,337.19104L206.957001,337.167328L206.804642,337.065765L206.773743,337.042908L206.745422,337.016998L206.719757,336.988434L206.706741,336.971283L206.68425,336.939911L206.68425,337.156982L206.682297,337.195404L206.676468,337.233337L206.666855,337.270569L206.653595,337.306549L206.644485,337.326141L206.568237,337.479218L206.549393,337.512787L206.527252,337.544159L206.50209,337.57309L206.473999,337.599487L206.443588,337.622833L206.423645,337.63562L206.296692,337.711731L206.262772,337.729736L206.227264,337.744324L206.190414,337.755157L206.152588,337.762329L206.101517,337.765717L202.852875,337.765717L202.814453,337.763794L202.776505,337.757935L202.739304,337.748322L202.691879,337.72998L202.310883,337.551575L202.276962,337.533447L202.245102,337.512177L202.228928,337.499298L202.029861,337.333313L200.89798,337.333313L200.859543,337.33136L200.821609,337.325531L200.784393,337.315918L200.748398,337.302643L200.728088,337.293182L200.626556,337.24234L200.593109,337.223358L200.561737,337.201233L200.537659,337.180206L199.98497,337.180206L199.971725,337.196136L199.945694,337.224457L199.922592,337.245392L199.770218,337.372345L199.739456,337.395447L199.706619,337.415253L199.671844,337.431671L199.631958,337.445557L199.45491,337.496368L199.417572,337.505127L199.379395,337.509979L199.350204,337.511078L198.963745,337.511078L198.910126,337.585876L198.860138,337.676697L198.824387,337.768036L198.801163,337.862152L198.790588,337.95993L198.79277,338.063904L198.811737,338.197906L198.815262,338.236084L198.814789,338.274506L198.810532,338.312714L198.802383,338.350281L198.790466,338.386749L198.774902,338.421906L198.75592,338.455353L198.733551,338.486603L198.708252,338.515533L198.680161,338.541687L198.649521,338.564789L198.616684,338.584839L198.582031,338.601379L198.545792,338.61441L198.508575,338.623627L198.47052,338.628998L198.435989,338.630585L198.258804,338.630585L198.220383,338.628632L198.182434,338.622803L198.145233,338.61319L198.109238,338.599915L198.074707,338.583038L198.042114,338.562714L198.011719,338.539124L197.983856,338.512726L197.958817,338.483551L197.93692,338.452057L197.918198,338.418488L197.903,338.38324L197.891449,338.346497L197.88147,338.291779L197.816528,337.689606L197.708069,337.689606L196.804672,338.618042L196.776459,338.644196L196.760406,338.656952L196.658752,338.733215L196.626892,338.754608L196.592957,338.772858L196.557449,338.787445L196.520599,338.79837L196.48291,338.805573L196.430984,338.809082L196.27861,338.809082L196.240189,338.807129L196.20224,338.8013L196.165039,338.791687L196.129044,338.778442L196.103745,338.766388L193.988937,337.668915L193.464951,337.547333L193.417282,337.564484L193.368393,337.58844L193.322311,337.617859L193.278412,337.653473L193.235718,337.696533L193.193405,337.749054L193.149994,337.814728L192.419525,339.077332L192.398605,339.109558L192.374527,339.139496L192.347534,339.166962L192.318832,339.190796L192.217285,339.267059L192.185425,339.288574L192.151627,339.306702L192.116119,339.321289L192.079269,339.332214L192.04158,339.339508L191.98941,339.343048L191.862457,339.343048L191.82402,339.341095L191.786087,339.335266L191.748871,339.325653L191.712875,339.312408L191.672745,339.292206L190.835388,338.80896L190.797562,338.784027L190.695908,338.707916L190.666351,338.68335L190.639481,338.655975L190.615524,338.625946L190.594604,338.593719L190.577103,338.55954L190.563232,338.523682L190.553024,338.486725L190.54657,338.448761L190.5439,338.404144L190.5439,338.200226L190.545853,338.161774L190.553635,338.114471L190.88208,336.696838L190.947998,336.345398L190.874786,335.222748L190.874298,335.184326L190.877579,335.146027L190.884766,335.108307L190.895828,335.071472L190.913818,335.0289L190.990067,334.875824L191.008911,334.842255L191.031052,334.810883L191.061203,334.776825L191.137329,334.700592L191.165909,334.674805L191.196793,334.652069L191.229874,334.632477L191.264771,334.616425L191.301498,334.60379L191.656342,334.502258L191.693787,334.493622L191.731842,334.488739L191.760788,334.48764L191.913162,334.48764L191.951584,334.489594L191.989532,334.495422L192.026733,334.505035L192.062729,334.518311L192.097275,334.535187L192.129852,334.555511L192.160263,334.579102L192.18811,334.605499L192.21315,334.634674L192.238571,334.671753L192.314819,334.798706L192.329041,334.824738L192.465607,335.098602L197.125092,335.098602L197.130814,335.072693L197.142853,335.036194L197.158417,335.001068L197.177505,334.967743L197.19989,334.936493L197.225296,334.907684L197.253387,334.881531L197.284149,334.858429L197.316986,334.83847L197.351654,334.822052L197.387878,334.809174L197.434464,334.798218L197.586823,334.772827L197.625015,334.768433L197.649338,334.7677L197.785156,334.7677L197.785522,334.765381L197.795135,334.72818L197.808395,334.6922L197.825287,334.657654L197.845596,334.625061L197.869186,334.594666L197.888885,334.573395L197.914307,334.547974L197.955048,334.512695L198.05658,334.436584L198.08844,334.41507L198.122253,334.396942L198.157883,334.382355L198.194611,334.371399L198.232422,334.364227L198.284225,334.360687L198.894562,334.360687L198.894562,334.129272L198.8965,334.090851L198.902344,334.052917L198.913895,334.009613L198.939178,333.933502L198.953171,333.897644L198.970673,333.863464L198.99147,333.831238L199.015549,333.801208L199.042419,333.773834L199.071976,333.749268L199.103836,333.727875L199.137756,333.709747L199.173264,333.69516L199.210114,333.684204L199.24794,333.677155L199.299377,333.673645L199.654327,333.673645L199.692764,333.675568zM200.365997,334.536011L200.26442,334.434448L200.112045,334.434448L200.035858,334.51062L199.985062,334.536011L199.985062,334.739868L199.680298,334.739868L199.680298,334.128998L199.654907,334.052795L199.300049,334.052795L199.274658,334.128998L199.274658,334.739868L198.284882,334.739868L198.183304,334.816071L198.157898,334.841461L198.157898,335.146912L197.649979,335.146912L197.497604,335.172302L197.472198,335.324677L197.472198,335.477753L192.370987,335.477753L192.244003,335.452362L192.142426,335.299286L191.990036,334.993835L191.913849,334.866852L191.761475,334.866852L191.406616,334.968445L191.330429,335.044647L191.254242,335.197693L191.330429,336.367981L191.254242,336.775024L190.924088,338.199951L190.924088,338.403809L191.025665,338.480011L191.863052,338.963226L191.990036,338.963226L192.091629,338.887024L192.827438,337.615143C192.979813,337.360504,193.191223,337.207428,193.462341,337.156647L194.121948,337.309723L196.279266,338.429199L196.431641,338.429199L196.533234,338.353027L197.548386,337.309723L198.157898,337.309723L198.259491,338.250732L198.436569,338.250732C198.352142,337.82724,198.470886,337.453857,198.79213,337.131256L199.350845,337.131256L199.527924,337.080444L199.680298,336.953461L199.807281,336.800415L200.746262,336.800415L200.797058,336.902679L200.898636,336.953461L202.16777,336.953461L202.472519,337.207428L202.85347,337.385895L206.102127,337.385895L206.229111,337.309723L206.305298,337.156647L206.305298,336.164825L206.20372,335.986359L206.355408,335.986359L206.431595,335.935577L207.015717,336.749603L207.168091,336.851196L207.371262,336.92807L209.020645,336.92807L209.147629,336.851196L209.147629,336.749603L208.513397,335.884766L208.361023,335.757111L208.361023,335.452362L213.640015,335.452362C213.724442,335.452362,213.766998,335.42627,213.766998,335.375488L213.766998,334.841461L213.640015,334.739868L208.361023,334.739868L208.361023,334.561432L208.259445,334.51062L206.660156,334.51062L206.558578,334.561432L206.533173,334.637604L206.533173,334.739868L203.792435,334.739868L203.792435,334.536011L203.716248,334.51062L203.690857,334.434448L203.513077,334.434448L203.411499,334.51062L203.411499,334.739868L200.365997,334.739868L200.365997,334.536011M206.533173,335.452362L206.533173,335.706299L206.431595,335.706299L206.355408,335.680908L203.792435,335.680908L203.792435,335.452362L206.533173,335.452362zM200.898636,336.367981L200.822449,336.444183L200.746262,336.521057L200.035858,336.521057L200.340607,336.062561L200.391403,335.986359L202.777283,335.986359L202.472519,336.164825L202.16777,336.367981L200.898636,336.367981zM197.345215,336.367981L197.421417,336.393372L197.396011,336.521057L196.22847,337.945984L195.975189,337.818329L195.772018,337.589752L196.177673,336.62265L196.279266,336.494965L196.380844,336.393372L197.345215,336.367981zM196.545898,336.768951L196.506622,336.818298L196.344284,337.205383L196.705322,336.764801L196.545898,336.768951z"/>
</svg>
