<?xml version="1.0" encoding="UTF-8"?>
<svg xmlns="http://www.w3.org/2000/svg" xmlns:xlink="http://www.w3.org/1999/xlink" width="22.978mm" height="19.489mm" viewBox="-521.395996 358.751740 22.977539 19.488831">
    <path transform="matrix(-1,0,0,1,0,0)" style="stroke:none;fill:#000000;fill-rule:evenodd" d="M506.047058,358.752716L506.085205,358.757568L506.122559,358.766205L506.158936,358.778625L506.190308,358.792847L509.519165,360.486298L509.908081,360.458191L509.946533,360.457336L513.616638,360.564484L513.653259,360.567413L513.756836,360.580536L513.792236,360.586609L513.891479,360.608856L513.926331,360.618469L514.021179,360.649475L514.056946,360.663239L514.147278,360.703247L514.180969,360.720245L514.26709,360.769135L514.299316,360.789581L514.38092,360.847443L514.409729,360.870209L514.486816,360.936951L514.51178,360.960541L514.565247,361.016113L514.62677,361.063904L514.656677,361.089813L514.728455,361.15863L514.757874,361.190247L514.818542,361.263458L514.84668,361.302002L514.896118,361.379822L514.919495,361.422394L514.958069,361.504608L514.976013,361.550568L515.003662,361.637268L515.015442,361.68457L515.031982,361.775665L515.037476,361.821869L515.042297,361.907593L515.180603,363.263977L515.218384,363.435303L515.274475,363.604706L515.349854,363.773132L515.439941,363.931824L515.489319,363.995911L515.54718,364.06192L515.607666,364.122009L515.668091,364.173798L515.729858,364.219177L515.792358,364.257843L515.857788,364.291382L515.93866,364.324829L515.950439,364.329956L516.258484,364.469543L516.340088,364.22464L516.346008,364.207977L516.4646,363.900818L516.471741,363.883667L516.602478,363.588776L516.610657,363.571503L516.753418,363.288757L516.762878,363.271271L516.917786,363.000824L516.928528,362.983185L517.095581,362.725006L517.107361,362.707764L517.286621,362.461731L517.305603,362.437897L517.50354,362.207458L517.519165,362.190338L517.724792,361.978607L517.742737,361.961334L517.956177,361.768738L517.975769,361.752197L518.196838,361.578308L518.21875,361.562256L518.447571,361.407318L518.470947,361.392731L518.707458,361.256531L518.732849,361.243164L518.977173,361.126038L519.003296,361.114746L519.255249,361.016479L519.291748,361.004333L519.329224,360.995941L519.367371,360.991425L519.405823,360.990814L519.444153,360.993988L519.481812,361.001038L519.518677,361.011871L519.554321,361.026459L519.588196,361.044464L519.620056,361.065857L519.649658,361.090424L519.676636,361.117767L519.700684,361.147705L519.721619,361.179932L519.739136,361.214081L519.753113,361.249847L519.763428,361.286926L519.77002,361.324738L519.772705,361.370117L519.772705,361.394684L520.221069,361.456085L520.258728,361.463135L520.295593,361.474091L520.331116,361.488678L520.365051,361.506805L520.396912,361.528198L520.426453,361.552765L520.45343,361.580231L520.48114,361.615509L521.222473,362.682098L521.242737,362.714691L521.259644,362.749207L521.272949,362.785217L521.282532,362.822418L521.288391,362.860352L521.290283,362.898804L521.288391,362.937103L521.282532,362.975037L521.272949,363.012238L521.259521,363.04837L521.242615,363.082764L521.222351,363.115356L521.198853,363.145752L521.172363,363.173615L521.143311,363.198669L521.111694,363.220673L521.080444,363.23819L520.939026,363.308838L520.903748,363.32428L520.867249,363.33609L520.829651,363.344116L520.791504,363.348236L520.753052,363.34848L520.714783,363.34494L520.677063,363.337524L520.64032,363.326233L520.60498,363.311401L520.571167,363.29303L520.53833,363.270416L519.900024,362.780579L519.772705,362.780579L519.772705,363.463409L520.336182,363.554108L520.373779,363.562134L520.4104,363.573944L520.445557,363.589386L520.478943,363.608215L520.510315,363.630493L520.539307,363.65564L520.565552,363.683746L520.588928,363.714264L520.608704,363.74649L521.349304,365.097382L521.366089,365.131927L521.379211,365.16803L521.38855,365.205261L521.394287,365.243317L521.395996,365.281616L521.393921,365.320038L521.387817,365.357971L521.378113,365.395081L521.364624,365.431061L521.347473,365.465485L521.327026,365.497955L521.303345,365.528229L521.286072,365.546967L521.145386,365.688995L521.117004,365.714783L521.086121,365.737762L521.053162,365.757324L521.018311,365.773621L520.982056,365.786163L520.944702,365.795013L520.906555,365.80014L520.868225,365.801361L520.829773,365.798553L520.791992,365.791992L520.755005,365.781647L520.719238,365.767548L520.685059,365.750031L520.652893,365.729004L520.622925,365.704926L520.606506,365.689362L519.969116,365.04776L519.772705,365.0383L519.772705,366.163116L520.827393,366.326202L520.864929,366.333984L520.901672,366.345398L520.936951,366.360596L520.97052,366.379333L521.002014,366.401337L521.031189,366.426392L521.057556,366.454254L521.081055,366.48465L521.101318,366.517242L521.118225,366.551758L521.131592,366.587769L521.141235,366.624969L521.146912,366.663025L521.148865,366.701202L521.148865,367.483002L521.146912,367.521423L521.141113,367.559387L521.13147,367.596588L521.118225,367.632568L521.101318,367.667114L521.081055,367.699707L521.057434,367.730103L521.031067,367.757965L521.001892,367.78299L520.970398,367.804901L520.936829,367.823608L520.90155,367.838806L520.864807,367.850372L520.808533,367.860474L519.772705,367.967957L519.772705,369.182312L519.968994,369.172821L520.606384,368.530731L520.634888,368.504852L520.665649,368.482117L520.69873,368.462402L520.733582,368.446228L520.769836,368.433716L520.807312,368.424835L520.845337,368.41983L520.883789,368.418762L520.922119,368.421417L520.9599,368.428101L520.996887,368.438446L521.032654,368.452545L521.066833,368.470184L521.098877,368.491211L521.128845,368.515289L521.145386,368.530975L521.286072,368.673035L521.311707,368.701721L521.334351,368.732727L521.353638,368.76593L521.369568,368.800964L521.381775,368.837311L521.390381,368.874878L521.39502,368.912933L521.395874,368.951385L521.392822,368.989685L521.385864,369.027496L521.375061,369.064331L521.360718,369.099976L521.349304,369.122589L520.608704,370.47348L520.588562,370.506195L520.565186,370.536713L520.53894,370.564697L520.509888,370.589874L520.478455,370.612L520.444946,370.630829L520.40979,370.646301L520.373169,370.657959L520.336182,370.665863L519.772705,370.756592L519.772705,371.475128L519.893555,371.475128L520.529419,370.956512L520.560425,370.933746L520.593506,370.914307L520.628418,370.898254L520.664795,370.885834L520.702209,370.877075L520.740295,370.872223L520.778748,370.871246L520.817017,370.874176L520.854858,370.880859L520.891846,370.891449L520.940308,370.911865L521.081787,370.983246L521.115173,371.002228L521.146423,371.024475L521.175293,371.049896L521.201538,371.077972L521.22467,371.108612L521.244568,371.141449L521.261108,371.176117L521.274109,371.212341L521.283386,371.249573L521.288757,371.287628L521.290283,371.32605L521.288025,371.364349L521.281799,371.402283L521.271729,371.439392L521.257935,371.47525L521.240723,371.509552L521.222351,371.538727L520.481018,372.604584L520.457581,372.634979L520.431152,372.662842L520.401978,372.687897L520.370483,372.7099L520.336914,372.728516L520.301575,372.743713L520.264954,372.755249L520.221436,372.763885L519.772705,372.825775L519.772705,372.849854L519.770752,372.888306L519.764893,372.926239L519.75531,372.96344L519.742065,372.999451L519.725159,373.033966L519.704834,373.066559L519.681274,373.096954L519.654846,373.124817L519.625671,373.149872L519.594177,373.171753L519.560608,373.190491L519.52533,373.205688L519.488647,373.217224L519.45105,373.225006L519.412842,373.228912L519.374451,373.228912L519.336121,373.225128L519.298584,373.217468L519.259644,373.2052L519.023743,373.116547L518.998596,373.105957L518.767029,372.999451L518.743469,372.98764L518.516296,372.863251L518.494507,372.850342L518.271729,372.708313L518.251404,372.694458L518.03302,372.534424L518.014893,372.520325L517.800903,372.342651L517.784485,372.328064L517.574829,372.132538L517.560364,372.118286L517.355103,371.905121L517.322266,371.866211L517.14325,371.621918L517.132568,371.606476L516.965576,371.35318L516.95575,371.337372L516.800842,371.075317L516.791809,371.059143L516.648926,370.788086L516.640808,370.771667L516.510193,370.49173L516.502991,370.475311L516.38446,370.186493L516.377991,370.169952L516.323547,370.017487L515.714539,370.397858L515.647522,370.442352L515.586121,370.490509L515.527649,370.543762L515.467651,370.60675L515.411499,370.674377L515.354736,370.752197L515.299011,370.838776L515.250854,370.923431L515.174255,371.098541L515.12085,371.265625L515.089966,371.422363L515.079163,371.582397L515.079163,372.175201L515.077209,372.213623L515.071838,372.249268L514.93042,372.959686L514.921082,372.997009L514.907959,373.033112L514.891296,373.067657L514.871094,373.100372L514.858582,373.117645L514.61145,373.437469L514.586426,373.466644L514.558716,373.493164L514.52832,373.516754L514.495728,373.537048L514.461304,373.554077L514.425171,373.567444L514.388062,373.577057L514.350037,373.583008L514.311707,373.584961L514.273315,373.58313L514.236572,373.577545L513.883789,373.506897L513.846558,373.497528L513.810486,373.484406L513.786987,373.47345L513.537109,373.346985L513.101257,373.221619L512.41394,373.122986L508.559265,373.122986L508.539673,373.122498L508.443237,373.117523L508.404053,373.113495L508.308594,373.098541L508.270325,373.090393L508.176086,373.06546L508.139709,373.053925L508.046448,373.01889L508.013123,373.004547L507.921082,372.959564L507.891663,372.943512L507.800537,372.88855L507.774414,372.871277L507.68457,372.806335L507.662048,372.788696L507.591553,372.729126L507.512268,372.677917L507.483643,372.657501L507.395996,372.588531L507.366455,372.562775L507.290894,372.489563L507.260864,372.456848L507.19751,372.37915L507.169678,372.340363L507.118347,372.258148L507.094543,372.213501L507.055359,372.126923L507.037354,372.0784L507.010376,371.987335L506.999084,371.937225L506.987183,371.859772L506.730225,370.8591L506.699585,370.93692L506.679749,370.979248L506.607117,371.112518L506.578308,371.157501L506.492493,371.272919L506.454895,371.316193L506.355896,371.414093L506.327209,371.439758L506.296082,371.46225L506.259583,371.483276L506.226501,371.499939L506.199402,371.522186L506.181152,371.536194L506.126099,371.57608L506.101746,371.592377L506.050903,371.623505L506.017029,371.641846L505.970642,371.664124L505.920715,371.683929L505.878723,371.697174L505.841675,371.706909L505.809692,371.712158L505.772217,371.716644L505.733887,371.71933L505.695496,371.717987L505.675781,371.715912L505.648071,371.712158L505.631653,371.724426L505.592957,371.757629L505.574097,371.775635L505.264282,372.275543L503.19397,377.434204L503.186035,377.452576L503.146423,377.538055L503.125244,377.577332L503.076721,377.656128L503.050964,377.692993L502.993713,377.765228L502.963379,377.799011L502.897278,377.864563L502.864563,377.893372L502.789612,377.95224L502.756104,377.97583L502.672302,378.028107L502.638855,378.046722L502.546326,378.092194L502.515564,378.105713L502.334106,378.175751L502.297363,378.187775L502.216248,378.20993L502.177246,378.218445L502.095032,378.231812L502.054077,378.236176L501.970886,378.24057L501.931213,378.24057L501.846863,378.236176L501.8078,378.232178L501.722412,378.218781L501.687195,378.211487L501.600586,378.189362L501.567749,378.179382L501.47998,378.148254L501.453674,378.137817L499.194885,377.142487L499.160645,377.125214L499.128296,377.104675L499.098083,377.080841L499.078674,377.062592L498.584473,376.564972L498.558777,376.536407L498.536194,376.505402L498.516846,376.472198L498.500916,376.437286L498.488647,376.401184L498.458862,376.296234L498.450684,376.261108L498.432068,376.159546L498.427002,376.120514L498.419312,376.022156L498.418457,375.979584L498.421753,375.884613L498.426147,375.838531L498.440613,375.746948L498.450684,375.701599L498.476013,375.613312L498.491943,375.568451L498.528259,375.483551L498.54895,375.442474L498.58667,375.377533L501.13739,369.783386L501.268494,369.120514L501.278687,369.058014L501.281982,369.015717L501.281738,369.008881L501.277954,369.005737L501.251099,368.978119L501.227295,368.94809L501.206604,368.915741L501.189209,368.881439L501.175476,368.845581L501.165405,368.808502L501.161743,368.78952L501.091064,368.362579L501.08667,368.324371L501.086182,368.28595L501.0896,368.24765L501.093262,368.226501L501.234558,367.516083L501.243958,367.478882L501.257813,367.440918L502.35199,364.882019L502.367798,364.849548L502.755615,364.13855L502.775635,364.105713L502.808228,364.064606L503.196777,363.638275L503.223999,363.611145L503.253906,363.587067L503.286133,363.56604L503.32019,363.548401L503.355957,363.534302L503.392883,363.523834L503.429626,363.517395L503.993774,363.446014L504.032043,363.443085L504.070496,363.444061L504.100891,363.447601L504.366333,363.489655L504.404419,363.010651L504.409424,362.972473L504.418152,362.93515L504.435547,362.887238L504.718384,362.247589L504.735779,362.213318L504.75647,362.180847L504.780273,362.150818L504.807068,362.123199L504.836487,362.098511L504.884399,362.067627L505.342834,361.818451L505.37738,361.801788L505.413574,361.788788L505.450806,361.779419L505.488892,361.773956L505.527161,361.772369L505.565613,361.774689L505.603577,361.780762L505.628967,361.787201L505.974304,361.886566L504.857483,361.317688L504.824219,361.298615L504.79303,361.276123L504.755615,361.241943L504.693848,361.177368L504.66864,361.148315L504.646667,361.116821L504.629761,361.086884L504.585632,361.000061L504.569946,360.965057L504.555176,360.917999L504.528687,360.809143L504.521423,360.771332L504.518738,360.744934L504.509827,360.613983L504.509216,360.575562L504.51239,360.537231L504.51947,360.499542L504.528198,360.469025L504.77533,359.72287L504.789185,359.686981L504.806702,359.652832L504.824646,359.624481L505.248108,359.019867L505.27179,358.989471L505.29834,358.961731L505.327515,358.936829L505.359131,358.914917L505.392822,358.896332L505.428101,358.881256L505.473328,358.867737L505.932495,358.761353L505.970276,358.754669L506.008606,358.75174L506.047058,358.752716zM506.018616,359.131012L505.559418,359.237396L505.135925,359.842102L504.888824,360.588196C504.888824,360.777649,504.936188,360.908051,505.030212,360.979462L507.959717,362.471649L507.74762,362.791504L505.524414,362.151794L505.065918,362.40094L504.783112,363.040649L504.712433,363.928833L504.04184,363.822449L503.477631,363.893829L503.089111,364.320099L502.701324,365.031189L501.607208,367.590027L501.46582,368.300446L501.53653,368.727356C501.6539,368.798065,501.689575,368.952515,501.642212,369.189301L501.501526,369.900391L498.924835,375.551422C498.784119,375.764191,498.760101,376.013367,498.854126,376.297516L499.348328,376.795135L501.607208,377.790405C501.842651,377.885132,502.065735,377.885132,502.277832,377.790405C502.559937,377.695679,502.747986,377.529572,502.842041,377.292786L504.92453,372.103699L505.277313,371.534698C505.442047,371.369263,505.571106,371.297882,505.665833,371.321899C505.73584,371.369263,505.853882,371.321899,506.018616,371.17984L506.089325,371.144135C506.230042,371.025391,506.335724,370.859985,506.406433,370.646515L506.759216,370.290955C506.900635,370.314972,507.006317,370.445404,507.077026,370.68219L507.359802,371.783844C507.383148,372.044678,507.536224,372.257446,507.818329,372.423553C508.053741,372.637024,508.300842,372.743408,508.559631,372.743408L512.441101,372.743408L513.182434,372.849792L513.676636,372.991882L513.95874,373.134644L514.311523,373.205353L514.558655,372.885498L514.700012,372.175079L514.700012,371.570374C514.700012,371.310242,514.770752,371.03775,514.911438,370.752899C515.076172,370.445404,515.276611,370.220245,515.511353,370.077484L516.5354,369.437775C516.770142,370.267609,517.135315,371.002045,517.628845,371.641754C518.17041,372.2341,518.758606,372.637024,519.393555,372.849792L519.393555,372.494934L520.169861,372.387878L520.911133,371.321899L520.769714,371.250519L520.029114,371.854553L519.393555,371.854553L519.393555,370.433044L520.276245,370.290955L521.016846,368.940155L520.876099,368.798065L520.134827,369.544861L519.393555,369.580536L519.393555,367.625732L520.769714,367.482941L520.769714,366.701172L519.393555,366.488373L519.393555,364.639954L520.134827,364.675629L520.876099,365.421722L521.016846,365.279663L520.276245,363.928833L519.393555,363.786774L519.393555,362.40094L520.029114,362.40094L520.769714,362.969269L520.911133,362.89859L520.169861,361.83194L519.393555,361.725555L519.393555,361.369995C518.711243,361.606812,518.111389,362.04541,517.593811,362.68512C517.099609,363.324829,516.735168,364.09494,516.499756,364.995483L515.794128,364.675629C515.535339,364.580902,515.311584,364.403137,515.123535,364.142303C514.958801,363.8815,514.853088,363.608978,514.805725,363.324829L514.664307,361.939026C514.664307,361.678192,514.546936,361.464722,514.311523,361.299316C514.123474,361.085846,513.888062,360.967102,513.605957,360.943756L509.935822,360.83667L509.44162,360.872375L506.018616,359.131012"/>
</svg>
