<?xml version="1.0" encoding="UTF-8"?>
<svg xmlns="http://www.w3.org/2000/svg" xmlns:xlink="http://www.w3.org/1999/xlink" width="23.229mm" height="15.167mm" viewBox="-491.162231 360.912262 23.228516 15.167023">
    <path transform="matrix(-1,0,0,1,0,0)" style="stroke:none;fill:#000000;fill-rule:evenodd" d="M487.364441,360.914215L487.402405,360.920044L487.446167,360.931732L487.645935,360.998352L487.681702,361.01236L487.715881,361.029846L487.748108,361.050781L487.778015,361.07486L487.805481,361.101837L487.829956,361.131409L487.851318,361.163269L487.874817,361.209229L487.974304,361.441864L487.987549,361.477844L487.997131,361.515045L488.002869,361.553131L488.004822,361.591064L488.004822,365.772522L488.084229,365.838684L488.103333,365.855835L488.302612,366.046143L488.321106,366.064972L488.503845,366.265625L488.521484,366.286438L488.687744,366.497528L488.704041,366.519897L488.853577,366.741333L488.868347,366.764923L489.001343,366.996826L489.014343,367.021393L489.130737,367.263763L489.141541,367.288696L489.241272,367.541382L489.25354,367.57785L489.262085,367.615326L489.266785,367.653381L489.267639,367.691803L489.264648,367.730103L489.25769,367.767914L489.247009,367.804779L489.232544,367.840393L489.214661,367.874451L489.193359,367.906433L489.169067,367.936096L489.141785,367.963226L489.111877,367.987427L489.079773,368.008453L489.045593,368.026093L489.01001,368.040192L488.95575,368.054169L488.847046,368.073761L488.764343,368.098572L488.688721,368.131042L488.704529,368.140289L488.741455,368.164825L488.867126,368.25946L488.904663,368.291809L489.011719,368.396851L489.047058,368.436859L489.135498,368.552277L489.16626,368.599213L489.22937,368.713165L490.857117,369.03894L490.89447,369.048279L490.930603,369.061432L490.965149,369.078217L490.997864,369.098389L491.028381,369.121735L491.056335,369.14801L491.081482,369.176941L491.103638,369.208435L491.122498,369.241882L491.137817,369.277161L491.149597,369.313751L491.157532,369.351318L491.161621,369.389526L491.162231,369.411041L491.162231,372.007019L491.160278,372.045471L491.15448,372.083405L491.144836,372.120605L491.131592,372.156616L491.114685,372.191132L491.094421,372.223724L491.070801,372.25412L491.044434,372.281982L491.015259,372.307037L490.983765,372.328918L490.950195,372.347656L490.914917,372.362854L490.878174,372.37439L490.850586,372.380463L489.235413,372.67392L489.196899,372.753937L489.170959,372.799286L489.096191,372.911652L489.065308,372.952026L488.973877,373.056L488.94043,373.089539L488.832458,373.18512L488.798767,373.211639L488.674133,373.299072L488.641663,373.319489L488.500488,373.398529L488.470459,373.413757L488.312683,373.484528L488.276855,373.498383L488.221741,373.512238L487.343384,373.663513L486.39978,374.342682L485.869446,375.060974L485.845154,375.090668L485.817871,375.117767L485.774109,375.151703L485.656738,375.229645L485.633423,375.243988L485.513855,375.311493L485.488831,375.324371L485.367371,375.381531L485.339844,375.393219L485.216309,375.439911L485.187256,375.449524L485.061523,375.485748L485.032227,375.49292L484.904419,375.518951L484.873779,375.523926L484.743896,375.53949L484.713501,375.541931L484.581421,375.547028L484.549438,375.546906L484.378845,375.539124L484.342468,375.535736L484.179016,375.51239L484.140991,375.504974L483.98468,375.466064L483.945801,375.454132L483.796814,375.399536L483.759033,375.38324L483.617371,375.31308L483.581726,375.292999L483.447205,375.207275L483.414612,375.183929L483.287415,375.08252L483.259216,375.057587L483.139221,374.940613L483.124023,374.924927L483.007019,374.796997L482.984253,374.769745L482.882874,374.63562L482.861938,374.604858L482.776062,374.464508L482.757507,374.430359L482.687317,374.283813L482.672119,374.247345L482.617615,374.094482L482.606445,374.057281L482.567566,373.898224L482.560486,373.861359L482.538086,373.703766L480.726563,374.948639L480.717712,374.95459L480.518372,375.083496L480.515259,375.085541L480.324585,375.206177L480.320679,375.208496L480.138489,375.32074L480.134399,375.323303L479.960693,375.427246L479.955994,375.430054L479.790955,375.525635L479.78595,375.528442L479.629578,375.615875L479.623169,375.619507L479.475281,375.698425L479.468323,375.701965L479.328979,375.772736L479.320618,375.776855L479.18988,375.839264L479.179932,375.84375L479.0578,375.897736L479.046143,375.90274L478.932556,375.948456L478.918335,375.953918L478.813416,375.991394L478.795776,375.997101L478.699341,376.026276L478.676697,376.032349L478.588806,376.053162L478.560059,376.058868L478.480774,376.071259L478.444336,376.075165L478.373657,376.079285L478.329163,376.079285L476.068909,375.946136L476.017334,375.939453L475.819031,375.900055L475.807617,375.897614L475.620056,375.85434L475.607666,375.851288L475.430603,375.804108L475.416992,375.800232L475.250671,375.749146L475.235657,375.744171L475.080017,375.689209L475.063721,375.682983L474.91864,375.624146L474.900696,375.616364L474.766296,375.553619L474.746704,375.543762L474.622925,375.47699L474.602234,375.464966L474.489136,375.39444L474.466675,375.379211L474.364258,375.304688L474.341553,375.286804L474.249573,375.208496L474.225403,375.186005L474.144287,375.103668L474.121094,375.077759L474.050415,374.991547L474.027771,374.960907L473.973694,374.879425L473.930542,374.882233L472.833618,374.882233L472.795227,374.88028L472.751221,374.87323L472.152649,374.740082L472.115723,374.729858L472.079834,374.715881L472.046631,374.698975L471.581238,374.432648L471.548889,374.411865L471.51886,374.388031L471.498901,374.369171L469.537964,372.372437L469.51239,372.34375L469.496704,372.322479L469.197449,371.890045L469.177124,371.857452L469.160339,371.822937L469.149414,371.794098L468.949768,371.194855L468.939392,371.157745L468.932983,371.119934L468.733887,369.456146L468.731201,369.417847L468.731812,369.388916L468.764771,368.823334L468.768921,368.785126L468.776917,368.747559L468.788269,368.712189L468.987915,368.179565L469.003235,368.144409L469.022095,368.11084L469.034485,368.092377L469.342651,367.660675L469.512146,367.265472L469.575989,366.966187L469.541687,366.897369L469.319031,366.828766L468.711914,366.828766L468.68042,366.827454L468.557678,366.81723L468.519653,366.812134L468.478271,366.802032L468.376404,366.770905L468.340271,366.757751L468.305603,366.741211L468.282532,366.727478L468.20166,366.67569L468.17041,366.65332L468.141541,366.628021L468.114075,366.598206L468.053772,366.525391L468.030762,366.494476L468.011108,366.461548L467.994812,366.426758L467.981995,366.390533L467.973022,366.35318L467.967651,366.312073L467.934692,365.879669L467.933716,365.841248L467.936646,365.802917L467.943359,365.765106L467.953918,365.728271L467.962708,365.705048L468.959351,363.308838L468.975891,363.27417L468.99585,363.241333L469.018188,363.21167L469.351013,362.812195L469.377075,362.783997L469.405884,362.758575L469.437134,362.736084L469.470337,362.71698L469.522644,362.695099L470.020935,362.528992L470.057922,362.518646L470.095886,362.512207L470.134155,362.509521L470.181946,362.511719L470.296265,362.524139L470.334229,362.530212L470.377502,362.542114L470.487671,362.57959L470.523315,362.593811L470.558167,362.611938L470.664246,362.674438L470.69635,362.695587L470.718445,362.713226L470.820374,362.800537L470.848206,362.826935L470.873291,362.85611L470.895264,362.887604L470.913879,362.921173L470.933594,362.969208L471.066162,363.368652L471.076477,363.405762L471.082947,363.443573L471.085449,363.48819L471.085449,365.007507L471.183228,365.235535L471.4245,365.304474L471.922241,365.304474L471.922241,365.285248L471.922729,365.266541L471.929993,365.118774L471.933777,365.080597L471.955566,364.937103L471.963562,364.898315L471.999939,364.75885L472.011963,364.720642L472.062927,364.585419L472.078613,364.549683L472.144043,364.418701L472.162537,364.386017L472.242554,364.259064L472.262695,364.22998L472.357178,364.107178L472.378601,364.081757L472.487671,363.963074L472.492432,363.958069L472.596252,363.849121L472.62616,363.820923L472.738281,363.726288L472.773193,363.700165L472.893738,363.620148L472.931641,363.5979L473.060425,363.532471L473.100464,363.514954L473.23761,363.464111L473.277649,363.451843L473.423157,363.415497L473.461609,363.407959L473.615417,363.386047L473.651917,363.38266L473.814026,363.375366L473.831055,363.375L476.475708,363.375L476.475708,362.0242L476.4776,361.985779L476.483459,361.947845L476.493042,361.910645L476.505005,361.87793L476.671814,361.478455L476.688354,361.443787L476.708435,361.41098L476.731628,361.380432L476.757813,361.352356L476.786743,361.326935L476.817993,361.304688L476.85144,361.285706L476.886597,361.270142L476.912476,361.261383L477.24469,361.161194L477.281921,361.151947L477.319946,361.146606L477.358398,361.14502L477.396729,361.147339L477.434631,361.153656L477.463806,361.161194L477.796082,361.261383L477.832275,361.274292L477.866943,361.290833L477.89978,361.31076L477.93042,361.333984L477.958496,361.360138L477.983948,361.388947L478.006165,361.420197L478.025269,361.453644L478.036926,361.479065L478.203064,361.87854L478.215942,361.914642L478.22522,361.951996L478.23053,361.990051L478.232117,362.0242L478.232117,363.375L478.716736,363.375L478.731812,363.375244L478.86322,363.380463L478.893921,363.383026L479.022278,363.39859L479.053406,363.403687L479.178711,363.429596L479.210205,363.4375L479.332275,363.473846L479.362671,363.484314L479.481628,363.531006L479.510437,363.543762L479.626282,363.6008L479.653931,363.615753L479.766663,363.68338L479.791199,363.699432L479.802124,363.707214L481.409973,363.707214L482.436096,362.891235L482.458069,362.874969L482.617615,362.765869L482.625549,362.760651L482.771606,362.666046L482.781921,362.659729L482.914368,362.579834L482.92749,362.572174L483.046387,362.506744L483.06427,362.497498L483.169861,362.446533L483.195251,362.435486L483.28717,362.399109L483.325256,362.386353L483.403687,362.364594L483.441284,362.356201L483.462891,362.353027L483.527832,362.345734L483.57019,362.343414L484.196045,362.343414L484.187927,362.338562L484.157288,362.31546L484.129028,362.289307L484.103638,362.260498L484.07959,362.22644L484.036133,362.157501L484.017273,362.123932L484.008301,362.104462L483.977173,362.031647L483.963928,361.995514L483.957336,361.972168L483.938599,361.895203L483.931458,361.857361L483.929016,361.834869L483.922668,361.753632L483.921692,361.71521L483.9245,361.67691L483.931213,361.639099L483.9375,361.615387L484.037109,361.282562L484.049988,361.246429L484.066406,361.21167L484.086243,361.178833L484.109375,361.148071L484.135498,361.119843L484.164307,361.094421L484.195557,361.072052L484.228882,361.052979L484.280823,361.031311L484.579956,360.931732L484.617065,360.921387L484.654846,360.914948L484.69989,360.912262L487.325989,360.912262L487.364441,360.914215zM477.686798,361.624878L477.354584,361.524689L477.022369,361.624878L476.85556,362.024353L476.85556,363.75473L473.83136,363.75473C473.387939,363.75473,473.033081,363.909882,472.767456,364.220123C472.457214,364.531036,472.302094,364.885895,472.302094,365.28537L472.302094,365.684174L471.371338,365.684174L470.905975,365.551025L470.706238,365.085632L470.706238,363.488434L470.573761,363.088959C470.440613,362.95578,470.296478,362.889221,470.141357,362.889221L469.643036,363.055328L469.31012,363.454803L468.313507,365.850952L468.346436,366.283386C468.413025,366.394592,468.534515,366.449493,468.71228,366.449493L469.376709,366.449493L469.809143,366.582642L469.97525,366.915558L469.875732,367.381592L469.675964,367.847656L469.343781,368.313019L469.144043,368.845673L469.111084,369.411255L469.31012,371.075043L469.509888,371.674255L469.809143,372.106689L471.770142,374.103394L472.235504,374.36969L472.834045,374.502869L473.930878,374.502869L474.196503,374.469238C474.374298,375.001862,475.005768,375.367706,476.091614,375.567444L478.351898,375.700592C478.706055,375.700592,479.426086,375.345734,480.511963,374.636017L482.739258,373.105377L482.905365,373.304413L482.905365,373.471222C482.905365,373.937286,483.071472,374.33606,483.404388,374.668976C483.71463,375.001862,484.102448,375.167969,484.567108,375.167969C484.921967,375.167969,485.254181,375.057465,485.564423,374.835754L486.130005,374.069733L487.193237,373.304413L488.157593,373.138336C488.600311,372.960541,488.866638,372.694916,488.95517,372.339355L490.78302,372.007172L490.78302,369.411255L488.95517,369.04541C488.843994,368.667908,488.533752,368.402252,488.024445,368.24646C488.246155,367.914246,488.533752,367.725494,488.888611,367.680878C488.644928,366.993103,488.22348,366.416534,487.625641,365.9505L487.625641,361.591248L487.526123,361.358582L487.326385,361.291992L484.700287,361.291992L484.401001,361.39151L484.301483,361.724426C484.301483,361.835602,484.335114,361.93515,484.401001,362.024353C484.512207,362.090942,484.611725,362.123901,484.700287,362.123901L486.994171,362.123901L486.994171,363.222107L486.727844,362.856262L486.262482,362.723114L483.570496,362.723114C483.415375,362.723114,483.116089,362.878235,482.672699,363.188477L481.542908,364.086945L479.681427,364.086945C479.393127,363.865265,479.071899,363.75473,478.717041,363.75473L477.852905,363.75473L477.852905,362.024353L477.686798,361.624878"/>
</svg>
