<?xml version="1.0" encoding="UTF-8"?>
<svg xmlns="http://www.w3.org/2000/svg" xmlns:xlink="http://www.w3.org/1999/xlink" width="23.250mm" height="12.180mm" viewBox="-460.812134 362.406036 23.250366 12.179962">
    <path transform="matrix(-1,0,0,1,0,0)" style="stroke:none;fill:#000000;fill-rule:evenodd" d="M445.671143,362.40799L445.709106,362.413818L445.746277,362.423431L445.7677,362.430847L446.000427,362.519379L446.035583,362.534821L446.069031,362.553802L446.100281,362.575928L446.129211,362.601227L446.155457,362.629303L446.178711,362.659851L446.205444,362.705444L446.350891,362.998505L446.366211,363.033661L446.377869,363.070251L446.378967,363.075592L447.898682,363.05188L447.948303,363.054443L448.059692,363.067322L448.097473,363.073669L448.15271,363.090179L448.25293,363.128876L448.287903,363.144562L448.321228,363.163635L448.338135,363.175079L448.427429,363.23941L448.457458,363.263367L448.492371,363.298737L448.548767,363.363922L448.570557,363.381561L448.60614,363.414398L448.647644,363.457916L448.679504,363.496094L448.714539,363.544128L448.741272,363.586456L448.769958,363.639221L448.790283,363.683136L448.8125,363.740417L448.826416,363.783203L448.842346,363.845123L448.850464,363.886078L448.859924,363.952606L448.860168,363.955292L449.710571,363.939972L449.710571,363.460968L449.712524,363.422546L449.718323,363.384583L449.727966,363.347382L449.74292,363.307617L449.85968,363.043365L449.876953,363.009094L449.897583,362.976624L449.921448,362.946472L449.948181,362.918976L449.9776,362.894165L450.009338,362.87265L450.035889,362.857819L450.268494,362.740448L450.30365,362.724884L450.34021,362.713104L450.377686,362.704834L450.415894,362.700562L450.454285,362.700104L450.492615,362.703613L450.530273,362.710907L450.567017,362.721985L450.594482,362.73291L450.856812,362.850281L450.890991,362.867645L450.92334,362.88858L450.953369,362.912537L450.980713,362.939392L451.00531,362.968964L451.034241,363.013702L451.179688,363.277954L451.196472,363.3125L451.209717,363.348602L451.219177,363.385803L451.224915,363.423767L451.226746,363.460968L451.226746,363.934967L457.184937,363.960999L457.201233,363.924042L457.218506,363.88974L457.239197,363.857269L457.263,363.827118L457.289795,363.799622L457.319214,363.774811L457.350952,363.753296L457.384766,363.734924L457.414307,363.72229L457.646912,363.634369L457.683411,363.622711L457.720947,363.614685L457.759155,363.610535L457.807068,363.610779L459.089233,363.6987L459.127563,363.703308L460.496948,363.938751L460.534424,363.947144L460.570862,363.95929L460.605896,363.975098L460.639099,363.994324L460.670227,364.016815L460.698914,364.042358L460.724976,364.070679L460.747925,364.10144L460.767639,364.134399L460.783936,364.169189L460.796692,364.205536L460.805725,364.242889L460.810791,364.280945L460.812134,364.312805L460.812134,365.310791L460.810181,365.349213L460.804382,365.387177L460.794739,365.424377L460.781494,365.460358L460.764587,365.494904L460.744263,365.527496L460.720703,365.557892L460.694336,365.585754L460.6651,365.610809L460.633606,365.63269L460.600037,365.651398L460.564819,365.666626L460.528076,365.678162L460.504456,365.683502L459.503052,365.87674L459.723328,365.871033L459.761719,365.872009L459.799805,365.87674L459.85376,365.890594L460.115967,365.978516L460.151733,365.992523L460.185913,366.010132L460.218079,366.031067L460.248047,366.055145L460.275391,366.082123L460.299561,366.11145L460.47467,366.34613L460.495972,366.377991L460.514099,366.411926L460.528564,366.447418L460.53949,366.484283L460.54657,366.522095L460.549744,366.560394L460.549133,366.598816L460.544617,366.636902L460.536194,366.674469L460.524048,366.710815L460.50293,366.756195L460.357361,367.020416L460.337158,367.053131L460.31366,367.083527L460.287292,367.111511L460.253723,367.140076L460.020386,367.316528L459.988647,367.338043L459.954834,367.356293L459.919312,367.371124L459.882629,367.382202L459.84491,367.389496L459.791504,367.39325L458.944214,367.39325L454.428406,367.363708L454.420654,367.363586L450.271057,367.251343L449.303711,368.486237L451.529297,370.364288L451.557373,370.390442L451.582642,370.419373L451.61438,370.466797L451.731018,370.671936L451.748291,370.706238L451.762024,370.742096L451.772095,370.779205L451.77832,370.817139L451.78064,370.855438L451.779053,370.89386L451.771729,370.941162L451.713501,371.205536L451.70343,371.242523L451.689575,371.278381L451.67218,371.312683L451.651367,371.34491L451.637024,371.363617L449.218811,374.329407L449.193054,374.358002L449.151306,374.393982L449.082214,374.445435L449.048462,374.467926L448.98645,374.504517L448.935242,374.529816L448.880493,374.551819L448.844116,374.564362L448.796326,374.574829L448.748779,374.582123L448.710632,374.585999L448.67218,374.585999L448.634033,374.582123L448.596313,374.574463L448.569824,374.566559L448.307617,374.478027L448.271973,374.463928L448.237854,374.446289L448.20575,374.425232L448.1875,374.411133L445.658752,372.3237L445.5849,372.365021L445.550476,372.38205L445.514526,372.395569L445.477295,372.405396L445.439331,372.411377L445.401062,372.413422L445.36261,372.411743L445.306946,372.402008L445.07428,372.343628L445.037598,372.332458L445.002197,372.317596L444.968506,372.299133L444.934326,372.275543L441.030151,369.251373L441.000916,369.22644L440.974426,369.198608L440.950989,369.168182L440.930054,369.134399L440.784607,368.870148L440.767822,368.835602L440.754578,368.7995L440.745117,368.762268L440.73938,368.724335L440.737671,368.695282L440.716003,367.686951L438.02832,367.686951L437.989929,367.684998L437.951965,367.679169L437.914734,367.669556L437.878784,367.656281L437.844238,367.639404L437.811646,367.61908L437.78125,367.59549L437.753418,367.569092L437.728333,367.539917L437.706482,367.508423L437.687744,367.474854L437.672546,367.439606L437.66095,367.402863L437.653198,367.365295L437.648926,367.31604L437.561768,363.469604L437.562744,363.431183L437.567688,363.393097L437.576477,363.355652L437.588989,363.319305L437.605164,363.284515L437.624756,363.251434L437.647461,363.220428L437.673401,363.191986L437.701843,363.166321L437.732849,363.143707L437.766052,363.124237L437.800964,363.108185L437.83728,363.095917L437.874756,363.08728L437.912964,363.082397L437.941162,363.081451L438.902771,363.081451L438.941223,363.083374L438.979187,363.089233L439.016357,363.098816L439.052368,363.112091L439.086914,363.128998L439.119507,363.149292L439.149902,363.172882L439.177734,363.19928L439.20282,363.228455L439.22467,363.259949L439.243408,363.293518L439.258606,363.328766L439.270142,363.365509L439.277954,363.403076L439.28186,363.441254L439.282349,363.460968L439.282349,364.579102L440.9021,364.579102L442.856262,362.636719L442.902222,362.588806L442.930176,362.562439L442.960693,362.539093L442.978333,362.527649L443.038513,362.490936L443.072327,362.472565L443.123901,362.452393L443.194946,362.430359L443.232117,362.420898L443.273499,362.414795L443.355164,362.407501L443.388977,362.406036L445.63269,362.406036L445.671143,362.40799zM445.633179,362.785004L443.389374,362.785004C443.273376,362.785004,443.185516,362.824127,443.127167,362.902374L441.059082,364.958099L438.903168,364.958099L438.903168,363.460419L437.941528,363.460419L438.028687,367.306915L441.087921,367.306915L441.117432,368.686554L441.262939,368.950806L445.167114,371.975037L445.39978,372.033356L445.661987,371.886475L445.691498,371.857635L448.429504,374.11792L448.691711,374.206451C448.750031,374.206451,448.828278,374.167328,448.925079,374.089081L451.343201,371.12323L451.40155,370.858948L451.284851,370.653717L448.779572,368.539673L450.090546,366.866241L454.431244,366.983612L458.946991,367.013153L459.791931,367.013153L460.025299,366.836731L460.170807,366.572479L459.995789,366.337738L459.733582,366.249878L457.490479,366.308228L457.490479,365.515442L457.781494,365.691833L459.06366,365.574463L460.433014,365.310211L460.433014,364.312225L459.06366,364.076782L457.781494,363.988922L457.548828,364.076782L457.432129,364.341034L450.847626,364.312225L450.847626,363.460419L450.702118,363.196136L450.439911,363.078766L450.207245,363.196136L450.090546,363.460419L450.090546,364.312225L448.487854,364.341034L448.487854,364.076782C448.487854,363.881165,448.419891,363.734283,448.283997,363.63681C448.187195,363.499542,448.060913,363.430878,447.90509,363.430878L446.011353,363.460419L446.011353,363.166626L445.865845,362.873535L445.633179,362.785004M441.845703,367.306915L442.340576,367.306915L443.418884,369.537659L443.360535,369.655731L441.845703,368.481323L441.845703,367.306915zM442.224792,368.295807L442.499207,368.508606L442.224792,367.940735L442.224792,368.295807zM443.7099,363.72467L443.622742,364.076782L443.622742,365.16333L443.127167,365.926605L441.495636,365.985626L443.506042,363.489929L443.972107,363.489929L443.7099,363.72467zM442.312439,365.576752L442.915833,365.554993L443.242859,365.051422L443.242859,364.421875L442.312439,365.576752zM456.849396,365.457092L456.849396,366.308228L450.935486,366.249878L450.61496,366.220367L450.789978,365.985626L450.847626,365.750885L450.847626,365.398071L456.849396,365.457092zM451.224792,365.789917L451.215759,365.84198L451.208008,365.873596L456.469421,365.925507L456.469421,365.833588L451.225159,365.781891L451.224792,365.789917z"/>
</svg>
