<?xml version="1.0" encoding="UTF-8"?>
<svg xmlns="http://www.w3.org/2000/svg" xmlns:xlink="http://www.w3.org/1999/xlink" width="16.907mm" height="24.245mm" viewBox="-427.279297 356.373779 16.906677 24.244995">
    <path transform="matrix(-1,0,0,1,0,0)" style="stroke:none;fill:#000000;fill-rule:evenodd" d="M411.606506,356.374512L412.198975,356.414032L412.237152,356.418518L412.274597,356.426788L412.311096,356.438965L412.34613,356.454651L412.379456,356.473724L412.410583,356.496216L412.441833,356.524078L412.836426,356.91806L412.862183,356.946655L412.884949,356.977539L412.904541,357.01062L412.920563,357.045502L412.933105,357.081879L412.939423,357.107056L413.042542,357.587494L413.070007,357.628479L413.254608,357.849548L413.27771,357.88031L413.303009,357.92337L413.325256,357.967865L413.369781,357.990143L413.403198,358.009094L413.43457,358.031219L413.463531,358.056519L413.489807,358.084503L413.503174,358.101288L413.55072,358.164276L413.557037,358.166443L413.592773,358.18045L413.626953,358.197968L413.65918,358.218872L413.689087,358.24295L413.716461,358.269928L413.724487,358.279541L414.015503,358.411743L414.414734,358.556427L415.380859,358.78772L415.398376,358.792358L417.570068,359.423096L417.620911,359.441956L417.916901,359.576202L417.937805,359.586426L418.214233,359.732849L418.236481,359.745605L418.49292,359.904541L418.515198,359.919495L418.752075,360.090607L418.775055,360.108459L418.992126,360.292084L419.014252,360.312408L419.211609,360.508179L419.233032,360.531281L419.410583,360.739349L419.430511,360.764771L419.588348,360.985229L419.609009,361.017578L419.626404,361.05188L419.637482,361.07959L420.021973,362.16626L420.661865,362.16626L420.691284,362.167328L420.819458,362.177307L420.857544,362.182312L420.889771,362.189606L420.99823,362.219147L421.034821,362.231049L421.082977,362.253571L421.171753,362.302917L421.204346,362.323364L421.234741,362.346832L421.255432,362.366058L421.324463,362.434998L421.350281,362.46344L421.372986,362.494446L421.392578,362.527527L421.40863,362.562439L421.41629,362.583344L421.534729,362.93808L421.545074,362.975159L421.551636,363.01297L421.554321,363.058319L421.554321,364.163605L421.606476,364.180847L421.619629,364.185486L421.9245,364.299164L421.937866,364.304413L422.235168,364.428314L422.248291,364.434143L422.53833,364.568176L422.551697,364.574615L422.834198,364.718842L422.847321,364.725891L423.122498,364.880188L423.135651,364.88797L423.40332,365.052643L423.415955,365.060669L423.6763,365.235291L423.688843,365.244049L423.941772,365.428864L423.953796,365.43811L424.199341,365.633179L424.211121,365.642914L424.449219,365.848175L424.460388,365.858246L424.691101,366.073608L424.70166,366.083832L424.925049,366.309296L424.935364,366.320099L425.151245,366.555786L425.160706,366.566589L425.369263,366.812469L425.378265,366.823547L425.579407,367.079529L425.589233,367.092651L425.785278,367.365662L425.793427,367.377441L425.976807,367.654358L425.984711,367.666748L426.155457,367.947784L426.162964,367.960785L426.321045,368.245697L426.328247,368.259216L426.473694,368.548126L426.480347,368.562012L426.613159,368.85495L426.619232,368.869293L426.73938,369.16626L426.744965,369.180969L426.852478,369.481812L426.857452,369.496765L426.952301,369.801758L426.956665,369.816833L427.038879,370.125702L427.042664,370.141022L427.112213,370.453918L427.115234,370.469238L427.17218,370.786255L427.174591,370.801453L427.218872,371.122375L427.220581,371.137451L427.252197,371.462372L427.253418,371.477203L427.272369,371.806152L427.27298,371.820862L427.279297,372.153809L427.279175,372.169495L427.269928,372.584167L427.269226,372.60144L427.241486,373.008209L427.239777,373.026184L427.193451,373.424805L427.190887,373.443054L427.126221,373.833771L427.122681,373.852478L427.039368,374.235168L427.03476,374.253906L426.932983,374.628571L426.927246,374.647522L426.806885,375.01416L426.800293,375.032654L426.66156,375.391266L426.65387,375.40976L426.496521,375.760468L426.487915,375.77832L426.312073,376.121002L426.302582,376.138275L426.108276,376.472931L426.098022,376.489471L425.885254,376.816223L425.874268,376.832153L425.642883,377.150757L425.631683,377.165588L425.381897,377.476288L425.369995,377.490265L425.101624,377.792938L425.0896,377.805817L424.802734,378.100464L424.797363,378.105957L424.502228,378.397064L424.489349,378.409241L424.186188,378.681488L424.17218,378.69342L423.860901,378.94696L423.846069,378.958496L423.526855,379.193207L423.511047,379.204163L423.183807,379.420105L423.167145,379.430573L422.831879,379.627686L422.814636,379.637177L422.471436,379.815582L422.453339,379.824341L422.10202,379.984009L422.083557,379.991913L421.724182,380.132721L421.705231,380.139526L421.33786,380.261505L421.319153,380.267212L420.943726,380.370575L420.92453,380.375305L420.541107,380.459717L420.5224,380.463348L420.13092,380.529144L420.112335,380.53183L419.712891,380.578766L419.694763,380.580475L419.287384,380.608551L419.269867,380.609283L418.85434,380.618774L418.837097,380.618774L418.42157,380.609283L418.404053,380.608551L417.996552,380.580475L417.978455,380.578766L417.579102,380.53183L417.560486,380.529144L417.169037,380.463348L417.15033,380.459717L416.766907,380.375305L416.747681,380.370575L416.372314,380.267212L416.353577,380.261505L415.986206,380.139526L415.967224,380.132721L415.60791,379.991913L415.589417,379.984009L415.238098,379.824341L415.220093,379.815704L414.876831,379.637299L414.859436,379.627686L414.52417,379.430573L414.507507,379.420105L414.180267,379.204163L414.164459,379.193207L413.845245,378.958496L413.830414,378.94696L413.519226,378.69342L413.505249,378.681488L413.202087,378.409241L413.189209,378.397064L412.894043,378.105957L412.8909,378.102783L412.599304,377.808136L412.587128,377.795258L412.31427,377.492584L412.302216,377.478607L412.048309,377.167908L412.036865,377.153168L411.801575,376.834595L411.790527,376.818665L411.574158,376.491913L411.563721,376.475372L411.366089,376.140717L411.356506,376.123322L411.177734,375.78064L411.168884,375.762512L411.008972,375.411804L411.00116,375.393341L410.859985,375.034729L410.853058,375.015869L410.730713,374.649231L410.725037,374.630157L410.621521,374.255493L410.616669,374.236389L410.532043,373.853699L410.528381,373.834869L410.462463,373.444153L410.459778,373.425537L410.41272,373.026917L410.411011,373.008698L410.382813,372.601929L410.38208,372.584167L410.372742,372.169495L410.37262,372.153809L410.378937,371.820862L410.379517,371.806152L410.398499,371.477203L410.399719,371.462372L410.431335,371.137451L410.433044,371.122375L410.477295,370.801453L410.479736,370.786255L410.536652,370.469238L410.539673,370.453918L410.609253,370.141022L410.613037,370.125702L410.695221,369.816833L410.699585,369.801758L410.794434,369.496765L410.799438,369.481812L410.906921,369.180969L410.912537,369.16626L411.032654,368.869293L411.038757,368.85495L411.171539,368.562012L411.178223,368.548126L411.323669,368.259216L411.330841,368.245697L411.488922,367.960785L411.49646,367.947784L411.667206,367.666748L411.67511,367.654358L411.85849,367.377441L411.866638,367.365662L412.062653,367.092651L412.07251,367.079407L412.273743,366.823425L412.28302,366.812134L412.492035,366.566223L412.50177,366.555176L412.718445,366.319489L412.728943,366.308685L412.9534,366.083221L412.964233,366.072754L413.196228,365.857422L413.20755,365.847321L413.447357,365.642059L413.45929,365.632202L413.706848,365.437134L413.719147,365.427917L413.974365,365.243073L413.98703,365.234314L414.249939,365.059692L414.262695,365.051544L414.533386,364.886902L414.546661,364.879242L414.825012,364.724915L414.838135,364.717987L415.124268,364.573761L415.137634,364.567322L415.431458,364.433319L415.44458,364.427582L415.746033,364.30368L415.759399,364.298584L416.068665,364.184875L416.081665,364.180237L416.137115,364.16214L416.137115,363.058319L416.139038,363.019897L416.146118,362.975891L416.225037,362.621155L416.235229,362.584198L416.249237,362.54834L416.266724,362.51416L416.287537,362.481812L416.311493,362.451904L416.338501,362.424408L416.368042,362.399841L416.399902,362.378448L416.433716,362.360321L416.45462,362.351196L416.849243,362.193359L416.885559,362.180969L416.922913,362.172211L416.961121,362.167328L416.990173,362.16626L417.618469,362.16626L417.399109,361.881683L417.108246,361.687988L416.780396,361.506317L416.382996,361.32608L416.024628,361.218719L413.825073,360.708832L413.799164,360.701782L413.493195,360.607666L413.473755,360.601074L413.1875,360.495789L413.166809,360.487518L412.900269,360.371246L412.877747,360.360565L412.631165,360.233124L412.607544,360.219849L412.380524,360.081238L412.356201,360.065063L412.148987,359.915497L412.124207,359.895905L411.936676,359.735138L411.912109,359.712158L411.744293,359.540344L411.72583,359.519897L411.574036,359.340057L411.561157,359.324005L411.421692,359.139282L411.409271,359.121765L411.282196,358.932068L411.27063,358.913727L411.155853,358.719147L411.14502,358.699677L411.042664,358.500275L411.03302,358.47995L410.942932,358.275543L410.934418,358.254486L410.856689,358.045105L410.849426,358.023682L410.784119,357.809418L410.774872,357.772095L410.769287,357.734161L410.7677,357.69574L410.768555,357.673462L410.807953,357.082489L410.812439,357.044434L410.820709,357.006836L410.832764,356.970367L410.848572,356.935333L410.867676,356.902008L410.890137,356.87088L410.915588,356.842072L410.932953,356.825409L411.327576,356.470825L411.357361,356.446625L411.389465,356.425568L411.423645,356.407959L411.459381,356.393707L411.496216,356.38327L411.53418,356.376587L411.572449,356.373779L411.606506,356.374512zM413.318268,358.486725L413.19989,358.329376L413.042053,358.250458L412.963135,358.092621L412.765839,357.856354L412.686401,357.737976L412.568024,357.186554L412.173431,356.79245L411.581055,356.752991L411.186462,357.107635L411.147003,357.698517C411.30484,358.276611,411.594391,358.80191,412.015625,359.274933C412.436829,359.747955,413.068176,360.10257,413.910645,360.338837L416.121338,360.851318L416.516418,360.969696L416.95047,361.166504L417.305603,361.363312L417.661224,361.600067L418.055817,362.11203L418.095276,362.230408L418.253113,362.545593L416.989929,362.545593L416.595337,362.70343L416.516418,363.058075L416.516418,364.437164C414.805359,364.962463,413.423798,365.921326,412.370728,367.313751C411.291534,368.758942,410.751923,370.374298,410.751923,372.160828C410.751923,374.393707,411.554932,376.285278,413.160431,377.835541C414.713135,379.43808,416.608154,380.239105,418.84549,380.239105C421.082825,380.239105,422.977875,379.43808,424.530579,377.835541C426.109924,376.285278,426.899628,374.393707,426.899628,372.160828C426.899628,370.374298,426.360016,368.758942,425.280792,367.313751C424.227722,365.921326,422.859497,364.962463,421.174591,364.437164L421.174591,363.058075L421.056213,362.70343C420.977295,362.598389,420.845581,362.545593,420.661621,362.545593L419.753571,362.545593L419.279541,361.205963C418.884949,360.601746,418.279755,360.128723,417.463928,359.787415L415.292206,359.156555L414.305237,358.920288L413.871185,358.762939L413.436646,358.565643L413.436646,358.526184L413.318268,358.486725"/>
</svg>
