<?xml version="1.0" encoding="UTF-8"?>
<svg xmlns="http://www.w3.org/2000/svg" xmlns:xlink="http://www.w3.org/1999/xlink" width="22.870mm" height="22.723mm" viewBox="-399.899597 357.134766 22.869507 22.723114">
    <path transform="matrix(-1,0,0,1,0,0)" style="stroke:none;fill:#000000;fill-rule:evenodd" d="M383.520447,357.135986L383.558472,357.141083L383.581848,357.14621L384.330078,357.33432L384.366791,357.34552L384.402161,357.360474L384.435974,357.378845L384.46759,357.400604L384.497009,357.425415L384.523682,357.453003L384.547363,357.483276L384.567932,357.515625L384.585205,357.550049L384.598816,357.585907L384.608643,357.623138L384.608887,357.624603L384.71701,357.814545L384.734283,357.848816L384.748016,357.884705L384.757996,357.921783L384.765167,357.968353L384.802246,358.381561L384.803711,358.420013L384.799683,358.470947L384.794708,358.505005L384.81308,358.499054L384.850647,358.491028L384.888855,358.486877L384.927246,358.486633L384.965576,358.490173L385.003265,358.497711L385.039978,358.508881L385.075378,358.523743L385.10907,358.542206L385.140808,358.563873L385.170105,358.588654L385.196838,358.616272L385.220581,358.646423L385.243683,358.683289L385.277466,358.744934L385.300354,358.795135L385.327209,358.867371L385.340454,358.910675L385.360413,358.993378L385.367462,359.030457L385.380371,359.12384L385.38327,359.15448L385.389099,359.258331L385.389709,359.283264L385.388611,359.397705L385.387756,359.419098L385.379517,359.543976L385.378052,359.561249L385.362854,359.696838L385.352386,359.752045L385.219727,360.251465L385.250488,360.253174L385.288422,360.259125L385.3255,360.268982L385.361511,360.282471L385.395935,360.2995L385.428406,360.320068L385.458679,360.343658L385.47522,360.358978L386.097473,360.96637L386.111572,360.936951L386.131622,360.904114L386.154968,360.873596L386.181122,360.84552L386.210083,360.820343L386.241455,360.798096L386.274872,360.779114L386.309998,360.763672L386.346619,360.751862L386.367798,360.746887L387.452972,360.52179L387.490906,360.515839L387.543213,360.51413L387.641846,360.517548L387.672729,360.519867L387.763306,360.530426L387.798218,360.536163L387.880554,360.55365L387.921509,360.56485L387.995697,360.589539L388.039734,360.6073L388.105743,360.638916L388.152679,360.665649L388.210571,360.704315L388.241333,360.727203L388.256897,360.740814L388.306641,360.786652L388.333618,360.814148L388.347839,360.831268L388.380798,360.87323L388.423004,360.920776L388.450989,360.956421L388.492676,361.016479L388.514587,361.052124L388.550079,361.117645L388.567963,361.155487L388.596893,361.226624L388.609558,361.262848L388.63205,361.3396L388.64032,361.373749L388.656372,361.456085L388.661224,361.487457L388.670837,361.575256L388.672791,361.603088L388.676086,361.696625L388.676086,361.722504L388.672791,361.821503L388.671448,361.84375L388.661835,361.948334L388.659546,361.968292L388.643494,362.078461L388.640442,362.096069L388.61792,362.211853L388.614532,362.227661L388.585571,362.348907L388.58194,362.363007L388.546448,362.48996L388.542908,362.50174L388.501221,362.634186L388.497437,362.645355L388.449158,362.783386L388.448059,362.786438L388.376801,362.984772L388.370361,363.001434L388.287415,363.202057L388.280609,363.217621L388.185883,363.420593L388.179077,363.43457L388.072784,363.639832L388.065613,363.652985L387.94754,363.860687L387.940491,363.872711L387.810608,364.082733L387.80368,364.093414L387.662231,364.305878L387.655334,364.315948L387.502106,364.530701L387.19043,364.974213L387.178772,364.989899L386.83728,365.426331L386.8255,365.440796L386.456055,365.867859L386.443909,365.881256L386.046509,366.298828L386.032166,366.313049L385.750763,366.578888L385.743347,366.585693L385.460876,366.838623L385.452942,366.845551L385.169373,367.085602L385.160736,367.092651L384.876068,367.319702L384.867065,367.326752L384.581299,367.540894L384.571472,367.547943L384.284485,367.749084L384.274231,367.756012L383.986176,367.944244L383.975342,367.95105L383.686035,368.126404L383.673767,368.133575L383.390198,368.291321L383.375488,368.298981L383.104675,368.434448L383.087402,368.442596L382.829468,368.555786L382.809174,368.564056L382.56427,368.655029L382.539581,368.663177L382.307434,368.73175L382.278625,368.739044L382.059479,368.785492L382.024841,368.791229L381.818604,368.815308L381.778076,368.817841L381.584747,368.819672L381.546448,368.818085L381.508362,368.812622L381.467529,368.802277L380.868988,368.614288L380.832886,368.600922L380.798462,368.584015L380.765869,368.56369L380.735474,368.5401L380.707611,368.513733L380.682556,368.484528L380.660675,368.453033L380.641968,368.419342L380.626862,368.384094L380.618469,368.359161L380.431091,367.721466L380.422211,367.684143L380.417114,367.646088L380.415771,367.607666L380.418457,367.569336L380.426086,367.526306L380.640625,366.628754L380.64209,366.599304L380.647888,366.561371L380.657532,366.52417L380.670776,366.488159L380.687683,366.453644L380.707977,366.421051L380.731567,366.390656L380.757935,366.362793L380.78714,366.337738L380.818634,366.315857L380.852203,366.297119L380.880554,366.284973L380.264374,365.66687L380.238586,365.638275L380.215973,365.607269L380.196533,365.574066L380.180481,365.539185L380.16806,365.502808L380.159424,365.465363L380.154663,365.427307L380.153687,365.388855L380.156616,365.350555L380.158081,365.342529L379.655762,365.529327L379.619019,365.540863L379.581421,365.548645L379.543274,365.552673L379.504822,365.552673L379.46701,365.548889L378.718781,365.436401L378.681091,365.428864L378.64447,365.41745L378.6091,365.402374L378.575409,365.383881L378.543793,365.362L378.514618,365.337067L378.488098,365.309326L378.464386,365.279053L378.44397,365.24646L378.426941,365.212067L378.413452,365.176056L378.403687,365.138977L378.397766,365.100922L378.395691,365.062592L378.397522,365.02417L378.403107,364.986237L378.412598,364.949036L378.415161,364.941986L378.353119,364.948181L378.230042,364.978577L378.192383,364.98587L378.154053,364.98941L378.115631,364.988922L378.085938,364.985992L377.823792,364.949036L377.786072,364.941742L377.749237,364.930664L377.713867,364.915955L377.687592,364.902222L377.426025,364.751801L377.393677,364.730865L377.36377,364.706909L377.332275,364.675659L377.283997,364.621674L377.257111,364.587982L377.215271,364.5289L377.192902,364.493134L377.157532,364.429047L377.139648,364.392212L377.110718,364.32312L377.097687,364.286774L377.075195,364.212708L377.066315,364.177948L377.050262,364.098907L377.045288,364.067047L377.035522,363.983002L377.033234,363.95285L377.03009,363.863831L377.03009,363.837585L377.033234,363.743561L377.034821,363.719238L377.044556,363.62027L377.047119,363.599457L377.063171,363.495514L377.066559,363.476654L377.08905,363.367706L377.092957,363.351044L377.121887,363.237091L377.125916,363.22226L377.161285,363.103333L377.165527,363.090179L377.207367,362.966278L377.211487,362.954498L377.259766,362.825592L377.271698,362.797363L378.206604,360.806854L378.224701,360.772919L378.246094,360.741058L378.270569,360.711517L378.297913,360.684509L378.327942,360.660553L378.360168,360.639648L378.394348,360.622131L378.430237,360.608154L378.467163,360.597809L378.472656,360.596832L378.470459,360.555725L378.470459,360.330505L378.472412,360.292084L378.478271,360.25415L378.487854,360.216949L378.501099,360.180939L378.509399,360.163177L378.546478,360.087677L378.565063,360.054108L378.581116,360.030273L379.104858,359.3172L379.129211,359.287537L379.156433,359.260284L379.196442,359.22879L380.01947,358.665283L380.052185,358.645203L380.086823,358.62854L380.122925,358.615417L380.160156,358.606049L380.198212,358.600586L380.233826,358.598877L380.346313,358.598877L380.384766,358.60083L380.422699,358.606659L380.422943,358.606781L380.424744,358.595947L380.43512,358.558868L380.448975,358.523132L380.466492,358.488831L380.487274,358.456604L380.511353,358.426575L380.538208,358.3992L380.567749,358.374634L380.599609,358.353119L380.621643,358.340973L382.080872,357.590057L382.115906,357.574249L382.134155,357.567566L383.368896,357.154358L383.405884,357.144012L383.443695,357.137451L383.481995,357.134766L383.520447,357.135986zM380.346191,358.978058L380.233643,358.978058L379.410675,359.541595L378.886963,360.254761L378.849884,360.330261L378.849884,360.555389L379.149139,360.40506L379.784729,359.954803C380.059296,359.678864,380.246674,359.416656,380.346191,359.166138L380.346191,358.978058zM383.152161,362.732605C383.8255,362.00708,384.324493,361.306274,384.648468,360.630188L384.835846,360.21698L384.985474,359.654144C385.035583,359.278717,385.010193,359.015808,384.910675,358.865509L384.761047,359.353516L384.761047,359.391266L384.49884,359.879303L384.049957,360.742767C383.625763,361.418854,383.089691,362.06955,382.44104,362.695526L380.645477,364.197357L379.784729,364.685364L379.261047,364.910492L378.775085,365.060822L379.523224,365.17337L380.532898,364.797943C381.231659,364.447205,381.917358,363.959167,382.590698,363.333862L383.152161,362.732605zM388.090698,361.118225C387.99118,360.967896,387.803772,360.893097,387.529907,360.893097L386.444733,361.118225L387.005524,361.643982C387.304779,361.96933,387.33017,362.482758,387.080322,363.183563C386.781067,363.959167,386.220306,364.760193,385.397308,365.586578C384.698578,366.287384,383.987488,366.80011,383.264709,367.125458C382.44104,367.476196,381.854889,367.476196,381.506195,367.125458L381.019562,366.637451L381.019562,366.675201L380.795105,367.614166L380.982483,368.251831L381.581024,368.43988C382.079346,368.4646,382.715607,368.251831,383.489166,367.801544C384.262024,367.351288,385.022552,366.763062,385.771393,366.036865C386.319824,365.486389,386.794128,364.910492,387.192902,364.309906C387.617096,363.734039,387.916351,363.183563,388.090698,362.657776C388.365234,361.90686,388.365234,361.393463,388.090698,361.118225zM384.461761,361.981689L383.526245,363.108063L383.002502,363.67157L381.88028,364.609863L381.243988,364.985321L380.532898,365.398529L381.88028,366.75C382.054626,366.92572,382.379272,366.92572,382.852875,366.75L383.264709,366.524872C383.863251,366.224915,384.449432,365.799377,385.022552,365.248199C385.621765,364.622894,386.083008,364.009277,386.406982,363.408691L386.59436,362.995483L386.59436,362.920654C386.768707,362.445007,386.768707,362.132019,386.59436,361.981689L385.20993,360.630188L384.835846,361.381104L384.461761,361.981689zM380.832855,358.75293L380.869934,358.79068L380.907654,358.79068L380.907654,359.128387L380.869934,359.203888L380.869934,359.240967L380.832855,359.316467C380.707947,359.666504,380.48349,360.004211,380.158813,360.330261L379.448425,360.855347C379.223969,361.005646,379.024231,361.081146,378.849884,361.081146L378.700256,361.081146L378.549927,360.967896L377.615082,362.958405C377.340515,363.65921,377.340515,364.147247,377.615082,364.422485L377.876587,364.572784L378.138794,364.609863L378.288422,364.572784C378.787415,364.547394,379.385956,364.322266,380.084015,363.896698C380.758026,363.496552,381.418335,362.970764,382.066986,362.320068C383.139801,361.243835,383.863251,360.192291,384.237335,359.166138C384.336853,358.8909,384.399323,358.640381,384.424011,358.415222L384.386963,358.002014L384.237335,357.739136L384.237335,357.702087L383.489166,357.514008L382.254364,357.927216L380.795105,358.678131L380.832855,358.715179L380.832855,358.75293"/>
    <path transform="matrix(-1,0,0,1,0,0)" style="stroke:none;fill:#000000;fill-rule:evenodd" d="M388.681763,363.218597L388.719849,363.223602L388.757294,363.232239L388.793518,363.244751L388.82843,363.260803L388.861511,363.280396L388.892517,363.303131L388.919373,363.327332L394.643768,368.996246L394.647766,369.000244L394.65741,369.010101L394.6828,368.98468L394.712463,368.960358L394.744568,368.939087L394.778625,368.921326L394.81427,368.906982L394.851227,368.896423L394.889038,368.889587L394.927368,368.886566L394.979523,368.888733L395.989807,369.001221L396.017029,369.005249L396.157471,369.031281L396.206848,369.043915L396.328461,369.083923L396.364319,369.097778L396.38623,369.108368L396.489105,369.162354L396.522186,369.181946L396.551727,369.203583L396.635742,369.271667L396.664337,369.297333L396.690247,369.325806L396.714905,369.359467L396.788635,369.472687L396.807953,369.50589L396.823517,369.540558L396.876038,369.673706L396.888336,369.710052L396.894775,369.736206L396.926392,369.889313L396.933441,369.943176L396.943909,370.116211L396.944153,370.159637L396.933685,370.3526L396.930054,370.387756L396.898438,370.600677L396.893311,370.62854L396.84079,370.861389L396.834839,370.884033L396.761139,371.136841L396.748596,371.173187L396.739014,371.194977L396.549194,371.590302L396.581055,371.591644L396.61908,371.597107L396.656311,371.606354L396.692566,371.619232L396.727203,371.635895L396.76004,371.655853L396.790558,371.679077L396.815002,371.701447L397.1521,372.039124L397.177856,372.067719L397.2005,372.098602L397.21994,372.131805L397.236115,372.167053L397.310913,372.355194L397.323303,372.391541L397.33194,372.428986L397.33667,372.467072L397.337769,372.495392L397.337769,372.758301L397.335815,372.796722L397.329407,372.83783L397.216797,373.362915L397.206818,373.400116L397.186401,373.45047L397.15271,373.519043L397.000214,373.846283L397.035706,373.782806L397.185913,373.469086L397.291687,373.204102L397.296936,373.169922L397.308472,373.12677L397.450745,372.698242L397.483948,372.532959L397.493408,372.495758L397.506683,372.459778L397.523346,372.42511L397.543518,372.392395L397.567017,372.362L397.593262,372.334015L397.622314,372.308838L397.653687,372.286713L397.687256,372.268005L397.722534,372.252686L397.759155,372.240875L397.796692,372.232971L397.8349,372.228973L397.873322,372.228729L397.911499,372.232361L397.949219,372.239899L397.985931,372.251221L398.021301,372.266174L398.054993,372.284668L398.086609,372.306427L398.124939,372.339996L398.536072,372.752594L398.561707,372.781158L398.584473,372.812164L398.60318,372.844025L398.651337,372.93573L398.667511,372.970612L398.678955,373.003448L398.710571,373.109253L398.719666,373.146576L398.72345,373.1698L398.73877,373.289459L398.741821,373.341034L398.740601,373.474792L398.737915,373.516388L398.720276,373.664246L398.714935,373.697083L398.68103,373.858948L398.674438,373.885559L398.624084,374.061401L398.617188,374.082916L398.550415,374.272766L398.546387,374.283813L398.429657,374.585388L398.418213,374.611664L398.273254,374.91568L398.26123,374.938904L398.098389,375.227356L398.206146,375.059906L398.315369,374.879181L398.413483,374.705414L398.506042,374.529327L398.591614,374.352661L398.666443,374.184235L398.727478,374.032959L398.90744,373.237305L398.917786,373.200317L398.931885,373.164581L398.949402,373.130402L398.970306,373.098175L398.994507,373.068268L399.021484,373.041016L399.051056,373.016602L399.083038,372.995178L399.116943,372.977173L399.152588,372.962708L399.189453,372.951904L399.227264,372.944855L399.265564,372.941681L399.303864,372.942413L399.342041,372.947021L399.379517,372.955536L399.415985,372.967712L399.450989,372.983521L399.484192,373.002716L399.51532,373.025208L399.545959,373.052704L399.620789,373.127502L399.652039,373.162872L399.725708,373.257599L399.747742,373.288971L399.771057,373.332275L399.823608,373.446686L399.83783,373.48233L399.848022,373.518188L399.879639,373.65271L399.886597,373.690521L399.888916,373.713867L399.899353,373.868164L399.899597,373.916565L399.88916,374.09082L399.884888,374.12915L399.853271,374.323212L399.847198,374.352661L399.794678,374.566803L399.788086,374.590393L399.714417,374.824341L399.712708,374.82959L399.545258,375.335083L399.545258,375.563812L399.560577,375.58728L399.574432,375.61319L399.626343,375.720581L399.641296,375.755951L399.648132,375.776642L399.684967,375.899323L399.696411,375.949677L399.718048,376.087555L399.72229,376.130493L399.72876,376.283722L399.728638,376.319336L399.719879,376.487762L399.717194,376.517426L399.693115,376.70105L399.689087,376.725006L399.649963,376.923828L399.639984,376.963226L399.568115,377.194397L399.560822,377.21582L399.476196,377.439911L399.467285,377.461334L399.369781,377.678497L399.359558,377.699554L399.249146,377.909546L399.237488,377.930115L399.114166,378.133057L399.101501,378.152649L398.965332,378.348541L398.951599,378.367035L398.80249,378.555878L398.788147,378.573029L398.626282,378.754944L398.602966,378.7789L398.421631,378.949646L398.402893,378.966187L398.214539,379.121582L398.194214,379.137146L397.998932,379.277222L397.977173,379.29184L397.774963,379.416718L397.751709,379.42984L397.542419,379.53952L397.518005,379.551331L397.301666,379.645691L397.276733,379.655548L397.053345,379.734711L397.028076,379.742615L396.797607,379.80658L396.76004,379.814972L396.721985,379.81958L396.683533,379.82019L396.660583,379.818726L395.50946,379.71051L394.544434,379.854004L394.506226,379.857758L394.47583,379.85788L393.353668,379.82019L393.315369,379.817047L393.277679,379.809967L393.247742,379.801361L393.135132,379.764252L393.099274,379.750519L393.065002,379.733002L393.032654,379.712341L393.002625,379.688385L392.975128,379.661499L392.950562,379.631958L392.929016,379.60022L392.910797,379.566284L392.896179,379.530792L392.885132,379.494049L392.87796,379.456238L392.874573,379.41806L392.875061,379.379639L392.879425,379.341431L392.887695,379.303864L392.899597,379.267395L392.915283,379.232361L392.934387,379.198914L392.956635,379.167664L392.982056,379.138855L393.010254,379.112701L393.040894,379.0896L393.07373,379.069672L393.108521,379.053253L393.144653,379.040344L393.187683,379.030121L393.374084,378.997192L393.559814,378.952423L393.751556,378.894775L393.950745,378.823639L394.156006,378.73938L394.371613,378.639679L394.593933,378.526215L394.822021,378.399261L395.051758,378.260254L395.268311,378.117615L395.100647,378.22171L395.081909,378.232666L394.819977,378.375183L394.799805,378.385284L394.303528,378.618256L394.283569,378.627014L394.066772,378.713959L394.040619,378.723328L393.841187,378.786804L393.807373,378.795929L393.62558,378.835815L393.582275,378.842621L393.418121,378.859161L393.361816,378.860748L393.215027,378.853699L393.17688,378.849792L393.146118,378.843964L393.016846,378.813446L392.979858,378.802734L392.938782,378.785706L392.827148,378.73172L392.793457,378.713226L392.761841,378.691467L392.723389,378.657776L392.274445,378.206879L392.248779,378.178314L392.226044,378.147278L392.206726,378.114227L392.190674,378.079193L392.178375,378.042847L392.169739,378.005371L392.164856,377.967316L392.164032,377.928894L392.166931,377.890594L392.173889,377.852783L392.184448,377.815918L392.198792,377.780182L392.216553,377.746124L392.237732,377.714142L392.262024,377.684357L392.289276,377.657227L392.319092,377.633026L392.351166,377.611877L392.385223,377.594116L392.420837,377.579895L392.457825,377.569305L392.481537,377.564697L392.690552,377.530151L393.097961,377.427399L393.372284,377.315765L393.414612,377.294983L392.82251,377.443695L392.78479,377.451233L392.730103,377.455109L392.430817,377.455109L392.392395,377.453186L392.354462,377.447327L392.317261,377.437744L392.289642,377.427887L392.102966,377.353088L392.068085,377.337036L392.035004,377.317596L392.00412,377.294739L391.975525,377.268951L391.96167,377.254364L391.624695,376.878845L391.600525,376.848938L391.579468,376.816833L391.561829,376.782654L391.547729,376.746918L391.537292,376.70993L391.531189,376.675629L391.179626,376.852081L391.144501,376.867523L391.116028,376.877014L390.863953,376.950836L390.841461,376.956665L390.609314,377.00946L390.581116,377.014801L390.368896,377.046417L390.333771,377.049927L390.14151,377.060516L390.097473,377.060394L389.925049,377.049805L389.871307,377.042633L389.718689,377.011017L389.681488,377.001434L389.655334,376.992065L389.522675,376.93927L389.487762,376.92334L389.4552,376.904266L389.342346,376.830444L389.31134,376.807831L389.282745,376.782166L389.256836,376.753723L389.233978,376.722839L389.214417,376.68988L389.198242,376.654968L389.185699,376.618744L389.175476,376.573364L388.950989,375.184052L388.946747,375.145874L388.946533,375.107452L388.950043,375.069122L388.957458,375.031433L388.968628,374.99472L388.983459,374.95932L389.001831,374.925537L389.023499,374.893799L389.039551,374.874817L389.015808,374.85791L388.982849,374.828735L383.221283,369.084412L383.195496,369.055939L383.17276,369.025055L383.153198,368.991974L383.137146,368.957092L383.124603,368.920715L383.115845,368.883392L383.11087,368.845215L383.109894,368.806915L383.112671,368.768494L383.119385,368.730652L383.129822,368.693695L383.144073,368.658051L383.161682,368.623901L383.182861,368.591797L383.207062,368.562012L383.23407,368.53476L383.263855,368.510315L383.295837,368.489166L383.329895,368.471283L383.365509,368.45694L383.402344,368.446228L383.432373,368.440399L383.590332,368.416443L383.737488,368.382996L383.896179,368.335327L384.058044,368.275757L384.229126,368.201569L384.40802,368.112915L384.591278,368.011261L384.787659,367.891235L384.792053,367.888672L384.998535,367.766235L385.20343,367.633789L385.401764,367.494934L385.603638,367.342804L385.803772,367.180939L386.00238,367.009491L386.201172,366.826721L386.400513,366.632629L386.714478,366.304901L386.997437,365.983887L387.258057,365.659912L387.487244,365.34436L387.692413,365.028076L387.869812,364.716522L388.021729,364.407043L388.139893,364.118958L388.282776,363.510345L388.293518,363.473358L388.307861,363.437744L388.325745,363.403687L388.346863,363.371704L388.371338,363.342041L388.398438,363.314911L388.428345,363.29071L388.460449,363.269562L388.494507,363.251801L388.530273,363.237701L388.56723,363.227112L388.605042,363.220428L388.643372,363.217621L388.681763,363.218597zM394.350098,376.744965L394.589172,376.571442L394.908997,376.315582L395.076538,376.169403L394.350098,376.744965zM395.868439,375.403534L395.879883,375.391632L396.16394,375.06781L396.422852,374.743103L396.652649,374.423065L396.725983,374.308136L395.868439,375.403534zM395.349213,373.733978L394.601074,374.597473L394.488495,374.710022L393.665527,375.423187L393.066986,375.948944L391.907013,376.625031L392.244019,377.000488L392.430725,377.075317L392.72998,377.075317L393.328491,376.924988L393.889954,376.625031L395.311462,375.498688L396.546295,373.921356L396.808472,373.358521L396.845551,373.28302L396.958099,372.757935L396.958099,372.495056L396.883301,372.307007L396.546295,371.969299L395.835175,373.133392L395.349213,373.733978zM395.835175,375.986694C394.912689,376.887939,394.039612,377.488525,393.216614,377.788452L392.767731,377.901733L392.543274,377.938782L392.992188,378.38974C393.266724,378.564758,393.727966,378.48996,394.376617,378.16391C395.074677,377.863953,395.773407,377.350555,396.471466,376.625031C397.344543,375.773926,397.918365,374.94751,398.19223,374.146515C398.391968,373.621429,398.417358,373.245972,398.267059,373.020142L397.855896,372.607635L397.818146,372.795013L397.668518,373.245972L397.668518,373.28302C397.344543,374.184265,396.733673,375.08548,395.835175,375.986694zM399.165527,375.27356L399.352234,374.710022C399.57666,374.059326,399.57666,373.621429,399.352234,373.395599L399.277405,373.32077L399.090698,374.146515C398.716644,375.12323,398.005524,376.137024,396.958099,377.187866C396.309479,377.838562,395.660828,378.35199,395.012207,378.727448C394.363586,379.102905,393.777405,379.328033,393.253693,379.403534L393.366241,379.440613L394.488495,379.478333L395.498871,379.328033L396.695923,379.440613C397.319824,379.290283,397.868256,378.977966,398.34256,378.502319C398.791443,378.026642,399.103058,377.476166,399.277405,376.850189C399.402344,376.299683,399.364594,375.911194,399.165527,375.686066L399.165527,375.27356zM394.937378,369.265625L394.975159,369.303375L395.012207,369.378174L395.012207,369.941711L394.975159,370.05426L394.975159,370.09201L394.90033,370.354919L394.862579,370.391968L394.78775,370.692627L394.750702,370.730377L394.675873,370.955505L394.601074,371.105804L394.18924,371.781219L394.152161,371.81897L393.815155,372.269226L393.777405,372.344727L393.702576,372.457306L393.627777,372.495056L393.478149,372.682434L392.543274,373.621429L391.233643,374.597473L391.195892,374.597473L390.597382,374.8974L389.3255,375.12323L389.549957,376.512482C389.824493,376.73761,390.310455,376.73761,391.009216,376.512482L391.981812,376.024445L394.11441,374.334564L394.18924,374.222015C394.912689,373.52121,395.486511,372.795013,395.910004,372.044098L396.396637,371.030304C396.621094,370.329529,396.621094,369.841492,396.396637,369.566254C396.297119,369.466034,396.147491,369.403564,395.947754,369.378174L394.937378,369.265625zM388.502533,364.234406C388.177856,365.110931,387.566986,365.999115,386.669189,366.90033C386.120087,367.450806,385.559296,367.889404,384.985474,368.214752C384.437073,368.564819,383.938049,368.765228,383.489166,368.815338L389.250702,374.559723L390.560303,374.372314L392.505524,372.945343L393.366241,372.00705L393.366241,371.969299L393.478149,371.85672L393.478149,371.81897L393.627777,371.66864L394.077362,370.955505L394.077362,370.880676L394.338867,370.354919L394.451447,369.903961C394.526245,369.578613,394.500854,369.365814,394.376617,369.265625L388.652161,363.596771L388.502533,364.234406z"/>
</svg>
