<?xml version="1.0" encoding="UTF-8"?>
<svg xmlns="http://www.w3.org/2000/svg" xmlns:xlink="http://www.w3.org/1999/xlink" width="23.240mm" height="19.736mm" viewBox="-369.723633 358.628052 23.239563 19.736176">
    <path transform="matrix(-1,0,0,1,0,0)" style="stroke:none;fill:#000000;fill-rule:evenodd" d="M349.676758,358.629761L349.825867,358.644226L349.8638,358.649963L349.9021,358.659668L350.041687,358.703217L350.07782,358.716583L350.113708,358.7341L350.243805,358.806702L350.276276,358.827118L350.302917,358.847565L350.423523,358.948853L350.438965,358.962585L350.493225,359.013428L350.523376,359.045044L350.570435,359.100616L350.597656,359.136963L350.637451,359.197296L350.660278,359.236938L350.692749,359.302124L350.7099,359.342255L350.735199,359.41217L350.747253,359.452057L350.765381,359.526947L350.772522,359.565155L350.783356,359.644806L350.786407,359.680054L350.789917,359.764587L350.790283,359.780396L350.790283,363.073059L352.925537,363.073059L352.965179,362.980988L352.975159,362.959839L353.053711,362.804535L353.06488,362.783997L353.153778,362.632355L353.165955,362.613007L353.265045,362.465027L353.277954,362.446899L353.38739,362.302551L353.400513,362.286163L353.52005,362.145447L353.533813,362.130249L353.663666,361.993073L353.677551,361.979218L353.817627,361.845825L353.831238,361.833405L353.981659,361.703552L353.995178,361.692474L354.15567,361.566254L354.169067,361.556152L354.339905,361.433594L354.352417,361.424957L354.533386,361.305908L354.546143,361.297882L354.737427,361.182587L354.749207,361.175781L354.950714,361.064026L354.962158,361.057953L355.170349,360.951538L355.375244,360.844055L355.387512,360.83786L355.597656,360.737152L355.610168,360.731445L355.825562,360.637695L355.837952,360.632568L356.058289,360.545746L356.070801,360.541016L356.296387,360.461243L356.308411,360.457214L356.539001,360.384277L356.551392,360.380615L356.78717,360.314697L356.798859,360.311676L357.039734,360.252563L357.051666,360.249908L357.297546,360.197845L357.308868,360.195526L357.559967,360.150299L357.571289,360.148468L357.827515,360.110291L357.838318,360.108826L358.09967,360.077576L358.110229,360.076477L358.376648,360.052155L358.386993,360.051331L358.658539,360.033936L358.668518,360.033447L358.94516,360.023102L358.954651,360.022858L359.236389,360.019348L359.251221,360.01947L359.775452,360.033325L359.796143,360.034424L360.30835,360.076111L360.329742,360.07843L360.829895,360.147858L360.851929,360.151642L361.339905,360.248932L361.362152,360.254028L361.838135,360.379028L361.860352,360.38559L362.324402,360.53833L362.346558,360.546478L362.798279,360.727081L362.819824,360.73642L363.259644,360.944611L363.279602,360.954712L363.477356,361.062927L363.488647,361.069397L363.677124,361.181122L363.688904,361.188446L363.868042,361.303711L363.880554,361.312225L364.050323,361.431274L364.062866,361.440399L364.223267,361.562958L364.236145,361.573181L364.387299,361.699402L364.400299,361.710846L364.542114,361.840729L364.555115,361.853241L364.687531,361.986633L364.700684,362.00061L364.82373,362.137787L364.836487,362.152618L364.950195,362.293335L364.962463,362.309387L365.066956,362.453705L365.078735,362.4711L365.173828,362.61911L365.184875,362.637451L365.27063,362.789093L365.280823,362.808441L365.357208,362.963715L365.366333,362.983795L365.4039,363.073059L368.804565,363.073059L368.842957,363.074982L368.896362,363.084351L369.204498,363.161224L369.241333,363.172272L369.276733,363.187103L369.310547,363.205475L369.342285,363.227112L369.371582,363.251923L369.398346,363.279541L369.42218,363.309692L369.442749,363.342041L369.452332,363.360046L369.683746,363.824066L369.699188,363.859344L369.710876,363.895813L369.718872,363.93338L369.723022,363.97171L369.723633,363.993469L369.723633,369.481812L369.72168,369.520233L369.715851,369.558167L369.706238,369.595398L369.692993,369.631378L369.676086,369.665924L369.655762,369.698517L369.632202,369.728912L369.605804,369.756744L369.576599,369.781799L369.545105,369.80368L369.511536,369.822418L369.476288,369.837616L369.439575,369.849182L369.401978,369.856964L369.3638,369.86084L369.325378,369.86084L369.291809,369.857697L346.811279,366.727112L346.773499,366.71994L346.736633,366.709015L346.701111,366.694275L346.667297,366.676178L346.635437,366.654633L346.606018,366.629944L346.579163,366.602478L346.555176,366.572449L346.534424,366.540222L346.517029,366.50592L346.503174,366.470062L346.49292,366.433075L346.486633,366.395142L346.48407,366.351227L346.48407,366.041626L346.486023,366.003204L346.491821,365.965271L346.506073,365.914185L346.698914,365.373291L346.713654,365.337799L346.731873,365.303986L346.753418,365.272125L346.778076,365.242706L346.805603,365.215942L346.835754,365.191986L346.874268,365.167786L347.298462,364.93576L347.333099,364.919006L347.369202,364.905853L347.406433,364.896484L347.444366,364.8909L347.480591,364.889191L348.180786,364.889191L348.180786,359.780396L348.182739,359.741943L348.188599,359.70401L348.198181,359.666809L348.211304,359.631165L348.442627,359.090271L348.459534,359.055756L348.479828,359.023163L348.503296,358.992767L348.529663,358.964783L348.558746,358.939728L348.59024,358.917725L348.623779,358.898987L348.641785,358.890717L349.181335,358.658844L349.217346,358.645569L349.254578,358.635834L349.29248,358.630005L349.331177,358.628052L349.640045,358.628052L349.676758,358.629761zM353.187683,363.452026L350.411255,363.452026L350.411255,359.779846C350.411255,359.547852,350.334381,359.368042,350.179932,359.238983C350.025513,359.084564,349.845673,359.006989,349.640442,359.006989L349.331573,359.006989L348.792084,359.238983L348.56076,359.779846L348.56076,365.268188L347.481079,365.268188L347.056885,365.500183L346.864014,366.041077L346.864014,366.350616L369.344513,369.481232L369.344513,363.992889L369.11319,363.5289L368.805023,363.452026L365.141785,363.452026C364.858978,362.5755,364.177399,361.854126,363.097717,361.28717C361.941162,360.694824,360.655548,360.398285,359.241608,360.398285C357.725372,360.398285,356.426727,360.694824,355.347046,361.28717C354.190491,361.854126,353.470459,362.5755,353.187683,363.452026zM354.922852,363.452026C355.205658,363.013428,355.74585,362.614624,356.542725,362.253601L359.241608,361.828705L361.90271,362.253601C362.62204,362.614624,363.162231,363.013428,363.521912,363.452026L354.922852,363.452026zM356.656342,362.620453L356.426758,362.730255L356.179749,362.862427L355.96051,362.995087L355.847412,363.073059L362.540497,363.073059L362.42572,362.992554L362.210815,362.856354L361.983795,362.725616L361.780701,362.61911L359.240662,362.213562L356.656342,362.620453z"/>
    <path transform="matrix(-1,0,0,1,0,0)" style="stroke:none;fill:#000000;fill-rule:evenodd" d="M346.915894,367.366638L369.396393,370.497192L369.434204,370.504364L369.471069,370.51532L369.506592,370.530029L369.540375,370.548157L369.572235,370.569672L369.601685,370.59436L369.62854,370.621857L369.652496,370.651886L369.673279,370.684113L369.690674,370.718384L369.704529,370.754272L369.714752,370.791229L369.721069,370.829193L369.723633,370.873077L369.723633,374.313232L369.72168,374.351685L369.715851,374.389618L369.706238,374.426819L369.692993,374.46283L369.676086,374.497345L369.655762,374.529938L369.632202,374.560333L369.605804,374.588196L369.576599,374.613251L369.545105,374.635132L369.511536,374.65387L369.476288,374.669067L369.439575,374.680603L369.401978,374.688385L369.3638,374.692291L369.325378,374.692291L369.292419,374.68924L346.81189,371.597107L346.774078,371.589935L346.737244,371.578979L346.701721,371.564392L346.667908,371.546265L346.636047,371.524872L346.606506,371.500305L346.579529,371.472839L346.555542,371.442902L346.53479,371.410553L346.517273,371.376404L346.503296,371.340515L346.493042,371.303558L346.486633,371.265625L346.48407,371.2211L346.48407,367.742523L346.486023,367.704071L346.491821,367.666138L346.501465,367.628937L346.514709,367.592926L346.531616,367.558411L346.55191,367.525818L346.5755,367.495422L346.601898,367.46756L346.631073,367.442505L346.662567,367.420624L346.696136,367.401886L346.731384,367.386688L346.768127,367.375153L346.805695,367.367371L346.843872,367.363464L346.882324,367.363464L346.915894,367.366638zM369.344513,374.312714L369.344513,370.872528L346.864014,367.741943L346.864014,371.22052L369.344513,374.312714z"/>
    <path transform="matrix(-1,0,0,1,0,0)" style="stroke:none;fill:#000000;fill-rule:evenodd" d="M346.916016,372.120483L369.396515,375.25119L369.434204,375.258362L369.471069,375.269287L369.506592,375.283997L369.540375,375.302124L369.572235,375.323639L369.601685,375.348328L369.62854,375.375824L369.652496,375.405853L369.673279,375.43808L369.690674,375.472382L369.704529,375.50824L369.714752,375.545227L369.721069,375.58316L369.723633,375.627045L369.723633,377.559814L369.72168,377.598236L369.715851,377.6362L369.706238,377.673401L369.692993,377.709412L369.676086,377.743927L369.659912,377.770325L369.428497,378.117615L369.40564,378.148376L369.37973,378.176849L369.351166,378.202393L369.320007,378.225006L369.286835,378.244324L369.251831,378.260254L369.205353,378.275208L368.897217,378.352814L368.859497,378.360229L368.804565,378.364227L350.410767,378.364227L350.372345,378.362274L350.32782,378.355103L349.981262,378.277527L349.944275,378.267181L349.908417,378.253204L349.874268,378.235687L349.842041,378.214905L349.812134,378.190826L349.784607,378.163818L349.760193,378.134277L349.732361,378.09137L349.53949,377.744049L349.522583,377.709625L349.509216,377.673523L349.499573,377.636444L349.493774,377.598358L349.491821,377.559814L349.491821,375.581696L347.480591,375.581696L347.442169,375.579742L347.404236,375.573914L347.367004,375.564301L347.331024,375.551056L347.298462,375.535126L346.874268,375.303101L346.841553,375.283051L346.811035,375.259705L346.783081,375.233429L346.757813,375.204346L346.735657,375.172974L346.716797,375.139557L346.698914,375.097595L346.506073,374.556702L346.494995,374.519989L346.487701,374.482147L346.48407,374.42926L346.48407,372.496368L346.486023,372.457947L346.491821,372.420013L346.501465,372.382782L346.514709,372.346802L346.531616,372.312256L346.55191,372.279663L346.5755,372.249268L346.601898,372.221405L346.631073,372.196381L346.662567,372.174469L346.696136,372.155762L346.731384,372.140564L346.768127,372.128998L346.805695,372.121216L346.843872,372.11734L346.882324,372.11734L346.916016,372.120483zM368.805023,377.984192L369.11319,377.906616L369.344513,377.559296L369.344513,375.626434L346.864014,372.49585L346.864014,374.428711L347.056885,374.969574L347.481079,375.201569L349.871765,375.201569L349.871765,377.559296L350.064636,377.906616L350.411255,377.984192L368.805023,377.984192z"/>
</svg>
