<?xml version="1.0" encoding="UTF-8"?>
<svg xmlns="http://www.w3.org/2000/svg" xmlns:xlink="http://www.w3.org/1999/xlink" width="22.734mm" height="22.635mm" viewBox="-339.109528 357.178925 22.733582 22.635437">
    <path transform="matrix(-1,0,0,1,0,0)" style="stroke:none;fill:#000000;fill-rule:evenodd" d="M328.931152,357.182312L329.906555,357.320953L329.944244,357.328247L329.981079,357.339294L330.016479,357.354156L330.050293,357.372375L330.082153,357.394043L330.105255,357.412872L330.418274,357.690857L330.445618,357.717865L330.470184,357.747406L330.487701,357.772949L330.835724,358.327576L330.854431,358.361145L330.869629,358.396423L330.883514,358.441772L331.263397,360.04306L331.276794,359.945038L331.283569,359.908295L331.313507,359.783051L331.324463,359.745972L331.366272,359.626312L331.381104,359.590088L331.434875,359.475769L331.453369,359.441101L331.519135,359.332153L331.540405,359.300659L331.617981,359.197174L331.641602,359.168701L331.731079,359.070831L331.744934,359.056366L331.844055,358.958832L331.872986,358.933167L331.978577,358.848663L332.011749,358.824829L332.123871,358.753326L332.160095,358.73288L332.278809,358.674408L332.317108,358.658112L332.442352,358.61261L332.481018,358.600952L332.612732,358.568481L332.650665,358.561066L332.78894,358.541595L332.824677,358.53833L332.969391,358.531769L333.003906,358.531769L333.123596,358.537231L333.158966,358.540497L333.274231,358.556671L333.311584,358.563873L333.422485,358.590973L333.459198,358.601929L333.565857,358.63974L333.60257,358.654938L333.704712,358.703705L333.738281,358.721954L333.836304,358.781525L333.867432,358.802673L333.960938,358.873108L333.987671,358.895111L334.175446,359.065338L334.198669,359.088348L334.285156,359.181488L334.308228,359.208954L334.382904,359.306488L334.405151,359.338715L334.467651,359.440613L334.486511,359.475525L334.537231,359.581696L334.55304,359.619751L334.591705,359.730164L334.602295,359.766632L334.615295,359.761902L334.652496,359.752411L334.690552,359.746704L334.728882,359.744995L334.756348,359.746094L334.9599,359.76178L334.988983,359.765167L335.18158,359.795105L335.21225,359.801178L335.393921,359.84494L335.427002,359.854553L335.597839,359.912567L335.631653,359.925812L335.791565,359.997803L335.825867,360.01532L335.974945,360.101532L336.00766,360.122833L336.145935,360.223022L336.176697,360.247955L336.304138,360.362366L336.33136,360.389374L336.34668,360.407379L336.624664,360.754059L336.647156,360.785187L336.673798,360.83371L336.848175,361.215302L336.862305,361.250946L336.872864,361.287903L336.879547,361.325714L336.882355,361.364014L336.882111,361.388947L336.877136,361.506317L336.90094,361.480896L336.929901,361.455597L336.961273,361.433472L336.99469,361.41449L337.029846,361.399048L337.066345,361.387268L337.103912,361.379242L337.14209,361.374969L337.180542,361.374725L337.218811,361.378265L337.256531,361.385681L337.293243,361.396851L337.328735,361.411682L337.362427,361.430054L337.394165,361.451691L337.423615,361.476379L337.450256,361.503998L337.47406,361.534149L337.491455,361.560913L338.884064,363.919403L338.901825,363.953461L338.915924,363.988495L338.982086,364.179993L338.991577,364.211975L339.041931,364.413727L339.04834,364.444611L339.082886,364.656708L339.086426,364.685883L339.105164,364.908295L339.106476,364.935181L339.109528,365.167908L339.109039,365.192841L339.096252,365.435822L339.094299,365.458435L339.065735,365.711731L339.062927,365.732147L339.018555,365.995789L339.014893,366.014282L338.954712,366.288116L338.950836,366.304535L338.874939,366.588745L338.870575,366.603699L338.77887,366.898224L338.774506,366.911591L338.666992,367.216461L338.662506,367.228485L338.539185,367.543579L338.534698,367.554382L338.395691,367.879791L338.391327,367.889771L338.236389,368.225525L338.232147,368.234283L338.061523,368.580353L338.056549,368.590088L337.868439,368.945404L337.864197,368.953308L337.6651,369.308655L337.660736,369.316315L337.450745,369.671753L337.44635,369.679047L337.225525,370.034363L337.221008,370.041321L336.989258,370.396759L336.984863,370.40332L336.742249,370.758759L336.737762,370.76535L336.484222,371.120667L336.479736,371.12674L336.215332,371.482178L336.210968,371.488037L335.935669,371.843475L335.931152,371.849182L335.644897,372.204651L335.640533,372.209869L335.343567,372.565308L335.339203,372.570557L335.031311,372.925995L335.026917,372.930847L334.708069,373.286316L334.703796,373.290924L334.374146,373.646362L334.369995,373.650879L334.029419,374.006317L334.025146,374.01059L333.673706,374.366028L333.669678,374.370148L333.312927,374.720245L333.308533,374.724396L332.951752,375.063538L332.947388,375.06781L332.590576,375.396118L332.585846,375.400269L332.229065,375.717896L332.22406,375.72226L331.86731,376.028839L331.862183,376.033203L331.505402,376.329071L331.500061,376.333466L331.143127,376.6185L331.137543,376.622864L330.780762,376.897095L330.77478,376.901581L330.417908,377.164856L330.411804,377.169098L330.055023,377.421692L330.048584,377.4263L329.691681,377.667938L329.684998,377.67218L329.328064,377.903107L329.321167,377.907623L328.964355,378.127594L328.957062,378.131958L328.600159,378.341125L328.592621,378.345398L328.235718,378.543732L328.227936,378.547974L327.871033,378.735504L327.862854,378.739624L327.511322,378.913635L327.502441,378.917908L327.161469,379.075867L327.151855,379.080109L326.821472,379.222137L326.81076,379.226532L326.491058,379.352631L326.479004,379.357117L326.1698,379.467194L326.156677,379.47168L325.858124,379.565796L325.843506,379.570068L325.555695,379.648254L325.539154,379.652374L325.26178,379.714508L325.243652,379.718048L324.976868,379.764252L324.956543,379.767303L324.700439,379.797577L324.677948,379.79953L324.432434,379.813751L324.407501,379.814362L324.172668,379.812531L324.145813,379.811432L323.921448,379.793793L323.892151,379.790283L323.678497,379.756592L323.647461,379.750397L323.444519,379.700775L323.412048,379.691284L323.219543,379.625641L323.183929,379.611389L323.150848,379.594269L320.713562,378.172089L320.681458,378.151062L320.65155,378.126862L320.624298,378.099854L320.599854,378.07019L320.578552,378.038208L320.560699,378.00415L320.546204,377.968536L320.535522,377.931702L320.528595,377.89386L320.525421,377.85556L320.526276,377.817261L320.530884,377.779083L320.539429,377.741608L320.551697,377.705139L320.567505,377.670227L320.586853,377.637054L320.609436,377.605927L320.635132,377.577332L320.663452,377.551422L320.685699,377.534882L320.632935,377.527588L320.5979,377.521027L320.411133,377.477142L320.372803,377.466064L320.2005,377.405884L320.160248,377.389099L320.002289,377.312592L319.961792,377.289856L319.818298,377.197205L319.779144,377.168152L319.650146,377.059052L319.62204,377.032928L319.605621,377.014801L319.490356,376.878845L319.467834,376.849304L319.36557,376.701538L319.34613,376.670532L319.256958,376.510742L319.241516,376.479858L319.165283,376.308167L319.153259,376.277161L319.090271,376.093414L319.081604,376.064575L319.031525,375.869049L319.025452,375.841064L318.988586,375.633514L318.984955,375.608215L318.961121,375.388824L318.958923,375.350525L318.960632,375.312103L318.966125,375.274048L318.975464,375.236816L318.988586,375.200714L319.005249,375.166046L319.014984,375.150238L318.351257,374.776672L318.318787,374.756134L318.288513,374.732422L318.260803,374.70578L318.235992,374.676483L318.222473,374.657745L318.157318,374.560822L318.141876,374.535675L318.085327,374.435577L318.07135,374.408356L318.023438,374.304871L318.011536,374.276154L317.972351,374.169403L317.963013,374.140198L317.932465,374.030273L317.925415,374.000732L317.903534,373.88739L317.899048,373.857971L317.885895,373.741455L317.88385,373.712769L317.879456,373.592865L317.879578,373.561005L317.885651,373.432587L317.889038,373.396973L317.906921,373.27182L317.914124,373.234985L317.944031,373.113129L317.954712,373.077148L317.996674,372.958466L318.010681,372.924408L318.064514,372.809021L318.080933,372.777649L318.146729,372.665405L318.165466,372.636566L318.243286,372.52774L318.262756,372.502808L318.352478,372.397125L318.38678,372.361755L318.485291,372.272369L318.513733,372.248901L318.617706,372.17157L318.648834,372.150635L318.758179,372.084991L318.79306,372.066498L318.907959,372.012878L318.943848,371.998291L319.064117,371.956451L319.100952,371.94574L319.226685,371.915833L319.263184,371.908905L319.361084,371.895508L317.714661,371.485229L317.58432,371.454468L317.546875,371.443512L317.420654,371.399628L317.382324,371.383942L317.264862,371.328125L317.227295,371.307556L317.118469,371.239838L317.082581,371.214539L316.982483,371.134888L316.950134,371.105957L316.858826,371.014374L316.830872,370.983124L316.748291,370.879639L316.725311,370.847412L316.651367,370.731903L316.64325,370.718628L316.571838,370.596313L316.554688,370.563354L316.497559,370.438843L316.483215,370.402588L316.440155,370.275879L316.429077,370.236603L316.400269,370.107697L316.393433,370.0672L316.378723,369.936127L316.376434,369.895142L316.375946,369.761871L316.377869,369.722595L316.39151,369.587128L316.396973,369.55014L316.424713,369.412506L316.435181,369.372375L316.475281,369.246277L316.488434,369.210999L316.539612,369.092316L316.556641,369.057648L316.618652,368.946503L316.639954,368.912689L316.712891,368.809204L316.737244,368.77832L316.821014,368.682373L316.8479,368.654541L316.942627,368.566132L316.970825,368.542297L317.076263,368.461548L317.105438,368.441376L317.221802,368.368408L317.223877,368.367065L317.338806,368.296051L317.373596,368.276947L317.491638,368.220062L317.529724,368.204254L317.65094,368.161316L317.692566,368.149139L317.8172,368.120453L317.858887,368.113281L317.986694,368.098572L318.028412,368.09613L318.159485,368.09552L318.199158,368.097473L318.333405,368.110962L318.370361,368.116455L318.508026,368.144165L318.526001,368.148315L321.276337,368.842163L321.313049,368.853363L321.34845,368.868317L321.382141,368.88681L321.413757,368.908447L321.443054,368.93338L321.469788,368.960968L321.49353,368.991272L321.514069,369.023712L321.531219,369.058014L321.544708,369.094025L321.554688,369.131104L321.56076,369.169037L321.562592,369.200409L321.57608,369.188629L321.607452,369.166504L321.6409,369.147644L321.676147,369.132324L321.712769,369.120514L321.729309,369.117004L321.706909,369.084778L321.683105,369.045624L321.643188,368.970093L321.624847,368.929596L321.593353,368.848145L321.5802,368.80777L321.557251,368.720337L321.549316,368.682373L321.534729,368.588867L321.530975,368.553619L321.524902,368.454254L321.524292,368.42276L321.526611,368.317322L321.528168,368.289368L321.538879,368.177979L321.542175,368.152924L321.561371,368.035583L321.565491,368.013916L321.593109,367.890747L321.597961,367.871521L321.634094,367.742279L321.639069,367.726105L321.683472,367.590881L321.68869,367.575806L321.741699,367.434601L321.746704,367.422089L321.807983,367.274933L321.812988,367.263519L321.882751,367.110291L321.886169,367.102997L322.036377,366.791077L322.045837,366.772614L322.217651,366.460571L322.227631,366.443542L322.421356,366.131378L322.431458,366.115936L322.64679,365.803894L322.657013,365.789795L322.894287,365.477753L322.904358,365.465118L323.163391,365.152954L323.17334,365.141418L323.454132,364.829376L323.463745,364.819031L323.766296,364.506989L323.772369,364.500916L324.085632,364.192169L324.096558,364.181824L324.409821,363.89679L324.422363,363.885834L324.735596,363.624756L324.749329,363.613831L325.062714,363.376434L325.078156,363.365387L325.391418,363.151855L325.408691,363.140778L325.722046,362.951202L325.74115,362.940369L326.054626,362.774628L326.075562,362.764404L326.389038,362.622498L326.424805,362.608398L326.461761,362.598053L326.499573,362.591492L326.522797,362.589294L328.263428,362.484985L328.30188,362.484741L328.340149,362.488251L328.377869,362.495544L328.397827,362.501617L328.399536,362.487396L328.407898,362.449951L328.419922,362.413483L328.43573,362.378448L328.454956,362.345123L328.477478,362.313995L328.502991,362.285309L328.516968,362.272522L328.514557,362.272522L328.476257,362.269012L328.438538,362.261597L328.401825,362.250519L328.366333,362.235809L328.33252,362.217438L328.300781,362.195801L328.271362,362.171112L328.244598,362.143616L328.220764,362.113464L328.200073,362.081116L328.1828,362.046722L328.169067,362.010834L328.161163,361.98349L327.49939,359.278534L327.496002,359.26297L327.468384,359.125305L327.462799,359.088226L327.44928,358.952759L327.447479,358.913483L327.44809,358.780182L327.450378,358.739563L327.465118,358.608368L327.472046,358.567505L327.500977,358.438599L327.51181,358.400055L327.554749,358.273224L327.569214,358.236755L327.626343,358.112091L327.643127,358.079742L327.714294,357.957184L327.717438,357.951691L327.821777,357.778656L327.843292,357.746796L327.874451,357.710327L327.946899,357.635651L327.968933,357.614868L328.046753,357.546509L328.070679,357.527069L328.153992,357.465179L328.179413,357.447784L328.268066,357.392456L328.294067,357.377625L328.388184,357.328735L328.414246,357.316437L328.513702,357.274017L328.540344,357.263916L328.645264,357.228149L328.670105,357.220612L328.780273,357.191315L328.81781,357.183289L328.856018,357.179169L328.89444,357.178925L328.931152,357.182312zM322.356659,369.372131L322.365051,369.375397L322.454285,369.401672L322.550964,369.420898L322.656067,369.433044L322.76828,369.437195L322.88855,369.432922L323.01709,369.419922L323.15329,369.397766L323.301392,369.365326L323.434937,369.329193L322.356659,369.372131zM336.803192,362.503693L336.801117,362.515259L336.753326,362.757477L336.751038,362.768677L336.694336,363.016388L336.691803,363.026581L336.626495,363.279541L336.623962,363.289124L336.549988,363.547546L336.547333,363.556427L336.464783,363.820313L336.461975,363.828827L336.370636,364.098175L336.367859,364.106079L336.267883,364.380768L336.263611,364.391968L336.093384,364.817688L336.088257,364.829742L335.899902,365.257416L335.894562,365.269104L335.687836,365.698608L335.682495,365.70929L335.457642,366.140747L335.452026,366.151093L335.208954,366.584473L335.203369,366.594208L334.942047,367.029419L334.93634,367.038544L334.656738,367.475586L334.651184,367.4841L334.353455,367.923096L334.3479,367.931122L334.031952,368.37204L334.026367,368.379578L333.6922,368.822357L333.686707,368.829407L333.33432,369.274109L333.328979,369.280792L332.958313,369.727448L332.952972,369.733765L332.564087,370.182251L332.55896,370.18808L332.151978,370.638489L332.146851,370.643982L331.721619,371.096344L331.716614,371.101563L331.27301,371.555756L331.265961,371.562683L330.776489,372.038391L330.772003,372.042786L330.286682,372.499054L330.281799,372.503418L329.800995,372.940094L329.795898,372.944733L329.319336,373.361938L329.313843,373.366669L328.841797,373.764343L328.835815,373.769196L328.368011,374.147369L328.361816,374.152374L327.898376,374.511108L327.891449,374.516327L327.432281,374.855469L327.42511,374.860596L326.970306,375.180267L326.962524,375.185638L326.512085,375.485748L326.503845,375.491089L326.0578,375.771881L326.048676,375.777466L325.606873,376.038574L325.59729,376.044037L325.159851,376.285675L325.149658,376.291138L324.716614,376.513306L324.705444,376.518768L324.276672,376.721375L324.264984,376.726715L323.840576,376.909851L323.828308,376.914825L323.482971,377.049805L323.472961,377.053589L323.14209,377.172272L323.13092,377.176056L322.814514,377.278564L322.801727,377.28244L322.499664,377.368652L322.485077,377.372559L322.197479,377.442474L322.180939,377.446136L321.922913,377.496826L322.057861,377.483459L322.23175,377.46048L322.414917,377.430328L322.597656,377.394684L322.784576,377.352356L322.980713,377.302399L323.180786,377.245972L323.381409,377.18396L323.588745,377.114502L323.794983,377.040588L324.516602,376.732544L324.916168,376.554901L325.322327,376.358368L325.731873,376.14447L326.147278,375.911377L326.56366,375.662445L326.991333,375.391266L327.424377,375.100983L327.843536,374.805511L331.195679,371.913879L331.591125,371.512848L331.988403,371.094635L332.373779,370.673157L332.744781,370.25119L333.100464,369.830078L333.44751,369.402161L333.783386,368.970093L334.10907,368.532562L334.409546,368.115356L334.692261,367.702881L334.961487,367.288696L335.210663,366.883148L335.445496,366.47699L335.664001,366.073608L335.866943,365.671478L336.052032,365.275299L336.16925,365.013L336.270935,364.77002L336.36676,364.524139L336.453674,364.281921L336.530426,364.047699L336.597534,363.820313L336.656891,363.59314L336.705902,363.376434L336.746765,363.161102L336.778748,362.951691L336.801483,362.749207L336.815948,362.55014L336.820313,362.399719L336.803192,362.503693zM316.796844,369.487305C316.704163,369.857269,316.761841,370.203918,316.971191,370.527191C317.156494,370.851166,317.435181,371.047485,317.806519,371.116791L320.313202,371.741394C320.359863,371.024811,320.649536,370.180573,321.183533,369.210022L318.433167,368.516083C318.061859,368.423431,317.725525,368.48175,317.423523,368.689728C317.098846,368.87439,316.889496,369.140686,316.796844,369.487305zM328.877899,357.557922C328.576599,357.627258,328.332916,357.766602,328.146912,357.974579L328.042572,358.147552C327.833923,358.471527,327.775574,358.818146,327.868225,359.18811L328.529907,361.893158L330.16626,361.268524L331.106598,361.026245L330.514252,358.529175L330.16626,357.974579L329.853271,357.696594L328.877899,357.557922zM319.582184,372.260986C319.210846,372.260986,318.897186,372.388672,318.641846,372.642639C318.386505,372.919922,318.25885,373.232239,318.25885,373.578857C318.25885,373.902832,318.352173,374.191803,318.537506,374.44577L319.338531,374.896729L319.582184,374.931732L324.630554,374.931732L325.152893,374.827393L325.187225,374.793091C325.465881,374.700409,325.675232,374.503418,325.814575,374.203461L325.953217,373.578857C325.953217,373.232239,325.825562,372.919922,325.570221,372.642639C325.31488,372.388672,325.001892,372.260986,324.630554,372.260986L319.582184,372.260986zM332.986603,358.910797C332.591949,358.910797,332.266602,359.049438,332.011261,359.326752C331.756622,359.580719,331.628937,359.893005,331.628937,360.26297L331.628937,365.291443C331.628937,365.638062,331.756622,365.950378,332.011261,366.227661C332.266602,366.504974,332.591949,366.643616,332.986603,366.643616L333.230286,366.608612L333.438934,366.539307L333.508942,366.504974C333.810272,366.366333,334.031311,366.146667,334.169952,365.846039L334.309296,365.291443L334.309296,360.26297L334.274963,360.089325C334.251617,359.766052,334.100616,359.488739,333.82196,359.257416C333.589935,359.026123,333.311279,358.910797,332.986603,358.910797zM326.545563,362.968018C325.709564,363.314636,324.874237,363.915924,324.038879,364.771149C323.202881,365.603058,322.599548,366.435638,322.22821,367.267548C321.833527,368.100128,321.798523,368.67807,322.123871,369.001343L323.864563,368.932037C324.69989,368.539429,325.547577,367.926483,326.40625,367.094574C327.241577,366.239349,327.84491,365.406769,328.216919,364.597504C328.588257,363.788269,328.610901,363.210327,328.286255,362.863708L326.545563,362.968018zM331.175934,361.719482C330.502594,361.742828,329.702271,362.020142,328.77359,362.551392C329.191589,363.059998,329.179932,363.823273,328.738586,364.840485C328.344604,365.741699,327.69458,366.631958,326.789246,367.510529C325.907227,368.389099,325.01355,369.048035,324.108215,369.487305C323.086884,369.926605,322.320862,369.926605,321.810211,369.487305C321.322876,370.34256,321.032532,371.116791,320.93985,371.81073L324.630554,371.81073C324.955231,371.81073,325.257233,371.891724,325.535889,372.05304C326.649902,371.383118,327.728912,370.527191,328.77359,369.487305C329.864258,368.377441,330.73526,367.279205,331.384583,366.192657C331.245941,365.915375,331.175934,365.614716,331.175934,365.291443L331.175934,361.719482zM335.911316,364.250885C336.189301,363.510956,336.375305,362.829376,336.467957,362.204773L336.50296,361.372864L336.328613,360.991241L336.050629,360.644623C335.725281,360.320648,335.284637,360.147675,334.727295,360.124329L334.762299,360.26297L334.762299,365.291443C334.762299,365.753387,334.587952,366.170013,334.23996,366.539307C333.891968,366.886597,333.473938,367.05957,332.986603,367.05957C332.568604,367.05957,332.197266,366.932587,331.87262,366.677948C331.175934,367.787842,330.293915,368.862701,329.226593,369.903259C328.205261,370.943817,327.148895,371.81073,326.058228,372.503967C326.290253,372.827942,326.40625,373.186249,326.40625,373.578857C326.40625,374.110809,326.231903,374.526764,325.883911,374.827393C325.535889,375.197357,325.117889,375.381989,324.630554,375.381989L319.338531,375.347687C319.384521,375.948944,319.570526,376.422546,319.895172,376.769196C320.545197,377.393799,321.810211,377.324463,323.690216,376.561218C325.94223,375.636658,328.378906,373.879486,331.001587,371.290466C333.415619,368.862701,335.051941,366.516632,335.911316,364.250885zM337.721313,368.412445C338.673309,366.539307,338.951996,365.10611,338.557312,364.112244L337.164642,361.753815C337.303986,362.794373,337.048645,364.019562,336.398651,365.430084C335.911316,366.516632,335.249634,367.625824,334.413605,368.759064C333.554932,369.938263,332.568604,371.082489,331.45459,372.191681L328.077576,375.104706C326.893585,375.95993,325.756226,376.618866,324.665558,377.081482L324.421906,377.18512L323.933868,377.393799C322.750549,377.833069,321.740875,377.982727,320.904846,377.844055L323.342224,379.266266C324.34021,379.658875,325.791229,379.369904,327.69458,378.399353C329.597931,377.428101,331.501282,375.994934,333.403931,374.099152C335.307281,372.203339,336.746643,370.307556,337.721313,368.412445z"/>
</svg>
