<?xml version="1.0" encoding="UTF-8"?>
<svg xmlns="http://www.w3.org/2000/svg" xmlns:xlink="http://www.w3.org/1999/xlink" width="22.372mm" height="22.380mm" viewBox="-308.566406 357.305756 22.372253 22.379944">
    <path transform="matrix(-1,0,0,1,0,0)" style="stroke:none;fill:#000000;fill-rule:evenodd" d="M299.031372,357.306854L299.052521,357.307556L299.186401,357.316071L299.208649,357.318146L299.33609,357.333832L299.360168,357.337616L299.481293,357.360474L299.507202,357.366302L299.621735,357.396332L299.649597,357.404724L299.757813,357.4422L299.785675,357.453125L299.887451,357.49765L299.916626,357.511993L300.011963,357.563782L300.040649,357.580933L300.129578,357.639923L300.15741,357.660339L300.239868,357.726624L300.265869,357.749603L300.341888,357.823059L300.359985,357.841766L300.449005,357.940521L300.474182,357.971527L300.552368,358.079132L300.573547,358.111603L300.641144,358.227997L300.658661,358.261902L300.715454,358.387177L300.728699,358.420624L300.77478,358.554749L300.784149,358.586487L300.819672,358.72937L300.825989,358.760254L300.850555,358.912018L300.850922,358.915405L300.867676,358.89621L300.89566,358.869934L300.926178,358.846588L300.958893,358.826416L300.993439,358.809631L301.029541,358.796478L301.066772,358.787109L301.104828,358.781403L301.143127,358.779694L301.181549,358.781769L301.219482,358.787842L301.256592,358.797577L301.292572,358.811066L301.326996,358.828217L301.359467,358.848663L301.38974,358.872375L301.409546,358.890839L302.445129,359.925934L302.442352,359.891785L302.442932,359.853333L302.447571,359.815277L302.455963,359.77771L302.468018,359.741211L302.483826,359.706207L302.503021,359.673004L302.525513,359.641876L302.551056,359.613068L302.579285,359.587158L302.610046,359.564178L302.643005,359.544342L302.677765,359.528046L302.713989,359.515289L302.750244,359.506531L302.952209,359.467865L302.966095,359.465424L303.161011,359.435516L303.175232,359.433563L303.362762,359.412048L303.379059,359.410583L303.559509,359.397705L303.577148,359.396851L303.750183,359.392578L303.769043,359.392578L303.935028,359.396729L303.956299,359.397827L304.11499,359.410706L304.13739,359.413269L304.288757,359.434662L304.312744,359.438812L304.45694,359.468719L304.482605,359.474915L304.619659,359.513458L304.646667,359.522217L304.776398,359.569397L304.80365,359.580475L304.926208,359.636169L304.953949,359.650146L305.069214,359.714355L305.096954,359.731506L305.204926,359.804474L305.230835,359.823547L305.331665,359.904907L305.356445,359.926788L305.450073,360.016907L305.475006,360.043304L305.610229,360.201019L305.638824,360.238831L305.753113,360.411743L305.776367,360.452118L305.869873,360.64035L305.887512,360.681702L305.960083,360.885162L305.971893,360.925415L306.02356,361.144043L306.030518,361.181732L306.038635,361.243652L306.059326,361.215546L306.085083,361.187103L306.113678,361.161316L306.144684,361.138702L306.177765,361.119232L306.212646,361.10318L306.249146,361.09079L306.286499,361.082153L306.324646,361.077423L306.363098,361.076447L306.401398,361.079346L306.439209,361.086151L306.476074,361.096741L306.51181,361.111084L306.545837,361.128845L306.57782,361.149994L306.62149,361.187469L307.924255,362.490204L307.937134,362.503693L308.076477,362.657532L308.10675,362.695587L308.224976,362.865479L308.249878,362.906708L308.346924,363.092621L308.365784,363.134827L308.44165,363.336914L308.454437,363.377899L308.509155,363.595947L308.516815,363.634491L308.550354,363.868713L308.55365,363.903717L308.566071,364.15387L308.566406,364.184998L308.5578,364.451294L308.555847,364.479034L308.52594,364.761261L308.522522,364.785339L308.471436,365.083771L308.467316,365.104553L308.395203,365.419037L308.390594,365.437378L308.29718,365.767914L308.292206,365.783844L308.177673,366.130402L308.172791,366.144165L308.037201,366.506775L308.032471,366.519165L307.87561,366.897858L307.870972,366.908417L307.693054,367.303284L307.687714,367.314453L307.492065,367.71344L307.487427,367.722809L307.277557,368.12265L307.272705,368.131409L307.048706,368.531952L307.043823,368.540466L306.805603,368.941772L306.80072,368.949799L306.548279,369.352051L306.543304,369.359711L306.276611,369.762726L306.271637,369.770142L305.990723,370.173859L305.98587,370.180664L305.690857,370.585358L305.686005,370.591919L305.37677,370.997345L305.371765,371.003571L305.048309,371.409729L305.043579,371.41568L304.705872,371.822693L304.701141,371.828278L304.349335,372.236145L304.344727,372.241486L303.978699,372.650085L303.97406,372.65506L303.593811,373.064484L303.589294,373.069244L303.194946,373.479523L303.190552,373.484039L302.781982,373.89505L302.778931,373.898102L302.36792,374.302551L302.363403,374.306915L301.953125,374.69751L301.948395,374.701904L301.53894,375.078491L301.533966,375.083008L301.125366,375.445618L301.120148,375.450256L300.71228,375.799133L300.706696,375.803741L300.299683,376.138519L300.293854,376.14325L299.887695,376.464172L299.88147,376.468903L299.476074,376.775848L299.469604,376.780701L299.064911,377.073761L299.058105,377.078522L298.654388,377.357605L298.647095,377.362579L298.24408,377.627686L298.236572,377.632416L297.83429,377.883667L297.826508,377.888397L297.425232,378.125763L297.416809,378.130646L297.016144,378.354004L297.007385,378.358765L296.607666,378.568176L296.598663,378.572784L296.199707,378.768311L296.193115,378.771362L295.802429,378.953644L295.791718,378.958496L295.416809,379.119629L295.404907,379.124512L295.045898,379.264465L295.032288,379.26944L294.689026,379.388367L294.673218,379.393494L294.345825,379.49115L294.32785,379.496002L294.016174,379.572479L293.995483,379.576996L293.699646,379.632324L293.675812,379.635956L293.395752,379.670135L293.36853,379.672455L293.10437,379.685455L293.073242,379.685699L292.824829,379.677551L292.789795,379.674866L292.557068,379.645569L292.518372,379.638641L292.301575,379.588165L292.260223,379.576019L292.059204,379.504395L292.016541,379.486145L291.831207,379.39325L291.789612,379.368927L291.620087,379.254974L291.581177,379.225067L291.42749,379.089966L291.406311,379.069885L290.069275,377.698456L290.043884,377.669647L290.021606,377.638367L290.002502,377.60495L289.986816,377.569916L289.974915,377.533447L289.966644,377.49585L289.96228,377.457672L289.961792,377.41925L289.965179,377.380951L289.972351,377.343262L289.983429,377.306519L289.998016,377.271027L290.016266,377.237091L290.037781,377.205231L290.062347,377.175812L290.087158,377.151611L290.064667,377.148438L290.027344,377.141388L289.808563,377.088501L289.768799,377.076447L289.565369,377.002869L289.524506,376.985382L289.336365,376.891235L289.296356,376.868011L289.123444,376.753235L289.086121,376.725128L288.928406,376.589783L288.895813,376.558167L288.809937,376.464539L288.788788,376.439362L288.711334,376.338562L288.692596,376.31192L288.623413,376.203827L288.607605,376.176453L288.546692,376.061188L288.533539,376.033813L288.480896,375.911377L288.470306,375.884003L288.426056,375.754242L288.418152,375.728119L288.382141,375.591064L288.376556,375.566254L288.348816,375.422028L288.345062,375.398804L288.325623,375.247406L288.323425,375.225403L288.312347,375.066711L288.311493,375.046753L288.308716,374.880768L288.308838,374.862274L288.314301,374.68924L288.315277,374.672211L288.329132,374.49176L288.330597,374.476318L288.352722,374.288818L288.354675,374.274811L288.385071,374.079895L288.38739,374.066986L288.426056,373.865021L288.435181,373.827698L288.447937,373.791443L288.464355,373.756775L288.484314,373.723969L288.507385,373.693176L288.533417,373.664978L288.562256,373.639557L288.593506,373.617188L288.626831,373.598083L288.661835,373.582397L288.698303,373.570374L288.735901,373.562103L288.774078,373.557587L288.8125,373.557129L288.832458,373.558807L287.77887,372.527252L287.752869,372.499054L287.729736,372.468262L287.70993,372.435455L287.693512,372.400665L287.680725,372.364441L287.671631,372.327087L287.666382,372.289032L287.664917,372.250732L287.66748,372.212311L287.673798,372.174469L287.683899,372.13739L287.697754,372.101532L287.715149,372.067352L287.735962,372.035004L287.759888,372.004974L287.786774,371.977478L287.816223,371.952789L287.838928,371.937469L287.70871,371.921417L287.674286,371.915588L287.526917,371.883484L287.489807,371.873383L287.352051,371.8284L287.313507,371.813446L287.185455,371.755554L287.1474,371.735626L287.028931,371.664948L286.992462,371.640289L286.883636,371.556854L286.849335,371.527191L286.672638,371.354614L286.648804,371.329102L286.578522,371.246521L286.557129,371.218933L286.494507,371.129913L286.476501,371.101685L286.421295,371.006348L286.405975,370.977173L286.358307,370.875397L286.346252,370.846313L286.306122,370.738098L286.296997,370.710236L286.264282,370.595581L286.257629,370.568329L286.232544,370.447235L286.228302,370.422668L286.210541,370.295105L286.208008,370.271393L286.197906,370.137482L286.196808,370.116089L286.194153,369.975769L286.194366,369.956055L286.199249,369.809296L286.200195,369.791168L286.212616,369.637817L286.214325,369.621643L286.234131,369.461975L286.236206,369.447144L286.26358,369.281036L286.266113,369.267426L286.301025,369.094879L286.310516,369.057648L286.323761,369.021667L286.340546,368.987L286.360718,368.954407L286.384216,368.923889L286.410583,368.896057L286.439636,368.87088L286.471008,368.848724L286.494263,368.835358L288.85141,367.576508L288.818726,367.56424L288.784302,367.547211L288.751709,367.526794L288.721436,367.503082L288.701111,367.484222L287.77594,366.558319L287.750183,366.529877L287.727539,366.498871L287.707977,366.46579L287.691925,366.430878L287.679535,366.394531L287.670898,366.357086L287.666016,366.318909L287.665039,366.280579L287.667969,366.242279L287.674652,366.204468L287.685242,366.167511L287.699463,366.131744L287.717224,366.097687L287.738373,366.065582L287.762695,366.035797L287.789825,366.008698L287.819489,365.984375L287.862427,365.957001L288.71048,365.493317L288.684814,365.486633L288.648834,365.473267L288.614288,365.45636L288.581696,365.436066L288.551422,365.412476L288.52356,365.385956L288.498535,365.356873L288.476624,365.325256L288.457916,365.291718L288.442841,365.256439L288.431274,365.219727L288.423615,365.182129L288.419739,365.143829L288.419739,365.105408L288.423615,365.06723L288.431274,365.029663L288.442841,364.99292L288.457916,364.957672L288.476501,364.923981L288.510071,364.878265L290.909668,362.066772L290.936066,362.038818L290.965149,362.013763L290.996643,361.991638L291.030212,361.9729L291.059509,361.960266L293.759705,359.593842L293.789856,359.570007L293.822205,359.549347L293.856506,359.532074L293.892395,359.518341L293.929474,359.508362L293.967407,359.502045L294.005707,359.499725L294.044128,359.501312L294.082214,359.506653L294.119537,359.5159L294.15564,359.528778L294.190308,359.545319L294.223145,359.565277L294.253784,359.588501L294.281982,359.614624L294.307312,359.643463L294.329651,359.674835L294.348633,359.70816L294.364197,359.743286L294.376129,359.779785L294.378296,359.789856L294.839417,358.913727L294.859009,358.880768L294.881866,358.849762L294.907654,358.821411L294.936218,358.795624L294.967346,358.77301L295.000427,358.753693L295.035461,358.737762L295.071808,358.725342L295.109253,358.716705L295.147339,358.711975L295.18576,358.711121L295.22406,358.714172L295.261871,358.720978L295.298859,358.731659L295.334473,358.745911L295.36853,358.763763L295.400513,358.785065L295.430176,358.809387L295.448425,358.826996L296.374329,359.786591L296.399597,359.815521L296.421753,359.846893L296.440704,359.880341L296.456024,359.915497L296.467834,359.952087L296.473907,359.98053L297.755737,357.607452L297.775665,357.574615L297.798767,357.543976L297.824921,357.515747L297.853882,357.490448L297.885132,357.468079L297.918457,357.449005L297.953583,357.433441L297.990051,357.421509L298.014374,357.415802L298.186951,357.38089L298.199463,357.378601L298.36557,357.350739L298.380157,357.348541L298.539948,357.328125L298.555145,357.326538L298.708374,357.313171L298.725891,357.311951L298.872681,357.306L298.891022,357.305756L299.031372,357.306854zM289.789246,371.636139L289.753967,371.651459L289.74472,371.654388L289.776093,371.674927L289.791412,371.687347L289.79068,371.667145L289.792877,371.634064L289.789246,371.636139zM291.48111,368.711212L291.51416,368.700623L291.55188,368.692841L291.590057,368.688843L291.628479,368.688721L291.645996,368.690521L291.548462,368.588989L291.48111,368.711212zM300.564667,360.884552L300.553345,360.907654L300.557129,360.907166L300.595551,360.905457L300.606384,360.906067L300.585938,360.878693L300.574036,360.858887L300.564667,360.884552zM297.496948,362.633575L297.573944,362.717102L297.575378,362.687561L297.581116,362.649506L297.590698,362.612305L297.603851,362.576294L297.604095,362.575806L297.496948,362.633575zM296.098267,360.905334L296.079407,360.938904L296.057281,360.970276L296.054993,360.972961L296.069092,360.972839L296.148621,360.975739L296.161011,360.976837L296.147766,360.955811L296.130737,360.921387L296.117126,360.885529L296.114075,360.873718L296.098267,360.905334zM289.8797,367.145203L289.838104,367.171692L289.795532,367.19516L289.808929,367.198822L289.844666,367.212677L289.878967,367.230194L289.891479,367.23822L289.887848,367.173035L289.887482,367.138855L289.8797,367.145203zM301.088287,364.443756L301.052429,364.457397L301.015198,364.467346L300.977386,364.473572L300.938965,364.475861L300.90918,364.47464L301.071625,364.634552L301.07077,364.601135L301.0737,364.562805L301.080383,364.524994L301.090942,364.488037L301.105194,364.452393L301.116028,364.43161L301.088287,364.443756zM293.395142,372.064545L293.391724,372.102844L293.38446,372.140564L293.375427,372.170837L293.377258,372.170105L293.414368,372.159882L293.452179,372.153564L293.490479,372.151123L293.50592,372.151733L293.394897,372.04071L293.395142,372.064545zM303.253571,363.062958L303.22171,363.084351L303.187775,363.102356L303.152161,363.116821L303.115295,363.127655L303.077484,363.134705L303.039307,363.137848L303.000854,363.137268L302.966949,363.133118L302.986389,363.166199L303.002441,363.201111L303.014862,363.237457L303.023621,363.274902L303.028473,363.312958L303.029449,363.35141L303.02652,363.389709L303.019836,363.427521L303.017273,363.436401L303.100464,363.394806L303.15799,363.364777L303.20636,363.223602L303.254517,363.062103L303.253571,363.062958zM292.017853,374.043152L292.022491,374.08136L292.023071,374.119781L292.019928,374.157959L292.012878,374.19577L292.002045,374.232635L291.987579,374.26825L291.969452,374.302185L291.948181,374.334045L291.937958,374.346313L292.138,374.287109L292.261414,374.245392L292.328674,374.103607L292.31311,374.106506L292.274811,374.109802L292.236389,374.109192L292.198181,374.104706L292.160736,374.096436L292.124268,374.084381L292.089233,374.068695L292.055908,374.0495L292.024658,374.0271L292.011658,374.015564L292.017853,374.043152zM292.756592,369.376251L292.724243,369.397064L292.689972,369.414429L292.654205,369.428314L292.617126,369.438507L292.579895,369.444733L292.587708,369.45639L292.60556,369.490326L292.620056,369.52594L292.630859,369.562805L292.637787,369.600616L292.640961,369.638916L292.640106,369.677338L292.635498,369.715424L292.627075,369.752991L292.614807,369.789337L292.605103,369.811829L292.457581,370.126068L292.83551,369.875305L293.106689,369.683685L293.088928,369.68161L293.051361,369.673218L293.014893,369.661163L292.979858,369.645355L292.946533,369.626282L292.915405,369.60379L292.886719,369.578247L292.860687,369.550018L292.837585,369.519257L292.81778,369.486298L292.801483,369.45166L292.788696,369.415405L292.779602,369.378082L292.777161,369.359955L292.756592,369.376251zM293.962067,366.32608L293.95282,366.334229L293.649536,366.594452L293.639679,366.602722L293.475525,366.734161L293.482941,366.734161L293.521118,366.738312L293.558716,366.746216L293.595306,366.757996L293.630554,366.773315L293.664001,366.792175L293.695496,366.814301L293.724457,366.839478L293.750702,366.867462L293.774048,366.89798L293.79425,366.930695L293.811035,366.96521L293.820496,366.991486L294.261688,366.051727L293.962067,366.32608zM290.689941,364.512238L290.694214,364.51297L290.731415,364.522797L290.767273,364.536438L290.801697,364.553558L290.834167,364.574005L290.864441,364.597717L290.892181,364.624359L290.916992,364.653656L290.938751,364.685272L290.957214,364.718964L290.972198,364.754333L290.98349,364.791077L290.986664,364.806885L291.127228,364.621185L291.135376,364.610718L291.381256,364.308533L291.38916,364.299164L291.655365,363.992737L291.662903,363.984344L291.682251,363.96344L290.689941,364.512238zM298.77002,363.683624L298.73465,363.698578L298.697937,363.7099L298.660217,363.717438L298.62204,363.721191L298.583618,363.720947L298.54541,363.716949L298.507843,363.709045L298.471252,363.697357L298.435974,363.682037L298.402405,363.6633L298.371033,363.641174L298.343567,363.617584L298.288483,363.56543L298.2948,363.598022L298.298096,363.636322L298.297607,363.674744L298.293091,363.712921L298.284821,363.750366L298.272919,363.786865L298.257233,363.821991L298.238129,363.855316L298.215759,363.886566L298.214294,363.888153L298.249084,363.888397L298.287262,363.89267L298.324829,363.900696L298.36145,363.912354L298.396576,363.927795L298.430145,363.946777L298.461395,363.968903L298.490479,363.99408L298.516724,364.022156L298.539948,364.052673L298.56015,364.085388L298.576782,364.120056L298.589813,364.156158L298.598938,364.192535L298.796051,363.91394L299.033783,363.555817L298.77002,363.683624zM292.846832,362.797852L292.904602,362.744843L292.913696,362.736694L293.220154,362.473175L293.230255,362.464783L293.53244,362.222687L293.543976,362.213928L293.7388,362.069702L293.728943,362.068237L293.69162,362.058746L293.655609,362.045502L293.621094,362.028717L293.588379,362.008514L293.557861,361.985168L293.529877,361.958801L293.5047,361.929718L293.482697,361.898346L293.463867,361.864807L293.448517,361.829651L293.436859,361.79306L293.428955,361.755341L293.427002,361.736633L292.846832,362.797852zM295.475891,364.777191L295.468506,364.785828L295.199615,365.092285L295.192688,365.100067L294.90448,365.410889L294.897797,365.417938L294.846619,365.470337L295.930939,364.949402L295.900909,364.943085L295.864319,364.931274L295.829041,364.915955L295.795593,364.897095L295.764221,364.874969L295.735168,364.849792L295.708893,364.821716L295.685547,364.791199L295.665497,364.758484L295.648712,364.723938L295.635559,364.687836L295.626099,364.650604L295.620483,364.612549L295.619995,364.60257L295.475891,364.777191zM293.461731,367.113098C292.82132,367.616241,292.2276,367.970398,291.678497,368.176331L292.535797,369.067932L293.461731,367.113098zM297.09613,362.758667C296.890228,363.26181,296.524384,363.867889,295.998596,364.576233L297.919128,363.650299L297.09613,362.758667zM288.970032,367.216064L289.655731,366.839233C289.770355,366.244843,290.09021,365.593445,290.615967,364.88443L288.044769,366.290131L288.970032,367.216064zM295.759064,360.735901L296.101563,360.050201L295.175629,359.090637L293.80423,361.696167C294.558563,361.147736,295.209961,360.827881,295.759064,360.735901zM303.027191,362.758667C303.255768,361.821777,303.152802,361.147736,302.719025,360.735901L301.141693,359.159271L300.901459,360.667267L303.027191,362.758667zM288.044769,372.256195L289.655731,373.833527C290.04422,374.244659,290.707275,374.335938,291.644165,374.107391L289.552765,371.981659L288.044769,372.256195zM291.233032,362.313232L291.19873,362.313232L288.799103,365.124664L291.71283,363.513031L292.398529,362.827332L294.010162,359.879303L291.233032,362.313232M295.861328,366.97583L295.861328,366.9422L298.227295,364.267365L294.730164,365.947632L293.152863,369.307495C294.090454,368.621796,294.993042,367.844788,295.861328,366.97583zM298.604828,363.342102L299.667358,362.827332L300.935791,364.096436L302.65036,363.342102L300.593262,361.285004L297.95343,362.725037L298.604828,363.342102zM292.261932,373.73056L293.016266,372.050293L291.747131,370.747528L292.261932,369.650696L291.610535,369.067932L290.170502,371.673462L292.261932,373.73056zM289.930267,368.00473L289.690033,367.559265L286.67337,369.170197C286.467468,370.107819,286.58139,370.770172,287.015869,371.159363C287.26709,371.433228,287.621948,371.570496,288.079102,371.570496L289.621399,371.295959L291.267365,368.313599C290.696289,368.427551,290.250122,368.324585,289.930267,368.00473zM296.924561,361.044769C297.244415,361.34198,297.324707,361.787445,297.164795,362.381866L300.215759,360.735901C300.627594,359.479126,300.581604,358.599182,300.078491,358.096069C299.690002,357.684906,299.027618,357.58197,298.090027,357.787872L296.479095,360.770233C296.639008,360.816223,296.787262,360.907501,296.924561,361.044769zM296.444763,361.490234C296.192871,361.239014,295.69043,361.330322,294.936096,361.764801C294.181763,362.15329,293.381409,362.770355,292.535797,363.615967C291.690186,364.461609,291.061432,365.261932,290.650299,366.016266C290.238464,366.793243,290.158844,367.296387,290.410065,367.524933C290.661957,367.798798,291.164398,367.730164,291.918732,367.319031C292.69574,366.907898,293.496063,366.290131,294.319031,365.467834C295.164642,364.622223,295.804352,363.821899,296.238861,363.067566C296.649994,362.290558,296.718628,361.764801,296.444763,361.490234zM292.673065,363.787567L293.530365,363.101868L294.113098,363.033234C294.227051,363.101868,294.19342,363.273468,294.010162,363.547333L293.358765,364.438965C293.03891,364.736145,292.741699,364.964722,292.467163,365.124664L291.88443,365.193298L291.987366,364.679199L292.673065,363.787567zM292.945557,364.055237L292.471069,364.67215L292.665039,364.531555L292.877228,364.359375L293.075684,364.182434L293.482574,363.625732L292.945557,364.055237zM296.341797,367.421997L296.307495,367.456299C295.096008,368.667786,293.85022,369.684998,292.570129,370.507294L292.535797,370.644562L294.66153,372.770294C295.98764,371.924683,297.267059,370.873138,298.501862,369.616364L298.501862,369.582031L298.536194,369.582031C299.816284,368.301941,300.856171,367.02182,301.655792,365.741699L299.495758,363.615967L299.427094,363.650299C298.604828,364.93042,297.575928,366.187866,296.341797,367.421997zM288.799103,373.936462C288.570557,375.033325,288.696167,375.82196,289.175934,376.301758C289.976257,377.078735,291.427277,376.976471,293.530365,375.993561C295.656097,374.964691,297.827148,373.353058,300.044861,371.159363C302.261871,368.94165,303.861847,366.770599,304.844757,364.644867C305.850311,362.541779,305.964233,361.090759,305.187256,360.290436C304.707458,359.787323,303.918823,359.650726,302.82196,359.879303L303.198792,360.290436C303.930481,360.998779,304.021759,362.1073,303.473358,363.615967C303.473358,363.639313,303.130157,363.810211,302.444458,364.130768L301.450562,364.610565L302.47879,365.638763C301.610504,367.124786,300.455994,368.599152,299.015961,370.061829L298.981628,370.061829L298.947327,370.09613C297.48465,371.582184,296.021942,372.74765,294.558563,373.593292L293.496063,372.530762L292.535797,374.553528C291.004456,375.101959,289.884277,375.021637,289.175934,374.313293L288.799103,373.936462zM291.678497,378.804993C292.456177,379.582001,293.907196,379.45639,296.032928,378.42749C298.158661,377.421936,300.318726,375.82196,302.513092,373.627594C304.730133,371.433228,306.341766,369.273163,307.347321,367.14743C308.352875,364.999054,308.455811,363.536346,307.656189,362.758667L306.353424,361.455933C306.421387,362.713379,305.884613,364.325012,304.741791,366.290131C303.667603,368.096008,302.250214,369.867584,300.490326,371.604828C298.753082,373.342072,296.97052,374.747772,295.141998,375.82196C293.221497,376.987457,291.621521,377.524902,290.341431,377.433594L291.678497,378.804993z"/>
</svg>
