<?xml version="1.0" encoding="UTF-8"?>
<svg xmlns="http://www.w3.org/2000/svg" xmlns:xlink="http://www.w3.org/1999/xlink" width="23.206mm" height="23.074mm" viewBox="-278.624176 356.959290 23.206497 23.074432">
    <path transform="matrix(-1,0,0,1,0,0)" style="stroke:none;fill:#000000;fill-rule:evenodd" d="M264.930145,356.959534L264.968323,356.963684L265.00589,356.97171L265.04248,356.98349L265.077759,356.998932L265.111206,357.017792L265.142578,357.039917L265.171509,357.065216L265.185486,357.079315L265.663269,357.590668L265.687988,357.620087L265.709747,357.651703L265.728088,357.685516L265.74292,357.720886L265.75412,357.757629L265.761536,357.795319L265.765076,357.833618L265.764832,357.87204L265.760559,357.910248L265.752533,357.947815L265.740753,357.984406L265.725433,358.019562L265.706451,358.053009L265.684326,358.084381L265.653442,358.119019L265.18927,358.580139L265.196686,358.587585L265.78537,358.400909L265.822571,358.391174L265.860535,358.385223L265.898834,358.383148L265.937256,358.384979L265.975189,358.390686L266.012421,358.400177L266.048523,358.413422L266.083069,358.430206L266.115784,358.450409L266.146179,358.473755L266.167694,358.493561L269.593384,361.8992L269.816772,361.762512L269.850464,361.744171L269.885986,361.72934L269.922699,361.718018L269.960388,361.710602L269.998596,361.707062L270.037018,361.707306L270.075195,361.711578L270.112762,361.719482L270.149353,361.731262L270.184509,361.746704L270.217957,361.765564L270.249329,361.787811L270.278381,361.812988L270.304657,361.841095L270.327881,361.871613L270.347961,361.904327L270.364746,361.938965L270.377747,361.975098L270.387115,362.012299L270.392578,362.049377L270.455444,362.693634L270.541656,362.67807L270.580078,362.673096L270.690857,362.664581L270.734039,362.663727L270.838989,362.667633L270.887268,362.672485L270.986603,362.689026L271.036835,362.700928L271.130341,362.730011L271.168884,362.745087L271.363098,362.481934L271.387421,362.452271L271.414673,362.42514L271.444458,362.40094L271.476685,362.379913L271.510742,362.362152L271.546478,362.348053L271.583435,362.337463L271.621277,362.33078L271.659576,362.327972L271.681824,362.328094L272.709961,362.364471L272.748291,362.367737L272.78598,362.374908L272.822815,362.385864L272.858459,362.400452L272.892273,362.418579L272.924133,362.439972L272.964142,362.474518L275.609497,365.104065L275.635406,365.132538L275.649628,365.151001L275.705322,365.228119L275.726257,365.260345L275.743622,365.29425L275.782043,365.379395L275.796051,365.415131L275.806122,365.450897L275.827423,365.543915L275.833984,365.581726L275.83667,365.613464L275.840668,365.714539L275.840179,365.75296L275.838226,365.775085L275.825104,365.884033L275.815613,365.934021L275.785217,366.050995L275.772583,366.090515L275.725037,366.215546L275.711395,366.246918L275.646606,366.379822L275.628113,366.413513L275.61377,366.434784L275.38916,366.747559L277.142334,366.747559L277.158844,366.747925L277.27594,366.753021L277.310608,366.756073L277.423096,366.771393L277.459717,366.778198L277.567688,366.803864L277.604401,366.814667L277.707642,366.850555L277.743652,366.865143L277.842377,366.911224L277.876801,366.929474L277.971039,366.985901L278.002533,367.006927L278.092163,367.073578L278.120239,367.09668L278.205383,367.173645L278.244537,367.21463L278.313354,367.298645L278.333191,367.325287L278.392761,367.412598L278.411011,367.442139L278.461487,367.53299L278.477295,367.564728L278.518616,367.658844L278.531525,367.692535L278.563751,367.790192L278.573364,367.824951L278.596313,367.926025L278.602539,367.960663L278.616272,368.065125L278.619202,368.098328L278.62381,368.206177L278.624176,368.222473L278.624176,369.208801L278.62381,369.225098L278.619202,369.332855L278.616272,369.36615L278.602539,369.47049L278.596313,369.505035L278.573364,369.606079L278.563751,369.640991L278.531525,369.738525L278.518616,369.772064L278.477295,369.866211L278.461487,369.897949L278.411011,369.98877L278.392639,370.018555L278.333069,370.105743L278.31311,370.132263L278.244293,370.216187L278.218506,370.244629L278.192841,370.267975L278.099823,370.34494L278.0755,370.363434L277.980164,370.430206L277.952698,370.447693L277.855042,370.504242L277.824158,370.520294L277.724182,370.566528L277.690857,370.580017L277.588593,370.615997L277.553223,370.626587L277.448761,370.652252L277.412537,370.659302L277.305756,370.674744L277.269531,370.678253L277.160431,370.683502L277.142334,370.683868L274.056366,370.683868L274.030701,370.682526L273.014587,371.692322L274.066589,372.738251L274.141724,372.811798L274.169342,372.841705L274.236481,372.923187L274.261536,372.957367L274.31842,373.044678L274.339722,373.081757L274.386292,373.174683L274.403442,373.214447L274.439545,373.313171L274.451477,373.352203L274.477356,373.456665L274.484802,373.494843L274.500366,373.605042L274.503754,373.641388L274.50885,373.757141L274.50885,373.790588L274.503754,373.906494L274.500366,373.942963L274.484802,374.053009L274.477356,374.091187L274.451477,374.195648L274.439667,374.234558L274.403564,374.333435L274.386292,374.373322L274.339722,374.466217L274.31842,374.503326L274.261536,374.590637L274.236481,374.624786L274.169342,374.706268L274.141724,374.736176L274.066467,374.809875L273.368347,375.503876L273.339783,375.529541L273.308746,375.552155L273.275574,375.571472L273.249542,375.583771L272.478088,375.912445L272.442078,375.92572L272.404877,375.935333L272.366821,375.94104L272.311493,375.942505L272.203003,375.937378L272.166168,375.933746L272.061096,375.918427L272.022797,375.910889L271.921265,375.885223L271.884155,375.873779L271.785919,375.837921L271.749664,375.822479L271.654938,375.776276L271.621277,375.757782L271.53006,375.701233L271.500519,375.680939L271.412598,375.614166L271.385712,375.591675L271.301453,375.514435L271.290375,375.503876L270.235352,374.455414L269.216919,375.467865L269.218628,375.490601L269.218628,378.558807L269.216675,378.597229L269.210815,378.635162L269.201233,378.672363L269.187744,378.708862L268.857574,379.475555L268.840546,379.510101L268.820251,379.542694L268.796631,379.572968L268.764557,379.606171L268.680023,379.683136L268.653992,379.704803L268.566101,379.771545L268.536041,379.792114L268.444733,379.848541L268.411896,379.866638L268.317169,379.912964L268.281311,379.928314L268.183289,379.964294L268.145447,379.975983L268.043915,380.001617L268.006104,380.009155L267.901031,380.024597L267.863708,380.028259L267.755371,380.033356L267.737488,380.033722L266.744934,380.033722L266.727081,380.033356L266.618591,380.028259L266.581268,380.024597L266.476196,380.009155L266.438385,380.001617L266.336853,379.975983L266.299255,379.964417L266.201019,379.928436L266.164917,379.912964L266.07016,379.866638L266.037231,379.848419L265.946014,379.791992L265.916107,379.771545L265.828186,379.704803L265.801788,379.682648L265.717529,379.605682L265.690521,379.578461L265.666443,379.548523L265.645416,379.516296L265.624847,379.475555L265.294708,378.708862L265.281311,378.672852L265.271729,378.635773L265.265747,378.597717L265.263824,378.558807L265.263824,376.851349L264.943878,377.078278L264.911407,377.098816L264.887939,377.111115L264.754181,377.175079L264.720367,377.189301L264.594757,377.235016L264.550842,377.248047L264.433258,377.275391L264.378784,377.283905L264.269104,377.29303L264.230682,377.294373L264.203674,377.292908L264.102142,377.283783L264.064087,377.27832L264.029663,377.27005L263.936035,377.242676L263.899658,377.230042L263.863434,377.213013L263.777954,377.167297L263.744995,377.147461L263.715698,377.125702L263.63797,377.061737L263.611694,377.037903L260.966461,374.408356L260.948456,374.389252L260.843506,374.26947L260.819824,374.239319L260.806915,374.220093L260.730804,374.098022L260.712189,374.064453L260.698456,374.032715L260.650909,373.908295L260.638977,373.871826L260.629974,373.82901L260.611023,373.702301L260.607239,373.664124L260.607971,373.617554L260.617706,373.488525L260.622437,373.45047L260.631927,373.410217L260.670471,373.2789L260.683136,373.242645L260.695526,373.215302L260.762665,373.081757L260.791718,373.033478L260.887543,372.897644L260.911255,372.867371L260.937866,372.839783L260.974121,372.809631L261.234955,372.619537L261.224365,372.593781L261.195068,372.504761L261.181946,372.452576L261.165283,372.358948L261.159698,372.308014L261.15567,372.209869L261.156769,372.162445L261.165405,372.059814L261.171234,372.018097L261.191803,371.913879L260.536713,371.851013L260.498657,371.845428L260.461426,371.835938L260.425323,371.822815L260.390808,371.806152L260.358093,371.786072L260.327545,371.762726L260.299469,371.736328L260.274292,371.707397L260.252167,371.676025L260.233307,371.642578L260.217865,371.60733L260.206177,371.570709L260.198181,371.533142L260.194031,371.494965L260.193787,371.456543L260.197449,371.418335L260.204865,371.380646L260.216156,371.343933L260.239258,371.292358L260.361359,371.067169L256.962036,367.687897L256.936157,367.659454L256.913269,367.628571L256.893707,367.59549L256.877533,367.560577L256.865021,367.524353L256.856262,367.486908L256.851257,367.448822L256.850159,367.4104L256.852844,367.372101L256.863556,367.318237L257.025391,366.728455L257.002533,366.705719L256.535583,367.146881L256.506287,367.171814L256.47467,367.193604L256.441101,367.212189L256.405701,367.227264L256.368988,367.238708L256.331421,367.246246L256.293091,367.250122L256.2547,367.25L256.216492,367.246002L256.178925,367.23822L256.142334,367.226532L256.107056,367.211334L256.073486,367.192627L256.041992,367.170593L256.007324,367.140076L255.529556,366.6651L255.503662,366.63678L255.480804,366.605865L255.461212,366.572815L255.445038,366.537903L255.432526,366.501678L255.423767,366.464203L255.418777,366.426147L255.417679,366.387726L255.420349,366.349426L255.427048,366.311584L255.4375,366.274628L255.451599,366.238892L255.469238,366.204712L255.49028,366.172607L255.514481,366.1427L255.529556,366.12677L255.892914,365.765594L255.85704,365.693481L255.8405,365.65506L255.798553,365.540863L255.787109,365.503906L255.755615,365.380615L255.748566,365.346924L255.727295,365.214478L255.723633,365.183594L255.712692,365.042053L255.711609,365.013977L255.711121,364.863312L255.711853,364.838989L255.721573,364.679199L255.723511,364.657532L255.743591,364.48877L255.746368,364.469421L255.776901,364.291382L255.78006,364.27475L255.820801,364.087585L255.824326,364.072754L255.875397,363.876495L255.879166,363.863342L255.940582,363.657959L255.944351,363.646057L256.016205,363.431549L256.019745,363.421448L256.101807,363.197815L256.11618,363.164001L256.817932,361.70575L256.760193,361.619019L256.740479,361.585968L256.72821,361.560547L256.669098,361.425323L256.655487,361.389313L256.647827,361.362091L256.612793,361.216522L256.605743,361.178833L256.603333,361.154388L256.592377,360.998596L256.592621,360.942078L256.605743,360.776062L256.612793,360.727448L256.650146,360.551117L256.660828,360.51123L256.722107,360.324554L256.73587,360.288818L256.747192,360.265472L256.987213,359.811768L256.62265,359.425415L256.597717,359.39624L256.575958,359.364624L256.557343,359.330933L256.542389,359.295563L256.530975,359.258942L256.523315,359.221252L256.519531,359.183075L256.519653,359.144653L256.523682,359.106323L256.531555,359.068756L256.543121,359.032166L256.558319,358.996887L256.577179,358.963318L256.599182,358.931824L256.624237,358.902771L257.322357,358.171814L257.35022,358.145416L257.380737,358.121948L257.41333,358.101776L257.447876,358.084869L257.483978,358.071594L257.521179,358.062134L257.559143,358.056274L257.597412,358.054474L257.635864,358.056396L257.673798,358.062378L257.710999,358.07196L257.747009,358.08548L257.781433,358.102386L257.813995,358.122803L257.844421,358.146271L257.864471,358.164886L258.246918,358.545135L258.693573,358.287689L258.727722,358.270172L258.780151,358.251221L258.968384,358.198181L259.006104,358.189575L259.185211,358.158325L259.22876,358.15332L259.398621,358.143585L259.448608,358.144073L259.609375,358.156128L259.663361,358.164032L259.815002,358.197723L259.851959,358.207916L259.870087,358.214478L260.012482,358.269806L260.047607,358.285522L260.065002,358.294983L260.175049,358.358582L261.659241,357.65329L261.694763,357.63858L261.731598,357.627502L261.769287,357.620209L261.810883,357.616699L264.12915,357.547485L264.648865,357.06131L264.678162,357.03653L264.7099,357.01474L264.743591,356.996399L264.779114,356.981537L264.815826,356.970367L264.853516,356.96283L264.891724,356.95929L264.930145,356.959534zM258.882996,358.616058L258.184937,359.01828L257.59671,358.433472L256.898651,359.16449L257.449829,359.748596L257.082611,360.442535C256.886963,360.953888,256.948059,361.355438,257.266541,361.647827L256.457977,363.328094C255.992615,364.545074,255.967911,365.372833,256.384552,365.811432L255.796997,366.395569L256.274719,366.870544L257.009155,366.176605L257.449829,366.615204L257.229492,367.418274L260.830261,370.997772L260.572876,371.472748L261.711578,371.581879L261.564697,371.9841C261.491241,372.275818,261.552338,372.519501,261.748657,372.714417L261.197479,373.115967C260.903717,373.48111,260.916077,373.822266,261.233856,374.138672L263.879181,376.768219C264.0755,376.963135,264.356903,376.963135,264.724121,376.768219L265.238922,376.403076L265.643188,376.366669L265.643188,378.558319L265.973358,379.325012C266.193695,379.543945,266.45108,379.653778,266.744843,379.653778L267.737366,379.653778C268.031128,379.653778,268.287842,379.543945,268.50885,379.325012L268.83902,378.558319L268.83902,375.490173L268.802643,375.343964L270.235107,373.919708L271.5578,375.234131C271.778107,375.453796,272.035522,375.562927,272.329285,375.562927L273.100769,375.234131L273.798828,374.540222C274.019165,374.345947,274.129669,374.089935,274.129669,373.773529C274.129669,373.457092,274.019165,373.20108,273.798828,373.006836L272.476166,371.691711L273.909332,370.267456L274.056213,370.303833L277.142212,370.303833C277.436005,370.303833,277.70575,370.194031,277.950775,369.975067C278.146393,369.756104,278.244568,369.500092,278.244568,369.208374L278.244568,368.222015C278.244568,367.929626,278.146393,367.674286,277.950775,367.454651C277.729767,367.235687,277.460693,367.126556,277.142212,367.126556L274.938232,367.126556L274.938232,366.724335L275.30545,366.212982C275.501068,365.847809,275.513428,365.56778,275.341827,365.372833L272.696503,362.743286L271.668304,362.706909L271.264008,363.254669C271.067719,363.059723,270.811005,362.999329,270.492523,363.072083L270.125305,363.218292L270.014801,362.085754L269.537079,362.378143L265.899902,358.762268L265.092041,359.01828L264.650696,358.579681L265.385803,357.849365L264.908081,357.338013L264.283478,357.922119L261.822083,357.995575L260.132202,358.798645C259.813721,358.506927,259.397095,358.445831,258.882996,358.616058z"/>
</svg>
