<?xml version="1.0" encoding="UTF-8"?>
<svg xmlns="http://www.w3.org/2000/svg" xmlns:xlink="http://www.w3.org/1999/xlink" width="23.250mm" height="23.250mm" viewBox="-248.285492 356.871124 23.250381 23.249786">
    <path transform="matrix(-1,0,0,1,0,0)" style="stroke:none;fill:#000000;fill-rule:evenodd" d="M228.818802,356.88501L228.853577,356.888153L229.154556,356.929504L229.190796,356.93631L229.481064,357.005371L229.517303,357.015961L229.796616,357.11264L229.831894,357.12674L230.10051,357.251038L230.133835,357.268524L230.391632,357.420532L230.42215,357.440613L230.669006,357.620209L230.696121,357.641846L230.932159,357.84906L230.957214,357.87326L231.068359,357.990509L231.082092,358.005829L231.184723,358.126556L231.197983,358.142975L231.292343,358.267395L231.305115,358.2854L231.390961,358.413422L231.402893,358.432404L231.453232,358.518127L232.605057,357.366302L232.633514,357.340515L232.66452,357.31778L232.697601,357.29834L232.732498,357.282288L232.76886,357.269867L232.80632,357.261108L232.844376,357.256256L232.882813,357.25528L232.921112,357.258209L232.958923,357.264893L232.995895,357.275452L233.031647,357.289703L233.065704,357.307434L233.097794,357.328491L233.127594,357.352814L233.141815,357.366302L235.756302,359.980774L235.782074,360.009247L235.80481,360.040253L235.82428,360.073334L235.840332,360.108215L235.852737,360.144592L235.861481,360.182037L235.866348,360.220093L235.867325,360.258514L235.86441,360.296844L235.857727,360.334656L235.847137,360.371613L235.832916,360.407379L235.815155,360.441406L235.794128,360.473511L235.769806,360.503326L235.756058,360.517792L235.52124,360.75235L235.728699,360.745056L235.759827,360.745178L236.003036,360.756622L236.036713,360.759766L236.269226,360.791626L236.304855,360.798218L236.526428,360.850494L236.563019,360.861084L236.77388,360.933807L236.810364,360.948639L237.010284,361.041779L237.045547,361.060516L237.234756,361.174194L237.267349,361.196106L237.44574,361.330231L237.485992,361.365234L244.829651,368.70816L244.848373,368.728363L244.970947,368.870148L245.004883,368.915985L245.103363,369.072235L245.130249,369.122833L245.204666,369.293457L245.2229,369.345367L245.273376,369.530457L245.283478,369.580536L245.285294,369.594788L245.375885,369.508698L245.405075,369.483643L245.436569,369.461731L245.467697,369.444366L245.775238,369.290527L245.810379,369.275085L245.846985,369.263275L245.884552,369.255249L245.922729,369.251007L245.961166,369.250763L245.999359,369.254303L246.037048,369.261719L246.073761,369.272888L246.099182,369.283112L246.44516,369.436951L246.479431,369.454315L246.51178,369.475006L246.541824,369.498962L246.569305,369.525818L246.593994,369.555267L246.615509,369.587006L246.633759,369.620911L246.648468,369.656311L246.657227,369.684021L246.747467,370.015656L248.02211,371.362396L248.083038,371.421265L248.109299,371.449249L248.132523,371.479889L248.143951,371.49762L248.191986,371.576935L248.210236,371.610718L248.230042,371.661438L248.258987,371.755066L248.268478,371.792267L248.274445,371.833618L248.284042,371.941742L248.285492,371.980042L248.283066,372.018463L248.276749,372.056274L248.266663,372.093384L248.252792,372.129364L248.099091,372.475342L248.081818,372.509613L248.06102,372.541962L248.037186,372.571991L248.010315,372.599609L247.980881,372.624298L247.94902,372.645813L247.906464,372.66806L247.560501,372.821899L247.524628,372.835754L247.487534,372.845856L247.449707,372.852173L247.411407,372.854614L247.373474,372.853149L247.262939,372.843536L247.224869,372.838318L247.191925,372.830536L247.090988,372.801849L247.054626,372.789429L247.018143,372.772644L246.926819,372.724609L246.893738,372.705048L246.861633,372.681213L246.780045,372.613708L246.753662,372.589752L245.714432,371.551025L244.939331,372.326111L245.702515,373.118134L245.898056,372.9086L245.925659,372.881958L245.955811,372.858124L245.988281,372.837463L246.022583,372.820313L246.07135,372.802673L246.340454,372.72583L246.377899,372.717194L246.415955,372.712341L246.454391,372.711365L246.492706,372.714294L246.530518,372.7211L246.564331,372.73056L246.795609,372.807434L246.831482,372.821411L246.865662,372.838928L246.897888,372.859711L246.927917,372.883789L246.955276,372.910675L246.979843,372.940216L247.001251,372.972076L247.019363,373.006012L247.033951,373.041504L247.040894,373.063416L247.117737,373.332397L247.126373,373.36972L247.131241,373.407898L247.132202,373.44632L247.129303,373.48465L247.117737,373.540833L247.040894,373.809937L247.028473,373.846283L247.012421,373.881195L246.992981,373.914398L246.970352,373.945282L246.940552,373.977875L245.82193,375.065735L245.828613,375.069122L245.860718,375.090057L245.890625,375.114258L245.917999,375.141235L245.942322,375.170929L245.963593,375.202911L245.987915,375.25119L246.180176,375.713135L246.193054,375.749268L246.202301,375.786591L246.207657,375.824646L246.209229,375.862976L246.206924,375.901398L246.200607,375.939331L246.187103,375.986633L245.994843,376.524719L245.980133,376.560242L245.961899,376.594055L245.940247,376.625793L245.905838,376.665436L244.829651,377.741608L244.801178,377.767395L244.770172,377.790131L244.737106,377.809601L244.707306,377.823578L244.246063,378.015839L244.209839,378.028839L244.172607,378.038086L244.134552,378.043457L244.09613,378.045013L244.057831,378.042725L244.019882,378.036499L243.972458,378.02301L243.433624,377.83075L243.398132,377.81604L243.364319,377.797791L243.332581,377.776154L243.303162,377.751465L243.276276,377.723999L243.252441,377.693939L243.231659,377.661621L243.23056,377.659302L242.141724,378.776581L242.113617,378.802734L242.082855,378.825836L242.050018,378.845795L242.015366,378.862335L241.974274,378.876678L241.705154,378.953644L241.667816,378.96228L241.629639,378.967133L241.591217,378.968109L241.552917,378.96521L241.515091,378.958496L241.480682,378.948792L241.250122,378.871796L241.214249,378.857697L241.180069,378.840179L241.147858,378.819275L241.117935,378.795197L241.090576,378.768311L241.06601,378.738647L241.044601,378.706787L241.021255,378.661072L240.905853,378.391357L240.892593,378.355225L240.882996,378.318024L240.877274,378.28009L240.875336,378.241791L240.877151,378.204926L240.88446,378.130646L240.890167,378.092682L240.899536,378.055725L240.921051,377.986053L240.934189,377.949921L240.951935,377.913574L240.988052,377.848633L241.008484,377.81604L241.02916,377.78894L241.07962,377.728851L241.109665,377.697113L241.41745,377.406372L240.606598,376.651794L239.72702,377.50766L240.823044,378.543365L240.849548,378.571198L240.873138,378.601471L240.89357,378.634064L240.910599,378.668488L240.925919,378.710205L241.041199,379.094574L241.050323,379.131927L241.055664,379.169983L241.057129,379.208405L241.054703,379.246704L241.04837,379.284637L241.041199,379.312744L240.925919,379.697144L240.913025,379.733246L240.896484,379.768036L240.876556,379.800873L240.853439,379.831512L240.827423,379.859711L240.798599,379.885132L240.767349,379.907501L240.734024,379.926605L240.691956,379.944733L240.269135,380.098419L240.232407,380.109741L240.194839,380.117279L240.156525,380.120911L240.118103,380.120667L240.079926,380.116547L240.042343,380.108643L240.005737,380.096954L239.985443,380.088562L239.639481,379.934875L239.605179,379.917603L239.572845,379.89682L239.528931,379.860077L238.207703,378.57486L237.828064,378.448517L237.792191,378.434509L237.758026,378.417023L237.7258,378.396088L237.695755,378.372131L237.668396,378.345154L237.643829,378.315582L237.622437,378.283722L237.604309,378.249817L237.592392,378.221588L237.477112,377.914063L237.465561,377.877319L237.457657,377.839752L237.453644,377.801575L237.454132,377.750977L237.461304,377.659912L237.466293,377.621857L237.472855,377.592529L237.494507,377.510803L237.50618,377.474213L237.521988,377.437988L237.558105,377.365875L237.577072,377.332428L237.601639,377.298004L237.651978,377.235382L237.679581,377.204742L237.806183,377.078278L237.751816,377.069275L237.707672,377.059174L237.523926,377.005798L237.476135,376.988403L237.309174,376.914459L237.261261,376.888947L237.110962,376.794708L237.065369,376.761139L236.931961,376.646576L236.91008,376.626282L230.081055,369.758087L229.672714,369.424042L229.644257,369.398132L229.629669,369.382568L229.485931,369.2211L229.457825,369.185577L229.334641,369.008514L229.31131,368.970337L229.20842,368.777466L229.190308,368.738312L229.107971,368.530029L229.095215,368.491577L229.03331,368.267609L229.025177,368.231232L228.983704,367.991547L228.979446,367.958221L228.958282,367.702881L228.95694,367.672333L228.956345,367.401398L228.958282,367.362122L228.985886,367.091064L228.9888,367.068817L229.03331,366.79425L229.037323,366.773071L229.09874,366.494843L229.103607,366.475403L229.181671,366.193634L229.187378,366.175171L229.282349,365.889771L229.288437,365.872498L229.400314,365.583557L229.406876,365.567871L229.532257,365.282715L229.493591,365.299011L229.460022,365.311401L229.36676,365.340851L229.333679,365.349579L229.236877,365.370758L229.203201,365.376587L229.102875,365.389221L229.070526,365.391907L228.966553,365.396057L228.934814,365.395935L228.840576,365.391785L228.804825,365.388519L228.714096,365.375854L228.676895,365.368805L228.589828,365.347656L228.553345,365.336823L228.469803,365.307404L228.433563,365.29245L228.353668,365.254608L228.319504,365.236267L228.243134,365.190033L228.211151,365.168396L228.13855,365.113678L228.111313,365.091064L228.042236,365.028076L228.02948,365.0159L227.452957,364.43866L227.4375,364.422241L227.349716,364.323242L227.319183,364.283966L227.248169,364.178925L227.22142,364.132446L227.167297,364.021301L227.146881,363.97049L227.109543,363.853394L227.096649,363.799866L227.076355,363.676697L227.071487,363.625244L227.067963,363.496094L227.06929,363.457306L226.998276,363.427643L226.975662,363.417297L226.817078,363.338501L226.794586,363.326355L226.645508,363.239288L226.622284,363.224579L226.482925,363.128998L226.460419,363.112335L226.330673,363.008484L226.308777,362.989624L226.188522,362.87738L226.167725,362.856354L226.062042,362.741058L225.956375,362.63504L225.944214,362.622253L225.839752,362.507233L225.827835,362.493469L225.73056,362.375397L225.719009,362.360565L225.628891,362.239441L225.617706,362.223633L225.534897,362.099609L225.524567,362.083191L225.448807,361.956116L225.43895,361.938477L225.370483,361.80838L225.361603,361.790497L225.300323,361.657471L225.292297,361.638611L225.238312,361.502533L225.231369,361.483673L225.184555,361.344574L225.178711,361.32547L225.139069,361.183441L225.134216,361.164246L225.101746,361.019043L225.097977,360.999817L225.0728,360.851837L225.070129,360.833344L225.052002,360.68219L225.050186,360.663361L225.03949,360.509399L225.038757,360.491882L225.03511,360.334778L225.03511,360.317505L225.038757,360.15564L225.03949,360.138641L225.050186,359.980164L225.05188,359.9617L225.070007,359.806519L225.072556,359.788544L225.097733,359.636658L225.101379,359.617554L225.13385,359.469086L225.138474,359.450226L225.178116,359.305023L225.183823,359.286072L225.230652,359.144165L225.237457,359.125305L225.291443,358.986664L225.299347,358.967957L225.360641,358.832611L225.369385,358.814484L225.437866,358.682434L225.447708,358.664429L225.523468,358.535767L225.53392,358.519226L225.61673,358.39386L225.62793,358.377808L225.718033,358.255585L225.729828,358.240387L225.827118,358.121582L225.839386,358.107239L225.943848,357.991821L225.956253,357.978821L226.068008,357.866577L226.081268,357.853943L226.308411,357.646729L226.336151,357.623749L226.575226,357.444122L226.60672,357.422852L226.857941,357.270844L226.892365,357.25235L227.155518,357.128082L227.191864,357.113129L227.467056,357.016449L227.504028,357.005493L227.791138,356.936432L227.827972,356.929504L228.127121,356.888153L228.16214,356.88501L228.473328,356.871124L228.507141,356.871124L228.818802,356.88501zM233.133301,359.780029L233.180252,359.826965L233.191071,359.838257L233.263062,359.916443L233.283859,359.94101L233.346237,360.021515L233.366425,360.050232L233.419189,360.133148L233.437439,360.165131L233.480728,360.250366L233.496658,360.286133L233.530334,360.37381L233.542633,360.411865L233.566711,360.501984L233.575089,360.54126L233.589569,360.633667L233.593582,360.672943L233.59845,360.767792L233.598572,360.804291L233.594299,360.899261L233.591141,360.933563L233.578491,361.026215L233.572052,361.061249L233.551025,361.151337L233.54129,361.185638L233.511856,361.273438L233.499084,361.306519L233.486572,361.334717L233.700714,361.231476L233.717606,361.223816L233.996948,361.105499L234.014938,361.098328L234.290619,360.997894L234.310669,360.991302L234.582825,360.908997L234.600098,360.904358L233.983063,360.318115L233.139755,359.776001L233.133301,359.780029zM228.490219,357.25C227.644592,357.25,226.926636,357.544464,226.337021,358.134064C225.722015,358.723663,225.41452,359.453979,225.41452,360.325684C225.41452,361.171326,225.722015,361.889282,226.337021,362.478882C226.619125,362.811768,227.00351,363.05545,227.490845,363.209198C227.387878,363.593567,227.464752,363.914124,227.721466,364.170135L228.298035,364.747375C228.477173,364.926544,228.69545,365.016449,228.951462,365.016449C229.233566,365.016449,229.477234,364.926544,229.682465,364.747375L230.028412,365.131775C229.61795,365.925903,229.387329,366.682312,229.335846,367.400269C229.31044,368.143616,229.50264,368.720184,229.913086,369.129974L230.335907,369.475891L237.179169,376.358276C237.512756,376.691193,238.024796,376.806488,238.717361,376.704224L237.947922,377.472992C237.871048,377.549866,237.832611,377.652802,237.832611,377.780487L237.947922,378.087982L238.409866,378.24173L239.79361,379.587738L240.139557,379.741486L240.562363,379.587738L240.677673,379.203369L240.562363,378.81897L239.178619,377.511414L240.6008,376.127655L241.716187,377.165466L242.062119,377.319214L241.370239,377.972656C241.293365,378.04953,241.254929,378.139465,241.254929,378.24173L241.370239,378.511475L241.600861,378.588348L241.869934,378.511475L243.369003,376.973297L243.561188,377.472992L244.099991,377.665161L244.561249,377.472992L245.637497,376.396729L245.829697,375.858612L245.637497,375.396667L245.214691,375.204468L245.253128,375.089172L246.67601,373.705414L246.752884,373.43634L246.67601,373.167297L246.444687,373.090393L246.175629,373.167297L245.637497,373.743835L245.445313,373.397919L244.407501,372.320984L245.714371,371.014099L247.021942,372.320984C247.124207,372.42392,247.252563,372.474731,247.406311,372.474731L247.752258,372.320984L247.906006,371.975037C247.906006,371.821289,247.854523,371.705963,247.752258,371.629089L246.40625,370.206909L246.290939,369.783386L245.945007,369.629639L245.637497,369.783386L244.868744,370.514404C245.022507,369.847931,244.920227,369.335205,244.561249,368.976227L237.217606,361.63327C236.756363,361.248199,236.179794,361.082092,235.487915,361.132874C234.795349,361.184357,234.065033,361.42804,233.296295,361.863892L232.950348,361.479523C233.129501,361.274292,233.219406,361.04364,233.219406,360.786957C233.219406,360.530914,233.116455,360.300293,232.911911,360.095062L232.527542,359.710693L233.142532,359.326324L234.218796,360.018188L234.987549,360.748505L235.487915,360.24881L232.873474,357.634369L231.335281,359.172577C231.206924,358.788177,230.989349,358.441559,230.681839,358.134064C230.066849,357.544464,229.335846,357.25,228.490219,357.25zM227.029587,358.82663C227.413956,358.416168,227.900604,358.210938,228.490219,358.210938C229.079819,358.210938,229.566467,358.416168,229.951538,358.82663C230.284424,359.159515,230.489655,359.530853,230.566528,359.941315L228.182709,362.325134C227.746857,362.273651,227.362488,362.094513,227.029587,361.787018C226.619125,361.376556,226.413895,360.889893,226.413895,360.325684C226.413895,359.736084,226.619125,359.236389,227.029587,358.82663zM228.308929,358.599121L228.138184,358.623077L227.980103,358.661621L227.83078,358.71524L227.68959,358.784088L227.556076,358.868103L227.428757,358.968567L227.302643,359.090637L227.178131,359.226959L227.074646,359.364502L226.989151,359.505554L226.919601,359.652832L226.86499,359.807739L226.825592,359.972015L226.80188,360.143127L226.793732,360.325287L226.801758,360.498322L226.825348,360.661652L226.864029,360.817535L226.91777,360.966248L226.987823,361.110962L227.073303,361.249847L227.177032,361.386414L227.294373,361.514465L227.393127,361.599335L227.501343,361.678986L227.613953,361.749146L227.729126,361.808624L227.845245,361.857239L227.968796,361.897369L228.05368,361.917694L230.145142,359.826233L230.127258,359.769562L230.07959,359.652466L230.022446,359.538635L229.954102,359.425415L229.875549,359.314514L229.784943,359.204102L229.680252,359.092468L229.552811,358.969421L229.423782,358.867615L229.291245,358.78421L229.149689,358.71524L229.000366,358.661621L228.842285,358.623077L228.671539,358.599121L228.490112,358.591095L228.308929,358.599121z"/>
</svg>
