<?xml version="1.0" encoding="UTF-8"?>
<svg xmlns="http://www.w3.org/2000/svg" xmlns:xlink="http://www.w3.org/1999/xlink" width="23.250mm" height="23.305mm" viewBox="-217.924210 356.843658 23.250031 23.304626">
    <path transform="matrix(-1,0,0,1,0,0)" style="stroke:none;fill:#000000;fill-rule:evenodd" d="M195.159012,356.84549L195.196945,356.851196L195.234894,356.860931L195.292892,356.879028L195.328888,356.892303L195.347137,356.900696L195.421066,356.937042L195.450729,356.953339L195.540604,357.007935L195.558838,357.019745L195.66452,357.09256L195.676682,357.101318L195.798279,357.192413L195.807037,357.199219L195.943237,357.307556L197.319061,358.39325L197.371948,358.432892L197.374512,358.431061L197.404297,358.411133L197.527237,358.3367L197.557404,358.320282L197.689331,358.255951L197.719986,358.242584L197.861038,358.188599L197.890594,358.178741L198.040771,358.134949L198.068375,358.127899L198.227554,358.094238L198.253937,358.0896L198.422119,358.066254L198.460434,358.062958L198.492294,358.06308L199.256927,358.099457L199.295242,358.10321L199.332809,358.11087L199.369537,358.122192L199.404922,358.137268L199.438614,358.155762L199.47023,358.177643L199.485916,358.190399L199.995193,358.626984L200.023041,358.653473L200.048096,358.682556L200.064011,358.704681L200.711563,359.676666L201.155899,360.256714L202.730911,361.656738L205.597351,363.12619L205.949768,363.305298L205.950851,363.305786L206.289398,363.479218L206.290741,363.479919L206.615295,363.647736L206.616394,363.648224L206.927094,363.810211L206.928543,363.811066L207.225266,363.967438L207.226837,363.968292L207.509567,364.118958L207.511154,364.119812L207.780014,364.264771L207.781967,364.265747L208.03685,364.40509L208.03891,364.406189L208.279938,364.539825L208.28212,364.541168L208.509155,364.669098L208.511703,364.670563L208.724762,364.792755L208.727554,364.794342L208.926743,364.910858L208.930023,364.912781L209.115356,365.023682L209.119003,365.025879L209.290344,365.131073L209.294586,365.133759L209.45195,365.233215L209.456818,365.236267L209.600433,365.330139L209.603592,365.332336L209.913437,365.539429L209.922195,365.545502L210.233246,365.766205L210.241516,365.772156L210.55368,366.0065L210.561462,366.012451L210.87471,366.260529L210.881775,366.266235L211.196228,366.527802L211.203033,366.533783L211.518478,366.809082L211.524811,366.814545L211.841461,367.103485L211.847305,367.108948L212.165176,367.411499L212.196548,367.445313L213.963318,369.592102L215.316162,369.823029L215.353622,369.831421L215.390106,369.843567L215.425125,369.859253L215.45845,369.878479L215.489578,369.90097L215.522766,369.930878L217.815369,372.259857L217.840912,372.288666L217.863403,372.319794L217.882614,372.352997L217.898422,372.388031L217.910583,372.4245L217.918976,372.461945L217.923599,372.500122L217.92421,372.538574L217.921051,372.576874L217.913986,372.614563L217.903168,372.651398L217.888702,372.687042L217.870697,372.720978L217.849304,372.752838L217.816467,372.791382L216.348831,374.293793L216.194641,374.757233L216.180649,374.793091L216.155243,374.840271L215.443604,375.966095L216.321106,376.843445L216.346878,376.871918L216.369629,376.902924L216.389084,376.936005L216.405121,376.970886L216.417542,377.007263L216.426285,377.044708L216.431152,377.082764L216.432129,377.121185L216.429199,377.159515L216.422516,377.197327L216.411942,377.234283L216.397705,377.269928L216.379959,377.304077L216.358917,377.336182L216.334595,377.365997L216.321106,377.380219L215.192627,378.508698L215.164169,378.534485L215.133148,378.55722L215.100082,378.57666L215.065186,378.592712L215.028824,378.605133L214.991364,378.613892L214.953308,378.618744L214.914871,378.61972L214.876572,378.616791L214.838745,378.610107L214.801788,378.599548L214.766037,378.585297L214.731979,378.567566L214.699875,378.546509L214.67009,378.522186L214.655731,378.508575L213.778976,377.631317L212.652557,378.342957L212.61911,378.361816L212.569748,378.382111L212.108505,378.535706L210.607544,380.037262L210.579102,380.062927L210.54808,380.085663L210.515015,380.105225L210.480103,380.121277L210.443756,380.133698L210.406418,380.142456L210.368225,380.147308L210.329803,380.148285L210.291504,380.145355L210.253677,380.138672L210.216827,380.128082L210.181091,380.113983L210.147034,380.096222L210.114929,380.075073L210.085144,380.050873L210.070786,380.037262L207.741226,377.707703L207.715454,377.67923L207.692703,377.648224L207.673248,377.615143L207.657196,377.580261L207.644791,377.543884L207.637131,377.511902L207.371918,376.151886L205.255402,374.382202L205.22403,374.352905L204.921356,374.035126L204.915771,374.029175L204.626831,373.712524L204.621246,373.706085L204.346054,373.390503L204.340332,373.38382L204.078644,373.069366L204.072815,373.062195L203.82486,372.748932L203.818893,372.741272L203.584442,372.429108L203.578491,372.420959L203.357773,372.110016L203.351578,372.101044L203.144608,371.791077L203.127823,371.763336L200.944427,367.796753L200.939072,367.786896L199.465118,364.910858L198.704605,363.977661L198.077377,363.385193L197.479446,362.892822L197.332794,362.78775L197.184326,362.683075L197.052383,362.591858L196.924332,362.505402L196.810638,362.430725L196.711517,362.367737L196.61911,362.311432L196.537994,362.26474L196.505646,362.243958L196.475739,362.220001L196.439255,362.182922L196.002701,361.673645L195.979218,361.643219L195.958923,361.610626L195.942017,361.576111L195.928757,361.5401L195.919159,361.502899L195.913315,361.464966L195.911743,361.444641L195.875381,360.679993L195.875504,360.641571L195.87854,360.609955L195.901764,360.442261L195.906509,360.415405L195.939941,360.258057L195.947357,360.229095L195.991028,360.081848L196.001846,360.050354L196.055954,359.9133L196.070313,359.881195L196.134521,359.754364L196.153488,359.721283L196.228027,359.604797L196.239456,359.588867L196.205536,359.543732L196.204681,359.542511L195.149033,358.123047L195.1297,358.094482L194.729507,357.439636L194.711136,357.405823L194.696304,357.370453L194.68512,357.333588L194.677704,357.295898L194.674179,357.257721L194.674423,357.219299L194.67868,357.181091L194.686707,357.143524L194.698486,357.106934L194.713943,357.071777L194.73291,357.03833L194.755035,357.006958L194.780334,356.978027L194.808304,356.951752L194.835907,356.930603L194.862167,356.912231L194.894638,356.891815L194.929169,356.874908L194.965179,356.86142L195.00238,356.851685L195.040329,356.845856L195.078506,356.843781L195.120575,356.843658L195.159012,356.84549zM195.708328,357.605713C195.320511,357.289978,195.102249,357.168488,195.053513,357.241913L195.453674,357.896729L196.509338,359.316193L196.7276,359.607208C196.460602,359.849518,196.302734,360.20163,196.254684,360.662201L196.291061,361.426819L196.7276,361.936127C196.945877,362.057617,197.273285,362.275879,197.71051,362.591614L198.328949,363.100922L198.983765,363.71936L199.784775,364.70224L201.276978,367.613892L203.460358,371.580536C203.99437,372.405548,204.673889,373.242249,205.498932,374.091309L207.718704,375.947296L208.009735,377.439514L210.339325,379.769104L211.903595,378.204132L212.449951,378.022247L213.833023,377.148499L214.924377,378.240509L216.052795,377.112091L214.960754,376.020081L215.834518,374.637695L216.016418,374.091309L217.544998,372.526367L215.252472,370.197449L213.760269,369.94281L211.903595,367.686646C211.054535,366.861633,210.217834,366.182098,209.392792,365.648102C208.664536,365.162811,207.34256,364.435242,205.425491,363.464691L202.514526,361.972504L200.876816,360.516663L200.403198,359.898254L199.748383,358.915344L199.23909,358.47879L198.474457,358.442413C198.013885,358.49115,197.649429,358.649017,197.382416,358.915344L197.0914,358.697052L195.708328,357.605713zM204.443268,371.071228C203.642258,370.246185,203.181686,369.336029,203.060196,368.341461C202.890671,367.322174,203.108932,366.509491,203.715012,365.903442C204.321777,365.296661,205.13446,365.0784,206.153748,365.247925C207.148315,365.393433,208.058456,365.854706,208.883499,366.630981C209.683823,367.431335,210.145081,368.341461,210.265884,369.360748C210.412079,370.355316,210.181458,371.15564,209.574692,371.762421C208.967926,372.369171,208.167603,372.599121,207.173019,372.453613C206.153748,372.332794,205.243591,371.871552,204.443268,371.071228zM205.43927,365.572845L205.288605,365.580994L205.147781,365.596558L205.009399,365.620148L204.877945,365.651154L204.751236,365.689606L204.630112,365.735199L204.512527,365.788574L204.399063,365.849518L204.290848,365.917358L204.184677,365.993958L204.082047,366.078979L203.983429,366.171753L203.889923,366.27124L203.80661,366.371796L203.729767,366.47821L203.661423,366.58728L203.600128,366.701202L203.547607,366.817108L203.502121,366.93811L203.462967,367.066986L203.432678,367.196136L203.408844,367.335632L203.39328,367.475586L203.385132,367.626984L203.385132,367.779968L203.393158,367.938538L203.409454,368.104767L203.461258,368.463989L203.493118,368.63266L203.531555,368.796082L203.577026,368.957825L203.630661,369.120514L203.692917,369.284698L203.75882,369.438507L203.8358,369.598785L203.917999,369.752991L204.009094,369.908142L204.10759,370.061737L204.213257,370.213013L204.326477,370.362946L204.449905,370.514099L204.576004,370.657959L204.71402,370.805115L204.8535,370.939606L204.996628,371.068115L205.140488,371.187775L205.290787,371.303192L205.437927,371.407288L205.588593,371.504822L205.74292,371.595886L205.897949,371.678711L206.053848,371.753357L206.213028,371.82135L206.375488,371.882385L206.53772,371.935272L206.704559,371.981506L206.873215,372.020538L207.043457,372.052032L207.225632,372.077576L207.393082,372.098358L207.557724,372.111237L207.715332,372.115997L207.862579,372.112946L208.009979,372.10199L208.150909,372.083649L208.28273,372.05835L208.415527,372.024536L208.538345,371.985016L208.659943,371.937103L208.775955,371.882629L208.890259,371.819641L208.997025,371.751434L209.104889,371.672394L209.206436,371.587616L209.30603,371.493744L209.399536,371.394501L209.486237,371.290558L209.562607,371.186462L209.632416,371.077362L209.69516,370.963562L209.75,370.846924L209.797424,370.726654L209.837311,370.602631L209.870514,370.472382L209.896408,370.33667L209.914764,370.197327L209.925598,370.050171L209.928635,369.901947L209.923767,369.743011L209.911133,369.584198L209.889847,369.413361L209.864059,369.22998L209.832932,369.060822L209.793289,368.889587L209.747925,368.726654L209.694305,368.562012L209.633377,368.400024L209.565643,368.241211L209.490494,368.084717L209.408539,367.931122L209.318069,367.777649L209.218231,367.623596L209.115234,367.478027L208.998978,367.326752L208.880051,367.183746L208.752243,367.041351L208.621643,366.906128L208.327484,366.646606L208.028702,366.417145L207.722504,366.215179L207.410095,366.041504L207.092957,365.89621L206.767914,365.777893L206.436905,365.687164L206.091919,365.622223L205.919235,365.59729L205.752762,365.580872L205.592728,365.572845L205.43927,365.572845zM205.89772,365.790161L205.932739,365.79187L206.189682,365.816437L206.22702,365.821899L206.514252,365.878571L206.545013,365.885986L206.824097,365.965637L206.85376,365.975494L207.124939,366.077759L207.154007,366.090027L207.417267,366.215179L207.444641,366.229523L207.69989,366.37738L207.725052,366.393433L207.972397,366.564056L207.995255,366.581085L208.234695,366.774292L208.255249,366.792175L208.486786,367.008148L208.50502,367.026398L208.729019,367.265839L208.746399,367.285767L208.945465,367.530792L208.96286,367.553772L209.136871,367.804657L209.153168,367.830444L209.302139,368.087006L209.317093,368.115356L209.44101,368.377533L209.453888,368.408173L209.552887,368.676056L209.563217,368.708527L209.637268,368.982147L209.644684,369.015717L209.693695,369.295013L209.697708,369.324585L209.722153,369.581512L209.723846,369.616791L209.724335,369.860107L209.722397,369.899017L209.699173,370.128754L209.692352,370.171539L209.645172,370.387634L209.632538,370.432373L209.561508,370.634735L209.542542,370.679474L209.447693,370.868225L209.422516,370.910889L209.303711,371.085876L209.273926,371.124298L209.131165,371.285553L209.098328,371.318268L208.936829,371.461029L208.898529,371.490814L208.723419,371.609619L208.681107,371.634552L208.492249,371.729645L208.447388,371.748749L208.244904,371.819885L208.200043,371.83252L207.983948,371.8797L207.941513,371.886536L207.711792,371.910004L207.672516,371.911926L207.429199,371.911438L207.394165,371.90976L207.1371,371.885437L207.107056,371.881409L206.827866,371.832275L206.794662,371.82486L206.521057,371.750946L206.488464,371.740601L206.220566,371.641602L206.189926,371.628723L205.927628,371.5047L205.89917,371.489716L205.642715,371.340759L205.61705,371.324463L205.36618,371.150452L205.343323,371.133179L205.098175,370.934113L205.07811,370.916626L204.838669,370.692627L204.81192,370.665009L204.797073,370.646881L204.069519,369.70105L204.047638,369.669434L204.025742,369.628571L203.807465,369.15506L203.793121,369.119293L203.78157,369.078461L203.636124,368.423615L203.630051,368.388824L203.59758,368.131775L203.594788,368.094055L203.588455,367.850739L203.589676,367.808289L203.609497,367.578583L203.616547,367.532013L203.662643,367.315918L203.676254,367.267517L203.748489,367.065063L203.769409,367.017151L203.867783,366.8284L203.89502,366.784027L204.019547,366.608795L204.051407,366.569763L204.202072,366.408264L204.22821,366.382874L204.389709,366.240082L204.427765,366.210419L204.602875,366.091492L204.645676,366.066437L204.834534,365.971466L204.87941,365.952393L205.081879,365.881378L205.126495,365.868713L205.342468,365.821533L205.385162,365.814728L205.61499,365.791382L205.654388,365.789429L205.89772,365.790161zM204.006729,368.341461L204.152237,368.996277L204.370514,369.469879L205.098083,370.41571C205.728867,371.046509,206.420746,371.410309,207.173019,371.507751C207.876572,371.604553,208.434601,371.446686,208.847122,371.034149C209.259644,370.622314,209.416824,370.064301,209.320038,369.360748C209.222565,368.608459,208.858795,367.916595,208.227997,367.285797C207.621231,366.679718,206.930038,366.315247,206.153748,366.194458C205.450195,366.096985,204.892166,366.254852,204.479645,366.667358C204.043106,367.079895,203.885239,367.637939,204.006729,368.341461z"/>
</svg>
