<?xml version="1.0" encoding="UTF-8"?>
<svg xmlns="http://www.w3.org/2000/svg" xmlns:xlink="http://www.w3.org/1999/xlink" width="22.948mm" height="21.142mm" viewBox="-492.510498 392.964966 22.947510 21.141785">
    <path transform="matrix(-1,0,0,1,0,0)" style="stroke:none;fill:#000000;fill-rule:evenodd" d="M478.303772,392.968353L478.331482,392.970306L478.432068,392.980896L478.462097,392.98526L478.555603,393.002777L478.588806,393.010559L478.675476,393.035004L478.711853,393.047272L478.791626,393.078766L478.829346,393.096039L478.902161,393.13446L478.940735,393.157806L479.006592,393.203308L479.043091,393.231995L479.102051,393.284393L479.129578,393.311401L479.151428,393.337555L479.490723,393.781158L479.648804,393.901794L479.667786,393.917114L479.84729,394.073242L479.866699,394.091614L480.0271,394.25238L480.047058,394.273895L480.188354,394.43927L480.207947,394.464203L480.330139,394.634216L480.348755,394.662659L480.452026,394.83728L480.468933,394.869385L480.552917,395.048767L480.567139,395.08316L480.632202,395.267151L480.643188,395.304138L480.689026,395.492859L480.696045,395.530182L480.722961,395.723419L480.726318,395.760742L480.734131,395.95871L480.733765,395.994843L480.722473,396.19754L480.719055,396.231476L480.68866,396.438812L480.682678,396.470062L480.633179,396.682007L480.625549,396.709991L480.557068,396.926697L480.548096,396.952209L480.460388,397.173523L480.454773,397.186676L480.380859,397.354492L480.373535,397.370056L480.290283,397.538116L480.282959,397.552094L480.190552,397.72052L480.182861,397.734009L480.081116,397.902802L480.073303,397.91507L479.962402,398.083984L479.954651,398.095428L479.834473,398.264679L479.826721,398.275269L479.697205,398.444916L479.689514,398.454498L479.550903,398.62439L479.543274,398.633514L479.395264,398.80365L479.387939,398.811798L479.230835,398.982269L479.223572,398.990051L479.057068,399.160797L479.050049,399.167847L478.874329,399.338806L478.867493,399.345245L478.682556,399.516602L478.675964,399.522552L478.48175,399.694153L478.475464,399.699615L478.272034,399.871552L478.265686,399.876678L478.073303,400.032318L478.014587,400.094696L477.953552,400.167908L477.902588,400.237457L477.857361,400.308838L477.821594,400.37561L477.791443,400.444305L477.7677,400.512421L477.750916,400.57724L477.739624,400.644836L477.734009,400.711243L477.734131,400.781403L477.740112,400.852661L477.752136,400.925995L477.770874,401.003448L477.797119,401.085175L477.812561,401.124207L478.810974,402.345459L478.833801,402.376465L478.853271,402.409546L478.869446,402.444458L478.881836,402.480804L478.890625,402.518158L478.895569,402.556335L478.896667,402.585754L478.896667,403.293488L478.894714,403.331909L478.888916,403.369843L478.879272,403.407074L478.866028,403.443054L478.849121,403.4776L478.828857,403.510193L478.805237,403.540588L478.77887,403.568451L478.749695,403.593475L478.718201,403.615387L478.684631,403.634094L478.649353,403.649292L478.61261,403.660858L478.575073,403.66864L478.536865,403.672516L478.498413,403.672516L478.460144,403.668762L478.422546,403.661102L478.368958,403.642853L478.205872,403.573669L478.186279,403.564667L478.030151,403.487701L478.010315,403.477234L477.861084,403.392365L477.841309,403.38031L477.699158,403.287537L477.680176,403.274261L477.5448,403.173706L477.526184,403.158875L477.397949,403.050415L477.380432,403.034729L477.259033,402.918457L477.242493,402.90155L477.128113,402.777405L477.112732,402.759766L477.005249,402.627716L476.991516,402.609711L476.89093,402.469879L476.87854,402.451508L476.784912,402.303772L476.773865,402.285278L476.687134,402.129608L476.677673,402.111389L476.5979,401.947937L476.5896,401.929718L476.516907,401.758362L476.510071,401.741211L476.444153,401.562103L476.438354,401.545197L476.379395,401.358154L476.375244,401.344055L476.324768,401.159332L476.320618,401.142456L476.279907,400.960999L476.276245,400.942902L476.245239,400.764618L476.24231,400.744904L476.221313,400.569916L476.219482,400.5495L476.20813,400.377563L476.207275,400.355896L476.205811,400.187256L476.206299,400.164734L476.214722,399.999237L476.216553,399.976379L476.23468,399.814056L476.238037,399.790314L476.266052,399.631256L476.270996,399.60733L476.30896,399.451416L476.315552,399.42807L476.36322,399.27533L476.371216,399.252228L476.428711,399.102661L476.438232,399.080048L476.505615,398.933746L476.516296,398.912354L476.593506,398.769226L476.605164,398.749146L476.692139,398.609192L476.704773,398.590088L476.801697,398.453308L476.825562,398.423126L476.852173,398.395416L476.868469,398.381073L477.055481,398.225159L477.22876,398.073761L477.395874,397.920441L477.550537,397.771088L477.700928,397.617523L477.837769,397.469635L477.966309,397.321899L478.091431,397.168549L478.201111,397.0242L478.306519,396.875L478.400818,396.730408L478.487366,396.585205L478.56665,396.439056L478.63501,396.298584L478.697021,396.154999L478.748962,396.017822L478.797729,395.851837L478.833801,395.68573L478.855957,395.527496L478.865417,395.369049L478.861938,395.218384L478.846008,395.070038L478.817139,394.92218L478.775696,394.776611L478.72168,394.633484L478.653259,394.488892L478.571655,394.34613L478.475464,394.203125L478.363953,394.059631L478.237366,393.91687L478.095093,393.774231L477.930786,393.626831L477.903442,393.599854L477.879089,393.570068L477.857849,393.538086L477.839966,393.50415L477.825623,393.468506L477.814758,393.431549L477.807861,393.39386L477.80481,393.35553L477.805664,393.317108L477.810425,393.278931L477.818909,393.241486L477.831055,393.205109L477.846985,393.170105L477.866333,393.136902L477.888977,393.105896L477.914612,393.077179L477.942932,393.0513L477.973816,393.028442L478.006775,393.00885L478.041687,392.992554L478.077942,392.980042L478.115356,392.971161L478.153442,392.966034L478.196228,392.964966L478.303772,392.968353zM478.850006,393.567749C478.701752,393.418823,478.480042,393.343994,478.184235,393.343994C479.145844,394.163544,479.454041,395.095642,479.108795,396.138947C478.812958,396.983215,478.147156,397.828156,477.111389,398.672394C476.568481,399.393097,476.445618,400.250397,476.741425,401.243591C477.037262,402.262207,477.628937,402.94516,478.51712,403.293152L478.51712,402.58548L477.481354,401.31842C477.234253,400.746674,477.345459,400.225006,477.81427,399.753479C478.973572,398.834381,479.737518,397.927673,480.107483,397.033325C480.625702,395.840393,480.329865,394.847168,479.219971,394.051666L478.850006,393.567749z"/>
    <path transform="matrix(-1,0,0,1,0,0)" style="stroke:none;fill:#000000;fill-rule:evenodd" d="M485.248657,393.0784L485.286743,393.084015L485.333679,393.096405L485.999451,393.32016L486.035217,393.334259L486.069336,393.351898L486.101563,393.372803L486.131531,393.397003L486.169067,393.435669L486.549316,393.887817L486.714355,394.013672L486.733337,394.028992L486.912781,394.18512L486.932251,394.203491L487.092651,394.364258L487.11261,394.385773L487.253906,394.551147L487.273376,394.575958L487.395691,394.745972L487.414551,394.774658L487.517639,394.94928L487.534424,394.981018L487.618591,395.1604L487.632813,395.195038L487.697876,395.379028L487.708679,395.415741L487.7547,395.60437L487.761841,395.641937L487.788696,395.835175L487.792114,395.872498L487.799927,396.070465L487.799561,396.106354L487.78833,396.308807L487.784973,396.342743L487.7547,396.550079L487.74884,396.581329L487.699463,396.793152L487.69165,396.821503L487.62323,397.038086L487.614197,397.063354L487.526672,397.284576L487.519592,397.301208L487.445679,397.464661L487.438354,397.479858L487.355103,397.644257L487.347778,397.657898L487.255371,397.823151L487.247681,397.836273L487.145935,398.00238L487.138367,398.014191L487.027344,398.181152L487.019836,398.192078L486.899536,398.359894L486.892273,398.369751L486.762878,398.538544L486.755432,398.547913L486.616699,398.717529L486.609558,398.726044L486.461548,398.896545L486.45459,398.904327L486.297363,399.075653L486.290588,399.082825L486.124084,399.255035L486.117493,399.261719L485.94165,399.434875L485.935364,399.440948L485.750427,399.614868L485.744446,399.620331L485.550232,399.795319L485.544128,399.800659L485.340576,399.976379L485.335144,399.981018L485.136902,400.145538L485.074036,400.209015L485.015076,400.276367L484.963745,400.343384L484.920471,400.40918L484.884827,400.473145L484.855408,400.537964L484.833008,400.600708L484.816467,400.662964L484.805542,400.726807L484.800049,400.79187L484.800171,400.859222L484.80603,400.929016L484.818054,401.001373L484.836792,401.078125L484.862671,401.158844L484.894897,401.24057L484.947205,401.349182L485.016541,401.467865L485.10553,401.599792L485.214844,401.744263L485.342407,401.898102L485.492249,402.065186L485.65918,402.239685L485.849365,402.427429L485.875427,402.45575L485.898254,402.486664L485.918091,402.519592L485.934265,402.554382L485.947021,402.590607L485.955933,402.628082L485.960999,402.666138L485.962341,402.697632L485.962341,403.405365L485.960388,403.443787L485.95459,403.48172L485.944946,403.518951L485.931702,403.554932L485.914795,403.589478L485.89447,403.62207L485.870911,403.652466L485.844543,403.680298L485.815308,403.705353L485.783813,403.727264L485.750305,403.745972L485.715027,403.761169L485.678284,403.772736L485.640686,403.780518L485.602539,403.784393L485.564087,403.784393L485.525818,403.78064L485.48822,403.77298L485.434448,403.75473L485.271545,403.685547L485.251953,403.676544L485.095947,403.599579L485.076233,403.589111L484.927002,403.504242L484.907227,403.492188L484.765015,403.399414L484.745972,403.386017L484.610718,403.285461L484.592224,403.270752L484.463928,403.162292L484.446533,403.146729L484.325073,403.030457L484.308411,403.013428L484.19397,402.889282L484.178772,402.871887L484.071167,402.739838L484.057312,402.721588L483.956726,402.581757L483.944336,402.563385L483.850708,402.415619L483.839661,402.397156L483.75293,402.241486L483.743469,402.223267L483.663696,402.059814L483.655518,402.041809L483.582703,401.870483L483.575745,401.853088L483.509827,401.673981L483.504028,401.657074L483.445007,401.470032L483.440918,401.455933L483.390442,401.27121L483.386292,401.254181L483.345581,401.072632L483.341919,401.054291L483.311035,400.875885L483.308105,400.856415L483.287048,400.681305L483.285217,400.661011L483.273926,400.489197L483.273071,400.467285L483.271729,400.298645L483.272217,400.276367L483.28064,400.11087L483.282471,400.088013L483.300598,399.925659L483.303955,399.901703L483.332092,399.742645L483.337036,399.719177L483.374878,399.563293L483.381409,399.539581L483.429077,399.386963L483.437134,399.363983L483.494629,399.214417L483.50415,399.191803L483.571472,399.045502L483.582092,399.024353L483.65918,398.881226L483.670959,398.860779L483.757935,398.720947L483.770447,398.702087L483.867249,398.565308L483.89093,398.535126L483.917725,398.507538L483.934021,398.493073L484.121033,398.337036L484.291504,398.187836L484.45874,398.03363L484.61377,397.882843L484.760071,397.732422L484.898315,397.581268L485.02417,397.434631L485.143616,397.286011L485.25415,397.137543L485.355042,396.991119L485.445313,396.84848L485.530396,396.700745L485.604492,396.558228L485.669922,396.416931L485.727539,396.275116L485.778381,396.1297L485.832825,395.953491L485.871887,395.785431L485.897278,395.621155L485.908508,395.464142L485.906799,395.310455L485.891846,395.160278L485.864075,395.014343L485.82312,394.869385L485.769592,394.728699L485.701172,394.586548L485.618591,394.445343L485.522034,394.306366L485.407593,394.164581L485.281006,394.027649L485.135803,393.889008L484.966919,393.745392L484.938965,393.719025L484.913757,393.690063L484.891602,393.658569L484.872925,393.625153L484.857605,393.589874L484.845886,393.553284L484.837891,393.515686L484.833862,393.477509L484.833618,393.439087L484.83728,393.400787L484.844788,393.36322L484.85614,393.326477L484.871094,393.291107L484.889587,393.257294L484.911316,393.225677L484.936157,393.19635L484.963867,393.169739L484.994019,393.146027L485.026489,393.125458L485.060913,393.108459L485.096924,393.094818L485.133972,393.084961L485.171936,393.078888L485.210327,393.076721L485.248657,393.0784zM485.878601,393.679626L485.212799,393.455872C486.199158,394.250702,486.508026,395.182129,486.138062,396.250824C485.866241,397.095093,485.212799,397.940033,484.177063,398.784302C483.634796,399.505005,483.511261,400.361603,483.807098,401.355499C484.102936,402.374084,484.695282,403.057037,485.582764,403.405029L485.582764,402.697357C485.040527,402.175018,484.695282,401.74054,484.547028,401.392548C484.300598,400.821472,484.411102,400.312195,484.879913,399.865356C486.039215,398.920868,486.803864,398.01416,487.173828,397.144501C487.691345,395.952271,487.395508,394.959045,486.285645,394.163544L485.878601,393.679626z"/>
    <path transform="matrix(-1,0,0,1,0,0)" style="stroke:none;fill:#000000;fill-rule:evenodd" d="M481.596069,393.452209L481.63385,393.458801L481.670593,393.468994L482.337097,393.692017L482.372986,393.705994L482.407166,393.723633L482.43927,393.744568L482.469299,393.768646L482.496643,393.795624L482.516235,393.818848L482.893555,394.303802L483.050537,394.426147L483.069153,394.441711L483.244385,394.597229L483.263733,394.615723L483.420227,394.775757L483.439697,394.79715L483.577454,394.961456L483.59668,394.986359L483.715698,395.154907L483.734192,395.183746L483.834412,395.356781L483.850952,395.388763L483.932312,395.566193L483.946167,395.600708L484.008789,395.782501L484.019348,395.819244L484.063171,396.00528L484.070068,396.042755L484.095154,396.233307L484.098145,396.270752L484.10437,396.465546L484.10376,396.501434L484.091248,396.700745L484.087585,396.73468L484.056213,396.938232L484.049988,396.96936L483.999939,397.177307L483.992004,397.205627L483.923035,397.418091L483.913818,397.44339L483.825989,397.660065L483.821411,397.670776L483.747314,397.838593L483.740417,397.853668L483.657227,398.021851L483.649597,398.036316L483.557007,398.204742L483.549377,398.218109L483.447571,398.38678L483.440063,398.398804L483.329163,398.567841L483.321106,398.579529L483.200867,398.748779L483.193054,398.759369L483.063538,398.928894L483.055908,398.938507L482.917175,399.108368L482.909607,399.117371L482.761597,399.287506L482.754211,399.295776L482.596985,399.466248L482.589783,399.473907L482.42334,399.644653L482.41626,399.651703L482.24054,399.822662L482.233643,399.829132L482.048523,400.000458L482.042114,400.006409L481.8479,400.178009L481.841553,400.183472L481.638123,400.355408L481.631775,400.360535L481.443542,400.512787L481.393311,400.569458L481.335815,400.642517L481.287781,400.712219L481.245361,400.783844L481.212402,400.849731L481.184448,400.918335L481.162292,400.98764L481.146729,401.054535L481.137207,401.119934L481.132629,401.190338L481.13385,401.260406L481.140869,401.333832L481.153748,401.408264L481.173218,401.48645L481.200012,401.569275L481.233154,401.653412L481.288269,401.774414L481.356873,401.896637L481.444519,402.029541L481.551636,402.172058L481.680542,402.326385L481.824524,402.483734L481.991882,402.653137L482.180847,402.831512L482.207336,402.859253L482.231079,402.889526L482.251465,402.922119L482.268494,402.956512L482.282043,402.992523L482.291748,403.029602L482.297729,403.067535L482.299744,403.107422L482.299744,403.815155L482.297852,403.853607L482.291992,403.891541L482.28241,403.928741L482.269104,403.964752L482.252197,403.999268L482.231934,404.03186L482.208313,404.062256L482.181946,404.090118L482.152771,404.115173L482.121277,404.137054L482.087708,404.155792L482.052429,404.17099L482.015686,404.182526L481.978149,404.190308L481.939941,404.194214L481.901489,404.194214L481.86322,404.19043L481.825623,404.18277L481.771912,404.164551L481.608948,404.095337L481.589111,404.086212L481.433105,404.009125L481.413635,403.998779L481.264404,403.91391L481.244873,403.902008L481.102722,403.809326L481.083252,403.795715L480.947998,403.695038L480.92981,403.680664L480.801514,403.572327L480.783875,403.556396L480.662354,403.440033L480.645813,403.423126L480.531433,403.29895L480.516235,403.281464L480.408691,403.149506L480.394836,403.131378L480.29425,402.991547L480.281982,402.973297L480.188232,402.825562L480.177063,402.806946L480.090332,402.651306L480.080872,402.633057L480.001099,402.469635L479.99292,402.45163L479.920105,402.280273L479.913147,402.262909L479.84729,402.083771L479.841431,402.066498L479.782593,401.879364L479.778564,401.866119L479.727844,401.681519L479.723694,401.6651L479.682495,401.483673L479.678955,401.46579L479.647339,401.287506L479.644409,401.268555L479.622437,401.093445L479.620483,401.073975L479.607849,400.902161L479.606873,400.880859L479.603943,400.712219L479.604187,400.690918L479.610596,400.525421L479.612183,400.502808L479.628235,400.340454L479.631165,400.317719L479.656738,400.158539L479.661194,400.135193L479.69635,399.979309L479.702332,399.956329L479.746948,399.803589L479.754456,399.780487L479.808716,399.631042L479.817444,399.609009L479.881165,399.462616L479.891296,399.441315L479.964478,399.298187L479.975708,399.277771L480.05835,399.137939L480.070557,399.118835L480.162842,398.982025L480.185791,398.951385L480.211975,398.923187L480.23053,398.906036L480.416382,398.746979L480.593201,398.588409L480.757935,398.433472L480.915161,398.278198L481.062805,398.124359L481.20459,397.968231L481.331177,397.820343L481.454529,397.666626L481.568542,397.514893L481.670105,397.369446L481.766296,397.220245L481.854309,397.071259L481.93219,396.926697L482.002319,396.781738L482.063721,396.639221L482.115417,396.502289L482.164429,396.335693L482.200562,396.169708L482.222656,396.011505L482.232178,395.853516L482.228638,395.702484L482.212585,395.553406L482.183655,395.405304L482.142639,395.261566L482.088318,395.117828L482.019836,394.973236L481.938599,394.830963L481.841797,394.687347L481.730286,394.543976L481.604309,394.402069L481.462402,394.26004L481.296753,394.111542L481.269531,394.084442L481.245239,394.054779L481.223938,394.022797L481.205933,393.988861L481.191589,393.953217L481.180908,393.916382L481.17395,393.878571L481.170776,393.840271L481.171631,393.801819L481.17627,393.763641L481.184814,393.726196L481.197083,393.689819L481.213013,393.654816L481.232361,393.621613L481.254822,393.590607L481.280457,393.56192L481.308838,393.536011L481.339722,393.513153L481.372681,393.493439L481.407532,393.477264L481.443787,393.46463L481.481262,393.45575L481.519287,393.450653L481.557617,393.449432L481.596069,393.452209zM480.477448,399.194061C479.9599,399.914764,479.848694,400.772064,480.144531,401.765259C480.440369,402.783844,481.032715,403.466797,481.920227,403.814819L481.920227,403.107147C481.37796,402.610199,481.032715,402.175018,480.88446,401.803009C480.638062,401.231262,480.736877,400.709595,481.180298,400.237366C482.3396,399.318298,483.104248,398.411591,483.474182,397.517212C483.992432,396.34967,483.708252,395.368835,482.623077,394.574005L482.216736,394.051666L481.550262,393.828583C482.512573,394.648132,482.82077,395.579559,482.475494,396.622864C482.179688,397.467804,481.513885,398.325104,480.477448,399.194061z"/>
    <path transform="matrix(-1,0,0,1,0,0)" style="stroke:none;fill:#000000;fill-rule:evenodd" d="M470.881042,401.163605L470.91925,401.167725L470.970947,401.179779L472.783691,401.738434L472.832336,401.757141L475.310852,402.912384L475.351563,402.934509L478.27417,404.760284L478.305664,404.782288L478.334778,404.807343L478.361267,404.835175L478.384766,404.86557L478.413452,404.914215L478.430481,404.948761L478.540405,405.004456L478.566528,405.019043L479.696594,405.708893L492.13092,405.708893L492.169373,405.710846L492.207336,405.716675L492.244507,405.726288L492.280518,405.739563L492.315063,405.756439L492.347656,405.776764L492.378052,405.800354L492.405884,405.826752L492.430969,405.855927L492.45282,405.887421L492.471558,405.92099L492.486755,405.956238L492.498291,405.992981L492.506104,406.030548L492.51001,406.068726L492.510498,406.08844L492.510498,406.759064L492.508545,406.797516L492.502686,406.835449L492.493103,406.87265L492.479797,406.908661L492.462952,406.943176L492.442627,406.975769L492.419006,407.006165L492.392639,407.034027L492.363464,407.059082L492.33197,407.080963L492.298401,407.099701L492.263123,407.114899L492.226379,407.126434L492.176086,407.135925L490.717407,407.310425L490.717407,407.310547L490.693481,407.341797L490.666687,407.382172L490.634827,407.435791L490.600464,407.500244L490.565308,407.572113L490.524048,407.663452L490.487854,407.749908L490.447327,407.852783L490.403076,407.972321L490.36261,408.088318L490.3172,408.224762L490.317078,408.224762L489.718323,410.115326L489.712463,410.132599L489.665649,410.258942L489.656433,410.281464L489.59967,410.409027L489.589539,410.430054L489.522522,410.558716L489.512207,410.577179L489.43512,410.70694L489.424927,410.723358L489.337708,410.854462L489.327515,410.869049L489.230347,411.001221L489.219849,411.014587L489.112366,411.147888L489.103027,411.15918L488.985535,411.293793L488.975952,411.304382L488.848389,411.439972L488.839478,411.449097L488.701721,411.586029L488.693359,411.594177L488.545593,411.732178L488.537292,411.739594L488.379333,411.878723L488.371704,411.885284L488.203613,412.025604L488.196594,412.031464L488.018433,412.173004L488.011353,412.178345L487.822998,412.320984L487.816711,412.325745L487.618225,412.469574L487.574097,412.497192L486.316711,413.167725L486.281921,413.184021L486.249329,413.195679L485.666504,413.374329L485.666504,413.727203L485.664551,413.765656L485.658691,413.803589L485.649109,413.84079L485.635864,413.876801L485.618958,413.911316L485.598633,413.943909L485.575073,413.974304L485.548645,414.002167L485.51947,414.027222L485.487976,414.049103L485.454407,414.067841L485.419128,414.083038L485.382446,414.094574L485.344849,414.102356L485.306641,414.106262L485.286987,414.10675L477.370178,414.10675L477.331787,414.104797L477.293823,414.098969L477.256592,414.089355L477.220642,414.07608L477.186096,414.059204L477.153503,414.038879L477.123108,414.015289L477.095276,413.988892L477.07019,413.959717L477.04834,413.928223L477.029602,413.894653L477.014404,413.859406L477.002808,413.822662L476.995056,413.785095L476.99115,413.746918L476.990662,413.727203L476.990662,413.374329L476.407837,413.195679L476.37561,413.184265L476.03363,413.044647L476.010315,413.03418L475.686707,412.875854L475.663147,412.86322L475.35791,412.686157L475.334534,412.671448L475.047791,412.475922L475.017151,412.452698L475.000488,412.437714L473.742371,411.245392L473.715881,411.217682L473.696167,411.192749L472.993286,410.223572L472.972412,410.191467L472.954773,410.157288L472.939575,410.117889L472.310852,408.180267L472.231934,407.943726L472.157043,407.741516L472.086487,407.57309L472.02301,407.442139L471.967468,407.347137L471.940369,407.310791L470.445129,407.136047L470.407166,407.12973L470.370178,407.119507L470.334351,407.105652L470.300049,407.088135L470.267822,407.067352L470.237793,407.043396L470.210266,407.01651L470.18573,406.987091L470.164185,406.955231L470.146057,406.921417L470.131348,406.885773L470.120422,406.84906L470.11322,406.811249L470.109619,406.759064L470.109619,406.08844L470.111572,406.050018L470.117371,406.012054L470.127014,405.974854L470.140259,405.938843L470.157166,405.904327L470.177429,405.871735L470.20105,405.841339L470.227417,405.813477L470.256592,405.788422L470.288086,405.766541L470.321655,405.747833L470.356934,405.732605L470.393677,405.721069L470.431213,405.713287L470.469421,405.709381L470.489136,405.708893L475.683655,405.708893L474.790833,405.360992L474.753662,405.344086L472.459839,404.151886L472.429932,404.134735L470.80249,403.09137L470.764832,403.06366L469.913696,402.356049L469.892151,402.3367L469.817017,402.263885L469.791626,402.236755L469.732727,402.167328L469.704163,402.128876L469.661377,402.06311L469.642029,402.029907L469.630493,402.005341L469.603821,401.943085L469.590576,401.907074L469.579163,401.86026L469.568726,401.801422L469.563965,401.763336L469.562988,401.724915L469.564819,401.695984L469.570557,401.640656L469.576477,401.602722L469.586121,401.565491L469.598511,401.531952L469.620361,401.480133L469.637024,401.445587L469.657227,401.412903L469.67157,401.393311L469.709534,401.345032L469.734802,401.316101L469.762756,401.289825L469.793335,401.266602L469.826172,401.246399L469.860657,401.229767L469.89679,401.216736L469.934143,401.207367L469.972046,401.201782L469.991394,401.200439L470.842651,401.163361L470.881042,401.163605zM472.671844,402.100891L470.8591,401.542175L470.007996,401.579254C469.885132,401.703491,469.93454,401.864777,470.15625,402.063843L471.007385,402.771515L472.634796,403.814819L474.92868,405.00705L477.703064,406.088104C477.703064,405.740112,477.838959,405.429871,478.110077,405.156677L478.073029,405.081879L475.150391,403.256104L472.671844,402.100891zM470.489136,406.088104L470.489136,406.758728L472.0802,406.944733C472.252472,406.994843,472.450165,407.367554,472.671844,408.062836L473.300598,410.000519L474.003448,410.969696L475.261597,412.161957C475.631561,412.43512,476.050934,412.658875,476.519043,412.83255L477.370178,413.093384L477.370178,413.726898L485.286926,413.726898L485.286926,413.093384L486.138062,412.83255L487.395508,412.161957C488.480682,411.391815,489.134125,410.671112,489.356506,410.000519L489.911133,408.249542C490.157532,407.45401,490.379913,407.019531,490.576904,406.944733L492.13089,406.758728L492.13089,406.088104L479.589935,406.088104L478.368866,405.342712L478.221283,405.267883C478.023621,405.44223,477.900757,405.715424,477.851318,406.088104L470.489136,406.088104z"/>
</svg>
