<?xml version="1.0" encoding="UTF-8"?>
<svg xmlns="http://www.w3.org/2000/svg" xmlns:xlink="http://www.w3.org/1999/xlink" width="23.250mm" height="23.243mm" viewBox="-461.936707 391.913940 23.250244 23.243469">
    <path transform="matrix(-1,0,0,1,0,0)" style="stroke:none;fill:#000000;fill-rule:evenodd" d="M444.868042,391.920258L444.885193,391.92099L445.163574,391.939819L445.181213,391.941406L445.45459,391.972778L445.472656,391.975342L445.741211,392.019348L445.759399,392.022766L446.022827,392.079315L446.041199,392.083801L446.299683,392.152893L446.318176,392.158234L446.571594,392.23996L446.589722,392.246399L446.838318,392.340637L446.856018,392.347809L447.099609,392.45459L447.117126,392.46286L447.355713,392.582275L447.37262,392.591278L447.606079,392.723206L447.622131,392.732819L447.850769,392.877411L447.866089,392.887604L448.089722,393.044739L448.104309,393.055542L448.322937,393.225311L448.336548,393.236359L448.550232,393.418671L448.562866,393.429962L448.771545,393.624786L448.78064,393.633545L454.440613,399.282501L454.46637,399.310974L454.489136,399.34198L454.508667,399.375061L454.524719,399.409943L454.537292,399.446198L454.545898,399.483643L454.550903,399.521698L454.55188,399.56012L454.549072,399.59845L454.539673,399.647095L454.44519,400.008606L454.441956,400.020538L454.336731,400.37561L454.332825,400.387634L454.216736,400.73642L454.212463,400.748566L454.08551,401.090759L454.08075,401.102783L453.942871,401.43866L453.937744,401.450592L453.789185,401.779999L453.783569,401.791931L453.624146,402.114899L453.618042,402.126709L453.447815,402.443237L453.441223,402.455017L453.260071,402.765137L453.253235,402.776306L453.06134,403.080078L453.053955,403.091248L452.851135,403.388458L452.843445,403.399292L452.629761,403.690155L452.621887,403.700623L452.3974,403.985046L452.38916,403.995148L452.153809,404.273132L452.145447,404.282745L451.899292,404.554291L451.890564,404.563507L451.633606,404.828613L451.620239,404.841736L451.345764,405.098206L451.337158,405.10611L451.057434,405.351868L451.04834,405.35965L450.763306,405.594482L450.753906,405.601898L450.463806,405.826019L450.453796,405.833435L450.158325,406.0466L450.148193,406.05365L449.847351,406.256134L449.836914,406.262939L449.530945,406.45459L449.52002,406.461151L449.20874,406.641846L449.197754,406.648041L448.881226,406.818054L448.869934,406.823883L448.548035,406.983063L448.536499,406.988434L448.209351,407.13678L448.197693,407.141876L447.865356,407.279419L447.853577,407.284027L447.515991,407.410614L447.504211,407.414886L447.161255,407.530762L447.149353,407.534546L446.801086,407.639618L446.789307,407.643005L446.435913,407.737244L446.398315,407.74527L446.360168,407.74942L446.321716,407.749664L446.283508,407.746124L446.24585,407.738586L446.209106,407.727417L446.173584,407.712585L446.139893,407.694214L446.108154,407.672455L446.070984,407.639984L440.447998,402.065186L440.441223,402.05835L440.241516,401.850189L440.230103,401.837769L440.043213,401.624603L440.031738,401.61087L439.857849,401.3927L439.847046,401.378479L439.685913,401.155457L439.675354,401.140015L439.5271,400.911865L439.517029,400.895477L439.381775,400.662354L439.372681,400.645569L439.250244,400.407593L439.241577,400.389709L439.132141,400.146637L439.124573,400.128754L439.027893,399.880798L439.02124,399.862183L438.937439,399.609131L438.931763,399.590424L438.86084,399.332489L438.856201,399.313629L438.798218,399.05072L438.794556,399.032013L438.749451,398.764008L438.746765,398.745514L438.714539,398.472626L438.71283,398.454498L438.693542,398.176636L438.69281,398.158783L438.686462,397.875916L438.686462,397.859253L438.692688,397.572144L438.69342,397.554779L438.712341,397.273132L438.713928,397.255615L438.745422,396.979584L438.747864,396.9617L438.79187,396.691254L438.79541,396.67276L438.852112,396.407806L438.856567,396.389191L438.925903,396.129822L438.931274,396.111328L439.013062,395.857544L439.019653,395.83905L439.114136,395.590729L439.121582,395.572632L439.228577,395.329895L439.237061,395.312042L439.35675,395.07489L439.365845,395.057739L439.498047,394.826111L439.508118,394.809448L439.652954,394.583374L439.663696,394.567688L439.821045,394.347229L439.832092,394.332397L440.001953,394.117401L440.013672,394.103394L440.196167,393.89389L440.208069,393.880737L440.403259,393.676819L440.415405,393.664673L440.619568,393.469849L440.632141,393.458435L440.841492,393.275787L440.855164,393.264465L441.069885,393.094086L441.084229,393.083282L441.304199,392.925079L441.319519,392.914612L441.544739,392.768799L441.560669,392.758942L441.791138,392.625427L441.8078,392.616425L442.043579,392.495087L442.060852,392.486694L442.30188,392.377716L442.319397,392.3703L442.565613,392.273529L442.583618,392.266937L442.835205,392.182434L442.853455,392.176849L443.110291,392.104736L443.128296,392.100098L443.39032,392.040161L443.408325,392.036499L443.67572,391.988831L443.693481,391.986176L443.966125,391.950775L443.983765,391.948822L444.261658,391.925842L444.278381,391.924866L444.561646,391.914063L444.584595,391.91394L444.868042,391.920258zM444.575836,392.293427C443.051361,392.318146,441.752045,392.867249,440.677155,393.939392C439.602966,395.012207,439.065521,396.321167,439.065521,397.867584C439.065521,399.389282,439.615326,400.698914,440.714905,401.795776L446.337769,407.370575C448.237,406.896973,449.911102,405.961426,451.360748,404.564636C452.760284,403.167847,453.697205,401.49649,454.17218,399.55127L448.512238,393.902313C447.412659,392.829498,446.100281,392.293427,444.575836,392.293427zM444.800964,395.211273C444.551117,394.911987,444.551117,394.612732,444.800964,394.313477C445.100922,394.064301,445.400848,394.064301,445.700806,394.313477L451.473328,400.112732L451.660706,400.561646L451.473328,400.972778C451.348389,401.097717,451.198761,401.160156,451.023743,401.160156C450.848694,401.160156,450.711426,401.097717,450.611206,400.972778L444.800964,395.211273zM445.215881,394.511749L445.171082,394.525604L445.113708,394.55542L445.072876,394.585083L445.042664,394.626556L445.012878,394.683472L444.999023,394.727722L444.995483,394.762268L444.999023,394.796783L445.012756,394.84082L445.042664,394.898102L445.090088,394.962891L450.92926,400.753906L450.948486,400.765594L450.976196,400.774475L451.023987,400.778961L451.078003,400.773987L451.1203,400.7612L451.161194,400.738953L451.164124,400.736542L451.246887,400.55484L451.152039,400.327576L445.453369,394.602356L445.388794,394.55542L445.33136,394.525604L445.286621,394.511749L445.251221,394.507996L445.215881,394.511749z"/>
    <path transform="matrix(-1,0,0,1,0,0)" style="stroke:none;fill:#000000;fill-rule:evenodd" d="M455.245728,400.219818L455.283936,400.224213L455.321472,400.232361L455.357971,400.244263L455.393127,400.259827L455.426453,400.278809L455.457703,400.301178L455.490173,400.330017L460.213867,405.044098L460.220032,405.050415L460.4151,405.254364L460.42688,405.267242L460.609436,405.476654L460.620972,405.490631L460.790955,405.705627L460.802307,405.720581L460.959656,405.941162L460.970215,405.956848L461.115051,406.1828L461.125122,406.199463L461.257324,406.431122L461.266479,406.448242L461.386108,406.685394L461.394653,406.703247L461.501648,406.946106L461.509033,406.964233L461.603516,407.212402L461.610107,407.231018L461.691956,407.484924L461.697388,407.503418L461.766602,407.762665L461.770996,407.781158L461.827637,408.046143L461.831055,408.064362L461.875183,408.334808L461.877747,408.352936L461.909241,408.629089L461.910828,408.646729L461.929688,408.928253L461.93042,408.945282L461.936707,409.232483L461.936707,409.249512L461.930298,409.532379L461.929565,409.55011L461.910217,409.828003L461.908508,409.8461L461.876282,410.118988L461.873596,410.137482L461.828491,410.405365L461.824829,410.423981L461.766968,410.68689L461.762329,410.705841L461.691467,410.963898L461.68573,410.982605L461.601929,411.235565L461.595276,411.254028L461.498596,411.502106L461.491028,411.520233L461.381592,411.763184L461.373108,411.780823L461.250671,412.018921L461.241272,412.036072L461.105957,412.269073L461.096069,412.285126L460.947998,412.513245L460.937256,412.528687L460.776123,412.751831L460.76532,412.766174L460.591431,412.984344L460.579895,412.998077L460.392944,413.211121L460.381531,413.223663L460.181763,413.431824L460.166931,413.446442L459.958252,413.641235L459.945618,413.652557L459.732056,413.834839L459.718445,413.845886L459.499817,414.015656L459.485229,414.026489L459.261597,414.183594L459.246399,414.193695L459.017883,414.338287L459.001709,414.347992L458.76825,414.47995L458.751343,414.488953L458.512756,414.608368L458.495483,414.616516L458.252014,414.723389L458.234009,414.730682L457.985596,414.824921L457.967346,414.83139L457.713806,414.913086L457.695435,414.918457L457.437012,414.987518L457.41864,414.992004L457.155273,415.048553L457.137024,415.051971L456.868652,415.095978L456.850525,415.098541L456.577148,415.129913L456.559509,415.1315L456.281189,415.15033L456.264038,415.151062L455.980713,415.15741L455.957703,415.157288L455.6745,415.146454L455.657471,415.145355L455.379639,415.122253L455.362244,415.120422L455.089478,415.085052L455.07196,415.082367L454.804565,415.034821L454.786316,415.031158L454.524109,414.971222L454.506042,414.966614L454.249207,414.894379L454.231201,414.888763L453.979614,414.804382L453.961609,414.797821L453.71521,414.701019L453.697449,414.693604L453.456482,414.584534L453.439453,414.576263L453.203613,414.455017L453.186707,414.44577L452.956299,414.312134L452.940491,414.302399L452.715271,414.156586L452.700073,414.146271L452.480103,413.98819L452.465637,413.977234L452.250977,413.806854L452.237366,413.795563L452.028076,413.612915L452.015442,413.601349L451.811401,413.406433L451.804321,413.399506L447.118347,408.685394L447.092712,408.65683L447.070068,408.625824L447.05072,408.592621L447.034668,408.557709L447.0224,408.521362L447.013794,408.483917L447.009033,408.445709L447.008179,408.407288L447.01123,408.36911L447.018005,408.331299L447.028748,408.294312L447.043091,408.258698L447.060852,408.22464L447.082092,408.192657L447.106445,408.162872L447.133667,408.135742L447.163452,408.111542L447.195557,408.090515L447.229614,408.072754L447.26709,408.057922L447.612427,407.942291L447.94281,407.821045L448.270569,407.689697L448.586853,407.552185L448.907715,407.401031L449.213196,407.246094L449.515991,407.080719L449.814392,406.905853L450.105896,406.722961L450.392883,406.530579L450.673157,406.330048L450.950562,406.118835L451.21698,405.902618L451.481262,405.675232L451.743286,405.435547L451.993164,405.193298L452.24176,404.938049L452.484375,404.674072L452.71344,404.409576L452.933289,404.139862L453.14917,403.858337L453.351746,403.576569L453.543884,403.291412L453.724854,403.004425L453.902039,402.702972L454.066406,402.402374L454.21991,402.099945L454.36969,401.780487L454.504456,401.468597L454.632629,401.144745L454.750549,400.818359L454.861328,400.480438L454.875183,400.44455L454.892456,400.410278L454.913269,400.37793L454.937073,400.347748L454.963989,400.320282L454.993408,400.295593L455.025269,400.274078L455.059082,400.255829L455.094604,400.241119L455.131287,400.230042L455.169006,400.222748L455.207275,400.21936L455.245728,400.219818zM455.971893,414.778076C457.496338,414.778076,458.808044,414.242004,459.907623,413.169189C461.007202,412.072327,461.557007,410.762695,461.557007,409.240997C461.557007,407.69455,461.019562,406.38562,459.945374,405.312805L455.22168,400.598694C454.647156,402.444397,453.660126,404.065643,452.26059,405.462433C450.885773,406.834534,449.26178,407.819489,447.387268,408.417999L452.073212,413.132111C453.1474,414.204254,454.447418,414.753357,455.971893,414.778076z"/>
</svg>
