<?xml version="1.0" encoding="UTF-8"?>
<svg xmlns="http://www.w3.org/2000/svg" xmlns:xlink="http://www.w3.org/1999/xlink" width="23.095mm" height="21.985mm" viewBox="-400.408630 392.543488 23.094727 21.985107">
    <path transform="matrix(-1,0,0,1,0,0)" style="stroke:none;fill:#000000;fill-rule:evenodd" d="M389.416626,392.545288L389.454712,392.551025L389.509644,392.566467L392.265442,393.573334L392.546204,393.669647L392.848633,393.765961L393.153748,393.856079L393.478577,393.94519L393.817108,394.031433L394.157349,394.111908L394.521545,394.191681L394.891846,394.26709L394.929047,394.276581L394.965149,394.289825L394.999695,394.306732L395.032288,394.326904L395.062805,394.350372L395.084839,394.370819L400.260162,399.555756L400.28595,399.58432L400.308563,399.615234L400.328003,399.648407L400.344055,399.683319L400.356476,399.719666L400.365845,399.760651L400.403656,399.984406L400.40802,400.022583L400.40863,400.061005L400.405334,400.099213L400.398193,400.137024L400.38736,400.173859L400.372772,400.209381L400.354645,400.243317L400.33313,400.275177L400.300049,400.313721L397.953949,402.700928L397.925598,402.726929L397.894958,402.749908L397.862,402.769623L397.82724,402.786041L397.791016,402.798798L397.753662,402.8078L397.715607,402.813019L397.677185,402.814362L397.620148,402.809143L397.396393,402.771454L397.358948,402.763184L397.322449,402.751129L397.287415,402.735443L397.25412,402.716248L397.22287,402.693848L397.19281,402.667114L394.742249,400.246338L390.40625,404.555969L396.443268,410.357574L396.497131,410.365479L396.529114,410.371552L396.697418,410.411194L396.729156,410.420197L396.891479,410.473694L396.923218,410.485748L397.079742,410.553345L397.110138,410.568085L397.260803,410.64978L397.289001,410.666687L397.43396,410.76239L397.459747,410.781128L397.598877,410.890808L397.62207,410.910614L397.755493,411.034424L397.782959,411.062744L397.914307,411.212921L397.931702,411.234344L398.046722,411.386963L398.063629,411.411285L398.162476,411.566193L398.17865,411.594055L398.26123,411.751404L398.275574,411.782043L398.34198,411.941711L398.354126,411.975281L398.404236,412.137238L398.413361,412.172882L398.447174,412.337158L398.452881,412.373749L398.47052,412.540497L398.472351,412.594849L398.465393,412.776154L398.46286,412.808014L398.441833,412.978851L398.435974,413.013275L398.401062,413.173553L398.390991,413.210632L398.342102,413.360321L398.327393,413.398285L398.264648,413.537628L398.244446,413.576294L398.167603,413.705078L398.142914,413.741577L398.052185,413.859894L398.023376,413.893311L397.918579,414.001312L397.90033,414.018829L397.784546,414.123169L397.752197,414.149292L397.628296,414.238556L397.591797,414.26178L397.459625,414.335724L397.421204,414.354431L397.281006,414.4133L397.241455,414.427399L397.093109,414.471191L397.053833,414.480438L396.897217,414.509003L396.859863,414.513977L396.695221,414.527374L396.660706,414.528595L396.487885,414.526886L396.454834,414.525055L396.280334,414.508026L396.246643,414.503296L396.076752,414.471191L396.042816,414.463165L395.877563,414.415863L395.844482,414.404663L395.68396,414.342285L395.65271,414.328552L395.496704,414.251068L395.467163,414.23468L395.315735,414.141876L395.289246,414.123993L395.142578,414.016144L395.118896,413.997284L394.976715,413.874115L394.937805,413.835083L394.823853,413.702881L394.805847,413.680267L394.70578,413.544556L394.688293,413.518799L394.602295,413.379547L394.586609,413.351349L394.514526,413.20871L394.500397,413.177673L394.442261,413.031403L394.431091,412.99881L394.386841,412.849121L394.378418,412.814697L394.348267,412.661346L394.34317,412.627441L394.341217,412.608337L388.266602,406.734253L381.083252,413.930298L381.05481,413.956085L381.023804,413.978821L380.990723,413.998383L380.955811,414.014435L380.919434,414.026978L380.882111,414.035614L380.843933,414.040588L380.805603,414.041565L380.767212,414.038757L380.72937,414.032074L380.692535,414.021484L380.656799,414.007263L380.622742,413.989624L380.590637,413.968475L380.56073,413.944275L380.546021,413.930298L378.051666,411.431091L378.025879,411.402527L378.003265,411.371521L377.983704,411.33844L377.967773,411.303528L377.955353,411.267181L377.946716,411.229706L377.941864,411.19165L377.940887,411.153229L377.943787,411.114929L377.950623,411.077118L377.961182,411.040131L377.975403,411.004517L377.993164,410.970459L378.014343,410.938354L378.051666,410.894806L385.231384,403.702698L383.325012,401.79364L383.185547,401.845306L383.16571,401.85199L382.807343,401.962646L382.785217,401.96875L382.436096,402.053864L382.411652,402.05896L382.071899,402.118439L382.045135,402.122192L381.7146,402.156006L381.685547,402.157837L381.36438,402.165985L381.333496,402.165497L381.021729,402.14798L380.98938,402.144806L380.686951,402.101654L380.640869,402.092163L380.341095,402.010559L380.319824,402.003998L380.035278,401.908295L380.013489,401.900269L379.744019,401.790833L379.720795,401.780487L379.466644,401.656952L379.44342,401.644531L379.204346,401.507019L379.181,401.492432L378.957123,401.341034L378.934021,401.324249L378.72522,401.158844L378.702972,401.139648L378.509277,400.960144L378.489197,400.940216L378.302307,400.739075L378.283936,400.717926L378.114532,400.506317L378.097626,400.483337L377.94574,400.261292L377.930298,400.236847L377.795929,400.004242L377.782684,399.978943L377.66571,399.73584L377.654266,399.709961L377.55481,399.45639L377.545654,399.430267L377.463715,399.16626L377.456787,399.140594L377.392212,398.866028L377.386841,398.839386L377.34198,398.560181L377.33844,398.530884L377.315735,398.252899L377.314514,398.22287L377.313904,397.945953L377.315002,397.915558L377.336517,397.639893L377.340149,397.609863L377.38382,397.335266L377.389648,397.305969L377.455444,397.032715L377.463226,397.005005L377.551147,396.732849L377.56073,396.706451L377.670929,396.435638L377.687225,396.400879L377.706909,396.367798L377.729797,396.337036L377.755676,396.308685L377.784363,396.28302L377.815491,396.260529L377.848694,396.241211L377.883728,396.225403L377.920105,396.213104L377.957672,396.204712L377.995728,396.200104L378.034149,396.199249L378.072449,396.202423L378.110291,396.209351L378.147125,396.220154L378.182739,396.23465L378.216675,396.252502L378.248657,396.273926L378.291107,396.310516L380.027222,398.049927L381.295441,397.654724L381.722778,396.312469L379.990631,394.611115L379.9646,394.582764L379.94165,394.552002L379.921814,394.519043L379.905396,394.484406L379.892639,394.448151L379.883606,394.410706L379.878418,394.37265L379.877075,394.33432L379.879608,394.296021L379.886047,394.258087L379.896271,394.221008L379.910156,394.185242L379.927643,394.15094L379.948425,394.118744L379.972412,394.088684L379.999268,394.061218L380.028809,394.036652L380.060669,394.015259L380.094604,393.997131L380.121124,393.985809L380.409058,393.875763L380.433167,393.867371L380.720032,393.779327L380.746033,393.7724L381.031677,393.706482L381.059418,393.701141L381.343842,393.657501L381.372803,393.654205L381.656128,393.63269L381.685669,393.631592L381.967896,393.632202L381.997833,393.633423L382.27887,393.656281L382.308411,393.65979L382.588196,393.704803L382.62323,393.712219L382.905365,393.7854L382.92981,393.792603L383.199158,393.882202L383.224304,393.891571L383.480896,393.99762L383.506195,394.009277L383.749878,394.131622L383.775085,394.145355L384.006104,394.284119L384.030334,394.300049L384.248596,394.454956L384.272064,394.472961L384.477448,394.644287L384.499207,394.663879L384.691956,394.851624L384.700104,394.859894L384.870605,395.036469L384.892242,395.060913L385.049835,395.255005L385.068451,395.279816L385.213257,395.491394L385.228821,395.516327L385.360779,395.7453L385.373657,395.769501L385.492981,396.016113L385.503296,396.039581L385.609711,396.303711L385.617859,396.325836L385.711365,396.607483L385.71756,396.628021L385.798431,396.927032L385.80719,396.968262L385.85022,397.247345L385.854004,397.282867L385.871521,397.579437L385.872009,397.611542L385.863983,397.925659L385.862152,397.954224L385.828491,398.28598L385.825073,398.311249L385.765717,398.6604L385.761353,398.682404L385.676453,399.049042L385.671356,399.068359L385.560822,399.452515L385.555603,399.469543L385.495148,399.647797L387.404938,401.561005L391.712646,397.212463L388.438812,393.898743L388.413147,393.870056L388.390656,393.838928L388.371338,393.805725L388.35553,393.770691L388.343231,393.734344L388.334839,393.696777L388.330231,393.658691L388.329376,393.62027L388.33252,393.58197L388.339478,393.544159L388.350281,393.507294L388.364746,393.47168L388.382629,393.437744L388.404053,393.405762L388.433105,393.371124L389.10376,392.66217L389.13147,392.635651L389.161743,392.612061L389.194336,392.591644L389.22876,392.574615L389.264771,392.561218L389.301941,392.551514L389.339905,392.545532L389.378326,392.543488L389.416626,392.545288zM387.40567,402.099304L385.059601,399.749115C385.457031,398.654999,385.580566,397.746918,385.431641,397.026215C385.233276,396.205292,384.898315,395.571075,384.426758,395.123566C383.92981,394.601227,383.296967,394.253204,382.527527,394.079559C381.782806,393.929932,381.025726,394.01709,380.256287,394.340393L382.154816,396.205292L381.596802,397.958344L379.920654,398.480682L378.022095,396.578705C377.698792,397.299408,377.612335,398.033142,377.761261,398.779236C377.910217,399.52536,378.245178,400.159576,378.766815,400.681915C379.263092,401.178864,379.920654,401.526855,380.740173,401.725891C381.534332,401.875519,382.428009,401.75061,383.421204,401.35318L385.767273,403.702698L378.319977,411.163025L380.814301,413.66214L388.261597,406.201813L394.70401,412.431458C394.728729,412.854279,394.902374,413.239319,395.224976,413.587341C395.597687,413.936005,396.019806,414.122009,396.491364,414.14743C396.962921,414.172119,397.347961,414.035553,397.645874,413.736969C397.943756,413.463104,398.092712,413.078033,398.092712,412.580414C398.067291,412.132874,397.868927,411.710052,397.496918,411.312653C397.148926,410.963959,396.739838,410.764923,396.267609,410.715485L389.862946,404.560669L394.741089,399.712036L397.459167,402.397186L397.682922,402.434937L400.028992,400.047699L399.991241,399.823914L394.815887,394.638977C393.797974,394.439911,392.904297,394.203796,392.134857,393.929932L389.379028,392.923004L388.708435,393.63205L392.246063,397.212921L387.40567,402.099304M395.783691,411.946167C396.056885,411.622894,396.416534,411.660645,396.863373,412.058075C397.236084,412.456177,397.273163,412.804169,396.97525,413.102753C396.652649,413.401306,396.305359,413.363556,395.932648,412.990875C395.535217,412.592773,395.485809,412.244751,395.783691,411.946167zM396.00293,412.274048L395.989563,412.296173L395.980927,412.315155L395.975952,412.330963L395.973511,412.344574L395.972778,412.360016L395.974243,412.377411L395.978851,412.400635L395.98822,412.430054L396.003418,412.464966L396.026276,412.506805L396.057068,412.553986L396.094971,412.60434L396.144714,412.662567L396.201263,412.722046L396.25647,412.774445L396.305969,412.816162L396.353394,412.850952L396.395599,412.877319L396.432922,412.896423L396.463562,412.908813L396.49176,412.91684L396.513794,412.920502L396.532654,412.921356L396.550873,412.920013L396.569489,412.916351L396.591125,412.909302L396.617035,412.897522L396.646118,412.880493L396.679901,412.856171L396.711273,412.829285L396.737061,412.801331L396.758087,412.773712L396.77356,412.748535L396.783508,412.727631L396.789368,412.710236L396.792755,412.693329L396.793945,412.677155L396.792999,412.657471L396.789246,412.634247L396.780823,412.60434L396.7677,412.570892L396.746643,412.528687L396.719788,412.483948L396.684021,412.432983L396.638306,412.37558L396.598206,412.330475L396.541992,412.282684L396.477173,412.233063L396.418945,412.193542L396.365662,412.162292L396.317383,412.13858L396.277893,412.12326L396.244934,412.114136L396.220001,412.110016L396.20163,412.109283L396.18692,412.110504L396.173523,412.113525L396.161621,412.118042L396.145935,412.126312L396.125488,412.140778L396.102051,412.161438L396.062134,412.204376L396.024719,412.245239L396.00293,412.274048z"/>
</svg>
