<?xml version="1.0" encoding="UTF-8"?>
<svg xmlns="http://www.w3.org/2000/svg" xmlns:xlink="http://www.w3.org/1999/xlink" width="23.061mm" height="21.669mm" viewBox="-399.576141 261.759247 23.061066 21.668823">
    <path transform="matrix(-1,0,0,1,0,0)" style="stroke:none;fill:#000000;fill-rule:evenodd" d="M382.490936,261.759491L382.529114,261.763519L382.566833,261.771423L382.603394,261.782959L382.63855,261.798279L382.672119,261.817139L382.703613,261.839142L382.732666,261.864319L382.759064,261.892273L382.78241,261.922699L382.798828,261.9487L387.240417,269.647308L387.257935,269.68161L387.271912,269.717377L387.282104,269.754333L387.288574,269.792267L387.29126,269.830566L387.289917,269.869019L387.28479,269.907074L387.275818,269.944397L387.263031,269.980652L387.246735,270.015411L387.226929,270.04837L387.203918,270.079132L387.164795,270.119873L386.393188,270.809845L386.045898,271.944183L386.032898,271.980286L386.016235,272.014832L385.996033,272.047668L385.972809,272.078186L385.946533,272.106262L385.917603,272.131439L385.88623,272.153564L385.852661,272.172546L385.817505,272.187988L385.780945,272.199677L385.743347,272.207703L385.70517,272.211945L385.683044,272.212555L376.894592,272.212555L376.856201,272.210602L376.818237,272.204773L376.781006,272.19516L376.745026,272.181915L376.71051,272.165009L376.677917,272.144684L376.647522,272.121094L376.619659,272.094727L376.594604,272.065521L376.572723,272.034027L376.554016,272.000488L376.538788,271.96521L376.527222,271.928497L376.51947,271.8909L376.515564,271.852722L376.515076,271.826935L376.520935,271.459717L376.521423,271.447296L376.539154,271.082245L376.539886,271.069977L376.569458,270.707214L376.570648,270.694702L376.612,270.334259L376.613708,270.321869L376.66684,269.963623L376.668793,269.951202L376.733704,269.595154L376.736267,269.582886L376.812988,269.229004L376.815918,269.216614L376.904572,268.865051L376.907745,268.852997L377.008179,268.503632L377.011841,268.491852L377.123962,268.144653L377.12796,268.132874L377.252014,267.787994L377.256378,267.776459L377.392334,267.433777L377.396851,267.422699L377.544434,267.082214L377.549438,267.071259L377.708984,266.733093L377.714111,266.722626L377.885437,266.386505L377.8909,266.376434L378.074036,266.042633L378.082672,266.027557L378.275665,265.710999L378.281738,265.701294L378.48288,265.392761L378.489441,265.383179L378.69873,265.082794L378.705658,265.073059L378.923096,264.780975L378.930237,264.771729L379.155701,264.487671L379.163483,264.47818L379.397217,264.202393L379.405121,264.19339L379.646851,263.925751L379.655151,263.91687L379.905029,263.657349L379.913544,263.648743L380.17157,263.397369L380.180481,263.389099L380.446655,263.145905L380.455627,263.137878L380.72998,262.902802L380.739349,262.895142L381.021729,262.668365L381.030945,262.661072L381.321472,262.442291L381.331177,262.435242L381.629852,262.224762L381.639587,262.218048L381.946411,262.015717L381.955994,262.009644L382.270813,261.81543L382.304504,261.796936L382.339905,261.78186L382.376617,261.770569L382.414307,261.763031L382.452515,261.759247L382.490936,261.759491zM382.470612,262.138C380.769745,263.151794,379.414825,264.514282,378.407227,266.224731C377.398926,267.999054,376.895111,269.868073,376.895111,271.83252L385.683594,271.83252L386.061798,270.597015L386.912231,269.836487L382.470612,262.138z"/>
    <path transform="matrix(-1,0,0,1,0,0)" style="stroke:none;fill:#000000;fill-rule:evenodd" d="M393.642731,261.759491L393.680908,261.763641L393.718506,261.771545L393.755066,261.783325L393.790344,261.798645L393.815399,261.812378L394.141785,262.006958L394.152252,262.013397L394.469757,262.216858L394.480225,262.223785L394.788727,262.436218L394.798828,262.443512L395.098572,262.664703L395.108887,262.672485L395.39978,262.902802L395.409485,262.910828L395.691528,263.149902L395.701111,263.158417L395.974365,263.406372L395.983948,263.415253L396.24823,263.672211L396.257202,263.681305L396.512695,263.947144L396.521698,263.956757L396.768188,264.231567L396.776459,264.24118L397.014191,264.52475L397.022217,264.534607L397.25119,264.827179L397.258972,264.837524L397.478943,265.139099L397.486023,265.1492L397.697235,265.459534L397.704163,265.470001L397.906403,265.789307L397.91272,265.799652L398.106201,266.127869L398.114197,266.14209L398.285919,266.464355L398.291138,266.474792L398.451782,266.799957L398.456909,266.810669L398.606354,267.138763L398.611084,267.149689L398.749603,267.480835L398.754211,267.492126L398.881531,267.826294L398.885681,267.837616L399.001923,268.174713L399.005676,268.186371L399.110901,268.526367L399.114288,268.538055L399.208405,268.881104L399.211456,268.892883L399.294495,269.238861L399.29718,269.250763L399.369171,269.599762L399.37146,269.611938L399.432281,269.963989L399.434113,269.975769L399.483948,270.33075L399.485413,270.342651L399.524231,270.700531L399.52533,270.712463L399.552917,271.073364L399.55365,271.08493L399.570313,271.448761L399.570679,271.460419L399.576141,271.827301L399.574799,271.865753L399.569458,271.903809L399.560455,271.941132L399.547668,271.977356L399.53125,272.012146L399.511444,272.044983L399.488342,272.075745L399.462311,272.104095L399.433624,272.129486L399.402374,272.152008L399.369049,272.171082L399.334045,272.186768L399.297546,272.198944L399.260071,272.207214L399.221924,272.2117L399.196594,272.212555L390.408203,272.212555L390.369751,272.210602L390.331818,272.204773L390.294617,272.19516L390.258606,272.181915L390.22406,272.165009L390.191498,272.144684L390.161072,272.121094L390.13324,272.094727L390.108185,272.065521L390.086304,272.034027L390.067566,272.000488L390.052368,271.96521L390.038269,271.917908L389.781799,270.800018L389.021301,270.119995L388.993958,270.092865L388.969482,270.063324L388.948212,270.031342L388.930237,269.997284L388.915741,269.961792L388.905029,269.924835L388.89801,269.887115L388.894836,269.848816L388.895691,269.810394L388.900299,269.772217L388.908691,269.734741L388.920959,269.698395L388.943726,269.65036L393.290558,261.951752L393.311096,261.919403L393.334839,261.88913L393.361572,261.861511L393.390869,261.8367L393.422485,261.814941L393.456299,261.796448L393.491699,261.781616L393.528412,261.770325L393.566101,261.762909L393.604309,261.759247L393.642731,261.759491zM393.621643,262.138L389.27475,269.836487L390.125183,270.597015L390.408661,271.83252L399.197144,271.83252C399.197144,269.868073,398.724915,268.030609,397.779755,266.32016C396.771454,264.545837,395.385651,263.151794,393.621643,262.138z"/>
    <path transform="matrix(-1,0,0,1,0,0)" style="stroke:none;fill:#000000;fill-rule:evenodd" d="M388.099426,270.031586L388.137115,270.039001L388.173828,270.050079L388.203491,270.062103L389.242615,270.537109L389.276672,270.55484L389.308777,270.575897L389.338562,270.60022L389.365784,270.627197L389.390137,270.656982L389.411407,270.688965L389.42926,270.723022L389.437439,270.742004L389.815613,271.692688L389.828003,271.729065L389.83667,271.76651L389.8414,271.804688L389.842346,271.843109L389.839447,271.881439L389.832642,271.919128L389.819885,271.962158L389.441681,273.007477L389.426849,273.042877L389.408356,273.07666L389.386719,273.108276L389.361908,273.137726L389.339172,273.160095L389.240295,273.249359L389.207336,273.275848L389.099731,273.35321L389.063721,273.376068L388.947113,273.441345L388.910645,273.459351L388.785278,273.512848L388.748169,273.526367L388.6138,273.567841L388.579041,273.576813L388.435913,273.606506L388.402832,273.611847L388.250671,273.629608L388.220642,273.631897L388.059662,273.637878L388.029358,273.637756L387.890503,273.631775L387.856567,273.628876L387.723541,273.611115L387.687439,273.604431L387.560486,273.574768L387.523865,273.564301L387.402771,273.522827L387.365784,273.507996L387.25061,273.454498L387.215851,273.436127L387.106506,273.370819L387.073792,273.348816L386.970459,273.271484L386.941406,273.247406L386.843994,273.158142L386.817108,273.130768L386.79303,273.100861L386.772095,273.068634L386.754608,273.034607L386.28241,271.989288L386.268311,271.953522L386.257996,271.916443L386.251404,271.878632L386.248718,271.840332L386.249939,271.80191L386.255066,271.763824L386.263916,271.726501L386.276581,271.690155L386.288391,271.664246L386.760559,270.713531L386.779297,270.679993L386.801422,270.648621L386.826599,270.619537L386.854553,270.59317L386.885071,270.569794L386.930084,270.543182L387.875305,270.068207L387.910461,270.052734L387.94693,270.040833L387.984497,270.032806L388.022705,270.028534L388.061096,270.028076L388.099426,270.031586zM388.046112,270.406891L387.100983,270.881866L386.628723,271.83252L387.100983,272.877869C387.352875,273.131836,387.667938,273.258148,388.046112,273.258148C388.487457,273.258148,388.833405,273.131836,389.085327,272.877869L389.463501,271.83252L389.085327,270.881866L388.046112,270.406891z"/>
    <path transform="matrix(-1,0,0,1,0,0)" style="stroke:none;fill:#000000;fill-rule:evenodd" d="M389.30304,273.545929L389.341125,273.550812L389.378571,273.559448L389.414917,273.571838L389.449829,273.587891L389.48291,273.607361L389.513916,273.630096L389.54248,273.655853L389.568268,273.684326L389.591003,273.71521L389.60376,273.735992L393.950623,281.339172L393.967896,281.373444L393.98175,281.409332L393.991852,281.446289L393.998169,281.484222L394.00061,281.522522L393.999146,281.560974L393.993774,281.59903L393.98468,281.636353L393.971802,281.672485L393.955383,281.707245L393.935547,281.740082L393.912445,281.770844L393.886292,281.799072L393.857483,281.824493L393.810181,281.856567L393.489868,282.04068L393.479309,282.046539L393.155945,282.218842L393.144897,282.224548L392.818481,282.384949L392.807068,282.390289L392.477905,282.538788L392.466339,282.543762L392.134094,282.68045L392.12207,282.685181L391.786804,282.809967L391.774536,282.814331L391.436462,282.927185L391.424194,282.931061L391.083069,283.032135L391.070435,283.035522L390.72644,283.124664L390.713654,283.127838L390.366577,283.205048L390.353943,283.207611L390.004089,283.27301L389.991211,283.275208L389.638306,283.328705L389.625427,283.330414L389.269592,283.372009L389.256836,283.373352L388.89801,283.403015L388.885468,283.403748L388.523682,283.421631L388.511169,283.422119L388.146606,283.42807L388.13446,283.42807L387.757813,283.422119L387.745667,283.421753L387.372101,283.40387L387.359924,283.403015L386.989319,283.373352L386.976898,283.372131L386.609283,283.330536L386.596863,283.328949L386.232178,283.275452L386.219788,283.273376L385.858032,283.207977L385.845612,283.205536L385.486755,283.128326L385.474487,283.125519L385.11853,283.036377L385.106262,283.033112L384.753357,282.932037L384.741333,282.928406L384.391357,282.815552L384.379456,282.811401L384.032501,282.686646L384.020813,282.682281L383.676697,282.545593L383.665253,282.540833L383.324158,282.392365L383.312988,282.387268L382.974792,282.226868L382.963989,282.221527L382.628845,282.049194L382.618378,282.04361L382.286133,281.859497L382.25354,281.839203L382.223145,281.815735L382.195313,281.789215L382.170258,281.760162L382.148254,281.728668L382.129517,281.695099L382.114319,281.659698L382.102783,281.623108L382.094971,281.585541L382.091095,281.547333L382.091095,281.508911L382.094849,281.470612L382.102539,281.433044L382.113953,281.396301L382.129028,281.361053L382.142395,281.336121L386.583984,273.732971L386.605042,273.700745L386.629211,273.670959L386.656219,273.643707L386.686035,273.619263L386.718018,273.597992L386.751923,273.580109L386.787537,273.565765L386.824402,273.554932L386.862244,273.548004L386.900513,273.544952L386.938965,273.545807L386.977142,273.550446L387.004272,273.556274L388.049316,273.818817L389.188507,273.554688L389.226318,273.547882L389.264648,273.544952L389.30304,273.545929zM388.140839,283.048065C390.093628,283.048065,391.920776,282.540802,393.621643,281.527008L389.27475,273.92392L388.046112,274.208771L386.912231,273.92392L382.470612,281.527008C384.234619,282.540802,386.124939,283.048065,388.140839,283.048065z"/>
</svg>
