<?xml version="1.0" encoding="UTF-8"?>
<svg xmlns="http://www.w3.org/2000/svg" xmlns:xlink="http://www.w3.org/1999/xlink" width="20.474mm" height="22.776mm" viewBox="-368.373352 392.147888 20.474060 22.776154">
    <path transform="matrix(-1,0,0,1,0,0)" style="stroke:none;fill:#000000;fill-rule:evenodd" d="M358.551025,392.153992L358.562469,392.154327L358.963165,392.172333L358.97522,392.173065L359.367737,392.203217L359.380005,392.204315L359.76416,392.246399L359.777039,392.248108L360.152802,392.302338L360.165833,392.304413L360.533325,392.370544L360.546936,392.37323L360.906128,392.451538L360.919769,392.454834L361.270569,392.545044L361.284821,392.549072L361.62738,392.651459L361.641602,392.655945L361.975891,392.770386L361.990234,392.775604L362.316162,392.902069L362.330505,392.908051L362.64801,393.046417L362.662476,393.053131L362.971832,393.203674L362.986053,393.210968L363.287018,393.373535L363.30127,393.381561L363.593811,393.556183L363.607697,393.564819L363.891998,393.751617L363.898804,393.756226L364.104065,393.897522L364.111267,393.902649L364.304382,394.042236L364.31189,394.047821L364.492981,394.18573L364.500977,394.192047L364.670044,394.328125L364.679016,394.335541L364.835999,394.470032L364.845276,394.478302L364.990204,394.610992L365.000427,394.620575L365.133331,394.751556L365.144287,394.762756L365.265137,394.89212L365.276581,394.904907L365.385315,395.032349L365.397339,395.047302L365.494141,395.173157L365.506897,395.190796L365.591553,395.314941L365.604309,395.335022L365.67688,395.457336L365.689545,395.480438L365.750244,395.601074L365.762634,395.628326L365.811157,395.747253L365.822083,395.777893L365.858582,395.895111L365.867584,395.929535L365.891907,396.044922L365.894592,396.058563L368.356079,410.296539L368.359985,410.325958L368.371765,410.452179L368.373352,410.48938L368.372742,410.610992L368.3703,410.651855L368.357056,410.768707L368.349731,410.811157L368.323853,410.923523L368.311584,410.965729L368.273132,411.073456L368.255737,411.114441L368.204681,411.21756L368.183533,411.254883L368.119934,411.353516L368.095459,411.387085L368.019104,411.481079L367.992981,411.510132L367.90686,411.596222L367.875854,411.624084L367.782837,411.698608L367.748291,411.723175L367.648468,411.786285L367.610657,411.807343L367.503876,411.858887L367.46521,411.874939L367.351501,411.91507L367.31308,411.926392L367.192566,411.955078L367.155243,411.962006L367.027679,411.979156L366.9935,411.982208L366.859131,411.988037L366.842712,411.988403L363.500061,411.988403L363.461639,411.98645L363.423706,411.980621L363.386475,411.971008L363.350494,411.957764L363.315979,411.940857L363.283386,411.920532L363.252991,411.896942L363.225128,411.870575L363.200928,411.842346L363.504333,413.331268L363.50592,413.339417L363.527069,413.45639L363.532043,413.4953L363.540588,413.607666L363.541412,413.650482L363.537415,413.758209L363.532776,413.804688L363.516113,413.907806L363.505432,413.954987L363.476257,414.053589L363.459106,414.100037L363.417267,414.194183L363.394653,414.237335L363.340149,414.326843L363.313904,414.364655L363.246887,414.449554L363.221619,414.478485L363.203369,414.496002L363.117737,414.573334L363.08783,414.597656L362.996521,414.664642L362.963928,414.686188L362.867004,414.742981L362.831482,414.761322L362.72876,414.80777L362.692261,414.822021L362.583801,414.858124L362.547424,414.868347L362.433105,414.894135L362.398102,414.90033L362.278198,414.915771L362.245483,414.918457L362.119873,414.923676L362.104065,414.924042L354.168579,414.924042L354.152771,414.923676L354.027771,414.918457L353.994446,414.915649L353.876099,414.900208L353.83963,414.893646L353.728363,414.867859L353.689941,414.856781L353.58548,414.820679L353.546448,414.804626L353.448792,414.758179L353.410248,414.737122L353.319641,414.680359L353.284271,414.655182L353.2005,414.588165L353.168274,414.559235L353.0914,414.481873L353.064148,414.451355L352.996307,414.366486L352.971497,414.331573L352.915192,414.242096L352.893677,414.202942L352.848938,414.108795L352.832153,414.067352L352.798828,413.968719L352.787048,413.925659L352.765259,413.82254L352.75882,413.779999L352.748596,413.672241L352.746887,413.632721L352.747986,413.520355L352.750183,413.483276L352.762817,413.366302L352.767822,413.333344L353.060028,411.856354L353.036316,411.881744L353.007385,411.907043L352.976135,411.929169L352.942688,411.948151L352.90741,411.963593L352.870911,411.975525L352.833374,411.983551L352.795166,411.987793L352.772552,411.988403L349.466278,411.988403L349.450806,411.988159L349.307922,411.98233L349.275452,411.979523L349.140625,411.962372L349.104736,411.956055L348.977905,411.927368L348.940216,411.916779L348.821411,411.876648L348.782715,411.861206L348.671936,411.809631L348.633301,411.788849L348.53064,411.725739L348.494781,411.700684L348.400055,411.626129L348.36734,411.597198L348.28064,411.511108L348.253296,411.480835L348.177032,411.386841L348.152954,411.35376L348.089233,411.255127L348.067932,411.21756L348.016876,411.114441L347.999481,411.073456L347.96106,410.965729L347.948792,410.923523L347.922882,410.811157L347.915588,410.768707L347.902344,410.651855L347.899902,410.610992L347.899292,410.48938L347.900879,410.452179L347.912659,410.325958L347.916199,410.299316L350.267395,396.06134L350.270569,396.044189L350.295105,395.928802L350.304382,395.893646L350.341309,395.776428L350.352661,395.745422L350.401886,395.626495L350.414551,395.599243L350.476074,395.478638L350.489319,395.454803L350.563263,395.332458L350.576263,395.312256L350.662476,395.18811L350.675476,395.170471L350.774109,395.044617L350.786652,395.029541L350.897552,394.9021L350.909119,394.889465L351.03241,394.760071L351.043579,394.748749L351.179321,394.617798L351.189392,394.608429L351.33728,394.475769L351.346863,394.467377L351.507263,394.332886L351.516144,394.325714L351.688843,394.189636L351.696838,394.183411L351.881805,394.045532L351.889587,394.039917L352.086975,393.90033L352.093994,393.895477L352.30365,393.75415L352.313965,393.747345L352.611572,393.560577L352.624573,393.552795L352.929199,393.378174L352.942444,393.371002L353.254211,393.208405L353.267731,393.201599L353.58667,393.051056L353.600433,393.044983L353.926575,392.906586L353.940186,392.901123L354.273621,392.774658L354.287354,392.769653L354.627869,392.655243L354.641479,392.65097L354.989136,392.548584L355.002869,392.5448L355.357727,392.45459L355.370972,392.451416L355.733124,392.373108L355.74649,392.370544L356.115692,392.304413L356.128448,392.302338L356.504822,392.248108L356.517578,392.246399L356.901123,392.204315L356.913269,392.203217L357.304138,392.173065L357.316162,392.172333L357.71405,392.154327L357.725464,392.153992L358.130676,392.147888L358.141968,392.147888L358.551025,392.153992zM361.893188,406.30246L361.887848,406.295044L361.821716,406.220001L361.893188,406.30246zM354.348663,406.2948L354.346466,406.297699L354.37677,406.262939L354.348663,406.2948zM361.792999,406.18924L361.813904,406.211243L361.800293,406.195801L361.757263,406.154816L361.792999,406.18924zM354.435974,406.195801L354.430725,406.201752L354.440857,406.191071L354.435974,406.195801zM355.858948,405.95755C355.516144,405.95755,355.198181,406.067169,354.903809,406.287628C354.610077,406.508087,354.43866,406.777008,354.389618,407.094971L353.140747,413.406586C353.091675,413.724548,353.164978,413.993469,353.361206,414.213928C353.556824,414.433777,353.826355,414.544006,354.169159,414.544006L362.104523,414.544006C362.447327,414.544006,362.728973,414.433777,362.949432,414.213928C363.14505,413.993469,363.206238,413.724548,363.132935,413.406586L361.847107,407.094971C361.798065,406.777008,361.626648,406.508087,361.332916,406.287628C361.039154,406.067169,360.720581,405.95755,360.377777,405.95755L355.858948,405.95755zM356.483978,408.782959C356.949127,408.366882,357.500275,408.159119,358.136841,408.159119C358.773376,408.159119,359.336639,408.366882,359.82663,408.782959L356.483978,408.782959zM358.136841,412.452667C357.426392,412.452667,356.838898,412.195251,356.373749,411.681671L359.936859,411.681671C359.47171,412.195251,358.871521,412.452667,358.136841,412.452667zM357.903503,412.061615L357.912018,412.062836L358.136963,412.073273L358.370972,412.062714L358.379089,412.061615L357.903503,412.061615zM356.006134,411.131104L355.822601,410.54422L360.488007,410.54422L360.304504,411.131104L356.006134,411.131104zM355.822601,409.993683L356.04306,409.369843L360.267548,409.369843L360.45108,409.993683L355.822601,409.993683zM352.516296,394.06842C351.364929,394.826691,350.740509,395.511719,350.642395,396.122833L348.291199,410.360718C348.242737,410.703522,348.328156,410.996643,348.548615,411.241333C348.769073,411.486023,349.074921,411.608368,349.466797,411.608368L352.773102,411.608368L353.728241,406.764893C353.802124,406.348816,354.034698,405.993896,354.426544,405.700745C354.793579,405.407013,355.210297,405.260437,355.675415,405.260437L360.56131,405.260437C361.027069,405.260437,361.443146,405.407013,361.810791,405.700745C362.202637,405.993896,362.435211,406.348816,362.508514,406.764893L363.50058,411.608368L366.843231,411.608368C367.210846,411.608368,367.504608,411.486023,367.725067,411.241333C367.945526,410.996643,368.030914,410.703522,367.982483,410.360718L365.521057,396.122833C365.422943,395.511719,364.810608,394.826691,363.684082,394.06842C362.189911,393.040619,360.340851,392.527008,358.136841,392.527008C355.957062,392.527008,354.08374,393.040619,352.516296,394.06842zM351.597504,401.590729C351.646576,401.247925,351.830688,400.954773,352.148651,400.710114C352.442413,400.465424,352.785828,400.343079,353.177673,400.343079L363.059662,400.343079C363.451508,400.343079,363.794312,400.465424,364.088074,400.710114C364.406647,400.954773,364.590149,401.247925,364.639221,401.590729L365.153442,403.865601C365.202484,404.208405,365.116486,404.489441,364.896637,404.7099C364.676178,404.95459,364.36969,405.076935,363.977844,405.076935L362.876129,405.076935C362.728973,405.076935,362.092407,404.734131,360.965271,404.049103C359.838745,403.364105,358.908447,403.021912,358.173798,403.021912C357.463348,403.021912,356.410095,403.35199,355.014038,404.012787L352.736755,404.966675L352.332184,404.966675C351.940308,404.966675,351.63446,404.84436,351.414001,404.59967C351.193542,404.35498,351.108124,404.061218,351.157196,403.719025L351.597504,401.590729zM353.185883,400.723022L353.063171,400.727905L352.954102,400.741272L352.851959,400.762909L352.753479,400.793182L352.659485,400.831512L352.567047,400.879425L352.478149,400.935944L352.385986,401.006378L352.290161,401.086273L352.212708,401.162384L352.14801,401.238251L352.094116,401.315491L352.049988,401.394531L352.016174,401.47345L351.990295,401.557709L351.969482,401.664001L351.968628,401.667999L351.532684,403.775299L351.52417,403.863312L351.524536,403.944427L351.533173,404.020691L351.548981,404.08963L351.572449,404.155792L351.604065,404.219635L351.644806,404.282745L351.69574,404.345612L351.751953,404.401306L351.811768,404.448364L351.878296,404.489227L351.949768,404.522675L352.029663,404.549652L352.119904,404.569977L352.220093,404.582733L352.340759,404.587585L352.659851,404.587585L354.860352,403.665833L355.111115,403.549103L355.115601,403.54715L355.365387,403.434784L355.370361,403.432495L355.612,403.328033L355.617371,403.325836L355.850952,403.229034L355.856934,403.226593L356.082489,403.137604L356.089172,403.13504L356.306854,403.053802L356.313782,403.05127L356.523315,402.977692L356.531189,402.975006L356.732697,402.90921L356.741577,402.906433L356.935059,402.848419L356.944519,402.845734L357.130005,402.79541L357.140808,402.792603L357.318115,402.750031L357.330383,402.747375L357.499786,402.712585L357.513275,402.710022L357.674652,402.682922L357.689972,402.680603L357.843201,402.661285L357.860352,402.659576L358.005646,402.647888L358.025208,402.64679L358.162415,402.642914L358.184052,402.642914L358.324127,402.646912L358.344788,402.648132L358.48938,402.660187L358.508484,402.662231L358.657684,402.682312L358.675323,402.68512L358.829163,402.713196L358.845337,402.716492L359.003784,402.752594L359.018616,402.756256L359.18158,402.800385L359.19519,402.804413L359.362732,402.856567L359.375153,402.860687L359.547363,402.920898L359.558777,402.925018L359.735474,402.993256L359.745667,402.997375L359.927124,403.073517L359.936829,403.077759L360.122772,403.162048L360.131653,403.166168L360.322205,403.258453L360.330353,403.262482L360.525391,403.362793L360.532715,403.366699L360.732483,403.475037L360.739563,403.479065L360.943848,403.595551L360.950043,403.599091L361.158936,403.72348L361.160522,403.724457L361.560242,403.96524L361.739258,404.071503L361.739258,404.071381L361.908264,404.170624L362.06781,404.262909L362.210938,404.344391L362.347656,404.420746L362.465576,404.485077L362.574066,404.542603L362.672546,404.592957L362.759521,404.635254L362.823853,404.664581L362.879395,404.687561L362.908112,404.697906L363.967896,404.697906L364.0896,404.692902L364.189087,404.680267L364.279419,404.659821L364.359802,404.632721L364.431213,404.599518L364.497711,404.558655L364.557556,404.511597L364.621399,404.448242L364.673798,404.389374L364.710999,404.335999L364.739929,404.281036L364.761475,404.223511L364.776917,404.158691L364.785065,404.089142L364.785309,404.009125L364.777405,403.925842L364.268494,401.674835L364.266174,401.664001L364.245361,401.557709L364.219482,401.473083L364.185791,401.394409L364.142151,401.315979L364.08728,401.237427L364.023926,401.162872L363.945618,401.086029L363.852356,401.008423L363.757141,400.935608L363.668274,400.879059L363.577271,400.831879L363.482422,400.79306L363.383698,400.762909L363.282043,400.741272L363.172974,400.727905L363.050385,400.723022L353.185883,400.723022z"/>
</svg>
