<?xml version="1.0" encoding="UTF-8"?>
<svg xmlns="http://www.w3.org/2000/svg" xmlns:xlink="http://www.w3.org/1999/xlink" width="20.621mm" height="24.968mm" viewBox="-337.721558 391.051636 20.621338 24.967926">
    <path transform="matrix(-1,0,0,1,0,0)" style="stroke:none;fill:#000000;fill-rule:evenodd" d="M334.603882,411.306091L334.415253,411.382324L334.23819,411.455902L334.073669,411.526306L333.909607,411.598785L333.763092,411.665802L333.615601,411.735718L333.487305,411.79895L333.487305,411.799072L333.358398,411.865326L333.242859,411.92749L333.135254,411.988403L333.037109,412.047028L332.94751,412.10379L332.867737,412.157806L332.806427,412.200836L332.750732,412.246094L332.688599,412.302979L332.62085,412.371582L332.546814,412.453186L332.46814,412.54657L332.386658,412.649689L332.299591,412.766174L332.206909,412.89679L332.117554,413.028595L332.016846,413.183167L331.920044,413.337585L331.813782,413.513062L331.709564,413.690369L331.597565,413.886627L331.484741,414.0896L331.464294,414.122192L331.45166,414.139343L331.301697,414.330475L331.289551,414.345215L331.133057,414.525299L331.119568,414.540009L330.956238,414.709167L330.941772,414.723389L330.771881,414.88147L330.756195,414.895325L330.57962,415.042358L330.56311,415.055237L330.379944,415.191315L330.362427,415.203735L330.172607,415.328735L330.154236,415.340057L329.957886,415.453979L329.939148,415.464203L329.736084,415.5672L329.716492,415.576324L329.506714,415.668121L329.48761,415.675903L329.271301,415.756897L329.251709,415.763702L329.028809,415.833527L329.00946,415.838989L328.779907,415.897705L328.761047,415.901978L328.52478,415.949768L328.506287,415.953064L328.263428,415.989777L328.2453,415.992096L327.995911,416.017609L327.957245,416.019562L326.864868,416.019562L326.826202,416.017609L326.57666,415.992096L326.558533,415.989777L326.315735,415.953064L326.297241,415.949768L326.061096,415.901978L326.042358,415.897705L325.812622,415.838989L325.793182,415.833527L325.570282,415.763702L325.55072,415.756897L325.334351,415.675903L325.315277,415.668121L325.10553,415.576324L325.085938,415.5672L324.882874,415.464203L324.864136,415.453979L324.667725,415.340057L324.649384,415.328735L324.459534,415.203735L324.442047,415.191315L324.258911,415.055237L324.242371,415.042358L324.065796,414.895325L324.05011,414.88147L323.880249,414.723389L323.865662,414.709045L323.702454,414.539886L323.689209,414.525421L323.532562,414.345337L323.520264,414.330475L323.370361,414.139343L323.362061,414.128387L321.90686,412.127258L321.823547,412.073273L321.670105,411.981598L321.505188,411.889771L321.325562,411.796265L321.124573,411.697754L320.917725,411.601837L320.687775,411.500885L320.451965,411.402283L320.199036,411.301086L319.925293,411.196289L319.643311,411.09256L319.349274,410.988464L319.033813,410.880829L318.711609,410.774567L318.371582,410.665955L318.014313,410.55542L317.978333,410.542175L317.943787,410.525391L317.911072,410.505188L317.880554,410.481842L317.8526,410.455475L317.827393,410.426392L317.805389,410.39502L317.78656,410.36145L317.77124,410.326324L317.759552,410.289734L317.751648,410.252014L317.74884,410.229889L317.102051,403.65332L317.10022,403.615021L317.102295,403.576569L317.108246,403.538635L317.117981,403.501556L317.131348,403.465546L317.148376,403.431152L317.168793,403.39856L317.192383,403.368286L317.219025,403.340424L317.248199,403.315491L317.279846,403.29361L317.313385,403.275116L317.348755,403.26004L317.385376,403.248627L317.423065,403.240967L317.461243,403.237183L317.499695,403.237183L317.526672,403.239624L318.116089,403.31308L318.15271,403.306488L318.233826,403.286072L318.314789,403.25943L318.398071,403.225891L318.485901,403.184052L318.570526,403.137604L318.661255,403.080811L318.751709,403.017578L318.84375,402.946442L318.936188,402.868134L319.033234,402.778625L319.129395,402.682922L319.22522,402.580292L319.322876,402.468536L319.42395,402.345459L319.519409,402.221924L319.625793,402.070038L319.721497,401.912079L319.813293,401.737091L319.897949,401.550293L319.977478,401.346863L320.049225,401.133087L320.114288,400.904938L320.173279,400.65979L320.224823,400.40213L320.269226,400.12851L320.305695,399.847229L320.334991,399.549316L320.357117,399.231934L320.371094,398.911011L320.37793,398.563843L320.376709,398.217255L320.370026,397.884308L320.370117,397.884308L320.360046,397.581268L320.346313,397.287964L320.330017,397.027618L320.330017,397.02713L320.329529,397.021179L320.309692,396.779297L320.285889,396.548492L320.260071,396.350159L320.230652,396.166901L320.198914,396.007721L320.166443,395.876282L320.131653,395.76355L320.098724,395.679749L320.070251,395.624176L320.053955,395.600708L320.041809,395.593414L319.741699,395.428406L319.723083,395.41745L319.43219,395.235291L319.413727,395.223022L319.138062,395.026978L319.11969,395.013L318.859314,394.803009L318.841949,394.788025L318.59668,394.564301L318.579651,394.547882L318.349579,394.31012L318.333771,394.292755L318.118896,394.04126L318.104187,394.022797L317.90448,393.757324L317.882996,393.725464L317.871307,393.704803L317.345123,392.696075L317.329071,392.661072L317.31665,392.624695L317.308044,392.587372L317.303162,392.549194L317.302185,392.510773L317.305115,392.472473L317.31192,392.434631L317.32251,392.397797L317.336731,392.36203L317.354492,392.328003L317.375641,392.295898L317.399841,392.266083L317.427063,392.238983L317.456757,392.214661L317.488861,392.193512L317.522888,392.175751L317.558533,392.161407L317.59552,392.150818L317.617035,392.146423L323.928162,391.057098L323.966309,391.05249L324.004761,391.051758L324.04306,391.054932L324.08075,391.061981L324.117615,391.072784L324.153229,391.08728L324.187164,391.105255L324.219147,391.126556L324.256226,391.158051L324.391449,391.288513L324.421265,391.32074L324.543945,391.470093L324.568512,391.50351L324.678436,391.671936L324.697388,391.704407L324.794678,391.891693L324.808899,391.922333L324.893677,392.128448L324.904114,392.157257L324.976135,392.382477L324.983429,392.408264L325.042786,392.652191L325.047607,392.675415L325.094452,392.938324L325.099182,392.976379L325.100281,393.004852L325.100281,393.875275L325.480408,394.564514L325.613464,394.723694L325.769104,394.87851L325.933533,395.013L326.108032,395.128906L326.293335,395.226654L326.489746,395.306427L326.699982,395.368805L326.9021,395.408936L327.107361,395.408936L327.145782,395.410889L327.183716,395.416718L327.227356,395.428406L327.290833,395.449554L327.53125,395.449554L327.594727,395.428406L327.631714,395.41806L327.669647,395.411621L327.714783,395.408936L327.920044,395.408936L328.122009,395.368805L328.332275,395.306427L328.528656,395.226654L328.713989,395.128906L328.888489,395.013L329.052887,394.87851L329.208557,394.723816L329.341583,394.564514L329.712219,393.892303L329.702637,393.791016L329.701538,393.776917L329.689362,393.566772L329.688751,393.550842L329.685608,393.348724L329.68573,393.331573L329.691437,393.137268L329.692383,393.119019L329.706879,392.932617L329.708923,392.912537L329.732422,392.733917L329.73584,392.712982L329.768036,392.542389L329.77301,392.519897L329.814148,392.357056L329.820801,392.33371L329.870667,392.178772L329.879547,392.153992L329.938416,392.006958L329.949341,391.982269L330.016968,391.843048L330.030579,391.817627L330.107056,391.686401L330.122742,391.661713L330.20813,391.5383L330.226013,391.514465L330.320129,391.398926L330.340088,391.376312L330.443054,391.268585L330.464844,391.247559L330.576721,391.147827L330.606628,391.123749L330.638855,391.102844L330.673035,391.085205L330.708893,391.071228L330.74585,391.060883L330.783691,391.054321L330.82196,391.051636L330.860413,391.052856L330.89386,391.057098L337.204956,392.146423L337.242432,392.154938L337.2789,392.167114L337.313904,392.182922L337.347107,392.202118L337.378235,392.224762L337.406952,392.250275L337.432861,392.278625L337.455811,392.309387L337.475525,392.342346L337.491821,392.377106L337.504456,392.413483L337.513489,392.450806L337.518585,392.488861L337.519897,392.527313L337.517242,392.565613L337.510803,392.603424L337.500458,392.640503L337.486481,392.67627L337.476868,392.696075L336.950684,393.704803L336.931213,393.737854L336.91748,393.757324L336.717834,394.022797L336.703125,394.04126L336.48822,394.292755L336.472412,394.31012L336.242371,394.547882L336.225464,394.564178L335.980286,394.787903L335.962646,394.803101L335.702179,395.013123L335.68396,395.026978L335.408264,395.223022L335.389771,395.235291L335.098907,395.41745L335.080322,395.428406L334.780182,395.593414L334.76825,395.600586L334.751221,395.624908L334.723267,395.679749L334.690552,395.762939L334.65567,395.875793L334.623077,396.007721L334.591339,396.166901L334.56189,396.350159L334.536133,396.54837L334.512421,396.778198L334.492493,397.021179L334.492126,397.02713L334.492004,397.02774L334.475708,397.287964L334.461945,397.581268L334.451843,397.889069L334.445282,398.210693L334.444214,398.563965L334.450867,398.911011L334.464844,399.231567L334.487244,399.550049L334.516296,399.846863L334.552795,400.12912L334.596802,400.399323L334.648865,400.659912L334.707214,400.903259L334.772766,401.133087L334.844513,401.346863L334.924408,401.55127L335.008667,401.737091L335.100006,401.911346L335.196198,402.070038L335.297729,402.215118L335.415436,402.355682L335.537048,402.492981L335.658508,402.621979L335.77356,402.736053L335.890076,402.843567L336.00061,402.937683L336.112122,403.024384L336.216919,403.098083L336.320557,403.162872L336.419037,403.21701L336.515717,403.26236L336.608398,403.298462L336.694092,403.324615L336.779358,403.343353L336.859253,403.354034L336.890503,403.355377L337.233276,403.252625L337.270508,403.2435L337.308563,403.238159L337.346985,403.236694L337.385315,403.239136L337.423248,403.245453L337.460327,403.255554L337.496216,403.269287L337.530518,403.286682L337.562866,403.307343L337.592896,403.331177L337.620483,403.358063L337.64505,403.387482L337.666687,403.41922L337.684937,403.453033L337.699646,403.488556L337.710693,403.525269L337.718018,403.56308L337.721558,403.601257L337.719971,403.65332L337.073151,410.229889L337.067444,410.267944L337.057922,410.305176L337.0448,410.341278L337.027893,410.375824L337.007721,410.408539L336.984375,410.438934L336.958008,410.466888L336.928925,410.492065L336.897552,410.514069L336.863983,410.532928L336.812561,410.553833L335.202759,411.076019L334.997131,411.153229L334.794556,411.231049L334.603882,411.305969L334.603882,411.306091zM317.681793,392.520325L318.207977,393.529022C318.720215,394.255249,319.394287,394.833557,320.230835,395.263947C320.553925,395.398529,320.729736,396.380554,320.756409,398.209412C320.783661,400.172882,320.473297,401.585297,319.825897,402.446106C319.259705,403.198975,318.693542,403.616028,318.12674,403.696655L317.479919,403.616028L318.12674,410.192596C320.06897,410.784851,321.417145,411.335876,322.172455,411.846893L323.669128,413.904907C324.451141,414.953613,325.516815,415.532532,326.86499,415.639832L327.957336,415.639832C329.305511,415.532532,330.371185,414.953613,331.153168,413.904907C331.773315,412.774963,332.272217,412.089386,332.649872,411.846893C333.108734,411.524414,333.917389,411.147949,335.077057,410.71756L336.695587,410.192596L337.342377,403.616028L336.938049,403.737274C336.344604,403.737274,335.697784,403.306885,334.996429,402.446106C334.348999,401.585297,334.038635,400.172882,334.065918,398.209412C334.09259,396.380554,334.268402,395.398529,334.591492,395.263947C335.42804,394.833557,336.102112,394.255249,336.614349,393.529022L337.140533,392.520325L330.829468,391.431C330.20932,391.942017,329.966248,392.789459,330.10144,393.972748L329.656494,394.779602C329.224884,395.344574,328.658691,395.681,327.957336,395.7883L327.714874,395.7883L327.593018,395.828918L327.229309,395.828918L327.107452,395.7883L326.86499,395.7883C326.163605,395.681,325.597443,395.344574,325.165833,394.779602L324.720886,393.972748L324.720886,393.004669C324.612976,392.278442,324.370514,391.753479,323.992859,391.431L317.681793,392.520325M328.078583,397.64444L328.281036,397.604431C329.251556,397.442596,330.088104,397.012207,330.788849,396.313263C331.301697,395.774963,331.665405,395.183319,331.881195,394.53772C331.93515,394.403168,332.056396,394.483765,332.245544,394.779602L332.488007,395.46582C332.218262,396.595734,332.124298,397.886932,332.204926,399.339355C332.340088,401.168243,332.771088,402.580658,333.499725,403.576019L334.470245,404.584717C334.578156,404.692017,334.699402,405.43158,334.834564,406.803406L334.955811,408.820801C333.310608,409.385773,332.191589,409.883453,331.598114,410.313843C331.139832,410.60965,330.654266,411.187958,330.142059,412.048767L329.211548,413.259308C328.860565,413.555145,328.402283,413.729736,327.83609,413.783691L327.471771,413.783691L327.471771,397.685059L327.674255,397.685059L327.83609,397.64444L328.078583,397.64444zM331.914734,395.412354L331.90448,395.431213L331.774994,395.655548L331.763916,395.673553L331.620422,395.893036L331.608765,395.909943L331.451416,396.124329L331.438995,396.140259L331.267517,396.349548L331.255127,396.363892L331.069824,396.568329L331.046692,396.591797L330.777588,396.841309L330.755951,396.859924L330.47406,397.08429L330.450378,397.101685L330.155823,397.300842L330.130188,397.316772L329.822998,397.490814L329.796021,397.504669L329.476196,397.653381L329.448486,397.664948L329.115997,397.788605L329.087891,397.797852L328.742798,397.896362L328.714722,397.90329L328.357056,397.976501L328.354523,397.976959L328.152039,398.016968L328.113983,398.022461L328.078491,398.02417L327.882813,398.02417L327.851196,398.032074L327.851196,413.399506L327.984253,413.382843L328.157532,413.350128L328.318665,413.308411L328.469299,413.257446L328.608307,413.198242L328.736847,413.130493L328.855652,413.054504L328.940552,412.989075L329.829102,411.832977L330.009674,411.540161L330.016724,411.529114L330.204956,411.246124L330.213593,411.233734L330.399414,410.977142L330.409973,410.963287L330.593384,410.733093L330.606384,410.717651L330.787079,410.514069L330.803375,410.496796L330.981628,410.319641L331.002075,410.300781L331.177795,410.150116L331.203583,410.129822L331.376617,410.005646L331.381592,410.002136L331.499084,409.920654L331.510742,409.912872L331.640503,409.829803L331.650818,409.823486L331.792847,409.738861L331.802246,409.73349L331.956665,409.647278L331.964813,409.642792L332.131531,409.554993L332.138824,409.551331L332.31781,409.461975L332.324402,409.458679L332.515808,409.367706L332.521759,409.364929L332.725464,409.272369L332.730896,409.269958L332.946899,409.175964L332.951752,409.173889L333.180115,409.078186L333.184509,409.076355L333.425171,408.979065L333.429291,408.977478L333.68222,408.878632L333.686096,408.877167L333.951477,408.776855L333.954742,408.775513L334.232361,408.673492L334.235657,408.672394L334.525665,408.568787L334.528564,408.567688L334.559479,408.556976L334.45575,406.830444L334.431915,406.593689L334.431793,406.593689L334.406982,406.358643L334.38266,406.140717L334.358704,405.937653L334.335114,405.75L334.312012,405.577209L334.289398,405.420349L334.268005,405.284515L334.246582,405.160095L334.224335,405.04361L334.205872,404.95813L334.187378,404.884186L334.171814,404.831421L334.166321,404.816589L333.226074,403.839355L333.200928,403.810425L333.187927,403.792908L333.054749,403.601379L333.0448,403.586182L332.918671,403.384949L332.90979,403.369965L332.790619,403.158875L332.782837,403.144287L332.670593,402.923462L332.663666,402.90921L332.55835,402.67865L332.552277,402.664551L332.454041,402.424133L332.448792,402.410645L332.357483,402.160522L332.352966,402.147614L332.268585,401.887756L332.264832,401.875336L332.187347,401.605621L332.184082,401.593597L332.113647,401.314148L332.110962,401.302704L332.047485,401.013428L332.045319,401.002716L331.988647,400.703827L331.986816,400.693359L331.937195,400.384613L331.935852,400.374878L331.893188,400.056396L331.891968,400.047028L331.856201,399.718719L331.855377,399.709839L331.826538,399.371765L331.825439,399.355103L331.803467,398.817993L331.803223,398.806549L331.797485,398.284637L331.797607,398.272339L331.808411,397.765503L331.808899,397.752747L331.836029,397.260956L331.837006,397.247345L331.880554,396.77066L331.882141,396.756317L331.942078,396.29483L331.944397,396.279633L332.020874,395.833221L332.023926,395.817413L332.094208,395.49115L332.003845,395.235413L331.914734,395.412354z"/>
</svg>
