<?xml version="1.0" encoding="UTF-8"?>
<svg xmlns="http://www.w3.org/2000/svg" xmlns:xlink="http://www.w3.org/1999/xlink" width="23.251mm" height="18.502mm" viewBox="-308.311188 394.284851 23.250519 18.502014">
    <path transform="matrix(-1,0,0,1,0,0)" style="stroke:none;fill:#000000;fill-rule:evenodd" d="M300.485962,394.285095L300.835724,394.297974L300.862946,394.299927L301.218384,394.338715L301.244049,394.342468L301.605469,394.407166L301.629547,394.412292L301.996674,394.502869L302.018799,394.509064L302.391876,394.62558L302.412292,394.632507L302.791229,394.774902L302.809814,394.78244L303.19458,394.950745L303.211365,394.958649L303.602081,395.152863L303.609985,395.15686L303.804077,395.259003L303.977722,395.341949L304.13678,395.40918L304.28064,395.460876L304.408081,395.497589L304.517883,395.519836L304.606384,395.529205L304.702576,395.527863L304.756592,395.527863L307.16687,395.192383L307.205078,395.188965L307.2435,395.189453L307.277313,395.193207L307.764709,395.268738L307.802277,395.27652L307.838989,395.288086L307.874268,395.303284L307.907837,395.321991L307.939331,395.343903L307.968384,395.369049L307.994873,395.396912L308.018372,395.427307L308.040009,395.462463L308.265076,395.876404L308.281738,395.911041L308.294769,395.947174L308.304016,395.984497L308.309601,396.02243L308.311188,396.057709L308.311188,411.88031L308.310333,411.905212L308.302185,412.028778L308.297791,412.066956L308.293304,412.089203L308.268616,412.196228L308.258179,412.233063L308.244659,412.267242L308.203674,412.357819L308.186035,412.391998L308.157959,412.433716L308.100586,412.507904L308.075623,412.537079L308.034058,412.574768L307.960236,412.632416L307.928741,412.654541L307.883728,412.678741L307.793396,412.719849L307.757751,412.733948L307.72226,412.744049L307.615601,412.76886L307.577789,412.775665L307.554688,412.777863L307.431641,412.786011L307.406555,412.786865L286.00238,412.786865L285.978882,412.786133L285.847076,412.777985L285.809021,412.773712L285.789917,412.770081L285.67572,412.74527L285.638641,412.735168L285.607758,412.723633L285.5112,412.682526L285.476563,412.665619L285.436188,412.639954L285.357117,412.582306L285.327209,412.558105L285.288666,412.517975L285.227142,412.443817L285.204163,412.413055L285.177643,412.366943L285.133759,412.276367L285.118774,412.240967L285.106873,412.201691L285.080505,412.094696L285.073181,412.056976L285.070404,412.030731L285.061646,411.907166L285.060669,411.88031L285.060669,396.057709L285.062622,396.019287L285.068451,395.981323L285.078064,395.944122L285.091309,395.908142L285.10675,395.876282L285.33197,395.462341L285.35202,395.429626L285.375244,395.398987L285.40152,395.371002L285.430481,395.345703L285.461853,395.323456L285.49527,395.304474L285.530426,395.289032L285.566895,395.277252L285.607269,395.268738L286.094543,395.193207L286.132721,395.189209L286.171143,395.189209L286.204224,395.192261L288.652222,395.527863L288.707092,395.527863L288.78418,395.529083L288.860413,395.520325L288.962555,395.498444L289.091705,395.460754L289.240173,395.407959L289.408112,395.339752L289.597595,395.254639L289.809906,395.151398L290.196716,394.958771L290.213257,394.950989L290.596313,394.782684L290.614563,394.775269L290.99054,394.632874L291.01062,394.625946L291.3797,394.50943L291.401825,394.503113L291.763824,394.412537L291.787903,394.407288L292.142883,394.34259L292.168884,394.338837L292.516785,394.300049L292.544525,394.297974L292.885498,394.285095L292.903503,394.284851L293.21698,394.287872L293.224915,394.287994L293.528168,394.297241L293.53656,394.297607L293.829651,394.313049L293.838623,394.31366L294.121368,394.335297L294.130981,394.336151L294.403595,394.364014L294.413818,394.365234L294.675995,394.399139L294.687073,394.400726L294.939148,394.440979L294.950562,394.442932L295.192322,394.489136L295.205078,394.491821L295.436646,394.544342L295.450012,394.547638L295.671204,394.606354L295.685181,394.610382L295.896301,394.675201L295.911499,394.680298L296.112122,394.751312L296.128052,394.757263L296.318604,394.834503L296.33551,394.841919L296.515747,394.925323L296.533386,394.93396L296.685974,395.014465L296.838593,394.93396L296.856232,394.925323L297.036438,394.841919L297.053223,394.834625L297.243652,394.757385L297.259705,394.751312L297.46048,394.680298L297.475555,394.675201L297.686523,394.610382L297.700653,394.606354L297.921844,394.547638L297.935211,394.544342L298.166748,394.491821L298.179504,394.489136L298.421265,394.442932L298.432709,394.440979L298.684784,394.400726L298.695984,394.399139L298.958282,394.365234L298.968384,394.364014L299.240875,394.336151L299.250488,394.335297L299.533203,394.31366L299.542206,394.313049L299.835266,394.297607L299.843658,394.297241L300.146942,394.287994L300.154846,394.287872L300.468353,394.284851L300.485962,394.285095zM296.686279,395.454773C295.861908,394.927612,294.59964,394.664032,292.900146,394.664032C292.000305,394.664032,291.025635,394.939972,289.976166,395.492523C289.376251,395.793823,288.951385,395.931793,288.701538,395.907104L288.626709,395.907104L286.152985,395.568024L285.665649,395.643524L285.440521,396.057404L285.440521,411.879974C285.440521,412.231415,285.627899,412.407104,286.002686,412.407104L307.406921,412.407104C307.756989,412.407104,307.932007,412.231415,307.932007,411.879974L307.932007,396.057404L307.706879,395.643524L307.219543,395.568024L304.782867,395.907104L304.708069,395.907104C304.408112,395.931793,303.983215,395.793823,303.433441,395.492523C302.383942,394.939972,301.396942,394.664032,300.472382,394.664032C298.772888,394.664032,297.51062,394.927612,296.686279,395.454773zM297.211365,396.660065C297.935486,396.258514,298.910156,396.057404,300.134674,396.057404C300.784668,396.057404,301.509491,396.270874,302.309143,396.697815C302.959137,397.074646,303.508942,397.250336,303.958527,397.225647L305.907867,397.036896L305.907867,411.013763L297.211365,411.013763L297.211365,396.660065zM299.704193,396.446228L299.298401,396.473358L298.917542,396.518097L298.561218,396.580353L298.231934,396.659393L297.92926,396.754242L297.64859,396.866241L297.590576,396.895172L297.590576,410.63446L305.528015,410.63446L305.528015,397.455292L303.994873,397.60376L303.958008,397.605469L303.784729,397.605347L303.745819,397.603271L303.563049,397.58432L303.529114,397.579315L303.337097,397.541626L303.307678,397.534576L303.106171,397.478027L303.080872,397.470001L302.870026,397.394623L302.848633,397.38623L302.628265,397.291992L302.609924,397.283478L302.38031,397.170502L302.364502,397.162354L302.131775,397.033936L301.846497,396.889465L301.577026,396.768219L301.312775,396.665222L301.058472,396.582062L300.813477,396.518219L300.578888,396.473236L300.351746,396.44635L300.128967,396.437347L299.704193,396.446228zM303.658997,404.307312L303.69693,404.313141L303.734131,404.322754L303.770142,404.335999L303.804657,404.352905L303.83725,404.373199L303.867676,404.39679L303.895508,404.423187L303.920563,404.452362L303.942444,404.483856L303.961182,404.517426L303.976379,404.552704L303.987915,404.589417L303.995697,404.626984L303.999603,404.665192L304.000092,404.684875L304.000092,406.266937L303.998138,406.305359L303.99231,406.343323L303.982697,406.380524L303.969452,406.416504L303.952545,406.45105L303.93222,406.483643L303.90863,406.514038L303.882263,406.541901L303.853058,406.566956L303.821564,406.588837L303.788025,406.607544L303.752747,406.622772L303.716003,406.634308L303.678436,406.64209L303.640259,406.645996L303.620544,406.646484L298.935303,406.646484L298.896851,406.644531L298.858917,406.638702L298.821716,406.629089L298.785706,406.615814L298.75119,406.598938L298.718597,406.578613L298.688171,406.555023L298.660339,406.528625L298.635284,406.499451L298.613403,406.467957L298.594666,406.434387L298.579468,406.399139L298.567932,406.362396L298.56015,406.324829L298.556244,406.286652L298.555756,406.266937L298.555756,404.684875L298.557709,404.646454L298.563538,404.608521L298.573151,404.571289L298.586426,404.535309L298.603302,404.500763L298.623627,404.46817L298.647217,404.437775L298.673584,404.409943L298.702789,404.384888L298.734283,404.363007L298.767822,404.344269L298.803101,404.329071L298.839844,404.317505L298.877411,404.309723L298.915588,404.305847L298.935303,404.305359L303.620544,404.305359L303.658997,404.307312zM303.620819,406.266724L303.620819,404.684601L298.935547,404.684601L298.935547,406.266724L303.620819,406.266724zM303.658997,401.255646L303.69693,401.261505L303.734131,401.271088L303.770142,401.284363L303.804657,401.30127L303.83725,401.321564L303.867676,401.345154L303.895508,401.371552L303.920563,401.400726L303.942444,401.43222L303.961182,401.46579L303.976379,401.501038L303.987915,401.537781L303.995697,401.575348L303.999603,401.613525L304.000092,401.63324L304.000092,403.252991L303.998138,403.291412L303.99231,403.329376L303.982697,403.366577L303.969452,403.402557L303.952545,403.437103L303.93222,403.469696L303.90863,403.500092L303.882263,403.527954L303.853058,403.552979L303.821564,403.57489L303.788025,403.593597L303.752747,403.608795L303.716003,403.620361L303.678436,403.628143L303.640259,403.63205L303.620544,403.632507L298.935303,403.632507L298.896851,403.630585L298.858917,403.624725L298.821716,403.615143L298.785706,403.601868L298.75119,403.584961L298.718597,403.564667L298.688171,403.541077L298.660339,403.514679L298.635284,403.485504L298.613403,403.45401L298.594666,403.420441L298.579468,403.385193L298.567932,403.34845L298.56015,403.310883L298.556244,403.272705L298.555756,403.252991L298.555756,401.63324L298.557709,401.594818L298.563538,401.556854L298.573151,401.519653L298.586426,401.483673L298.603302,401.449127L298.623627,401.416534L298.647217,401.386139L298.673584,401.358276L298.702789,401.333252L298.734283,401.31134L298.767822,401.292633L298.803101,401.277435L298.839844,401.265869L298.877411,401.258087L298.915588,401.254181L298.935303,401.253723L303.620544,401.253723L303.658997,401.255646zM303.620819,403.252777L303.620819,401.632935L298.935547,401.632935L298.935547,403.252777L303.620819,403.252777zM303.658997,407.321259L303.69693,407.327087L303.734131,407.3367L303.770142,407.349945L303.804657,407.366852L303.83725,407.387146L303.867676,407.410736L303.895508,407.437134L303.920563,407.466309L303.942444,407.497833L303.961182,407.531372L303.976379,407.56665L303.987915,407.603363L303.995697,407.640961L303.999603,407.679138L304.000092,407.698822L304.000092,409.318604L303.998138,409.357025L303.99231,409.394958L303.982697,409.432159L303.969452,409.46817L303.952545,409.502686L303.93222,409.535278L303.90863,409.565704L303.882263,409.593536L303.853058,409.618591L303.821564,409.640472L303.788025,409.65921L303.752747,409.674408L303.716003,409.685944L303.678436,409.693726L303.640259,409.697632L303.620544,409.69812L298.935303,409.69812L298.896851,409.696167L298.858917,409.690338L298.821716,409.680725L298.785706,409.66748L298.75119,409.650574L298.718597,409.630249L298.688171,409.606659L298.660339,409.580292L298.635284,409.551086L298.613403,409.519592L298.594666,409.486053L298.579468,409.450775L298.567932,409.414063L298.56015,409.376465L298.556244,409.338287L298.555756,409.318604L298.555756,407.698822L298.557709,407.6604L298.563538,407.622467L298.573151,407.585266L298.586426,407.549255L298.603302,407.514709L298.623627,407.482117L298.647217,407.451721L298.673584,407.423889L298.702789,407.398834L298.734283,407.376953L298.767822,407.358215L298.803101,407.343018L298.839844,407.331451L298.877411,407.323669L298.915588,407.319794L298.935303,407.319305L303.620544,407.319305L303.658997,407.321259zM298.935547,407.698517L298.935547,409.31839L303.620819,409.31839L303.620819,407.698517L298.935547,407.698517zM303.658997,398.20462L303.69693,398.210449L303.734131,398.220062L303.770142,398.233307L303.804657,398.250214L303.83725,398.270538L303.867676,398.294128L303.895508,398.320496L303.920563,398.349701L303.942444,398.381195L303.961182,398.414734L303.976379,398.450012L303.987915,398.486725L303.995697,398.524323L303.999603,398.5625L304.000092,398.582184L304.000092,400.202087L303.998138,400.240509L303.99231,400.278442L303.982697,400.315643L303.969452,400.351654L303.952545,400.3862L303.93222,400.418762L303.90863,400.449188L303.882263,400.47702L303.853058,400.502075L303.821564,400.523956L303.788025,400.542694L303.752747,400.557892L303.716003,400.569458L303.678436,400.57724L303.640259,400.581116L303.620544,400.581604L298.935303,400.581604L298.896851,400.579651L298.858917,400.573822L298.821716,400.564209L298.785706,400.550964L298.75119,400.534058L298.718597,400.513763L298.688171,400.490173L298.660339,400.463776L298.635284,400.43457L298.613403,400.403076L298.594666,400.369537L298.579468,400.334259L298.567932,400.297546L298.56015,400.259949L298.556244,400.221771L298.555756,400.202087L298.555756,398.582184L298.557709,398.543762L298.563538,398.505829L298.573151,398.468628L298.586426,398.432617L298.603302,398.398102L298.623627,398.365509L298.647217,398.335083L298.673584,398.307251L298.702789,398.282196L298.734283,398.260315L298.767822,398.241577L298.803101,398.226379L298.839844,398.214844L298.877411,398.207062L298.915588,398.203156L298.935303,398.202667L303.620544,398.202667L303.658997,398.20462zM303.620819,398.58194L298.935547,398.58194L298.935547,400.201813L303.620819,400.201813L303.620819,398.58194zM289.414001,397.225647C289.888977,397.250336,290.438782,397.074646,291.063385,396.697815C291.913147,396.270874,292.65033,396.057404,293.274933,396.057404C294.499451,396.057404,295.474121,396.258514,296.198944,396.660065L296.198944,411.013763L287.464661,411.013763L287.464661,397.036896L289.414001,397.225647zM293.066467,396.446228L292.843323,396.472992L292.607147,396.518341L292.359802,396.582184L292.095947,396.666565L291.821594,396.769928L291.532532,396.894104L291.239349,397.034424L291.020813,397.159424L291.003448,397.168793L290.779694,397.281769L290.759979,397.291016L290.543274,397.385254L290.520325,397.394379L290.310669,397.469757L290.284271,397.478149L290.081696,397.534698L290.051392,397.54187L289.855743,397.579559L289.82193,397.584564L289.633209,397.603516L289.59552,397.605347L289.41394,397.605469L289.377106,397.60376L287.843933,397.455292L287.843933,410.63446L295.819061,410.63446L295.819061,396.895416L295.759613,396.865875L295.480042,396.754242L295.177368,396.659393L294.847839,396.580353L294.491394,396.518097L294.110535,396.473358L293.704865,396.446228L293.278656,396.437347L293.066467,396.446228zM294.212921,404.307312L294.250854,404.313141L294.288086,404.322754L294.324066,404.335999L294.358612,404.352905L294.391205,404.373199L294.4216,404.39679L294.449463,404.423187L294.474487,404.452362L294.496399,404.483856L294.515106,404.517426L294.530304,404.552704L294.54187,404.589417L294.549652,404.626984L294.553528,404.665192L294.554016,404.684875L294.554016,406.266937L294.552063,406.305359L294.546234,406.343323L294.536621,406.380524L294.523376,406.416504L294.50647,406.45105L294.486176,406.483643L294.462585,406.514038L294.436188,406.541901L294.407013,406.566956L294.375519,406.588837L294.341949,406.607544L294.306702,406.622772L294.269958,406.634308L294.232391,406.64209L294.194214,406.645996L294.1745,406.646484L289.488495,406.646484L289.450073,406.644531L289.41214,406.638702L289.374939,406.629089L289.338928,406.615814L289.304382,406.598938L289.27179,406.578613L289.241394,406.555023L289.213562,406.528625L289.188507,406.499451L289.166626,406.467957L289.147888,406.434387L289.13269,406.399139L289.121155,406.362396L289.113342,406.324829L289.109467,406.286652L289.108978,406.266937L289.108978,404.684875L289.110931,404.646454L289.11676,404.608521L289.126373,404.571289L289.139618,404.535309L289.156525,404.500763L289.176819,404.46817L289.200439,404.437775L289.226807,404.409943L289.255981,404.384888L289.287476,404.363007L289.321045,404.344269L289.356323,404.329071L289.393036,404.317505L289.430603,404.309723L289.468811,404.305847L289.488495,404.305359L294.1745,404.305359L294.212921,404.307312zM289.488831,404.684601L289.488831,406.266724L294.174774,406.266724L294.174774,404.684601L289.488831,404.684601zM294.212921,407.321259L294.250854,407.327087L294.288086,407.3367L294.324066,407.349945L294.358612,407.366852L294.391205,407.387146L294.4216,407.410736L294.449463,407.437134L294.474487,407.466309L294.496399,407.497833L294.515106,407.531372L294.530304,407.56665L294.54187,407.603363L294.549652,407.640961L294.553528,407.679138L294.554016,407.698822L294.554016,409.318604L294.552063,409.357025L294.546234,409.394958L294.536621,409.432159L294.523376,409.46817L294.50647,409.502686L294.486176,409.535278L294.462585,409.565704L294.436188,409.593536L294.407013,409.618591L294.375519,409.640472L294.341949,409.65921L294.306702,409.674408L294.269958,409.685944L294.232391,409.693726L294.194214,409.697632L294.1745,409.69812L289.488495,409.69812L289.450073,409.696167L289.41214,409.690338L289.374939,409.680725L289.338928,409.66748L289.304382,409.650574L289.27179,409.630249L289.241394,409.606659L289.213562,409.580292L289.188507,409.551086L289.166626,409.519592L289.147888,409.486053L289.13269,409.450775L289.121155,409.414063L289.113342,409.376465L289.109467,409.338287L289.108978,409.318604L289.108978,407.698822L289.110931,407.6604L289.11676,407.622467L289.126373,407.585266L289.139618,407.549255L289.156525,407.514709L289.176819,407.482117L289.200439,407.451721L289.226807,407.423889L289.255981,407.398834L289.287476,407.376953L289.321045,407.358215L289.356323,407.343018L289.393036,407.331451L289.430603,407.323669L289.468811,407.319794L289.488495,407.319305L294.1745,407.319305L294.212921,407.321259zM294.174774,409.31839L294.174774,407.698517L289.488831,407.698517L289.488831,409.31839L294.174774,409.31839zM294.212921,398.20462L294.250854,398.210449L294.288086,398.220062L294.324066,398.233307L294.358612,398.250214L294.391205,398.270538L294.4216,398.294128L294.449463,398.320496L294.474487,398.349701L294.496399,398.381195L294.515106,398.414734L294.530304,398.450012L294.54187,398.486725L294.549652,398.524323L294.553528,398.5625L294.554016,398.582184L294.554016,403.554321L294.552063,403.592743L294.546234,403.630707L294.536621,403.667908L294.523376,403.703888L294.50647,403.738434L294.486176,403.771027L294.462585,403.801422L294.436188,403.829285L294.407013,403.85434L294.375519,403.876221L294.341949,403.894928L294.306702,403.910156L294.269958,403.921692L294.232391,403.929474L294.194214,403.93338L294.1745,403.933868L289.488495,403.933868L289.450073,403.931915L289.41214,403.926086L289.374939,403.916473L289.338928,403.903198L289.304382,403.886322L289.27179,403.865997L289.241394,403.842407L289.213562,403.81601L289.188507,403.786835L289.166626,403.755341L289.147888,403.721771L289.13269,403.686523L289.121155,403.64978L289.113342,403.612213L289.109467,403.574036L289.108978,403.554321L289.108978,398.582184L289.110931,398.543762L289.11676,398.505829L289.126373,398.468628L289.139618,398.432617L289.156525,398.398102L289.176819,398.365509L289.200439,398.335083L289.226807,398.307251L289.255981,398.282196L289.287476,398.260315L289.321045,398.241577L289.356323,398.226379L289.393036,398.214844L289.430603,398.207062L289.468811,398.203156L289.488495,398.202667L294.1745,398.202667L294.212921,398.20462zM294.174774,398.58194L289.488831,398.58194L289.488831,403.554108L294.174774,403.554108L294.174774,398.58194z"/>
</svg>
