<?xml version="1.0" encoding="UTF-8"?>
<svg xmlns="http://www.w3.org/2000/svg" xmlns:xlink="http://www.w3.org/1999/xlink" width="21.502mm" height="21.536mm" viewBox="-276.711853 392.767700 21.501617 21.535553">
    <path transform="matrix(-1,0,0,1,0,0)" style="stroke:none;fill:#000000;fill-rule:evenodd" d="M258.571716,392.873383L258.60965,392.879211L258.646881,392.888824L258.682861,392.902069L258.717407,392.918976L258.75,392.939301L258.780396,392.962891L258.808228,392.989288L258.833282,393.018463L258.855164,393.049957L258.873901,393.083527L258.889099,393.118774L258.900665,393.155518L258.908447,393.193085L258.912323,393.231262L258.912811,393.250977L258.912811,398.99942L258.910889,399.037842L258.905029,399.075775L258.895447,399.113007L258.882172,399.148987L258.865265,399.183533L258.844971,399.216125L258.821381,399.246521L258.794983,399.274353L258.765808,399.299408L258.734314,399.321289L258.700745,399.340027L258.665466,399.355225L258.628754,399.366791L258.591187,399.374573L258.552979,399.378448L258.533295,399.378937L255.589752,399.378937L255.551331,399.376984L255.513382,399.371155L255.476166,399.361542L255.440186,399.348297L255.40564,399.33139L255.373047,399.311096L255.342651,399.287506L255.314804,399.261108L255.289764,399.231934L255.267868,399.200439L255.249146,399.16687L255.233948,399.131592L255.222382,399.094879L255.2146,399.057312L255.210724,399.019104L255.210236,398.99942L255.210236,393.250977L255.212173,393.212524L255.218018,393.174591L255.227615,393.13739L255.240875,393.101379L255.257782,393.066864L255.278076,393.034271L255.301666,393.003876L255.328064,392.976013L255.357239,392.950958L255.388733,392.929077L255.422302,392.910339L255.457565,392.895142L255.494293,392.883606L255.53186,392.875824L255.570053,392.871918L255.589752,392.871429L258.533295,392.871429L258.571716,392.873383zM255.590393,393.250854L255.590393,398.999268L258.533905,398.999268L258.533905,393.250854L255.590393,393.250854z"/>
    <path transform="matrix(-1,0,0,1,0,0)" style="stroke:none;fill:#000000;fill-rule:evenodd" d="M270.730896,392.906342L270.784149,392.911194L270.969116,392.94162L270.983948,392.944397L271.17511,392.983673L271.188965,392.986725L271.386322,393.035004L271.398743,393.038269L271.602295,393.095428L271.613586,393.098846L271.823486,393.164856L271.83432,393.168396L272.050293,393.243561L272.059509,393.246948L272.281799,393.330872L272.290924,393.334381L272.519409,393.427399L272.527344,393.430817L272.761902,393.532593L272.76944,393.535889L273.010345,393.646667L273.017273,393.649933L273.264374,393.769714L273.270569,393.772766L273.523987,393.901306L273.530212,393.904572L273.789703,394.042236L273.794922,394.045044L274.060638,394.191437L274.065735,394.194366L274.337769,394.349762L274.342499,394.35257L274.620605,394.516846L274.639465,394.528656L276.54425,395.809875L276.575043,395.832977L276.603241,395.859009L276.628784,395.887695L276.651276,395.918823L276.67038,395.952148L276.686188,395.987183L276.698212,396.023651L276.706604,396.061096L276.711121,396.099304L276.711731,396.137726L276.708557,396.176025L276.701385,396.213715L276.690552,396.25058L276.675964,396.286194L276.657959,396.320129L276.636566,396.35199L276.612,396.381531L276.584656,396.408539L276.559692,396.428833L276.338867,396.593964L276.334259,396.597382L276.104919,396.763489L276.100281,396.766785L275.862183,396.933868L275.858063,396.936646L275.611328,397.10495L275.607178,397.107758L275.351807,397.27713L275.347931,397.279694L275.083923,397.450195L275.080261,397.452484L274.807526,397.624207L274.803528,397.62677L274.240234,397.971741L274.235016,397.974915L273.960663,398.136871L273.955322,398.139923L273.688538,398.291687L273.682678,398.294952L273.423553,398.436401L273.417236,398.439667L273.165619,398.570892L273.158691,398.574524L272.914764,398.695404L272.907104,398.699066L272.670593,398.809723L272.662079,398.813599L272.433228,398.91394L272.42395,398.917816L272.202759,399.007935L272.192322,399.011932L271.978516,399.091705L271.967224,399.095734L271.761108,399.165283L271.748474,399.169312L271.549866,399.228638L271.535522,399.232666L271.344604,399.281647L271.328552,399.285431L271.14505,399.324097L271.127441,399.327393L270.951599,399.355835L270.931763,399.358521L270.763458,399.37674L270.756775,399.37735L270.595276,399.391968L270.591156,399.392334L270.418121,399.406067L270.414337,399.406433L270.22998,399.419189L270.226593,399.419434L270.030701,399.431244L270.027893,399.431366L269.820679,399.442291L269.817627,399.442413L269.598999,399.452271L269.596802,399.452393L269.366608,399.461395L269.36441,399.461395L269.122925,399.469421L269.12085,399.469543L268.867798,399.476593L268.866089,399.476593L268.601715,399.482788L268.600006,399.48291L268.324219,399.488129L268.322632,399.488129L268.035278,399.492401L268.033813,399.492401L267.735168,399.495697L267.733948,399.495697L267.423737,399.498108L267.421936,399.498108L266.767456,399.499939L266.765381,399.499939L266.065063,399.498108L266.06311,399.498108L265.317078,399.492401L265.315491,399.492401L264.523743,399.48291L264.522278,399.48291L263.684784,399.469666L263.683472,399.469666L262.800232,399.452637L262.799042,399.452515L261.870117,399.431732L261.869019,399.431732L260.894348,399.407166L260.893372,399.407166L259.872986,399.378815L259.834686,399.375793L259.796997,399.368958L259.76004,399.358276L259.724396,399.343933L259.690369,399.32605L259.658386,399.304901L259.628571,399.280579L259.601471,399.253326L259.577271,399.223541L259.556213,399.191437L259.538452,399.157379L259.524231,399.121643L259.513794,399.084656L259.506958,399.046844L259.504059,398.99942L259.504059,393.250977L259.506012,393.212524L259.511841,393.174591L259.521454,393.13739L259.534698,393.101379L259.551605,393.066864L259.571899,393.034271L259.59552,393.003876L259.621887,392.976013L259.651062,392.950958L259.682556,392.929077L259.716125,392.910339L259.751404,392.895142L259.788116,392.883606L259.825684,392.875824L259.874695,392.871552L264.341827,392.7677L264.358948,392.7677L270.730896,392.906342zM259.884125,398.999268C265.448334,399.160675,269.060944,399.160675,270.723236,398.999268C271.600586,398.929626,272.800781,398.421936,274.324463,397.475586C275.086609,397.013489,275.755707,396.563416,276.333008,396.124725L274.428253,394.843506C272.92804,393.943359,271.693024,393.423676,270.723236,393.285675L264.351318,393.147034L259.884125,393.250854L259.884125,398.999268z"/>
    <path transform="matrix(-1,0,0,1,0,0)" style="stroke:none;fill:#000000;fill-rule:evenodd" d="M258.571716,400.284027L258.60965,400.289886L258.646881,400.299469L258.682861,400.312744L258.717407,400.329651L258.75,400.349945L258.780396,400.373535L258.808228,400.399933L258.833282,400.429108L258.855164,400.460602L258.873901,400.494171L258.889099,400.529449L258.900665,400.566162L258.908447,400.603729L258.912323,400.641907L258.912811,400.661621L258.912811,406.409454L258.910889,406.447906L258.905029,406.48584L258.895447,406.523041L258.882172,406.559052L258.865265,406.593567L258.844971,406.62616L258.821381,406.656555L258.794983,406.684418L258.765808,406.709473L258.734314,406.731354L258.700745,406.750092L258.665466,406.765289L258.628754,406.776825L258.591187,406.784607L258.552979,406.788513L258.533295,406.789001L255.589752,406.789001L255.551331,406.787048L255.513382,406.781219L255.476166,406.771606L255.440186,406.758331L255.40564,406.741455L255.373047,406.72113L255.342651,406.69754L255.314804,406.671143L255.289764,406.641968L255.267868,406.610474L255.249146,406.576904L255.233948,406.541656L255.222382,406.504913L255.2146,406.467346L255.210724,406.429169L255.210236,406.409454L255.210236,400.661621L255.212173,400.623199L255.218018,400.585266L255.227615,400.548035L255.240875,400.512054L255.257782,400.477509L255.278076,400.444916L255.301666,400.41452L255.328064,400.386688L255.357239,400.361633L255.388733,400.339722L255.422302,400.321014L255.457565,400.305817L255.494293,400.29425L255.53186,400.286469L255.570053,400.282593L255.589752,400.282104L258.533295,400.282104L258.571716,400.284027zM255.590393,400.66156L255.590393,406.409332L258.533905,406.409332L258.533905,400.66156L255.590393,400.66156z"/>
    <path transform="matrix(-1,0,0,1,0,0)" style="stroke:none;fill:#000000;fill-rule:evenodd" d="M267.027191,400.161469L267.0289,400.161469L267.48941,400.164612L267.491608,400.164612L267.927185,400.170105L267.929382,400.170105L268.340027,400.177643L268.342834,400.177765L268.728668,400.187622L268.731354,400.187744L269.092163,400.199524L269.095673,400.199646L269.431793,400.213745L269.435669,400.213867L269.746735,400.230164L269.751221,400.230408L270.037476,400.248779L270.042969,400.249146L270.304413,400.269684L270.311096,400.270294L270.547485,400.293152L270.555176,400.294006L270.766754,400.318817L270.784149,400.321259L270.969116,400.351654L270.983337,400.35434L271.1745,400.39325L271.187866,400.396149L271.385223,400.443817L271.397278,400.446991L271.60083,400.503296L271.611786,400.506439L271.821655,400.571381L271.831879,400.574799L272.047852,400.648376L272.05722,400.651642L272.27951,400.733856L272.288025,400.737122L272.51651,400.827972L272.524658,400.831268L272.759216,400.930847L272.766418,400.934021L273.007294,401.042236L273.013977,401.045288L273.261078,401.16214L273.267273,401.165192L273.520721,401.29068L273.52655,401.29361L273.786041,401.427734L273.791534,401.430634L274.05722,401.573517L274.062195,401.576202L274.334229,401.727722L274.338989,401.730408L274.617096,401.890533L274.643372,401.907196L276.548157,403.223328L276.578674,403.246796L276.606537,403.273193L276.631714,403.302246L276.653839,403.333618L276.672546,403.367188L276.687866,403.402435L276.699432,403.439056L276.707336,403.476624L276.711365,403.514801L276.711609,403.553223L276.707825,403.591431L276.700287,403.62912L276.688965,403.665833L276.673889,403.701233L276.655396,403.734924L276.633636,403.766541L276.608704,403.795837L276.580994,403.822357L276.544128,403.850555L274.535614,405.200714L274.518463,405.21167L274.236603,405.379974L274.231964,405.382629L273.957642,405.541199L273.952515,405.544128L273.68573,405.692841L273.680359,405.69577L273.421234,405.8349L273.415161,405.838043L273.163574,405.967316L273.157104,405.970612L272.913177,406.090118L272.906006,406.093536L272.669495,406.203339L272.661957,406.206757L272.433105,406.306946L272.424194,406.31073L272.203003,406.40094L272.193542,406.404602L271.979736,406.485229L271.969299,406.488983L271.763184,406.559875L271.751495,406.563782L271.552917,406.624939L271.539917,406.628723L271.348999,406.680145L271.334167,406.683807L271.150665,406.725403L271.134735,406.728668L270.958893,406.760651L270.940643,406.763458L270.772339,406.785706L270.757019,406.787415L270.59552,406.802124L270.591156,406.80249L270.418121,406.816223L270.414337,406.816589L270.22998,406.829376L270.226837,406.829498L270.030945,406.8414L270.027649,406.841644L269.820435,406.852478L269.818115,406.8526L269.599487,406.862671L269.596802,406.862793L269.366608,406.871796L269.36441,406.871796L269.122925,406.879822L269.120972,406.879944L268.86792,406.887115L268.866089,406.887115L268.601715,406.893341L268.600006,406.893433L268.324219,406.898682L268.322632,406.898682L268.035278,406.902924L268.033813,406.902924L267.735168,406.906219L267.733948,406.906219L267.423737,406.908661L267.421936,406.908661L266.767456,406.910461L266.765381,406.910461L266.065063,406.908661L266.06311,406.908661L265.317078,406.902924L265.315491,406.902924L264.523743,406.893433L264.522156,406.893433L263.684662,406.880066L263.683472,406.880066L262.800232,406.863037L262.799042,406.862915L261.870117,406.84201L261.869019,406.84201L260.894348,406.817322L260.893372,406.817322L259.872986,406.788879L259.834686,406.785828L259.796875,406.779022L259.76004,406.768311L259.724396,406.753967L259.690369,406.736084L259.658264,406.714935L259.628571,406.690613L259.601471,406.663361L259.577271,406.633575L259.556091,406.601471L259.538452,406.567291L259.524231,406.531677L259.513794,406.49472L259.506958,406.456879L259.504059,406.409454L259.504059,400.661621L259.506012,400.623199L259.511841,400.585266L259.521454,400.548035L259.534698,400.512054L259.551605,400.477509L259.571899,400.444916L259.59552,400.41452L259.621887,400.386688L259.651062,400.361633L259.682556,400.339722L259.716125,400.321014L259.751404,400.305817L259.788116,400.29425L259.825684,400.286469L259.874695,400.282227L264.341827,400.177765L264.345825,400.177643L264.930725,400.170105L264.931946,400.170105L265.492065,400.164612L265.49353,400.164612L266.028564,400.161469L266.029907,400.161469L266.540161,400.16037L266.54187,400.16037L267.027191,400.161469zM259.884125,400.66156L259.884125,406.409332C265.448334,406.571381,269.060944,406.571381,270.723236,406.409332C271.600586,406.316895,272.800781,405.809235,274.324463,404.885651L276.333008,403.535431L274.428253,402.219391C272.92804,401.342041,271.693024,400.834351,270.723236,400.69574C269.661041,400.557098,267.537262,400.510895,264.351318,400.557098L259.884125,400.66156z"/>
    <path transform="matrix(-1,0,0,1,0,0)" style="stroke:none;fill:#000000;fill-rule:evenodd" d="M258.571716,407.694214L258.60965,407.700043L258.646881,407.709656L258.682861,407.7229L258.717407,407.739807L258.75,407.760132L258.780396,407.783722L258.808228,407.810089L258.833282,407.839294L258.855164,407.870789L258.873901,407.904327L258.889099,407.939606L258.900665,407.976318L258.908447,408.013916L258.912323,408.052094L258.912811,408.071777L258.912811,413.820129L258.910889,413.858551L258.905029,413.896484L258.895447,413.933685L258.882172,413.969696L258.865265,414.004242L258.844971,414.036804L258.821381,414.06723L258.794983,414.095062L258.765808,414.120117L258.734314,414.141998L258.700745,414.160736L258.665466,414.175934L258.628754,414.187469L258.591187,414.195251L258.552979,414.199158L258.533295,414.199646L255.589752,414.199646L255.551331,414.197693L255.513382,414.191864L255.476166,414.182251L255.440186,414.169006L255.40564,414.1521L255.373047,414.131775L255.342651,414.108185L255.314804,414.081818L255.289764,414.052612L255.267868,414.021118L255.249146,413.987579L255.233948,413.952301L255.222382,413.915588L255.2146,413.877991L255.210724,413.839813L255.210236,413.820129L255.210236,408.071777L255.212173,408.033356L255.218018,407.995422L255.227615,407.958221L255.240875,407.922211L255.257782,407.887665L255.278076,407.855103L255.301666,407.824677L255.328064,407.796844L255.357239,407.77179L255.388733,407.749908L255.422302,407.731171L255.457565,407.715973L255.494293,407.704437L255.53186,407.696655L255.570053,407.692749L255.589752,407.692261L258.533295,407.692261L258.571716,407.694214zM255.590393,408.071625L255.590393,413.820007L258.533905,413.820007L258.533905,408.071625L255.590393,408.071625z"/>
    <path transform="matrix(-1,0,0,1,0,0)" style="stroke:none;fill:#000000;fill-rule:evenodd" d="M267.027191,407.572113L267.029022,407.572113L267.489532,407.575409L267.491608,407.575409L267.927185,407.580872L267.929382,407.580872L268.340027,407.588409L268.342712,407.588531L268.728546,407.598267L268.731476,407.598389L269.092285,407.610291L269.095673,407.610413L269.431793,407.624542L269.435547,407.624664L269.746613,407.640839L269.751343,407.641052L270.037598,407.659546L270.042969,407.659912L270.304413,407.680481L270.310974,407.681061L270.547363,407.703827L270.55542,407.704651L270.766998,407.729584L270.783905,407.732025L270.968872,407.762299L270.983459,407.764984L271.174622,407.804016L271.187866,407.806946L271.385223,407.854614L271.397034,407.857635L271.600586,407.913818L271.611786,407.917114L271.821655,407.982056L271.831879,407.985443L272.047852,408.059021L272.05722,408.062317L272.27951,408.144501L272.288147,408.147797L272.516632,408.238739L272.524536,408.242035L272.759094,408.341492L272.766418,408.344666L273.007294,408.452881L273.013977,408.455933L273.261078,408.572784L273.267273,408.575836L273.520721,408.701324L273.526672,408.704376L273.786163,408.838623L273.791534,408.841431L274.05722,408.984314L274.062195,408.986969L274.334229,409.138489L274.338989,409.141174L274.617096,409.301331L274.628998,409.308624L275.150818,409.635376L275.157623,409.639618L275.649017,409.962006L275.656433,409.96698L276.117432,410.285095L276.125458,410.290802L276.556061,410.604797L276.585846,410.628998L276.61322,410.656097L276.637543,410.685791L276.658813,410.717773L276.676697,410.751678L276.691162,410.787323L276.701874,410.82428L276.708801,410.862L276.711853,410.900299L276.710999,410.938721L276.706238,410.976898L276.697723,411.014343L276.685455,411.05072L276.669647,411.085724L276.650299,411.118927L276.627686,411.149933L276.60202,411.17865L276.5737,411.204529L276.547913,411.223999L274.539368,412.608948L274.518463,412.622314L274.236603,412.790619L274.231964,412.793304L273.957642,412.951874L273.952637,412.954773L273.685852,413.103638L273.680267,413.106537L273.421112,413.245544L273.415283,413.248688L273.163696,413.378082L273.157104,413.381378L272.913177,413.500916L272.906006,413.504303L272.669495,413.614136L272.661835,413.617645L272.432983,413.717743L272.424316,413.721252L272.203125,413.811615L272.193542,413.815369L271.979736,413.895996L271.969299,413.89978L271.763184,413.970673L271.751495,413.974548L271.552917,414.035736L271.539673,414.03949L271.348755,414.09082L271.334412,414.094452L271.150879,414.136169L271.134369,414.139465L270.958527,414.171326L270.940643,414.174103L270.772339,414.19635L270.752289,414.198547L270.59079,414.211182L270.586914,414.211426L270.413849,414.223236L270.410583,414.22348L270.226227,414.234436L270.223297,414.234558L270.027405,414.244629L270.024963,414.244751L269.817749,414.25412L269.815308,414.254242L269.59668,414.262756L269.594727,414.262756L269.364532,414.270538L269.362488,414.27066L269.120972,414.277466L269.119507,414.277466L268.866455,414.283661L268.864014,414.283783L268.323853,414.293518L268.321167,414.293518L267.735168,414.299957L267.732971,414.299957L267.101257,414.303253L266.420166,414.303253L265.697083,414.299957L265.695618,414.299957L264.926727,414.293518L264.925385,414.293518L264.110779,414.283783L264.109558,414.283783L263.249207,414.270782L263.248108,414.270782L262.342041,414.254486L262.341064,414.254364L261.389282,414.234924L261.388428,414.234924L260.390808,414.212158L260.390198,414.212158L259.874329,414.199524L259.835907,414.196594L259.798096,414.189911L259.76123,414.179321L259.725494,414.165222L259.691437,414.147491L259.659332,414.126312L259.629547,414.102112L259.602295,414.075012L259.578003,414.045197L259.556824,414.013214L259.53894,413.979187L259.524597,413.943542L259.514038,413.906586L259.507202,413.868774L259.504059,413.820129L259.504059,408.071777L259.506012,408.033356L259.511841,407.995422L259.521454,407.958221L259.534698,407.922211L259.551605,407.887665L259.571899,407.855103L259.59552,407.824677L259.621887,407.796844L259.651062,407.77179L259.682556,407.749908L259.716125,407.731171L259.751404,407.715973L259.788116,407.704437L259.825684,407.696655L259.874695,407.692383L264.341827,407.588531L264.345825,407.588409L264.930725,407.580872L264.931946,407.580872L265.492065,407.575409L265.493408,407.575409L266.028442,407.572113L266.029907,407.572113L266.540161,407.571014L266.54187,407.571014L267.027191,407.572113zM259.884125,413.820007C265.448334,413.958649,269.060944,413.958649,270.723236,413.820007C271.600586,413.7276,272.800781,413.21991,274.324463,412.296356L276.333008,410.911316C275.779114,410.495422,275.144196,410.068787,274.428253,409.630096C272.92804,408.752747,271.693024,408.245056,270.723236,408.106415C269.661041,407.967804,267.537262,407.9216,264.351318,407.967804L259.884125,408.071625L259.884125,413.820007z"/>
</svg>
