<?xml version="1.0" encoding="UTF-8"?>
<svg xmlns="http://www.w3.org/2000/svg" xmlns:xlink="http://www.w3.org/1999/xlink" width="20.623mm" height="27.293mm" viewBox="-245.547470 389.889221 20.622787 27.293488">
    <path transform="matrix(-1,0,0,1,0,0)" style="stroke:none;fill:#000000;fill-rule:evenodd" d="M226.656082,389.893372L226.701813,389.898956L226.767838,389.911255L226.811615,389.92218L226.877762,389.942871L226.915833,389.957092L226.981857,389.985779L227.016144,390.002808L227.082306,390.039886L227.111252,390.05777L227.177277,390.102997L227.201355,390.121002L227.267395,390.174377L227.288055,390.192383L227.354095,390.25415L227.362732,390.262421L230.874878,393.760498L245.167938,393.760498L245.206375,393.762421L245.244308,393.76828L245.281525,393.777863L245.31752,393.791138L245.352051,393.808044L245.384644,393.828339L245.415039,393.851929L245.442902,393.878326L245.467941,393.907501L245.489838,393.938995L245.50856,393.972565L245.523758,394.007813L245.535309,394.044556L245.543091,394.082123L245.546982,394.1203L245.54747,394.140015L245.54747,395.518402L245.545532,395.556824L245.539688,395.594757L245.53009,395.631958L245.516815,395.667969L245.499924,395.702484L245.479614,395.735077L245.456024,395.765503L245.437057,395.786041L236.714661,404.554047L236.714661,414.001068L236.717087,414.097504L236.723907,414.182251L236.734116,414.252533L236.748352,414.317474L236.764267,414.369415L236.781662,414.411469L236.79953,414.444916L236.816559,414.46936L236.835052,414.490143L236.852188,414.505005L236.871765,414.518127L236.896576,414.530518L236.926132,414.540985L236.965408,414.550232L237.010773,414.556183L237.077637,414.55899L239.632172,414.55899L239.670609,414.560944L239.708542,414.566772L239.745758,414.576385L239.781754,414.58963L239.816284,414.606537L239.848877,414.626831L239.879272,414.650421L239.90712,414.676819L239.932175,414.705994L239.954071,414.737488L239.972778,414.771057L239.987991,414.806335L239.999542,414.843048L240.007324,414.880615L240.011215,414.918823L240.011703,414.938507L240.011703,416.803192L240.009766,416.841614L240.003922,416.879547L239.994308,416.916748L239.981064,416.952759L239.964157,416.987274L239.943848,417.019867L239.920258,417.050293L239.89386,417.078125L239.864685,417.10318L239.833191,417.125061L239.799622,417.143799L239.764359,417.158997L239.727631,417.170532L239.690063,417.178314L239.651886,417.18222L239.632172,417.182709L230.880585,417.182709L230.842178,417.180756L230.80423,417.174927L230.767029,417.165314L230.731018,417.152069L230.696503,417.135162L230.66391,417.114838L230.633499,417.091248L230.605652,417.06488L230.580597,417.035675L230.558716,417.004181L230.539978,416.970642L230.52478,416.935364L230.513245,416.898651L230.505447,416.861053L230.501556,416.822876L230.501068,416.803192L230.501068,414.938507L230.503021,414.900085L230.50885,414.862152L230.518463,414.824921L230.531708,414.78894L230.548615,414.754395L230.568924,414.721802L230.592529,414.691406L230.618912,414.663574L230.648087,414.638519L230.679596,414.616638L230.71315,414.5979L230.748413,414.582703L230.785141,414.571136L230.822723,414.563354L230.860901,414.559479L230.880585,414.55899L233.396698,414.55899L233.473923,414.556183L233.532898,414.549133L233.583359,414.538544L233.624588,414.525299L233.657425,414.510468L233.68454,414.494171L233.708008,414.4758L233.728683,414.455017L233.747772,414.430084L233.767227,414.397614L233.78595,414.356628L233.802734,414.307251L233.817444,414.24707L233.828644,414.177643L233.83606,414.095062L233.83873,413.997284L233.83873,404.555115L225.036316,395.787262L225.010544,395.758789L224.987793,395.727905L224.968231,395.694824L224.952057,395.659943L224.939529,395.623688L224.930771,395.586243L224.925781,395.548187L224.924683,395.518402L224.924683,394.140015L224.926636,394.101593L224.932465,394.063629L224.942078,394.026428L224.955338,393.990448L224.972229,393.955902L224.992538,393.923309L225.016144,393.892914L225.042526,393.865051L225.071716,393.840027L225.10321,393.818115L225.136765,393.799408L225.172028,393.78421L225.208755,393.772644L225.246338,393.764862L225.284515,393.760986L225.304214,393.760498L227.72316,393.760498L225.769104,391.813721L225.743317,391.785278L225.720459,391.754395L225.701004,391.721313L225.686905,391.691406L225.483337,391.205231L225.470322,391.169098L225.460968,391.131897L225.45549,391.093842L225.453903,391.05542L225.456223,391.01709L225.462296,390.979156L225.472275,390.942078L225.479324,390.921997L225.682892,390.394623L225.698578,390.359589L225.717667,390.326141L225.740051,390.295013L225.777985,390.253906L225.844131,390.192139L225.864807,390.174133L225.930969,390.120758L225.955032,390.102875L226.021194,390.057648L226.049896,390.039886L226.116043,390.002808L226.150574,389.985657L226.216736,389.95697L226.254547,389.942871L226.320709,389.92218L226.364594,389.911255L226.430756,389.898956L226.476349,389.893372L226.542511,389.889221L226.589935,389.889221L226.656082,389.893372zM226.037048,390.531036L225.833374,391.058441L226.037048,391.544617L228.641876,394.13974L225.304153,394.13974L225.304153,395.518219L234.218277,404.397186L234.218277,414.005402C234.218277,414.62735,233.947311,414.938324,233.40416,414.938324L230.880554,414.938324L230.880554,416.802979L239.632217,416.802979L239.632217,414.938324L237.068008,414.938324C236.579407,414.938324,236.335114,414.62735,236.335114,414.005402L236.335114,404.397186L245.167999,395.518219L245.167999,394.13974L230.718094,394.13974L227.094864,390.531036C226.742661,390.180054,226.389862,390.180054,226.037048,390.531036zM234.015198,401.356506C233.499329,401.356506,233.03801,401.166748,232.631256,400.788483C232.251175,400.382935,232.060822,399.910126,232.060822,399.369385C232.060822,398.801971,232.251175,398.329163,232.631256,397.950897C233.03801,397.572021,233.499329,397.382874,234.015198,397.382874C234.585022,397.382874,235.059677,397.572021,235.439758,397.950897C235.819244,398.329163,236.009583,398.801971,236.009583,399.369385C236.009583,399.910126,235.819244,400.382935,235.439758,400.788483C235.059677,401.166748,234.585022,401.356506,234.015198,401.356506zM233.860382,397.770233L233.710556,397.791779L233.566101,397.827148L233.427475,397.876282L233.289078,397.941101L233.153976,398.020874L233.022034,398.115967L232.895203,398.224792L232.790756,398.338989L232.697479,398.464111L232.619781,398.594116L232.556183,398.731171L232.506317,398.876343L232.470078,399.031036L232.448196,399.194458L232.440765,399.368835L232.448074,399.534119L232.469955,399.692322L232.505951,399.843109L232.556183,399.988068L232.620865,400.128754L232.700516,400.265076L232.796097,400.398468L232.900192,400.519348L233.021423,400.623322L233.153488,400.718414L233.289688,400.798798L233.426971,400.863251L233.565979,400.912354L233.710922,400.94812L233.860382,400.969513L234.016754,400.976807L234.190781,400.969391L234.356628,400.947388L234.5112,400.911407L234.658463,400.861298L234.795624,400.798187L234.926361,400.720734L235.052582,400.627197L235.167007,400.523712L235.27475,400.398468L235.369843,400.265564L235.449615,400.128876L235.514313,399.98819L235.564529,399.843109L235.600525,399.692322L235.622406,399.534119L235.629715,399.368835L235.622284,399.194458L235.600403,399.031036L235.564163,398.876343L235.514313,398.731171L235.450592,398.59375L235.373367,398.464233L235.279984,398.338989L235.171387,398.220062L235.052338,398.112183L234.926483,398.018921L234.796112,397.941711L234.657974,397.878235L234.510834,397.828125L234.357376,397.792511L234.190781,397.770355L234.016754,397.762939L233.860382,397.770233z"/>
</svg>
