<?xml version="1.0" encoding="UTF-8"?>
<svg xmlns="http://www.w3.org/2000/svg" xmlns:xlink="http://www.w3.org/1999/xlink" width="18.958mm" height="27.829mm" viewBox="-489.758118 422.532654 18.958191 27.829163">
    <path transform="matrix(-1,0,0,1,0,0)" style="stroke:none;fill:#000000;fill-rule:evenodd" d="M483.186523,422.534607L483.224426,422.540436L483.261658,422.550049L483.297668,422.563293L483.332214,422.5802L483.364746,422.600525L483.395203,422.624115L483.423035,422.650482L483.447571,422.679077L483.996643,423.384247L484.00354,423.393494L484.024963,423.422668L484.033447,423.42926L484.0849,423.453827L484.201172,423.489807L484.218567,423.495758L484.649414,423.652405L484.684753,423.667236L484.718567,423.685699L484.750183,423.707489L484.779541,423.732269L484.798584,423.751617L485.268738,424.260895L485.293396,424.290436L485.314819,424.322296L485.333069,424.35611L485.347656,424.391632L485.358582,424.428467L485.365906,424.466156L485.369141,424.504456L485.368713,424.542908L485.364197,424.581085L485.355896,424.61853L485.343994,424.654999L485.328308,424.690155L485.309204,424.72348L485.286865,424.75473L485.261414,424.783539L485.233215,424.80957L485.202576,424.832672L485.169617,424.852631L485.134949,424.869049L485.098694,424.881927L485.061401,424.891052L485.023315,424.896393L484.989868,424.897858L479.426025,424.897858L479.387573,424.895905L479.34967,424.890076L479.312439,424.880463L479.276428,424.867218L479.241943,424.850311L479.209351,424.829987L479.178955,424.806396L479.151062,424.780029L479.126038,424.750824L479.104126,424.71933L479.085388,424.685791L479.07019,424.650513L479.058655,424.6138L479.050903,424.576202L479.046997,424.538025L479.046997,424.499603L479.050781,424.461304L479.058411,424.423737L479.069946,424.386993L479.085022,424.351746L479.103638,424.318054L479.125549,424.28656L479.15509,424.252502L479.308777,424.095886L479.321472,424.083588L479.468933,423.946564L479.484741,423.932678L479.62616,423.815216L479.64624,423.799652L479.781616,423.701752L479.807007,423.684845L479.936157,423.606415L479.969604,423.58844L480.092529,423.529694L480.135193,423.512299L480.252075,423.473022L480.306946,423.459045L480.331482,423.454651L480.681824,423.199768L481.142578,422.816376L481.173218,422.793274L481.206177,422.773438L481.240967,422.757019L481.277222,422.744263L481.314514,422.73526L481.3526,422.729919L481.39093,422.728577L481.419617,422.730133L481.833069,422.767731L482.088318,422.767731L482.367249,422.643799L482.403137,422.629944L482.440125,422.619843L482.46759,422.614868L483.015991,422.536438L483.069763,422.532654L483.148071,422.532654L483.186523,422.534607zM484.990326,424.518494L484.520233,424.009247L484.089325,423.852539C483.880035,423.800507,483.749634,423.722137,483.697571,423.617493L483.14859,422.912354L483.070221,422.912354L482.52179,422.990692L482.16922,423.1474L481.81665,423.1474L481.385742,423.108215L480.91507,423.499969L480.484161,423.813354C480.197052,423.839661,479.844482,424.074707,479.426453,424.518494L484.990326,424.518494z"/>
    <path transform="matrix(-1,0,0,1,0,0)" style="stroke:none;fill:#000000;fill-rule:evenodd" d="M486.478333,425.080994L486.516235,425.086823L486.553467,425.096436L486.589478,425.10968L486.624023,425.126587L486.656616,425.146912L486.687012,425.170502L486.714844,425.196869L486.739868,425.226074L486.76178,425.257568L486.780518,425.291138L486.795715,425.326385L486.807251,425.363098L486.815063,425.400696L486.819153,425.443359L486.823425,425.549408L486.822815,425.589783L486.81604,425.692047L486.810791,425.734619L486.792908,425.833221L486.782715,425.875427L486.753967,425.970276L486.738647,426.011993L486.698914,426.10318L486.679077,426.142334L486.628235,426.229797L486.605896,426.263947L486.586182,426.29071L486.607239,426.385681L486.613281,426.421295L486.628601,426.546204L486.631409,426.5867L486.63324,426.706726L486.631409,426.750366L486.619873,426.865417L486.612183,426.911621L486.587158,427.02179L486.573547,427.068237L486.534973,427.173431L486.515381,427.217804L486.463379,427.318024L486.443909,427.351105L486.430176,427.370789L486.162781,427.727203L486.190979,428.093964L486.191956,428.132385L486.189026,428.170685L486.182312,428.208527L486.171753,428.245361L486.157654,428.281128L486.139893,428.315155L486.118713,428.34726L486.094543,428.377075L486.067444,428.404297L486.037598,428.428619L486.005615,428.449768L485.971619,428.467651L485.935974,428.481995L485.898987,428.492584L485.861206,428.49939L485.812561,428.502563L478.681091,428.502563L478.642639,428.50061L478.604736,428.494781L478.567505,428.485168L478.531494,428.471924L478.496948,428.455017L478.464417,428.434692L478.43396,428.411102L478.406128,428.384735L478.381104,428.35553L478.359192,428.324036L478.340454,428.290466L478.325256,428.255219L478.313721,428.218475L478.305908,428.180908L478.302063,428.142731L478.302063,428.104309L478.305786,428.06601L478.313477,428.028412L478.325012,427.991699L478.340088,427.956421L478.358704,427.92276L478.380615,427.891266L478.392883,427.876068L478.59668,427.638306L478.423401,426.494751L478.419617,426.456573L478.419617,426.418152L478.423889,426.378021L478.580505,425.398621L478.588562,425.361053L478.60022,425.324432L478.615662,425.289307L478.634521,425.255737L478.656616,425.224365L478.681824,425.195435L478.709778,425.169159L478.740295,425.145813L478.77301,425.12561L478.807678,425.108948L478.843811,425.095825L478.880981,425.086334L478.919067,425.08075L478.955322,425.079041L486.43988,425.079041L486.478333,425.080994zM478.95578,425.458679L478.799103,426.438049L478.994965,427.731384L479.034149,427.848907L478.916626,427.848907L478.68158,428.123108L485.812988,428.123108L485.773834,427.613861L486.126953,427.143188C486.283661,426.882416,486.296539,426.569,486.166138,426.203003C486.374878,425.994263,486.466095,425.746338,486.440369,425.458679L478.95578,425.458679"/>
    <path transform="matrix(-1,0,0,1,0,0)" style="stroke:none;fill:#000000;fill-rule:evenodd" d="M485.811829,428.685577L485.849731,428.691406L485.886963,428.701019L485.922974,428.714264L485.957458,428.731171L485.990051,428.751465L486.020508,428.775085L486.04834,428.801453L486.073364,428.830658L486.095276,428.862152L486.114014,428.895691L486.129211,428.930969L486.140747,428.967682L486.148499,429.00528L486.152405,429.043457L486.152405,429.081879L486.148621,429.120178L486.140991,429.157745L486.130432,429.192047L485.621155,430.602295L485.606201,430.637665L485.590881,430.666504L485.489197,430.838562L485.478149,430.856079L485.369141,431.019379L485.356995,431.036652L485.240784,431.191467L485.227234,431.208496L485.103699,431.354767L485.088745,431.371307L484.957764,431.509094L484.941589,431.525146L484.843628,431.616577L484.852844,431.653076L484.858459,431.691132L484.860107,431.729553L484.857971,431.767853L484.851868,431.805786L484.842041,431.842896L484.828369,431.878876L484.811401,431.9133L484.790833,431.94577L484.76709,431.975922L484.740479,432.003662L484.711182,432.028442L484.679565,432.050232L484.645752,432.068695L484.610352,432.083679L484.573608,432.094971L484.536072,432.102509L484.480591,432.106537L471.784668,432.106537L471.746277,432.104584L471.708313,432.098755L471.671143,432.089142L471.635132,432.075897L471.600586,432.05899L471.567993,432.038666L471.537598,432.015076L471.509766,431.988678L471.48468,431.959503L471.46283,431.928009L471.444092,431.89444L471.428894,431.859192L471.417297,431.822449L471.409546,431.784882L471.40564,431.746704L471.40564,431.708282L471.409424,431.669983L471.417114,431.632385L471.42865,431.595673L471.443726,431.560394L471.462341,431.526733L471.484192,431.495239L471.509155,431.466034L471.536987,431.439423L471.566162,431.416656L473.290527,430.202332L473.322998,430.181915L473.352783,430.16684L473.766602,429.979919L473.786804,429.971405L474.225159,429.803101L474.244141,429.796417L474.70697,429.646362L474.72522,429.641022L475.212585,429.50943L475.229492,429.50531L475.741333,429.39209L475.757263,429.388916L476.29364,429.294067L476.308472,429.291656L476.869324,429.215271L476.883057,429.213684L477.468445,429.155579L477.489502,429.154114L478.422913,429.113617L478.421204,429.103027L478.419128,429.064728L478.420959,429.026306L478.426575,428.988373L478.436035,428.951141L478.449158,428.915039L478.465942,428.880493L478.486145,428.847778L478.509521,428.817261L478.535889,428.789307L478.564941,428.76413L478.596313,428.742004L478.629883,428.723267L478.665039,428.707947L478.70166,428.696136L478.739197,428.688232L478.777527,428.684235L478.798645,428.683624L485.773376,428.683624L485.811829,428.685577zM479.308929,429.455048L477.506348,429.533386C475.912506,429.663788,474.580566,429.990051,473.50943,430.512756L471.785187,431.727173L484.481079,431.727173L484.246033,431.60965C484.664063,431.321991,485.003204,430.943665,485.264557,430.473572L485.773834,429.063293L478.799103,429.063293L479.308929,429.455048z"/>
    <path transform="matrix(-1,0,0,1,0,0)" style="stroke:none;fill:#000000;fill-rule:evenodd" d="M485.772644,432.289673L485.810608,432.295502L485.847778,432.305115L485.883789,432.318359L485.918335,432.335266L485.950928,432.35556L485.981323,432.37915L486.003479,432.399719L486.25946,432.657379L486.271606,432.670166L486.510437,432.933929L486.522339,432.947784L486.744019,433.217621L486.755676,433.232574L486.960205,433.508606L486.971558,433.524658L487.158813,433.806915L487.169373,433.823822L487.339661,434.112152L487.349487,434.130005L487.502563,434.424408L487.511719,434.443268L487.566528,434.564636L487.567383,434.564758L487.640381,434.578735L487.677551,434.58786L487.720032,434.603302L487.789185,434.633331L487.823608,434.65036L487.856201,434.670898L487.921631,434.716888L487.951904,434.740601L487.971863,434.759064L488.03363,434.820831L488.069397,434.862061L488.127502,434.93988L488.151489,434.976135L488.205933,435.069763L488.222229,435.101257L488.272949,435.210815L488.287415,435.24646L488.297974,435.283417L488.304932,435.321136L488.307983,435.359436L488.307129,435.397858L488.302368,435.436035L488.293884,435.47348L488.281433,435.509857L488.265503,435.544861L488.246216,435.577942L488.223572,435.60907L488.197937,435.637665L488.169434,435.663544L488.13855,435.68631L488.105591,435.705994L488.07074,435.722168L488.034485,435.734711L487.997009,435.743561L487.958984,435.748566L487.928589,435.749786L472.255432,435.749786L472.21698,435.747833L472.179077,435.742004L472.141846,435.732391L472.105835,435.719116L472.071289,435.70224L472.038696,435.681915L472.008301,435.658325L471.986694,435.638275L471.840149,435.491364L471.830078,435.480896L471.694336,435.334015L471.684265,435.322571L471.559143,435.17569L471.548523,435.162659L471.434204,435.015778L471.423645,435.001556L471.319946,434.854645L471.309204,434.838593L471.216309,434.691711L471.205872,434.674194L471.123657,434.527283L471.113708,434.508087L471.042175,434.361176L471.032715,434.340271L470.971863,434.193359L470.963379,434.170746L470.913269,434.023865L470.905884,433.999542L470.866455,433.852509L470.860596,433.826965L470.831909,433.680084L470.827698,433.653198L470.809814,433.506317L470.807495,433.478943L470.800293,433.332062L470.799927,433.304443L470.803467,433.157562L470.805054,433.130066L470.819275,432.983154L470.826599,432.937317L470.905029,432.584808L470.915222,432.547821L470.929199,432.511963L470.946716,432.477783L470.967529,432.445435L470.991455,432.415527L471.018494,432.388031L471.048035,432.363464L471.079895,432.342072L471.113708,432.323944L471.14917,432.309357L471.186035,432.298431L471.223877,432.291229L471.275513,432.28772L485.734253,432.28772L485.772644,432.289673zM471.197571,433.019928C471.092926,433.803406,471.446045,434.586914,472.255859,435.370392L487.928986,435.370392C487.798584,435.057007,487.629028,434.913177,487.419708,434.939484L487.302185,434.939484L487.302185,434.900299C486.962494,434.090515,486.440369,433.346191,485.73465,432.667358L471.275909,432.667358L471.197571,433.019928zM475.272827,433.607544L475.076965,433.764252L474.606873,433.803406L474.528534,433.21579L475.860443,432.784882L475.782104,433.137451L475.429535,433.372498L475.272827,433.607544z"/>
    <path transform="matrix(-1,0,0,1,0,0)" style="stroke:none;fill:#000000;fill-rule:evenodd" d="M488.59436,435.893646L488.632263,435.899475L488.634827,435.900085L488.654541,435.896057L488.692871,435.892181L488.712524,435.891693L488.947632,435.891693L488.986023,435.893646L489.023987,435.899475L489.061157,435.909088L489.097168,435.922333L489.131714,435.93924L489.164307,435.959534L489.190552,435.979614L489.425598,436.175507L489.453857,436.20166L489.47937,436.230347L489.50177,436.261597L489.520813,436.294922L489.53656,436.329956L489.544922,436.353912L489.740845,436.980774L489.750427,437.017975L489.756165,437.055908L489.758118,437.09436L489.756165,437.13266L489.749451,437.174622L489.553528,438.075562L489.543457,438.112671L489.529724,438.148529L489.512451,438.182831L489.498474,438.205444L489.341858,438.440491L489.327759,438.460205L489.286621,438.514069L489.251099,438.554443L489.20636,438.59848L489.177673,438.623993L489.159546,438.637634L489.111145,438.671906L489.078796,438.692474L489.053162,438.705719L489.001099,438.730164L488.965454,438.744751L488.935913,438.753754L488.880249,438.768341L488.842651,438.776245L488.815796,438.779419L488.75647,438.784393L488.71814,438.785736L488.695496,438.784637L488.632507,438.779785L488.579895,438.772003L488.513245,438.757294L488.48114,438.748413L488.475647,438.75473L488.460938,438.769196L488.373291,438.850677L488.343811,438.875366L488.32489,438.888855L488.226379,438.954285L488.193298,438.973846L488.172729,438.983948L488.063049,439.033569L488.027283,439.047546L488.008728,439.053253L487.888062,439.086945L487.837097,439.097534L487.705444,439.115417L487.667114,439.118561L487.628662,439.11795L487.607178,439.115875L487.091919,439.051453L487.084167,439.05484L487.047546,439.06665L487.010071,439.074799L486.971924,439.079041L486.930298,439.079163L486.695862,439.067505L486.658508,439.063843L486.425293,439.028931L486.389282,439.021759L486.157288,438.963654L486.12323,438.95343L485.892456,438.87207L485.861328,438.859436L485.631592,438.75473L485.603516,438.740509L485.375122,438.612579L485.350342,438.597382L485.123169,438.446228L485.101379,438.430664L484.875488,438.256165L484.855286,438.23938L484.671509,438.075928L484.656677,438.062073L484.477905,437.885132L484.464661,437.871399L484.290771,437.680969L484.27887,437.667236L484.109985,437.463409L484.099243,437.449799L483.935242,437.232483L483.925598,437.21936L483.766541,436.988678L483.758179,436.9758L483.603943,436.731598L483.596558,436.71933L483.447083,436.461517L483.429443,436.427338L483.415466,436.391602L483.405151,436.354645L483.39856,436.316803L483.395935,436.278381L483.397095,436.240082L483.402222,436.202026L483.411255,436.164551L483.423889,436.128326L483.440063,436.093536L483.459717,436.060486L483.482605,436.029694L483.508606,436.001251L483.537231,435.975708L483.568359,435.953094L483.601563,435.933899L483.636536,435.917969L483.672913,435.905792L483.710388,435.897278L483.748535,435.89267L483.775452,435.891693L488.555908,435.891693L488.59436,435.893646zM488.94809,436.271393L488.713043,436.271393L488.477997,436.545624L488.556335,436.271393L483.77594,436.271393C484.167664,436.976532,484.611481,437.537872,485.107849,437.955902C485.708923,438.452301,486.322845,438.700226,486.949615,438.700226L487.027985,438.661041L487.654755,438.73938C488.020752,438.713104,488.268677,438.517212,488.399628,438.151764L488.59552,438.38681C488.777954,438.438873,488.921783,438.38681,489.026428,438.230133L489.183136,437.995087L489.378998,437.094055L489.183136,436.467285L488.94809,436.271393z"/>
    <path transform="matrix(-1,0,0,1,0,0)" style="stroke:none;fill:#000000;fill-rule:evenodd" d="M483.029907,435.893646L483.06781,435.899475L483.105042,435.909088L483.141052,435.922333L483.175537,435.93924L483.20813,435.959534L483.238525,435.983124L483.266418,436.009521L483.291443,436.038696L483.313354,436.07019L483.332092,436.10376L483.34729,436.139038L483.358826,436.175751L483.366577,436.213318L483.370483,436.251526L483.370483,436.289948L483.366699,436.328247L483.35907,436.365814L483.347534,436.402557L483.332458,436.437805L483.313843,436.471497L483.288879,436.506989L481.643005,438.583252L481.613953,438.615845L481.387634,438.842163L481.396973,438.869751L481.405762,438.907227L481.410583,438.945282L481.41156,438.983704L481.40863,439.022003L481.401978,439.059845L481.391418,439.096802L481.377136,439.132538L481.359436,439.166595L481.338379,439.1987L481.314026,439.228485L481.286926,439.255615L481.257263,439.279938L481.225159,439.301208L481.191101,439.31897L481.155457,439.333313L481.11853,439.343903L481.080688,439.350708L481.032166,439.353882L472.803833,439.353882L472.765442,439.351929L472.727478,439.3461L472.690247,439.336487L472.654297,439.323212L472.619751,439.306335L472.587158,439.286011L472.556763,439.262421L472.528931,439.236023L472.503845,439.206848L472.481995,439.175354L472.463257,439.141785L472.448059,439.106537L472.436462,439.069794L472.428711,439.032227L472.424805,438.994049L472.424805,438.955627L472.428589,438.917297L472.436218,438.87973L472.447815,438.843018L472.470276,438.793274L473.210754,437.429138L473.247803,437.355072L473.266785,437.321625L473.281738,437.299744L473.504395,436.997559L473.452515,436.970795L473.415649,436.949158L473.310303,436.878754L473.278259,436.854675L473.177795,436.770874L473.149841,436.745117L473.054382,436.647705L473.031616,436.622284L472.94104,436.511505L472.918274,436.480499L472.898682,436.447418L472.882507,436.412628L472.870117,436.376282L472.861389,436.338837L472.856384,436.300751L472.855408,436.262329L472.858215,436.22403L472.864868,436.186218L472.875366,436.149231L472.889587,436.113495L472.907349,436.079437L472.928406,436.047333L472.952576,436.017426L472.979675,435.990173L473.009338,435.965851L473.041321,435.944702L473.075378,435.926819L473.111023,435.912476L473.14801,435.901794L473.185669,435.894836L473.234802,435.891693L482.991455,435.891693L483.029907,435.893646zM481.032593,438.974426L480.875916,438.817749L481.346008,438.347656L482.991882,436.271393L473.235199,436.271393C473.470245,436.584808,473.757904,436.754364,474.097046,436.78067L474.13623,436.78067L473.587769,437.524994L473.548615,437.603333L472.804291,438.974426L481.032593,438.974426z"/>
    <path transform="matrix(-1,0,0,1,0,0)" style="stroke:none;fill:#000000;fill-rule:evenodd" d="M482.128784,439.536896L482.166748,439.542725L482.203918,439.552338L482.239929,439.565582L482.274475,439.582489L482.307068,439.602783L482.34613,439.634033L482.527039,439.799072L482.532654,439.804169L482.703247,439.966156L482.709229,439.971985L482.869385,440.130798L482.875671,440.137238L483.025391,440.292999L483.032288,440.300323L483.17157,440.453033L483.178589,440.46106L483.307495,440.610779L483.315063,440.619873L483.433472,440.766418L483.44165,440.776764L483.549744,440.92038L483.558105,440.931915L483.655762,441.072357L483.664551,441.085754L483.751709,441.223175L483.760742,441.238007L483.837585,441.372375L483.84668,441.389282L483.913208,441.520477L483.922546,441.540314L483.978516,441.668488L483.987122,441.690125L484.032837,441.815369L484.041016,441.840546L484.076172,441.962646L484.083069,441.990112L484.10791,442.109161L484.113708,442.147095L484.115784,442.186615L484.115784,442.539154L484.113831,442.577576L484.108032,442.615509L484.098389,442.65274L484.085144,442.688721L484.068237,442.723267L484.047974,442.755859L484.024353,442.786255L483.997986,442.814117L483.96875,442.839142L483.937256,442.861053L483.903748,442.879761L483.868469,442.894958L483.831726,442.906525L483.794128,442.914307L483.755981,442.918182L483.736267,442.918671L473.31311,442.918671L473.274719,442.916748L473.236755,442.910889L473.199524,442.901306L473.163574,442.888031L473.129028,442.871124L473.096436,442.85083L473.06604,442.82724L473.038208,442.800842L473.013123,442.771667L472.991272,442.740173L472.972534,442.706604L472.953796,442.661377L472.287781,440.702698L472.277283,440.665741L472.270508,440.627899L472.267578,440.580475L472.267578,439.914459L472.269531,439.876038L472.275391,439.838104L472.284973,439.800873L472.298218,439.764893L472.315125,439.730347L472.335449,439.697754L472.359009,439.667358L472.385437,439.639526L472.414612,439.614471L472.446106,439.59259L472.479675,439.573853L472.514893,439.558655L472.551636,439.547089L472.589233,439.539307L472.62738,439.535431L472.647095,439.534943L482.090393,439.534943L482.128784,439.536896zM483.736755,442.539307L483.736755,442.186737C483.632111,441.559967,483.083649,440.802765,482.090881,439.914612L472.647583,439.914612L472.647583,440.580597L473.313568,442.539307L483.736755,442.539307z"/>
    <path transform="matrix(-1,0,0,1,0,0)" style="stroke:none;fill:#000000;fill-rule:evenodd" d="M483.617493,443.101807L483.655396,443.107666L483.692627,443.117249L483.728638,443.130524L483.763123,443.14743L483.795715,443.167725L483.826111,443.191315L483.854004,443.217712L483.879028,443.246887L483.90094,443.278381L483.919678,443.311951L483.934875,443.347198L483.946411,443.383942L483.954163,443.421509L483.958069,443.459686L483.958069,443.498138L483.954285,443.536438L483.943115,443.586517L483.747192,444.252441L483.741882,444.26947L483.036804,446.307159L483.022339,446.342804L483.004456,446.37674L482.983154,446.408722L482.958862,446.438385L482.931641,446.465485L482.901733,446.489685L482.869629,446.510742L482.835449,446.528381L482.799683,446.54248L482.762695,446.552917L482.724915,446.559631L482.678101,446.562531L478.877014,446.562531L478.838562,446.560608L478.800598,446.554749L478.763428,446.545135L478.727417,446.531891L478.692871,446.514984L478.660278,446.49469L478.629883,446.4711L478.602051,446.444702L478.576965,446.415527L478.555115,446.384033L478.536377,446.350464L478.521179,446.315186L478.509644,446.278473L478.501831,446.240906L478.497925,446.202698L478.497925,446.164276L478.501709,446.125977L478.509399,446.088409L478.516907,446.062866L479.06427,444.422058L479.17688,444.04657L479.330811,443.392456L479.341492,443.355469L479.355835,443.319855L479.373718,443.285919L479.39502,443.253815L479.419312,443.224152L479.446594,443.197021L479.476379,443.172821L479.508606,443.151794L479.542664,443.134155L479.578369,443.119934L479.615356,443.109467L479.653198,443.102783L479.700256,443.099884L483.579041,443.099884L483.617493,443.101807zM483.383636,444.145477L483.579498,443.479492L479.700684,443.479492L479.543976,444.145477L479.426453,444.537201L478.877441,446.183105L482.678497,446.183105L483.383636,444.145477z"/>
    <path transform="matrix(-1,0,0,1,0,0)" style="stroke:none;fill:#000000;fill-rule:evenodd" d="M478.641174,443.101807L478.679138,443.107666L478.71637,443.117249L478.752319,443.130524L478.786865,443.14743L478.819458,443.167725L478.849854,443.191315L478.877747,443.217712L478.902771,443.246887L478.924683,443.278381L478.943359,443.311951L478.958557,443.347198L478.970154,443.383942L478.977905,443.421509L478.981812,443.459686L478.981812,443.498138L478.979736,443.523773L478.901428,444.189697L478.895569,444.224823L478.778015,444.773254L478.768005,444.810486L478.754395,444.846344L478.739075,444.877228L477.916443,446.366516L477.896118,446.399231L477.872803,446.429626L477.846252,446.457458L477.8172,446.482635L477.785706,446.504669L477.752258,446.523376L477.71698,446.538574L477.680298,446.55014L477.6427,446.558044L477.604553,446.562042L477.584229,446.562531L472.529663,446.562531L472.491211,446.560608L472.453247,446.554749L472.416077,446.545135L472.380066,446.531891L472.34552,446.514984L472.312927,446.49469L472.282532,446.4711L472.2547,446.444702L472.229614,446.415527L472.207764,446.384033L472.189026,446.350464L472.173828,446.315186L472.162292,446.278473L472.15448,446.240906L472.150574,446.202698L472.150574,446.164276L472.154358,446.125977L472.162048,446.088409L472.173584,446.051666L472.18866,446.016418L472.21228,445.974823L473.031494,444.725708L473.497009,443.950012L473.518738,443.917542L473.567749,443.852234L473.460388,443.731598L473.43634,443.701691L473.415405,443.669464L473.397888,443.635162L473.383911,443.599426L473.373596,443.562439L473.367126,443.524506L473.364441,443.486206L473.365784,443.447784L473.370911,443.409729L473.379761,443.372375L473.392517,443.336151L473.408813,443.301361L473.428528,443.268402L473.451538,443.237518L473.477417,443.209198L473.506104,443.183655L473.537231,443.161163L473.570435,443.141815L473.605469,443.126007L473.641846,443.113861L473.679382,443.105347L473.717468,443.100708L473.743958,443.099884L478.602783,443.099884L478.641174,443.101807zM478.407349,444.693909L478.524872,444.145477L478.60321,443.479492L473.744476,443.479492L474.057861,443.832062L473.822815,444.145477L473.352722,444.928955L472.53006,446.183105L477.584686,446.183105L478.407349,444.693909z"/>
    <path transform="matrix(-1,0,0,1,0,0)" style="stroke:none;fill:#000000;fill-rule:evenodd" d="M483.264954,446.745544L483.302856,446.751404L483.340088,446.760986L483.378296,446.775238L483.510925,446.833099L483.51532,446.835052L483.639221,446.890991L483.645081,446.893677L483.76001,446.947906L483.765808,446.950806L483.871887,447.003113L483.879272,447.006866L483.97644,447.057465L483.984253,447.061493L484.072632,447.110107L484.082336,447.115723L484.161743,447.162537L484.173218,447.169586L484.243713,447.214569L484.25647,447.223083L484.318298,447.266144L484.335388,447.278778L484.388184,447.320129L484.40802,447.336792L484.451904,447.376312L484.475647,447.399658L484.510742,447.437347L484.53949,447.472137L484.565613,447.507874L484.586792,447.539978L484.597107,447.558716L484.614502,447.592651L484.630188,447.627655L484.643677,447.668884L484.652222,447.701111L484.660095,447.738678L484.664124,447.776886L484.664734,447.804108L484.664246,447.834381L484.661682,447.872711L484.655212,447.910645L484.64502,447.947601L484.631042,447.98349L484.613647,448.017639L484.592834,448.049988L484.568787,448.080017L484.553101,448.09668L484.239685,448.410065L484.211243,448.435852L484.180237,448.458588L484.147156,448.478027L484.112244,448.49408L484.075928,448.5065L484.037964,448.515381L482.940491,448.711273L482.902466,448.716034L482.864014,448.71698L482.828979,448.714447L481.183228,448.518524L481.136169,448.509888L480.97937,448.470734L480.933777,448.456268L480.564392,448.312653L480.560364,448.319092L480.536865,448.349518L480.510376,448.37735L480.481323,448.402405L480.449829,448.424408L480.41626,448.443146L480.380981,448.458344L480.344238,448.469757L480.306702,448.47757L480.250732,448.482056L480.052429,448.483154L480.017273,448.481689L479.833618,448.465637L479.793762,448.460052L479.624878,448.426971L479.580322,448.415405L479.426025,448.365204L479.378723,448.3461L479.239258,448.278839L479.191345,448.251373L479.066467,448.16687L479.022034,448.131714L478.911865,448.030304L478.873352,447.989197L478.777771,447.870514L478.755249,447.839386L478.735901,447.806183L478.720093,447.771149L478.707825,447.73468L478.699463,447.697235L478.695435,447.667175L478.680969,447.510193L478.606689,447.495361L478.569458,447.48587L478.533325,447.472748L478.498779,447.455963L478.466064,447.435883L478.435547,447.412537L478.407471,447.386292L478.382324,447.357208L478.360168,447.325836L478.341309,447.292389L478.325989,447.257141L478.314209,447.220551L478.306274,447.182953L478.302185,447.144775L478.301941,447.106354L478.305542,447.068176L478.312988,447.030457L478.32428,446.993744L478.339233,446.958252L478.357605,446.924561L478.379395,446.892944L478.404175,446.863617L478.431824,446.836884L478.462097,446.813171L478.494568,446.792603L478.528809,446.775452L478.564819,446.761841L478.601929,446.751984L478.639832,446.745789L478.681091,446.743591L483.226501,446.743591L483.264954,446.745544zM480.366638,447.82843L481.071777,448.102661L481.228485,448.141815L482.874359,448.337708L483.971802,448.141815L484.285187,447.82843C484.310944,447.671722,483.958374,447.436676,483.226929,447.123291L478.68158,447.123291L478.877441,447.162476L479.034149,447.20163L479.073883,447.632568C479.308929,447.97168,479.700684,448.128387,480.249115,448.102661L480.366638,447.82843z"/>
    <path transform="matrix(-1,0,0,1,0,0)" style="stroke:none;fill:#000000;fill-rule:evenodd" d="M476.878296,446.745544L476.91626,446.751404L476.95343,446.760986L476.989441,446.774261L477.023987,446.791168L477.05658,446.811462L477.086975,446.835052L477.114807,446.86145L477.139893,446.890625L477.161743,446.922119L477.180481,446.955688L477.195679,446.990936L477.207275,447.027679L477.215027,447.065247L477.218933,447.103424L477.218933,447.141846L477.215149,447.180176L477.20752,447.217743L477.195923,447.254456L477.180847,447.289734L477.162231,447.323425L477.140381,447.354919L477.115417,447.384094L477.09137,447.40744L476.327698,448.082703L476.992126,449.018921L477.009888,449.046295L477.080994,449.167419L477.090881,449.185181L477.147278,449.294128L477.158752,449.318329L477.200439,449.415009L477.213562,449.450256L477.240417,449.53479L477.252991,449.586212L477.265259,449.658447L477.269775,449.696625L477.270386,449.737488L477.267944,449.797455L477.264404,449.835632L477.256958,449.873322L477.246155,449.909302L477.229126,449.957092L477.214417,449.992615L477.196167,450.026428L477.174683,450.058289L477.154602,450.082733L477.122864,450.118225L477.095886,450.145599L477.066162,450.170044L477.03418,450.191315L477.000305,450.20932L476.948853,450.228882L476.556519,450.346497L476.519226,450.355591L476.48114,450.360962L476.426331,450.361816L476.315674,450.355591L476.278076,450.351593L476.161194,450.333221L476.128357,450.32666L476.00531,450.296021L475.977356,450.287872L475.848206,450.244934L475.824707,450.236298L475.689392,450.181213L475.669434,450.172333L475.528137,450.105103L475.51123,450.096588L475.363586,450.017059L475.348877,450.008789L475.19519,449.916992L475.16333,449.895569L475.144348,449.880493L473.886108,448.813293L473.770264,448.755432L473.736816,448.736572L473.705444,448.714325L473.676453,448.689148L473.650208,448.661041L473.624084,448.626404L473.435608,448.343658L473.419434,448.349274L473.38208,448.358154L473.343994,448.363251L473.31311,448.364471L473.273987,448.364471L473.235535,448.362518L473.197632,448.356689L473.1604,448.347076L473.12439,448.333832L473.075989,448.308777L472.927795,448.21817L472.902344,448.201141L472.77124,448.105682L472.74353,448.083435L472.6297,447.983002L472.601257,447.955139L472.504578,447.849823L472.476257,447.815063L472.396729,447.704773L472.371216,447.664032L472.308655,447.548981L472.287048,447.501801L472.241821,447.381897L472.226624,447.331329L472.198486,447.206543L472.191956,447.16861L472.18927,447.13031L472.190491,447.091888L472.195618,447.053802L472.20459,447.016479L472.217224,446.980255L472.233398,446.945343L472.253113,446.912384L472.276123,446.8815L472.302002,446.85318L472.330688,446.827637L472.361694,446.805023L472.394897,446.785797L472.429932,446.769867L472.466431,446.757721L472.503845,446.749207L472.541931,446.744568L472.568787,446.743591L476.839905,446.743591L476.878296,446.745544zM473.940338,448.416046L474.097046,448.494385L475.39035,449.591278C475.808411,449.852051,476.16098,449.983032,476.448059,449.983032L476.840363,449.865509C476.944458,449.78714,476.892426,449.57785,476.683105,449.238708L475.821289,448.024292L476.840363,447.123291L472.569244,447.123291C472.621277,447.462433,472.856323,447.750092,473.274384,447.985138L473.313568,447.985138L473.548615,447.82843L473.940338,448.416046z"/>
</svg>
