<?xml version="1.0" encoding="UTF-8"?>
<svg xmlns="http://www.w3.org/2000/svg" xmlns:xlink="http://www.w3.org/1999/xlink" width="23.069mm" height="22.021mm" viewBox="-461.082336 425.437164 23.069336 22.020508">
    <path transform="matrix(-1,0,0,1,0,0)" style="stroke:none;fill:#000000;fill-rule:evenodd" d="M449.527771,425.438873L449.565857,425.444336L449.603088,425.453705L449.63916,425.466827L449.673828,425.48349L449.706543,425.503571L449.737183,425.526917L449.765198,425.553192L449.790466,425.582123L449.812622,425.613495L449.832153,425.648285L453.202515,432.455048L460.759827,433.603943L460.797546,433.611725L460.834167,433.623169L460.869568,433.638245L460.903076,433.65686L460.934692,433.678741L460.963928,433.703674L460.990417,433.731506L461.013977,433.761932L461.034302,433.794373L461.051331,433.828918L461.064697,433.864929L461.074463,433.902008L461.080261,433.940063L461.082336,433.978363L461.080505,434.016815L461.074829,434.054749L461.065186,434.091949L461.051941,434.128082L461.035156,434.162598L461.014832,434.19519L460.991516,434.225708L460.966431,434.252228L455.47821,439.553894L456.782043,447.012848L456.786682,447.050903L456.787537,447.089325L456.784485,447.127625L456.777588,447.165436L456.766724,447.202301L456.75238,447.237915L456.734497,447.271851L456.713257,447.303955L456.688782,447.333618L456.66156,447.360626L456.631775,447.384827L456.599548,447.405853L456.565491,447.423492L456.529724,447.437714L456.492798,447.448181L456.454956,447.454742L456.416626,447.45755L456.378235,447.456451L456.340149,447.451569L456.302734,447.442719L456.266357,447.430176L456.231079,447.413879L449.493408,443.861359L442.866455,447.412659L442.831787,447.429077L442.795593,447.441864L442.75824,447.450989L442.720154,447.456207L442.681763,447.457672L442.643433,447.455109L442.60553,447.448792L442.568542,447.438568L442.532654,447.424835L442.498352,447.407318L442.466003,447.386658L442.435974,447.362701L442.408508,447.335815L442.383972,447.306274L442.362427,447.274536L442.344177,447.240601L442.32959,447.205078L442.318542,447.168365L442.31134,447.130554L442.307922,447.092377L442.308411,447.053925L442.312927,447.015381L443.562988,439.554016L438.127441,434.250885L438.10144,434.222687L438.078308,434.192017L438.05835,434.15921L438.041809,434.12442L438.028931,434.088318L438.019836,434.050964L438.014465,434.012909L438.013,433.974487L438.015442,433.936188L438.02179,433.898224L438.03186,433.861145L438.045593,433.825409L438.062866,433.791107L438.083679,433.758759L438.107483,433.728607L438.134277,433.701111L438.163818,433.676422L438.195557,433.654785L438.22937,433.636536L438.264832,433.621826L438.301575,433.610779L438.335266,433.604065L445.863037,432.455658L449.15033,425.65155L449.168701,425.617859L449.190491,425.586243L449.215393,425.556946L449.242981,425.530304L449.273254,425.506592L449.305725,425.486053L449.340149,425.468903L449.376038,425.455292L449.413147,425.445435L449.45105,425.439362L449.489502,425.437164L449.527771,425.438873zM446.118225,432.799988L438.392975,433.978516L443.970551,439.420166L442.687683,447.077484L449.492523,443.430725L456.408539,447.077484L455.070068,439.420166L460.703247,433.978516L452.950531,432.799988L449.492523,425.81601L446.118225,432.799988zM445.169647,438.99942L440.791199,434.735596L446.787476,433.83847L449.492523,428.368683L452.225006,433.83847L458.305023,434.735596L453.926575,438.99942L453.926575,439.532043L454.958191,445.001862L449.492523,442.196594L444.109863,445.001862L445.169647,438.99942M447.127197,434.007446L447.108521,434.040863L447.086365,434.072388L447.06134,434.10144L447.033325,434.127838L447.00293,434.151306L446.970215,434.171478L446.935669,434.188385L446.899597,434.201508L446.862366,434.211121L446.84314,434.214539L441.604004,434.998383L445.434021,438.72821L445.460022,438.756439L445.483276,438.787079L445.503174,438.819916L445.519592,438.854553L445.532654,438.890808L445.541748,438.928009L445.547241,438.966064L445.548706,439.004486L445.546265,439.042816L445.542969,439.066162L444.617065,444.309937L449.316711,441.860718L449.351624,441.844788L449.387939,441.832397L449.425415,441.823639L449.463501,441.818909L449.501892,441.817932L449.540222,441.820831L449.578003,441.827667L449.614868,441.838226L449.665344,441.85965L454.441101,444.310791L453.553101,439.603027L453.547913,439.564972L453.54657,439.532745L453.54657,439.000122L453.548523,438.9617L453.554321,438.923767L453.563965,438.886536L453.577209,438.850555L453.594116,438.81601L453.614441,438.783417L453.638,438.753021L453.661255,438.72821L457.489929,434.999847L452.169128,434.214661L452.131592,434.207123L452.094849,434.195801L452.059448,434.180847L452.025635,434.162354L451.994019,434.140594L451.964722,434.115784L451.93811,434.088074L451.914368,434.057892L451.885071,434.008789L449.493774,429.222198L447.127197,434.007446z"/>
</svg>
