<?xml version="1.0" encoding="UTF-8"?>
<svg xmlns="http://www.w3.org/2000/svg" xmlns:xlink="http://www.w3.org/1999/xlink" width="23.250mm" height="22.883mm" viewBox="-430.440979 425.006195 23.250122 22.882568">
    <path transform="matrix(-1,0,0,1,0,0)" style="stroke:none;fill:#000000;fill-rule:evenodd" d="M424.711029,425.009003L424.74884,425.015686L424.785828,425.026154L424.821564,425.040375L424.855621,425.058136L424.887695,425.079163L424.917633,425.103363L424.932465,425.117462L430.3302,430.526276L430.355988,430.554871L430.378723,430.585876L430.398193,430.618958L430.414124,430.653839L430.426514,430.690216L430.435303,430.727661L430.440002,430.765839L430.440979,430.804138L430.43808,430.842468L430.431274,430.88028L430.420685,430.917236L430.406464,430.952881L430.388702,430.986908L430.367554,431.019012L430.330322,431.062439L429.468292,431.926544L429.439697,431.952332L429.408813,431.975189L429.375732,431.994659L429.340851,432.010834L429.304504,432.023224L429.267151,432.031982L429.228973,432.036957L429.190674,432.037933L429.152222,432.035156L429.114441,432.028442L429.077454,432.017883L429.041809,432.003784L429.007751,431.986023L428.965698,431.95755L427.693726,430.96283L425.576477,433.084106L426.420776,434.211731L426.532288,434.23703L426.562805,434.2453L426.800049,434.320313L426.830811,434.331512L427.057495,434.425385L427.087769,434.439484L427.303741,434.552094L427.332581,434.568878L427.538208,434.700226L427.565552,434.719421L427.760498,434.869598L427.785278,434.890411L427.969757,435.059418L427.991882,435.081451L428.165649,435.269196L428.190247,435.298615L428.348572,435.508759L428.366455,435.534668L428.503479,435.751953L428.519531,435.779938L428.635559,436.004059L428.649658,436.034576L428.744507,436.265869L428.755798,436.297485L428.82962,436.535706L428.838257,436.56842L428.89093,436.81369L428.896362,436.846283L428.927887,437.098602L428.930542,437.130219L428.941132,437.389496L428.94101,437.421448L428.928131,437.716217L428.925079,437.750885L428.886536,438.033844L428.87973,438.070465L428.815277,438.341644L428.804443,438.378357L428.714355,438.637878L428.699646,438.674225L428.58374,438.921814L428.565369,438.95636L428.423706,439.192261L428.402313,439.224121L428.234741,439.448242L428.211395,439.47644L428.018158,439.688751L427.994446,439.712585L427.774353,439.91507L427.747833,439.937317L427.51825,440.112793L427.488098,440.133606L427.249146,440.282074L427.21582,440.300568L426.967499,440.42215L426.931274,440.437592L426.673584,440.532074L426.635773,440.543762L426.368591,440.611237L426.330933,440.618805L426.054504,440.659393L426.017151,440.663055L425.731262,440.676544L425.696014,440.676544L425.401367,440.663055L425.36499,440.659637L425.080933,440.619019L425.043732,440.611725L424.770264,440.54425L424.73291,440.532928L424.469879,440.438446L424.433533,440.423248L424.181091,440.301636L424.147156,440.283173L423.905273,440.134674L423.874634,440.113647L423.643097,439.938171L423.615845,439.915558L423.39502,439.713074L423.37085,439.688751L423.17749,439.47644L423.154114,439.44812L422.986694,439.223999L422.965271,439.192261L422.823608,438.95636L422.805237,438.921814L422.689362,438.674225L422.674652,438.638L422.584412,438.378479L422.573608,438.3414L422.509277,438.070221L422.502563,438.034088L422.463928,437.751129L422.460754,437.716095L422.451019,437.492859L414.511169,445.448517L414.482697,445.474304L414.451782,445.49704L414.412537,445.519775L414.232178,445.610138L414.205811,445.62204L414.002014,445.705353L413.979248,445.713867L413.751953,445.790222L413.732025,445.796326L413.481262,445.865509L413.464264,445.869751L413.190186,445.931915L413.175446,445.934937L412.877869,445.990143L412.864868,445.99234L412.543945,446.040375L412.532776,446.04184L412.21283,446.080017L410.031616,446.626495L407.748779,447.844116L407.713989,447.860413L407.677734,447.873169L407.640411,447.882172L407.602356,447.887421L407.563904,447.888763L407.525635,447.8862L407.487671,447.879761L407.450714,447.869537L407.414856,447.85556L407.380676,447.838043L407.34845,447.817261L407.31842,447.793304L407.290924,447.766418L407.266357,447.736877L407.244965,447.705017L407.226837,447.671082L407.21225,447.635559L407.201294,447.598724L407.194122,447.560913L407.190857,447.522736L407.191467,447.484283L407.195831,447.446106L407.204224,447.408661L407.216248,447.372162L407.238525,447.324738L408.509399,445.040436L408.535522,444.988617L408.563629,444.927582L408.593903,444.855591L408.625061,444.774963L408.65921,444.680603L408.690582,444.587952L408.727173,444.473511L408.762695,444.356293L408.79895,444.23053L408.835052,444.099701L408.873962,443.952301L408.874084,443.952301L408.912872,443.800079L408.951416,443.642822L408.951294,443.642822L408.991913,443.470886L408.992035,443.470886L409.032776,443.293213L409.074249,443.1073L409.082642,443.075806L409.757294,440.934235L409.77066,440.898224L409.787689,440.863831L409.807983,440.831238L409.831604,440.800842L409.850677,440.780151L417.688782,432.926392L417.680634,432.926025L417.645844,432.922852L417.363342,432.884186L417.326782,432.87738L417.056091,432.812805L417.019104,432.801971L416.760071,432.711639L416.723602,432.696655L416.476379,432.580414L416.441833,432.56192L416.206421,432.419891L416.174561,432.398499L415.950806,432.23056L415.922729,432.207214L415.710632,432.013489L415.68634,431.989288L415.484344,431.768097L415.461731,431.740875L415.286743,431.509094L415.265808,431.478455L415.117584,431.236084L415.099121,431.202026L414.977844,430.949097L414.962891,430.913116L414.86853,430.649719L414.857239,430.612274L414.789856,430.338287L414.782684,430.300964L414.74231,430.016388L414.738892,429.98053L414.725403,429.685394L414.725403,429.650116L414.738892,429.36377L414.742432,429.326904L414.782806,429.049896L414.790344,429.011963L414.857727,428.744293L414.869263,428.706726L414.963623,428.448456L414.978943,428.412445L415.100189,428.163635L415.118683,428.130096L415.266907,427.890656L415.287598,427.860718L415.462585,427.630646L415.484711,427.604034L415.686707,427.383423L415.710632,427.359589L415.922729,427.165894L415.950806,427.142548L416.174561,426.974609L416.206421,426.953217L416.441833,426.811157L416.476379,426.792694L416.723602,426.676422L416.760071,426.661469L417.019104,426.571136L417.056091,426.560303L417.326782,426.495728L417.363342,426.488922L417.645844,426.450256L417.680634,426.447083L417.974915,426.434204L418.007141,426.434082L418.26532,426.444641L418.297424,426.447449L418.547424,426.479065L418.580627,426.484772L418.822479,426.537567L418.856171,426.546448L419.089783,426.620361L419.12262,426.632538L419.348175,426.727631L419.379791,426.742706L419.597107,426.858948L419.626404,426.876343L419.835571,427.013641L419.862305,427.03299L420.063324,427.191559L420.08667,427.211487L420.273956,427.38562L420.295959,427.407745L420.464508,427.592468L420.485168,427.617279L420.635132,427.812714L420.654205,427.839935L420.785278,428.045807L420.801941,428.074646L420.914429,428.291199L420.928406,428.321381L421.022156,428.548523L421.033264,428.578918L421.108398,428.81665L421.116547,428.846924L421.141235,428.955414L422.374512,429.846893L424.462219,427.755432L423.498779,426.478455L423.477234,426.446594L423.458984,426.412781L423.444275,426.377289L423.433228,426.340576L423.425903,426.302856L423.422516,426.264557L423.423004,426.226135L423.427368,426.187958L423.435547,426.15036L423.447449,426.113892L423.463013,426.078735L423.481995,426.045441L423.504333,426.014191L423.533051,425.981842L424.395081,425.117584L424.423553,425.091827L424.454559,425.068939L424.48764,425.0495L424.522522,425.033325L424.558777,425.020905L424.596252,425.012177L424.634277,425.007172L424.672729,425.006195L424.711029,425.009003zM415.10498,429.667603C415.10498,430.468628,415.392578,431.157074,415.967072,431.732941C416.516876,432.284119,417.191589,432.559357,417.991913,432.559357L418.703705,432.446777L410.119751,441.047882L409.445038,443.189423C409.21991,444.215546,409.020172,444.891632,408.845154,445.217682L407.570526,447.50882L409.894623,446.269226L412.143921,445.705688C413.093201,445.605499,413.793304,445.43045,414.242889,445.179932L422.977142,436.428497L422.827515,437.404541C422.827515,438.206238,423.102051,438.882324,423.651855,439.432831C424.227051,440.008698,424.914124,440.296967,425.713745,440.296967C426.488678,440.296967,427.163391,440.008698,427.737915,439.432831C428.28772,438.882324,428.562256,438.206238,428.562256,437.404541C428.562256,436.703735,428.337799,436.077759,427.887543,435.526611C427.437958,435.000824,426.875824,434.675476,426.20108,434.550568L425.076111,433.048065L427.663086,430.456268L429.199921,431.658142L430.062012,430.793976L424.664276,425.385254L423.802185,426.24942L424.964233,427.789673L422.414978,430.343689L420.803345,429.178894C420.677734,428.502808,420.353088,427.939301,419.828674,427.489014C419.303589,427.038055,418.691345,426.812927,417.991913,426.812927C417.191589,426.812927,416.516876,427.088165,415.967072,427.639343C415.392578,428.21521,415.10498,428.891296,415.10498,429.667603zM423.202271,431.132355L425.750824,428.578308L426.650665,429.441803L424.064362,432.033569L423.202271,431.132355zM423.732361,431.138306L424.069702,431.490845L426.108154,429.448029L425.756104,429.110199L423.732361,431.138306zM416.792114,428.465759C417.116791,428.139709,417.516937,427.977051,417.991913,427.977051C418.466217,427.977051,418.866364,428.139709,419.19104,428.465759C419.515686,428.791107,419.678375,429.191956,419.678375,429.667603C419.678375,430.14328,419.515686,430.544128,419.19104,430.869476C418.866364,431.220215,418.466217,431.395233,417.991913,431.395233C417.516937,431.395233,417.116791,431.220215,416.792114,430.869476C416.442047,430.544128,416.267029,430.14328,416.267029,429.667603C416.267029,429.191956,416.442047,428.791107,416.792114,428.465759zM417.851868,428.363434L417.719055,428.381561L417.59491,428.411102L417.478638,428.451477L417.368103,428.503418L417.261841,428.567383L417.159302,428.644348L417.054382,428.740417L416.953552,428.84317L416.869751,428.947266L416.801453,429.05307L416.746338,429.162628L416.703308,429.277649L416.672058,429.400482L416.653198,429.529022L416.646637,429.667999L416.653198,429.807007L416.672058,429.935547L416.703308,430.05835L416.746338,430.173401L416.801453,430.282959L416.869751,430.388763L416.953552,430.492859L417.058136,430.599487L417.169891,430.709534L417.2724,430.792236L417.377716,430.860565L417.488007,430.916138L417.603027,430.95932L417.723694,430.990082L417.853546,431.009186L417.991455,431.015625L418.129211,431.009186L418.258972,430.990082L418.380096,430.959198L418.494141,430.916382L418.603821,430.860931L418.71051,430.79187L418.812256,430.709778L418.915894,430.607635L419.011841,430.502197L419.088318,430.399689L419.151794,430.293915L419.204102,430.181793L419.244446,430.065521L419.273743,429.941864L419.29187,429.808228L419.298096,429.667999L419.29187,429.527802L419.273743,429.394165L419.244446,429.270477L419.204102,429.154114L419.151794,429.042114L419.088318,428.93631L419.011841,428.833801L418.921112,428.7341L418.822388,428.643738L418.720215,428.567139L418.615295,428.503906L418.50354,428.451477L418.386292,428.410736L418.263733,428.381561L418.132141,428.363556L417.991577,428.357361L417.851868,428.363434zM424.476898,436.202698C424.826263,435.852631,425.23877,435.67691,425.713745,435.67691C426.188751,435.67691,426.588226,435.852631,426.912872,436.202698C427.23822,436.528717,427.400208,436.928894,427.400208,437.404541C427.400208,437.88089,427.23822,438.281067,426.912872,438.607086C426.588226,438.932434,426.188751,439.095123,425.713745,439.095123C425.23877,439.095123,424.826263,438.932434,424.476898,438.607086C424.15155,438.281067,423.989563,437.88089,423.989563,437.404541C423.989563,436.928894,424.15155,436.528717,424.476898,436.202698zM425.573547,436.063873L425.443451,436.082855L425.3172,436.114594L425.196594,436.158722L425.079468,436.215759L424.966156,436.286041L424.854401,436.371399L424.745667,436.47113L424.655212,436.570709L424.578857,436.672882L424.514771,436.779877L424.463074,436.890533L424.422577,437.007172L424.39328,437.131561L424.375031,437.264954L424.36908,437.404938L424.375031,437.54538L424.39328,437.679016L424.422577,437.80307L424.46283,437.919434L424.515137,438.031311L424.578857,438.137695L424.654968,438.239624L424.740814,438.334106L424.843811,438.422028L424.955811,438.501434L425.069641,438.566833L425.186859,438.619873L425.310059,438.661591L425.437256,438.691254L425.572083,438.709503L425.713287,438.715576L425.853027,438.709625L425.986633,438.691376L426.1091,438.66217L426.225952,438.621582L426.336609,438.569641L426.443146,438.505432L426.5448,438.429321L426.643311,438.339325L426.733521,438.240112L426.81015,438.137451L426.873871,438.031189L426.926025,437.919434L426.966797,437.801605L426.995728,437.679016L427.013733,437.545868L427.019897,437.404938L427.013733,437.264221L426.995728,437.131439L426.966553,437.007874L426.925781,436.890533L426.874237,436.779999L426.81015,436.673126L426.733521,436.570465L426.638184,436.465668L426.534607,436.363861L426.43219,436.281189L426.326538,436.212708L426.216125,436.156891L426.101318,436.113739L425.981171,436.082977L425.85144,436.063873L425.713287,436.057312L425.573547,436.063873zM417.766785,435.000824L418.179291,434.888275L419.453247,436.052368C419.703766,435.977539,419.716125,435.82724,419.490997,435.602112L418.403748,434.362488L418.778503,434.286987L419.640625,435.000824L420.053131,435.451782C420.302979,435.376282,420.31601,435.226654,420.090881,435.000824L419.003662,433.76123L419.378418,433.686401L420.653046,434.850525C420.902893,434.800415,420.902893,434.650085,420.653046,434.400238L419.603546,433.160614L420.016083,433.048065L421.290009,434.212158C421.540527,434.13736,421.552887,433.98703,421.327759,433.76123L420.240509,432.522278L420.615295,432.446777L421.478088,433.160614L421.889893,433.610901C422.13974,433.536072,422.152802,433.385773,421.927643,433.160614L420.840424,431.921021L421.25293,431.507813L423.951813,434.174408L413.605927,444.541595L410.907043,441.837219L411.618835,441.161133C411.769135,440.960724,411.906433,440.922974,412.031342,441.047882L412.893433,441.761719L413.305969,442.212677C413.555817,442.137177,413.568176,441.986847,413.343018,441.761719L412.25647,440.522125C412.406128,440.371796,412.543396,440.334717,412.668304,440.409546L413.531097,441.123383L413.942932,441.574341C414.19278,441.49884,414.205811,441.348511,413.980682,441.123383L412.893433,439.883789C413.043762,439.733459,413.18103,439.695709,413.305969,439.77121L414.580597,440.935303C414.780334,440.910614,414.780334,440.772644,414.580597,440.522125L413.493347,439.283203L413.868103,439.207672L414.730225,439.921539L415.142731,440.371796C415.392578,440.296967,415.404938,440.146667,415.180481,439.921539L414.093262,438.681915L414.505066,438.569336L415.779694,439.733459C416.029541,439.65863,416.042572,439.508331,415.817444,439.283203L414.730225,438.043579C414.880524,437.89325,415.005463,437.867859,415.10498,437.968079L416.379608,439.132874C416.604736,439.057373,416.604736,438.907043,416.379608,438.681915L415.330109,437.442291L415.704895,437.367493L416.566986,438.080627L416.979492,438.531586C417.22934,438.456787,417.241699,438.306458,417.017242,438.080627L415.930023,436.841705L416.342529,436.728455L417.616455,437.89325C417.866302,437.817749,417.879364,437.66745,417.654205,437.442291L416.566986,436.202698L416.941742,436.127869L418.21637,437.291992C418.466217,437.217163,418.478577,437.066833,418.25412,436.841705L417.16687,435.602112L417.541656,435.526611L418.816284,436.691406C419.066101,436.615906,419.078461,436.465576,418.854034,436.240448L417.766785,435.000824zM422.428894,433.233063L422.442261,433.269196L422.451874,433.306274L422.457581,433.342865L422.463928,433.40271L422.465973,433.44101L422.464172,433.479431L422.458557,433.517365L422.450043,433.551544L422.434235,433.604309L422.421356,433.640442L422.404938,433.675201L422.38501,433.708038L422.362,433.738678L422.323822,433.784424L422.297668,433.812622L422.26886,433.838043L422.237,433.860779L422.176575,433.899445L422.14325,433.918549L422.107239,433.934357L422.024658,433.965851L421.98819,433.977753L421.950623,433.985779L421.912445,433.990051L421.874023,433.99054L421.862701,433.989441L421.864166,434.003052L421.866333,434.041351L421.864655,434.079803L421.85907,434.117737L421.850403,434.152374L421.834595,434.205292L421.821838,434.241394L421.80542,434.276184L421.785461,434.309021L421.76239,434.339905L421.724182,434.38562L421.698059,434.413849L421.66925,434.43924L421.63739,434.462006L421.576935,434.500671L421.54361,434.519745L421.507751,434.535553L421.424927,434.567169L421.388428,434.578979L421.350891,434.587128L421.312683,434.59137L421.274261,434.591858L421.235962,434.588348L421.203857,434.582123L421.21283,434.629425L421.218079,434.667511L421.219543,434.705811L421.217102,434.744232L421.210175,434.784485L421.198486,434.83606L421.188171,434.873016L421.174072,434.908752L421.156555,434.942932L421.135498,434.975159L421.1203,434.994751L421.085175,435.037048L421.059143,435.065399L421.030457,435.09079L420.999329,435.113312L420.978638,435.125702L420.920044,435.158539L420.88562,435.175568L420.83905,435.192352L420.75708,435.21582L420.719604,435.224457L420.68158,435.229309L420.643127,435.230286L420.62561,435.228943L420.627075,435.242432L420.629272,435.280762L420.627563,435.319183L420.621979,435.357117L420.61322,435.392517L420.59729,435.445404L420.58429,435.481628L420.567749,435.516296L420.547791,435.549133L420.525177,435.579285L420.487,435.625L420.460876,435.653229L420.432037,435.67865L420.400909,435.700897L420.340576,435.739685L420.307251,435.758789L420.271515,435.774719L420.188965,435.806458L420.152466,435.818481L420.114899,435.82663L420.076721,435.830994L420.038269,435.831482L420.026001,435.830414L420.027466,435.843414L420.029663,435.881714L420.027954,435.920135L420.022339,435.958069L420.013489,435.993713L419.997559,436.046478L419.98465,436.082611L419.968109,436.117371L419.948059,436.150085L419.925903,436.179657L419.887878,436.225372L419.861816,436.253571L419.833008,436.279114L419.800415,436.30246L419.739868,436.341125L419.706421,436.360107L419.671143,436.375671L419.58847,436.407288L419.55188,436.419189L419.514282,436.427338L419.476227,436.43161L419.437805,436.432098L419.399475,436.428558L419.383911,436.425537L419.390015,436.482697L419.39209,436.520996L419.390259,436.559418L419.384644,436.597351L419.37616,436.631165L419.360352,436.684052L419.347565,436.720184L419.331177,436.754944L419.311218,436.787781L419.288696,436.81781L419.250671,436.863678L419.224731,436.891876L419.195923,436.917419L419.16394,436.940399L419.103638,436.979187L419.070313,436.998291L419.035034,437.014099L418.952484,437.045959L418.915894,437.057983L418.878418,437.066132L418.84024,437.070648L418.801819,437.071136L418.788574,437.069916L418.790039,437.083038L418.792206,437.121338L418.790527,437.15976L418.784912,437.197723L418.776276,437.232605L418.760468,437.2854L418.747559,437.321503L418.73114,437.356293L418.711212,437.38913L418.688599,437.419281L418.650543,437.464996L418.624512,437.493195L418.595703,437.518738L418.563721,437.541718L418.503418,437.580383L418.469971,437.599365L418.434204,437.615295L418.351624,437.646912L418.315155,437.658844L418.277588,437.666992L418.23938,437.671234L418.200989,437.671722L418.189056,437.670624L418.190491,437.684357L418.192566,437.722687L418.190735,437.761108L418.185181,437.799042L418.176514,437.83371L418.160583,437.886597L418.147583,437.922821L418.131042,437.957489L418.111084,437.990326L418.089111,438.019623L418.051025,438.065491L418.025146,438.093689L417.996307,438.119232L417.964569,438.14209L417.904114,438.181L417.870819,438.200226L417.834839,438.216156L417.752258,438.247894L417.715759,438.259918L417.678192,438.268066L417.640015,438.27243L417.601563,438.272919L417.563293,438.269531L417.547119,438.266357L417.553192,438.32254L417.555359,438.360962L417.55368,438.399292L417.548096,438.437347L417.539429,438.472107L417.523621,438.524902L417.510742,438.561005L417.494324,438.595795L417.474365,438.628632L417.452026,438.658417L417.41394,438.704254L417.388062,438.732483L417.359222,438.757996L417.326904,438.781372L417.266571,438.820038L417.233124,438.838989L417.196899,438.855042L417.114319,438.886536L417.07782,438.898468L417.040283,438.906494L417.002075,438.910736L416.963654,438.911224L416.925476,438.907715L416.922913,438.907227L416.926575,438.935913L416.927429,438.974335L416.924377,439.012634L416.920227,439.0383L416.909668,439.091217L416.900177,439.128418L416.887024,439.16452L416.870239,439.199188L416.849823,439.232269L416.818207,439.278107L416.794861,439.308624L416.768494,439.336609L416.73053,439.368469L416.677765,439.407257L416.645782,439.428406L416.603455,439.449921L416.529663,439.481781L416.493652,439.495178L416.456421,439.504913L416.418518,439.510742L416.380188,439.512817L416.352234,439.511475L416.353699,439.525208L416.355774,439.563507L416.353943,439.601929L416.348328,439.639893L416.339844,439.674042L416.324036,439.726837L416.311127,439.762939L416.294708,439.797729L416.27478,439.830566L416.25177,439.861206L416.213593,439.906921L416.187439,439.93512L416.15863,439.960541L416.127136,439.983154L416.066833,440.021851L416.033386,440.040802L415.997498,440.056732L415.914825,440.088348L415.878235,440.100281L415.840637,440.108429L415.802582,440.112671L415.76416,440.113159L415.72583,440.10965L415.71051,440.10672L415.716492,440.163391L415.718567,440.201813L415.716736,440.240112L415.711121,440.278168L415.702637,440.312347L415.686829,440.365112L415.67392,440.401245L415.657501,440.436005L415.637573,440.468842L415.614929,440.499023L415.576904,440.544739L415.550842,440.572937L415.522034,440.59848L415.490051,440.62146L415.429749,440.660126L415.396301,440.679108L415.360535,440.695038L415.277985,440.726654L415.241516,440.738556L415.203918,440.746704L415.165741,440.750977L415.127319,440.751465L415.104065,440.749268L415.104553,440.752319L415.108826,440.790497L415.109314,440.828918L415.105774,440.867218L415.10202,440.889008L415.092651,440.935333L415.083191,440.972534L415.069916,441.008636L415.053131,441.043182L415.032959,441.075897L415.019104,441.094635L414.990997,441.130371L414.96582,441.159454L414.937744,441.185699L414.907227,441.208923L414.872314,441.230225L414.8255,441.255371L414.790833,441.27179L414.754578,441.284698L414.72821,441.291626L414.662659,441.306213L414.624847,441.312653L414.586548,441.315216L414.548096,441.313873L414.511047,441.308777L414.516968,441.365448L414.519043,441.403748L414.517212,441.442169L414.511627,441.480103L414.502991,441.514771L414.487061,441.567657L414.47406,441.603912L414.45752,441.63855L414.437561,441.671387L414.415588,441.700684L414.377502,441.746552L414.351624,441.77475L414.322784,441.800293L414.291046,441.823151L414.230591,441.862061L414.197266,441.881287L414.161285,441.897217L414.078735,441.928955L414.042236,441.940979L414.004669,441.949127L413.966492,441.953522L413.92804,441.95401L413.889771,441.950592L413.873596,441.947418L413.879517,442.003113L413.881714,442.041565L413.880005,442.079865L413.874451,442.11792L413.866028,442.151611L413.850342,442.204498L413.837585,442.240753L413.821289,442.275513L413.801453,442.308472L413.778503,442.339111L413.740417,442.384949L413.714539,442.413177L413.685699,442.438721L413.653717,442.4617L413.593384,442.500488L413.560089,442.519592L413.524841,442.5354L413.442261,442.567261L413.40564,442.579285L413.368195,442.587433L413.330017,442.591919L413.291565,442.592407L413.253296,442.58902L413.215576,442.581848L413.178741,442.570892L413.143219,442.556183L413.109436,442.538055L413.077576,442.516541L413.048004,442.491974L413.025513,442.469238L412.630798,442.037659L411.890686,441.425018L411.879883,441.436707L411.450134,441.84491L413.60556,444.004608L423.413269,434.176697L422.407349,433.182709L422.428894,433.233063z"/>
</svg>
