<?xml version="1.0" encoding="UTF-8"?>
<svg xmlns="http://www.w3.org/2000/svg" xmlns:xlink="http://www.w3.org/1999/xlink" width="23.251mm" height="24.624mm" viewBox="-399.710022 424.135529 23.250519 24.623657">
    <path transform="matrix(-1,0,0,1,0,0)" style="stroke:none;fill:#000000;fill-rule:evenodd" d="M383.675354,424.138184L383.713165,424.144775L383.750244,424.154968L383.786011,424.168976L383.82019,424.186462L383.852417,424.207397L383.895081,424.243256L399.435547,439.397278L399.461731,439.425507L399.484802,439.456146L399.504761,439.489105L399.521179,439.523743L399.530396,439.548431L399.690308,440.025482L399.700684,440.062439L399.707214,440.100403L399.710022,440.138702L399.708801,440.177124L399.703705,440.215179L399.694824,440.252533L399.687042,440.276367L399.52713,440.714264L399.512177,440.749634L399.493713,440.783203L399.471802,440.814941L399.438232,440.853119L399.078552,441.210754L399.049957,441.23642L399.018829,441.259155L398.985748,441.278503L398.956573,441.292114L398.47757,441.49118L398.441345,441.504059L398.404114,441.513306L398.366058,441.518646L398.327637,441.520233L398.289307,441.517792L398.251404,441.511597L398.214294,441.501648L398.175262,441.48642L397.735901,441.287354L397.701721,441.269745L397.669495,441.24881L397.627808,441.213684L392.582092,436.303558L392.559479,436.326172L398.997559,442.660278L399.02356,442.688599L399.04657,442.71936L399.066254,442.752319L399.081451,442.784302L399.281128,443.26123L399.294128,443.297363L399.303497,443.334564L399.30896,443.37262L399.310547,443.411041L399.308228,443.449371L399.302185,443.487305L399.287567,443.537903L399.127686,443.975891L399.112701,444.011292L399.094238,444.044983L399.072327,444.076599L399.038635,444.115021L398.678955,444.472534L398.650391,444.498199L398.619354,444.520813L398.586182,444.540253L398.557098,444.553772L398.078003,444.752838L398.041748,444.765839L398.004395,444.774963L397.96637,444.780426L397.92804,444.781891L397.889618,444.779449L397.851807,444.773254L397.814697,444.763275L397.775696,444.748077L397.336426,444.549011L397.302277,444.531403L397.27005,444.510468L397.228577,444.475464L395.375824,442.674744L397.878052,445.125793L397.904083,445.154114L397.927185,445.184753L397.947021,445.217712L397.962585,445.250305L398.162354,445.727356L398.175385,445.763611L398.184753,445.800812L398.190216,445.838867L398.191803,445.877167L398.189484,445.915619L398.183411,445.953552L398.173462,445.990631L398.157532,446.031738L397.957703,446.468903L397.939941,446.503082L397.918945,446.535187L397.895935,446.563629L397.576721,446.921997L397.549744,446.949371L397.520081,446.973816L397.48822,446.995209L397.454285,447.013214L397.41864,447.027802L397.381805,447.038605L397.344116,447.045685L397.30896,447.048706L396.350098,447.08847L396.311707,447.088226L396.273499,447.083984L396.236053,447.075836L396.199463,447.064026L396.164307,447.048584L396.130859,447.029633L396.099487,447.007355L396.068848,446.980499L388.945557,440.003357L388.884613,440.064148L395.561401,446.597321L395.581085,446.618103L395.685791,446.737274L395.709625,446.767426L395.722046,446.785919L395.796936,446.905212L395.815674,446.938782L395.83075,446.97345L395.87561,447.092743L395.887268,447.129333L395.897034,447.179199L395.911987,447.298492L395.914764,447.336792L395.911987,447.392853L395.897034,447.512146L395.89032,447.549957L395.87561,447.598602L395.83075,447.717896L395.81543,447.753174L395.796814,447.786224L395.721924,447.905396L395.69989,447.93689L395.685913,447.953796L395.581207,448.07309L395.579041,448.075531L395.259216,448.433777L395.232208,448.461029L395.198883,448.488251L395.078979,448.575195L395.030579,448.60498L394.910706,448.667023L394.875671,448.682953L394.849274,448.692322L394.729492,448.729645L394.692291,448.739136L394.655579,448.744843L394.535645,448.757233L394.497375,448.759186L394.457581,448.757233L394.33783,448.744843L394.299744,448.738892L394.264008,448.729645L394.144104,448.692322L394.108093,448.679047L394.082458,448.667023L393.962646,448.60498L393.914368,448.575195L393.794495,448.488251L393.752045,448.452393L386.242523,441.113586L387.504028,444.714172L387.514893,444.751007L387.521912,444.788818L387.525085,444.826996L387.523987,444.871155L387.484222,445.348816L387.479126,445.386871L387.470245,445.424194L387.457458,445.460571L387.441284,445.495331L387.4216,445.52829L387.398621,445.559052L387.359222,445.600037L386.959747,445.957672L386.92984,445.981873L386.897736,446.00293L386.863556,446.020538L386.835938,446.031738L386.396606,446.19104L386.362061,446.201752L386.217834,446.238953L386.180145,446.246735L386.158264,446.24942L386.02533,446.26181L385.986938,446.263397L385.95166,446.261444L385.829803,446.249054L385.79187,446.243195L385.747009,446.231171L385.636597,446.19397L385.60083,446.17984L385.55658,446.156006L385.457214,446.093872L385.42572,446.071869L385.391541,446.041962L385.30365,445.955017L385.27771,445.926666L385.25766,445.900055L385.180908,445.7883L385.160858,445.755585L385.151367,445.736969L385.086914,445.60199L385.086792,445.60199L379.922058,434.922516L376.574402,431.668274L376.548279,431.640167L376.525177,431.609528L376.505249,431.576691L376.488708,431.542053L376.475677,431.505798L376.466431,431.468475L376.46109,431.430542L376.459503,431.39209L376.461823,431.35379L376.468018,431.315857L376.478119,431.278778L376.491852,431.242889L376.509125,431.208618L376.529663,431.176147L376.553528,431.145966L376.56897,431.129578L383.360046,424.248505L383.388367,424.222473L383.419128,424.199615L383.452087,424.179779L383.486877,424.163605L383.523224,424.150848L383.560547,424.141968L383.598633,424.136871L383.637054,424.135529L383.675354,424.138184zM376.839508,431.395844L380.235046,434.696655L385.428925,445.436523C385.588165,445.833954,385.868225,445.966431,386.2677,445.833954L386.707001,445.674713L387.106476,445.317108L387.146271,444.839386L385.348633,439.708649L394.01767,448.180695C394.337524,448.445648,394.656708,448.445648,394.976563,448.180695L395.296417,447.822418C395.615601,447.504608,395.615601,447.186127,395.296417,446.868347L388.344696,440.066254L388.943909,439.469788L396.33493,446.709106L397.293793,446.669281L397.612976,446.311005L397.812714,445.873749L397.612976,445.396729L390.222656,438.15741L390.741577,437.640564L397.49353,444.203094L397.932831,444.402161L398.411926,444.203094L398.771576,443.84549L398.931519,443.407593L398.731781,442.930542L392.020294,436.327515L392.579712,435.770844L397.893005,440.941406L398.332306,441.140442L398.811401,440.941406L399.171051,440.583801L399.330994,440.145874L399.171051,439.668823L383.630615,424.514801L376.839508,431.395844"/>
</svg>
