<?xml version="1.0" encoding="UTF-8"?>
<svg xmlns="http://www.w3.org/2000/svg" xmlns:xlink="http://www.w3.org/1999/xlink" width="23.250mm" height="23.250mm" viewBox="-368.251007 260.968231 23.249908 23.250153">
    <path transform="matrix(-1,0,0,1,0,0)" style="stroke:none;fill:#000000;fill-rule:evenodd" d="M356.668152,260.97052L356.706055,260.976715L356.743164,260.986694L356.762146,260.9935L357.249512,261.180908L357.284668,261.196472L357.317993,261.215546L357.349243,261.237823L357.378052,261.263214L357.404205,261.291321L357.427429,261.322083L357.447388,261.354919L357.463684,261.389099L357.651062,261.838654L357.664063,261.874908L357.673309,261.912109L357.67865,261.950165L357.680237,261.984711L357.680237,264.456909L357.695923,264.458618L357.711487,264.460663L358.057922,264.514191L358.07373,264.516968L358.413757,264.584229L358.429565,264.587769L358.763123,264.668732L358.779175,264.673004L359.106293,264.767731L359.122467,264.772827L359.443237,264.881439L359.459167,264.887146L359.773407,265.00946L359.789215,265.016052L360.096985,265.15213L360.112427,265.159424L360.413879,265.309235L360.429077,265.317261L360.723999,265.480804L360.738708,265.489319L361.027161,265.666748L361.04126,265.675873L361.323242,265.866913L361.336731,265.876495L361.612427,266.081421L361.625305,266.091492L361.894409,266.31015L361.906586,266.320374L362.16925,266.552734L362.180664,266.563324L362.43689,266.809448L362.447815,266.820404L362.689453,267.072113L362.700287,267.083923L362.928284,267.342438L362.938629,267.354736L363.153259,267.619934L363.16333,267.632843L363.364624,267.904755L363.374329,267.918488L363.561951,268.197083L363.571106,268.211426L363.745361,268.496826L363.753845,268.511414L363.914734,268.803528L363.922791,268.81897L364.070038,269.117859L364.077209,269.133179L364.21109,269.438782L364.217529,269.45459L364.337921,269.766846L364.34375,269.782898L364.450653,270.10199L364.455505,270.117798L364.549011,270.443573L364.553284,270.459503L364.633301,270.791992L364.636719,270.8078L364.703217,271.147064L364.705902,271.162506L364.758911,271.508453L364.760986,271.523804L364.762695,271.539246L367.234772,271.539246L367.273193,271.541168L367.311157,271.547028L367.348328,271.55661L367.380798,271.56842L367.830383,271.755798L367.865051,271.772339L367.897888,271.792419L367.928528,271.815521L367.956604,271.841675L367.981903,271.870605L368.004272,271.901855L368.023254,271.935303L368.038574,271.96994L368.225952,272.457336L368.238007,272.493835L368.246155,272.531403L368.250519,272.56958L368.251007,272.608002L368.24762,272.646179L368.240295,272.684021L368.22937,272.720734L368.222076,272.739594L368.034668,273.189148L368.018127,273.223816L367.998077,273.256653L367.974976,273.287292L367.948822,273.315369L367.919891,273.340668L367.888611,273.363037L367.855194,273.382019L367.830383,273.393433L367.380798,273.580841L367.344574,273.593842L367.307373,273.603088L367.269287,273.608429L367.234772,273.610016L364.762695,273.610016L364.760986,273.625458L364.758911,273.640778L364.705902,273.986877L364.703217,274.002319L364.636719,274.341705L364.633301,274.357513L364.553284,274.690094L364.549011,274.706024L364.455505,275.031921L364.450653,275.047729L364.34375,275.366821L364.337921,275.382751L364.217529,275.69516L364.21109,275.71109L364.077209,276.016693L364.070038,276.032013L363.922791,276.330902L363.914734,276.346344L363.753845,276.638428L363.745361,276.653046L363.571106,276.938446L363.561951,276.952667L363.374329,277.231384L363.364624,277.245239L363.16333,277.517151L363.153259,277.530029L362.938629,277.795258L362.928162,277.807648L362.700165,278.066071L362.689453,278.077759L362.447815,278.329468L362.43689,278.340424L362.180664,278.586426L362.169006,278.597107L361.906342,278.829132L361.893921,278.839722L361.624817,279.057495L361.611572,279.067719L361.335876,279.271515L361.322266,279.281128L361.040283,279.470947L361.025696,279.480316L360.737244,279.655914L360.722412,279.664551L360.42749,279.826294L360.411804,279.834442L360.110352,279.981934L360.094543,279.989105L359.786804,280.12262L359.77063,280.129333L359.45639,280.248749L359.440094,280.254456L359.119293,280.359894L359.102753,280.364868L358.775635,280.456207L358.759216,280.460449L358.425659,280.537659L358.409485,280.541077L358.069489,280.604309L358.053314,280.606873L357.706848,280.655975L357.691162,280.657928L357.680237,280.659027L357.680237,283.164551L357.678284,283.202972L357.672455,283.240906L357.662842,283.278137L357.651062,283.310608L357.463684,283.760162L357.447144,283.79483L357.427063,283.827667L357.392395,283.871307L357.34375,283.924103L357.315186,283.951935L357.263,283.997772L357.22934,284.024292L357.173767,284.062958L357.135681,284.086182L357.076477,284.117798L357.036102,284.136414L356.973358,284.16098L356.932739,284.174347L356.866577,284.191986L356.825134,284.200623L356.755432,284.21106L356.717377,284.214844L356.644165,284.218384L356.605743,284.218262L356.567566,284.214233L356.529968,284.206451L356.493286,284.194794L356.456055,284.178619L356.00647,283.953522L355.973022,283.93454L355.94165,283.912415L355.91272,283.887115L355.886475,283.859039L355.863098,283.828522L355.843048,283.795807L355.826019,283.760162L355.638641,283.310608L355.62561,283.274353L355.616394,283.237152L355.611023,283.199097L355.609436,283.164551L355.609436,280.659027L355.598633,280.657928L355.582825,280.655975L355.236633,280.606873L355.220459,280.604187L354.881165,280.540955L354.864868,280.537537L354.532288,280.460327L354.515747,280.456085L354.18985,280.364746L354.173187,280.359772L353.854095,280.254333L353.837677,280.248383L353.525269,280.128967L353.508728,280.122284L353.203156,279.988739L353.187225,279.981323L352.888306,279.833832L352.872375,279.825562L352.580322,279.663818L352.565216,279.654938L352.279816,279.47934L352.265106,279.469879L351.986389,279.280029L351.972412,279.269958L351.7005,279.066132L351.687256,279.055817L351.422028,278.838013L351.409363,278.827057L351.15097,278.595062L351.13916,278.584106L350.887451,278.338104L350.881378,278.332031L350.635376,278.080292L350.62442,278.068512L350.392395,277.810089L350.38147,277.797455L350.163666,277.532227L350.15332,277.518982L349.949524,277.24707L349.939453,277.233093L349.749603,276.954376L349.740112,276.939667L349.564392,276.654266L349.555542,276.639038L349.393921,276.346954L349.385651,276.331146L349.238159,276.032257L349.230713,276.016327L349.097198,275.710724L349.090515,275.694183L348.9711,275.381775L348.965149,275.365387L348.859711,275.046295L348.854736,275.029633L348.763397,274.703735L348.759155,274.687195L348.681946,274.354614L348.678528,274.338318L348.615295,273.998901L348.61261,273.982727L348.563477,273.636658L348.561523,273.62085L348.560425,273.610016L346.054932,273.610016L346.016479,273.608063L345.978546,273.602234L345.941345,273.592621L345.908875,273.580841L345.45929,273.393433L345.424652,273.376923L345.391815,273.356842L345.361176,273.33374L345.333069,273.307587L345.3078,273.278656L345.2854,273.247406L345.265961,273.212982L345.040863,272.763428L345.025421,272.728271L345.013611,272.691681L345.005615,272.654083L345.001343,272.615906L345.001099,272.577606L345.004639,272.539307L345.012024,272.501617L345.023254,272.464874L345.035645,272.434357L345.260742,271.94696L345.278595,271.913055L345.299866,271.880951L345.324219,271.851257L345.351318,271.824158L345.381226,271.799835L345.41333,271.778778L345.45929,271.755798L345.908875,271.56842L345.945129,271.55542L345.98233,271.546173L346.020386,271.540802L346.054932,271.539246L348.560425,271.539246L348.561523,271.528412L348.563477,271.512604L348.61261,271.166626L348.615295,271.150452L348.678528,270.811188L348.681946,270.794891L348.759155,270.462433L348.763397,270.445892L348.854736,270.120117L348.859711,270.103455L348.965149,269.784363L348.9711,269.767822L349.090515,269.455566L349.097198,269.439148L349.230713,269.133545L349.238159,269.117615L349.385651,268.818726L349.393921,268.802917L349.555542,268.510803L349.564392,268.495605L349.740112,268.210205L349.749725,268.195496L349.939575,267.916901L349.949524,267.902924L350.15332,267.631012L350.163666,267.617767L350.38147,267.352539L350.392273,267.339905L350.624298,267.08136L350.635376,267.06955L350.881378,266.817841L350.887451,266.811768L351.13916,266.565643L351.150726,266.55481L351.409119,266.322418L351.421539,266.311859L351.686768,266.093201L351.699768,266.082886L351.97168,265.87796L351.985413,265.868134L352.26413,265.677094L352.278351,265.667725L352.563782,265.490295L352.578735,265.481537L352.870789,265.317993L352.886139,265.309845L353.185028,265.160034L353.200745,265.152618L353.506317,265.016541L353.522369,265.009827L353.834778,264.887512L353.85083,264.881561L354.169922,264.772949L354.18634,264.767853L354.512207,264.673126L354.528381,264.668732L354.860962,264.587769L354.876892,264.584229L355.216187,264.516968L355.231995,264.514191L355.578186,264.460663L355.59375,264.458618L355.609436,264.456909L355.609436,261.984711L355.611389,261.946289L355.617249,261.908325L355.626831,261.871124L355.638641,261.838654L355.826019,261.389099L355.84256,261.354431L355.86261,261.321594L355.885742,261.290955L355.911865,261.262878L355.940826,261.237579L355.972076,261.21521L356.005493,261.196228L356.030334,261.184784L356.479889,260.997406L356.516113,260.984406L356.553345,260.975159L356.5914,260.969788L356.629822,260.968231L356.668152,260.97052zM356.176697,261.53537L355.989288,261.984955L355.989288,264.796387C354.089386,264.971436,352.477753,265.734009,351.153015,267.083435C349.803589,268.408142,349.054047,270.019775,348.904419,271.919006L346.055237,271.919006L345.605652,272.106415L345.380524,272.59375L345.605652,273.043304L346.055237,273.230713L348.904419,273.230713C349.054047,275.130615,349.803589,276.742249,351.153015,278.066986C352.477753,279.416412,354.089386,280.165955,355.989288,280.315582L355.989288,283.164764L356.176697,283.614349L356.626282,283.839478C356.826019,283.839478,356.988678,283.764648,357.113586,283.614349L357.300995,283.164764L357.300995,280.315582C359.200226,280.165955,360.82489,279.416412,362.174316,278.066986C363.498352,276.742249,364.248566,275.130615,364.423615,273.230713L367.235046,273.230713L367.684631,273.043304L367.872009,272.59375L367.684631,272.106415L367.235046,271.919006L364.423615,271.919006C364.248566,270.019775,363.498352,268.408142,362.174316,267.083435C360.82489,265.734009,359.200226,264.971436,357.300995,264.796387L357.300995,261.984955L357.113586,261.53537L356.626282,261.347992L356.176697,261.53537M352.090637,267.983276C353.164825,266.908417,354.464844,266.296143,355.989288,266.146515L355.989288,267.795227L356.176697,268.282532L356.626282,268.432861L357.113586,268.282532L357.300995,267.795227L357.300995,266.146515C358.825439,266.296143,360.137115,266.908417,361.236725,267.983276C362.311584,269.082886,362.923859,270.394562,363.073486,271.919006L361.574432,271.919006L361.087097,272.106415L360.899719,272.59375L361.087097,273.043304L361.574432,273.230713L363.073486,273.230713C362.923859,274.755157,362.311584,276.067535,361.236725,277.167114C360.137115,278.241302,358.825439,278.853577,357.300995,279.003906L357.300995,277.354492L357.113586,276.904907C356.988678,276.754608,356.826019,276.679779,356.626282,276.679779C356.451233,276.679779,356.301605,276.754608,356.176697,276.904907L355.989288,277.354492L355.989288,279.003906C354.464844,278.853577,353.164825,278.241302,352.090637,277.167114C350.991028,276.067535,350.366425,274.755157,350.216125,273.230713L351.865509,273.230713L352.315063,273.043304C352.465393,272.918396,352.540222,272.768768,352.540222,272.59375C352.540222,272.393982,352.465393,272.231323,352.315063,272.106415L351.865509,271.919006L350.216125,271.919006C350.366425,270.394562,350.991028,269.082886,352.090637,267.983276zM357.680237,267.794922L357.678284,267.833344L357.672455,267.871307L357.662842,267.908508L357.654968,267.931122L357.46756,268.418518L357.451996,268.453644L357.432892,268.486969L357.410645,268.518219L357.385223,268.547058L357.357117,268.573181L357.326355,268.596436L357.293518,268.616364L357.258881,268.632782L357.22522,268.64505L356.737793,268.79538L356.700592,268.804718L356.662537,268.810455L356.624115,268.812134L356.585815,268.810089L356.547852,268.803986L356.505554,268.792572L356.055969,268.642273L356.020233,268.628296L355.986053,268.610779L355.953827,268.589844L355.92392,268.565765L355.896545,268.538788L355.872131,268.509125L355.850708,268.477264L355.832703,268.443329L355.822144,268.418518L355.634766,267.931122L355.622711,267.894653L355.614563,267.857056L355.610168,267.818878L355.609436,267.794922L355.609436,266.579376L355.495728,266.597504L355.23819,266.649658L354.985992,266.711914L354.73999,266.783905L354.499939,266.865997L354.264404,266.958191L354.032227,267.06131L353.807526,267.173401L353.586334,267.296356L353.368408,267.430481L353.158386,267.572998L352.95166,267.726593L352.747498,267.892578L352.552795,268.065002L352.358734,268.251556L352.168671,268.449158L351.990051,268.650665L351.820984,268.857758L351.663635,269.068115L351.51651,269.2836L351.38092,269.502136L351.254456,269.727448L351.139893,269.954742L351.036194,270.185425L350.940735,270.426208L350.857666,270.666595L350.7836,270.915649L350.7211,271.165924L350.667969,271.425171L350.649597,271.539246L351.865265,271.539246L351.903687,271.541168L351.94165,271.547028L351.978851,271.55661L352.011322,271.56842L352.460876,271.755798L352.495544,271.772339L352.528381,271.792419L352.572021,271.827057L352.624817,271.875702L352.653015,271.904663L352.69873,271.956818L352.724518,271.989777L352.763306,272.045349L352.786926,272.083771L352.818542,272.143005L352.837128,272.18338L352.861694,272.246124L352.875061,272.286743L352.8927,272.352875L352.901337,272.394348L352.911804,272.46402L352.915558,272.502106L352.919067,272.575287L352.918945,272.613708L352.917145,272.635254L352.903137,272.761719L352.897095,272.799652L352.882965,272.848663L352.840759,272.965759L352.825928,273.00116L352.801392,273.044922L352.730957,273.152557L352.708344,273.183563L352.68158,273.213226L352.583099,273.311615L352.554504,273.337402L352.523499,273.360138L352.490417,273.379578L352.460876,273.393433L352.011322,273.580841L351.975098,273.593842L351.937866,273.603088L351.899811,273.608429L351.865265,273.610016L350.649597,273.610016L350.66748,273.721649L350.720734,273.98175L350.783234,274.232391L350.857666,274.482788L350.940613,274.722687L351.035706,274.96286L351.140259,275.19574L351.254456,275.422272L351.38031,275.646515L351.516876,275.86676L351.662781,276.080536L351.822083,276.293579L351.988831,276.497986L352.168671,276.700836L352.358612,276.898315L352.552795,277.084717L352.74884,277.25827L352.950684,277.422302L353.156952,277.575531L353.368408,277.719025L353.584869,277.852295L353.80838,277.97644L354.032227,278.088074L354.26355,278.190826L354.499329,278.283264L354.739502,278.365204L354.988525,278.438293L355.23819,278.499939L355.494537,278.55188L355.609436,278.570251L355.609436,277.354309L355.611389,277.315887L355.617249,277.277954L355.626831,277.240753L355.638641,277.208282L355.826019,276.758575L355.84256,276.723938L355.862488,276.691101L355.885742,276.660583L355.907867,276.636383L356.006226,276.537872L356.034698,276.512085L356.066925,276.488495L356.174561,276.418091L356.207733,276.398773L356.254089,276.378571L356.371155,276.336487L356.407898,276.325317L356.457397,276.316437L356.583862,276.302338L356.622162,276.300018L356.644165,276.300385L356.717377,276.303925L356.756165,276.3078L356.825867,276.31839L356.865967,276.326782L356.932129,276.344269L356.973358,276.357788L357.036102,276.382355L357.076477,276.40094L357.135681,276.432556L357.174133,276.456146L357.229675,276.494965L357.262634,276.520721L357.314819,276.566467L357.34375,276.594666L357.392395,276.64743L357.416962,276.677002L357.438477,276.708862L357.463684,276.758575L357.651062,277.208282L357.664063,277.244507L357.673309,277.28186L357.67865,277.319794L357.680237,277.354309L357.680237,278.570374L357.796021,278.55188L358.051025,278.500305L358.305542,278.437683L358.552979,278.365326L358.79718,278.282532L359.033813,278.19046L359.26886,278.086975L359.49469,277.975464L359.719543,277.852051L359.940247,277.717926L360.153412,277.575409L360.364746,277.420959L360.574524,277.25351L360.77179,277.08255L360.96814,276.898193L361.153381,276.70108L361.325562,276.50238L361.48996,276.296356L361.64502,276.08429L361.788025,275.870392L361.922607,275.648834L362.044617,275.426666L362.158051,275.196716L362.260925,274.962982L362.352478,274.727448L362.435547,274.482422L362.507294,274.236389L362.570557,273.979218L362.622223,273.72287L362.640076,273.610016L361.574097,273.610016L361.535706,273.608063L361.497742,273.602234L361.460541,273.592621L361.437927,273.584717L360.950653,273.397339L360.915527,273.381775L360.882202,273.362671L360.850952,273.340424L360.821991,273.315002L360.795837,273.286804L360.772766,273.256165L360.752808,273.223328L360.736511,273.189148L360.549133,272.739594L360.536102,272.703339L360.526855,272.666138L360.521515,272.628082L360.519928,272.589661L360.522247,272.551331L360.528442,272.513397L360.538422,272.476318L360.545227,272.457336L360.732605,271.96994L360.748169,271.934814L360.767273,271.901489L360.78952,271.870239L360.814941,271.841431L360.843018,271.815277L360.873779,271.792053L360.906616,271.772095L360.950653,271.751923L361.437927,271.564514L361.474396,271.552612L361.511963,271.544342L361.550049,271.539948L361.574097,271.539246L362.640076,271.539246L362.621979,271.424683L362.570068,271.167969L362.50708,270.911987L362.435791,270.667816L362.352112,270.421326L362.260925,270.186523L362.157104,269.950592L362.045715,269.725037L361.921906,269.499817L361.788025,269.27948L361.645142,269.065582L361.491058,268.85495L361.324341,268.646149L361.152161,268.447571L360.967926,268.251556L360.771912,268.067322L360.573303,267.895142L360.364502,267.728424L360.1539,267.574341L359.940002,267.431458L359.719666,267.297577L359.494446,267.173767L359.26886,267.062378L359.032959,266.958527L358.796448,266.866608L358.555054,266.784637L358.30542,266.711914L358.051025,266.649292L357.7948,266.597504L357.680237,266.579376L357.680237,267.794922z"/>
</svg>
