<?xml version="1.0" encoding="UTF-8"?>
<svg xmlns="http://www.w3.org/2000/svg" xmlns:xlink="http://www.w3.org/1999/xlink" width="22.718mm" height="19.736mm" viewBox="-368.710571 426.579285 22.718018 19.736267">
    <path transform="matrix(-1,0,0,1,0,0)" style="stroke:none;fill:#000000;fill-rule:evenodd" d="M360.2164,426.579651L360.421692,426.589478L360.459839,426.593262L360.654907,426.622559L360.69577,426.631073L360.880493,426.680084L360.921936,426.693695L361.096191,426.762177L361.137207,426.781128L361.301239,426.869293L361.339172,426.892639L361.492889,427.000275L361.527161,427.027374L361.670532,427.154694L361.699951,427.183899L361.833008,427.330902L361.85733,427.360565L361.97467,427.519989L361.997437,427.554901L362.093018,427.720032L362.113068,427.759674L362.18689,427.930664L362.202454,427.973816L362.254486,428.150513L362.264832,428.195618L362.295105,428.378021L362.299866,428.422791L362.308472,428.611023L362.307983,428.654327L362.294739,428.848267L362.289978,428.887665L362.257263,429.074585L362.082031,430.779938L363.454346,430.779938L363.471741,430.780304L363.761536,430.793579L363.796783,430.796844L364.080872,430.836609L364.116119,430.843292L364.39447,430.909576L364.428894,430.919434L364.701538,431.012207L364.734009,431.024994L365.000793,431.144165L365.030823,431.159241L365.292023,431.304901L365.319275,431.321686L365.574768,431.493896L365.598938,431.511505L365.848602,431.710114L365.870117,431.728699L366.104584,431.94577L366.126099,431.967163L366.335388,432.19458L366.356201,432.219269L366.540283,432.457001L366.559753,432.484589L366.718689,432.732666L366.736206,432.763062L366.869965,433.021606L366.884796,433.053955L366.993378,433.322937L367.005188,433.356384L367.088623,433.635681L367.096985,433.669373L367.155365,433.959167L367.15741,433.970337L368.657166,442.776642L368.658264,442.783447L368.681854,442.938995L368.684021,442.956635L368.699951,443.109833L368.701538,443.128693L368.709717,443.279602L368.710205,443.299072L368.710571,443.44754L368.710083,443.467346L368.702759,443.613647L368.701172,443.634064L368.686218,443.778046L368.683533,443.798615L368.66095,443.940277L368.656921,443.96167L368.626404,444.101044L368.621277,444.121338L368.583252,444.258392L368.576904,444.279053L368.531067,444.41391L368.523651,444.433868L368.470154,444.566284L368.461609,444.585876L368.40033,444.715973L368.390991,444.734344L368.322021,444.862274L368.311829,444.880157L368.235077,445.005646L368.224487,445.022064L368.140106,445.145355L368.128784,445.160919L368.036621,445.281921L368.014374,445.308563L367.916229,445.415558L367.902374,445.429932L367.800232,445.530121L367.785034,445.54422L367.678986,445.637512L367.662689,445.651123L367.552643,445.737457L367.535126,445.750336L367.421082,445.829742L367.403076,445.841553L367.284973,445.914154L367.265778,445.925079L367.143799,445.990631L367.124481,446.000366L366.998352,446.059113L366.978546,446.067596L366.848572,446.119415L366.828613,446.126831L366.694611,446.171692L366.674683,446.177795L366.536621,446.215729L366.517303,446.220459L366.375275,446.251587L366.355835,446.255371L366.209778,446.279449L366.191406,446.282013L366.041351,446.299255L366.023346,446.300842L365.869263,446.311188L365.852356,446.31192L365.694275,446.31543L365.685791,446.315552L349.004547,446.315552L348.995789,446.31543L348.842194,446.31192L348.824829,446.311188L348.674866,446.300842L348.656494,446.299133L348.510345,446.281891L348.491638,446.279205L348.349091,446.255127L348.329285,446.251099L348.190521,446.219971L348.170837,446.215118L348.035828,446.177185L348.0159,446.170959L347.884583,446.126099L347.864624,446.118561L347.736938,446.066772L347.71698,446.058014L347.593079,445.999268L347.573853,445.989532L347.453735,445.924011L347.434753,445.912933L347.318268,445.840332L347.300629,445.828674L347.187775,445.749268L347.170654,445.736359L347.061554,445.650024L347.045624,445.63678L346.940186,445.543488L346.925232,445.52951L346.823578,445.429321L346.810059,445.415314L346.712067,445.308319L346.698547,445.292755L346.606384,445.180389L346.593872,445.164215L346.508972,445.048584L346.496582,445.030701L346.419128,444.911407L346.407959,444.893036L346.337891,444.770477L346.327454,444.750641L346.264923,444.624542L346.255676,444.604706L346.2005,444.475098L346.192444,444.454407L346.144775,444.321381L346.13797,444.30072L346.097717,444.164276L346.092255,444.143585L346.059418,444.003632L346.055298,443.983093L346.029877,443.8396L346.026825,443.819275L346.008972,443.672516L346.007141,443.65329L345.996552,443.502869L345.995697,443.484009L345.992554,443.330322L345.992554,443.311951L345.996918,443.154724L345.997772,443.137573L346.009583,442.976807L346.011139,442.960632L346.030212,442.796478L346.03302,442.776642L347.532776,433.970337L347.534851,433.959167L347.593201,433.669373L347.601715,433.635559L347.685242,433.356262L347.69693,433.322937L347.805542,433.053955L347.820251,433.021729L347.953888,432.763184L347.971375,432.732788L348.130188,432.484711L348.14978,432.457123L348.333771,432.21936L348.354553,432.194702L348.563721,431.967285L348.585022,431.945892L348.819214,431.728821L348.841125,431.709991L349.091003,431.511383L349.115082,431.493774L349.370697,431.321564L349.397949,431.304901L349.659241,431.159241L349.689392,431.144165L349.956329,431.024994L349.9888,431.012207L350.261566,430.919434L350.295837,430.909576L350.574219,430.843292L350.609467,430.836609L350.893555,430.796844L350.928802,430.793579L351.218567,430.780304L351.235962,430.779938L352.783752,430.779938L352.578491,429.067169L352.577148,429.05426L352.558777,428.83844L352.557434,428.806213L352.557434,428.600677L352.559021,428.565308L352.577271,428.370239L352.582855,428.331818L352.619446,428.147095L352.629791,428.106873L352.684753,427.932465L352.700195,427.891876L352.773407,427.727814L352.793823,427.688293L352.885284,427.534698L352.910095,427.498108L353.019897,427.354736L353.039856,427.330902L353.172882,427.183899L353.202423,427.154572L353.345917,427.027252L353.380188,427.000275L353.534058,426.892639L353.571838,426.869293L353.735901,426.781128L353.776886,426.762177L353.951263,426.693695L353.992737,426.680084L354.177429,426.631073L354.218323,426.622681L354.413116,426.593384L354.451294,426.589478L354.656555,426.579651L354.674805,426.579285L360.198181,426.579285L360.2164,426.579651zM352.955139,429.022278L353.211151,431.159698L351.235748,431.159698C350.455322,431.159698,349.735992,431.442474,349.077057,432.007385C348.418823,432.572266,348.028961,433.247681,347.906769,434.034271L346.407013,442.840607C346.284851,443.725342,346.479767,444.462524,346.991821,445.052155C347.504547,445.641754,348.17514,445.936218,349.004303,445.936218L365.685547,445.936218C366.539398,445.936218,367.22168,445.641754,367.734406,445.052155C368.246429,444.413116,368.429016,443.675934,368.282806,442.840607L366.783081,434.034271C366.660889,433.247681,366.271027,432.572266,365.612091,432.007385C364.953857,431.442474,364.234528,431.159698,363.454102,431.159698L361.661255,431.159698L361.88089,429.022278C362.003082,428.482117,361.89325,428.003021,361.551422,427.585693C361.210297,427.167664,360.759338,426.959015,360.197876,426.959015L354.67453,426.959015C354.11377,426.959015,353.662109,427.167664,353.320984,427.585693C353.003876,427.954285,352.881714,428.432678,352.955139,429.022278zM354.418518,428.764893L354.454895,428.543182L354.67453,428.469757L360.197876,428.469757L360.381134,428.543182L360.417542,428.764893L360.161499,431.159698L354.710907,431.159698L354.418518,428.764893zM354.811371,428.849121L355.04715,430.779938L359.820587,430.779938L360.027069,428.849121L354.811371,428.849121zM352.406036,440.519257L352.406036,436.466156L355.332794,436.466156L355.332794,433.518127L359.357056,433.518127L359.357056,436.466156L362.32019,436.466156L362.32019,440.519257L359.357056,440.519257L359.357056,443.467285L355.332794,443.467285L355.332794,440.519257L352.406036,440.519257zM355.712585,433.8974L355.712585,436.465912L355.710632,436.504333L355.704773,436.542267L355.69519,436.579468L355.681946,436.615479L355.665039,436.649994L355.644714,436.682587L355.621124,436.713013L355.594727,436.740845L355.565552,436.7659L355.534058,436.787781L355.500488,436.806519L355.46521,436.821716L355.428497,436.833252L355.39093,436.841034L355.352722,436.84494L355.333038,436.845428L352.785828,436.845428L352.785828,440.139557L355.333038,440.139557L355.37146,440.14151L355.409424,440.147339L355.446625,440.156952L355.482605,440.170197L355.517151,440.187103L355.549744,440.207397L355.580139,440.230988L355.607971,440.257385L355.633057,440.28656L355.654907,440.318054L355.673645,440.351624L355.688843,440.386902L355.700409,440.423615L355.708191,440.461182L355.712097,440.49939L355.712585,440.519073L355.712585,443.087585L358.977753,443.087585L358.977753,440.519073L358.979675,440.480652L358.985535,440.442719L358.995148,440.405487L359.008392,440.369507L359.025299,440.334961L359.045593,440.302368L359.069214,440.271973L359.095581,440.244141L359.124756,440.219086L359.15625,440.197205L359.189819,440.178467L359.225098,440.163269L359.261841,440.151703L359.299377,440.143921L359.337585,440.140045L359.3573,440.139557L361.940857,440.139557L361.940857,436.845428L359.3573,436.845428L359.318848,436.843475L359.280914,436.837646L359.243713,436.828033L359.207703,436.814789L359.173157,436.797882L359.140564,436.777557L359.110168,436.753967L359.082336,436.7276L359.057281,436.698395L359.0354,436.666901L359.016663,436.633362L359.001465,436.598083L358.989929,436.561371L358.982117,436.523773L358.978241,436.485596L358.977753,436.465912L358.977753,433.8974L355.712585,433.8974z"/>
</svg>
