<?xml version="1.0" encoding="UTF-8"?>
<svg xmlns="http://www.w3.org/2000/svg" xmlns:xlink="http://www.w3.org/1999/xlink" width="23.241mm" height="23.250mm" viewBox="-338.241882 424.822205 23.240662 23.250275">
    <path transform="matrix(-1,0,0,1,0,0)" style="stroke:none;fill:#000000;fill-rule:evenodd" d="M333.515259,428.895325L333.552979,428.902496L333.589813,428.913452L333.625305,428.928162L333.659119,428.946411L333.690979,428.967804L333.720398,428.992493L333.747284,429.019989L333.77124,429.050018L333.792053,429.082245L333.809418,429.116547L333.823303,429.152405L333.833496,429.189362L333.839844,429.227325L333.842377,429.265625L333.840912,429.304047L333.835693,429.342102L333.826691,429.379456L333.813782,429.41568L333.797363,429.450348L333.777557,429.483276L333.765991,429.499573L329.007538,435.814484L329.051086,435.960876L329.058472,435.989563L329.092041,436.145966L329.09729,436.176483L329.117462,436.331299L329.120239,436.363861L329.126953,436.516968L329.126953,436.550293L329.120239,436.701691L329.117218,436.735382L329.097168,436.885071L329.091309,436.918152L329.057861,437.066254L329.047424,437.103333L329.030151,437.146149L328.493408,438.271118L328.475159,438.304901L328.453491,438.336639L328.417023,438.378235L328.238403,438.553955L328.211761,438.577789L328.024719,438.730042L327.99408,438.752533L327.798798,438.881317L327.764374,438.901489L327.560669,439.006927L327.523132,439.023834L327.311157,439.105804L327.271759,439.118561L327.0513,439.177185L327.011414,439.185577L326.782654,439.220703L326.743652,439.224609L326.506409,439.236267L326.472229,439.236511L326.246643,439.227264L326.215027,439.224609L325.994568,439.196991L325.962585,439.19165L325.746979,439.145691L325.714996,439.137299L325.504486,439.072845L325.473724,439.062012L325.268341,438.979218L325.239258,438.966064L325.038757,438.864899L325.011505,438.849701L324.816101,438.730042L324.791534,438.713623L324.601227,438.575592L324.571289,438.551392L324.552948,438.534027L324.389526,438.36731L324.363342,438.337616L324.22168,438.159241L324.197876,438.125671L324.078064,437.93573L324.05777,437.899231L323.959656,437.69751L323.943604,437.659332L323.86734,437.446014L323.855774,437.407471L323.801331,437.182404L323.79425,437.14505L323.761536,436.908295L323.758392,436.873016L323.747437,436.624603L323.74707,436.612061L323.744507,436.375427L323.74585,436.339325L323.765198,436.110809L323.770325,436.072876L323.811523,435.852905L323.82077,435.814819L323.883636,435.603119L323.897156,435.565063L323.981873,435.361725L323.999023,435.325989L324.105438,435.13092L324.125732,435.09787L324.254028,434.911072L324.276428,434.881775L324.426361,434.703369L324.452515,434.675293L324.481323,434.649872L324.517456,434.624573L325.64447,433.92865L325.678162,433.910156L325.713531,433.895203L325.750244,433.883759L325.787842,433.876221L325.826141,433.872467L325.85968,433.872467L327.006042,433.920135L333.226685,428.974121L333.257813,428.951752L333.29126,428.932678L333.326294,428.917114L333.362915,428.90506L333.40033,428.89679L333.438538,428.892426L333.476959,428.891937L333.515259,428.895325zM325.843597,434.250977L324.716553,434.946991C324.287537,435.411652,324.090546,435.964874,324.126251,436.607361C324.126251,437.285492,324.358948,437.838715,324.823608,438.2677C325.324677,438.660339,325.879272,438.856628,326.487427,438.856628C327.131256,438.856628,327.68515,438.606781,328.150543,438.107086L328.687286,436.982117C328.794373,436.589508,328.758667,436.179047,328.579529,435.750732L333.462463,429.270569L327.131256,434.304535L325.843597,434.250977z"/>
    <path transform="matrix(-1,0,0,1,0,0)" style="stroke:none;fill:#000000;fill-rule:evenodd" d="M326.66629,424.822449L326.771118,424.827454L326.809784,424.831329L326.909607,424.846405L326.950012,424.854797L327.044739,424.879852L327.08606,424.893372L327.175812,424.928497L327.215942,424.946991L327.300598,424.992096L327.338257,425.015076L327.417908,425.070282L327.451843,425.09668L327.526398,425.161987L327.555237,425.190186L327.624634,425.265472L327.649231,425.295013L327.670746,425.326752L327.694458,425.372955L328.016357,426.122528L328.029724,426.15863L328.039307,426.19574L328.045166,426.233795L328.047119,426.272339L328.047119,431.68103L328.045166,431.719452L328.039307,431.757416L328.029724,431.794617L328.012085,431.84021L327.690186,432.536896L327.672302,432.570923L327.643494,432.612885L327.574066,432.700806L327.547424,432.731201L327.4729,432.807343L327.440186,432.837006L327.360535,432.901337L327.322815,432.92807L327.23822,432.980865L327.195007,433.004089L327.105286,433.045074L327.059814,433.062439L326.965088,433.091766L326.918518,433.102936L326.818665,433.120453L326.774292,433.12558L326.669464,433.131409L326.62738,433.131409L326.521851,433.12558L326.47879,433.120697L326.376404,433.10318L326.332489,433.092987L326.233643,433.06366L326.191925,433.048706L326.096344,433.007721L326.057312,432.988281L325.965149,432.935486L325.931213,432.913605L325.842316,432.849274L325.812256,432.824951L325.726929,432.74884L325.702087,432.72464L325.630371,432.647797L325.564453,432.586975L325.536346,432.558167L325.471069,432.483612L325.445007,432.450287L325.389587,432.370636L325.366455,432.332947L325.321228,432.248444L325.30249,432.207825L325.267365,432.118195L325.253967,432.077332L325.228821,431.982849L325.220184,431.94162L325.205231,431.842041L325.201599,431.804108L325.196472,431.699524L325.195984,431.68103L325.195984,427.783386L324.812195,427.855988L324.420654,427.947693L324.042084,428.054077L323.664124,428.178955L323.303711,428.316742L322.944611,428.47348L322.599487,428.643738L322.259491,428.831482L321.930298,429.033844L321.605408,429.255035L321.292755,429.48938L320.986908,429.741211L320.688721,430.009705L320.397278,430.295837L320.116211,430.596344L319.838135,430.912506L319.582153,431.230865L319.342834,431.557861L319.122742,431.889587L318.920258,432.228729L318.733582,432.578339L318.568115,432.92807L318.417908,433.289734L318.28537,433.659149L318.171295,434.032745L318.073792,434.418457L317.994629,434.806976L317.932831,435.204498L317.88855,435.611389L317.861816,436.027527L317.852936,436.44693L317.863037,436.900146L317.893311,437.345459L317.943909,437.783722L318.014191,438.211029L318.104553,438.630341L318.214111,439.0383L318.345337,439.443604L318.495605,439.838104L318.665863,440.224182L318.856293,440.602875L319.066162,440.972412L319.29834,441.337463L319.548828,441.692078L319.821228,442.040833L320.112946,442.380585L320.424622,442.712067L320.747955,443.014496L321.083099,443.300385L321.42688,443.566589L321.778809,443.812958L322.135925,444.037445L322.503662,444.243683L322.879089,444.42984L323.26236,444.596313L323.654663,444.743225L324.056335,444.870911L324.464783,444.978638L324.885162,445.067413L325.30835,445.135651L325.749634,445.185364L326.193726,445.214935L326.648315,445.224884L327.102966,445.214935L327.547058,445.185364L327.988373,445.135651L328.41156,445.067413L328.83194,444.978638L329.240417,444.870911L329.642181,444.743225L330.034363,444.596313L330.417664,444.42984L330.79303,444.243683L331.160767,444.037445L331.517914,443.812958L331.869843,443.566589L332.213623,443.300385L332.548767,443.014496L332.872101,442.712067L333.183899,442.380585L333.475616,442.040833L333.747284,441.693146L334.000336,441.335144L334.229553,440.974487L334.441284,440.601776L334.631226,440.224182L334.801453,439.838104L334.95166,439.443604L335.082001,439.040741L335.192657,438.62851L335.282654,438.211029L335.352936,437.783478L335.40329,437.345825L335.433685,436.900146L335.443665,436.447296L335.432465,436.014862L335.398682,435.583191L335.342468,435.154755L335.264526,434.73291L335.162994,434.310242L335.040161,433.89447L334.89328,433.477234L334.721191,433.056976L334.708435,433.020752L334.699463,432.983398L334.694214,432.945343L334.692871,432.913116L334.692871,432.162964L334.694824,432.124512L334.700653,432.086578L334.710266,432.049377L334.723511,432.013367L334.740417,431.978851L334.760742,431.946259L334.784302,431.915863L334.804382,431.894318L335.394653,431.305389L335.423096,431.279633L335.454102,431.256866L335.487183,431.237427L335.522217,431.221497L335.558563,431.209106L335.595886,431.200348L335.634094,431.195587L335.662659,431.194489L336.467804,431.194489L336.506226,431.196442L336.544189,431.202271L336.58136,431.211884L336.617371,431.225128L336.651917,431.242035L336.684509,431.26236L336.714905,431.28595L336.748474,431.318542L337.284485,431.907471L337.308929,431.937134L337.3302,431.969116L337.348083,432.003174L337.358185,432.026886L337.559448,432.550751L337.565399,432.567535L337.739899,433.094666L337.745239,433.112305L337.892761,433.642883L337.897247,433.660736L338.018005,434.19458L338.021667,434.212952L338.115662,434.750061L338.118469,434.768799L338.185455,435.309326L338.187378,435.328064L338.227661,435.871979L338.228516,435.890717L338.241882,436.438049L338.241882,436.455688L338.229126,437.032562L338.228394,437.049835L338.190063,437.615906L338.188477,437.633667L338.124512,438.188904L338.121979,438.207031L338.032471,438.751312L338.028931,438.769806L337.91391,439.303162L337.909424,439.321777L337.768738,439.844299L337.763123,439.862915L337.596893,440.374603L337.590454,440.393097L337.398682,440.89386L337.391144,440.911987L337.173828,441.401917L337.165436,441.4198L336.922485,441.898926L336.913116,441.916046L336.644592,442.384125L336.634644,442.400543L336.340607,442.85788L336.330017,442.873444L336.010559,443.319855L335.99939,443.334808L335.654144,443.770386L335.642578,443.784149L335.271973,444.208771L335.260162,444.22168L334.863953,444.635498L334.852051,444.647522L334.431061,445.04953L334.418396,445.061096L333.987457,445.437225L333.973938,445.448395L333.532898,445.798615L333.518311,445.809692L333.067139,446.133881L333.051819,446.144348L332.590698,446.442627L332.574524,446.452484L332.103333,446.724762L332.086426,446.734009L331.605225,446.980499L331.587585,446.989014L331.096191,447.209473L331.078064,447.21701L330.576843,447.411591L330.55835,447.418152L330.046875,447.5867L330.028259,447.592407L329.506836,447.735046L329.488098,447.739532L328.956573,447.856293L328.937866,447.859924L328.39624,447.950653L328.377747,447.953308L327.826172,448.018127L327.808167,448.019836L327.24646,448.058746L327.228821,448.059479L326.656921,448.072479L326.639771,448.072479L326.061798,448.059479L326.044312,448.058746L325.477112,448.019836L325.459259,448.018127L324.903046,447.953308L324.884674,447.950775L324.339294,447.860046L324.320557,447.856415L323.786133,447.739655L323.767273,447.735046L323.243774,447.592407L323.225037,447.586792L322.712341,447.418274L322.693726,447.411591L322.192017,447.21701L322.173645,447.209351L321.682861,446.988892L321.664978,446.980255L321.184998,446.733765L321.167847,446.724396L320.698853,446.452118L320.682312,446.442017L320.224091,446.143738L320.208405,446.132904L319.761169,445.808716L319.746307,445.797394L319.309998,445.447174L319.296265,445.435516L318.870758,445.059387L318.85788,445.047607L318.443329,444.645569L318.435669,444.637787L318.032776,444.223969L318.020874,444.211212L317.644043,443.78656L317.632233,443.772705L317.281403,443.337128L317.270203,443.322418L316.945313,442.876007L316.934326,442.860321L316.635437,442.402954L316.625366,442.386414L316.352478,441.918365L316.342865,441.901093L316.096008,441.421997L316.087494,441.404114L315.866547,440.914154L315.858765,440.895813L315.663818,440.39505L315.657166,440.376434L315.488098,439.864716L315.482513,439.845886L315.339508,439.323334L315.334778,439.304382L315.217896,438.771027L315.214386,438.752411L315.123291,438.20813L315.120605,438.189636L315.055695,437.634399L315.053986,437.616394L315.014954,437.050323L315.014221,437.032684L315.001221,436.455811L315.001221,436.438782L315.014221,435.861908L315.014954,435.844269L315.053986,435.278198L315.055695,435.260193L315.120605,434.705078L315.123291,434.686584L315.214386,434.142303L315.217896,434.123688L315.334778,433.59021L315.339508,433.571259L315.482513,433.048706L315.488098,433.029877L315.657166,432.51828L315.663818,432.499664L315.858765,431.998779L315.866547,431.980438L316.087494,431.490601L316.096008,431.472717L316.342865,430.993622L316.352356,430.976349L316.625244,430.508179L316.635559,430.491638L316.934448,430.034393L316.945313,430.018707L317.270203,429.572296L317.281403,429.557587L317.632233,429.122009L317.644043,429.108154L318.020874,428.683502L318.032776,428.670746L318.435669,428.256927L318.443329,428.249146L318.85788,427.847107L318.870667,427.835327L319.296143,427.459076L319.31012,427.447388L319.746429,427.09729L319.761169,427.085999L320.208405,426.761688L320.224213,426.750854L320.682434,426.452667L320.698853,426.442596L321.167847,426.170197L321.18512,426.160706L321.6651,425.914337L321.682861,425.905823L322.173645,425.685364L322.192017,425.677704L322.693726,425.483124L322.712341,425.47644L323.225037,425.307892L323.243774,425.302307L323.767273,425.159668L323.786133,425.15506L324.320557,425.0383L324.339172,425.034668L324.884552,424.943817L324.903046,424.941284L325.459259,424.876465L325.477112,424.874756L326.044312,424.835846L326.061798,424.835114L326.639771,424.822205L326.66629,424.822449zM326.648041,425.200989C323.53595,425.200989,320.889252,426.307434,318.707245,428.521027C316.489532,430.698944,315.38031,433.340851,315.38031,436.446716C315.38031,439.552612,316.489532,442.194519,318.707245,444.372437C320.889252,446.586029,323.53595,447.692474,326.648041,447.692474C329.724426,447.692474,332.371124,446.586029,334.589508,444.372437C336.770844,442.194519,337.862213,439.552612,337.862213,436.446716C337.862213,434.982666,337.575989,433.554993,337.00354,432.162323L336.467468,431.573395L335.662323,431.573395L335.072052,432.162323L335.072052,432.912537C335.57309,434.054688,335.822937,435.233215,335.822937,436.446716C335.822937,438.981567,334.92926,441.159454,333.140564,442.979736C331.351837,444.72934,329.187653,445.60379,326.648041,445.60379C324.108398,445.60379,321.944244,444.72934,320.155518,442.979736C318.367462,441.159454,317.473114,438.981567,317.473114,436.446716C317.473114,434.090363,318.259705,432.055237,319.833588,430.34201C321.371796,428.628113,323.285431,427.628723,325.575195,427.343201L325.575195,431.680481C325.575195,431.966003,325.682281,432.197998,325.897125,432.377136C326.111267,432.626984,326.361816,432.751923,326.648041,432.751923C326.934265,432.751923,327.166931,432.626984,327.345398,432.377136L327.667328,431.680481L327.667328,426.271759L327.345398,425.522217C327.166931,425.308075,326.934265,425.200989,326.648041,425.200989z"/>
</svg>
