<?xml version="1.0" encoding="UTF-8"?>
<svg xmlns="http://www.w3.org/2000/svg" xmlns:xlink="http://www.w3.org/1999/xlink" width="23.234mm" height="16.573mm" viewBox="-307.507507 428.160736 23.233978 16.573364">
    <path transform="matrix(-1,0,0,1,0,0)" style="stroke:none;fill:#000000;fill-rule:evenodd" d="M306.754639,428.162689L306.792603,428.168518L306.829803,428.178131L306.849609,428.184937L307.149506,428.297546L307.184753,428.312866L307.218323,428.331573L307.249695,428.353699L307.278748,428.378876L307.305176,428.40686L307.328491,428.437256L307.348694,428.469971L307.371796,428.520447L307.483673,428.821045L307.495239,428.857758L307.502991,428.895325L307.507019,428.933533L307.507507,428.953461L307.507507,430.981689L307.505554,431.020111L307.499725,431.058044L307.490112,431.095276L307.483673,431.113983L307.371796,431.414734L307.356598,431.449982L307.337982,431.483551L307.315979,431.515167L307.290924,431.54422L307.262939,431.570618L307.232544,431.594208L307.199951,431.61441L307.165436,431.631287L307.129456,431.644684L307.108765,431.650513L306.808899,431.726044L306.771179,431.733459L306.733246,431.736237L306.614319,431.795471L306.571289,431.871338L306.571289,432.89743L306.569336,432.935852L306.560089,432.989136L306.485291,433.289734L306.474121,433.326447L306.45929,433.361847L306.44104,433.39566L306.419373,433.427399L306.394592,433.456818L306.367096,433.483582L306.336945,433.507416L306.304474,433.527954L306.270203,433.545349L306.234314,433.55896L306.209625,433.566132L305.909607,433.641663L305.871948,433.649078L305.820007,433.653076L301.138489,433.690186L300.953064,433.69455L300.803497,433.706604L300.688568,433.724823L300.641144,433.737732L300.612457,434.002686L300.609161,434.026031L300.55127,434.363495L300.546295,434.387817L300.468475,434.712372L300.461548,434.737427L300.36377,435.049103L300.354767,435.074524L300.237183,435.373169L300.225983,435.398834L300.08844,435.684601L300.075195,435.709656L299.917725,435.982513L299.902527,436.006714L299.725098,436.266724L299.717682,436.277283L299.567627,436.481964L299.552673,436.500916L299.392517,436.692444L299.376099,436.710938L299.206116,436.889191L299.187988,436.906952L299.007996,437.072083L298.988434,437.088867L298.798492,437.240753L298.777802,437.256073L298.578003,437.394714L298.556488,437.408691L298.346619,437.53418L298.324463,437.546478L298.104736,437.658722L298.082367,437.669159L297.852661,437.76828L297.830261,437.777039L297.590576,437.862885L297.568695,437.870056L297.319061,437.942657L297.297791,437.94812L297.038269,438.007599L297.017731,438.011719L296.74823,438.057922L296.728668,438.060852L296.449097,438.093933L296.430359,438.095642L296.140961,438.115448L296.123322,438.11618L295.823944,438.122742L295.768494,438.119965L293.400513,437.822998L293.38797,437.837341L293.344666,437.908112L293.292755,438.022064L293.23938,438.173706L291.573395,444.118561L291.561218,444.155029L291.54541,444.190063L291.517334,444.236023L291.329956,444.499664L291.306122,444.529816L291.279358,444.557404L291.250061,444.582092L291.218323,444.60376L291.184509,444.622101L291.148987,444.636932L291.102783,444.65033L290.765808,444.725098L290.727997,444.731537L290.689697,444.7341L290.651276,444.732758L290.617828,444.728394L284.849426,443.713959L284.811981,443.705444L284.775635,443.693054L284.740723,443.677246L284.70752,443.657776L284.672516,443.631897L284.447296,443.444489L284.418945,443.418488L284.393555,443.389771L284.371033,443.358521L284.351959,443.325195L284.336273,443.290192L284.324097,443.253693L284.313293,443.199219L284.276184,442.898499L284.273529,442.860199L284.274628,442.821777L284.279602,442.783691L284.293335,442.730682L286.708038,435.577332L286.708038,435.385681L286.625336,435.269684L284.762726,433.877563L284.733185,433.852997L284.706299,433.825653L284.680908,433.793915L284.4935,433.531006L284.472839,433.498535L284.455566,433.464233L284.441833,433.428345L284.431732,433.391266L284.425415,433.352722L284.387695,433.015015L284.385406,432.976715L284.386963,432.938293L284.392456,432.900238L284.402771,432.859253L285.676697,428.802063L285.690094,428.766083L285.70697,428.731537L285.729736,428.695435L285.917114,428.432526L285.941071,428.402466L285.967834,428.374878L285.997253,428.350189L286.028992,428.328552L286.062805,428.310303L286.105957,428.292908L286.442932,428.180298L286.479919,428.169983L286.517731,428.163391L286.563202,428.160736L306.716248,428.160736L306.754639,428.162689zM286.038544,428.915466L284.764618,432.972687L284.802368,433.310394L284.989746,433.573273L286.899963,435.000946L287.087341,435.263855L287.087341,435.639282L284.65274,442.851837L284.689789,443.152466L284.914948,443.339844L290.683319,444.35434L291.020325,444.27951L291.207733,444.01593L292.818665,438.268829C292.968292,437.668243,293.16803,437.392334,293.417877,437.442444L295.81543,437.743073C297.438721,437.743073,298.637146,437.179535,299.411407,436.05249C299.911102,435.376404,300.197998,434.563049,300.272827,433.611023C300.272827,433.410614,300.560425,433.310394,301.134216,433.310394L305.816742,433.273315L306.116699,433.197815L306.191528,432.897186L306.191528,431.770813L306.341156,431.507263L306.641113,431.357635L306.715912,431.357635L307.015869,431.282104L307.127747,430.981476L307.127747,428.953217L307.015869,428.652588L306.715912,428.540009L286.562958,428.540009L286.225922,428.652588L286.038544,428.915466zM293.867462,436.3909C293.617615,436.315399,293.518097,436.09024,293.567505,435.714813L294.091919,433.686523L294.317047,433.422943L294.654053,433.273315L294.991089,433.273315C294.841461,434.32486,294.95401,435.138916,295.328094,435.714813L295.965057,436.27832L296.56427,436.20282C296.464752,436.1026,296.389923,435.965332,296.339813,435.789612C296.164795,435.464264,296.089996,435.125885,296.114685,434.775818C296.140076,434.399689,296.402283,433.899323,296.901978,433.273315L298.32486,433.273315C298.724335,433.273315,298.924744,433.410614,298.924744,433.686523C298.874634,434.738068,298.574707,435.539093,298.025604,436.09024C297.550598,436.565918,296.951385,436.804077,296.227264,436.804077C295.328094,436.804077,294.541504,436.666138,293.867462,436.3909zM294.549774,433.735291L294.437775,433.866486L293.943329,435.779205L293.936157,435.86142L293.937744,435.935822L293.945282,435.984222L293.953796,436.009888L293.957916,436.017059L293.961334,436.019379L294.008514,436.038574L294.248444,436.128571L294.497009,436.206268L294.758698,436.272797L295.029236,436.327148L295.311615,436.36972L295.519928,436.391357L295.076904,435.99942L295.049438,435.972565L295.024872,435.942993L295.003845,435.911743L294.936707,435.800964L294.925049,435.780426L294.864136,435.664032L294.854156,435.643616L294.799316,435.521637L294.790894,435.501343L294.742279,435.373901L294.735352,435.354065L294.69278,435.220917L294.687317,435.201965L294.650818,435.063324L294.646332,435.044708L294.616028,434.900482L294.612762,434.882751L294.588684,434.73291L294.586487,434.7164L294.568481,434.560974L294.566925,434.545288L294.554993,434.384277L294.55426,434.369324L294.548553,434.20285L294.548309,434.188995L294.548676,434.016937L294.54892,434.003784L294.555481,433.826111L294.556091,433.813721L294.56192,433.72995L294.549774,433.735291zM297.088989,433.653076L297.032074,433.72702L296.885773,433.933136L296.765625,434.120514L296.667389,434.294189L296.592712,434.449829L296.539581,434.589081L296.508331,434.704712L296.493469,434.809906L296.490082,434.906342L296.493835,435.00946L296.504669,435.108185L296.523773,435.211548L296.548706,435.307617L296.583099,435.410126L296.624207,435.508636L296.680023,435.621124L296.699371,435.667816L296.734985,435.772766L296.767334,435.842194L296.801025,435.895447L296.853424,435.957001L296.87677,435.987396L296.896973,436.020111L296.913757,436.054626L296.927002,436.090759L296.936493,436.12796L296.9422,436.165894L296.944031,436.204315L296.941956,436.242645L296.936005,436.280701L296.92627,436.31778L296.92334,436.325562L297.079498,436.272675L297.263123,436.188507L297.435669,436.086365L297.6008,435.964172L297.759399,435.819702L297.843292,435.730682L297.922211,435.63681L297.998566,435.534668L298.069458,435.428253L298.13623,435.315277L298.198608,435.195862L298.254425,435.074158L298.30719,434.942688L298.354492,434.80661L298.397552,434.66214L298.434631,434.515259L298.467834,434.356323L298.495209,434.19519L298.517456,434.026031L298.534241,433.850433L298.54422,433.693207L298.543243,433.683228L298.542999,433.683105L298.500916,433.669983L298.426758,433.658203L298.315613,433.653076L297.088989,433.653076z"/>
</svg>
