<?xml version="1.0" encoding="UTF-8"?>
<svg xmlns="http://www.w3.org/2000/svg" xmlns:xlink="http://www.w3.org/1999/xlink" width="23.069mm" height="22.021mm" viewBox="-276.693726 425.437164 23.069336 22.020508">
    <path transform="matrix(-1,0,0,1,0,0)" style="stroke:none;fill:#000000;fill-rule:evenodd" d="M265.139282,425.438873L265.177368,425.444336L265.214569,425.453705L265.250671,425.466827L265.285339,425.48349L265.318054,425.503571L265.348694,425.526917L265.376648,425.553192L265.401978,425.582123L265.424072,425.613495L265.443665,425.648285L268.813904,432.455048L276.371216,433.603943L276.408936,433.611725L276.445526,433.623169L276.480896,433.638245L276.514465,433.65686L276.546082,433.678741L276.575287,433.703674L276.601776,433.731506L276.625366,433.761932L276.645691,433.794373L276.66272,433.828918L276.676086,433.864929L276.685822,433.902008L276.69165,433.940063L276.693726,433.978363L276.691895,434.016815L276.686188,434.054749L276.676575,434.091949L276.66333,434.128082L276.646545,434.162598L276.626221,434.19519L276.602875,434.225708L276.57782,434.252228L271.0896,439.553894L272.393433,447.012848L272.398071,447.050903L272.398926,447.089325L272.395874,447.127625L272.388947,447.165436L272.378113,447.202301L272.36377,447.237915L272.345886,447.271851L272.324615,447.303955L272.300171,447.333618L272.272949,447.360626L272.243134,447.384827L272.210907,447.405853L272.17688,447.423492L272.141113,447.437714L272.104156,447.448181L272.066345,447.454742L272.028015,447.45755L271.989594,447.456451L271.951538,447.451569L271.914093,447.442719L271.877716,447.430176L271.842468,447.413879L265.104889,443.861359L258.477966,447.412659L258.443298,447.429077L258.407074,447.441864L258.369751,447.450989L258.331665,447.456207L258.293243,447.457672L258.254944,447.455109L258.21701,447.448792L258.180023,447.438568L258.144165,447.424835L258.109863,447.407318L258.077515,447.386658L258.047485,447.362701L258.02002,447.335815L257.995422,447.306274L257.973907,447.274536L257.955688,447.240601L257.941071,447.205078L257.930023,447.168365L257.922852,447.130554L257.919434,447.092377L257.919922,447.053925L257.924438,447.015381L259.174377,439.554016L253.738831,434.250885L253.712799,434.222687L253.689697,434.192017L253.669739,434.15921L253.653214,434.12442L253.64032,434.088318L253.631195,434.050964L253.625854,434.012909L253.62439,433.974487L253.626831,433.936188L253.633148,433.898224L253.64325,433.861145L253.656982,433.825409L253.674255,433.791107L253.695038,433.758759L253.718872,433.728607L253.745636,433.701111L253.775177,433.676422L253.806915,433.654785L253.840729,433.636536L253.876236,433.621826L253.912964,433.610779L253.94664,433.604065L261.474518,432.455658L264.761841,425.65155L264.780212,425.617859L264.801971,425.586243L264.826904,425.556946L264.854492,425.530304L264.884766,425.506592L264.917236,425.486053L264.95166,425.468903L264.987549,425.455292L265.024628,425.445435L265.062561,425.439362L265.100983,425.437164L265.139282,425.438873zM261.729218,432.799988L254.003967,433.978516L259.581543,439.420166L258.298676,447.077484L265.103516,443.430725L272.019531,447.077484L270.681061,439.420166L276.31424,433.978516L268.561523,432.799988L265.103516,425.81601L261.729218,432.799988"/>
</svg>
