<?xml version="1.0" encoding="UTF-8"?>
<svg xmlns="http://www.w3.org/2000/svg" xmlns:xlink="http://www.w3.org/1999/xlink" width="22.947mm" height="16.567mm" viewBox="-245.900970 428.164124 22.947357 16.566589">
    <path transform="matrix(-1,0,0,1,0,0)" style="stroke:none;fill:#000000;fill-rule:evenodd" d="M236.361404,428.166077L236.392654,428.170593L237.983597,428.467773L238.035767,428.481384L238.261459,428.557892L238.274353,428.5625L238.488373,428.643738L238.501862,428.6492L238.704224,428.735077L238.718323,428.741394L238.909241,428.831726L238.924927,428.83963L239.104172,428.934845L239.120102,428.943726L239.287796,429.043457L239.304581,429.054016L239.460724,429.158234L239.478226,429.170654L240.362656,429.836304L240.392075,429.860992L240.415909,429.885071L241.489441,431.07254L241.513763,431.102325L241.534912,431.134308L241.545853,431.154236L242.285812,432.601105L242.301498,432.636108L242.314026,432.67392L243.163055,435.783325L243.210236,435.933533L243.266663,436.079193L243.335022,436.227814L243.416611,436.381744L243.509155,436.535583L243.616028,436.695007L243.73436,436.854675L243.855591,437.004852L244.904068,437.988617L244.910263,437.990936L244.944794,438.007843L244.977386,438.028137L245.007782,438.051727L245.029449,438.071808L245.769394,438.813812L245.795166,438.842407L245.817795,438.873413L245.83725,438.906494L245.853302,438.941376L245.865707,438.977753L245.873367,439.010101L245.892456,439.109314L245.897812,439.147369L245.899261,439.174133L245.90097,439.267517L245.899628,439.305969L245.895142,439.340851L245.879578,439.428406L245.870941,439.465851L245.857925,439.503937L245.824966,439.585632L245.808807,439.620544L245.789337,439.653381L245.738998,439.72937L245.716125,439.760254L245.695709,439.783386L245.628082,439.853424L245.600006,439.879669L245.583954,439.892456L245.498947,439.956787L245.458466,439.983521L245.356186,440.042023L245.321899,440.059418L245.272278,440.077423L243.977081,440.448669L243.939636,440.457428L243.90947,440.461548L242.391846,440.609924L242.354889,440.611725L238.625916,440.611725L238.462463,440.616974L238.303543,440.63205L238.138031,440.657837L237.964386,440.694427L237.788422,440.741119L237.60054,440.800598L237.410355,440.870392L237.214325,440.951508L237.023163,441.034668L236.851105,441.118958L236.691437,441.207001L236.540161,441.300873L236.402252,441.397308L236.273117,441.499329L236.154556,441.605011L236.041458,441.719543L234.527985,443.347931L234.520569,443.355713L234.395187,443.483154L234.379257,443.498352L234.243423,443.621307L234.227371,443.635162L234.081085,443.753357L234.065521,443.765289L233.908905,443.878998L233.893097,443.889801L233.725891,443.998779L233.710922,444.007996L233.533386,444.112335L233.519043,444.120361L233.331161,444.220093L233.317047,444.227142L233.118591,444.322113L233.083206,444.336945L233.042953,444.348999L231.488983,444.720367L231.451294,444.727295L231.400818,444.730713L228.366318,444.730713L228.327881,444.72876L228.305145,444.725708L226.713486,444.465607L226.675903,444.457581L226.641251,444.446381L226.415802,444.361755L226.406189,444.357971L226.192413,444.271027L226.18219,444.266785L225.979843,444.177521L225.968658,444.172302L225.777863,444.080597L225.76619,444.074768L225.586945,443.980896L225.573929,443.973724L225.406357,443.877411L225.39299,443.869385L225.236847,443.770874L225.22226,443.761139L225.077667,443.660339L225.072067,443.656464L223.739777,442.691406L223.733582,442.686798L223.594101,442.58136L223.565887,442.557892L223.443802,442.445526L223.415588,442.416565L223.310883,442.297272L223.284012,442.262878L223.196579,442.136536L223.172623,442.096893L223.102692,441.963593L223.083374,441.920441L223.030823,441.780212L223.017212,441.735474L222.981949,441.588226L222.974045,441.543457L222.956177,441.38916L222.953613,441.34549L222.953613,441.190704L222.956528,441.143982L222.975021,440.994904L222.984131,440.946625L223.021103,440.803497L223.036789,440.756195L223.092361,440.618805L223.113403,440.57489L223.187454,440.443329L223.212387,440.404633L223.304932,440.278778L223.332047,440.246063L223.443069,440.125916L223.470673,440.098938L223.59082,439.992889L223.694061,439.889648L223.705856,439.878357L223.825516,439.768524L223.933258,439.657013L224.04184,439.530792L224.146301,439.395569L224.250153,439.24649L224.350357,439.087433L224.451538,438.910736L224.54248,438.736603L224.620316,438.54715L224.690002,438.356232L224.748245,438.171631L224.795792,437.992279L224.831909,437.820435L224.857803,437.651917L224.873016,437.491638L224.878235,437.332703L224.878235,435.371216L224.881638,435.32016L225.103333,433.687866L225.110504,433.650055L225.123627,433.606873L225.715973,432.011078L225.731171,431.9758L225.741867,431.955627L225.889374,431.696106L225.91539,431.656219L226.914856,430.320526L226.939423,430.290985L226.963501,430.267029L228.148163,429.190826L228.177948,429.166382L228.199966,429.151306L228.344543,429.059509L228.35939,429.050629L228.515411,428.961243L228.529266,428.953583L228.69696,428.866638L228.70961,428.860443L228.888855,428.775787L228.900528,428.770447L229.091324,428.68811L229.102264,428.683624L229.304489,428.603729L229.31459,428.599976L229.528473,428.522369L229.537613,428.519226L229.762939,428.443939L229.799896,428.433594L229.82338,428.429108L231.452255,428.168884L231.490448,428.164734L231.512085,428.164124L236.322968,428.164124L236.361404,428.166077zM226.219543,431.883392L226.071976,432.142853L225.479614,433.738708L225.257919,435.370911L225.257919,437.337402C225.257919,437.807587,225.134369,438.327179,224.887268,438.896179C224.61615,439.440491,224.307968,439.860565,223.962708,440.157776L223.851517,440.268982C223.481552,440.566162,223.308578,440.924469,223.333298,441.345215C223.358002,441.765961,223.567352,442.111908,223.962708,442.383728L225.294983,443.348785C225.664948,443.620575,226.158463,443.868378,226.774826,444.090759L228.366562,444.350891L231.401077,444.350891L232.955048,443.979553C233.497986,443.732483,233.929718,443.435272,234.250259,443.089325L235.767853,441.456421C236.088394,441.109802,236.520142,440.825623,237.063065,440.603241C237.630707,440.355438,238.148926,440.231903,238.617737,440.231903L242.355103,440.231903L243.872696,440.083649L245.167908,439.712311C245.463745,439.564056,245.574936,439.354004,245.500809,439.081512L244.76088,438.339539L244.723816,438.339539L243.576874,437.263275C243.181503,436.793793,242.922745,436.335968,242.799194,435.890503L241.948074,432.773621L241.208145,431.326721L240.134644,430.139282L239.394714,429.582642C239.02475,429.286102,238.53125,429.03833,237.914185,428.840637L236.323151,428.543427L231.512268,428.543427L229.883469,428.803589C229.26709,429.001251,228.77359,429.223663,228.403625,429.471436L227.218918,430.547699L226.219543,431.883392"/>
</svg>
