<?xml version="1.0" encoding="UTF-8"?>
<svg xmlns="http://www.w3.org/2000/svg" xmlns:xlink="http://www.w3.org/1999/xlink" width="23.373mm" height="6.842mm" viewBox="-336.892212 269.172577 23.372742 6.841797">
    <path transform="matrix(-1,0,0,1,0,0)" style="stroke:none;fill:#000000;fill-rule:evenodd" d="M319.915222,269.17453L319.953156,269.180359L319.990356,269.189972L320.026367,269.203217L320.060913,269.220123L320.093506,269.240448L320.123901,269.264038L320.151733,269.290405L320.187622,269.33432L320.316406,269.518188L320.340576,269.506012L320.375732,269.49057L320.412354,269.478668L320.44989,269.470642L320.488098,269.46637L320.525421,269.465881L321.213196,269.492035L321.251404,269.495453L321.289215,269.502747L321.325928,269.513672L321.36145,269.528381L321.395264,269.546631L321.427124,269.568146L321.468323,269.604156L321.488892,269.624939L336.512695,269.624939L336.551086,269.626892L336.58905,269.632721L336.626251,269.642334L336.662231,269.655579L336.696777,269.672485L336.72937,269.69281L336.759766,269.7164L336.787598,269.742767L336.812683,269.771973L336.834564,269.803467L336.853271,269.837036L336.868469,269.872284L336.880035,269.909027L336.887817,269.946594L336.891724,269.984772L336.892212,270.004486L336.892212,271.096466L336.890259,271.134888L336.884399,271.172852L336.874817,271.210052L336.861572,271.246033L336.844666,271.280579L336.824341,271.313171L336.800751,271.343567L336.774353,271.371429L336.745178,271.396484L336.713684,271.418365L336.680115,271.437073L336.644836,271.452301L336.608154,271.463837L336.570557,271.471619L336.532379,271.475525L336.512695,271.476013L327.888428,271.476013L327.881348,271.527313L327.874573,271.563446L327.855957,271.641632L327.845245,271.678345L327.819214,271.753265L327.804382,271.789734L327.770813,271.861359L327.752808,271.895416L327.711975,271.963623L327.690186,271.995972L327.641785,272.060669L327.61908,272.088287L327.563232,272.149811L327.525177,272.186279L327.457825,272.242462L327.431427,272.262543L327.361511,272.311188L327.332703,272.329407L327.260315,272.370636L327.228333,272.386932L327.153564,272.420624L327.119263,272.434113L327.041931,272.460266L327.007141,272.470123L326.92749,272.488831L326.891998,272.495514L326.809906,272.506714L326.774902,272.509766L326.690247,272.513397L326.67395,272.513763L320.49649,272.513763L320.498779,272.592926L320.497925,272.631592L320.486511,272.787994L320.479828,272.836487L320.451843,272.972931L320.442261,273.010162L320.434082,273.033142L320.389343,273.149261L320.365906,273.199249L320.329895,273.263092L320.306885,273.29895L320.265076,273.356842L320.23761,273.390533L320.190063,273.442566L320.158569,273.473328L320.105286,273.519562L320.07074,273.546173L320.011658,273.586548L319.976013,273.608185L319.911194,273.642731L319.876068,273.659149L319.80542,273.687958L319.771362,273.700012L319.695007,273.722992L319.657776,273.732117L319.61972,273.737579L319.585693,273.739044L319.003662,273.739044L318.965271,273.737091L318.927307,273.731262L318.890106,273.721649L318.854126,273.708405L318.813965,273.688202L318.770569,273.663177L318.738342,273.642365L318.701965,273.612579L318.664276,273.577545L318.63739,273.549957L318.61261,273.518341L318.58075,273.473206L318.560181,273.440765L318.547668,273.416809L318.521637,273.361816L318.502441,273.312714L318.482117,273.247772L318.471802,273.206421L318.457306,273.1315L318.45697,273.129211L318.240845,273.247772L317.433167,273.933502L316.973877,274.371155L316.294098,275.107819L316.254211,275.145142L315.302185,275.917328L315.271179,275.939941L315.237976,275.959412L315.203064,275.975342L315.1745,275.985443L315.134491,275.997711L315.09729,276.00708L315.059204,276.012665L315.020813,276.014374L314.999512,276.013641L314.958527,276.011078L314.920349,276.006836L314.882751,275.998566L314.835205,275.982269L314.793518,275.964752L314.75885,275.94809L314.726135,275.92804L314.710205,275.916595L314.667664,275.884125L314.638367,275.859192L314.61792,275.838531L314.574524,275.791107L314.544708,275.754272L314.500427,275.691772L314.482086,275.663177L314.437073,275.585846L314.425293,275.564087L314.379333,275.471649L314.36499,275.439056L314.047241,274.614105L314.031921,274.563995L313.714783,273.206299L313.71344,273.200592L313.528107,272.348022L313.521912,272.310089L313.51947,272.271759L313.520935,272.233337L313.526398,272.195282L313.535522,272.158081L313.548401,272.121826L313.564941,272.087189L313.5849,272.054352L313.608002,272.023712L313.634155,271.995483L313.663086,271.970062L313.694336,271.947815L313.727661,271.928741L313.772278,271.909637L315.200623,271.4039L315.216187,271.398773L317.041351,270.839996L317.078674,270.830658L317.116638,270.825043L317.152527,270.823364L317.942322,270.823364L318.035339,270.821167L318.119019,270.814972L318.191711,270.805481L318.256409,270.792816L318.311401,270.777863L318.356262,270.761566L318.393585,270.744202L318.427643,270.723999L319.203247,270.188324L319.287994,269.505402L319.294556,269.46759L319.304993,269.430634L319.319122,269.394867L319.336853,269.360687L319.35791,269.328583L319.381989,269.298676L319.409119,269.271454L319.438782,269.247009L319.470764,269.22583L319.504822,269.207855L319.540314,269.193481L319.577271,269.1828L319.615112,269.175873L319.664612,269.172577L319.876801,269.172577L319.915222,269.17453zM320.510529,269.845093L320.19342,270.004333L319.876312,269.552002L319.664215,269.552002L319.558502,270.403809L318.63327,271.042847C318.47403,271.149231,318.245453,271.202759,317.945496,271.202759L317.152039,271.202759L315.326935,271.761475L313.89856,272.267334L314.083893,273.119843L314.401001,274.477509L314.718811,275.302551C314.842346,275.568848,314.95697,275.675262,315.062683,275.622406L316.014709,274.85022L316.702454,274.104797L317.178131,273.651794L318.024445,272.933136L318.606506,272.613983L318.870758,272.506897L318.817902,272.879608C318.817902,273.145905,318.879669,273.305847,319.003235,273.359375L319.585266,273.359375C319.796692,273.305847,319.94632,273.190521,320.034851,273.012756C320.10556,272.871368,320.131653,272.675751,320.1138,272.427277L320.060944,272.134186L326.673584,272.134186C326.902161,272.134186,327.105316,272.054565,327.281708,271.894623C327.440277,271.735382,327.519897,271.539764,327.519897,271.309143L327.519897,271.096375L336.512238,271.096375L336.512238,270.004333L321.357513,270.004333L321.277893,269.951477L321.198273,269.871185L320.510529,269.845093M319.399963,272.320892L319.664215,272.347656C319.805603,272.489746,319.849548,272.640045,319.796692,272.799988C319.778839,272.9599,319.638123,273.021667,319.373871,272.986664L319.108917,272.826752L319.161774,272.506897L319.399963,272.320892z"/>
</svg>
