<?xml version="1.0" encoding="UTF-8"?>
<svg xmlns="http://www.w3.org/2000/svg" xmlns:xlink="http://www.w3.org/1999/xlink" width="22.789mm" height="6.030mm" viewBox="-305.180481 269.578247 22.789001 6.030457">
    <path transform="matrix(-1,0,0,1,0,0)" style="stroke:none;fill:#000000;fill-rule:evenodd" d="M291.509796,269.5802L291.547729,269.586029L291.584961,269.595642L291.620453,269.608765L291.800293,269.685638L291.834839,269.702515L291.867554,269.722717L291.897949,269.746185L291.925812,269.772583L291.950867,269.801758L291.981506,269.847595L292.018219,269.912537L295.324158,269.912537L295.373169,269.91571L295.422638,269.92215L295.460449,269.929077L295.497314,269.939667L295.518341,269.947693L295.564911,269.966888L295.599701,269.983307L295.646393,270.01297L295.689819,270.045197L295.719482,270.069641L295.74646,270.096893L295.786743,270.141876L295.820282,270.185425L295.922546,270.339844L295.928406,270.349701L303.060333,270.349701L303.060333,270.266663L303.061066,270.243774L303.063965,270.195526L303.070679,270.143707L303.079041,270.101868L303.088562,270.064667L303.098633,270.03598L303.112732,270.00058L303.128662,269.965668L303.152161,269.926636L303.171967,269.897705L303.19519,269.867188L303.23288,269.828644L303.258179,269.806122L303.288086,269.782043L303.33429,269.753479L303.365173,269.737305L303.400085,269.721252L303.444611,269.706543L303.481079,269.69693L303.518646,269.689026L303.549194,269.685516L303.591125,269.682343L303.644531,269.682098L303.69281,269.685272L303.730988,269.689636L303.753235,269.694031L303.794922,269.703613L303.831787,269.714203L303.86792,269.728546L303.903168,269.74472L303.937225,269.762482L303.977844,269.79007L304.006775,269.812592L304.03595,269.837616L304.074158,269.880066L304.096527,269.909027L304.11853,269.940521L304.142365,269.985382L304.158295,270.020752L304.172272,270.056519L304.182129,270.091553L304.191742,270.133362L304.198425,270.171326L304.2005,270.193573L304.203644,270.241852L304.204498,270.266663L304.204498,270.349701L304.800964,270.349701L304.839386,270.351654L304.877319,270.357483L304.914551,270.367096L304.950531,270.380341L304.985077,270.397247L305.01767,270.417572L305.048065,270.441162L305.075928,270.467529L305.100952,270.496735L305.122864,270.528229L305.141571,270.561768L305.156799,270.597046L305.168335,270.633759L305.176117,270.671356L305.179993,270.709534L305.180481,270.729218L305.180481,271.371674L305.178558,271.410095L305.172699,271.448029L305.163086,271.485229L305.149841,271.52124L305.132935,271.555756L305.11264,271.588348L305.08905,271.618774L305.065582,271.643555L305.071289,271.675903L305.073364,271.698059L305.077362,271.758362L305.078217,271.783539L305.078217,272.066376L305.077484,272.089355L305.073486,272.15564L305.066193,272.210358L305.054138,272.267883L305.044434,272.305084L305.033478,272.3349L305.013428,272.383514L304.997009,272.418304L304.972534,272.457825L304.944458,272.497589L304.920746,272.52774L304.881226,272.567017L304.845093,272.5979L304.814575,272.621399L304.767761,272.649109L304.723633,272.671112L304.688354,272.686554L304.647858,272.699341L304.595825,272.712585L304.558258,272.720123L304.529663,272.723297L304.469482,272.727661L304.441986,272.728638L304.262268,272.728638L304.223846,272.726685L304.185913,272.720856L304.148682,272.711243L304.112701,272.697998L304.093109,272.688873L304.018555,272.651794L300.726868,272.651794L300.710449,272.664307L300.682373,272.681702L300.582642,272.737885L300.548248,272.755035L300.511414,272.76889L300.405487,272.802582L300.368286,272.812439L300.328125,272.818634L300.215881,272.829803L300.178192,272.831635L295.554688,272.831635L295.535126,272.831146L295.487946,272.828705L295.438202,272.822876L295.398926,272.815582L295.361603,272.80658L295.331787,272.7966L295.300537,272.784576L295.265411,272.76889L295.232086,272.749786L295.213623,272.737274L295.190369,272.720367L295.160583,272.696167L295.141357,272.677216L292.45343,272.677216L292.179352,272.681458L291.942841,272.69397L291.739502,272.714172L291.572296,272.740906L291.439636,272.772766L291.348541,272.805237L291.304047,272.828949L291.142059,273.113281L290.918335,273.610626L290.913086,273.621826L290.858612,273.732971L290.81543,273.835358L290.78186,273.930939L290.755005,274.02713L290.736023,274.118927L290.723877,274.209534L290.718628,274.298065L290.719604,274.349854L290.808868,274.662262L290.817505,274.699707L290.822388,274.737762L290.823364,274.776215L290.820435,274.814514L290.813599,274.852325L290.803162,274.889282L290.788818,274.924927L290.771057,274.958984L290.752808,274.987183L290.62439,275.167023L290.600586,275.197083L290.5737,275.22467L290.54425,275.249237L290.512512,275.270874L290.478729,275.289124L290.443207,275.303833L290.406494,275.314911L290.368652,275.322205L290.330475,275.325745L290.274292,275.323792L288.630463,275.143921L288.592529,275.137726L288.555298,275.127869L288.51944,275.114258L288.485016,275.097107L288.452576,275.076569L288.422394,275.052856L288.394806,275.026093L288.369995,274.996796L288.348206,274.965179L288.329742,274.931366L288.314911,274.895996L288.303589,274.859253L288.296173,274.821564L288.292542,274.783386L288.292786,274.744965L288.296906,274.706757L288.310028,274.651306L288.515198,274.008148L288.528809,273.972168L288.554352,273.923279L289.017029,273.177856L289.023621,273.167755L289.087585,273.071564L289.136841,272.992401L289.176819,272.922241L289.186188,272.90387L289.068115,272.924896L288.955383,272.959198L288.824432,273.006622L288.684082,273.065125L288.537689,273.133331L288.382263,273.213226L288.219208,273.304199L288.053955,273.402924L287.874084,273.517609L287.846741,273.533539L285.303741,274.870575L285.27298,274.88504L283.603607,275.579651L283.567505,275.592529L283.530151,275.601776L283.492096,275.607117L283.453674,275.608704L283.415375,275.606384L283.377441,275.600067L283.340332,275.590088L283.304474,275.576355L283.270172,275.559082L283.237823,275.538422L283.207672,275.514587L283.180054,275.487823L283.155396,275.458405L283.133728,275.426666L283.115356,275.392975L283.100647,275.357483L283.089478,275.32074L283.082062,275.283051L283.078278,275.229187L283.078278,274.766602L283.073792,274.55246L283.060394,274.360077L283.039368,274.195923L283.017731,274.089874L282.600494,273.205688L282.586761,273.172363L282.533875,273.025604L282.530334,273.015625L282.487061,272.884155L282.483032,272.871155L282.449341,272.755035L282.444611,272.73703L282.420654,272.636108L282.415771,272.611664L282.401306,272.526062L282.39682,272.488342L282.392059,272.41806L282.391479,272.379639L282.392548,272.359924L282.397308,272.30484L282.402527,272.266785L282.411652,272.229462L282.418823,272.207703L282.433289,272.167938L282.448242,272.132538L282.466736,272.098724L282.488495,272.067108L282.513306,272.037811L282.532898,272.018463L282.554291,271.998779L282.583832,271.974213L282.631012,271.944061L282.669067,271.923492L282.712372,271.903442L282.767334,271.882141L282.793243,271.873291L282.865112,271.851257L282.881531,271.846649L282.970184,271.823792L282.98172,271.820984L283.08728,271.797272L283.096039,271.795319L283.218384,271.770874L283.224945,271.769684L283.364166,271.744385L283.369629,271.743408L283.525787,271.717377L283.529663,271.716766L283.702576,271.689789L283.706482,271.689178L283.896179,271.66156L283.898743,271.661194L284.105347,271.632629L284.108032,271.632263L284.331543,271.602966L284.33371,271.602722L284.574127,271.57254L284.57608,271.572296L284.833252,271.541412L284.834839,271.54129L285.108948,271.509552L285.111633,271.509186L288.191833,271.17514L289.434265,271.022675L290.142242,270.885376L290.834534,270.423279L290.834534,270.21521L290.836487,270.176788L290.842316,270.138855L290.848999,270.111237L290.900452,269.930664L290.912842,269.894287L290.928894,269.859406L290.948242,269.826202L290.970978,269.795197L290.996765,269.766602L291.025208,269.740845L291.056091,269.718109L291.089172,269.698517L291.116394,269.685638L291.296265,269.608765L291.332275,269.59552L291.369476,269.585907L291.40741,269.580078L291.445343,269.578247L291.471375,269.578247L291.509796,269.5802zM291.753418,270.215393L291.651123,270.034882L291.471313,269.958008L291.445221,269.958008L291.265381,270.034882L291.213898,270.215393L291.213898,270.626556L290.289337,271.243622L289.493134,271.398041L288.234985,271.55249L285.152435,271.886749C283.645813,272.05835,282.858521,272.194946,282.789886,272.297882C282.738403,272.383698,282.789886,272.632172,282.943665,273.044006L283.380188,273.969238C283.431671,274.175171,283.457764,274.440796,283.457764,274.766815L283.457764,275.229462L285.127045,274.534821L287.670105,273.197754C288.166351,272.872406,288.602905,272.658264,288.979736,272.555298L289.41626,272.477722L289.62149,272.786591C289.62149,272.906708,289.527466,273.103699,289.339386,273.378265L288.87677,274.123688L288.671539,274.766815L290.31543,274.946655L290.443787,274.766815L290.34082,274.406464C290.323669,274.098297,290.401215,273.781189,290.572144,273.455139L290.803436,272.94104L291.008667,272.580688C291.180267,272.392609,291.659363,272.297882,292.447357,272.297882L295.400848,272.297882C295.366547,272.400848,295.41803,272.452332,295.554626,272.452332L300.178101,272.452332C300.331848,272.452332,300.469147,272.392609,300.589264,272.272491L304.107666,272.272491L304.262115,272.349365L304.441925,272.349365C304.612854,272.349365,304.698639,272.255341,304.698639,272.066589L304.698639,271.783783C304.698639,271.612183,304.612854,271.526398,304.441925,271.526398L304.262115,271.526398L304.159149,271.55249L304.159149,271.371948L304.800903,271.371948L304.800903,270.729492L303.82486,270.729492L303.82486,270.266876C303.82486,270.129608,303.756927,270.060974,303.619629,270.060974C303.500214,270.060974,303.439819,270.129608,303.439819,270.266876L303.439819,270.729492L295.606079,270.729492L295.606079,270.549683L295.503815,270.395233C295.452332,270.326599,295.391937,270.292267,295.323975,270.292267L291.753418,270.292267L291.753418,270.215393M303.003265,271.371948L303.003265,271.577881L300.999695,271.577881L301.025787,271.526398L301.077271,271.371948L303.003265,271.371948z"/>
</svg>
