<?xml version="1.0" encoding="utf-8"?>
<!-- Generator: Adobe Adobe Illustrator 24.2.0, SVG Export Plug-In . SVG Version: 6.00 Build 0)  -->
<svg version="1.1" id="Layer_2" xmlns="http://www.w3.org/2000/svg" xmlns:xlink="http://www.w3.org/1999/xlink" x="0px" y="0px"
	 viewBox="0 0 595.28 841.89" style="enable-background:new 0 0 595.28 841.89;" xml:space="preserve">
<style type="text/css">
	.st0{fill:#FFFFFF;stroke:#000000;stroke-width:0.5;stroke-miterlimit:10;}
</style>
<g id="_x33__1_">
	<g>
		<path class="st0" d="M492.81,388.62l-22.86,0.08c-0.18-0.1-0.3-0.28-0.3-0.49c0-0.31,0.25-0.57,0.57-0.57h8.19v-3.35
			c0-3.65-2.96-6.6-6.6-6.6h-28.37c-3.65,0-6.6,2.96-6.6,6.6v4.52l-32.39,0.12v-0.16h-8.19c-0.31,0-0.57-0.25-0.57-0.57
			c0-0.31,0.25-0.57,0.57-0.57h8.19v-3.35c0-3.65-2.96-6.6-6.6-6.6h-28.37c-3.65,0-6.6,2.96-6.6,6.6v4.8l-15.59,0.06l0.01,10.1
			l-9.42-10.02c-0.09,0.33-0.37,0.59-0.71,0.66l-6.15,1.27c-0.04,0-0.09,0.01-0.13,0.01l-4.41-0.35c-0.29-0.02-0.53,0.21-0.5,0.5
			c0.1,0.99,0.7,3.15,3.97,4.64c4.38,1.99-10.68,10.32-10.48,12.11c0.2,1.79-0.99,15.92-0.99,17.31c0,1.39,20.44,8.98,20.43,8.99
			c0,0,0,0,0,0l-4.89,2.74c-0.06,0.02-0.13,0.04-0.19,0.06l-7.45,0.57c-0.13,0.01-0.27-0.04-0.36-0.13l-2.45-2.45
			c-0.12-0.12-0.29-0.16-0.45-0.12l-4.63,1.3c-0.06,0.01-0.1,0.01-0.16,0.02c-1.09-0.1-13.5-1.3-14.45-3.77
			c-0.86-2.23,1.39-8.05,2.02-9.62c0.09-0.23-0.01-0.48-0.23-0.58l-4.59-2.15c-0.22-0.1-0.32-0.36-0.23-0.58l0.25-0.65
			c0.34-0.88-0.03-1.87-0.86-2.32l-0.95-0.51c-0.12-0.07-0.21-0.18-0.23-0.32c-0.14-0.77-0.51-3.41,0.84-4.76
			c1.38-1.38,1.12-2.9,1.02-3.29c-0.02-0.07-0.02-0.13-0.01-0.2l0.8-5.29c0.1-0.68-0.29-1.33-0.93-1.57
			c-0.63-0.23-1.34,0.01-1.7,0.57l-2.73,4.25c-0.13,0.2-0.39,0.27-0.6,0.16l-2.24-1.19c-0.21-0.11-0.3-0.37-0.21-0.58l2.35-5.61
			c0.05-0.11,0.05-0.24,0-0.35l-1.88-4.78c-0.27-0.69-1.2-0.8-1.63-0.19l-0.06,0.08c-0.36,0.53-1.13,0.54-1.51,0.02
			c-1.55-2.13-4.95-6.75-5.41-6.9c-0.01,0-0.01,0-0.02-0.01c-0.94-0.3-1.94,0.25-2.27,1.18c-1.57,4.46-6.5,19.08-8.66,32.86
			c-2.21,14.14-4.43,22.3-5.02,24.36c-0.08,0.27,0.11,0.55,0.39,0.58l9.05,1.06c0.3,0.04,0.49,0.34,0.38,0.62
			c-0.32,0.82-1.16,2.29-3.01,2.43c-2.01,0.15-4.62-0.29-5.69-0.5c-0.26-0.05-0.51,0.14-0.54,0.4l-6.86,62.69
			c-0.03,0.26,0.17,0.5,0.43,0.51l3.12,0.16c0.21,0.01,0.39,0.17,0.42,0.38c0.14,1.04,0.64,4.03,1.95,5.01
			c1.21,0.9,3.9,1.58,5.13,1.86c0.39,0.09,0.67,0.41,0.71,0.8l0.03,0.25c0.05,0.49-0.28,0.94-0.77,1.02l-2.42,0.4
			c-0.18,0.03-0.32,0.16-0.37,0.34c-0.61,2.38-4.86,18.76-6.89,20.61c-1.73,1.57-3.71,2.15-4.47,2.33
			c-0.19,0.04-0.33,0.19-0.36,0.39l-1.08,7.71c-0.04,0.28,0.17,0.52,0.45,0.52l23.15,0.19c0.23,0,0.43-0.17,0.46-0.4l0.25-1.75
			c0.05-0.38,0.34-0.69,0.72-0.77l0.07-0.01c0.39-0.09,0.69-0.42,0.72-0.82l0.51-5.59c0.06-0.7-0.39-1.34-1.07-1.52l-0.05-0.01
			c-0.72-0.19-1.18-0.9-1.05-1.64c0.58-3.29,2.05-11.79,2.05-13.15c0-1.7,0-3.91,1.18-4.64c1.18-0.74,1.47-2.06,5.38-2.36
			c3.9-0.29,16.85-0.74,16.88-0.74c0,0,0,0,0,0l19.21,1.37c0.23,0.02,0.41,0.2,0.43,0.42l0.89,10.88c0,0.03,0,0.05,0,0.08
			l-0.99,10.3c0,0.03,0,0.06,0,0.09c0.06,0.52,0.61,5.54,0.62,9.68l-0.35,14.2c-16.92,22.32-36.41,47.59-36.43,47.76
			c0,0.02,0,0.03,0,0.05l0.55,5.73c0,0.02,0,0.03,0,0.05l-0.49,6.05c-0.01,0.13-0.11,0.23-0.24,0.23l-10.68,0.76c0,0,0,0,0,0
			c-0.02,0-7.22-0.25-9.39-0.41c-2.17-0.16-2.34-0.9-2.99-1.31c-0.66-0.41-0.66-1.64-0.66-2.58c0-0.76-0.82-5.48-1.14-7.31
			c-0.07-0.41,0.18-0.8,0.58-0.91l0.03-0.01c0.38-0.1,0.63-0.46,0.59-0.85l-0.28-3.11c-0.02-0.22-0.18-0.41-0.4-0.46l-0.04-0.01
			c-0.21-0.05-0.37-0.22-0.4-0.43l-0.14-0.97c-0.02-0.13-0.13-0.22-0.26-0.22l-12.88,0.11c-0.15,0-0.27,0.14-0.25,0.29l0.6,4.29
			c0.01,0.11,0.09,0.19,0.2,0.21c0.42,0.1,1.52,0.42,2.48,1.29c1.13,1.03,3.49,10.13,3.83,11.46c0.03,0.1,0.11,0.17,0.21,0.19
			l1.35,0.22c0.27,0.04,0.46,0.29,0.43,0.57l-0.02,0.14c-0.02,0.22-0.18,0.4-0.4,0.45c-0.69,0.15-2.18,0.53-2.85,1.03
			c-0.73,0.54-1.01,2.21-1.08,2.79c-0.02,0.12-0.11,0.21-0.23,0.21l-1.73,0.09c-0.15,0.01-0.26,0.14-0.24,0.28l3.81,34.87
			c0.02,0.15,0.15,0.25,0.3,0.22c0.59-0.11,2.04-0.36,3.16-0.28c1.03,0.08,1.49,0.89,1.67,1.35c0.06,0.16-0.04,0.33-0.21,0.35
			l-5.03,0.59c-0.16,0.02-0.26,0.17-0.22,0.32c0.33,1.14,1.56,5.68,2.79,13.55c1.2,7.66,3.94,15.79,4.82,18.27
			c0.18,0.52,0.74,0.82,1.26,0.66c0,0,0.01,0,0.01,0c0.26-0.09,2.15-2.66,3.01-3.84c0.21-0.29,0.64-0.28,0.84,0.01l0.03,0.05
			c0.23,0.34,0.75,0.28,0.9-0.1l1.05-2.66c0.02-0.06,0.02-0.13,0-0.19l-1.31-3.12c-0.05-0.12,0-0.26,0.12-0.33l1.25-0.66
			c0.12-0.06,0.26-0.02,0.34,0.09l1.52,2.36c0.2,0.31,0.6,0.45,0.95,0.32c0.36-0.13,0.58-0.5,0.52-0.87l-0.45-2.94
			c-0.01-0.04,0-0.07,0-0.11c0.05-0.21,0.2-1.06-0.57-1.83c-0.75-0.75-0.55-2.22-0.47-2.65c0.01-0.08,0.06-0.14,0.13-0.18l0.53-0.28
			c0.46-0.25,0.67-0.8,0.48-1.29l-0.14-0.36c-0.05-0.13,0.01-0.27,0.13-0.32l2.55-1.2c0.12-0.06,0.18-0.2,0.13-0.32
			c-0.36-0.87-1.6-4.11-1.13-5.35c0.53-1.38,7.43-2.04,8.04-2.1c0.03,0,0.06,0.01,0.09,0.01l2.58,0.72c0.09,0.02,0.18,0,0.25-0.07
			l1.36-1.36c0.05-0.05,0.13-0.08,0.2-0.07l4.14,0.32c0.04,0.01,0.07,0.02,0.11,0.03l2.72,1.52c0,0,0,0,0,0
			c0.01,0-11.36,4.22-11.36,5c0,0.77,0.66,8.63,0.55,9.63s8.26,5.63,5.83,6.73c-1.82,0.83-2.16,2.03-2.21,2.58
			c-0.02,0.16,0.12,0.29,0.28,0.28l2.45-0.2c0.02,0,0.05,0,0.07,0l3.42,0.7c0.19,0.04,0.34,0.18,0.39,0.37l10.56,0.99l6.85,11.93
			l1.73,10.95l11.61,3.06l14.52,18.65l10.36-0.06l0,0l10.09,0.02V751c0,3.65,2.96,6.6,6.6,6.6h28.37c3.65,0,6.6-2.96,6.6-6.6v-2.21
			h-8.19c-0.31,0-0.57-0.25-0.57-0.57c0-0.31,0.25-0.57,0.57-0.57h8.19v-0.16l32.39,0.07V751c0,3.65,2.96,6.6,6.6,6.6h28.37
			c3.65,0,6.6-2.96,6.6-6.6v-2.21h-8.19c-0.31,0-0.57-0.25-0.57-0.57c0-0.31,0.25-0.57,0.57-0.57h8.19v0l14.41,0.03V388.62z
			 M299.17,660.61c-0.78,0.48-4.81,2.92-6.1,3.4c-1.2,0.45-1.77,0.75-1.92,0.84c-0.03,0.02-0.06,0.03-0.1,0.03
			c-0.24,0.01-1.15,0.04-1.3-0.21c-0.16-0.29-6.31-0.16-7.09-0.2c-0.78-0.04-1.89-0.37-1.89-0.37s-4.18-0.94-4.55-2.34
			c-0.3-1.12-0.67-3.78-0.81-4.78c-0.03-0.23-0.21-0.41-0.44-0.44l-0.15-0.02c-0.23-0.03-0.42-0.22-0.45-0.45l-0.57-4.7
			c-0.03-0.21,0.08-0.42,0.27-0.52l0.07-0.04c0.19-0.1,0.3-0.31,0.27-0.52c-0.17-1.24-0.74-5.4-1.26-7.31
			c-0.61-2.25-0.2-2.66,0.16-2.75c0.37-0.08,2.54-0.7,3.07-0.86c0.53-0.16,19.14-1.15,19.8-0.98c0.66,0.16,0.82,3.77,1.15,6.39
			c0.33,2.62,0,10.49,0.98,12.79c0.72,1.68,0.91,2.48,0.96,2.79C299.29,660.46,299.25,660.55,299.17,660.61z M333.24,476.95
			c-1.77,4.13-1.18,18.28-1.77,23c-0.59,4.72-0.88,11.2-2.06,11.5c-1.18,0.29-34.64-1.47-35.6-1.77c-0.96-0.29-4.86-1.4-5.53-1.55
			s-1.4-0.88-0.29-4.94c0.94-3.43,1.98-10.92,2.27-13.15c0.05-0.39-0.14-0.76-0.49-0.94l-0.12-0.06c-0.34-0.18-0.53-0.55-0.49-0.93
			l1.02-8.46c0.05-0.42,0.38-0.75,0.8-0.81l0.28-0.04c0.42-0.05,0.74-0.37,0.8-0.79c0.24-1.8,0.92-6.57,1.45-8.59
			c0.66-2.51,8.18-4.2,8.18-4.2s1.99-0.59,3.39-0.66c1.4-0.07,12.46,0.15,12.75-0.37c0.26-0.45,1.91-0.4,2.33-0.37
			c0.07,0,0.12,0.02,0.18,0.05c0.28,0.16,1.3,0.7,3.46,1.5c2.33,0.86,9.57,5.27,10.97,6.12c0.15,0.09,0.23,0.26,0.2,0.44
			C334.88,472.49,334.53,473.93,333.24,476.95z"/>
	</g>
</g>
<g id="_x35_">
	<g>
		<path class="st0" d="M359.65,84.74l-11.56,7.85l-3.93,14.39l9.78,17.46l-2.61,16.89l-13.58,23.52l2.86,17l11.27,32.07l2.38,43.59
			l-35.85,40.05l-49.95,17.95l-8,21.21l10.14,10.52h221.99V84.29L359.65,84.74z M322.78,336.45h-41.95c-0.31,0-0.57-0.25-0.57-0.57
			c0-0.31,0.25-0.57,0.57-0.57h41.95c0.31,0,0.57,0.25,0.57,0.57C323.35,336.2,323.09,336.45,322.78,336.45z M395.35,336.45H353.4
			c-0.31,0-0.57-0.25-0.57-0.57c0-0.31,0.25-0.57,0.57-0.57h41.95c0.31,0,0.57,0.25,0.57,0.57
			C395.92,336.2,395.66,336.45,395.35,336.45z M395.35,171.92H353.4c-0.31,0-0.57-0.25-0.57-0.57c0-0.31,0.25-0.57,0.57-0.57h41.95
			c0.31,0,0.57,0.25,0.57,0.57C395.92,171.67,395.66,171.92,395.35,171.92z M395.35,105.45H353.4c-0.31,0-0.57-0.25-0.57-0.57
			c0-0.31,0.25-0.57,0.57-0.57h41.95c0.31,0,0.57,0.25,0.57,0.57C395.92,105.19,395.66,105.45,395.35,105.45z M469.48,336.45h-41.95
			c-0.31,0-0.57-0.25-0.57-0.57c0-0.31,0.25-0.57,0.57-0.57h41.95c0.31,0,0.57,0.25,0.57,0.57
			C470.05,336.2,469.79,336.45,469.48,336.45z M469.48,171.92h-41.95c-0.31,0-0.57-0.25-0.57-0.57c0-0.31,0.25-0.57,0.57-0.57h41.95
			c0.31,0,0.57,0.25,0.57,0.57C470.05,171.67,469.79,171.92,469.48,171.92z M469.48,136.63h-41.95c-0.31,0-0.57-0.25-0.57-0.57
			c0-0.31,0.25-0.57,0.57-0.57h41.95c0.31,0,0.57,0.25,0.57,0.57C470.05,136.38,469.79,136.63,469.48,136.63z M469.48,105.45h-41.95
			c-0.31,0-0.57-0.25-0.57-0.57c0-0.31,0.25-0.57,0.57-0.57h41.95c0.31,0,0.57,0.25,0.57,0.57
			C470.05,105.19,469.79,105.45,469.48,105.45z"/>
	</g>
</g>
<g id="_x35__1_">
	<g>
		<path class="st0" d="M324.46,84.29H102.46v262.93l67.44-0.45l11.56-7.85l3.93-14.39l-9.78-17.46l2.61-24.39l73.08-14.02l3.14-19
			l-11.27-32.07l-2.38-43.59l35.85-40.05l49.95-17.95l8-21.21L324.46,84.29z M167.53,327.2h-41.95c-0.31,0-0.57-0.25-0.57-0.57
			s0.25-0.57,0.57-0.57h41.95c0.31,0,0.57,0.25,0.57,0.57S167.84,327.2,167.53,327.2z M167.53,296.02h-41.95
			c-0.31,0-0.57-0.25-0.57-0.57c0-0.31,0.25-0.57,0.57-0.57h41.95c0.31,0,0.57,0.25,0.57,0.57
			C168.1,295.77,167.84,296.02,167.53,296.02z M167.53,260.73h-41.95c-0.31,0-0.57-0.25-0.57-0.57c0-0.31,0.25-0.57,0.57-0.57h41.95
			c0.31,0,0.57,0.25,0.57,0.57C168.1,260.48,167.84,260.73,167.53,260.73z M167.53,96.2h-41.95c-0.31,0-0.57-0.25-0.57-0.57
			c0-0.31,0.25-0.57,0.57-0.57h41.95c0.31,0,0.57,0.25,0.57,0.57C168.1,95.94,167.84,96.2,167.53,96.2z M241.66,259.6
			c0.31,0,0.57,0.25,0.57,0.57c0,0.31-0.25,0.57-0.57,0.57h-41.95c-0.31,0-0.57-0.25-0.57-0.57c0-0.31,0.25-0.57,0.57-0.57H241.66z
			 M241.66,96.2h-41.95c-0.31,0-0.57-0.25-0.57-0.57c0-0.31,0.25-0.57,0.57-0.57h41.95c0.31,0,0.57,0.25,0.57,0.57
			C242.23,95.94,241.97,96.2,241.66,96.2z M314.23,96.2h-41.95c-0.31,0-0.57-0.25-0.57-0.57c0-0.31,0.25-0.57,0.57-0.57h41.95
			c0.31,0,0.57,0.25,0.57,0.57C314.8,95.94,314.55,96.2,314.23,96.2z"/>
	</g>
</g>
</svg>
