<?xml version="1.0" encoding="utf-8"?>
<!-- Generator: Adobe Adobe Illustrator 24.2.0, SVG Export Plug-In . SVG Version: 6.00 Build 0)  -->
<svg version="1.1" id="Layer_1" xmlns="http://www.w3.org/2000/svg" xmlns:xlink="http://www.w3.org/1999/xlink" x="0px" y="0px"
	 viewBox="0 0 595.28 841.89" style="enable-background:new 0 0 595.28 841.89;" xml:space="preserve">
<style type="text/css">
	.st0{fill:#FFFFFF;stroke:#000000;stroke-width:0.5;stroke-miterlimit:10;}
</style>
<g id="_x32__1_">
	<g>
		<path class="st0" d="M230.86,775.35l1.41-9.98l-17.79-2.38c0,0,1.63-1.07,1.41-2.38c-0.08-0.49-1.62-7.39-3.53-15.82
			c1.22-0.94,2.02-2.47,2.02-4.21c0-2.62-1.8-4.76-4.13-5.1c-0.1-0.43-0.2-0.87-0.3-1.3c1.04-0.95,1.72-2.35,1.72-3.94
			c0-2.48-1.62-4.56-3.78-5.05c-1.66-7.2-2.95-12.67-3.06-12.83c0,0-5.35-11.8-11.88-2.42c-1.03,1.48-25.88,44.37-25.88,44.37
			l0.65,3.09l-37.23-5.46c0.89-10.68,1.56-18.86,1.56-19.67c0-2.49-8.35-10.78-8.35-10.78l3.34-3.32h7.93l1.25-9.53l-6.26-0.83
			c0,0-3.76-4.56-6.68-5.39c-2.92-0.83-4.67,0.94-4.67-10.41c1.2,0.31,2.37,0.04,2.59,0.04c0.72,0,2.67-0.51,2.67-0.51l5.27-4.92
			l14.57-3.39c0,0,0.85,1.11,2.56,0.72c1.71-0.39,2.76-1.56,2.76-1.56s1.31-1.43,4.53-2.48c3.21-1.04,8.92-2.21,9.64-2.61
			c0.72-0.39,1.51,0.33,1.44,1.17c-0.07,0.85,2.36,2.41,2.36,2.41s1.51,8.47,2.1,8.86c0.59,0.39,3.41,0.13,3.67,0.07
			c0.26-0.07,5.84,0.91,11.61-1.63c3.65-1.61,9.78-2.67,10.3-3.26c0.52-0.59,2.82-3.13,4-5.8c1.18-2.67,2.23-6.51,2.23-6.51
			l-0.79-3.45l-0.33-0.39l4.79-9.44l5.18-0.07c0,0,3.41,2.21,4.59,1.17c1.18-1.04,1.44-2.21,1.25-2.87
			c-0.2-0.65-1.05-2.21-2.89-1.82c-1.84,0.39-3.02,1.24-3.15,1.5c-0.13,0.26-3.35-0.07-3.35-0.07l-0.2-1.04l3.08-7.36
			c0,0,3.02-0.52,4.07-2.74c1.05-2.21-0.13-4.23-0.13-4.23l1.12-2.61c0,0,0.39-0.33-0.13-1.37c-0.52-1.04-1.12-1.76-1.12-1.76
			l0.46-2.93l3.08-1.24l6.5-14.13c0,0,0.39-1.63-0.59-3.78c-0.98-2.15-6.95-14-6.95-14s-0.79-1.95-7.41-4.36
			c-6.63-2.41-8.73-2.93-9.51-3.06c-0.79-0.13-3.54,0.07-3.54,0.07s-0.46-0.46-0.85-0.46c-0.39,0-1.18-0.2-2.69,2.61
			s-1.38,3.32-1.38,3.32s-1.31,0.07-1.77,0.39s-1.71,1.95-1.77,3.13c-0.07,1.17,0.33,3.06,0.33,3.06l-1.05,1.76l-0.07,2.15h-0.85
			c0,0-0.79-2.48-3.08-3.78c-2.3-1.3-6.63-4.23-9.84-4.76c-3.21-0.52-4.2-0.91-4.2-0.91s-0.59-1.69-2.89-2.34s-5.9-0.85-6.95-0.72
			c-1.05,0.13-7.15,0.59-8.73,1.63c-1.57,1.04-3.41,1.95-3.41,1.95l-5.18-2.54c0,0-1.18-0.59-1.77-0.13
			c-0.59,0.46-6.56,6.64-6.56,6.64s-0.07,2.02,1.84,2.48c1.9,0.46,3.02-0.85,3.02-0.85l4.13-3.58l1.77,0.65c0,0-2.3,3.19-2.56,6.06
			s0.46,5.02,1.25,6.12c0.79,1.11,1.12,1.37,1.12,1.37l-3.02,2.93l-4.72,0.65l1.57,4.23l5.84,0.13l5.05-4.1c0,0,4.53,0.07,5.9-0.72
			c1.38-0.78,10.37-5.8,10.37-5.8s1.57,0.91,2.69-0.2c1.12-1.11,2.03-2.41,2.03-2.41s2.43-0.33,3.87,0.78
			c1.44,1.11,3.08,1.76,3.35,2.67s0,1.17,0,1.17s-1.25,0.2-2.23,0.85c-0.98,0.65-1.9,1.76-1.9,1.76s-4.79,1.76-5.64,2.15
			c-0.85,0.39-1.71,0.78-1.71,0.78l-8.99,0.78l-2.36,6.77l-2.95,0.33l-0.07,1.76c0,0-1.18,0.78-1.77,1.76
			c-0.59,0.98-1.9,6.19-1.9,6.19l-1.64-0.07l-0.33-2.67l-2.89-9.12l-8.66,0.39c0,0-3.37-4.93-9.79-5.05
			c0.67-5.33-5.17-25.13-8.41-35.56l-0.16-159.37l-7.74-0.02v-3.47c0-3.65-2.96-6.6-6.6-6.6H71.59c-3.65,0-6.6,2.96-6.6,6.6v2.21
			h8.19c0.31,0,0.57,0.25,0.57,0.57c0,0.31-0.25,0.57-0.57,0.57h-8.19v0.01l-14.41-0.04V785.8l22.96-0.02
			c0.12,0.1,0.2,0.25,0.2,0.43c0,0.31-0.25,0.57-0.57,0.57h-8.19v3.35c0,3.65,2.96,6.6,6.6,6.6h28.37c3.65,0,6.6-2.96,6.6-6.6v-4.36
			l8.11-0.01l0-2.12c2.33-1.83,6.77-4.8,13.75-7.48l44.38,7.05c0,0,3.58,15.8,4.56,17.47c0.98,1.66,4.01,5.82,7.81,4.16
			c3.8-1.66,5.86-3.92,5.86-3.92l4.95-8.01c0.33,2.51,2.3,4.44,4.71,4.44c2.64,0,4.77-2.31,4.77-5.17c0-2.41-1.53-4.42-3.6-4.99
			c-0.21-0.06,2.09,0.47,3.65-1.2l21.97,2.33l2.6-7.87l5.15,0.71l1.19-4.37L230.86,775.35z M118.58,659.57
			c0.06-0.58,0.12-1.17,0.18-1.75c2.73,0.57,4.34,0.4,6.7-0.29c3.54-1.04,4.46-0.78,4.46-0.78s4.2,1.82,5.12,1.82
			c0.92,0,4.2,0,4.2,0l2.49-10.29l2.76,0.39c0,0,0.26,6.12,0.26,7.03c0,0.91-0.13,1.56,0.52,2.21s3.02,0.39,3.02,0.39
			s0.66,2.15,2.76,2.8c2.1,0.65,5.58,0.98,6.04,1.37c0.46,0.39,3.54,2.08,4.92,2.61c1.38,0.52,2.17,0.39,1.9,1.76
			c-0.26,1.37-2.89,1.89-3.94,2.21c-1.05,0.33-11.42,2.87-12.6,2.67c-1.18-0.2-1.51-1.04-2.69-0.98c-1.18,0.07-2.95,0.52-3.15,1.17
			c-0.2,0.65,0.13,0.85-0.79,1.04c-0.92,0.2-12.33,2.28-12.33,2.28l-8.92,0.59l-1.4,1.17C117.93,670.92,118.04,664.94,118.58,659.57
			z M118.15,678.86l1.47-1.21l7.28-0.39l-0.65,0.9c-0.34,0.47-0.51,1.04-0.49,1.63c0.05,1.19-0.72,2.26-1.87,2.59l-5.52,1.57
			C118.28,682.25,118.2,680.56,118.15,678.86z M118.6,687.55l5.67-0.95c0.56-0.09,0.84,0.64,0.37,0.95l-2.33,1.5
			c0,0-0.79,0.52-1.71,0.52c-0.3,0-1.13-0.22-2.09-0.5C118.56,688.24,118.55,688.38,118.6,687.55z M128.94,770.19
			c0.35-4.13,0.7-8.26,1.04-12.21l38.39,5.14l3.25,13.07L128.94,770.19z"/>
	</g>
</g>
<g id="_x31_">
	<g>
		<path class="st0" d="M544.44,431.99l-22.96,0.02c-0.12-0.1-0.2-0.25-0.2-0.43c0-0.31,0.25-0.57,0.57-0.57h8.19v-3.35
			c0-3.65-2.96-6.6-6.6-6.6h-28.37c-3.65,0-6.6,2.96-6.6,6.6v4.36l-2.5,0l-1.86,3.39l-1.64,4.14l2.19,11.68l9.08,18.3l-12.89,22.55
			l-0.25,6.92l2.08,11l1.41,11.47l6.3,21.83l-2.17,16.01l-6.71,12.04l-9.82,22.36l16.54,41.11l-6.53,13.74
			c-12.85-0.69-25.69-0.39-38.48,2.46c-3.07,0.69-6.64-0.95-7.85-3.87c-1.51-3.66-4.05-6.33-6.98-8.79
			c-1.55-1.3-2.94-2.79-4.46-4.13c-1.47-1.29-2.89-2.73-4.56-3.71c-4.21-2.46-8.53-4.73-12.84-7
			c-11.94-6.27-23.89-12.51-35.85-18.73c-4.51-2.35-9.15-4.06-14.36-4.55c-5.46-0.52-10.54-2.59-14.47-6.76
			c-1.83-1.94-4.13-2.62-6.75-2.27c-2.13,0.29-4.28,0.53-6.38,0.96c-3.24,0.65-6.73,1.25-8.81,3.97c-1.57,2.06-3.28,2.49-5.51,2.32
			c-1.33-0.1-2.65-0.22-3.98-0.32c-3.08-0.22-6.14-0.36-8.32,2.59c-2.17-0.52-4.31-0.86-6.33-1.55c-2.89-0.99-5.69-2.27-8.01-0.48
			c-2.57-0.73-4.66-1.08-6.55-1.91c-10.43-4.6-20.8-9.32-31.2-13.99c-0.5-0.23-1.04-0.38-1.7-0.63c-0.72,1.07-1.37,2.03-2.16,3.21
			c-5.45-2.78-10.83-5.52-16.73-8.52c-0.47,0.68-0.95,1.35-1.39,2.04c-0.65,1.02-1.11,2.04,0.15,2.99c1.4,1.06,2.77,2.15,4.3,3.33
			c0.37-0.1,0.9-0.24,1.38-0.37c14.3,6.82,28.51,13.6,42.72,20.39c1.02,0.49,2.65,1.38,3.6,1.99c3.47,2.24,6.87,4.6,10.45,6.63
			c2.34,1.32,5.18,1.77,7.53,3.09c2.38,1.34,4.64,2,7.38,1.6c2.82-0.41,4.55,0.7,5.39,3.13c-0.2,0.14-0.55,0.32-0.83,0.56
			c-1.99,1.7-1.89,3.28,0.52,4.29c1.72,0.72,3.65,0.93,5.49,1.4c4.1,1.06,8.19,1.52,12.36,0.24c2.3-0.71,4.7-1.06,6.99-1.79
			c1.07-0.34,2.06-1.07,2.94-1.81c1.08-0.91,2.03-1.93,3.61-1.33c0.11,0.23,0.24,0.39,0.26,0.57c0.43,3.44,2.36,5.22,5.78,5.43
			c0.54,0.03,1.36,0.29,1.84,0.53c5.87,2.9,11.75,5.79,17.56,8.79c1.03,0.53,1.79,1.59,2.82,2.54c-2.42,0-4.44,0.08-6.45-0.01
			c-6.75-0.3-12.89,2.45-19.32,3.74c-5.93,1.19-11.74,1.14-17.57-0.77c-6.86-2.25-11.63-6.46-13.99-13.33
			c-0.23-0.67-0.67-1.27-1.12-2.11c-0.32,0.47-0.51,0.65-0.58,0.87c-2.11,6.7-4.49,13.33-5.22,20.39c-0.43,4.14-2.02,5.29-6.23,4.83
			c-1.88-0.21-3.79-0.29-5.68-0.28c-1.27,0-2.27,0.57-2.76,1.92c-1.03,2.83-2.41,3.51-5.4,2.82c-1.24-3.21-1.81-3.57-5.49-3.59
			c-0.32,0-0.63,0.02-0.95,0c-2.47-0.13-3.24-1.04-3.52-3.53c-0.1-0.87-0.65-1.93-1.34-2.46c-3.81-2.9-7.53-2.7-11.12,0.4
			c-0.19,0.16,0.19,0.08-0.09,0.27c-3.03-0.84-6.43-1.89-9.48-2.73c-0.07,0.22-0.38,0.83-0.45,1.05c2.92,0.97,5.81,2.03,8.7,3.3
			c-0.39,0.71-0.74,1.31-1.04,1.86c-0.62-0.82-1.23-1.22-1.8-1.6c-1.65-1.1-4.98-0.64-5.7,1.15c-0.86,2.12-2.39,2.26-4.25,2.35
			c-4.67,0.22-9.38,0.26-14,0.92c-15.34,2.18-22.36,15.79-22.07,25.49c0.56,18.7,12.23,29.44,28.79,33.86
			c5.12,1.37,10.46,1.87,15.68,2.88c1.1,0.21,2.11,0.88,3.21,1.36c-0.29,1.06-0.5,1.72-0.65,2.39c-0.86,3.76-1.91,7.49-2.52,11.3
			c-0.73,4.58,0.48,8.75,4.11,11.83c3.48,2.95,3.39,3.24,6.53-0.45c1.21-1.42,2.82-2.5,4.54-3.98c0.24,1.07,0.42,1.5,0.42,1.92
			c-0.03,4.99,1.94,9.3,4.19,13.64c4.57,8.82,10.52,16.26,19.52,20.87c2.98,1.53,6.17,2.67,9.08,4.31
			c4.47,2.51,10.8,2.48,14.85-0.55c1.27-0.95,2.44-1.21,3.86-0.61c1.05,0.44,2.18,0.74,3.16,1.3c2.54,1.46,5.23,2.33,8.18,2.37
			c0.23,0,0.46,0.06,0.66,0.17c4.73,2.46,9.89,1.51,14.88,2.03c1.85,0.2,3.69,0.51,5.53,0.88c5.86,1.18,11.82,1.75,17.79,1.91
			l39.34,1v3.91c0,3.65,2.96,6.6,6.6,6.6h28.37c3.65,0,6.6-2.96,6.6-6.6v-2.21h-8.19c-0.31,0-0.57-0.25-0.57-0.57
			c0-0.31,0.25-0.57,0.57-0.57h8.19v-0.38l24.65,0.11l0,0.11l7.74,0.02v3.47c0,3.65,2.96,6.6,6.6,6.6h28.37c3.65,0,6.6-2.96,6.6-6.6
			v-2.21h-8.19c-0.31,0-0.57-0.25-0.57-0.57c0-0.31,0.25-0.57,0.57-0.57h8.19v-0.01l12.94,0.04l0.01,0l0,0l1.47,0V431.99z"/>
	</g>
</g>
<g id="_x34_">
	<g>
		<path class="st0" d="M522.1,406.63h3.93l18.66,0.03V47.6l-22.94,0.03c-0.13-0.1-0.22-0.26-0.22-0.44c0-0.31,0.25-0.57,0.57-0.57
			h8.19v-3.35c0-3.65-2.96-6.6-6.6-6.6h-28.37c-3.65,0-6.6,2.96-6.6,6.6v4.4l-40.69,0.06c-0.26-0.05-0.45-0.27-0.45-0.54
			c0-0.31,0.25-0.57,0.57-0.57h8.19v-3.35c0-3.65-2.96-6.6-6.6-6.6h-28.37c-3.65,0-6.6,2.96-6.6,6.6v4.5l-31.1,0.04v-0.07h-8.19
			c-0.31,0-0.57-0.25-0.57-0.57c0-0.31,0.25-0.57,0.57-0.57h8.19v-3.35c0-3.65-2.96-6.6-6.6-6.6h-28.37c-3.65,0-6.6,2.96-6.6,6.6
			v4.69l-5,0.06l0,0.38l-26.56,3.33l-2.37,0.28c0,0-1.25,1.39-2.64,2.92c-1.39,1.53-8.49,3.06-8.49,3.06v-5.15h-5.84v2.37v4.73
			l-2.5,0.14v1.11h2.37v15.45h-2.5c0,0-0.7,1.39,0,1.25c0.7-0.14,2.92,0.97,2.92,0.97v5.57h5.15v-4.87c0,0,0.83,0,3.76,0.83
			s5.98,3.2,5.98,3.2v32.98h-4.73v8.63h-3.34v-8.63h-4.59v8.63h-3.2v-8.77h-5.29v4.87h-3.34v-4.73h-4.87v12.25h-3.34v-12.52
			l-7.1-0.56l-5.57-2.92l-3.48-0.14v14.61l-1.67,1.67v18.09l1.39,1.81v15.03h3.62l6.12-3.62h6.68v-9.18h3.34v9.6h5.29v-1.81h3.2
			v1.39h5.15v-12.8h3.2v12.52h4.73v-5.15h3.48v5.57h4.04v8.21h-10.3v4.59l-7.93,0.14l-6.23,3.7c-2.02-3.55-5.41-6.46-8.57-6.31
			c-1.38,0.06-9.23-0.1-10.38,11.56c-1.42-0.55-40.97,1.31-45.65,0.24c-21.99-5.01-31.03-11.97-33.12-13.78
			c-2.09-1.81-1.95-4.17-2.23-5.01c-0.28-0.83-3.06-19.9-3.06-19.9s2.64-2.78-0.14-5.43c-1.95-2.23-5.98-0.7-5.57,2.78
			c-0.14,1.95,2.92,3.48,2.92,3.48s0.7,2.09,1.81,13.08c1.11,10.99,1.81,11.41,2.92,13.64s12.25,11.13,12.25,11.13h-9.6v-2.23h-2.64
			l-0.42-6.4l-2.37-0.56l-0.83-4.45l-9.74-4.45l-0.83-2.23h-2.23l-1.25,11.83l-4.04-0.97l-3.2,12.94l-2.78,0.7l-0.42,1.95H133.9
			v2.92h18.65l0.28,1.67l3.06,0.83l3.2,13.64l3.76-1.11l1.25,11.55h1.95l0.7-2.5l10.02-4.31l0.56-4.73l3.2-0.56v-5.71h2.64v-2.78
			h9.6c0,0-7.24,5.84-10.44,8.63c-3.2,2.78-3.2,4.73-3.2,4.73l-3.34,25.05c0,0-1.25,0.28-2.37,2.23c-1.11,1.95,0,2.78,0.56,3.9
			c0.56,1.11,3.62,1.11,5.15-0.97c1.53-2.09-0.7-4.31-0.7-4.31s0.14-1.25,2.37-15.17c2.23-13.92,3.34-10.3,7.51-13.22
			c16.42-9.74,29.64-10.58,29.64-10.58l45.57,0.04c0.99,5.07,2.35,10.18,10.04,10.69c2.94,0.2,5.61-1.94,7.6-5.08l5.81,3.53h4.45
			c0,0,0,0,1.95,8.91c1.95,8.91,1.95,18.09,1.95,18.09h-30.06l-16.42,11.41l16.42,11.97h30.61c0,0,0,0-1.39,11.97
			s-6.68,25.88-6.68,25.88l-2.5,2.5h-6.12v8.91h21.64v30.27h-20.35v-2.82h-2.19v3.86h-2.4v7.93h-4.7v-1.25h-1.88v22.54h1.77v-1.77
			h4.91v7.41h1.98v3.76h1.57v-3.13h21.81v12.63l1.36,0.1l0.1-2.5l14.23,0.07l0.28,2.5h-6.68v16.98l7.79,0.56l6,1.31l12.22,1.17
			l0,0.04l0.37,0l1.82,0.17l3.22-0.02v3.48c0,3.65,2.96,6.6,6.6,6.6h28.37c3.65,0,6.6-2.96,6.6-6.6v-2.21h-8.19
			c-0.31,0-0.57-0.25-0.57-0.57c0-0.31,0.25-0.57,0.57-0.57h8.19v-0.22l31.1,0.05v3.52c0,3.65,2.96,6.6,6.6,6.6h28.37
			c3.65,0,6.6-2.96,6.6-6.6v-2.21h-8.19c-0.31,0-0.57-0.25-0.57-0.57c0-0.31,0.25-0.57,0.57-0.57h8.19v-0.11l32.39,0.05v3.4
			c0,3.65,2.96,6.6,6.6,6.6h28.37c3.65,0,6.6-2.96,6.6-6.6v-2.21h-8.19c-0.31,0-0.57-0.25-0.57-0.57
			C521.53,406.88,521.78,406.63,522.1,406.63z M160.03,204.25c0,0-1.1-5.53-1.36-14.19c-0.26-8.66,1.15-14.25,1.15-14.25l2.66,0.73
			l0.05,27.03L160.03,204.25z M166.67,167.18l9.22,4.21l-0.21,4.56l-9.18-3.51L166.67,167.18z M175.23,178.07l-0.1,4.52l-8.77-2.33
			l-0.03-5.43L175.23,178.07z M166.19,183.15l9.08,2.02l-0.1,9.74l-9.05,1.84L166.19,183.15z M166.6,205.13l-0.24-5.25l9.46-2.57
			v4.8l-8.73,2.82L166.6,205.13z M167.65,212.13l-0.63,0.17l0.1-5.01l8.77-3.2l0.1,4.21L167.65,212.13z M278.42,200.59l-2.29-1.64
			c0,0,2.27-1.85,0.66-2.81c-1.65-0.99-3.13,1.26-3.13,1.26s-1.04-2.85-3.17-1.44c-1.3,0.86,0.66,3.2,0.66,3.2l-2.83,1.56
			c0,0-4.76-8.05,2.45-8.73c1.58-0.15,3.1,1.75,3.1,1.75s2.39-2.83,5.07-1.22C282.58,194.69,278.42,200.59,278.42,200.59z
			 M277.49,189.54c-2.99,0-3.72-1.39-3.72-1.39s-1.86,1.34-4.39,1.05c-3.36-0.38-3-3.56-3-3.56l2.42,0.01c0,0-0.23,1.27,1.64,1.27
			c2.34,0,2.82-1.17,2.82-1.17l1.2,0c0,0-0.05,1.25,2,1.36c2.9,0.16,2.6-1.39,2.6-1.39l2.16-0.06
			C281.22,185.66,280.96,189.54,277.49,189.54z M279.07,183.79c0,0,0.31-1.55-2.6-1.39c-2.06,0.12-2,1.36-2,1.36l-1.2,0
			c0,0-0.49-1.17-2.82-1.17c-1.86,0-1.64,1.27-1.64,1.27l-2.42,0.01c0,0-0.36-3.18,3-3.56c2.53-0.29,4.39,1.05,4.39,1.05
			s0.73-1.39,3.72-1.39c3.47,0,3.74,3.88,3.74,3.88L279.07,183.79z M324.34,78.39c-1.25,0.7-3.83,0.9-3.83,0.9v1.81l-2.99,3.48
			l-1.46-0.42c0,0-9.46-5.91-13.29-6.26s-5.91-0.49-5.91-0.49L296.65,61c0,0,8.63-1.39,11.13-2.78c2.5-1.39,3.55-2.3,3.55-2.3
			s3.27,0.14,3.55,0.49c0.28,0.35,3.69,3.27,3.69,3.27l0.49,4.45l2.99-0.07l-0.7,6.05l1.46,0.97l-1.04,4.8l3.06,0.56
			C324.83,76.45,325.59,77.7,324.34,78.39z"/>
	</g>
</g>
</svg>
