<?xml version="1.0" encoding="UTF-8"?>
<svg xmlns="http://www.w3.org/2000/svg" xmlns:xlink="http://www.w3.org/1999/xlink" width="60.170mm" height="77.725mm" viewBox="-585.314697 305.230225 60.170288 77.724854">
    <path transform="matrix(-1,0,0,1,0,0)" style="stroke:none;fill:#000000;fill-rule:evenodd" d="M576.978027,306.449005L577.133911,306.479736L577.251099,306.513336L577.730835,306.694489L577.776245,306.713379L578.248657,306.929108L578.290649,306.949921L578.756348,307.19989L578.796021,307.222595L579.254639,307.506836L579.291504,307.531464L579.743042,307.850586L579.776367,307.875549L580.220581,308.228882L580.250366,308.253845L580.687866,308.641449L580.715088,308.666718L581.14563,309.089203L581.166016,309.110352L581.47937,309.443512L581.497681,309.463684L581.816406,309.828888L581.832764,309.847778L582.156372,310.244965L582.169434,310.261932L582.498535,310.690826L582.510986,310.707458L582.844849,311.168976L582.854736,311.183075L583.19397,311.6763L583.203003,311.689728L583.547363,312.215271L583.555298,312.227753L583.905151,312.785645L583.943848,312.855408L584.014648,313.001343L584.047607,313.08136L584.070923,313.164581L584.084351,313.250031L584.087646,313.300598L584.091431,313.441132L584.088623,313.527863L584.075806,313.613312L584.052734,313.696838L584.021973,313.77301L583.958618,313.907776L583.917358,313.983948L583.867065,314.054352L583.812378,314.115173L583.681763,314.245117L583.617065,314.302734L583.545776,314.35202L583.453857,314.399384L583.303101,314.46405L583.221802,314.493164L583.137329,314.512695L583.023071,314.523254L582.888062,314.524841L582.801636,314.520691L582.716187,314.506287L582.632935,314.4823L582.546143,314.444519L582.426514,314.383392L582.351929,314.339539L582.282715,314.287354L582.197632,314.200958L582.093628,314.076447L582.036987,313.998993L581.699341,313.466736L581.375732,312.976379L581.060425,312.518372L580.759888,312.101654L580.461548,311.708923L580.171997,311.348541L579.893433,311.022705L579.624268,310.729553L579.239868,310.343872L578.850708,309.992767L578.459229,309.677826L578.181763,309.481293L578.549561,309.858002L578.59729,309.911774L579.091431,310.52951L579.13147,310.584564L579.580444,311.267242L579.610596,311.317169L579.952759,311.939697L579.975098,311.983551L580.296753,312.675537L580.313354,312.714905L580.614258,313.475677L580.627441,313.510895L580.907471,314.34082L580.93689,314.462128L580.960571,314.613831L580.968872,314.699921L580.967041,314.786652L580.94751,314.905396L580.915405,315.032806L580.889526,315.115356L580.853638,315.194122L580.809204,315.268372L580.763428,315.328217L580.675415,315.431915L580.615601,315.494659L580.548706,315.549683L580.471558,315.598999L580.327515,315.67868L580.24939,315.71582L580.129395,315.753265L579.965454,315.789093L579.880005,315.802551L579.793579,315.805756L579.671021,315.792938L579.539185,315.76767L579.455322,315.746216L579.37439,315.715179L579.297852,315.674835L579.196655,315.601227L579.096802,315.514496L579.035034,315.45401L578.980713,315.386475L578.93457,315.313171L578.912476,315.269318L578.843994,315.12146L578.814575,315.047211L578.558838,314.287689L578.29248,313.60434L578.018555,313.000061L577.741699,312.47934L577.352539,311.90033L576.929077,311.379913L576.468506,310.913574L575.939087,310.474457L575.858765,310.396667L575.75061,310.274719L575.697144,310.206543L575.651978,310.132629L575.615845,310.054199L575.601074,310.012909L575.560181,309.885529L575.538696,309.801666L575.527222,309.715912L575.525635,309.62915L575.539307,309.517456L575.565918,309.384644L575.587646,309.300781L575.619385,309.220428L575.677979,309.117065L575.771729,308.97879L575.824463,308.910309L575.903564,308.831573L576.020386,308.732361L576.089844,308.680481L576.164429,308.636963L576.258789,308.59729L576.349731,308.566223L576.291138,308.539673L576.157104,308.465088L576.08374,308.418671L576.016846,308.363953L575.956665,308.301544L575.910034,308.241058L575.838013,308.136719L575.793213,308.062775L575.757324,307.984039L575.731079,307.901459L575.710571,307.776306L575.700317,307.642212L575.69873,307.555786L575.707397,307.469696L575.7323,307.365662L575.78418,307.201813L575.814941,307.120819L575.855225,307.044006L575.881226,307.004639L575.980347,306.861908L576.033813,306.793732L576.094971,306.732574L576.152588,306.686188L576.270386,306.601044L576.343384,306.554626L576.421387,306.516876L576.503418,306.489014L576.558105,306.475891L576.694824,306.449005L576.780518,306.4375L576.86731,306.435883L576.978027,306.449005zM576.378235,309.390228C576.208374,309.578125,576.217407,309.751556,576.407104,309.910522C577.176697,310.486847,577.830688,311.216705,578.37085,312.101929C578.789978,312.826355,579.169373,313.731445,579.509033,314.813599C579.579468,315.052063,579.733032,315.126129,579.973328,315.037598C580.202759,314.947296,580.282227,314.793732,580.213562,314.575134C579.854065,313.422516,579.438538,312.454193,578.968872,311.670135C578.39978,310.716278,577.711487,309.935822,576.9021,309.330627C576.701599,309.200562,576.528137,309.220428,576.378235,309.390228zM576.482971,307.422882C576.372803,307.661346,576.427002,307.820313,576.6474,307.899811C577.906555,308.306305,579.073608,309.081329,580.153992,310.223083C580.91272,311.017975,581.745544,312.145264,582.656067,313.606812C582.784363,313.814545,582.954163,313.854309,583.165527,313.726044C583.384155,313.556213,583.423889,313.373749,583.28479,313.175018C582.345337,311.644867,581.461914,310.457916,580.63269,309.612457C579.494568,308.439972,578.280518,307.636047,576.992432,307.198853C576.772034,307.119385,576.602234,307.193451,576.482971,307.422882z"/>
    <path transform="matrix(-1,0,0,1,0,0)" style="stroke:none;fill:#000000;fill-rule:evenodd" d="M564.515381,305.23053L565.458618,305.255493L565.499634,305.257751L566.404053,305.332642L566.447998,305.337433L567.31311,305.461945L567.359863,305.470245L568.186523,305.644379L568.23584,305.65686L569.023193,305.88089L569.074341,305.897217L569.823364,306.171204L569.875488,306.192627L570.585449,306.516235L570.637939,306.542786L571.309082,306.916321L571.364746,306.950562L572.075317,307.433533L572.130005,307.474487L572.782959,308.013794L572.835083,308.061493L573.42981,308.657776L573.476807,308.70993L574.01355,309.362885L574.055176,309.418243L574.533691,310.127808L574.568237,310.18512L574.988892,310.951355L575.017334,311.008636L575.379639,311.831848L575.401367,311.887207L575.705811,312.766754L575.721802,312.819885L575.968262,313.756073L575.979736,313.806305L576.167969,314.799469L576.175049,314.845551L576.305298,315.895355L576.309448,315.937927L576.381714,317.044067L576.383301,317.082794L576.397461,318.246246L576.396851,318.281433L576.352905,319.50119L576.351318,319.533203L576.249268,320.809937L576.246338,320.839081L576.086304,322.172119L576.084717,322.182678L576.014282,322.704407L575.959595,323.171692L575.958618,323.182892L575.958008,323.186737L575.916016,323.624268L575.883423,324.06723L575.864502,324.457703L575.858154,324.810089L575.862915,325.154175L575.879883,325.471039L575.905762,325.737946L575.943848,325.989197L575.989014,326.198517L576.040527,326.374878L576.095947,326.516022L576.151611,326.623566L576.201294,326.695923L576.23999,326.737823L576.312622,326.791931L576.402222,326.83194L576.548828,326.865234L576.724487,326.87674L578.327148,326.64917L578.331299,326.648529L580.518921,326.350555L580.605347,326.343842L580.657837,326.345123L581.162598,326.37265L581.248047,326.382233L581.720703,326.464508L581.813232,326.486908L582.253906,326.624207L582.347046,326.66037L582.75647,326.852417L582.847046,326.902985L583.224365,327.150391L583.305054,327.211517L583.650391,327.513672L583.718262,327.581512L584.03186,327.938385L584.086914,328.009125L584.368286,328.421356L584.402832,328.477692L584.687744,328.988831L584.719116,329.05188L584.943481,329.564972L584.970337,329.636322L585.134155,330.151642L585.154419,330.230042L585.257813,330.746948L585.269653,330.83017L585.3125,331.348999L585.314697,331.433807L585.297485,331.954559L585.289795,332.038422L585.21167,332.56076L585.195313,332.639801L585.056763,333.164063L585.035645,333.230316L584.876831,333.660492L584.853516,333.716827L584.654419,334.143463L584.628174,334.194366L584.388794,334.617493L584.360596,334.663239L584.081177,335.082214L584.052368,335.122528L583.732666,335.537994L583.703491,335.573181L583.343506,335.985107L583.314941,336.016144L582.914551,336.424225L582.887085,336.450806L582.446655,336.855042L582.40918,336.88736L581.753418,337.412598L581.721069,337.43692L581.013062,337.942627L580.981689,337.963745L580.221558,338.44928L580.190796,338.467834L579.377197,338.933228L579.299805,338.971619L579.21814,339.000763L579.146484,339.017059L579.114746,339.066986L579.060059,339.133881L578.997925,339.194397L578.929199,339.246887L578.863892,339.285919L575.49292,341.074432L575.414185,341.110291L575.362305,341.126923L575.362671,341.216858L575.342163,341.486053L575.330078,341.575012L575.267944,341.88324L575.235596,341.995911L575.166504,342.180267L575.131226,342.259308L575.10791,342.301239L574.990112,342.49649L574.933105,342.578094L574.766357,342.784851L574.716797,342.84024L574.501343,343.057861L574.436768,343.115814L574.395752,343.14621L573.615112,343.682953L573.544678,343.72583L573.404785,343.800415L573.336304,343.832428L573.171143,343.899628L573.114502,343.920135L572.924072,343.97998L572.876709,343.993103L572.661011,344.045258L572.621704,344.053589L572.380615,344.098083L572.349854,344.102875L572.083984,344.14032L572.056152,344.14386L571.764526,344.173615L571.742798,344.175537L571.42627,344.198273L571.339478,344.199219L571.331177,344.198273L571.255005,344.478302L571.226807,344.561218L571.179443,344.67804L571.142334,344.756134L571.111938,344.806366L571.028687,344.932495L570.966919,345.013153L570.848145,345.147888L570.797607,345.200043L570.646851,345.34024L570.557861,345.42923L570.24353,345.726227L570.210327,345.755676L569.867554,346.042145L569.835205,346.067749L569.463867,346.344269L569.432495,346.366364L569.033081,346.632355L569.002319,346.65155L568.574097,346.907288L568.545288,346.92392L568.088623,347.169098L568.061401,347.182861L567.576538,347.417786L567.550537,347.429626L567.036865,347.654297L567.004517,347.667419L566.21814,347.967651L566.169189,347.984619L565.383423,348.222412L565.330933,348.236176L564.545166,348.41156L564.490112,348.421509L563.704956,348.53479L563.647339,348.540894L562.862915,348.591461L562.804932,348.593048L562.020874,348.581512L561.963257,348.578339L561.180054,348.5047L561.122681,348.49704L560.339844,348.360687L560.2854,348.348846L559.654907,348.188812L559.518311,350.293213L559.50769,350.379333L559.486938,350.463196L559.456177,350.544159L559.416504,350.621307L559.396362,350.651062L559.409424,350.722748L559.415161,350.809174L559.413574,350.861023L559.321045,352.264832L559.320801,352.268982L559.222534,353.648438L559.222168,353.652618L559.117798,355.007446L559.117554,355.011292L559.024658,356.134399L559.037476,356.143341L559.101563,356.201599L559.158203,356.266907L559.206787,356.338593L559.246826,356.415405L559.277222,356.496368L559.298096,356.580566L559.306396,356.638153L559.419678,357.733734L559.421875,357.761597L559.49231,358.849792L559.493652,358.878601L559.520752,359.960114L559.521118,359.989563L559.505127,361.064331L559.503906,361.093781L559.444946,362.161194L559.442749,362.190948L559.340576,363.251648L559.337036,363.281708L559.191772,364.335358L559.187256,364.365143L558.998779,365.412079L558.993652,365.437683L558.77124,366.462189L558.761597,366.500275L558.498901,367.458557L558.486084,367.500488L558.182983,368.392822L558.166016,368.438263L557.822876,369.264679L557.800415,369.313324L557.416992,370.073792L557.388184,370.125946L556.964478,370.82019L556.928345,370.873627L556.464478,371.501587L556.420654,371.555359L555.91626,372.117706L555.826904,372.201904L555.755859,372.258545L555.76709,372.312317L555.774414,372.398407L555.771606,372.485138L555.763306,372.546906L555.649658,373.182892L555.644897,373.206879L555.514526,373.816284L555.508545,373.842865L555.361206,374.42569L555.353882,374.452576L555.190308,375.009155L555.184937,375.027405L555.083496,375.342346L555.077026,375.360596L554.975586,375.649292L554.968262,375.669464L554.867065,375.93222L554.857178,375.957184L554.755981,376.193726L554.742554,376.222839L554.641479,376.433441L554.623535,376.468658L554.522339,376.653015L554.498047,376.69397L554.397217,376.852417L554.361694,376.90329L554.260864,377.035492L554.210938,377.094391L554.036865,377.278748L553.973755,377.337952L553.937622,377.366119L553.75354,377.50119L553.680908,377.548218L553.61792,377.579926L553.423584,377.666321L553.342651,377.696747L553.25647,377.717865L553.051636,377.755005L552.965942,377.765564L552.88208,377.765869L552.666992,377.754364L552.580933,377.744446L552.515869,377.730042L552.290894,377.669525L552.172119,377.626648L551.936646,377.517181L551.848267,377.468201L551.602783,377.309784L551.537842,377.262726L551.311523,377.078705L551.26123,377.033875L551.050659,376.827759L551.006104,376.78009L550.811279,376.55188L550.772461,376.502594L550.593262,376.252289L550.560913,376.203003L550.397461,375.930939L550.37085,375.882629L550.223022,375.58847L550.201538,375.542084L550.069336,375.225861L550.052734,375.181671L549.936157,374.843384L549.92334,374.802399L549.82251,374.442017L549.812988,374.403931L549.727783,374.021759L549.720825,373.986572L549.651367,373.582336L549.646484,373.549347L549.610352,373.260986L547.88208,377.423096L548.056763,377.651947L548.081055,377.685547L548.351929,378.085632L548.363037,378.10321L548.605713,378.484741L548.61853,378.505554L548.832886,378.869141L548.84668,378.893127L549.033325,379.238495L549.045166,379.261841L549.509277,380.19931L549.545044,380.284454L549.6427,380.566437L549.660034,380.623718L549.727539,380.886505L549.741943,380.957855L549.779419,381.201752L549.78772,381.289764L549.794678,381.514771L549.792114,381.601501L549.784424,381.661377L549.759888,381.805389L549.740356,381.889893L549.716919,381.956451L549.665405,382.083862L549.628296,382.162262L549.58252,382.234924L549.503418,382.345673L549.449097,382.412872L549.393677,382.467621L549.28772,382.561707L549.219604,382.615479L549.168945,382.647797L549.035522,382.72525L548.926392,382.7771L548.765991,382.837585L548.672852,382.865753L548.485352,382.909302L548.410767,382.922424L548.195679,382.94931L548.109253,382.955078L548.027344,382.950897L546.632813,382.802704L546.50769,382.778381L546.11084,382.664124L546.05957,382.647156L545.677368,382.506012L545.626221,382.484894L545.259155,382.316864L545.209229,382.291565L544.857056,382.096649L544.809082,382.067841L544.471802,381.845734L544.426636,381.813385L544.104614,381.564392L544.062744,381.529175L543.755493,381.252655L543.717651,381.216492L543.425415,380.913055L543.407837,380.894165L543.019653,380.461456L543.000732,380.439056L542.665894,380.034485L542.643188,380.006012L542.362183,379.629913L542.336304,379.592468L542.109009,379.245209L542.078369,379.194L541.904785,378.874908L541.871216,378.804169L541.751587,378.51355L541.718262,378.413055L541.652344,378.150604L541.636353,378.06546L541.631226,378.009125L541.619385,377.775482L541.619019,377.708893L541.641724,377.145905L541.405884,377.10141L541.322021,377.080292L541.240967,377.049561L541.164185,377.009552L541.092896,376.960602L541.027588,376.903625L540.989746,376.863617L540.936646,376.802795L540.883789,376.734314L540.838989,376.660065L540.800903,376.573303L540.76062,376.463531L540.735352,376.380646L540.726318,376.336456L540.698853,376.17804L540.689819,376.103455L540.675415,375.896057L540.674561,375.807739L540.693359,375.440308L540.711304,375.312592L540.797729,374.939087L540.832642,374.828644L540.986572,374.449371L541.030396,374.359772L541.251587,373.975037L541.29895,373.90271L541.354614,373.836456L541.417969,373.777252L541.487427,373.725708L541.562744,373.683136L541.6427,373.649536L541.652588,373.646667L541.652588,373.646332L541.637573,373.560883L541.633057,373.498138L541.62793,373.324341L541.58606,373.091675L541.484619,372.616058L541.471191,372.527405L541.422852,371.978485L541.420898,371.950012L541.39502,371.419006L541.394043,371.388611L541.390137,370.87619L541.390869,370.843231L541.409424,370.34903L541.411987,370.309662L541.494507,369.407745L541.498047,369.375732L541.613281,368.531097L541.619019,368.495544L541.765869,367.708832L541.774536,367.668518L541.953857,366.939087L541.97937,366.856201L542.014648,366.77713L542.058838,366.702881L542.111572,366.634064L542.172119,366.572296L542.239624,366.517883L542.312866,366.471802L542.390991,366.434662L542.4729,366.40683L542.555542,366.389526L542.328979,365.881287L542.308472,365.831024L542.033813,365.067993L542.018799,365.02063L541.787964,364.2099L541.776489,364.164764L541.589844,363.305725L541.582153,363.263153L541.483276,362.630066L541.479492,362.601898L541.400391,361.923706L541.397827,361.899048L541.338379,361.176666L541.33667,361.154572L541.296753,360.38739L541.296021,360.367554L541.275879,359.555542L541.275635,359.537933L541.274902,358.681122L541.275269,358.664795L541.294434,357.763184L541.2948,357.748779L541.333496,356.802673L541.342163,356.716583L541.361084,356.63208L541.389526,356.550476L541.427612,356.472687L541.474731,356.399719L541.529663,356.33313L541.592407,356.273285L541.661621,356.221436L541.73645,356.178223L541.78418,356.157745L541.783569,356.138855L541.848511,354.890289L541.876343,353.693573L541.869995,352.495911L541.828613,351.330566L541.830566,351.243805L541.842773,351.158356L541.862549,351.083771L541.83606,351.027771L541.808228,350.945831L541.787964,350.843414L541.610352,349.406006L540.742065,349.678375L540.728271,349.682556L540.200439,349.836823L540.192139,349.83905L539.710205,349.973816L539.700195,349.976685L539.264282,350.091919L539.251465,350.095093L538.861328,350.190796L538.84436,350.194641L538.5,350.270508L538.479248,350.274994L538.180908,350.331635L538.149902,350.336761L537.897339,350.373566L537.852783,350.378693L537.646362,350.395966L537.583984,350.398529L536.759155,350.396942L536.701538,350.394379L535.904907,350.330048L535.844116,350.322662L535.075317,350.195282L535.012573,350.182159L534.271973,349.99173L534.209229,349.972534L533.496826,349.71936L533.435059,349.694061L532.750732,349.378174L532.691162,349.347443L532.035034,348.968475L531.979614,348.932953L531.351685,348.490631L531.316162,348.46405L530.946167,348.168335L530.925659,348.151367L530.595703,347.867462L530.572021,347.846008L530.281738,347.573334L530.254517,347.546753L530.003906,347.285583L529.9729,347.251038L529.838135,347.091644L529.809937,347.117554L529.740234,347.168457L529.664673,347.210693L529.584595,347.243652L529.474854,347.272461L527.737183,347.585175L527.651489,347.595398L527.564697,347.595398L527.478882,347.585175L527.394775,347.565002L527.313477,347.534912L527.236328,347.495544L527.164307,347.447235L527.098755,347.3909L527.040161,347.327209L526.989258,347.257111L526.947266,347.181244L526.914307,347.101227L526.887817,347.000732L526.602295,345.495789L526.591431,345.409698L526.590454,345.323273L526.599731,345.237183L526.611938,345.184692L526.608643,345.182129L526.413818,345.016663L526.353271,344.959045L526.17334,344.766998L526.122559,344.706512L525.958008,344.487915L525.910278,344.415894L525.88916,344.377167L525.544189,343.692566L525.509888,343.61319L525.485229,343.529968L525.470581,343.444824L525.465698,343.358398L525.471558,343.272003L525.487183,343.186859L525.513062,343.104279L525.54834,343.025238L525.592773,342.950653L525.644653,342.883118L525.513428,342.662262L525.466675,342.569458L525.312378,342.199127L525.280151,342.103119L525.212524,341.845154L525.19751,341.772491L525.1604,341.534698L525.1521,341.447632L525.144409,341.230957L525.14856,341.123077L525.170654,340.92688L525.185303,340.841431L525.209961,340.758545L525.244263,340.679169L525.287842,340.604279L525.3396,340.535126L525.399536,340.472412L525.412964,340.461212L525.218384,339.865234L525.196533,339.781372L525.184448,339.695618L525.182129,339.637665L525.182129,339.339691L525.187256,339.253265L525.202637,339.168152L525.227905,339.085236L525.262451,339.005859L525.306641,338.931305L525.359131,338.862488L525.419312,338.800079L525.486206,338.745331L525.526855,338.718445L525.597656,338.674286L525.673462,338.63266L525.764648,338.598419L525.763428,338.592987L525.463501,336.968658L525.452881,336.882568L525.452271,336.796143L525.462158,336.710052L525.482056,336.625549L525.511841,336.54425L525.550903,336.467133L525.598511,336.395111L525.654541,336.328857L525.718262,336.269958L525.788086,336.219086L525.863525,336.176819L525.912842,336.156342L525.878906,335.555573L525.877686,335.506927L525.884033,334.831909L525.885986,334.785187L525.936279,334.100586L525.94104,334.055115L526.035767,333.361237L526.042847,333.318665L526.181396,332.615479L526.190674,332.574829L526.373779,331.862701L526.384644,331.825256L526.611572,331.103516L526.623413,331.068604L526.894531,330.337585L526.907349,330.305267L527.222534,329.564972L527.235962,329.535187L527.595459,328.785614L527.609253,328.758728L528.012451,327.999847L528.026245,327.974884L528.473755,327.206726L528.487793,327.183685L528.979736,326.40625L528.993164,326.385773L529.528564,325.59906L529.542114,325.579834L530.12207,324.783844L530.135132,324.766571L530.758911,323.961273L530.774902,323.941437L531.895752,322.594299L531.915649,322.571259L533.112671,321.249054L533.133179,321.227631L534.406372,319.930725L534.426514,319.910553L535.776245,318.638947L535.796387,318.620697L537.22229,317.373749L537.242432,317.356781L538.744873,316.135406L538.764648,316.120056L540.343628,314.923645L540.362793,314.909241L542.018188,313.738129L542.0354,313.726288L543.394775,312.822113L543.410767,312.81189L544.776733,311.953461L544.793701,311.943237L546.167114,311.13089L546.184448,311.120972L547.565186,310.354736L547.583374,310.344818L548.970825,309.624695L548.989502,309.615387L550.384277,308.941345L550.403442,308.932373L551.80542,308.304413L551.825195,308.295776L553.234131,307.713898L553.250732,307.707489L554.015137,307.413361L554.027222,307.408875L554.78125,307.133942L554.793457,307.129456L555.536987,306.873108L555.550415,306.868622L556.283691,306.631775L556.297119,306.627594L557.019775,306.409332L557.034546,306.405151L557.74707,306.206085L557.762085,306.201935L558.463989,306.021729L558.479614,306.017883L559.171265,305.856567L559.187622,305.853058L559.868774,305.710632L559.886353,305.707092L560.557129,305.583893L560.575439,305.580688L561.235718,305.476349L561.254883,305.473785L561.904907,305.388641L561.924194,305.386078L562.563599,305.319519L562.584473,305.317902L563.213745,305.270538L563.235107,305.269257L563.853882,305.240784L563.875854,305.239807L564.484375,305.230225L564.515381,305.23053zM569.319885,339.697449L569.455383,339.175323L568.931519,339.50412L569.319885,339.697449zM556.780457,320.684998C556.610596,320.901764,556.399231,321.071594,556.149963,321.190826C556.429932,321.517822,556.709961,321.891785,556.98999,322.309082L557.244751,322.681244L557.378418,322.309082C557.479553,322.030884,557.528381,321.801453,557.528381,321.622589C557.528381,321.205292,557.448853,320.892731,557.289917,320.684998C557.129089,320.455536,556.95929,320.455536,556.780457,320.684998zM527.293457,344.763092L527.293457,344.748627L528.072083,344.867859C528.352051,344.867859,528.561646,344.817291,528.700745,344.717926L528.805542,344.555328C528.805542,344.425262,528.751343,344.331299,528.641113,344.271698L528.072083,344.063934L527.353027,343.82547C527.053162,343.765869,526.789368,343.666504,526.558167,343.527374L526.198608,343.362976L526.543701,344.047668C526.753235,344.356598,527.002563,344.595062,527.293457,344.763092zM527.322327,345.359253L527.607788,346.864136L529.345703,346.551605L529.105408,345.240021L528.926575,345.270752L527.322327,345.359253zM527.907654,336.449219L527.831787,336.463654C527.322327,336.662384,526.773132,336.787048,526.184204,336.835815L526.48407,338.45993L527.112793,338.624329C527.112793,338.306366,527.208496,338.098602,527.398193,337.999237L528.176819,337.89447L527.907654,336.449219M528.521912,343.348541C528.77124,343.258209,528.910339,343.11911,528.94104,342.931213C528.980774,342.701782,528.946472,342.548218,528.836243,342.468719C528.745911,342.398285,528.536377,342.32962,528.207581,342.260986L527.831787,342.170654L527.457825,342.022491C527.228394,341.952057,526.953796,341.807526,526.634033,341.588928L526.079407,341.187866L525.898743,341.009003C525.849976,341.256531,525.878845,341.560028,525.989075,341.917725C526.169739,342.443451,526.449768,342.840881,526.829163,343.110077L527.488525,343.391907L528.521912,343.348541zM528.252747,340.188812C527.792053,340.100311,527.488525,339.95578,527.338623,339.75705C527.248291,339.646851,527.10376,339.543884,526.903198,339.444519C526.704468,339.345154,526.514771,339.285522,526.334106,339.265656C526.133606,339.245789,525.994507,339.269287,525.914978,339.339722L525.914978,339.637817L526.153442,340.367676C526.294373,340.674805,526.464233,340.918671,526.662903,341.097534L526.693665,341.068634L526.979065,341.261932L527.593323,341.588928C528.012451,341.747894,528.380981,341.753326,528.700745,341.605194C529.051208,341.435364,529.22644,341.207733,529.22644,340.918671C529.235474,340.671173,528.986206,340.432709,528.476746,340.203278L528.252747,340.188812zM578.520813,338.638794C578.110718,338.192566,577.850586,337.675873,577.740356,337.088745L577.725952,337.059814L574.44519,338.96759C574.47406,339.265656,574.459656,339.543884,574.400024,339.802216C574.719788,339.930481,574.969055,340.140045,575.149719,340.427307L578.520813,338.638794zM573.140808,338.416565C572.871643,338.496063,572.606079,338.624329,572.347717,338.803162C572.027954,339.030823,571.802124,339.274689,571.672058,339.53302L571.657593,339.547485C571.578125,339.637817,571.502258,339.666718,571.433594,339.637817L571.267395,339.473419L571.267395,339.444519C571.267395,339.254822,571.382996,339.036224,571.612488,338.788727L571.76239,338.579163C571.493225,338.579163,571.19873,338.649628,570.878967,338.788727C570.539368,338.947693,570.273804,339.130157,570.084106,339.339722C569.945007,339.487885,569.814941,339.692017,569.695679,339.950348C569.995544,340.168945,570.250305,340.398376,570.459839,340.63504C571.148193,341.341431,571.453491,342.284454,571.373962,343.467773C572.252014,343.417175,572.860779,343.28891,573.200439,343.079346L573.980896,342.542786C574.300659,342.24472,574.490356,341.977356,574.549988,341.738861C574.660156,341.301666,574.660156,340.969269,574.549988,340.739838C574.479492,340.600708,574.300659,340.421875,574.009766,340.203278L573.980896,340.188812L573.845398,340.159912L573.7099,340.188812C573.480469,340.398376,573.346802,340.620605,573.305237,340.85907C573.305237,341.137268,573.261841,341.296265,573.171509,341.335999L573.036072,341.335999C572.916809,341.267365,572.866211,341.088501,572.886108,340.799438C572.916809,340.333344,573.021606,340.015381,573.200439,339.845581L573.321472,339.666718C573.34137,339.399353,573.420837,339.155457,573.559937,338.936859L573.559937,338.788727C573.559937,338.59903,573.516602,338.465332,573.42627,338.385864L573.140808,338.416565zM527.75769,338.817627C527.69812,339.075989,527.78302,339.33432,528.012451,339.592651C528.361084,339.682983,528.666443,339.796814,528.926575,339.935913C529.445068,340.214111,529.696167,340.546539,529.6745,340.933136L529.600403,341.276398C529.631165,342.002625,529.824463,342.448853,530.18396,342.616882L530.155029,343.019745L529.90033,342.886047L529.376404,342.528351C529.416138,342.687317,529.4198,342.851715,529.390869,343.019745C529.340271,343.249176,529.215637,343.442474,529.016907,343.60144L528.910339,343.765869L528.955505,343.944702C529.156006,344.072968,529.255371,344.2771,529.255371,344.555328L529.240906,344.703461L529.300537,344.703461L529.315002,344.89679L530.395325,344.479462C530.86322,344.271698,531.244385,344.013367,531.533447,343.706238C532.201904,342.999878,532.371704,342.121857,532.042908,341.068634L531.562378,340.35321L530.904785,339.115723C530.613892,338.738129,530.155029,338.54483,529.526367,338.535797L528.117249,338.519531C527.916687,338.539429,527.797485,338.638794,527.75769,338.817627zM553.678528,376.591431C553.947693,376.273468,554.216919,375.677307,554.487854,374.802917C554.717346,374.078461,554.901611,373.283569,555.04248,372.418213C554.253052,372.756042,553.418396,372.696442,552.538574,372.23938C551.839417,371.881653,551.171021,371.301758,550.531494,370.496033L550.262268,371.106628C550.171936,373.908661,550.751892,375.77124,552.000244,376.694397C552.66864,377.18219,553.228699,377.147858,553.678528,376.591431zM541.406433,375.845306C541.417297,376.154236,541.462463,376.333069,541.541931,376.381866L542.020691,376.472198C542.241089,376.511932,542.360291,376.694397,542.380188,377.023193L542.351257,377.738586C542.311523,378.323914,542.846252,379.212769,543.953735,380.405121C544.712463,381.25058,545.632019,381.805206,546.710571,382.074402L548.105225,382.222534C548.71405,382.173767,549.033813,381.944336,549.062744,381.537842C549.073547,381.25058,549.003113,380.912781,548.853149,380.524353L548.388855,379.586731C548.159424,379.138702,547.854126,378.641907,547.474731,378.096313L547.236267,377.783752C546.645508,378.090881,545.97168,378.164948,545.212891,378.005981C544.493896,377.857849,543.879639,377.54892,543.370178,377.082825C542.710815,376.466766,542.215759,375.552643,541.886963,374.340424C541.547363,374.857117,541.386536,375.359314,541.406433,375.845306zM556.794861,317.5849C556.625061,317.257904,556.390198,316.994141,556.090332,316.79541C556.189697,317.16214,556.130066,317.460236,555.911438,317.689667C555.620605,318.007629,555.261108,318.170227,554.831116,318.181061C554.402954,318.190094,554.007324,318.047363,553.647827,317.749298C552.628906,316.874908,551.935181,316.423248,551.564819,316.392548C551.266724,316.363647,550.876526,316.466614,550.395996,316.705078C550.016602,316.894775,549.727539,316.920074,549.527039,316.780975L548.898315,316.139618C548.278687,315.424225,547.839661,315.066528,547.579529,315.066528C547.2995,315.066528,546.940002,315.265228,546.500977,315.662689L546.155945,316.034851L545.736816,316.363647C545.207458,316.631012,544.78833,316.809875,544.479431,316.900208C543.908569,317.068207,543.435242,317.499969,543.055847,318.195526C542.634888,318.961517,542.400024,319.357147,542.351257,319.387848C541.99176,319.606445,541.646729,320.049072,541.317932,320.713898C541.08667,321.179993,540.896973,321.68222,540.747009,322.218781C540.508545,323.141937,540.613342,324.285492,541.063171,325.645844C541.292603,326.330536,541.547363,326.923096,541.827393,327.419922C541.867126,326.554565,542.141724,325.790375,542.651184,325.123749L543.670105,324.007294L542.72522,323.365936C542.376587,323.038971,542.201355,322.735443,542.201355,322.457245C542.190491,322.011017,542.291626,321.628021,542.501221,321.310059C542.801086,320.863831,543.274414,320.634399,543.924805,320.625366C544.123535,320.625366,544.508301,320.699432,545.077393,320.847565L546.036682,320.952362C546.067383,320.941528,546.381775,320.515167,546.981567,319.671478C547.519897,318.916351,547.984192,318.592957,548.37439,318.703156L549.467407,319.149384L550.247864,319.476379L550.800659,319.461914L551.160156,319.19455L551.776184,318.822388L552.628906,318.910919C552.838501,318.990417,553.217834,319.277649,553.76886,319.774475L554.607117,320.5495C554.977478,320.768097,555.32074,320.883698,555.640503,320.892731C556.019836,320.901764,556.314331,320.768097,556.525696,320.489868C556.834656,320.103271,557.015259,319.615479,557.064087,319.030151C557.103821,318.464691,557.015259,317.98233,556.794861,317.5849zM531.338379,324.410156C527.893188,328.729675,526.328735,332.653564,526.648499,336.180023L527.531921,335.941559C527.333191,332.92276,528.612244,329.540833,531.36908,325.795807C534.145813,322.030884,538.00647,318.453857,542.95105,315.066528C546.495544,312.64209,550.106934,310.696411,553.783325,309.22583C557.788513,307.627014,561.343872,306.826691,564.451172,306.826691C566.857544,306.826691,568.871887,307.323517,570.48877,308.317139C574.10553,310.532013,575.427979,315.080963,574.459656,321.965851C574.230225,323.604431,574.170593,324.90155,574.278992,325.855408C574.38916,326.818329,574.674622,327.513855,575.133484,327.940216C575.532715,328.308746,576.072876,328.491211,576.752197,328.491211L578.609314,328.238281L580.60199,327.970917C581.660645,327.970917,582.460999,328.411743,582.999329,329.296936C583.689453,330.438721,583.853821,331.571442,583.494324,332.693329C583.185425,333.667084,582.486267,334.631775,581.396912,335.583862C580.567688,336.319122,579.602966,336.974915,578.504578,337.551208C578.634644,337.820404,578.784607,338.048035,578.954407,338.237732L579.014038,338.297333C580.134094,337.690338,581.11145,337.029114,581.951538,336.315521C583.179993,335.242401,583.978516,334.129547,584.348877,332.976959C584.798706,331.576843,584.603577,330.194824,583.763489,328.834473C583.055359,327.661987,582.005737,327.07666,580.618286,327.07666L578.430481,327.374756L576.752197,327.61322C576.313171,327.61322,575.977173,327.503021,575.747742,327.284424C575.079285,326.668365,574.949219,324.935852,575.359314,322.085083C576.367371,314.822632,574.898621,309.980988,570.953064,307.556549C569.215149,306.494293,567.063477,305.963165,564.496338,305.963165C561.278809,305.963165,557.618713,306.772491,553.51416,308.391205C549.747437,309.881622,546.05658,311.863464,542.441589,314.33667C537.925171,317.425903,534.225281,320.784332,531.338379,324.410156zM570.729065,342.974579C570.729065,342.201355,570.514038,341.588928,570.084106,341.1427C569.415649,340.467041,568.891724,340.103912,568.510559,340.055145L567.972168,340.85907C567.533203,341.307098,566.843079,341.540161,565.903687,341.560028C565.965088,342.04599,565.784424,342.653015,565.365295,343.377441L564.975098,342.363953C564.655334,341.608795,564.340942,341.063202,564.032043,340.725372C563.302185,339.930481,562.248962,339.146423,560.870544,338.371399C559.642029,337.675873,558.473206,337.15918,557.363953,336.82135C556.953857,336.969513,556.729858,337.07428,556.690125,337.133911C556.420898,337.451843,555.900635,337.744507,555.131042,338.013702L555.085876,338.042603L554.966614,338.087769C554.847412,338.138367,554.81665,338.2612,554.876282,338.45993C555.006348,338.808594,555.196045,339.518585,555.445374,340.591705C555.765137,341.943024,555.996399,343.144379,556.135498,344.197632C556.265564,345.230988,556.335999,346.520874,556.345032,348.070923C556.355896,349.004944,556.350464,349.779968,556.330566,350.395996L556.314331,350.768158C557.783081,350.509827,558.606873,350.336395,558.787537,350.246063L559.266296,342.871582L559.492126,342.914948L559.596863,344.331299L559.761292,347.460327L560.465881,347.63916C562.552429,348.085388,564.646301,347.866791,566.743713,346.983368C568.151062,346.398041,569.254883,345.702515,570.055176,344.89679L570.143738,344.808258C570.374939,344.609528,570.508667,344.436096,570.548401,344.286163C570.678467,343.879669,570.738098,343.442474,570.729065,342.974579zM538.2901,345.061157C538.060669,344.604095,537.211548,343.973602,535.742798,343.169678C534.50531,342.483185,533.540588,342.031555,532.852295,341.812927L532.761963,342.573517C532.691467,343.189545,532.521667,343.729736,532.252502,344.197632C531.932739,344.763092,531.434082,345.174988,530.754822,345.433319C530.18396,345.651917,529.909363,345.791016,529.929199,345.850647C530.118896,346.407074,530.734985,347.088165,531.773743,347.89209C533.410522,349.154877,535.348999,349.745636,537.58551,349.666138C538.075073,349.646271,539.05426,349.41684,540.52301,348.979645L542.560852,348.340118L543.160645,348.905579L542.336792,349.308441L542.515686,350.753723L545.781982,351.156586C547.420532,351.284851,548.558716,351.313751,549.198242,351.245087L549.348145,351.171021L549.438477,351.051788C549.487244,350.415863,549.507141,349.274109,549.498108,347.624695C549.47821,345.924713,549.427673,344.669128,549.348145,343.85437C549.209045,342.344086,548.983215,340.918671,548.674316,339.578186C548.623718,339.359619,548.553284,339.206055,548.464722,339.115723C548.37439,339.027191,548.233521,338.971191,548.043823,338.951324C547.604797,338.902527,547.030334,338.738129,546.322144,338.45993C545.292358,338.053436,544.508301,337.545807,543.969971,336.940582C542.690918,337.506042,541.162537,338.629761,539.384888,340.308044C538.485168,341.1427,537.721008,341.923157,537.092346,342.647583C537.291016,342.755981,537.491577,342.934814,537.692078,343.184143C538.080505,343.700806,538.281067,344.325897,538.2901,345.061157zM555.445374,335.600098L554.711914,336.031891C554.451721,336.835815,553.978455,337.471741,553.28833,337.939636C552.628906,338.396698,551.884583,338.624329,551.055359,338.624329C549.10791,338.615295,547.664429,337.576508,546.726807,335.509796C546.036682,335.818695,545.286987,336.219757,544.479431,336.716583C544.958191,337.204346,545.637451,337.621674,546.515442,337.968536C547.174866,338.226868,547.700562,338.376831,548.088989,338.416565C548.408752,338.456299,548.65802,338.559296,548.838684,338.729095C549.008545,338.888092,549.127747,339.13559,549.198242,339.473419C549.498108,340.794037,549.727539,342.241089,549.888306,343.809204C549.967834,344.64386,550.016602,345.91568,550.036499,347.624695C550.047302,349.30304,550.022034,350.461029,549.962402,351.096954C549.942505,351.25412,549.863037,351.404083,549.722107,351.543182C549.572144,351.682281,549.413208,351.76178,549.243408,351.781647L545.736816,351.67688L542.560852,351.304718C542.64032,352.874634,542.625854,354.498749,542.515686,356.177063C543.464111,356.583557,544.649231,356.946655,546.067383,357.264618C547.545166,357.602448,548.853149,357.792145,549.993103,357.831879C551.111389,357.871643,552.829468,357.627747,555.147278,357.10022L558.278076,356.28186C558.42804,354.524048,558.563538,352.701202,558.682739,350.813324C558.372009,350.932556,557.607849,351.091553,556.390198,351.290253C556.189697,351.319153,556.039734,351.284851,555.940369,351.185486C555.821167,351.077087,555.770569,350.818756,555.790405,350.410461L555.790405,350.365295L555.821167,348.085388C555.80127,346.576904,555.725403,345.299652,555.595337,344.257233C555.465271,343.20401,555.235779,341.997223,554.906982,340.63504C554.686584,339.711884,554.511353,339.041656,554.383118,338.624329C554.301819,338.416565,554.298218,338.212433,554.366821,338.013702C554.437317,337.814972,554.561951,337.675873,554.742615,337.596375L554.935913,337.522308L554.952148,337.522308C555.161743,337.44281,555.465271,337.303711,555.866333,337.10498C556.355896,336.846649,556.670227,336.647919,556.809326,336.50882C556.48053,336.180023,556.025269,335.878326,555.445374,335.600098zM544.284302,323.783264C544.352966,323.873596,544.329468,323.962128,544.208435,324.05246C543.63031,324.547455,543.214844,324.950317,542.965515,325.259247C542.315125,326.11377,542.060425,327.006195,542.201355,327.940216C542.400024,327.165192,542.69635,326.460632,543.084717,325.824707C543.574341,325.109314,543.919373,324.70282,544.118103,324.603455L544.403564,324.61792C544.473999,324.697388,544.457764,324.776886,544.358398,324.856384L544.029602,325.199615L543.384644,326.034271C543.115479,326.381134,542.875183,326.812897,542.665649,327.32959L542.306091,328.357544L542.425354,328.68634C542.634888,327.891418,542.954651,327.201324,543.384644,326.614166C543.704407,326.196869,543.998901,325.909607,544.268066,325.750641C544.378235,325.69101,544.44873,325.71991,544.479431,325.839172C544.519165,325.969238,544.468567,326.08847,544.329468,326.196869L543.684509,326.852661C543.404541,327.250092,543.050415,327.911316,542.620483,328.834473L542.651184,328.820007L542.69635,328.908539L542.95105,328.93924C543.110046,328.998871,543.144348,329.112671,543.055847,329.282501C542.405457,329.95636,542.345825,330.677185,542.875183,331.443176C543.404541,332.196503,544.10907,332.454865,544.988892,332.21637C546.136047,333.667084,547.4151,334.705841,548.82428,335.330933C549.203613,335.500732,549.183777,335.600098,548.762817,335.629028C548.354553,335.659729,547.874023,335.540497,547.324768,335.271301C547.695129,336.474487,548.674316,337.27301,550.262268,337.670441L551.909912,337.760773C552.399475,337.650574,552.654175,337.422943,552.674072,337.07428C552.534973,337.133911,552.204346,337.128479,551.685852,337.059814C551.165588,336.98938,550.910828,336.911682,550.921692,336.82135L551.864746,336.732849C552.713806,336.62265,553.62793,336.25589,554.607117,335.629028C556.305298,334.555908,557.434387,332.957092,557.992676,330.83075C558.283508,329.728729,558.388306,328.635742,558.308777,327.553589C558.247375,326.639465,558.054077,325.736176,557.72345,324.841919C557.38385,323.967529,556.934021,323.12207,556.375732,322.309082L555.595337,321.295593C555.206909,321.295593,554.787781,321.156494,554.337952,320.878296L553.452698,320.088806C552.914368,319.581177,552.563843,319.297516,552.404907,319.237915C552.195313,319.16925,551.929749,319.22345,551.609985,319.402313L551.131226,319.73111C550.862061,319.909973,550.562195,319.984039,550.231567,319.953308C549.993103,319.944275,549.67334,319.864807,549.272278,319.714844C548.873047,319.575745,548.453918,319.606445,548.014893,319.805176C547.545166,320.023773,547.145935,320.390503,546.815308,320.907196C546.665405,321.14566,546.441345,321.28476,546.141479,321.324524L545.377319,321.250427L544.044067,321.176361C543.484009,321.185394,543.140747,321.514191,543.010681,322.159149C542.860718,322.843842,543.23468,323.351501,544.134399,323.678497L544.284302,323.783264zM544.748596,328.343079L544.584229,328.536377L544.41803,328.908539C544.428833,329.018738,544.372864,329.078369,544.253601,329.087402C544.134399,329.098236,544.069336,329.027771,544.058472,328.879639C544.049438,328.749573,544.098267,328.590576,544.208435,328.402679L544.522766,328.059448C544.623962,327.990784,544.70343,328.005249,544.763062,328.104614C544.833496,328.193146,544.828125,328.272614,544.748596,328.343079zM544.41803,326.912262C544.499268,326.863495,544.573364,326.883362,544.643799,326.971893C544.70343,327.062225,544.672729,327.16156,544.553467,327.269958L544.539063,327.30069L544.508301,327.315125L544.044067,327.746918L543.653809,328.328613C543.514709,328.556244,543.424377,328.615875,543.384644,328.507477C543.355713,328.437012,543.384644,328.297913,543.474976,328.090149L543.758606,327.539154C543.959106,327.250092,544.179565,327.042328,544.41803,326.912262zM553.093201,332.962494L553.197998,332.769196C553.268433,332.709595,553.3479,332.678864,553.438232,332.678864L553.707458,332.693329L554.711914,332.649963C554.802246,332.63913,554.851013,332.653564,554.861816,332.693329L554.771545,332.812561L554.321655,333.155823C554.072388,333.305756,553.772461,333.349121,553.423828,333.28949C553.20343,333.249756,553.093201,333.141357,553.093201,332.962494zM555.416443,322.159149L554.216919,322.292847L553.962158,322.218781C553.893494,322.159149,553.857361,322.074249,553.857361,321.965851L553.857361,321.667755C553.857361,321.56839,553.893494,321.494324,553.962158,321.443756C554.02356,321.403992,554.103088,321.403992,554.202454,321.443756L555.445374,321.980286C555.535706,322.02005,555.580872,322.059784,555.580872,322.099548L555.416443,322.159149zM548.419556,322.144714L548.59845,322.309082L548.674316,322.383179C548.833313,322.562012,548.903748,322.681244,548.88385,322.740875L548.62915,322.903473C548.419556,323.022705,548.244324,323.132904,548.105225,323.232269L547.519897,323.694733L547.115234,323.962128C547.005005,323.723663,547.126099,323.340668,547.474731,322.814941L548.014893,322.099548L548.224487,322.039917C548.303955,322.039917,548.369019,322.074249,548.419556,322.144714zM554.892578,324.527588C554.592651,324.607056,554.346985,324.722687,554.157288,324.870819L554.097656,324.007294C554.468018,323.85733,554.847412,323.777863,555.235779,323.768829C556.016235,323.768829,556.440796,324.131927,556.50946,324.856384C556.019836,324.487823,555.481506,324.379456,554.892578,324.527588zM548.105225,325.452545C548.844116,324.905151,549.602905,324.865417,550.381531,325.333313C549.543274,325.412811,548.912781,325.710876,548.493652,326.22757C548.284058,326.494934,548.159424,326.747864,548.11969,326.986328L547.236267,326.420868C547.445801,326.054138,547.734863,325.730774,548.105225,325.452545zM551.880981,324.572754L551.835815,324.36499C551.835815,324.305359,551.855713,324.271057,551.895447,324.260193C551.994812,324.231293,552.099609,324.294525,552.209778,324.453522L552.988403,325.541077L553.828491,326.390167L554.397583,326.912262L554.516785,327.121826C554.536682,327.221191,554.527649,327.304291,554.487854,327.374756L553.978455,328.447876C553.828491,328.695374,553.59906,328.765808,553.28833,328.655609L553.109436,328.550842L553.123901,328.357544L553.557495,327.553589C553.647827,327.374756,553.633362,327.204926,553.51416,327.045959L552.704773,325.97464C552.394043,325.537445,552.119446,325.06955,551.880981,324.572754zM550.231567,329.072937L550.12677,329.564331C550.106934,329.643799,550.137634,329.719696,550.217102,329.78833L550.471863,329.922028C551.900879,330.21109,552.948669,330.339355,553.618896,330.310455C554.038025,330.290558,554.612549,330.165924,555.340576,329.936493L556.299866,329.609497C556.379395,329.58963,556.444397,329.544464,556.494995,329.4758L556.540161,329.237335L556.494995,329.027771L556.50946,328.879639L556.659363,328.93924L557.304321,329.520966L557.423584,329.728729L557.409119,329.981659L556.930359,331.054749L556.823792,331.159546L556.76416,331.040314L556.749695,330.89035L556.630493,330.711517C556.569092,330.682587,556.505859,330.682587,556.435364,330.711517L555.580872,331.412445C554.892578,331.889404,554.242188,332.176636,553.633362,332.276001C553.024536,332.375366,552.179077,332.21637,551.100525,331.799072L549.662476,331.145081C549.472839,331.11438,549.33374,331.184814,549.243408,331.352844L549.33374,332.023071L549.212646,332.127869L549.10791,332.008636L548.62915,330.727753C548.558716,330.538086,548.603821,330.379089,548.762817,330.250824L550.0672,328.96814C550.137634,328.919373,550.186401,328.904907,550.217102,328.924805C550.247864,328.944672,550.251465,328.993439,550.231567,329.072937zM550.052734,330.220123C549.902771,330.230957,549.772705,330.294189,549.662476,330.413422C549.552307,330.532654,549.537842,330.648285,549.61731,330.756653C549.687805,330.846985,549.781738,330.906616,549.902771,330.935516C551.080688,331.343811,551.884583,331.582275,552.314575,331.65094C552.634338,331.710541,553.053467,331.710541,553.57373,331.65094C554.083191,331.591309,554.471619,331.497375,554.742615,331.36731L556.464294,330.458588C556.614258,330.409821,556.695496,330.285156,556.704529,330.086426C556.715393,329.987061,556.67926,329.922028,556.599792,329.893127C556.540161,329.862396,556.460693,329.862396,556.359497,329.893127L555.385742,330.220123L553.528564,330.608521C552.739136,330.668152,551.691284,330.543488,550.381531,330.234558L550.052734,330.220123zM550.052734,358.382904C548.68335,358.382904,547.126099,358.184174,545.377319,357.786743C544.239136,357.517548,543.135315,357.199585,542.065857,356.832855C541.935791,359.41626,542.017029,361.520935,542.306091,363.150452C542.745117,365.504425,543.653809,367.347137,545.032227,368.678589C545.153259,368.797821,545.133423,368.947784,544.972595,369.124817C544.822693,369.30368,544.688965,369.334381,544.567932,369.215149L543.670105,368.366058C543.209412,367.898163,542.875183,367.480835,542.665649,367.114105C542.405457,368.048096,542.230225,369.135651,542.141724,370.37677C542.10199,371.02356,542.121826,371.719086,542.201355,372.463379L542.306091,372.954773C542.356689,373.17337,542.376587,373.346802,542.365723,373.476868C542.526489,374.351257,542.86615,375.185913,543.384644,375.980804C543.764038,376.566132,544.329468,377.003326,545.077393,377.290588C545.897583,377.608521,546.596741,377.585022,547.174866,377.216492L549.662476,371.225891L549.752808,371.018127L550.186401,369.990173C550.186401,369.899841,550.227966,369.816742,550.307434,369.737244C550.927124,368.255859,551.39502,366.980408,551.714783,365.907288C552.274841,363.970642,552.623474,362.162262,552.764404,360.483948C552.773438,360.314148,552.878235,360.194885,553.078735,360.126251C553.279297,360.055786,553.37323,360.126251,553.364197,360.334015C553.234131,361.875031,552.934204,363.479248,552.464539,365.146729C552.07428,366.508911,551.530518,368.037262,550.83136,369.737244C551.861084,371.157227,552.923401,371.906952,554.02356,371.98645L554.787781,371.897919C555.065979,371.827454,555.261108,371.738953,555.371277,371.628754C556.769592,370.217804,557.737915,368.102295,558.278076,365.282227C558.838135,362.500092,558.9375,359.64389,558.578003,356.713623C557.689148,357.10022,556.675659,357.434448,555.535706,357.712646C553.718262,358.158875,551.890015,358.382904,550.052734,358.382904zM576.726196,329.223114L576.478149,329.214478L576.424316,329.210632L576.189087,329.185028L576.128296,329.176086L575.906494,329.132874L575.844971,329.117828L575.635986,329.057983L575.568115,329.034943L575.372314,328.957489L575.304688,328.926758L575.121948,328.832001L575.05542,328.792969L574.885742,328.680939L574.821411,328.63324L574.665283,328.503632L574.602173,328.444427L574.438354,328.271912L574.38269,328.205963L574.234741,328.008179L574.190308,327.941589L574.059082,327.718842L574.025757,327.655457L573.910522,327.40741L573.885864,327.347565L573.787354,327.074219L573.770386,327.020142L573.68811,326.721832L573.67627,326.673492L573.610352,326.35025L573.602905,326.307037L573.553345,325.95816L573.548828,325.918793L573.516235,325.545288L573.514038,325.512299L573.49707,325.10614L573.496338,325.077667L573.495117,324.639832L573.495361,324.614532L573.510132,324.144043L573.511108,324.122925L573.541504,323.620728L573.543091,323.601868L573.589233,323.067657L573.59082,323.050385L573.653198,322.483887L573.654785,322.469482L573.73291,321.870941L573.885254,320.625275L573.983887,319.446777L574.029663,318.321777L574.02356,317.257233L573.965942,316.259613L573.856812,315.310608L573.698364,314.42691L573.489014,313.595062L573.231689,312.821808L572.928589,312.110931L572.577148,311.453217L572.178711,310.848938L571.733154,310.29715L571.239624,309.795593L570.699951,309.346558L570.10144,308.939758L569.531494,308.621277L568.92334,308.34314L568.275513,308.105988L567.588989,307.910431L566.868164,307.758392L566.097778,307.64798L565.2948,307.58139L564.450806,307.559631L563.878174,307.568604L563.311646,307.595154L562.722778,307.640289L562.130005,307.703339L561.511597,307.786224L560.890991,307.886108L560.258545,308.004517L559.610474,308.142151L558.961304,308.296112L558.292358,308.47052L557.606201,308.665466L556.930908,308.872528L556.221313,309.105225L555.517822,309.350708L554.782959,309.622437L554.05188,309.906982L552.703735,310.46933L551.345703,311.082581L550.010742,311.731659L548.661743,312.43515L547.331543,313.175476L546.004883,313.962189L544.673096,314.799774L543.369751,315.66748L542.460205,316.301514L541.576172,316.939423L540.722534,317.578247L539.905396,318.212616L539.092773,318.867798L538.324585,319.511108L537.575928,320.163422L536.839478,320.832031L536.14624,321.487823L535.464478,322.160919L534.827271,322.81897L534.199585,323.496887L533.594116,324.182465L533.032959,324.850098L532.481567,325.540161L531.955933,326.233429L531.953369,326.237244L531.952515,326.23822L531.474243,326.906525L531.021118,327.578644L530.60022,328.244049L530.217407,328.894745L529.866333,329.539978L529.551025,330.17276L529.274536,330.785675L529.02771,331.398285L528.816772,331.995514L528.637207,332.588593L528.49353,333.163116L528.382202,333.732178L528.304077,334.283966L528.257935,334.833527L528.244507,335.369293L528.259521,335.807159L528.270752,335.812592L528.34314,335.859955L528.409668,335.915344L528.468872,335.978394L528.520752,336.047852L528.563599,336.123047L528.597534,336.202759L528.627686,336.314789L528.896851,337.760193L528.901245,337.795715L529.534668,337.80307L529.564209,337.804016L529.791992,337.815887L529.854736,337.82196L530.06665,337.85141L530.135742,337.864532L530.331665,337.911255L530.405884,337.933014L530.58606,337.996704L530.666504,338.03064L530.830933,338.111938L530.910645,338.157715L531.059204,338.255951L531.136353,338.31485L531.268799,338.430389L531.33728,338.498566L531.454468,338.631714L531.507935,338.69989L531.551392,338.771912L532.189575,339.973419L532.650879,340.659637L532.694702,340.734222L532.729614,340.813599L532.751953,340.885284L532.802856,341.082764L532.827148,341.080505L532.91394,341.082764L532.99939,341.095245L533.088989,341.119873L533.360107,341.212708L533.387329,341.222321L533.684326,341.337219L533.705444,341.345856L534.028442,341.482513L534.046021,341.490204L534.394531,341.648621L534.409912,341.656006L534.784058,341.836517L534.796509,341.84259L535.196655,342.045197L535.207153,342.050629L535.632935,342.274994L535.642822,342.280426L536.09375,342.526886L536.101074,342.530731L536.360718,342.676361L536.360718,342.605316L536.370972,342.519196L536.391113,342.435028L536.420898,342.353729L536.460205,342.276611L536.508545,342.20459L536.546631,342.158508L537.043701,341.604462L537.058716,341.588135L537.606445,341.013641L537.620117,340.999542L538.218628,340.404236L538.231201,340.392059L538.880615,339.776276L538.888184,339.769226L539.543091,339.165894L539.557495,339.152771L540.188965,338.601318L540.206299,338.586914L540.814331,338.087616L540.834229,338.071594L541.419312,337.624481L541.442627,337.607513L542.004028,337.212555L542.032227,337.193665L542.57019,336.851196L542.603516,336.83136L543.118164,336.540741L543.158813,336.519287L543.650146,336.281158L543.730103,336.248199L543.813354,336.224823L543.898804,336.211395L543.951904,336.209473L543.974976,336.184814L544.04126,336.12915L544.104004,336.087219L544.698975,335.732574L544.717285,335.722015L545.290161,335.402588L545.311279,335.391083L545.862061,335.107178L545.885742,335.095642L546.414551,334.846649L546.494873,334.814636L546.542603,334.801849L546.364014,334.665802L546.329102,334.637329L545.856079,334.228607L545.824951,334.200104L545.36377,333.752991L545.335327,333.723846L544.886597,333.237671L544.861572,333.209198L544.699341,333.014282L544.408325,333.032837L544.293823,333.03125L544.004761,333.004364L543.882202,332.982269L543.609863,332.908966L543.489502,332.864807L543.233398,332.744781L543.126221,332.683014L542.886841,332.516571L542.799072,332.445221L542.57605,332.232361L542.509155,332.159058L542.302368,331.899811L542.246704,331.819794L542.075806,331.534637L542.026733,331.437012L541.910889,331.156006L541.872192,331.032776L541.812012,330.756226L541.79895,330.670471L541.795654,330.614136L541.790527,330.341736L541.793823,330.255341L541.802734,330.192932L541.853027,329.925018L541.874146,329.841187L541.8927,329.788361L541.997925,329.524628L542.056274,329.410034L542.096558,329.344757L542.087646,329.33548L542.072266,329.328125L541.998901,329.282013L541.931396,329.2276L541.87085,329.165527L541.818359,329.09671L541.774292,329.022461L541.736206,328.935699L541.617065,328.606995L541.592407,328.523804L541.577759,328.43866L541.573242,328.351929L541.575439,328.318939L541.554321,328.284698L541.518188,328.205963L541.491577,328.123718L541.481079,328.064514L541.462891,328.055542L541.390503,328.008179L541.323975,327.952484L541.264771,327.889435L541.213135,327.819641L541.178589,327.760773L540.973511,327.37027L540.956177,327.335388L540.760254,326.909058L540.746826,326.87738L540.560547,326.416168L540.549683,326.388L540.372681,325.891907L540.362183,325.859253L540.209839,325.359314L540.199829,325.324127L540.079468,324.84433L540.070557,324.80368L539.98291,324.344727L539.975464,324.299286L539.9198,323.860474L539.915283,323.809265L539.891968,323.39093L539.890991,323.333313L539.899902,322.935486L539.904175,322.872437L539.945435,322.495392L539.955933,322.427551L540.029297,322.070984L540.045532,322.006653L540.165283,321.610748L540.175903,321.578735L540.310913,321.195923L540.32312,321.163605L540.473511,320.793945L540.487549,320.761597L540.653076,320.40506L540.66748,320.37561L540.791626,320.136841L540.806641,320.109314L540.932129,319.891357L540.951416,319.859985L541.078491,319.662842L541.102417,319.62796L541.231079,319.451599L541.26123,319.413177L541.391113,319.257965L541.428589,319.216339L541.559814,319.081909L541.607788,319.037109L541.740601,318.923492L541.800781,318.877075L541.83667,318.852448L541.858398,318.818176L542.024536,318.53717L542.268066,318.105408L542.414429,317.841034L542.424927,317.822479L542.571899,317.574097L542.600952,317.528656L542.75647,317.304932L542.792725,317.257233L542.956909,317.058167L543.002686,317.007599L543.176147,316.83316L543.230835,316.783539L543.412964,316.634064L543.477661,316.5867L543.669067,316.461884L543.741333,316.420258L543.941772,316.320099L544.022095,316.285858L544.231689,316.210632L544.24646,316.205505L544.478149,316.128052L544.73999,316.023071L545.045288,315.885773L545.345215,315.739502L545.657227,315.494324L545.963257,315.164337L546.032959,315.098419L546.34729,314.837891L546.413574,314.78891L546.69812,314.602631L546.804688,314.545013L547.059448,314.432983L547.140381,314.402924L547.234863,314.380829L547.459839,314.343689L547.545898,314.334747L547.63269,314.335693L547.692871,314.342743L547.798828,314.359375L547.883667,314.37796L547.963013,314.405151L548.085571,314.455414L548.185181,314.505341L548.324707,314.589172L548.387085,314.631104L548.543579,314.748566L548.585571,314.782501L548.758667,314.933563L548.786865,314.959808L548.976929,315.144165L548.998047,315.165314L549.2052,315.38327L549.221436,315.401184L549.431396,315.63739L549.901001,316.115875L549.908325,316.114288L550.11377,316.028503L550.440552,315.882568L550.507446,315.856628L550.81665,315.753571L550.910522,315.728943L551.185669,315.676117L551.314087,315.662994L551.555054,315.65979L551.641479,315.663971L551.709351,315.674194L551.863281,315.705261L551.982056,315.739807L552.166382,315.810883L552.237183,315.84256L552.451904,315.952667L552.499634,315.979553L552.744751,316.129333L552.777344,316.150452L553.052979,316.3396L553.077271,316.356903L553.383301,316.585754L553.401489,316.599823L553.737915,316.868347L553.751953,316.880188L554.094116,317.167633L554.292847,317.3078L554.465088,317.388794L554.634766,317.433258L554.811768,317.445435L554.979736,317.425262L555.119019,317.379181L555.243774,317.305573L555.363159,317.197693L555.389771,317.160889L555.395142,317.145203L555.398438,317.096893L555.368042,316.918915L555.358398,316.832825L555.359009,316.746094L555.369873,316.660309L555.390991,316.576141L555.421753,316.495483L555.461792,316.418671L555.510742,316.346985L555.567749,316.282013L555.631714,316.223755L555.702393,316.173828L555.778687,316.132202L555.859009,316.10022L555.942505,316.077789L556.02832,316.065308L556.114746,316.06308L556.201172,316.071411L556.285645,316.089325L556.367554,316.117493L556.445679,316.154938L556.532104,316.211273L556.744873,316.372253L556.817261,316.434662L557.005371,316.6203L557.067871,316.690399L557.231689,316.899719L557.283569,316.97525L557.423096,317.208588L557.462769,317.28476L557.603638,317.598755L557.643677,317.71109L557.735229,318.056763L557.754761,318.162048L557.797241,318.539093L557.802124,318.631592L557.796265,319.040314L557.788574,319.135376L557.727539,319.555939L557.706665,319.653229L557.613525,319.976501L557.64978,320.004333L557.711182,320.058105L557.798584,320.149017L557.859375,320.224213L557.919189,320.310333L558.02356,320.485718L558.063232,320.562531L558.085938,320.619812L558.160522,320.834595L558.190308,320.948517L558.234741,321.202667L558.244751,321.291626L558.259766,321.585144L558.259155,321.669952L558.249878,321.813354L558.240845,321.889526L558.213013,322.052094L558.200195,322.111969L558.153442,322.292786L558.139404,322.340485L558.07312,322.539886L558.067749,322.556213L557.934204,322.928436L557.900024,323.007813L557.857178,323.083038L557.805298,323.152496L557.768433,323.191223L557.78772,323.227051L558.104248,323.866241L558.122437,323.905914L558.397705,324.556274L558.418457,324.611664L558.640991,325.284119L558.65564,325.334351L558.826904,326.010345L558.837769,326.061859L558.95874,326.741364L558.966431,326.794159L559.037231,327.477814L559.040771,327.53064L559.06604,328.344238L559.065063,328.406647L559.020508,329.224091L559.014771,329.284912L558.901123,330.106171L558.890625,330.164764L558.707153,330.989563L558.692749,331.044281L558.456909,331.816925L558.436401,331.875488L558.146729,332.598846L558.119629,332.658997L557.776489,333.332733L557.741943,333.392914L557.345337,334.017365L557.304077,334.075928L556.854004,334.651093L556.80603,334.706451L556.305786,335.229126L556.602417,335.409943L556.653076,335.443573L556.970581,335.675293L557.027222,335.721069L557.297363,335.962708L557.358521,336.02417L557.410645,336.091064L557.44519,336.092957L557.53064,336.107697L557.599731,336.127533L558.442871,336.414642L558.483765,336.429993L559.349609,336.783997L559.386353,336.800323L560.273926,337.221191L560.306274,337.237518L561.216553,337.725616L561.237915,337.737457L561.739868,338.028717L561.75769,338.039612L562.228882,338.331482L562.248413,338.343964L562.689087,338.636505L562.710571,338.651245L563.12085,338.945068L563.143311,338.962006L563.523193,339.256805L563.547241,339.276337L563.896729,339.572052L563.922363,339.594452L564.241455,339.890839L564.268311,339.917419L564.557373,340.215057L564.60498,340.268829L564.837646,340.561066L564.883423,340.625702L565.118042,340.996338L565.146851,341.045959L565.247437,341.236084L565.270386,341.190613L565.318481,341.118622L565.374756,341.052673L565.43811,340.993774L565.508179,340.942902L565.58374,340.900635L565.663818,340.867676L565.746948,340.844299L565.865479,340.828308L566.183594,340.811981L566.445679,340.780945L566.686768,340.733887L566.886108,340.676605L567.066895,340.605225L567.216064,340.526825L567.340942,340.440399L567.414551,340.374451L567.901367,339.647583L567.953857,339.578461L568.013672,339.516052L568.080933,339.461334L568.153931,339.414917L568.208984,339.388672L568.212158,339.364014L568.233521,339.280151L568.264893,339.199493L568.305542,339.123016L568.354858,339.051971L568.412231,338.987L568.476807,338.929382L568.541748,338.88327L569.06543,338.554565L569.141235,338.51297L569.221558,338.480652L569.305176,338.457916L569.390869,338.445435L569.477295,338.442871L569.563721,338.450867L569.648315,338.468475L569.730469,338.496338L569.808594,338.533447L569.852417,338.56131L569.978271,338.46463L570.037109,338.423676L570.25,338.290833L570.302734,338.261078L570.543457,338.137207L570.612915,338.105865L570.848145,338.014313L570.910278,337.993195L571.135864,337.927887L571.208252,337.910919L571.424316,337.871552L571.507813,337.861328L571.714233,337.84787L571.801025,337.847229L571.887085,337.857147L571.971313,337.877014L572.052612,337.906464L572.130005,337.945496L572.202026,337.993195L572.228638,338.015594L572.393066,337.927246L572.446289,337.901337L572.645996,337.813965L572.702271,337.792175L572.90332,337.723389L572.986572,337.700012L573.062012,337.687836L573.347534,337.657135L573.43396,337.652954L573.520386,337.659027L573.605469,337.675354L573.68811,337.701599L573.766846,337.737152L573.841064,337.781952L573.909302,337.835083L573.985718,337.913177L574.044678,337.982941L574.096558,338.052094L574.149658,338.147766L574.191528,338.238342L574.200806,338.261719L577.3573,336.426147L577.434814,336.387115L577.516113,336.357666L577.60022,336.33783L577.686279,336.327911L577.773071,336.328552L577.858887,336.339111L577.942993,336.359894L578.024048,336.39032L578.10083,336.430328L578.172485,336.478973L578.237793,336.535614L578.296021,336.599945L578.346313,336.67038L578.382446,336.734711L578.396851,336.763824L578.399414,336.770233L578.927246,336.475128L579.637817,336.022247L580.299683,335.541504L580.916382,335.030029L581.278687,334.69812L581.602905,334.36911L581.895508,334.036896L582.145508,333.714905L582.358887,333.398041L582.538818,333.083405L582.684448,332.772308L582.794556,332.472412L582.885498,332.125153L582.934448,331.787476L582.94397,331.445648L582.91394,331.106689L582.843872,330.762634L582.730835,330.408325L582.573364,330.044739L582.373657,329.680176L582.207275,329.438202L582.030273,329.2388L581.840454,329.07431L581.640381,328.944366L581.420532,328.842255L581.177612,328.767365L580.906128,328.720947L580.630859,328.706238L578.706421,328.964203L576.850708,329.217041L576.726196,329.223114z"/>
</svg>
