<?xml version="1.0" encoding="UTF-8"?>
<svg xmlns="http://www.w3.org/2000/svg" xmlns:xlink="http://www.w3.org/1999/xlink" width="60.659mm" height="67.984mm" viewBox="-506.429962 310.101593 60.659058 67.983734">
    <path transform="matrix(-1,0,0,1,0,0)" style="stroke:none;fill:#000000;fill-rule:evenodd" d="M473.437836,310.10318L473.495453,310.110229L473.599762,310.126892L473.684296,310.145447L473.762054,310.172333L473.883026,310.221924L473.98288,310.272186L474.120209,310.354767L474.182281,310.396362L474.336212,310.511902L474.377838,310.545837L474.548126,310.694336L474.577545,310.721222L474.764496,310.903046L474.785309,310.924469L474.988556,311.138916L475.004547,311.155884L475.217072,311.394958L475.669647,311.85553L475.671844,311.854889L475.856842,311.778412L476.177887,311.631165L476.247345,311.603638L476.5466,311.501862L476.641632,311.476593L476.909882,311.424103L476.995636,311.412567L477.040802,311.410339L477.277618,311.407135L477.364044,311.411285L477.425812,311.420258L477.583893,311.450653L477.701691,311.483612L477.88797,311.55307L477.961578,311.585419L478.176971,311.693909L478.22757,311.721741L478.471161,311.869629L478.505402,311.891693L478.777435,312.078308L478.802399,312.096558L479.103241,312.322205L479.123138,312.337555L479.452118,312.602234L479.466827,312.61441L479.799103,312.896393L479.992706,313.032745L480.159821,313.111786L480.322357,313.154053L480.498749,313.165894L480.660065,313.147003L480.79129,313.103455L480.91452,313.030182L481.021393,312.933502L481.043793,312.900238L481.053436,312.872375L481.057281,312.819244L481.031036,312.647064L481.02298,312.560974L481.025543,312.474213L481.038055,312.388763L481.060455,312.305237L481.092804,312.224884L481.134369,312.148712L481.184296,312.078308L481.242584,312.013977L481.307831,311.957306L481.379547,311.908356L481.45639,311.868652L481.537323,311.837952L481.621185,311.817139L481.707306,311.806244L481.793732,311.805603L481.879791,311.815216L481.96402,311.835052L482.045624,311.864502L482.122772,311.903564L482.216827,311.968536L482.425507,312.137848L482.482819,312.189362L482.668121,312.375336L482.722565,312.436462L482.883514,312.638733L482.931854,312.707214L483.068512,312.926483L483.11557,313.014801L483.254181,313.32431L483.293549,313.435364L483.384125,313.775909L483.403961,313.881226L483.446198,314.252808L483.451019,314.346283L483.445221,314.74826L483.437592,314.843323L483.377045,315.258453L483.356293,315.355438L483.266632,315.666229L483.295135,315.687988L483.355621,315.740479L483.445221,315.833618L483.504486,315.906891L483.564972,315.993652L483.667999,316.16745L483.707672,316.244263L483.729767,316.300903L483.803375,316.513092L483.83316,316.627045L483.876984,316.877655L483.886932,316.967285L483.901337,317.255646L483.899445,317.357422L483.882111,317.550751L483.868378,317.640686L483.816193,317.881042L483.801178,317.938354L483.713776,318.22641L483.700348,318.266724L483.577118,318.601837L483.542572,318.681213L483.498688,318.755798L483.446503,318.824921L483.419952,318.852448L483.620636,319.245483L483.634735,319.274933L483.835724,319.715973L483.848846,319.74704L484.026459,320.190002L484.042511,320.233521L484.282196,320.96167L484.297272,321.014465L484.478729,321.745514L484.490265,321.800873L484.613129,322.534149L484.620514,322.591431L484.684845,323.327576L484.687714,323.385498L484.693512,324.124207L484.691559,324.182159L484.638763,324.923737L484.63266,324.980072L484.521271,325.724213L484.511078,325.77829L484.341095,326.525635L484.327362,326.576538L484.095306,327.337982L484.074799,327.396545L483.789642,328.109314L483.762726,328.169189L483.425385,328.833313L483.390839,328.893799L483.000702,329.508972L482.959076,329.567841L482.516083,330.134369L482.468414,330.189423L481.97934,330.700867L482.175873,330.816742L482.213654,330.840424L482.451447,331.000763L482.490204,331.028931L482.709442,331.198578L482.747528,331.230255L482.83902,331.311554L482.920013,331.300049L483.006744,331.298431L483.092865,331.306763L483.177338,331.325317L483.259308,331.353821L483.337067,331.391907L483.396576,331.429016L484.141083,331.946899L484.170197,331.968323L484.929718,332.554352L484.954987,332.57486L485.729218,333.229065L485.751007,333.247955L486.540253,333.970001L486.556915,333.985687L486.94516,334.363373L486.952179,334.349915L487.001495,334.27887L487.069672,334.203339L487.475189,333.812866L487.494049,333.795563L487.907867,333.423981L487.927094,333.407349L488.348602,333.054626L488.36911,333.037994L488.798615,332.704163L488.820404,332.687836L489.257904,332.372894L489.280304,332.357513L489.725861,332.061462L489.749542,332.046112L490.203094,331.769257L490.227081,331.755493L490.688629,331.497192L490.713898,331.483765L491.183075,331.244659L491.209015,331.231873L491.686554,331.011658L491.712494,331.000458L492.197723,330.799133L492.224274,330.788574L492.717804,330.60614L492.744659,330.596863L493.24588,330.433319L493.273407,330.424988L493.782684,330.28064L493.809235,330.27359L494.326141,330.147797L494.353668,330.141724L494.878876,330.035156L494.896454,330.031616L495.478363,329.928253L495.492096,329.925995L496.058929,329.836395L496.073334,329.834137L496.625153,329.758301L496.640839,329.756378L497.177277,329.694275L497.194183,329.692688L497.715607,329.644653L497.733185,329.643066L498.239227,329.608826L498.257782,329.607849L498.748749,329.587067L498.769562,329.586426L499.245148,329.579681L499.266937,329.579681L499.780304,329.587708L499.805939,329.588654L500.298492,329.613617L500.325043,329.61554L500.79715,329.65683L500.826263,329.660034L501.277924,329.717651L501.309906,329.722443L501.741058,329.797028L501.774017,329.803406L502.184662,329.894012L502.221466,329.902954L502.611603,330.010498L502.649689,330.022339L503.019379,330.14621L503.059723,330.160919L503.408905,330.301117L503.451447,330.320007L503.779816,330.476837L503.8237,330.499237L504.131927,330.672699L504.175751,330.699585L504.46347,330.889404L504.507965,330.921387L504.775238,331.127838L504.819061,331.164337L505.065521,331.387421L505.106171,331.427429L505.332489,331.66684L505.371185,331.710999L505.576996,331.967041L505.621185,332.028503L505.783112,332.279114L505.812897,332.329041L505.9534,332.589569L505.978973,332.642395L506.097748,332.912506L506.119171,332.966278L506.216461,333.245697L506.233124,333.301086L506.30899,333.590424L506.321136,333.645782L506.375214,333.945038L506.382904,333.998169L506.415558,334.306702L506.419403,334.359528L506.429962,334.677979L506.429962,334.726624L506.419098,335.05246L506.415558,335.102081L506.382599,335.426605L506.375885,335.476532L506.320526,335.7995L506.310883,335.846527L506.233734,336.168213L506.220978,336.2146L506.121429,336.535004L506.106049,336.579498L505.9841,336.898254L505.967133,336.938904L505.823456,337.256104L505.80423,337.295471L505.637787,337.611053L505.616669,337.648163L505.376007,338.046326L505.343048,338.095947L505.075775,338.466248L505.0383,338.513947L504.745148,338.856415L504.702911,338.901855L504.38382,339.216492L504.341888,339.254578L504.019562,339.526642L503.963226,339.569824L503.62973,339.799957L503.564728,339.839966L503.220062,340.028168L503.146759,340.063049L502.790497,340.209015L502.708588,340.237183L502.623749,340.255096L502.537689,340.263428L502.451263,340.261169L502.365448,340.248688L502.348541,340.244202L502.302765,340.275574L502.225922,340.315918L502.145294,340.346954L502.061432,340.368073L501.971466,340.379608L499.374786,340.548584L499.358795,340.628937L499.331573,340.711182L499.310455,340.759827L499.174774,341.041168L499.11557,341.142303L498.9133,341.431976L498.843475,341.517426L498.708771,341.65921L498.645721,341.718109L498.604095,341.750122L498.421661,341.880707L498.332977,341.93512L498.10257,342.05481L498.030548,342.087463L497.752411,342.195648L497.63559,342.230194L496.721466,342.420013L496.627716,342.433136L496.504791,342.442413L496.43631,342.444336L496.296417,342.441772L496.24588,342.439209L496.088715,342.425446L496.045807,342.420319L495.87204,342.394714L495.839996,342.389282L495.649261,342.352478L495.622406,342.34671L495.414337,342.29837L495.390961,342.292603L495.165985,342.232452L495.147736,342.227325L494.929413,342.162994L494.836639,342.369751L494.796295,342.446564L494.768158,342.490082L494.699005,342.588684L494.615448,342.687561L494.511139,342.79129L494.447418,342.847931L494.308502,342.957062L494.259857,342.991943L494.102386,343.095978L494.007355,343.164459L493.976288,343.185608L493.681183,343.375702L493.645966,343.39682L493.328156,343.577362L493.296478,343.594635L492.956268,343.766174L492.925201,343.780914L492.562225,343.943176L492.533783,343.955017L492.148407,344.108002L492.121185,344.118256L491.713104,344.261963L491.688507,344.269958L491.25766,344.404724L491.233978,344.411743L490.780792,344.536896L490.756134,344.543304L490.088165,344.703003L490.047211,344.71167L489.384674,344.830414L489.341766,344.836792L488.684662,344.914886L488.639557,344.918732L487.988251,344.955536L487.942474,344.956818L487.296539,344.952972L487.250153,344.95105L486.609711,344.906586L486.562653,344.901764L485.928314,344.816315L485.882538,344.808624L485.253632,344.682861L485.196625,344.668121L485.139984,345.538391L485.129425,345.624481L485.108612,345.708344L485.077911,345.789307L485.038177,345.866455L485.02121,345.891418L485.033417,345.957672L485.038849,346.044067L485.036591,346.103607L484.630768,351.387543L484.645782,351.401611L484.701202,351.467865L484.748566,351.540527L484.787262,351.617981L484.822784,351.723938L485.141876,352.978577L485.145416,352.993286L485.431549,354.224915L485.435089,354.240906L485.687592,355.449799L485.691132,355.466095L485.910675,356.651611L485.913605,356.669556L486.099518,357.832336L486.102081,357.85025L486.255096,358.990021L486.25766,359.009857L486.377045,360.126862L486.378937,360.147034L486.465363,361.241028L486.466034,361.253174L486.496429,361.743195L486.49704,361.749603L486.521393,362.205994L486.521698,362.213379L486.539948,362.636505L486.540253,362.645447L486.552399,363.034637L486.552399,363.04425L486.558807,363.400146L486.559113,363.412659L486.559479,363.734955L486.559113,363.750305L486.553375,364.039001L486.552765,364.058197L486.540924,364.313629L486.538971,364.344666L486.499908,364.783478L486.495758,364.819L486.438507,365.233154L486.432098,365.272217L486.356537,365.661407L486.346649,365.704926L486.252533,366.069489L486.239105,366.11557L486.127045,366.455475L486.10788,366.507324L485.976959,366.822601L485.951996,366.876038L485.802826,367.166656L485.770477,367.223328L485.602814,367.488983L485.535248,367.579865L485.035004,368.152466L484.958832,368.227692L484.739594,368.414917L484.696381,368.449158L484.459503,368.622314L484.41629,368.651428L484.162506,368.810516L484.117706,368.836426L483.845978,368.98111L483.802765,369.002228L483.514069,369.132507L483.472748,369.14978L483.166473,369.265961L483.126801,369.279724L482.802887,369.381836L482.764801,369.3927L482.423309,369.480408L482.374969,369.490967L481.915009,369.576416L481.864105,369.584106L481.419891,369.634674L481.363861,369.638824L480.936249,369.65451L480.875153,369.654205L480.463226,369.63501L480.39859,369.629242L480.003265,369.57547L479.934784,369.562653L479.555511,369.473694L479.486359,369.453827L479.123138,369.329987L479.054962,369.302765L478.72464,369.151703L478.497711,369.38855L478.455475,369.429199L478.173798,369.679474L478.128693,369.716614L477.825592,369.945465L477.779144,369.977478L477.454315,370.185516L477.406952,370.213684L477.060638,370.400269L476.976776,370.43869L475.914459,370.848694L475.824188,370.877167L475.217987,371.025024L475.159149,371.036865L474.542389,371.134491L474.482819,371.141205L473.855804,371.188599L473.797882,371.190826L473.160004,371.188263L473.103363,371.185699L472.454926,371.132904L472.401764,371.126801L471.742767,371.024384L471.692535,371.014801L471.022919,370.862122L470.976837,370.849945L470.296722,370.647369L470.253815,370.632965L469.295563,370.28186L469.250458,370.263611L468.314911,369.848785L468.271698,369.828003L467.358551,369.349182L467.317902,369.326141L466.892853,369.067535L466.845795,369.129944L466.785614,369.192017L466.718414,369.24707L466.637115,369.297974L466.070892,369.603638L466.056854,369.610992L465.498016,369.897125L465.48233,369.905121L464.930206,370.171417L464.914215,370.178772L464.368805,370.425568L464.351227,370.433228L463.812897,370.660156L463.794281,370.667847L463.263031,370.874939L463.2435,370.881958L462.718597,371.069519L462.69809,371.076569L462.180573,371.244263L462.158173,371.251312L461.647308,371.3992L461.624603,371.405273L461.120819,371.5336L461.096161,371.539368L460.599457,371.647888L460.574127,371.652985L460.084137,371.741974L460.05661,371.74646L459.573334,371.815277L459.545441,371.818787L459.069183,371.868073L459.04007,371.870331L458.570892,371.900085L458.540131,371.901367L458.077667,371.911285L458.034149,371.91098L457.281036,371.882477L457.223114,371.877991L456.497833,371.792542L456.437347,371.782959L455.739899,371.640839L455.677155,371.625153L455.007599,371.425751L454.957367,371.408783L454.572662,371.263153L454.535187,371.247803L454.162933,371.082977L454.125824,371.065033L453.766388,370.881012L453.729889,370.861176L453.38266,370.657593L453.347443,370.635529L453.012665,370.413086L452.978729,370.389069L452.656403,370.14743L452.623749,370.12149L452.313934,369.860321L452.283844,369.833435L451.986542,369.553375L451.960602,369.527771L451.673492,369.229156L451.646271,369.199066L451.375214,368.88382L451.349945,368.853088L451.094208,368.520844L451.070831,368.488861L450.83078,368.139343L450.809967,368.10733L450.585602,367.74118L450.567047,367.708862L450.358368,367.325745L450.34201,367.293732L450.149017,366.893982L450.134613,366.862274L449.957306,366.445251L449.947723,366.421875L449.662872,365.682526L449.6539,365.657562L449.373199,364.842377L449.36618,364.820618L449.089935,363.92923L449.084198,363.910339L448.812775,362.94278L448.808624,362.926453L448.541656,361.883057L448.538177,361.868652L448.275726,360.748749L448.272858,360.735962L448.015167,359.540192L448.012604,359.528992L447.75943,358.256744L447.757843,358.247467L447.513947,356.932953L447.512054,356.923035L447.282257,355.585175L447.280609,355.576202L447.064606,354.214966L447.063324,354.205688L446.861359,352.821106L446.860077,352.812775L446.671539,351.404816L446.670563,351.396179L446.496185,349.964844L446.495209,349.956848L446.334198,348.502167L446.333221,348.493835L446.18631,347.015778L446.185394,347.005554L446.088715,345.871887L446.088409,345.865173L446.004852,344.759979L446.004242,344.75293L445.933197,343.676575L445.932831,343.668579L445.874908,342.621002L445.874298,342.613007L445.829437,341.594238L445.829132,341.585907L445.796844,340.595947L445.796844,340.58667L445.777618,339.625519L445.777313,339.615936L445.770905,338.683594L445.770905,338.672058L445.777313,337.921509L445.777618,337.911896L445.793304,337.19754L445.79361,337.186005L445.819244,336.507477L445.819855,336.4953L445.854767,335.853271L445.855377,335.839813L445.899567,335.233612L445.900848,335.217926L445.95462,334.647583L445.956512,334.629974L446.019928,334.0961L446.022491,334.076599L446.095123,333.578888L446.098663,333.556793L446.180573,333.09494L446.185699,333.069031L446.277252,332.643341L446.284576,332.613251L446.385712,332.223724L446.395355,332.189178L446.505768,331.835815L446.519867,331.795807L446.639557,331.478638L446.659088,331.431274L446.788361,331.149933L446.816864,331.094543L446.95578,330.849701L446.995148,330.787628L447.143036,330.578918L447.186554,330.52356L447.403229,330.272644L447.444183,330.22879L447.66568,330.011139L447.716888,329.965363L447.943146,329.781342L448.00589,329.735565L448.23764,329.584808L448.311859,329.542572L448.548431,329.425415L448.633514,329.389893L448.875214,329.30603L448.969269,329.280121L449.2164,329.229858L449.313995,329.216736L449.565887,329.200104L449.648468,329.199463L449.957672,329.213867L450.083099,329.230499L450.348419,329.289703L450.439362,329.316284L450.70401,329.412628L450.783112,329.446869L451.047455,329.580017L451.115631,329.619049L451.379364,329.789642L451.435028,329.829651L451.698151,330.037079L451.743927,330.076111L452.006683,330.320953L452.043488,330.357758L452.305939,330.639435L452.336029,330.673676L452.59787,330.992462L452.621185,331.022858L452.978058,331.506805L453.004669,331.545197L453.352264,332.08548L453.373688,332.120667L453.711639,332.71759L453.728607,332.749603L454.048676,333.3862L454.129059,333.398376L454.212555,333.421112L454.292572,333.453735L454.368439,333.495667L454.438873,333.545929L454.502838,333.604492L454.559174,333.670105L454.607819,333.741791L454.647186,333.818939L454.682404,333.916229L455.063934,335.268494L455.810028,335.165436L455.843597,335.161591L456.068634,335.141113L456.130707,335.137909L456.341644,335.136627L456.411102,335.139526L456.608551,335.157135L456.68631,335.168335L456.870026,335.204803L456.952972,335.226563L457.122894,335.281616L457.211884,335.316833L457.368073,335.391083L457.454498,335.439423L457.596893,335.532562L457.6763,335.592712L457.805267,335.704742L457.867035,335.765228L457.907074,335.813263L458.747223,336.9133L458.765167,336.937622L458.904999,337.13736L458.965485,337.240723L459.075958,337.470856L459.115326,337.57135L459.196259,337.83316L459.217743,337.922455L459.229584,337.990631L459.265106,337.967926L459.342865,337.92984L459.424774,337.901337L459.509308,337.882782L459.595367,337.874146L459.681793,337.875732L459.74649,337.883728L460.019501,337.92984L460.04892,337.935577L460.35202,337.999603L460.376984,338.005035L460.710175,338.087616L460.730316,338.093079L461.093292,338.194214L461.109283,338.199005L461.501984,338.318054L461.516388,338.32254L461.938873,338.460175L461.950104,338.463684L462.402679,338.619263L462.412933,338.623077L462.895233,338.796875L462.906769,338.801056L463.164093,338.898651L463.155487,338.834656L463.15451,338.747925L463.163483,338.661804L463.182648,338.577637L463.211456,338.496033L463.239288,338.437439L463.407379,338.121552L463.420807,338.097229L463.631744,337.734589L463.642914,337.716339L463.896759,337.307953L463.905365,337.294495L464.201447,336.840332L464.21933,336.813782L464.896637,335.867981L464.917389,335.840454L465.651947,334.911316L465.673065,334.885712L466.464264,333.9729L466.486053,333.948883L467.334198,333.053009L467.376434,333.012054L468.12796,332.336395L468.163177,332.306641L468.463409,332.069153L468.483551,332.053772L468.733551,331.869751L468.766815,331.84671L468.966827,331.71579L469.028656,331.679321L469.17807,331.601227L469.257172,331.565674L469.339752,331.539764L469.424835,331.524078L469.511261,331.518005L469.597687,331.522491L469.621368,331.526306L469.658539,331.488556L469.726044,331.434143L469.793243,331.391266L469.920624,331.319885L469.946869,331.306122L470.122589,331.216827L470.138275,331.208832L470.362335,331.101593L470.373199,331.096466L470.645599,330.971649L470.652618,330.968445L470.973663,330.825378L470.979706,330.822815L471.349091,330.66214L471.355194,330.659576L472.239166,330.284485L472.308624,330.259827L472.164581,330.149414L472.129425,330.120605L471.665924,329.717957L471.634918,329.689484L471.183319,329.249084L471.154816,329.219299L470.715973,328.740479L470.69101,328.712311L470.537384,328.526367L470.253815,328.544281L470.139557,328.542694L469.854401,328.516113L469.730865,328.493713L469.462616,328.421051L469.342316,328.376892L469.091034,328.258789L468.981903,328.19574L468.747955,328.031555L468.660248,327.958893L468.442902,327.749237L468.37442,327.673401L468.174347,327.417664L468.126068,327.348206L467.954498,327.0672L467.904572,326.969269L467.788361,326.692719L467.759552,326.610779L467.748688,326.568542L467.687897,326.296173L467.674103,326.210693L467.670624,326.151184L467.665131,325.882965L467.668365,325.796539L467.677643,325.732208L467.72757,325.46817L467.748688,325.383972L467.768219,325.329895L467.873199,325.070007L467.931793,324.955109L467.973724,324.888214L467.940094,324.836365L467.880585,324.733307L467.841827,324.655853L467.812408,324.574554L467.81015,324.564301L467.777191,324.527496L467.72757,324.456451L467.697479,324.402344L467.565277,324.138611L467.531036,324.058929L467.506378,323.976013L467.502594,323.953949L467.487213,323.934418L467.442047,323.860809L467.405914,323.782074L467.378998,323.699799L467.368805,323.645721L467.352753,323.637726L467.280426,323.590363L467.214203,323.534668L467.154999,323.471283L467.103424,323.40152L467.068878,323.342621L466.867584,322.958221L466.850922,322.924286L466.658234,322.505005L466.644806,322.473328L466.461395,322.019165L466.450531,321.990662L466.276398,321.501617L466.265839,321.469299L466.115753,320.976715L466.105499,320.940857L465.987396,320.468445L465.978729,320.428436L465.892303,319.976196L465.884979,319.930115L465.830536,319.498016L465.82608,319.446808L465.803375,319.034576L465.802399,318.976959L465.811676,318.585205L465.815826,318.522797L465.856476,318.151184L465.86734,318.082062L465.940338,317.730621L465.955048,317.671417L466.067413,317.292145L466.078583,317.258209L466.209198,316.88501L466.221649,316.851746L466.370819,316.483673L466.384918,316.451019L466.552948,316.088379L466.572784,316.049011L466.812164,315.604431L466.849945,315.541718L467.097015,315.175873L467.155609,315.100342L467.40976,314.813232L467.501617,314.725861L467.66098,314.598816L468.301117,313.537476L468.44101,313.299652L468.470734,313.25293L468.623749,313.032745L468.660553,312.984406L468.822479,312.788208L468.867645,312.738586L469.038239,312.566711L469.092987,312.516785L469.272491,312.369232L469.336212,312.322205L469.524384,312.198975L469.597382,312.157043L469.794525,312.058136L469.87326,312.0242L470.079071,311.949646L470.094757,311.944183L470.3367,311.862579L470.593719,311.759827L470.895538,311.62381L471.174957,311.486816L471.482208,311.246765L471.78183,310.923187L471.840729,310.866547L472.138702,310.609222L472.212311,310.553192L472.488495,310.369812L472.563385,310.326263L472.603119,310.307709L472.857208,310.197937L472.938812,310.168152L473.032928,310.146729L473.264984,310.109924L473.35141,310.101593L473.437836,310.10318zM470.252899,363.287811L470.316559,363.415527L470.333527,363.441437L470.390472,363.458405L470.51181,363.485931L470.595367,363.499695L470.268219,363.197571L470.246124,363.176117L470.179901,363.109558L470.252899,363.287811zM482.93454,316.366577C482.777344,316.142548,482.609344,316.142548,482.432312,316.366577C482.266083,316.581543,482.05835,316.747742,481.812653,316.865173C482.177582,317.296967,482.535278,317.790161,482.889374,318.348389C483.07724,317.869629,483.169373,317.517365,483.169373,317.291534C483.169373,316.881439,483.091705,316.57251,482.93454,316.366577zM455.319153,341.481659L454.582062,341.349762L453.756439,341.17453L453.387909,341.085999L453.816071,341.687592C454.081635,341.962189,454.361664,342.157318,454.656128,342.274719L454.656128,342.260284L455.436584,342.274719C455.712982,342.225952,455.909882,342.142853,456.027313,342.025421L456.101379,341.850189C456.081512,341.732758,456.012878,341.647858,455.893646,341.59906L455.319153,341.481659zM456.572906,343.786835L456.381409,343.125641L456.218811,342.950409L456.173645,342.598114C455.467285,342.84201,454.901825,342.916077,454.479065,342.818512L454.890991,344.256561L456.572906,343.786835zM453.976868,334.11441L453.904602,334.143311C453.431274,334.387207,452.905548,334.56424,452.325623,334.670837L452.782715,336.271454L453.579407,336.329285C453.53064,336.036621,453.579407,335.825256,453.727539,335.698792C453.844971,335.590393,454.056335,335.518127,454.361664,335.478394L453.976868,334.11441zM453.550507,339.281219C453.393311,339.270386,453.196411,339.167419,452.959747,338.97229L452.753784,338.825958C452.753784,339.109619,452.827881,339.398651,452.974182,339.691315C453.230743,340.189941,453.55954,340.538605,453.962402,340.733734L454.656128,340.910767C455.068024,340.928833,455.402252,340.865601,455.658783,340.719269C455.884613,340.601837,455.996613,340.450073,455.996613,340.264008C456.007446,340.038177,455.947815,339.886444,455.821381,339.808746L455.17099,339.70578L454.80246,339.67688L454.419464,339.588348C454.164734,339.550415,453.873871,339.447449,453.550507,339.281219zM498.252533,338.883789C498.035736,339.060822,497.93277,339.22702,497.943604,339.384216C497.952637,339.568481,498.07547,339.736481,498.312134,339.882813L501.923492,339.64798C501.843994,339.246918,501.834961,338.869324,501.894592,338.517059L498.252533,338.883789zM455.14209,337.666138L454.921692,337.680603C454.450165,337.651703,454.130402,337.557739,453.962402,337.402374C453.854004,337.30304,453.70224,337.21991,453.505341,337.151276L452.916382,337.064545C452.739349,337.064545,452.605652,337.10791,452.518951,337.196442L452.562286,337.489105L452.901947,338.164764C453.088013,338.448395,453.293976,338.65976,453.519775,338.795258L453.536041,338.766357L453.830505,338.912689L454.479065,339.147552C454.881958,339.236053,455.241455,339.187286,455.555786,339.001221C455.870148,338.795258,456.012878,338.542328,455.982147,338.238831C455.96228,338.003967,455.682251,337.812469,455.14209,337.666138zM498.355499,337.460205L497.486542,337.503571C497.101746,337.572205,496.801849,337.705902,496.586853,337.901001L496.572418,337.901001C496.473053,337.940735,496.395355,337.940735,496.335754,337.901001L496.261658,337.769135L496.261658,337.666138C496.330322,337.499939,496.52182,337.342773,496.836151,337.196442L497.05838,337.064545C496.753052,336.956146,496.453156,336.907379,496.158691,336.916412C495.775696,336.927246,495.461365,336.990479,495.215668,337.10791L494.610474,337.534271L494.37561,337.577637L494.301544,337.41684L494.315979,337.254242L494.344879,337.225342L494.37561,337.181976C494.493042,336.976044,494.610474,336.818848,494.727875,336.71228C494.296112,336.71228,493.86795,336.844147,493.445221,337.10791C493.878784,337.371674,494.321411,337.8414,494.773041,338.517059C495.293335,339.319153,495.407166,340.29834,495.112701,341.452728C495.781128,341.658691,496.26709,341.741791,496.572418,341.702057L497.486542,341.51236C497.889404,341.375061,498.164001,341.208862,498.312134,341.011932C498.46933,340.816833,498.581329,340.625336,498.649963,340.44104L498.192902,340.469971L498.118835,340.44104C497.835205,340.303741,497.62384,340.106842,497.486542,339.853912C497.39801,340.020111,497.31311,340.106842,497.235413,340.117676L497.101746,340.058044C497.033081,339.96051,497.063782,339.779846,497.190247,339.516083L497.36731,339.207153C497.407043,338.981323,497.520874,338.77179,497.70694,338.57666L498.015869,338.341797L498.061035,338.311096L498.398865,338.282196L498.592163,337.958801C498.66983,337.792603,498.684296,337.655304,498.635529,337.548706C498.595764,337.508972,498.503632,337.480072,498.355499,337.460205zM455.541351,337.342773C456.090546,337.537872,456.38501,337.823334,456.424774,338.193665L456.395874,338.545959C456.533173,339.250519,456.787903,339.656982,457.161865,339.765381L457.1763,340.161041L456.910736,340.07251L456.366943,339.808746C456.415741,339.937012,456.439209,340.088776,456.439209,340.264008C456.419342,340.518738,456.327209,340.728302,456.15921,340.894501L456.085144,341.071564L456.15921,341.23233C456.375977,341.349762,456.504242,341.535828,456.542206,341.790558L456.542206,341.93689L457.161865,341.819489C457.830292,341.45816,458.312653,341.066132,458.607117,340.645203C458.852814,339.90271,458.858215,339.349884,458.621582,338.986755L458.547485,338.341797C458.498718,337.929901,458.370453,337.602905,458.16449,337.357208L457.324432,336.257019C456.999268,335.933624,456.52774,335.810791,455.909882,335.890289L454.538696,336.079956C454.3508,336.128754,454.253265,336.242554,454.242432,336.417786C454.213501,336.681549,454.336365,336.921844,454.610962,337.13681C454.94519,337.167542,455.25592,337.236176,455.541351,337.342773zM462.85257,359.639587L462.249176,359.962952C461.246521,360.461578,460.469696,361.406433,459.918701,362.795685C459.564606,363.677307,459.37854,364.851563,459.358643,366.318512C459.349609,366.817139,459.423706,367.13147,459.580872,367.257935C459.74707,367.395233,460.052368,367.355499,460.494995,367.140503C461.172455,366.808105,461.934845,366.240845,462.780334,365.438721C462.621338,364.548065,462.552673,363.662842,462.572571,362.781219C462.583405,362.007996,462.823669,361.214935,463.295197,360.403778C463.649292,359.81662,464.174988,359.140961,464.872345,358.37677L462.883301,358.31897C462.755035,358.367737,462.700836,358.411102,462.720703,358.450867L462.971802,358.627899C463.138031,358.794098,463.217499,358.945862,463.206665,359.08316C463.186798,359.298157,463.069366,359.484222,462.85257,359.639587zM504.989258,337.268707C505.462585,336.42865,505.697449,335.572327,505.697449,334.701538C505.697449,333.839813,505.466187,333.081055,505.005524,332.425262C503.963135,331.016113,502.046356,330.311554,499.255188,330.311554C498.006836,330.311554,496.595886,330.457886,495.02417,330.75235C492.202301,331.270844,489.720032,332.596893,487.577454,334.730469L488.182648,335.375397C490.187958,333.370087,492.522064,332.118134,495.184937,331.617706C496.71875,331.334076,498.070068,331.193176,499.240723,331.193176C501.74646,331.193176,503.426575,331.774902,504.282898,332.940125C504.694794,333.507385,504.871826,334.172211,504.814026,334.936401C504.763428,335.590393,504.568329,336.222687,504.223267,336.829712C503.760803,337.651703,503.180878,338.238831,502.483551,338.591125C502.42392,338.883789,502.434753,339.19812,502.512451,339.530548C502.994812,339.364319,503.446442,339.08432,503.869171,338.694092C504.311798,338.29303,504.68576,337.817902,504.989258,337.268707zM452.547852,334.011444L453.402344,333.731415C452.970581,332.822693,452.513519,332.063934,452.031158,331.45694C451.333832,330.557251,450.631073,330.053223,449.922882,329.944824L449.613953,329.930359C448.934692,329.930359,448.311401,330.288086,447.74054,331.001678C446.925781,332.018768,446.512054,334.578705,446.503021,338.677826C446.503021,341.125763,446.64032,343.880798,446.914917,346.942932C447.288879,350.915619,447.809174,354.638977,448.477631,358.113037C449.146057,361.606964,449.865082,364.287903,450.631073,366.157715C451.082703,367.292267,451.702362,368.246124,452.48822,369.019348C453.265045,369.792572,454.173767,370.359833,455.216156,370.722961C456.090546,371.026459,457.039001,371.178223,458.061523,371.178223C460.50946,371.178223,463.251831,370.336334,466.288696,368.652618L465.492004,368.079926C462.729736,369.557709,460.258331,370.2966,458.075989,370.2966C457.132935,370.2966,456.278442,370.159302,455.51062,369.886505C453.642639,369.25058,452.287689,367.899261,451.44223,365.834351C449.771118,361.695465,448.551697,355.314636,447.785706,346.693634C447.46051,342.92511,447.343079,339.685913,447.43161,336.976044C447.529175,334.060211,447.863373,332.250031,448.434265,331.545441C448.837128,331.055878,449.234589,330.810181,449.628418,330.810181L449.791016,330.826447C450.271545,330.89328,450.788239,331.29071,451.339233,332.015167C451.761993,332.553528,452.164856,333.218353,452.547852,334.011444zM468.21994,315.089325C467.865845,315.315125,467.531616,315.750519,467.217285,316.395477C466.980621,316.876007,466.794556,317.369202,466.657227,317.878662C466.420593,318.789185,466.52356,319.914673,466.966156,321.255157C467.191986,321.930847,467.443115,322.512543,467.717712,323.002136C467.757446,322.151245,468.028442,321.396088,468.52887,320.742096L469.088898,320.066437L469.517059,319.640076C469.182831,319.464844,468.877533,319.253479,468.602936,319.009583C468.259674,318.686218,468.082642,318.388123,468.071777,318.113525C468.071777,317.672729,468.174774,317.296967,468.382507,316.982605C468.677002,316.54361,469.143097,316.31778,469.782623,316.308746C469.979553,316.308746,470.357117,316.381012,470.917145,316.529144L471.862,316.63031L472.790588,315.369324C473.321716,314.625031,473.778778,314.307068,474.161774,314.415466L475.238495,314.854462L476.004486,315.177826L476.535614,315.163391L476.904175,314.899628L477.507568,314.532898L478.33316,314.619598C478.540924,314.699097,478.913086,314.982727,479.455048,315.472321L480.295105,316.23468C480.658234,316.449677,480.997864,316.563477,481.312225,316.57251C481.686188,316.581543,481.97522,316.449677,482.181183,316.17688C482.486511,315.793884,482.663544,315.315125,482.712311,314.73703C482.752075,314.180603,482.663544,313.705475,482.446747,313.313446C482.280548,313.009949,482.049316,312.751587,481.754822,312.536621C481.843353,312.888885,481.783752,313.181549,481.577789,313.416412C481.292358,313.728943,480.938263,313.891541,480.515503,313.900574C480.092773,313.911407,479.704376,313.768707,479.350281,313.476044C478.358459,312.614288,477.670166,312.16806,477.28717,312.13916C476.992676,312.11026,476.613312,312.213226,476.152618,312.44809C475.778656,312.634155,475.493225,312.657654,475.296295,312.520355L474.676636,311.889862C474.067841,311.185303,473.636047,310.833008,473.379517,310.833008C473.085052,310.833008,472.730957,311.028107,472.319061,311.420135L471.979431,311.786896L471.565735,312.11026C471.065308,312.36499,470.653381,312.540222,470.328217,312.637787C469.768158,312.803986,469.300262,313.230347,468.928101,313.915039L468.21994,315.089325zM495.329498,332.337036L494.390778,332.549561L493.494904,332.825775L492.62149,333.170502L491.787384,333.577301L490.970551,334.056732L490.190582,334.597961L489.431732,335.212158L488.683075,335.911499L488.616486,335.966553L488.543854,336.013611L488.467377,336.051056L488.661957,336.302643L488.678925,336.325684L488.920258,336.663971L488.938202,336.690216L489.151337,337.01828L489.181427,337.068542L489.316498,337.317871L489.34079,337.367157L489.465668,337.64563L489.483551,337.689789L489.598175,337.998016L489.611603,338.037048L489.631744,338.102356L489.645172,338.085693L489.70694,338.025208L489.775482,337.972412L489.849701,337.927582L489.928741,337.892395L490.011322,337.866455L490.096466,337.850464L490.182892,337.844696L490.28244,337.850769L490.593536,337.891113L490.851532,337.90744L491.090607,337.904541L491.298309,337.884369L491.480743,337.848541L491.636627,337.799561L491.770721,337.739716L491.856171,337.687531L492.471344,337.073975L492.53598,337.016693L492.607391,336.967407L492.683868,336.926758L492.743744,336.903381L492.759064,336.852814L492.793976,336.773773L492.838165,336.699188L492.890656,336.630371L492.951141,336.568268L493.018341,336.51355L493.09549,336.46521L493.413605,336.292053L493.499725,336.252045L493.819489,336.12851L493.918671,336.098114L494.240326,336.023865L494.349518,336.007202L494.672455,335.982574L494.75882,335.980957L494.84494,335.989929L494.929413,336.008484L495.011383,336.037292L495.089142,336.075378L495.161835,336.122437L495.228363,336.177795L495.287933,336.24054L495.329193,336.295898L495.452118,336.263885L495.526031,336.248535L495.77475,336.210785L495.837128,336.204041L496.11142,336.186127L496.172882,336.184845L496.394684,336.188995L496.465118,336.193481L496.689178,336.219421L496.757355,336.230621L496.982941,336.278625L497.045685,336.294952L497.273895,336.365051L497.354889,336.395447L497.432037,336.434814L497.503693,336.483459L497.569305,336.539795L497.627899,336.603821L497.678131,336.674225L497.720062,336.750092L497.723602,336.759033L498.319244,336.729279L498.405975,336.730225L498.475128,336.73822L498.575897,336.754883L498.635468,336.767365L498.715485,336.787537L498.810516,336.818237L498.870087,336.842255L498.948151,336.879395L499.013458,336.919708L499.053131,336.947235L499.121307,337.000702L499.18277,337.061829L499.236542,337.129669L499.281647,337.203613L499.317841,337.282349L499.339264,337.344421L499.364227,337.430206L499.383453,337.514709L499.393341,337.627686L499.394318,337.72467L499.389862,337.811401L499.378632,337.882782L499.355927,337.990967L499.341522,338.038666L501.821686,337.789001L501.908112,337.785492L501.994537,337.79187L502.079315,337.808838L502.161591,337.835419L502.240326,337.871582L502.255035,337.880554L502.353302,337.8255L502.552704,337.691071L502.738983,337.542236L502.920135,337.372284L503.098419,337.177673L503.265167,336.967407L503.427765,336.731842L503.582977,336.474182L503.783051,336.075378L503.928986,335.68396L504.028534,335.286438L504.083893,334.871307L504.091888,334.656555L504.082916,334.443054L504.057037,334.239807L504.016693,334.054169L503.958099,333.869812L503.887054,333.701477L503.796478,333.533112L503.690887,333.372772L503.562164,333.213043L503.413055,333.057495L503.252716,332.91571L503.072479,332.781281L502.868317,332.651672L502.645538,332.532288L502.405487,332.423126L502.140472,332.322632L501.851776,332.23175L501.551239,332.154297L501.215179,332.085144L500.864349,332.028809L500.486359,331.983704L500.09494,331.951996L499.687836,331.933441L499.240692,331.926727L498.81308,331.933136L498.360504,331.952332L497.913422,331.983063L497.431671,332.027863L496.925018,332.086761L496.401093,332.158447L495.874908,332.240692L495.329498,332.337036zM492.988159,337.592072L492.310669,338.267731C491.810272,338.620026,491.102081,338.722992,490.187958,338.57666C490.148193,339.05542,489.862762,339.608215,489.331635,340.235107C489.174469,338.981323,488.910706,338.041931,488.536743,337.41684C488.005615,336.555115,487.174561,335.586761,486.045471,334.51004C484.983185,333.501984,483.960663,332.674561,482.977875,332.029602L482.609344,332.322266L482.343781,332.571594C482.078217,332.885925,481.566956,333.174988,480.809998,333.438751L480.766632,333.467651L480.634766,333.511017L480.529968,333.659149L480.560669,333.879547C480.687134,334.231842,480.875031,334.930969,481.120728,335.97699C481.435059,337.308441,481.655457,338.493561,481.783752,339.530548C481.912018,340.547638,481.986084,341.819489,482.00415,343.346039C482.014984,344.256561,482.009552,345.020752,481.989685,345.63678L481.97522,345.69458L481.97522,346.00351L484.408691,345.490448L484.880219,338.224396L485.100616,338.267731L485.234314,340.146576C485.331848,341.624359,485.386047,342.89621,485.396912,343.963898C487.066162,344.354095,488.796875,344.31076,490.585388,343.8302C491.824707,343.508636,492.82193,343.087708,493.578888,342.569214L493.681885,342.495148C493.936615,342.337952,494.099182,342.197052,494.167847,342.068787C494.364777,341.667725,494.502075,341.252197,494.581543,340.822235C494.727875,340.068909,494.635742,339.442017,494.301544,338.94339C493.770386,338.130432,493.333191,337.680603,492.988159,337.592072zM458.13559,342.437317C457.613495,342.720947,457.367798,342.890778,457.398499,342.950409C457.604462,343.439972,458.301819,344.016266,459.49234,344.682892C461.260986,345.671112,463.226532,345.960144,465.389008,345.548248C465.871368,345.459747,466.789124,345.098419,468.145874,344.462494L470.033752,343.537537L470.711212,344.007263L469.988586,344.505859L468.351807,345.519348L468.396973,345.989075L471.61087,346.384705C473.213318,346.51297,474.327972,346.54187,474.958466,346.473236L475.119263,346.39917L475.207794,346.281738C475.256561,345.656647,475.276428,344.531158,475.267395,342.907043C475.247528,341.23233,475.198761,339.994843,475.119263,339.192719C474.953064,337.606537,474.730835,336.20282,474.456238,334.979767C474.407471,334.764771,474.338806,334.613037,474.250305,334.524506C474.161774,334.435974,474.024475,334.383606,473.836578,334.363708C473.424683,334.314941,472.810455,334.128876,471.993866,333.805481C470.882843,333.355652,470.05722,332.837158,469.517059,332.250031C469.350861,332.318665,469.050964,332.528229,468.617371,332.880524L467.865845,333.556183C466.696991,334.739502,465.679871,335.967957,464.814514,337.239807C464.391785,337.875702,464.081055,338.390594,463.885956,338.780823C464.091888,338.860291,464.312286,339.012054,464.54895,339.236053C465.011444,339.67688,465.295074,340.254974,465.403473,340.968567C465.118042,340.547638,464.200287,340.054443,462.646637,339.485382C461.320587,338.997589,460.312531,338.703125,459.624207,338.60556C459.584473,338.614594,459.595306,338.863922,459.653137,339.353485C459.683838,339.971344,459.598938,340.52417,459.403809,341.011932C459.177979,341.609924,458.755249,342.085052,458.13559,342.437317zM478.997986,333.364685C478.349426,333.814514,477.612335,334.040344,476.784912,334.040344C474.869965,334.031311,473.448181,333.003357,472.525024,330.958313C471.217041,331.505707,470.425781,331.863403,470.151154,332.029602C470.633514,332.508362,471.330872,332.943756,472.244995,333.335785C472.973053,333.639282,473.516815,333.805481,473.881744,333.834381C474.196106,333.874146,474.441803,333.977112,474.618835,334.143311C474.785034,334.298676,474.904266,334.544373,474.972931,334.876801C475.296295,336.462952,475.518524,337.886536,475.635956,339.147552C475.724457,339.96051,475.773254,341.212463,475.784088,342.907043C475.802155,344.551025,475.784088,345.690979,475.724457,346.326904C475.70459,346.482269,475.625092,346.630402,475.487793,346.7659C475.341461,346.903198,475.184296,346.982697,475.016296,347.000763L471.565735,346.899567L468.440338,346.531036C468.519836,348.077454,468.505371,349.678101,468.396973,351.331116C469.330994,351.732178,470.494415,352.089874,471.8909,352.404236C473.345215,352.736633,474.627869,352.922729,475.738922,352.960663C476.839111,353.000397,478.53009,352.760132,480.809998,352.241638L483.892029,351.434082L484.305725,346.046875C484.000427,346.164307,483.248871,346.321472,482.049316,346.516602C481.852386,346.547302,481.706055,346.51297,481.606689,346.413605C481.518158,346.346771,481.469391,346.243805,481.460358,346.106506L481.460358,345.60788L481.489258,343.360474C481.469391,341.873657,481.395325,340.616302,481.267059,339.588348C481.129761,338.542328,480.903931,337.353607,480.5896,336.022156C480.352936,335.014099,480.177673,334.352875,480.058441,334.040344C479.980774,333.834381,479.980774,333.63385,480.058441,333.438751C480.127106,333.241821,480.249939,333.106354,480.427002,333.026855L480.6185,332.95459L480.634766,332.95459L481.532623,332.542694C482.014984,332.287964,482.323914,332.092834,482.461212,331.955536C482.206482,331.71167,481.901154,331.491241,481.547089,331.296143L481.120728,331.061279L481.106262,331.061279L480.398102,331.48584C480.141541,332.278931,479.675446,332.905823,478.997986,333.364685zM475.990021,315.647552C475.753357,315.638519,475.433594,315.559021,475.030731,315.412689C474.647736,315.275391,474.239441,315.304291,473.807678,315.501221C473.345215,315.716187,472.953186,316.077515,472.627991,316.586975C472.479858,316.821808,472.25946,316.959137,471.964966,316.998871L471.21344,316.924805L469.88559,316.850739C469.334595,316.861572,468.996765,317.184937,468.8685,317.820862C468.720337,318.49472,469.088898,318.995148,469.974121,319.316711L470.122253,319.419678C470.199951,319.508209,470.180084,319.596741,470.062653,319.683441C469.46286,320.192902,469.054565,320.590363,468.8396,320.873993C468.180176,321.724884,467.929077,322.604675,468.088043,323.515198C468.283173,322.752838,468.574036,322.057281,468.957031,321.43042C469.439362,320.72583,469.77359,320.324768,469.959656,320.227234L470.25415,320.241669C470.313751,320.310333,470.299316,320.389832,470.210785,320.476532L469.88559,320.814362L469.251495,321.636353C468.888367,322.106079,468.543304,322.830505,468.21994,323.809662L468.351807,324.073425C468.597504,323.320099,468.8974,322.698639,469.251495,322.209045C469.556793,321.807983,469.842224,321.524353,470.107819,321.358154C470.214386,321.298523,470.288452,321.329254,470.328217,321.446655C470.36795,321.57312,470.319183,321.690552,470.180084,321.79895L469.545959,322.443909C469.350861,322.707672,469.143097,323.059937,468.928101,323.500763L468.514404,324.366089L468.574036,324.469086L468.825134,324.499786C468.9823,324.557587,469.016632,324.669617,468.928101,324.835815C468.279541,325.502441,468.21994,326.210632,468.751068,326.965759C469.262329,327.708282,469.954254,327.963013,470.828644,327.728149C471.950531,329.157166,473.202484,330.179688,474.588135,330.795715C474.972931,330.961914,474.953064,331.061279,474.530304,331.09021C474.127441,331.11911,473.655945,331.001678,473.113953,330.737915C473.478882,331.921234,474.441803,332.708893,476.004486,333.100922L477.641235,333.189453C478.112762,333.081055,478.363892,332.855225,478.392792,332.513794C478.255493,332.571594,477.930298,332.567993,477.419037,332.499329C476.907776,332.430664,476.658478,332.352997,476.667511,332.264465L477.596069,332.175964C478.432526,332.067566,479.332214,331.706238,480.295105,331.09021C481.966187,330.033356,483.07724,328.458008,483.626465,326.362366C484.157593,324.366089,484.063629,322.400543,483.346436,320.462097C482.903809,319.278778,482.211884,318.113525,481.267059,316.96814C480.884064,316.96814,480.472168,316.830841,480.029541,316.558075L479.158783,315.779419C478.629456,315.280823,478.284393,315.002594,478.127228,314.942993C477.921265,314.874329,477.661133,314.928528,477.346771,315.10376L476.873444,315.427155C476.60968,315.604187,476.313416,315.676453,475.990021,315.647552zM470.371582,323.632629C470.470947,323.563965,470.548615,323.57843,470.608215,323.677795C470.67688,323.764526,470.671448,323.843994,470.593781,323.912659L470.431183,324.102356C470.313751,324.259521,470.259552,324.382355,470.268585,324.469086C470.279419,324.577484,470.22522,324.635284,470.107819,324.646118C469.988586,324.655151,469.925354,324.586517,469.91449,324.440186C469.905457,324.313721,469.954254,324.156525,470.062653,323.970459L470.371582,323.632629zM470.476349,322.56134C470.545013,322.649841,470.519714,322.747406,470.402283,322.855804L470.357117,322.89917L469.900055,323.3255L469.517059,323.896393C469.379761,324.122223,469.291229,324.181824,469.251495,324.073425C469.222595,324.004791,469.251495,323.867493,469.340027,323.66153L469.620026,323.119568C469.788055,322.864838,469.99942,322.658875,470.25415,322.50351C470.333618,322.452942,470.405884,322.472809,470.476349,322.56134zM479.409882,328.197845L480.398102,328.15451C480.486603,328.143677,480.5354,328.158112,480.546234,328.197845L480.457703,328.315277L480.000641,328.653107C479.763977,328.799438,479.474915,328.844604,479.129883,328.785004C478.913086,328.756104,478.806488,328.647705,478.806488,328.461609L478.909454,328.271942C478.978119,328.212311,479.055786,328.183411,479.144318,328.183411L479.409882,328.197845zM479.558044,317.629364L479.558044,317.3349C479.558044,317.237335,479.592346,317.16507,479.661011,317.116302C479.720612,317.076538,479.798309,317.076538,479.895874,317.116302L481.120728,317.643829C481.209259,317.683563,481.248993,317.721497,481.238159,317.76123C481.238159,317.790161,481.189362,317.810028,481.089996,317.820862L479.912109,317.952728L479.661011,317.878662C479.592346,317.820862,479.558044,317.737762,479.558044,317.629364zM473.30545,319.331177L472.90802,319.596741C472.810455,319.361877,472.927887,318.984314,473.262085,318.46582L473.807678,317.76123C473.86731,317.712463,473.935944,317.692596,474.013641,317.70343C474.09314,317.70343,474.156342,317.737762,474.205139,317.804596L474.456238,318.039459C474.613434,318.216492,474.676636,318.333923,474.647736,318.391754L473.881744,318.877716L473.30545,319.331177zM475.164429,321.945282C475.095764,322.151245,474.987366,322.268677,474.839233,322.297577C474.692902,322.326477,474.550201,322.252411,474.412903,322.077179C474.273773,321.91095,474.181641,321.690552,474.132874,321.415955C474.082275,321.143158,474.087708,320.902893,474.147308,320.69693C474.215973,320.481964,474.324371,320.3591,474.470703,320.3302C474.618835,320.310333,474.761566,320.389832,474.898865,320.565063C475.045197,320.731262,475.144562,320.95166,475.193329,321.226257C475.242096,321.490021,475.233063,321.730286,475.164429,321.945282zM480.781097,319.347412C480.92923,319.327545,481.07193,319.399811,481.209259,319.56601C481.355591,319.743073,481.454926,319.96347,481.503723,320.227234C481.55249,320.501831,481.543457,320.742096,481.474823,320.946259C481.406158,321.161224,481.29776,321.284088,481.149628,321.312988C481.012329,321.343689,480.869598,321.269623,480.721466,321.094391C480.584167,320.926361,480.492035,320.707764,480.441437,320.433167C480.39267,320.158569,480.398102,319.918304,480.457703,319.714172C480.526367,319.499176,480.634766,319.376312,480.781097,319.347412zM477.626801,319.889404C477.724365,319.860504,477.827332,319.923706,477.93573,320.080902L478.701721,321.152191L480.089172,322.50351L480.206604,322.707672C480.226471,322.805206,480.215637,322.888306,480.177673,322.95697L479.675446,324.013824C479.527313,324.259521,479.301483,324.328156,478.997986,324.219757L478.820953,324.116791L478.835388,323.927094L479.26355,323.134003C479.350281,322.95697,479.335815,322.790771,479.218384,322.635406L478.421692,321.578552C478.107361,321.14679,477.838165,320.687897,477.612335,320.198334L477.567169,319.992371C477.567169,319.93457,477.587036,319.900238,477.626801,319.889404zM481.017761,325.482574L481.960785,325.15918L482.152283,325.027313C482.192017,324.949615,482.20105,324.870148,482.181183,324.79245L482.137817,324.586517L482.166748,324.440186C482.197449,324.420288,482.240814,324.440186,482.300415,324.499786L482.948975,325.070679L483.066406,325.276611C483.086273,325.374176,483.07724,325.457275,483.037506,325.52594L482.565979,326.582764L482.477478,326.68576L482.417847,326.568329L482.403381,326.421997L482.28598,326.244934C482.226349,326.216034,482.163116,326.216034,482.092651,326.244934L481.252594,326.935059C480.575134,327.404785,479.935608,327.688416,479.335815,327.787781C478.736023,327.885315,477.90683,327.728149,476.844543,327.318054C476.313416,327.112091,475.841888,326.897125,475.429993,326.671295L475.178894,326.714661L475.016296,326.877258L475.104797,327.536652C475.016296,327.704651,474.94223,327.699249,474.884399,327.522186L474.412903,326.2612C474.342438,326.075134,474.387604,325.917938,474.544769,325.791504L475.827454,324.528687C475.964752,324.420288,476.018951,324.45462,475.990021,324.631683L475.887054,325.115845L475.975586,325.336243L476.210449,325.468109C477.615967,325.75174,478.652924,325.878204,479.321381,325.849304C479.735077,325.829437,480.300537,325.708405,481.017761,325.482574zM478.038696,327.169922C478.353027,327.229523,478.766754,327.229523,479.278015,327.169922C479.778442,327.112091,480.161438,327.018158,480.427002,326.891693L482.123383,325.995636C482.249847,325.946869,482.329315,325.825806,482.358215,325.628906C482.36908,325.433777,482.255249,325.370575,482.020386,325.439209L481.061096,325.760773L479.232849,326.143768C478.446991,326.201599,477.415436,326.078735,476.136353,325.775238L475.812988,325.760773C475.664856,325.771606,475.538391,325.834839,475.429993,325.952271C475.321594,326.069702,475.307159,326.181702,475.384827,326.2901L475.664856,326.465363C476.824677,326.866394,477.615967,327.101257,478.038696,327.169922zM464.077454,360.080383C463.595093,360.756042,463.30603,361.391968,463.206665,361.988129C463.138031,362.380157,463.123566,362.830017,463.16333,363.339478L463.309631,364.688965L463.383728,365.232758L463.472229,365.350189C465.575104,367.561432,467.920044,369.093414,470.505249,369.944336C472.333527,370.551331,474.047974,370.625397,475.650391,370.164734L476.712677,369.754639C477.664734,369.284912,478.38736,368.589386,478.878754,367.66983L479.247314,366.817139C479.641144,365.653687,479.789276,364.302368,479.689911,362.766785C479.621246,361.632263,479.40448,360.280914,479.041351,358.71463C478.835388,357.795074,478.595123,356.958618,478.318726,356.205261C478.260895,356.058929,478.318726,355.910797,478.495758,355.764465L478.864319,355.778931C479.355682,357.139282,479.749542,358.700165,480.044006,360.461578C480.50647,363.446045,480.315002,365.848816,479.469513,367.66983L479.203949,368.182892L479.012451,368.477386C479.915741,368.947083,480.992462,369.044647,482.240814,368.77005C483.174805,368.555054,483.920929,368.188324,484.482758,367.66983L484.983185,367.097137C485.454712,366.421478,485.729309,365.482056,485.808807,364.27887C485.848541,363.642975,485.823242,362.649353,485.734741,361.298035C485.548645,358.411102,485.008484,355.280304,484.112427,351.903809C483.180237,352.286804,482.163116,352.608368,481.061096,352.873932C479.321381,353.29306,477.572601,353.504456,475.812988,353.504456C474.367737,353.504456,472.721924,353.278625,470.87381,352.828766L467.674347,351.889343C467.508148,352.398804,467.379883,352.98053,467.291351,353.636322C467.20282,354.301147,467.17392,354.913574,467.20282,355.471802C467.271484,357.144684,467.79718,358.745331,468.779968,360.271881C469.645325,361.612366,470.819611,362.844452,472.304626,363.969971C472.431061,364.067505,472.431061,364.19577,472.304626,364.351135C472.176331,364.508331,472.042664,364.571533,471.905365,364.542633L470.917145,364.293335L470.371582,364.204803C470.125885,364.156036,469.959656,364.098236,469.871155,364.029572C469.742889,363.921173,469.616425,363.697174,469.488159,363.353912L469.20813,362.634888C468.725769,361.646698,468.194641,360.736176,467.614716,359.905151C467.26062,359.415588,466.957123,359.063293,466.700592,358.848297C466.239929,358.436401,465.831635,358.304504,465.477539,358.450867L464.077454,360.080383zM449.591522,331.548737L449.549591,331.558319L449.491608,331.580719L449.418365,331.620422L449.331573,331.680603L449.232086,331.764771L449.11972,331.875824L449.009308,332.002258L448.945587,332.090912L448.883209,332.198456L448.810211,332.352417L448.740448,332.529724L448.67038,332.742249L448.601227,332.98996L448.536896,333.261719L448.478302,333.554871L448.42038,333.895416L448.366913,334.267334L448.320526,334.648865L448.320221,334.654297L448.319855,334.654938L448.279572,335.057587L448.242767,335.501831L448.211395,335.973602L448.211029,335.982574L448.210724,335.983856L448.184784,336.481232L448.164032,337.005493L448.140961,338.020721L448.13681,339.098694L448.151825,340.233337L448.18576,341.406677L448.239532,342.64566L448.312531,343.925568L448.403717,345.246796L448.515411,346.626282L448.663605,348.208984L448.823334,349.746582L448.991669,351.215332L449.172516,352.648285L449.361359,354.010132L449.561737,355.327515L449.772308,356.591125L449.995758,357.813446L449.995392,357.813446L450.224579,358.958954L450.465607,360.062531L450.718781,361.118744L450.977997,362.108063L451.253265,363.065063L451.529144,363.937225L451.819427,364.772278L452.121613,365.558655L452.273285,365.908173L452.43399,366.238159L452.606476,366.554382L452.788605,366.853638L452.978424,367.132111L453.180695,367.398712L453.389679,367.644836L453.609589,367.876556L453.843231,368.096466L454.078156,368.293304L454.330353,368.481171L454.593414,368.653992L454.858429,368.807007L455.149078,368.953278L455.438385,369.079041L455.743439,369.192017L456.285309,369.356232L456.843781,369.47049L457.442352,369.540588L458.073151,369.563934L458.850616,369.531952L459.653351,369.434631L460.488983,369.271393L461.354462,369.041595L462.259308,368.741699L463.19101,368.375214L464.154694,367.938995L464.821686,367.599701L464.639923,367.455688L464.607574,367.428467L463.785004,366.694885L463.75528,366.667053L463.166656,366.080383L462.965363,366.266663L462.950287,366.28009L462.644989,366.547668L462.628632,366.561737L462.330963,366.807556L462.312408,366.822266L462.022736,367.04599L462.001312,367.062012L461.719635,367.263641L461.695343,367.280304L461.421356,367.460175L461.393219,367.477783L461.127228,367.635559L461.093903,367.654449L460.835968,367.789825L460.798859,367.80777L460.63913,367.880402L460.595917,367.898651L460.44931,367.954346L460.397491,367.971619L460.263702,368.011322L460.192657,368.028595L460.071991,368.051636L459.97818,368.063477L459.870331,368.069885L459.748077,368.067017L459.653351,368.056763L459.567841,368.042358L459.506073,368.025085L459.424164,367.998505L459.343475,367.967133L459.26059,367.922028L459.191803,367.878815L459.121368,367.828552L459.057343,367.770294L459.005829,367.712067L458.903412,367.582123L458.854156,367.511047L458.813141,367.43457L458.788544,367.373749L458.717438,367.173706L458.693451,367.090485L458.683197,367.035767L458.643219,366.765625L458.635529,366.677612L458.626556,366.338348L458.626556,366.298004L458.641937,365.761597L458.642914,365.73822L458.67392,365.22934L458.676178,365.2034L458.722565,364.722015L458.7258,364.693207L458.787872,364.239044L458.792999,364.207031L458.870758,363.780396L458.878143,363.744537L458.971588,363.345428L458.982147,363.306061L459.091278,362.934143L459.105377,362.89093L459.230194,362.546539L459.247162,362.504303L459.464508,362.004364L459.486237,361.958282L459.724701,361.499634L459.752838,361.450348L460.012421,361.0336L460.047943,360.98175L460.328644,360.606964L460.371857,360.554474L460.673676,360.220978L460.726166,360.168488L461.049103,359.877228L461.109589,359.828583L461.45401,359.578613L461.522186,359.534424L461.887665,359.326721L461.903717,359.318085L462.344086,359.082184L462.298981,359.050171L462.23111,358.996399L462.170319,358.934631L462.117157,358.866455L462.072357,358.792206L462.036835,358.713165L462.010895,358.630585L461.994598,358.545746L461.9888,358.474396L461.987885,358.443665L461.990448,358.357239L462.002899,358.271454L462.025665,358.187927L462.057953,358.107605L462.099579,358.031738L462.156525,357.953003L462.183136,357.92099L462.24234,357.857941L462.308258,357.801941L462.363312,357.764801L462.41806,357.731201L462.510834,357.682861L462.593109,357.647339L462.674713,357.617584L462.758881,357.598053L462.845001,357.588135L462.904877,357.587494L464.893707,357.645111L464.980133,357.652771L465.064972,357.67038L465.146881,357.698242L465.225006,357.735352L465.255096,357.754242L465.261139,357.752014L465.396576,357.710083L465.480743,357.68927L465.531952,357.68158L465.672455,357.665894L465.758881,357.661438L465.805267,357.66333L465.950592,357.673584L466.071869,357.692474L466.222321,357.728943L466.323456,357.761292L466.478973,357.824005L466.560638,357.863068L466.720978,357.952026L466.784637,357.99173L466.935089,358.09671L466.769623,357.528931L466.757477,357.47995L466.624603,356.869598L466.615326,356.819336L466.525421,356.201935L466.519989,356.151367L466.472931,355.527557L466.470978,355.491058L466.460114,355.062195L466.460114,355.026031L466.470978,354.576965L466.472626,354.542725L466.50589,354.073822L466.508759,354.043732L466.563812,353.555023L466.567657,353.524933L466.641571,353.047058L466.646698,353.017609L466.735382,352.567291L466.742401,352.535278L466.84549,352.112152L466.855072,352.076965L466.972565,351.681366L467.001984,351.600067L467.041046,351.522919L467.088715,351.450592L467.144745,351.384338L467.208099,351.325439L467.277863,351.274231L467.353119,351.231659L467.433136,351.198395L467.516327,351.174683L467.601776,351.16095L467.672821,351.158386L467.729156,350.067596L467.756989,348.88559L467.749969,347.706177L467.70871,346.558105L467.710602,346.47168L467.722748,346.385895L467.741974,346.313904L467.718292,346.263977L467.69046,346.182037L467.668365,346.059753L467.623199,345.59024L467.620331,345.508301L467.509613,345.557587L467.499664,345.561737L467.093842,345.73587L467.081024,345.741302L466.715851,345.889801L466.69986,345.89621L466.375946,346.019104L466.354156,346.02713L466.070892,346.12442L466.040192,346.134003L465.798248,346.205383L465.754364,346.216919L465.55307,346.263L465.499298,346.273254L464.69754,346.394867L464.639923,346.401276L463.85672,346.457275L463.794952,346.459198L463.029999,346.44928L462.965973,346.445435L462.21994,346.370239L462.153961,346.360626L461.425812,346.219482L461.360199,346.203461L460.65097,345.996704L460.587921,345.975281L459.896881,345.703217L459.83609,345.675995L459.163605,345.338013L459.125214,345.31723L458.701752,345.071716L458.678741,345.057953L458.301727,344.820465L458.275482,344.803192L457.944489,344.574341L457.912201,344.550354L457.627655,344.329498L457.590179,344.298462L457.35141,344.086243L457.304718,344.040802L457.272064,344.006226L457.271088,344.010406L457.240021,344.09137L457.199738,344.167877L457.150421,344.238922L457.093109,344.303894L457.028473,344.361511L456.957733,344.411438L456.881256,344.452393L456.770172,344.493378L455.088287,344.962891L455.003754,344.98114L454.917694,344.989136L454.830902,344.987244L454.745148,344.975067L454.661591,344.952667L454.581268,344.920654L454.505096,344.8797L454.434357,344.829773L454.370026,344.77182L454.312775,344.706543L454.263763,344.635162L454.223785,344.558655L454.187286,344.458801L453.77536,343.020752L453.7565,342.936249L453.747528,342.850159L453.749115,342.763763L453.760651,342.677979L453.776031,342.61908L453.568573,342.457764L453.514801,342.411682L453.312897,342.220612L453.253632,342.157227L453.219391,342.113068L452.791473,341.511353L452.745392,341.437714L452.708588,341.359619L452.681061,341.277374L452.663483,341.192566L452.656097,341.106476L452.658966,341.019714L452.671783,340.934265L452.694855,340.850739L452.727448,340.770386L452.769379,340.69519L452.610016,340.497375L452.551422,340.412872L452.345306,340.0672L452.30368,339.986237L452.207672,339.767303L452.180511,339.695313L452.111359,339.477966L452.089935,339.393799L452.048615,339.178406L452.037079,339.08847L452.023041,338.874664L452.022369,338.788239L452.031952,338.702148L452.051849,338.617981L452.081268,338.536346L452.120331,338.459229L452.167999,338.386871L452.18399,338.368011L451.908112,337.818756L451.873871,337.739075L451.849213,337.656189L451.838043,337.596649L451.79483,337.304108L451.78714,337.218018L451.789703,337.131592L451.802826,337.045807L451.825531,336.96228L451.858185,336.881958L451.899811,336.806396L451.950348,336.735992L452.008636,336.671967L452.066559,336.621399L452.118683,336.580444L452.078705,336.473236L451.621674,334.872589L451.602753,334.788086L451.594147,334.701996L451.595734,334.61557L451.607269,334.529785L451.628998,334.445953L451.660675,334.365295L451.701324,334.288788L451.750946,334.217743L451.801849,334.160767L451.613678,333.791412L451.332306,333.298523L451.045197,332.852997L450.75589,332.458344L450.575714,332.233673L450.402191,332.039703L450.241241,331.881287L450.091766,331.755798L449.963409,331.66684L449.85141,331.605682L449.760468,331.570801L449.675018,331.551605L449.621246,331.546478L449.591522,331.548737z"/>
    <path transform="matrix(-1,0,0,1,0,0)" style="stroke:none;fill:#000000;fill-rule:evenodd" d="M466.825287,370.835571L466.910126,370.853485L467.018951,370.892853L467.140228,370.947906L467.216766,370.98822L467.288116,371.037201L467.368134,371.109863L467.482697,371.230194L467.538422,371.296143L467.58609,371.368469L467.607574,371.408142L467.67923,371.551849L467.713165,371.631561L467.737823,371.714783L467.754791,371.829041L467.764069,371.965057L467.764679,372.051788L467.755096,372.137909L467.751556,372.153259L467.769501,372.129578L467.853668,372.036743L467.957367,371.94043L468.024261,371.885376L468.129242,371.821686L468.233246,371.769836L468.312958,371.735565L468.395844,371.711243L468.507538,371.694611L468.574432,371.689819L468.661163,371.688843L468.747284,371.697815L468.789886,371.706116L468.858673,371.721802L468.941559,371.746124L469.025726,371.781982L469.096771,371.817841L469.171722,371.861359L469.213287,371.891113L469.286591,371.947449L469.351898,372.00412L469.422333,372.083496L469.568573,372.274872L469.616913,372.346588L469.656586,372.423706L469.686676,372.5047L469.708771,372.598785L469.720306,372.667603L469.729584,372.753693L469.728607,372.840118L469.722198,372.898376L469.711029,372.97229L469.693085,373.056793L469.662323,373.145782L469.629059,373.225159L469.590973,373.302917L469.566315,373.342926L469.510651,373.42807L469.483429,373.467133L469.190887,373.856323L469.15921,373.895691L468.834686,374.270782L468.801727,374.306335L468.444855,374.667358L468.411224,374.699371L468.022003,375.046326L467.988434,375.074463L467.566925,375.407013L467.533905,375.431671L467.080109,375.750122L467.04776,375.77124L466.56192,376.075317L466.530548,376.093872L466.012054,376.383545L465.985138,376.397949L465.586029,376.599579L465.564606,376.610138L465.133453,376.810486L465.114594,376.818817L464.652069,377.018219L464.634796,377.025269L464.139984,377.223694L464.124603,377.229797L463.598419,377.427277L463.58432,377.432373L463.025848,377.628906L463.013031,377.633392L462.422821,377.828949L462.411285,377.832458L461.789093,378.027374L461.68576,378.051697L461.52951,378.07666L461.443451,378.085327L461.357025,378.08371L461.2565,378.068665L461.125641,378.039856L461.042389,378.01651L460.962372,377.983215L460.886871,377.940643L460.833405,377.902863L460.728424,377.821259L460.663422,377.764282L460.605499,377.699951L460.546967,377.614807L460.46756,377.480072L460.428192,377.402924L460.398102,377.321655L460.378571,377.24292L460.34848,377.082245L460.337616,376.99646L460.337006,376.909729L460.351044,376.799927L460.377655,376.670624L460.400055,376.587097L460.432037,376.506775L460.473663,376.430573L460.538971,376.341614L460.623138,376.243347L460.683319,376.180939L460.750214,376.12619L460.823151,376.079803L460.865082,376.05835L461.006561,375.99115L461.10672,375.952087L461.702667,375.769989L462.25351,375.591064L462.775238,375.411194L463.262054,375.231934L463.719757,375.051422L464.132599,374.876038L464.524689,374.695831L464.871613,374.522675L465.344086,374.264709L465.774872,374.000031L466.182953,373.718353L466.551666,373.430939L466.783356,373.227081L466.670074,373.303558L466.636444,373.325012L466.313202,373.518341L466.279266,373.537537L465.941925,373.71582L465.90799,373.732758L465.555939,373.895996L465.522675,373.910095L465.15683,374.058289L465.123871,374.07077L464.743317,374.203918L464.710968,374.214478L464.316315,374.332245L464.278534,374.342499L463.599396,374.506378L463.550446,374.516296L462.810455,374.642059L462.766571,374.648163L461.96579,374.735199L461.927399,374.738403L461.06546,374.786407L460.950531,374.783844L460.793365,374.767853L460.707916,374.754089L460.624725,374.730103L460.52005,374.68399L460.401337,374.619995L460.327728,374.574524L460.259857,374.520447L460.199005,374.458984L460.153595,374.402039L460.073273,374.290009L460.027191,374.216705L459.989716,374.138611L459.959015,374.045807L459.917694,373.885437L459.901398,373.800293L459.894684,373.713898L459.895966,373.662048L459.905243,373.494965L459.915131,373.408875L459.934967,373.324677L459.975616,373.219391L460.032623,373.100311L460.074554,373.024475L460.125092,372.954376L460.183685,372.89035L460.282562,372.810028L460.387848,372.738647L460.462128,372.694489L460.541168,372.659271L460.624054,372.633667L460.687103,372.621185L460.84079,372.597504L460.906036,372.590454L461.711334,372.539246L462.434052,372.460205L463.082794,372.352966L463.659576,372.219177L464.316681,372.005707L464.926666,371.741974L465.484894,371.431183L466.031525,371.048401L466.088531,371.012238L466.224213,370.934784L466.302032,370.896362L466.383636,370.867554L466.468109,370.848358L466.523834,370.841309L466.652496,370.830109L466.739227,370.827545L466.825287,370.835571zM461.024323,374.054291C462.214844,374.016357,463.240997,373.873627,464.106354,373.629761C465.177643,373.335266,466.097198,372.880005,466.86319,372.263977C467.06012,372.106812,467.08902,371.931549,466.951721,371.73465C466.803558,371.530487,466.63736,371.499786,466.451294,371.647919C465.714203,372.224243,464.848846,372.650574,463.855225,372.925171C463.060333,373.140167,462.09201,373.272034,460.952057,373.320831C460.715393,373.320831,460.606995,373.447266,460.626862,373.702026C460.655762,373.947693,460.789459,374.065125,461.024323,374.054291zM461.098389,377.107422C461.18692,377.322388,461.344086,377.396484,461.569916,377.32782C463.271698,376.809326,464.63208,376.281799,465.654602,375.743439C467.079987,374.990112,468.160309,374.083191,468.8974,373.026337C468.985931,372.908905,469.016632,372.807739,468.985931,372.719238L468.8396,372.52774C468.740234,372.439209,468.648102,372.404877,468.55957,372.424744C468.490906,372.444641,468.420471,372.493408,468.351807,372.572906C467.62558,373.59903,466.577759,374.466187,465.211975,375.170746C464.258087,375.669373,462.960968,376.164368,461.320587,376.652161C461.092957,376.720795,461.020721,376.872559,461.098389,377.107422z"/>
</svg>
