<?xml version="1.0" encoding="UTF-8"?>
<svg xmlns="http://www.w3.org/2000/svg" xmlns:xlink="http://www.w3.org/1999/xlink" width="60.472mm" height="64.699mm" viewBox="-580.957031 392.072693 60.471863 64.698914">
    <path transform="matrix(-1,0,0,1,0,0)" style="stroke:none;fill:#000000;fill-rule:evenodd" d="M566.957764,439.804688L567.043884,439.815918L567.127686,439.837036L567.223755,439.875122L567.340881,439.931458L567.416443,439.973694L567.486816,440.024292L567.567139,440.101074L567.673767,440.219177L567.727844,440.286743L567.782898,440.377319L567.853638,440.516174L567.888184,440.595581L567.913147,440.678467L567.930115,440.782166L567.936218,440.847778L568.040833,440.737671L568.104248,440.678467L568.174011,440.627258L568.249207,440.584717L568.298523,440.562927L568.413086,440.516846L568.495056,440.489319L568.579834,440.471375L568.66626,440.46405L568.791748,440.471375L568.914978,440.489319L568.999756,440.506897L569.082031,440.534119L569.197266,440.592407L569.329773,440.674927L569.400146,440.72522L569.493286,440.814209L569.601501,440.937744L569.654602,441.006226L569.699097,441.080505L569.733032,441.155029L569.783264,441.284363L569.809875,441.366638L569.826477,441.451721L569.833191,441.538147L569.832275,441.587769L569.825195,441.722534L569.815613,441.808594L569.795776,441.893127L569.758667,441.991699L569.69397,442.131592L569.653015,442.208069L569.623901,442.251587L569.3349,442.654236L569.304138,442.694214L568.984741,443.079895L568.952393,443.116394L568.602539,443.485779L568.56897,443.519043L568.188416,443.87207L568.154175,443.901855L567.743225,444.23822L567.708923,444.264465L567.267883,444.584229L567.234314,444.607239L566.762207,444.910645L566.729248,444.930847L566.227051,445.21759L566.205933,445.229126L565.816406,445.434937L565.79303,445.446777L565.372498,445.650024L565.351379,445.659607L564.900085,445.860291L564.880249,445.868958L564.397583,446.066772L564.379639,446.073792L563.866272,446.268677L563.850891,446.274475L563.306458,446.467163L563.291138,446.47229L562.715942,446.661743L562.702515,446.665894L562.096008,446.852844L561.985229,446.877808L561.837402,446.899231L561.751282,446.906616L561.664856,446.903687L561.579102,446.890564L561.531738,446.878723L561.405945,446.842896L561.323975,446.814392L561.246216,446.776306L561.173584,446.729248L561.117859,446.684143L561.01355,446.590698L560.952393,446.529236L560.899292,446.46106L560.860535,446.398621L560.777649,446.24823L560.74054,446.1698L560.712708,446.087891L560.701172,446.039551L560.672974,445.899963L560.661133,445.814209L560.659241,445.727783L560.667542,445.641357L560.678772,445.584412L560.707581,445.46405L560.732544,445.381165L560.767395,445.301819L560.811279,445.227234L560.863098,445.158752L560.949524,445.057556L561.009399,444.995178L561.076599,444.94043L561.145752,444.895935L561.2901,444.814331L561.367859,444.776245L561.433472,444.752258L562.017883,444.57074L562.546021,444.396973L563.060974,444.217102L563.534363,444.040771L563.969971,443.866943L564.382507,443.689941L564.752197,443.518372L565.082214,443.35199L565.538269,443.089539L565.958496,442.818115L566.294922,442.573914L566.171997,442.643677L566.107056,442.676636L565.410583,442.986145L565.346558,443.011108L564.601135,443.261414L564.527527,443.28186L563.953003,443.410217L563.90979,443.418518L562.845886,443.590088L562.782837,443.597473L561.400818,443.698608L561.314392,443.69989L561.264465,443.69574L561.112793,443.678406L561.027283,443.663696L560.944397,443.638733L560.865051,443.604492L560.822144,443.580811L560.712036,443.515503L560.640015,443.466858L560.574707,443.410217L560.516174,443.346497L560.461121,443.268127L560.391663,443.154785L560.350708,443.078613L560.319336,442.997986L560.294678,442.899048L560.266174,442.737427L560.256287,442.651672L560.256592,442.560425L560.271301,442.345337L560.282532,442.259277L560.30365,442.175415L560.344604,442.072693L560.377869,442.004822L560.420471,441.929626L560.471985,441.859802L560.530884,441.796448L560.574707,441.758057L560.631714,441.711975L560.702148,441.661377L560.777954,441.619812L560.875916,441.58136L560.956543,441.556396L561.040771,441.53595L561.146057,441.524414L561.241455,441.520874L561.986877,441.474182L562.669861,441.401489L563.282166,441.305176L563.852173,441.180969L563.888367,441.17395L563.921936,441.168518L564.543518,440.966858L565.136597,440.708252L565.679749,440.400024L566.21167,440.016235L566.314087,439.954468L566.452393,439.885681L566.532104,439.851746L566.615295,439.827454L566.700745,439.813049L566.743958,439.809814L566.871338,439.803772L566.957764,439.804688zM561.276184,442.25293C561.12262,442.243896,561.030518,442.290863,561.001587,442.39563L560.987122,442.610626C560.997986,442.858124,561.117188,442.977356,561.346619,442.968323L562.728699,442.867157L563.792725,442.695526L564.367249,442.567261C565.393372,442.272797,566.289429,441.821136,567.057251,441.21051C567.239685,441.06781,567.263184,440.901611,567.129517,440.710083C566.994019,440.511383,566.831421,440.477051,566.639893,440.610718C565.920898,441.192444,565.071838,441.615204,564.094421,441.882568L564.007751,441.897034C563.259827,442.0867,562.349304,442.205933,561.276184,442.25293zM569.028198,441.824768C569.152893,441.635071,569.123962,441.458008,568.941528,441.297241C568.759033,441.143677,568.600037,441.163544,568.46637,441.353241C567.776245,442.392029,566.764587,443.27182,565.431335,443.996277C564.51178,444.482239,563.250793,444.968201,561.650146,445.452362C561.418884,445.548126,561.343018,445.696259,561.418884,445.894989C561.514648,446.133453,561.668213,446.220154,561.879578,446.15332C563.538025,445.658325,564.865845,445.134399,565.863098,444.581604C567.243347,443.839111,568.29834,442.919556,569.028198,441.824768z"/>
    <path transform="matrix(-1,0,0,1,0,0)" style="stroke:none;fill:#000000;fill-rule:evenodd" d="M542.276062,392.07428L542.336548,392.081665L542.43512,392.097656L542.519653,392.116516L542.599976,392.144714L542.714905,392.192688L542.814392,392.243591L542.945984,392.323914L543.006775,392.365234L543.154968,392.477539L543.194946,392.510193L543.359802,392.654541L543.388306,392.680786L543.569763,392.857483L543.590576,392.878906L543.788391,393.087891L543.803711,393.104248L544.004761,393.3302L544.449646,393.772217L544.618958,393.702148L544.940247,393.558716L545.006226,393.532837L545.302917,393.433594L545.395752,393.409241L545.65979,393.358032L545.745544,393.346558L545.791321,393.344604L546.023071,393.342041L546.109497,393.346191L546.176025,393.356445L546.323608,393.38623L546.441345,393.420471L546.618042,393.488342L546.689758,393.52063L546.895569,393.626282L546.942932,393.652832L547.178162,393.796509L547.210815,393.817688L547.475159,393.999146L547.499207,394.016418L547.79303,394.235962L547.811218,394.250061L548.13385,394.507385L548.147949,394.518921L548.474121,394.792603L548.663879,394.92572L548.823914,395.001282L548.981384,395.042542L549.146545,395.053772L549.304688,395.035522L549.428833,394.994202L549.543457,394.926697L549.654785,394.825195L549.67627,394.795776L549.678162,394.790039L549.680725,394.752563L549.651917,394.585205L549.642334,394.49939L549.642944,394.412659L549.65387,394.326904L549.674683,394.242737L549.705383,394.161743L549.745361,394.0849L549.794373,394.01355L549.851013,393.948242L549.915344,393.890015L549.985779,393.840088L550.061951,393.798462L550.142273,393.766479L550.22583,393.743713L550.311584,393.731262L550.39801,393.729004L550.484436,393.737L550.568909,393.755249L550.650818,393.783081L550.728943,393.820557L550.815979,393.877197L551.019897,394.031494L551.091248,394.092896L551.272095,394.270569L551.335449,394.341309L551.49292,394.542297L551.54541,394.619446L551.678894,394.843445L551.71759,394.917725L551.853027,395.218567L551.8927,395.330261L551.981018,395.661255L552.001221,395.766235L552.042786,396.127869L552.047607,396.221313L552.04248,396.613403L552.035767,396.702087L551.981995,397.099915L551.961853,397.198486L551.877014,397.502258L551.94104,397.562073L552.05719,397.684998L552.112915,397.751221L552.150696,397.807251L552.256592,397.981384L552.297241,398.057861L552.321594,398.117737L552.395203,398.325745L552.426575,398.446106L552.46814,398.688049L552.478394,398.790161L552.486755,399.065735L552.484192,399.153442L552.467224,399.341614L552.453125,399.432556L552.401917,399.666504L552.387207,399.722839L552.302063,400.003235L552.289246,400.041931L552.169556,400.369385L552.13501,400.44873L552.091431,400.523621L552.039307,400.592773L552.031921,400.600464L552.223328,400.972656L552.238037,401.003723L552.434875,401.435181L552.448669,401.467163L552.622437,401.901489L552.639099,401.94696L552.869507,402.655579L552.884277,402.708374L553.058044,403.419556L553.069275,403.474304L553.186707,404.188049L553.194092,404.245361L553.254578,404.961609L553.257141,405.019226L553.261292,405.738403L553.259338,405.796021L553.206543,406.518127L553.200134,406.573792L553.091003,407.298401L553.08075,407.352478L552.914673,408.080017L552.900879,408.131531L552.67395,408.871521L552.653503,408.92981L552.375366,409.622375L552.348145,409.682251L552.018799,410.328125L551.984253,410.388611L551.603333,410.986816L551.562073,411.045105L551.13031,411.596558L551.082275,411.652222L550.629089,412.124634L550.881958,412.278931L550.9328,412.312866L551.237183,412.535278L551.292603,412.580078L551.485596,412.752319L551.507629,412.738525L551.583496,412.696899L551.663879,412.664307L551.747375,412.641541L551.832825,412.628418L551.919556,412.625854L552.037048,412.638672L552.87207,412.799377L552.909851,412.807678L553.76123,413.01825L553.796082,413.027893L554.664124,413.288696L554.696106,413.299316L555.579834,413.610046L555.603821,413.619019L556.093506,413.81073L556.112427,413.81842L556.575195,414.014648L556.59668,414.023926L557.032288,414.22522L557.055298,414.23645L557.46405,414.442871L557.488342,414.455688L557.870178,414.666931L557.89679,414.682617L558.251709,414.898987L558.280518,414.917236L558.608582,415.138672L558.638367,415.15979L558.93988,415.386108L558.995239,415.43219L559.261169,415.676086L559.314331,415.730164L559.594727,416.046387L559.630554,416.09021L559.730713,416.222412L559.744507,416.186279L559.78418,416.109436L559.83313,416.03772L559.889771,415.972473L559.954163,415.914185L560.024536,415.864258L560.100403,415.822693L560.18103,415.790344L560.252747,415.770508L560.547852,415.704224L560.790466,415.632874L561.006165,415.551575L561.18573,415.466125L561.342896,415.371704L561.470581,415.27533L561.573364,415.177429L561.627075,415.11084L561.977234,414.350708L562.01825,414.27417L562.067505,414.203125L562.125122,414.138489L562.185608,414.085388L562.184326,414.076111L562.183716,413.989319L562.193604,413.903259L562.21344,413.819092L562.24292,413.737793L562.281982,413.660339L562.329651,413.588318L562.382446,413.525574L562.618958,413.274963L562.679138,413.218018L562.927856,413.008057L563.003357,412.952332L563.264893,412.783691L563.352539,412.734985L563.626526,412.6073L563.707214,412.575623L563.79071,412.553528L563.876526,412.541382L563.962952,412.539429L564.049316,412.547791L564.13385,412.56604L564.215759,412.594177L564.293579,412.631958L564.356934,412.672607L564.461609,412.601563L564.523987,412.563477L564.739746,412.44696L564.797363,412.419128L565.04187,412.313477L565.098816,412.291748L565.303345,412.2229L565.371826,412.203369L565.583435,412.154419L565.65094,412.142273L565.870178,412.112793L565.935791,412.10675L566.162415,412.096802L566.24884,412.098389L566.334595,412.109924L566.418457,412.131348L566.499451,412.16272L566.575928,412.203369L566.646973,412.252686L566.682495,412.284363L566.815002,412.221313L566.874207,412.19635L567.068848,412.124023L567.134094,412.102905L567.328735,412.05072L567.413513,412.033447L567.481689,412.026733L567.768799,412.012329L567.85553,412.012939L567.941345,412.02417L568.025513,412.045288L568.10614,412.075989L568.182983,412.116028L568.254333,412.164978L568.319641,412.221924L568.377563,412.286316L568.407959,412.328186L570.353638,410.282715L570.416687,410.22345L570.48645,410.172241L570.562012,410.1297L570.641663,410.096069L570.724915,410.072388L570.810364,410.058655L570.897095,410.055115L570.97998,410.061218L571.165649,409.723877L571.171692,409.713318L571.483765,409.167603L571.490845,409.155762L571.795227,408.645874L571.803528,408.631775L572.100525,408.158447L572.109802,408.144043L572.398865,407.706482L572.410706,407.689514L572.692322,407.288513L572.705811,407.269592L572.979736,406.904419L572.996704,406.882996L573.263306,406.553955L573.287964,406.525146L573.634949,406.139771L573.667603,406.105835L574.011292,405.770142L574.052612,405.732361L574.393494,405.446838L574.444336,405.408142L574.782043,405.172241L574.846375,405.131897L575.181152,404.946289L575.258606,404.909119L575.589844,404.773438L575.682373,404.742737L576.010437,404.656921L576.115417,404.63739L576.429382,404.602844L576.500427,404.592285L576.586548,404.584595L576.662415,404.586548L576.967773,404.609558L577.078186,404.626221L577.374878,404.695007L577.480835,404.728333L577.76886,404.843201L577.862671,404.888672L578.14209,405.049316L578.221436,405.102112L578.492188,405.308899L578.556519,405.364258L578.818359,405.617126L578.868286,405.670227L579.121765,405.969177L579.160156,406.018799L579.405029,406.363525L579.444092,406.424622L579.736938,406.938354L579.770569,407.004578L580.029175,407.588684L580.052185,407.647278L580.277222,408.302124L580.292542,408.353333L580.483948,409.078613L580.494507,409.123718L580.651672,409.919739L580.658081,409.957825L580.781921,410.824219L580.785767,410.858154L580.875427,411.794983L580.877625,411.823792L580.93396,412.83136L580.934937,412.856934L580.956726,413.898132L580.957031,413.924072L580.941956,414.970032L580.94104,414.994995L580.889832,416.04541L580.888184,416.07074L580.800171,417.125305L580.797607,417.149658L580.673462,418.209045L580.670227,418.233398L580.509583,419.296936L580.505737,419.320313L580.308899,420.388672L580.304382,420.411438L580.071106,421.484253L580.065308,421.507935L579.769897,422.678406L579.762512,422.705322L579.430298,423.838013L579.421692,423.865845L579.052612,424.961121L579.042419,424.989624L578.636536,426.047424L578.624695,426.076538L578.182068,427.096924L578.168335,427.126648L577.688843,428.109253L577.673462,428.139038L577.156921,429.084473L577.139282,429.114563L576.586243,430.021973L576.566406,430.052979L575.980652,430.913025L575.958923,430.94342L575.345337,431.752869L575.320679,431.783264L574.679321,432.541504L574.652405,432.571594L573.983459,433.279236L573.953369,433.309326L573.256287,433.965759L573.223633,433.994934L572.498718,434.600464L572.463806,434.627686L571.710999,435.182678L571.673584,435.208923L570.892944,435.712341L570.863525,435.72998L570.617676,435.872742L570.612244,435.875916L569.900757,436.280823L569.875793,436.294556L569.106323,436.693665L569.083923,436.704895L568.257202,437.098572L568.237061,437.107544L567.352722,437.496094L567.328064,437.506653L566.75354,437.734558L566.721558,437.746399L566.106079,437.957947L566.076965,437.967224L565.419861,438.162781L565.393616,438.170166L564.695251,438.350037L564.662598,438.357361L563.68158,438.562561L563.642517,438.56958L562.699341,438.714233L562.655762,438.719666L561.750977,438.803528L561.702942,438.806396L560.821167,438.829773L560.786316,438.829773L560.178833,438.817017L560.147156,438.815735L559.540283,438.776672L559.509583,438.774109L558.903015,438.709473L558.872314,438.705627L558.266113,438.614685L558.236328,438.609558L557.630798,438.493103L557.601318,438.486694L556.996094,438.344238L556.96698,438.336914L556.362061,438.168213L556.334534,438.159912L555.730286,437.965637L555.689636,437.951233L554.678223,437.558838L554.633728,437.539917L553.630981,437.072632L553.589966,437.051819L553.366577,436.930237L553.356323,437.382751L553.355408,437.409363L553.294556,438.446655L553.292664,438.471619L553.193726,439.533936L553.191162,439.557922L553.053894,440.645203L553.050659,440.667603L552.874939,441.779785L552.871155,441.800964L552.657349,442.93811L552.653503,442.957947L552.401245,444.120117L552.39679,444.138977L552.106201,445.326111L552.10199,445.342468L551.874756,446.186462L551.872192,446.196045L551.642395,447.005188L551.639526,447.015442L551.407471,447.790283L551.403931,447.801147L551.169373,448.541504L551.165527,448.553345L550.92865,449.259033L550.924194,449.271545L550.685425,449.942688L550.680298,449.956787L550.438965,450.59375L550.433228,450.608765L550.263916,451.02771L550.503601,451.185181L550.516418,451.193542L550.964844,451.501404L550.979858,451.512329L551.372925,451.79718L551.391174,451.810608L551.729126,452.071777L551.752197,452.090332L552.958801,453.103638L553.01355,453.154846L553.209106,453.356506L553.24115,453.391724L553.403381,453.582458L553.440186,453.629211L553.569214,453.808411L553.610474,453.872742L553.706482,454.040833L553.751282,454.133972L553.813721,454.291077L553.840942,454.373352L553.851135,454.416565L553.880615,454.5625L553.892456,454.648315L553.894714,454.726685L553.891174,454.861145L553.883789,454.947205L553.860474,455.052856L553.823303,455.176392L553.793579,455.25769L553.754517,455.334839L553.718018,455.390808L553.63031,455.513733L553.575928,455.581299L553.51416,455.641785L553.441772,455.696838L553.295227,455.795044L553.220642,455.838928L553.133606,455.876709L552.928101,455.950012L552.815125,455.980408L552.550415,456.029358L552.464661,456.039917L552.417297,456.041504L551.59729,456.041504L551.524292,456.037659L550.722839,455.957336L550.673584,455.950928L549.924622,455.824219L549.869873,455.812683L549.173767,455.639221L549.114868,455.621948L548.470581,455.402649L548.417786,455.382507L547.999146,455.202942L547.933167,455.170654L547.527649,454.946289L547.468445,454.90979L547.075745,454.64093L547.023254,454.601257L546.643311,454.287598L546.59082,454.239868L545.670349,453.316833L545.634827,453.348511L545.564087,453.398132L545.471252,453.447083L545.389648,453.482605L545.30835,453.51239L545.223877,453.532227L545.156982,453.540894L545.055176,453.549194L544.968445,453.551086L544.88269,453.543091L544.761353,453.524231L544.64679,453.496704L544.505615,453.450623L544.43103,453.421509L544.269714,453.348511L544.215637,453.321594L544.03479,453.22113L543.998657,453.199707L543.819763,453.086365L543.785828,453.063354L543.629639,452.951599L543.588623,452.920288L543.455505,452.810181L543.409729,452.76886L543.299316,452.660706L543.246155,452.602783L543.158813,452.496521L543.101807,452.417114L543.03717,452.312805L542.980835,452.201111L542.939209,452.098022L542.911377,452.015747L542.898254,451.95813L542.879395,451.856995L542.86853,451.77124L542.866882,451.727722L542.864319,451.361206L542.874268,451.237061L542.937988,450.850708L542.963257,450.746094L543.093506,450.339905L543.12616,450.256042L543.322998,449.830688L543.363953,449.754211L543.413574,449.683472L543.471191,449.618835L543.516296,449.578796L543.501282,449.527893L543.472168,449.385498L543.355652,448.894531L543.344788,448.838806L543.328735,448.737671L543.311157,448.779602L543.287476,448.830505L542.438354,450.474365L542.405396,450.531616L542.131714,450.961792L542.112183,450.990601L541.836304,451.381714L541.812317,451.414063L541.53418,451.765503L541.505371,451.799744L541.479736,451.828552L541.496704,451.839417L541.513062,451.850281L541.926575,452.132263L541.941895,452.142822L542.363098,452.445923L542.377197,452.456482L542.805786,452.780701L542.816345,452.788696L543.232117,453.115173L543.241394,453.122559L543.583862,453.400696L543.59314,453.408386L543.736816,453.529053L543.74707,453.537964L543.871887,453.64679L543.882813,453.656433L543.98938,453.753052L544.005371,453.768127L544.093079,453.8526L544.113892,453.873413L544.310059,454.078247L544.34082,454.112488L544.503418,454.305176L544.539551,454.351563L544.668518,454.532104L544.709534,454.59613L544.805237,454.764465L544.848755,454.855042L544.911133,455.011536L544.938354,455.093811L544.948303,455.136353L544.977722,455.280396L544.990234,455.365845L544.992432,455.450073L544.988281,455.582214L544.980286,455.668335L544.956299,455.773926L544.919495,455.893982L544.889404,455.975281L544.84967,456.052063L544.820251,456.098145L544.748901,456.200623L544.695129,456.268433L544.609314,456.350403L544.504028,456.435852L544.43396,456.486389L544.365784,456.524475L544.226563,456.593018L544.110657,456.638123L543.937195,456.689331L543.850159,456.709473L543.642395,456.74408L543.574219,456.752075L543.332581,456.769348L543.281372,456.77124L543.005188,456.771606L542.964844,456.77063L542.655029,456.753967L542.628784,456.752075L541.85968,456.682922L541.80719,456.676208L541.069458,456.555542L541.014709,456.544312L540.307373,456.372498L540.250061,456.35614L539.573792,456.132446L539.50946,456.107788L539.089539,455.923401L539.029358,455.893677L538.620972,455.667664L538.566528,455.634399L538.169312,455.367126L538.120667,455.331299L537.73468,455.022461L537.667786,454.961975L536.756897,454.027344L536.724548,454.052002L536.65094,454.09552L536.554321,454.145447L536.47522,454.180359L536.392639,454.205933L536.307495,454.221619L536.2547,454.226135L536.113586,454.233154L536.027161,454.232178L535.939758,454.221008L535.753479,454.185486L535.671875,454.164978L535.384766,454.075073L535.285217,454.035706L535.026611,453.910889L534.94342,453.863831L534.748169,453.735779L534.667542,453.674316L534.505859,453.532837L534.42395,453.449036L534.295898,453.294434L534.24469,453.22467L534.221375,453.185608L534.126953,453.017212L534.089172,452.939148L534.070923,452.891113L534.010132,452.709351L533.987732,452.625793L533.97937,452.576843L533.952515,452.381592L533.945801,452.258057L533.952515,452.049377L533.964355,451.941162L534.005005,451.719055L534.013611,451.677429L534.067749,451.455322L534.081482,451.406677L534.157349,451.168213L534.171082,451.129211L534.268066,450.875061L534.281189,450.842407L534.399292,450.572571L534.43866,450.495483L534.487,450.423462L534.543335,450.357849L534.607056,450.299255L534.648621,450.26886L534.641602,450.185303L534.645142,450.092163L534.888672,447.668335L534.888367,447.668335L535.046814,445.995056L535.047119,445.995056L535.205566,444.269897L535.364624,442.490662L535.364929,442.490662L535.524353,440.658936L535.523987,440.658936L535.684387,438.769958L535.845032,436.82843L536.005676,434.834412L536.005371,434.834412L536.166687,432.783142L536.178528,432.697388L536.200623,432.613525L536.2323,432.532837L536.273254,432.456665L536.322876,432.38562L536.380493,432.320984L536.445496,432.263672L536.516541,432.214417L536.593018,432.174072L536.611877,432.166687L536.674316,430.976074L536.701538,429.830261L536.694824,428.684082L536.65448,427.567688L536.656372,427.481323L536.668579,427.395508L536.690613,427.312317L536.678162,427.286377L536.650635,427.204102L536.628845,427.086365L536.573486,426.541565L536.40387,425.577881L534.97699,425.937622L534.956238,425.942749L534.44281,426.056396L534.433899,426.058289L533.965637,426.155945L533.95636,426.157837L533.532898,426.240417L533.519775,426.242676L533.141479,426.309204L533.125793,426.311768L532.792603,426.362976L532.770813,426.366211L532.482117,426.401733L532.452026,426.404602L532.208801,426.424438L532.165894,426.426697L531.967163,426.431152L531.910828,426.430237L531.172424,426.390198L531.118042,426.385376L530.405884,426.293213L530.349854,426.28363L529.66333,426.139893L529.605713,426.125488L528.945435,425.930298L528.886841,425.910095L528.252502,425.66272L528.195496,425.637756L527.587402,425.338806L527.532654,425.309021L526.950806,424.958557L526.899231,424.924316L526.343323,424.521973L526.303955,424.491577L525.988342,424.228821L525.964661,424.208008L525.671509,423.941711L525.646545,423.917725L525.376709,423.648193L525.350769,423.621338L525.103699,423.348022L525.077759,423.317566L524.85376,423.04071L524.82782,423.006836L524.626831,422.72644L524.601868,422.688965L524.423584,422.40509L524.399231,422.363831L524.244019,422.076416L524.20752,421.997681L524.174866,421.893616L524.131653,421.707336L524.117249,421.622192L524.112793,421.535461L524.118896,421.449036L524.134888,421.364258L524.146057,421.328369L524.117615,421.318481L524.03949,421.280701L523.966858,421.233643L523.899963,421.178589L523.85675,421.133484L523.046631,421.278442L522.960876,421.288696L522.874146,421.288696L522.802124,421.280701L522.529419,421.237183L522.444946,421.218628L522.394714,421.202271L522.245544,421.148193L522.224121,421.14502L522.140564,421.12262L522.060242,421.090271L521.950439,421.02655L521.777588,420.904968L521.720642,420.860474L521.562195,420.723816L521.508728,420.672913L521.364746,420.520874L521.317322,420.465515L521.188049,420.298462L521.14801,420.24115L521.032837,420.058716L520.999207,419.999817L520.898682,419.802307L520.872803,419.745667L520.786377,419.532837L520.766846,419.47876L520.694519,419.250549L520.673401,419.166382L520.66217,419.080566L520.661194,418.994202L520.670532,418.908081L520.689697,418.823608L520.718811,418.741943L520.757568,418.66449L520.804932,418.592163L520.857422,418.529785L520.752136,418.316895L520.710205,418.212891L520.595276,417.849976L520.581177,417.799377L520.529663,417.58429L520.513977,417.4953L520.489685,417.278625L520.485168,417.188354L520.487732,416.969788L520.494446,416.880127L520.524231,416.659973L520.540894,416.575134L520.567444,416.492554L520.603638,416.414124L520.648743,416.34021L520.702209,416.272034L520.763306,416.210876L520.7771,416.200012L520.62793,415.627747L520.611267,415.542908L520.604553,415.456543L520.607422,415.373596L520.634644,415.088135L520.648071,415.002686L520.671448,414.919128L520.704407,414.839111L520.746704,414.76355L520.797241,414.693481L520.85614,414.629761L520.921753,414.573486L520.932312,414.566406L520.90448,414.464966L520.617065,412.95105L520.60614,412.865295L520.605225,412.778564L520.614502,412.692444L520.634033,412.608276L520.663147,412.526672L520.701843,412.449219L520.749268,412.376892L520.805237,412.310608L520.868286,412.251404L520.938049,412.19989L521.013306,412.157288L521.092957,412.123718L521.176208,412.09967L521.253357,412.086548L521.270325,412.084656L521.239563,411.778687L521.237366,411.754028L521.206299,411.287659L521.205322,411.265625L521.187378,410.771423L521.186768,410.751282L521.182312,410.229553L521.182312,410.211975L521.190613,409.662415L521.191223,409.646423L521.212708,409.069031L521.213318,409.053955L521.24823,408.449036L521.249207,408.436584L521.29657,407.804138L521.298157,407.78363L521.434814,406.457947L521.437683,406.435547L521.616943,405.100525L521.620117,405.07843L521.84259,403.734802L521.846436,403.713379L522.112061,402.361145L522.115295,402.346069L522.277222,401.603516L522.279785,401.591675L522.44812,400.876953L522.451355,400.864197L522.626404,400.177307L522.630249,400.163269L522.812073,399.504578L522.816223,399.489502L523.0047,398.859009L523.009827,398.842957L523.205078,398.240601L523.21051,398.223999L523.41217,397.64978L523.419189,397.63092L523.627869,397.0849L523.639099,397.057007L523.952454,396.327942L523.968445,396.293701L524.28949,395.642029L524.310608,395.602356L524.638977,395.027527L524.667786,394.980774L525.003845,394.483093L525.043823,394.429626L525.387268,394.009399L525.442322,393.948914L525.793457,393.605774L525.869629,393.541138L526.228699,393.275146L526.329895,393.212097L526.69635,393.023926L526.785339,392.985474L526.961365,392.922791L527.031738,392.901611L527.21228,392.857178L527.282715,392.843384L527.468628,392.816528L527.540649,392.809448L527.73175,392.800842L527.835449,392.803711L528.185913,392.837646L528.271362,392.851074L528.320679,392.863525L528.667603,392.965027L528.786682,393.011414L529.130127,393.18103L529.225159,393.237366L529.565063,393.474854L529.637695,393.532837L529.973816,393.83783L530.028503,393.892883L530.361389,394.266418L530.401733,394.315674L530.730713,394.756714L530.760498,394.799927L531.086304,395.309143L531.104553,395.339539L531.205383,395.515259L531.218201,395.538635L531.326721,395.744751L531.335999,395.763L531.452148,395.999512L531.459229,396.013916L531.583069,396.280579L531.588501,396.292725L531.720032,396.590027L531.724548,396.600586L531.863464,396.928345L531.866943,396.93634L532.01355,397.294189L532.016418,397.301575L532.170715,397.690125L532.175842,397.702942L533.570313,401.415649L533.570984,401.417908L534.165039,403.014709L534.750732,404.5625L535.330688,406.066467L535.901367,407.518005L536.461792,408.915405L536.462097,408.915405L537.019043,410.272766L537.564392,411.574158L538.104065,412.830078L538.258972,413.181824L538.44397,413.10083L538.524902,413.07074L538.60907,413.050598L538.69519,413.040344L538.710876,413.040344L538.721741,413.028503L538.78772,412.972473L538.852966,412.928955L539.424927,412.588745L539.442871,412.578186L539.992737,412.271912L540.01355,412.260986L540.541992,411.988647L540.565002,411.977112L541.071655,411.738037L541.146545,411.707947L541.035156,411.623108L541.000916,411.595581L540.545471,411.203857L540.514465,411.175354L540.069214,410.745178L540.042053,410.717651L539.606445,410.249695L539.581787,410.221863L539.429077,410.040405L539.16217,410.057373L539.046631,410.055786L538.76947,410.029541L538.647827,410.007446L538.386658,409.937012L538.266663,409.892822L538.020813,409.777649L537.914551,409.716797L537.684448,409.557434L537.596436,409.485718L537.381958,409.281555L537.314758,409.208252L537.116028,408.959534L537.060303,408.879211L536.896423,408.606201L536.846802,408.507935L536.736084,408.23877L536.697998,408.116516L536.640076,407.851501L536.626648,407.766052L536.623413,407.708435L536.618652,407.447571L536.622131,407.361145L536.630798,407.299683L536.678772,407.042664L536.699585,406.958496L536.719116,406.904419L536.820557,406.65155L536.876892,406.539246L536.901855,406.498901L536.832764,406.455383L536.765198,406.40094L536.704712,406.338867L536.652222,406.270386L536.607727,406.195801L536.570923,406.11261L536.455078,405.798279L536.430115,405.715393L536.415039,405.629944L536.409973,405.543518L536.413147,405.495178L536.381775,405.432129L536.352661,405.350525L536.34082,405.291931L536.310425,405.276245L536.238403,405.227905L536.172791,405.17157L536.114197,405.10791L536.06366,405.037781L536.033875,404.986267L535.836731,404.611816L535.819397,404.577209L535.631531,404.169495L535.617798,404.137146L535.439209,403.695129L535.428284,403.667297L535.258362,403.191345L535.247803,403.158691L535.101501,402.679565L535.091614,402.644348L534.976074,402.184753L534.967102,402.143799L534.882935,401.703735L534.875549,401.658569L534.822083,401.238342L534.817627,401.186157L534.795532,400.785095L534.794556,400.727539L534.803528,400.346619L534.807678,400.283936L534.847412,399.922546L534.858276,399.852783L534.929626,399.510925L534.945313,399.449829L535.05957,399.069885L535.070129,399.037598L535.199463,398.670471L535.211609,398.638489L535.355347,398.284119L535.36908,398.252136L535.527222,397.909973L535.550232,397.864563L535.79126,397.426086L535.829346,397.364258L536.075134,397.006165L536.13501,396.929932L536.38562,396.652161L536.447388,396.591309L536.482605,396.5625L536.627258,396.451172L537.231201,395.430481L537.235046,395.424377L537.379089,395.186279L537.407593,395.142395L537.559265,394.927979L537.594849,394.881897L537.753906,394.691101L537.798706,394.642456L537.965759,394.475403L538.017944,394.427734L538.192383,394.283997L538.256042,394.236938L538.438477,394.117249L538.508911,394.076599L538.69873,393.980286L538.776184,393.94635L538.973328,393.873352L539.001526,393.86377L539.241516,393.78595L539.496643,393.685486L539.784363,393.555237L540.042358,393.424316L540.342224,393.191589L540.631897,392.878296L540.702942,392.811035L541.005432,392.561096L541.073914,392.510864L541.349792,392.332275L541.458923,392.273987L541.707947,392.167114L541.789551,392.137634L541.881409,392.116821L542.103577,392.081299L542.189636,392.072693L542.276062,392.07428zM552.416687,432.869537L551.538696,433.198334L552.544983,433.911926L552.416687,432.869537zM551.049133,398.188599C550.886536,398.398163,550.680603,398.56076,550.431274,398.674591C550.843201,399.160553,551.193665,399.641113,551.480896,400.118042C551.663391,399.650146,551.753723,399.308685,551.753723,399.088287C551.764526,398.698059,551.686829,398.398163,551.524292,398.188599C551.370728,397.970032,551.211731,397.970032,551.049133,398.188599zM523.162781,419.80072L522.470825,419.527954C522.203491,419.452057,521.959595,419.343658,521.737366,419.200958L521.392334,419.029327C521.565735,419.65802,521.89093,420.124115,522.37146,420.427612L522.37146,420.414978C522.553955,420.499878,522.734619,420.546844,522.917053,420.557678L523.795044,420.400513L523.823975,420.313812C523.833008,420.190948,523.786011,420.095215,523.679443,420.028381L523.162781,419.80072zM523.003784,412.444336L522.931519,412.458801C522.443726,412.648499,521.910767,412.767731,521.336304,412.814697L521.623535,414.328613C521.89093,414.31958,522.198059,414.395447,522.543091,414.558044C522.553955,414.290649,522.620789,414.110016,522.745422,414.016052C522.85022,413.929352,523.023682,413.885986,523.262146,413.885986L523.003784,412.444336zM524.053406,418.770996C524.102173,418.561432,524.073242,418.409668,523.966675,418.313934C523.881775,418.238037,523.684875,418.16217,523.377747,418.086304L523.032715,417.985107L522.673157,417.815308L521.925232,417.358246C521.780701,417.320313,521.612732,417.181183,521.421204,416.942719L521.249573,416.758453C521.191772,417.052917,521.206238,417.343781,521.292969,417.629211C521.417603,418.142303,521.656067,418.537933,522.011963,418.814331L522.629822,419.128693C523.012817,419.224426,523.348816,419.228058,523.636108,419.143127C523.876343,419.067261,524.015442,418.942596,524.053406,418.770996zM521.983032,416.886719L521.997498,416.857819L522.830322,417.414246L523.89624,417.486511C524.230469,417.361847,524.412903,417.152283,524.441833,416.857819C524.470703,416.610321,524.241272,416.371857,523.751709,416.144226L523.551147,416.100861C523.108582,415.98703,522.821289,415.833496,522.687622,415.643799C522.620789,415.529968,522.490723,415.419769,522.299194,415.315002C522.11676,415.210205,521.939697,415.143372,521.766296,415.114471L521.363403,415.157837L521.336304,415.443268L521.5224,416.15686C521.647034,416.462189,521.800598,416.706055,521.983032,416.886719zM570.883606,410.78772L568.710266,413.073029C568.768066,413.454224,568.744568,413.815552,568.639832,414.158783C568.898132,414.272583,569.109497,414.46228,569.272095,414.729675L572.034363,412.03064C571.524902,411.716278,571.15094,411.306183,570.912476,410.802155L570.883606,410.78772zM524.859131,414.60141L523.507813,414.500244C523.316284,414.511078,523.195251,414.60141,523.148315,414.77301C523.079651,415.009674,523.151917,415.262604,523.363281,415.529968C523.661377,415.605865,523.943176,415.728699,524.212402,415.90033C524.691101,416.196594,524.911499,416.529022,524.873596,416.901184C524.853699,417.024017,524.821167,417.128815,524.7724,417.215515C524.7724,417.929108,524.934998,418.366302,525.262024,418.5289L525.204224,418.928162L524.960327,418.785431L524.485168,418.4151C524.514099,418.5578,524.508667,418.709564,524.470703,418.872162C524.412903,419.090759,524.284668,419.271423,524.082275,419.414124L523.98114,419.571289L524.01001,419.728485C524.183472,419.891052,524.264771,420.086182,524.255737,420.313812L524.326172,420.299347L524.398438,420.642609L525.406555,420.313812C525.847351,420.142181,526.210449,419.923584,526.499512,419.65802C527.102905,419.096161,527.337769,418.371735,527.204102,417.486511L526.700012,416.444122L526.140015,415.230072C525.890686,414.857941,525.462524,414.648376,524.859131,414.60141zM568.668701,416.01416C568.802368,415.605865,568.822266,415.291504,568.724731,415.072906C568.668701,414.919342,568.504333,414.733276,568.236938,414.514679L568.222473,414.500244L568.077942,414.473145L567.949707,414.485779C567.718445,414.677277,567.579346,414.881409,567.532349,415.100006C567.532349,415.358368,567.478149,415.510101,567.373413,415.557068L567.243347,415.542633C567.13855,415.4776,567.100586,415.305969,567.129517,415.029541C567.187317,414.590546,567.30658,414.290649,567.489014,414.129883L567.76178,413.701721L567.906311,413.143494C567.906311,412.953796,567.872009,412.820099,567.805176,412.744232L567.517944,412.758698C567.257751,412.814697,566.999451,412.924896,566.741089,413.087494C566.414124,413.277161,566.17926,413.495758,566.036499,413.743286L566.036499,413.757721L566.022095,413.757721C565.944397,413.833588,565.872131,413.858887,565.805298,413.829987C565.738464,413.81012,565.691467,413.75412,565.662537,413.658356L565.662537,413.643921C565.67157,413.454224,565.796265,413.24826,566.036499,413.029663L566.193726,412.829132C565.886597,412.829132,565.599304,412.881531,565.33197,412.986328C564.986877,413.119995,564.717712,413.282593,564.526245,413.47229L564.108887,414.072083C564.03125,414.158783,563.964355,414.196716,563.906555,414.185883C563.839722,414.167816,563.787354,414.077484,563.74939,413.914886L563.74939,413.885986L563.763855,413.871552L563.763855,413.829987L563.935486,413.271759C563.561523,413.41449,563.221863,413.667389,562.914734,414.028717C563.395325,414.153381,563.949951,414.447845,564.584045,414.915741C565.321106,415.466736,565.758301,416.32489,565.891968,417.486511C566.553223,417.457611,567.022888,417.372681,567.301147,417.228149C567.550415,417.123383,567.810608,416.966217,568.077942,416.758453C568.404968,416.491089,568.600037,416.243591,568.668701,416.01416zM536.869263,453.094208L538.191711,454.450958C538.699341,454.889954,539.235901,455.21875,539.803162,455.437347C540.684753,455.769745,541.647705,455.964874,542.693726,456.022675C543.566284,456.089508,544.073914,455.975708,544.218445,455.679413C544.361145,455.375916,544.151611,454.942352,543.584351,454.380493C543.374756,454.170929,542.966492,453.833099,542.363098,453.365204C541.786804,452.918976,541.230347,452.528748,540.693787,452.194519C539.745361,452.671478,538.737305,452.765411,537.673218,452.47998C536.686829,452.214417,535.817871,451.676056,535.069946,450.866699C534.898315,451.23703,534.782715,451.565857,534.724854,451.851288C534.571289,452.461914,534.779053,452.928009,535.344543,453.251373C535.507141,453.347137,535.689575,453.417572,535.890137,453.46637C536.168335,453.542236,536.327332,453.504303,536.365234,453.352539L536.565796,453.094208C536.69043,453.018341,536.791626,453.018341,536.869263,453.094208zM543.598816,451.723022C543.618652,451.990387,543.882446,452.275818,544.390076,452.581146C544.899536,452.884644,545.195801,452.899109,545.282532,452.622681C545.311401,452.537781,545.378296,452.456482,545.483032,452.380615C545.607727,452.293884,545.703491,452.293884,545.770325,452.380615L547.109009,453.7229C547.607605,454.170929,548.138733,454.499725,548.705994,454.70929C549.529785,455.032654,550.492676,455.233215,551.596558,455.309082L552.416687,455.309082C552.808716,455.260315,553.043579,455.146484,553.121277,454.96582C553.263977,454.651489,553.052612,454.217896,552.487183,453.6651L551.280396,452.651611C550.866638,452.319183,550.306641,451.923553,549.596619,451.466492C548.648193,451.94162,547.640137,452.037354,546.57605,451.751923C545.598694,451.484558,544.735107,450.947998,543.987183,450.138641C543.680115,450.718567,543.551819,451.247894,543.598816,451.723022zM538.737305,413.772186L538.377808,413.929352C540.209656,418.042938,542.099365,421.603699,544.045044,424.613464C544.045044,422.689453,543.998047,421.285736,543.902283,420.400513C543.777649,419.12326,543.566284,417.757507,543.268188,416.301392C543.221191,416.080994,543.154358,415.934662,543.067688,415.856964C542.971924,415.772064,542.832825,415.719666,542.65033,415.699799C542.2276,415.652832,541.676575,415.495667,540.995483,415.230072C540.009094,414.838074,539.255798,414.353882,538.737305,413.772186zM543.801147,427.998993L540.435486,427.897827L537.385986,427.541931C537.463623,429.046814,537.449219,430.602295,537.34259,432.211945C538.253113,432.602173,539.389465,432.950836,540.751648,433.254333C542.17157,433.579529,543.427185,433.760193,544.520142,433.798126C545.459595,433.83606,546.810913,433.664429,548.575928,433.283234C547.00238,431.827148,545.454163,430.054871,543.929382,427.970093L543.801147,427.998993zM543.47052,393.832947C542.87616,393.146454,542.458862,392.804993,542.218567,392.804993C541.940369,392.804993,541.589905,392.99469,541.168945,393.375885L540.838318,393.733582L540.435486,394.046112C539.965759,394.295441,539.562866,394.46524,539.226868,394.561005C538.690308,394.723602,538.235046,395.137299,537.861084,395.803925L537.185425,396.945679C536.840393,397.155243,536.509766,397.579803,536.191833,398.217529C535.971436,398.665558,535.78894,399.146088,535.64624,399.66098C535.414978,400.546204,535.516174,401.640991,535.947937,402.945343C536.168335,403.602936,536.412231,404.168396,536.681396,404.645325C536.730164,403.816101,536.993958,403.084442,537.472656,402.444916L538.450012,401.373627C538.115845,401.203796,537.817749,400.997833,537.559387,400.759369C537.214355,400.446838,537.040894,400.155975,537.040894,399.888611C537.03186,399.460449,537.127625,399.093719,537.328125,398.788391C537.617188,398.360229,538.072449,398.141632,538.69574,398.132599L539.817627,398.345795L540.737183,398.44696L541.629639,397.218475C542.146301,396.494049,542.592529,396.18512,542.966492,396.289886L544.016113,396.718048L544.764038,397.03241L545.296997,397.017944L545.642029,396.761414L546.230957,396.403717L547.051147,396.488617C547.251709,396.566315,547.616638,396.840912,548.144165,397.317841L548.964355,398.060333C549.309387,398.269897,549.634583,398.380096,549.941711,398.38913C550.306641,398.398163,550.593872,398.269897,550.805237,398.004333C551.101501,397.623169,551.269531,397.155243,551.309265,396.604248C551.347229,396.060455,551.260498,395.599792,551.049133,395.218597C550.886536,394.904236,550.660706,394.651337,550.373474,394.461639C550.469238,394.813934,550.411438,395.099365,550.201843,395.317963C549.923645,395.62326,549.578552,395.780457,549.164856,395.78949C548.752991,395.798523,548.373596,395.661194,548.028503,395.375763C547.051147,394.537506,546.384521,394.103943,546.030457,394.075043C545.743225,394.046112,545.369263,394.147308,544.908569,394.374908C544.54364,394.555573,544.270874,394.580872,544.088379,394.447174L543.47052,393.832947zM551.063599,413.358459C550.747437,413.044128,550.312073,412.753265,549.755615,412.487701L549.065491,412.901398C548.816223,413.672821,548.359131,414.281647,547.697937,414.729675C547.05658,415.16687,546.337585,415.387268,545.540894,415.387268C543.671082,415.376434,542.2854,414.380981,541.383911,412.40097C540.722717,412.697266,540.003723,413.082062,539.226868,413.55899C539.687561,414.025085,540.339722,414.424347,541.183411,414.758575C541.824707,415.006073,542.334167,415.148804,542.70813,415.186737C543.282654,415.253571,543.633118,415.5914,543.757751,416.200226C544.045044,417.466644,544.265442,418.852295,544.419006,420.357178C544.534607,421.585632,544.581604,423.262146,544.563538,425.384888C546.624817,428.459686,548.758362,430.907593,550.962402,432.726807L552.373352,432.34021L552.487183,432.183044L552.861145,427.070404C552.573914,427.184235,551.840393,427.335999,550.660706,427.527466L550.228943,427.428101C550.115112,427.323334,550.066345,427.075836,550.086243,426.683807L550.100708,426.642273C550.118774,426.051514,550.124146,425.323456,550.115112,424.456299C550.104309,423.000183,550.037476,421.77533,549.912781,420.785309C549.779114,419.757385,549.558716,418.599365,549.251587,417.31488C549.011292,416.32489,548.839661,415.681732,548.733093,415.387268C548.657227,415.186737,548.651794,414.991608,548.720459,414.80011C548.787292,414.610443,548.906555,414.476746,549.079956,414.400879L549.266052,414.328613L549.280518,414.328613C549.481018,414.252716,549.773682,414.12085,550.158508,413.929352C550.628174,413.681854,550.929871,413.492157,551.063599,413.358459zM527.764099,393.533051C527.505798,393.533051,527.261902,393.580017,527.03064,393.675781C526.042419,394.075043,525.137329,395.299896,524.311768,397.346741C523.746277,398.764923,523.253113,400.484772,522.830322,402.502716C522.447327,404.311127,522.179993,406.097809,522.026428,407.859253C521.881897,409.582703,521.876465,411.011719,522.011963,412.14444L522.716553,411.929474L522.830322,411.900574L522.844788,411.900574C522.577393,409.262939,522.917053,405.897278,523.86731,401.803589C524.882629,397.451538,526.047852,395.009033,527.361267,394.476105L527.749634,394.389374C528.372925,394.389374,529.030518,394.974701,529.720642,396.147186C530.085571,396.755981,530.866028,398.698059,532.065552,401.973389C535.315613,410.764221,538.235046,417.452179,540.823914,422.042694C545.493896,430.298767,550.536072,435.373474,555.953979,437.268555C557.565491,437.821381,559.180542,438.097778,560.801025,438.097778L560.815491,438.097778C561.946411,438.106812,563.178528,437.955078,564.51178,437.640717C565.471069,437.411285,566.318359,437.140289,567.057251,436.825958C568.274902,436.311066,569.338928,435.783539,570.249451,435.239777L570.495178,435.097046C572.614258,433.821594,574.435303,432.00238,575.960083,429.641174C577.484802,427.270935,578.615723,424.499664,579.354614,421.329102C580.024902,418.462067,580.308533,415.643799,580.201904,412.872498C580.097168,410.092163,579.632874,408.063385,578.807251,406.787933C578.165894,405.806976,577.432434,405.317383,576.606812,405.317383L576.520081,405.330017C575.658386,405.358917,574.760498,405.920776,573.831909,407.015564C573.130981,407.844788,572.350525,409.058807,571.487,410.659424C571.669434,410.962952,571.869995,411.195984,572.090393,411.358582C573.875305,407.958588,575.365723,406.231506,576.563477,406.173706L576.592346,406.173706C577.119873,406.173706,577.613098,406.531403,578.073792,407.244995C578.783752,408.348816,579.20105,410.162628,579.325745,412.686432C579.459412,415.428802,579.186646,418.243469,578.505554,421.128571C577.795532,424.185303,576.71344,426.851807,575.255493,429.126312C573.797607,431.402588,572.061462,433.149567,570.04895,434.369019L568.480835,435.239777C566.889221,436.049133,565.225342,436.636261,563.491028,436.997589C562.436035,437.216187,560.858887,437.245087,558.757813,437.082489C557.914124,436.959625,557.075867,436.750061,556.241272,436.453796C550.987732,434.625549,546.073792,429.635773,541.499573,421.486267C538.948669,416.942719,536.078003,410.339661,532.883972,401.673523L531.489258,397.960999C531.068359,396.884277,530.726929,396.132721,530.468567,395.704559C529.605042,394.255676,528.703552,393.533051,527.764099,393.533051zM530.555298,419.370758C529.393677,418.648132,528.493958,418.167572,527.85083,417.929108L527.720764,418.642731C527.625,419.233459,527.438904,419.74292,527.160706,420.171082C526.83374,420.666077,526.369446,421.018372,525.766052,421.227936L524.844666,421.542267L524.888062,421.728363C525.271057,422.499756,525.899719,423.233246,526.772278,423.928772C528.21936,425.070526,529.946472,425.661285,531.949951,425.699219C532.419678,425.708252,533.368103,425.551086,534.797119,425.227692L536.782593,424.727295L537.328125,425.299957L537.113159,425.384888L537.299255,426.441711L537.357056,427.012604L540.478821,427.399231L543.598816,427.498566C541.203247,424.109436,538.867371,419.905518,536.594666,414.886841C535.272278,415.763031,534.087158,416.706055,533.042969,417.714142L531.877686,418.957062C532.060181,419.070862,532.242615,419.256958,532.42511,419.513489C532.770142,420.028381,532.923706,420.637177,532.883972,421.341736C532.692444,420.884674,531.915649,420.228882,530.555298,419.370758zM562.641968,414.65741L562.25354,415.501068C561.908508,415.98703,561.29425,416.314026,560.412659,416.485657C560.488525,416.762054,560.470459,417.148682,560.354858,417.643677L560.168762,418.286835L559.650269,417.385345C559.227539,416.718719,558.844543,416.248993,558.499451,415.972595C557.731689,415.361969,556.678467,414.805542,555.336121,414.301514C554.1474,413.853485,553.000244,413.539124,551.898254,413.358459L550.947937,413.958252C550.344543,414.386414,549.845947,414.668243,549.453918,414.80011L549.410583,414.829041L549.294922,414.872375C549.179321,414.919342,549.150391,415.038605,549.208252,415.230072C549.332886,415.5625,549.51532,416.243591,549.755615,417.271515C550.062744,418.566833,550.283142,419.719452,550.416809,420.727509C550.541504,421.728363,550.61377,422.965881,550.631836,424.441833L550.602905,426.671173L550.58844,427.027069C551.99939,426.779541,552.790649,426.613342,552.96228,426.526642L553.422974,419.457489L553.637939,419.500854L553.854736,422.700287C554.765259,422.918884,555.545715,423.041748,556.197876,423.070648C558.24115,423.166382,560.186829,422.642487,562.038574,421.498932C563.274292,420.727509,564.213684,419.900085,564.856812,419.014862L564.929077,418.913696C565.111572,418.677032,565.210938,418.490967,565.230774,418.357269C565.346436,416.977051,565.033875,416.010529,564.294983,415.457703C563.575989,414.924774,563.024963,414.65741,562.641968,414.65741zM524.580078,401.975464L524.411743,402.72345L524.259033,403.445496L524.116638,404.17041L523.992432,404.856323L523.99115,404.864624L523.99054,404.867188L523.880432,405.534851L523.87915,405.544128L523.878479,405.547058L523.782776,406.195496L523.698608,406.843933L523.697998,406.851929L523.697693,406.852234L523.628235,407.478638L523.574097,408.071716L523.532166,408.669861L523.504639,409.239258L523.491516,409.785339L523.491882,410.328125L523.505615,410.84729L523.532837,411.338257L523.575378,411.838196L523.577637,411.924622L523.572205,411.982544L523.615417,412.039856L523.65863,412.114746L523.692871,412.194092L523.725525,412.314758L523.983826,413.756348L523.989258,413.801453L524.914551,413.870605L524.944336,413.873169L525.162292,413.898438L525.222473,413.90802L525.424072,413.948669L525.490662,413.965332L525.675659,414.021057L525.747681,414.046936L525.916321,414.117676L525.995728,414.156738L526.1474,414.243164L526.224243,414.293396L526.359619,414.394836L526.433899,414.458862L526.552307,414.575378L526.618225,414.649963L526.720337,414.782166L526.769287,414.853516L526.806091,414.923279L527.365906,416.137268L527.863953,417.166931L527.876404,417.196716L527.958374,417.204041L528.043152,417.22168L528.122559,417.24823L528.375732,417.34906L528.402588,417.360229L528.680115,417.483826L528.701843,417.494019L529.003357,417.64032L529.02063,417.648926L529.34613,417.817627L529.36084,417.825317L529.710999,418.017029L529.722839,418.023743L530.097351,418.237854L530.10791,418.243958L530.506714,418.480774L530.515625,418.486206L530.939087,418.746155L530.953796,418.755432L531.150024,418.882141L531.150635,418.869995L531.166016,418.784546L531.191284,418.701965L531.226196,418.622559L531.27002,418.548035L531.343689,418.455505L532.509033,417.212708L532.547729,417.174622L533.357178,416.430786L533.383728,416.407715L534.245972,415.688232L534.271912,415.667419L535.186035,414.9729L535.211975,414.954041L536.177917,414.284424L536.197449,414.272583L536.023315,413.879211L536.020447,413.872864L535.469299,412.593872L535.466736,412.588135L534.907898,411.260132L534.90564,411.2547L534.338806,409.877197L534.336914,409.87207L533.76239,408.445496L533.760437,408.440735L533.178284,406.964905L533.176331,406.960449L532.586121,405.435303L532.584534,405.431152L531.986694,403.85675L531.985413,403.8526L531.379822,402.229248L531.37854,402.226685L530.94873,401.060669L530.949036,401.060669L530.561401,400.029114L530.561096,400.029114L530.209351,399.113098L529.899536,398.32959L529.63324,397.681458L529.511292,397.395325L529.402771,397.148865L529.309998,396.947571L529.217468,396.755188L529.15155,396.627808L529.090393,396.519653L528.854553,396.141968L528.628235,395.823792L528.416687,395.569702L528.223999,395.377319L528.057251,395.246399L527.920593,395.168945L527.821045,395.134705L527.789063,395.130859L527.609497,395.171204L527.491394,395.230103L527.330383,395.341797L527.15564,395.497681L526.966492,395.705078L526.771545,395.959534L526.571838,396.263916L526.371155,396.61438L526.161499,397.02887L525.962769,397.469604L525.757568,397.97467L525.555603,398.52356L525.355591,399.119507L525.160034,399.756104L524.960938,400.460266L524.772095,401.181702L524.580078,401.975464zM539.040771,401.160431C539.107666,401.245361,539.084167,401.332062,538.968506,401.416962L537.774353,402.574982C537.14209,403.402405,536.901794,404.260529,537.055359,405.145752C537.208923,404.430359,537.487122,403.7547,537.890015,403.116974C538.350708,402.441315,538.681274,402.051086,538.881836,401.946289L539.154602,401.960754C539.223267,402.036621,539.212402,402.112518,539.125732,402.188385L538.795105,402.517181L538.177246,403.317505C537.918884,403.649902,537.687683,404.063599,537.487122,404.560425L537.14209,405.545013L537.25769,405.859344C537.458252,405.096985,537.76532,404.43576,538.177246,403.873932C538.484375,403.47467,538.766174,403.198273,539.026367,403.044708C539.131104,402.988708,539.197998,403.017609,539.226868,403.131409C539.264832,403.254272,539.223267,403.369873,539.098633,403.47467L538.464478,404.103363C538.253113,404.40686,537.918884,405.030121,537.458252,405.973175L537.516052,406.074341L537.759949,406.10144C537.913513,406.159241,537.947815,406.26944,537.861084,406.430237C537.237793,407.078796,537.179993,407.768921,537.687683,408.50238C538.197144,409.225006,538.872803,409.472504,539.716431,409.244873C540.838318,410.644989,542.065002,411.638611,543.398254,412.22937C543.763184,412.391937,543.743347,412.487701,543.340454,412.514801C542.946594,412.543701,542.487732,412.429901,541.960205,412.17334C542.314331,413.324158,543.253723,414.091949,544.778503,414.473145L546.375488,414.558044C546.836182,414.453247,547.080078,414.23465,547.109009,413.900452C546.964478,413.958252,546.642883,413.95282,546.144287,413.885986C545.64563,413.819153,545.407166,413.743286,545.425232,413.658356L546.317688,413.571655C547.132446,413.466858,548.010437,413.114594,548.94989,412.514801C550.579407,411.486847,551.663391,409.953064,552.199951,407.917053C552.718384,405.973175,552.631714,404.059998,551.941589,402.17392C551.509827,401.012299,550.828735,399.879578,549.898315,398.773956C549.524353,398.773956,549.121521,398.642059,548.691528,398.374695L547.842468,397.617737C547.334778,397.142609,546.998779,396.869812,546.836182,396.802979C546.63385,396.737915,546.38092,396.788513,546.073792,396.960144L545.627563,397.274475C545.369263,397.446106,545.076599,397.518372,544.749573,397.489471C544.520142,397.480438,544.213013,397.40274,543.830017,397.26004C543.445251,397.128143,543.044189,397.155243,542.62146,397.346741C542.17157,397.556305,541.786804,397.9086,541.470642,398.403595C541.327942,398.631226,541.116577,398.764923,540.838318,398.802856L540.090393,398.732391L538.80957,398.660126C538.27301,398.669159,537.942383,398.983521,537.817749,399.60318C537.673218,400.260773,538.032715,400.746735,538.89624,401.059265L539.040771,401.160431zM539.514099,405.302917C539.582764,405.387848,539.571899,405.463715,539.485229,405.530548L539.328064,405.716644C539.212402,405.868378,539.160034,405.98761,539.169067,406.074341C539.179932,406.179108,539.125732,406.235138,539.011902,406.244141C538.89624,406.255005,538.834839,406.188141,538.823975,406.045441C538.823975,405.891876,538.876404,405.740112,538.982971,405.588379L539.284668,405.259583C539.371399,405.192719,539.447266,405.207184,539.514099,405.302917zM538.551208,404.759155C538.713806,404.511658,538.919739,404.311127,539.169067,404.159363C539.246765,404.112396,539.319031,404.130463,539.385864,404.217163C539.452698,404.302094,539.429199,404.397827,539.313599,404.502625L539.270203,404.545959L538.80957,404.959686L538.435608,405.516113C538.30188,405.734711,538.21521,405.792511,538.177246,405.687744C538.148315,405.62088,538.177246,405.487213,538.263977,405.288483C538.339844,405.096985,538.435608,404.921753,538.551208,404.759155zM547.813538,410.272827L547.598572,410.159027C547.529907,410.101196,547.501038,410.034363,547.511841,409.958496C547.511841,409.882599,547.544373,409.821198,547.613037,409.7724C547.669006,409.7164,547.746704,409.6875,547.842468,409.6875L548.100769,409.701965L549.051025,409.6586C549.135986,409.649567,549.184753,409.664001,549.193787,409.701965L549.107056,409.815765L548.677124,410.144562C548.436829,410.287292,548.149597,410.330627,547.813538,410.272827zM548.332031,399.66098L548.230835,399.417084L548.230835,399.131653C548.230835,399.035889,548.263367,398.965454,548.332031,398.918457C548.398865,398.878723,548.474731,398.878723,548.561462,398.918457L549.755615,399.431549C549.851379,399.469482,549.894714,399.507416,549.883911,399.545349L549.726746,399.60318L548.590393,399.731445L548.332031,399.66098zM542.62146,399.545349L542.836426,399.489349L543.009827,399.588715L543.253723,399.818146C543.407288,399.989777,543.474121,400.103577,543.456055,400.159607L543.210388,400.316772L542.70813,400.631104L542.146301,401.07373L541.757874,401.332062C541.653076,401.102631,541.768738,400.735901,542.102966,400.231842L542.62146,399.545349zM548.633728,402.459381L548.575928,401.631958C548.929993,401.489227,549.294922,401.413361,549.668884,401.402527C550.416809,401.402527,550.823303,401.75119,550.891968,402.444916C550.422241,402.092621,549.903748,401.987854,549.338318,402.130585C549.051025,402.208252,548.816223,402.31665,548.633728,402.459381zM544.894104,402.645447C544.088379,402.721313,543.484985,403.006775,543.082092,403.50177C542.879761,403.760101,542.760559,404.002197,542.722595,404.231628L541.873535,403.687836C542.074036,403.335571,542.352234,403.026642,542.70813,402.759277C543.418152,402.235352,544.146179,402.197418,544.894104,402.645447zM546.361084,401.617493C546.447754,401.579559,546.543518,401.640991,546.648315,401.803589L547.39624,402.845978L548.201965,403.658936L548.747559,404.159363L548.863159,404.359894C548.883057,404.455627,548.872192,404.535126,548.83429,404.60199L548.359131,405.631714C548.207397,405.868378,547.981567,405.935242,547.683472,405.830444L547.526306,405.731079C547.497375,405.673279,547.501038,405.611847,547.540771,405.545013L547.943604,404.77359C548.028503,404.60199,548.014099,404.441193,547.900269,404.287628L547.123413,403.259674C546.825317,402.840546,546.561584,402.392517,546.332153,401.917389L546.288818,401.716858L546.361084,401.617493zM544.735107,406.088776C544.764038,406.106842,544.76947,406.153839,544.749573,406.231506L544.650208,406.701233C544.630371,406.7789,544.659241,406.849365,544.735107,406.916199L544.980835,407.044464C546.352051,407.320892,547.363708,407.445526,548.014099,407.416626L549.668884,407.058929L550.58844,406.744568L550.761902,406.616302C550.799805,406.540436,550.81427,406.464569,550.805237,406.388672L550.761902,406.188141C550.732971,406.007507,550.7854,405.978577,550.920837,406.10144L551.538696,406.659668C551.672424,406.782532,551.706726,406.930664,551.639893,407.102295L551.179199,408.130219C551.101501,408.281982,551.049133,408.278351,551.020203,408.115784L551.005798,407.973053C550.996765,407.897186,550.962402,407.839355,550.906433,407.801422C550.848572,407.772522,550.781738,407.772522,550.704102,407.801422L549.883911,408.47348C549.231689,408.930542,548.613892,409.20694,548.028503,409.300903C547.445007,409.396637,546.630249,409.244873,545.584229,408.843811L544.203979,408.216949C544.021545,408.188049,543.887817,408.254883,543.801147,408.41568L543.887817,409.058807L543.772217,409.158173L543.671082,409.044342L543.210388,407.815887C543.143555,407.635223,543.18689,407.483459,543.340454,407.358826L544.606873,406.130341C544.662842,406.083374,544.706238,406.068909,544.735107,406.088776zM544.17511,407.844788L544.433411,408.016418C545.564331,408.406647,546.337585,408.634277,546.749451,408.701111C547.05658,408.758911,547.459473,408.758911,547.958069,408.701111C548.456665,408.645111,548.830627,408.554779,549.079956,408.430115L550.732971,407.559357C550.877502,407.51239,550.953369,407.393127,550.962402,407.20163C550.973267,407.105896,550.938904,407.044464,550.863037,407.015564C550.805237,406.988464,550.732971,406.988464,550.64624,407.015564L549.71228,407.329895C548.982422,407.53949,548.384399,407.664124,547.914734,407.702057C547.155945,407.759888,546.149658,407.640656,544.894104,407.34436L544.577942,407.329895C544.433411,407.340759,544.308777,407.402161,544.203979,407.515991C544.097412,407.629791,544.088379,407.73999,544.17511,407.844788zM544.592407,434.325653C543.268188,434.325653,541.763306,434.135956,540.075989,433.754761L536.896362,432.840637C536.466431,438.383209,536.038269,443.347717,535.61731,447.737701L535.373413,450.165741C536.072571,450.985931,536.883728,451.542358,537.803284,451.836823C538.820374,452.171051,539.777893,452.098785,540.679382,451.623657C541.053345,451.233429,541.423645,450.738434,541.786804,450.138641L542.635864,448.494659L543.311523,446.895844L543.383789,446.709747C544.419006,443.958313,545.123535,440.572784,545.497498,436.554962C545.517395,436.392365,545.622192,436.278564,545.81366,436.2117C546.006958,436.144867,546.091858,436.2117,546.073792,436.412231C545.708862,440.468018,544.980835,443.924011,543.887817,446.782013C543.905884,447.781067,544.00708,448.599426,544.189575,449.238953L544.218445,449.381683C544.908569,450.200073,545.708862,450.767334,546.619385,451.079865C547.636475,451.432159,548.599426,451.385193,549.509949,450.937164C550.162109,449.376282,550.790771,447.448639,551.394165,445.152466C552.219788,441.953033,552.637085,439.020935,552.646179,436.354431C551.466431,435.658905,550.312073,434.820648,549.179321,433.841492C547.636475,434.164856,546.106323,434.325653,544.592407,434.325653zM576.488953,406.922668L576.355774,406.962036L576.198975,407.032471L576.015259,407.141602L575.812622,407.2901L575.589844,407.481812L575.352051,407.716431L575.102722,407.991028L574.837097,408.313354L574.572083,408.663147L574.28656,409.069031L573.991455,409.51709L573.695068,409.994324L573.37793,410.533325L573.061401,411.098511L572.736511,411.704407L572.709595,411.747925L572.720215,411.771301L572.745789,411.853882L572.76178,411.939026L572.767578,412.025452L572.763062,412.111877L572.748352,412.19696L572.723694,412.280212L572.689148,412.359558L572.645935,412.434448L572.59375,412.503906L572.547058,412.554199L569.784912,415.253296L569.719299,415.309937L569.647888,415.358582L569.57074,415.39856L569.515381,415.419373L569.516357,415.447571L569.509277,415.574951L569.47345,415.828125L569.454895,415.918396L569.37616,416.206726L569.342224,416.303406L569.266724,416.478821L569.227966,416.556274L569.201111,416.599121L569.077881,416.781555L569.01416,416.862854L568.84259,417.052673L568.786926,417.108032L568.566406,417.304871L568.495361,417.360901L568.100098,417.634216L568.018433,417.682861L567.636963,417.879089L567.572632,417.908508L567.328064,418.005798L567.226624,418.037842L566.910095,418.113037L566.841248,418.125854L566.453003,418.179626L566.403381,418.184753L565.971313,418.214844L565.963013,418.391174L565.954041,418.477295L565.93866,418.548035L565.908936,418.658081L565.866028,418.775574L565.805847,418.905212L565.767761,418.976563L565.67749,419.125427L565.645813,419.173401L565.452209,419.442566L565.436523,419.463379L565.181396,419.792419L565.154175,419.825684L564.871277,420.149597L564.844055,420.179077L564.53363,420.497498L564.506714,420.523743L564.168091,420.837097L564.141541,420.860474L563.775391,421.16803L563.750427,421.188232L563.356384,421.490662L563.332397,421.507935L562.910889,421.805298L562.887512,421.821289L562.437805,422.11322L562.402954,422.134644L561.704224,422.534424L561.659119,422.558105L560.951477,422.899902L560.902466,422.921326L560.186157,423.204956L560.133667,423.223511L559.408081,423.448792L559.353699,423.463562L558.619141,423.63092L558.562805,423.641174L557.819336,423.75061L557.762329,423.757019L557.009888,423.808228L556.953552,423.809875L556.191772,423.802795L556.142822,423.800598L555.629761,423.761536L555.58844,423.757385L555.026733,423.682495L554.993469,423.677002L554.383728,423.566895L554.355286,423.561157L553.896912,423.459351L553.694031,426.573914L553.683105,426.659668L553.662659,426.743896L553.631897,426.824829L553.591919,426.901672L553.578125,426.921814L553.588379,426.975281L553.594482,427.061707L553.592529,427.123474L553.218384,432.236145L553.206848,432.32196L553.185425,432.405823L553.154358,432.486755L553.113708,432.563293L553.094849,432.591431L553.122681,432.671448L553.14447,432.779602L553.272827,433.822083L553.278259,433.908508L553.273438,433.994934L553.258423,434.080383L553.233765,434.163269L553.231201,434.169006L553.693665,434.459961L554.617737,434.965332L555.546204,435.398682L556.49231,435.764526L557.080627,435.958191L557.670776,436.121094L558.269348,436.254883L558.844482,436.35376L559.57135,436.403076L560.262329,436.43634L560.905029,436.451721L561.510254,436.450134L562.039673,436.431885L562.535767,436.395691L562.963684,436.345459L563.347107,436.278564L563.965515,436.139038L564.582581,435.978027L565.197754,435.795288L565.793701,435.596191L566.396667,435.372437L566.985901,435.13147L567.567505,434.870605L568.144531,434.588623L569.672546,433.740112L570.372864,433.285034L571.053284,432.779602L571.70813,432.228455L572.342163,431.626099L572.951599,430.976074L573.536011,430.279297L574.099976,429.528748L574.637695,428.732727L575.150757,427.887451L575.630859,427.004395L576.073486,426.092834L576.482849,425.144531L576.859253,424.158386L577.205872,423.124939L577.513794,422.070007L577.794495,420.954224L578.024597,419.903137L578.217896,418.856201L578.374756,417.809631L578.492859,416.779968L578.574158,415.750305L578.617676,414.736694L578.624695,413.724304L578.594299,412.720276L578.535767,411.834656L578.450623,411.013062L578.340149,410.268921L578.20575,409.597778L578.048279,408.999207L577.868713,408.472107L577.670593,408.019226L577.452026,407.632263L577.314392,407.434448L577.175781,407.264465L577.046143,407.132324L576.93158,407.038208L576.826599,406.97229L576.740845,406.934509L576.665283,406.914978L576.592957,406.908569L576.488953,406.922668z"/>
</svg>
