<?xml version="1.0" encoding="UTF-8"?>
<svg xmlns="http://www.w3.org/2000/svg" xmlns:xlink="http://www.w3.org/1999/xlink" width="60.495mm" height="62.583mm" viewBox="-503.183838 393.130920 60.494873 62.583282">
    <path transform="matrix(-1,0,0,1,0,0)" style="stroke:none;fill:#000000;fill-rule:evenodd" d="M451.630554,429.061554L451.715088,429.079803L451.827087,429.121094L451.940063,429.173584L452.016541,429.214874L452.08728,429.264496L452.151611,429.322418L452.189697,429.363708L452.287659,429.478912L452.340454,429.549011L452.756531,430.177948L453.158875,430.727478L453.550964,431.205658L453.927979,431.609589L454.417053,432.041687L454.926575,432.413574L455.456909,432.725006L456.041382,432.992584L456.136108,433.044434L456.261597,433.126038L456.33136,433.177582L456.394409,433.236786L456.450073,433.30304L456.477295,433.342743L456.544495,433.446747L456.587402,433.521973L456.620667,433.60199L456.644348,433.685211L456.660034,433.790833L456.669312,433.917877L456.670288,434.004608L456.661316,434.090729L456.635742,434.196655L456.587402,434.34613L456.55603,434.426788L456.515076,434.503265L456.486267,434.546814L456.399536,434.668121L456.345093,434.735657L456.28302,434.795807L456.219299,434.844482L456.319153,434.868805L456.401733,434.894409L456.48114,434.929291L456.555725,434.973145L456.607239,435.01123L456.699097,435.08548L456.763123,435.143738L456.819763,435.209351L456.868408,435.281036L456.908081,435.357849L456.928284,435.408112L456.969238,435.522369L456.99353,435.605255L457.007935,435.690704L457.010498,435.816498L457.00061,435.9711L456.990051,436.056854L456.96344,436.158661L456.912231,436.310028L456.879639,436.390381L456.838013,436.466217L456.785217,436.53952L456.700073,436.643555L456.641479,436.707245L456.575562,436.763245L456.50354,436.811584L456.450745,436.839752L456.332275,436.896729L456.252319,436.929352L456.168762,436.952728L456.057983,436.967773L455.906311,436.976746L455.795532,436.974823L455.316101,436.930328L455.265869,436.92392L454.784485,436.84549L454.736816,436.836212L454.253479,436.724213L454.208679,436.712036L453.722839,436.566406L453.679932,436.552338L453.192139,436.372772L453.153137,436.357086L452.663086,436.143921L452.627258,436.126953L452.134644,435.880188L452.101074,435.862579L451.606567,435.581909L451.579712,435.565582L451.217712,435.338959L451.195313,435.324554L450.82019,435.070435L450.800964,435.056976L450.411743,434.774689L450.395142,434.762207L449.992798,434.452698L449.978394,434.441193L449.562012,434.103851L449.549194,434.093292L449.119385,433.728394L449.107849,433.718475L448.664551,433.32608L448.654968,433.317444L448.197571,432.897827L448.127136,432.823578L448.031799,432.707733L447.980896,432.637634L447.938293,432.562103L447.905334,432.482086L447.891296,432.436951L447.856689,432.311798L447.83844,432.227295L447.830444,432.1409L447.832703,432.054474L447.844849,431.970612L447.87207,431.837158L447.89447,431.753296L447.926453,431.672974L447.967468,431.597412L448.055786,431.454987L448.105713,431.384247L448.163635,431.319611L448.206848,431.280243L448.327209,431.179108L448.396667,431.127258L448.471863,431.084351L448.574951,431.042419L448.694641,431.004028L448.778503,430.982269L448.864258,430.970734L448.950684,430.969452L449.066528,430.983856L449.185913,431.008514L449.26947,431.031219L449.349792,431.063232L449.425964,431.104858L449.472412,431.136536L449.591797,431.224548L449.651917,431.273834L450.087891,431.672974L450.495972,432.034637L450.89856,432.377747L451.288086,432.695251L451.645325,432.972412L452.003418,433.23584L452.329285,433.46051L452.645203,433.662781L453.084595,433.915314L453.514465,434.133301L453.736267,434.230591L453.721863,434.221313L453.122681,433.781525L453.069885,433.738983L452.495361,433.229095L452.45343,433.188782L451.989685,432.706451L451.956421,432.669647L451.494873,432.119446L451.468628,432.086151L451.008667,431.468445L450.986938,431.437378L450.529541,430.751831L450.485718,430.677246L450.462341,430.626678L450.406311,430.491913L450.378174,430.409973L450.359253,430.3255L450.350342,430.208679L450.350647,430.084808L450.356079,429.998383L450.37146,429.913239L450.397034,429.830353L450.426147,429.762817L450.482178,429.6492L450.525085,429.573975L450.576294,429.504211L450.642517,429.434753L450.754211,429.331696L450.821106,429.276642L450.9104,429.221283L451.05127,429.147339L451.13031,429.111816L451.212891,429.085876L451.330994,429.06604L451.457764,429.055481L451.544128,429.053558L451.630554,429.061554zM451.25116,429.869873C451.065094,429.999939,451.027161,430.158905,451.13916,430.345001C451.747986,431.304291,452.362213,432.082916,452.981873,432.680908C453.731598,433.407166,454.546387,433.947327,455.427979,434.301392C455.633942,434.377289,455.787506,434.315857,455.890472,434.120758C455.993439,433.905762,455.942871,433.752197,455.736908,433.658264C454.89325,433.324036,454.120026,432.814575,453.417267,432.135315C452.864441,431.58432,452.300781,430.858063,451.729919,429.952972C451.608887,429.757843,451.44809,429.728943,451.25116,429.869873zM452.264648,434.288757C451.383057,433.746796,450.34787,432.922974,449.157349,431.813751C448.998352,431.654755,448.839386,431.663788,448.678589,431.840851C448.519623,432.03595,448.525024,432.209381,448.693054,432.357513C449.930573,433.513733,451.021729,434.377289,451.968384,434.94455C453.290802,435.73764,454.587921,436.171204,455.863373,436.2453C456.087402,436.265167,456.224701,436.156769,456.269836,435.923706C456.316833,435.690674,456.228302,435.56601,456.004272,435.546143C454.766785,435.472076,453.520233,435.052948,452.264648,434.288757z"/>
    <path transform="matrix(-1,0,0,1,0,0)" style="stroke:none;fill:#000000;fill-rule:evenodd" d="M457.114197,393.147247L457.154846,393.149475L457.749878,393.198761L457.789856,393.203247L458.381042,393.285187L458.421387,393.291901L459.008362,393.406799L459.047729,393.415466L459.630859,393.563324L459.668335,393.573883L460.24762,393.754089L460.284424,393.766876L460.859619,393.980042L460.894836,393.994141L461.46582,394.239929L461.494629,394.253052L462.36615,394.67395L462.38916,394.685455L463.245972,395.137085L463.268738,395.149567L464.111145,395.632538L464.133545,395.645966L464.961243,396.160004L464.982666,396.173767L465.795959,396.719147L465.816406,396.733551L466.615295,397.309662L466.635132,397.324402L467.419617,397.931549L467.438843,397.946899L467.804321,398.25L467.845947,398.190155L467.882751,398.14151L468.037048,397.95459L468.081848,397.904968L468.244446,397.741119L468.299133,397.691193L468.470093,397.550659L468.535034,397.502991L468.7146,397.385834L468.78595,397.344879L468.973877,397.250458L469.053528,397.216217L469.249756,397.145142L469.265747,397.139404L469.496521,397.061951L469.737549,396.965607L470.032288,396.833405L470.288696,396.708252L470.573547,396.483582L470.858704,396.175995L470.928467,396.110077L471.224243,395.864899L471.290466,395.815918L471.557739,395.640839L471.665283,395.582611L471.904358,395.477936L471.985657,395.448181L472.078796,395.426422L472.290039,395.39151L472.376099,395.382568L472.462891,395.383514L472.523376,395.390564L472.622925,395.40625L472.707397,395.424805L472.786438,395.452026L472.901367,395.499054L473.001526,395.549316L473.132446,395.628052L473.194824,395.669983L473.341431,395.78009L473.383362,395.813995L473.545654,395.955811L473.573486,395.98172L473.75177,396.154541L473.773499,396.176331L473.967163,396.380524L473.983154,396.398132L474.179016,396.618652L474.60022,397.047211L474.767944,396.978088L475.061768,396.843323L475.13092,396.815796L475.416382,396.718506L475.512085,396.692902L475.767822,396.642975L475.853943,396.631439L475.899048,396.629211L476.125366,396.626343L476.211792,396.630493L476.276428,396.640106L476.42395,396.66922L476.540771,396.702515L476.716492,396.768768L476.78949,396.801086L476.993042,396.904449L477.040405,396.930695L477.272461,397.070892L477.307007,397.092987L477.566895,397.27063L477.590942,397.287903L477.878967,397.50235L477.897888,397.517059L478.214111,397.768951L478.228149,397.780487L478.549194,398.049652L478.730652,398.177673L478.885559,398.250977L479.036011,398.290649L479.19574,398.301544L479.343262,398.284271L479.462646,398.244568L479.570496,398.180573L479.66748,398.091583L479.68573,398.065002L479.691162,398.049652L479.694397,398.006134L479.670044,397.844818L479.662354,397.758392L479.664917,397.671967L479.677734,397.586212L479.700439,397.502655L479.732788,397.422333L479.774414,397.346466L479.824646,397.276062L479.882874,397.212036L479.948486,397.155396L480.020203,397.10675L480.097046,397.067047L480.177979,397.036652L480.262146,397.015839L480.347961,397.00528L480.434692,397.004974L480.520447,397.014557L480.60498,397.034424L480.686279,397.064178L480.763367,397.10321L480.837952,397.153168L481.036743,397.30423L481.108093,397.365997L481.284424,397.5401L481.346863,397.610199L481.500488,397.806732L481.552673,397.883209L481.683228,398.102448L481.722961,398.178314L481.854797,398.473419L481.89386,398.584473L481.97998,398.908691L481.999817,399.013672L482.0401,399.36734L482.044922,399.46048L482.03949,399.844238L482.031799,399.940277L481.973877,400.3349L481.953064,400.430939L481.874329,400.704895L481.934814,400.76059L482.049072,400.880615L482.104797,400.946533L482.14801,401.0112L482.246582,401.177002L482.28656,401.25412L482.308655,401.31015L482.379089,401.512085L482.408508,401.624756L482.451111,401.86322L482.46167,401.954437L482.475708,402.230011L482.473511,402.335297L482.456543,402.518066L482.442749,402.607361L482.392517,402.836212L482.377808,402.892212L482.29425,403.16684L482.281799,403.204285L482.165283,403.524323L482.130676,403.603699L482.087158,403.678619L482.035339,403.747742L482.029541,403.753815L482.199524,404.083496L482.213623,404.111969L482.413025,404.543427L482.426147,404.573517L482.604736,405.010712L482.623291,405.061615L482.848633,405.754852L482.863647,405.807678L483.033264,406.503479L483.044495,406.558533L483.159058,407.257233L483.166077,407.313568L483.225647,408.014832L483.22821,408.07309L483.232056,408.777222L483.230103,408.833862L483.189453,409.3927L483.231384,409.401672L484.196716,409.648102L485.172241,409.862244L486.167664,410.045959L487.178101,410.197968L487.178101,410.197662L488.157471,410.34137L488.169312,410.343292L489.118958,410.498535L489.131104,410.500763L490.050659,410.66687L490.063782,410.669128L490.953552,410.846741L490.967346,410.84964L491.826721,411.038452L491.841125,411.041992L492.670715,411.241699L492.686096,411.245544L493.485901,411.456787L493.502258,411.461273L494.271973,411.683716L494.289246,411.688843L495.028931,411.922485L495.047485,411.928558L495.75708,412.173401L495.776611,412.18045L496.456421,412.436829L496.476563,412.444824L497.126343,412.712067L497.148071,412.721375L497.768066,413.000122L497.790771,413.011017L498.38031,413.300995L498.403992,413.313171L498.964111,413.614349L498.98938,413.628418L499.519104,413.940796L499.542175,413.9552L499.955688,414.220215L499.977783,414.234955L500.363464,414.502197L500.38678,414.519165L500.744934,414.788971L500.769592,414.808502L501.10022,415.080536L501.12677,415.103271L501.429565,415.377563L501.456482,415.403168L501.732056,415.679718L501.760803,415.710419L502.008545,415.989197L502.037659,416.024109L502.257874,416.30542L502.286987,416.345428L502.479675,416.629028L502.507874,416.673828L502.673035,416.95932L502.69989,417.010223L502.837524,417.298279L502.861877,417.354919L502.971619,417.645203L502.991455,417.705719L503.074036,417.998566L503.089111,418.063538L503.143799,418.358307L503.153137,418.424561L503.180664,418.721588L503.183838,418.789124L503.183838,419.088379L503.180969,419.154327L503.152771,419.466705L503.139343,419.553741L503.076599,419.84726L503.051025,419.938782L502.953735,420.213715L502.913696,420.305573L502.781494,420.56131L502.72998,420.646118L502.563232,420.883301L502.502075,420.959167L502.300781,421.177124L502.234863,421.240173L501.998657,421.43924L501.931763,421.489502L501.660339,421.669708L501.585449,421.713226L501.506042,421.747467L501.493286,421.751312L501.479492,421.784607L501.437256,421.860138L501.386353,421.930237L501.327454,421.993927L501.261841,422.050262L501.189819,422.098267L501.112366,422.137299L501.031067,422.167084L500.96228,422.184357L498.049072,422.761749L498.046204,422.812317L498.030823,422.897461L498.005188,422.980042L497.967468,423.065186L497.813782,423.358032L497.748169,423.46109L497.633606,423.611847L497.577271,423.67746L497.539856,423.713623L497.380127,423.856995L497.295959,423.922302L497.090454,424.058655L497.020386,424.099609L496.768494,424.229248L496.70575,424.258057L496.270447,424.432495L496.180847,424.461609L495.772461,424.566895L495.687622,424.583557L495.601196,424.590271L495.552856,424.589325L494.147461,424.51889L494.108765,424.514404L494.054688,424.689178L494.007935,424.804382L493.961182,424.89624L493.917358,424.970825L493.886963,425.013397L493.803406,425.120941L493.748657,425.18335L493.628357,425.30658L493.5896,425.343689L493.431824,425.483246L493.369751,425.532532L493.291626,425.587921L493.008362,425.819946L492.974121,425.846527L492.642883,426.086884L492.608643,426.11026L492.250793,426.340057L492.219421,426.358948L491.835693,426.579163L491.804321,426.5961L491.393982,426.805756L491.365784,426.819519L490.928955,427.019562L490.901733,427.031403L490.438599,427.221191L490.412964,427.23111L489.923584,427.410675L489.883606,427.424103L489.141357,427.648804L489.092712,427.661591L488.354309,427.830597L488.303467,427.840515L487.569519,427.954773L487.515747,427.960876L486.786316,428.019745L486.731628,428.022308L486.006348,428.026489L485.950684,428.024567L485.229553,427.973663L485.173523,427.96759L484.457214,427.861328L484.403442,427.85141L483.750549,427.704163L483.654846,429.176788L483.644287,429.262878L483.623474,429.347046L483.592773,429.42804L483.55304,429.504852L483.543762,429.518616L483.55304,429.569183L483.558838,429.655609L483.55658,429.7164L483.162903,434.847351L483.162292,434.853119L483.192993,434.899506L483.232056,434.976959L483.261475,435.058594L483.280029,435.137634L483.433044,435.996063L483.437866,436.0271L483.552734,436.881348L483.55658,436.913361L483.633057,437.763763L483.63501,437.795776L483.673706,438.642029L483.674683,438.675629L483.674683,439.518036L483.673706,439.551331L483.63562,440.389557L483.633423,440.423187L483.556885,441.257568L483.55304,441.291199L483.438171,442.121765L483.432373,442.156647L483.284851,442.941742L483.275879,442.983673L483.092834,443.717896L483.079712,443.764008L482.860779,444.447327L482.842529,444.497894L482.587769,445.1297L482.563721,445.183167L482.273438,445.764404L482.242065,445.820709L481.91626,446.350433L481.876892,446.408051L481.515198,446.887177L481.467529,446.943817L481.070679,447.371765L481.026184,447.415924L480.766602,447.651794L480.731995,447.68158L480.458984,447.900177L480.422852,447.927063L480.136719,448.128693L480.098328,448.153992L479.798706,448.338013L479.76062,448.360107L479.447937,448.527191L479.408264,448.546692L479.082092,448.696503L479.042725,448.713135L478.703125,448.845642L478.664429,448.859741L478.311707,448.974945L478.273621,448.986145L477.907776,449.084106L477.870667,449.093048L477.491394,449.173706L477.456482,449.180115L477.064087,449.243805L477.029236,449.248596L476.623352,449.294708L476.591064,449.297577L476.172058,449.326385L476.141968,449.327972L475.709595,449.339813L475.67981,449.340149L475.234314,449.334381L475.207703,449.333435L474.749084,449.310699L474.662964,449.301422L474.578491,449.281891L474.549011,449.271332L474.398926,449.429108L474.351257,449.474884L474.008423,449.776062L473.954651,449.819275L473.590149,450.083344L473.53125,450.121735L473.144897,450.348663L473.083496,450.380676L472.67572,450.570801L472.649475,450.582642L472.481445,450.653046L472.452637,450.664246L471.847412,450.888275L471.781433,450.909424L470.628906,451.216339L470.535461,451.234924L470.244202,451.27301L470.229797,451.274292L470.214111,451.337982L470.006042,452.02066L469.99646,452.050446L469.767944,452.699524L469.755737,452.731537L469.506104,453.347656L469.491699,453.381256L469.220642,453.964417L469.206848,453.992279L469.01001,454.372833L468.98761,454.413147L468.797485,454.730011L468.761963,454.783447L468.578247,455.036316L468.520325,455.106415L468.343323,455.295563L468.280579,455.355103L468.241211,455.386139L468.070313,455.511292L467.997681,455.558014L467.894897,455.606018L467.731018,455.66748L467.648132,455.693085L467.562988,455.708771L467.463501,455.714203L467.305664,455.711975L467.219238,455.705566L467.134155,455.688934L467.019836,455.649567L466.869141,455.582977L466.792297,455.543304L466.71582,455.491119L466.344238,455.202423L466.252991,455.118561L465.925903,454.761047L465.856445,454.672089L465.573792,454.246704L465.523865,454.159332L465.285767,453.665466L465.253113,453.586426L465.059143,453.024384L465.039001,452.954285L464.889526,452.324097L464.877991,452.264252L464.772705,451.566193L464.766602,451.514984L464.705811,450.748749L464.703857,450.706177L464.689453,450.019623L464.692688,449.933228L464.700378,449.877197L464.730469,449.706299L464.748047,449.630432L464.79541,449.466248L464.822632,449.388153L464.887939,449.230988L464.922485,449.158997L465.005371,449.00824L465.046692,448.941986L465.407043,448.426056L465.507263,448.249359L465.562317,448.134155L465.511719,448.118134L465.451843,448.09671L465.276794,448.024689L465.199036,447.986908L465.11615,447.933136L464.99707,447.843842L464.930786,447.787842L464.871948,447.724457L464.806946,447.632294L464.743591,447.525696L464.703552,447.448578L464.673157,447.367584L464.652649,447.283722L464.641785,447.194427L464.63446,447.070251L464.63446,446.983826L464.651367,446.865417L464.945862,445.564667L464.977234,445.461609L465.066833,445.230194L465.092102,445.172607L465.185608,444.981842L465.227844,444.906616L465.324829,444.7565L465.400635,444.658569L465.50116,444.549103L465.563232,444.488953L465.63562,444.434204L465.739319,444.365387L465.814209,444.321869L465.89386,444.287292L465.958191,444.267151L466.06543,444.238983L466.150574,444.222015L466.236694,444.215271L466.331726,444.219452L466.442444,444.231598L466.527954,444.246002L466.553833,444.253693L467.314941,442.905914L467.362,442.832947L467.417053,442.766357L467.479797,442.706512L467.549255,442.654663L467.624146,442.61145L467.654846,442.598328L467.640808,442.570801L467.624756,442.536865L467.424133,442.091034L467.410034,442.057404L467.230164,441.597809L467.217651,441.563568L467.058899,441.089539L467.04834,441.055939L466.910706,440.568481L466.902405,440.535522L466.785583,440.033661L466.77887,440.001343L466.683167,439.486023L466.67804,439.454651L466.603149,438.924957L466.599304,438.894562L466.545532,438.351074L466.543274,438.322266L466.510315,437.76474L466.509338,437.736572L466.497498,437.164917L466.497192,437.138367L466.50647,436.552643L466.507446,436.527374L466.537537,435.927887L466.539124,435.90387L466.590332,435.290314L466.602478,435.204529L466.624878,435.120697L466.656921,435.040344L466.698181,434.964172L466.748108,434.893433L466.806396,434.829437L466.871338,434.772125L466.927368,434.734039L466.924805,434.655304L466.986267,433.483246L467.012512,432.366547L467.006409,431.238953L466.967712,430.147217L466.969604,430.060486L466.98175,429.975037L466.996521,429.919342L466.977295,429.878693L466.949463,429.796753L466.92926,429.692078L466.806396,428.672058L466.590637,428.752045L466.580444,428.755585L466.095215,428.92746L466.085938,428.930969L465.642334,429.08139L465.631409,429.08493L465.229736,429.214233L465.216614,429.218384L464.856262,429.326904L464.838928,429.331696L464.520813,429.419067L464.498108,429.424835L464.221252,429.491394L464.189209,429.498444L463.95459,429.543884L463.908203,429.55127L463.71521,429.575897L463.659851,429.581024L462.887817,429.620392L462.82959,429.621033L462.081604,429.599915L462.020142,429.595428L461.295837,429.513489L461.231812,429.503571L460.531189,429.360809L460.466553,429.344482L459.789978,429.14093L459.725952,429.11853L459.072693,428.854156L459.011536,428.825989L458.382019,428.500824L458.324402,428.467529L457.718506,428.081512L457.687134,428.060394L457.307861,427.790283L457.286072,427.774261L456.949707,427.51532L456.923767,427.494202L456.630615,427.24649L456.60022,427.219604L456.35022,426.983398L456.314392,426.946899L456.1073,426.721893L456.072083,426.680298L456.06665,426.691498L456.019897,426.76416L455.964844,426.831024L455.902161,426.8909L455.833008,426.943054L455.758118,426.986603L455.678711,427.020844L455.563538,427.052521L453.932129,427.359772L453.846069,427.370972L453.759644,427.371613L453.673523,427.36203L453.58905,427.342499L453.507751,427.313385L453.430298,427.274323L453.357971,427.226959L453.291687,427.170959L453.232788,427.10788L453.181274,427.038116L453.138733,426.962585L453.105408,426.882904L453.076294,426.775024L452.808716,425.34787L452.797852,425.26178L452.79718,425.175354L452.806824,425.089264L452.826355,425.005066L452.83783,424.972748L452.681335,424.826172L452.63269,424.775604L452.459229,424.578766L452.405762,424.51059L452.372498,424.457458L452.022034,423.843231L451.983582,423.765778L451.954773,423.684174L451.935608,423.59967L451.926636,423.51358L451.927612,423.427155L451.939087,423.341064L451.960571,423.257202L451.991577,423.176544L452.032227,423.100067L452.06488,423.052704L451.950928,422.876007L451.899719,422.782227L451.738098,422.426636L451.707703,422.3479L451.635071,422.121948L451.617126,422.056L451.569458,421.840942L451.556641,421.763489L451.533936,421.55896L451.529419,421.469666L451.531677,421.275055L451.537781,421.188629L451.554077,421.103516L451.580322,421.020935L451.61615,420.9422L451.66095,420.86795L451.714111,420.799774L451.733948,420.779907L451.533936,420.238373L451.508606,420.155487L451.493591,420.070343L451.489441,420.01944L451.476624,419.751862L451.4776,419.665466L451.48877,419.579681L451.509888,419.495514L451.540955,419.414856L451.581299,419.338043L451.630249,419.266968L451.687561,419.201691L451.780334,419.122314L451.845032,419.075897L451.823242,418.993317L451.543213,417.426941L451.532959,417.340851L451.532959,417.254425L451.543213,417.168335L451.56366,417.084137L451.59375,417.002838L451.633118,416.926025L451.681458,416.854034L451.702881,416.829041L451.629639,416.708069L451.361694,416.37265L451.030151,416.042969L450.627808,415.717804L450.488281,415.620483L450.305176,415.499817L450.1026,415.372437L449.877258,415.23642L449.607788,415.079254L449.327087,414.919891L449.007019,414.742554L448.026367,414.207733L448.008728,414.19812L447.4198,413.855652L447.401245,413.844147L446.862244,413.508728L446.840515,413.494965L446.351746,413.166565L446.327454,413.149292L445.888306,412.827637L445.860779,412.806488L445.472229,412.492188L445.440552,412.464996L445.101624,412.15741L445.06543,412.122528L444.777039,411.822296L444.737061,411.77652L444.313904,411.255798L444.270386,411.196564L443.900696,410.634552L443.863586,410.571503L443.547668,409.967529L443.51825,409.904175L443.255798,409.259247L443.233398,409.195862L443.024719,408.509003L443.009033,408.448822L442.853821,407.720703L442.844177,407.663727L442.742737,406.893951L442.73761,406.841156L442.689941,406.030121L442.688965,405.969635L442.703979,405.338135L442.708496,405.272217L442.782104,404.630463L442.791992,404.56839L442.924194,403.916412L442.937988,403.859772L443.128418,403.197235L443.145386,403.145386L443.394409,402.47229L443.413574,402.425873L443.721191,401.742554L443.741028,401.701569L444.106812,401.00769L444.127319,400.971191L444.551392,400.267059L444.571594,400.235352L445.037292,399.544678L445.059998,399.513306L445.557983,398.852997L445.582336,398.822296L446.112061,398.192719L446.138306,398.163269L446.700317,397.564117L446.728149,397.53595L447.32251,396.967529L447.351318,396.941284L447.977356,396.403259L448.007751,396.378601L448.666138,395.871307L448.697205,395.848572L449.387573,395.372009L449.421509,395.35025L450.230286,394.855408L450.271912,394.831726L451.088684,394.402863L451.134155,394.380768L451.958984,394.017822L452.007935,393.998291L452.840393,393.701263L452.892273,393.684937L453.732727,393.453857L453.78717,393.441071L454.635315,393.275909L454.69104,393.267273L455.54718,393.168365L455.603516,393.164215L456.467346,393.131226L456.515076,393.13092L457.114197,393.147247zM481.518616,401.385498C481.368683,401.172333,481.209686,401.172333,481.039886,401.385498C480.88089,401.591461,480.68399,401.748627,480.450928,401.860626C480.797791,402.270721,481.139252,402.742249,481.477081,403.273376C481.654114,402.816315,481.744446,402.480286,481.744446,402.26712C481.744446,401.875092,481.668579,401.582428,481.518616,401.385498zM453.767731,423.843109C453.496765,423.805176,453.243835,423.725677,453.008972,423.604645L452.658508,423.47998L453.008972,424.094238C453.234802,424.374237,453.4823,424.583801,453.755096,424.7229L454.078461,424.778931L455.160614,424.500702L455.160614,424.457336C455.151581,424.345337,455.093781,424.262238,454.990784,424.206238C454.907684,424.150238,454.728851,424.094238,454.457855,424.038208L453.767731,423.843109zM466.47702,445.012634C466.168091,444.817505,465.895325,445.054169,465.660461,445.726227L465.365997,447.026947C465.338898,447.20401,465.45993,447.334076,465.730896,447.418976C466.077789,447.520142,466.280121,447.605072,466.336121,447.670105C466.19519,446.793915,466.242188,445.908691,466.47702,445.012634zM455.301514,425.702087L455.173248,425.506958C455.117249,425.385925,455.113647,425.273926,455.160614,425.170959L453.529266,425.212494L453.796631,426.639709L455.427979,426.332581L455.301514,425.702087zM453.881561,416.934753L453.811096,416.949188C453.34137,417.135284,452.826508,417.252716,452.264648,417.297882L452.544678,418.864166L453.290802,418.990631C453.281769,418.701569,453.346802,418.50647,453.487732,418.403503C453.608765,418.318573,453.820129,418.268005,454.120026,418.249939L453.881561,416.934753zM454.484955,422.332825L454.13446,422.276794L453.767731,422.164795C453.543732,422.099762,453.281769,421.973297,452.981873,421.787231C452.850006,421.760132,452.671143,421.6427,452.447144,421.436737L452.264648,421.283173C452.244781,421.536102,452.291748,421.814331,452.405579,422.12323C452.600677,422.636322,452.877106,422.994019,453.234802,423.199951L453.867096,423.436615L454.851685,423.353516C455.066681,423.250549,455.187714,423.115051,455.216614,422.947052C455.243713,422.733856,455.202148,422.583923,455.090149,422.500824C454.996216,422.435791,454.793884,422.379791,454.484955,422.332825zM453.135437,419.772888C452.94754,419.689789,452.770508,419.639191,452.600677,419.619324C452.414612,419.610291,452.282715,419.642822,452.208649,419.716888L452.221313,419.984253L452.474213,420.668945C452.624176,420.948975,452.797607,421.167572,452.994507,421.326538L453.008972,421.297638L453.881561,421.745667L454.920349,421.704132C455.231079,421.554169,455.384613,421.33017,455.384613,421.032074C455.384613,420.799011,455.137115,420.589447,454.64032,420.403381L454.428955,420.403381C453.979095,420.309448,453.688263,420.188385,453.558167,420.038452L453.135437,419.772888zM500.820129,421.465637C500.576233,420.952576,500.487701,420.421448,500.552765,419.872253L500.5383,419.828888L496.730042,420.73761L496.504211,420.976074C496.363281,421.171173,496.312714,421.368103,496.350647,421.563202C496.41568,421.881165,496.636078,422.099762,497.01004,422.220795L500.820129,421.465637zM494.677765,419.368225C494.320038,419.424225,494.031006,419.521759,493.805176,419.660889L493.270416,420.123352L493.270416,420.137817L493.257782,420.137817L493.046417,420.193817C492.990417,420.164917,492.961487,420.067352,492.961487,419.899353L492.961487,419.884888L492.975952,419.872253L493.004852,419.816254L493.284882,419.339294C492.872986,419.386292,492.484558,419.559692,492.117828,419.857788C492.558624,420.052917,493.028351,420.450348,493.523346,421.046509C494.105072,421.736633,494.32547,422.648956,494.18457,423.787109L495.590088,423.857574C495.853851,423.810608,496.13385,423.716644,496.433746,423.577545C496.800476,423.409546,497.042572,423.22345,497.165405,423.017517L497.31897,422.724854L496.982941,422.793488L496.842041,422.751923C496.580078,422.695923,496.327148,422.533325,496.083282,422.26236L496.039917,422.29126L495.913452,422.247894C495.857452,422.182861,495.842987,422.070862,495.871918,421.913696L495.801453,421.675201C495.727386,421.339203,495.796021,421.017609,496.012817,420.71051L496.392212,420.291382L496.489746,420.220917L497.094971,420.081818C497.141937,419.913788,497.136505,419.787354,497.080505,419.704224L496.813141,419.648224C496.551178,419.648224,496.280182,419.69519,495.998352,419.787354C495.642456,419.89032,495.369659,420.043884,495.183594,420.249817L495.169128,420.262451L494.943329,420.291382C494.878296,420.253448,494.845764,420.188385,494.845764,420.094452L494.845764,420.067352C494.892731,419.899353,495.057129,419.736755,495.337158,419.577759L495.534058,419.424225L494.677765,419.368225zM454.232025,418.837067C454.044128,418.864166,453.937561,418.961731,453.908661,419.12973C453.861694,419.38266,453.955627,419.624756,454.190491,419.857788C454.490356,419.904755,454.781219,419.996887,455.061249,420.137817C455.558044,420.37085,455.807373,420.668945,455.807373,421.032074L455.751373,421.353638C455.816406,422.034729,456.016937,422.444824,456.354767,422.583923L456.340302,422.961487L456.087402,422.849487L455.596008,422.542358C455.642975,422.672455,455.652008,422.822388,455.623108,422.990417C455.596008,423.232483,455.493011,423.418579,455.314178,423.548645C455.267212,423.595612,455.240112,423.657043,455.231079,423.73111L455.272614,423.884674C455.469543,424.01474,455.57251,424.200806,455.581543,424.444702L455.637543,424.598267L455.834473,424.681366L456.748596,424.262238C457.133392,424.056274,457.442322,423.814209,457.677185,423.53418C458.22998,422.901886,458.36911,422.132263,458.098114,421.227173L457.536255,420.388916L456.860596,419.27066C456.569763,418.934631,456.130737,418.775665,455.539978,418.795532L454.232025,418.837067zM466.027191,448.817261L465.647827,449.361053C465.524963,449.557983,465.450897,449.771149,465.421997,450.004211L465.436432,450.690704C465.539429,452.82428,466.115723,454.233398,467.165344,454.912689C467.559174,455.174622,468.023468,454.755493,468.556396,453.655304C468.93219,452.900146,469.250122,452.056488,469.513885,451.124268C468.941223,451.104401,468.435364,450.941833,467.994568,450.634705C467.161743,450.047546,466.626984,449.160522,466.39212,447.977234C466.336121,448.228333,466.215088,448.508362,466.027191,448.817261zM498.726288,415.341339C500.702698,416.589691,501.663788,417.830811,501.607788,419.061096C501.598755,419.498291,501.428955,419.86142,501.101959,420.150452C501.092926,420.439514,501.143494,420.743011,501.255524,421.059174C502.025116,420.603912,502.422577,419.94632,502.451477,419.088196C502.525543,417.485748,501.425323,415.979065,499.147247,414.571747C496.401245,412.875366,492.37616,411.659546,487.072052,410.922455C485.684601,410.736359,484.344116,410.465393,483.050598,410.111298L482.882599,410.93689C484.194153,411.290985,485.549103,411.560181,486.945587,411.748047C492.173828,412.474304,496.101349,413.672058,498.726288,415.341339zM456.495667,394.701172C457.977081,394.701172,459.420532,395.022736,460.82605,395.665863C463.122223,396.72995,465.248566,398.104767,467.206879,399.792114L467.306244,399.736115C467.438141,399.680084,467.582672,399.484985,467.741638,399.148956C465.707428,397.405609,463.519653,395.992859,461.176514,394.912537C459.658997,394.213379,458.098114,393.862915,456.495667,393.862915C454.181458,393.862915,451.950317,394.567474,449.804108,395.974792C447.91983,397.205078,446.378815,398.76236,445.17926,400.644806C443.970642,402.536316,443.383514,404.317596,443.421448,405.986877C443.477448,408.205353,444.10614,409.981232,445.305725,411.314484C446.008484,412.105743,447.245972,412.9729,449.016418,413.914154C449.972107,414.427216,450.656799,414.833679,451.068695,415.131775C451.715454,415.606903,452.188782,416.132629,452.488678,416.710724L453.332367,416.515625C452.994507,415.787567,452.441711,415.131775,451.67392,414.544647C451.215027,414.199585,450.4599,413.742523,449.410278,413.173462C447.751831,412.288208,446.599243,411.486115,445.952484,410.76889C444.873932,409.574738,444.312103,407.975922,444.265137,405.972412C444.236206,404.453094,444.794464,402.807281,445.938019,401.036835C447.081573,399.264587,448.525024,397.810272,450.268402,396.67395C452.282715,395.358765,454.35849,394.701172,456.495667,394.701172zM469.499451,397.833771C468.964691,397.992737,468.520264,398.39743,468.164368,399.051392C467.770538,399.768616,467.55014,400.140778,467.503174,400.169678C467.165344,400.37381,466.841949,400.789337,466.53302,401.414429C466.318054,401.851593,466.139191,402.32312,465.998291,402.825348C465.774261,403.692505,465.871826,404.765625,466.294556,406.042877C466.509552,406.686005,466.748016,407.240631,467.01178,407.706726C467.047913,406.895569,467.306244,406.176575,467.785004,405.553284L468.740662,404.503662C468.411865,404.346497,468.117401,404.145966,467.853638,403.902069C467.526642,403.594971,467.356842,403.31131,467.347809,403.049377C467.347809,402.630249,467.447174,402.270721,467.644073,401.972656C467.924103,401.553528,468.370331,401.338531,468.979156,401.329498L470.061279,401.539063L470.960968,401.638428L471.846191,400.435242C472.353851,399.727081,472.789215,399.423553,473.154144,399.52655L474.180298,399.945679L474.911957,400.252777L475.417786,400.240143L475.76828,399.987213C476.07901,399.783081,476.270508,399.665649,476.344574,399.63855C476.561371,399.573517,476.828735,399.600616,477.146698,399.721649C477.343628,399.795715,477.699524,400.066711,478.214386,400.532806L479.002045,401.260864C479.348907,401.464996,479.672302,401.571594,479.972198,401.582428C480.328094,401.591461,480.604492,401.464996,480.801422,401.204865C481.092255,400.839935,481.260284,400.382843,481.307251,399.833649C481.345184,399.302521,481.260284,398.850891,481.054321,398.476929C480.895355,398.1698,480.674957,397.922302,480.394928,397.736206C480.478027,398.072235,480.422028,398.352264,480.225098,398.574463C479.954132,398.874359,479.616302,399.027924,479.21344,399.036957C478.810547,399.04599,478.440216,398.910492,478.102386,398.630463C477.146698,397.810272,476.490906,397.387543,476.13501,397.358643C475.85318,397.331543,475.491882,397.429108,475.052856,397.653107C474.69516,397.83017,474.424194,397.853638,474.236298,397.721771L473.645538,397.120178C473.065643,396.449921,472.653717,396.113892,472.409851,396.113892C472.146088,396.113892,471.810059,396.299988,471.396362,396.67395L471.072968,397.022614L470.680939,397.331543C470.202209,397.573639,469.80835,397.741638,469.499451,397.833771zM482.657837,411.8479L482.63739,411.906158L482.36499,412.584686L482.338074,412.64389L482.016113,413.276337L481.981567,413.336853L481.609314,413.922882L481.568054,413.981445L481.145874,414.521088L481.098511,414.576141L480.66803,415.026459L480.899109,415.167603L480.949036,415.200897L481.246704,415.418213L481.301392,415.462372L481.555237,415.688019L481.616333,415.749481L481.6698,415.817322L481.70343,415.872375L481.737671,415.882629L481.817017,415.916565L481.892273,415.959778L481.89447,415.961365L482.539734,416.228943L482.58136,416.247833L483.369995,416.634125L483.405518,416.65271L484.213013,417.10495L484.24469,417.12384L485.071106,417.64267L485.092896,417.656738L485.545776,417.963989L485.563049,417.976166L485.987122,418.282135L486.006042,418.296234L486.401001,418.600922L486.420837,418.616608L486.786987,418.919708L486.808777,418.938599L487.145447,419.240417L487.168152,419.261536L487.476074,419.562073L487.500427,419.587036L487.779175,419.886292L487.804443,419.9151L488.054138,420.213074L488.095093,420.266846L488.297668,420.559723L488.338013,420.625L488.536743,420.988586L488.562378,421.039825L488.615479,421.158234L488.649414,421.115662L488.710876,421.05484L488.779053,421.001709L488.853333,420.956909L488.932068,420.921082L489.014648,420.894836L489.099792,420.87851L489.204102,420.872406L489.499207,420.876251L489.747559,420.862823L489.967773,420.83432L490.156921,420.79303L490.326904,420.738312L490.466125,420.676208L490.587708,420.603882L490.655884,420.550751L491.162598,419.907104L491.219849,419.842438L491.284851,419.784851L491.355896,419.735565L491.401001,419.711212L491.404541,419.690094L491.429504,419.607208L491.463745,419.527832L491.507263,419.452942L491.559448,419.383789L491.619324,419.321075L491.690369,419.263153L491.969421,419.062775L492.052002,419.011261L492.339417,418.857941L492.437378,418.814728L492.733459,418.708801L492.841003,418.679352L493.145386,418.620453L493.23114,418.608917L493.317871,418.607971L493.403992,418.616943L493.488464,418.636139L493.570068,418.664948L493.647522,418.703339L493.720215,418.750702L493.786438,418.806091L493.821045,418.84256L493.923096,418.802246L493.991943,418.77887L494.222351,418.713593L494.281616,418.699493L494.536987,418.649567L494.622803,418.638062L494.72522,418.637421L495.58136,418.69342L495.66748,418.704315L495.751343,418.725098L495.832642,418.755524L495.909424,418.795532L495.980835,418.844177L496.046082,418.901154L496.10437,418.965149L496.125793,418.995575L496.261169,418.966766L496.318481,418.956848L496.520142,418.930603L496.58252,418.92514L496.780945,418.916504L496.867676,418.918121L496.963074,418.931549L497.230347,418.987549L497.314209,419.010284L497.394226,419.042603L497.470093,419.084229L497.540771,419.134796L497.604797,419.193054L497.661438,419.258331L497.709778,419.330017L497.745972,419.398834L497.778259,419.469269L497.809631,419.549927L497.836548,419.662262L497.845154,419.718597L500.36792,419.116547L500.453064,419.101501L500.53949,419.096375L500.625916,419.101837L500.710999,419.117188L500.793945,419.142792L500.8573,419.170654L500.874573,419.021179L500.873596,418.87265L500.856323,418.715179L500.822083,418.553558L500.769897,418.387115L500.697876,418.215576L500.603149,418.033142L500.488892,417.850067L500.346802,417.653534L500.187073,417.460236L499.993469,417.251221L499.783508,417.047028L499.543762,416.834808L499.279053,416.620056L498.988464,416.401764L498.669006,416.17868L498.343506,415.966156L497.84967,415.667236L497.342651,415.387817L496.790222,415.110626L496.22052,414.849792L495.605347,414.592773L494.971985,414.3508L494.301086,414.116516L493.596985,413.891846L492.86084,413.677399L492.089783,413.472229L491.296692,413.279877L490.474426,413.098724L489.611572,412.925873L488.726563,412.765839L487.799988,412.614136L486.839172,412.473297L486.836609,412.472656L485.797058,412.316467L485.773987,412.312958L484.750122,412.125732L484.727051,412.120911L483.719177,411.902954L483.69519,411.897186L482.718323,411.651062L482.657837,411.8479zM493.608246,423.255981C493.655243,422.51889,493.496246,421.931763,493.131317,421.492737C492.567657,420.831543,492.105194,420.453979,491.738434,420.360016L491.176605,421.073608C490.735779,421.465637,490.074585,421.6427,489.194794,421.604767C489.21286,422.061829,489.006897,422.612823,488.575134,423.255981L488.28064,422.276794C488.02774,421.559601,487.765778,421.026642,487.492981,420.683411C486.866089,419.89032,485.928497,419.084564,484.681946,418.262573C483.567291,417.527313,482.503204,416.967255,481.489716,416.58609L481.489716,416.571625C481.180786,416.683624,481.003754,416.766724,480.956787,416.822754C480.703857,417.120819,480.216064,417.397217,479.495239,417.648346L479.451904,417.675446L479.339874,417.718811C479.227875,417.763977,479.198975,417.881409,479.254974,418.067474C479.377838,418.39447,479.554871,419.061096,479.789734,420.067352C480.0896,421.335571,480.304596,422.462891,480.436493,423.45108C480.557526,424.421204,480.624359,425.633423,480.633392,427.085938C480.642426,427.963928,480.637024,428.690155,480.618958,429.26828L480.604492,429.616943L482.924133,429.12915L483.373993,422.20636L483.585358,422.247894L483.697357,423.758209L483.852722,426.975708C485.746033,427.477966,487.686279,427.394836,489.671722,426.722809C491.012207,426.256714,492.070862,425.684021,492.849487,425.00293L492.947052,424.934296C493.181915,424.737366,493.317383,424.583801,493.355347,424.471802C493.496246,424.061707,493.581146,423.657043,493.608246,423.255981zM458.815338,421.704132L458.759308,422.430359C458.730408,423.008484,458.603943,423.521545,458.379944,423.967773C458.107147,424.509735,457.657318,424.91983,457.030426,425.19986C456.513733,425.432892,456.266235,425.572021,456.284302,425.618988C456.434265,426.112183,457.04306,426.72821,458.112549,427.463501C459.69693,428.574554,461.53241,429.035217,463.62262,428.849152C464.081512,428.811218,464.986603,428.551056,466.336121,428.065094L468.220398,427.365936L468.811127,427.869995L467.530273,428.554688L467.656738,429.604309L470.722504,429.981873C472.259888,430.102905,473.327576,430.130005,473.927368,430.064972L474.068298,429.994507L474.153198,429.882507C474.198364,429.286346,474.218231,428.215027,474.209198,426.666809C474.189331,425.073395,474.142365,423.893707,474.068298,423.129517C473.936401,421.713165,473.725037,420.374481,473.435974,419.117096C473.389008,418.911133,473.322174,418.766632,473.239075,418.683502C473.154144,418.598602,473.022278,418.548035,472.845215,418.529968C472.433319,418.482971,471.893158,418.329437,471.228333,418.067474C470.263611,417.686279,469.52655,417.209351,469.020691,416.64209C467.344177,417.536346,465.812195,418.748566,464.424744,420.276917C463.721985,421.041107,463.192657,421.713165,462.834961,422.29126C463.022858,422.383392,463.216156,422.542358,463.411255,422.766388C463.815948,423.22345,464.034546,423.796143,464.072479,424.486267C463.837616,424.067139,463.013824,423.516113,461.599274,422.835052C460.399689,422.258728,459.4711,421.881165,458.815338,421.704132zM479.789734,415.382904L479.10141,415.787567C478.857544,416.542725,478.411316,417.140686,477.764557,417.577881C477.146698,418.007843,476.449341,418.221039,475.670715,418.221039C473.842468,418.212006,472.489319,417.238251,471.607727,415.299805C470.960968,415.588837,470.258209,415.966431,469.499451,416.432526C469.94928,416.887787,470.587006,417.279816,471.410797,417.606812C472.030457,417.848877,472.521851,417.987976,472.88678,418.025909C473.186676,418.063843,473.421539,418.161407,473.589539,418.318573C473.748505,418.468536,473.862335,418.701569,473.927368,419.017731C474.209198,420.25885,474.424194,421.615601,474.574127,423.087952C474.648193,423.870209,474.69516,425.064362,474.715027,426.666809C474.72406,428.242126,474.700592,429.327881,474.644592,429.925873C474.626526,430.074005,474.550629,430.214905,474.418762,430.345001C474.279663,430.475067,474.1297,430.549133,473.968933,430.569L470.680939,430.471466L467.700073,430.120972C467.77417,431.593353,467.761505,433.118103,467.656738,434.69342C468.547363,435.076416,469.658417,435.416077,470.989868,435.714142C472.375519,436.032104,473.604004,436.209167,474.671692,436.2453C475.721313,436.283234,477.329163,436.053772,479.495239,435.560577L482.432739,434.790985L482.826599,429.660309C482.535736,429.772308,481.818512,429.920441,480.674957,430.106537C480.487061,430.135437,480.347961,430.102905,480.254028,430.008972C480.140198,429.906006,480.095032,429.66391,480.113098,429.282715L480.113098,429.23938L480.140198,427.100372C480.122131,425.684021,480.051666,424.486267,479.930634,423.50708C479.8078,422.51889,479.592804,421.386169,479.283875,420.108917C479.077942,419.24176,478.913544,418.613068,478.79068,418.221039C478.716614,418.025909,478.711182,417.834412,478.778046,417.648346C478.843079,417.46228,478.96051,417.330383,479.12851,417.256317L479.310974,417.185852L479.325439,417.185852L480.183563,416.795654L481.068787,416.235596C480.759857,415.928467,480.333496,415.644836,479.789734,415.382904zM474.729492,436.763763C472.572449,436.763763,470.102844,436.292267,467.320709,435.351013C466.991913,438.660675,467.559174,441.372375,469.020691,443.489685L471.383698,445.796692C471.504761,445.897827,471.490295,446.029724,471.340332,446.18689C471.199432,446.345886,471.063934,446.38382,470.933868,446.29892C469.940247,445.646729,469.123657,444.841003,468.487762,443.879883L467.953003,443.265656L467.053345,444.85907C466.771515,445.829193,466.748016,446.802948,466.98288,447.782104C467.235809,448.835358,467.750671,449.641083,468.529297,450.201111C469.008057,450.53714,469.643982,450.638306,470.440674,450.50824L471.593262,450.201111L472.198486,449.977112L472.366486,449.906647C473.482941,449.449585,474.368164,448.596863,475.023956,447.348541C475.408752,446.620483,475.829712,445.422729,476.288574,443.755249C476.72937,442.123901,477.005798,440.613586,477.117798,439.224335C477.137665,439.065369,477.240631,438.949738,477.428528,438.873871C477.614594,438.808838,477.699524,438.873871,477.681458,439.07077C477.540527,440.823151,477.146698,442.752594,476.499939,444.85907C476.02121,446.472351,475.450317,447.711639,474.785492,448.578796C477.267731,448.746826,479.184509,448.177734,480.534027,446.873413C481.639648,445.800293,482.367706,444.183411,482.712769,442.020935C483.070465,439.811462,483.018066,437.560486,482.559204,435.266113C481.686646,435.631042,480.718292,435.938171,479.648804,436.18927C478.017456,436.572266,476.378906,436.763763,474.729492,436.763763zM474.897491,400.700806L473.983368,400.476807C473.618439,400.346741,473.230042,400.37381,472.816315,400.561707C472.375519,400.765839,472.001556,401.110901,471.692627,401.595062C471.551727,401.819092,471.340332,401.949158,471.060333,401.987091L470.343109,401.916656L469.076691,401.847992C468.561829,401.857025,468.238464,402.164154,468.106567,402.769348C467.976501,403.414307,468.332397,403.889435,469.176056,404.196533L469.316986,404.294098C469.382019,404.378998,469.358521,404.462128,469.246521,404.545227L468.079468,405.677948C467.470642,406.480072,467.230377,407.320129,467.362244,408.19632C467.55014,407.468262,467.826538,406.807068,468.191467,406.210876C468.65036,405.538849,468.973724,405.155853,469.161621,405.063721L469.428986,405.078156C469.484985,405.152222,469.47052,405.226288,469.387421,405.300354L469.076691,405.621948L468.473297,406.406006C468.079468,406.910034,467.741638,407.636292,467.461609,408.586548L467.573639,408.895477C467.770538,408.120453,468.070435,407.473694,468.473297,406.951599C468.76416,406.568604,469.035156,406.299408,469.288086,406.140442C469.391052,406.084412,469.461487,406.111511,469.499451,406.223541C469.537384,406.344574,469.490417,406.456573,469.358521,406.55957L468.753326,407.175598C468.53833,407.482727,468.196899,408.120453,467.727173,409.090576L467.826538,409.105042L468.065002,409.132141C468.214966,409.188141,468.247498,409.296539,468.164368,409.453705C467.553741,410.087799,467.497742,410.763458,467.994568,411.482483C468.491364,412.190674,469.152588,412.432739,469.976379,412.20874C471.045868,413.569092,472.240021,414.544647,473.562439,415.131775C473.927368,415.28894,473.912903,415.382904,473.519073,415.411804C473.136078,415.438904,472.686249,415.326904,472.169556,415.075775C472.516418,416.203094,473.435974,416.95282,474.926422,417.326782L476.471039,417.409882C476.931702,417.308716,477.170166,417.093719,477.188232,416.766724C477.058167,416.822754,476.749237,416.819122,476.261475,416.754089C475.773682,416.687256,475.535217,416.61319,475.54425,416.53006L476.429474,416.44516C477.226196,416.343994,478.08432,415.998932,479.002045,415.411804C480.595459,414.403717,481.654114,412.902466,482.17984,410.90799C482.685669,409.007477,482.600769,407.132233,481.92691,405.28772C481.477081,404.113434,480.810425,403.002411,479.930634,401.959991C479.563904,401.959991,479.171875,401.828125,478.749146,401.567963L477.919922,400.827271C477.414063,400.350342,477.085266,400.084778,476.935333,400.028778C476.738403,399.963745,476.490906,400.016113,476.19101,400.184143L475.74118,400.491241C475.488251,400.659271,475.206421,400.727905,474.897491,400.700806zM469.75235,408.573883L469.596985,408.754547C469.484985,408.90451,469.434418,409.020111,469.44342,409.105042C469.452454,409.206207,469.400085,409.262207,469.288086,409.273041C469.176056,409.282074,469.114624,409.217041,469.105591,409.076111C469.096558,408.955078,469.143555,408.806946,469.246521,408.629883L469.540985,408.308319C469.634949,408.241486,469.710815,408.25592,469.766815,408.349884C469.831848,408.432983,469.826416,408.50705,469.75235,408.573883zM469.64035,407.287598C469.705383,407.370697,469.681915,407.464661,469.569885,407.565826L469.52655,407.609192L469.091156,408.013855L468.726227,408.559448C468.59433,408.774414,468.51123,408.828613,468.473297,408.727448C468.444397,408.662415,468.473297,408.530548,468.556396,408.335419L468.823792,407.818756C469.002625,407.565826,469.203156,407.370697,469.428986,407.231598C469.513885,407.193665,469.584351,407.211731,469.64035,407.287598zM477.582092,412.907867L477.681458,412.725403C477.74649,412.669403,477.822357,412.642303,477.905457,412.642303L478.158386,412.656769L479.10141,412.613403C479.184509,412.60437,479.231476,412.618835,479.240509,412.656769L479.15741,412.768768L478.73468,413.090332C478.501617,413.229462,478.219818,413.270996,477.890991,413.214996C477.685059,413.178864,477.582092,413.075897,477.582092,412.907867zM478.299286,402.308685C478.299286,402.214722,478.331818,402.146088,478.398651,402.099121C478.454651,402.061157,478.528717,402.061157,478.622681,402.099121L479.789734,402.603149C479.874634,402.639282,479.916199,402.677216,479.916199,402.713348L479.760803,402.769348L478.637115,402.895813L478.398651,402.825348C478.331818,402.769348,478.299286,402.691681,478.299286,402.588684L478.299286,402.308685zM471.972656,404.462128C471.86969,404.238098,471.98349,403.880402,472.310486,403.385406L472.816315,402.713348C472.872314,402.668182,472.939178,402.648315,473.013245,402.659149C473.089111,402.659149,473.148743,402.691681,473.195709,402.756714L473.435974,402.980713C473.585938,403.146912,473.65097,403.258942,473.632904,403.314941L473.379974,403.468506L472.88678,403.777435L472.339386,404.210999C472.151489,404.368164,472.030457,404.453094,471.972656,404.462128zM473.898468,405.23172C474.030334,405.388885,474.118866,405.60025,474.165833,405.860413C474.212799,406.122375,474.209198,406.350006,474.153198,406.545105C474.086365,406.751038,473.983368,406.866669,473.842468,406.895569C473.703369,406.913635,473.56604,406.843201,473.435974,406.686005C473.295074,406.518005,473.201111,406.308441,473.154144,406.055511C473.107178,405.79538,473.116211,405.565948,473.183044,405.370819C473.248108,405.166687,473.351074,405.049255,473.491974,405.022156C473.632904,404.993256,473.768402,405.063721,473.898468,405.23172zM480.154663,405.063721C480.20163,405.323853,480.192596,405.553284,480.127563,405.748413C480.060699,405.954346,479.957733,406.069977,479.816833,406.098877C479.686737,406.125977,479.55127,406.055511,479.410339,405.887512C479.278473,405.730347,479.189941,405.520782,479.142975,405.25882C479.096008,405.00769,479.105042,404.778259,479.171875,404.574127C479.236908,404.368164,479.334473,404.252563,479.466339,404.223633C479.607269,404.205566,479.742737,404.276031,479.874634,404.435028C480.013733,404.601227,480.107666,404.812592,480.154663,405.063721zM476.443939,405.03479L476.402374,404.839691L476.458374,404.742126C476.552338,404.713226,476.649872,404.774658,476.752869,404.922791L477.484528,405.943512L478.272186,406.742004L478.805145,407.231598L478.917145,407.426727C478.937012,407.52066,478.927979,407.598328,478.890045,407.663391L478.411316,408.671448C478.272186,408.90451,478.05542,408.969543,477.764557,408.866547C477.690491,408.857513,477.63446,408.825012,477.596527,408.769012L477.610992,408.586548L478.017456,407.83139C478.102386,407.663391,478.087921,407.506195,477.975922,407.356262L477.217163,406.350006C476.9263,405.939911,476.667938,405.500885,476.443939,405.03479zM474.883057,409.117676C474.911957,409.137543,474.915558,409.184509,474.897491,409.258575L474.798157,409.719269C474.78009,409.795135,474.80899,409.8638,474.883057,409.928833L475.121521,410.055298C476.462006,410.326263,477.446594,410.447327,478.075287,410.418396C478.467316,410.40033,479.007477,410.282928,479.690369,410.069733L480.590027,409.762634L480.774323,409.636169L480.815857,409.41214L480.774323,409.217041L480.786957,409.076111C480.815857,409.058044,480.857422,409.076111,480.913422,409.132141L481.533081,409.677704L481.645081,409.872833L481.630615,410.111298L481.180786,411.117554L481.083221,411.215118L481.027222,411.104919L481.012787,410.963989L480.900757,410.79599C480.844757,410.76889,480.783356,410.76889,480.718292,410.79599L479.916199,411.453583C479.26944,411.901611,478.660614,412.170807,478.087921,412.26474C477.517029,412.358673,476.725769,412.20874,475.71228,411.816711L474.362762,411.202454L474.124298,411.244019L473.968933,411.397583L474.053833,412.026276C474.026733,412.102142,473.9888,412.134674,473.941833,412.125641L473.842468,412.013611L473.392609,410.810425C473.327576,410.633392,473.369141,410.483459,473.519073,410.362396L474.742126,409.161041C474.80899,409.114075,474.855957,409.099609,474.883057,409.117676zM476.852234,411.677612C477.1521,411.733612,477.544128,411.733612,478.031921,411.677612C478.510651,411.621582,478.87561,411.533081,479.12851,411.412018L480.745392,410.559326C480.868256,410.51236,480.942322,410.394928,480.971222,410.208862C480.980255,410.022766,480.871857,409.961334,480.647858,410.028198L479.733704,410.335297L477.990356,410.698425C477.249664,410.754425,476.265076,410.638824,475.038422,410.349762L474.729492,410.335297C474.588593,410.34433,474.465729,410.405762,474.362762,410.515961C474.259766,410.62796,474.245331,410.736359,474.321198,410.837524L474.588593,411.005554C475.694214,411.38855,476.449341,411.612549,476.852234,411.677612zM455.752014,395.463226L455.017151,395.548981L454.286133,395.691742L453.555115,395.894012L452.831116,396.152649L452.110962,396.470123L451.385376,396.850708L450.668152,397.287903L450.061646,397.705902L449.481995,398.152405L448.924744,398.630554L448.400513,399.131134L447.894775,399.668518L447.424622,400.224487L446.976501,400.813721L446.554688,401.432404L446.171875,402.059723L445.847046,402.665619L445.574951,403.257721L445.355713,403.834167L445.190918,404.389801L445.076965,404.927185L445.012939,405.451752L444.99823,405.963226L445.036316,406.63504L445.119202,407.276123L445.24469,407.871765L445.412354,408.427704L445.623596,408.950043L445.871643,409.424713L446.163574,409.868622L446.499634,410.281189L446.723999,410.511658L447.005005,410.763214L447.337585,411.02887L447.7229,411.308929L448.151489,411.595062L448.636719,411.896545L449.16864,412.20575L450.142273,412.739594L450.148376,412.743134L450.500427,412.940613L450.508118,412.944763L450.832642,413.131989L450.841309,413.137115L451.138,413.313812L451.147888,413.319885L451.417114,413.485992L451.428955,413.493347L451.670593,413.648895L451.686279,413.659454L451.899719,413.804779L451.916687,413.81662L452.102661,413.95105L452.132446,413.973755L452.410217,414.197174L452.439026,414.221497L452.697021,414.45163L452.72583,414.478821L452.963318,414.715027L452.992737,414.746094L453.210083,414.989014L453.238892,415.023254L453.436035,415.272919L453.463867,415.310669L453.640869,415.566711L453.667114,415.607361L453.82428,415.870453L453.848633,415.914948L453.985291,416.184448L453.997131,416.211975L454.077454,416.229248L454.159424,416.257416L454.237488,416.294861L454.310486,416.341278L454.377686,416.395996L454.4375,416.458435L454.48999,416.527557L454.533875,416.602142L454.56842,416.681519L454.602051,416.804413L454.834106,418.084991L455.516785,418.063538L455.54303,418.063232L455.757446,418.064178L455.818604,418.067047L456.018616,418.084656L456.086792,418.093933L456.273071,418.128204L456.349915,418.146423L456.52179,418.197632L456.601501,418.226776L456.759583,418.294617L456.841858,418.336243L456.985535,418.420746L457.06427,418.474182L457.194214,418.575317L457.264954,418.638062L457.381165,418.755524L457.438416,418.820801L457.487427,418.891876L458.15509,419.99704L458.706238,420.819611L458.750061,420.894196L458.784973,420.973572L458.847046,420.97229L458.933167,420.981232L459.021179,421.001404L459.279785,421.077271L459.305359,421.085266L459.5896,421.179993L459.609436,421.186707L459.91925,421.300018L459.935608,421.306427L460.270996,421.438293L460.285706,421.444061L460.646423,421.594788L460.658264,421.599915L461.044617,421.769562L461.054871,421.774048L461.466431,421.962219L461.475098,421.9664L461.912292,422.173157L461.924438,422.178925L462.103027,422.267578L462.108826,422.193634L462.125427,422.108826L462.152039,422.026245L462.187866,421.94751L462.224976,421.885406L462.525513,421.434143L462.549194,421.400513L462.914063,420.914337L462.934875,420.887787L463.364746,420.36673L463.38269,420.346222L463.877136,419.790283L463.891907,419.773956L464.419006,419.215759L464.439514,419.195282L464.980103,418.666534L465.001892,418.645721L465.555908,418.146759L465.57959,418.126587L466.1474,417.657379L466.172363,417.637543L466.753601,417.19809L466.77948,417.179199L467.374512,416.769196L467.402039,416.751282L468.010132,416.371368L468.038635,416.354401L468.660522,416.003937L468.738281,415.965851L468.820251,415.937347L468.904724,415.918793L468.986023,415.910461L468.993347,415.902802L469.059326,415.846771L469.123657,415.803558L469.682129,415.470398L469.70105,415.459839L470.23877,415.160248L470.259216,415.149048L470.775818,414.882416L470.799805,414.870575L471.295288,414.637268L471.333374,414.622223L471.229004,414.542206L471.194458,414.513702L470.752136,414.13028L470.720093,414.101166L470.289978,413.681244L470.262085,413.652435L469.843445,413.196655L469.818481,413.168182L469.683105,413.004608L469.436035,413.02063L469.320496,413.019012L469.049683,412.993744L468.927429,412.971649L468.672058,412.902832L468.551392,412.858673L468.31134,412.746002L468.203796,412.683899L467.979065,412.527405L467.892029,412.45636L467.682373,412.256317L467.615173,412.182709L467.421204,411.939117L467.365845,411.859436L467.205505,411.591858L467.156189,411.493927L467.047729,411.230194L467.009644,411.107605L466.952942,410.848022L466.939514,410.762573L466.93634,410.705597L466.931519,410.450195L466.934753,410.36377L466.943665,410.301666L466.990723,410.05011L467.011841,409.966248L467.031067,409.91217L467.13031,409.664764L467.176025,409.573853L467.174805,409.572266L467.121643,409.503754L467.083557,409.440399L467.023376,409.379578L466.96991,409.311401L466.92511,409.237152L466.88446,409.145294L466.772461,408.836426L466.747803,408.75354L466.733093,408.668396L466.728577,408.581665L466.729858,408.564362L466.715454,408.541016L466.679321,408.46228L466.652771,408.380005L466.646057,408.341614L466.575317,408.295532L466.509033,408.239838L466.449524,408.176788L466.39801,408.10733L466.363403,408.048431L466.17041,407.682281L466.153137,407.6474L465.969116,407.247955L465.955017,407.215302L465.780579,406.782898L465.77002,406.75473L465.604248,406.289032L465.593689,406.257355L465.450256,405.787811L465.440369,405.751343L465.327698,405.300995L465.318726,405.261322L465.236145,404.830505L465.22876,404.78476L465.176636,404.372833L465.172119,404.321289L465.150391,403.928589L465.149414,403.870972L465.158081,403.497437L465.162231,403.434723L465.200928,403.080719L465.211487,403.012878L465.280334,402.678101L465.296936,402.612152L465.409973,402.241211L465.420166,402.210785L465.546936,401.851685L465.558777,401.819672L465.699585,401.473053L465.713379,401.442017L465.867615,401.107544L465.889709,401.063354L466.124023,400.634155L466.162415,400.571442L466.402466,400.220642L466.463257,400.143829L466.471924,400.134216L465.995667,399.737671L465.270386,399.174347L464.511536,398.625763L463.740479,398.10791L462.966248,397.626221L462.157166,397.161163L461.351868,396.735138L460.518738,396.331543L460.025513,396.120636L459.533569,395.939484L459.02887,395.783295L458.528931,395.657806L458.023865,395.55957L457.520081,395.490112L457.010498,395.448181L456.498718,395.434418L455.752014,395.463226z"/>
</svg>
