<?xml version="1.0" encoding="UTF-8"?>
<svg xmlns="http://www.w3.org/2000/svg" xmlns:xlink="http://www.w3.org/1999/xlink" width="38.860mm" height="59.643mm" viewBox="-400.274780 83.495285 38.859528 59.642654">
    <path transform="matrix(-1,0,0,1,0,0)" style="stroke:none;fill:#000000;fill-rule:evenodd" d="M371.320862,83.499405L371.376221,83.505157L371.43158,83.517715L371.5466,83.551041L371.614288,83.576355L371.748657,83.638916L371.790649,83.661133L371.94458,83.752701L371.973175,83.771011L372.146423,83.8918L372.166168,83.906418L372.358795,84.056213L372.373383,84.068146L372.585327,84.246964L372.596649,84.256851L372.814575,84.452942L373.351013,84.873947L373.48291,84.892685L373.517883,84.874985L373.632935,84.807083L373.783966,84.708511L373.805573,84.695145L373.987885,84.589783L374.00824,84.578674L374.169983,84.495544L374.199402,84.48175L374.34079,84.421051L374.382538,84.405411L374.50354,84.366516L374.567535,84.350876L374.883392,84.296356L374.938538,84.289978L375.00769,84.291412L375.145355,84.304382L375.223328,84.318375L375.394928,84.364456L375.44165,84.379898L375.647217,84.458908L375.677673,84.471664L375.917175,84.583603L375.938599,84.594315L376.212067,84.73938L376.226868,84.747604L376.534515,84.9254L376.546631,84.932602L376.888031,85.143723L376.896667,85.149277L377.265198,85.38858L377.392792,85.463898L377.514374,85.520905L377.628601,85.56102L377.741547,85.58757L377.853302,85.601151L377.966461,85.602173L378.082947,85.590042L378.196533,85.565964L378.351471,85.511429L378.479462,85.439407L378.593048,85.345383L378.698608,85.222122L378.717529,85.19104L378.733795,85.154221L378.745514,85.113876L378.751495,85.073547L378.752319,85.02684L378.746552,84.971085L378.731934,84.903992L378.701263,84.808517L378.687286,84.754608L378.679871,84.699463L378.678864,84.643906L378.684601,84.588547L378.696747,84.534225L378.715271,84.481552L378.739746,84.431747L378.77002,84.38504L378.805603,84.342239L378.845947,84.303757L378.890594,84.27063L378.938934,84.242859L378.98999,84.22084L379.043488,84.2052L379.098419,84.195938L379.153961,84.193054L379.209534,84.19696L379.264282,84.20726L379.317352,84.223923L379.391235,84.259933L379.595978,84.38237L379.646179,84.416931L379.834045,84.565292L379.87851,84.605209L380.049072,84.779297L380.086121,84.822098L380.23941,85.021698L380.257721,85.047211L380.345184,85.178284L380.365967,85.212646L380.442719,85.352173L380.460205,85.387146L380.526276,85.535095L380.540253,85.570282L380.595612,85.727081L380.606323,85.761032L380.65097,85.92627L380.658569,85.959396L380.692322,86.13327L380.697052,86.163528L380.720306,86.346039L380.723175,86.375061L380.735535,86.566223L380.736572,86.59523L380.737183,86.794006L380.736359,86.823013L380.725037,87.015625L380.722168,87.046494L380.698914,87.232498L380.693756,87.265015L380.658386,87.444656L380.650543,87.477997L380.635315,87.53334L380.643158,87.536026L380.737183,87.573059L380.787598,87.596512L380.83493,87.625732L380.871948,87.654541L380.964355,87.734177L381.004272,87.773071L381.035553,87.810928L381.126099,87.933365L381.163757,87.993042L381.244415,88.145309L381.269104,88.200043L381.332672,88.3694L381.348724,88.421036L381.395233,88.607468L381.40451,88.655624L381.433319,88.859543L381.437622,88.904816L381.441345,88.98938L381.441528,89.023132L381.438873,89.119217L381.437408,89.145569L381.428375,89.253387L381.425903,89.275192L381.410248,89.394348L381.407776,89.411209L381.385773,89.542084L381.383087,89.556702L381.354492,89.698883L381.35202,89.710403L381.317047,89.864319L381.314362,89.875229L381.272614,90.040665L381.25592,90.093765L381.23288,90.144577L381.204071,90.192123L381.169922,90.236145L381.130829,90.275665L381.089264,90.30899L381.144409,90.384109L381.156342,90.401184L381.414368,90.788239L381.425903,90.806351L381.663361,91.200195L381.674255,91.21933L381.891144,91.620178L381.901428,91.640335L382.05658,91.963394L382.063782,91.979248L382.205566,92.304565L382.212372,92.320816L382.340759,92.648621L382.346924,92.665283L382.462158,92.995544L382.467926,93.012833L382.569794,93.345566L382.574707,93.363266L382.662994,93.698059L382.667328,93.715958L382.742432,94.053421L382.746124,94.071121L382.808075,94.410843L382.810944,94.429565L382.859314,94.771561L382.861572,94.789871L382.896545,95.134338L382.89798,95.152237L382.9198,95.498962L382.920624,95.517273L382.929047,95.866272L382.92926,95.884171L382.924316,96.235626L382.923706,96.253326L382.905396,96.60704L382.904175,96.624329L382.872681,96.980316L382.870819,96.997604L382.825775,97.356049L382.82309,97.374771L382.761353,97.744751L382.757843,97.763275L382.682739,98.123367L382.678223,98.142715L382.589752,98.492935L382.584381,98.512482L382.482544,98.852829L382.475952,98.872787L382.360931,99.203049L382.353302,99.223434L382.224915,99.54361L382.216278,99.56398L382.074493,99.874481L382.064606,99.894867L381.909454,100.195282L381.898346,100.215454L381.729828,100.505997L381.717468,100.525955L381.535583,100.806427L381.522614,100.825562L381.327545,101.096161L381.313354,101.114883L381.104889,101.375595L381.089661,101.393692L380.867859,101.644333L380.85199,101.661209L380.818451,101.695572L380.932251,101.741455L380.962494,101.755035L381.349152,101.943527L381.375488,101.957306L381.767273,102.179947L381.790924,102.194351L382.187469,102.451569L382.232117,102.484497L382.272858,102.522568L382.308655,102.565155L382.339325,102.611664L382.364227,102.661453L382.375122,102.692322L382.403717,102.694168L382.458466,102.704468L382.511536,102.72113L382.562378,102.743973L382.610107,102.772568L382.646729,102.80014L382.9552,103.058182L382.96817,103.069504L383.287933,103.35759L383.299042,103.368073L383.629913,103.686203L383.639374,103.695663L383.981567,104.043823L383.990021,104.052475L384.343323,104.430679L384.350311,104.438293L384.714935,104.846344L384.72113,104.853546L385.096863,105.291626L385.102417,105.298218L385.489258,105.766342L385.494812,105.773132L388.004822,108.926575L388.377258,109.348419L388.760223,109.756454L389.161041,110.158539L389.576111,110.550125L390.010284,110.936142L390.44693,111.30159L390.908661,111.666016L391.368378,112.007599L393.01947,113.052917L393.064758,113.085434L393.105682,113.123093L393.141083,113.164032L393.227112,113.116913L393.267029,113.097366L393.7547,112.88768L393.79422,112.872864L394.314392,112.702484L394.368103,112.688293L394.431885,112.680054L395.962219,112.585403L396.135071,112.556595L396.286713,112.510498L396.42807,112.445892L396.563477,112.360092L396.691895,112.253296L396.816376,112.120972L396.935516,111.961914L397.055267,111.763763L397.128723,111.628983L397.261871,111.358185L397.264343,111.353043L397.39151,111.102005L397.394806,111.095825L397.510223,110.876068L397.514954,110.867218L397.61908,110.678726L397.624847,110.668442L397.717041,110.511017L397.726898,110.49498L397.807587,110.369034L397.823425,110.345795L397.892548,110.250931L397.924866,110.211426L397.982697,110.147842L398.0224,110.108948L398.058411,110.08075L398.154297,110.01265L398.201416,109.983215L398.256348,109.957703L398.359039,109.917786L398.411926,109.900711L398.480042,109.888351L398.589081,109.876831L398.644867,109.874161L398.705963,109.879105L398.821411,109.895767L398.875946,109.906876L398.916687,109.919846L399.038696,109.964706L399.109283,109.997421L399.237885,110.070679L399.287903,110.103592L399.422668,110.205048L399.457642,110.234055L399.599213,110.363693L399.61795,110.381805L399.734222,110.500732L399.760956,110.530563L399.862823,110.654236L399.88855,110.688599L399.9758,110.816803L399.999847,110.855896L400.07251,110.988831L400.093079,111.03183L400.151093,111.169495L400.167572,111.214966L400.210999,111.357162L400.222717,111.404068L400.251526,111.551193L400.258301,111.59729L400.272705,111.748947L400.27478,111.798126L400.273132,111.96048L400.27005,112.009659L400.251099,112.173859L400.2435,112.219543L400.207489,112.386017L400.196167,112.428604L400.142883,112.596924L400.129089,112.634796L400.058502,112.805374L400.04306,112.838715L399.9552,113.011551L399.939148,113.040771L399.834015,113.215683L399.817352,113.241409L399.694702,113.418365L399.678864,113.439972L399.557861,113.594925L399.533997,113.623108L399.397369,113.772293L399.373505,113.79657L399.221436,113.940201L399.197144,113.961609L399.029449,114.099472L399.006195,114.117371L398.822845,114.249893L398.800201,114.26532L398.601227,114.392288L398.580048,114.405045L398.365631,114.526443L398.345673,114.537155L398.115601,114.653198L398.094208,114.663284L397.770111,114.806702L397.7724,114.808563L397.779602,114.814316L398.066437,115.044174L398.075897,115.051788L398.324463,115.261673L398.336395,115.272156L398.546509,115.462097L398.561523,115.476288L398.733551,115.646057L398.753906,115.667664L398.887451,115.817245L398.915253,115.851212L399.010712,115.980637L399.049408,116.04277L399.106415,116.152252L399.13562,116.22139L399.196747,116.405548L399.213196,116.469757L399.245087,116.645477L399.252716,116.722641L399.255188,116.88974L399.252716,116.945297L399.248596,116.974518L399.222046,117.13295L399.209686,117.187271L399.198578,117.220413L399.142426,117.370422L399.119995,117.421234L399.104767,117.448608L399.019562,117.589767L398.972656,117.654175L398.858032,117.786896L398.809052,117.835876L398.665009,117.959946L398.608643,118.001724L398.424072,118.117981L398.378998,118.142883L398.195862,118.231979L398.141113,118.254608L397.959625,118.316147L397.89563,118.332809L397.817444,118.347626L397.813751,118.400513L397.806122,118.443726L397.781433,118.553604L397.756348,118.632202L397.707977,118.74765L397.678345,118.806702L397.606323,118.927689L397.576904,118.971115L397.481018,119.097656L397.455078,119.128937L397.335724,119.261047L397.3125,119.285126L397.169281,119.422577L397.138824,119.449524L397.038818,119.530197L396.998077,119.559616L396.897644,119.624237L396.846405,119.652832L396.745575,119.701187L396.683441,119.725677L396.582214,119.757568L396.513275,119.773819L396.411621,119.789673L396.337952,119.795227L396.235901,119.795013L396.170044,119.789459L396.168182,119.821365L396.161621,119.862717L396.132813,120.003052L396.118408,120.056961L396.097809,120.108612L396.083405,120.136597L396.009552,120.269943L395.979706,120.317062L395.94101,120.363983L395.822083,120.490738L395.781738,120.529007L395.756653,120.548553L395.592651,120.668518L395.548187,120.69754L395.458496,120.748764L395.393036,120.779633L395.296143,120.816681L395.230499,120.836426L395.12616,120.85968L395.061768,120.869354L394.950012,120.878403L394.893219,120.879639L394.774292,120.874908L394.723267,120.870178L394.596924,120.851242L394.553925,120.842606L394.42038,120.809677L394.384369,120.799393L394.243408,120.752472L394.213165,120.741165L394.065002,120.680252L394.063354,120.679428L394.053467,120.694443L394.012115,120.742188L393.981873,120.772842L393.940521,120.810089L393.89502,120.842392L393.846069,120.868744L393.794403,120.889313L393.743164,120.903107L393.694,120.913391L393.638855,120.921616L393.583282,120.923264L393.526917,120.918121L393.459015,120.907837L393.404694,120.896317L393.373413,120.886429L393.286163,120.855774L393.248901,120.840958L392.861023,120.66626L392.816162,120.643204L392.436737,120.420776L392.39743,120.394852L392.026642,120.124252L391.9935,120.097717L391.63092,119.779388L391.610779,119.760651L391.480316,119.631851L391.438751,119.652634L391.386261,119.671555L391.332153,119.684113L391.276794,119.690277L391.221039,119.689865L391.165894,119.682663L391.111969,119.669296L391.038727,119.63945L388.32666,118.25502L388.304413,118.242889L387.948456,118.036285L387.942474,118.032791L387.600281,117.827438L387.593903,117.823318L387.2659,117.619186L387.258698,117.614868L386.944885,117.411774L386.937683,117.40683L386.637878,117.204773L386.630463,117.199631L386.344666,116.998993L386.336212,116.993027L386.064819,116.793427L386.056366,116.787048L385.798737,116.588486L385.789886,116.581482L385.546478,116.384354L385.536591,116.376129L385.307373,116.180023L385.297485,116.171387L385.082245,115.976517L385.07135,115.966431L384.8703,115.772598L384.859406,115.761688L384.672363,115.569092L384.660614,115.556534L384.487793,115.365173L384.476044,115.351593L384.429962,115.296234L384.426239,115.449326L384.421722,115.504898L384.410614,115.559418L384.393127,115.612305L384.369446,115.66272L384.340027,115.710052L384.325439,115.728561L384.330353,115.73494L384.358978,115.782684L384.381805,115.833511L384.398468,115.886597L384.407745,115.934128L384.48407,116.471405L384.48468,116.47551L384.548065,116.95105L384.548676,116.956192L384.599091,117.369598L384.599915,117.376999L384.637177,117.728256L384.637787,117.734833L384.651764,117.887314L384.652405,117.894302L384.662903,118.031143L384.663513,118.038559L384.670929,118.159958L384.671326,118.170242L384.675446,118.276215L384.675842,118.290207L384.676666,118.380554L384.676483,118.399063L384.674194,118.473755L384.672363,118.503601L384.666809,118.562866L384.659393,118.612457L384.650543,118.656082L384.636353,118.709778L384.615753,118.761642L384.589233,118.810608L384.571106,118.837982L384.44931,119.006912L384.419037,119.044373L384.260406,119.222763L384.23468,119.249527L384.077667,119.400146L384.093933,119.402618L384.147644,119.417435L384.19928,119.438416L384.248047,119.465378L384.293121,119.497894L384.334259,119.535339L384.370483,119.577515L384.40155,119.623825L384.427063,119.673203L384.446411,119.725464L384.456299,119.762924L385.365601,123.929169L385.366821,123.934738L385.713776,125.620819L385.714172,125.622879L385.932495,126.708527L385.932922,126.710999L386.115234,127.643555L386.115845,127.646851L386.26236,128.426315L386.263184,128.43042L386.340942,128.865219L386.341766,128.869949L386.484802,129.718353L386.485199,129.721237L386.60907,130.48526L386.609497,130.48732L386.821442,131.834915L386.821838,131.836975L387.064667,133.426147L387.06485,133.427795L387.338531,135.258957L387.338745,135.259979L387.643494,137.332932L387.648224,137.388489L387.646362,137.444046L387.638153,137.498978L387.623535,137.552689L387.602539,137.60434L387.583801,137.638077L387.637329,137.624496L387.692474,137.617096L387.74823,137.616074L387.803589,137.621826L387.859131,137.634384L388.301331,137.762787L388.303802,137.763397L388.700745,137.88089L388.703827,137.881927L389.055695,137.988724L389.059814,137.98996L389.366425,138.086044L389.371765,138.087692L389.633087,138.173096L389.640717,138.175766L389.856781,138.250458L389.867249,138.254166L390.038452,138.317947L390.0578,138.325775L390.183533,138.379074L390.223663,138.398209L390.358856,138.471252L390.373871,138.479889L390.489929,138.548218L390.509277,138.56015L390.606598,138.623932L390.631073,138.64122L390.709473,138.700073L390.744476,138.728882L390.803925,138.783203L390.850861,138.832794L390.891388,138.882385L390.924103,138.927658L390.950226,138.974564L390.972046,139.019424L390.993439,139.070877L391.008667,139.124374L391.018341,139.191864L391.02124,139.232193L391.021851,139.28775L391.016083,139.343109L391.003723,139.39743L390.986877,139.445374L390.970398,139.485291L390.946136,139.535294L390.91629,139.582214L390.88089,139.625214L390.824524,139.677078L390.775116,139.715546L390.729248,139.747238L390.676575,139.774612L390.594452,139.811035L390.540955,139.830994L390.426331,139.865967L390.374298,139.878723L390.231262,139.905075L389.801636,140.00322L389.782898,140.007126L389.340271,140.089645L389.322174,140.092728L388.878326,140.157547L388.859192,140.159821L388.41391,140.206314L388.395172,140.207962L387.948853,140.236771L387.929932,140.237595L387.482178,140.248291L387.463226,140.248505L387.014038,140.241302L386.995728,140.240479L386.545288,140.215576L386.516876,140.213318L386.208038,140.177505L386.19693,140.176071L385.876129,140.131012L385.865417,140.129364L385.532471,140.074829L385.52301,140.073181L385.177948,140.009399L385.168884,140.007538L384.811859,139.93428L384.80365,139.932434L384.434479,139.849716L384.42688,139.848068L384.045563,139.756088L384.039185,139.75444L383.874176,139.712265L383.672516,139.936142L383.632996,139.975235L383.588959,140.009399L383.541229,140.038208L383.490601,140.06105L383.437531,140.077911L383.382782,140.088211L383.315491,140.092117L383.091003,140.088821L383.075775,140.088211L382.871246,140.078537L382.852722,140.077301L382.667938,140.061249L382.645081,140.058777L382.480286,140.036346L382.452087,140.031616L382.307007,140.002808L382.270599,139.993958L382.145477,139.958572L382.099792,139.94313L381.994659,139.901367L381.937256,139.873993L381.851837,139.825851L381.804932,139.795593L381.776123,139.772552L381.64093,139.656296L381.6008,139.617599L381.553284,139.55629L381.450806,139.398865L381.423218,139.35051L381.401215,139.298447L381.331238,139.099884L381.31601,139.046387L381.310059,139.015518L381.272797,138.775787L381.26767,138.720444L381.26889,138.664886L381.276703,138.609741L381.291107,138.555832L381.311493,138.504181L381.313538,138.500473L381.279388,138.471054L381.239471,138.432159L381.204498,138.388947L381.174652,138.341827L381.150787,138.291611L381.126495,138.212601L381.010254,137.666061L380.89624,137.139297L380.783478,136.626099L380.67276,136.131424L380.563934,135.653412L380.564117,135.653412L380.45755,135.19455L380.457336,135.19455L380.351349,134.74823L380.351563,134.74823L380.248474,134.322906L380.24826,134.322906L380.145996,133.909912L380.04599,133.516479L379.948669,133.142807L379.851349,132.780029L379.756683,132.436798L379.756897,132.436798L379.664093,132.111267L379.57312,131.802612L379.484039,131.511032L379.365295,131.146606L379.238739,130.771698L379.238556,130.771698L379.100067,130.375168L378.955811,129.974747L378.800262,129.554352L378.800446,129.554352L378.638733,129.129227L378.467316,128.688263L378.467102,128.688263L378.2854,128.231857L377.704102,126.849075L377.218689,127.686981L376.783081,128.488251L376.368256,129.272446L375.978729,130.031326L375.978912,130.031326L375.606262,130.78096L375.606049,130.78096L375.261597,131.498688L374.936676,132.202637L374.63092,132.893204L374.355988,133.544678L373.024445,137.246292L372.689056,138.206833L372.687408,138.211365L372.488617,138.763245L372.486969,138.767975L372.380402,139.054001L372.377716,139.060989L372.291504,139.281586L372.286774,139.293304L372.221313,139.448257L372.213104,139.46637L372.187988,139.519455L372.175232,139.544556L372.155273,139.580978L372.123779,139.630981L372.109192,139.651154L372.073792,139.694153L372.033661,139.732834L371.98941,139.766373L371.927063,139.801559L371.820892,139.851151L371.776642,139.869064L371.661224,139.909393L371.662872,139.911865L371.688599,139.961243L371.708557,140.013092L371.722137,140.067215L371.726868,140.096436L371.758148,140.345001L371.761841,140.410858L371.758545,140.635345L371.750305,140.716217L371.71225,140.91684L371.698669,140.970764L371.685303,141.007797L371.612854,141.184357L371.588593,141.234558L371.570465,141.264389L371.488586,141.388885L371.463257,141.42366L371.361816,141.550827L371.338562,141.577988L371.217773,141.707825L371.196594,141.729233L371.056671,141.861542L371.036896,141.879028L370.877441,142.013809L370.860779,142.02739L370.682159,142.164856L370.666718,142.176163L370.468781,142.316086L370.455383,142.325348L370.238098,142.467957L370.220215,142.479065L369.947968,142.640793L369.922668,142.654785L369.65741,142.791016L369.626953,142.805206L369.3685,142.915512L369.334351,142.92868L369.083099,143.013458L369.042969,143.024979L368.798523,143.08403L368.753448,143.092682L368.516205,143.126007L368.4664,143.130325L368.235931,143.137939L368.182251,143.136505L367.958984,143.118393L367.923584,143.114273L367.746429,143.086288L367.719666,143.081146L367.553406,143.044937L367.524994,143.037933L367.369232,142.993698L367.337555,142.983414L367.192688,142.930939L367.158539,142.917145L367.024567,142.856445L366.990204,142.838959L366.866943,142.770432L366.830322,142.748001L366.71756,142.671051L366.680939,142.643265L366.579285,142.558289L366.544922,142.526596L366.453766,142.433594L366.421051,142.396545L366.34079,142.295303L366.312592,142.2556L366.243042,142.146332L366.218964,142.103729L366.160339,141.986237L366.141815,141.944061L366.093872,141.818542L366.080078,141.776764L366.042847,141.643021L366.033569,141.602676L366.007233,141.460907L366.001892,141.423874L365.986237,141.274063L365.984192,141.200806L365.988312,141.120773L365.996124,141.056152L366.015869,140.953476L366.024933,140.914993L366.06012,140.789673L366.068146,140.763962L366.118958,140.616013L366.125336,140.598724L366.19162,140.427933L366.196747,140.414963L366.278442,140.221542L366.282959,140.211456L366.38031,139.995407L366.383789,139.987991L366.496552,139.748886L366.500671,139.741272L366.456421,139.716171L366.394501,139.674393L366.351501,139.64003L366.31012,139.602783L366.27063,139.557114L366.244476,139.522751L366.213409,139.476654L366.18811,139.427063L366.161774,139.349487L366.151276,139.306473L366.141205,139.250504L366.133575,139.186722L366.131104,139.157089L366.126373,139.072098L366.125763,139.054199L366.123901,138.948227L366.123688,138.936096L366.124725,138.809128L366.124939,138.80069L366.128845,138.652542L366.129059,138.64595L366.135834,138.47702L366.136047,138.471863L366.145721,138.28215L366.146118,138.276382L366.174316,137.833572L366.174744,137.828018L366.214447,137.301437L366.214661,137.297333L366.266083,136.686798L366.266296,136.683914L366.329071,135.989655L366.329681,135.984085L366.410767,135.190842L366.411163,135.186523L366.495544,134.430511L366.496155,134.425781L366.583801,133.707031L366.584412,133.701462L366.675781,133.019958L366.676605,133.014191L366.771057,132.369919L366.772308,132.363129L366.870453,131.756104L366.871674,131.748703L366.973114,131.178909L366.974579,131.170273L367.079498,130.637741L367.080963,130.631363L367.192688,130.103973L367.193512,130.09964L367.314911,129.551682L367.315948,129.547348L367.447418,128.978806L367.448242,128.974899L367.589813,128.385574L367.590637,128.382278L367.741882,127.772369L367.742706,127.769073L367.903839,127.138794L367.904663,127.135712L368.075867,126.484863L368.076691,126.481979L368.257751,125.810547L368.258575,125.807877L368.461487,125.072861L368.46228,125.069351L368.6586,124.378586L368.659637,124.375076L368.848938,123.728348L368.850189,123.724228L369.032501,123.121521L369.034119,123.116577L369.209869,122.558121L369.211517,122.552765L369.380035,122.038345L369.382294,122.031754L369.54425,121.561356L369.546906,121.553757L369.649994,121.269989L369.509888,121.378632L369.482727,121.398193L369.150391,121.619797L369.120972,121.637909L368.776917,121.832565L368.746063,121.848618L368.3909,122.016327L368.361053,122.029083L368.034485,122.156448L368.012482,122.164474L367.687347,122.273132L367.664307,122.280121L367.340637,122.370041L367.315735,122.376221L366.993073,122.447205L366.96756,122.452148L366.646362,122.50441L366.619415,122.508118L366.299438,122.541458L366.271851,122.543518L365.953308,122.557907L365.925751,122.558319L365.608459,122.554001L365.575531,122.552353L365.212738,122.521912L365.175293,122.517166L364.831238,122.460373L364.791321,122.451935L364.465607,122.368607L364.423218,122.35585L364.11618,122.245758L364.074005,122.228058L363.785522,122.091629L363.743134,122.069L363.473145,121.905823L363.433044,121.878662L363.18158,121.688934L363.144745,121.658081L362.912018,121.441803L362.880524,121.4095L362.659332,121.160522L362.63504,121.13089L362.433411,120.862976L362.412201,120.83252L362.229889,120.54567L362.211792,120.514603L362.048798,120.208832L362.033569,120.177551L361.890167,119.852844L361.878021,119.822601L361.753937,119.479156L361.744476,119.449524L361.639954,119.08696L361.632751,119.059189L361.547546,118.677887L361.541992,118.648254L361.490356,118.319641L361.487457,118.298859L361.450012,117.963043L361.448151,117.942459L361.42511,117.600052L361.424286,117.580307L361.415436,117.230896L361.415253,117.211975L361.420593,116.855774L361.421204,116.837463L361.440765,116.474274L361.4422,116.456589L361.476135,116.086807L361.477997,116.070145L361.526154,115.693176L361.528625,115.676086L361.665649,114.84581L361.668549,114.829544L361.83255,114.016129L361.836243,113.999466L362.026794,113.203125L362.031128,113.186264L362.248413,112.406998L362.25354,112.389923L362.497406,111.627945L362.503357,111.610672L362.774139,110.86557L362.780731,110.848495L363.077881,110.120682L363.085266,110.103394L363.40918,109.392654L363.416779,109.377014L363.618011,108.975357L363.623566,108.964645L363.831207,108.575531L363.837158,108.564636L364.051178,108.187653L364.05777,108.176346L364.278351,107.811707L364.285339,107.8004L364.512299,107.44812L364.519928,107.436798L364.753265,107.096863L364.761505,107.085129L365.001434,106.757538L365.010284,106.745819L365.256592,106.430374L365.266266,106.418427L365.519135,106.11554L365.529236,106.104019L365.788513,105.813263L365.799194,105.801529L366.06485,105.523117L366.076385,105.511597L366.348419,105.245529L366.360535,105.234009L366.63916,104.980301L366.651917,104.968979L366.937103,104.727615L366.950287,104.716904L367.241669,104.487686L367.255859,104.476974L367.553802,104.2603L367.565735,104.251862L368.038605,103.930038L368.052399,103.92099L368.519714,103.626328L368.535339,103.616852L368.997711,103.349762L369.014801,103.3405L369.471802,103.100983L369.52243,103.07814L369.575531,103.061279L369.630249,103.05098L369.685822,103.047073L369.741364,103.049957L369.770386,103.054886L369.779633,103.038635L369.813171,102.993988L369.851471,102.953857L369.89447,102.918259L369.941162,102.888214L369.985016,102.866409L370.290985,102.733688L370.305603,102.727722L370.60437,102.609802L370.620422,102.603836L370.911804,102.500961L370.929077,102.495193L371.213257,102.40712L371.232788,102.401566L371.509552,102.32872L371.530334,102.323578L371.799896,102.265549L371.822968,102.26123L372.085327,102.218231L372.110016,102.214935L372.36496,102.186951L372.420502,102.184067L372.476074,102.187973L372.530823,102.198273L372.583893,102.214935L372.634735,102.237778L372.652222,102.248276L372.661682,102.227692L372.690704,102.180161L372.72525,102.136536L372.74173,102.120071L372.738434,102.118423L372.712708,102.104019L372.232239,101.815125L372.208557,101.799896L371.735504,101.475601L371.713684,101.459747L371.247833,101.099655L371.228058,101.083389L370.769806,100.687698L370.752106,100.671646L370.504364,100.434799L370.247375,100.48645L370.185852,100.49469L369.919373,100.512375L369.849609,100.511765L369.596313,100.490982L369.52182,100.478836L369.281281,100.419373L369.208221,100.394882L368.980835,100.29715L368.914154,100.261749L368.699341,100.125122L368.643372,100.083557L368.441711,99.908646L368.397491,99.864609L368.208588,99.650818L368.175659,99.609253L368.009796,99.372406L367.973999,99.312119L367.855682,99.074448L367.82605,98.999344L367.754852,98.760849L367.742096,98.706528L367.737366,98.672379L367.713684,98.43306L367.711639,98.377502L367.713684,98.340668L367.737366,98.100327L367.746216,98.04538L367.754456,98.012878L367.825653,97.771912L367.854034,97.698654L367.941681,97.519226L367.927277,97.51059L367.883057,97.476837L367.842926,97.438156L367.808136,97.395554L367.802582,97.387939L367.788605,97.385269L367.735291,97.368805L367.684479,97.346375L367.636536,97.317978L367.592285,97.284027L367.552582,97.245148L367.517609,97.201935L367.487762,97.1548L367.471497,97.122299L367.347229,96.848206L367.327271,96.796356L367.31369,96.742233L367.306488,96.687088L367.305847,96.631531L367.307495,96.61795L367.288971,96.599838L367.254211,96.556427L367.224579,96.509094L367.200928,96.458893L367.178894,96.388519L367.160797,96.309708L367.156067,96.309082L367.101929,96.295914L367.049683,96.276581L367.000275,96.251053L366.953979,96.219986L366.911804,96.183777L366.874146,96.142624L366.850891,96.111343L366.620026,95.773666L366.606232,95.752274L366.382568,95.383942L366.371246,95.364395L366.154144,94.965195L366.144684,94.946671L365.934814,94.516403L365.926361,94.498505L365.732544,94.054443L365.723694,94.032425L365.562164,93.604843L365.553314,93.579529L365.424072,93.168198L365.416046,93.139389L365.318939,92.744308L365.312134,92.71138L365.247314,92.33255L365.242371,92.294891L365.210083,91.932114L365.208221,91.890549L365.208008,91.544037L365.210297,91.498352L365.242371,91.168091L365.247925,91.12796L365.316681,90.755722L365.320587,90.737411L365.402893,90.373611L365.407623,90.354263L365.503906,89.9991L365.509674,89.979355L365.620178,89.632629L365.628601,89.608551L365.716064,89.378082L365.723877,89.358948L365.815033,89.147217L365.824921,89.12561L365.919586,88.932999L365.932129,88.909332L366.030273,88.735458L366.046539,88.708511L366.148193,88.553558L366.168976,88.524551L366.273926,88.388321L366.300659,88.356628L366.408905,88.239136L366.443665,88.205185L366.479065,88.173904L366.960999,87.101639L366.962006,87.099365L367.073761,86.854095L367.088989,86.823639L367.210602,86.600998L367.230347,86.568069L367.361816,86.368057L367.386932,86.333282L367.52829,86.155701L367.559998,86.119904L367.711243,85.965164L367.749084,85.930389L367.910217,85.798065L367.955475,85.76535L368.126678,85.655884L368.177094,85.627701L368.341095,85.549301L369.360291,84.957901L369.641357,84.679703L369.91153,84.333603L369.929871,84.311584L370.041992,84.184616L370.056396,84.168976L370.166504,84.055191L370.185028,84.03688L370.293243,83.936661L370.31424,83.91835L370.420197,83.831314L370.446747,83.811142L370.550659,83.737473L370.58255,83.71669L370.684418,83.656204L370.723114,83.63562L370.822906,83.588287L370.870239,83.568954L370.967987,83.535004L371.043701,83.515457L371.126221,83.50145L371.18158,83.495483L371.225403,83.495285L371.320862,83.499405zM372.158142,87.679443L372.148682,87.682938L372.117615,87.702072L372.16864,87.682114L372.181213,87.678207L372.158142,87.679443zM370.45047,120.545059L370.473907,120.544022L370.472687,120.525299L370.4729,120.522217L370.45047,120.545059zM371.149261,119.329361L371.16098,119.362076L371.173553,119.416397L371.174377,119.424011L371.176636,119.419495L371.18158,119.40303L371.175201,119.37854L371.165314,119.328125L371.149261,119.329361zM365.735199,115.951828L365.583954,116.074265L365.46051,116.197525L365.359253,116.32489L365.280243,116.454315L365.220581,116.588486L365.217896,116.59816L365.328796,116.429428L365.361328,116.385803L365.53891,116.173645L365.574707,116.135376L365.779449,115.939896L365.817322,115.907379L365.915039,115.832062L365.735199,115.951828zM380.195801,88.144875C380.058746,88.364388,379.879883,88.537445,379.65921,88.665207C380.072693,89.057785,380.458282,89.478233,380.81604,89.9254C380.935669,89.468941,380.985596,89.135605,380.96701,88.925377C380.940308,88.641983,380.865967,88.405037,380.747498,88.213402C380.627869,88.021759,380.503601,87.943939,380.374664,87.979942L380.195801,88.144875zM376.465179,112.67038C376.326965,112.441574,376.148102,112.26387,375.927429,112.136108C376.294434,112.693611,376.336243,113.43811,376.051697,114.369606C376.014526,114.50666,375.950653,114.643715,375.858887,114.780769C375.913483,114.798187,375.955292,114.826065,375.983154,114.863228C376.185272,115.218643,376.285156,115.579857,376.285156,115.944557L376.395477,116.040955C376.57901,116.08625,376.84613,115.986366,377.19458,115.740135C377.38739,115.593796,377.483765,115.478806,377.483765,115.397507C377.474487,115.351044,377.378082,115.237221,377.19458,115.054871L376.754395,114.547318C376.61615,114.337082,376.569702,114.131508,376.61615,113.930573C376.735809,113.455536,376.684692,113.03624,376.465179,112.67038zM393.924316,118.123459C392.969604,117.648422,392.414429,117.548538,392.258789,117.822647C391.982361,118.288391,392.230896,118.822662,393.002136,119.425468C394.084625,120.311668,394.855835,120.598549,395.314606,120.288437C395.563171,120.132797,395.692078,119.959747,395.700195,119.768097C395.718781,119.612465,395.659546,119.420822,395.521332,119.192017C395.375,118.9272,394.841888,118.571793,393.924316,118.123459zM393.470184,116.109482C393.213501,116.191948,393.047424,116.287186,392.974243,116.397522C392.882507,116.534576,392.818604,116.698349,392.781433,116.889984C392.772156,116.955032,392.818604,117.036331,392.919647,117.137383L393.235565,117.342957C394.521332,117.818001,395.45282,118.461449,396.031219,119.274475C396.306488,119.383652,396.577118,119.319778,396.843079,119.08284C397.256561,118.708847,397.41687,118.392929,397.325104,118.137405C397.270508,117.991058,397.054474,117.749466,396.678162,117.411484C396.264679,117.036331,395.883728,116.762222,395.535278,116.589172C395.057922,116.351067,394.60379,116.196594,394.171722,116.123421L393.470184,116.109482zM394.364532,115.671608L394.930145,115.9039L395.755951,116.191948C396.076538,116.365005,396.41684,116.625175,396.774567,116.97245L397.628235,117.903946C397.867493,117.877228,398.11026,117.776184,398.357635,117.603134C398.780426,117.283722,398.890747,116.872566,398.68866,116.369652C398.587616,116.104836,398.077728,115.625153,397.160187,114.931755C396.939484,114.785416,396.595703,114.657654,396.127625,114.547318L394.998688,114.492722C394.778015,114.556602,394.580566,114.726181,394.406342,115.000282C394.213531,115.291809,394.199585,115.515976,394.364532,115.671608zM387.727905,138.086731C386.406158,138.525772,385.341095,138.772003,384.533875,138.826599L381.73822,138.703476C381.766113,139.050751,381.881104,139.287689,382.083191,139.415451C382.284119,139.552505,382.697601,139.621033,383.322479,139.621033L383.680206,139.223816L383.706909,139.183167L383.762665,139.197098C384.827728,139.47934,385.763855,139.662842,386.571075,139.745316C387.774353,139.835907,388.962555,139.736023,390.137939,139.443329L390.28894,139.415451C390.463165,139.370163,390.551422,139.320221,390.551422,139.265625C390.568848,139.164581,390.385345,139.01358,389.999725,138.812653C389.724457,138.684891,388.967194,138.443298,387.727905,138.086731zM366.922577,139.949722C366.60083,140.617569,366.445221,141.041504,366.454498,141.225021C366.509094,142.046173,367.023621,142.52121,367.996918,142.648972C368.583466,142.731445,369.244354,142.539795,369.979553,142.074051C370.584686,141.690765,370.984222,141.334198,371.177032,141.005493C371.296661,140.78598,371.324524,140.502594,371.259491,140.155304L368.244324,140.265656C367.785553,140.237778,367.344177,140.13324,366.922577,139.949722zM398.330933,110.46476C398.192719,110.592522,397.931396,111.053619,397.545776,111.848061L397.463318,111.999054C397.114868,112.639023,396.632874,112.989784,396.017303,113.053665L394.460938,113.15007C393.745453,113.350998,393.117096,113.656464,392.574707,114.067627C392.134521,114.396324,391.859253,114.693657,391.748901,114.958466C391.647858,115.213989,391.574677,115.525269,391.528229,115.889969C391.501526,116.173363,391.468994,116.315063,391.431824,116.315063L391.308716,115.931778L391.280823,115.972427C390.968384,116.301125,390.822052,116.749451,390.840637,117.315079C390.86734,118.073517,391.234375,118.776215,391.941711,119.425468C392.419067,119.881927,392.919647,120.210617,393.442322,120.411552C393.571228,120.466141,393.649048,120.466141,393.676941,120.411552C393.694366,120.356964,393.653717,120.293083,393.552673,120.21991L392.809326,119.657761C392.341248,119.283768,392.010223,118.945786,391.817444,118.643799C391.624634,118.324402,391.574677,118.018936,391.666443,117.726242C391.721039,117.553185,391.840668,117.411484,392.02417,117.301147C392.162384,117.219849,392.308716,117.168739,392.464355,117.151321C392.419067,116.749451,392.482941,116.42424,392.657166,116.178009C392.840668,115.913193,393.25415,115.757553,393.896454,115.712265C393.777985,115.483452,393.754761,115.255806,393.827942,115.026993C393.883667,114.835358,394.020721,114.648361,394.241394,114.464844C394.460938,114.282501,394.695557,114.154739,394.942932,114.081558C395.200775,114.008392,395.664215,114.054848,396.334381,114.218613L397.284454,114.50666L397.903503,114.232552C398.537659,113.930573,399.005737,113.570518,399.307709,113.15007C399.657318,112.675026,399.822266,112.223221,399.80368,111.793472C399.785095,111.382317,399.61087,111.022263,399.281006,110.710991C398.895416,110.327705,398.578308,110.245239,398.330933,110.46476zM375.527863,112.698257C375.409393,112.505455,375.138794,112.268517,374.716003,111.985115C374.348999,111.738884,373.907623,111.620415,373.394257,111.629707C372.714813,111.647133,372.058563,111.911942,371.425568,112.424149C370.83786,112.899193,370.351227,113.464828,369.965607,114.123375C369.561432,114.816772,369.340759,115.488098,369.304749,116.13736L369.332611,116.835403L369.525421,117.452133C369.919159,118.283752,370.369812,118.749496,370.873871,118.84938C371.195618,118.905136,371.548706,118.794785,371.934296,118.520691L371.287354,118.178055L371.190948,118.054939L371.204895,117.891174L371.329163,117.794769L371.49411,117.808708C371.980743,118.045647,372.57193,118.241928,373.269989,118.397568C374.15155,118.598503,374.720642,118.598503,374.977325,118.397568C375.289764,118.142044,375.459351,117.88652,375.487213,117.629837C375.487213,117.529953,375.473297,117.452133,375.445404,117.397552L374.867004,117.425423C374.398926,117.442841,373.853027,117.31044,373.22934,117.027039C372.853027,116.853981,372.57193,116.698349,372.388428,116.561295C372.279236,116.479988,372.256012,116.383591,372.319916,116.274414C372.383789,116.154785,372.476715,116.128067,372.595184,116.191948L372.870422,116.328995C373.220032,116.548523,373.664886,116.730865,374.206116,116.877213L374.867004,117.000328L375.198029,116.94574C375.482574,116.863274,375.684662,116.666992,375.804291,116.355713L375.858887,116.068832C375.711395,115.804016,375.624268,115.478806,375.597565,115.09552C375.431458,115.223282,375.266541,115.315041,375.101624,115.369629C374.716003,115.497391,374.26651,115.502037,373.751984,115.383568C373.338501,115.291809,373.008667,115.159401,372.761261,114.986343C372.310608,114.675072,372.242096,113.707573,372.554504,112.08152L372.980774,112.163986C372.870422,112.711029,372.815857,113.22789,372.815857,113.712219C372.815857,114.232552,372.87973,114.542664,373.008667,114.643715C373.220032,114.790054,373.504608,114.899239,373.862335,114.972412C374.293243,115.072296,374.661407,115.06765,374.963409,114.958466C375.303711,114.849289,375.527863,114.606544,375.638214,114.232552C375.831024,113.601883,375.795013,113.090836,375.527863,112.698257zM374.551086,112.355621C374.633545,112.400925,374.664917,112.469452,374.647491,112.561203L374.565002,113.301056C374.481384,113.812103,374.376862,114.191902,374.247925,114.438133L373.862335,114.24649C374.017975,113.944511,374.132965,113.414879,374.206116,112.656448L373.834442,112.450867C373.65094,113.218597,373.577759,113.771454,373.614929,114.109436L373.187531,114.164032C373.15036,113.835335,373.187531,113.391647,373.297852,112.835312L373.504608,112.05365L373.627716,111.916595L373.820526,111.930527L374.551086,112.355621zM366.068909,89.775574C365.912109,90.232025,365.79364,90.711708,365.711151,91.213463C365.582245,92.072952,365.798279,93.104332,366.358093,94.309929C366.633362,94.904602,366.927216,95.415649,367.239655,95.84539C367.193207,95.059074,367.362762,94.33316,367.748383,93.666481L368.561401,92.543343C368.230377,92.414421,367.922607,92.250656,367.638031,92.049721C367.280304,91.784904,367.082855,91.524734,367.046844,91.268051C367.000397,90.912643,367.042206,90.583954,367.169952,90.281967C367.353485,89.870811,367.67984,89.601349,368.147919,89.473587L368.437134,89.418999L369.441803,89.487526L370.33728,89.542114L370.405823,89.514236C370.461548,89.487526,370.676422,89.108887,371.052734,88.377167C371.411652,87.683769,371.746155,87.294678,372.058563,87.213379L372.305969,87.19944L373.352448,87.500259L373.986603,87.693062L374.440735,87.719772L374.591736,87.651253L374.908813,87.363205C375.202667,87.107681,375.414063,86.961342,375.541809,86.925331L376.202698,86.952049C376.404785,86.998505,376.781097,87.221504,377.331635,87.624535L378.185303,88.240112C378.626648,88.45034,379.026215,88.509575,379.383942,88.418976C379.640625,88.345802,379.824127,88.208755,379.934479,88.00782C380.173737,87.605949,380.282898,87.135559,380.265503,86.596642C380.246918,86.075142,380.113342,85.646561,379.865936,85.308571C379.673157,85.025177,379.433868,84.810303,379.149323,84.663956C379.268951,84.984528,379.245728,85.263275,379.080811,85.500214C378.888,85.76503,378.635956,85.939247,378.323517,86.020554C377.874023,86.140182,377.437317,86.062363,377.015717,85.788261C375.969238,85.093704,375.285126,84.751068,374.963409,84.760361L374.647491,84.814949C374.499969,84.852119,374.297882,84.947357,374.041199,85.102997C373.811218,85.258629,373.646301,85.34922,373.545258,85.377098L373.159637,85.32251L372.512695,84.814949C371.870422,84.221443,371.433716,83.938042,371.204895,83.965919L371.122437,83.979858C370.864594,84.053032,370.584686,84.266739,370.282684,84.623306L369.9935,84.993813L369.648529,85.335289L368.561401,85.965965C368.06546,86.166893,367.675201,86.610573,367.390656,87.294678L366.866821,88.459625C366.56485,88.697731,366.297699,89.135605,366.068909,89.775574zM382.344513,103.161461L381.806763,103.737549C381.531494,103.965195,381.173767,104.161484,380.733551,104.326416L380.691742,104.353127L380.581421,104.408875C380.471069,104.463463,380.453644,104.577286,380.526825,104.751511C380.682465,105.0802,380.917084,105.719009,381.229492,106.66909C381.632538,107.874687,381.935669,108.95253,382.137787,109.902611C382.339874,110.852692,382.514099,112.031578,382.660431,113.43811L382.826538,115.575211L382.840454,115.917839C383.271362,115.79937,383.643036,115.639084,383.955475,115.438156L383.969391,114.849289C384.005402,113.287125,384.097168,112.131462,384.244659,111.382317L384.905548,108.436844L385.112274,108.477493L384.684875,112.313812L384.533875,114.670425C385.267914,115.675095,386.603607,116.730865,388.540924,117.835419L391.25296,119.219887C390.812775,118.643799,390.596741,117.945755,390.606018,117.123444C390.624603,116.402176,390.770935,115.894608,391.046204,115.603088L391.280823,115.452095L391.377228,114.876007C391.450409,114.565895,391.702454,114.237198,392.134521,113.889923L392.767517,113.45089L391.101959,112.396278C389.797638,111.45549,388.646637,110.400879,387.645447,109.231277L385.126221,106.066284C384.079742,104.778221,383.151733,103.809563,382.344513,103.161461zM380.374664,102.024384L379.906586,102.380959C379.797424,102.929169,379.534943,103.390274,379.12262,103.764267C378.77301,104.075539,378.323517,104.289246,377.77298,104.408875C376.625458,104.645813,375.491882,104.541283,374.372223,104.092957C373.371033,103.709671,372.719452,103.229988,372.416321,102.65506C371.746155,102.709656,370.998169,102.924522,370.172363,103.298515C370.575378,103.974487,371.337311,104.499474,372.45813,104.874626C373.220032,105.130142,373.839111,105.257904,374.316467,105.257904C374.876282,105.267197,375.243317,105.559891,375.418701,106.134811C375.812439,107.441467,376.134155,108.746948,376.381561,110.053604L376.644043,111.834122C376.891418,111.999054,377.043579,112.337036,377.098175,112.848083C377.143463,113.259247,377.126038,113.648338,377.043579,114.013039C377.015717,114.168671,377.166687,114.410263,377.497711,114.738953L377.869385,115.204697C377.88797,115.7715,377.676575,116.154785,377.235229,116.355713C376.92395,116.50206,376.606873,116.534576,376.285156,116.452118L376.23056,116.438171L376.216614,116.492767C376.106293,116.757584,375.9646,116.963165,375.790375,117.109505C375.908844,117.301147,375.950653,117.489304,375.913483,117.671654C375.684662,118.557854,375.129486,119.028244,374.247925,119.08284C373.815857,119.101418,373.403564,119.032898,373.008667,118.877258L372.375671,118.712326L371.948242,119.014313C371.948242,119.050308,371.842529,119.132782,371.631165,119.260536C371.68692,119.388298,371.659027,119.543938,371.548706,119.726288L370.943573,120.521896C371.861115,121.051514,372.912262,121.416214,374.095795,121.617157C375.491882,121.845963,377.011078,121.827377,378.654541,121.562561C379.755615,121.389511,380.931,120.928406,382.179596,120.17926C383.2435,119.539291,383.913666,119.000366,384.188934,118.5625C384.244659,118.370857,384.162201,117.516022,383.941528,116.000305C383.602386,116.173363,383.271362,116.301125,382.949646,116.383591C382.775421,116.438171,382.638367,116.419594,382.537323,116.328995C382.454865,116.265121,382.399109,116.168716,382.372375,116.040955L382.330566,115.629799L382.330566,115.589149L382.165649,113.506638C382.027435,112.108231,381.857849,110.944443,381.655762,110.011787C381.444366,109.044289,381.141235,107.957153,380.747498,106.751556C380.435059,105.829346,380.214386,105.230034,380.086639,104.955925C379.993713,104.764282,379.976288,104.577286,380.030884,104.394943C380.077332,104.212585,380.183014,104.075539,380.347961,103.98378L380.512878,103.901314L380.526825,103.887375C380.865967,103.787491,381.164459,103.61792,381.421143,103.380981L381.93103,102.84671C381.399078,102.480843,380.879913,102.206741,380.374664,102.024384zM361.993317,115.752914C361.845795,116.766876,361.850464,117.707657,362.007263,118.575272C362.208191,119.617111,362.617004,120.458008,363.232605,121.096817C363.82843,121.708908,364.622864,122.037605,365.614777,122.082901C366.459137,122.120071,367.317474,121.955139,368.189728,121.590439C369.152588,121.179276,369.9935,120.480072,370.708954,119.493996C370.177002,119.529999,369.763519,119.33371,369.469666,118.905136C369.203705,118.529984,369.038757,118.045647,368.973724,117.452133C368.900543,116.785461,368.978363,116.081604,369.208344,115.341751C368.29892,115.360336,367.5242,115.511322,366.880768,115.794724C366.082825,116.159424,365.572937,116.702988,365.352264,117.425423C365.306976,117.589188,365.182709,117.59848,364.980591,117.452133C364.787811,117.305794,364.686737,117.173386,364.67746,117.054916C364.650757,115.858604,365.71582,115.076942,367.87265,114.712234L368.051514,114.684364L368.051514,114.670425L368.478943,113.547287C368.855255,112.679672,369.359314,111.911942,369.9935,111.24527L370.544037,111.355606L371.080627,111.341667C370.089874,112.209282,369.350037,113.323128,368.863373,114.684364L369.387207,114.684364L369.455719,114.698303C369.832031,113.802811,370.396515,112.935196,371.149139,112.095459C371.296661,111.921234,371.548706,111.757469,371.906433,111.601837C372.274597,111.436905,372.672974,111.318436,373.105042,111.24527L373.173584,111.231323L373.627716,111.176735C374.224701,111.150024,374.775238,111.259201,375.280487,111.505432C375.409393,111.56118,375.560394,111.684296,375.734619,111.875938L375.638214,111.738884C375.72998,111.647133,375.896057,111.620415,376.134155,111.656425L375.900696,110.136063C375.670746,108.884003,375.353638,107.59594,374.950623,106.271866C374.88559,106.070938,374.80777,105.933884,374.716003,105.86071C374.624268,105.787537,374.490692,105.751534,374.316467,105.751534C373.610291,105.723656,372.926178,105.609833,372.26532,105.408897C370.988861,105.024452,370.130554,104.394943,369.690338,103.518036C369.084045,103.818848,368.464996,104.194008,367.830841,104.641167C366.224548,105.764305,364.893494,107.413589,363.837708,109.587852C362.938751,111.460136,362.323181,113.51593,361.993317,115.752914zM372.526642,88.062408C371.938934,88.208755,371.466217,88.646622,371.10849,89.378349C370.988861,89.605995,370.809998,89.752342,370.571899,89.816223L369.827393,89.844093L368.602051,89.912621L368.505646,89.9254C368.02829,90.062454,367.776245,90.414375,367.748383,90.981171C367.72049,91.583969,368.120056,91.98584,368.947021,92.186775L369.097992,92.269234C369.171173,92.342407,369.157227,92.42836,369.056183,92.529404C368.625275,92.957985,368.290771,93.369141,368.051514,93.761719C367.536987,94.611916,367.399933,95.451653,367.638031,96.283264C367.72049,95.588707,367.9133,94.912735,368.216431,94.255341C368.592773,93.560783,368.863373,93.155434,369.02948,93.035805L369.125885,92.981216C369.217621,92.962631,369.281494,92.985863,369.318665,93.049744C369.363983,93.113625,369.354675,93.177505,369.290802,93.241386L369.015533,93.597954L368.505646,94.420273C368.211792,94.912735,367.969055,95.657234,367.776245,96.65377L367.900513,96.927872L367.9133,96.91394C368.042236,96.155502,368.262909,95.502754,368.575348,94.954544C368.832031,94.524803,369.070129,94.233276,369.290802,94.077637L369.332611,94.049767C369.41507,94.023048,369.474304,94.059052,369.511475,94.160103C369.538208,94.259987,369.502197,94.365685,369.401154,94.474861L368.877319,95.146187L368.409241,96.174088L368.120056,97.023117L368.189728,97.119514L368.423187,97.119514C368.570679,97.146233,368.615997,97.247276,368.561401,97.420334C368.056152,98.069595,368.056152,98.708405,368.561401,99.339081C369.048065,99.960464,369.671753,100.169525,370.433685,99.96859L370.626495,99.90007C371.819305,101.097534,373.091125,101.915207,374.440735,102.353081L374.661407,102.490135L374.495331,102.599312C374.165466,102.709656,373.692749,102.659714,373.077179,102.449486C373.333862,103.088287,373.954102,103.554039,374.936676,103.846725C375.84494,104.130127,376.670746,104.170776,377.415253,103.969841C377.754395,103.869957,378.001801,103.728256,378.1586,103.544746L378.090057,103.572617L377.166687,103.627213C376.735809,103.608627,376.524414,103.563332,376.533691,103.490158L376.588287,103.449509L376.891418,103.407692L377.469849,103.298515C378.203888,103.09758,378.970459,102.672485,379.769531,102.024384C381.20163,100.873375,382.064606,99.297264,382.358459,97.297226C382.633728,95.379639,382.339874,93.560783,381.476898,91.844139C380.926361,90.766296,380.155151,89.761635,379.163269,88.830139C378.814819,88.866142,378.419922,88.783676,377.979736,88.582748L377.084229,87.939293C376.542999,87.537422,376.19339,87.317909,376.03775,87.281906L375.748535,87.294678C375.491882,87.367851,375.221252,87.559494,374.936676,87.870766C374.779877,87.989235,374.619598,88.067055,374.454681,88.103058L373.22934,88.034531L372.526642,88.062408zM369.772797,96.160149L369.841339,96.119499C369.91452,96.100914,369.974915,96.127625,370.020203,96.200798C370.06665,96.264679,370.062012,96.32856,370.006256,96.392441C369.813446,96.630539,369.730988,96.808243,369.758881,96.927872C369.777466,97.037056,369.735657,97.100937,369.634583,97.119514C369.525421,97.155525,369.455719,97.100937,369.429016,96.95459C369.401154,96.808243,369.432495,96.658417,369.525421,96.502777C369.589294,96.356438,369.671753,96.242615,369.772797,96.160149zM377.331635,90.062454C377.451263,89.852226,377.634766,89.719818,377.883331,89.66523L378.570923,89.719818C378.737,89.792992,378.85199,89.852226,378.915863,89.898682L378.970459,89.953278L378.901917,89.953278L378.281708,89.9254C378.08078,89.989281,377.923981,90.118202,377.813629,90.309845L377.552307,90.227379C377.38739,90.135628,377.314209,90.081032,377.331635,90.062454zM369.772797,95.174065C369.827393,95.246071,369.809967,95.333183,369.717072,95.434235L369.290802,95.913918L369.043396,96.40638C368.95166,96.607315,368.881958,96.713005,368.83667,96.722298L368.780914,96.680481C368.744904,96.625893,368.754211,96.493484,368.808807,96.283264L369.015533,95.748985C369.14447,95.493469,369.318665,95.283241,369.538208,95.118317L369.580017,95.105537C369.662476,95.07766,369.726349,95.100891,369.772797,95.174065zM378.337463,99.462196L378.392059,99.462196L378.640594,99.434319L379.245728,99.339081L379.548859,99.284485L379.687073,99.311203L379.631317,99.434319L379.245728,99.790894L378.901917,99.955818L378.433868,100.010406L378.213196,99.92794L378.116791,99.750237C378.098206,99.603897,378.172516,99.507492,378.337463,99.462196zM373.352448,92.597931L373.366394,92.597931C373.4953,92.560768,373.632355,92.61187,373.779877,92.748924C373.926208,92.894104,374.03656,93.090393,374.109711,93.337784C374.184052,93.584015,374.201477,93.808182,374.165466,94.009109C374.128296,94.219337,374.041199,94.342453,373.904144,94.378456C373.775208,94.415627,373.632355,94.361038,373.476715,94.214691C373.330383,94.068344,373.220032,93.876709,373.145691,93.638603C373.07254,93.392372,373.053955,93.168213,373.091125,92.967278C373.137573,92.766342,373.22467,92.643227,373.352448,92.597931zM373.547333,93.247208L373.564392,93.369644L373.596283,93.499283L373.641357,93.621704L373.693207,93.725632L373.709259,93.749908L373.708862,93.729126L373.691772,93.607101L373.658447,93.474167L373.611725,93.341446L373.56131,93.236923L373.546692,93.214279L373.547333,93.247208zM378.709137,91.460854C378.755585,91.259926,378.842682,91.135643,378.970459,91.090347L378.984406,91.090347C379.113312,91.045052,379.250366,91.094994,379.397888,91.241341C379.553528,91.387688,379.663849,91.583969,379.727722,91.8302C379.810181,92.076431,379.828766,92.300598,379.783478,92.501534C379.746307,92.711754,379.65921,92.834869,379.520996,92.87204C379.393219,92.908043,379.250366,92.853455,379.094727,92.707108C378.947235,92.560768,378.838043,92.369125,378.763702,92.132187C378.690552,91.884789,378.671967,91.661789,378.709137,91.460854zM379.165283,91.740555L379.182159,91.861542L379.214874,91.994064L379.259125,92.114639L379.310577,92.217529L379.333405,92.25209L379.333008,92.220001L379.316315,92.109497L379.275787,91.963394L379.232361,91.829025L379.185059,91.728821L379.164459,91.697754L379.165283,91.740555zM372.305969,90.268028C371.783295,90.39579,371.470886,90.615311,371.369812,90.926582L371.315247,91.090347L371.177032,91.035759C371.113129,90.88942,371.10849,90.711708,371.163086,90.501488C371.420929,89.752342,371.828613,89.409706,372.388428,89.473587C372.875092,89.546761,373.30249,89.834808,373.669525,90.336555C373.714813,90.391144,373.811218,90.355141,373.95874,90.227379C374.004028,90.081032,374.069061,90.03109,374.15155,90.076385L374.095795,90.419022L373.972656,90.802307L373.283936,90.542137C372.806549,90.341202,372.480194,90.25061,372.305969,90.268028zM376.106293,91.912666L376.120209,91.912666C376.19339,91.884789,376.289795,91.935898,376.409424,92.06366L377.235229,92.981216L378.090057,93.666481L378.654541,94.077637L378.791595,94.269279C378.819458,94.351746,378.819458,94.424919,378.791595,94.4888L378.447784,95.529472C378.392059,95.657234,378.290985,95.7397,378.144653,95.776863L377.827576,95.789642C377.662659,95.789642,377.603424,95.708336,377.648712,95.543411L377.96579,94.748962L377.979736,94.515511L377.869385,94.297157L377.015717,93.392372C376.684692,93.026512,376.3862,92.629288,376.120209,92.200714C376.009888,92.045074,376.005249,91.948669,376.106293,91.912666zM378.516327,99.064972C377.975067,99.211319,377.189941,99.152084,376.162048,98.886108C375.647491,98.758347,375.188721,98.613159,374.784546,98.448235L374.661407,98.448235C374.541779,98.49353,374.45932,98.566704,374.412872,98.667755L374.577789,99.270554L374.495331,99.37973C374.440735,99.398315,374.398926,99.365791,374.372223,99.284485L373.793793,98.160187L373.76593,97.927895L373.862335,97.722321L374.92276,96.420319L375.019165,96.351791C375.083038,96.333206,375.106262,96.379662,375.087677,96.488838L375.033081,96.95459L375.142273,97.146233L375.390808,97.228699C376.721863,97.347168,377.69516,97.361099,378.30957,97.269348L378.681244,97.188042C379.057556,97.086998,379.503571,96.918587,380.016937,96.680481L380.691742,96.351791L380.843903,96.200798L380.856689,95.982445L380.788147,95.803581C380.760284,95.721115,380.769562,95.671173,380.81604,95.652588L380.926361,95.694397L381.58725,96.160149C381.733582,96.2519,381.780029,96.392441,381.724304,96.585243L381.408386,97.611977L381.338684,97.708382L381.256226,97.599205L381.215576,97.47493C381.187683,97.347168,381.109863,97.297226,380.980957,97.325096L380.926361,97.351814L380.223694,98.064949C379.635986,98.575996,379.071503,98.90934,378.530273,99.064972L378.516327,99.064972zM377.249176,98.625938C377.61618,98.653816,378.076141,98.589935,378.626648,98.434296C378.993683,98.343704,379.264313,98.238007,379.438538,98.119537L380.926361,97.105583C381.04483,97.050995,381.105225,96.931358,381.105225,96.749008C381.105225,96.593376,381.00882,96.538788,380.81604,96.585243L380.7742,96.598022L380.072693,96.927872C379.530273,97.174103,379.048279,97.351814,378.626648,97.462151L378.255005,97.557388L376.395477,97.625916L375.335083,97.543457L375.005219,97.557388L374.702057,97.776909C374.610321,97.895378,374.610321,98.001068,374.702057,98.091667C374.775238,98.164841,374.867004,98.20665,374.977325,98.214783C376.096985,98.471466,376.854279,98.608521,377.249176,98.625938zM366.798309,136.032104C366.614777,137.99498,366.555542,139.064697,366.619446,139.237747C366.665894,139.329498,366.894714,139.420105,367.308167,139.511856L368.491699,139.703491C368.91449,139.731369,369.460388,139.722076,370.130554,139.676788C370.948212,139.61174,371.480164,139.511856,371.72757,139.374802C371.792603,139.310913,372.077148,138.547836,372.581238,137.086716L373.916931,133.373505C374.642822,131.610413,375.606842,129.63707,376.80896,127.454681L378.419922,124.672974L378.544189,124.727554L377.979736,126.289734L378.723053,128.05748C379.219025,129.290955,379.62204,130.395508,379.934479,131.373474C380.411835,132.907761,380.962372,135.155197,381.58725,138.114609L381.697571,138.209854L384.285339,138.332962L385.883514,138.114609C386.406158,137.968262,386.838226,137.730164,387.177368,137.401474C386.608246,133.501266,386.185486,130.747437,385.910217,129.139969C385.7453,128.162018,385.410797,126.459305,384.905548,124.029518L383.996124,119.863342C382.986816,120.640366,381.50943,121.279167,379.562805,121.782082C377.874023,122.211823,376.188751,122.344231,374.509277,122.179306C372.940125,122.032959,371.595154,121.645027,370.475494,121.014359L370.14447,121.288452C369.740295,122.366302,369.262939,123.914536,368.712402,125.933159C368.216431,127.750854,367.826202,129.350189,367.541626,130.728851C367.25708,132.09938,367.009674,133.867126,366.798309,136.032104z"/>
</svg>
