<?xml version="1.0" encoding="UTF-8"?>
<svg xmlns="http://www.w3.org/2000/svg" xmlns:xlink="http://www.w3.org/1999/xlink" width="28.027mm" height="60.006mm" viewBox="-349.064270 84.453064 28.026611 60.006409">
    <path transform="matrix(-1,0,0,1,0,0)" style="stroke:none;fill:#000000;fill-rule:evenodd" d="M327.058044,84.457413L327.098328,84.461754L327.137878,84.470596L327.253845,84.504158L327.303284,84.522736L327.438721,84.585808L327.469604,84.602135L327.624634,84.694572L327.645508,84.708054L327.819885,84.829857L327.834229,84.840492L328.028137,84.991661L328.038757,85.000198L328.252075,85.18058L328.260315,85.187775L328.484314,85.389725L329.05481,85.837379L329.23822,85.863449L329.632202,85.646065L329.794312,85.548233L329.813049,85.537743L329.970825,85.455643L329.994202,85.444557L330.141418,85.381485L330.170532,85.370552L330.307129,85.326202L330.354919,85.314369L330.674622,85.259384L330.714966,85.25489L330.745483,85.254738L330.810364,85.257141L330.847534,85.260437L330.920959,85.271217L330.948669,85.276466L331.03064,85.295494L331.052307,85.301331L331.142944,85.328751L331.159607,85.334297L331.258789,85.369949L331.272583,85.375191L331.38031,85.419243L331.391235,85.424034L331.507507,85.476318L331.516602,85.480515L331.641541,85.541191L331.649536,85.545235L331.782837,85.614304L331.789001,85.617599L331.93103,85.694908L331.936584,85.697899L332.087097,85.783447L332.092041,85.786293L332.25116,85.880226L332.255249,85.882774L332.422852,85.984955L332.426758,85.987198L332.602966,86.097763L332.606079,86.099861L332.790833,86.218666L332.79364,86.220467L332.980347,86.343163L333.118774,86.424812L333.251038,86.486839L333.379272,86.531937L333.506958,86.561897L333.63446,86.577332L333.763855,86.578674L333.894043,86.565346L334.030579,86.536728L334.116089,86.510513L334.198792,86.477249L334.277283,86.437248L334.347595,86.393501L334.417358,86.340767L334.480286,86.283836L334.543091,86.21627L334.596741,86.148102L334.630127,86.092972L334.654114,86.038734L334.67041,85.982101L334.679138,85.924278L334.680176,85.861053L334.672668,85.788689L334.655273,85.708389L334.622009,85.606064L334.611877,85.566811L334.606323,85.526657L334.60553,85.486061L334.609619,85.445755L334.618469,85.406204L334.631775,85.368004L334.649597,85.331596L334.671631,85.29744L334.697388,85.266273L334.726746,85.238258L334.759094,85.213989L334.794312,85.193764L334.831482,85.177734L334.8703,85.166199L334.910278,85.159309L334.950745,85.157211L334.991211,85.159904L335.031067,85.167397L335.069702,85.179535L335.106689,85.196014L335.124695,85.206047L335.331116,85.329948L335.367249,85.354965L335.556458,85.504486L335.588928,85.533699L335.76062,85.709137L335.788086,85.740746L335.942078,85.942253L335.954834,85.960083L336.042908,86.092072L336.058167,86.117241L336.13562,86.258072L336.148376,86.283836L336.214905,86.433205L336.225098,86.458672L336.280823,86.61673L336.288452,86.641449L336.333374,86.808197L336.338928,86.831871L336.373108,87.007156L336.376709,87.029778L336.399902,87.213753L336.401855,87.234581L336.414307,87.427094L336.415039,87.447769L336.415955,87.648521L336.415344,87.670097L336.403992,87.86441L336.401855,87.887032L336.378357,88.074753L336.374573,88.098274L336.338928,88.279556L336.333252,88.303825L336.285461,88.478661L336.277832,88.502937L336.218018,88.671181L336.208313,88.695747L336.136414,88.857552L336.124573,88.881523L336.040527,89.036736L336.020752,89.068947L335.923645,89.20887L335.898499,89.240639L335.875122,89.264755L335.750305,89.380562L335.718994,89.406334L335.693542,89.423111L335.540894,89.514801L335.505066,89.533531L335.484985,89.541916L335.342957,89.595253L335.566467,89.81369L335.575928,89.823273L335.919128,90.186279L335.928467,90.196617L336.250854,90.566368L336.26001,90.577309L336.561584,90.953796L336.57074,90.965637L336.85144,91.349167L336.860168,91.361748L337.120117,91.752174L337.128479,91.765358L337.367737,92.162819L337.375671,92.176613L337.594116,92.580818L337.601624,92.59565L337.757874,92.921806L337.763123,92.933189L337.905884,93.261589L337.910706,93.273415L338.0401,93.604225L338.044739,93.616508L338.160706,93.949699L338.164795,93.962288L338.267273,94.297874L338.270813,94.310463L338.359985,94.648445L338.363098,94.661476L338.438782,95.001869L338.441467,95.015053L338.503662,95.357689L338.505737,95.370872L338.554565,95.715889L338.556213,95.729225L338.591614,96.076653L338.592651,96.089989L338.614502,96.439812L338.615112,96.452995L338.623535,96.805077L338.623657,96.818108L338.618713,97.172722L338.618286,97.1856L338.599854,97.542473L338.598938,97.555199L338.567017,97.914467L338.565674,97.926598L338.520447,98.288109L338.518494,98.301903L338.456299,98.675392L338.453796,98.689018L338.378113,99.05233L338.374817,99.066261L338.285645,99.419685L338.281799,99.433922L338.179321,99.777306L338.174683,99.791832L338.058716,100.125023L338.053162,100.139854L337.923706,100.46302L337.917419,100.477699L337.774658,100.790962L337.767334,100.805946L337.611023,101.109032L337.603088,101.123711L337.43335,101.416756L337.424377,101.431282L337.24115,101.714287L337.231567,101.728218L337.034973,102.001183L337.024658,102.014977L336.814636,102.277901L336.80365,102.290779L336.580322,102.543678L336.568787,102.556267L336.397217,102.732002L336.695374,102.852745L336.717224,102.862343L337.106445,103.052452L337.12561,103.062645L337.519958,103.287376L337.536865,103.297707L337.936462,103.556892L337.968933,103.580864L337.998596,103.608574L338.024719,103.639595L338.045349,103.670906L338.048645,103.670448L338.089111,103.669106L338.11322,103.670601L338.167175,103.67585L338.224243,103.686333L338.307251,103.708961L338.331543,103.716606L338.443604,103.756294L338.457825,103.761543L338.598816,103.818626L338.607483,103.822365L338.777527,103.896675L338.783386,103.899223L338.982483,103.990761L338.986816,103.992867L339.214844,104.101631L339.216614,104.102531L339.463684,104.222084L339.470459,104.22538L339.698425,104.341942L339.705933,104.345833L339.914917,104.459251L339.923767,104.464333L340.113586,104.57476L340.123474,104.580742L340.29425,104.688011L340.306091,104.695808L340.457886,104.800087L340.47168,104.809975L340.60437,104.911247L340.62085,104.924583L340.734436,105.022865L340.763489,105.05117L340.789001,105.082634L340.810547,105.116951L340.827942,105.153648L340.84082,105.192009L340.849182,105.231697L340.852783,105.272011L340.851624,105.312599L340.850708,105.318153L340.869995,105.314857L340.908386,105.310356L341.144348,105.296425L341.18927,105.29673L341.327698,105.306755L341.317383,105.303322L341.279785,105.28849L341.244141,105.269157L341.210999,105.245781L341.180908,105.218666L341.154236,105.188103L341.131287,105.154701L341.112427,105.118889L341.092773,105.063164L341.038391,104.851616L341.037231,104.846825L340.98822,104.644264L340.987061,104.63903L340.94342,104.445457L340.942261,104.439613L340.904053,104.255043L340.90271,104.248451L340.869873,104.072868L340.86853,104.065529L340.841125,103.898781L340.839905,103.890541L340.817871,103.73278L340.816711,103.723198L340.800232,103.574425L340.799316,103.564079L340.788086,103.424309L340.78717,103.411873L340.781494,103.281075L340.781189,103.266991L340.780884,103.145042L340.781189,103.128716L340.786255,103.015755L340.787781,102.996727L340.798279,102.892906L340.801086,102.870872L340.817017,102.775749L340.822388,102.749825L340.843628,102.663826L340.852661,102.63372L340.879456,102.556557L340.89502,102.518959L340.967712,102.369743L340.975769,102.354164L341.051331,102.217369L341.061768,102.199699L341.140442,102.075356L341.153198,102.056618L341.234985,101.944557L341.250732,101.924629L341.335327,101.825005L341.35498,101.803734L341.442749,101.71653L341.466431,101.695107L341.557251,101.620354L341.585693,101.599373L341.679626,101.537056L341.711853,101.518028L341.808777,101.467995L341.845642,101.451653L341.945435,101.414207L341.984497,101.402077L342.087585,101.3769L342.128052,101.369713L342.233948,101.356972L342.274414,101.354424L342.383301,101.354271L342.420654,101.356224L342.532715,101.368355L342.567444,101.374046L342.682495,101.398628L342.713806,101.406868L342.831909,101.444023L342.85553,101.4524L342.97467,101.499748L342.998901,101.510536L343.106201,101.563118L343.133179,101.577812L343.22876,101.63578L343.256897,101.654808L343.34082,101.717888L343.370483,101.742897L343.442688,101.811226L343.472046,101.842827L343.53241,101.916389L343.558777,101.953255L343.607483,102.031746L343.629944,102.074303L343.666809,102.158043L343.678345,102.188164L343.703247,102.263069L343.712952,102.298576L343.731689,102.38517L343.736755,102.41468L343.749207,102.512962L343.751343,102.535881L343.757751,102.645851L343.758362,102.664726L343.758789,102.786385L343.758484,102.802269L343.752808,102.935448L343.752075,102.948036L343.74054,103.092903L343.739319,103.104149L343.72168,103.260704L343.718628,103.281532L343.664856,103.587151L343.614807,103.995552L343.574097,104.362465L343.557434,104.528008L343.543396,104.680382L343.543213,104.683067L343.543091,104.683815L343.53125,104.827797L343.521667,104.961128L343.514771,105.077538L343.514587,105.082481L343.514465,105.082787L343.509644,105.192757L343.507263,105.282936L343.506958,105.370583L343.508606,105.439644L343.512207,105.500023L343.516724,105.541222L343.520447,105.56205L343.522522,105.569237L343.529297,105.585579L343.546936,105.620186L343.573486,105.665123L343.607666,105.717415L343.653809,105.782433L343.704285,105.849403L343.766296,105.927452L343.836548,106.012245L343.918335,106.107536L344.001221,106.201027L344.09845,106.307838L344.098267,106.307991L344.198059,106.414955L344.309692,106.532417L344.426819,106.653618L344.55481,106.783669L344.561707,106.791008L345.240662,107.523308L345.266418,107.554619L345.292908,107.597176L345.317383,107.643761L345.333984,107.680763L345.341003,107.701149L345.358582,107.757469L345.369934,107.80587L345.380432,107.872231L345.384338,107.910286L345.387756,107.986549L345.387756,108.015755L345.384338,108.101753L345.382507,108.12513L345.372009,108.221306L345.369507,108.240181L345.35199,108.346107L345.349243,108.360786L345.324829,108.476601L345.314087,108.515709L345.29895,108.553307L345.281555,108.585075L345.018616,109.013847L345.011108,109.025536L344.925293,109.153633L344.885742,109.228233L345.260864,109.47393L345.293518,109.498055L345.310181,109.513039L345.438538,109.63604L345.454895,109.652672L345.576843,109.786461L345.591248,109.803383L345.698181,109.937325L345.716614,109.91021L345.743286,109.879646L345.773376,109.852531L345.806335,109.829002L345.842041,109.809669L345.879639,109.794548L345.918701,109.784065L345.958862,109.778221L345.999329,109.777168L346.039795,109.780907L346.079346,109.789452L346.117676,109.802483L346.154236,109.820015L346.188538,109.841743L346.219849,109.867363L346.236328,109.883537L347.789795,111.5149L347.799988,111.526131L348.036072,111.797157L348.0448,111.807487L348.254089,112.067879L348.263672,112.080315L348.446167,112.329903L348.456604,112.345039L348.612122,112.583702L348.623352,112.602272L348.752075,112.830147L348.763733,112.852913L348.865784,113.07L348.877747,113.098625L348.95282,113.304924L348.96344,113.339973L349.011719,113.535332L349.0177,113.565453L349.043335,113.732048L349.046143,113.755562L349.060242,113.923668L349.061462,113.946587L349.06427,114.116325L349.063843,114.139397L349.055176,114.310493L349.053345,114.332664L349.033264,114.505409L349.030151,114.526527L348.99884,114.700768L348.994507,114.721291L348.951599,114.897026L348.946411,114.916206L348.892151,115.093437L348.886169,115.11097L348.820679,115.289848L348.814087,115.30648L348.737244,115.486717L348.730347,115.501991L348.641968,115.683876L348.634766,115.697807L348.535156,115.881035L348.527771,115.893761L348.416809,116.078636L348.409424,116.090324L348.287048,116.276695L348.279724,116.287483L348.145935,116.475212L348.138855,116.484795L347.993835,116.674156L347.986511,116.683296L347.825317,116.879417L347.81604,116.890343L347.651672,117.074181L347.641479,117.085106L347.473816,117.256798L347.46228,117.268044L347.291382,117.427452L347.278931,117.438377L347.104858,117.585655L347.091064,117.596733L346.913635,117.731728L346.898804,117.742516L346.71814,117.865364L346.702148,117.875557L346.518311,117.986122L346.501221,117.995857L346.314087,118.094276L346.295959,118.103127L346.10553,118.189415L346.086365,118.197365L345.892822,118.27137L345.873169,118.278267L345.676147,118.340141L345.655945,118.345833L345.455933,118.395424L345.435425,118.399757L345.231934,118.437218L345.211609,118.440361L345.005005,118.465675L344.984619,118.467476L344.774719,118.480507L344.741577,118.480965L344.471191,118.471672L344.432678,118.468224L344.154785,118.427025L344.120178,118.419991L343.8349,118.347023L343.804077,118.337593L343.511292,118.232567L343.484619,118.221779L343.184387,118.084694L343.161804,118.073311L342.85437,117.904472L342.835022,117.893074L342.520142,117.692177L342.503662,117.680931L342.181213,117.447975L342.167297,117.43734L341.884583,117.21006L341.873352,117.200615L341.607605,116.967659L341.596313,116.957314L341.347351,116.718666L341.336121,116.70742L341.103882,116.463219L341.092651,116.450783L340.87738,116.201042L340.866272,116.187401L340.667908,115.931816L340.657104,115.91729L340.475708,115.656151L340.465515,115.640572L340.428223,115.580193L340.395264,116.655434L340.391663,116.695885L340.38324,116.735435L340.378601,116.749367L340.403809,116.774086L340.42926,116.805702L340.450684,116.840019L340.467896,116.876717L340.480774,116.915215L340.489014,116.954918L340.492493,116.995216L340.49231,117.01754L340.367249,120.266487L340.363342,120.306786L340.354675,120.346489L340.341309,120.384697L340.323669,120.421104L340.306274,120.448967L340.252747,120.525978L340.239441,120.5438L340.176392,120.623055L340.16333,120.638481L340.090393,120.719841L340.079163,120.731819L339.996582,120.815422L339.985657,120.826057L339.893188,120.911751L339.883789,120.920143L339.838806,120.958794L339.901428,120.911598L340.084656,120.761635L340.117493,120.737816L340.153015,120.71804L340.19043,120.702751L340.229431,120.691826L340.269531,120.685524L340.309998,120.684181L340.350464,120.687477L340.390137,120.695564L340.428528,120.708305L340.46521,120.725533L340.499695,120.746803L340.531433,120.772118L340.559875,120.801033L340.584778,120.832954L340.605591,120.867699L340.622253,120.904716L340.634521,120.943367L340.639587,120.967476L340.812927,121.95179L340.813416,121.95388L341.131165,123.828545L341.131287,123.830193L341.79303,127.848L341.793213,127.848747L342.315002,131.062622L342.315308,131.063995L342.437439,131.835541L342.437561,131.836884L342.647461,133.198273L342.647583,133.199493L342.889709,134.805664L342.889893,134.806427L343.164185,136.657562L343.164307,136.658325L343.470703,138.754425L343.474182,138.794708L343.472778,138.835327L343.466797,138.875305L343.455994,138.914429L343.440735,138.952026L343.421143,138.987366L343.397461,139.020355L343.361816,139.057953L343.229187,139.178253L343.21106,139.193665L343.069641,139.305145L343.051208,139.318634L342.9823,139.365814L343.067688,139.339447L343.332153,139.249268L343.564026,139.160858L343.602722,139.148743L343.642395,139.141235L343.682861,139.138397L343.723328,139.140503L343.782349,139.152191L344.236694,139.284912L344.238525,139.285522L344.645447,139.40686L344.647949,139.407623L345.007263,139.517731L345.010376,139.518646L345.322021,139.617523L345.326477,139.619019L345.590332,139.706665L345.594849,139.70816L345.708984,139.747864L345.712708,139.749207L345.81488,139.786072L345.819275,139.78772L345.909607,139.821716L345.916016,139.824249L345.994385,139.85556L346.002319,139.858704L346.068665,139.887177L346.079651,139.89212L346.134033,139.917755L346.145691,139.923584L346.275757,139.990997L346.287292,139.997314L346.399963,140.061279L346.414185,140.069824L346.50946,140.130188L346.528015,140.142761L346.606079,140.199707L346.631104,140.219788L346.691772,140.273407L346.723572,140.305481L346.766968,140.355499L346.791687,140.387726L346.808044,140.414093L346.833984,140.460846L346.851501,140.497375L346.864502,140.535736L346.870239,140.559418L346.878906,140.60257L346.88446,140.6427L346.885376,140.683167L346.88147,140.723602L346.872742,140.763153L346.859558,140.801514L346.841919,140.837921L346.826599,140.86264L346.798889,140.903534L346.77417,140.93576L346.74585,140.964661L346.711731,140.992096L346.65625,141.030884L346.621643,141.052155L346.59906,141.063263L346.515869,141.10025L346.480835,141.113586L346.369812,141.149109L346.363708,141.151031L346.224976,141.192535L346.201111,141.1987L345.759644,141.296967L345.74646,141.299652L345.302246,141.38028L345.288574,141.382507L344.841858,141.445282L344.828491,141.446777L344.379028,141.491882L344.36554,141.493073L343.913391,141.520508L343.89978,141.520935L343.445251,141.530518L343.432068,141.530518L342.97467,141.522583L342.961487,141.522156L342.501709,141.496368L342.484924,141.495026L342.173706,141.462219L342.164307,141.461182L341.841125,141.41803L341.832581,141.416656L341.497131,141.36319L341.489075,141.361847L341.141479,141.297852L341.134155,141.296509L340.774414,141.222198L340.767578,141.220703L340.395569,141.135925L340.389404,141.134399L340.005249,141.039276L339.999451,141.037781L339.762268,140.974701L339.506958,141.268188L339.478699,141.297119L339.447083,141.322571L339.41272,141.343994L339.376038,141.361389L339.337524,141.374268L339.297974,141.382507L339.243591,141.386108L339.014832,141.382965L339.003601,141.382507L338.796082,141.372925L338.782288,141.37204L338.596252,141.355835L338.579285,141.354034L338.414368,141.331421L338.392944,141.327667L338.249268,141.298615L338.221375,141.29187L338.098999,141.256226L338.063049,141.243469L337.961914,141.201385L337.915771,141.177856L337.835632,141.129181L337.798889,141.103546L337.720581,141.040619L337.688171,141.010956L337.619873,140.939941L337.590698,140.905334L337.53241,140.82608L337.508423,140.788788L337.460205,140.701447L337.442078,140.663086L337.403687,140.567352L337.391235,140.53006L337.362976,140.426239L337.355286,140.391632L337.336853,140.279541L337.333313,140.247803L337.32489,140.127655L337.324463,140.087189L337.328796,140.046875L337.337952,140.007324L337.351563,139.969269L337.369568,139.933014L337.391846,139.899017L337.406982,139.881042L337.405945,139.88028L337.295105,139.797455L337.264038,139.771362L337.236328,139.741699L337.212402,139.709045L337.192444,139.673859L337.176697,139.636383L337.164917,139.593842L337.048035,139.042358L336.933105,138.510223L336.819702,137.992432L336.708252,137.49295L336.59845,137.010254L336.490417,136.544312L336.49054,136.544312L336.384766,136.097107L336.384644,136.097107L336.279785,135.663666L336.177002,135.24884L336.075989,134.851074L336.076172,134.851074L335.97699,134.470093L335.879578,134.106476L335.783997,133.759796L335.690979,133.432892L335.598267,133.117371L335.51001,132.828247L335.387756,132.452484L335.257996,132.068054L335.119568,131.671356L334.972473,131.262177L334.81665,130.840912L334.652161,130.407318L334.478943,129.961334L334.299805,129.509766L333.606445,127.859535L332.985107,128.939117L332.546631,129.747528L332.128784,130.540222L331.736084,131.308624L331.362183,132.065063L331.013367,132.797058L330.690063,133.503906L330.385193,134.200562L330.056335,134.990112L330.003906,135.1203L329.883301,135.430267L329.743408,135.802246L329.583984,136.23703L329.405396,136.733978L329.207458,137.293396L329.207336,137.293396L328.874756,138.247894L328.874878,138.247894L328.754272,138.59787L328.751892,138.604584L327.906189,140.899658L327.889832,140.936798L327.869324,140.971863L327.84491,141.004059L327.816711,141.033295L327.7854,141.058899L327.736572,141.088409L327.629456,141.141449L327.593933,141.156586L327.459412,141.205292L327.433472,141.213531L327.271545,141.258026L327.251892,141.262817L327.279602,141.277802L327.312744,141.301147L327.342834,141.328278L327.36969,141.358704L327.392578,141.39209L327.411499,141.42807L327.425842,141.46582L327.437256,141.512695L327.460144,141.649933L327.463013,141.671051L327.476318,141.799591L327.477966,141.82431L327.48175,141.944336L327.481445,141.972504L327.475769,142.083954L327.472473,142.116333L327.457336,142.219086L327.449646,142.256683L327.424805,142.350922L327.411743,142.390625L327.377625,142.476166L327.357117,142.518585L327.313354,142.595428L327.304321,142.610413L327.221924,142.73941L327.203552,142.765472L327.101501,142.896576L327.084412,142.916931L326.962891,143.050293L326.947021,143.06662L326.80603,143.202057L326.791687,143.215088L326.631042,143.352753L326.618347,143.363098L326.438416,143.503021L326.426697,143.511719L326.227173,143.653748L326.21698,143.660797L325.998108,143.804901L325.984741,143.813141L325.710754,143.976166L325.692139,143.986481L325.425171,144.123718L325.403625,144.133911L325.143555,144.245361L325.11792,144.255127L324.864746,144.340515L324.835938,144.348907L324.589783,144.408539L324.556824,144.414673L324.317566,144.448364L324.281311,144.45166L324.04895,144.459473L324.01001,144.458405L323.784546,144.440277L323.755188,144.436707L323.576904,144.406738L323.557861,144.402985L323.390503,144.365082L323.369263,144.359528L323.21283,144.313385L323.190063,144.305908L323.044617,144.251678L323.020325,144.241486L322.885803,144.179169L322.860168,144.165985L322.736572,144.095551L322.710205,144.078918L322.597534,144.000427L322.571045,143.979889L322.469421,143.893158L322.44458,143.869629L322.35376,143.774933L322.330566,143.747986L322.250732,143.645203L322.230042,143.615692L322.161133,143.504669L322.144165,143.473969L322.086182,143.354858L322.072876,143.3237L322.025818,143.196503L322.016235,143.165955L321.980164,143.03064L321.973694,143.001587L321.948547,142.858215L321.944763,142.830658L321.930725,142.679169L321.929199,142.642029L321.930542,142.555298L321.934875,142.506592L321.952148,142.398712L321.95874,142.367249L321.991943,142.238281L321.998108,142.217133L322.047241,142.067017L322.052673,142.051605L322.117981,141.880219L322.122437,141.868958L322.203674,141.676453L322.207581,141.667603L322.304932,141.453979L322.308228,141.447083L322.421631,141.212158L322.441406,141.176819L322.465088,141.144012L322.492676,141.114197L322.505981,141.102661L322.488892,141.095459L322.410889,141.059204L322.38147,141.043762L322.320801,141.008118L322.277649,140.978149L322.234375,140.94281L322.20459,140.915375L322.177002,140.882874L322.15094,140.848114L322.128601,140.814392L322.110352,140.778137L322.092529,140.72525L322.081726,140.681976L322.074097,140.64032L322.066284,140.575897L322.064331,140.554474L322.059387,140.469086L322.05896,140.455597L322.057007,140.34906L322.056824,140.339935L322.057922,140.21228L322.058044,140.206146L322.061951,140.057526L322.062073,140.052582L322.06897,139.882996L322.069153,139.879395L322.078857,139.68869L322.079041,139.685669L322.091736,139.473846L322.091919,139.471436L322.107483,139.238617L322.107605,139.236389L322.126343,138.982422L322.126526,138.980927L322.147949,138.706024L322.148071,138.703766L322.19989,138.090729L322.200195,138.08847L322.263916,137.391083L322.264221,137.387482L322.345825,136.587158L322.34613,136.584015L322.431091,135.821289L322.431519,135.817688L322.520081,135.092438L322.520508,135.088531L322.612366,134.401031L322.612976,134.396667L322.708374,133.746613L322.709167,133.741821L322.807861,133.129517L322.808899,133.123962L322.911255,132.549133L322.912292,132.542969L323.018066,132.005737L323.018982,132.001678L323.063171,131.790588L323.063904,131.786713L323.113831,131.561676L323.114563,131.55838L323.169983,131.319122L323.170593,131.316589L323.231384,131.063232L323.231995,131.060699L323.298401,130.793121L323.299133,130.79071L323.371216,130.509064L323.371643,130.507111L323.449097,130.211212L323.449524,130.209412L323.532532,129.899597L323.53302,129.897949L323.621521,129.573761L323.622009,129.572266L323.716064,129.233948L323.71637,129.232452L323.815979,128.880096L323.816467,128.878906L323.921631,128.512299L323.921936,128.51123L324.032471,128.130554L324.032776,128.129364L324.149048,127.734444L324.149353,127.733391L324.270996,127.324394L324.271301,127.323494L324.398621,126.900261L324.399963,126.896065L325.870422,122.223854L325.884827,122.185951L325.903687,122.149986L325.926453,122.116585L325.953308,122.086174L325.983276,122.059059L326.016357,122.03553L326.052002,122.016212L326.089661,122.001228L326.128906,121.99073L326.16571,121.985497L326.155396,121.951927L326.148071,121.912086L326.145508,121.871635L326.147766,121.831184L326.158081,121.778297L326.407532,120.880287L326.420593,120.841942L326.438232,120.805534L326.454163,120.780357L326.43988,120.773918L326.205566,120.660057L326.189392,120.651665L325.955261,120.522072L325.94043,120.51339L325.706543,120.368217L325.692932,120.35923L325.459229,120.198326L325.446899,120.189476L325.213501,120.012993L325.202087,120.004005L324.968872,119.81179L324.958801,119.803246L324.725708,119.595451L324.716431,119.586769L324.483582,119.363243L324.475342,119.355003L324.242676,119.115883L324.235046,119.107948L324.002686,118.853264L323.993958,118.843224L323.798767,118.6119L323.787964,118.598564L323.601624,118.35392L323.592163,118.340889L323.414368,118.083046L323.405518,118.06971L323.236511,117.798546L323.228882,117.785515L323.06842,117.500999L323.061646,117.488426L322.909912,117.190727L322.903748,117.178154L322.760864,116.867134L322.755737,116.855141L322.621338,116.530937L322.616699,116.519402L322.491028,116.181862L322.487122,116.170631L322.370117,115.819756L322.366638,115.80912L322.258362,115.445061L322.255493,115.434731L322.155884,115.057335L322.153503,115.0476L322.062561,114.656868L322.060425,114.647575L321.97821,114.243675L321.976563,114.234688L321.902954,113.817451L321.901611,113.809196L321.836609,113.378777L321.835266,113.368889L321.780151,112.915398L321.779053,112.905647L321.738159,112.464439L321.737427,112.453957L321.710938,112.025032L321.710327,112.013786L321.698303,111.597298L321.698181,111.58532L321.700562,111.180962L321.700867,111.168373L321.717651,110.776451L321.718567,110.762962L321.749878,110.383324L321.751343,110.36924L321.796936,110.002037L321.799011,109.987053L321.85907,109.631996L321.862061,109.616417L321.936523,109.273781L321.940613,109.257607L322.029419,108.927254L322.034363,108.910316L322.137756,108.592262L322.14386,108.574883L322.261658,108.269096L322.268982,108.251579L322.401123,107.958229L322.409668,107.940559L322.556213,107.659492L322.566223,107.641823L322.727295,107.373039L322.750061,107.339485L322.776733,107.308922L322.806824,107.281807L322.839783,107.258278L322.875427,107.23896L322.901367,107.228477L322.888916,107.196266L322.879028,107.156853L322.873779,107.116707L322.873352,107.076256L322.877686,107.035957L322.886658,106.996407L322.90033,106.958199L322.910217,106.937233L322.97821,106.803444L322.98645,106.788002L323.066284,106.648979L323.07428,106.635796L323.165955,106.491524L323.173462,106.480278L323.276794,106.33091L323.283691,106.32148L323.398743,106.166862L323.405334,106.15818L323.532227,105.998466L323.538086,105.991432L323.676514,105.826485L323.682068,105.819893L323.832336,105.649696L323.839539,105.641747L324.167175,105.293282L324.182007,105.278603L324.513245,104.966682L324.530151,104.951698L324.864563,104.676033L324.884338,104.660896L325.222046,104.421486L325.25647,104.400063L325.293213,104.382835L325.331543,104.369957L325.371277,104.36187L325.411682,104.358421L325.452148,104.359764L325.49231,104.365913L325.53125,104.376701L325.561218,104.388985L325.560181,104.385841L325.552551,104.345985L325.549377,104.305534L325.551208,104.265083L325.5578,104.225075L325.569031,104.186134L325.584717,104.148827L325.604675,104.113609L325.628784,104.080956L325.656494,104.051445L325.6875,104.02523L325.721375,104.003044L325.756714,103.985374L326.068359,103.85128L326.078857,103.846947L326.38269,103.727837L326.394226,103.723488L326.690125,103.619667L326.702698,103.615623L326.990906,103.526787L327.004883,103.522743L327.285156,103.449181L327.300293,103.44558L327.572998,103.387154L327.5896,103.38401L327.854614,103.340706L327.872314,103.33831L328.129395,103.30999L328.169983,103.307899L328.210327,103.310738L328.250122,103.31823L328.288818,103.330376L328.325806,103.346855L328.360535,103.367821L328.392639,103.39254L328.42157,103.421013L328.446838,103.452614L328.465759,103.48243L328.503174,103.548805L328.508911,103.556892L328.497803,103.517937L328.491333,103.477943L328.489868,103.43734L328.492981,103.397041L328.500793,103.357185L328.513367,103.318687L328.530334,103.281822L328.551575,103.247368L328.576721,103.215614L328.605347,103.186989L328.637268,103.16198L328.671875,103.140846L328.70874,103.124077L328.747375,103.111641L328.763733,103.108498L328.551758,102.99868L328.532715,102.988029L328.04895,102.697243L328.03125,102.68586L327.554871,102.358208L327.538818,102.346519L327.069763,101.982155L327.055054,101.970024L326.593445,101.56881L326.580566,101.556984L326.275696,101.263039L326.264587,101.266777L326.23468,101.275322L326.093994,101.308434L326.073181,101.31263L325.935486,101.336143L325.912415,101.339302L325.777832,101.352928L325.753723,101.354576L325.62207,101.35862L325.596436,101.358467L325.468018,101.352776L325.441345,101.350533L325.315796,101.335106L325.288574,101.330605L325.166138,101.305443L325.139038,101.298698L325.019653,101.263786L324.992981,101.254799L324.876587,101.210152L324.850952,101.199074L324.737671,101.144676L324.713989,101.13224L324.60376,101.068275L324.581543,101.054192L324.474121,100.980339L324.454224,100.965508L324.349976,100.882057L324.33197,100.866615L324.230713,100.77343L324.214661,100.757698L324.116516,100.654778L324.102905,100.639641L324.007629,100.526985L323.993103,100.508415L323.905457,100.389L323.892578,100.370277L323.816467,100.250725L323.803589,100.228844L323.739319,100.109138L323.727478,100.084572L323.674866,99.964577L323.664246,99.937309L323.623352,99.816994L323.614807,99.787483L323.585571,99.667183L323.579468,99.635567L323.56189,99.514824L323.558777,99.482155L323.552917,99.361412L323.552917,99.3283L323.558777,99.2071L323.56189,99.174431L323.579468,99.05323L323.585266,99.022362L323.614502,98.900719L323.622864,98.871498L323.663757,98.749855L323.67395,98.723335L323.726563,98.601387L323.737976,98.577553L323.802246,98.455315L323.814514,98.433739L323.835022,98.400627L323.829041,98.399574L323.790222,98.387749L323.753052,98.371559L323.71814,98.350883L323.685974,98.326317L323.656738,98.298149L323.630249,98.265343L323.593994,98.214546L323.591858,98.214546L323.551697,98.20916L323.512451,98.19912L323.474731,98.184441L323.438904,98.165413L323.40564,98.142342L323.375244,98.115379L323.34845,98.085106L323.325195,98.051994L323.304688,98.013191L323.180481,97.736641L323.166077,97.698738L323.156189,97.659325L323.151123,97.619179L323.150818,97.578575L323.15741,97.527046L323.161743,97.506218L323.134949,97.486443L323.105408,97.458717L323.079346,97.427711L323.057007,97.393852L323.039063,97.357445L323.020447,97.300209L322.979553,97.122536L322.975098,97.123131L322.934448,97.123436L322.894348,97.118935L322.854797,97.109795L322.816711,97.096016L322.780457,97.077888L322.746582,97.055565L322.715576,97.02935L322.688049,96.99984L322.668701,96.974068L322.43634,96.633232L322.426453,96.617943L322.200989,96.246407L322.192871,96.232323L321.974304,95.829903L321.967407,95.816566L321.755859,95.383003L321.749695,95.369514L321.554504,94.92141L321.547913,94.905388L321.385376,94.473763L321.379089,94.455482L321.248901,94.040337L321.243042,94.019218L321.145508,93.620552L321.140564,93.596733L321.075378,93.214394L321.071777,93.187126L321.039307,92.821129L321.037964,92.791008L321.037659,92.44149L321.039307,92.408073L321.071655,92.074883L321.075684,92.045815L321.144897,91.670227L321.147583,91.656738L321.230591,91.289536L321.234192,91.275604L321.331299,90.917244L321.335327,90.90316L321.44635,90.553185L321.452637,90.53521L321.540894,90.302689L321.54657,90.288757L321.638428,90.075417L321.645447,90.060135L321.740723,89.865677L321.749878,89.848297L321.848572,89.673012L321.860413,89.653534L321.962769,89.497124L321.978027,89.475548L322.083801,89.338318L322.103455,89.315094L322.212646,89.196739L322.238281,89.171722L322.294922,89.121826L322.79126,88.014381L322.791992,88.012733L322.904541,87.765083L322.915588,87.742912L323.038147,87.518036L323.052368,87.494209L323.184692,87.292259L323.203247,87.26664L323.345703,87.087608L323.368469,87.061691L323.520874,86.905434L323.548706,86.879959L323.710999,86.74662L323.743347,86.722954L323.915466,86.612389L323.952332,86.591866L324.134521,86.504372L324.143677,86.500023L324.257202,86.449532L324.369446,86.394852L324.489868,86.331177L324.612122,86.262413L324.750244,86.180016L324.883301,86.096413L325.034485,85.997383L325.159424,85.912292L325.465637,85.607414L325.727661,85.254288L325.755554,85.221329L325.878235,85.093384L325.887207,85.084396L326.005737,84.969635L326.016541,84.959602L326.130554,84.858322L326.144043,84.846939L326.253662,84.759148L326.269714,84.747009L326.375061,84.672401L326.395996,84.658768L326.497009,84.597794L326.522156,84.583855L326.618774,84.536064L326.651917,84.521835L326.744202,84.487679L326.782837,84.47599L326.807434,84.471046L326.890259,84.457413L326.930542,84.453064L326.961426,84.453064L327.058044,84.457413zM339.266357,109.90287L339.265625,109.906013L339.302795,109.901665L339.332581,109.900322L339.269104,109.887276L339.268188,109.886986L339.266357,109.90287zM341.223145,113.477959L341.218506,113.496986L341.220276,113.496086L341.258484,113.482307L341.297913,113.473167L341.312561,113.471519L341.226318,113.446495L341.223145,113.477959zM329.781433,106.617363L329.779907,106.624855L329.824402,106.61422L329.84137,106.610924L329.782471,106.605537L329.781433,106.617363zM333.996399,110.393669L334.007629,110.432625L334.014099,110.472618L334.015747,110.496437L334.019348,110.608208L334.020386,110.602211L334.026672,110.542885L334.027405,110.491341L334.023804,110.451942L334.016602,110.418388L334.000305,110.371193L333.989197,110.332085L333.98291,110.292091L333.9823,110.274712L333.952515,110.268715L333.996399,110.393669zM345.547913,113.615044L345.36438,113.820885L345.348206,113.837975L345.149536,114.032127L345.132629,114.047569L344.918823,114.230186L344.901184,114.244423L344.672241,114.415215L344.654419,114.427498L344.471924,114.546455L344.67511,114.428703L344.904175,114.270195L345.11615,114.095512L345.307312,113.908836L345.483948,113.703728L345.548218,113.614586L345.547913,113.615044zM343.892456,113.554512L343.877625,113.566048L343.584717,113.782539L343.550842,113.804558L343.546509,113.806664L343.719238,113.833778L343.905334,113.543877L343.892456,113.554512zM341.388855,109.455956L341.35321,109.478432L341.117371,109.606377L341.082886,109.622551L340.819519,109.729668L340.787903,109.740761L340.496704,109.827202L340.457275,109.836494L340.422974,109.840538L339.936646,109.874397L340.56543,109.847282L340.755554,109.825111L340.919739,109.785713L341.07019,109.72773L341.207886,109.651924L341.33551,109.556786L341.453125,109.441719L341.51123,109.368614L341.388855,109.455956zM331.565033,114.336426L331.314728,114.820129C331.906677,116.193443,332.202667,117.378181,332.202667,118.37265L332.438599,118.331207L332.577271,118.23481L332.633087,118.124031C332.614471,117.331665,332.485107,116.023468,332.24408,114.198586L331.565033,114.336426zM334.671082,109.291359C334.782684,109.088402,334.824127,108.936188,334.796234,108.834717L334.352264,108.641068L333.700287,108.378914C333.469421,108.240234,333.330719,108.070259,333.28421,107.86731C333.173431,107.359924,332.923981,106.987,332.535828,106.747681C332.313446,106.609001,332.063965,106.526123,331.786591,106.498222C332.397156,106.849159,332.78952,107.52652,332.965424,108.530289C332.993317,108.678268,332.997559,108.83979,332.979797,109.014832L333.132019,109.041893C333.473633,109.263451,333.737488,109.553505,333.922668,109.912903L334.061371,109.940811C334.162842,109.922203,334.269379,109.848633,334.380157,109.719254L334.671082,109.291359zM343.686401,139.48143C343.390411,139.601501,343.0065,139.725815,342.534637,139.855194C341.758331,140.066605,341.074219,140.190918,340.482269,140.228119L337.667145,140.103821C337.676453,140.435303,337.791473,140.679688,338.013855,140.836136C338.199066,140.974823,338.610046,141.04332,339.248505,141.04332L339.608734,140.628952L339.636658,140.587524L339.69162,140.601044C340.764709,140.896179,341.707611,141.080521,342.521118,141.154099C343.750671,141.246277,344.953156,141.149872,346.126892,140.864044L346.265594,140.822601C346.43219,140.776093,346.524353,140.726196,346.542969,140.670395C346.542969,140.559601,346.357758,140.412476,345.98822,140.228119C345.729462,140.09874,344.961609,139.850128,343.686401,139.48143zM322.730682,141.361267C322.406799,142.015808,322.254578,142.444534,322.272339,142.647491C322.318848,143.477051,322.832153,143.960754,323.812256,144.098602C324.404205,144.181473,325.069702,143.987823,325.809631,143.518494C326.419342,143.131195,326.821869,142.766724,327.015533,142.425934C327.144897,142.232285,327.172821,141.946457,327.099243,141.569305L324.061707,141.67923C323.617737,141.652176,323.173798,141.545624,322.730682,141.361267zM338.055298,104.023888C337.888702,104.254745,337.639252,104.540573,337.306061,104.881363L336.543304,105.530815L336.488342,105.545189L336.391083,105.600159C336.270996,105.673721,336.257477,105.788734,336.34967,105.946022C336.516235,106.30542,336.76062,106.945564,337.084503,107.86731C337.519165,109.083328,337.852356,110.166595,338.083221,111.115395C338.314056,112.05574,338.517853,113.239632,338.693756,114.668762L338.915314,116.825134L338.915314,116.86657L338.943237,117.156624C339.349976,117.045845,339.719513,116.87587,340.052704,116.645012L340.163483,113.037529C339.914001,112.92675,339.760956,112.806671,339.705994,112.678131C339.67807,112.57666,339.710205,112.383003,339.803223,112.097183L340.02478,111.599098C339.700928,111.572037,339.47937,111.489166,339.359283,111.350479C339.146179,111.111168,338.979584,110.714569,338.859497,110.161514L338.832458,110.05159C338.813843,109.959412,338.845978,109.890068,338.928833,109.843559L338.484894,109.387756C338.281921,109.083328,338.14325,108.706177,338.068848,108.254608C337.99527,107.87661,337.98172,107.558647,338.027405,107.300735C338.12973,106.674118,338.480652,106.176033,339.081909,105.807335C339.47937,105.558716,339.955444,105.383675,340.510193,105.282196C340.232819,105.024277,339.751648,104.734222,339.067535,104.411194C338.420624,104.098305,338.083221,103.968918,338.055298,104.023888zM346.321411,110.894684C346.598755,111.61348,346.565796,112.360168,346.224152,113.133926C345.881683,113.899231,345.336243,114.47934,344.58786,114.875938C344.198853,115.087349,343.677094,115.156693,343.02005,115.083122C342.410339,115.028152,341.915649,114.885239,341.536804,114.654388L341.231506,114.364334L341.190063,114.3508C340.958374,114.055672,340.843353,113.788452,340.843353,113.548294L340.884796,113.423981L340.551636,113.271774L340.593048,115.193901C341.009125,115.912689,341.60614,116.571442,342.382416,117.170151C343.25174,117.833984,344.042419,118.156166,344.753601,118.138412C345.881683,118.101196,346.871063,117.54393,347.721771,116.465736C348.52597,115.45182,348.845612,114.502167,348.679047,113.617638C348.586029,113.111099,348.207184,112.488708,347.541656,111.751312L345.98822,110.120087L346.321411,110.894684zM330.594238,106.926956C330.140991,106.862686,329.674194,106.954865,329.193024,107.203484C328.564728,107.544273,328.070038,108.106621,327.708954,108.889679C327.385925,109.590714,327.196472,110.341637,327.140686,111.143303C327.084869,111.982178,327.191406,112.719566,327.459473,113.355484L327.834106,114.004936L328.305969,114.48864C329.072937,115.096649,329.711395,115.322441,330.219635,115.165993C330.543518,115.073822,330.820892,114.806595,331.051758,114.364334L330.288971,114.3508L330.135925,114.267082L330.080963,114.115715C330.099548,113.967728,330.178192,113.894157,330.316895,113.894157C330.871613,113.894157,331.522766,113.807053,332.272003,113.631165C333.187805,113.401154,333.714661,113.1297,333.853333,112.815971C334.019928,112.419365,334.056274,112.106483,333.964111,111.875626L333.825439,111.668442L333.298584,111.97287C332.863953,112.202881,332.286377,112.327194,331.565033,112.345795L330.551971,112.304359C330.422577,112.285759,330.358307,112.207962,330.358307,112.069275C330.376923,111.931435,330.455566,111.862091,330.594238,111.862091L330.913055,111.875626L332.410675,111.751312L333.090576,111.557663L333.36795,111.364861C333.598785,111.152603,333.700287,110.866776,333.673218,110.507385L333.575958,110.230865C333.3172,110.055817,333.081268,109.788589,332.868164,109.429199C332.803894,109.604248,332.697357,109.769989,332.549377,109.927277C332.253387,110.230865,331.833099,110.447342,331.287659,110.576729L330.163818,110.659599C329.6091,110.567421,329.091553,109.692192,328.610382,108.033051L329.040833,107.908737C329.207397,108.480392,329.401062,108.991158,329.623474,109.442726C329.863617,109.931503,330.066589,110.189423,330.233154,110.217331L331.19043,110.13446C331.643677,110.023682,331.985321,109.848633,332.217041,109.609314C332.4758,109.350555,332.572205,109.019058,332.507935,108.613998C332.397156,107.931572,332.124023,107.466476,331.689362,107.217857C331.486389,107.08847,331.121094,106.992073,330.594238,106.926956zM329.719879,107.300735L330.607788,107.355698C330.690643,107.355698,330.755768,107.40136,330.802277,107.49353L331.065277,108.2267C331.231873,108.751846,331.314728,109.157745,331.314728,109.442726L330.857239,109.442726C330.857239,109.101936,330.714325,108.553963,330.427673,107.797966L329.983704,107.770058C330.131683,108.535362,330.321106,109.088402,330.551971,109.429199L330.178192,109.677811C329.872925,109.216942,329.642059,108.512527,329.484772,107.562874L329.539734,107.369232C329.586243,107.323563,329.646301,107.300735,329.719879,107.300735zM342.729126,101.771118C342.091522,101.540253,341.582458,101.840454,341.203613,102.669182C341.046326,103.05648,341.120728,103.826012,341.425171,104.977768C341.675476,105.042877,341.984985,105.268661,342.354523,105.655121C342.539703,105.867378,342.696991,106.138824,342.826385,106.471161L342.978607,106.899902C342.978607,107.019135,342.923645,107.092705,342.812012,107.120613C342.701233,107.139214,342.622589,107.097778,342.576935,106.9963L342.243744,106.18026C341.892792,105.70163,341.370209,105.540115,340.676788,105.696556C339.918243,105.880905,339.354187,106.143898,338.98465,106.484695C338.716583,106.724007,338.536469,107.028435,338.443451,107.397133C338.397797,107.590782,338.407074,107.858002,338.471344,108.198792C338.545776,108.576797,338.665863,108.889679,338.832458,109.139145C339.016785,109.397064,339.211304,109.539978,339.414246,109.567032L340.399414,109.498535C340.806152,109.397064,341.138489,109.240616,341.398102,109.028366C341.647552,108.816109,341.781189,108.586098,341.799774,108.337479L341.702545,107.521439C341.65686,107.08847,341.679688,106.871994,341.771881,106.871994C341.799774,106.871994,341.887726,107.056343,342.035706,107.425041C342.183716,107.811493,342.26236,108.060959,342.271637,108.170891C342.271637,108.548889,342.170166,108.926888,341.96637,109.304886C341.661102,109.857933,341.203613,110.153061,340.593048,110.189423L339.317841,110.244392C339.419312,110.631691,339.54361,110.908218,339.69162,111.073959C339.8396,111.249008,340.264954,111.396996,340.967682,111.516228C341.771881,111.645615,342.368896,111.566971,342.75705,111.28199L343.034424,111.309044C343.135895,111.391922,343.145203,111.484093,343.062317,111.585571L342.451782,112.083649C341.887726,112.322968,341.184998,112.262924,340.343597,111.903526C340.251434,112.050674,340.27002,112.285759,340.399414,112.608788C340.472992,112.802444,340.847595,112.99102,341.5224,113.175369L343.381134,113.506859C343.787872,113.221878,344.129517,112.921677,344.406891,112.608788L344.795868,112.000778C344.860138,111.889999,344.953156,111.862091,345.073242,111.917061C345.174713,111.982178,345.211914,112.074348,345.184021,112.193581C345.118896,112.360168,344.975983,112.580887,344.753601,112.857407L343.963776,114.087807C343.917267,114.170685,343.843689,114.20282,343.741364,114.184212L341.355835,113.811287L341.60614,114.170685C341.781189,114.373634,342.114349,114.516548,342.603973,114.599419C343.149414,114.691589,343.602692,114.640854,343.963776,114.447205C344.675781,114.069206,345.225464,113.566895,345.613617,112.940277C346.038971,112.267998,346.141266,111.636307,345.918884,111.046898C345.706635,110.503159,345.424194,110.074417,345.073242,109.760689L344.58786,109.442726L344.518494,109.304886C344.509216,109.194107,344.578552,109.037666,344.726532,108.834717L344.989532,108.405975C345.063934,108.083786,345.063934,107.86731,344.989532,107.756531L344.310486,107.024208C343.607758,106.31472,343.233124,105.853844,343.186615,105.641594C343.131653,105.402275,343.177338,104.701241,343.325317,103.540184L343.381134,103.222229C343.436096,102.789261,343.427643,102.480606,343.35321,102.296249C343.270355,102.066238,343.062317,101.89035,342.729126,101.771118zM339.719513,107.037735L339.77533,106.816177L340.315704,106.291039L340.454376,106.263977L340.56601,106.38829L340.787567,107.175575C340.935547,107.747223,341.004883,108.203873,340.995575,108.544662L340.662415,108.530289C340.662415,108.16243,340.556702,107.595016,340.343597,106.830559L340.066223,107.092705C340.195618,107.87661,340.330078,108.415283,340.46875,108.710403L340.191376,108.959023L339.872589,107.908737L339.719513,107.037735zM321.773407,90.656914C321.616119,91.117783,321.496063,91.601486,321.413177,92.108025C321.283783,92.9748,321.500275,94.015778,322.064331,95.232651C322.341675,95.83136,322.637665,96.347198,322.95224,96.781013C322.896423,95.970047,323.068085,95.236877,323.465546,94.582359L324.283264,93.449203C323.950928,93.319824,323.641418,93.154076,323.354767,92.951126C322.993683,92.683907,322.794952,92.421753,322.757751,92.163834C322.712067,91.804443,322.75351,91.472107,322.882904,91.168526C323.058777,90.753319,323.381805,90.481865,323.853699,90.352486L324.158966,90.297516L325.171204,90.366859L326.059113,90.421829L326.141968,90.393921C326.197784,90.366859,326.415131,89.983788,326.793976,89.246391C327.154205,88.546204,327.491608,88.154678,327.806183,88.0718L328.042114,88.058273L328.596863,88.209641L329.110168,88.361855L329.747772,88.555504L330.205261,88.583412L330.358307,88.514069L330.677124,88.224014L330.995941,87.947495C331.098267,87.864624,331.203949,87.808807,331.314728,87.781746L331.98111,87.808807C332.184052,87.855316,332.563751,88.081108,333.118469,88.486168L333.977631,89.108551C334.4216,89.320808,334.824127,89.380005,335.184357,89.288673C335.443146,89.214256,335.628326,89.076416,335.739105,88.873466C335.979279,88.468407,336.090881,87.993156,336.072296,87.449417C336.05368,86.924271,335.91922,86.49131,335.669769,86.150513C335.476105,85.864693,335.235107,85.648209,334.948425,85.500221C335.069366,85.823257,335.045685,86.104004,334.879089,86.34417C334.685455,86.611389,334.430908,86.786438,334.116333,86.869308C333.66391,86.988541,333.224182,86.910744,332.798828,86.634224C331.745178,85.934036,331.055969,85.588165,330.732941,85.597473L330.4133,85.652435C330.238251,85.698944,330.034454,85.795349,329.803589,85.943336L329.303802,86.219009L328.915649,86.164047L328.263672,85.652435C327.61676,85.053726,327.177887,84.767899,326.946167,84.795807L326.863312,84.809334C326.623138,84.882904,326.336487,85.099388,326.003296,85.458786L325.725922,85.832558L325.379211,86.177574C324.953857,86.472702,324.588531,86.684959,324.283264,86.813492C323.784332,87.016449,323.391113,87.463791,323.104462,88.154678L322.577606,89.330109C322.272339,89.569427,322.004272,90.011696,321.773407,90.656914zM323.021576,107.549347C322.124359,108.949722,321.842773,110.876083,322.175934,113.327583C322.498962,115.658997,323.192383,117.423843,324.256195,118.622108C325.495056,120.022484,326.743225,120.755653,328.000671,120.819916L329.526215,120.737045C329.970184,120.626266,330.381165,120.396255,330.76001,120.045319C331.351929,119.51088,331.606476,118.682152,331.522766,117.557457C331.477112,116.838669,331.306274,116.091965,331.010315,115.318207C330.326172,116.064903,329.636993,116.249252,328.943573,115.871254C328.268738,115.511856,327.723328,115.023087,327.307251,114.405769C326.863312,113.741943,326.599457,112.968185,326.516602,112.083649C325.952545,112.682358,325.693787,113.511932,325.740295,114.57151C325.758057,114.940208,325.906036,115.604034,326.183411,116.562141C326.396515,117.271629,326.424408,117.636093,326.26712,117.653854C326.183411,117.663162,326.031189,117.410309,325.809631,116.893631C325.568634,116.304222,325.393585,115.686905,325.281952,115.041687C324.968231,113.133926,325.397827,111.783447,326.572418,110.991089L326.724609,110.894684C326.798187,110.102325,326.988464,109.369156,327.292877,108.696877C327.774048,107.627144,328.490295,106.917656,329.442505,106.567566C328.814178,106.548958,328.097931,106.364609,327.292877,106.014519C326.424408,105.628059,325.800354,105.190025,325.420654,104.701241C324.968231,104.996368,324.524292,105.387901,324.08963,105.876678C323.673553,106.337547,323.381805,106.742607,323.216064,107.092705C323.585632,107.194183,323.992371,107.387833,324.43634,107.67366C325.34201,108.236008,325.92041,109.101936,326.169891,110.272293C325.670959,109.304886,325.055328,108.558189,324.325562,108.033051C323.724304,107.60939,323.289642,107.447868,323.021576,107.549347zM336.183075,103.015045L335.711212,103.374435L335.600433,103.996826C335.526855,104.181175,335.300232,104.439095,334.921387,104.770584C334.726868,104.936333,334.366638,105.079247,333.838959,105.199326C333.016144,105.392975,331.990387,105.402275,330.76001,105.227226C330.159607,105.143509,329.572723,104.890671,328.99939,104.466156C328.546112,104.134666,328.268738,103.86322,328.167267,103.650963C327.491608,103.705933,326.733917,103.922409,325.892517,104.300415C326.308563,104.982841,327.080627,105.512207,328.20871,105.890213C328.975708,106.148132,329.599792,106.277512,330.080963,106.277512L331.134613,106.456787L331.786591,106.318947L332.341339,106.277512L332.868164,106.360382C333.109161,106.45256,333.340027,106.73838,333.561584,107.217857C333.756073,107.715088,333.894775,108.01445,333.977631,108.115921L334.726868,108.28167C335.105713,108.337479,335.295135,108.558189,335.295135,108.945496C335.295135,109.369156,335.133636,109.715027,334.809753,109.982246L334.324341,110.258766C334.398773,110.433815,334.384399,110.663826,334.282928,110.949646L334.116333,111.336952L334.4216,111.820656C334.550995,112.244324,334.449524,112.691666,334.116333,113.161835C333.87616,113.511932,333.404297,113.848495,332.702423,114.170685L332.951874,115.926224C333.118469,117.160851,333.196289,117.935455,333.187805,118.248337C333.16922,118.562073,332.979797,118.759949,332.618713,118.842819L332.078339,118.870728C331.957428,120.391182,331.033142,121.197922,329.303802,121.2901C328.435333,121.335754,327.579559,121.230057,326.738159,120.972137L326.488678,121.870201C327.422272,122.41394,328.513977,122.797012,329.762146,123.017731C331.24115,123.27565,332.803894,123.271423,334.449524,123.004196C335.577576,122.829147,336.76062,122.409714,337.999481,121.745895C339.091217,121.156479,339.766022,120.658401,340.02478,120.253342L340.149933,117.00441L338.776642,117.502487C338.610046,117.557457,338.467133,117.538849,338.346191,117.446678L338.18045,117.156624L338.152557,116.742264L338.152557,116.700821L337.985962,114.599419C337.84729,113.188896,337.676453,112.014305,337.472656,111.073959C337.260406,110.097252,336.955139,109.000458,336.557678,107.784439C336.243103,106.853386,336.021545,106.249603,335.892151,105.973083C335.744171,105.660194,335.845642,105.397202,336.196594,105.185791C336.640564,104.909271,337.158936,104.461929,337.750031,103.844612C337.213898,103.475914,336.691284,103.199394,336.183075,103.015045zM328.278046,88.928436C327.686096,89.076416,327.210022,89.518684,326.849762,90.256081C326.728851,90.486092,326.548737,90.634079,326.308563,90.698349L325.559326,90.726257L324.325562,90.794754L324.228302,90.809128C323.747131,90.946968,323.493439,91.302132,323.465546,91.87294C323.437622,92.481796,323.840149,92.886856,324.672272,93.089813C324.717926,93.089813,324.769501,93.117714,324.824463,93.172684C324.898895,93.246254,324.884521,93.334198,324.783051,93.435677C324.348389,93.868637,324.010986,94.283005,323.770813,94.679604C323.252441,95.53624,323.11377,96.384407,323.354767,97.223282C323.437622,96.522247,323.632141,95.840668,323.936554,95.176842C324.316254,94.476654,324.588531,94.066521,324.755127,93.946442L324.852386,93.891472C324.935242,93.872871,325.000366,93.895699,325.046875,93.960815C325.092529,94.025085,325.083252,94.089355,325.018982,94.154465L324.741608,94.513863L324.228302,95.342583C323.932312,95.840668,323.687103,96.591591,323.493439,97.596207L323.617737,97.872726L323.632141,97.8592C323.770813,97.065994,323.992371,96.407242,324.297638,95.882103C324.556396,95.449135,324.79657,95.154007,325.018982,94.997566L325.060425,94.969658C325.14328,94.951057,325.199097,94.988266,325.22699,95.080437C325.254913,95.181915,325.221924,95.287621,325.129761,95.398399C324.889587,95.637711,324.713684,95.863495,324.602905,96.075752C324.371216,96.471512,324.117523,97.103203,323.840149,97.969131L323.909485,98.066383L324.144592,98.066383C324.292572,98.094284,324.334839,98.194916,324.269745,98.369965C323.770813,99.02449,323.770813,99.669708,324.269745,100.305626C324.769501,100.932243,325.397827,101.144501,326.156342,100.941544L326.36438,100.8722C327.56604,102.089073,328.846313,102.913567,330.205261,103.346535C330.343933,103.383743,330.418365,103.429405,330.427673,103.485214L330.261078,103.595993C329.919434,103.705933,329.442505,103.65519,328.832794,103.443787C329.091553,104.089005,329.715637,104.558334,330.705017,104.853455C331.619995,105.139282,332.452118,105.180717,333.201355,104.977768C333.542999,104.876289,333.793304,104.734222,333.950592,104.549873L333.881256,104.576935L332.951874,104.632744C332.517242,104.614143,332.304138,104.567635,332.313446,104.494064L332.355713,104.452621L332.67453,104.411194L333.257172,104.300415C333.996246,104.098305,334.768311,103.669571,335.57251,103.015045C337.015167,101.853989,337.884491,100.264191,338.18045,98.245651C338.457825,96.310837,338.161865,94.476654,337.292542,92.743942C336.737793,91.656456,335.961517,90.643387,334.962799,89.703033C334.620331,89.740242,334.218658,89.656525,333.756073,89.454422L332.868164,88.804123C332.322723,88.399063,331.971802,88.177505,331.814514,88.141144L331.522766,88.154678C331.264008,88.228249,330.991699,88.421898,330.705017,88.735626C330.547729,88.854858,330.38623,88.93351,330.219635,88.970711L328.985016,88.901375L328.278046,88.928436zM326.183411,96.863884C326.257843,96.845284,326.317871,96.873184,326.36438,96.946754C326.419342,97.011024,326.415131,97.075294,326.350006,97.140411L326.211304,97.347588L326.100525,97.692612C326.128448,97.794083,326.091248,97.854126,325.989777,97.872726C325.86969,97.909935,325.795258,97.854126,325.767365,97.706985C325.748749,97.596207,325.781738,97.443993,325.864624,97.250343L326.114075,96.905319L326.183411,96.863884zM333.63092,91.195587C333.465179,91.103409,333.390778,91.048447,333.409363,91.029839C333.529449,90.818428,333.714661,90.689049,333.964111,90.643387L334.671082,90.698349C334.782684,90.734711,334.897705,90.790527,335.017792,90.864098L335.073578,90.91906L334.990723,90.91906L334.380157,90.905533C334.176361,90.969803,334.019928,91.094955,333.908295,91.278458L333.63092,91.195587zM325.892517,95.854195L325.93396,95.840668C326.008362,95.812759,326.06842,95.836441,326.114075,95.910004C326.169891,95.983582,326.151276,96.070679,326.059113,96.172157L325.628662,96.670235L325.379211,97.153938C325.287048,97.356888,325.217712,97.466827,325.171204,97.485428L325.116211,97.443993C325.07901,97.379723,325.092529,97.246109,325.157654,97.043159L325.365692,96.504486C325.485748,96.255028,325.661652,96.038544,325.892517,95.854195zM336.280304,99.72467C336.326813,99.743279,336.317505,99.784714,336.252411,99.849831L335.933594,99.959763L335.364502,100.057007C335.2258,100.075615,335.082886,100.172012,334.934906,100.347061C334.814819,100.58638,334.726868,100.706459,334.671082,100.706459L334.380157,100.678551C334.324341,100.623581,334.287994,100.52211,334.269379,100.374969C334.269379,100.282791,334.37088,100.19062,334.574677,100.098442C334.796234,99.942001,334.939148,99.858284,335.004242,99.849831L336.127258,99.739052L336.280304,99.72467zM335.808441,92.453888C336.040161,92.463196,336.229584,92.527458,336.377563,92.647545C336.460449,92.711807,336.437592,92.75325,336.308228,92.771851L335.641846,92.882629L334.310822,92.937592C334.430908,92.69828,334.597504,92.527458,334.809753,92.425987C335.152222,92.223877,335.406769,92.113098,335.57251,92.094498C335.646942,92.094498,335.693451,92.158768,335.711212,92.288147L335.808441,92.453888zM329.428955,93.338425C329.576965,93.236954,329.752838,93.287689,329.955811,93.490639C330.075867,93.592117,330.238251,93.812828,330.441193,94.154465C330.561279,94.504562,330.612854,94.776009,330.594238,94.969658C330.621307,95.208977,330.557037,95.366264,330.39975,95.439835C330.233154,95.541306,330.048828,95.504105,329.845032,95.329056C329.678436,95.191216,329.530457,94.956131,329.401062,94.623795C329.243774,94.320213,329.188812,94.047913,329.234467,93.808601C329.207397,93.550682,329.271667,93.394241,329.428955,93.338425zM327.210022,91.472107C327.450165,90.716957,327.862,90.371086,328.444641,90.435356C328.915649,90.518227,329.3461,90.809128,329.734253,91.306366C329.771454,91.362175,329.863617,91.324966,330.011597,91.195587C330.075867,91.039139,330.140991,90.993477,330.205261,91.057747L330.163818,91.389236L330.025146,91.776535L329.331726,91.513542C328.878448,91.32074,328.550354,91.228561,328.347412,91.237022C327.829865,91.366402,327.519531,91.592186,327.41803,91.914375L327.362244,92.066589C327.335175,92.08519,327.288666,92.066589,327.223541,92.01162C327.149963,91.86364,327.144897,91.684364,327.210022,91.472107zM332.174744,92.937592C332.082581,92.781151,332.078339,92.67968,332.161224,92.633163C332.253387,92.596802,332.355713,92.651772,332.466492,92.799759L333.145538,93.587044L333.465179,93.891472L334.713348,94.845352L334.768311,94.914696C334.861328,95.033928,334.884155,95.154007,334.837646,95.274086L334.490936,96.324371L334.393707,96.421616L334.393707,96.43515L334.338745,96.476585C334.200043,96.587364,334.037689,96.619492,333.853333,96.572983L333.686737,96.504486L333.673218,96.324371L334.019928,95.411926C334.037689,95.274086,334.001312,95.159081,333.908295,95.06691L333.062653,94.154465C332.729492,93.776466,332.433502,93.37056,332.174744,92.937592zM331.037354,96.835976L331.10672,96.79454L331.162537,96.863884C331.19043,96.881645,331.194641,96.909546,331.176056,96.946754L331.010315,97.374649C330.926575,97.466827,330.935883,97.550537,331.037354,97.624115L331.176056,97.776329C332.729492,98.052002,333.778931,98.139954,334.324341,98.038475C334.713348,98.010567,335.184357,97.854126,335.739105,97.568298L336.488342,97.208908C336.664246,97.153938,336.724274,97.020325,336.668457,96.808075L336.640564,96.655861C336.594879,96.619492,336.594879,96.578056,336.640564,96.531548C336.61264,96.457977,336.654938,96.467285,336.765717,96.559456L337.389801,96.98819C337.528473,97.144638,337.583435,97.291779,337.556366,97.430458L337.251099,98.467209C337.167389,98.651558,337.098053,98.655792,337.043091,98.480743L337.028687,98.35643L336.835052,98.550079L336.377563,99.005882C336.145844,99.135262,335.744171,99.273102,335.170837,99.421089C334.680359,99.466751,334.22287,99.605438,333.797516,99.835449C333.141296,100.232056,332.355713,100.172012,331.43988,99.656174C331.033142,99.443924,330.626373,99.125961,330.219635,98.702301C330.080963,98.628731,329.946503,98.670166,329.817108,98.826607L329.789215,99.448997C329.659821,99.558929,329.590485,99.540321,329.581177,99.393181L329.415436,98.121346C329.387543,97.927696,329.456879,97.808464,329.623474,97.761948L331.037354,96.835976zM337.152283,97.247932L337.184204,97.285988L337.189636,97.293327L337.18634,97.286888L337.15033,97.239845L337.134766,97.22921L337.152283,97.247932zM332.369232,99.323845L333.298584,99.393181C333.621643,99.36528,333.889709,99.268875,334.102814,99.103134C334.352264,98.854515,334.698975,98.711601,335.142944,98.674393L336.210968,98.480743C336.377563,98.435074,336.543304,98.292168,336.7099,98.052002L336.959351,97.624115C336.932312,97.430458,336.812225,97.383949,336.599121,97.485428L335.849884,97.803391C335.249481,98.07991,334.722656,98.260033,334.269379,98.342903C333.585266,98.453682,332.521454,98.365738,331.079651,98.07991L330.371857,98.066383L330.274597,98.190689L330.274597,98.35643L330.497009,98.591522C331.402679,99.080299,332.026764,99.323845,332.369232,99.323845zM322.60553,137.422302C322.420319,139.394318,322.360291,140.467438,322.425415,140.642487C322.471924,140.73465,322.702759,140.831909,323.118835,140.93338L324.311188,141.112656C324.745819,141.140564,325.296326,141.131256,325.961853,141.085602C326.793976,141.029785,327.335175,140.928314,327.584625,140.781158L328.430267,138.486115C329.086487,136.578354,329.539734,135.3302,329.789215,134.739944C330.510529,132.961578,331.477112,130.970947,332.688049,128.768051L334.310822,125.948708L334.435974,126.017197L333.866852,127.593468L334.616089,129.376923C335.115021,130.62085,335.52179,131.736237,335.836365,132.72226C336.317505,134.269775,336.872253,136.536926,337.50058,139.522858L337.611359,139.605743L340.232819,139.730896L341.827698,139.522858C342.354523,139.375717,342.789185,139.136414,343.131653,138.804077C342.558319,134.860016,342.137177,132.077026,341.86911,130.455109C341.083527,125.597763,340.560913,122.455383,340.302155,121.0271C339.33136,121.856674,337.824432,122.566162,335.780548,123.156418C334.070679,123.63504,332.309204,123.777954,330.497009,123.584305C328.814178,123.409256,327.380829,122.989822,326.197784,122.326843L324.727234,126.998985C324.033813,129.294037,323.576324,130.984467,323.354767,132.07196C323.068085,133.454575,322.818634,135.238022,322.60553,137.422302z"/>
</svg>
