<?xml version="1.0" encoding="UTF-8"?>
<svg xmlns="http://www.w3.org/2000/svg" xmlns:xlink="http://www.w3.org/1999/xlink" width="28.027mm" height="60.006mm" viewBox="-304.013336 84.453125 28.026520 60.006256">
    <path transform="matrix(-1,0,0,1,0,0)" style="stroke:none;fill:#000000;fill-rule:evenodd" d="M282.00647,84.457321L282.046783,84.461517L282.087219,84.470657L282.203339,84.504364L282.252197,84.522644L282.387604,84.585564L282.418945,84.602043L282.573853,84.694481L282.594513,84.70797L282.76889,84.829765L282.783295,84.840408L282.977142,84.99157L282.987946,85.000259L283.201263,85.180794L283.209381,85.187836L283.433044,85.389488L284.003845,85.837288L284.187378,85.863358L284.578705,85.647476L284.743652,85.548141L284.761932,85.537956L284.919525,85.455704L284.943207,85.444473L285.090485,85.381393L285.119995,85.370308L285.256775,85.326111L285.304108,85.31443L285.623688,85.259445L285.663971,85.254951L285.69455,85.254799L285.759399,85.257195L285.795807,85.260498L285.869232,85.271133L285.898132,85.276527L285.980255,85.2957L286.001678,85.301392L286.092163,85.328812L286.108643,85.334351L286.207825,85.37001L286.221588,85.375252L286.329315,85.419304L286.340118,85.423943L286.456512,85.476234L286.465942,85.480728L286.590759,85.541405L286.598083,85.544998L286.731567,85.613914L286.738159,85.617508L286.880188,85.694817L286.885895,85.697815L287.036316,85.783356L287.041107,85.786201L287.200195,85.880142L287.204254,85.882683L287.371887,85.984863L287.375793,85.987106L287.551971,86.097672L287.555115,86.09977L287.739838,86.218575L287.742859,86.220528L287.92981,86.343674L288.0672,86.424423L288.199341,86.48645L288.328918,86.531998L288.456573,86.561958L288.583466,86.577393L288.713348,86.57859L288.843262,86.565407L288.979431,86.536942L289.065125,86.510574L289.147827,86.47731L289.226044,86.437607L289.297485,86.393112L289.365356,86.341576L289.430237,86.282852L289.492249,86.216331L289.545135,86.149063L289.579315,86.092728L289.603271,86.038643L289.619171,85.983665L289.628143,85.923584L289.629211,85.861115L289.621704,85.78875L289.604187,85.708298L289.571075,85.605675L289.560883,85.566422L289.555481,85.526268L289.554749,85.485817L289.558929,85.445518L289.567627,85.405815L289.581116,85.367615L289.598938,85.331207L289.620941,85.297203L289.646881,85.266037L289.676239,85.238174L289.70874,85.213898L289.743805,85.193672L289.781097,85.177643L289.819916,85.166107L289.859924,85.15937L289.90036,85.157272L289.940826,85.160118L289.980682,85.16761L290.019318,85.179741L290.0737,85.206108L290.280151,85.329857L290.316711,85.355026L290.505768,85.5047L290.537994,85.53376L290.709686,85.709198L290.736938,85.740662L290.890961,85.942017L290.903687,85.959991L290.991943,86.092133L291.007355,86.117599L291.084686,86.25843L291.09726,86.2836L291.16394,86.432968L291.174255,86.458733L291.230011,86.616791L291.23764,86.64151L291.282593,86.808105L291.288116,86.832077L291.322144,87.007362L291.325745,87.029686L291.348938,87.213661L291.350891,87.234642L291.363342,87.427307L291.364075,87.44783L291.36499,87.648582L291.36438,87.670158L291.352997,87.864319L291.350891,87.886642L291.327515,88.074516L291.323792,88.098335L291.288116,88.279617L291.28244,88.303886L291.23465,88.478722L291.226837,88.503296L291.166931,88.671539L291.157196,88.695808L291.085266,88.85746L291.073578,88.881432L290.989532,89.036644L290.96991,89.068405L290.872986,89.208481L290.847961,89.240395L290.824127,89.264969L290.699188,89.380775L290.667877,89.40654L290.6427,89.423172L290.490204,89.514862L290.454376,89.533592L290.434021,89.541977L290.292145,89.595314L290.515656,89.813896L290.524963,89.823334L290.868195,90.186195L290.877472,90.196533L291.19989,90.566284L291.209167,90.577217L291.510742,90.953857L291.519745,90.965691L291.800659,91.349228L291.809326,91.361809L292.069275,91.752235L292.077667,91.765419L292.316772,92.162735L292.324707,92.176521L292.543152,92.580879L292.550629,92.595711L292.706909,92.921707L292.712128,92.933098L292.855072,93.26165L292.860016,93.273636L292.989288,93.604431L292.993805,93.616562L293.109741,93.94976L293.1138,93.962196L293.216431,94.297783L293.220032,94.310661L293.309021,94.648506L293.312164,94.661385L293.387817,95.001778L293.390503,95.014809L293.45285,95.357445L293.454926,95.370934L293.503632,95.716103L293.50528,95.729286L293.540619,96.076714L293.541687,96.09005L293.563568,96.43972L293.564148,96.452904L293.572693,96.805122L293.572845,96.818169L293.567902,97.17263L293.567444,97.185524L293.549011,97.542381L293.548126,97.555122L293.516205,97.914375L293.514862,97.926521L293.469604,98.28817L293.467682,98.302101L293.405334,98.675453L293.402802,98.688789L293.327148,99.052238L293.324005,99.06617L293.235016,99.419594L293.230957,99.43412L293.128326,99.777351L293.123688,99.79174L293.007721,100.124931L293.002197,100.13961L292.872894,100.462929L292.866455,100.477913L292.723541,100.791023L292.716339,100.805855L292.560089,101.10894L292.552124,101.123619L292.382385,101.416664L292.373566,101.431038L292.190491,101.714043L292.180725,101.728127L291.984192,102.001106L291.973846,102.014885L291.763794,102.277809L291.752869,102.29084L291.529327,102.543739L291.517944,102.556023L291.346405,102.731911L291.644684,102.852806L291.66626,102.862404L292.055328,103.052376L292.074677,103.062553L292.469147,103.287285L292.486053,103.297615L292.88562,103.556801L292.918152,103.580772L292.947815,103.608498L292.973877,103.639503L292.994537,103.670815L292.997681,103.670372L293.038147,103.669014L293.063324,103.670662L293.117249,103.676064L293.172668,103.686241L293.255676,103.708717L293.281006,103.716515L293.393066,103.756355L293.406708,103.761604L293.547821,103.818687L293.556671,103.822426L293.726715,103.896736L293.732697,103.899437L293.931641,103.990974L293.935699,103.992775L294.163879,104.101387L294.165955,104.10244L294.413025,104.222145L294.419464,104.225288L294.647491,104.341698L294.655121,104.345894L294.863983,104.459312L294.87265,104.464104L295.062622,104.574516L295.072968,104.580803L295.243744,104.688225L295.25528,104.695869L295.407043,104.800133L295.420837,104.81002L295.553436,104.911156L295.569916,104.924492L295.683472,105.022774L295.712524,105.051079L295.738007,105.082542L295.759583,105.116859L295.776947,105.153557L295.789856,105.191917L295.798218,105.231621L295.801819,105.271919L295.800629,105.312523L295.799744,105.318214L295.819061,105.314919L295.857269,105.310417L296.093384,105.296333L296.138458,105.296638L296.276611,105.306679L296.266418,105.30323L296.228821,105.288399L296.193146,105.269066L296.160034,105.245689L296.129913,105.218575L296.103271,105.188011L296.080322,105.15461L296.061462,105.118797L296.04184,105.063072L295.987457,104.851677L295.986237,104.846886L295.937256,104.644325L295.936066,104.639091L295.892456,104.445518L295.891266,104.439674L295.853058,104.255104L295.851715,104.248512L295.818909,104.072777L295.817566,104.065285L295.790283,103.898689L295.789093,103.890602L295.767059,103.732841L295.765869,103.723549L295.749237,103.574776L295.748199,103.56385L295.737091,103.424065L295.736359,103.412224L295.730499,103.281288L295.730225,103.266914L295.729919,103.145103L295.730225,103.128777L295.735321,103.015816L295.736816,102.996788L295.747284,102.892815L295.750153,102.870796L295.766022,102.77581L295.771576,102.74958L295.792999,102.663445L295.801819,102.633324L295.828644,102.556328L295.844086,102.519325L295.916595,102.370094L295.924988,102.35392L296.000641,102.21714L296.010834,102.20005L296.089478,102.075554L296.102356,102.056526L296.184021,101.944618L296.19989,101.9244L296.284698,101.82476L296.304169,101.803795L296.391968,101.716591L296.415619,101.695168L296.506409,101.620415L296.534271,101.599739L296.628082,101.53727L296.661316,101.517784L296.75827,101.467903L296.794373,101.451866L296.894287,101.414268L296.93399,101.401985L297.036926,101.376961L297.077087,101.369774L297.182983,101.357033L297.222992,101.354485L297.332062,101.354195L297.370422,101.356285L297.48233,101.368568L297.516479,101.374107L297.631561,101.398689L297.662567,101.406776L297.780609,101.443779L297.804596,101.452324L297.923706,101.499657L297.948425,101.510597L298.055695,101.563332L298.081604,101.577568L298.177338,101.635399L298.206696,101.655174L298.290436,101.718391L298.319519,101.742958L298.391724,101.811287L298.420929,101.842598L298.481323,101.916008L298.507965,101.9533L298.556671,102.03196L298.578857,102.073906L298.615845,102.157661L298.627533,102.188225L298.652405,102.26313L298.662292,102.299232L298.680878,102.385826L298.685669,102.414146L298.698242,102.512428L298.7005,102.535942L298.70694,102.645912L298.70755,102.665092L298.707825,102.786598L298.70755,102.80172L298.701996,102.934914L298.70108,102.94825L298.689423,103.093117L298.688354,103.104057L298.670685,103.260612L298.667694,103.281288L298.613892,103.588417L298.563873,103.995766L298.523254,104.362373L298.50647,104.528221L298.492554,104.68058L298.492554,104.681328L298.492249,104.683434L298.480255,104.828163L298.47113,104.956856L298.47113,104.957893L298.470825,104.960899L298.463928,105.077599L298.463776,105.082542L298.463623,105.082848L298.458832,105.192665L298.456451,105.282997L298.456146,105.376488L298.457794,105.444054L298.46109,105.497688L298.465729,105.540245L298.469788,105.562706L298.471588,105.568703L298.479218,105.587288L298.495544,105.619194L298.522675,105.665184L298.558014,105.719124L298.604156,105.784294L298.653595,105.849617L298.718781,105.931557L298.785736,106.012306L298.867096,106.107155L298.951752,106.202583L299.047028,106.307457L299.1474,106.415169L299.259918,106.533684L299.37616,106.653831L299.503967,106.784019L299.510712,106.791069L300.189819,107.523369L300.215607,107.55468L300.241974,107.596931L300.266388,107.643379L300.28302,107.680229L300.290649,107.70211L300.308044,107.758583L300.31897,107.805779L300.329468,107.872002L300.333344,107.910194L300.336792,107.986458L300.336792,108.015526L300.333344,108.101662L300.331543,108.125191L300.321075,108.22123L300.318665,108.239647L300.3013,108.345573L300.298462,108.360695L300.274017,108.476662L300.263245,108.51577L300.248108,108.553215L300.230743,108.585274L299.967651,109.013908L299.960175,109.025444L299.874603,109.153084L299.8349,109.227989L300.210052,109.473701L300.242554,109.497963L300.259338,109.512947L300.387726,109.635948L300.404205,109.652885L300.526031,109.786812L300.540253,109.803444L300.647369,109.937538L300.665802,109.910271L300.692474,109.879707L300.722595,109.852577L300.755554,109.829063L300.791199,109.809731L300.828796,109.794609L300.867889,109.784111L300.908051,109.778282L300.948517,109.777229L300.988953,109.780968L301.028503,109.789513L301.066864,109.802544L301.103424,109.820076L301.137726,109.841805L301.169037,109.867424L301.185364,109.883598L302.738831,111.514809L302.749176,111.526039L302.98526,111.797218L302.993958,111.807549L303.203247,112.067787L303.21286,112.080376L303.395172,112.329964L303.405518,112.344948L303.561188,112.583763L303.572571,112.602333L303.701263,112.830208L303.713074,112.853279L303.814972,113.070366L303.826813,113.098686L303.901855,113.304832L303.912506,113.339729L303.960876,113.535103L303.967041,113.565666L303.992493,113.732414L303.995209,113.755333L304.00943,113.923424L304.01062,113.946953L304.013336,114.116539L304.012878,114.139305L304.004181,114.310555L304.00238,114.33242L303.982452,114.505165L303.979156,114.526894L303.947693,114.701134L303.943512,114.721046L303.900818,114.896782L303.895569,114.916267L303.841339,115.093498L303.835327,115.111031L303.769867,115.289757L303.763275,115.306541L303.686279,115.486916L303.679382,115.502052L303.591125,115.683784L303.583801,115.697868L303.484009,115.881233L303.47699,115.893822L303.366119,116.078545L303.358612,116.090233L303.236206,116.276604L303.228882,116.287392L303.095093,116.475273L303.087891,116.485008L302.942719,116.67437L302.935547,116.683357L302.774475,116.879326L302.765198,116.890266L302.600708,117.074242L302.590515,117.085167L302.423004,117.256721L302.411469,117.267952L302.24054,117.427361L302.228088,117.438286L302.054016,117.585564L302.040222,117.596657L301.862701,117.731789L301.84787,117.742577L301.667328,117.865273L301.651306,117.875465L301.467316,117.986183L301.450256,117.995918L301.263123,118.094337L301.24469,118.103188L301.054291,118.189323L301.035706,118.197121L300.842133,118.271278L300.822052,118.278313L300.625214,118.34005L300.605286,118.345589L300.405121,118.395332L300.38443,118.399818L300.181,118.437279L300.160461,118.440422L299.953857,118.465599L299.933807,118.467384L299.723907,118.480568L299.690643,118.481026L299.420227,118.471733L299.381714,118.468285L299.103943,118.427086L299.069183,118.420052L298.783783,118.346931L298.753082,118.337502L298.460327,118.232475L298.433807,118.221687L298.133728,118.084755L298.110962,118.073372L297.803375,117.904381L297.784058,117.892982L297.469147,117.692085L297.45282,117.680855L297.130554,117.448036L297.116333,117.437248L296.833618,117.209816L296.822693,117.200676L296.556763,116.96772L296.545532,116.957375L296.296509,116.718864L296.285126,116.707481L296.05307,116.46328L296.04184,116.450844L295.826538,116.200951L295.81546,116.187462L295.617096,115.93203L295.606323,115.917351L295.424896,115.656212L295.414703,115.640633L295.37738,115.580101L295.344421,116.655342L295.340851,116.695793L295.332458,116.735344L295.327789,116.749275L295.352966,116.77401L295.378448,116.805611L295.399872,116.839928L295.417084,116.876625L295.429993,116.915123L295.438232,116.954826L295.44165,116.99514L295.441528,117.017448L295.316254,120.266396L295.312378,120.306694L295.30368,120.346397L295.290344,120.384605L295.272675,120.421013L295.255585,120.448433L295.202271,120.525429L295.188324,120.544014L295.125092,120.623268L295.112518,120.6381L295.039703,120.719444L295.028015,120.732033L294.945313,120.815636L294.934998,120.825661L294.84256,120.911507L294.832672,120.920357L294.786377,120.96006L294.850189,120.912117L295.033875,120.761696L295.066681,120.737877L295.102173,120.718102L295.139618,120.702812L295.178589,120.691887L295.21875,120.685585L295.259186,120.684242L295.299652,120.687538L295.339325,120.695625L295.377686,120.708366L295.414398,120.725594L295.448853,120.746864L295.480621,120.772179L295.509094,120.801094L295.533966,120.833L295.554779,120.86776L295.571411,120.904778L295.583679,120.943428L295.588776,120.967537L295.762115,121.951698L295.762573,121.953941L296.080322,123.828758L296.080475,123.830254L296.742218,127.847908L296.742371,127.848656L297.264191,131.062683L297.264496,131.064178L297.386444,131.835602L297.386597,131.836792L297.596649,133.198181L297.596802,133.199402L297.838898,134.805725L297.83905,134.806488L298.113373,136.657623L298.113525,136.658386L298.419891,138.754486L298.42334,138.794769L298.421997,138.835388L298.415985,138.875366L298.405212,138.91449L298.389923,138.952087L298.3703,138.987427L298.346619,139.020386L298.310669,139.058319L298.177917,139.178467L298.160248,139.193451L298.018829,139.305054L298.000244,139.318695L297.931335,139.365875L298.018524,139.338898L298.280243,139.249634L298.513367,139.160919L298.552032,139.148804L298.591888,139.141296L298.632324,139.138458L298.672791,139.140564L298.731354,139.152252L299.18576,139.284821L299.187714,139.285431L299.594452,139.406769L299.597168,139.407532L299.956421,139.517792L299.959412,139.518707L300.271027,139.617584L300.275391,139.61908L300.539368,139.706726L300.544006,139.708221L300.658173,139.747925L300.661896,139.749268L300.764069,139.786133L300.768738,139.787781L300.858917,139.821777L300.864594,139.824036L300.942963,139.855194L300.951355,139.858643L301.017731,139.887085L301.029114,139.892334L301.083649,139.918121L301.095032,139.923645L301.224915,139.991058L301.235992,139.997223L301.348663,140.061035L301.36319,140.069733L301.458496,140.130096L301.477356,140.142822L301.55542,140.199921L301.579834,140.219543L301.640503,140.27301L301.673035,140.305847L301.716461,140.356018L301.741028,140.388245L301.756317,140.412964L301.782379,140.459534L301.800079,140.496094L301.813416,140.534454L301.819397,140.559631L301.828094,140.602936L301.833771,140.643066L301.834534,140.683533L301.830627,140.723816L301.82193,140.763367L301.808594,140.801727L301.790924,140.838135L301.774902,140.863892L301.74704,140.904663L301.722321,140.936707L301.693848,140.965637L301.660736,140.992004L301.605316,141.030792L301.570709,141.052063L301.548065,141.063171L301.464935,141.100159L301.430328,141.113342L301.319305,141.149017L301.312408,141.151093L301.173828,141.192444L301.150452,141.198608L300.708954,141.297028L300.695465,141.299713L300.251251,141.380188L300.237915,141.382263L299.791016,141.44519L299.777527,141.446838L299.328094,141.491943L299.314453,141.493134L298.862457,141.520416L298.849121,141.520844L298.394409,141.530579L298.381073,141.530579L297.923828,141.522491L297.910645,141.522064L297.450867,141.496277L297.434235,141.494934L297.123077,141.46228L297.113342,141.461212L296.790009,141.417938L296.781647,141.416595L296.446198,141.363098L296.43811,141.361755L296.090515,141.297791L296.083191,141.296417L295.72348,141.222107L295.716736,141.220612L295.344879,141.135986L295.338593,141.13446L294.954468,141.039337L294.948608,141.037842L294.711304,140.974762L294.456329,141.268097L294.427856,141.29718L294.396393,141.32251L294.361938,141.344055L294.325378,141.36145L294.286865,141.374329L294.247162,141.382568L294.192474,141.386169L293.963715,141.382874L293.952789,141.382416L293.74527,141.372833L293.731506,141.371948L293.545288,141.355743L293.528656,141.353943L293.363861,141.331482L293.341827,141.327728L293.198151,141.298523L293.170868,141.291779L293.048492,141.256287L293.012085,141.243378L292.910797,141.201141L292.864502,141.177612L292.784515,141.128937L292.748383,141.103607L292.670044,141.040833L292.63739,141.011017L292.569061,140.940002L292.539856,140.905396L292.481567,140.826141L292.457764,140.789001L292.409363,140.701508L292.391083,140.662689L292.352875,140.567108L292.340454,140.529968L292.312134,140.425995L292.304626,140.391693L292.286224,140.279755L292.282471,140.247864L292.274078,140.127563L292.273621,140.087097L292.277985,140.046814L292.287109,140.007263L292.300751,139.969208L292.318878,139.9328L292.341034,139.898926L292.356018,139.881104L292.354828,139.880188L292.24411,139.797363L292.213104,139.771149L292.185394,139.741486L292.161407,139.708801L292.141479,139.673615L292.125916,139.636139L292.114075,139.593903L291.99707,139.042572L291.882446,138.510132L291.882294,138.510132L291.768738,137.99234L291.657288,137.492859L291.547607,137.01001L291.439606,136.544373L291.333374,136.095673L291.22879,135.663727L291.12616,135.248901L291.025208,134.850983L290.926025,134.470306L290.828644,134.106384L290.733063,133.759552L290.733215,133.759552L290.64032,133.433105L290.640167,133.433105L290.547272,133.117737L290.547424,133.117737L290.459045,132.828308L290.336792,132.452393L290.207031,132.068115L290.069824,131.674561L289.921478,131.26239L289.765839,130.84082L289.602234,130.40979L289.428131,129.961548L289.428284,129.961548L289.24881,129.509674L288.555603,127.859444L287.934174,128.939026L287.497742,129.744141L287.077942,130.540283L286.683044,131.312744L286.31134,132.064972L285.962402,132.797272L285.639252,133.503815L285.334229,134.200623L285.005524,134.990173L284.953094,135.120361L284.832336,135.430481L284.692413,135.802307L284.533142,136.236938L284.354431,136.734039L284.156525,137.293304L283.823761,138.24884L283.703308,138.5979L283.700928,138.604492L282.855347,140.899567L282.83902,140.936707L282.818634,140.971771L282.794067,141.003998L282.7659,141.033203L282.734589,141.058807L282.685455,141.08847L282.578186,141.14151L282.543274,141.156342L282.408752,141.2052L282.382538,141.213593L282.220581,141.258087L282.201111,141.262878L282.228821,141.277863L282.261932,141.301208L282.292023,141.328339L282.318848,141.358765L282.341766,141.392151L282.360657,141.428131L282.375031,141.465881L282.386414,141.513062L282.40918,141.650146L282.412048,141.670959L282.425385,141.799652L282.427032,141.823944L282.430908,141.943939L282.430603,141.972565L282.424927,142.083862L282.421631,142.116821L282.406342,142.219604L282.398865,142.256165L282.374146,142.350403L282.360657,142.390991L282.326355,142.476532L282.306274,142.518341L282.262512,142.595337L282.253235,142.610626L282.170837,142.739471L282.15271,142.765076L282.050842,142.896179L282.0336,142.91684L281.912109,143.050201L281.89621,143.066528L281.755096,143.202118L281.740692,143.214996L281.580261,143.352661L281.56723,143.363312L281.387146,143.503082L281.375916,143.511475L281.176483,143.653503L281.166016,143.660706L280.94696,143.80481L280.933929,143.813049L280.659912,143.976227L280.641205,143.986542L280.374207,144.123779L280.352509,144.133972L280.092407,144.2453L280.06723,144.254883L279.814209,144.340424L279.784851,144.348969L279.538544,144.408447L279.50589,144.414581L279.266632,144.448273L279.230377,144.451569L278.997986,144.459381L278.958893,144.458313L278.733582,144.440186L278.704498,144.436615L278.526215,144.406799L278.506744,144.403046L278.339386,144.36499L278.31842,144.359436L278.162018,144.313293L278.139557,144.305817L277.99408,144.25174L277.969513,144.241547L277.834961,144.17923L277.809357,144.166046L277.68576,144.095612L277.659241,144.078827L277.54657,144.000183L277.520508,143.980103L277.418762,143.893524L277.393616,143.86969L277.302826,143.774994L277.279449,143.747894L277.199585,143.644958L277.179077,143.615601L277.110138,143.504578L277.093231,143.473724L277.0354,143.354767L277.022064,143.323761L276.975006,143.196564L276.965424,143.165985L276.929321,143.030701L276.922882,143.001648L276.897705,142.858276L276.893951,142.830994L276.87973,142.679535L276.878235,142.64209L276.879578,142.555359L276.883911,142.506653L276.901154,142.398773L276.907745,142.36731L276.94101,142.238342L276.947144,142.217041L276.996429,142.066803L277.001831,142.051666L277.066986,141.880402L277.071503,141.869019L277.152832,141.676361L277.156738,141.667511L277.25412,141.453888L277.257416,141.446991L277.370819,141.212067L277.390594,141.176727L277.414276,141.143921L277.441833,141.114105L277.45517,141.102722L277.438263,141.09552L277.360352,141.059418L277.330231,141.043549L277.269562,141.007721L277.227905,140.978821L277.184448,140.943604L277.15448,140.916351L277.126038,140.882935L277.099945,140.848175L277.077637,140.814453L277.059357,140.778198L277.041534,140.725159L277.030731,140.681732L277.023102,140.640228L277.01532,140.575806L277.013367,140.553772L277.008575,140.468384L277.008118,140.455505L277.006165,140.348969L277.006012,140.340302L277.006927,140.212799L277.00708,140.205902L277.011108,140.057281L277.011261,140.052948L277.018005,139.883209L277.018158,139.878998L277.028046,139.688293L277.028198,139.68573L277.040771,139.47406L277.040924,139.471344L277.056671,139.238525L277.056824,139.236572L277.075378,138.982635L277.075531,138.980835L277.097107,138.705933L277.09726,138.703827L277.149109,138.090637L277.149414,138.088379L277.212921,137.390991L277.213226,137.38739L277.294861,136.587067L277.295166,136.583771L277.38028,135.821045L277.380707,135.817596L277.469116,135.092499L277.469574,135.08844L277.561554,134.40094L277.562134,134.396729L277.65744,133.746674L277.658173,133.74173L277.75705,133.129272L277.758118,133.123871L277.860443,132.549042L277.861481,132.542877L277.967102,132.005646L277.968018,132.001312L278.01236,131.790344L278.013092,131.786774L278.062988,131.561584L278.063751,131.558594L278.119019,131.319336L278.119781,131.316193L278.180756,131.062836L278.181335,131.060608L278.247711,130.793182L278.248169,130.790924L278.320068,130.509125L278.320679,130.507019L278.398132,130.211273L278.39859,130.20932L278.48172,129.899353L278.482178,129.897858L278.570709,129.573822L278.571167,129.572296L278.665253,129.234009L278.665558,129.232666L278.765045,128.88031L278.765472,128.878967L278.870667,128.51236L278.870941,128.511139L278.981659,128.13031L278.981964,128.129272L279.098083,127.734505L279.098389,127.733452L279.220184,127.324303L279.22049,127.323402L279.347687,126.900169L279.34903,126.895973L280.819641,122.223763L280.834015,122.18586L280.852875,122.14991L280.875671,122.116493L280.902466,122.086082L280.932434,122.058815L280.965546,122.035439L281.001221,122.016121L281.038818,122.001137L281.078064,121.990654L281.115082,121.985405L281.104584,121.951698L281.097229,121.911842L281.094696,121.871391L281.096954,121.83094L281.107269,121.778206L281.35672,120.880196L281.369751,120.84185L281.387451,120.805443L281.40332,120.780266L281.389099,120.773827L281.154633,120.659966L281.138306,120.651436L280.904266,120.521843L280.889587,120.513298L280.655579,120.368126L280.641937,120.359138L280.408386,120.198235L280.396088,120.189384L280.162537,120.012901L280.151154,120.003914L279.917877,119.811699L279.907837,119.803169L279.674713,119.59536L279.665436,119.58683L279.432617,119.363441L279.424225,119.355064L279.191711,119.115944L279.184235,119.108009L278.951691,118.853172L278.942871,118.843132L278.747803,118.611809L278.737305,118.598625L278.550781,118.354134L278.541046,118.340645L278.363373,118.082664L278.354828,118.069618L278.185699,117.798454L278.17804,117.785576L278.017578,117.501213L278.010559,117.488335L277.858948,117.190651L277.853088,117.178352L277.710022,116.867332L277.704773,116.855202L277.570374,116.530998L277.565735,116.519463L277.440033,116.181923L277.436157,116.170692L277.319153,115.819817L277.315704,115.809181L277.207367,115.445122L277.204529,115.434639L277.105042,115.057243L277.102661,115.047798L277.011566,114.657082L277.00946,114.647636L276.927216,114.243736L276.925568,114.234749L276.85202,113.817497L276.850677,113.80912L276.785797,113.378532L276.784454,113.36895L276.729156,112.915459L276.728119,112.905571L276.687225,112.464348L276.68631,112.453712L276.659943,112.02494L276.659485,112.013847L276.647522,111.597206L276.647369,111.585228L276.64975,111.181023L276.650055,111.168434L276.66684,110.776512L276.667725,110.763176L276.698914,110.383537L276.700409,110.369148L276.746094,110.001808L276.748199,109.987114L276.808105,109.63221L276.811127,109.616478L276.885559,109.273689L276.889618,109.257362L276.978607,108.92701L276.983551,108.91024L277.086761,108.592171L277.092926,108.574791L277.210663,108.269157L277.218018,108.25164L277.350159,107.95829L277.358856,107.940468L277.505524,107.659401L277.515259,107.641884L277.676147,107.3731L277.699066,107.339699L277.725586,107.309135L277.755707,107.281868L277.788666,107.258492L277.824341,107.239021L277.850555,107.228539L277.838104,107.196327L277.828217,107.157066L277.822968,107.11692L277.82254,107.076317L277.826874,107.036018L277.835876,106.99662L277.849487,106.958412L277.859222,106.937431L277.927246,106.803505L277.935638,106.787926L278.015503,106.648888L278.023438,106.635857L278.11496,106.491722L278.122467,106.480339L278.22583,106.330971L278.23288,106.321236L278.348083,106.166618L278.354218,106.158531L278.480988,105.99868L278.487274,105.991188L278.625854,105.826241L278.631104,105.819954L278.781219,105.649757L278.788696,105.641518L279.116516,105.29319L279.131195,105.278664L279.46228,104.966743L279.479218,104.951759L279.813599,104.675941L279.833527,104.660805L280.171356,104.421394L280.205688,104.399834L280.242371,104.382591L280.280884,104.369865L280.320587,104.361778L280.360901,104.35833L280.401489,104.359673L280.441498,104.365822L280.480591,104.37661L280.510254,104.388893L280.509369,104.385887L280.501556,104.346199L280.498413,104.305748L280.500214,104.265297L280.506805,104.225288L280.517883,104.186333L280.53363,104.14904L280.553711,104.11367L280.577667,104.081017L280.605377,104.051506L280.636414,104.025429L280.670258,104.003105L280.70578,103.985435L281.017548,103.851189L281.028015,103.846855L281.331696,103.727898L281.343231,103.723549L281.639282,103.619576L281.652008,103.615379L281.940125,103.526695L281.953735,103.522789L282.234192,103.449089L282.249481,103.445488L282.522156,103.387062L282.538788,103.383919L282.80365,103.340614L282.821625,103.338219L283.078888,103.310051L283.119324,103.307961L283.15979,103.310799L283.199615,103.318291L283.238281,103.330437L283.275146,103.347054L283.309906,103.368034L283.341949,103.392754L283.37088,103.421227L283.396179,103.452827L283.41507,103.482948L283.451782,103.548271L283.458069,103.557106L283.457916,103.556801L283.446838,103.517845L283.440399,103.477852L283.438873,103.437248L283.442047,103.39695L283.449829,103.357094L283.462402,103.318596L283.47934,103.281746L283.50061,103.247276L283.525787,103.215523L283.554382,103.186913L283.586304,103.161888L283.620911,103.140755L283.657776,103.123985L283.696411,103.111549L283.712769,103.108406L283.500916,102.998741L283.48175,102.987953L282.997986,102.696999L282.980438,102.685768L282.504028,102.358116L282.488007,102.346428L282.018921,101.982079L282.004395,101.970085L281.542633,101.568871L281.529449,101.556892L281.224579,101.2631L281.213654,101.266701L281.184143,101.275078L281.043457,101.308342L281.021881,101.312843L280.884186,101.336205L280.861725,101.339211L280.727203,101.352989L280.702759,101.354637L280.571228,101.358681L280.545166,101.358376L280.416626,101.352547L280.390259,101.350441L280.264862,101.335014L280.237732,101.330513L280.115326,101.305351L280.088226,101.298607L279.968658,101.263695L279.941833,101.254707L279.825592,101.21006L279.80072,101.199272L279.687317,101.145042L279.66275,101.132164L279.55246,101.068031L279.530762,101.0541L279.423492,100.9804L279.403107,100.965416L279.298828,100.881813L279.281158,100.866539L279.179871,100.773338L279.164154,100.757912L279.065857,100.654991L279.051788,100.639412L278.956635,100.526741L278.942566,100.508766L278.854767,100.389519L278.841431,100.370033L278.765472,100.250481L278.752747,100.228752L278.688477,100.10891L278.676788,100.084785L278.624054,99.964775L278.613281,99.93737L278.572357,99.817207L278.563812,99.787392L278.534607,99.666939L278.528473,99.635475L278.510956,99.514885L278.507782,99.482063L278.501953,99.361168L278.501953,99.328209L278.507782,99.207161L278.510956,99.174644L278.528473,99.053291L278.534454,99.022133L278.56369,98.900627L278.57193,98.871559L278.612823,98.749763L278.623169,98.722939L278.675903,98.60099L278.687286,98.577324L278.751556,98.455223L278.763519,98.43409L278.78421,98.400688L278.778076,98.399635L278.739258,98.387794L278.702118,98.37162L278.667206,98.350945L278.634979,98.326378L278.605774,98.29821L278.579254,98.265404L278.542999,98.21447L278.541046,98.21447L278.500916,98.209068L278.461639,98.199028L278.423889,98.184349L278.388092,98.165321L278.354828,98.14225L278.324432,98.115288L278.297607,98.085014L278.274384,98.051918L278.253998,98.013252L278.129669,97.736839L278.115112,97.698936L278.105377,97.659691L278.100128,97.619392L278.099854,97.578941L278.106445,97.527107L278.110779,97.506126L278.083801,97.486351L278.054291,97.458488L278.028229,97.427467L278.006042,97.393456L277.987915,97.357201L277.969513,97.300133L277.928589,97.122444L277.924408,97.123039L277.883942,97.123344L277.843658,97.118843L277.804108,97.109703L277.766052,97.096077L277.729797,97.077797L277.695923,97.055626L277.664917,97.029411L277.637207,96.999748L277.617889,96.974129L277.385376,96.633446L277.375488,96.618004L277.149994,96.246468L277.141754,96.232231L276.92334,95.829674L276.916595,95.81649L276.705048,95.382912L276.698914,95.369423L276.503693,94.921471L276.497101,94.905449L276.334381,94.473824L276.328094,94.455391L276.198059,94.040092L276.19223,94.019279L276.094543,93.620613L276.0896,93.596489L276.024567,93.214157L276.020966,93.187187L275.988312,92.821335L275.986969,92.790916L275.986816,92.441246L275.988464,92.40799L276.020813,92.074791L276.024872,92.045876L276.093933,91.670288L276.096771,91.656502L276.179932,91.289452L276.183228,91.275818L276.280151,90.917305L276.284363,90.903069L276.395355,90.553093L276.401825,90.534821L276.490204,90.302452L276.495605,90.289116L276.58728,90.07563L276.594635,90.059746L276.690063,89.865433L276.698914,89.848358L276.797638,89.67292L276.809601,89.65329L276.911926,89.497032L276.92691,89.475906L277.032532,89.338524L277.052765,89.314705L277.16214,89.196503L277.187012,89.172081L277.243927,89.121887L277.740417,88.01429L277.74118,88.012642L277.853699,87.764992L277.864777,87.742821L277.987183,87.518097L278.001556,87.494125L278.134003,87.292168L278.152283,87.266701L278.294769,87.087517L278.317688,87.0616L278.470032,86.905342L278.497894,86.879875L278.660156,86.746536L278.692657,86.72271L278.864807,86.612297L278.901367,86.591919L279.083557,86.50428L279.092834,86.499931L279.208038,86.4487L279.31546,86.396263L279.436371,86.332588L279.566711,86.259178L279.694336,86.182922L279.835175,86.094681L279.980499,85.999245L280.108734,85.912048L280.414673,85.607475L280.676849,85.254349L280.704559,85.221542L280.827271,85.093445L280.836395,85.084312L280.954773,84.969696L280.965698,84.959511L281.079865,84.858231L281.092896,84.847145L281.202576,84.759209L281.219177,84.746773L281.324524,84.67231L281.344879,84.658974L281.445862,84.597855L281.471649,84.583771L281.568115,84.536125L281.600342,84.522194L281.692627,84.487885L281.731415,84.475899L281.75705,84.47081L281.839874,84.457321L281.880188,84.453125L281.909851,84.453125L282.00647,84.457321zM284.730621,106.617577L284.729126,106.624916L284.773468,106.614281L284.790253,106.610985L284.731659,106.605736L284.730621,106.617577zM294.215424,109.902779L294.214661,109.906075L294.251953,109.901726L294.282379,109.900383L294.218262,109.887199L294.217194,109.886894L294.215424,109.902779zM296.172333,113.47802L296.167694,113.496895L296.169617,113.495995L296.207825,113.482368L296.247223,113.473228L296.262054,113.471581L296.175476,113.446404L296.172333,113.47802zM286.388641,106.742531L286.437927,106.757057L286.457123,106.763191L286.571259,106.8041L286.582947,106.808739L286.544312,106.782829L286.512085,106.7584L286.483032,106.730232L286.477783,106.723793L286.388641,106.742531zM288.945587,110.393578L288.956818,110.432533L288.963257,110.472527L288.964905,110.496803L288.968353,110.608864L288.969696,110.601372L288.975677,110.543694L288.97644,110.490364L288.972839,110.451408L288.965942,110.418892L288.949463,110.371849L288.938385,110.332893L288.932098,110.2929L288.931335,110.27462L288.901672,110.268623L288.945587,110.393578zM300.497101,113.614799L300.313721,113.820656L300.297394,113.83773L300.098755,114.032036L300.081665,114.047768L299.867859,114.230247L299.850342,114.244179L299.621277,114.415123L299.603302,114.427711L299.421417,114.546211L299.624268,114.428612L299.852905,114.270103L300.06488,114.095863L300.256958,113.90815L300.43222,113.704536L300.497253,113.614494L300.497101,113.614799zM298.841309,113.55442L298.826782,113.565804L298.533905,113.782448L298.499878,113.804619L298.495697,113.806725L298.668274,113.833687L298.854645,113.543343L298.841309,113.55442zM296.33786,109.456169L296.302063,109.478493L296.066254,109.606285L296.031952,109.622459L295.768555,109.729591L295.737091,109.740669L295.446014,109.82711L295.406464,109.836403L295.372162,109.840446L294.88031,109.874611L295.514465,109.847343L295.70401,109.825325L295.86908,109.785469L296.019653,109.727486L296.156738,109.652122L296.283936,109.557152L296.402588,109.441032L296.459534,109.36927L296.33786,109.456169zM286.514069,114.336426L286.263763,114.820129C286.855713,116.193443,287.151703,117.378181,287.151703,118.37265L287.387634,118.331207L287.526306,118.23481L287.582123,118.124031C287.563507,117.331665,287.434143,116.023468,287.193115,114.198586L286.514069,114.336426zM289.620117,109.291359C289.73172,109.088402,289.773163,108.936188,289.74527,108.834717L289.3013,108.641068L288.649323,108.378914C288.418457,108.240234,288.279755,108.070259,288.233246,107.86731C288.122467,107.359924,287.873016,106.987,287.484863,106.747681C287.262482,106.609001,287.013,106.526123,286.735626,106.498222C287.346191,106.849159,287.738556,107.52652,287.914459,108.530289C287.942352,108.678268,287.946594,108.83979,287.928833,109.014832L288.081055,109.041893C288.422668,109.263451,288.686523,109.553505,288.871704,109.912903L289.010406,109.940811C289.111877,109.922203,289.218414,109.848633,289.329193,109.719254L289.620117,109.291359zM298.635437,139.48143C298.339447,139.601501,297.955536,139.725815,297.483673,139.855194C296.707367,140.066605,296.023254,140.190918,295.431305,140.228119L292.61618,140.103821C292.625488,140.435303,292.740509,140.679688,292.962891,140.836136C293.148102,140.974823,293.559082,141.04332,294.19754,141.04332L294.55777,140.628952L294.585693,140.587524L294.640656,140.601044C295.713745,140.896179,296.656647,141.080521,297.470154,141.154099C298.699707,141.246277,299.902191,141.149872,301.075928,140.864044L301.21463,140.822601C301.381226,140.776093,301.473389,140.726196,301.492004,140.670395C301.492004,140.559601,301.306793,140.412476,300.937256,140.228119C300.678497,140.09874,299.910645,139.850128,298.635437,139.48143zM277.679718,141.361267C277.355835,142.015808,277.203613,142.444534,277.221375,142.647491C277.267883,143.477051,277.781189,143.960754,278.761292,144.098602C279.353241,144.181473,280.018738,143.987823,280.758667,143.518494C281.368378,143.131195,281.770905,142.766724,281.964569,142.425934C282.093933,142.232285,282.121857,141.946457,282.048279,141.569305L279.010742,141.67923C278.566772,141.652176,278.122833,141.545624,277.679718,141.361267zM293.004333,104.023888C292.837738,104.254745,292.588287,104.540573,292.255096,104.881363L291.49234,105.530815L291.437378,105.545189L291.340118,105.600159C291.220032,105.673721,291.206512,105.788734,291.298706,105.946022C291.465271,106.30542,291.709656,106.945564,292.033539,107.86731C292.468201,109.083328,292.801392,110.166595,293.032257,111.115395C293.263092,112.05574,293.466888,113.239632,293.642792,114.668762L293.864349,116.825134L293.864349,116.86657L293.892273,117.156624C294.299011,117.045845,294.668549,116.87587,295.00174,116.645012L295.112518,113.037529C294.863037,112.92675,294.709991,112.806671,294.655029,112.678131C294.627106,112.57666,294.659241,112.383003,294.752258,112.097183L294.973816,111.599098C294.649963,111.572037,294.428406,111.489166,294.308319,111.350479C294.095215,111.111168,293.928619,110.714569,293.808533,110.161514L293.781494,110.05159C293.762878,109.959412,293.795013,109.890068,293.877869,109.843559L293.433929,109.387756C293.230957,109.083328,293.092285,108.706177,293.017883,108.254608C292.944305,107.87661,292.930756,107.558647,292.97644,107.300735C293.078766,106.674118,293.429688,106.176033,294.030945,105.807335C294.428406,105.558716,294.90448,105.383675,295.459229,105.282196C295.181854,105.024277,294.700684,104.734222,294.016571,104.411194C293.369659,104.098305,293.032257,103.968918,293.004333,104.023888zM301.270447,110.894684C301.547791,111.61348,301.514832,112.360168,301.173187,113.133926C300.830719,113.899231,300.285278,114.47934,299.536896,114.875938C299.147888,115.087349,298.626129,115.156693,297.969086,115.083122C297.359375,115.028152,296.864685,114.885239,296.48584,114.654388L296.180542,114.364334L296.139099,114.3508C295.90741,114.055672,295.792389,113.788452,295.792389,113.548294L295.833832,113.423981L295.500671,113.271774L295.542084,115.193901C295.95816,115.912689,296.555176,116.571442,297.331451,117.170151C298.200775,117.833984,298.991455,118.156166,299.702637,118.138412C300.830719,118.101196,301.820099,117.54393,302.670807,116.465736C303.475006,115.45182,303.794647,114.502167,303.628082,113.617638C303.535065,113.111099,303.156219,112.488708,302.490692,111.751312L300.937256,110.120087L301.270447,110.894684zM285.543274,106.926956C285.090027,106.862686,284.62323,106.954865,284.142059,107.203484C283.513763,107.544273,283.019073,108.106621,282.65799,108.889679C282.334961,109.590714,282.145508,110.341637,282.089722,111.143303C282.033905,111.982178,282.140442,112.719566,282.408508,113.355484L282.783142,114.004936L283.255005,114.48864C284.021973,115.096649,284.660431,115.322441,285.168671,115.165993C285.492554,115.073822,285.769928,114.806595,286.000793,114.364334L285.238007,114.3508L285.084961,114.267082L285.029999,114.115715C285.048584,113.967728,285.127228,113.894157,285.26593,113.894157C285.820648,113.894157,286.471802,113.807053,287.221039,113.631165C288.136841,113.401154,288.663696,113.1297,288.802368,112.815971C288.968964,112.419365,289.00531,112.106483,288.913147,111.875626L288.774475,111.668442L288.24762,111.97287C287.812988,112.202881,287.235413,112.327194,286.514069,112.345795L285.501007,112.304359C285.371613,112.285759,285.307343,112.207962,285.307343,112.069275C285.325958,111.931435,285.404602,111.862091,285.543274,111.862091L285.862091,111.875626L287.359711,111.751312L288.039612,111.557663L288.316986,111.364861C288.547821,111.152603,288.649323,110.866776,288.622253,110.507385L288.524994,110.230865C288.266235,110.055817,288.030304,109.788589,287.8172,109.429199C287.75293,109.604248,287.646393,109.769989,287.498413,109.927277C287.202423,110.230865,286.782135,110.447342,286.236694,110.576729L285.112854,110.659599C284.558136,110.567421,284.040588,109.692192,283.559418,108.033051L283.989868,107.908737C284.156433,108.480392,284.350098,108.991158,284.57251,109.442726C284.812653,109.931503,285.015625,110.189423,285.18219,110.217331L286.139465,110.13446C286.592712,110.023682,286.934357,109.848633,287.166077,109.609314C287.424835,109.350555,287.52124,109.019058,287.45697,108.613998C287.346191,107.931572,287.073059,107.466476,286.638397,107.217857C286.435425,107.08847,286.070129,106.992073,285.543274,106.926956zM284.668915,107.300735L285.556824,107.355698C285.639679,107.355698,285.704803,107.40136,285.751312,107.49353L286.014313,108.2267C286.180908,108.751846,286.263763,109.157745,286.263763,109.442726L285.806274,109.442726C285.806274,109.101936,285.663361,108.553963,285.376709,107.797966L284.932739,107.770058C285.080719,108.535362,285.270142,109.088402,285.501007,109.429199L285.127228,109.677811C284.82196,109.216942,284.591095,108.512527,284.433807,107.562874L284.48877,107.369232C284.535278,107.323563,284.595337,107.300735,284.668915,107.300735zM297.678162,101.771118C297.040558,101.540253,296.531494,101.840454,296.152649,102.669182C295.995361,103.05648,296.069763,103.826012,296.374207,104.977768C296.624512,105.042877,296.934021,105.268661,297.303558,105.655121C297.488739,105.867378,297.646027,106.138824,297.775421,106.471161L297.927643,106.899902C297.927643,107.019135,297.872681,107.092705,297.761047,107.120613C297.650269,107.139214,297.571625,107.097778,297.52597,106.9963L297.19278,106.18026C296.841827,105.70163,296.319244,105.540115,295.625824,105.696556C294.867279,105.880905,294.303223,106.143898,293.933685,106.484695C293.665619,106.724007,293.485504,107.028435,293.392487,107.397133C293.346832,107.590782,293.35611,107.858002,293.42038,108.198792C293.494812,108.576797,293.614899,108.889679,293.781494,109.139145C293.96582,109.397064,294.160339,109.539978,294.363281,109.567032L295.34845,109.498535C295.755188,109.397064,296.087524,109.240616,296.347137,109.028366C296.596588,108.816109,296.730225,108.586098,296.74881,108.337479L296.651581,107.521439C296.605896,107.08847,296.628723,106.871994,296.720917,106.871994C296.74881,106.871994,296.836761,107.056343,296.984741,107.425041C297.132751,107.811493,297.211395,108.060959,297.220673,108.170891C297.220673,108.548889,297.119202,108.926888,296.915405,109.304886C296.610138,109.857933,296.152649,110.153061,295.542084,110.189423L294.266876,110.244392C294.368347,110.631691,294.492645,110.908218,294.640656,111.073959C294.788635,111.249008,295.213989,111.396996,295.916718,111.516228C296.720917,111.645615,297.317932,111.566971,297.706085,111.28199L297.983459,111.309044C298.08493,111.391922,298.094238,111.484093,298.011353,111.585571L297.400818,112.083649C296.836761,112.322968,296.134033,112.262924,295.292633,111.903526C295.20047,112.050674,295.219055,112.285759,295.34845,112.608788C295.422028,112.802444,295.796631,112.99102,296.471436,113.175369L298.33017,113.506859C298.736908,113.221878,299.078552,112.921677,299.355927,112.608788L299.744904,112.000778C299.809174,111.889999,299.902191,111.862091,300.022278,111.917061C300.123749,111.982178,300.16095,112.074348,300.133057,112.193581C300.067932,112.360168,299.925018,112.580887,299.702637,112.857407L298.912811,114.087807C298.866302,114.170685,298.792725,114.20282,298.690399,114.184212L296.304871,113.811287L296.555176,114.170685C296.730225,114.373634,297.063385,114.516548,297.553009,114.599419C298.09845,114.691589,298.551727,114.640854,298.912811,114.447205C299.624817,114.069206,300.1745,113.566895,300.562653,112.940277C300.988007,112.267998,301.090302,111.636307,300.86792,111.046898C300.65567,110.503159,300.37323,110.074417,300.022278,109.760689L299.536896,109.442726L299.467529,109.304886C299.458252,109.194107,299.527588,109.037666,299.675568,108.834717L299.938568,108.405975C300.01297,108.083786,300.01297,107.86731,299.938568,107.756531L299.259521,107.024208C298.556793,106.31472,298.182159,105.853844,298.135651,105.641594C298.080688,105.402275,298.126373,104.701241,298.274353,103.540184L298.33017,103.222229C298.385132,102.789261,298.376678,102.480606,298.302246,102.296249C298.219391,102.066238,298.011353,101.89035,297.678162,101.771118zM294.668549,107.037735L294.724365,106.816177L295.26474,106.291039L295.403412,106.263977L295.515045,106.38829L295.736603,107.175575C295.884583,107.747223,295.953918,108.203873,295.944611,108.544662L295.61145,108.530289C295.61145,108.16243,295.505737,107.595016,295.292633,106.830559L295.015259,107.092705C295.144653,107.87661,295.279114,108.415283,295.417786,108.710403L295.140411,108.959023L294.821625,107.908737L294.668549,107.037735zM276.722443,90.656914C276.565155,91.117783,276.445099,91.601486,276.362213,92.108025C276.232819,92.9748,276.44931,94.015778,277.013367,95.232651C277.29071,95.83136,277.5867,96.347198,277.901276,96.781013C277.845459,95.970047,278.01712,95.236877,278.414581,94.582359L279.2323,93.449203C278.899963,93.319824,278.590454,93.154076,278.303802,92.951126C277.942719,92.683907,277.743988,92.421753,277.706787,92.163834C277.661102,91.804443,277.702545,91.472107,277.83194,91.168526C278.007813,90.753319,278.330841,90.481865,278.802734,90.352486L279.108002,90.297516L280.120239,90.366859L281.008148,90.421829L281.091003,90.393921C281.14682,90.366859,281.364166,89.983788,281.743011,89.246391C282.103241,88.546204,282.440643,88.154678,282.755219,88.0718L282.99115,88.058273L283.545898,88.209641L284.059204,88.361855L284.696808,88.555504L285.154297,88.583412L285.307343,88.514069L285.62616,88.224014L285.944977,87.947495C286.047302,87.864624,286.152985,87.808807,286.263763,87.781746L286.930145,87.808807C287.133087,87.855316,287.512787,88.081108,288.067505,88.486168L288.926666,89.108551C289.370636,89.320808,289.773163,89.380005,290.133392,89.288673C290.392181,89.214256,290.577362,89.076416,290.688141,88.873466C290.928314,88.468407,291.039917,87.993156,291.021332,87.449417C291.002716,86.924271,290.868256,86.49131,290.618805,86.150513C290.42514,85.864693,290.184143,85.648209,289.897461,85.500221C290.018402,85.823257,289.99472,86.104004,289.828125,86.34417C289.634491,86.611389,289.379944,86.786438,289.065369,86.869308C288.612946,86.988541,288.173218,86.910744,287.747864,86.634224C286.694214,85.934036,286.005005,85.588165,285.681976,85.597473L285.362335,85.652435C285.187286,85.698944,284.98349,85.795349,284.752625,85.943336L284.252838,86.219009L283.864685,86.164047L283.212708,85.652435C282.565796,85.053726,282.126923,84.767899,281.895203,84.795807L281.812347,84.809334C281.572174,84.882904,281.285522,85.099388,280.952332,85.458786L280.674957,85.832558L280.328247,86.177574C279.902893,86.472702,279.537567,86.684959,279.2323,86.813492C278.733368,87.016449,278.340149,87.463791,278.053497,88.154678L277.526642,89.330109C277.221375,89.569427,276.953308,90.011696,276.722443,90.656914zM277.970612,107.549347C277.073395,108.949722,276.791809,110.876083,277.124969,113.327583C277.447998,115.658997,278.141418,117.423843,279.205231,118.622108C280.444092,120.022484,281.692261,120.755653,282.949707,120.819916L284.47525,120.737045C284.91922,120.626266,285.3302,120.396255,285.709045,120.045319C286.300964,119.51088,286.555511,118.682152,286.471802,117.557457C286.426147,116.838669,286.25531,116.091965,285.959351,115.318207C285.275208,116.064903,284.586029,116.249252,283.892609,115.871254C283.217773,115.511856,282.672363,115.023087,282.256287,114.405769C281.812347,113.741943,281.548492,112.968185,281.465637,112.083649C280.901581,112.682358,280.642822,113.511932,280.689331,114.57151C280.707092,114.940208,280.855072,115.604034,281.132446,116.562141C281.345551,117.271629,281.373444,117.636093,281.216156,117.653854C281.132446,117.663162,280.980225,117.410309,280.758667,116.893631C280.51767,116.304222,280.342621,115.686905,280.230988,115.041687C279.917267,113.133926,280.346863,111.783447,281.521454,110.991089L281.673645,110.894684C281.747223,110.102325,281.9375,109.369156,282.241913,108.696877C282.723083,107.627144,283.439331,106.917656,284.391541,106.567566C283.763214,106.548958,283.046967,106.364609,282.241913,106.014519C281.373444,105.628059,280.74939,105.190025,280.36969,104.701241C279.917267,104.996368,279.473328,105.387901,279.038666,105.876678C278.622589,106.337547,278.330841,106.742607,278.1651,107.092705C278.534668,107.194183,278.941406,107.387833,279.385376,107.67366C280.291046,108.236008,280.869446,109.101936,281.118927,110.272293C280.619995,109.304886,280.004364,108.558189,279.274597,108.033051C278.67334,107.60939,278.238678,107.447868,277.970612,107.549347zM291.132111,103.015045L290.660248,103.374435L290.549469,103.996826C290.475891,104.181175,290.249268,104.439095,289.870422,104.770584C289.675903,104.936333,289.315674,105.079247,288.787994,105.199326C287.965179,105.392975,286.939423,105.402275,285.709045,105.227226C285.108643,105.143509,284.521759,104.890671,283.948425,104.466156C283.495148,104.134666,283.217773,103.86322,283.116302,103.650963C282.440643,103.705933,281.682953,103.922409,280.841553,104.300415C281.257599,104.982841,282.029663,105.512207,283.157745,105.890213C283.924744,106.148132,284.548828,106.277512,285.029999,106.277512L286.083649,106.456787L286.735626,106.318947L287.290375,106.277512L287.8172,106.360382C288.058197,106.45256,288.289063,106.73838,288.51062,107.217857C288.705109,107.715088,288.843811,108.01445,288.926666,108.115921L289.675903,108.28167C290.054749,108.337479,290.244171,108.558189,290.244171,108.945496C290.244171,109.369156,290.082672,109.715027,289.758789,109.982246L289.273376,110.258766C289.347809,110.433815,289.333435,110.663826,289.231964,110.949646L289.065369,111.336952L289.370636,111.820656C289.500031,112.244324,289.39856,112.691666,289.065369,113.161835C288.825195,113.511932,288.353333,113.848495,287.651459,114.170685L287.900909,115.926224C288.067505,117.160851,288.145325,117.935455,288.136841,118.248337C288.118256,118.562073,287.928833,118.759949,287.567749,118.842819L287.027374,118.870728C286.906464,120.391182,285.982178,121.197922,284.252838,121.2901C283.384369,121.335754,282.528595,121.230057,281.687195,120.972137L281.437714,121.870201C282.371307,122.41394,283.463013,122.797012,284.711182,123.017731C286.190186,123.27565,287.75293,123.271423,289.39856,123.004196C290.526611,122.829147,291.709656,122.409714,292.948517,121.745895C294.040253,121.156479,294.715057,120.658401,294.973816,120.253342L295.098969,117.00441L293.725677,117.502487C293.559082,117.557457,293.416168,117.538849,293.295227,117.446678L293.129486,117.156624L293.101593,116.742264L293.101593,116.700821L292.934998,114.599419C292.796326,113.188896,292.625488,112.014305,292.421692,111.073959C292.209442,110.097252,291.904175,109.000458,291.506714,107.784439C291.192139,106.853386,290.970581,106.249603,290.841187,105.973083C290.693207,105.660194,290.794678,105.397202,291.14563,105.185791C291.5896,104.909271,292.107971,104.461929,292.699066,103.844612C292.162933,103.475914,291.64032,103.199394,291.132111,103.015045zM283.227081,88.928436C282.635132,89.076416,282.159058,89.518684,281.798798,90.256081C281.677887,90.486092,281.497772,90.634079,281.257599,90.698349L280.508362,90.726257L279.274597,90.794754L279.177338,90.809128C278.696167,90.946968,278.442474,91.302132,278.414581,91.87294C278.386658,92.481796,278.789185,92.886856,279.621307,93.089813C279.666962,93.089813,279.718536,93.117714,279.773499,93.172684C279.847931,93.246254,279.833557,93.334198,279.732086,93.435677C279.297424,93.868637,278.960022,94.283005,278.719849,94.679604C278.201477,95.53624,278.062805,96.384407,278.303802,97.223282C278.386658,96.522247,278.581177,95.840668,278.88559,95.176842C279.265289,94.476654,279.537567,94.066521,279.704163,93.946442L279.801422,93.891472C279.884277,93.872871,279.949402,93.895699,279.995911,93.960815C280.041565,94.025085,280.032288,94.089355,279.968018,94.154465L279.690643,94.513863L279.177338,95.342583C278.881348,95.840668,278.636139,96.591591,278.442474,97.596207L278.566772,97.872726L278.581177,97.8592C278.719849,97.065994,278.941406,96.407242,279.246674,95.882103C279.505432,95.449135,279.745605,95.154007,279.968018,94.997566L280.00946,94.969658C280.092316,94.951057,280.148132,94.988266,280.176025,95.080437C280.203949,95.181915,280.170959,95.287621,280.078796,95.398399C279.838623,95.637711,279.66272,95.863495,279.551941,96.075752C279.320251,96.471512,279.066559,97.103203,278.789185,97.969131L278.858521,98.066383L279.093628,98.066383C279.241608,98.094284,279.283875,98.194916,279.218781,98.369965C278.719849,99.02449,278.719849,99.669708,279.218781,100.305626C279.718536,100.932243,280.346863,101.144501,281.105377,100.941544L281.313416,100.8722C282.515076,102.089073,283.795349,102.913567,285.154297,103.346535C285.292969,103.383743,285.367401,103.429405,285.376709,103.485214L285.210114,103.595993C284.868469,103.705933,284.391541,103.65519,283.78183,103.443787C284.040588,104.089005,284.664673,104.558334,285.654053,104.853455C286.569031,105.139282,287.401154,105.180717,288.150391,104.977768C288.492035,104.876289,288.74234,104.734222,288.899628,104.549873L288.830292,104.576935L287.900909,104.632744C287.466278,104.614143,287.253174,104.567635,287.262482,104.494064L287.304749,104.452621L287.623566,104.411194L288.206207,104.300415C288.945282,104.098305,289.717346,103.669571,290.521545,103.015045C291.964203,101.853989,292.833527,100.264191,293.129486,98.245651C293.40686,96.310837,293.110901,94.476654,292.241577,92.743942C291.686829,91.656456,290.910553,90.643387,289.911835,89.703033C289.569366,89.740242,289.167694,89.656525,288.705109,89.454422L287.8172,88.804123C287.271759,88.399063,286.920837,88.177505,286.76355,88.141144L286.471802,88.154678C286.213043,88.228249,285.940735,88.421898,285.654053,88.735626C285.496765,88.854858,285.335266,88.93351,285.168671,88.970711L283.934052,88.901375L283.227081,88.928436zM281.132446,96.863884C281.206879,96.845284,281.266907,96.873184,281.313416,96.946754C281.368378,97.011024,281.364166,97.075294,281.299042,97.140411L281.160339,97.347588L281.049561,97.692612C281.077484,97.794083,281.040283,97.854126,280.938812,97.872726C280.818726,97.909935,280.744293,97.854126,280.7164,97.706985C280.697784,97.596207,280.730774,97.443993,280.81366,97.250343L281.06311,96.905319L281.132446,96.863884zM288.913147,89.951653C289.00531,89.998161,289.070435,90.057358,289.107635,90.131775L289.079742,90.200272L288.996033,90.17321C288.848022,90.108093,288.673004,90.154602,288.469177,90.31105L288.261169,90.753319L288.150391,91.099182L287.970276,91.044212L287.8172,90.946968L287.942352,90.91906C288.034546,90.910606,288.075958,90.886925,288.067505,90.850563C287.993103,90.555435,288.01593,90.306816,288.136841,90.103867C288.283997,89.864555,288.54361,89.813812,288.913147,89.951653zM280.841553,95.854195L280.882996,95.840668C280.957397,95.812759,281.017456,95.836441,281.06311,95.910004C281.118927,95.983582,281.100311,96.070679,281.008148,96.172157L280.577698,96.670235L280.328247,97.153938C280.236084,97.356888,280.166748,97.466827,280.120239,97.485428L280.065247,97.443993C280.028046,97.379723,280.041565,97.246109,280.106689,97.043159L280.314728,96.504486C280.434784,96.255028,280.610687,96.038544,280.841553,95.854195zM291.22934,99.72467C291.275848,99.743279,291.266541,99.784714,291.201447,99.849831L290.882629,99.959763L290.313538,100.057007C290.174835,100.075615,290.031921,100.172012,289.883942,100.347061C289.763855,100.58638,289.675903,100.706459,289.620117,100.706459L289.329193,100.678551C289.273376,100.623581,289.23703,100.52211,289.218414,100.374969C289.218414,100.282791,289.319916,100.19062,289.523712,100.098442C289.74527,99.942001,289.888184,99.858284,289.953278,99.849831L291.076294,99.739052L291.22934,99.72467zM290.868256,92.384552C290.989197,92.734642,291.039917,93.006935,291.021332,93.200584C291.049225,93.439903,290.9841,93.596344,290.826813,93.669914C290.660248,93.771393,290.475891,93.735031,290.272095,93.559982C290.105499,93.421295,289.95752,93.186211,289.828125,92.854721C289.671692,92.550293,289.615875,92.278847,289.662384,92.039528C289.634491,91.780762,289.698761,91.624321,289.856049,91.569351C290.004028,91.46788,290.179901,91.518616,290.382874,91.721573C290.503784,91.822197,290.665314,92.043755,290.868256,92.384552zM284.377991,93.338425C284.526001,93.236954,284.701874,93.287689,284.904846,93.490639C285.024902,93.592117,285.187286,93.812828,285.390228,94.154465C285.510315,94.504562,285.56189,94.776009,285.543274,94.969658C285.570343,95.208977,285.506073,95.366264,285.348785,95.439835C285.18219,95.541306,284.997864,95.504105,284.794067,95.329056C284.627472,95.191216,284.479492,94.956131,284.350098,94.623795C284.19281,94.320213,284.137848,94.047913,284.183502,93.808601C284.156433,93.550682,284.220703,93.394241,284.377991,93.338425zM282.159058,91.472107C282.3992,90.716957,282.811035,90.371086,283.393677,90.435356C283.864685,90.518227,284.295135,90.809128,284.683289,91.306366C284.72049,91.362175,284.812653,91.324966,284.960632,91.195587C285.024902,91.039139,285.090027,90.993477,285.154297,91.057747L285.112854,91.389236L284.974182,91.776535L284.280762,91.513542C283.827484,91.32074,283.49939,91.228561,283.296448,91.237022C282.7789,91.366402,282.468567,91.592186,282.367065,91.914375L282.311279,92.066589C282.28421,92.08519,282.237701,92.066589,282.172577,92.01162C282.098999,91.86364,282.093933,91.684364,282.159058,91.472107zM287.123779,92.937592C287.031616,92.781151,287.027374,92.67968,287.11026,92.633163C287.202423,92.596802,287.304749,92.651772,287.415527,92.799759L288.094574,93.587044L288.414215,93.891472L289.662384,94.845352L289.717346,94.914696C289.810364,95.033928,289.833191,95.154007,289.786682,95.274086L289.439972,96.324371L289.342743,96.421616L289.342743,96.43515L289.287781,96.476585C289.149078,96.587364,288.986725,96.619492,288.802368,96.572983L288.635773,96.504486L288.622253,96.324371L288.968964,95.411926C288.986725,95.274086,288.950348,95.159081,288.85733,95.06691L288.011688,94.154465C287.678528,93.776466,287.382538,93.37056,287.123779,92.937592zM285.986389,96.835976L286.055756,96.79454L286.111572,96.863884C286.139465,96.881645,286.143677,96.909546,286.125092,96.946754L285.959351,97.374649C285.87561,97.466827,285.884918,97.550537,285.986389,97.624115L286.125092,97.776329C287.678528,98.052002,288.727966,98.139954,289.273376,98.038475C289.662384,98.010567,290.133392,97.854126,290.688141,97.568298L291.437378,97.208908C291.613281,97.153938,291.673309,97.020325,291.617493,96.808075L291.5896,96.655861C291.543915,96.619492,291.543915,96.578056,291.5896,96.531548C291.561676,96.457977,291.603973,96.467285,291.714752,96.559456L292.338837,96.98819C292.477509,97.144638,292.532471,97.291779,292.505402,97.430458L292.200134,98.467209C292.116425,98.651558,292.047089,98.655792,291.992126,98.480743L291.977722,98.35643L291.784088,98.550079L291.326599,99.005882C291.094879,99.135262,290.693207,99.273102,290.119873,99.421089C289.629395,99.466751,289.171906,99.605438,288.746552,99.835449C288.090332,100.232056,287.304749,100.172012,286.388916,99.656174C285.982178,99.443924,285.575409,99.125961,285.168671,98.702301C285.029999,98.628731,284.895538,98.670166,284.766144,98.826607L284.738251,99.448997C284.608856,99.558929,284.53952,99.540321,284.530212,99.393181L284.364471,98.121346C284.336578,97.927696,284.405914,97.808464,284.57251,97.761948L285.986389,96.835976zM292.101776,97.248436L292.133698,97.286644L292.139099,97.293831L292.135803,97.287392L292.099396,97.239754L292.084106,97.229256L292.101776,97.248436zM287.318268,99.323845L288.24762,99.393181C288.570679,99.36528,288.838745,99.268875,289.051849,99.103134C289.3013,98.854515,289.64801,98.711601,290.09198,98.674393L291.160004,98.480743C291.326599,98.435074,291.49234,98.292168,291.658936,98.052002L291.908386,97.624115C291.881348,97.430458,291.761261,97.383949,291.548157,97.485428L290.79892,97.803391C290.198517,98.07991,289.671692,98.260033,289.218414,98.342903C288.534302,98.453682,287.47049,98.365738,286.028687,98.07991L285.320892,98.066383L285.223633,98.190689L285.223633,98.35643L285.446045,98.591522C286.351715,99.080299,286.9758,99.323845,287.318268,99.323845zM277.554565,137.422302C277.369354,139.394318,277.309326,140.467438,277.374451,140.642487C277.420959,140.73465,277.651794,140.831909,278.067871,140.93338L279.260223,141.112656C279.694855,141.140564,280.245361,141.131256,280.910889,141.085602C281.743011,141.029785,282.28421,140.928314,282.533661,140.781158L283.379303,138.486115C284.035522,136.578354,284.48877,135.3302,284.738251,134.739944C285.459564,132.961578,286.426147,130.970947,287.637085,128.768051L289.259857,125.948708L289.38501,126.017197L288.815887,127.593468L289.565125,129.376923C290.064056,130.62085,290.470825,131.736237,290.7854,132.72226C291.266541,134.269775,291.821289,136.536926,292.449615,139.522858L292.560394,139.605743L295.181854,139.730896L296.776733,139.522858C297.303558,139.375717,297.73822,139.136414,298.080688,138.804077C297.507355,134.860016,297.086212,132.077026,296.818146,130.455109C296.032562,125.597763,295.509949,122.455383,295.25119,121.0271C294.280396,121.856674,292.773468,122.566162,290.729584,123.156418C289.019714,123.63504,287.25824,123.777954,285.446045,123.584305C283.763214,123.409256,282.329865,122.989822,281.14682,122.326843L279.67627,126.998985C278.982849,129.294037,278.52536,130.984467,278.303802,132.07196C278.01712,133.454575,277.76767,135.238022,277.554565,137.422302z"/>
</svg>
