<?xml version="1.0" encoding="UTF-8"?>
<svg xmlns="http://www.w3.org/2000/svg" xmlns:xlink="http://www.w3.org/1999/xlink" width="33.896mm" height="60.116mm" viewBox="-263.621704 84.388504 33.896103 60.116272">
    <path transform="matrix(-1,0,0,1,0,0)" style="stroke:none;fill:#000000;fill-rule:evenodd" d="M247.584366,84.391281L247.657547,84.403824L247.753036,84.427017L247.805832,84.442703L247.875198,84.472672L247.983047,84.52861L248.030624,84.556473L248.054825,84.573196L248.175247,84.661728L248.219498,84.698135L248.35228,84.819229L248.381027,84.847458L248.526352,85.001144L248.546402,85.023453L248.704086,85.209915L248.718185,85.227341L248.888443,85.446182L248.899246,85.460648L249.069656,85.695358L249.51973,86.22612L249.893143,86.108322L250.061996,86.045578L250.098221,86.033554L250.268112,85.983719L250.311325,85.972916L250.470779,85.939987L250.524429,85.931808L250.673416,85.916306L250.752884,85.913864L251.083237,85.927963L251.138138,85.933029L251.199112,85.945572L251.262375,85.962296L251.314987,85.979019L251.384872,86.005325L251.42424,86.021896L251.500748,86.057785L251.531235,86.073288L251.614182,86.11879L251.637527,86.13237L251.727097,86.187424L251.745041,86.198929L251.841232,86.263412L251.857071,86.274551L251.959702,86.34877L251.971573,86.357681L252.080826,86.441299L252.091629,86.449661L252.207504,86.543076L252.216019,86.550217L252.338364,86.65303L252.34584,86.659286L252.474625,86.7715L252.481247,86.77742L252.616623,86.899399L252.62236,86.9048L252.764206,87.036362L252.768906,87.040726L252.917374,87.181686L252.921921,87.18605L253.076797,87.336594L253.080643,87.340256L253.235886,87.494095L253.343765,87.592728L253.443069,87.667831L253.540146,87.727066L253.637711,87.772903L253.735123,87.806198L253.833572,87.827621L253.938278,87.838242L254.035355,87.83754L254.183975,87.812973L254.317795,87.767685L254.446396,87.698502L254.571152,87.603195L254.589462,87.58403L254.606186,87.561356L254.618027,87.53923L254.627945,87.512222L254.635788,87.477737L254.639969,87.432602L254.639114,87.372482L254.627945,87.275253L254.624466,87.2202L254.626572,87.165298L254.634048,87.110764L254.647141,87.057266L254.665604,87.005356L254.689133,86.955521L254.717697,86.908463L254.750626,86.864548L254.788101,86.823959L254.829391,86.787521L254.874008,86.755478L254.921738,86.728104L254.972092,86.705643L255.024368,86.6884L255.078049,86.676529L255.132767,86.670273L255.18782,86.669388L255.242691,86.674088L255.296707,86.684372L255.349503,86.700058L255.400406,86.720963L255.44902,86.747116L255.494675,86.777786L255.549026,86.824478L255.719101,86.991226L255.756546,87.031998L255.909195,87.215652L255.942123,87.259384L256.077667,87.460648L256.104858,87.505783L256.222992,87.724106L256.25296,87.789291L256.309082,87.936508L256.323181,87.978683L256.367798,88.132553L256.378082,88.174545L256.411011,88.334854L256.417816,88.375443L256.439056,88.542191L256.442566,88.580368L256.452301,88.753555L256.453186,88.790512L256.45108,88.970322L256.449707,89.003616L256.436096,89.189713L256.432983,89.220901L256.407715,89.413254L256.401428,89.450211L256.362061,89.645187L256.35437,89.678482L256.304535,89.864212L256.294281,89.898026L256.234314,90.074692L256.220734,90.110245L256.15033,90.278061L256.142853,90.294266L256.178223,90.317612L256.222656,90.350204L256.263611,90.387131L256.308197,90.437668L256.382965,90.533676L256.41449,90.578629L256.443237,90.630722L256.509827,90.768204L256.53125,90.818924L256.54483,90.861069L256.590149,91.025925L256.603546,91.090225L256.630035,91.268814L256.63562,91.327011L256.64328,91.519211L256.642761,91.571671L256.631073,91.777634L256.62674,91.821884L256.615417,91.903091L256.60791,91.945236L256.587524,92.037613L256.579498,92.068954L256.550049,92.172653L256.542755,92.196518L256.504425,92.311172L256.49762,92.330154L256.450226,92.456131L256.444122,92.471817L256.387665,92.60878L256.382263,92.621323L256.316742,92.769608L256.311859,92.780594L256.237274,92.939865L256.211334,92.98848L256.180847,93.034103L256.14563,93.076645L256.106415,93.115158L256.063568,93.149643L256.02121,93.176987L256.03656,93.210617L256.046143,93.233109L256.218658,93.662796L256.227692,93.686661L256.377747,94.117599L256.385559,94.141983L256.513458,94.573929L256.519409,94.595535L256.607208,94.944229L256.611755,94.96373L256.685791,95.311691L256.689636,95.331741L256.750092,95.679367L256.753235,95.699936L256.80011,96.047195L256.802551,96.0681L256.835663,96.414871L256.837219,96.435959L256.85675,96.782181L256.857605,96.803604L256.863525,97.14949L256.863373,97.171097L256.85553,97.516617L256.854645,97.537704L256.833374,97.882706L256.831635,97.904495L256.796448,98.248978L256.793823,98.269882L256.745209,98.614029L256.741913,98.634781L256.679688,98.978378L256.675507,98.998947L256.599548,99.342209L256.594849,99.362259L256.50528,99.705154L256.499695,99.724869L256.396362,100.067245L256.390442,100.085892L256.273712,100.42778L256.266907,100.446426L256.132568,100.797348L256.12439,100.817551L255.978897,101.156296L255.969498,101.176682L255.813004,101.503036L255.802567,101.523972L255.635117,101.837936L255.623245,101.859024L255.444656,102.16066L255.431412,102.181747L255.241837,102.470993L255.227371,102.491898L255.026627,102.768967L255.010941,102.789688L254.79924,103.054367L254.782181,103.07457L254.559311,103.326889L254.541183,103.34642L254.307358,103.586349L254.288345,103.604996L254.043533,103.832718L254.022964,103.850845L253.939865,103.920731L254.523758,104.368546L254.565567,104.404099L254.603745,104.443802L254.637711,104.487198L254.666977,104.53389L254.688065,104.576431L254.715256,104.583572L254.76683,104.60289L254.816147,104.627487L254.862839,104.656754L254.89299,104.679398L255.1129,104.857834L255.144424,104.885544L255.64122,105.356705L255.656204,105.371689L256.136566,105.864273L256.150848,105.87944L256.614868,106.393295L256.628479,106.408981L257.076294,106.944443L257.089172,106.960281L257.520447,107.517197L257.532104,107.533035L257.947357,108.111374L257.958679,108.127579L258.357361,108.727493L258.367462,108.743362L258.749756,109.364731L258.755859,109.374832L259.124908,110.004745L259.131531,110.016403L259.489258,110.663223L259.495361,110.674545L259.842102,111.338089L259.848022,111.349747L260.183289,112.030197L260.188507,112.041L260.512787,112.737991L260.517853,112.74913L260.83078,113.463028L260.835327,113.473648L261.137115,114.204269L261.141296,114.21489L261.431763,114.962234L261.436462,114.974625L261.757599,115.863968L261.76178,115.876175L262.052277,116.744949L262.05661,116.75856L262.315887,117.606949L262.320068,117.621262L262.548523,118.449112L262.555328,118.476273L262.580048,118.588486L262.629364,118.778427L262.637573,118.81572L262.668579,118.982285L262.676239,119.040665L262.686523,119.176224L262.687927,119.231308L262.685303,119.273117L262.6745,119.378006L262.665955,119.432388L262.655334,119.475052L262.572571,119.757523L262.61908,119.771469L262.669983,119.792557L262.718414,119.81868L262.763885,119.849533L262.806244,119.884903L262.844574,119.924271L262.878876,119.9673L262.908508,120.013657L262.933441,120.06279L262.953125,120.114029L263.05661,120.429245L263.059753,120.439163L263.154205,120.746384L263.157349,120.756821L263.242706,121.055649L263.24585,121.066818L263.322174,121.357285L263.325317,121.369644L263.392395,121.651932L263.395172,121.664993L263.453217,121.938919L263.456177,121.953384L263.504974,122.219101L263.507385,122.234085L263.547302,122.491623L263.549744,122.50853L263.580414,122.757706L263.582336,122.775467L263.603943,123.016464L263.605316,123.036148L263.617706,123.268784L263.618408,123.289688L263.621704,123.514114L263.621521,123.536575L263.615784,123.75267L263.614563,123.777237L263.599579,123.985092L263.597137,124.011063L263.57309,124.210739L263.568909,124.238815L263.535614,124.430313L263.528992,124.463058L263.464539,124.73436L263.455139,124.768509L263.371674,125.03981L263.36087,125.071365L263.258759,125.342667L263.246368,125.372818L263.125275,125.644119L263.11203,125.671799L262.972107,125.94313L262.95816,125.968552L262.799255,126.240036L262.78479,126.263199L262.607056,126.534683L262.592438,126.555954L262.395538,126.827591L262.382629,126.844498L262.099121,127.205002L262.079285,127.228897L261.779053,127.568832L261.75708,127.592361L261.439606,127.911575L261.415924,127.934067L261.081177,128.232376L261.071411,128.240921L260.795776,128.475113L260.752045,128.50856L260.695221,128.542709L260.37915,128.707718L260.360504,128.716965L260.126831,128.827774L260.095825,128.841354L259.881836,128.926926L259.840881,128.941391L259.646423,129.001663L259.592407,129.015427L259.417816,129.050461L259.344971,129.060043L259.190094,129.069809L259.13501,129.070511L259.093201,129.067184L258.957977,129.051498L258.903778,129.042435L258.838287,129.023636L258.722748,128.982498L258.671875,128.961594L258.623444,128.935471L258.595734,128.917343L258.500061,128.85112L258.456329,128.817673L258.416412,128.779861L258.386108,128.745193L258.337677,128.685074L258.305267,128.64064L258.272675,128.583298L258.238159,128.512924L258.216553,128.462204L258.199829,128.40889L258.179108,128.328201L258.168121,128.274185L258.163605,128.233414L258.156799,128.142624L258.156799,128.111099L258.109741,128.109177L258.054871,128.104141L258.01532,128.09697L257.937775,128.07991L257.884613,128.065445L257.837219,128.047318L257.766144,128.016312L257.716827,127.991745L257.674988,127.965591L257.610535,127.921158L257.566803,127.887711L257.534027,127.857407L257.476013,127.79921L257.439056,127.758255L257.406647,127.713821L257.388367,127.684006L257.345856,127.609268L257.321106,127.560135L257.301422,127.508713L257.285553,127.448257L257.267975,127.361313L257.259766,127.306961L257.257172,127.251877L257.258545,127.214249L257.265686,127.115463L257.272491,127.060745L257.285919,127.003067L257.298279,126.960373L257.223358,126.942764L257.170563,126.927597L257.119507,126.907059L257.081329,126.887527L257.002594,126.843277L256.956055,126.813828L256.912659,126.780014L256.88443,126.753708L256.817017,126.686264L256.78006,126.645493L256.747498,126.601059L256.719604,126.553665L256.691193,126.489731L256.66925,126.43013L256.652863,126.377518L256.641876,126.323685L256.636475,126.268784L256.636475,126.213882L256.639465,126.179581L256.649048,126.096786L256.658081,126.042435L256.672546,125.989456L256.683014,125.960373L256.72467,125.854416L256.757751,125.78508L256.831116,125.655777L256.856567,125.615189L256.961823,125.462723L256.980621,125.437271L257.117584,125.261642L257.131866,125.244034L257.30072,125.045212L257.311523,125.032852L257.512085,124.810684L257.531433,124.790298L258.292358,124.030045L258.181702,123.760483L258.159241,123.693924L258.106262,123.494949L258.0979,123.458359L258.062012,123.272964L258.055206,123.228867L258.036377,123.057053L258.033264,123.003738L258.031525,122.845688L258.032379,122.807877L258.059753,122.340897L258.065826,122.286179L258.077332,122.232346L258.094055,122.180069L258.11618,122.129532L258.135895,122.094681L258.125946,122.083725L258.093536,122.039291L258.065674,121.991898L258.045288,121.948318L257.776428,121.297501L257.492401,120.670578L257.186768,120.053391L256.859711,119.445084L256.516083,118.854752L256.148438,118.270309L255.757767,117.693375L255.683731,117.591629L255.666824,117.736954L255.657761,117.791306L255.643112,117.844284L255.623245,117.895676L255.59816,117.944656L255.568375,117.991013L255.55217,118.011215L255.57045,118.055649L255.586136,118.108261L255.59642,118.16246L255.600784,118.205154L255.616989,118.479752L255.617172,118.483261L255.630936,118.744095L255.631088,118.747055L255.642776,118.994308L255.64296,118.998489L255.652176,119.231979L255.652359,119.235825L255.6595,119.455551L255.6595,119.46077L255.6642,119.666916L255.664383,119.671951L255.667007,119.864151L255.667007,119.870438L255.667343,120.049026L255.667343,120.057053L255.665237,120.221878L255.665085,120.229904L255.660904,120.381149L255.660538,120.391617L255.654099,120.528915L255.653214,120.541641L255.644516,120.665359L255.643295,120.681198L255.632309,120.791153L255.629868,120.811203L255.616623,120.907547L255.612289,120.934036L255.596786,121.016464L255.588943,121.051834L255.571152,121.120651L255.554764,121.173264L255.533005,121.223801L255.506332,121.272079L255.478622,121.312332L255.355453,121.475601L255.309433,121.529099L255.154526,121.686783L255.155045,121.687302L255.193405,121.726852L255.227371,121.770248L255.256821,121.816605L255.281387,121.865921L255.300888,121.917496L255.312912,121.960861L255.407883,122.369492L255.408401,122.371933L255.507553,122.807541L255.508072,122.809616L255.611404,123.272079L255.611771,123.274002L255.719437,123.763626L255.719803,123.765213L255.831833,124.281845L255.832352,124.283768L256.069489,125.398239L256.069824,125.400162L256.194611,125.996078L256.417114,127.042801L256.417633,127.045578L256.611237,127.980057L256.611908,127.983536L256.776581,128.805832L256.777466,128.80983L256.871033,129.295792L256.871735,129.29982L256.952393,129.73613L256.953278,129.740646L257.02124,130.126968L257.022095,130.131851L257.051208,130.306442L257.052429,130.313919L258.315887,138.61348L258.321289,138.668381L258.321289,138.723434L258.315704,138.778152L258.305939,138.825363L258.32251,138.824326L258.377563,138.826584L258.432098,138.834274L258.481415,138.846298L259.126465,139.03569L259.131012,139.037094L259.505463,139.150528L259.51001,139.151901L259.839661,139.254898L259.845947,139.256821L260.131012,139.349686L260.138336,139.35231L260.378967,139.434555L260.390808,139.438736L260.586487,139.510696L260.599579,139.515579L260.680756,139.547806L260.691223,139.55217L260.761078,139.581619L260.776611,139.588394L260.83551,139.615402L260.85553,139.625168L260.987274,139.692245L261.007141,139.702896L261.120209,139.766495L261.144958,139.781113L261.239746,139.841232L261.27356,139.864578L261.349701,139.921402L261.393097,139.957443L261.450775,140.010605L261.489258,140.04982L261.508972,140.073318L261.54834,140.123154L261.580231,140.167953L261.618042,140.238174L261.638763,140.284531L261.65863,140.335922L261.673279,140.389053L261.682495,140.443253L261.685303,140.475662L261.687744,140.518356L261.68808,140.57341L261.682861,140.628128L261.672241,140.682144L261.649414,140.752029L261.633026,140.792801L261.610016,140.842819L261.58197,140.890213L261.549377,140.934647L261.512268,140.975418L261.464539,141.017563L261.415558,141.056076L261.370789,141.087967L261.302643,141.124557L261.220917,141.161331L261.156281,141.185562L261.041992,141.220413L260.983948,141.234695L260.843506,141.261185L260.413635,141.359634L260.392212,141.364151L259.950684,141.446762L259.929413,141.450241L259.486481,141.51506L259.464508,141.517838L259.020355,141.564529L258.998596,141.566452L258.553192,141.5952L258.531067,141.596085L258.08432,141.606705L258.062714,141.606888L257.614716,141.599747L257.592926,141.598862L257.143707,141.573593L257.117065,141.571518L256.808655,141.538925L256.793671,141.537186L256.473389,141.494308L256.459625,141.492233L256.127167,141.439072L256.114258,141.436813L255.769974,141.373215L255.758133,141.370956L255.401627,141.29689L255.391159,141.294632L255.022812,141.210464L255.012344,141.208023L254.631973,141.113235L254.623093,141.110794L254.507217,141.079788L254.335739,141.270584L254.29689,141.309616L254.254379,141.344467L254.208359,141.374954L254.159744,141.400558L254.108688,141.421127L254.05574,141.436478L254.001724,141.446396L253.923141,141.450943L253.696609,141.447617L253.678848,141.447098L253.473404,141.437332L253.452133,141.435776L253.267776,141.419754L253.240067,141.416763L253.076797,141.394119L253.042648,141.388199L252.900284,141.359116L252.856216,141.348129L252.73494,141.312576L252.677963,141.292374L252.577591,141.250381L252.527939,141.226669L252.503525,141.21257L252.424423,141.164108L252.393936,141.144089L252.319199,141.09111L252.256973,141.039536L252.190933,140.97612L252.13884,140.918442L252.081345,140.844711L252.039688,140.782852L251.990891,140.698715L251.961105,140.639297L251.920853,140.544846L251.90065,140.489273L251.868942,140.384537L251.856216,140.334183L251.833023,140.219009L251.825882,140.173874L251.811417,140.048233L251.807938,139.993362L251.810043,139.938278L251.817703,139.883743L251.830765,139.830246L251.84053,139.802719L251.802383,139.76561L251.766983,139.723434L251.73616,139.677963L251.709854,139.629532L251.688766,139.578659L251.6689,139.508255L251.552841,138.960251L251.438889,138.430893L251.326675,137.918259L251.216904,137.424942L251.216721,137.424942L251.107651,136.944382L251.000656,136.482986L250.895584,136.038284L250.792252,135.611038L250.690842,135.200516L250.591171,134.807571L250.494125,134.43486L250.397079,134.07225L250.302811,133.730576L250.210281,133.406296L250.210434,133.406296L250.119827,133.098557L250.03392,132.817337L249.91301,132.443405L249.785294,132.062668L249.648849,131.669052L249.503708,131.262863L249.349838,130.843643L249.187454,130.41185L249.017715,129.970657L248.838608,129.515182L248.314651,128.264786L247.911789,128.963852L247.472855,129.778305L247.059006,130.567123L246.670975,131.329086L246.302444,132.076279L245.952896,132.80983L245.629135,133.515884L245.331528,134.192673L245.049088,134.865433L244.932327,135.16008L244.796768,135.514328L244.650742,135.907272L244.491653,136.345322L244.320206,136.827621L244.03862,137.634933L243.636978,138.807938L243.635941,138.810745L243.391464,139.51207L243.389908,139.516617L243.191605,140.070206L243.189499,140.075943L243.083054,140.362747L243.080246,140.370071L242.994522,140.591202L242.991043,140.599899L242.956009,140.685806L242.951126,140.697311L242.921005,140.766647L242.915421,140.779373L242.890671,140.832535L242.876572,140.860764L242.856888,140.897354L242.818375,140.958694L242.803726,140.978897L242.769241,141.021774L242.730545,141.060959L242.688187,141.095993L242.64238,141.126663L242.594101,141.152267L242.488174,141.20192L242.435898,141.22319L242.399124,141.236069L242.417252,141.286972L242.430313,141.340469L242.436234,141.377731L242.466904,141.63179L242.470749,141.705338L242.46727,141.932022L242.463608,141.986923L242.45784,142.024887L242.420029,142.224411L242.406967,142.277908L242.386765,142.334549L242.314255,142.506332L242.290207,142.556015L242.271042,142.588242L242.189163,142.716141L242.159897,142.757614L242.058823,142.88707L242.031113,142.919846L241.910721,143.051224L241.884933,143.07753L241.745163,143.210648L241.721481,143.231918L241.562393,143.366592L241.541306,143.383499L241.362869,143.519943L241.34407,143.53389L241.146286,143.672043L241.129044,143.683395L240.911942,143.823135L240.896774,143.832718L240.625473,143.994949L240.596024,144.011307L240.33168,144.147934L240.296829,144.164291L240.039108,144.275131L239.998886,144.290634L239.748123,144.375656L239.70195,144.389084L239.458176,144.448318L239.406082,144.458267L239.16893,144.491898L239.111069,144.496933L238.880905,144.504776L238.818863,144.503403L238.595474,144.485428L238.54216,144.47847L238.248734,144.425339L238.193161,144.412247L237.930557,144.335587L237.866959,144.312576L237.635208,144.212234L237.565872,144.176163L237.364944,144.052261L237.319656,144.020889L237.293869,143.999985L237.123978,143.852585L237.084427,143.81459L237.05864,143.785141L236.919571,143.614212L236.887009,143.569778L236.86644,143.535629L236.758041,143.341171L236.733658,143.291855L236.720413,143.258224L236.643051,143.040054L236.627365,142.987259L236.618668,142.943893L236.56395,142.600449L236.558029,142.545731L236.557663,142.490677L236.566544,142.413651L236.621262,142.124924L236.634323,142.071426L236.653671,142.017044L237.053909,141.056442L237.018723,141.033951L236.994156,141.015305L236.951126,140.98082L236.909988,140.944229L236.857712,140.884964L236.831589,140.850479L236.800552,140.805008L236.774429,140.756546L236.753159,140.705673L236.736435,140.649918L236.725998,140.606705L236.714676,140.543442L236.706985,140.479324L236.704025,140.444656L236.699326,140.359451L236.698471,140.338364L236.696701,140.232071L236.696701,140.218643L236.697769,140.091446L236.697922,140.081863L236.701767,139.933578L236.70195,139.9254L236.708908,139.756027L236.709274,139.750443L236.719009,139.560013L236.719193,139.555649L236.731735,139.344284L236.732101,139.33992L236.747757,139.107468L236.748123,139.103287L236.787857,138.575333L236.788193,138.570633L236.839584,137.958328L236.839951,137.954849L236.902847,137.258377L236.903366,137.252274L236.984238,136.456833L236.984756,136.45195L237.068893,135.693802L237.069595,135.688217L237.157089,134.967728L237.157761,134.961441L237.248734,134.278061L237.249771,134.271072L237.344223,133.62532L237.345261,133.617661L237.443192,133.009018L237.444748,133.000473L237.546005,132.429276L237.547745,132.41954L237.652451,131.885635L237.654556,131.876053L237.701584,131.657364L237.702652,131.652328L237.811203,131.169662L237.812424,131.164078L237.940506,130.621475L237.941544,130.617477L238.088791,130.014572L238.089645,130.01091L238.256241,129.347916L238.256912,129.345108L238.442856,128.621994L238.443558,128.619553L238.648636,127.836472L238.649155,127.834579L238.873398,126.991226L238.873764,126.989822L238.993118,126.545486L238.994675,126.539749L240.369675,121.635208L240.3871,121.583115L240.409927,121.532913L240.437454,121.485367L240.469864,121.44075L240.506454,121.399796L240.547226,121.362686L240.557846,121.354843L240.516556,121.320328L240.47612,121.282883L240.439529,121.241592L240.407486,121.196976L240.380112,121.149216L240.357651,121.098862L240.340408,121.046585L240.328537,120.992935L240.322281,120.938217L240.322983,120.856857L240.529617,118.411118L240.536942,118.356583L240.54985,118.303085L240.56813,118.251144L240.591476,118.201309L240.619888,118.154099L240.652817,118.110001L240.689926,118.069412L240.731064,118.032822L240.766617,118.007034L240.665543,117.149918L240.525803,117.262833L240.057602,117.663071L239.61467,118.065231L239.209,118.457809L238.832993,118.848312L238.487808,119.23494L238.173111,119.617783L237.59758,120.381149L237.192276,120.967667L236.808762,121.57283L236.438492,122.209L236.085098,122.870956L235.85405,123.340378L235.643051,123.795517L235.458694,124.224167L235.362869,124.467941L235.40416,124.490067L235.449814,124.521072L235.491959,124.55629L235.530472,124.595657L235.577164,124.657181L236.087204,125.435532L236.224319,125.558731L236.43483,125.725998L236.68364,125.904434L236.972885,126.094193L237.203262,126.242813L237.248032,126.274887L237.289322,126.311478L237.334457,126.361649L237.443893,126.499496L237.475937,126.544266L237.503311,126.592178L237.532059,126.659958L237.554703,126.725479L237.570053,126.778458L237.581894,126.849014L237.587814,126.908096L237.590439,126.962997L237.587631,127.018051L237.579269,127.071701L237.568466,127.124344L237.554703,127.177658L237.535721,127.229233L237.50209,127.294754L237.47438,127.340927L237.44371,127.386581L237.408676,127.428909L237.370529,127.466568L237.326096,127.506271L237.283218,127.540787L237.222061,127.579483L237.160721,127.612564L237.110916,127.636093L237.079178,127.6483L237.001114,127.675125L236.9384,127.692551L236.84343,127.712936L236.789078,127.721664L236.734177,127.72496L236.666916,127.721481L235.719528,127.612045L235.665176,127.602829L235.612198,127.588364L235.556107,127.566391L234.846725,127.242477L234.977249,129.124344L235.025497,129.553513L235.026047,129.559799L235.044327,129.741348L235.045212,129.749191L235.05983,129.919083L235.060532,129.928665L235.071335,130.086899L235.071854,130.097519L235.078995,130.244064L235.079544,130.257126L235.08284,130.391983L235.083023,130.406967L235.082657,130.529984L235.082321,130.547928L235.078323,130.65947L235.07692,130.683517L235.068893,130.78334L235.066116,130.810196L235.054611,130.898178L235.048508,130.934586L235.033188,131.011093L235.021317,131.058823L235.002151,131.123489L234.979874,131.184982L234.956863,131.238144L234.93248,131.28746L234.914688,131.317062L234.888046,131.358353L234.855972,131.402969L234.811203,131.452286L234.780869,131.481918L234.739578,131.518509L234.694962,131.550552L234.654709,131.573898L234.620377,131.592026L234.570541,131.615219L234.518448,131.633316L234.477341,131.6436L234.4254,131.654404L234.371048,131.662766L234.298569,131.665573L234.24559,131.663986L234.190689,131.65947L234.123795,131.646408L234.069931,131.632278L234.017319,131.615738L233.972702,131.596573L233.917831,131.570236L233.86937,131.544113L233.84169,131.525986L233.785751,131.486954L233.732773,131.444778L233.67598,131.39357L233.637283,131.355057L233.579422,131.291275L233.551193,131.257462L233.492477,131.181168L233.472794,131.153976L233.41304,131.065445L233.397171,131.040543L233.336533,130.939316L233.325394,130.919601L233.263687,130.806168L233.254654,130.788742L233.19191,130.662766L233.184586,130.647263L233.120987,130.508743L233.11525,130.496017L233.050583,130.345108L233.045883,130.333969L232.980362,130.171036L232.949875,130.180618L232.896042,130.191788L232.841141,130.197372L232.765884,130.195969L232.614975,130.182724L232.56044,130.175217L232.506943,130.162155L232.453812,130.143173L232.360764,130.104477L232.302902,130.076248L232.212479,130.025375L232.161423,129.992783L232.073776,129.929703L232.031418,129.89592L231.946396,129.820816L231.911026,129.786667L231.828598,129.699356L231.799667,129.666092L231.720047,129.566757L231.696884,129.535751L231.619858,129.42421L231.601028,129.394943L231.52681,129.271225L231.512009,129.245102L231.440384,129.10936L231.428543,129.085495L231.359543,128.937546L231.34993,128.915756L231.288101,128.766434L231.281296,128.767319L231.226242,128.769394L231.180069,128.7668L231.060867,128.754929L231.006516,128.74675L230.948654,128.731583L230.838364,128.696213L230.786789,128.676712L230.729965,128.647964L230.628922,128.588882L230.582901,128.558731L230.540054,128.52388L230.447861,128.441116L230.408829,128.402451L230.382339,128.371078L230.299423,128.264786L230.255844,128.199783L230.181778,128.069962L230.15358,128.012985L230.088394,127.859482L230.070633,127.811234L230.014511,127.634171L230.004929,127.600204L229.909256,127.212692L229.902481,127.181656L229.828232,126.782303L229.823532,126.751968L229.77092,126.340561L229.76796,126.311478L229.736771,125.888229L229.73555,125.860703L229.725601,125.42543L229.725601,125.398941L229.737289,124.951645L229.73851,124.926376L229.771774,124.467056L229.774063,124.443893L229.828598,123.972733L229.830856,123.954971L229.881393,123.616562L229.890976,123.56813L229.974258,123.226425L229.986984,123.182358L230.102859,122.836807L230.118027,122.796921L230.266464,122.447708L230.290512,122.398239L230.319443,122.351364L230.353073,122.307632L230.390701,122.267715L230.432358,122.231644L230.477493,122.200119L230.525589,122.173111L230.575943,122.151138L230.628403,122.134598L230.682419,122.123276L230.690598,122.122391L230.68309,122.088608L230.666885,121.989273L230.660812,121.934555L230.660263,121.876175L230.66655,121.742355L230.673508,121.6772L230.70192,121.509048L230.710464,121.468613L230.788162,121.155685L230.790451,121.146805L230.8983,120.741501L230.900558,120.733292L231.017319,120.320694L231.019577,120.313004L231.145218,119.892899L231.147476,119.885239L231.28215,119.457809L231.284592,119.450485L231.42836,119.015762L231.430618,119.00914L231.583267,118.566879L231.585526,118.56044L231.747055,118.110886L231.749313,118.104446L231.919907,117.64772L231.922867,117.64006L232.213699,116.895676L232.218033,116.885056L232.520523,116.156693L232.52507,116.145889L232.839066,115.433578L232.844101,115.422592L233.169785,114.725967L233.175186,114.714798L233.512527,114.034195L233.518112,114.023056L233.866959,113.358109L233.873032,113.346786L234.233383,112.697739L234.240005,112.686234L234.612015,112.053024L234.620224,112.039413L235.00148,111.431808L235.011581,111.416306L235.427139,110.801559L235.437271,110.787277L235.887344,110.16539L235.896927,110.152328L236.381332,109.523453L236.388992,109.51387L236.732437,109.088364L236.753708,109.063614L238.305893,107.359665L238.333755,107.3311L238.711716,106.973007L238.725296,106.960648L239.123978,106.607803L239.137222,106.596451L239.55629,106.248856L239.569168,106.238571L240.008804,105.895828L240.021713,105.886063L240.481888,105.548721L240.494095,105.539993L240.974838,105.207535L240.987015,105.199356L241.48851,104.872299L241.499832,104.864975L242.021713,104.542801L242.069962,104.516312L242.120682,104.494858L242.173294,104.4785L242.22731,104.467697L242.282028,104.462296L242.291794,104.462296L242.303818,104.443466L242.337967,104.400253L242.376297,104.360703L242.418472,104.32515L242.482925,104.282974L243.046616,103.969528L243.059006,103.962906L243.62233,103.668411L243.635239,103.661972L244.19841,103.386307L244.211472,103.380051L244.77446,103.122849L244.825699,103.102463L244.878647,103.087479L244.932846,103.077896L244.987747,103.073898L245.042801,103.075272L245.097336,103.082413L245.151016,103.094955L245.202927,103.112747L245.235001,103.127548L245.267746,103.08992L245.283096,103.075455L244.900253,102.723129L244.876389,102.699783L244.479111,102.286636L244.457504,102.262772L244.076614,101.816513L244.057449,101.792648L243.692917,101.313278L243.67601,101.28978L243.508743,101.043564L243.280807,101.045639L243.208328,101.041458L242.946091,101.008713L242.865402,100.992325L242.622849,100.923691L242.570755,100.906082L242.54097,100.893173L242.3181,100.789169L242.269485,100.763382L242.2397,100.74437L242.036697,100.60463L241.992966,100.571182L241.96907,100.549576L241.785782,100.3741L241.731766,100.314163L241.568314,100.103134L241.52858,100.044083L241.384842,99.797531L241.359573,99.748917L241.298233,99.614212L241.284653,99.581284L241.234634,99.44902L241.221725,99.41069L241.183243,99.28035L241.172775,99.239059L241.145584,99.110825L241.137924,99.065323L241.122238,98.939346L241.118423,98.891953L241.113876,98.768051L241.114395,98.716324L241.121536,98.594681L241.126938,98.544327L241.145248,98.424789L241.155685,98.373215L241.185501,98.255783L241.200302,98.206985L241.24144,98.091629L241.260605,98.044754L241.313217,97.931686L241.334824,97.890213L241.398605,97.779221L241.423355,97.740189L241.498795,97.631454L241.523361,97.598526L241.525803,97.595566L241.498428,97.558975L241.463608,97.498489L241.462387,97.496231L241.459396,97.494858L241.411667,97.467667L241.366714,97.435776L241.325241,97.399521L241.287766,97.359268L241.254501,97.315353L241.225754,97.268326L241.202042,97.218674L241.183395,97.166916L241.17485,97.135361L241.106033,96.847702L241.095932,96.793686L241.091232,96.738785L241.09227,96.683731L241.098892,96.629013L241.10762,96.590164L241.099075,96.575699L241.075882,96.525681L241.057938,96.47377L241.045212,96.42009L241.036514,96.339249L241.035477,96.307693L240.990158,96.284164L240.943985,96.254044L240.901291,96.219528L240.862106,96.180679L240.827072,96.138168L240.796585,96.092331L240.760849,96.020706L240.607864,95.647659L240.598282,95.622543L240.455582,95.218826L240.448074,95.196182L240.315659,94.761765L240.309891,94.741226L240.187759,94.275803L240.181473,94.24913L240.082504,93.775711L240.077469,93.74852L240.006699,93.29689L240.002884,93.26622L239.960373,92.836685L239.958084,92.802017L239.943985,92.394272L239.943985,92.355606L239.958084,91.969803L239.961411,91.92659L240.003922,91.56279L240.011581,91.515732L240.082352,91.173691L240.09523,91.123154L240.194199,90.802872L240.204147,90.773605L240.331497,90.4319L240.34285,90.404221L240.490585,90.065811L240.502975,90.039169L240.67128,89.704269L240.684708,89.679337L240.873581,89.347916L240.886124,89.326828L241.016647,89.12001L241.030228,89.099625L241.160934,88.911789L241.176773,88.890335L241.307297,88.721146L241.327347,88.696579L241.45784,88.546371L241.482224,88.520065L241.612747,88.388504L241.643753,88.359604L241.774277,88.247025L241.812424,88.216873L241.942947,88.123306L241.989456,88.093521L242.016464,88.078018L242.688889,87.132034L242.690994,87.129074L242.848495,86.910568L242.872543,86.879715L243.035477,86.684891L243.064926,86.652328L243.233261,86.481216L243.269302,86.447739L243.443375,86.300156L243.486252,86.26741L243.665909,86.143509L243.715744,86.112839L243.901138,86.012497L243.957413,85.98616L244.148392,85.9095L244.20903,85.889114L244.391983,85.839645L245.544968,85.469193L245.589767,85.448257L245.648666,85.413589L245.707199,85.371414L245.787003,85.302963L246.138657,84.992081L246.16478,84.970322L246.293716,84.869949L246.314804,84.854263L246.440598,84.765732L246.466934,84.748489L246.589951,84.672165L246.619034,84.655289L246.738937,84.590805L246.773941,84.573563L246.890854,84.521103L246.931625,84.504715L247.045609,84.46431L247.093338,84.449844L247.20433,84.421616L247.256607,84.410965L247.364456,84.394608L247.446182,84.388504L247.529312,84.388504L247.584366,84.391281zM250.941055,105.517349L250.943497,105.540695L250.943497,105.547318L251.0233,105.502701L251.045792,105.487717L250.941055,105.517349zM247.70163,88.718658L247.633606,88.743607L247.540253,88.794403L247.425568,88.875L247.335083,88.951279L247.399536,88.925797L247.447449,88.910172L247.672729,88.851837L247.72171,88.842331L247.954712,88.811462L247.983612,88.809662L247.827271,88.724762L247.731598,88.713638L247.70163,88.718658zM254.86528,91.239349C255.168198,91.679047,255.460999,92.168388,255.744675,92.709404C255.955399,92.269707,256.069885,91.94854,256.088135,91.746925C256.116486,91.463249,256.093201,91.216049,256.020233,91.005318C255.937164,90.794586,255.831802,90.694283,255.704147,90.7034C255.611954,90.721642,255.539001,90.763176,255.484299,90.827003C255.300919,91.028618,255.094238,91.16539,254.86528,91.239349zM258.575348,122.839951C258.566254,123.041565,258.602722,123.279648,258.684784,123.554214L258.932983,124.159042L257.915802,125.175217C257.338318,125.798294,257.10025,126.174164,257.201569,126.301819C257.366699,126.512558,257.65036,126.476082,258.053589,126.192398C258.446686,125.853004,258.680725,125.669632,258.753662,125.642273L258.809387,125.656456L258.836761,125.656456C258.845856,125.720284,258.639191,125.994843,258.217712,126.480133C257.83374,126.91983,257.714203,127.231873,257.861115,127.415253C258.006989,127.588501,258.222778,127.616867,258.50647,127.497314C258.662506,127.433487,258.882355,127.300766,259.166016,127.099152L259.138672,127.0718C258.964417,126.888428,258.923889,126.590561,259.015076,126.178223L259.427399,125.038452L259.852936,123.95237C259.449707,123.677811,259.307861,123.150986,259.427399,122.372894C259.143738,122.409363,258.868164,122.409363,258.602722,122.372894L258.575348,122.839951zM258.328156,139.368195L257.187378,139.738998C256.418396,139.949722,255.73555,140.073334,255.140839,140.109802L252.351685,139.986206C252.379044,140.334717,252.497589,140.5728,252.708313,140.700455C252.891693,140.838242,253.298965,140.907135,253.931168,140.907135L254.288803,140.508972L254.316162,140.467438L254.370865,140.480606C255.43364,140.774414,256.367737,140.957794,257.174194,141.030731C258.373749,141.121918,259.56012,141.021622,260.73233,140.728821L260.88327,140.700455C261.057526,140.654861,261.144653,140.605225,261.144653,140.5495C261.162903,140.440079,260.984589,140.293182,260.608704,140.109802C260.325043,139.973022,259.564178,139.72583,258.328156,139.368195zM237.101013,142.514984L237.155731,142.858429C237.320862,143.471375,237.815277,143.833054,238.638947,143.943481C239.225555,144.025543,239.885101,143.833054,240.617599,143.365997C241.222443,142.99115,241.620605,142.633514,241.813095,142.295135C241.932648,142.084396,241.959991,141.799698,241.896164,141.443085L238.887177,141.552505C238.42923,141.525146,237.989532,141.419769,237.568069,141.236404L237.155731,142.226227L237.101013,142.514984zM260.361511,122.180405L259.907623,122.289818C259.825562,122.702164,259.867096,123.045616,260.031219,123.320175L260.306793,123.595749L260.526642,123.719345L259.936005,125.24411C259.578369,126.114395,259.445648,126.59462,259.536835,126.686813L260.086945,126.604752C260.737396,126.375778,261.226715,125.761826,261.557007,124.762878C261.693787,124.369781,261.813324,123.819649,261.913635,123.114502C261.941986,122.98584,262.033173,122.931129,262.189209,122.949371C262.344208,122.976723,262.436401,123.050682,262.463776,123.16922C262.536713,123.499496,262.413116,124.108391,262.092957,124.99691C261.671509,126.132629,261.06665,126.842834,260.279449,127.126511L259.289612,127.181221L258.795227,127.826584C258.731384,127.891426,258.698975,127.982605,258.698975,128.102158C258.698975,128.229813,258.735443,128.331116,258.809387,128.404068C259.038361,128.614807,259.478058,128.555023,260.127472,128.225769L260.443573,128.060623L260.719147,127.826584C261.177094,127.442612,261.588409,127.002914,261.95517,126.508499C262.50531,125.784111,262.852814,125.06073,262.999725,124.337357C263.201324,123.338409,263.012878,121.987907,262.436401,120.283813C261.931854,121.31012,261.240906,121.942314,260.361511,122.180405zM236.674484,126.549026C236.253021,126.283585,235.918686,126.031311,235.671494,125.793228L235.122375,124.955368L232.978577,124.873306C231.998886,124.58963,231.261322,123.852066,230.766907,122.660629C230.547058,123.128693,230.414337,123.586624,230.368759,124.035446C230.194489,125.307938,230.249207,126.452774,230.532883,127.469963C230.67067,127.973495,230.903687,128.225769,231.233963,128.225769L231.096191,127.222763C230.986771,126.508499,230.999939,126.08197,231.137726,125.945198C231.192429,125.889481,231.311981,126.430489,231.495361,127.566208C231.769913,128.774872,232.158951,129.466843,232.662491,129.641113L232.813446,129.654266L232.869171,129.626923L232.621964,128.115326C232.475052,127.108276,232.502411,126.572327,232.704025,126.508499C232.731384,126.499382,232.827621,126.957321,232.992767,127.882309L233.418274,129.792068C233.775925,130.762634,234.09201,131.202347,234.366577,131.11116C234.559067,131.046326,234.590469,130.483017,234.462814,129.421265L234.435471,129.174042L234.256134,126.590561L234.284515,126.452774C234.30275,126.407188,234.490173,126.471016,234.847809,126.645271L235.781921,127.0718L236.729202,127.181221C237.004776,127.135635,237.101013,127.021149,237.017944,126.837769L236.908524,126.699982L236.674484,126.549026zM250.071136,86.622505L249.548355,86.787643C249.411591,86.805885,249.287979,86.764343,249.177551,86.664047L248.641602,86.031853C248.138077,85.317589,247.767273,84.950836,247.52919,84.932602L247.446106,84.932602C247.16243,84.959953,246.846329,85.115982,246.498825,85.399658L246.14119,85.715752C246.012527,85.835304,245.879807,85.921417,245.743027,85.977142L244.547531,86.361115C244.01564,86.47155,243.54454,86.833237,243.132187,87.447197L242.390579,88.490723C242.042053,88.664978,241.69455,89.040855,241.346039,89.617325C241.080597,90.057022,240.869873,90.505844,240.713837,90.963776C240.411926,91.788467,240.411926,92.846176,240.713837,94.137917C240.869873,94.779236,241.053238,95.337471,241.263977,95.814651C241.373398,95.035553,241.689484,94.357773,242.211258,93.781296L242.788742,93.203812L243.228439,92.833008C242.926529,92.649628,242.660065,92.429779,242.431107,92.173454C242.129196,91.843178,241.98735,91.546326,242.005585,91.279877C242.032944,90.914131,242.138306,90.598038,242.321686,90.332596C242.578003,89.965843,242.948822,89.769295,243.434113,89.740929L243.73703,89.740929C243.92952,89.760178,244.254745,89.851357,244.712677,90.016495L245.563705,90.236351L245.64679,90.222168L246.498825,89.246521C246.99324,88.633575,247.400513,88.317474,247.72168,88.29924L247.954697,88.326591L248.916168,88.848358L249.507828,89.150269L249.946518,89.273872L250.111664,89.233345L250.469299,89.013496L250.825912,88.806816L251.169373,88.710571C251.352737,88.701454,251.572601,88.757172,251.828918,88.87571C252.012299,88.967911,252.33345,89.260704,252.791397,89.755112L253.505646,90.538261C253.908875,90.831055,254.288803,90.963776,254.645416,90.936424C254.893646,90.918182,255.099304,90.821938,255.26445,90.648689C255.575485,90.309296,255.7771,89.874657,255.868271,89.342766C255.951355,88.820999,255.909805,88.367119,255.744675,87.983139C255.598785,87.680214,255.406281,87.423897,255.168198,87.213165C255.222916,87.552559,255.144897,87.818001,254.934174,88.010498C254.686966,88.230347,254.40329,88.353951,254.082123,88.381302C253.624191,88.408661,253.216904,88.243515,252.859268,87.886894C251.980881,87.0075,251.380096,86.535378,251.059952,86.47155L250.729675,86.457367C250.538193,86.466484,250.318329,86.522209,250.071136,86.622505zM254.550186,105.102036L254.316162,105.472839C254.05983,105.784882,253.583664,106.059448,252.887634,106.297531L252.8461,106.310699L252.722504,106.366425L252.626251,106.503197L252.65361,106.695694C252.773163,107.044205,252.946396,107.698692,253.175369,108.660156C253.469177,109.915421,253.674835,111.023788,253.794388,111.985252C253.912933,112.947723,253.981827,114.142212,254.000061,115.571739C254.009171,116.423782,254.005127,117.138046,253.986893,117.714516L253.972702,117.756058L253.972702,118.0448C254.430634,117.961716,254.815628,117.83812,255.126663,117.673996L255.195557,117.083328C255.351578,115.599091,255.539001,114.454254,255.75885,113.647804L256.679779,110.762405L256.885468,110.81813L256.116486,114.609268C255.987823,115.25058,255.877396,115.984085,255.786209,116.807762C256.931061,118.328476,257.85199,119.972786,258.548004,121.7407L259.000885,121.822769L260.292633,121.602921C260.833649,121.447906,261.291565,121.062912,261.666443,120.448959C261.877167,120.091324,262.033173,119.716461,262.133484,119.322357C262.161865,119.202805,262.133484,119.002205,262.051422,118.717514L262.024078,118.593918C261.740387,117.503784,261.373627,116.35894,260.924805,115.159393C260.164978,113.144279,259.285583,111.307465,258.286621,109.649986C257.288696,107.964134,256.116486,106.508263,254.770035,105.28035L254.550186,105.102036zM253.422577,104.209465C253.02948,104.447556,252.671844,104.629913,252.351685,104.758583C252.131836,105.271225,251.783325,105.674454,251.307159,105.967247C250.867462,106.233704,250.349747,106.384659,249.755035,106.421127C248.765198,106.49408,247.8078,106.270172,246.882813,105.747398C245.912231,105.207397,245.285095,104.497192,245.000412,103.617798C244.24968,103.948074,243.498947,104.328003,242.747192,104.758583C243.279099,105.848709,244.505997,106.484955,246.429932,106.668335C246.722733,106.695694,246.951691,106.787888,247.116837,106.942894C247.272858,107.089798,247.382278,107.318771,247.446106,107.629799C247.749039,109.168747,247.954697,110.506081,248.065125,111.6418C248.147202,112.402664,248.19278,113.57486,248.201904,115.159393C248.220139,116.698341,248.201904,117.765167,248.147202,118.360893C248.128952,118.50679,248.056015,118.644569,247.927338,118.773239C247.789566,118.900894,247.643661,118.969788,247.48764,118.978905C246.919281,119.042732,245.848404,119.015381,244.27298,118.896835L241.071487,118.457138L240.864807,120.902847C241.735077,121.671806,242.821167,122.276649,244.121002,122.716347C245.733917,123.256348,247.469406,123.463028,249.328506,123.334358C250.473343,123.252296,251.673904,122.936195,252.928162,122.386063C254.063889,121.882538,254.770035,121.415482,255.044601,120.984909C255.144897,120.654625,255.149963,119.738754,255.05777,118.237289L254.041595,118.539207C253.86734,118.566559,253.729553,118.535156,253.629257,118.442955C253.547195,118.379135,253.50058,118.282883,253.49147,118.154221L253.49147,117.687164L253.518814,115.584915C253.50058,114.192871,253.432709,113.01561,253.313156,112.054146C253.184494,111.074448,252.973755,109.961014,252.680954,108.715874C252.461105,107.771637,252.295975,107.153625,252.186554,106.860832C252.113602,106.668335,252.113602,106.480911,252.186554,106.297531C252.250381,106.114151,252.364868,105.985489,252.529999,105.912537L252.708313,105.843643L252.722504,105.843643L253.436752,105.569092C253.812622,105.376595,254.063889,105.12027,254.192551,104.800125L253.422577,104.209465zM236.812271,109.855652C236.1436,110.698578,235.566116,111.52327,235.080826,112.328705C234.073776,113.996323,233.189316,115.832115,232.429459,117.83812C231.962402,119.066032,231.591614,120.215942,231.31604,121.286819L231.288681,121.397247C231.206619,121.690048,231.183319,121.891663,231.219788,122.001076C231.321091,122.404305,231.477127,122.780174,231.686844,123.128693C232.053589,123.741638,232.507477,124.126633,233.04747,124.282654C233.881287,124.520737,234.462814,124.570381,234.792084,124.433609C234.993698,123.892593,235.264206,123.288765,235.6026,122.620102C236.070663,121.704224,236.587357,120.852188,237.155731,120.063965L237.746384,119.280815C238.580185,118.219055,239.743256,117.128922,241.236618,116.011444L243.242615,114.637634L243.33786,115.173576L242.69249,115.640633L241.180893,116.876656L241.31868,118.0448L244.313507,118.415604L245.852448,118.497665C246.595078,118.535156,247.120895,118.535156,247.432938,118.497665L247.583893,118.415604L247.665955,118.319351C247.711548,117.723633,247.730804,116.67099,247.72168,115.159393C247.702423,113.593094,247.656845,112.434067,247.583893,111.683334C247.427872,110.199097,247.222198,108.885071,246.965881,107.740234C246.919281,107.53862,246.855453,107.391708,246.773392,107.300529C246.690308,107.217453,246.557587,107.167809,246.375229,107.149574C245.797745,107.102966,245.211136,106.975311,244.616425,106.764587C243.535416,106.370476,242.765442,105.784882,242.307495,105.005783C240.888107,105.857834,239.688553,106.764587,238.70784,107.726044L237.155731,109.430138L236.812271,109.855652zM243.586075,93.409477L243.695496,93.382126C243.786682,93.373001,243.846451,93.405426,243.87381,93.478371C243.901154,93.551315,243.878876,93.611092,243.805923,93.656685L243.462479,93.95961L242.802917,94.659683C242.527344,94.962608,242.271027,95.342537,242.032944,95.800468L241.634781,96.721405L241.703674,97.00914L241.731033,96.995964C241.996475,96.263474,242.33992,95.667747,242.761383,95.209816C243.063293,94.861298,243.352036,94.619156,243.626602,94.481369L243.682327,94.468201C243.773499,94.459084,243.824158,94.504669,243.833282,94.604973C243.842392,94.715408,243.786682,94.811653,243.668137,94.893715C243.402695,95.067978,243.186905,95.255402,243.022766,95.457016C242.738083,95.768051,242.36322,96.331352,241.896164,97.146919L241.950882,97.257355L242.183899,97.297882C242.321686,97.36171,242.33992,97.472137,242.239624,97.628159C241.625671,98.168159,241.496994,98.800354,241.85463,99.523727C242.211258,100.228867,242.779617,100.554085,243.557709,100.499374L243.777557,100.472023C244.684311,101.882301,245.76532,102.94001,247.020599,103.646164C247.148254,103.709991,247.208023,103.769768,247.198898,103.824478C247.198898,103.870064,247.13913,103.897423,247.020599,103.90654C246.62648,103.924774,246.173615,103.778885,245.659958,103.466843C245.77951,104.144623,246.288101,104.726166,247.18573,105.212463C248.018524,105.670403,248.819916,105.876068,249.58989,105.830475C249.946518,105.803123,250.217026,105.715988,250.400406,105.569092L250.331512,105.569092L249.424759,105.445488C249.003296,105.345184,248.801682,105.258057,248.819916,105.184097L248.888809,105.156746L249.191727,105.170929L249.782394,105.170929C250.514893,105.134453,251.348694,104.873062,252.282806,104.387772C253.912933,103.535736,255.07196,102.15686,255.75885,100.252174C256.418396,98.42955,256.496429,96.588684,255.991882,94.728577C255.680847,93.574615,255.131729,92.43383,254.343506,91.307228C253.986893,91.270752,253.615067,91.11068,253.231094,90.827003L252.488464,90.016495C252.039642,89.52108,251.741791,89.237396,251.595901,89.164452L251.307159,89.109749C251.041718,89.127983,250.739807,89.260704,250.400406,89.507904C250.244385,89.589973,250.07518,89.640625,249.891815,89.658859C249.58078,89.677101,249.182617,89.571732,248.69632,89.342766C248.48558,89.251587,248.256607,89.210045,248.009415,89.219162C247.378235,89.264755,246.828094,89.604156,246.361038,90.236351C246.205017,90.428841,245.999359,90.53421,245.743027,90.552444L245.014587,90.442017L243.791748,90.263702L243.709671,90.263702C243.205139,90.300179,242.884979,90.588921,242.747192,91.128914C242.601318,91.72464,242.912338,92.200813,243.682327,92.558449L243.805923,92.667862C243.860626,92.759048,243.833282,92.846176,243.722839,92.929253C243.210205,93.267639,242.797852,93.601974,242.486832,93.932251C241.809036,94.664749,241.506119,95.462082,241.580078,96.322235C241.790802,95.653564,242.116028,95.031502,242.554703,94.454018C243.041016,93.849174,243.38446,93.501671,243.586075,93.409477zM243.92952,96.707222C243.956879,96.789284,243.938644,96.854126,243.87381,96.899719L243.695496,97.064857L243.517181,97.394127C243.517181,97.495438,243.466522,97.545082,243.366226,97.545082C243.246674,97.563316,243.186905,97.495438,243.186905,97.339417C243.205139,97.183395,243.269974,97.041557,243.379395,96.912888L243.682327,96.62516L243.764389,96.597801C243.837326,96.597801,243.892044,96.634277,243.92952,96.707222zM243.722839,95.553268C243.796814,95.544144,243.851517,95.58062,243.887985,95.662682C243.915344,95.745758,243.878876,95.82782,243.777557,95.910904L243.269974,96.294876L242.926529,96.721405C242.797852,96.90377,242.710724,96.995964,242.665131,96.995964L242.610428,96.954422C242.583069,96.881485,242.619553,96.748764,242.719849,96.556267L243.03595,96.075027C243.210205,95.864296,243.420929,95.695107,243.668137,95.566437L243.722839,95.553268zM251.114655,101.818474C251.142014,101.680687,251.238266,101.602676,251.403397,101.584442L252.612061,101.653336L252.764038,101.708038L252.667786,101.818474L252.213913,102.093033L251.857285,102.175095L251.389221,102.134567C251.307159,102.12545,251.238266,102.088982,251.183548,102.024139L251.114655,101.818474zM252.914993,91.29406L253.065948,91.321411L254.151016,91.912071C254.234085,91.94854,254.270569,91.985016,254.261444,92.022499L254.137848,92.077209L253.011246,92.104561C252.909927,92.113686,252.831924,92.086327,252.777206,92.022499C252.713379,91.957657,252.690079,91.875595,252.708313,91.775299L252.735672,91.499725C252.735672,91.362953,252.795441,91.29406,252.914993,91.29406zM247.336685,92.475372L246.773392,92.846176L246.388397,93.066025L246.375229,93.066025C246.30127,92.837059,246.443115,92.498672,246.800735,92.04985L247.364044,91.431847L247.501831,91.376122L247.72168,91.499725L247.927338,91.746925C248.065125,91.921188,248.119843,92.035667,248.092484,92.090378L247.845276,92.228165L247.336685,92.475372zM247.423218,91.97554L247.536835,91.920441L247.506683,91.884003L247.423218,91.97554zM248.504837,94.728577C248.523071,94.984901,248.494705,95.209816,248.421753,95.402306C248.339691,95.594803,248.229263,95.695107,248.092484,95.704224L248.078308,95.704224C247.941528,95.713341,247.81691,95.631279,247.707489,95.457016C247.587952,95.291878,247.520065,95.081146,247.501831,94.824821C247.473465,94.568497,247.501831,94.344597,247.583893,94.1521C247.665955,93.968727,247.776382,93.867416,247.913162,93.849174C248.050949,93.840057,248.174545,93.918068,248.284973,94.083206C248.403519,94.257469,248.476456,94.472252,248.504837,94.728577zM253.711319,93.478371C253.849106,93.469254,253.972702,93.551315,254.082123,93.725571C254.201675,93.899834,254.274612,94.114616,254.301971,94.371956C254.321228,94.628273,254.292847,94.85218,254.21991,95.04467C254.137848,95.237167,254.027405,95.337471,253.89064,95.346588L253.87645,95.346588C253.738678,95.35672,253.615067,95.273643,253.505646,95.09938C253.386093,94.935257,253.318222,94.724525,253.298965,94.468201C253.271622,94.201744,253.298965,93.977844,253.38205,93.794464C253.454987,93.601974,253.56543,93.496605,253.711319,93.478371zM250.729675,93.725571L250.743851,93.712402C250.835037,93.712402,250.922165,93.785347,251.005234,93.932251L251.623245,95.003136L252.791397,96.36377C252.919052,96.492439,252.937286,96.634277,252.8461,96.789284L252.295975,97.737579C252.223022,97.848007,252.104492,97.911835,251.939346,97.930069L251.637436,97.875366L251.499649,97.779114C251.47229,97.724411,251.476349,97.664635,251.512817,97.600807L251.980881,96.885536C252.081192,96.721405,252.081192,96.565384,251.980881,96.41848L251.334503,95.360771L250.689148,94.01432C250.615189,93.840057,250.629364,93.743813,250.729675,93.725571zM252.465515,96.624557L252.46875,96.619171L252.46463,96.614151L252.465515,96.624557zM248.779388,97.861183C248.834106,97.861183,248.848282,97.911835,248.819916,98.012138L248.683136,98.451836C248.655792,98.525795,248.674026,98.59874,248.737854,98.671684C248.801682,98.745644,248.875641,98.791237,248.957703,98.809471C250.240326,99.194458,251.192673,99.400124,251.81575,99.427483L252.186554,99.414307L253.601898,99.194458L254.316162,99.001968L254.494461,98.878365C254.550186,98.813522,254.572479,98.745644,254.563354,98.671684L254.536011,98.479187L254.577545,98.342415C254.614014,98.342415,254.650482,98.364708,254.686966,98.411308L255.237091,98.987778C255.355621,99.10733,255.373871,99.25322,255.291809,99.427483L254.770035,100.375771L254.673798,100.472023L254.618073,100.348419L254.618073,100.210632C254.618073,100.07386,254.550186,100.004967,254.412399,100.004967L254.343506,100.018135L253.505646,100.581436C252.83699,100.975548,252.223022,101.191345,251.664795,101.227814L251.650604,101.227814C251.092377,101.26429,250.336578,101.048492,249.383209,100.581436L248.119843,99.86718L248.009415,99.854012C247.872635,99.872246,247.776382,99.931007,247.72168,100.032318L247.762207,100.65033L247.652786,100.746582L247.556534,100.622978L247.213089,99.400124C247.17662,99.216751,247.231323,99.074913,247.378235,98.974609L248.683136,97.915886L248.779388,97.861183zM247.645081,99.285889L247.617432,99.310654L247.618683,99.326813L247.6763,99.531967L247.689606,99.525864L247.683838,99.499298L247.679535,99.461609L247.67453,99.385864L247.674164,99.337219L247.679535,99.28894L247.688507,99.250702L247.645081,99.285889zM248.86145,99.098213L248.532181,99.056679C248.403519,99.056679,248.289032,99.10733,248.188736,99.207634C248.069183,99.308945,248.050949,99.409248,248.133011,99.510559L248.36705,99.688873C249.411591,100.165039,250.125839,100.453781,250.509811,100.554085L251.884644,100.637161C252.241257,100.618927,252.529999,100.568268,252.749847,100.485191L254.398224,99.785118C254.526886,99.766884,254.608948,99.661514,254.645416,99.469025C254.682907,99.322113,254.599838,99.249168,254.398224,99.249168L254.357697,99.262344L253.601898,99.441666L252.076126,99.674683L251.692139,99.688873C250.968765,99.679749,250.024536,99.482193,248.86145,99.098213zM237.444473,137.307465C237.261093,139.277008,237.201324,140.347885,237.265137,140.522141C237.311752,140.614334,237.54071,140.705521,237.952042,140.796692L239.134369,140.989197C239.555832,141.016541,240.100906,141.007431,240.769562,140.961838C241.584122,140.89801,242.116028,140.796692,242.36322,140.659927C242.427048,140.5961,242.710724,139.831177,243.214249,138.365189C243.791748,136.661102,244.235489,135.425079,244.547531,134.65509C245.270905,132.888184,246.232376,130.90448,247.432938,128.705994L249.039764,125.916832L249.163361,125.985725L248.600067,127.538857L249.342697,129.310822C249.837097,130.556976,250.240326,131.669403,250.551361,132.650116C251.027527,134.178925,251.577667,136.42807,252.200729,139.395538L252.31015,139.491791L254.893646,139.615387L256.487305,139.395538C257.009064,139.248642,257.439636,139.015625,257.778015,138.695465L256.514648,130.395889C256.367737,129.49826,256.084076,128.069733,255.662613,126.109329C255.323212,124.479202,255.030411,123.13781,254.783203,122.084152C253.729553,122.780174,252.200729,123.292816,250.194733,123.6231C248.472412,123.915894,246.727798,123.8703,244.959885,123.485313C243.33786,123.13781,241.982285,122.569443,240.893173,121.782242L239.518341,126.686813C238.868927,129.096039,238.424164,130.863953,238.186081,131.990555C237.902405,133.364365,237.655197,135.136337,237.444473,137.307465z"/>
</svg>
