<?xml version="1.0" encoding="UTF-8"?>
<svg xmlns="http://www.w3.org/2000/svg" xmlns:xlink="http://www.w3.org/1999/xlink" width="39.868mm" height="72.719mm" viewBox="-588.419312 185.084671 39.867676 72.719040">
    <path transform="matrix(-1,0,0,1,0,0)" style="stroke:none;fill:#000000;fill-rule:evenodd" d="M570.241455,185.091965L570.307129,185.098892L570.371704,185.112686L570.423706,185.128769L570.525391,185.164932L570.586426,185.190018L570.662964,185.233109L570.779602,185.309189L570.854858,185.366287L570.986145,185.482101L571.030029,185.524765L571.176147,185.680313L571.204224,185.712296L571.365234,185.907761L571.384033,185.931595L571.559814,186.166611L571.573608,186.185837L571.764099,186.460556L571.773926,186.475174L571.970703,186.776047L572.448608,187.462631L572.466553,187.463058L572.533936,187.456345L572.628784,187.437546L572.970215,187.34346L572.996765,187.336777L573.188721,187.292435L573.217529,187.286392L573.398438,187.253128L573.432495,187.24791L573.601807,187.225967L573.641724,187.222L573.800049,187.211319L573.845825,187.209854L573.992798,187.210281L574.045898,187.21257L574.181763,187.224075L574.244263,187.232437L574.368896,187.255234L574.463623,187.279892L574.562744,187.31398L574.636963,187.344925L574.745605,187.398026L574.797485,187.426254L574.915833,187.497971L574.954712,187.523453L575.082886,187.614212L575.111328,187.635513L575.249084,187.744858L575.271057,187.763046L575.418823,187.89122L575.436829,187.907516L575.594055,188.054489L575.608276,188.0681L575.775513,188.234085L575.802246,188.262314L576.732666,189.303085L576.841187,189.422653L576.931274,189.506699L577.025391,189.57988L577.118591,189.639267L577.216248,189.689224L577.315552,189.728317L577.423462,189.759262L577.538818,189.780807L577.62561,189.789993L577.78302,189.789566L577.920776,189.768448L578.052734,189.727493L578.173767,189.66893L578.283936,189.588669L578.327271,189.551041L578.353577,189.521347L578.370117,189.496475L578.383667,189.467178L578.394775,189.43187L578.402954,189.383347L578.406067,189.321457L578.399353,189.208359L578.398926,189.142288L578.405029,189.076645L578.417725,189.011826L578.437012,188.948685L578.462708,188.88765L578.494263,188.829727L578.531494,188.775162L578.574158,188.724777L578.621582,188.678787L578.673462,188.638016L578.729248,188.602463L578.788208,188.573013L578.850098,188.549362L578.913879,188.532242L578.979126,188.521774L579.044983,188.517807L579.111084,188.520523L579.17627,188.529922L579.240479,188.546036L579.302551,188.568405L579.362122,188.596848L579.418579,188.631332L579.471069,188.671249L579.535034,188.732742L579.727417,188.945572L579.771729,189.000351L579.939331,189.231766L579.977051,189.290329L580.120239,189.540359L580.15094,189.600784L580.269714,189.869431L580.298584,189.948044L580.352539,190.130142L580.365479,190.181595L580.404785,190.369339L580.413574,190.421402L580.437988,190.614975L580.442383,190.666L580.451782,190.86525L580.452209,190.912704L580.447021,191.117386L580.444275,191.163162L580.424011,191.373703L580.418579,191.415939L580.383423,191.631912L580.375916,191.670578L580.325928,191.892197L580.315674,191.931503L580.248596,192.161697L580.236267,192.199753L580.157837,192.417801L580.142395,192.457108L580.052856,192.66304L580.033203,192.704025L579.932495,192.897812L579.908813,192.939651L579.796753,193.121109L579.768982,193.162521L579.64563,193.331863L579.613403,193.372421L579.478577,193.529648L579.443054,193.567886L579.296875,193.712997L579.250061,193.75502L579.144653,193.841141L579.08136,193.887161L578.96991,193.957809L578.899048,193.996689L578.781372,194.052322L578.703979,194.083054L578.5802,194.123184L578.545044,194.132187L578.560547,194.160416L578.571838,194.181717L578.842163,194.71904L578.853027,194.741623L579.096436,195.275375L579.106812,195.299637L579.322998,195.829605L579.332886,195.855545L579.522095,196.382187L579.53125,196.409775L579.693298,196.932877L579.70166,196.961929L579.836548,197.481491L579.843628,197.511795L579.951538,198.027786L579.957764,198.062912L580.062744,198.751175L580.067749,198.791946L580.128784,199.478928L580.131104,199.520554L580.148071,200.205887L580.147827,200.24791L580.120605,200.931778L580.117493,200.973373L580.046387,201.655777L580.040771,201.697189L579.925537,202.378128L579.917603,202.418045L579.758545,203.097336L579.748047,203.136002L579.544678,203.814011L579.532532,203.850815L579.28479,204.527359L579.268921,204.566879L578.984985,205.209335L578.965515,205.249496L578.645447,205.857681L578.622437,205.897812L578.265991,206.471939L578.239014,206.511856L577.846191,207.051468L577.816284,207.089737L577.387268,207.595261L577.354004,207.631424L576.888611,208.102676L576.852905,208.136337L576.351074,208.573288L576.299072,208.614059L576.289429,208.620132L576.53717,208.867233L576.595947,208.855545L576.66156,208.849045L576.727661,208.849472L576.793274,208.856369L576.858093,208.869949L576.921021,208.89003L576.981689,208.916153L577.039185,208.948563L577.104187,208.995193L577.705078,209.485062L577.732422,209.508682L578.323059,210.047226L578.347534,210.070663L578.927856,210.657944L578.949463,210.68071L579.52002,211.316513L579.532104,211.330307L580.042664,211.932419L580.059814,211.953537L580.551331,212.584732L580.567017,212.60585L581.039673,213.266098L581.054138,213.287186L581.507813,213.976303L581.520996,213.996994L581.955872,214.715164L581.967773,214.735641L582.383789,215.482651L582.394653,215.502914L582.791748,216.279007L582.801331,216.299057L583.179321,217.104202L583.18811,217.123428L583.532654,217.923752L583.538513,217.937973L583.867798,218.75563L583.873413,218.769852L584.187256,219.604691L584.192261,219.618484L584.490601,220.470444L584.495239,220.484238L584.77832,221.353745L584.782471,221.367142L585.05011,222.253586L585.053833,222.266769L585.306213,223.170792L585.309753,223.183762L585.546631,224.104904L585.550598,224.121445L585.803345,225.222824L585.806763,225.238297L586.02478,226.307053L586.028137,226.32399L586.211304,227.360336L586.214233,227.378342L586.362671,228.382278L586.365356,228.404648L586.380005,228.533859L586.41449,228.749619L586.421387,228.812332L586.433472,229.008255L586.433105,229.096878L586.420959,229.260178L586.412598,229.325821L586.39856,229.387497L586.397766,229.39064L586.440002,229.400681L586.502319,229.422409L586.562317,229.450211L586.618958,229.483871L586.672058,229.523178L586.718262,229.564987L587.308228,230.152695L587.343811,230.191147L587.44165,230.30574L587.461304,230.329575L587.649658,230.572495L587.660767,230.587357L587.824463,230.811264L587.836792,230.828812L587.976074,231.033096L587.991516,231.056931L588.106323,231.242172L588.124878,231.274368L588.214966,231.44014L588.237183,231.484665L588.302856,231.631027L588.328735,231.698776L588.369507,231.825882L588.386475,231.889633L588.393127,231.926041L588.409668,232.033493L588.417175,232.127975L588.419312,232.423813L588.412781,232.520828L588.369934,232.820633L588.350708,232.909897L588.262695,233.213699L588.234619,233.291458L588.101257,233.599228L588.074707,233.653152L587.961792,233.859299L587.938232,233.899429L587.813171,234.09346L587.785156,234.133194L587.648193,234.314438L587.61731,234.352707L587.468201,234.521835L587.421997,234.569107L587.371399,234.611526L587.31665,234.648544L587.258545,234.679703L587.197449,234.705002L587.134155,234.724014L587.069336,234.736557L587.003418,234.742416L586.937378,234.741562L586.871948,234.734055L586.807373,234.720047L586.744629,234.699539L586.737671,234.696426L586.728088,234.713974L586.593872,234.929123L586.55542,234.984299L586.386475,235.201523L586.349243,235.245224L586.145386,235.464554L586.116333,235.49382L585.923828,235.676315L585.875916,235.717514L585.675415,235.873703L585.61853,235.913406L585.409668,236.043045L585.345093,236.078171L585.128052,236.181015L585.067017,236.206314L585.003662,236.225357L584.938843,236.237686L584.873047,236.243546L584.806946,236.242691L584.741333,236.235184L584.67688,236.220963L584.614197,236.200455L584.553772,236.173508L584.539307,236.165146L584.538696,236.16597L584.505493,236.208206L584.345703,236.394913L584.306213,236.436935L584.138306,236.601242L584.091309,236.643265L583.915039,236.785233L583.878479,236.812637L583.786255,236.876816L583.738586,236.906906L583.658936,236.952713L583.578491,236.99202L583.510742,237.019394L583.448242,237.040939L583.370605,237.058487L583.315247,237.06749L583.249573,237.074814L583.183533,237.075211L583.117676,237.069168L583.052856,237.056625L582.989746,237.037369L582.928833,237.011856L582.86615,236.977585L582.781067,236.924698L582.726929,236.88707L582.656006,236.823502L582.581421,236.74614L582.537903,236.696396L582.499268,236.641403L582.434814,236.539383L582.402466,236.481674L582.386963,236.448624L582.332642,236.322159L582.316284,236.280319L582.265869,236.13649L582.246216,236.068344L582.21051,235.914474L582.198975,235.85112L582.177673,235.68721L582.172668,235.629501L582.165527,235.455124L582.165161,235.431717L582.165161,235.412888L582.091919,235.429214L582.026733,235.440292L581.960876,235.444901L581.894775,235.442581L581.829346,235.433823L581.765198,235.41835L581.702881,235.396591L581.683228,235.387589L581.474121,235.327591L581.428833,235.312973L581.212646,235.233505L581.14801,235.20549L580.978882,235.121658L580.921143,235.089462L580.887085,235.066483L580.765015,234.978439L580.713379,234.937057L580.654785,234.878098L580.584778,234.797806L580.536255,234.734879L580.472534,234.640793L580.435486,234.578934L580.378662,234.471054L580.353516,234.41774L580.302979,234.296249L580.284302,234.245651L580.240601,234.110184L580.228516,234.067947L580.191284,233.918869L580.182983,233.881027L580.152405,233.718185L580.146973,233.684311L580.123352,233.507431L580.119141,233.465622L580.112488,233.367783L580.111694,233.29628L580.116028,233.190262L580.121704,233.127335L580.137573,233.012985L580.146729,232.961349L580.17395,232.839035L580.184814,232.797012L580.223083,232.66655L580.234985,232.629562L580.28479,232.490921L580.296265,232.461655L580.357056,232.314896L580.368591,232.288559L580.440918,232.133621L580.471863,232.075302L580.508423,232.020523L580.550476,231.969498L580.554443,231.96553L580.550293,231.957169L580.526489,231.895493L580.515747,231.859116L580.38324,231.357986L580.224548,230.82402L580.040161,230.260361L579.828613,229.662003L579.619507,229.112137L579.394775,228.558945L579.158936,228.015152L578.919739,227.49791L578.669678,226.989456L578.402466,226.478714L578.135315,225.998032L578.026367,225.813217L577.982666,226.385239L577.93689,227.147507L577.904663,227.883011L577.884399,228.635056L577.877563,229.370987L577.882935,230.097488L577.901123,230.82756L577.899475,230.893631L577.891113,230.959061L577.876282,231.023483L577.854736,231.085983L577.827148,231.145981L577.793701,231.202866L577.759827,231.249069L577.792236,231.280624L577.834473,231.331223L577.871704,231.385788L577.903015,231.443924L577.928345,231.504959L577.948608,231.574173L578.866821,235.45784L578.867676,235.461197L579.071777,236.345566L579.072388,236.348282L579.259277,237.174332L579.260132,237.177658L579.429443,237.944748L579.430298,237.948502L579.582275,238.657059L579.58313,238.66185L579.717529,239.31163L579.718628,239.316879L579.835876,239.908127L579.837341,239.915024L579.93689,240.447311L579.937866,240.453384L579.981201,240.697556L579.982239,240.703842L580.083008,241.306381L580.083862,241.310562L580.2948,242.623306L580.295227,242.626236L580.545044,244.229385L580.545471,244.231918L580.939331,246.820816L580.939575,246.822708L581.529968,250.784378L581.536499,250.850021L581.536255,250.916092L581.529175,250.981735L581.516357,251.043839L581.574341,251.045303L581.639771,251.053665L581.693054,251.065567L582.197327,251.200638L582.203857,251.20253L582.661255,251.330063L582.668579,251.331924L583.078979,251.451523L583.088379,251.454453L583.451782,251.566299L583.464294,251.570267L583.78064,251.674606L583.796265,251.680038L584.065796,251.776627L584.087952,251.784988L584.310181,251.873856L584.342407,251.88765L584.517822,251.968979L584.543945,251.981918L584.704285,252.06514L584.724792,252.076218L584.862793,252.15419L584.889954,252.170517L585.005554,252.243484L585.042114,252.268143L585.135193,252.336105L585.183472,252.375198L585.25415,252.437912L585.321289,252.507126L585.369568,252.564835L585.409485,252.617508L585.455322,252.696548L585.480957,252.749008L585.506958,252.809647L585.526733,252.872574L585.539917,252.937393L585.546021,252.99321L585.549194,253.040878L585.550171,253.106949L585.544556,253.172806L585.532227,253.237595L585.513428,253.300949L585.488281,253.362015L585.457153,253.420334L585.420349,253.475113L585.378174,253.525925L585.330872,253.572128L585.279236,253.613297L585.211304,253.656174L584.883301,253.835556L584.823669,253.864395L584.755127,253.88887L584.590942,253.937363L584.547913,253.948441L584.026489,254.064682L584.002014,254.069717L583.477478,254.165665L583.452393,254.169846L582.924683,254.245316L582.899597,254.248459L582.368774,254.303452L582.343506,254.305527L581.809692,254.340042L581.785034,254.34108L581.248352,254.355301L581.223694,254.355515L580.683838,254.349442L580.659424,254.348618L580.116455,254.322067L580.07251,254.318497L579.70874,254.276047L579.693298,254.274185L579.313843,254.220657L579.299622,254.218369L578.90509,254.153763L578.891724,254.151443L578.481567,254.075546L578.469238,254.073257L578.043701,253.986069L578.032471,253.983566L577.591736,253.885086L577.581665,253.882797L577.125488,253.773239L577.115662,253.770737L576.97937,253.735825L576.791199,253.952225L576.745422,253.999893L576.695007,254.042526L576.640442,254.079941L576.58252,254.11174L576.521729,254.137222L576.458557,254.156693L576.393738,254.169632L576.328125,254.175919L576.289001,254.176529L576.022461,254.172562L576.001526,254.171951L575.758423,254.160446L575.73291,254.158768L575.513184,254.139755L575.481201,254.135971L575.285034,254.109207L575.245361,254.102737L575.072876,254.068253L575.022705,254.056107L574.873779,254.013901L574.810425,253.992355L574.685059,253.942398L574.605164,253.903915L574.50354,253.84642L574.447754,253.811081L574.409302,253.781601L574.323975,253.711166L574.262451,253.653244L574.186768,253.572128L574.133301,253.506882L574.067383,253.414902L574.025818,253.348618L573.969604,253.245956L573.937622,253.178635L573.891357,253.065323L573.869629,253.003647L573.833069,252.879684L573.819092,252.822189L573.792297,252.687332L573.783936,252.634659L573.767212,252.489151L573.763062,252.423264L573.765503,252.357224L573.774719,252.291977L573.790405,252.227798L573.796021,252.211899L573.793091,252.209396L573.746948,252.162155L573.705566,252.110733L573.6698,252.055099L573.639648,251.996353L573.615601,251.934891L573.596558,251.864426L573.458374,251.213608L573.32251,250.584702L573.189331,249.978622L573.189087,249.978622L573.05658,249.387375L572.926758,248.818497L572.798828,248.270309L572.672729,247.741562L572.549561,247.237076L572.426392,246.745346L572.306396,246.277237L572.189758,245.834L572.07251,245.401871L571.958313,244.99437L571.846436,244.607193L571.84668,244.607193L571.736938,244.240463L571.629272,243.894669L571.489807,243.454575L571.340515,243.005081L571.182495,242.547623L571.007935,242.061142L570.827026,241.57338L570.631958,241.064072L570.423706,240.534714L570.206299,239.996964L570.206543,239.996964L569.592896,238.53746L569.122925,239.350113L568.601685,240.309525L568.112061,241.235703L567.645996,242.144119L567.20282,243.037064L566.794495,243.88945L566.404541,244.735336L566.049805,245.538162L565.719849,246.320511L564.119019,250.728134L563.824036,251.595993L563.822571,251.600174L563.651733,252.091476L563.650085,252.096085L563.502258,252.511093L563.499756,252.51799L563.374939,252.856461L563.370972,252.866928L563.269165,253.129105L563.264343,253.141647L563.222107,253.244095L563.216064,253.257889L563.179443,253.34111L563.170654,253.360336L563.139954,253.424515L563.121094,253.460678L563.096069,253.50563L563.050476,253.576523L563.03125,253.602432L562.989197,253.653458L562.942139,253.699875L562.890747,253.741257L562.835571,253.77742L562.797729,253.797714L562.671204,253.860641L562.604126,253.889481L562.557495,253.906418L562.574402,253.953659L562.590515,254.017654L562.597839,254.064468L562.634827,254.36763L562.639648,254.456284L562.635681,254.7285L562.631287,254.794357L562.624634,254.838669L562.579468,255.080368L562.563965,255.144547L562.542419,255.206436L562.456665,255.41716L562.428711,255.476974L562.394836,255.534042L562.293213,255.68602L562.259155,255.732437L562.135132,255.88652L562.102783,255.923538L561.956421,256.079712L561.926086,256.110046L561.757202,256.268066L561.72998,256.292114L561.538452,256.452271L561.514404,256.471497L561.300354,256.633972L561.277954,256.650269L561.041504,256.814392L561.021851,256.827576L560.762573,256.993958L560.744019,257.005249L560.420776,257.197815L560.385437,257.217468L560.07019,257.3797L560.028809,257.39917L559.72168,257.530884L559.67334,257.5495L559.374634,257.650452L559.319397,257.666321L559.028564,257.736816L558.965637,257.748901L558.682983,257.788635L558.614197,257.794495L558.339722,257.803711L558.265686,257.802002L557.999146,257.780701L557.943115,257.773804L557.732788,257.738464L557.696167,257.73114L557.498596,257.686218L557.458862,257.675964L557.274292,257.621582L557.232056,257.607605L557.060425,257.544067L557.013977,257.52478L556.855103,257.451599L556.806763,257.426758L556.660889,257.344177L556.611511,257.313416L556.478516,257.22168L556.428162,257.182983L556.308167,257.081604L556.260254,257.037048L556.153015,256.926208L556.108521,256.875L556.014404,256.755005L555.975098,256.699158L555.893799,256.56958L555.860962,256.51062L555.792603,256.371582L555.76709,256.312622L555.711487,256.164185L555.692444,256.104614L555.650024,255.946732L555.637695,255.891342L555.607971,255.724075L555.600708,255.670761L555.584106,255.493881L555.581421,255.425949L555.582642,255.312851L555.590454,255.220444L555.611328,255.085373L555.624268,255.021805L555.664856,254.864792L555.677979,254.82048L555.738037,254.641739L555.749939,254.609116L555.829346,254.408401L555.839844,254.38353L555.938721,254.161057L555.94751,254.142258L556.065674,253.897842L556.073792,253.881546L556.170776,253.694229L556.164917,253.690659L556.110352,253.653458L556.076538,253.625839L556.028625,253.584244L555.980957,253.538467L555.938354,253.488083L555.910278,253.448563L555.883545,253.407578L555.850281,253.35051L555.822876,253.290298L555.798035,253.213974L555.785278,253.164627L555.769592,253.08165L555.760376,253.007431L555.756409,252.964157L555.750732,252.864639L555.749756,252.838486L555.747681,252.713669L555.747681,252.697372L555.748901,252.547684L555.749146,252.535965L555.753662,252.361191L555.753906,252.351791L555.762085,252.151688L555.762451,252.144394L555.77417,251.919418L555.774414,251.9142L555.789429,251.663925L555.790039,251.657028L555.830811,251.081253L555.831299,251.074997L555.88562,250.398849L555.886047,250.394028L555.954224,249.617355L555.954407,249.614822L555.99353,249.18895L555.993896,249.185196L556.086121,248.240829L556.086792,248.23436L556.183594,247.334305L556.184387,247.327408L556.285767,246.471451L556.286621,246.463516L556.392822,245.652115L556.394043,245.643539L556.504883,244.876266L556.506348,244.866837L556.621582,244.143875L556.623413,244.132584L556.743652,243.454178L556.745728,243.442245L556.870361,242.807938L556.872864,242.796432L556.937866,242.494522L556.939087,242.48848L557.010864,242.170059L557.012329,242.163986L557.091125,241.828842L557.092407,241.823837L557.178101,241.472183L557.179138,241.468002L557.271545,241.099625L557.272583,241.094803L557.372131,240.710129L557.373169,240.706772L557.47937,240.305344L557.480408,240.301376L557.59375,239.883438L557.594604,239.880325L557.714783,239.445663L557.715576,239.442734L557.842773,238.991562L557.843567,238.988632L557.977539,238.52095L557.97821,238.518417L558.119141,238.034225L558.119995,238.031723L558.267761,237.530991L558.268433,237.528702L558.42334,237.011246L558.42395,237.009354L558.585571,236.475601L558.586182,236.473312L559.172424,234.560532L559.173462,234.557388L559.418091,233.774002L559.419128,233.770645L559.636597,233.087204L559.638062,233.082382L559.828491,232.4991L559.830566,232.492813L559.993896,232.009445L559.996155,232.002762L560.067627,231.798508L560.069946,231.792007L560.134766,231.612839L560.137695,231.604904L560.195801,231.450607L560.199829,231.440353L560.250977,231.310928L560.257507,231.295059L560.302002,231.19072L560.331055,231.131363L560.365967,231.075119L560.406128,231.022842L560.415344,231.013229L560.414307,231.005295L560.413696,230.919785L560.457764,230.151443L560.490845,229.408829L560.514221,228.671219L560.527588,227.951187L560.530762,227.244949L560.523682,226.552505L560.506714,225.883682L560.479126,225.208389L560.47998,225.142532L560.487305,225.076889L560.501099,225.012283L560.521545,224.949356L560.531372,224.926987L560.520935,224.911301L560.510864,224.892471L560.470337,224.942459L560.131592,225.387772L559.806335,225.843948L559.487915,226.32106L559.180542,226.812363L558.898926,227.284042L558.621094,227.780167L558.36438,228.268143L558.107422,228.789352L557.866821,229.311172L557.636597,229.845139L557.413696,230.399399L557.211975,230.938797L556.511963,233.175858L556.489014,233.237747L556.459961,233.297104L556.425049,233.353348L556.422485,233.356705L556.438416,233.379074L556.47229,233.438644L556.556335,233.605911L556.569092,233.633072L556.639954,233.791977L556.65271,233.822281L556.71106,233.973038L556.724426,234.01088L556.769775,234.153671L556.782104,234.198624L556.814514,234.333267L556.824951,234.385544L556.844604,234.511795L556.851318,234.574112L556.858215,234.692459L556.858398,234.764999L556.852539,234.875381L556.847778,234.926407L556.823975,235.106613L556.818909,235.138596L556.788574,235.304184L556.780273,235.343063L556.743042,235.49382L556.730469,235.538132L556.686584,235.674026L556.668213,235.723801L556.617798,235.845047L556.589966,235.903366L556.532898,236.009598L556.493774,236.073349L556.430298,236.164719L556.375244,236.233505L556.305054,236.310013L556.257996,236.356216L556.209229,236.395523L556.087402,236.484604L556.032227,236.520767L555.999756,236.538528L555.830627,236.625076L555.771057,236.652054L555.554688,236.73674L555.513672,236.751144L555.250488,236.834366L555.186523,236.851089L555.121277,236.86113L555.053711,236.86467L555.021973,236.86467L554.949402,236.860703L554.822083,236.846481L554.821899,236.87471L554.814758,237.049088L554.80957,237.108261L554.787842,237.272171L554.776489,237.334061L554.740723,237.48793L554.721924,237.553574L554.67218,237.697403L554.643311,237.767044L554.581909,237.89476L554.538208,237.972122L554.468506,238.077286L554.429199,238.130386L554.398682,238.165115L554.320923,238.247482L554.273315,238.293045L554.219543,238.334854L554.133423,238.394882L554.077393,238.429794L554.018005,238.459061L553.956116,238.481857L553.892151,238.498581L553.826904,238.508591L553.761047,238.511948L553.694946,238.508591L553.629761,238.498764L553.565796,238.482254L553.503662,238.459488L553.430908,238.422684L553.152466,238.259811L553.09729,238.223648L553.046021,238.182022L553.015747,238.153183L552.449341,237.574905L552.428467,237.587448L552.368652,237.615463L552.306152,237.637192L552.241943,237.652451L552.176514,237.66124L552.110474,237.663528L552.044556,237.658951L551.979553,237.647659L551.915771,237.630081L551.845093,237.601852L551.628113,237.500046L551.567261,237.467422L551.358398,237.340958L551.304077,237.30394L551.103577,237.153L551.056519,237.11412L550.863953,236.938705L550.818359,236.892899L550.614502,236.666489L550.580078,236.624893L550.411133,236.402634L550.374756,236.349319L550.240479,236.130844L550.232361,236.115799L550.204346,236.12709L550.140991,236.145279L550.075989,236.156967L550.010132,236.162216L549.944092,236.160751L549.878418,236.15239L549.814209,236.137527L549.751465,236.116409L549.691528,236.089035L549.634399,236.055588L549.581116,236.016708L549.509644,235.948959L549.366821,235.791946L549.3302,235.748032L549.19519,235.570541L549.165466,235.528305L549.03833,235.330521L549.014282,235.289963L548.895386,235.071701L548.869629,235.0186L548.73645,234.710831L548.708496,234.633286L548.620422,234.329483L548.60144,234.240646L548.55835,233.940842L548.551636,233.843002L548.553955,233.547165L548.560852,233.45726L548.577148,233.346237L548.590088,233.281631L548.600952,233.243393L548.641968,233.114578L548.667725,233.046646L548.733154,232.899887L548.757385,232.851364L548.847656,232.687027L548.867554,232.653397L548.9823,232.471268L548.99884,232.446182L549.138062,232.246323L549.151855,232.22731L549.315552,232.009445L549.327087,231.9944L549.515259,231.75856L549.529663,231.741409L549.627747,231.626846L549.668518,231.583359L550.356323,230.914322L550.405884,230.870651L550.459595,230.832382L550.51709,230.799545L550.577515,230.772781L550.640259,230.752304L550.645264,230.751266L550.62207,230.632523L550.610779,230.539902L550.602661,230.378708L550.602173,230.318893L550.610352,230.120926L550.613525,230.080154L550.637939,229.845352L550.650269,229.769272L550.67688,229.651962L550.735352,229.205399L550.737061,229.19368L550.810425,228.703201L550.812134,228.692551L550.896179,228.187851L550.898071,228.177383L550.993164,227.658279L550.994873,227.649277L551.100464,227.115952L551.102295,227.106949L551.21875,226.559402L551.220642,226.550827L551.347961,225.989059L551.349854,225.981308L551.487793,225.405136L551.489929,225.396133L551.72345,224.478317L551.727051,224.46492L551.976807,223.564041L551.980835,223.550247L552.246948,222.666306L552.251343,222.652298L552.533813,221.785294L552.538818,221.770859L552.837769,220.920761L552.843018,220.90657L553.158325,220.073196L553.16394,220.058365L553.495728,219.241745L553.502014,219.226883L553.850098,218.427414L553.857849,218.410263L554.231689,217.614944L554.241333,217.595505L554.63501,216.825912L554.645386,216.806259L555.058533,216.06218L555.070068,216.042313L555.502625,215.323959L555.515137,215.304092L555.967163,214.611252L555.980713,214.591171L556.452209,213.923813L556.466858,213.903732L556.957764,213.2621L556.973389,213.242447L557.483765,212.626114L557.502808,212.604385L557.896851,212.169296L557.908203,212.156967L558.296875,211.749496L558.309387,211.73674L558.692383,211.356644L558.706787,211.34285L559.084412,210.990341L559.100281,210.975937L559.472229,210.650833L559.490417,210.635574L559.856689,210.338272L559.876953,210.322372L560.237671,210.052475L560.261047,210.035751L560.616272,209.793625L560.676025,209.758499L560.806519,209.667557L560.831787,209.650833L561.128296,209.464127L561.169434,209.440292L561.516724,209.255478L561.550781,209.238541L561.949097,209.055618L561.978394,209.043076L562.428101,208.862442L562.490356,208.840897L562.554749,208.825851L562.620239,208.817276L562.686279,208.815598L562.704834,208.816849L562.731201,208.782791L562.776794,208.734909L562.826782,208.691635L562.888428,208.649185L563.44873,208.308823L563.466309,208.298569L564.032715,207.9785L564.051086,207.96846L564.623535,207.668655L564.641907,207.659439L565.220215,207.379501L565.281006,207.353775L565.344177,207.334335L565.408997,207.321365L565.474609,207.314896L565.54071,207.315323L565.56958,207.318253L565.58374,207.274979L565.610718,207.214737L565.643555,207.157272L565.682007,207.103745L565.725708,207.054184L565.774231,207.009232L565.775269,207.008408L565.357971,206.558884L565.331421,206.528366L564.898438,205.999649L564.874634,205.968887L564.464844,205.402542L564.443909,205.371811L564.057129,204.767593L564.039185,204.737473L563.87207,204.442703L563.847656,204.442062L563.677856,204.432663L563.627686,204.428055L563.464844,204.406296L563.414673,204.397537L563.258301,204.36409L563.204773,204.350266L563.055054,204.304703L563.001709,204.285873L562.858765,204.228378L562.80603,204.204361L562.669739,204.134933L562.618958,204.106308L562.489319,204.024979L562.44165,203.991928L562.318481,203.898483L562.275269,203.862534L562.158813,203.757156L562.11969,203.718887L562.009888,203.601395L561.976685,203.562698L561.873596,203.433517L561.844543,203.394211L561.748169,203.252884L561.724365,203.215225L561.634399,203.061783L561.614746,203.025406L561.531616,202.860245L561.514648,202.823868L561.440186,202.650314L561.424072,202.609573L561.364502,202.440018L561.350525,202.394638L561.305542,202.22905L561.29364,202.176773L561.263794,202.015182L561.255798,201.959366L561.24054,201.801712L561.23761,201.739609L561.237427,201.585953L561.24054,201.521774L561.255188,201.371872L561.264771,201.306625L561.294067,201.160904L561.310791,201.095688L561.354919,200.953934L561.378113,200.890579L561.437256,200.752609L561.465515,200.694901L561.539307,200.560867L561.572327,200.507156L561.661194,200.377304L561.695496,200.331955L561.79895,200.205887L561.823425,200.178482L561.802307,200.156754L561.761353,200.104904L561.726013,200.049088L561.696289,199.990128L561.693176,199.981766L561.655518,199.945572L561.612671,199.895187L561.575256,199.840836L561.543457,199.782944L561.517761,199.722092L561.498291,199.658951L561.488098,199.611496L561.421997,199.236221L561.413879,199.170761L561.412415,199.104721L561.417603,199.038834L561.429565,198.973831L561.442261,198.929092L561.422241,198.883499L561.401978,198.820572L561.387695,198.75618L561.380371,198.690536L561.380005,198.614639L561.38147,198.586838L561.351135,198.568008L561.298706,198.527878L561.25061,198.482498L561.207275,198.432755L561.16925,198.378616L561.136841,198.321121L561.100037,198.230179L560.952454,197.771042L560.942871,197.738235L560.811768,197.242508L560.804626,197.213242L560.689819,196.680954L560.684814,196.654831L560.586365,196.086136L560.582153,196.058975L560.508179,195.489883L560.504639,195.45665L560.462158,194.916397L560.46051,194.878983L560.449829,194.366959L560.450256,194.32515L560.471191,193.841782L560.474915,193.794937L560.527588,193.340225L560.535522,193.288376L560.619995,192.862076L560.633789,192.806259L560.749878,192.408401L560.770569,192.34819L560.918579,191.979172L560.936523,191.938614L561.127014,191.543686L561.142456,191.513565L561.353271,191.128891L561.370178,191.099625L561.601196,190.725388L561.619812,190.697159L561.871338,190.333359L561.885986,190.312881L562.061157,190.079361L562.078491,190.057175L562.251587,189.846024L562.272949,189.821365L562.444153,189.632553L562.469666,189.606216L562.638611,189.439804L562.670593,189.41011L562.837646,189.266281L562.876953,189.234909L563.04187,189.113663L563.089783,189.08168L563.252625,188.982773L563.311584,188.951004L563.392944,188.912308L563.45105,188.849167L563.557495,188.726456L563.682251,188.577194L563.844727,188.378159L564.028931,188.148788L564.239258,187.883499L564.253662,187.865921L564.456909,187.627151L564.489929,187.591202L564.698364,187.380447L564.737915,187.343674L564.951294,187.160934L564.998596,187.12413L565.217041,186.969437L565.272705,186.934097L565.496338,186.807388L565.559509,186.776047L565.788208,186.677353L565.857239,186.652054L566.090942,186.581192L566.165833,186.563217L566.405029,186.520554L566.422974,186.517624L566.714844,186.473923L567.022827,186.407028L567.38031,186.309616L567.759521,186.18898L567.840088,186.158035L567.916138,186.120407L568.000427,186.070023L568.104126,185.997452L568.540222,185.675278L568.574951,185.651443L568.763306,185.530197L568.792358,185.512405L568.972595,185.409348L569.008545,185.390335L569.180603,185.305649L569.223877,185.286209L569.387573,185.219925L569.440491,185.201126L569.596069,185.153244L569.65979,185.137131L569.807007,185.107651L569.882263,185.097L570.021301,185.085709L570.110779,185.084671L570.241455,185.091965zM572.465698,210.412064L572.431885,210.419388L572.282166,210.44783L572.282349,210.475845L572.276489,210.536667L572.295532,210.529129L572.494385,210.424393L572.541016,210.393661L572.465698,210.412064zM580.148682,253.670395C581.60022,253.768341,583.019836,253.649155,584.406433,253.311646L584.570496,253.26326L584.89856,253.083893C584.9198,252.963516,584.701477,252.790039,584.243591,252.561111C583.838806,252.354599,582.932495,252.06665,581.524658,251.696106C580.082642,252.207092,578.821106,252.500916,577.740112,252.577637L574.415833,252.41478C574.447693,252.8172,574.584595,253.105133,574.825317,253.278595C575.06488,253.442627,575.557007,253.524063,576.299255,253.524063L576.725281,253.034332L576.757141,253.001282L576.806702,253.017807C578.084717,253.355316,579.19873,253.572449,580.148682,253.670395zM558.346619,254.291107C557.812012,254.258087,557.292786,254.132996,556.79126,253.915848C556.398315,254.654587,556.211853,255.160843,556.234253,255.433441C556.288513,256.401123,556.895081,256.96637,558.051575,257.130402C558.751404,257.228333,559.537292,256.99942,560.410583,256.444763C561.131592,255.998703,561.611938,255.573883,561.852661,255.171448C561.994263,254.91066,562.027283,254.568451,561.950623,254.143616L558.346619,254.291107zM586.945984,230.729523L586.848022,230.615051L586.257996,230.027374C585.929932,230.625671,585.542847,231.131927,585.094421,231.544968C584.526794,232.055939,583.904907,232.366302,583.227539,232.474869L581.032593,232.409973C580.82489,232.833618,580.737549,233.171127,580.77063,233.421295C580.82489,233.911041,580.951172,234.253265,581.147034,234.449158C581.278015,234.569519,581.535278,234.678101,581.917664,234.776031L581.949524,234.792572L582.097046,234.759521L582.244507,234.678101C582.397949,234.363007,582.44635,234.085693,582.392029,233.84613C582.271667,233.584152,582.256348,233.400055,582.343628,233.291489L582.47467,233.241928C582.626892,233.274963,582.747253,233.443726,582.834595,233.748184C582.998596,234.20488,583.019836,234.569519,582.899475,234.840942C582.834595,234.982559,582.807434,235.178452,582.818054,235.428619C582.818054,235.668182,582.855835,235.879425,582.932495,236.064697C582.998596,236.249969,583.090637,236.369156,583.210999,236.423431C583.2771,236.423431,583.375061,236.375061,583.506042,236.2771C583.746765,236.102448,583.965088,235.868805,584.161011,235.574951C584.401733,235.226837,584.537415,234.890503,584.570496,234.563629L584.586975,234.547104L584.767578,234.367737C584.821838,234.357117,584.876099,234.373627,584.93158,234.417297L585.013,234.498718C585.089722,234.682816,585.056702,234.955414,584.915039,235.314163L584.848999,235.591476C585.143982,235.47229,585.416626,235.281113,585.667969,235.020325C585.962952,234.726471,586.164795,234.438538,586.274536,234.155319C586.351257,233.960602,586.405518,233.688004,586.438538,233.339874L586.438538,233.323349C586.459778,233.193542,586.509338,233.127457,586.5849,233.127457C586.684021,233.106216,586.781982,233.171127,586.879883,233.323349L586.879883,233.372925L586.896423,233.43782C586.962524,233.698624,586.989624,233.916931,586.979004,234.090408C587.185547,233.873276,587.360229,233.623093,587.502991,233.339874C587.710693,232.926849,587.798035,232.524445,587.764954,232.132645C587.754333,231.871857,587.480591,231.403351,586.945984,230.729523zM550.811768,231.382111L550.123779,232.051224L550.025818,232.16568C549.491272,232.818283,549.217468,233.279694,549.206848,233.552292C549.173828,233.944077,549.261108,234.346497,549.468811,234.759521C549.622253,235.06398,549.796875,235.314163,549.992798,235.510056L550.075378,234.857468L550.091919,234.792572L550.091919,234.776031L550.108459,234.759521C550.20636,234.607285,550.298462,234.536484,550.386963,234.547104C550.474243,234.569519,550.522644,234.640335,550.533264,234.759521L550.549805,234.759521L550.697266,235.574951C550.807068,235.858185,551.00885,236.152023,551.303833,236.456482C551.555237,236.706665,551.82782,236.891937,552.122864,237.011124L552.056763,236.733795C551.925781,236.396301,551.8927,236.129608,551.958801,235.934875L551.958801,235.918365L551.975342,235.918365L552.040222,235.85228L552.204285,235.803894C552.280945,235.803894,552.347046,235.858185,552.401367,235.966751L552.401367,235.999786C552.434387,236.3255,552.570068,236.662994,552.810852,237.011124L553.4823,237.696747L553.760803,237.859604C553.881165,237.794693,553.979126,237.669617,554.055847,237.484344C554.131348,237.299072,554.170288,237.08783,554.170288,236.848267C554.170288,236.608719,554.143127,236.418716,554.087708,236.2771C553.979126,236.059967,553.995605,235.689423,554.137268,235.167831C554.224548,234.863373,554.344971,234.699341,554.497192,234.678101L554.644653,234.726471C554.710754,234.824432,554.688354,235.009705,554.579773,235.281113C554.536133,235.553711,554.590393,235.831039,554.743835,236.114258L554.874817,236.195679L555.022339,236.212204L555.054199,236.212204C555.436523,236.102448,555.693787,235.989166,555.824768,235.868805C556.020691,235.684708,556.146912,235.341309,556.201233,234.840942C556.234253,234.557724,556.130432,234.188354,555.889648,233.731659C555.332642,233.873276,554.634033,233.883896,553.793823,233.764709C553.127075,233.654968,552.515808,233.3564,551.958801,232.866669C551.511536,232.464249,551.129211,231.969788,550.811768,231.382111zM564.750916,188.288925C564.150269,189.051254,563.817505,189.441864,563.752563,189.464294C563.326599,189.637756,562.878174,190.051971,562.408447,190.704559C562.059143,191.182495,561.76532,191.688751,561.524597,192.222153C561.087952,193.168579,560.98999,194.419464,561.229553,195.974823C561.349915,196.757217,561.513977,197.442841,561.72168,198.030533C561.917542,197.127762,562.354187,196.350082,563.031555,195.697495L564.324951,194.684982C563.975647,194.424194,563.681763,194.136246,563.44104,193.821167C563.112976,193.396332,562.977295,193.031693,563.031555,192.727219C563.108276,192.249298,563.293518,191.857498,563.588562,191.55304C563.981506,191.128204,564.527893,190.965363,565.226501,191.063309C565.444824,191.095169,565.848389,191.248581,566.438477,191.520004C566.951782,191.759552,567.290466,191.862228,567.454529,191.830353L568.714844,190.606613C569.425232,189.887939,569.982239,189.621246,570.385864,189.806519L570.942871,190.165253L571.483337,190.508667L572.269287,190.998398L572.859314,191.079834L573.301819,190.850891C573.672363,190.677414,573.913147,190.584183,574.021667,190.573563C574.273071,190.529907,574.573975,190.611328,574.923279,190.817841C575.130981,190.938217,575.484985,191.318207,575.987732,191.960175L576.773682,192.939636C577.112366,193.24411,577.46167,193.434097,577.822754,193.510803C578.226318,193.586334,578.565002,193.500183,578.837646,193.25C579.242371,192.879456,579.525635,192.379105,579.689636,191.748932C579.843079,191.150635,579.837158,190.611328,579.673096,190.133392C579.531494,189.762848,579.323792,189.441864,579.051208,189.170441C579.09491,189.572861,578.974487,189.883224,578.690125,190.100357L578.510742,190.231339C578.226318,190.394196,577.920715,190.464996,577.592651,190.442581L577.445129,190.427246C576.976624,190.36116,576.577759,190.133392,576.249695,189.741608L575.316223,188.697235C574.857178,188.229919,574.503174,187.963226,574.251831,187.897141C573.934387,187.821609,573.497742,187.865265,572.940735,188.028122C572.493469,188.169739,572.177246,188.142593,571.990784,187.946701L571.433777,187.146606C570.86615,186.25563,570.456665,185.78714,570.205322,185.743484C569.867798,185.699814,569.441772,185.852051,568.928467,186.200165L568.485901,186.527054C568.311279,186.658051,568.142517,186.750092,567.978455,186.804382C567.399048,187.000275,566.914063,187.119461,566.519897,187.163116C565.875549,187.239822,565.286682,187.615097,564.750916,188.288925zM576.6922,209.500961L576.577759,209.663818C576.282715,210.011948,575.715088,210.332916,574.873718,210.62677L574.825317,210.659805L574.694336,210.708191C574.563354,210.762482,574.530334,210.899368,574.595215,211.116501C574.737976,211.497665,574.944519,212.275345,575.218323,213.449539C575.567627,214.929352,575.81897,216.245148,575.971191,217.398102C576.112793,218.5298,576.189514,219.943542,576.201294,221.640503C576.211914,222.663635,576.206055,223.512115,576.184814,224.185944L576.168274,224.594269C576.6698,224.506927,577.128845,224.354706,577.54425,224.137573L577.625671,223.451935C577.833374,221.613373,578.062317,220.253906,578.31366,219.372375L579.394653,215.946594L579.640076,215.99498L578.723145,220.498184C578.526062,221.477661,578.35144,222.728546,578.199219,224.252045L578.166138,224.790161L578.411621,225.181946C579.19873,226.476501,579.874939,227.896149,580.442566,229.439697C580.74939,230.277557,580.983032,231.028091,581.147034,231.692474L583.24408,231.773895C583.909607,231.665344,584.505554,231.273544,585.029541,230.598541C585.345825,230.185501,585.580627,229.766571,585.73407,229.342926C585.79895,229.189514,585.79895,228.951141,585.73407,228.624252L585.717529,228.477921C585.542847,227.16095,585.274963,225.757828,584.915039,224.26738C584.303772,221.788025,583.528442,219.492752,582.589111,217.381577C581.606079,215.19606,580.421326,213.319717,579.034668,211.752563C578.28064,210.872223,577.50061,210.121689,576.6922,209.500961zM576.085632,209.338104L575.676147,208.92981C575.130981,209.246063,574.578674,209.496246,574.021667,209.680344C573.214539,211.225067,571.72876,211.747849,569.566895,211.247498C568.649963,211.029175,567.825073,210.63739,567.093384,210.072128C566.307495,209.463196,565.777588,208.761047,565.505005,207.966858C564.729675,208.326782,563.970886,208.739807,563.227417,209.207123C563.752563,209.740524,564.494873,210.19722,565.455444,210.578384C566.176453,210.860428,566.75,211.02446,567.176025,211.068115C567.52533,211.110596,567.797913,211.225067,567.994995,211.410339C568.180298,211.583817,568.311279,211.856415,568.387939,212.225784C568.714844,213.672562,568.966187,215.255066,569.140869,216.974442C569.22821,217.887833,569.282471,219.280334,569.304871,221.150772C569.315491,222.989349,569.288391,224.25676,569.22345,224.953003C569.20105,225.127655,569.113708,225.290512,568.961487,225.442749C568.797424,225.605591,568.622803,225.692917,568.43634,225.703537C567.835693,225.757828,566.558838,225.725967,564.603455,225.605591L561.131592,225.181946C561.218933,226.965057,561.196533,228.890961,561.065552,230.957275C561.994263,231.359695,563.293518,231.686584,564.964539,231.936752L569.25531,232.328537L569.550354,232.328537C570.817749,232.274261,572.52655,232.024078,574.677795,231.578003L577.249207,230.843994C577.183167,228.885056,577.253967,226.873001,577.46167,224.806671C576.960083,225.013184,576.555359,225.132385,576.249695,225.165421C576.031372,225.198456,575.867371,225.159515,575.758789,225.050964C575.627808,224.931763,575.572327,224.648544,575.594727,224.202469L575.594727,224.154083L575.627808,221.657028C575.605347,220.003723,575.523926,218.605331,575.382324,217.464188C575.239563,216.311234,574.988159,214.989548,574.628235,213.4991L574.054749,211.312393C573.967407,211.072845,573.962708,210.845078,574.038208,210.62677C574.114929,210.409637,574.251831,210.257401,574.447693,210.170074L574.661316,210.105164L574.677795,210.088654C575.387024,209.82785,575.85675,209.577667,576.085632,209.338104zM552.122864,225.55722C551.740479,227.112564,551.472595,228.515686,551.320374,229.766571L551.287354,229.912903C551.243652,230.250412,551.243652,230.48996,551.287354,230.631577C551.472595,231.088272,551.713379,231.507202,552.008362,231.887192C552.532349,232.562195,553.127075,232.953979,553.793823,233.062561L555.889648,232.981125L556.594177,230.729523C557.151184,229.184799,557.828552,227.765152,558.625122,226.470596C559.454712,225.100525,560.399963,223.89801,561.458496,222.864258L562.802612,221.690063L562.965454,221.869446L562.424988,222.538544L561.065552,224.398376L561.082031,224.577744L564.653015,225.017914C566.444336,225.159515,567.689331,225.192566,568.387939,225.11586L568.552002,225.034424L568.649963,224.904617C568.704224,224.208374,568.726624,222.957489,568.714844,221.150772C568.693604,219.290955,568.639343,217.914978,568.552002,217.022827C568.39856,215.369537,568.153137,213.808273,567.814453,212.340256C567.760132,212.100693,567.683472,211.931946,567.58551,211.834C567.486389,211.736053,567.334167,211.677048,567.126465,211.654617C566.646179,211.600342,566.018372,211.420959,565.243042,211.116501C564.118408,210.670425,563.260498,210.121689,562.671631,209.467926C562.037903,209.707474,561.541077,209.952942,561.179993,210.20311L561.017151,210.316406L560.984131,210.332916C560.044739,210.941849,559.045227,211.845795,557.986694,213.042404C556.600098,214.652039,555.419983,216.533096,554.448792,218.687927C553.49884,220.797928,552.723511,223.087296,552.122864,225.55722zM565.259583,191.682846C564.647095,191.59671,564.210449,191.889359,563.948486,192.564377C563.675903,193.27124,563.992126,193.886063,564.898438,194.407669L565.029419,194.555176C565.09552,194.663742,565.05658,194.755798,564.914978,194.832504C564.21637,195.234909,563.692383,195.593658,563.343079,195.908737C562.468628,196.714737,562.032043,197.628128,562.032043,198.65007C562.370728,197.867676,562.817932,197.159622,563.374939,196.529465C564.041687,195.854446,564.484253,195.479187,564.702576,195.403656C564.854797,195.34938,564.958618,195.370621,565.012939,195.468567C565.078979,195.566513,565.05188,195.647934,564.931519,195.712845L564.505493,196.039734L563.653442,196.806778C563.129517,197.284714,562.59967,198.057678,562.065063,199.123291L562.131165,199.49855C562.545349,198.62883,563.020935,197.943207,563.555542,197.442841C563.981506,197.029816,564.347351,196.773743,564.653015,196.675797C564.783997,196.632126,564.854797,196.675797,564.866577,196.806778C564.887817,196.948395,564.817017,197.067581,564.653015,197.165527C564.336731,197.340179,564.062927,197.534897,563.833984,197.753204C563.44104,198.145004,562.927734,198.802307,562.294006,199.727493L562.360107,199.744019L562.393127,199.792404C562.491089,199.803024,562.57843,199.83017,562.65509,199.873825C562.807312,199.961151,562.823853,200.092133,562.703491,200.26561C561.873901,200.863922,561.677979,201.630966,562.114624,202.566788C562.540649,203.480164,563.249878,203.882568,564.24353,203.774002C565.182861,205.535873,566.367676,206.89534,567.797913,207.853561C568.169678,208.091949,568.130676,208.18988,567.683472,208.1474C567.224426,208.103745,566.7276,207.891327,566.192993,207.510162C566.290955,208.522675,567.055664,209.381775,568.485901,210.088654C569.883118,210.774277,570.932251,210.893463,571.630859,210.447388L570.566406,210.234985C570.02002,210.061508,569.763916,209.930511,569.795776,209.843185L570.828369,209.925797C571.75592,209.957657,572.805054,209.729904,573.973328,209.240173C574.584595,208.98999,575.195862,208.631241,575.80719,208.16275L575.906311,208.064804L575.922791,208.081329C577.309387,206.961426,578.307739,205.476868,578.920227,203.626495C579.520874,201.820969,579.651855,199.998917,579.313171,198.161514C579.061829,196.790268,578.521362,195.381241,577.691772,193.934448C577.253967,193.858932,576.829102,193.62999,576.413696,193.25L575.611267,192.237488C575.119202,191.59671,574.792297,191.226151,574.628235,191.128204L573.744385,191.161255L573.170837,191.438568L572.154785,191.503479C571.892822,191.449188,571.560059,191.307587,571.155273,191.079834C570.751648,190.850891,570.292603,190.802505,569.780457,190.932312C569.24469,191.084549,568.753784,191.411423,568.305359,191.911789C568.098816,192.139542,567.830933,192.243393,567.50293,192.222153L566.683899,192.02626C566.421936,191.916504,565.947571,191.803223,565.259583,191.682846zM564.112488,199.531601L564.505493,199.221237C564.625854,199.166946,564.713196,199.194092,564.767456,199.302658C564.833557,199.423035,564.811096,199.510361,564.702576,199.564636L564.472412,199.744019C564.330811,199.88562,564.25415,200.004822,564.24353,200.102768C564.22229,200.221954,564.145569,200.282135,564.014587,200.282135C563.894226,200.271515,563.839905,200.184189,563.850525,200.021332C563.883545,199.83606,563.970886,199.673218,564.112488,199.531601zM564.833557,198.063568C564.887817,198.172134,564.838257,198.274811,564.686035,198.372757L564.047607,198.781067L563.522461,199.352234C563.326599,199.558746,563.216797,199.607132,563.195557,199.49855C563.183777,199.412415,563.239258,199.264893,563.359619,199.05838L563.784424,198.503754C563.992126,198.286606,564.26593,198.101334,564.603455,197.949112C564.702576,197.905441,564.778076,197.943207,564.833557,198.063568zM572.990295,205.879288L573.268799,205.829712L573.563843,205.894623L574.644775,206.025604C574.742737,206.036224,574.796997,206.06337,574.808838,206.10704L574.677795,206.221512L574.12085,206.498825L573.137817,206.4823L572.908875,206.319458C572.842773,206.242752,572.821533,206.161316,572.842773,206.07518L572.990295,205.879288zM576.020752,194.767593C575.911011,194.755798,575.823669,194.712128,575.758789,194.636597C575.692688,194.549286,575.671448,194.451324,575.692688,194.342758L575.742249,194.015884C575.763489,193.907318,575.81897,193.836502,575.906311,193.804642L576.168274,193.836502L577.396729,194.636597L577.52771,194.782928L577.330627,194.832504L576.020752,194.767593zM569.878418,194.407669L569.25531,194.653122L568.535461,195.044922C568.284119,195.197144,568.125977,195.267944,568.059875,195.256149C567.983215,194.984726,568.180298,194.598846,568.649963,194.09848L569.370972,193.412857C569.556274,193.304291,569.697876,193.342056,569.795776,193.527328L570.02594,193.853027C570.178162,194.07135,570.233643,194.211777,570.189941,194.277863L569.878418,194.407669zM569.386292,196.659271C569.496094,196.442139,569.632935,196.333572,569.795776,196.333572C569.959839,196.322952,570.1026,196.425613,570.221802,196.643936C570.342163,196.861069,570.408264,197.121872,570.418884,197.426331C570.418884,197.742584,570.364624,198.003387,570.254883,198.2099C570.146301,198.427032,570.003479,198.541504,569.828857,198.552124C569.664795,198.552124,569.523193,198.443558,569.402832,198.226425C569.282471,198.008102,569.22345,197.747314,569.22345,197.442841C569.21167,197.138382,569.267151,196.877594,569.386292,196.659271zM576.299255,196.790268C576.407837,196.57312,576.550598,196.464554,576.725281,196.464554C576.888123,196.452759,577.030884,196.55661,577.151306,196.773743C577.270447,196.99205,577.330627,197.252853,577.330627,197.557312C577.341248,197.861786,577.286987,198.122574,577.166626,198.340897C577.058044,198.558029,576.921143,198.666595,576.757141,198.666595C576.594299,198.677216,576.451477,198.574554,576.332275,198.356232C576.211914,198.149719,576.145874,197.888916,576.135254,197.573837C576.135254,197.269379,576.189514,197.007401,576.299255,196.790268zM575.447266,200.037857C575.457886,200.135803,575.436646,200.221954,575.382324,200.29866L574.628235,201.359558C574.497253,201.51178,574.328491,201.570786,574.12085,201.538925L573.842346,201.457504L573.678284,201.326508C573.655884,201.261612,573.672363,201.190796,573.727844,201.11409L574.333252,200.31517C574.464233,200.140518,574.480774,199.955246,574.382813,199.760544L573.711304,198.454178C573.449341,197.921967,573.235779,197.367325,573.071716,196.790268L573.056396,196.561325L573.154358,196.448029C573.262878,196.425613,573.36676,196.518845,573.465881,196.725357L574.104309,198.047058L575.365784,199.775879C575.420105,199.841965,575.447266,199.928101,575.447266,200.037857zM570.483765,201.179001C570.516846,201.212036,570.512146,201.266327,570.467285,201.343033L570.271362,201.864624C570.227722,201.94133,570.244263,202.027481,570.320923,202.125427L570.566406,202.305984C572.050964,202.881866,573.164978,203.21347,573.907227,203.300797L575.823669,203.21936L576.921143,203.039993C577.008484,203.028198,577.085205,202.990433,577.151306,202.925522L577.232727,202.681244L577.232727,202.452316L577.265747,202.289459C577.309387,202.277664,577.357788,202.305984,577.413269,202.37088L578.002136,203.121414L578.101257,203.382217L578.035156,203.643021L577.314148,204.720444C577.205566,204.883286,577.151306,204.862045,577.151306,204.655533L577.151306,204.508026C577.161926,204.4207,577.134766,204.349884,577.068665,204.295609L576.856262,204.263748L575.80719,204.85025C574.977539,205.242035,574.22467,205.433212,573.547302,205.421402C572.880554,205.421402,572.002563,205.101608,570.90979,204.459641L569.468933,203.480164C569.271851,203.404648,569.107788,203.453033,568.976807,203.626495L568.961487,204.378204L568.813965,204.474976L568.714844,204.312134L568.43634,202.827576L568.485901,202.566788L568.666443,202.35437L570.320923,201.212036L570.483765,201.179001zM570.0578,202.550262C569.894958,202.539642,569.741516,202.588028,569.599915,202.696594C569.458313,202.806335,569.429993,202.925522,569.517334,203.056519L569.780457,203.300797C570.969971,203.953384,571.78894,204.361694,572.237427,204.524536L573.596863,204.736954L574.906738,204.655533L576.937683,203.98642C577.091064,203.953384,577.199646,203.834198,577.265747,203.626495C577.320007,203.442398,577.210266,203.349182,576.937683,203.349182L575.823669,203.529724L573.744385,203.61116C572.880554,203.534454,571.772461,203.20874,570.418884,202.631683L570.0578,202.550262zM565.407043,232.524445C563.38678,232.208176,561.884521,231.849426,560.902649,231.447021C560.683167,231.936752,560.17572,233.492111,559.379211,236.114258C558.46106,239.093979,557.839172,241.367996,557.511108,242.933975C557.172424,244.56604,556.883301,246.67131,556.643738,249.248611C556.425415,251.58754,556.353455,252.85495,556.430176,253.050842C556.473816,253.159424,556.741699,253.273895,557.232605,253.393066L558.658142,253.605499C559.171509,253.638519,559.820557,253.62674,560.607666,253.572449C561.578857,253.507538,562.212585,253.388351,562.507568,253.213699C562.59491,253.126373,562.927734,252.223602,563.50592,250.505402L565.112061,246.083618C565.97467,243.984253,567.120544,241.634705,568.552002,239.034973L570.467285,235.722473L570.614807,235.787384L569.926819,237.647186L570.81189,239.752457C571.412537,241.22049,571.892822,242.53746,572.252747,243.701019C572.832153,245.528976,573.493042,248.204239,574.235291,251.729156L574.366272,251.827087L577.445129,251.973419L579.345032,251.729156C579.96814,251.554504,580.481506,251.272461,580.885071,250.880676C580.197083,246.225235,579.695557,242.944595,579.378113,241.041107C579.18219,239.856308,578.799866,238.044876,578.232239,235.608002L577.314148,231.724335L575.611267,232.051224C573.612183,232.649536,571.516357,232.94809,569.321411,232.94809C568.163757,232.94809,566.858582,232.806473,565.407043,232.524445z"/>
</svg>
