<?xml version="1.0" encoding="UTF-8"?>
<svg xmlns="http://www.w3.org/2000/svg" xmlns:xlink="http://www.w3.org/1999/xlink" width="17.034mm" height="5.559mm" viewBox="-485.939697 230.366028 17.034119 5.559265">
    <path transform="matrix(-1,0,0,1,0,0)" style="stroke:none;fill:#000000;fill-rule:evenodd" d="M479.392517,230.366028L475.888916,230.487091L472.436523,230.968979C471.188721,231.243683,470.094574,231.627808,469.154053,232.121338C468.867737,232.270325,468.823486,232.489151,469.016724,232.775497C469.21228,233.064163,469.452057,233.127014,469.738373,232.966385C470.655609,232.49614,471.742767,232.132965,473.002228,231.881546L476.438324,231.485794L479.427429,231.399658C480.584442,231.455536,481.562195,231.646423,482.363007,231.967682C482.661011,232.093399,482.884491,232.002609,483.033478,231.690659C483.182465,231.3694,483.103302,231.152893,482.793701,231.036499C481.85553,230.64772,480.721802,230.42424,479.392517,230.366028z"/>
    <path transform="matrix(-1,0,0,1,0,0)" style="stroke:none;fill:#000000;fill-rule:evenodd" d="M485.214783,235.841446C485.501129,236.013718,485.719971,235.943878,485.868958,235.634247C486.017944,235.324631,485.94809,235.084854,485.661774,234.912582C483.154541,233.420349,480.41684,232.598572,477.450989,232.449585C474.324493,232.28894,471.558868,232.91983,469.154053,234.344559C468.867737,234.505188,468.823486,234.728668,469.016724,235.015015C469.21228,235.289703,469.452057,235.3479,469.738373,235.187286C471.982544,233.855682,474.582916,233.287659,477.537109,233.4832C480.309753,233.655472,482.868195,234.440002,485.214783,235.841446z"/>
</svg>
