<?xml version="1.0" encoding="UTF-8"?>
<svg xmlns="http://www.w3.org/2000/svg" xmlns:xlink="http://www.w3.org/1999/xlink" width="17.291mm" height="6.874mm" viewBox="-455.377441 229.844864 17.291168 6.874222">
    <path transform="matrix(-1,0,0,1,0,0)" style="stroke:none;fill:#000000;fill-rule:evenodd" d="M442.302063,230.968979C443.149445,230.819992,444.138824,230.836288,445.272552,231.020203C445.947662,231.134277,446.923096,231.3694,448.194153,231.725586C451.011017,232.49614,453.094574,233.436646,454.444794,234.549408L455.201385,234.514496C455.441162,234.274719,455.436523,234.051224,455.185089,233.84404C454.3703,233.166595,453.373901,232.570633,452.195953,232.053818C451.336945,231.66272,450.242798,231.266968,448.913513,230.864227C447.598206,230.463806,446.469116,230.182129,445.530945,230.0215C444.213318,229.802673,443.051666,229.786377,442.04364,229.970276C441.722382,230.026154,441.603638,230.22171,441.6828,230.554596C441.77359,230.887512,441.980774,231.024857,442.302063,230.968979z"/>
    <path transform="matrix(-1,0,0,1,0,0)" style="stroke:none;fill:#000000;fill-rule:evenodd" d="M438.109375,233.860336C438.190857,234.193237,438.384064,234.302643,438.693695,234.188583C441.28241,233.292297,443.950256,233.045532,446.699585,233.448273C449.642151,233.860336,452.07489,234.952148,454.000153,236.719086L454.738098,236.702789C454.989532,236.460693,454.989532,236.232544,454.738098,236.013718C452.675537,234.118744,450.093811,232.931473,446.990601,232.449585C444.059662,232.002609,441.212555,232.249374,438.453918,233.18988C438.144287,233.30394,438.030212,233.527435,438.109375,233.860336z"/>
</svg>
