<?xml version="1.0" encoding="UTF-8"?>
<svg xmlns="http://www.w3.org/2000/svg" xmlns:xlink="http://www.w3.org/1999/xlink" width="41.555mm" height="75.416mm" viewBox="-537.531128 185.499451 41.554810 75.415771">
    <path transform="matrix(-1,0,0,1,0,0)" style="stroke:none;fill:#000000;fill-rule:evenodd" d="M518.574341,185.506836L518.671387,185.517029L518.767212,185.537109L518.842041,185.559998L518.946411,185.596741L519.036682,185.63385L519.152222,185.69812L519.271851,185.776001L519.384033,185.861267L519.518799,185.980286L519.583679,186.043335L519.733887,186.203369L519.775269,186.250671L519.940613,186.451538L519.96875,186.487061L520.14917,186.72876L520.169556,186.757141L520.365234,187.039917L520.380005,187.062195L520.583679,187.374939L520.963135,187.920959L521.069214,187.890991L521.095459,187.884216L521.501831,187.781616L521.587402,187.763977L521.947449,187.707153L522.065491,187.695984L522.378845,187.685486L522.476501,187.687012L522.539551,187.693542L522.806519,187.72937L522.902649,187.747009L522.991638,187.772949L523.093323,187.807861L523.203613,187.853577L523.315491,187.908325L523.392151,187.950012L523.513916,188.023865L523.57019,188.060974L523.701782,188.153992L523.744446,188.185791L523.886292,188.298279L523.920898,188.327026L524.072327,188.458984L524.097351,188.481567L524.259277,188.632996L524.28125,188.654297L524.452759,188.825195L524.491333,188.865967L525.434814,189.922852L525.625183,190.116333L525.771973,190.220154L525.92218,190.287842L526.127075,190.335754L526.16626,190.340027L526.285583,190.339722L526.381714,190.32489L526.476868,190.295227L526.556641,190.256592L526.611572,190.216736L526.645264,190.183044L526.64624,190.178406L526.64502,190.001953L526.649292,189.904297L526.663208,189.807922L526.687012,189.713013L526.720093,189.621277L526.762451,189.533508L526.813416,189.450073L526.872742,189.372498L526.939453,189.301086L527.013062,189.236816L527.092468,189.180603L527.177429,189.132385L527.26709,189.09314L527.359741,189.063171L527.455261,189.042725L527.552307,189.031921L527.649902,189.031311L527.747314,189.040283L527.843079,189.059143L527.936401,189.087585L528.026611,189.125244L528.112244,189.171936L528.192871,189.226929L528.2677,189.289673L528.324829,189.348083L528.522949,189.5672L528.588135,189.647522L528.76123,189.886108L528.817749,189.973267L528.96521,190.230652L529.010925,190.321533L529.132324,190.597473L529.166992,190.68866L529.18457,190.749512L529.280701,191.129944L529.299866,191.225708L529.306641,191.283203L529.341553,191.687439L529.34314,191.829895L529.316895,192.256958L529.301086,192.380859L529.213989,192.831421L529.184265,192.946106L529.034424,193.407471L528.988037,193.524292L528.792114,193.935608L528.7229,194.057068L528.481201,194.418335L528.422852,194.496826L528.387573,194.537292L528.099243,194.848816L528.029114,194.917053L527.955566,194.975769L527.732422,195.13678L527.650574,195.189941L527.525085,195.250549L527.501343,195.260132L527.658936,195.573792L527.674683,195.607117L527.924683,196.156006L527.94043,196.192139L528.162598,196.737549L528.177124,196.775574L528.371521,197.317322L528.385132,197.357788L528.551697,197.896118L528.563721,197.938782L528.702515,198.473083L528.713013,198.518494L528.823975,199.049744L528.833496,199.102295L528.94104,199.810852L528.948181,199.87085L529.01062,200.578186L529.014038,200.639038L529.031311,201.344604L529.031006,201.406982L529.002869,202.111267L528.99823,202.17218L528.925293,202.874268L528.917236,202.935486L528.79895,203.636353L528.786865,203.695679L528.623047,204.394714L528.60791,204.451538L528.399048,205.149048L528.381104,205.20282L528.127075,205.898743L528.103271,205.957458L527.811584,206.618469L527.782837,206.678101L527.453735,207.303894L527.419678,207.363525L527.053223,207.954102L527.013977,208.012512L526.610352,208.56781L526.565552,208.624695L526.124268,209.145081L526.075745,209.198242L525.597412,209.683411L525.544556,209.733154L525.286804,209.957825L525.335632,209.963074L525.431396,209.983154L525.524414,210.012512L525.614075,210.051453L525.699341,210.09906L525.796692,210.168884L526.414185,210.672913L526.45459,210.708191L527.061523,211.262573L527.097717,211.29718L527.694153,211.901917L527.725952,211.935913L528.312195,212.590759L528.329834,212.61084L528.854553,213.230469L528.879578,213.261353L529.384827,213.910645L529.408325,213.941833L529.894104,214.621094L529.915405,214.652588L530.38147,215.361511L530.40094,215.39209L530.847778,216.131287L530.865356,216.161926L531.292786,216.930786L531.308838,216.960754L531.716797,217.759888L531.730957,217.78894L532.119446,218.617737L532.13208,218.646179L532.486267,219.469421L532.495239,219.490784L532.833252,220.33197L532.841309,220.352661L533.163635,221.211426L533.171021,221.232178L533.477661,222.108887L533.484375,222.128662L533.775513,223.023254L533.781738,223.043396L534.056763,223.955627L534.062622,223.975098L534.321899,224.905273L534.326843,224.924438L534.570068,225.872559L534.575928,225.896606L534.835815,227.029846L534.840759,227.05304L535.064819,228.153137L535.069702,228.177856L535.25824,229.244324L535.262573,229.27124L535.415222,230.304321L535.420166,230.344482L535.432861,230.465332L535.467163,230.676086L535.477661,230.770325L535.490356,230.971802L535.48938,231.10498L535.482605,231.196472L535.548706,231.235718L535.627197,231.293823L535.696777,231.356567L536.303711,231.961975L536.350952,232.012634L536.452332,232.129456L536.487244,232.171753L536.680664,232.422119L536.696777,232.443726L536.864868,232.674255L536.883118,232.700195L537.026245,232.910645L537.048767,232.945557L537.166504,233.135925L537.194336,233.183838L537.286743,233.354431L537.319458,233.420593L537.386841,233.57135L537.424194,233.669006L537.466248,233.799438L537.491333,233.893677L537.502441,233.954285L537.518799,234.065186L537.528992,234.199341L537.531128,234.503418L537.521606,234.647095L537.477417,234.955505L537.449219,235.086243L537.359009,235.398682L537.318237,235.51239L537.181946,235.829163L537.14209,235.910706L537.025879,236.123047L536.991272,236.181458L536.863037,236.381042L536.821045,236.44104L536.67981,236.627991L536.634033,236.684204L536.480774,236.858215L536.412476,236.92804L536.337646,236.990784L536.256714,237.045471L536.170776,237.091858L536.080566,237.129211L535.987244,237.157349L535.891479,237.175903L535.794067,237.184509L535.696411,237.183289L535.650391,237.17804L535.613281,237.237671L535.555847,237.320496L535.382202,237.54425L535.326233,237.609741L535.116394,237.835327L535.074097,237.878296L534.876282,238.065918L534.804932,238.127075L534.598511,238.287781L534.514404,238.346497L534.299622,238.479675L534.205688,238.53064L533.9823,238.636963L533.892029,238.674683L533.798706,238.70282L533.702637,238.721008L533.605591,238.72998L533.507935,238.72876L533.410889,238.717957L533.342529,238.70282L533.275513,238.781616L533.217102,238.84436L533.044678,239.013367L532.974487,239.0755L532.793091,239.22168L532.743652,239.259033L532.649414,239.3255L532.577148,239.371826L532.494873,239.419434L532.376587,239.477539L532.307007,239.505981L532.214966,239.538391L532.095642,239.565308L532.038147,239.574585L531.941162,239.585388L531.843506,239.585999L531.746094,239.577026L531.65033,239.558167L531.557007,239.529785L531.467041,239.492065L531.371277,239.438904L531.28479,239.384521L531.204712,239.328552L531.101501,239.235229L531.024841,239.155212L530.960876,239.08136L530.906189,239.003479L530.839722,238.898438L530.79187,238.813416L530.769592,238.765869L530.713379,238.635742L530.687988,238.570557L530.636414,238.422485L530.607056,238.321167L530.570557,238.162598L530.553894,238.068665L530.532837,237.904907L530.50415,237.903625L530.40741,237.890381L530.3125,237.867188L530.220459,237.834412L530.211792,237.830383L530.021118,237.776001L529.951294,237.753174L529.72937,237.671265L529.633301,237.629822L529.460205,237.54364L529.375244,237.495728L529.328857,237.464539L529.203735,237.374878L529.127441,237.314026L529.057617,237.245728L528.999146,237.176514L528.861328,236.996338L528.80603,236.916016L528.75415,236.81958L528.643433,236.583496L528.606384,236.493225L528.588745,236.437622L528.505615,236.144653L528.481201,236.032776L528.425598,235.682983L528.413574,235.542969L528.411072,235.33374L528.414795,235.236084L528.42627,235.151123L528.470093,234.907898L528.502869,234.779053L528.593384,234.502502L528.627075,234.414063L528.763672,234.103516L528.807556,234.016357L528.828613,233.983276L528.695679,233.482666L528.535645,232.944641L528.348633,232.372009L528.138794,231.776245L527.691345,230.637756L527.211121,229.564209L526.784668,228.722717L526.726868,229.839844L526.699097,231.356567L526.723145,232.863098L526.719727,232.960754L526.706482,233.057434L526.683594,233.152344L526.651123,233.244446L526.640015,233.268188L526.651123,233.284912L526.69751,233.370789L526.734924,233.46106L526.765503,233.56427L527.707397,237.560608L527.708618,237.565552L527.918213,238.475952L527.918823,238.479675L528.110718,239.329529L528.111938,239.334167L528.286255,240.123718L528.287476,240.129272L528.443848,240.858276L528.445435,240.865723L528.583496,241.534424L528.585083,241.542175L528.705566,242.150635L528.707458,242.161133L528.809692,242.709351L528.812195,242.721741L528.896606,243.209656L528.898071,243.219238L529.101807,244.47052L529.102661,244.476074L529.436401,246.609009L529.437073,246.613647L529.954346,250.026855L529.954712,250.029968L530.448853,253.358215L530.455017,253.421265L530.920105,253.545776L530.929321,253.548218L531.399048,253.678955L531.410522,253.682373L531.832336,253.805359L531.846252,253.809387L532.219604,253.924316L532.238098,253.930237L532.562866,254.037415L532.587036,254.045776L532.863586,254.145264L532.896606,254.157959L533.125,254.249756L533.171021,254.269836L533.350952,254.353271L533.389221,254.371826L533.554871,254.457703L533.583923,254.473511L533.726074,254.553528L533.767822,254.578552L533.88678,254.653625L533.938354,254.688538L534.03418,254.758118L534.110229,254.819275L534.182495,254.88385L534.279541,254.984009L534.328979,255.04303L534.387695,255.120911L534.460022,255.247009L534.485962,255.301392L534.523376,255.391296L534.551819,255.484924L534.570313,255.58075L534.578064,255.655823L534.581177,255.704651L534.582397,255.802307L534.57373,255.899353L534.555176,255.995422L534.527405,256.088806L534.48999,256.179016L534.443604,256.264893L534.388916,256.345886L534.326172,256.420654L534.256348,256.488953L534.180054,256.549866L534.082397,256.611023L533.745544,256.795837L533.657776,256.838501L533.561401,256.873413L533.394165,256.924072L533.324341,256.942322L532.788208,257.06189L532.752014,257.069336L532.213074,257.167908L532.176025,257.174072L531.633667,257.251648L531.596558,257.256287L531.051147,257.312866L531.014648,257.315918L530.466125,257.351807L530.428467,257.353333L529.876465,257.367859L529.840942,257.368164L529.28595,257.362305L529.249756,257.361328L528.69165,257.334473L528.61377,257.327393L527.849609,257.228149L527.806946,257.22168L526.97998,257.076416L526.944702,257.069641L526.054749,256.878967L526.024414,256.871826L525.586548,256.763062L525.509888,256.85144L525.442261,256.921936L525.367798,256.984985L525.287415,257.040283L525.201782,257.087219L525.111877,257.125244L525.018555,257.153992L524.922729,257.173157L524.825745,257.182434L524.76886,257.18335L524.495056,257.179626L524.462646,257.178711L524.212891,257.166992L524.17395,257.164185L523.948364,257.144409L523.902344,257.13916L523.700867,257.111633L523.643372,257.102112L523.466003,257.066833L523.391541,257.04895L523.238525,257.005676L523.145264,256.974121L523.016663,256.923157L522.899902,256.867554L522.79541,256.808838L522.712585,256.756592L522.605042,256.668518L522.439453,256.511841L522.37207,256.441406L522.312134,256.364441L522.283691,256.321472L522.158508,256.120605L522.111206,256.035034L522.066101,255.926819L521.981079,255.682068L521.953613,255.588135L521.939087,255.513367L521.894287,255.224121L521.884094,255.127075L521.884094,255.029419L521.891479,254.952759L521.880676,254.939209L521.827209,254.857605L521.78241,254.770752L521.746582,254.679932L521.717529,254.573303L521.435669,253.254333L521.163086,252.024109L521.030273,251.441895L520.89917,250.87854L520.771606,250.341431L520.77124,250.341431L520.643066,249.81488L520.643311,249.81488L520.519409,249.319519L520.395142,248.833984L520.395508,248.833984L520.274658,248.375122L520.156006,247.936584L520.039795,247.52002L519.925415,247.124146L519.813599,246.750244L519.703857,246.396362L519.41217,245.494934L519.070984,244.525513L518.681641,243.490601L518.254883,242.4198L517.849976,241.455933L517.66333,241.77887L517.131226,242.760071L516.625977,243.717407L516.148804,244.649475L515.704712,245.544983L515.705078,245.544983L515.277039,246.439636L514.888916,247.28302L514.515625,248.129089L514.185242,248.913147L512.549866,253.424011L512.150879,254.593079L512.147461,254.602661L511.910797,255.272949L511.906158,255.285583L511.777588,255.634216L511.771729,255.649658L511.666962,255.919434L511.656158,255.946594L511.575195,256.137573L511.555389,256.181152L511.52356,256.247009L511.499146,256.293945L511.473511,256.340332L511.399048,256.454956L511.378937,256.481567L511.316223,256.556335L511.246368,256.624329L511.169739,256.685181L511.087524,256.737732L511.039948,256.763062L511.000092,256.782837L511.032837,257.052917L511.039642,257.182739L511.035614,257.462708L511.029114,257.560059L511.019226,257.625549L510.97287,257.874023L510.950317,257.969238L510.917877,258.061951L510.829193,258.279175L510.787781,258.367554L510.740173,258.447266L510.636353,258.603943L510.585052,258.674438L510.458038,258.832947L510.409821,258.888245L510.259644,259.04895L510.214203,259.094727L510.040558,259.257263L510.000977,259.292175L509.804443,259.456909L509.76767,259.486267L509.547638,259.653137L509.515198,259.676575L509.271973,259.845642L509.24231,259.865417L508.975952,260.036316L508.949066,260.052979L508.616852,260.251099L508.564941,260.279846L508.241058,260.446716L508.17926,260.475769L507.863739,260.611084L507.792358,260.638611L507.485168,260.742432L507.40329,260.766235L507.104462,260.838562L507.01297,260.855835L506.722809,260.896973L506.619293,260.905945L506.337433,260.915222L506.227448,260.91272L505.954254,260.890442L505.847015,260.87561L505.427368,260.793457L505.309937,260.762512L504.943726,260.641418L504.85257,260.60614L504.807739,260.584534L504.494385,260.424438L504.409729,260.375916L504.34729,260.331726L504.087402,260.133057L504.012939,260.070007L503.945557,260.000183L503.738525,259.762207L503.678253,259.685242L503.623566,259.598083L503.469666,259.321533L503.426392,259.233765L503.393646,259.145996L503.292877,258.830811L503.267853,258.736511L503.255493,258.664856L503.208221,258.310669L503.19986,258.170105L503.201416,258.054199L503.212555,257.920715L503.233856,257.781921L503.253021,257.688599L503.294434,257.527283L503.313904,257.461792L503.375397,257.277588L503.393005,257.228455L503.474609,257.022034L503.489746,256.986206L503.591095,256.757202L503.605011,256.727234L503.726776,256.475708L503.728638,256.47229L503.692169,256.437378L503.628815,256.36322L503.588318,256.306641L503.560516,256.264587L503.510773,256.180847L503.469971,256.092163L503.430115,255.970398L503.417114,255.919434L503.394257,255.797363L503.384979,255.720703L503.37973,255.660156L503.373871,255.557861L503.372314,255.521118L503.369843,255.392822L503.369843,255.364746L503.371399,255.21051L503.371704,255.195374L503.376343,255.015503L503.376953,254.995422L503.397339,254.558167L503.398285,254.541443L503.432892,254.000671L503.433807,253.989258L503.482635,253.345215L503.483246,253.337158L503.546295,252.589966L503.546906,252.58374L503.624176,251.732727L503.624786,251.726501L503.71936,250.754639L503.720276,250.744751L503.820099,249.818237L503.821014,249.80835L503.925171,248.927307L503.926697,248.915588L504.035797,248.080566L504.037659,248.067627L504.151672,247.278381L504.153839,247.26416L504.272522,246.520325L504.274994,246.504578L504.398285,245.806763L504.401703,245.789124L504.529327,245.137085L504.533966,245.115173L504.674561,244.476074L504.678284,244.459717L504.846985,243.752319L504.850403,243.737793L505.047882,242.962769L505.050964,242.95166L505.27655,242.108276L505.279327,242.098389L505.533661,241.187073L505.535828,241.179382L505.817963,240.199707L505.820129,240.192322L506.131012,239.144714L506.132874,239.137939L506.765442,237.061523L506.766998,237.05658L507.154816,235.808716L507.157288,235.801331L507.482086,234.785217L507.485504,234.77533L507.667511,234.226501L507.671204,234.215393L507.825104,233.76947L507.831299,233.751221L507.957367,233.408203L507.966034,233.38562L508.018555,233.253052L508.028137,233.230225L508.073883,233.122986L508.116852,233.035217L508.165344,232.956421L508.165344,232.948059L508.244476,231.389954L508.28186,229.906006L508.277832,228.47052L508.251587,227.66394L508.075745,227.902832L507.446259,228.878479L506.877319,229.863647L506.354431,230.891785L505.876984,231.964722L505.445282,233.079102L504.730804,235.367126L504.697113,235.458923L504.694336,235.464478L504.841125,235.775696L504.878815,235.867126L504.985138,236.169678L505.02066,236.30011L505.074432,236.568665L505.088959,236.665344L505.093292,236.755615L505.093903,236.990784L505.089264,237.088135L505.082489,237.142212L505.026855,237.497864L505.002136,237.611023L504.919006,237.905518L504.887787,237.997925L504.862762,238.055664L504.752136,238.289612L504.70578,238.375854L504.634399,238.478149L504.496552,238.651184L504.431976,238.724426L504.360291,238.790894L504.312378,238.828552L504.187531,238.920044L504.105957,238.973511L504.060211,238.99884L503.886841,239.08844L503.7966,239.129272L503.574738,239.216431L503.514465,239.237732L503.244385,239.323608L503.150116,239.348694L503.053406,239.363831L502.991577,239.366882L502.96933,239.534424L502.952332,239.62677L502.915253,239.785034L502.886841,239.882996L502.835205,240.030701L502.793823,240.130798L502.730774,240.261841L502.666168,240.375549L502.594482,240.48407L502.536377,240.562561L502.493134,240.612305L502.413086,240.697571L502.342621,240.765259L502.26474,240.826111L502.176056,240.88855L502.093536,240.940796L502.006104,240.984375L501.914917,241.018677L501.820374,241.043701L501.723938,241.058838L501.626617,241.064392L501.528961,241.060059L501.432526,241.045837L501.337677,241.021729L501.24588,240.988708L501.130615,240.930298L500.844452,240.76123L500.762878,240.707458L500.687164,240.645691L500.645142,240.604858L500.203522,240.153076L500.109589,240.174988L500.012848,240.187683L499.915192,240.190186L499.817871,240.183044L499.721741,240.166077L499.627808,240.139465L499.52829,240.099304L499.306122,239.995178L499.216187,239.94696L499.001709,239.817139L498.920441,239.762146L498.714325,239.606689L498.644165,239.548584L498.446381,239.367859L498.379944,239.300781L498.170105,239.067444L498.119141,239.005981L497.945465,238.777283L497.891052,238.697266L497.85614,238.640381L497.778259,238.646545L497.680939,238.644409L497.583893,238.632324L497.488708,238.610718L497.396301,238.579468L497.307312,238.539001L497.222931,238.489868L497.144135,238.432373L497.071198,238.367188L497.036591,238.331055L496.889191,238.168823L496.835114,238.103882L496.696045,237.920959L496.651855,237.8573L496.521454,237.653625L496.486542,237.59491L496.364471,237.370911L496.325531,237.290527L496.18924,236.97345L496.148438,236.859436L496.058197,236.546387L496.03009,236.415955L495.985901,236.106934L495.976318,235.963562L495.978485,235.65918L495.988373,235.528748L496.004761,235.414734L496.023285,235.318909L496.039978,235.259888L496.082001,235.127625L496.120636,235.026306L496.188019,234.875488L496.222321,234.806274L496.314697,234.637207L496.34375,234.587769L496.461487,234.399902L496.486847,234.361267L496.629913,234.155457L496.649994,234.127625L496.818115,233.903259L496.836029,233.880371L497.02948,233.637817L497.055145,233.606934L497.156494,233.490112L497.212128,233.431091L497.920105,232.741943L497.993347,232.677673L498.072784,232.620789L498.095032,232.608154L498.091919,232.581543L498.083588,232.415894L498.082977,232.32782L498.091309,232.124512L498.095642,232.067017L498.120056,231.825684L498.139526,231.70636L498.165497,231.593872L498.298981,230.64209L498.303925,230.610535L498.487488,229.556763L498.493042,229.528625L498.72113,228.416748L498.726379,228.392334L498.998322,227.221741L499.00296,227.202271L499.243073,226.257874L499.248322,226.238098L499.505127,225.311035L499.510986,225.290649L499.78479,224.380859L499.79129,224.360168L500.081757,223.467957L500.088867,223.44696L500.396057,222.571777L500.403778,222.550171L500.727936,221.692627L500.736603,221.670959L501.077759,220.830383L501.087036,220.808472L501.444885,219.985535L501.456329,219.96051L501.840454,219.142212L501.85437,219.113464L502.258575,218.321716L502.274017,218.292358L502.698639,217.52655L502.715637,217.497559L503.160004,216.758362L503.178558,216.729004L503.643036,216.015747L503.662811,215.986389L504.147034,215.299377L504.168976,215.269409L504.673645,214.608704L504.696503,214.579651L505.220917,213.945251L505.249359,213.912476L505.65448,213.465027L505.671173,213.447083L506.07074,213.02771L506.09021,213.007935L506.484222,212.617371L506.504639,212.5979L506.892456,212.235413L506.91626,212.213745L507.298523,211.8797L507.324799,211.857422L507.701202,211.551514L507.731171,211.52832L508.101685,211.250488L508.135376,211.226379L508.500031,210.976685L508.58316,210.92572L508.584412,210.92511L508.693787,210.84845L508.732727,210.82251L509.036499,210.63092L509.097382,210.595703L509.45401,210.40564L509.505005,210.38031L509.914154,210.192383L509.956787,210.173828L510.418488,209.988098L510.510895,209.956299L510.605743,209.934021L510.677155,209.92511L510.686096,209.915527L510.759949,209.851868L510.848663,209.790649L511.423462,209.440186L511.450012,209.424744L512.031616,209.095032L512.058838,209.079895L512.646851,208.771179L512.675293,208.756958L513.269897,208.469238L513.359497,208.431213L513.452881,208.402466L513.548645,208.383362L513.563477,208.381775L513.576782,208.361694L513.323364,208.088501L513.283508,208.042786L512.838806,207.498596L512.803894,207.453186L512.382996,206.870667L512.352417,206.8255L511.954987,206.204041L511.927795,206.159241L511.832916,205.99176L511.591858,205.968872L511.495148,205.954651L511.441681,205.942627L511.127411,205.861328L511.034058,205.83197L510.968262,205.80481L510.681152,205.673767L510.594635,205.628967L510.531586,205.588806L510.272003,205.40863L510.194763,205.348999L510.144989,205.303223L509.912292,205.073914L509.846466,205.001953L509.812164,204.958374L509.607269,204.679626L509.536835,204.568359L509.358826,204.240479L509.308441,204.132019L509.170319,203.779114L509.127991,203.642517L509.051025,203.305969L509.034332,203.2099L509.028168,203.139099L509.012085,202.818665L509.012085,202.721008L509.021362,202.628601L509.066498,202.324829L509.085632,202.229309L509.115631,202.132324L509.221924,201.844604L509.260559,201.754944L509.305359,201.673401L509.472534,201.401733L509.527863,201.321411L509.538666,201.308411L509.532806,201.296082L509.507477,201.270752L509.445648,201.195007L509.391876,201.113708L509.346466,201.027222L509.309998,200.936646L509.283112,200.842712L509.271667,200.786804L509.205231,200.401428L509.193481,200.304688L509.19165,200.207031L509.199677,200.10968L509.208954,200.060547L509.190094,200.003113L509.169403,199.907593L509.161041,199.832214L509.106659,199.780884L509.042694,199.707336L508.98645,199.627625L508.938538,199.542297L508.883545,199.407288L508.732117,198.935364L508.717896,198.886902L508.58316,198.376648L508.572968,198.333069L508.455231,197.785156L508.44751,197.7453L508.347076,197.159424L508.341187,197.121094L508.264862,196.535461L508.259918,196.486633L508.216034,195.93042L508.213257,195.875061L508.202118,195.348206L508.202759,195.286377L508.22406,194.788818L508.229309,194.719604L508.283417,194.251465L508.295441,194.174805L508.382294,193.736267L508.402679,193.653442L508.521973,193.244324L508.552246,193.156555L508.703979,192.776733L508.731201,192.714661L508.927429,192.308899L508.949982,192.265015L509.166931,191.869446L509.19165,191.827087L509.429291,191.441772L509.456177,191.40033L509.714203,191.026123L509.73645,190.995178L509.916626,190.754761L509.941956,190.722656L510.119659,190.505371L510.1521,190.467712L510.328247,190.273621L510.365326,190.234985L510.539001,190.063782L510.585968,190.020508L510.757477,189.872498L510.814972,189.826477L510.984619,189.701294L511.055084,189.653992L511.22226,189.552002L511.309418,189.505066L511.341858,189.489624L511.361938,189.467651L511.468262,189.345276L511.597748,189.190186L511.947266,188.757507L512.158936,188.489563L512.181152,188.462402L512.390381,188.216736L512.438599,188.164185L512.653076,187.947266L512.711182,187.893188L512.930542,187.704956L513.000427,187.650269L513.224792,187.491089L513.307922,187.438599L513.537842,187.308472L513.629639,187.262756L513.864502,187.161072L513.968262,187.122742L514.208374,187.05011L514.31781,187.02417L514.562866,186.980286L514.589722,186.975647L514.88147,186.931763L515.179688,186.866882L515.53418,186.770142L515.888306,186.657043L516.030457,186.59491L516.20105,186.484314L516.634277,186.163513L516.686218,186.127991L516.879639,186.003418L516.921692,185.977783L517.106506,185.871826L517.161194,185.842773L517.337952,185.75592L517.400696,185.727783L517.569092,185.659485L517.64856,185.631042L517.808594,185.581909L517.902832,185.558167L518.054565,185.527832L518.166504,185.51239L518.30957,185.500977L518.439331,185.499451L518.574341,185.506836zM528.737793,256.371613C530.230896,256.471039,531.689087,256.348938,533.114197,256.001831L533.281677,255.951233L533.618286,255.766342C533.640991,255.642487,533.417725,255.464569,532.945007,255.229095C532.529846,255.016296,531.598389,254.719757,530.152405,254.339508C528.669739,254.864532,527.373718,255.168045,526.262634,255.246552L522.84729,255.077347C522.880432,255.492493,523.019958,255.789017,523.267639,255.968689C523.513611,256.136139,524.019409,256.219849,524.781677,256.219849L525.219543,255.715759L525.254395,255.682617L525.303223,255.700058C526.616699,256.045441,527.760986,256.270447,528.737793,256.371613zM506.334015,257.008301C505.784546,256.975128,505.252533,256.846069,504.736237,256.622803C504.331543,257.383301,504.141418,257.904846,504.164093,258.183929C504.21991,259.179932,504.842621,259.762512,506.032257,259.929993C506.749146,260.031158,507.558502,259.795654,508.455078,259.225281C509.196411,258.766541,509.690033,258.330444,509.935974,257.915314C510.082489,257.646698,510.115631,257.294342,510.03714,256.858276L506.334015,257.008301zM535.723694,232.762543L535.622498,232.645676L535.015503,232.040405C534.678833,232.656143,534.281128,233.177689,533.820679,233.601547C533.238037,234.128326,532.5979,234.44754,531.901917,234.559174L529.646545,234.492889C529.433716,234.928955,529.343018,235.276077,529.37793,235.532486C529.433716,236.036591,529.562805,236.388947,529.765137,236.591278C529.899475,236.713379,530.162842,236.826752,530.555298,236.926178L530.58844,236.943634L530.740234,236.910492L530.891968,236.826752C531.04895,236.502319,531.099548,236.216248,531.043701,235.970306C530.919861,235.701691,530.904175,235.511566,530.993164,235.398178L531.127441,235.349335C531.284424,235.382477,531.408264,235.555161,531.498962,235.869141C531.666443,236.338348,531.689087,236.713379,531.565247,236.994202C531.498962,237.138977,531.46936,237.341324,531.481567,237.597733C531.481567,237.845428,531.519897,238.063461,531.598389,238.253586C531.666443,238.443726,531.76239,238.567566,531.88446,238.623383C531.952515,238.623383,532.05365,238.5728,532.187988,238.471634C532.435669,238.291962,532.658936,238.051254,532.861267,237.749496C533.108948,237.391907,533.248535,237.0448,533.281677,236.708145L533.299133,236.692444L533.484009,236.507553C533.539795,236.495346,533.595642,236.512787,533.653198,236.558136L533.736938,236.641861C533.81543,236.831985,533.782288,237.111084,533.635742,237.480865L533.567749,237.766937C533.871216,237.643097,534.152039,237.447723,534.410217,237.179108C534.713745,236.87735,534.921326,236.579071,535.032959,236.28952C535.11145,236.087173,535.167236,235.80809,535.200378,235.448761L535.200378,235.43306C535.223083,235.298752,535.273621,235.230728,535.352173,235.230728C535.453308,235.208054,535.554504,235.276077,535.65564,235.43306L535.65564,235.483643L535.673096,235.549927C535.73938,235.818558,535.767273,236.041824,535.756836,236.221497C535.969604,235.998215,536.149292,235.740051,536.295776,235.448761C536.508606,235.023163,536.597595,234.609756,536.564453,234.206818C536.553955,233.938202,536.273132,233.456772,535.723694,232.762543zM498.592804,233.434097L497.884644,234.123108L497.783447,234.23996C497.234009,234.911514,496.953186,235.387711,496.942719,235.666809C496.909576,236.069733,496.998535,236.484879,497.211334,236.910492C497.368317,237.222717,497.547974,237.480865,497.750305,237.683197L497.834045,237.011658L497.851501,236.943634L497.851501,236.926178L497.868927,236.910492C497.968353,236.753494,498.064301,236.680237,498.154999,236.692444C498.243958,236.713379,498.294525,236.786636,498.304993,236.910492L498.322449,236.910492L498.474213,237.749496C498.585846,238.040787,498.793396,238.34256,499.096924,238.656525C499.355072,238.914673,499.635895,239.104813,499.937683,239.226913L499.871399,238.942596C499.737061,238.595474,499.702179,238.319885,499.770203,238.119293L499.770203,238.101837L499.787659,238.101837L499.853943,238.035553L500.023132,237.98497C500.101624,237.98497,500.167908,238.040787,500.225464,238.15242L500.225464,238.185562C500.258606,238.522217,500.398163,238.869324,500.645844,239.226913L501.334839,239.93161L501.620911,240.1008C501.744751,240.032776,501.845917,239.903702,501.924438,239.713562C502.00293,239.523438,502.04303,239.305405,502.04303,239.059448C502.04303,238.813507,502.015137,238.616409,501.957581,238.471634C501.845917,238.248367,501.863373,237.866364,502.008148,237.329117C502.098846,237.016891,502.222687,236.847687,502.3797,236.826752L502.531433,236.87735C502.597717,236.976761,502.575043,237.166901,502.463409,237.447723C502.41806,237.726822,502.473877,238.012878,502.630859,238.304169L502.766907,238.387909L502.916931,238.40535L502.951813,238.40535C503.344269,238.291962,503.607666,238.175095,503.741974,238.051254C503.944305,237.86113,504.073395,237.508774,504.129211,236.994202C504.164093,236.702911,504.055969,236.322662,503.809998,235.8517C503.237885,235.998215,502.519226,236.008682,501.655792,235.886581C500.970276,235.773209,500.342346,235.466202,499.770203,234.962097C499.309723,234.548706,498.917267,234.039368,498.592804,233.434097zM512.915222,189.088821C512.2995,189.872009,511.955872,190.274948,511.889587,190.297623C511.451782,190.47728,510.991272,190.902893,510.508118,191.574448C510.150543,192.066345,509.847015,192.587875,509.599335,193.13559C509.151062,194.108917,509.049866,195.396194,509.297577,196.997467C509.419678,197.803329,509.588867,198.509766,509.801666,199.113297C510.003998,198.183594,510.452301,197.384705,511.148254,196.71315L512.477417,195.671799C512.119873,195.403183,511.816345,195.106644,511.568634,194.782211C511.231995,194.344391,511.092468,193.96936,511.148254,193.657135C511.226776,193.163498,511.41864,192.760574,511.720398,192.446594C512.125061,192.010513,512.684998,191.843063,513.403625,191.944244C513.628662,191.977371,514.043823,192.134369,514.649048,192.413452C515.177612,192.659393,515.524719,192.765808,515.693909,192.732666L516.989929,191.473282C517.719055,190.735443,518.291138,190.459839,518.706299,190.649963L519.278442,191.01976L519.83313,191.372101L520.642456,191.876205L521.247742,191.95993L521.701294,191.726196C522.083252,191.546539,522.330933,191.450607,522.442566,191.44014C522.700745,191.394775,523.009521,191.478516,523.368835,191.691315C523.581604,191.815155,523.946167,192.205887,524.462463,192.866974L525.270081,193.875168C525.618958,194.187408,525.976563,194.384506,526.348083,194.462997C526.763245,194.541504,527.110352,194.45079,527.391174,194.194382C527.806335,193.812378,528.097595,193.297806,528.266785,192.648926C528.423767,192.033203,528.418579,191.478516,528.24939,190.986618C528.104614,190.606354,527.890015,190.274948,527.609192,189.99585C527.654541,190.409256,527.530701,190.728455,527.239441,190.953476L527.054504,191.087784C526.763245,191.255234,526.449219,191.328506,526.11261,191.305817L525.960815,191.288376C525.477661,191.222092,525.067749,190.986618,524.73114,190.583679L523.771729,189.509201C523.300781,189.027771,522.936218,188.753922,522.678101,188.685883C522.353638,188.607391,521.903625,188.65274,521.331482,188.820206C520.870972,188.966721,520.54657,188.938812,520.354675,188.736481L519.782532,187.913162C519.199951,186.995667,518.779541,186.514236,518.521423,186.470627C518.172546,186.425278,517.734741,186.58226,517.207947,186.93985L516.752686,187.276489C516.574768,187.410812,516.40033,187.505005,516.23114,187.560822C515.636353,187.763153,515.137451,187.885254,514.732788,187.930603C514.071716,188.009094,513.466431,188.394592,512.915222,189.088821zM525.186401,210.916962L525.067749,211.086151C524.765991,211.443741,524.181641,211.773407,523.318237,212.07692L523.267639,212.110062L523.133362,212.160645C522.997253,212.216461,522.964111,212.356003,523.032166,212.579285C523.176941,212.971741,523.391479,213.772369,523.670593,214.981171C524.029907,216.503952,524.288086,217.857513,524.445068,219.04364C524.591553,220.208832,524.670044,221.663574,524.680542,223.409622C524.692749,224.463181,524.6875,225.335327,524.664856,226.029556L524.6474,226.449936C525.163696,226.359222,525.634644,226.20224,526.062012,225.978973L526.145752,225.274277C526.358521,223.381714,526.593994,221.982788,526.852173,221.075745L527.963318,217.550522L528.216248,217.601105L527.272583,222.233963C527.07196,223.242172,526.892273,224.529465,526.735291,226.09584L526.700439,226.650528L526.953369,227.053467C527.760986,228.386108,528.456909,229.846069,529.04126,231.436874C529.355225,232.298553,529.595947,233.071289,529.765137,233.753311L531.919373,233.837036C532.603149,233.725403,533.215393,233.322464,533.754395,232.628235C534.078796,232.202621,534.319519,231.77179,534.476501,231.335709C534.544556,231.178726,534.544556,230.93277,534.476501,230.59613L534.460815,230.446121C534.281128,229.09079,534.005554,227.646515,533.635742,226.113281C533.007813,223.561371,532.210693,221.1996,531.246094,219.027954C530.236145,216.777802,529.018616,214.846863,527.593506,213.235138C526.819031,212.328094,526.016663,211.555374,525.186401,210.916962zM524.56366,210.749512L524.143311,210.329132C523.581604,210.655319,523.014709,210.911728,522.442566,211.101852C521.612305,212.692657,520.08606,213.229904,517.863831,212.713593C516.921875,212.490326,516.074158,212.087387,515.322388,211.504791C514.514771,210.878586,513.97052,210.156448,513.689697,209.338379C512.892578,209.70816,512.112854,210.133774,511.350616,210.615204C511.889587,211.164658,512.651855,211.633865,513.639099,212.026337C514.380432,212.317627,514.970032,212.485077,515.406128,212.528687C515.765442,212.574036,516.046265,212.692657,516.248596,212.882782C516.438721,213.060699,516.574768,213.341537,516.653259,213.721786C516.989929,215.209686,517.248047,216.838852,517.426025,218.607574C517.516724,219.547745,517.57251,220.981567,517.595215,222.905518C517.605652,224.79808,517.577759,226.102814,517.511475,226.817978C517.48877,226.99765,517.398071,227.1651,517.241089,227.322083C517.073669,227.489532,516.893982,227.580231,516.702087,227.590698C516.086365,227.646515,514.772949,227.613373,512.763489,227.489532L509.196411,227.053467C509.28537,228.890198,509.262695,230.871735,509.128357,232.998016C510.082489,233.411423,511.41864,233.748077,513.13501,234.004486L517.544617,234.40741L517.848145,234.40741C519.149353,234.351593,520.905884,234.095184,523.115906,233.636444L525.758484,232.87941C525.690491,230.864746,525.763733,228.794266,525.976563,226.667969C525.461975,226.880768,525.045105,227.002869,524.73114,227.037766C524.507874,227.070892,524.338623,227.030792,524.22699,226.919144C524.092712,226.797043,524.036865,226.505753,524.0578,226.046997L524.0578,225.996414L524.092712,223.427063C524.070007,221.724625,523.986328,220.287323,523.839783,219.111664C523.693237,217.925552,523.43512,216.565002,523.065308,215.031754L522.475708,212.781616C522.38678,212.535675,522.381531,212.300186,522.460022,212.07692C522.538513,211.851898,522.678101,211.694916,522.880432,211.605957L523.09845,211.539673L523.115906,211.522232C523.845032,211.253616,524.328186,210.995453,524.56366,210.749512zM499.937683,227.440689C499.545197,229.040207,499.271332,230.484497,499.114349,231.77179L499.079468,231.923538C499.035858,232.27066,499.035858,232.516602,499.079468,232.661377C499.271332,233.132339,499.517303,233.563171,499.820801,233.955643C500.359802,234.648132,500.970276,235.051056,501.655792,235.164444L503.809998,235.080719L504.533905,232.762543C505.106018,231.173492,505.802002,229.711761,506.620056,228.380875C507.473022,226.969727,508.444611,225.733032,509.533051,224.669006L510.912781,223.460205L511.08197,223.645096L510.525543,224.334106L509.128357,226.247589L509.145813,226.432495L512.814087,226.886002C514.654297,227.030792,515.934631,227.065674,516.653259,226.987183L516.82074,226.903442L516.921875,226.769135C516.977722,226.052231,517.000366,224.764938,516.989929,222.905518C516.967224,220.99202,516.911438,219.575653,516.82074,218.658157C516.663757,216.957458,516.410828,215.350967,516.063721,213.838654C516.007874,213.592712,515.929382,213.420029,515.828247,213.318863C515.727051,213.217697,515.570068,213.156647,515.357239,213.133957C514.861877,213.078156,514.218262,212.89325,513.421082,212.579285C512.264648,212.120529,511.383759,211.555374,510.778473,210.88382C510.127869,211.129761,509.61676,211.38269,509.246979,211.639099L509.077789,211.757721L509.044647,211.773407C508.080048,212.401367,507.052673,213.32933,505.964203,214.560791C504.539124,216.21788,503.326843,218.154053,502.329102,220.371063C501.352295,222.542709,500.555145,224.899246,499.937683,227.440689zM513.436768,192.580902C512.808838,192.491943,512.360535,192.793716,512.091919,193.487946C511.811096,194.215317,512.135559,194.848495,513.067017,195.385742L513.201294,195.537491C513.269348,195.649124,513.229187,195.743317,513.084412,195.821808C512.365784,196.236954,511.826813,196.60675,511.467468,196.931183C510.570923,197.75972,510.12088,198.699905,510.12088,199.751709C510.469727,198.945847,510.930237,198.218475,511.50235,197.567856C512.186096,196.875366,512.641357,196.488129,512.864624,196.409637C513.021667,196.353821,513.129761,196.376495,513.185608,196.477661C513.251892,196.578827,513.223999,196.662567,513.100159,196.728851L512.664063,197.065491L511.788422,197.853912C511.249451,198.34581,510.705231,199.141205,510.155762,200.238373L510.222046,200.623856C510.649414,199.729034,511.137817,199.024338,511.687256,198.509766C512.125061,198.084167,512.500122,197.82077,512.814087,197.719604C512.950134,197.674255,513.021667,197.719604,513.033875,197.853912C513.056519,198.000443,512.983276,198.122543,512.814087,198.223709C512.489624,198.403366,512.208801,198.603958,511.973328,198.82724C511.568634,199.230164,511.04187,199.908691,510.391235,200.859344L510.45752,200.876785L510.492401,200.927368C510.593567,200.937836,510.682526,200.965744,510.761047,201.011093C510.91803,201.100052,510.935455,201.23436,510.811615,201.414032C509.958649,202.02977,509.756317,202.818192,510.20636,203.781036C510.644165,204.721222,511.373291,205.136353,512.393677,205.024719C513.358276,206.837051,514.575806,208.235977,516.046265,209.221497C516.428284,209.467453,516.388123,209.568619,515.929382,209.52327C515.456665,209.47966,514.947327,209.261627,514.396179,208.869156C514.497314,209.910507,515.283997,210.794861,516.752686,211.522232C518.190002,212.226929,519.266235,212.350769,519.984863,211.892029L518.891235,211.673981C518.329529,211.494324,518.066162,211.360016,518.099304,211.269318L519.159851,211.354782C520.113953,211.387924,521.191956,211.152435,522.392029,210.648346C523.019958,210.391922,523.649658,210.022141,524.277588,209.54071L524.378784,209.439545L524.39447,209.456985C525.81958,208.304001,526.846924,206.776001,527.474915,204.872971C528.092346,203.015289,528.226685,201.140167,527.879578,199.247604C527.621399,197.836472,527.065002,196.386963,526.213745,194.899078C525.763733,194.820587,525.325928,194.585098,524.90033,194.194382L524.075256,193.15303C523.571167,192.491943,523.234497,192.111694,523.065308,192.010513L522.156555,192.043655L521.566956,192.329727L520.523865,192.397751C520.255249,192.340195,519.911621,192.195419,519.49646,191.95993C519.08136,191.726196,518.610352,191.675613,518.083618,191.809921C517.534119,191.965164,517.02832,192.301819,516.56781,192.816391C516.35498,193.051865,516.079407,193.158264,515.742737,193.13559L514.901978,192.934998C514.633362,192.821625,514.144958,192.704742,513.436768,192.580902zM512.259399,200.658752L512.664063,200.339539C512.786133,200.283722,512.876892,200.31163,512.932678,200.423264C513.000732,200.547119,512.978027,200.636078,512.864624,200.691895L512.62915,200.876785C512.484375,201.021561,512.405884,201.145401,512.393677,201.246582C512.371033,201.368683,512.292542,201.429733,512.158203,201.429733C512.034363,201.419266,511.978546,201.330307,511.990753,201.161102C512.023926,200.970978,512.112854,200.803528,512.259399,200.658752zM513.000732,199.146439C513.056519,199.259827,513.00592,199.364471,512.848938,199.465652L512.191345,199.886017L511.654114,200.473846C511.451782,200.686661,511.338379,200.737244,511.317474,200.623856C511.305267,200.534897,511.361084,200.383148,511.484924,200.172089L511.922729,199.59996C512.135559,199.376694,512.416382,199.186554,512.763489,199.029572C512.864624,198.984222,512.943176,199.024338,513.000732,199.146439zM521.38208,207.189392L521.668152,207.138809L521.971619,207.206848L523.082764,207.341156C523.183899,207.351624,523.239746,207.379517,523.250183,207.424881L523.115906,207.541748L522.543762,207.827805L521.533813,207.810364L521.29834,207.642914C521.230286,207.564423,521.207642,207.480698,521.230286,207.391739L521.38208,207.189392zM524.495605,195.755524C524.383972,195.743317,524.293274,195.699707,524.22699,195.621216C524.158997,195.530518,524.136292,195.431091,524.158997,195.319458L524.209595,194.982803C524.232239,194.87117,524.288086,194.797913,524.378784,194.764771L524.6474,194.797913L525.910278,195.621216L526.044556,195.771225L525.842224,195.821808L524.495605,195.755524zM518.184753,195.385742L517.544617,195.636917L516.803284,196.039841C516.545105,196.196838,516.382935,196.270096,516.31665,196.259628C516.238159,195.97879,516.438721,195.5811,516.921875,195.066528L517.663208,194.361832C517.853333,194.250198,517.999878,194.288574,518.099304,194.478699L518.336548,194.815353C518.49353,195.03862,518.549316,195.185135,518.503967,195.251419L518.184753,195.385742zM525.826538,198.340576L525.892822,198.324875C526.140503,198.3022,526.307983,198.368484,526.398682,198.525467C526.48761,198.65979,526.470154,198.839447,526.348083,199.062714C526.201538,199.275513,525.993958,199.460419,525.725342,199.617401C525.467224,199.784851,525.209045,199.868576,524.950867,199.868576C524.692749,199.891251,524.52356,199.8302,524.445068,199.683685C524.343872,199.549377,524.366577,199.37146,524.513062,199.146439L524.6474,198.961548C524.759033,198.816772,524.910767,198.687698,525.102661,198.57605C525.360779,198.431274,525.601501,198.352783,525.826538,198.340576zM518.673157,198.155685L518.706299,198.155685C518.929565,198.155685,519.08136,198.223709,519.159851,198.358017C519.260986,198.492325,519.2453,198.665009,519.109253,198.877823C518.974915,199.102829,518.772583,199.298203,518.503967,199.465652L518.420227,199.516235L518.099304,199.650543L517.712036,199.718567C517.466125,199.729034,517.291687,199.66275,517.190491,199.516235C517.112,199.37146,517.139954,199.191788,517.276001,198.978989L517.511475,198.677231L517.881287,198.4086C518.139404,198.251617,518.402832,198.167892,518.673157,198.155685zM523.907837,201.178543C523.918274,201.279724,523.895569,201.368683,523.839783,201.447174L523.065308,202.539093C522.93103,202.696091,522.756592,202.757141,522.543762,202.723999L522.25769,202.640274L522.088501,202.505951C522.067566,202.437927,522.083252,202.36467,522.139099,202.286179L522.76178,201.464615C522.897827,201.284943,522.913574,201.094818,522.812378,200.892487L522.123413,199.549377C521.853027,199.001663,521.63501,198.431274,521.46582,197.836472L521.450073,197.602737L521.55127,197.484131C521.662903,197.461456,521.769287,197.557388,521.870483,197.770187L522.526306,199.130737L523.822327,200.909927C523.878174,200.977951,523.907837,201.06691,523.907837,201.178543zM518.807495,202.354202C518.840637,202.387344,518.835388,202.443161,518.790039,202.521652L518.587708,203.058899C518.544067,203.13739,518.559814,203.228104,518.638306,203.327515L518.891235,203.512421C520.41748,204.105484,521.561707,204.447357,522.323975,204.536316L524.293274,204.452591L525.421875,204.2677C525.510803,204.257233,525.589294,204.217117,525.657349,204.150833L525.741089,203.899658L525.741089,203.664169L525.77594,203.496719C525.81958,203.484512,525.870117,203.512421,525.925964,203.580444L526.532959,204.351425L526.634155,204.620041L526.566101,204.890411L525.826538,205.998047C525.713135,206.165497,525.657349,206.142822,525.657349,205.930008L525.657349,205.779999C525.669556,205.689301,525.639893,205.617783,525.573608,205.561966L525.353821,205.527084L524.277588,206.132355C523.424622,206.535278,522.650146,206.730652,521.954224,206.720184C521.270447,206.720184,520.366882,206.388763,519.2453,205.729416L517.762634,204.721222C517.562073,204.642731,517.392822,204.693314,517.258545,204.872971L517.241089,205.645691L517.089355,205.745117L516.989929,205.577667L516.702087,204.049667L516.752686,203.781036L516.939331,203.563004L518.638306,202.387344L518.807495,202.354202zM518.369629,203.765335C518.200439,203.753128,518.043457,203.803711,517.898682,203.915344C517.752197,204.026993,517.724243,204.150833,517.813232,204.285141L518.083618,204.536316C519.306335,205.20787,520.147095,205.62825,520.607605,205.7957L522.004761,206.013733L523.351379,205.930008L525.43927,205.242767C525.596313,205.20787,525.707947,205.08577,525.77594,204.872971C525.831787,204.682846,525.718384,204.586899,525.43927,204.586899L524.293274,204.771805L522.156555,204.85553C521.270447,204.777039,520.131409,204.442123,518.739441,203.84906L518.369629,203.765335zM513.588562,234.609756C511.512817,234.285309,509.970856,233.915527,508.960907,233.502136C508.735901,234.004486,508.214355,235.605743,507.394531,238.304169C506.452637,241.370651,505.812469,243.709747,505.47583,245.323227C505.128693,247.001251,504.830414,249.167664,504.584473,251.82074C504.359467,254.227875,504.286194,255.530853,504.364685,255.7332C504.410034,255.844833,504.685638,255.9617,505.189758,256.085541L506.654968,256.303589C507.181732,256.336731,507.849792,256.326263,508.65741,256.270447C509.656891,256.202423,510.307526,256.080322,510.609283,255.90065C510.699982,255.811691,511.04187,254.881989,511.636658,253.113266L513.286743,248.562393C514.172852,246.402954,515.350281,243.985352,516.82074,241.309601L518.790039,237.901245L518.941772,237.967529L518.235352,239.882767L519.144104,242.04744C519.761597,243.559753,520.255249,244.91333,520.625061,246.111664C521.219849,247.992004,521.898376,250.746246,522.660645,254.37265L522.796692,254.473816L525.960815,254.623825L527.91272,254.37265C528.552856,254.192993,529.079651,253.903442,529.494812,253.500488C528.78833,248.708923,528.272034,245.333694,527.945862,243.374847C527.745239,242.153839,527.351074,240.290924,526.768433,237.782623L525.826538,233.786438L524.075256,234.123108C522.022217,234.738831,519.868042,235.045837,517.61261,235.045837C516.423035,235.045837,515.081665,234.901062,513.588562,234.609756z"/>
</svg>
