<?xml version="1.0" encoding="UTF-8"?>
<svg xmlns="http://www.w3.org/2000/svg" xmlns:xlink="http://www.w3.org/1999/xlink" width="17.160mm" height="10.830mm" viewBox="-470.485870 187.516968 17.159515 10.829773">
    <path transform="matrix(-1,0,0,1,0,0)" style="stroke:none;fill:#000000;fill-rule:evenodd" d="M466.793701,197.003494C468.292938,196.095581,469.461578,194.868729,470.297302,193.318298L470.48587,192.938843L470.297302,192.578003C469.461578,191.01825,468.292938,189.782104,466.793701,188.876511C465.292175,187.968597,463.667236,187.516968,461.914276,187.516968C460.151978,187.516968,458.520081,187.968597,457.018524,188.876511C455.519318,189.782104,454.350647,191.01825,453.514923,192.578003L453.326355,192.938843L453.514923,193.318298C454.350647,194.868729,455.519318,196.095581,457.018524,197.003494C458.520081,197.899765,460.151978,198.346741,461.914276,198.346741C463.667236,198.346741,465.292175,197.899765,466.793701,197.003494zM460.694397,190.426941C461.12973,190.426941,461.509186,190.587585,461.828125,190.908844C462.137756,191.21846,462.293732,191.597916,462.293732,192.044891C462.293732,192.491867,462.137756,192.875977,461.828125,193.19725C461.509186,193.509186,461.12973,193.662842,460.694397,193.662842C460.249756,193.662842,459.865631,193.509186,459.544373,193.19725C459.234772,192.875977,459.081116,192.491867,459.081116,192.044891C459.081116,191.597916,459.234772,191.21846,459.544373,190.908844C459.865631,190.587585,460.249756,190.426941,460.694397,190.426941zM460.489532,189.23735C459.732941,189.526016,459.120697,190.000931,458.650452,190.666733C458.170868,191.344177,457.928772,192.103088,457.928772,192.938843C457.928772,193.776917,458.170868,194.535828,458.650452,195.213272C459.120697,195.867432,459.732941,196.337692,460.489532,196.624023C459.379089,196.428482,458.359436,196.011765,457.430573,195.366913C456.504028,194.724396,455.742798,193.916595,455.14682,192.938843C455.742798,191.963409,456.504028,191.155609,457.430573,190.513092C458.359436,189.86824,459.379089,189.44455,460.489532,189.23735zM465.161804,195.213272C465.641357,194.535828,465.883484,193.776917,465.883484,192.938843C465.883484,192.103088,465.641357,191.344177,465.161804,190.666733C464.691528,190.000931,464.079285,189.526016,463.322693,189.23735C464.433136,189.44455,465.452789,189.86824,466.381653,190.513092C467.319824,191.155609,468.081085,191.963409,468.665405,192.938843C468.081085,193.916595,467.319824,194.724396,466.381653,195.366913C465.452789,196.011765,464.433136,196.428482,463.322693,196.624023C464.079285,196.337692,464.691528,195.867432,465.161804,195.213272z"/>
</svg>
