<?xml version="1.0" encoding="UTF-8"?>
<svg xmlns="http://www.w3.org/2000/svg" xmlns:xlink="http://www.w3.org/1999/xlink" width="14.399mm" height="17.134mm" viewBox="-481.670074 211.441910 14.399323 17.134003">
    <path transform="matrix(-1,0,0,1,0,0)" style="stroke:none;fill:#000000;fill-rule:evenodd" d="M472.468323,213.388107C472.38916,212.147293,472.337952,211.500122,472.314667,211.44191L471.302002,211.546677L471.439331,213.457947C471.541779,214.961838,471.592987,216.326035,471.592987,217.555206C471.592987,218.612122,471.381134,219.943726,470.957458,221.550049C470.901581,221.515121,470.843384,221.498825,470.785187,221.498825L469.427948,221.687393C468.513062,221.97374,467.893829,222.532455,467.57489,223.358887C467.276917,224.115479,467.195435,224.969864,467.332764,225.924332L467.642395,227.197739C467.700592,227.37001,467.814667,227.472443,467.986938,227.50737C468.168518,227.542282,468.324493,227.50737,468.450195,227.404938C468.645752,227.244293,468.890198,227.127899,469.188171,227.060394C469.234741,227.276886,469.407013,227.460815,469.704987,227.609802C470.000641,227.761108,470.349854,227.835617,470.752594,227.835617L471.558075,227.695923C472.393829,228.236023,473.315704,228.529358,474.32373,228.575912L474.617035,228.575912C475.566864,228.529358,476.460815,228.259308,477.29657,227.765778L477.897186,227.835617C478.320892,227.835617,478.681702,227.754135,478.979706,227.593506C479.277679,227.432861,479.438324,227.23732,479.461609,227.009171C479.72467,227.041763,479.969086,227.116272,480.199554,227.232666C480.348572,227.300171,480.44632,227.358368,480.49057,227.404938C480.616272,227.50737,480.772247,227.542282,480.953827,227.50737C481.126099,227.472443,481.240173,227.37001,481.29837,227.197739C481.43573,226.829926,481.538147,226.406219,481.608002,225.924332C481.745361,224.969864,481.663879,224.115479,481.368225,223.358887C481.046967,222.532455,480.427704,221.97374,479.512817,221.687393C479.042542,221.538406,478.590912,221.47554,478.155579,221.498825L477.983307,221.550049C477.559631,219.943726,477.347778,218.612122,477.347778,217.555206C477.347778,216.326035,477.394348,214.961838,477.485138,213.457947L477.638763,211.546677L476.609802,211.44191L476.453827,213.388107C476.363037,214.92691,476.316467,216.314392,476.316467,217.555206C476.316467,218.828629,476.567902,220.367432,477.07309,222.169281L477.88089,224.615997C477.994965,224.879059,478.19516,224.981506,478.481506,224.925629C478.595581,224.902344,478.693359,224.839493,478.772522,224.734726C478.853973,224.632294,478.888916,224.518234,478.877258,224.390182L478.739929,222.565048C479.598938,222.702393,480.153015,223.093506,480.404419,223.736023C480.679138,224.460022,480.71405,225.291122,480.509186,226.233948C479.878296,225.945282,479.203186,225.877777,478.481506,226.026764L478.274323,226.096603L477.897186,226.061676C477.461853,226.061676,477.089386,226.147827,476.779755,226.320099C476.472443,226.492371,476.316467,226.704208,476.316467,226.955627L476.335114,227.111603C475.774048,227.386307,475.150146,227.53064,474.46106,227.542282C473.671875,227.53064,472.957184,227.335098,472.314667,226.955627L472.330963,226.955627C472.330963,226.704208,472.177307,226.492371,471.867706,226.320099C471.558075,226.147827,471.187927,226.061676,470.752594,226.061676L470.596619,226.077988L470.459259,226.026764C469.737579,225.877777,469.062469,225.945282,468.433899,226.233948C468.226715,225.291122,468.261627,224.460022,468.536346,223.736023C468.787781,223.093506,469.344147,222.702393,470.200867,222.565048L470.063507,224.390182C470.054199,224.518234,470.086792,224.632294,470.168274,224.734726L470.459259,224.925629C470.745605,224.981506,470.945801,224.879059,471.059875,224.615997C471.346222,223.891998,471.616272,223.077209,471.867706,222.169281C472.372864,220.367432,472.624298,218.828629,472.624298,217.555206C472.624298,216.293442,472.573059,214.903641,472.468323,213.388107z"/>
</svg>
