<?xml version="1.0" encoding="UTF-8"?>
<svg xmlns="http://www.w3.org/2000/svg" xmlns:xlink="http://www.w3.org/1999/xlink" width="17.951mm" height="17.032mm" viewBox="-486.108734 241.452393 17.951050 17.031586">
    <path transform="matrix(-1,0,0,1,0,0)" style="stroke:none;fill:#000000;fill-rule:evenodd" d="M482.93103,242.29512L482.914734,242.260193L482.914734,242.29512L480.011749,242.397552L476.901581,242.311417L474.42926,242.416168L473.947388,242.483673L473.1745,242.655945L473.209412,242.655945L473.072052,242.674576L471.749756,241.452393L471.50766,241.62233L471.319092,241.708466C469.486969,242.777008,468.434723,244.124908,468.157684,245.756821C468.548798,245.973328,468.828156,246.359772,469.000427,246.90918L469.223907,248.012634L469.670868,249.04393L470.341339,250.163681C470.671906,250.876038,471.209656,251.54184,471.95462,252.161087L472.950989,252.86647L473.535309,255.20842C474.02652,256.84964,474.543335,257.855316,475.081085,258.223145L475.097382,258.223145L475.544373,258.462921C476.037903,258.55603,476.391754,258.353516,476.610596,257.859985C476.81543,257.413025,476.827087,256.98233,476.643158,256.570282L476.317261,255.380676L475.956421,254.177124L475.562988,253.006134C475.562988,252.947937,475.653778,253.085297,475.837677,253.418198C476.477875,254.589172,476.936493,255.313171,477.211212,255.587875L477.932861,256.672699L478.722046,257.722626C479.02005,258.137024,479.432098,258.274353,479.958221,258.137024C480.509949,258.008972,480.805603,257.687714,480.852173,257.173218L480.81723,256.914825C480.796295,256.672699,480.733429,256.437592,480.628662,256.207123C480.447083,255.70195,480.090912,255.066406,479.564789,254.295837L478.379852,252.419495L477.949158,251.749039L480.45639,253.96994C481.338715,254.819641,481.992859,255.352753,482.416565,255.571579L483.017181,255.776443L483.222046,255.776443L483.308167,255.760147C483.720215,255.70195,484.048462,255.422577,484.288269,254.917419L484.288269,254.761444C484.323181,254.475098,484.248688,254.181778,484.064758,253.883789C483.857574,253.469421,483.445526,253.022446,482.828613,252.540558L481.420197,251.353287L479.599701,249.784225C479.541504,249.763275,479.581085,249.744644,479.718445,249.733002L480.835876,250.214905L483.582886,251.369583L484.786438,251.662903L485.077454,251.662903L485.198486,251.644272L485.456909,251.558136L485.54303,251.523224L485.764191,251.334656L485.868958,251.213608L485.885254,251.181015L485.936462,251.111176L486.038879,250.922607L486.073822,250.782928L486.092438,250.750336L486.108734,250.543152L485.971375,250.147385L485.712982,249.870361L485.147278,249.423386L484.511749,249.04393L484.562958,249.078842L479.941925,246.669388L479.855774,246.63446L479.667206,246.529709L479.341309,246.220093C479.157379,245.933746,479.078247,245.698624,479.101532,245.514709C479.11084,245.412277,479.185333,245.314514,479.322662,245.22139L479.51358,245.118958L479.993134,245.049118L480.044342,245.049118L480.235229,245.067734L481.299133,245.016525C481.757751,244.888489,482.134888,244.660339,482.432861,244.327438C482.649353,244.09697,482.793701,243.729156,482.861206,243.223984L482.879822,243.17276L482.879822,243.035416L482.896118,242.81192L482.93103,242.330032L482.947327,242.346329L482.947327,242.29512L482.93103,242.260193L482.93103,242.29512zM481.934662,243.070328C481.923035,243.368317,481.860168,243.5755,481.746094,243.689575C481.506317,243.931686,480.926666,244.136551,480.011749,244.308807C479.553131,244.343735,479.02005,244.550934,478.412445,244.930389L477.057556,245.894165C476.654816,246.250351,476.312592,246.508759,476.026245,246.669388C475.763184,246.68103,475.618866,246.86261,475.595581,247.218796C475.583954,247.563324,475.763184,247.679733,476.128693,247.563324C476.403381,247.484177,476.775879,247.237411,477.246124,246.823029C477.6698,246.445892,477.956146,246.250351,478.105133,246.238708L479.082886,246.979004C479.462341,247.276993,479.816193,247.484177,480.149109,247.598251L482.449158,248.75293C483.378021,249.211548,484.139252,249.602631,484.735229,249.923904C485.249725,250.152039,485.398712,250.433731,485.18219,250.766632L484.132294,250.801544L482.914734,250.319656L481.694885,249.802841L479.203949,248.769226L479.031677,248.785522L478.996765,248.769226L478.945557,248.804138C478.61496,248.929855,478.431061,249.141693,478.396149,249.439682L478.328613,249.509521L478.396149,249.56073L478.431061,249.681793L479.478638,250.578064L481.608765,252.368271C482.491058,253.092285,483.147552,253.739456,483.582886,254.314468C483.182465,254.910431,482.558563,254.905777,481.711182,254.295837L480.628662,253.315765L479.306366,251.972519C478.803528,251.502274,478.396149,251.190323,478.086517,251.041336L477.450989,250.473297L476.729309,251.041336L476.971405,251.420792L476.936493,251.455719L479.632294,255.587875C479.91864,255.967331,480.102539,256.339813,480.181702,256.707642C480.286469,257.189514,480.107208,257.447937,479.650909,257.482849C479.341309,257.378082,479.043304,257.115021,478.756989,256.688995L478.070221,255.622787L475.493164,251.662903L475.458221,251.593063L475.339508,251.593063L475.167236,251.679199C474.983337,251.702484,474.841309,251.765335,474.736572,251.867767L474.582916,251.937607L474.634125,252.074951C474.599213,252.212311,474.641113,252.379913,474.755188,252.57547L475.940125,256.465515L476.026245,256.947418C476.061188,256.98233,476.077484,257.0289,476.077484,257.087097L476.112396,257.240723L476.112396,257.34317C476.077484,257.562012,475.979706,257.710999,475.819061,257.79248C475.64679,257.894897,475.476868,257.855316,475.304596,257.671417L474.92746,256.98233L474.669037,256.225739L473.637756,253.092285L473.4841,252.661606L473.363037,252.265854L473.158203,252.109863L472.89978,251.92131L472.110596,251.318359C471.067657,250.065903,470.334351,248.871658,469.910645,247.735596L469.635956,246.133957L468.89798,245.463501C469.240204,244.671982,469.663879,243.999191,470.169067,243.449799C470.478699,243.105255,470.837189,242.800293,471.251587,242.537231L471.766052,242.243896L471.95462,242.416168L471.919708,242.416168L472.213043,242.690872L472.45282,242.863144C472.89978,243.230957,473.237335,243.39624,473.465485,243.363663C473.626099,243.144836,473.919434,243.023773,474.34314,243.000488L475.767853,242.965576C476.135681,242.944626,477.108765,242.960907,478.687134,243.019119L481.934662,243.070328zM478.549774,248.045227C478.517181,247.931152,478.458984,247.861313,478.379852,247.840363C478.230865,247.793793,478.121429,247.82872,478.051605,247.942795L477.297333,248.925201C476.564026,249.670151,475.625854,250.273102,474.480469,250.731705L474.394348,250.852768L474.324493,251.076248C474.347778,251.190323,474.473511,251.260162,474.703979,251.283447C475.928467,250.789917,476.936493,250.135742,477.725677,249.320953L478.584717,248.201202L478.549774,248.045227z"/>
</svg>
