<?xml version="1.0" encoding="UTF-8"?>
<svg xmlns="http://www.w3.org/2000/svg" xmlns:xlink="http://www.w3.org/1999/xlink" width="19.006mm" height="15.054mm" viewBox="-454.586853 239.828796 19.006317 15.053711">
    <path transform="matrix(-1,0,0,1,0,0)" style="stroke:none;fill:#000000;fill-rule:evenodd" d="M453.40274,244.085327L452.508789,242.984192L451.375061,241.589737C450.907166,241.072922,450.441559,240.67717,449.98526,240.400146C449.240326,239.941528,448.32309,239.757614,447.235931,239.850739C446.525879,239.918243,445.811218,240.090515,445.089539,240.367554C444.356201,240.090515,443.634552,239.918243,442.9245,239.850739C441.848999,239.757614,440.931763,239.941528,440.17749,240.400146C439.718872,240.67717,439.255615,241.072922,438.78537,241.589737L437.651642,242.984192C436.871765,244.038773,436.31073,244.597488,435.968506,244.653351C435.807861,244.688278,435.686829,244.79071,435.607666,244.962982C435.549469,245.123611,435.579742,245.279587,435.693817,245.428574L436.792603,246.806732C437.307098,247.495819,437.644653,248.024277,437.805298,248.389771C438.126556,249.137039,438.722504,249.784225,439.59317,250.335953C440.291565,251.828186,441.092407,252.959595,441.997986,253.727814C442.889587,254.498383,443.865021,254.882507,444.917267,254.882507L445.26181,254.882507C446.302399,254.882507,447.275513,254.498383,448.181091,253.727814C449.08667,252.959595,449.887482,251.828186,450.585876,250.335953C451.433289,249.784225,452.022247,249.137039,452.355164,248.389771C452.629852,247.782166,453.335236,246.795105,454.468964,245.428574C454.594666,245.279587,454.62262,245.123611,454.552765,244.962982C454.496887,244.79071,454.382813,244.688278,454.210541,244.653351C453.99173,244.618439,453.723999,244.429871,453.40274,244.085327zM447.200989,242.639648C448.220673,242.730438,448.993561,242.925995,449.519684,243.223984C450.357758,243.684921,451.307556,244.304169,452.37146,245.08403L451.342468,245.703278C451.216766,245.382019,451.056152,245.091019,450.860596,244.825623C450.471832,244.27623,449.966644,243.833908,449.349731,243.501007C448.800323,243.203033,448.283508,243.051712,447.803955,243.051712C447.035706,243.051712,446.130127,243.282181,445.089539,243.740784C444.023315,243.282181,443.120056,243.051712,442.375122,243.051712C441.883911,243.051712,441.362427,243.203033,440.813049,243.501007C440.193787,243.833908,439.690948,244.27623,439.299866,244.825623C439.106628,245.102661,438.950653,245.393646,438.836578,245.703278L437.789001,245.08403C438.820282,244.339081,439.770081,243.717514,440.640778,243.223984C441.178528,242.925995,441.956085,242.730438,442.975739,242.639648C443.662476,242.581451,444.372498,242.569824,445.105835,242.604736C445.827515,242.569824,446.525879,242.581451,447.200989,242.639648zM440.452209,249.854065L439.746826,248.09877C439.586182,247.69603,439.518677,247.300262,439.541962,246.90918C439.55127,246.348129,439.73053,245.835968,440.072754,245.377365C440.35907,244.962982,440.738525,244.618439,441.206482,244.343735C441.630157,244.103958,442.02124,243.982895,442.375122,243.982895C442.959442,243.982895,443.657837,244.155167,444.470276,244.49971L444.642578,245.703278C444.744995,246.415634,444.838104,246.77182,444.917267,246.77182L445.26181,246.77182C445.340942,246.77182,445.431763,246.415634,445.536499,245.703278L445.706451,244.49971C446.52124,244.155167,447.219635,243.982895,447.803955,243.982895C448.146179,243.982895,448.534943,244.103958,448.970276,244.343735C449.428894,244.618439,449.80603,244.962982,450.104004,245.377365C450.43689,245.835968,450.613831,246.341141,450.637115,246.892868C450.637115,247.304932,450.56958,247.707672,450.432251,248.09877C450.236694,248.671448,450.001556,249.258102,449.726868,249.854065L449.691956,250.061249C448.432495,252.654633,446.956573,253.951309,445.26181,253.951309L444.917267,253.951309C443.222504,253.951309,441.744232,252.654633,440.484802,250.061249L440.452209,249.854065z"/>
</svg>
