<?xml version="1.0" encoding="UTF-8"?>
<svg xmlns="http://www.w3.org/2000/svg" xmlns:xlink="http://www.w3.org/1999/xlink" width="13.309mm" height="8.515mm" viewBox="-478.727570 200.146545 13.309326 8.514877">
    <path transform="matrix(-1,0,0,1,0,0)" style="stroke:none;fill:#000000;fill-rule:evenodd" d="M471.941528,204.157654C473.95755,203.342865,476.099274,203.149643,478.36673,203.573334C478.641449,203.631531,478.762482,203.491852,478.72757,203.16127C478.681,202.837692,478.527374,202.649124,478.264313,202.590927C475.84787,202.143951,473.568787,202.37442,471.427032,203.279999C469.171234,204.234467,467.52301,205.770935,466.480072,207.896393C466.365997,208.147812,466.433533,208.366638,466.687256,208.550552C466.950317,208.732132,467.143555,208.699539,467.271576,208.445786C468.233032,206.460022,469.790466,205.03064,471.941528,204.157654z"/>
    <path transform="matrix(-1,0,0,1,0,0)" style="stroke:none;fill:#000000;fill-rule:evenodd" d="M472.33728,201.662064C473.14975,201.294235,473.9133,201.11731,474.623352,201.128952C474.886414,201.140594,475.000488,200.979965,474.965546,200.647064C474.930634,200.32579,474.781647,200.158188,474.518585,200.146545C473.682831,200.134903,472.78891,200.342087,471.839081,200.765793C471.175598,201.054459,470.379456,201.496765,469.452911,202.092728C468.547333,202.68869,467.813995,203.240433,467.25296,203.745605C466.496368,204.434677,465.90741,205.16333,465.483704,205.931564C465.346344,206.162033,465.40921,206.369232,465.672272,206.553146C465.94696,206.737045,466.147186,206.706787,466.275208,206.46701C466.994568,205.202911,468.330811,203.976074,470.277008,202.781815C471.180267,202.24173,471.867004,201.869247,472.33728,201.662064z"/>
</svg>
