<?xml version="1.0" encoding="UTF-8"?>
<svg xmlns="http://www.w3.org/2000/svg" xmlns:xlink="http://www.w3.org/1999/xlink" width="13.302mm" height="8.515mm" viewBox="-458.895874 200.146545 13.301544 8.514877">
    <path transform="matrix(-1,0,0,1,0,0)" style="stroke:none;fill:#000000;fill-rule:evenodd" d="M446.057617,202.590927C445.782898,202.649124,445.626923,202.837692,445.59433,203.16127C445.559418,203.491852,445.680481,203.631531,445.95517,203.573334C448.222626,203.149643,450.36203,203.342865,452.378052,204.157654C454.519806,205.03064,456.077209,206.460022,457.050323,208.445786C457.176025,208.699539,457.364594,208.732132,457.618347,208.550552C457.881409,208.366638,457.955902,208.147812,457.841827,207.896393C456.798889,205.770935,455.150696,204.234467,452.894867,203.279999C450.753143,202.37442,448.47403,202.143951,446.057617,202.590927z"/>
    <path transform="matrix(-1,0,0,1,0,0)" style="stroke:none;fill:#000000;fill-rule:evenodd" d="M454.044891,202.781815C454.95047,203.342865,455.681458,203.866653,456.242493,204.348541C457.022369,205.025986,457.622986,205.731369,458.046692,206.46701C458.172394,206.706787,458.36795,206.737045,458.631012,206.553146C458.894073,206.369232,458.963928,206.162033,458.838196,205.931564C458.402863,205.151703,457.806915,204.423035,457.050323,203.745605C456.489288,203.22879,455.762939,202.677063,454.869019,202.092728C453.942474,201.496765,453.146301,201.054459,452.480499,200.765793C451.53067,200.342087,450.639069,200.134903,449.800995,200.146545C449.537933,200.158188,449.384277,200.32579,449.337708,200.647064C449.302795,200.979965,449.423859,201.140594,449.698547,201.128952C450.396973,201.11731,451.158203,201.294235,451.984619,201.662064C452.452576,201.869247,453.139313,202.24173,454.044891,202.781815z"/>
</svg>
