<?xml version="1.0" encoding="UTF-8"?>
<svg xmlns="http://www.w3.org/2000/svg" xmlns:xlink="http://www.w3.org/1999/xlink" width="42.106mm" height="52.275mm" viewBox="-413.544617 184.743179 42.106262 52.275131">
    <path transform="matrix(-1,0,0,1,0,0)" style="stroke:none;fill:#000000;fill-rule:evenodd" d="M375.078064,224.519318L376.290802,224.174133L376.290802,224.17392L378.544434,223.521576L379.733429,223.174835L379.479065,222.845764L379.467224,222.82988L379.218689,222.481339L379.207275,222.464569L378.973053,222.107086L378.962524,222.090073L378.742859,221.724091L378.732788,221.706635L378.527191,221.331711L378.501251,221.27713L378.481995,221.219849L378.469696,221.160568L378.464325,221.100174L378.466125,221.039764L378.473511,220.990112L378.436829,220.9646L378.391418,220.924561L378.351135,220.879364L378.316467,220.829712L378.287842,220.776459L378.27417,220.744476L378.105957,220.304886L378.101257,220.292145L377.942871,219.842712L377.938629,219.829742L377.790314,219.370453L377.786499,219.358612L377.648254,218.891724L377.619629,218.806717L377.603729,218.748108L377.596802,218.70694L377.474213,217.725983L377.470184,217.665588L377.473541,217.605179L377.483826,217.545456L377.501038,217.487518L377.524323,217.433594L377.520081,217.425766L377.496582,217.366943L376.684967,214.930984L376.645142,214.932556L376.44516,214.929642L376.391449,214.925842L376.194366,214.90213L376.141815,214.893173L375.947388,214.848877L375.896606,214.834564L375.705353,214.769684L375.669098,214.755814L375.186584,214.550232L375.153015,214.534576L374.712311,214.307953L374.676727,214.287827L374.277435,214.040405L374.239838,214.014679L373.882355,213.746445L373.844086,213.714691L373.528015,213.42543L373.490204,213.386719L373.215942,213.07666L373.180573,213.03215L372.947693,212.701065L372.916595,212.651184L372.725342,212.2995L372.704529,212.256332L372.572998,211.948959L372.557098,211.90712L372.453094,211.590363L372.441223,211.548294L372.364258,211.222137L372.356232,211.178955L372.306793,210.84317L372.302307,210.801788L372.279938,210.456604L372.278809,210.416107L372.283966,210.06131L372.28598,210.023285L372.31842,209.659088L372.322876,209.623734L372.382629,209.250153L372.388885,209.217484L372.475891,208.834274L372.483734,208.804291L372.598267,208.411682L372.606781,208.385071L372.748383,207.983063L372.757538,207.958679L372.926453,207.547058L372.936279,207.525131L373.132721,207.103897L373.142334,207.083984L373.366028,206.653564L373.375427,206.636353L373.626221,206.196091L373.635834,206.179977L373.914124,205.73056L373.923737,205.71579L374.395996,205.008652L374.408081,204.991196L374.902008,204.314041L374.915222,204.296585L375.431305,203.649399L375.445862,203.632172L375.983856,203.014969L375.999298,202.997955L376.559235,202.410736L376.575562,202.394394L377.15744,201.837143L377.174896,201.821259L377.778687,201.294205L377.797028,201.278992L378.422943,200.781921L378.444427,200.765579L378.684906,200.594452L378.710205,200.577667L378.961853,200.420181L378.988037,200.404739L379.251129,200.261124L379.277069,200.247925L379.435913,200.172531L379.462524,200.149933L379.516418,200.114365L380.03006,199.821091L380.048401,199.811249L380.572113,199.539886L380.590668,199.530716L381.124451,199.280838L381.14325,199.272552L381.687073,199.044159L381.706299,199.036545L382.260223,198.829834L382.279663,198.822906L382.843872,198.637894L382.863098,198.63208L383.437347,198.468552L383.456818,198.463409L384.041138,198.321579L384.062836,198.31665L384.857239,198.160065L384.917175,198.152008L384.977814,198.150879L385.037994,198.156921L385.041351,198.157593L384.891449,197.825836L384.880493,197.799438L384.699524,197.330994L384.690338,197.305267L384.530396,196.814911L384.52301,196.79007L384.458588,196.552719L384.325928,196.506866L384.26239,196.479797L384.070892,196.382919L384.003998,196.342438L383.837799,196.223419L383.773804,196.169067L383.632874,196.028122L383.577637,195.963028L383.461731,195.800171L383.41925,195.728806L383.328644,195.544022L383.300446,195.47377L383.23468,195.267075L383.218353,195.20108L383.177856,194.972443L383.170929,194.914276L383.156616,194.678711L383.157501,194.604218L383.175842,194.388351L383.190826,194.302216L383.242279,194.105576L383.261078,194.047867L383.274933,194.015869L383.358826,193.838913L383.387909,193.785675L383.410522,193.752792L383.527527,193.595306L383.566437,193.548996L383.591705,193.523941L383.741608,193.38591L383.809174,193.333557L383.866669,193.296204L383.862854,193.282562L383.856812,193.245651L383.836243,193.220596L383.803802,193.169357L383.777618,193.114777L383.758148,193.05751L383.745392,192.998444L383.739807,192.938278L383.742035,192.871613L383.764862,192.636719L383.774261,192.576752L383.790588,192.5186L383.813873,192.462677L383.824829,192.442978L383.818787,192.393768L383.818787,192.333374L383.825928,192.273193L383.84137,192.214127L383.824371,192.1931L383.791931,192.141876L383.765991,192.08728L383.746521,192.030014L383.734009,191.970963L383.728638,191.915482L383.71521,191.587524L383.714752,191.561798L383.717896,191.212585L383.718567,191.190445L383.738037,190.820435L383.739594,190.800079L383.775818,190.409027L383.77829,190.387787L383.830872,189.998535L383.8349,189.973022L383.902893,189.608826L383.909149,189.579971L383.993042,189.240387L384.001984,189.208832L384.101563,188.894089L384.114075,188.858963L384.229523,188.569031L384.246063,188.531677L384.377167,188.266357L384.399292,188.226089L384.546265,187.985611L384.574005,187.944885L384.73642,187.729019L384.761047,187.698593L384.961914,187.470184L384.978485,187.452515L385.188782,187.235062L385.206451,187.217621L385.426575,187.011139L385.445587,186.994125L385.675568,186.799057L385.689209,186.787872L385.845581,186.664169L385.863922,186.650299L386.015381,186.541122L386.036835,186.526581L386.182922,186.432175L386.207977,186.416748L386.348694,186.336884L386.380249,186.320557L386.516022,186.255447L386.552948,186.239563L386.68335,186.18924L386.72699,186.174469L386.852264,186.138672L386.904602,186.126816L386.911987,186.125473L387.680634,185.587906L387.68512,185.584991L387.862732,185.463531L387.894287,185.443619L388.070343,185.341156L388.107269,185.321686L388.281525,185.23848L388.324249,185.220352L388.496948,185.156372L388.544617,185.141159L388.715515,185.096191L388.768768,185.085236L388.937897,185.059509L388.994934,185.054138L389.162476,185.047653L389.221771,185.048767L389.373657,185.06041L390.307648,185.091721L390.589966,185.016785L390.925079,184.892395L390.962219,184.880325L391.21701,184.807388L391.271606,184.794861L391.500458,184.755707L391.573151,184.74855L391.775177,184.743179L391.835785,184.745193L391.868896,184.749222L392.044281,184.776962L392.103363,184.789948L392.158386,184.80896L392.214081,184.831772L392.294159,184.873154L392.356598,184.91275L392.405792,184.948105L392.45636,184.995529L392.521027,185.064651L392.570679,185.126617L392.637329,185.224823L392.663971,185.268677L392.732849,185.395966L392.749207,185.428848L392.820099,185.585663L392.83017,185.609604L392.903107,185.795502L392.909607,185.813187L392.984985,186.028168L392.989899,186.042923L393.064636,186.278717L393.238007,186.763718L393.530609,186.777802L393.548279,186.778931L394.096375,186.824341L394.156311,186.83284L394.214691,186.848495L394.246246,186.860138L394.492554,186.9599L394.547363,186.985855L394.613586,187.029251L394.702393,187.097931L394.763,187.153183L394.861877,187.258774L394.894775,187.297699L395.003723,187.440201L395.023621,187.467941L395.142853,187.647583L395.156067,187.668396L395.285156,187.88472L395.293884,187.900146L395.433228,188.153381L395.439941,188.165695L395.5896,188.45607L395.594543,188.466125L395.751343,188.787598L395.805939,188.892746L395.854919,188.968124L395.908173,189.033676L395.960083,189.084457L396.018677,189.129654L396.082428,189.167908L396.151337,189.19899L396.164307,189.203018L396.676605,189.172379L396.68512,189.163422L396.709045,189.120255L396.748199,188.985809L396.768555,188.928757L396.79541,188.874619L396.828491,188.824066L396.867432,188.777527L396.911499,188.736145L396.960266,188.700134L397.012604,188.670151L397.068542,188.646439L397.126495,188.629654L397.186218,188.619812L397.246826,188.616913L397.307007,188.621384L397.366516,188.632797L397.424225,188.651138L397.479279,188.676422L397.530945,188.707733L397.578583,188.745087L397.621552,188.787598L397.659119,188.835022L397.696259,188.896774L397.786194,189.073502L397.809235,189.125626L397.878143,189.309067L397.895142,189.363647L397.943237,189.553802L397.954193,189.61084L397.980835,189.808151L397.985291,189.885773L397.980591,190.14505L397.972534,190.227386L397.924438,190.492035L397.90567,190.564514L397.814148,190.834976L397.789337,190.89537L397.654663,191.171646L397.628937,191.218185L397.460693,191.487976L397.418884,191.545685L397.2341,191.766495L397.249969,191.790207L397.277496,191.844116L397.296722,191.894455L397.326263,191.986618L397.341248,192.045227L397.348846,192.100937L397.358704,192.221283L397.359375,192.296234L397.350189,192.437622L397.342377,192.499802L397.31485,192.645218L397.30188,192.698456L397.25647,192.848343L397.240143,192.893753L397.177032,193.047882L397.145508,193.111877L397.061371,193.256165L397.026276,193.308731L396.908813,193.462646L396.878174,193.499329L396.727173,193.663086L396.70166,193.688583L396.517548,193.861969L396.471252,193.900879L396.420471,193.93399L396.366333,193.960846L396.333893,193.972244L396.334351,193.981201L396.347321,194.356354L396.347748,194.380295L396.343292,194.749191L396.342377,194.773788L396.320465,195.1362L396.31778,195.165512L396.249329,195.743118L396.2435,195.78093L396.134125,196.34198L396.124939,196.380692L395.974152,196.925186L395.961853,196.963226L395.770142,197.491394L395.754944,197.528748L395.522064,198.040604L395.503937,198.076614L395.229675,198.571686L395.209534,198.60524L394.894104,199.084198L394.871735,199.115509L394.785614,199.226929L395.14444,199.232285L395.233704,199.228256L395.202606,199.163391L395.179779,199.107239L395.163452,199.049072L395.154266,198.98912L395.152252,198.928711L395.15741,198.868317L395.169495,198.809036L395.188507,198.75177L395.214233,198.69696L395.246216,198.645508L395.284027,198.598297L395.327209,198.555801L395.375092,198.51889L395.426971,198.487564L395.482239,198.462952L395.539948,198.444611L395.629425,198.430527L396.389374,198.379074L396.413513,198.378174L397.157593,198.362961L397.182648,198.362961L397.910797,198.383759L397.937195,198.38533L398.649261,198.442596L398.676544,198.445511L399.372742,198.539017L399.400238,198.543488L399.814117,198.622238L403.452484,192.036957L403.484711,191.985718L403.522949,191.938965L403.566345,191.896683L403.614471,191.860001L403.666595,191.829132L403.721832,191.804749L403.741089,191.79892L403.779114,191.762024L403.827209,191.725555L403.879333,191.694687L403.934814,191.670517L403.992737,191.652847L404.052246,191.642105L404.11264,191.638535L404.173065,191.642105L404.232574,191.652847L404.290497,191.670517L404.345978,191.694901L404.398102,191.725555L404.446198,191.762238L404.489838,191.804291L404.528076,191.851044L404.560516,191.902283L404.5867,191.956863L404.60614,192.01413L404.610626,192.034714L404.65625,192.04277L404.714203,192.059998L404.769684,192.084152L404.822021,192.114807L404.89093,192.169617L405.091614,192.360214L405.132996,192.40451L405.168793,192.453278L405.198761,192.505844L405.222015,192.561768L405.237244,192.614563L405.266327,192.61792L405.324921,192.632233L405.381744,192.653488L405.435425,192.681229L405.485779,192.715012L405.525818,192.749237L405.749512,192.96019L405.791138,193.004272L405.824463,193.049011L406.005005,192.698013L406.044586,192.633133L406.115723,192.534256L406.14505,192.497345L406.213928,192.418152L406.26001,192.371399L406.326477,192.312332L406.398956,192.258652L406.463165,192.219269L406.516632,192.190643L406.576569,192.167603L406.638092,192.148132L406.696716,192.133377L406.756653,192.125549L406.798279,192.124207L406.857544,192.124878L406.917938,192.12912L406.977234,192.140533L407.024445,192.154846L407.081268,192.175201L407.136963,192.198914L407.213013,192.245667L407.267151,192.285721L407.31369,192.324417L407.355072,192.368484L407.391327,192.417038L407.408325,192.445221L407.43045,192.484375L407.457092,192.538727L407.482819,192.617035L407.498932,192.684143L407.510315,192.752151L407.519958,192.847229L407.5224,192.883682L407.526001,193.0065L407.526001,193.03067L407.523315,193.181671L407.522858,193.197998L407.513916,193.376968L407.513245,193.389038L407.498016,193.595978L407.497345,193.604477L407.476105,193.839142L407.47522,193.846298L407.447693,194.109161L407.447235,194.114975L407.413452,194.405792L407.412781,194.410492L407.372742,194.729279L407.372314,194.733078L407.326202,195.079834L407.325775,195.083176L407.273407,195.457886L407.27298,195.460358L407.2146,195.863022L407.214142,195.865707L407.149475,196.296127L407.149261,196.298141L407.078583,196.756744L407.077667,196.762115L406.766937,198.645721L406.766052,198.650879L406.452179,200.43808L406.539215,200.45932L406.597137,200.477219L406.652405,200.501602L406.683502,200.519058L406.773895,200.573868L406.823547,200.608322L406.868958,200.648132L406.910339,200.694672L406.974548,200.776093L407.009216,200.82576L407.037628,200.878998L407.068054,200.96402L407.084839,201.028442L407.09668,201.087952L407.101166,201.144318L407.103851,201.248123L407.102509,201.300476L407.091553,201.443192L407.088409,201.473175L407.063568,201.655487L407.060455,201.674957L407.021515,201.896423L407.019287,201.90918L406.966705,202.1698L406.964691,202.179199L406.898254,202.479401L406.896484,202.487015L406.815948,202.826157L406.814606,202.831528L406.720428,203.210037L406.719299,203.214737L406.611023,203.632629L406.609894,203.636429L406.487762,204.09346L406.487091,204.096375L406.351288,204.592773L406.350403,204.595688L406.200531,205.13147L406.19986,205.133698L406.036102,205.708633L406.035645,205.710648L405.858032,206.324722L405.857361,206.326508L405.704346,206.848862L405.715515,206.892273L405.716858,206.894287L405.746826,206.946854L405.770782,207.002548L405.787781,207.060501L405.794708,207.096741L405.807251,207.17749L405.812836,207.237671L405.811493,207.298294L405.798737,207.376816L405.776825,207.467194L405.759155,207.524918L405.724457,207.599411L405.667633,207.699402L405.634766,207.750183L405.615295,207.774796L405.524017,207.883972L405.482208,207.928482L405.356232,208.047043L405.324249,208.074554L405.163635,208.202515L405.139465,208.220642L404.944183,208.358215L404.92157,208.373444L404.677063,208.526901L404.651794,208.541656L404.392303,208.684616L404.367249,208.697586L404.093201,208.829346L404.069489,208.839874L403.78067,208.961121L403.756958,208.97052L403.4534,209.080582L403.431915,209.087738L403.1138,209.187286L403.09256,209.193542L402.759674,209.282135L402.739746,209.286835L402.392334,209.364685L402.332611,209.374527L402.272217,209.377213L402.211823,209.372513L402.152527,209.360886L402.095032,209.342316L402.040009,209.317032L401.988312,209.285492L401.940674,209.248138L401.897949,209.205414L401.860352,209.157974L401.828827,209.106308L401.803528,209.05127L401.784973,208.993774L401.773132,208.934265L401.769318,208.894455L401.762604,208.777222L401.761719,208.75061L401.761475,208.720398L400.46106,215.017105L401.130188,211.850311L401.129944,211.850311L401.242493,211.304901L401.244049,211.297516L401.545837,209.936264L401.562378,209.877869L401.585876,209.822174L401.615631,209.769379L401.651184,209.720612L401.692596,209.676315L401.738678,209.637161L401.789215,209.603821L401.843353,209.576752L401.900177,209.556183L401.959229,209.542313L402.019409,209.535599L402.09726,209.537613L402.279144,209.555954L402.443115,209.559753L402.610443,209.551254L402.779816,209.529999L402.951843,209.495773L403.128326,209.44812L403.308655,209.386612L403.479797,209.316132L404.11557,208.972748L404.170593,208.94725L404.228088,208.928223L404.287384,208.916382L404.347534,208.911453L404.408173,208.913696L404.467896,208.92308L404.526062,208.939423L404.582001,208.962463L404.634796,208.991989L404.683777,209.027557L404.728302,209.068726L404.767456,209.114807L404.800995,209.165131L404.828522,209.219055L404.849335,209.275879L404.86319,209.334717L404.870117,209.394882L404.869904,209.455292L404.860718,209.525757L404.074615,213.375763L404.099457,213.378448L404.158295,213.39209L404.215332,213.412674L404.26947,213.439743L404.319794,213.473083L404.371918,213.517822L405.880829,215.000336L405.893372,215.013077L406.708344,215.871216L406.715729,215.879272L407.484375,216.72467L407.492218,216.733398L408.21524,217.56604L408.223511,217.575653L408.853912,218.338715L409.013428,218.245209L409.021027,218.240738L409.378967,218.038956L409.387451,218.034256L409.738007,217.845215L409.746948,217.840515L410.090118,217.664246L410.099731,217.659546L410.435516,217.495789L410.445831,217.490875L410.774231,217.339645L410.7854,217.334717L411.106659,217.196014L411.119171,217.190659L411.577789,217.006989L411.584259,217.004532L411.716248,216.953751L411.723633,216.950836L411.843109,216.906998L411.851593,216.904083L411.958527,216.866943L411.979126,216.860229L412.155396,216.80722L412.202148,216.795593L412.328308,216.770309L412.380005,216.762695L412.498779,216.751297L412.569489,216.749283L412.674622,216.753754L412.734802,216.76001L412.764984,216.765839L412.85672,216.786407L412.914886,216.802963L412.962311,216.822433L413.040375,216.859116L413.093628,216.888199L413.146423,216.92601L413.210846,216.978577L413.255371,217.019516L413.298767,217.07074L413.349548,217.13942L413.38266,217.190201L413.407043,217.238525L413.444183,217.323303L413.464966,217.379913L413.473938,217.413696L413.497192,217.514587L413.507721,217.576996L413.542389,217.912781L413.544617,217.985931L413.530975,218.324402L413.523132,218.394867L413.461395,218.736252L413.445526,218.800903L413.335663,219.145187L413.313538,219.202011L413.155151,219.54921L413.13031,219.596863L412.923828,219.946732L412.897888,219.986328L412.643066,220.339111L412.617798,220.371338L412.314911,220.726807L412.292755,220.751404L411.994537,221.058777L411.978882,221.074005L411.67041,221.365936L411.654297,221.380707L411.335724,221.657425L411.318512,221.671753L410.989868,221.933029L410.972198,221.946457L410.633301,222.192535L410.614502,222.205505L410.265289,222.436157L410.246277,222.448242L409.886993,222.663437L409.867767,222.674408L409.498413,222.87439L409.478058,222.884689L409.310272,222.966125L409.28656,222.977081L409.130188,223.043304L409.099548,223.055145L408.954376,223.105927L408.914764,223.117798L408.780548,223.152908L408.721252,223.164764L408.669586,223.16925L408.043213,223.192062L407.99823,223.191833L407.813904,223.18222L407.708099,223.188934L407.662903,223.199448L407.661316,223.200119L407.641205,223.217346L407.613678,223.251129L407.584137,223.30481L407.557983,223.377289L407.453064,223.896744L407.44455,223.932526L407.404297,224.077499L407.384827,224.134766L407.370514,224.166306L407.31012,224.289124L407.280121,224.34169L407.250153,224.38353L407.169617,224.483978L407.128906,224.528717L407.08371,224.568314L407.048584,224.595612L407.057983,224.646606L407.061127,224.736542L407.034058,225.246826L407.030029,225.289093L406.959564,225.804962L406.952393,225.844788L406.838531,226.366028L406.828918,226.403168L406.671661,226.93045L406.661591,226.960861L406.51886,227.34877L406.509918,227.371368L406.361816,227.721695L406.349731,227.748093L406.196045,228.060837L406.179718,228.091492L406.02066,228.366425L405.987335,228.416977L405.948181,228.463058L405.904114,228.504456L405.864075,228.53421L405.170807,229.002655L405.118896,229.033524L405.063416,229.058121L405.005707,229.076019L404.946198,229.086761L404.885803,229.090561L404.825378,229.087204L404.814423,229.08519L404.629425,229.386978L404.619812,229.401962L404.417114,229.708221L404.407959,229.721649L404.188721,230.03125L404.179321,230.044006L403.943085,230.35675L403.934143,230.368164L403.681122,230.684036L403.672607,230.694321L403.403046,231.013336L403.394562,231.023178L403.107971,231.345306L403.099915,231.354034L402.796814,231.679306L402.788971,231.687805L402.468842,232.016205L402.461243,232.02359L402.129272,232.350433L402.006897,232.474152L401.961914,232.514404L401.912476,232.549316L401.859253,232.578171L401.802856,232.600311L401.744476,232.615753L401.728363,232.617981L401.721893,232.646179L401.701752,232.703217L401.67514,232.757584L401.642029,232.808136L401.603333,232.854675L401.567749,232.88913L401.341125,233.087997L401.325714,233.101196L401.104462,233.280396L401.085876,233.294479L400.869781,233.453766L400.848541,233.46875L400.637573,233.608337L400.612732,233.623779L400.407166,233.743469L400.377838,233.759338L400.177643,233.859116L400.143646,233.874329L399.948547,233.954422L399.908966,233.968964L399.719269,234.029144L399.660645,234.0439L399.576965,234.052856L399.118591,234.064026L399.057983,234.062027L398.99826,234.052856L398.940094,234.036514L398.898041,234.019958L398.472534,233.830704L398.418854,233.802963L398.368744,233.768967L398.325775,233.732056L398.308563,233.7155L398.289764,233.723099L398.231384,233.739441L398.171661,233.748825L398.111023,233.751068L398.050842,233.746155L398.026245,233.741226L398.004089,233.768066L397.960236,233.809906L397.909241,233.847717L397.239227,234.283264L397.237885,234.283936L396.613068,234.687729L396.611969,234.688629L396.032562,235.060883L396.031219,235.061768L395.497223,235.402252L395.495422,235.403381L395.006866,235.712311L395.004852,235.713654L394.561676,235.990829L394.55899,235.992401L394.161224,236.237808L394.158112,236.239594L393.806,236.453461L393.752533,236.481873L393.696136,236.503571L393.637543,236.518555L393.577362,236.526611L393.516968,236.527283L393.456787,236.521011L393.397736,236.507599L393.340668,236.487457L393.28653,236.460617L393.235748,236.427505L393.18924,236.388809L393.147827,236.344727L393.111816,236.296188L393.105103,236.284561L393.027924,236.398422L392.996613,236.440033L392.815399,236.656128L392.774017,236.699982L392.582977,236.879852L392.536438,236.918549L392.485901,236.95166L392.431519,236.9785L392.374481,236.998627L392.315643,237.012054L392.255463,237.018311L392.194855,237.017639L392.134888,237.009598L392.076294,236.994598L392.044739,236.983429L391.948547,236.945618L391.900452,236.92392L391.790161,236.866867L391.757507,236.848526L391.632904,236.772018L391.609192,236.756363L391.476074,236.664185L391.273163,236.534439L391.118591,236.46196L391.012115,236.432877L390.933807,236.429749L390.448822,236.509613L390.377441,236.516327L390.357971,236.516769L390.296478,236.514526L390.20697,236.505798L390.183258,236.502899L389.922424,236.465088L389.912567,236.463531L389.329376,236.367325L389.323792,236.36644L387.654694,236.072479L387.651337,236.071808L383.36264,235.286591L383.361084,235.286377L372.244354,233.218414L372.239899,233.217529L372.128937,233.195831L372.060699,233.17749L371.968323,233.145721L371.912384,233.122894L371.881958,233.106781L371.807922,233.064728L371.757141,233.031845L371.709259,232.992035L371.653992,232.939911L371.61261,232.895828L371.564514,232.827606L371.527832,232.765411L371.500092,232.711502L371.472565,232.631195L371.454224,232.558929L371.44281,232.499649L371.438354,232.431641L371.438568,232.349091L371.442383,232.288696L371.448853,232.248413L371.467651,232.156036L371.49292,232.070343L371.527374,231.98288L371.5625,231.910843L371.605682,231.837463L371.639465,231.787354L371.661621,231.760071L371.713074,231.701233L371.755554,231.658051L371.792267,231.628082L371.852203,231.583344L371.902771,231.550003L371.95108,231.525391L372.019775,231.49498L372.076355,231.473938L372.122223,231.462097L372.199188,231.445984L372.252411,231.437927L372.250854,231.422943L372.251526,231.362549L372.259583,231.302582L372.274353,231.243973L372.296265,231.187378L372.324463,231.133911L372.358917,231.084015L372.382629,231.055832L372.896698,230.48761L372.93988,230.445343L372.987732,230.408203L373.039642,230.377106L373.09491,230.352509L373.152618,230.334381L373.206543,230.324097L373.230927,230.32074L373.291321,230.31604L373.33136,230.316711L373.376099,230.319397L373.364685,230.299484L373.341217,230.243774L373.324646,230.185608L373.314819,230.125885L373.312134,230.065491L373.316833,230.005081L373.328461,229.945572L373.347015,229.888077L373.37207,229.833282L373.662445,229.28653L373.693756,229.234863L373.73114,229.187424L373.773865,229.14447L373.821503,229.106903L373.872955,229.075348L373.927979,229.050079L373.985474,229.031281L373.99646,229.029053L373.961334,228.991241L373.949677,228.9767L373.914795,228.927261L373.885712,228.874023L373.863342,228.817871L373.8479,228.759476L373.839172,228.699524L373.838287,228.626144L373.871155,228.079407L373.878326,228.019226L373.892639,227.960388L373.913666,227.903564L373.941406,227.849884L373.975189,227.799545L374.014557,227.753693L374.055267,227.716095L374.065796,227.707382L374.114563,227.671356L374.150574,227.651001L374.120605,227.637802L374.086609,227.621246L374.053497,227.603577L374.001801,227.572037L373.939392,227.520813L373.927307,227.509171L373.886383,227.464661L373.8508,227.415665L373.821503,227.362869L373.798462,227.306717L373.780121,227.238495L373.740082,227.033798L373.698456,226.857513L373.657074,226.712326L373.608307,226.571838L373.591766,226.513672L373.582367,226.45372L373.580139,226.393311L373.584808,226.332916L373.596893,226.273636L373.615692,226.216141L373.641205,226.161331L373.672974,226.109879L373.710541,226.062454L373.75351,226.01973L373.801147,225.98259L373.853058,225.951263L373.908081,225.926208L373.911224,225.925323L373.628235,225.851501L373.570496,225.832703L373.515686,225.807434L373.46402,225.775665L373.416595,225.738312L373.373871,225.695343L373.336517,225.647705L373.304962,225.596024L373.279907,225.540985L373.261353,225.483276L373.249695,225.423996L373.245239,225.363586L373.247925,225.303192L373.257751,225.243469L373.274536,225.185303L373.298035,225.129593L373.328003,225.077026L373.3638,225.028259L373.405396,224.984192L373.451721,224.945251L373.502289,224.911926L373.556396,224.885086L373.613464,224.864502L373.672302,224.851074L373.730225,224.844589L373.897797,224.835648L373.899811,224.835419L373.964447,224.820877L374.095764,224.787994L374.490845,224.682617L375.078064,224.519318zM382.607391,210.817215L382.623077,210.865326L382.627075,210.885223L382.62619,210.80603L382.607391,210.817215zM381.972412,205.196991L381.972412,205.363678L381.972412,205.152802L381.972412,205.196991zM382.362579,217.050018L382.31839,217.071472L382.329742,217.507111L382.373932,217.484375L382.362579,217.050018M382.473175,204.488968L382.470276,204.549377L382.460205,204.6091L382.443207,204.667267L382.419495,204.722977L382.389526,204.775314L382.358185,204.817154L382.377655,204.839523L382.411652,204.889404L382.439636,204.9431L382.46109,204.999695L382.475861,205.058533L382.483459,205.118484L382.484589,205.15271L382.484589,205.28067L382.510773,205.277985L382.488617,204.71582L382.489746,204.655411L382.49823,204.595459L382.513458,204.53685L382.535583,204.480469L382.561768,204.431702L382.535828,204.408447L382.495789,204.363022L382.471375,204.327682L382.473175,204.488968zM402.765717,217.954834L402.478699,218.138947L402.442688,218.15976L402.103088,218.340515L402.109131,218.343201L402.161255,218.373627L402.209564,218.41008L402.253418,218.45192L402.261261,218.461533L402.334167,218.447891L402.35611,218.43335L402.424561,218.375183L402.520752,218.277435L402.631714,218.14946L402.755432,217.991974L402.800598,217.929779L402.765717,217.954834zM382.531128,200.420853L382.530457,200.429565L382.530212,200.430023L382.515015,200.625092L382.514801,200.631134L382.514557,200.632248L382.501801,200.852158L382.516571,200.795776L382.53537,200.738297L382.560883,200.683487L382.592865,200.632034L382.630432,200.584595L382.673401,200.542099L382.721039,200.504745L382.772949,200.473419L382.827972,200.448364L382.885681,200.430023L382.94519,200.418839L383.005371,200.414368L383.045868,200.415482L383.402466,200.439423L382.994629,200.352615L382.541626,200.319962L382.531128,200.420853zM399.473846,219.796402L399.457977,219.854797L399.435608,219.910934L399.406525,219.964188L399.371399,220.013397L399.330902,220.058365L399.285278,220.098175L399.23941,220.129272L399.387939,220.350525L399.647888,219.281433L399.665558,219.22348L399.690186,219.168228L399.720825,219.116104L399.757721,219.068008L399.799805,219.024612L399.846771,218.986572L399.89801,218.954147L399.952576,218.928192L399.941833,218.921265L399.895325,218.882324L399.853699,218.838486L399.817688,218.789719L399.78772,218.737366L399.764008,218.681671L399.747009,218.623505L399.737152,218.563766L399.735596,218.529541L399.473846,219.796402zM402.913147,202.626389L402.873535,202.672028L402.828583,202.712738L402.779358,202.747635L402.726349,202.776718L402.672424,202.798416L402.648712,202.806473L402.590332,202.822571L402.557892,202.827499L402.598145,202.855911L402.633942,202.887222L402.645569,202.898407L402.686737,202.942932L402.722321,202.991928L402.751831,203.044724L402.774872,203.100647L402.791199,203.159027L402.799255,203.206909L402.801056,203.221893L402.804199,203.301987L402.80307,203.331284L402.800171,203.369995L402.788513,203.471558L402.785614,203.493698L402.744232,203.754318L402.742432,203.764832L402.643555,204.313583L402.642212,204.320068L402.622528,204.421631L402.697937,204.147369L402.699036,204.143341L402.820068,203.716507L402.821411,203.711594L402.931488,203.337769L402.933716,203.33017L403.033264,203.01004L403.036163,203.001312L403.124542,202.734207L403.129456,202.719666L403.154724,202.650543L403.107971,202.653229L403.047577,202.649643L402.987854,202.638916L402.920074,202.616089L402.913147,202.626389zM405.435211,201.581223L405.397186,201.628204L405.35379,201.670486L405.305908,201.707397L405.253998,201.738495L405.198761,201.763092L405.140808,201.780991L405.081299,201.791962L405.020905,201.795975L404.96051,201.792633L404.901001,201.782333L404.842834,201.765106L404.787354,201.740952L404.781311,201.737366L404.757141,201.739166L404.696747,201.736252L404.637024,201.72641L404.579071,201.709625L404.552917,201.698669L404.525177,201.708511L404.466125,201.722153L404.411743,201.727753L404.411987,201.768692L404.405029,201.828644L404.391174,201.887695L404.370361,201.944519L404.343079,201.998444L404.309753,202.048996L404.286926,202.076965L404.220032,202.153915L404.210876,202.163315L404.24353,202.174042L404.390045,202.200226L404.559631,202.209396L404.705475,202.202011L404.83075,202.182098L404.934784,202.151672L405.008606,202.11879L405.624481,201.676971L405.552216,201.618805L405.451324,201.555267L405.435211,201.581223zM396.848328,192.263092C396.848328,192.083786,396.795319,191.980255,396.691772,191.949951L396.490997,191.984039C396.281372,192.095154,396.088196,192.144394,395.908875,192.129242C396.028839,192.611603,396.114716,193.066177,396.166473,193.489182C396.434174,193.251801,396.613464,193.039658,396.703125,192.854034C396.799103,192.645691,396.848328,192.448715,396.848328,192.263092zM384.359253,200.357086L384.318542,200.401611L384.272919,200.441208L384.222809,200.475204L384.168884,200.502945L384.146973,200.51123L384.299988,200.529129L384.327271,200.532928L385.690979,200.767822L385.749817,200.781693L385.806641,200.802277L385.860779,200.829559L385.911133,200.8629L385.957428,200.902039L385.998596,200.946335L386.034393,200.995102L386.064148,201.047897L386.087402,201.103821L386.103943,201.161987L386.113586,201.221725L386.114471,201.24588L386.385834,200.995773L386.432587,200.95752L386.483826,200.924866L386.538177,200.898682L386.595428,200.878998L386.654724,200.866257L386.714905,200.860657L386.775299,200.862L386.806183,200.865585L387.031006,200.898239L387.901459,200.98526L387.905701,200.985489L390.37677,201.253265L390.377441,201.253494L392.41452,201.477203L384.540009,200.408539L384.480743,200.396912L384.423004,200.378342L384.368195,200.353058L384.36441,200.35083L384.359253,200.357086zM391.592407,231.796539L391.571136,231.853134L391.543396,231.907043L391.509399,231.957153L391.469818,232.002792L391.425293,232.043503L391.413208,232.052231L391.43692,232.092728L391.46109,232.148193L391.478546,232.206146L391.489044,232.265656L391.492615,232.324936L391.492615,233.014404L391.577637,233.63855L391.582336,233.698944L391.579651,233.759338L391.570038,233.819077L391.553467,233.877243L391.529999,233.932938L391.500244,233.985733L391.464447,234.0345L391.423065,234.078796L391.375183,234.119064L391.362213,234.128693L391.325745,234.152618L391.387024,234.171188L391.409424,234.178574L391.457947,234.195801L391.513885,234.219284L391.55191,234.240326L391.568909,234.25061L391.618805,234.284836L391.664215,234.324875L391.704712,234.370071L391.73938,234.41951L391.768005,234.472748L391.795319,234.545227L391.919006,234.969604L391.926636,235.00293L392.052124,234.595337L392.113861,234.34523L392.167999,234.097809L392.210052,233.874329L392.24115,233.670761L392.262421,233.483292L392.274048,233.309692L392.276062,233.154892L392.269775,233.032959L392.228851,232.764511L392.15213,232.464966L392.034454,232.125381L391.879852,231.760742L391.707611,231.423386L391.592407,231.796539zM398.703247,232.269409C398.643921,232.433563,398.599701,232.622971,398.569397,232.838898C398.531525,233.128052,398.569397,233.302307,398.680542,233.362915L399.106049,233.552322L399.564423,233.540955C400.063202,233.407104,400.618774,233.061127,401.229919,232.504272L399.005035,231.477692L398.703247,232.269409zM382.887878,202.163971C382.843658,202.915283,382.847473,203.542847,382.899231,204.047928C383.227539,203.527695,383.733887,202.944321,384.419525,202.297821C384.910706,201.829361,385.305939,201.487167,385.603943,201.272507L384.240234,201.037643L383.670746,200.970718L383.011597,200.926514C382.958588,201.089417,382.918182,201.502319,382.887878,202.163971zM406.538361,193.734146L405.375397,200.658829L405.934784,200.425232C406.158264,199.190308,406.370422,197.941483,406.572449,196.678772C406.9664,194.158417,407.097717,192.831314,406.962616,192.697464C406.821198,192.563614,406.653259,192.641907,406.460052,192.932327L406.213837,193.410889L406.538361,193.734146zM399.77655,220.918945C400.059418,221.387405,400.342255,221.90007,400.626373,222.456924L400.905426,222.21196C401.375153,221.7435,401.642822,221.257355,401.709747,220.751007L401.877686,218.800125L401.296844,219.100647C400.842285,219.324142,400.458405,219.425171,400.145264,219.402435L399.77655,220.918945zM398.871185,230.920837C399.429321,229.880371,400.167999,228.802017,401.083466,227.687042L401.743866,227.040543C400.729889,227.642853,399.883881,228.214859,399.205811,228.757828C398.334534,229.440948,397.629944,230.154373,397.094574,230.898102C397.079407,231.976471,397.4216,232.756805,398.122406,233.239166C398.070648,232.905823,398.137573,232.500488,398.323181,232.024445L398.871185,230.920837zM402.727509,200.647461C402.964905,200.758575,403.163147,200.870956,403.319702,200.982086C403.453552,201.079315,403.562164,201.179062,403.642975,201.283875L403.48764,200.982086L403.363892,200.647461C403.334869,200.565384,403.14798,200.425232,402.805786,200.224457C402.380249,199.970657,401.877686,199.744629,401.296844,199.543854C399.589691,198.956696,397.712036,198.755936,395.66394,198.941544C395.968231,199.484512,395.79776,199.752197,395.148743,199.744629L394.378479,199.733261C394.117096,199.771149,393.983276,199.882263,393.975677,200.067886L397.910278,199.878479C399.6604,199.9151,400.81955,200.016113,401.385254,200.179001C401.921906,200.328003,402.368896,200.484573,402.727509,200.647461zM404.202332,225.635147C404.769287,225.531616,405.189789,225.638947,405.465057,225.958405C405.72644,226.263977,405.699921,226.801895,405.386749,227.575928C405.268066,227.872665,405.100128,228.207275,404.884216,228.578522L405.577423,228.110046C405.793365,227.769119,405.99411,227.325912,406.181,226.78421C406.419647,226.077103,406.542145,225.386398,406.549713,224.709595L405.677185,224.787872C405.319824,224.728531,405.021851,224.57196,404.783173,224.319412L404.481384,225.13385L404.324829,225.323273L404.101318,225.334625C403.081055,224.390121,402.057007,223.699417,401.027893,223.26001L401.822144,224.988647L402.347412,226.281662L402.391632,226.505157L402.916901,226.147812C403.341187,225.887695,403.770508,225.717224,404.202332,225.635147zM403.140411,196.354263C403.445984,195.246872,403.699799,193.890717,403.900543,192.284561L400.179352,199.019836L401.520355,199.253433C402.473694,199.51355,403.12146,199.911301,403.464935,200.446686C403.331085,200.045151,403.218689,199.570374,403.129028,199.019836C402.94342,197.933914,402.947205,197.046219,403.140411,196.354263zM382.362579,217.050018L382.284302,215.154694C380.310669,215.59285,378.876251,216.428757,377.982239,217.66243L378.104736,218.643555L378.138824,218.744568C378.316864,219.375916,378.521423,219.982025,378.752502,220.5616C379.095947,219.788818,379.665436,219.209244,380.46347,218.822845C381.05188,218.532425,381.680725,218.383423,382.351227,218.377121L382.329742,217.507111L382.31839,217.071472L382.362579,217.050018zM404.538208,192.540894L404.257904,194.426117L404.112701,192.150711C404.091217,193.385635,403.904358,194.708954,403.554565,196.120667C403.375275,196.805054,403.360107,197.669998,403.509125,198.719315C403.606354,199.425171,403.759125,200.131012,403.967468,200.836868L404.112701,201.238403C404.127838,201.238403,404.105103,200.833084,404.045776,200.023682L403.990204,198.807709L404.179626,200.012329L404.381653,201.216949L404.492767,200.157532C404.544525,199.450424,404.582428,199.098129,404.605133,199.098129L404.672058,200.167633L404.750366,201.227051L404.895569,200.179001L405.040771,199.142319L405.018036,201.283875L406.135559,193.701324L405.789551,193.678589L405.465057,195.005692L405.398132,193.332611L405.174622,193.121735L404.872833,194.514496L404.738983,192.731567L404.538208,192.540894zM380.876373,211.530731L380.664246,211.574921L380.630157,211.731491C380.101074,212.563614,379.520233,213.248001,378.887604,213.782135C378.320648,214.265747,377.747375,214.589005,377.165283,214.753159L377.982239,217.205322C378.65274,216.053741,380.083405,215.288544,382.2742,214.908463L382.127716,210.995331C381.636536,211.247879,381.219818,211.425919,380.876373,211.530731zM371.969238,232.258041C371.894745,232.518158,372.017212,232.670944,372.337952,232.715149L381.390289,234.399597C387.254303,235.491837,390.246918,236.027222,390.365601,236.004501L390.902252,235.916107C391.1409,235.893372,391.427551,236.000702,391.762177,236.239349C391.956604,236.380783,392.11319,236.469177,392.231903,236.50705C392.493256,236.291138,392.728119,235.979248,392.936493,235.570129C393.189026,235.101654,393.338013,234.611725,393.383484,234.097809C393.48703,232.946228,393.410004,232.080002,393.148621,231.500427L392.902374,230.90947C392.843048,230.73143,392.518524,230.678406,391.930115,230.752899L391.807617,230.764267L391.985657,230.84256L392.344269,231.544617C392.596802,232.095154,392.742035,232.574982,392.779907,232.982849C392.816528,233.407104,392.73822,233.990479,392.545044,234.734222L392.243256,235.715332C392.295013,235.870651,392.258392,235.986816,392.130859,236.06131L391.762177,236.038589L391.204041,235.669876C390.942657,235.537292,390.741882,235.495621,390.600464,235.547394C390.406006,235.629471,387.463898,235.082718,381.770355,233.908401L372.483154,231.95752C372.221802,231.905746,372.050049,232.005508,371.969238,232.258041zM403.755341,202.521317C403.591187,202.877396,403.312134,203.802963,402.916901,205.296753C402.439606,207.088531,402.227478,208.278,402.280518,208.865158C403.226257,208.671967,404.016724,208.363861,404.649353,207.93959C405.216309,207.560776,405.413269,207.281723,405.241547,207.103683L405.174622,206.847351L405.174622,206.835983C406.232788,203.246109,406.6987,201.331848,406.572449,201.093201C406.504242,200.966934,406.366608,200.911377,406.158264,200.926514C405.99411,200.941681,405.823669,200.989655,405.644348,201.071732C406.255493,201.420242,406.366608,201.747284,405.978973,202.052856L405.264282,202.565521C405.071075,202.669052,404.836212,202.722092,404.559692,202.722092C404.240234,202.722092,403.971252,202.655167,403.755341,202.521317zM399.273987,231.031952L401.642822,232.11409L401.76532,231.990356C403.606354,230.21373,404.731415,228.570953,405.141785,227.062012C405.268066,226.579651,405.122864,226.281662,404.704895,226.170532C404.355133,226.073303,403.952332,226.118774,403.497742,226.304382C402.783051,226.60112,402.070892,227.144089,401.36377,227.932007C400.380127,229.136627,399.671753,230.161957,399.239899,231.009232L399.273987,231.031952zM403.699799,209.779358C403.132843,210.031891,402.582275,210.121552,402.045654,210.047043L401.743866,211.408249L401.63147,211.953735L400.246277,218.509705C401.027893,218.279892,401.680725,218.012192,402.202209,217.707886C403.036865,217.21669,403.315918,216.726761,403.039398,216.235565L403.006561,216.046158L404.358917,209.423264L403.699799,209.779358zM401.442078,201.150024C401.896637,201.096985,402.376465,201.209366,402.884064,201.483368L403.520477,201.896271L403.833618,201.817993L403.900543,201.740967L403.554565,201.461914C402.198425,200.391129,400.219757,199.903732,397.619843,200.000961L393.8974,200.257294L393.125885,200.245926L392.902374,200.234558C390.972961,200.153748,388.633179,199.584259,385.884277,198.528641L385.649414,198.774872L386.866638,199.220612L385.36908,199.086761L385.269318,199.197876L386.677246,199.488297L385.067291,199.421371L384.608948,199.901199L402.437073,202.320541C402.592407,202.335693,402.503998,202.253632,402.168121,202.074326C401.810791,201.881134,401.274139,201.718231,400.558167,201.584396C401.199615,201.532623,401.810791,201.613434,402.391632,201.829361L403.107574,202.141251L403.207336,202.074326C403.245209,202.052856,403.039398,201.919006,402.592407,201.674042C402.123932,201.420242,401.740051,201.245987,401.442078,201.150024zM406.27066,221.465698C405.793365,222.200592,405.375397,222.97084,405.018036,223.772659C405.233978,224.093384,405.584991,224.279007,406.068634,224.33078C406.574951,224.390121,406.870453,224.212082,406.951263,223.795395L407.063629,223.238541C407.122986,223.030182,407.227783,222.873611,407.37677,222.770081C407.503052,222.68042,407.718964,222.651382,408.024567,222.68042L408.650848,222.657684C408.822571,222.621078,409.023346,222.542786,409.254425,222.424088C410.253235,221.911438,411.143433,221.234619,411.925049,220.394928C412.797577,219.442841,413.154938,218.521072,412.998352,217.629593C412.954163,217.339172,412.763489,217.220474,412.428864,217.272247C412.293762,217.287399,412.026062,217.37706,411.62326,217.539948C410.796204,217.859406,409.890839,218.312714,408.907196,218.901138C407.686157,219.792603,406.80603,220.647461,406.27066,221.465698zM379.132568,207.170609L379.111115,208.396698C379.117432,208.850006,379.159088,209.243958,379.233582,209.578583C379.359863,210.144272,379.703308,210.672089,380.261444,211.162018L380.753906,211.095093C381.252655,210.953674,381.8638,210.668304,382.58609,210.23645L383.860138,209.434631C384.091217,209.300781,384.21875,209.12149,384.240234,208.899246C384.255371,208.77298,384.23645,208.660599,384.184662,208.564636L384.161926,208.553268L383.491425,208.798233C383.067169,208.954803,382.746429,209.033096,382.530518,209.033096L382.240082,208.966171L383.51416,208.474976C384.467499,208.103745,384.925873,207.67189,384.889252,207.181961L384.833679,207.048126L384.788239,206.992554L384.776886,206.981201L383.771759,207.248886C383.122742,207.419357,382.660583,207.505219,382.385315,207.505219C382.221161,207.505219,382.113831,207.478699,382.060791,207.426941C382.039337,207.397888,382.404236,207.25647,383.15683,207.003922C383.916962,206.750122,384.442261,206.594803,384.732666,206.535461C385.141785,206.445816,385.422119,206.363739,385.571106,206.28923C385.749146,206.200836,385.794617,206.103607,385.704956,206.000076C385.622894,205.910416,385.380432,205.839706,384.978912,205.787933L383.99527,205.721008L383.324768,205.709656L381.580963,205.887695L381.569611,205.887695C381.517822,205.887695,381.502686,205.661667,381.524139,205.208359C381.546875,204.755051,381.535522,204.527756,381.491302,204.527756C381.014008,204.676758,380.511444,205.107346,379.982361,205.82077L379.132568,207.170609zM393.05896,187.267838C392.947845,187.22995,392.861969,187.163025,392.802643,187.067062L392.579132,186.442017C392.369537,185.751328,392.183899,185.372513,392.019745,185.305588L391.964203,185.282852C391.74826,185.223511,391.460388,185.252548,391.103027,185.372513L390.745697,185.505096L390.365601,185.60611L389.34787,185.572021C388.908447,185.512665,388.450073,185.657883,387.97406,186.007645L387.112885,186.609955C386.799744,186.646576,386.43103,186.839767,386.006744,187.189545C385.693604,187.442078,385.406952,187.72493,385.145569,188.036819C384.69101,188.579788,384.404388,189.385391,384.285675,190.456161C384.226318,190.991547,384.211182,191.471375,384.240234,191.894379C384.524323,191.337524,384.948608,190.901901,385.514282,190.590012C385.737793,190.471313,386.085022,190.326111,386.554749,190.15564L386.129242,189.430847C385.995392,189.096222,385.968872,188.832321,386.050934,188.63913C386.170898,188.363861,386.338837,188.151718,386.554749,188.003983C386.852753,187.788071,387.191162,187.736298,387.571228,187.847412L387.794739,187.925705C387.936157,187.985046,388.159668,188.14415,388.46524,188.404266C388.748077,188.642914,388.94632,188.776764,389.057434,188.805801L389.124359,188.828537C389.177399,188.828537,389.486755,188.658066,390.05246,188.315872C390.59668,187.981262,390.995697,187.851196,391.24823,187.925705C391.30127,187.933273,391.356842,187.962311,391.416168,188.014084L392.019745,188.660599L392.377106,189.062134L392.678894,189.274277L392.812744,189.285629L393.148621,189.218704L393.774902,189.185883C393.916351,189.222504,394.069122,189.32225,394.233276,189.486404C394.351959,189.605103,394.516113,189.916992,394.724457,190.42334L395.060364,191.215042C395.291412,191.549667,395.543976,191.756744,395.819244,191.838821C396.028839,191.890594,396.214478,191.872925,396.378601,191.783264C396.714508,191.612808,396.985962,191.33374,397.194336,190.947357C397.402679,190.57486,397.496124,190.218781,397.473389,189.876587C397.451904,189.608887,397.373627,189.360138,397.239777,189.129059C397.186737,189.404327,397.052887,189.586151,396.836975,189.675812L396.099548,189.720001C395.73465,189.624039,395.465668,189.389175,395.293945,189.017944C394.854523,188.096161,394.523712,187.568359,394.300201,187.434509L394.053986,187.334747L393.505951,187.289291L393.05896,187.267838zM403.565948,216.057526C403.892975,216.711609,403.810913,217.388428,403.319702,218.0867C402.901764,218.681427,402.592407,218.970581,402.391632,218.956696L402.368896,220.840652C402.011536,221.710663,401.612518,222.349594,401.173096,222.758698C402.202209,223.167831,403.214905,223.818115,404.213715,224.709595C404.601349,223.669128,405.163269,222.54657,405.900696,221.341949C406.415863,220.509827,407.283356,219.636032,408.505646,218.721832C407.633118,217.637177,406.639374,216.518417,405.521881,215.36557L404.012939,213.883148L403.565948,216.057526zM373.757233,225.356094L390.611847,229.750305L390.690125,229.783142C391.144714,230.050842,391.454071,230.184677,391.616943,230.184677L391.86319,230.161957L392.757172,230.140488C393.129669,230.207413,393.368317,230.404388,393.473145,230.73143L393.685272,231.255463C393.908752,231.730225,394.065338,232.135559,394.154999,232.470184C394.317871,233.042191,394.374695,233.611664,394.321655,234.176102C394.262329,234.793564,394.002197,235.405975,393.540039,236.015854C394.418884,235.488052,395.782623,234.621826,397.629944,233.418472L397.574402,233.362915C397.075623,232.90834,396.777618,232.303497,396.680389,231.544617L396.311707,232.258041C396.281372,232.347702,396.229614,232.410828,396.155121,232.447449L395.897522,232.414627C395.660126,232.244156,395.28006,231.879242,394.758575,231.322388C394.094391,230.607697,393.494598,229.869003,392.959198,229.102539C392.54126,228.507813,392.120758,227.765335,391.695251,226.872604L391.181305,225.679352C388.245514,227.032974,385.737793,227.259003,383.659363,226.35994C382.578491,225.899048,381.59613,225.212143,380.708435,224.296692L380.083405,223.605988C376.1185,224.765152,374.074188,225.345993,373.946655,225.345993L373.757233,225.356094zM374.215607,226.471069L374.091858,226.404144C374.166351,226.597336,374.229492,226.843567,374.282532,227.140305C374.2901,227.18576,375.199249,227.493851,377.009979,228.065857C378.819427,228.645447,379.728577,228.962387,379.736145,229.01416L377.065521,228.557053C375.277527,228.199707,374.382263,228.050705,374.382263,228.110046L374.349457,228.656799C374.341858,228.716156,375.432861,229.062134,377.623657,229.693481C379.799286,230.318527,380.880157,230.660721,380.865021,230.720062L377.489807,230.12912L374.114594,229.52681L373.824158,230.073563C373.801422,230.117767,375.239655,230.50415,378.138824,231.232727C381.029175,231.968887,382.463593,232.35527,382.440857,232.391891C382.404236,232.444916,380.876373,232.187332,377.858521,231.622894C374.840637,231.058472,373.314026,230.794571,373.276154,230.831192L372.762207,231.399414L381.47995,233.384369L388.342743,234.934982L390.376984,235.001907C390.667389,234.875641,391.017151,234.912262,391.427551,235.113022L391.303802,234.688751C391.297485,234.65213,389.941345,234.31752,387.236633,233.686172L383.179565,232.682312C383.164398,232.622971,384.478882,232.793427,387.124237,233.194977C389.769623,233.604095,391.084076,233.774551,391.07019,233.707642L390.98056,233.049759L390.98056,232.324966C390.988129,232.288345,389.546112,231.875443,386.65451,231.087524C383.771759,230.292023,382.333527,229.876587,382.341125,229.838699C382.348694,229.802078,383.80838,230.1026,386.721436,230.741531C389.635773,231.381729,391.095459,231.682251,391.103027,231.64563L391.38208,230.741531C391.121979,230.674622,390.801239,230.534454,390.421173,230.318527L374.293884,226.460968C374.315369,226.520309,374.2901,226.524094,374.215607,226.471069zM379.781616,200.569168L379.770233,200.580536C379.397736,200.74469,379.054291,200.945465,378.74115,201.182846C377.042786,202.468292,375.579315,204.074448,374.349457,206.000076C372.792542,208.423203,372.401093,210.44101,373.17514,212.054749C373.6297,213.020721,374.527496,213.76445,375.869751,214.284683C376.882446,214.686234,378.01886,214.206406,379.277802,212.846466C379.628815,212.4664,379.91925,212.110306,380.15033,211.775696C379.479828,211.247879,379.040405,210.645569,378.83078,209.968765C378.712097,209.553329,378.65274,209.092438,378.65274,208.58609L378.719666,207.159241C377.594604,207.516586,376.853394,208.128998,376.494781,208.998993C376.450592,209.125275,376.353363,209.1922,376.204376,209.199768C376.055359,209.21492,376.011169,209.144211,376.070526,208.98764C376.345795,208.333557,376.722076,207.769119,377.199371,207.293091C377.728455,206.780426,378.316864,206.4496,378.965912,206.300598L379.837158,205.296753C380.179352,204.925507,380.484924,204.63887,380.753906,204.439362C380.984955,204.267639,381.18573,204.156525,381.357452,204.104752L381.424377,204.082031L381.491302,204.082031C381.625153,204.082031,381.741333,204.130005,381.83728,204.227234C381.897888,204.294159,381.938324,204.382553,381.961029,204.494934C381.923157,201.565445,381.982513,199.993378,382.139069,199.777466L383.067169,199.844376L383.961182,200.035049L384.944824,198.819061L384.956177,198.662491L384.161926,198.819061C382.589874,199.168839,381.126404,199.748413,379.770233,200.559067L379.781616,200.569168zM387.626801,188.315872C387.240417,188.203491,386.919678,188.341125,386.665894,188.727524C386.390625,189.136642,386.494141,189.582367,386.979034,190.065979L387.045959,190.188477C387.061096,190.270538,387.015656,190.326111,386.912109,190.356415C386.375458,190.497833,385.968872,190.641785,385.693604,190.790787C384.985229,191.155701,384.531921,191.679718,384.329865,192.362854C384.702362,191.901962,385.124115,191.515579,385.59259,191.20369C386.167114,190.869064,386.528259,190.698608,386.677246,190.691025L386.766907,190.701126C386.833832,190.716278,386.866638,190.75795,386.866638,190.824875C386.874237,190.884216,386.8414,190.924622,386.766907,190.947357L386.43103,191.081207L385.727692,191.437286C385.436005,191.593857,385.138,191.813568,384.833679,192.095154L384.274323,192.686096L384.251587,192.920959L384.262939,192.920959C384.680908,192.437347,385.108978,192.077484,385.548401,191.838821C385.905731,191.64563,386.192352,191.542084,386.409546,191.526932L386.465118,191.526932C386.532043,191.549667,386.550964,191.597656,386.52066,191.67215C386.497955,191.760544,386.43103,191.819885,386.319885,191.850189C386.073669,191.909531,385.857758,191.991608,385.670868,192.095154L384.3526,193.087646L384.363953,193.177292L384.531921,193.277054C384.6203,193.366699,384.606415,193.45636,384.48645,193.544739C383.867737,193.783386,383.600037,194.229126,383.682098,194.883209C383.756592,195.522141,384.098816,195.92746,384.709961,196.097931L384.877899,196.143387C385.049622,196.841675,385.276917,197.480591,385.559753,198.061447L385.59259,198.015991C385.68222,197.912445,385.787048,197.885925,385.905731,197.937698L387.928589,198.685211L390.108032,199.320358L390.130737,199.186508C390.174927,199.075394,390.268372,199.042572,390.40979,199.086761L390.455261,199.098129L391.326538,199.465576L391.416168,199.543854L391.38208,199.588058L392.164978,199.700439L393.606964,199.811554L394.109528,199.264801C395.115906,198.053864,395.68161,196.667419,395.809143,195.105453C395.891205,194.147049,395.786407,193.121735,395.495972,192.028229C395.22702,191.909531,394.98584,191.686035,394.768677,191.358994L394.422668,190.534454C394.214325,190.036942,394.065338,189.738953,393.975677,189.642975C393.92392,189.589951,393.856995,189.553329,393.774902,189.530594L392.959198,189.586151L392.533691,189.553329C392.295013,189.486404,392.019745,189.296997,391.706604,188.985107C391.580322,188.858841,391.416168,188.765396,391.215424,188.706055C390.73053,188.572205,390.21283,188.679535,389.661011,189.029312C389.504456,189.132843,389.322601,189.159363,389.114258,189.10759C388.965271,189.062134,388.78595,188.966171,388.577606,188.817169C388.405884,188.683319,388.115479,188.528015,387.705078,188.348709L387.626801,188.315872zM385.928467,193.433624L385.749146,193.52327C385.622894,193.590195,385.548401,193.653336,385.525665,193.712677L385.45874,193.789703L385.36908,193.789703C385.273102,193.760666,385.246613,193.693741,385.290802,193.590195C385.336243,193.477814,385.422119,193.385635,385.548401,193.311142C385.68222,193.229065,385.790833,193.184875,385.872894,193.177292L385.928467,193.177292C385.987793,193.192444,386.021912,193.236649,386.02948,193.311142C386.02948,193.378067,385.995392,193.418472,385.928467,193.433624zM386.186066,192.362854C386.245392,192.385574,386.278229,192.429779,386.285797,192.496689C386.293396,192.563614,386.245392,192.615387,386.140594,192.653275L385.638031,192.808578L385.257965,193.043442L384.978912,193.18866L384.956177,193.131836C384.956177,193.072495,385.019318,192.9841,385.145569,192.865402C385.257965,192.753021,385.380432,192.657059,385.514282,192.574982C385.723907,192.448715,385.936035,192.378006,386.151947,192.362854L386.186066,192.362854zM394.60199,193.165924L393.450409,193.489182L393.249634,193.444992L393.159973,193.265686L393.137238,193.043442L393.171326,192.731567C393.207947,192.590134,393.259735,192.530792,393.327911,192.552261L393.551422,192.976517L394.613342,193.020721C394.768677,193.080063,394.764893,193.129318,394.60199,193.165924zM393.517334,194.248062L393.505951,194.124329L393.584259,194.024567C393.681488,193.972794,393.759766,193.998047,393.819122,194.102859L393.998413,194.258179L394.098175,194.269531L394.187805,194.314987L394.266113,194.325089C394.4151,194.370544,394.567902,194.34404,394.724457,194.248062C394.732056,194.374344,394.70932,194.508179,394.657532,194.648346C394.590637,194.849121,394.497192,195.009476,394.378479,195.128174C394.258545,195.246872,394.143616,195.288544,394.03125,195.250656C393.935272,195.214035,393.867096,195.131958,393.830475,195.005692C393.792603,194.879425,393.792603,194.722839,393.830475,194.537231C393.704193,194.485458,393.599396,194.388229,393.517334,194.248062zM390.466614,193.378067L390.946442,193.299774L390.868164,193.623032C390.801239,193.867996,390.693909,194.064972,390.544922,194.213974C390.395905,194.347824,390.253235,194.399597,390.119385,194.370544C390.015839,194.325089,389.941345,194.229126,389.895874,194.080124C389.851685,193.931137,389.844116,193.753082,389.87442,193.544739C389.702698,193.462662,389.582733,193.307358,389.515808,193.076279C389.500671,193.032089,389.512024,192.991684,389.549896,192.953796L389.649658,192.875504C389.746887,192.854034,389.813812,192.898239,389.851685,193.009354C389.888306,193.150772,389.959015,193.236649,390.063812,193.265686L390.097931,193.277054L390.466614,193.378067zM390.577759,192.27446C390.413605,192.102737,390.119385,191.890594,389.695129,191.638062C389.315033,191.415817,389.124359,191.285767,389.124359,191.247879C389.251892,191.180954,389.5979,191.263031,390.164825,191.492844C390.648468,191.693619,390.999481,191.869125,391.215424,192.016861L391.616943,191.995407L391.930115,191.905746C391.975555,191.943634,391.844238,192.110306,391.538666,192.40831C391.233093,192.705048,391.05127,192.846466,390.991913,192.831314L390.84671,192.641907L390.577759,192.27446zM392.209167,193.121735L392.388458,194.114227C392.462952,194.380646,392.638489,194.831436,392.913757,195.462799C392.965515,195.611786,392.940277,195.730484,392.835449,195.820145L392.153595,196.388351L391.830353,196.432556L391.616943,196.310074L391.528564,196.198944L391.59549,196.065109L392.142242,195.640839L392.254608,195.485519C392.283661,195.418594,392.291229,195.355469,392.277344,195.296112L392.063965,194.303635L391.964203,193.477814L391.941467,193.098999C391.941467,192.942429,391.981873,192.871719,392.063965,192.886871L392.075317,192.886871C392.134674,192.909607,392.180115,192.987885,392.209167,193.121735zM389.181183,196.132019L389.30368,196.287338C390.182526,196.935104,390.853027,197.35054,391.315155,197.536163L391.605591,197.637177L392.757172,197.849304L393.360748,197.904861C393.420105,197.920013,393.476929,197.904861,393.528687,197.860672L393.6297,197.715454L393.662537,197.570251L393.740814,197.47049L393.807739,197.547516L394.065338,198.149826C394.117096,198.283676,394.090576,198.39859,393.987061,198.495819L393.316559,199.075394C393.286255,199.119583,393.257202,199.134735,393.226898,199.119583L393.215546,199.008469L393.249634,198.908722C393.286255,198.796341,393.253418,198.729416,393.148621,198.707947L393.093048,198.696579L392.298828,198.897354C391.680084,199.008469,391.152283,199.004684,390.711578,198.885986L390.701477,198.874619C390.260803,198.748352,389.743103,198.377121,389.147095,197.759659L388.37558,196.879547L388.287201,196.834091C388.189972,196.79747,388.104095,196.812622,388.029602,196.879547L387.884399,197.369476L387.772003,197.403564C387.742981,197.403564,387.727814,197.365692,387.727814,197.291183L387.806091,196.265869L387.884399,196.08783L388.052338,195.986816L389.337769,195.529709L389.426147,195.518356C389.479187,195.533508,389.475403,195.573914,389.416046,195.640839L389.181183,195.942627C389.150879,195.986816,389.150879,196.049957,389.181183,196.132019zM388.912231,196.354263L388.599091,196.376984C388.487976,196.421188,388.443787,196.495682,388.46524,196.600494L388.610443,196.801254C389.273376,197.447769,389.739319,197.864456,390.00827,198.050079C390.268372,198.228119,390.615631,198.377121,391.047485,198.495819L391.752075,198.606934L393.204163,198.528641C393.316559,198.536224,393.406189,198.476868,393.473145,198.350601C393.540039,198.247055,393.498383,198.168777,393.349396,198.117004L393.305176,198.117004L392.678894,198.050079L391.460388,197.815216L391.1586,197.715454C390.608063,197.507111,389.937561,197.094208,389.147095,196.478012C389.03598,196.411087,388.957703,196.369415,388.912231,196.354263zM378.976013,221.085617C379.505066,222.097046,380.186951,223.015045,381.021576,223.839584C381.856232,224.680542,382.772949,225.345993,383.771759,225.835922C384.755402,226.327118,386.278229,226.367523,388.342743,225.958405L391.137115,225.200775C390.719177,224.575745,390.432526,224.003738,390.27597,223.483505C390.239349,223.342072,390.283539,223.275146,390.40979,223.28273C390.544922,223.290314,390.633301,223.353439,390.678772,223.472137L391.752075,225.891479C392.355621,227.163025,392.947845,228.218643,393.528687,229.05835C393.945374,229.668243,394.474457,230.270538,395.115906,230.86528L396.121033,231.77948L396.646301,230.875381L396.657684,230.875381C397.247345,229.983917,398.021393,229.144211,398.9823,228.356293C399.750031,227.709778,400.704651,227.055695,401.843597,226.394043C401.322113,225.011383,400.655396,223.579468,399.843475,222.10083C399.075745,220.71817,398.323181,219.632248,397.585754,218.84433C396.602112,217.803848,395.507355,217.10936,394.300201,216.759598C392.556396,216.254517,390.86438,216.644684,389.225372,217.930115C387.884399,218.993317,386.799744,220.42775,385.972656,222.23468L385.951202,222.290253C385.898163,222.416519,385.798401,222.483429,385.649414,222.491013C385.500397,222.506165,385.45874,222.43924,385.525665,222.290253L386.140594,221.108353L386.34137,220.740906L382.408051,220.194153L382.362579,218.855682C381.670624,218.834229,381.036743,218.970581,380.46347,219.268585C379.710907,219.662552,379.218445,220.261078,378.987366,221.064148L378.976013,221.085617zM393.874664,202.152603L390.321411,201.762436L387.850311,201.494736L386.967682,201.406357L386.732819,201.372253L386.442383,201.639954L383.000244,204.695694L383.02298,205.275284L383.324768,205.263916L383.99527,205.275284C385.082458,205.275284,385.760529,205.416702,386.02948,205.698288L386.039581,205.709656C386.196167,205.887695,386.237823,206.078369,386.16333,206.279129C386.088837,206.516525,385.819855,206.702133,385.358978,206.835983L385.290802,206.981201L385.32489,207.103683L385.32489,207.147873C385.361511,207.639069,385.124115,208.058289,384.608948,208.408051C384.706177,208.646698,384.717529,208.891678,384.643036,209.144211C384.560944,209.427063,384.37912,209.649292,384.095001,209.813446L383.636658,210.1026L383.134094,210.425858L383.201019,216.669937L383.212372,217.105576L383.235107,219.580475L386.688599,220.138596C387.343964,219.149902,388.08136,218.327881,388.900879,217.673798C389.876953,216.878281,390.906036,216.376999,391.985657,216.16864C394.273682,215.730484,396.355896,216.589127,398.233521,218.744568L398.972229,219.692856L400.681915,211.41835L400.771576,210.983978L400.79303,210.882965C401.829712,205.887695,402.328491,203.349655,402.290619,203.267578C402.246399,203.156464,399.667969,202.810486,394.556519,202.230896L394.422668,202.219528L393.874664,202.152603z"/>
</svg>
