<?xml version="1.0" encoding="UTF-8"?>
<svg xmlns="http://www.w3.org/2000/svg" xmlns:xlink="http://www.w3.org/1999/xlink" width="42.106mm" height="52.275mm" viewBox="-363.884613 184.743820 42.106262 52.275131">
    <path transform="matrix(-1,0,0,1,0,0)" style="stroke:none;fill:#000000;fill-rule:evenodd" d="M351.957428,195.570618L351.957184,195.570618L352.176636,195.204849L352.17688,195.204849L352.380432,194.860565L352.57016,194.534851L352.745544,194.228134L352.90683,193.940231L353.050903,193.676697L353.186462,193.42189L353.304596,193.191925L353.404572,192.989471L353.495178,192.796631L353.572357,192.621246L353.632324,192.473145L353.658264,192.418564L353.690491,192.36734L353.728516,192.320129L353.771912,192.278076L353.820007,192.241165L353.871918,192.210297L353.927399,192.185684L353.93924,192.182114L353.940796,192.134018L353.946411,192.073837L353.959137,192.014557L353.978851,191.957275L354.005005,191.902924L354.037445,191.851685L354.07547,191.804932L354.11911,191.762665L354.167206,191.726196L354.21933,191.695313L354.274811,191.671158L354.332733,191.653488L354.392242,191.642746L354.452637,191.639175L354.513062,191.642746L354.572571,191.653488L354.630493,191.671158L354.685974,191.695541L354.738098,191.726196L354.786194,191.762878L354.829834,191.804932L354.868073,191.851685L354.900513,191.902924L354.926697,191.957504L354.946136,192.014771L354.950623,192.035126L354.996033,192.043182L355.053986,192.06041L355.109467,192.084564L355.161804,192.115219L355.230713,192.170029L355.43158,192.360855L355.472992,192.405151L355.508759,192.453918L355.538757,192.506485L355.562012,192.562408L355.57724,192.615204L355.606323,192.618561L355.664917,192.632874L355.721741,192.654129L355.775421,192.68187L355.825775,192.715652L355.866028,192.750107L356.089508,192.96106L356.131134,193.005127L356.164001,193.049866L356.344543,192.698868L356.384827,192.633331L356.456177,192.534454L356.485046,192.497986L356.553925,192.418793L356.600006,192.37204L356.666473,192.312973L356.738281,192.259735L356.802246,192.220367L356.855713,192.191727L356.916779,192.168015L356.978546,192.14856L357.03714,192.133789L357.097321,192.126175L357.136261,192.124847L357.195526,192.12529L357.25592,192.129318L357.31543,192.140503L357.365112,192.155487L357.421692,192.175842L357.477173,192.199783L357.553009,192.246307L357.607391,192.286575L357.6539,192.325287L357.695282,192.369354L357.731323,192.418121L357.748322,192.445862L357.770447,192.485016L357.797089,192.539368L357.822815,192.617676L357.838928,192.684784L357.850311,192.752792L357.859955,192.84787L357.862396,192.884323L357.865997,193.007141L357.865997,193.031311L357.863312,193.182312L357.862854,193.198639L357.853912,193.377609L357.853241,193.389679L357.838013,193.596619L357.837341,193.605118L357.816101,193.839783L357.815186,193.847382L357.787476,194.110245L357.787018,194.115173L357.753448,194.405991L357.752777,194.411133L357.712738,194.729919L357.71228,194.733719L357.666199,195.08046L357.665771,195.083817L357.613403,195.458527L357.612976,195.460999L357.554596,195.863663L357.554138,195.866348L357.489471,196.296768L357.489258,196.298782L357.418579,196.757385L357.417664,196.762756L357.10672,198.646362L357.105835,198.65152L356.792175,200.438721L356.879211,200.459961L356.937134,200.477859L356.992401,200.502243L357.023499,200.519699L357.113892,200.574509L357.163544,200.608948L357.208954,200.648773L357.250336,200.695313L357.314545,200.776733L357.349213,200.826401L357.377625,200.879639L357.39978,200.93602L357.408508,200.966217L357.425049,201.03064L357.436676,201.090149L357.440948,201.143845L357.443848,201.247421L357.442505,201.300888L357.431549,201.443832L357.428406,201.473816L357.403564,201.656128L357.400452,201.675598L357.361511,201.897064L357.359283,201.909821L357.306702,202.170441L357.304474,202.180283L357.237823,202.48027L357.236237,202.486984L357.155945,202.826355L357.154602,202.832382L357.060181,203.210907L357.059082,203.215149L356.951019,203.633041L356.94989,203.63707L356.827759,204.094101L356.826874,204.097229L356.690857,204.593643L356.690186,204.5961L356.540527,205.131882L356.539856,205.134338L356.376099,205.709274L356.375641,205.711288L356.198029,206.325363L356.197357,206.327148L356.044342,206.849503L356.055511,206.892914L356.055725,206.893127L356.086151,206.94548L356.110107,207.00119L356.127319,207.059113L356.134705,207.097382L356.147247,207.17836L356.152832,207.238541L356.151489,207.299164L356.138519,207.378571L356.116364,207.468964L356.09848,207.526672L356.064697,207.599152L356.008087,207.699158L355.97522,207.750153L355.955292,207.775436L355.864014,207.884598L355.822174,207.929123L355.696228,208.047684L355.664246,208.075195L355.503632,208.203156L355.479462,208.221283L355.28418,208.358856L355.261566,208.374084L355.017059,208.527542L354.991791,208.542297L354.732269,208.685257L354.707214,208.698227L354.433197,208.829987L354.409485,208.840515L354.120667,208.961761L354.096954,208.971161L353.793396,209.081207L353.771912,209.088379L353.453796,209.187927L353.432556,209.194183L353.09967,209.282776L353.079742,209.287476L352.73233,209.365326L352.672607,209.375168L352.612213,209.377853L352.551819,209.373154L352.492523,209.361526L352.435028,209.342957L352.380005,209.317673L352.328308,209.286133L352.28067,209.248779L352.237946,209.206039L352.200348,209.158615L352.168823,209.106934L352.143524,209.05191L352.124969,208.994415L352.113129,208.934906L352.109314,208.895096L352.1026,208.777863L352.101715,208.751251L352.101471,208.721039L350.801056,215.017517L351.470184,211.850937L351.46994,211.850937L351.582245,211.305542L351.583832,211.298157L351.88559,209.93689L351.902161,209.87851L351.925659,209.822815L351.955414,209.77002L351.990967,209.721252L352.032349,209.676941L352.07843,209.637802L352.128998,209.604462L352.183136,209.577393L352.23996,209.556824L352.299011,209.542953L352.359192,209.53624L352.436829,209.538254L352.618927,209.556595L352.78244,209.560394L352.951355,209.551666L353.119141,209.53064L353.290924,209.496643L353.46991,209.448318L353.647522,209.387695L353.819336,209.317001L354.455566,208.973389L354.51059,208.947891L354.568085,208.928864L354.62738,208.917023L354.687531,208.912094L354.748169,208.914337L354.807892,208.923721L354.866058,208.940063L354.921997,208.963104L354.974792,208.99263L355.023773,209.028198L355.068298,209.069366L355.107452,209.115448L355.140991,209.165771L355.168518,209.219696L355.189331,209.27652L355.203186,209.335358L355.210114,209.395523L355.2099,209.455933L355.200714,209.526398L354.414612,213.376404L354.43924,213.379089L354.498077,213.392731L354.555115,213.413315L354.609009,213.440384L354.659576,213.473724L354.7117,213.518463L356.220612,215.000748L356.233154,215.013504L357.048096,215.871857L357.055481,215.879913L357.824371,216.725311L357.832214,216.734253L358.554993,217.566895L358.563293,217.576294L359.193695,218.339584L359.353424,218.24585L359.360809,218.241379L359.718506,218.039597L359.727234,218.034897L360.077789,217.845856L360.086731,217.841156L360.429901,217.664886L360.439301,217.660187L360.775299,217.496216L360.786041,217.491058L361.114441,217.340057L361.125397,217.335358L361.446655,217.196655L361.459167,217.191284L361.917542,217.007629L361.924255,217.004944L362.056488,216.954163L362.062958,216.951935L362.182434,216.907852L362.192505,216.904053L362.299408,216.867142L362.318878,216.86087L362.494934,216.807861L362.542145,216.796234L362.668549,216.77095L362.720001,216.763336L362.838562,216.751923L362.909241,216.749924L363.014618,216.754395L363.074799,216.760651L363.105225,216.766479L363.196716,216.787048L363.254883,216.803833L363.302094,216.823074L363.380157,216.859756L363.433411,216.88884L363.486206,216.926651L363.550629,216.979218L363.595123,217.020157L363.638092,217.070496L363.689087,217.13916L363.722198,217.189957L363.747498,217.240067L363.784393,217.324844L363.805206,217.381668L363.813477,217.413208L363.836975,217.514099L363.847717,217.577637L363.882385,217.913422L363.884613,217.986572L363.870972,218.325043L363.863129,218.395508L363.801392,218.736893L363.785278,218.801758L363.675232,219.146057L363.653534,219.202423L363.495361,219.549622L363.470306,219.597488L363.263824,219.947372L363.237885,219.986969L362.983063,220.339752L362.957794,220.372192L362.654663,220.727661L362.632538,220.751831L362.334534,221.059204L362.318878,221.074631L362.010406,221.366577L361.994293,221.381348L361.67572,221.658066L361.658508,221.672379L361.329865,221.93367L361.312195,221.947098L360.973297,222.193176L360.954498,222.206146L360.605286,222.436798L360.586273,222.448868L360.22699,222.664078L360.20752,222.675049L359.837952,222.875031L359.818054,222.88533L359.650513,222.966751L359.626556,222.977722L359.470184,223.043945L359.439545,223.055786L359.294342,223.106567L359.254761,223.118652L359.1203,223.153778L359.060791,223.165405L359.009338,223.169891L358.383209,223.192703L358.338226,223.192474L358.1539,223.182861L358.048096,223.189575L358.002655,223.200089L358.001312,223.20076L357.981201,223.217987L357.953674,223.251755L357.924133,223.305679L357.898193,223.376816L357.793274,223.897385L357.784332,223.933838L357.743835,224.078812L357.724152,224.136078L357.710297,224.166946L357.649872,224.289764L357.619904,224.342331L357.590363,224.383499L357.510071,224.483948L357.469574,224.5289L357.423706,224.568954L357.38858,224.596252L357.39798,224.647247L357.401123,224.737396L357.37384,225.247681L357.369812,225.289734L357.299316,225.805389L357.292175,225.844986L357.178528,226.36644L357.168915,226.403809L357.011658,226.931091L357.001587,226.961731L356.858856,227.349411L356.849915,227.372009L356.701569,227.722565L356.689728,227.748505L356.536255,228.061249L356.519714,228.092133L356.360657,228.367065L356.327332,228.417618L356.288177,228.463699L356.24411,228.505096L356.204071,228.534851L355.510773,229.003296L355.458893,229.034149L355.403412,229.058762L355.345703,229.07666L355.286194,229.087402L355.225769,229.091202L355.165375,229.087845L355.154419,229.085831L354.969421,229.387619L354.959808,229.402603L354.757111,229.708862L354.747711,229.722504L354.528259,230.03212L354.519318,230.044418L354.283295,230.357162L354.274139,230.368805L354.021118,230.684677L354.012604,230.694962L353.743042,231.013977L353.734558,231.023819L353.447968,231.345947L353.439911,231.354904L353.136566,231.680176L353.128967,231.688232L352.809082,232.016632L352.801239,232.024231L352.469269,232.351074L352.346893,232.474792L352.30191,232.515045L352.252472,232.549957L352.199249,232.578812L352.142853,232.600952L352.084473,232.616394L352.068359,232.618622L352.06189,232.64682L352.041748,232.703857L352.015137,232.758224L351.982025,232.808777L351.943329,232.855316L351.907745,232.889771L351.681122,233.088638L351.66571,233.101837L351.444458,233.281021L351.425873,233.29512L351.209778,233.454407L351.188538,233.469391L350.97757,233.608978L350.952728,233.62442L350.747162,233.74411L350.717834,233.759979L350.517639,233.859756L350.483612,233.874969L350.288544,233.955063L350.248962,233.969604L350.059265,234.029785L350.000641,234.04454L349.916962,234.053497L349.458588,234.064667L349.39798,234.062653L349.338257,234.053497L349.28009,234.037155L349.238007,234.020599L348.812531,233.831345L348.75885,233.803604L348.70874,233.769608L348.665771,233.732697L348.64856,233.716141L348.629761,233.72374L348.571381,233.740082L348.511658,233.749466L348.451019,233.751709L348.390839,233.74678L348.366241,233.741867L348.344086,233.768707L348.300232,233.810318L348.249023,233.848358L347.578796,234.283905L347.577881,234.284576L346.953308,234.68837L346.951965,234.68927L346.372559,235.061523L346.371216,235.062408L345.837219,235.402893L345.835419,235.404022L345.346863,235.712952L345.344849,235.714294L344.901672,235.99147L344.898987,235.993042L344.501221,236.238434L344.498108,236.240448L344.145752,236.454315L344.092072,236.482513L344.035706,236.504211L343.977081,236.519196L343.917145,236.527252L343.856506,236.527924L343.796326,236.521652L343.737274,236.50824L343.68045,236.488098L343.626099,236.461258L343.575531,236.428146L343.528992,236.389221L343.487396,236.345367L343.451385,236.2966L343.444885,236.285431L343.367706,236.399292L343.336609,236.44046L343.15564,236.656555L343.114014,236.700623L342.922974,236.880493L342.876434,236.919189L342.825897,236.952301L342.771515,236.979141L342.714478,236.999268L342.65564,237.012695L342.595459,237.018951L342.534851,237.01828L342.474884,237.010239L342.41629,236.995239L342.384735,236.98407L342.288544,236.946259L342.240448,236.924561L342.130157,236.867508L342.097504,236.849167L341.9729,236.772659L341.949188,236.756989L341.820313,236.667511L341.611603,236.534637L341.458588,236.462601L341.351868,236.433517L341.273804,236.430389L340.788818,236.510254L340.717438,236.516968L340.697968,236.51741L340.636444,236.515167L340.546753,236.506439L340.522827,236.50354L340.262207,236.465729L340.252563,236.464172L339.669159,236.367966L339.663544,236.367081L337.99469,236.07312L337.991333,236.072449L333.702423,235.287231L333.700836,235.287018L322.584137,233.219055L322.579651,233.21817L322.468689,233.196472L322.400482,233.178116L322.308075,233.146362L322.252167,233.123535L322.221069,233.107208L322.147247,233.065155L322.096466,233.032043L322.049255,232.992676L321.993988,232.940552L321.952606,232.896469L321.905182,232.829361L321.868286,232.767166L321.840546,232.71347L321.81189,232.630493L321.793793,232.558228L321.782593,232.498718L321.778351,232.432281L321.778564,232.349731L321.782379,232.289337L321.788635,232.250183L321.80719,232.157791L321.822632,232.099182L321.83316,232.070099L321.867828,231.982635L321.902039,231.912598L321.945007,231.839233L321.978546,231.788895L322.002045,231.76004L322.053711,231.701202L322.096466,231.65802L322.132233,231.628723L322.1922,231.583984L322.242767,231.550644L322.290405,231.52626L322.358856,231.495834L322.41568,231.474579L322.462006,231.462738L322.53894,231.446625L322.592407,231.438568L322.590851,231.423584L322.591522,231.363174L322.599579,231.303223L322.614349,231.244614L322.636261,231.188019L322.664459,231.134552L322.698914,231.084656L322.722382,231.056702L323.236237,230.48848L323.279419,230.445984L323.327301,230.409058L323.379181,230.377975L323.434448,230.353134L323.492157,230.335022L323.546967,230.324509L323.571594,230.321152L323.631775,230.316452L323.671356,230.317352L323.716095,230.320038L323.702911,230.296097L323.679871,230.240173L323.663513,230.182007L323.654358,230.12204L323.652344,230.061646L323.657257,230.001251L323.669556,229.941956L323.688568,229.884476L323.712067,229.833908L324.002441,229.28717L324.033752,229.235504L324.071136,229.188065L324.113861,229.145111L324.161499,229.107544L324.212952,229.075989L324.267975,229.05072L324.32547,229.031921L324.336212,229.029694L324.297974,228.988068L324.28656,228.973541L324.252106,228.923874L324.223694,228.870407L324.201996,228.813812L324.186768,228.755188L324.178711,228.695236L324.178284,228.626785L324.211151,228.080048L324.218323,228.019867L324.232635,227.961029L324.253662,227.904205L324.281403,227.850525L324.315186,227.800186L324.354553,227.754333L324.395264,227.716736L324.405792,227.708023L324.454559,227.671997L324.49057,227.651871L324.461273,227.638885L324.426361,227.621887L324.39325,227.604218L324.341583,227.572678L324.275818,227.518097L324.263947,227.506454L324.223236,227.461487L324.188354,227.412277L324.159271,227.359039L324.136902,227.302887L324.120117,227.239578L324.080292,227.036667L324.038452,226.858597L323.99707,226.712967L323.948303,226.572479L323.931763,226.514313L323.922363,226.454361L323.920105,226.393951L323.924805,226.333557L323.93689,226.274277L323.955688,226.216782L323.981201,226.161972L324.01297,226.110519L324.050537,226.063095L324.093506,226.02037L324.141144,225.983231L324.193054,225.951904L324.248077,225.926849L324.251221,225.925964L323.968231,225.852142L323.910492,225.833344L323.855682,225.808075L323.804016,225.776306L323.756592,225.738953L323.713867,225.695984L323.676514,225.648346L323.644958,225.596664L323.619904,225.541626L323.601349,225.483917L323.589691,225.424637L323.585236,225.364227L323.587921,225.303833L323.597748,225.24411L323.614532,225.185944L323.638031,225.130234L323.667999,225.077667L323.703796,225.0289L323.745392,224.984833L323.791718,224.945892L323.842255,224.912567L323.896393,224.885727L323.953461,224.865143L324.012299,224.851715L324.070007,224.84523L324.23822,224.836273L324.238678,224.836273L324.305115,224.821289L324.436676,224.788406L324.830841,224.683258L325.417847,224.519958L326.630554,224.174774L326.630554,224.174561L328.884186,223.522217L330.073425,223.175247L329.819061,222.846405L329.80722,222.830521L329.558685,222.481979L329.547272,222.46521L329.313049,222.107727L329.302521,222.090942L329.082611,221.72496L329.072571,221.707275L328.866974,221.332352L328.841034,221.277771L328.821777,221.22049L328.809479,221.161209L328.804108,221.100815L328.805908,221.040405L328.813293,220.990753L328.777039,220.965469L328.731628,220.925415L328.691345,220.880234L328.656464,220.830795L328.627838,220.777328L328.614166,220.745117L328.445953,220.305527L328.441254,220.292786L328.282867,219.843353L328.278625,219.830597L328.130066,219.371323L328.126282,219.359024L327.989594,218.896622L327.959625,218.807358L327.943726,218.748749L327.936798,218.707581L327.814209,217.726624L327.810181,217.666229L327.813538,217.60582L327.823822,217.546097L327.841034,217.488159L327.864319,217.434021L327.860291,217.426636L327.836578,217.367584L327.024963,214.931625L326.985138,214.933182L326.785156,214.930283L326.731445,214.926483L326.534149,214.902771L326.481354,214.893814L326.28717,214.849518L326.236603,214.835205L326.045349,214.770325L326.009094,214.756454L325.52655,214.550873L325.493225,214.535217L325.052307,214.308594L325.01651,214.288239L324.617432,214.040817L324.580048,214.01532L324.222351,213.747086L324.183655,213.715103L323.867767,213.425842L323.8302,213.387589L323.555695,213.07753L323.520142,213.032562L323.287476,212.701477L323.256592,212.651825L323.065338,212.30014L323.044525,212.256973L322.912994,211.9496L322.897339,211.90799L322.793091,211.591217L322.781006,211.548492L322.704254,211.222321L322.696228,211.179596L322.64679,210.843811L322.642303,210.802429L322.619934,210.457245L322.618805,210.416748L322.623962,210.061951L322.625977,210.023926L322.658417,209.659729L322.662872,209.624374L322.722626,209.250793L322.728882,209.218124L322.815887,208.834915L322.823517,208.805161L322.937805,208.412552L322.946777,208.385254L323.088593,207.983261L323.097534,207.95932L323.266449,207.547699L323.276276,207.525772L323.472717,207.104538L323.48233,207.084839L323.705811,206.654434L323.715424,206.636765L323.966431,206.196503L323.97583,206.180618L324.25412,205.731186L324.263733,205.716431L324.735992,205.009293L324.748077,204.991837L325.242004,204.314667L325.255219,204.297226L325.771301,203.65004L325.785614,203.632813L326.323425,203.01561L326.339081,202.998596L326.899017,202.411377L326.915344,202.395035L327.497192,201.837784L327.514648,201.821671L328.118652,201.294617L328.13678,201.279633L328.762512,200.782547L328.784424,200.76622L329.025116,200.595093L329.050201,200.578308L329.301849,200.420822L329.328033,200.40538L329.590881,200.261765L329.616852,200.248566L329.775665,200.173172L329.806549,200.147446L329.856415,200.115234L330.369843,199.82196L330.388184,199.81189L330.911896,199.540527L330.930237,199.531357L331.463989,199.28125L331.483002,199.272751L332.026855,199.044571L332.046082,199.037186L332.60022,198.830475L332.619659,198.823547L333.183624,198.638535L333.202881,198.632721L333.77713,198.469193L333.7966,198.46405L334.381134,198.32222L334.402832,198.317291L335.196991,198.160706L335.256958,198.152649L335.317596,198.15152L335.377747,198.157562L335.381348,198.158463L335.231445,197.826263L335.22049,197.800079L335.03952,197.331635L335.030334,197.305695L334.870392,196.815094L334.863007,196.790939L334.79837,196.55336L334.665924,196.507492L334.602386,196.480423L334.410889,196.38356L334.343994,196.343079L334.177795,196.22406L334.1138,196.169693L333.97287,196.028763L333.917633,195.963669L333.801727,195.800812L333.75946,195.729889L333.66864,195.545105L333.639984,195.473969L333.574463,195.267258L333.55835,195.201721L333.517853,194.973083L333.510925,194.914917L333.496613,194.679352L333.497498,194.604858L333.515839,194.388977L333.530609,194.303299L333.581848,194.106659L333.600616,194.049179L333.614929,194.015839L333.699066,193.838882L333.728149,193.785873L333.750519,193.753433L333.867523,193.595947L333.906433,193.549637L333.931274,193.524811L334.080933,193.38678L334.14917,193.333984L334.206421,193.296616L334.20285,193.283203L334.196594,193.245834L334.176239,193.221008L334.143799,193.169785L334.117615,193.115189L334.098145,193.057922L334.085388,192.998871L334.079803,192.93869L334.082031,192.872467L334.104645,192.637802L334.1138,192.57785L334.130371,192.519684L334.153412,192.46376L334.164825,192.443405L334.158783,192.394409L334.158783,192.334L334.165924,192.273834L334.181366,192.214767L334.164368,192.193741L334.131927,192.142517L334.105988,192.087921L334.086517,192.030655L334.074005,191.971603L334.068634,191.916122L334.055206,191.588165L334.054749,191.562881L334.057648,191.213684L334.058319,191.190643L334.078003,190.820618L334.07959,190.80072L334.115814,190.409668L334.118286,190.388641L334.170624,189.99939L334.174652,189.97345L334.242889,189.609253L334.249146,189.580612L334.333038,189.241028L334.34198,189.209473L334.441528,188.89473L334.454071,188.859604L334.569519,188.569672L334.58606,188.532318L334.717163,188.266998L334.739075,188.227173L334.885834,187.986694L334.914001,187.945313L335.07666,187.729431L335.101044,187.699234L335.30191,187.470825L335.318481,187.453156L335.528778,187.235703L335.546448,187.218262L335.766571,187.01178L335.785583,186.994766L336.015564,186.799698L336.029205,186.788513L336.185577,186.66481L336.203461,186.651154L336.354706,186.541992L336.376617,186.527222L336.522705,186.432816L336.548187,186.417389L336.689148,186.337524L336.720245,186.321182L336.856018,186.256088L336.892944,186.240204L337.023346,186.18988L337.066986,186.17511L337.192261,186.139313L337.244598,186.127457L337.251984,186.126114L338.02063,185.588547L338.025116,185.585632L338.202728,185.464172L338.234283,185.44426L338.410339,185.341797L338.447266,185.322327L338.621521,185.23912L338.664246,185.220993L338.836945,185.157013L338.884613,185.1418L339.055511,185.096832L339.108765,185.085876L339.277893,185.06015L339.33493,185.054779L339.502258,185.048294L339.561554,185.049408L339.713654,185.061035L340.647644,185.092361L340.929962,185.017426L341.265076,184.893036L341.302216,184.880951L341.557007,184.808029L341.611603,184.795502L341.84024,184.756348L341.912933,184.749191L342.115173,184.74382L342.175781,184.745834L342.208893,184.749863L342.384277,184.777603L342.443359,184.790588L342.499054,184.809814L342.554535,184.832642L342.63327,184.873352L342.695923,184.912949L342.745117,184.948288L342.796356,184.99617L342.861023,185.065292L342.910675,185.127258L342.977325,185.225464L343.004181,185.269989L343.072845,185.397278L343.088959,185.429489L343.159882,185.586304L343.169739,185.609802L343.242889,185.7957L343.249603,185.813812L343.324982,186.028809L343.329895,186.043564L343.404175,186.278458L343.578003,186.764359L343.870605,186.778442L343.888275,186.779572L344.436371,186.824982L344.496307,186.833481L344.554688,186.849136L344.586456,186.860779L344.83255,186.960541L344.887115,186.986496L344.953339,187.029892L345.042145,187.098572L345.102325,187.153381L345.201447,187.258972L345.234772,187.29834L345.343719,187.440842L345.363861,187.46904L345.482849,187.648666L345.495605,187.668808L345.624908,187.885132L345.633881,187.900787L345.773224,188.154022L345.779938,188.166336L345.929596,188.456696L345.93454,188.466995L346.088226,188.782196L346.146149,188.8936L346.194702,188.968552L346.248169,189.034317L346.299835,189.084869L346.358673,189.13028L346.422424,189.168549L346.491333,189.199631L346.504303,189.203659L347.016602,189.173019L347.024658,189.164734L347.049042,189.120895L347.088196,188.98645L347.108551,188.929398L347.135406,188.875259L347.168488,188.824707L347.207428,188.778168L347.251495,188.736786L347.300262,188.700775L347.3526,188.670792L347.408539,188.647079L347.466492,188.630295L347.526215,188.620453L347.586823,188.617554L347.647003,188.622025L347.706512,188.633438L347.764221,188.651779L347.819275,188.677063L347.870941,188.708374L347.918579,188.745728L347.961548,188.788239L347.999115,188.835663L348.036255,188.8974L348.12619,189.074142L348.149231,189.126266L348.21814,189.309708L348.235352,189.364731L348.283234,189.554886L348.293976,189.610809L348.320831,189.808121L348.325287,189.886414L348.320587,190.145691L348.312531,190.22847L348.264221,190.493118L348.245667,190.564926L348.154388,190.835388L348.129333,190.89624L347.994415,191.172516L347.968933,191.218597L347.800934,191.488388L347.758636,191.546555L347.573853,191.767136L347.590179,191.791733L347.617706,191.845657L347.636047,191.893967L347.665802,191.986145L347.68103,192.044754L347.688843,192.101578L347.6987,192.221924L347.699371,192.296875L347.690186,192.438248L347.682373,192.500443L347.654846,192.645859L347.641876,192.699097L347.596466,192.848984L347.580109,192.894394L347.517029,193.048523L347.485504,193.112503L347.401367,193.256805L347.366272,193.309372L347.24881,193.463287L347.21817,193.499969L347.067169,193.663727L347.041443,193.689453L346.85733,193.862595L346.810791,193.90152L346.760223,193.934418L346.705872,193.961258L346.673889,193.972672L346.674316,193.981842L346.687317,194.356995L346.687744,194.380936L346.683289,194.749832L346.682373,194.774887L346.660248,195.137283L346.657562,195.166138L346.589325,195.743759L346.583282,195.781784L346.496704,196.224503L346.530029,196.207947L346.587097,196.187592L346.646149,196.174179L346.694916,196.168579L347.071869,196.142639L347.095581,196.14151L347.466492,196.13324L347.491302,196.13324L347.856171,196.142853L347.882141,196.144196L348.24118,196.171936L348.26712,196.174622L348.619904,196.220032L348.646545,196.22406L348.993286,196.287369L349.019897,196.292969L349.36084,196.374176L349.387695,196.381332L349.722351,196.480423L349.748749,196.489151L350.077362,196.606155L350.103088,196.615997L350.425903,196.750885L350.450531,196.762085L350.767273,196.914642L350.791443,196.926956L351.03775,197.062073L351.219391,196.771698L351.480682,196.350677L351.726776,195.950241L351.957428,195.570618zM332.312683,205.197601L332.312683,205.364288L332.312683,205.153412L332.312683,205.197601zM332.947174,210.817627L332.963074,210.86618L332.966858,210.88475L332.965973,210.806671L332.947174,210.817627zM332.70285,217.050629L332.658661,217.072083L332.670013,217.507721L332.714203,217.484985L332.70285,217.050629M346.175018,197.313522L346.217957,197.286453L346.35733,197.189804L346.387085,197.165421L346.384399,197.154007L346.364258,197.095398L346.332062,197.022034L346.301636,196.964539L346.175018,197.313522zM332.813171,204.489609L332.810272,204.550018L332.800201,204.609741L332.783203,204.667908L332.759491,204.723618L332.729523,204.775955L332.698181,204.817795L332.717651,204.840164L332.751648,204.890045L332.779633,204.943741L332.801086,205.000336L332.815857,205.059174L332.823456,205.119125L332.824585,205.153351L332.824585,205.281311L332.850769,205.278625L332.828613,204.716461L332.829742,204.656052L332.838226,204.5961L332.853455,204.537491L332.87558,204.48111L332.901764,204.432343L332.876038,204.409302L332.835999,204.363892L332.811371,204.328323L332.813171,204.489609zM353.105713,217.955475L352.818695,218.139587L352.782684,218.1604L352.443085,218.341156L352.449127,218.343842L352.501251,218.374268L352.549561,218.410721L352.593414,218.45256L352.601257,218.462173L352.674164,218.448532L352.696533,218.433762L352.764313,218.376053L352.860535,218.27829L352.970581,218.151215L353.098999,217.987915L353.140594,217.93042L353.105713,217.955475zM332.871124,200.421036L332.870453,200.430206L332.870209,200.430664L332.854553,200.632889L332.841797,200.852798L332.856567,200.796417L332.875366,200.738922L332.900879,200.684128L332.932861,200.632675L332.970428,200.585236L333.013397,200.54274L333.061035,200.505371L333.112946,200.47406L333.167969,200.449005L333.225677,200.430664L333.285187,200.419479L333.345367,200.415009L333.385864,200.416122L333.742462,200.440063L333.334412,200.353256L332.881622,200.320602L332.871124,200.421036zM349.813843,219.797043L349.797974,219.855438L349.775604,219.911575L349.746521,219.964813L349.711395,220.014038L349.670898,220.059006L349.625275,220.098816L349.579407,220.129913L349.727722,220.350937L349.987671,219.282074L350.005341,219.22435L350.029938,219.168869L350.060608,219.116745L350.09729,219.068649L350.139557,219.025253L350.186554,218.987213L350.237762,218.954773L350.292358,218.928833L350.28183,218.921906L350.235321,218.882965L350.193695,218.839127L350.157684,218.790359L350.127716,218.738007L350.104004,218.682312L350.087006,218.624146L350.077148,218.564407L350.075592,218.530182L349.813843,219.797043zM353.253143,202.627029L353.213531,202.672668L353.168579,202.713379L353.119354,202.748276L353.066345,202.777359L353.011078,202.7995L352.987152,202.807556L352.928741,202.823441L352.897888,202.82814L352.938141,202.856552L352.977509,202.891449L352.988922,202.902634L353.029633,202.947372L353.064758,202.996811L353.093628,203.049835L353.116211,203.105988L353.131866,203.164368L353.137909,203.199936L353.139923,203.214935L353.144196,203.302628L353.143066,203.331924L353.139923,203.37175L353.128082,203.473312L353.125397,203.493896L353.084229,203.754517L353.082214,203.765701L352.983124,204.314453L352.981995,204.320709L352.961853,204.424957L353.037933,204.14801L353.039032,204.143982L353.160065,203.716934L353.161407,203.711777L353.271484,203.338196L353.273712,203.331253L353.373047,203.011124L353.37616,203.001511L353.464752,202.734406L353.469452,202.720306L353.49472,202.650955L353.447083,202.65387L353.386688,202.650284L353.327179,202.639557L353.260071,202.616959L353.253143,202.627029zM355.774994,201.581863L355.736969,201.628845L355.693542,201.671112L355.645691,201.708038L355.593781,201.739136L355.538513,201.763733L355.480591,201.781631L355.421082,201.792587L355.360687,201.796616L355.300293,201.793259L355.240784,201.782974L355.182617,201.765747L355.127136,201.741592L355.121094,201.738007L355.097137,201.739807L355.036743,201.736893L354.97702,201.727051L354.919067,201.710266L354.89267,201.699081L354.865173,201.708923L354.806122,201.722565L354.751526,201.728165L354.75174,201.769333L354.745026,201.829498L354.731171,201.888336L354.710358,201.94516L354.683075,201.999084L354.649506,202.049637L354.626923,202.077591L354.560028,202.154556L354.550842,202.16394L354.583527,202.174683L354.730042,202.200867L354.899628,202.210037L355.045685,202.202652L355.170074,202.182739L355.275665,202.1521L355.348389,202.119659L355.964478,201.677612L355.892212,201.619446L355.791321,201.555908L355.774994,201.581863zM347.188599,192.263702C347.188599,192.084396,347.13559,191.980865,347.032043,191.950562L346.831268,191.98465C346.621643,192.095764,346.428467,192.145004,346.249146,192.129852C346.36911,192.612213,346.454987,193.066788,346.506744,193.489792C346.774445,193.252411,346.953735,193.040268,347.043396,192.854645C347.139374,192.646301,347.188599,192.449326,347.188599,192.263702zM334.699249,200.357727L334.658539,200.402252L334.612915,200.441849L334.562805,200.475845L334.508881,200.503586L334.486969,200.511871L334.639984,200.52977L334.667267,200.533569L336.030975,200.768463L336.089813,200.782333L336.146637,200.802917L336.200775,200.8302L336.251129,200.863541L336.297424,200.902679L336.338593,200.946976L336.37439,200.995743L336.404144,201.048538L336.427399,201.104462L336.443939,201.162628L336.453583,201.222366L336.454468,201.246521L336.72583,200.996414L336.772583,200.95816L336.823822,200.925507L336.878174,200.899323L336.935425,200.879639L336.99472,200.866898L337.054901,200.861298L337.115295,200.86264L337.146179,200.866226L337.371002,200.89888L338.241211,200.985901L338.245483,200.98613L340.716766,201.253906L340.717438,201.254135L342.754517,201.477844L334.880005,200.40918L334.82074,200.397552L334.763,200.378983L334.708191,200.353699L334.704407,200.351471L334.699249,200.357727zM341.932404,231.79718L341.911133,231.853775L341.883392,231.907684L341.849396,231.957794L341.809814,232.003433L341.765289,232.044144L341.753204,232.052872L341.77536,232.090225L341.799957,232.145477L341.817871,232.20343L341.828827,232.262939L341.832611,232.325562L341.832611,233.015717L341.917633,233.639191L341.922333,233.699585L341.919647,233.759979L341.910034,233.819717L341.893463,233.877884L341.869995,233.933578L341.84024,233.986374L341.804443,234.035141L341.763062,234.079437L341.715179,234.119705L341.702209,234.129333L341.665741,234.153259L341.72702,234.171829L341.74939,234.179214L341.797943,234.196442L341.853882,234.219925L341.891907,234.240952L341.908905,234.251251L341.958801,234.285477L342.004211,234.325516L342.044708,234.370712L342.079376,234.420151L342.108002,234.473389L342.135315,234.545868L342.259003,234.970245L342.266632,235.003128L342.39212,234.595093L342.454987,234.340515L342.507111,234.102936L342.549377,233.877884L342.58136,233.670502L342.602417,233.484161L342.614044,233.311005L342.616058,233.157532L342.609772,233.035172L342.568848,232.766052L342.491669,232.464722L342.375122,232.127808L342.219421,231.760483L342.047607,231.424026L341.932404,231.79718zM349.043518,232.27002C348.984192,232.434174,348.939972,232.623581,348.909668,232.839508C348.871796,233.128662,348.909668,233.302917,349.020813,233.363525L349.44632,233.552933L349.904694,233.541565C350.403473,233.407715,350.959045,233.061737,351.57019,232.504883L349.345306,231.478302L349.043518,232.27002zM333.228149,202.164581C333.183929,202.915894,333.187744,203.543457,333.239502,204.048538C333.56781,203.528305,334.074158,202.944931,334.759796,202.298431C335.250977,201.829971,335.64621,201.487778,335.944214,201.273117L334.580505,201.038254L334.011017,200.971329L333.351868,200.927124C333.298859,201.090027,333.258453,201.50293,333.228149,202.164581zM356.878632,193.734756L355.715668,200.659439L356.275055,200.425842C356.498535,199.190918,356.710693,197.942093,356.91272,196.679382C357.306671,194.159027,357.437988,192.831924,357.302887,192.698074C357.161469,192.564224,356.99353,192.642517,356.800323,192.932938L356.554108,193.411499L356.878632,193.734756zM350.116821,220.919556C350.399689,221.388016,350.682526,221.900681,350.966644,222.457535L351.245697,222.21257C351.715424,221.74411,351.983093,221.257965,352.050018,220.751617L352.217957,218.800735L351.637115,219.101257C351.182556,219.324753,350.798676,219.425781,350.485535,219.403046L350.116821,220.919556zM351.379547,197.481201C351.878296,197.719864,352.456635,198.209793,353.111969,198.953522C353.440277,199.324753,353.71933,199.67453,353.950409,200.001572C353.444061,198.945953,353.316528,197.406708,353.570343,195.385117C353.696594,194.374954,353.875916,193.467072,354.106995,192.665253C353.793823,193.482224,352.884674,195.088379,351.379547,197.481201zM349.211456,230.921448C349.769592,229.880981,350.50827,228.802628,351.423737,227.687653L352.084137,227.041153C351.07016,227.643463,350.224152,228.215469,349.546082,228.758438C348.674805,229.441559,347.970215,230.154984,347.434845,230.898712C347.419678,231.977081,347.761871,232.757416,348.462677,233.239777C348.410919,232.906433,348.477844,232.501099,348.663452,232.025055L349.211456,230.921448zM354.542603,225.635757C355.109558,225.532227,355.53006,225.639557,355.805328,225.959015C356.066711,226.264587,356.040192,226.802505,355.72702,227.576538C355.608337,227.873276,355.440399,228.207886,355.224487,228.579132L355.917694,228.110657C356.133636,227.76973,356.334381,227.326523,356.521271,226.784821C356.759918,226.077713,356.882416,225.387009,356.889984,224.710205L356.017456,224.788483C355.660095,224.729141,355.362122,224.572571,355.123444,224.320023L354.821655,225.13446L354.6651,225.323883L354.441589,225.335236C353.421326,224.390732,352.397278,223.700027,351.368164,223.26062L352.162415,224.989258L352.687683,226.282272L352.731903,226.505768L353.257172,226.148422C353.681458,225.888306,354.110779,225.717834,354.542603,225.635757zM332.70285,217.050629L332.624573,215.155304C330.65094,215.59346,329.216522,216.429367,328.32251,217.66304L328.445007,218.644165L328.479095,218.745178C328.657135,219.376526,328.861694,219.982635,329.092773,220.56221C329.436218,219.789429,330.005707,219.209854,330.803741,218.823456C331.392151,218.533035,332.020996,218.384033,332.691498,218.377731L332.670013,217.507721L332.658661,217.072083L332.70285,217.050629zM354.878479,192.541504L354.598175,194.426727L354.452972,192.151321C354.431488,193.386246,354.244629,194.709564,353.894836,196.121277C353.715546,196.805664,353.700378,197.670609,353.849396,198.719925C353.946625,199.425781,354.099396,200.131622,354.307739,200.837479L354.452972,201.239014C354.468109,201.239014,354.445374,200.833694,354.386047,200.024292L354.330475,198.808319L354.519897,200.012939L354.721924,201.21756L354.833038,200.158142C354.884796,199.451035,354.922699,199.09874,354.945404,199.09874L355.012329,200.168243L355.090637,201.227661L355.23584,200.179611L355.381042,199.142929L355.358307,201.284485L356.47583,193.701935L356.129822,193.679199L355.805328,195.006302L355.738403,193.333221L355.514893,193.122345L355.213104,194.515106L355.079254,192.732178L354.878479,192.541504zM331.216644,211.531342L331.004517,211.575531L330.970428,211.732101C330.441345,212.564224,329.860504,213.248611,329.227875,213.782745C328.660919,214.266357,328.087646,214.589615,327.505554,214.753769L328.32251,217.205933C328.993011,216.054352,330.423676,215.289154,332.614471,214.909073L332.467987,210.995941C331.976807,211.248489,331.560089,211.426529,331.216644,211.531342zM322.309509,232.258652C322.235016,232.518768,322.357483,232.671555,322.678223,232.715759L331.73056,234.400208C337.594574,235.492447,340.587189,236.027832,340.705872,236.005112L341.242523,235.916718C341.481171,235.893982,341.767822,236.001312,342.102448,236.23996C342.296875,236.381393,342.453461,236.469788,342.572174,236.50766C342.833527,236.291748,343.06839,235.979858,343.276764,235.57074C343.529297,235.102264,343.678284,234.612335,343.723755,234.098419C343.827301,232.946838,343.750275,232.080612,343.488892,231.501038L343.242645,230.91008C343.183319,230.73204,342.858795,230.679016,342.270386,230.75351L342.147888,230.764877L342.325928,230.84317L342.68454,231.545227C342.937073,232.095764,343.082306,232.575592,343.120178,232.983459C343.156799,233.407715,343.078491,233.991089,342.885315,234.734833L342.583527,235.715942C342.635284,235.871262,342.598663,235.987427,342.47113,236.06192L342.102448,236.0392L341.544312,235.670486C341.282928,235.537903,341.082153,235.496231,340.940735,235.548004C340.746277,235.630081,337.804169,235.083328,332.110626,233.909012L322.823425,231.95813C322.562073,231.906357,322.39032,232.006119,322.309509,232.258652zM354.095612,202.521927C353.931458,202.878006,353.652405,203.803574,353.257172,205.297363C352.779877,207.089142,352.567749,208.27861,352.620789,208.865768C353.566528,208.672577,354.356995,208.364471,354.989624,207.940201C355.55658,207.561386,355.75354,207.282333,355.581818,207.104294L355.514893,206.847961L355.514893,206.836594C356.573059,203.246719,357.038971,201.332458,356.91272,201.093811C356.844513,200.967545,356.706879,200.911987,356.498535,200.927124C356.334381,200.942291,356.16394,200.990265,355.984619,201.072342C356.595764,201.420853,356.706879,201.747894,356.319244,202.053467L355.604553,202.566132C355.411346,202.669662,355.176483,202.722702,354.899963,202.722702C354.580505,202.722702,354.311523,202.655777,354.095612,202.521927zM349.614258,231.032562L351.983093,232.1147L352.105591,231.990967C353.946625,230.21434,355.071686,228.571564,355.482056,227.062622C355.608337,226.580261,355.463135,226.282272,355.045166,226.171143C354.695404,226.073914,354.292603,226.119385,353.838013,226.304993C353.123322,226.60173,352.411163,227.144699,351.704041,227.932617C350.720398,229.137238,350.012024,230.162567,349.58017,231.009842L349.614258,231.032562zM354.04007,209.779968C353.473114,210.032501,352.922546,210.122162,352.385925,210.047653L352.084137,211.408859L351.971741,211.954346L350.586548,218.510315C351.368164,218.280502,352.020996,218.012802,352.54248,217.708496C353.377136,217.2173,353.656189,216.727371,353.379669,216.236176L353.346832,216.046768L354.699188,209.423874L354.04007,209.779968zM353.156158,200.648071C353.394806,200.759186,353.593048,200.871567,353.749634,200.982697L354.072876,201.284485L353.916321,200.982697L353.793823,200.648071C353.742065,200.492767,353.589264,200.232635,353.33548,199.867722C352.962982,199.324753,352.531128,198.838623,352.038666,198.406769C350.52594,197.069565,348.756897,196.492508,346.730255,196.679382C346.915863,197.006424,346.95755,197.255188,346.852722,197.425644C346.793396,197.515305,346.603973,197.656723,346.283264,197.849915C345.538269,198.288071,345.131653,199.005295,345.064728,200.001572L348.674805,199.844986C350.179962,199.904343,351.226746,200.016724,351.815155,200.179611C352.351807,200.328613,352.798828,200.485184,353.156158,200.648071zM351.782349,201.150635C352.236908,201.097595,352.716736,201.209976,353.224335,201.483978L353.860748,201.896881L354.173889,201.818604L354.240814,201.741577L353.894836,201.462524C352.538696,200.391739,350.560028,199.904343,347.960114,200.001572L344.237671,200.257904L343.466156,200.246536L343.242645,200.235168C341.313232,200.154358,338.97345,199.584869,336.224548,198.529251L335.989685,198.775482L337.206909,199.221222L335.709351,199.087372L335.609589,199.198486L337.017517,199.488907L335.407562,199.421982L334.949219,199.90181L352.777344,202.321152C352.932678,202.336304,352.844269,202.254242,352.508392,202.074936C352.151062,201.881744,351.61441,201.718842,350.898438,201.585007C351.539886,201.533234,352.151062,201.614044,352.731903,201.829971L353.447845,202.141861L353.547607,202.074936C353.58548,202.053467,353.379669,201.919617,352.932678,201.674652C352.464203,201.420853,352.080322,201.246597,351.782349,201.150635zM356.610931,221.466309C356.133636,222.201202,355.715668,222.971451,355.358307,223.77327C355.574249,224.093994,355.925262,224.279617,356.408905,224.33139C356.915222,224.390732,357.210724,224.212692,357.291534,223.796005L357.4039,223.239151C357.463257,223.030792,357.568054,222.874222,357.717041,222.770691C357.843323,222.68103,358.059235,222.651993,358.364838,222.68103L358.991119,222.658295C359.162842,222.621689,359.363617,222.543396,359.594696,222.424698C360.593506,221.912048,361.483704,221.235229,362.26532,220.395538C363.137848,219.443451,363.495209,218.521683,363.338623,217.630203C363.294434,217.339783,363.10376,217.221085,362.769135,217.272858C362.634033,217.28801,362.366333,217.37767,361.963531,217.540558C361.136475,217.860016,360.23111,218.313324,359.247467,218.901749C358.026428,219.793213,357.146301,220.648071,356.610931,221.466309zM329.472839,207.171219L329.451385,208.397308C329.457703,208.850616,329.499359,209.244568,329.573853,209.579193C329.700134,210.144882,330.043579,210.672699,330.601715,211.162628L331.094177,211.095703C331.592926,210.954285,332.204071,210.668915,332.926361,210.237061L334.200409,209.435242C334.431488,209.301392,334.559021,209.122101,334.580505,208.899857C334.595642,208.77359,334.576721,208.661209,334.524933,208.565247L334.502197,208.553879L333.831696,208.798843C333.40744,208.955414,333.0867,209.033707,332.870789,209.033707L332.580353,208.966782L333.854431,208.475586C334.80777,208.104355,335.266144,207.672501,335.229523,207.182571L335.17395,207.048737L335.12851,206.993164L335.117157,206.981812L334.11203,207.249496C333.463013,207.419968,333.000854,207.505829,332.725586,207.505829C332.561432,207.505829,332.454102,207.479309,332.401062,207.427551C332.379608,207.398499,332.744507,207.25708,333.497101,207.004532C334.257233,206.750732,334.782532,206.595413,335.072937,206.536072C335.482056,206.446426,335.76239,206.364349,335.911377,206.289841C336.089417,206.201447,336.134888,206.104218,336.045227,206.000687C335.963165,205.911026,335.720703,205.840317,335.319183,205.788544L334.335541,205.721619L333.665039,205.710266L331.921234,205.888306L331.909882,205.888306C331.858093,205.888306,331.842957,205.662277,331.86441,205.208969C331.887146,204.755661,331.875793,204.528366,331.831573,204.528366C331.354279,204.677368,330.851715,205.107956,330.322632,205.821381L329.472839,207.171219zM343.399231,187.268448C343.288116,187.23056,343.20224,187.163635,343.142914,187.067673L342.919403,186.442627C342.709808,185.751938,342.52417,185.373123,342.360016,185.306198L342.304474,185.283463C342.088531,185.224121,341.800659,185.253159,341.443298,185.373123L341.085968,185.505707L340.705872,185.60672L339.688141,185.572632C339.248718,185.513275,338.790344,185.658493,338.314331,186.008255L337.453156,186.610565C337.140015,186.647186,336.771301,186.840378,336.347015,187.190155C336.033875,187.442688,335.747223,187.72554,335.48584,188.03743C335.031281,188.580399,334.744659,189.386002,334.625946,190.456772C334.566589,190.992157,334.551453,191.471985,334.580505,191.894989C334.864594,191.338135,335.288879,190.902512,335.854553,190.590622C336.078064,190.471924,336.425293,190.326721,336.89502,190.15625L336.469513,189.431458C336.335663,189.096832,336.309143,188.832932,336.391205,188.63974C336.511169,188.364471,336.679108,188.152328,336.89502,188.004593C337.193024,187.788681,337.531433,187.736908,337.911499,187.848022L338.13501,187.926315C338.276428,187.985657,338.499939,188.14476,338.805511,188.404877C339.088348,188.643524,339.286591,188.777374,339.397705,188.806412L339.46463,188.829147C339.51767,188.829147,339.827026,188.658676,340.392731,188.316483C340.936951,187.981873,341.335968,187.851807,341.588501,187.926315C341.641541,187.933884,341.697113,187.962921,341.756439,188.014694L342.360016,188.661209L342.717377,189.062744L343.019165,189.274887L343.153015,189.28624L343.488892,189.219315L344.115173,189.186493C344.256622,189.223114,344.409393,189.322861,344.573547,189.487015C344.69223,189.605713,344.856384,189.917603,345.064728,190.42395L345.400635,191.215652C345.631683,191.550278,345.884247,191.757355,346.159515,191.839432C346.36911,191.891205,346.554749,191.873535,346.718872,191.783875C347.054779,191.613419,347.326233,191.334351,347.534607,190.947968C347.74295,190.57547,347.836395,190.219391,347.81366,189.877197C347.792175,189.609497,347.713898,189.360748,347.580048,189.129669C347.527008,189.404938,347.393158,189.586761,347.177246,189.676422L346.439819,189.720612C346.074921,189.624649,345.805939,189.389786,345.634216,189.018555C345.194794,188.096771,344.863983,187.56897,344.640472,187.43512L344.394257,187.335358L343.846222,187.289902L343.399231,187.268448zM353.906219,216.058136C354.233246,216.712219,354.151184,217.389038,353.659973,218.087311C353.242035,218.682037,352.932678,218.971191,352.731903,218.957306L352.709167,220.841263C352.351807,221.711273,351.952789,222.350204,351.513367,222.759308C352.54248,223.168442,353.555176,223.818726,354.553986,224.710205C354.94162,223.669739,355.50354,222.54718,356.240967,221.34256C356.756134,220.510437,357.623627,219.636642,358.845917,218.722443C357.973389,217.637787,356.979645,216.519028,355.862152,215.36618L354.35321,213.883759L353.906219,216.058136zM324.097504,225.356705L340.952118,229.750916L341.030396,229.783752C341.484985,230.051453,341.794342,230.185287,341.957214,230.185287L342.203461,230.162567L343.097443,230.141098C343.46994,230.208023,343.708588,230.404999,343.813416,230.73204L344.025543,231.256073C344.249023,231.730835,344.405609,232.136169,344.49527,232.470795C344.658142,233.042801,344.714966,233.612274,344.661926,234.176712C344.6026,234.794174,344.342468,235.406586,343.88031,236.016464C344.759155,235.488663,346.122894,234.622437,347.970215,233.419083L347.914673,233.363525C347.415894,232.908951,347.117889,232.304108,347.02066,231.545227L346.651978,232.258652C346.621643,232.348312,346.569885,232.411438,346.495392,232.448059L346.237793,232.415237C346.000397,232.244766,345.620331,231.879852,345.098846,231.322998C344.434662,230.608307,343.834869,229.869614,343.299469,229.103149C342.881531,228.508423,342.461029,227.765945,342.035522,226.873215L341.521576,225.679962C338.585785,227.033585,336.078064,227.259613,333.999634,226.36055C332.918762,225.899658,331.936401,225.212753,331.048706,224.297302L330.423676,223.606598C326.458771,224.765762,324.414459,225.346603,324.286926,225.346603L324.097504,225.356705zM324.555878,226.47168L324.432129,226.404755C324.506622,226.597946,324.569763,226.844177,324.622803,227.140915C324.630371,227.186371,325.53952,227.494461,327.35025,228.066467C329.159698,228.646057,330.068848,228.962997,330.076416,229.014771L327.405792,228.557663C325.617798,228.200317,324.722534,228.051315,324.722534,228.110657L324.689728,228.65741C324.682129,228.716766,325.773132,229.062744,327.963928,229.694092C330.139557,230.319138,331.220428,230.661331,331.205292,230.720673L327.830078,230.12973L324.454865,229.52742L324.164429,230.074173C324.141693,230.118378,325.579926,230.504761,328.479095,231.233337C331.369446,231.969498,332.803864,232.355881,332.781128,232.392502C332.744507,232.445526,331.216644,232.187943,328.198792,231.623505C325.180908,231.059082,323.654297,230.795181,323.616425,230.831802L323.102478,231.400024L331.820221,233.384979L338.683014,234.935593L340.717255,235.002518C341.00766,234.876251,341.357422,234.912872,341.767822,235.113632L341.644073,234.689362C341.637756,234.65274,340.281616,234.31813,337.576904,233.686783L333.519836,232.682922C333.504669,232.623581,334.819153,232.794037,337.464508,233.195587C340.109894,233.604706,341.424347,233.775162,341.410461,233.708252L341.320831,233.050369L341.320831,232.325577C341.3284,232.288956,339.886383,231.876053,336.994781,231.088135C334.11203,230.292633,332.673798,229.877197,332.681396,229.83931C332.688965,229.802689,334.148651,230.10321,337.061707,230.742142C339.976044,231.382339,341.43573,231.682861,341.443298,231.64624L341.722351,230.742142C341.46225,230.675232,341.14151,230.535065,340.761444,230.319138L324.634155,226.461578C324.65564,226.52092,324.630371,226.524704,324.555878,226.47168zM330.121887,200.569778L330.110504,200.581146C329.738007,200.7453,329.394562,200.946075,329.081421,201.183456C327.383057,202.468903,325.919586,204.075058,324.689728,206.000687C323.132813,208.423813,322.741364,210.44162,323.515411,212.055359C323.969971,213.021332,324.867767,213.76506,326.210022,214.285294C327.222717,214.686844,328.359131,214.207016,329.618073,212.847076C329.969086,212.46701,330.259521,212.110916,330.490601,211.776306C329.820099,211.248489,329.380676,210.646179,329.171051,209.969376C329.052368,209.55394,328.993011,209.093048,328.993011,208.5867L329.059937,207.159851C327.934875,207.517197,327.193665,208.129608,326.835052,208.999603C326.790863,209.125885,326.693634,209.19281,326.544647,209.200378C326.39563,209.21553,326.35144,209.144821,326.410797,208.988251C326.686066,208.334167,327.062347,207.76973,327.539642,207.293701C328.068726,206.781036,328.657135,206.450211,329.306183,206.301208L330.177429,205.297363C330.519623,204.926117,330.825195,204.639481,331.094177,204.439972C331.325226,204.26825,331.526001,204.157135,331.697723,204.105362L331.764648,204.082642L331.831573,204.082642C331.965424,204.082642,332.081604,204.130615,332.177551,204.227844C332.238159,204.294769,332.278595,204.383163,332.3013,204.495544C332.263428,201.566055,332.322784,199.993988,332.47934,199.778076L333.40744,199.844986L334.301453,200.03566L335.285095,198.819672L335.296448,198.663101L334.502197,198.819672C332.930145,199.169449,331.466675,199.749023,330.110504,200.559677L330.121887,200.569778zM337.967072,188.316483C337.580688,188.204102,337.259949,188.341736,337.006165,188.728134C336.730896,189.137253,336.834412,189.582977,337.319305,190.066589L337.38623,190.189087C337.401367,190.271149,337.355927,190.326721,337.25238,190.357025C336.715729,190.498444,336.309143,190.642395,336.033875,190.791397C335.3255,191.156311,334.872192,191.680328,334.670135,192.363464C335.042633,191.902573,335.464386,191.51619,335.932861,191.2043C336.507385,190.869675,336.86853,190.699219,337.017517,190.691635L337.107178,190.701736C337.174103,190.716888,337.206909,190.75856,337.206909,190.825485C337.214508,190.884827,337.181671,190.925232,337.107178,190.947968L336.771301,191.081818L336.067963,191.437897C335.776276,191.594467,335.478271,191.814178,335.17395,192.095764L334.614594,192.686707L334.591858,192.92157L334.60321,192.92157C335.021179,192.437958,335.449249,192.078094,335.888672,191.839432C336.246002,191.64624,336.532623,191.542694,336.749817,191.527542L336.805389,191.527542C336.872314,191.550278,336.891235,191.598267,336.860931,191.67276C336.838226,191.761154,336.771301,191.820496,336.660156,191.8508C336.41394,191.910141,336.198029,191.992218,336.011139,192.095764L334.692871,193.088257L334.704224,193.177902L334.872192,193.277664C334.960571,193.36731,334.946686,193.45697,334.826721,193.545349C334.208008,193.783997,333.940308,194.229736,334.022369,194.88382C334.096863,195.522751,334.439087,195.92807,335.050232,196.098541L335.21817,196.143997C335.389893,196.842285,335.617188,197.481201,335.900024,198.062057L335.932861,198.016602C336.022491,197.913055,336.127319,197.886536,336.246002,197.938309L338.26886,198.685822L340.448303,199.320969L340.471008,199.187119C340.515198,199.076004,340.608643,199.043182,340.750061,199.087372L340.795532,199.09874L341.666809,199.466187L341.756439,199.544464L341.722351,199.588669L342.505249,199.70105L343.947235,199.812164L344.449799,199.265411C345.456177,198.054474,346.021881,196.66803,346.149414,195.106064C346.231476,194.147659,346.126678,193.122345,345.836243,192.028839C345.567291,191.910141,345.326111,191.686646,345.108948,191.359604L344.762939,190.535065C344.554596,190.037552,344.405609,189.739563,344.315948,189.643585C344.264191,189.590561,344.197266,189.55394,344.115173,189.531204L343.299469,189.586761L342.873962,189.55394C342.635284,189.487015,342.360016,189.297607,342.046875,188.985718C341.920593,188.859451,341.756439,188.766006,341.555695,188.706665C341.070801,188.572815,340.553101,188.680145,340.001282,189.029922C339.844727,189.133453,339.662872,189.159973,339.454529,189.1082C339.305542,189.062744,339.126221,188.966782,338.917877,188.81778C338.746155,188.683929,338.45575,188.528625,338.045349,188.349319L337.967072,188.316483zM336.268738,193.434235L336.089417,193.52388C335.963165,193.590805,335.888672,193.653946,335.865936,193.713287L335.799011,193.790314L335.709351,193.790314C335.613373,193.761276,335.586884,193.694351,335.631073,193.590805C335.676514,193.478424,335.76239,193.386246,335.888672,193.311752C336.022491,193.229675,336.131104,193.185486,336.213165,193.177902L336.268738,193.177902C336.328064,193.193054,336.362183,193.237259,336.369751,193.311752C336.369751,193.378677,336.335663,193.419083,336.268738,193.434235zM336.526337,192.363464C336.585663,192.386185,336.6185,192.430389,336.626068,192.497299C336.633667,192.564224,336.585663,192.615997,336.480865,192.653885L335.978302,192.809189L335.598236,193.044052L335.319183,193.18927L335.296448,193.132446C335.296448,193.073105,335.359589,192.984711,335.48584,192.866013C335.598236,192.753632,335.720703,192.657669,335.854553,192.575592C336.064178,192.449326,336.276306,192.378616,336.492218,192.363464L336.526337,192.363464zM344.942261,193.166534L343.79068,193.489792L343.589905,193.445602L343.500244,193.266296L343.477509,193.044052L343.511597,192.732178C343.548218,192.590744,343.600006,192.531403,343.668182,192.552872L343.891693,192.977127L344.953613,193.021332C345.108948,193.080673,345.105164,193.129929,344.942261,193.166534zM343.857605,194.248672L343.846222,194.124939L343.92453,194.025177C344.021759,193.973404,344.100037,193.998657,344.159393,194.10347L344.338684,194.258789L344.438446,194.270142L344.528076,194.315598L344.606384,194.325699C344.755371,194.371155,344.908173,194.34465,345.064728,194.248672C345.072327,194.374954,345.049591,194.508789,344.997803,194.648956C344.930908,194.849731,344.837463,195.010086,344.71875,195.128784C344.598816,195.247482,344.483887,195.289154,344.371521,195.251266C344.275543,195.214645,344.207367,195.132568,344.170746,195.006302C344.132874,194.880035,344.132874,194.72345,344.170746,194.537842C344.044464,194.486069,343.939667,194.38884,343.857605,194.248672zM340.806885,193.378677L341.286713,193.300385L341.208435,193.623642C341.14151,193.868607,341.03418,194.065582,340.885193,194.214584C340.736176,194.348434,340.593506,194.400208,340.459656,194.371155C340.35611,194.325699,340.281616,194.229736,340.236145,194.080734C340.191956,193.931747,340.184387,193.753693,340.214691,193.545349C340.042969,193.463272,339.923004,193.307968,339.856079,193.076889C339.840942,193.0327,339.852295,192.992294,339.890167,192.954407L339.989929,192.876114C340.087158,192.854645,340.154083,192.898849,340.191956,193.009964C340.228577,193.151382,340.299286,193.237259,340.404083,193.266296L340.438202,193.277664L340.806885,193.378677zM340.91803,192.27507C340.753876,192.103348,340.459656,191.891205,340.0354,191.638672C339.655304,191.416428,339.46463,191.286377,339.46463,191.248489C339.592163,191.181564,339.938171,191.263641,340.505096,191.493454C340.988739,191.694229,341.339752,191.869736,341.555695,192.017471L341.957214,191.996017L342.270386,191.906357C342.315826,191.944244,342.184509,192.110916,341.878937,192.40892C341.573364,192.705658,341.391541,192.847076,341.332184,192.831924L341.186981,192.642517L340.91803,192.27507zM342.549438,193.122345L342.728729,194.114838C342.803223,194.381256,342.97876,194.832047,343.254028,195.463409C343.305786,195.612396,343.280548,195.731094,343.17572,195.820755L342.493866,196.388962L342.170624,196.433167L341.957214,196.310684L341.868835,196.199554L341.93576,196.06572L342.482513,195.641449L342.594879,195.48613C342.623932,195.419205,342.6315,195.356079,342.617615,195.296722L342.404236,194.304245L342.304474,193.478424L342.281738,193.099609C342.281738,192.943039,342.322144,192.87233,342.404236,192.887482L342.415588,192.887482C342.474945,192.910217,342.520386,192.988495,342.549438,193.122345zM339.521454,196.132629L339.643951,196.287949C340.522797,196.935715,341.193298,197.351151,341.655426,197.536774L341.945862,197.637787L343.097443,197.849915L343.701019,197.905472C343.760376,197.920624,343.8172,197.905472,343.868958,197.861282L343.969971,197.716064L344.002808,197.570862L344.081085,197.4711L344.14801,197.548126L344.405609,198.150436C344.457367,198.284286,344.430847,198.3992,344.327332,198.496429L343.65683,199.076004C343.626526,199.120193,343.597473,199.135345,343.567169,199.120193L343.555817,199.009079L343.589905,198.909332C343.626526,198.796951,343.593689,198.730026,343.488892,198.708557L343.433319,198.697189L342.639099,198.897964C342.020355,199.009079,341.492554,199.005295,341.051849,198.886597L341.041748,198.875229C340.601074,198.748962,340.083374,198.377731,339.487366,197.760269L338.715851,196.880157L338.627472,196.834702C338.530243,196.79808,338.444366,196.813232,338.369873,196.880157L338.22467,197.370087L338.112274,197.404175C338.083252,197.404175,338.068085,197.366302,338.068085,197.291794L338.146362,196.266479L338.22467,196.08844L338.392609,195.987427L339.67804,195.530319L339.766418,195.518967C339.819458,195.534119,339.815674,195.574524,339.756317,195.641449L339.521454,195.943237C339.49115,195.987427,339.49115,196.050568,339.521454,196.132629zM339.252502,196.354874L338.939362,196.377594C338.828247,196.421799,338.784058,196.496292,338.805511,196.601105L338.950714,196.801865C339.613647,197.44838,340.07959,197.865067,340.348541,198.05069C340.608643,198.228729,340.955902,198.377731,341.387756,198.496429L342.092346,198.607544L343.544434,198.529251C343.65683,198.536835,343.74646,198.477478,343.813416,198.351212C343.88031,198.247665,343.838654,198.169388,343.689667,198.117615L343.645447,198.117615L343.019165,198.05069L341.800659,197.815826L341.498871,197.716064C340.948334,197.507721,340.277832,197.094818,339.487366,196.478622C339.376251,196.411697,339.297974,196.370026,339.252502,196.354874zM329.316284,221.086227C329.845337,222.097656,330.527222,223.015656,331.361847,223.840195C332.196503,224.681152,333.11322,225.346603,334.11203,225.836533C335.095673,226.327728,336.6185,226.368134,338.683014,225.959015L341.477386,225.201385C341.059448,224.576355,340.772797,224.004349,340.616241,223.484116C340.57962,223.342682,340.62381,223.275757,340.750061,223.28334C340.885193,223.290924,340.973572,223.35405,341.019043,223.472748L342.092346,225.89209C342.695892,227.163635,343.288116,228.219254,343.868958,229.05896C344.285645,229.668854,344.814728,230.271149,345.456177,230.865891L346.461304,231.78009L346.986572,230.875992L346.997955,230.875992C347.587616,229.984528,348.361664,229.144821,349.322571,228.356903C350.090302,227.710388,351.044922,227.056305,352.183868,226.394653C351.662384,225.011993,350.995667,223.580078,350.183746,222.10144C349.416016,220.718781,348.663452,219.632858,347.926025,218.84494C346.942383,217.804459,345.847626,217.10997,344.640472,216.760208C342.896667,216.255127,341.204651,216.645294,339.565643,217.930725C338.22467,218.993927,337.140015,220.42836,336.312927,222.235291L336.291473,222.290863C336.238434,222.41713,336.138672,222.484039,335.989685,222.491623C335.840668,222.506775,335.799011,222.43985,335.865936,222.290863L336.480865,221.108963L336.681641,220.741516L332.748322,220.194763L332.70285,218.856293C332.010895,218.834839,331.377014,218.971191,330.803741,219.269196C330.051178,219.663162,329.558716,220.261688,329.327637,221.064758L329.316284,221.086227zM344.214935,202.153214L340.661682,201.763046L338.190582,201.495346L337.307953,201.406967L337.07309,201.372864L336.782654,201.640564L333.340515,204.696304L333.363251,205.275894L333.665039,205.264526L334.335541,205.275894C335.422729,205.275894,336.1008,205.417313,336.369751,205.698898L336.379852,205.710266C336.536438,205.888306,336.578094,206.078979,336.503601,206.279739C336.429108,206.517136,336.160126,206.702744,335.699249,206.836594L335.631073,206.981812L335.665161,207.104294L335.665161,207.148483C335.701782,207.639679,335.464386,208.058899,334.949219,208.408661C335.046448,208.647308,335.0578,208.892288,334.983307,209.144821C334.901215,209.427673,334.719391,209.649902,334.435272,209.814056L333.976929,210.10321L333.474365,210.426468L333.54129,216.670547L333.552643,217.106186L333.575378,219.581085L337.02887,220.139206C337.684235,219.150513,338.421631,218.328491,339.24115,217.674408C340.217224,216.878891,341.246307,216.377609,342.325928,216.16925C344.613953,215.731094,346.696167,216.589737,348.573792,218.745178L349.3125,219.693466L351.022186,211.418961L351.111847,210.984589L351.133301,210.883575C352.169983,205.888306,352.668762,203.350266,352.63089,203.268188C352.58667,203.157074,350.00824,202.811096,344.89679,202.231506L344.762939,202.220139L344.214935,202.153214z"/>
</svg>
