<?xml version="1.0" encoding="UTF-8"?>
<svg xmlns="http://www.w3.org/2000/svg" xmlns:xlink="http://www.w3.org/1999/xlink" width="42.107mm" height="52.275mm" viewBox="-314.223267 184.743973 42.106506 52.275131">
    <path transform="matrix(-1,0,0,1,0,0)" style="stroke:none;fill:#000000;fill-rule:evenodd" d="M275.7565,224.520111L276.969208,224.174927L276.969208,224.174713L279.222839,223.522369L280.412079,223.1754L280.157715,222.846558L280.145874,222.830673L279.897339,222.482132L279.885925,222.465363L279.651703,222.10788L279.641174,222.091095L279.421265,221.725113L279.411224,221.707428L279.205627,221.332504L279.179688,221.277924L279.160431,221.220642L279.148132,221.161362L279.142761,221.100967L279.144562,221.040558L279.151947,220.990677L279.115479,220.965393L279.070068,220.925354L279.029785,220.880386L278.995117,220.830719L278.966492,220.777481L278.953064,220.745483L278.784607,220.305908L278.779694,220.292938L278.621307,219.843506L278.617065,219.830536L278.468719,219.371246L278.464935,219.359177L278.329803,218.901688L278.298279,218.808853L278.282379,218.750458L278.275238,218.707733L278.152863,217.726563L278.148834,217.666153L278.152191,217.605759L278.162476,217.546249L278.179688,217.488083L278.202972,217.434174L278.19873,217.426559L278.175232,217.367737L277.363617,214.931778L277.323578,214.93335L277.123566,214.930435L277.069885,214.926636L276.872803,214.902924L276.820007,214.893967L276.625824,214.84967L276.575256,214.835358L276.384003,214.770477L276.347748,214.756607L275.865234,214.551025L275.832123,214.53537L275.391174,214.308975L275.355164,214.28862L274.955841,214.04097L274.918274,214.015472L274.560791,213.747238L274.522522,213.715485L274.206421,213.426224L274.16861,213.387512L273.894348,213.077454L273.859009,213.032944L273.626129,212.701859L273.595032,212.651978L273.403778,212.300293L273.382751,212.256683L273.251434,211.94931L273.235992,211.908142L273.131744,211.59137L273.119659,211.548645L273.042938,211.222473L273.034882,211.180191L272.985199,210.844406L272.980743,210.802353L272.958588,210.457169L272.957458,210.416901L272.962616,210.062103L272.96463,210.024078L272.99707,209.659882L273.001526,209.624527L273.061279,209.250946L273.067535,209.218277L273.154541,208.835068L273.16217,208.805313L273.276489,208.412704L273.285187,208.385864L273.426819,207.983856L273.436188,207.959259L273.605316,207.547623L273.614716,207.526154L273.810913,207.104919L273.82077,207.084778L274.044464,206.654358L274.054077,206.636917L274.305084,206.196655L274.314484,206.180771L274.592773,205.731354L274.602173,205.716583L275.074188,205.009445L275.086487,204.991989L275.580658,204.314835L275.593872,204.297379L276.109741,203.650192L276.124268,203.632965L276.662292,203.015762L276.677734,202.998749L277.237671,202.41153L277.253998,202.395187L277.835876,201.837936L277.853302,201.822052L278.457092,201.294998L278.475433,201.279785L279.101379,200.782715L279.122864,200.766373L279.363342,200.595245L279.388855,200.578232L279.640747,200.420746L279.666687,200.405533L279.929535,200.261917L279.955505,200.248718L280.114319,200.173325L280.140961,200.150726L280.194855,200.115158L280.708496,199.821884L280.726837,199.812042L281.250549,199.54068L281.269104,199.531509L281.802887,199.281631L281.821655,199.273346L282.365509,199.044952L282.384735,199.037338L282.938629,198.830627L282.958099,198.8237L283.522278,198.638687L283.541534,198.632874L284.115784,198.469345L284.135254,198.464203L284.719788,198.322372L284.741486,198.317444L285.535675,198.160858L285.595612,198.152802L285.65625,198.151672L285.716431,198.157715L285.719757,198.158386L285.569885,197.82663L285.558929,197.800018L285.378174,197.331573L285.368988,197.30629L285.208832,196.815918L285.201447,196.790863L285.137024,196.553513L285.004364,196.507645L284.940582,196.480591L284.749329,196.383713L284.682648,196.343231L284.516449,196.224213L284.452454,196.169861L284.311523,196.028915L284.256287,195.963821L284.140381,195.800964L284.098114,195.730042L284.007294,195.545258L283.978668,195.474121L283.913116,195.26741L283.897003,195.201874L283.856506,194.973236L283.849792,194.915527L283.835266,194.679962L283.836151,194.604568L283.854706,194.388687L283.869263,194.303467L283.920502,194.106812L283.93927,194.049332L283.953613,194.015991L284.03772,193.839035L284.066803,193.786026L284.088715,193.754028L284.205505,193.596542L284.244415,193.550018L284.270142,193.524734L284.420044,193.386703L284.487823,193.334137L284.545319,193.296768L284.541504,193.282898L284.535461,193.246887L284.514648,193.22139L284.482208,193.170151L284.456055,193.11557L284.436584,193.058304L284.423828,192.999237L284.418243,192.939072L284.420471,192.872406L284.443298,192.637512L284.452698,192.577545L284.469025,192.519394L284.492279,192.463455L284.503235,192.443771L284.497223,192.394562L284.497223,192.334152L284.504364,192.273987L284.519806,192.214691L284.503235,192.194336L284.470825,192.143112L284.444855,192.088531L284.425171,192.031265L284.412659,191.97197L284.407288,191.916504L284.393646,191.588547L284.393188,191.562592L284.396301,191.213379L284.396973,191.190796L284.416687,190.82077L284.418243,190.800873L284.454468,190.409821L284.45694,190.388794L284.509277,189.999542L284.513306,189.973602L284.581543,189.609406L284.587799,189.580994L284.671478,189.241394L284.68042,189.209183L284.780212,188.894424L284.792511,188.860199L284.907715,188.570282L284.9245,188.532471L285.055573,188.267151L285.077728,188.226883L285.224701,187.986404L285.252655,187.945465L285.415314,187.729584L285.439453,187.6996L285.640137,187.471207L285.657135,187.453079L285.867645,187.235641L285.885101,187.218414L286.105225,187.011932L286.124237,186.994934L286.353973,186.79985L286.367859,186.788437L286.524445,186.664734L286.542114,186.651306L286.693359,186.542145L286.715271,186.527374L286.861359,186.432968L286.886841,186.417542L287.027802,186.337677L287.058441,186.321564L287.194,186.25647L287.231354,186.240356L287.361786,186.190033L287.405396,186.175262L287.530701,186.139465L287.583038,186.12738L287.591522,186.125824L288.35907,185.588928L288.36377,185.585571L288.541626,185.464096L288.572723,185.444412L288.748566,185.341949L288.785919,185.322266L288.960388,185.239044L289.002686,185.221146L289.175171,185.157166L289.223022,185.141953L289.393951,185.096985L289.447205,185.086029L289.616302,185.060303L289.67337,185.054932L289.840912,185.048447L289.900208,185.049561L290.052094,185.061203L290.986298,185.092514L291.267731,185.017792L291.603271,184.893188L291.640869,184.88089L291.895905,184.807953L291.950256,184.795654L292.178894,184.7565L292.251587,184.749344L292.453827,184.743973L292.514435,184.745987L292.547546,184.750015L292.722931,184.777756L292.782013,184.790741L292.837708,184.809967L292.893188,184.832794L292.971924,184.873505L293.034576,184.913101L293.083771,184.948441L293.13501,184.996323L293.199677,185.065445L293.249329,185.127411L293.315979,185.225616L293.342834,185.270142L293.41153,185.39743L293.427612,185.429642L293.498535,185.586456L293.508392,185.609955L293.581543,185.795853L293.58847,185.814423L293.663635,186.029404L293.668335,186.043274L293.744385,186.282867L293.916656,186.764511L294.209259,186.778595L294.226929,186.779724L294.77478,186.825134L294.834747,186.833633L294.893127,186.849289L294.924683,186.860931L295.17099,186.960693L295.2258,186.986649L295.291992,187.030045L295.380829,187.098724L295.441437,187.153976L295.540314,187.259567L295.572968,187.29805L295.682159,187.440552L295.702515,187.469193L295.821533,187.648819L295.834259,187.668961L295.963562,187.885284L295.972534,187.90094L296.111877,188.154175L296.118591,188.166931L296.268036,188.457306L296.272949,188.466919L296.428894,188.786606L296.484375,188.893539L296.533569,188.969147L296.586151,189.033798L296.63916,189.085693L296.696899,189.130447L296.759979,189.168243L296.829773,189.19957L296.843201,189.203812L297.355255,189.173172L297.363525,189.164673L297.387909,189.12059L297.426636,188.987274L297.446747,188.930222L297.473602,188.875854L297.506714,188.825302L297.54541,188.778778L297.589478,188.737167L297.638031,188.701141L297.690582,188.671173L297.746307,188.647461L297.804474,188.630447L297.864197,188.620605L297.924591,188.617706L297.984985,188.622177L298.044495,188.633591L298.10199,188.651932L298.157257,188.676758L298.208923,188.708298L298.256592,188.745438L298.29953,188.787949L298.337341,188.835373L298.374695,188.897568L298.46463,189.074295L298.487457,189.125961L298.55658,189.309402L298.574005,189.364883L298.621887,189.555038L298.632629,189.611633L298.659241,189.808945L298.663727,189.886566L298.659027,190.145844L298.65097,190.22818L298.602875,190.492828L298.584076,190.565308L298.492584,190.83577L298.467743,190.896164L298.333099,191.17244L298.307373,191.218979L298.13913,191.48877L298.097534,191.546265L297.912506,191.767502L297.928406,191.791L297.955902,191.84491L297.975159,191.895248L298.004669,191.987411L298.019684,192.046021L298.027283,192.10173L298.037109,192.222076L298.037781,192.297028L298.028625,192.4384L298.021027,192.499695L297.993713,192.645111L297.98053,192.699249L297.93512,192.849136L297.918549,192.895218L297.855255,193.049347L297.824371,193.111984L297.740479,193.256287L297.704468,193.309967L297.586792,193.463882L297.556824,193.49968L297.406036,193.663437L297.380096,193.689606L297.19577,193.862976L297.149231,193.901901L297.098663,193.934784L297.044312,193.961639L297.012543,193.973038L297.013,193.981995L297.02597,194.357147L297.026398,194.381088L297.021942,194.749985L297.021027,194.77504L296.998901,195.137436L296.996216,195.166306L296.927765,195.743912L296.921936,195.781723L296.812531,196.342773L296.803375,196.381256L296.652832,196.925766L296.640503,196.96402L296.448792,197.492188L296.433594,197.52977L296.20047,198.041611L296.182373,198.077408L295.908081,198.572479L295.88797,198.606033L295.57254,199.084991L295.550171,199.116089L295.193573,199.578262L295.165161,199.612045L295.074554,199.710693L296.622833,199.603989L296.647675,199.35881L296.652161,199.325928L296.712097,198.968216L296.71701,198.942047L296.803833,198.550323L296.80896,198.529068L296.922607,198.102905L296.927765,198.085236L297.068451,197.624847L297.073395,197.609863L297.24118,197.115463L297.245422,197.103378L297.439819,196.574539L297.443848,196.563797L297.665314,196.000946L297.818115,195.598053L297.932648,195.233185L298.01004,194.909027L298.053009,194.624252L298.063965,194.380859L298.04718,194.178177L298.007599,194.01622L297.930634,193.843964L297.909393,193.787369L297.894836,193.72876L297.887238,193.668579L297.88678,193.60817L297.893738,193.548004L297.907379,193.488937L297.928162,193.432114L297.955475,193.378204L297.9888,193.327652L298.027954,193.281555L298.072235,193.240402L298.121246,193.204605L298.173798,193.17485L298.249207,193.145325L298.527039,193.06076L298.594818,193.045105L298.885864,192.998352L298.952087,192.992081L299.256561,192.983139L299.317169,192.984924L299.634613,193.013336L299.689423,193.021393L300.020081,193.087601L300.067505,193.099457L300.41156,193.203262L300.452057,193.217361L300.80954,193.358734L300.843994,193.373734L301.214661,193.552917L301.242188,193.56723L301.587585,193.760742L301.61377,193.776627L301.898315,193.959167L304.235168,191.839325L304.282379,191.801285L304.333588,191.769302L304.388397,191.743347L304.445679,191.724106L304.504974,191.711807L304.534698,191.709351L304.558197,191.69548L304.613678,191.671082L304.671631,191.653641L304.73114,191.642899L304.791534,191.639328L304.851929,191.642899L304.911438,191.653641L304.969391,191.67131L305.024841,191.695694L305.076965,191.726349L305.125092,191.763031L305.168488,191.805313L305.206726,191.852066L305.239166,191.903305L305.26535,191.957886L305.28479,192.015152L305.289276,192.035507L305.334686,192.043564L305.392639,192.060791L305.44812,192.084946L305.500458,192.115601L305.569122,192.17041L305.77002,192.361008L305.811401,192.405075L305.847443,192.453842L305.877197,192.506409L305.900665,192.562347L305.915649,192.615143L305.944977,192.618713L306.003571,192.633026L306.060394,192.654282L306.114075,192.682022L306.164429,192.715805L306.204681,192.750259L306.428162,192.961212L306.469788,193.00528L306.502655,193.050018L306.683411,192.698807L306.723022,192.633926L306.794159,192.535049L306.823456,192.498138L306.892365,192.418945L306.939117,192.371735L307.005798,192.312683L307.076935,192.259888L307.1409,192.22052L307.194366,192.191879L307.255005,192.168396L307.316528,192.148926L307.375122,192.134171L307.435089,192.126328L307.476685,192.125L307.53598,192.125671L307.596375,192.129913L307.65567,192.141327L307.70285,192.15564L307.759674,192.175995L307.815399,192.199707L307.891449,192.24646L307.945587,192.286514L307.992126,192.325211L308.033508,192.369278L308.069733,192.417831L308.085632,192.444L308.108002,192.483154L308.134827,192.537506L308.161682,192.619385L308.177582,192.686493L308.188751,192.751602L308.198608,192.84668L308.20105,192.885376L308.204407,193.008194L308.204407,193.031464L308.201721,193.182465L308.201294,193.198792L308.192322,193.377762L308.19165,193.38916L308.176666,193.5961L308.175781,193.605942L308.154297,193.840607L308.153625,193.847092L308.126129,194.109955L308.125671,194.115768L308.091888,194.406586L308.091217,194.411057L308.051392,194.729843L308.050964,194.733871L308.004852,195.080627L308.004425,195.083969L307.952087,195.458679L307.95163,195.461151L307.89325,195.863815L307.892792,195.866501L307.828125,196.296921L307.827911,196.299164L307.756989,196.757751L307.756104,196.762909L307.445374,198.646515L307.444489,198.651672L307.130829,200.439087L307.217651,200.460114L307.275574,200.477798L307.330841,200.502396L307.36261,200.520081L307.452759,200.57489L307.502411,200.609329L307.547821,200.649384L307.588776,200.695465L307.652985,200.776886L307.687653,200.826553L307.716064,200.879791L307.74649,200.964798L307.763275,201.029236L307.775116,201.088745L307.779602,201.143997L307.782501,201.247803L307.781158,201.301254L307.770203,201.443985L307.767059,201.47464L307.742004,201.656952L307.739105,201.675293L307.700409,201.896774L307.697937,201.909973L307.645355,202.170593L307.643127,202.180206L307.576477,202.480423L307.57489,202.487366L307.494598,202.826508L307.493256,202.832535L307.398834,203.21106L307.397736,203.21553L307.289459,203.633408L307.288544,203.636993L307.166626,204.094025L307.165527,204.097382L307.02951,204.593796L307.028839,204.596481L306.878937,205.132263L306.87851,205.134277L306.714966,205.709198L306.714294,205.711441L306.536682,206.325516L306.536011,206.327301L306.382996,206.849655L306.394165,206.893066L306.394836,206.89418L306.425049,206.946533L306.448975,207.002228L306.466217,207.060165L306.473358,207.097534L306.485901,207.178284L306.491486,207.238464L306.490143,207.299088L306.477173,207.378723L306.455017,207.469101L306.437134,207.526825L306.403351,207.599304L306.346741,207.69931L306.313873,207.750305L306.293945,207.775589L306.202667,207.88475L306.160858,207.929276L306.034882,208.047836L306.002899,208.075348L305.842285,208.203308L305.818115,208.221436L305.622833,208.359009L305.600006,208.374237L305.355286,208.527695L305.330444,208.542236L305.071167,208.685181L305.045654,208.69838L304.771393,208.830139L304.747894,208.840668L304.459106,208.961914L304.435394,208.971313L304.131805,209.081375L304.110352,209.088531L303.792236,209.18808L303.770966,209.194336L303.438324,209.282928L303.418396,209.287628L303.070984,209.365479L303.011261,209.37532L302.950867,209.378006L302.890472,209.373306L302.831177,209.361679L302.773682,209.343109L302.718658,209.317825L302.666962,209.286285L302.619324,209.248932L302.576599,209.206192L302.539001,209.158768L302.507477,209.107101L302.482208,209.052063L302.463623,208.994568L302.451782,208.935059L302.447968,208.896133L302.44104,208.778915L302.440125,208.751404L302.439911,208.722092L301.133453,215.047211L301.808838,211.851089L301.808624,211.851089L301.920898,211.305695L301.922485,211.298309L302.224274,209.937042L302.240814,209.878662L302.264313,209.822968L302.294067,209.770172L302.32962,209.721405L302.371002,209.677094L302.417084,209.637955L302.467651,209.604614L302.52179,209.577545L302.578613,209.556976L302.637665,209.543106L302.697845,209.536392L302.775696,209.538406L302.957581,209.556747L303.121552,209.560547L303.288879,209.552048L303.458221,209.530792L303.630249,209.496567L303.806763,209.448914L303.986633,209.387634L304.158203,209.317154L304.79422,208.973541L304.84903,208.948044L304.906525,208.929016L304.96579,208.917175L305.026184,208.912247L305.086609,208.91449L305.146545,208.92366L305.204712,208.940216L305.260651,208.963257L305.313446,208.992783L305.362427,209.028351L305.406952,209.06929L305.446106,209.115372L305.479645,209.16571L305.507172,209.219849L305.527985,209.276672L305.54184,209.33551L305.548767,209.395676L305.548553,209.456085L305.539398,209.52655L304.753052,213.376556L304.777893,213.379242L304.836731,213.392883L304.893768,213.413467L304.947662,213.440536L304.99823,213.473877L305.050354,213.518616L306.559265,215.001129L306.571808,215.01387L307.386749,215.872009L307.394135,215.880066L308.163025,216.725464L308.170868,216.734406L308.893646,217.567047L308.901947,217.576447L309.532135,218.339508L309.69162,218.246002L309.699463,218.241531L310.057373,218.039749L310.065887,218.035049L310.416443,217.846008L310.425385,217.841309L310.768555,217.665039L310.778168,217.660339L311.113953,217.496582L311.124237,217.491669L311.452881,217.340439L311.463837,217.33551L311.784851,217.196808L311.797607,217.191452L312.256195,217.007782L312.262695,217.005325L312.394684,216.954544L312.402527,216.95163L312.522186,216.907776L312.530029,216.904877L312.636749,216.867737L312.657532,216.861023L312.833832,216.808014L312.880585,216.796387L313.006744,216.771103L313.058411,216.763489L313.177216,216.752075L313.247894,216.750076L313.353058,216.754547L313.413239,216.760803L313.44342,216.766632L313.535156,216.787201L313.593323,216.803757L313.640747,216.823227L313.718811,216.859909L313.772064,216.888992L313.82486,216.926804L313.889282,216.97937L313.933807,217.020309L313.977203,217.071533L314.027985,217.140213L314.061096,217.190994L314.08548,217.239319L314.122589,217.324097L314.143402,217.380707L314.15213,217.413361L314.175629,217.514252L314.186371,217.577789L314.221039,217.913574L314.223267,217.986725L314.209625,218.325195L314.201782,218.39566L314.140045,218.737045L314.123932,218.80191L314.013885,219.14621L313.992188,219.202576L313.834015,219.549774L313.80896,219.597656L313.602478,219.947525L313.576538,219.987122L313.321716,220.339905L313.296448,220.372345L312.993317,220.727814L312.971191,220.752197L312.672974,221.05957L312.657532,221.074799L312.349274,221.36673L312.332947,221.3815L312.014374,221.658218L311.997162,221.672531L311.668304,221.933823L311.650635,221.94725L311.311707,222.193329L311.293152,222.206299L310.944153,222.436951L310.924927,222.449036L310.565643,222.66423L310.546173,222.675201L310.176636,222.875183L310.156708,222.885483L309.989166,222.966919L309.96521,222.977875L309.808838,223.044098L309.777985,223.055939L309.632568,223.10672L309.593201,223.118591L309.458954,223.153702L309.399689,223.165558L309.348022,223.170044L308.721619,223.192856L308.676666,223.192627L308.49234,223.183014L308.386505,223.189728L308.342438,223.200012L308.339325,223.201355L308.319611,223.21814L308.292328,223.252136L308.262817,223.305832L308.236847,223.376968L308.131927,223.897537L308.122986,223.93399L308.082489,224.078964L308.062805,224.13623L308.04895,224.167099L307.988525,224.289917L307.958557,224.342484L307.928589,224.384323L307.848053,224.484772L307.807343,224.52951L307.762146,224.569107L307.727234,224.596176L307.736633,224.6474L307.739777,224.737549L307.712494,225.247833L307.708466,225.289886L307.638,225.805756L307.630829,225.845581L307.516968,226.366821L307.507355,226.403961L307.350067,226.931244L307.339996,226.961655L307.197296,227.349564L307.188324,227.372162L307.040253,227.722488L307.028381,227.748657L306.874908,228.061401L306.858154,228.092499L306.698853,228.367432L306.665527,228.417999L306.626617,228.464081L306.582306,228.505463L306.542725,228.535004L305.84967,229.003448L305.797546,229.034317L305.742279,229.058914L305.684357,229.076599L305.624847,229.087555L305.564453,229.091354L305.504028,229.087997L305.492859,229.085983L305.307861,229.387772L305.298218,229.402527L305.095764,229.708786L305.086365,229.722656L304.866913,230.032272L304.857758,230.0448L304.621521,230.357544L304.612793,230.368729L304.359985,230.684601L304.351257,230.695343L304.081482,231.014343L304.073212,231.023972L303.786865,231.3461L303.778595,231.355057L303.47522,231.680328L303.467407,231.688599L303.147278,232.016998L303.139893,232.024384L302.803223,232.355927L302.685089,232.475159L302.639893,232.515656L302.590454,232.550323L302.537231,232.579193L302.480865,232.601334L302.422455,232.61676L302.407013,232.619003L302.400543,232.646973L302.380402,232.70401L302.35379,232.758377L302.320679,232.808929L302.281982,232.855469L302.246399,232.889923L302.019775,233.088791L302.00412,233.10199L301.782654,233.281189L301.764313,233.295273L301.548218,233.454559L301.527191,233.469315L301.316467,233.608917L301.291412,233.624573L301.085815,233.744263L301.056274,233.760132L300.855835,233.859909L300.822296,233.875122L300.627441,233.955215L300.587616,233.969757L300.397919,234.029938L300.339294,234.044693L300.255646,234.05365L299.797241,234.064819L299.736633,234.062805L299.67691,234.05365L299.618744,234.037308L299.576691,234.020752L299.15097,233.831497L299.09726,233.803757L299.04715,233.76976L299.00354,233.732178L298.986969,233.716293L298.968414,233.723892L298.910034,233.740234L298.850311,233.749619L298.789673,233.751862L298.729492,233.746948L298.704651,233.74202L298.682526,233.76886L298.638672,233.810699L298.587677,233.848511L297.917664,234.284058L297.916321,234.284729L297.291504,234.688522L297.290619,234.689194L296.711426,235.061447L296.709869,235.062561L296.175873,235.403046L296.174072,235.404175L295.685516,235.713104L295.683502,235.714447L295.240326,235.991623L295.23764,235.993195L294.839874,236.238602L294.836761,236.240601L294.484406,236.454468L294.430725,236.482666L294.374359,236.504364L294.315735,236.519348L294.255798,236.527405L294.19516,236.528076L294.134979,236.521805L294.075928,236.508392L294.019104,236.488251L293.964752,236.461411L293.914185,236.428299L293.867645,236.389374L293.82605,236.34552L293.790039,236.296753L293.783539,236.285355L293.70636,236.399216L293.675049,236.440826L293.493835,236.656921L293.452454,236.700775L293.261414,236.880646L293.214874,236.919342L293.164307,236.952454L293.109955,236.979294L293.052917,236.99942L292.99408,237.012848L292.933899,237.019104L292.87326,237.018433L292.813324,237.010391L292.7547,236.995392L292.722717,236.984222L292.62674,236.946411L292.579559,236.924927L292.469025,236.867889L292.435699,236.849091L292.31131,236.772583L292.287842,236.757156L292.157867,236.666992L291.950256,236.53479L291.797241,236.462753L291.690521,236.43367L291.612457,236.430542L291.127472,236.510406L291.055878,236.51712L291.036194,236.517563L290.974884,236.51532L290.885406,236.506592L290.861481,236.503693L290.600861,236.465881L290.591217,236.464325L290.007813,236.368347L290.002197,236.367447L288.333344,236.073273L288.329987,236.072601L284.041077,235.287384L284.03949,235.28717L272.922791,233.219208L272.918304,233.218323L272.807373,233.196625L272.739136,233.178268L272.646729,233.146515L272.59082,233.123688L272.559723,233.107361L272.485901,233.065308L272.43512,233.032196L272.388794,232.9935L272.333557,232.941589L272.291931,232.897736L272.243378,232.829071L272.206482,232.766647L272.178741,232.712967L272.151001,232.631989L272.13266,232.559723L272.121246,232.500443L272.11676,232.432434L272.117004,232.349884L272.120789,232.28949L272.127289,232.249207L272.146088,232.15683L272.171356,232.071136L272.205811,231.983673L272.240936,231.911636L272.284119,231.838257L272.317902,231.788147L272.340698,231.760193L272.392395,231.701355L272.43512,231.658173L272.470917,231.628876L272.530853,231.584137L272.581421,231.550797L272.629059,231.526413L272.69751,231.495987L272.754333,231.474731L272.800659,231.462891L272.877594,231.446777L272.931061,231.438721L272.929504,231.423737L272.930176,231.363342L272.938232,231.303375L272.953003,231.244766L272.974915,231.188171L273.003113,231.134705L273.037567,231.084808L273.061035,231.056854L273.57489,230.488632L273.618073,230.446136L273.665955,230.40921L273.717865,230.378128L273.773102,230.353287L273.830811,230.335175L273.88562,230.324661L273.910248,230.321304L273.970428,230.316605L274.010223,230.317505L274.054749,230.32019L274.041565,230.296249L274.018524,230.240326L274.002197,230.182159L273.993011,230.122208L273.990997,230.061798L273.995911,230.001404L274.008209,229.942108L274.027252,229.884628L274.05072,229.834076L274.341095,229.287323L274.372406,229.235657L274.40979,229.188217L274.452515,229.145264L274.500153,229.107697L274.551605,229.076141L274.606628,229.050873L274.664124,229.032074L274.674866,229.029846L274.636627,228.98822L274.625214,228.973694L274.590759,228.924026L274.562347,228.87056L274.540649,228.813965L274.525421,228.755341L274.517395,228.695389L274.516937,228.627167L274.549591,228.080414L274.556763,228.020248L274.571075,227.961411L274.592102,227.904587L274.619629,227.850891L274.653381,227.800568L274.692993,227.7547L274.733704,227.716888L274.744232,227.708176L274.792999,227.67215L274.82901,227.651794L274.799927,227.639038L274.765015,227.62204L274.731903,227.60437L274.680237,227.57283L274.614471,227.51825L274.6026,227.506607L274.56189,227.461639L274.527008,227.41243L274.497925,227.359192L274.475555,227.30304L274.458771,227.239731L274.418274,227.033691L274.377563,226.860764L274.335724,226.713791L274.286743,226.573303L274.270416,226.515137L274.260803,226.455185L274.258545,226.394775L274.263245,226.334381L274.275116,226.275101L274.293884,226.217606L274.319183,226.162567L274.350952,226.111115L274.388519,226.06369L274.431488,226.020966L274.479126,225.983826L274.530792,225.952286L274.585846,225.927231L274.58963,225.926117L274.306641,225.852295L274.248932,225.833496L274.194122,225.808228L274.142456,225.776459L274.095032,225.739105L274.052307,225.696136L274.014923,225.648499L273.983398,225.596817L273.958344,225.541779L273.939758,225.48407L273.928131,225.424789L273.923676,225.36438L273.926361,225.303986L273.936188,225.244263L273.952972,225.186096L273.976471,225.130386L274.006439,225.07782L274.042236,225.029053L274.083832,224.984985L274.130157,224.946045L274.180695,224.91272L274.234833,224.88588L274.29187,224.865295L274.350708,224.851868L274.408661,224.845383L274.576202,224.836441L274.579132,224.835983L274.641541,224.822113L274.774414,224.788788L275.174194,224.682068L275.7565,224.520111zM282.651367,205.197754L282.651367,205.364441L282.651367,205.153564L282.651367,205.197754zM283.285828,210.818008L283.301483,210.866104L283.305511,210.886017L283.304626,210.806824L283.285828,210.818008zM283.041534,217.050781L282.997345,217.072235L283.008698,217.507874L283.052887,217.485138L283.041534,217.050781M283.151611,204.48999L283.148712,204.550385L283.138641,204.610123L283.121643,204.668289L283.097931,204.72377L283.067719,204.776337L283.036621,204.818176L283.056091,204.840317L283.090088,204.890198L283.118042,204.943893L283.139526,205.000488L283.154297,205.059326L283.161896,205.119278L283.163025,205.153503L283.163025,205.281464L283.189178,205.278778L283.167267,204.716385L283.168396,204.655975L283.17688,204.596024L283.192108,204.537415L283.214233,204.481049L283.240417,204.432495L283.214233,204.409241L283.174194,204.363815L283.149811,204.328476L283.151611,204.48999zM303.444366,217.955627L303.157349,218.13974L303.121338,218.160553L302.781525,218.341522L302.787323,218.343994L302.839691,218.37442L302.888,218.410873L302.93161,218.452713L302.939667,218.462326L303.012817,218.448685L303.035187,218.433914L303.102997,218.376205L303.199188,218.278442L303.31015,218.150253L303.434753,217.991653L303.478577,217.931244L303.444366,217.955627zM283.209534,200.419861L283.193665,200.623199L283.193207,200.63237L283.192993,200.633041L283.180237,200.852722L283.195679,200.795227L283.214691,200.737747L283.240204,200.682938L283.272186,200.631485L283.309998,200.584274L283.35318,200.541779L283.401031,200.504868L283.452942,200.473541L283.507965,200.448715L283.565704,200.430588L283.625183,200.419403L283.685608,200.415161L283.724518,200.416275L284.080902,200.440216L283.673065,200.353409L283.220062,200.320755L283.209534,200.419861zM300.152283,219.797195L300.136383,219.855591L300.114014,219.911728L300.08493,219.964966L300.049805,220.014191L300.009338,220.059158L299.963684,220.098969L299.91806,220.130066L300.066589,220.351089L300.326324,219.282227L300.343994,219.224503L300.368591,219.169022L300.399261,219.116898L300.435944,219.068802L300.47821,219.025406L300.525208,218.987366L300.576416,218.954926L300.631012,218.928986L300.620483,218.922058L300.573975,218.883118L300.532349,218.839279L300.496338,218.790512L300.46637,218.738159L300.442657,218.682465L300.425659,218.624298L300.415802,218.56456L300.414001,218.529663L300.152283,219.797195zM303.596039,202.621811L303.556885,202.667892L303.512604,202.709274L303.463593,202.744843L303.411041,202.774597L303.349731,202.799652L303.325806,202.807709L303.267395,202.823593L303.236298,202.828293L303.276581,202.856705L303.312378,202.888016L303.324005,202.8992L303.365173,202.943726L303.400726,202.992722L303.430267,203.045502L303.453308,203.10144L303.469635,203.159821L303.476563,203.200089L303.478577,203.215088L303.482849,203.30278L303.48172,203.332077L303.478577,203.371902L303.466736,203.473465L303.46405,203.494049L303.422882,203.754669L303.420868,203.765854L303.321777,204.314606L303.320648,204.320862L303.300751,204.423996L303.376343,204.148163L303.377472,204.144135L303.498505,203.7173L303.500061,203.711929L303.610352,203.33812L303.612366,203.331406L303.7117,203.011292L303.714813,203.001663L303.803406,202.734558L303.808105,202.720917L303.833374,202.651108L303.785736,202.654022L303.725342,202.650436L303.665833,202.639709L303.599152,202.617111L303.596039,202.621811zM306.113647,201.582016L306.075623,201.628998L306.032227,201.67128L305.984344,201.708191L305.932434,201.739288L305.877197,201.763885L305.819244,201.781784L305.759735,201.792755L305.699341,201.796768L305.638947,201.793427L305.579437,201.783127L305.521271,201.7659L305.46579,201.741745L305.459747,201.738159L305.435577,201.73996L305.375183,201.737045L305.31546,201.727203L305.257294,201.710419L305.231323,201.699463L305.203613,201.709305L305.144531,201.722946L305.090393,201.728546L305.090637,201.769257L305.083679,201.829437L305.069824,201.888275L305.049255,201.945099L305.021942,201.999237L304.988403,202.049561L304.965118,202.078201L304.89801,202.155151L304.889282,202.164108L304.92218,202.174835L305.068695,202.201019L305.238281,202.21019L305.384369,202.202805L305.508514,202.182892L305.614319,202.152252L305.686798,202.119812L306.302887,201.677765L306.231323,201.620041L306.129761,201.556061L306.113647,201.582016zM297.527283,192.263855C297.527283,192.084549,297.474274,191.981018,297.370728,191.950714L297.169952,191.984802C296.960327,192.095917,296.767151,192.145157,296.58783,192.130005C296.707794,192.612366,296.793671,193.06694,296.845428,193.489944C297.113129,193.252563,297.292419,193.040421,297.38208,192.854797C297.478058,192.646454,297.527283,192.449478,297.527283,192.263855zM285.037689,200.35788L284.996979,200.402405L284.951324,200.442001L284.901215,200.475998L284.847321,200.503738L284.825378,200.512024L284.978638,200.529922L285.00592,200.533722L286.369629,200.768616L286.428467,200.782486L286.485291,200.80307L286.539429,200.830353L286.589783,200.863693L286.636078,200.902832L286.677246,200.947128L286.713043,200.995895L286.742798,201.048691L286.766052,201.104614L286.782593,201.162781L286.792236,201.222519L286.793121,201.246674L287.064484,200.996567L287.111237,200.958313L287.162476,200.925659L287.216827,200.899475L287.274078,200.879791L287.333374,200.86705L287.393555,200.86145L287.453949,200.862793L287.484833,200.866379L287.709656,200.899033L288.579865,200.986053L288.584137,200.986282L291.055206,201.254059L291.055878,201.254288L293.093628,201.477997L285.218658,200.409332L285.159393,200.397705L285.101654,200.379135L285.046844,200.353851L285.042847,200.351395L285.037689,200.35788zM292.270844,231.797333L292.249573,231.854156L292.221832,231.907837L292.187836,231.957947L292.148224,232.003815L292.103485,232.044525L292.091644,232.053024L292.114014,232.090378L292.138611,232.14563L292.156525,232.203583L292.16748,232.263092L292.171265,232.325729L292.171265,233.016083L292.256073,233.639557L292.260773,233.699738L292.258087,233.760361L292.248444,233.820099L292.231689,233.87825L292.208405,233.93396L292.17865,233.986755L292.142639,234.035522L292.101471,234.07959L292.053619,234.119858L292.040649,234.129486L292.004181,234.153412L292.06546,234.171982L292.087158,234.179138L292.135925,234.196365L292.191864,234.219849L292.23056,234.241104L292.247559,234.251404L292.297455,234.285629L292.342865,234.325668L292.383362,234.370865L292.41803,234.420303L292.446655,234.473541L292.473969,234.546021L292.597656,234.970398L292.605286,235.003281L292.730316,234.597031L292.792969,234.343124L292.845764,234.101288L292.888702,233.874008L292.919586,233.671555L292.940826,233.484085L292.952454,233.309586L292.954468,233.157013L292.948425,233.035324L292.907288,232.765305L292.830322,232.465546L292.713776,232.128632L292.557861,231.760193L292.386047,231.42395L292.270844,231.797333zM299.382202,232.270172C299.322876,232.434326,299.278656,232.623734,299.248352,232.839661C299.21048,233.128815,299.248352,233.30307,299.359497,233.363678L299.785004,233.553085L300.243378,233.541718C300.742157,233.407867,301.297729,233.06189,301.908875,232.505035L299.68399,231.478455L299.382202,232.270172zM283.566833,202.164734C283.522614,202.916046,283.526428,203.54361,283.578186,204.048691C283.906494,203.528458,284.412842,202.945084,285.09848,202.298584C285.589661,201.830124,285.984894,201.48793,286.282898,201.27327L284.919189,201.038406L284.349701,200.971481L283.690552,200.927277C283.637543,201.090179,283.597137,201.503082,283.566833,202.164734zM306.892792,193.411652L307.217316,193.734909L306.054352,200.659592L306.613739,200.425995C306.837219,199.191071,307.049377,197.942245,307.251404,196.679535C307.645355,194.15918,307.776672,192.832077,307.641571,192.698227C307.500153,192.564377,307.332214,192.64267,307.139008,192.93309L306.892792,193.411652zM303.763794,196.511597L304.289093,194.381409C304.453247,193.780365,304.549194,193.059357,304.579498,192.218399L302.132385,194.438232C302.615997,194.690781,303.033966,195.110001,303.383728,195.697159C303.55545,195.995148,303.681732,196.266632,303.763794,196.511597zM300.455505,220.919708C300.738373,221.388168,301.02121,221.900833,301.305328,222.457687L301.584381,222.212723C302.054108,221.744263,302.321777,221.258118,302.388702,220.75177L302.556641,218.800888L301.9758,219.10141C301.52124,219.324905,301.13736,219.425934,300.824219,219.403198L300.455505,220.919708zM299.55014,230.9216C300.108276,229.881134,300.846954,228.80278,301.762421,227.687805L302.422821,227.041306C301.408844,227.643616,300.562836,228.215622,299.884766,228.758591C299.013489,229.441711,298.308899,230.155136,297.773529,230.898865C297.758362,231.977234,298.100555,232.757568,298.801361,233.239929C298.749603,232.906586,298.816528,232.501251,299.002136,232.025208L299.55014,230.9216zM304.881287,225.63591C305.448242,225.532379,305.868744,225.639709,306.144012,225.959167C306.405396,226.26474,306.378876,226.802658,306.065704,227.576691C305.947021,227.873428,305.779083,228.208038,305.563171,228.579285L306.256378,228.110809C306.472321,227.769882,306.673065,227.326675,306.859955,226.784973C307.098602,226.077866,307.2211,225.387161,307.228668,224.710358L306.35614,224.788635C305.998779,224.729294,305.700806,224.572723,305.462128,224.320175L305.160339,225.134613L305.003784,225.324036L304.780273,225.335388C303.76001,224.390884,302.735962,223.70018,301.706848,223.260773L302.501099,224.98941L303.026367,226.282425L303.070587,226.50592L303.595856,226.148575C304.020142,225.888458,304.449463,225.717987,304.881287,225.63591zM283.041534,217.050781L282.963257,215.155457C280.989624,215.593613,279.555206,216.42952,278.661194,217.663193L278.783691,218.644318L278.81778,218.745331C278.995819,219.376678,279.200378,219.982788,279.431458,220.562363C279.774902,219.789581,280.344391,219.210007,281.142426,218.823608C281.730835,218.533188,282.35968,218.384186,283.030182,218.377884L283.008698,217.507874L282.997345,217.072235L283.041534,217.050781zM305.217163,192.541656L304.936859,194.42688L304.791656,192.151474C304.770172,193.386398,304.583313,194.709717,304.233521,196.121429C304.05423,196.805817,304.039063,197.670761,304.18808,198.720078C304.285309,199.425934,304.43808,200.131775,304.646423,200.837631L304.791656,201.239166C304.806793,201.239166,304.784058,200.833847,304.724731,200.024445L304.669159,198.808472L304.858582,200.013092L305.060608,201.217712L305.171722,200.158295C305.22348,199.451187,305.261383,199.098892,305.284088,199.098892L305.351013,200.168396L305.429321,201.227814L305.574524,200.179764L305.719727,199.143082L305.696991,201.284637L306.814514,193.702087L306.468506,193.679352L306.144012,195.006454L306.077087,193.333374L305.853577,193.122498L305.551788,194.515259L305.417938,192.73233L305.217163,192.541656zM281.555328,211.531494L281.343201,211.575684L281.309113,211.732254C280.780029,212.564377,280.199188,213.248764,279.566559,213.782898C278.999603,214.26651,278.426331,214.589767,277.844238,214.753922L278.661194,217.206085C279.331696,216.054504,280.76236,215.289307,282.953156,214.909225L282.806671,210.996094C282.315491,211.248642,281.898773,211.426682,281.555328,211.531494zM272.648193,232.258804C272.5737,232.518921,272.696167,232.671707,273.016907,232.715912L282.069244,234.40036C287.933258,235.492599,290.925873,236.027985,291.044556,236.005264L291.581207,235.91687C291.819855,235.894135,292.106506,236.001465,292.441132,236.240112C292.635559,236.381546,292.792145,236.46994,292.910858,236.507813C293.172211,236.291901,293.407074,235.980011,293.615448,235.570892C293.867981,235.102417,294.016968,234.612488,294.062439,234.098572C294.165985,232.946991,294.088959,232.080765,293.827576,231.50119L293.581329,230.910233C293.522003,230.732193,293.197479,230.679169,292.60907,230.753662L292.486572,230.76503L292.664612,230.843323L293.023224,231.54538C293.275757,232.095917,293.42099,232.575745,293.458862,232.983612C293.495483,233.407867,293.417175,233.991241,293.223999,234.734985L292.922211,235.716095C292.973969,235.871414,292.937347,235.987579,292.809814,236.062073L292.441132,236.039352L291.882996,235.670639C291.621613,235.538055,291.420837,235.496384,291.279419,235.548157C291.084961,235.630234,288.142853,235.083481,282.44931,233.909164L273.162109,231.958282C272.900757,231.906509,272.729004,232.006271,272.648193,232.258804zM304.434296,202.522079C304.270142,202.878159,303.991089,203.803726,303.595856,205.297516C303.118561,207.089294,302.906433,208.278763,302.959473,208.865921C303.905212,208.672729,304.695679,208.364624,305.328308,207.940353C305.895264,207.561539,306.092224,207.282486,305.920502,207.104446L305.853577,206.848114L305.853577,206.836746C306.911743,203.246872,307.377655,201.332611,307.251404,201.093964C307.183197,200.967697,307.045563,200.91214,306.837219,200.927277C306.673065,200.942444,306.502625,200.990417,306.323303,201.072495C306.934448,201.421005,307.045563,201.748047,306.657928,202.053619L305.943237,202.566284C305.750031,202.669815,305.515167,202.722855,305.238647,202.722855C304.919189,202.722855,304.650208,202.65593,304.434296,202.522079zM299.952942,231.032715L302.321777,232.114853L302.444275,231.991119C304.285309,230.214493,305.41037,228.571716,305.82074,227.062775C305.947021,226.580414,305.801819,226.282425,305.38385,226.171295C305.034088,226.074066,304.631287,226.119537,304.176697,226.305145C303.462006,226.601883,302.749847,227.144852,302.042725,227.93277C301.059082,229.13739,300.350708,230.16272,299.918854,231.009995L299.952942,231.032715zM304.378754,209.780121C303.811798,210.032654,303.26123,210.122314,302.724609,210.047806L302.422821,211.409012L302.310425,211.954498L300.925232,218.510468C301.706848,218.280655,302.35968,218.012955,302.881165,217.708649C303.71582,217.217453,303.994873,216.727524,303.718353,216.236328L303.685516,216.046921L305.037872,209.424026L304.378754,209.780121zM302.121033,201.150787C302.575592,201.097748,303.05542,201.210129,303.563019,201.484131L304.199432,201.897034L304.512573,201.818756L304.579498,201.74173L304.233521,201.462677C302.87738,200.391891,300.898712,199.904495,298.298798,200.001724L294.576355,200.258057L293.80484,200.246689L293.581329,200.235321C291.651917,200.15451,289.312134,199.585022,286.563232,198.529404L286.328369,198.775635L287.545593,199.221375L286.048035,199.087524L285.948273,199.198639L287.356201,199.489059L285.746246,199.422134L285.287903,199.901962L303.116028,202.321304C303.271362,202.336456,303.182953,202.254395,302.847076,202.075089C302.489746,201.881897,301.953094,201.718994,301.237122,201.585159C301.878571,201.533386,302.489746,201.614197,303.070587,201.830124L303.78653,202.142014L303.886292,202.075089C303.924164,202.053619,303.718353,201.919769,303.271362,201.674805C302.802887,201.421005,302.419006,201.24675,302.121033,201.150787zM306.949615,221.466461C306.472321,222.201355,306.054352,222.971603,305.696991,223.773422C305.912933,224.094147,306.263947,224.27977,306.747589,224.331543C307.253906,224.390884,307.549408,224.212845,307.630219,223.796158L307.742584,223.239304C307.801941,223.030945,307.906738,222.874374,308.055725,222.770844C308.182007,222.681183,308.397919,222.652145,308.703522,222.681183L309.329803,222.658447C309.501526,222.621841,309.702301,222.543549,309.93338,222.42485C310.93219,221.912201,311.822388,221.235382,312.604004,220.395691C313.476532,219.443604,313.833893,218.521835,313.677307,217.630356C313.633118,217.339935,313.442444,217.221237,313.107819,217.27301C312.972717,217.288162,312.705017,217.377823,312.302216,217.54071C311.475159,217.860168,310.569794,218.313477,309.586151,218.901901C308.365112,219.793365,307.484985,220.648224,306.949615,221.466461zM279.811523,207.171371L279.79007,208.397461C279.796387,208.850769,279.838043,209.24472,279.912537,209.579346C280.038818,210.145035,280.382263,210.672852,280.940399,211.162781L281.432861,211.095856C281.93161,210.954437,282.542755,210.669067,283.265045,210.237213L284.539093,209.435394C284.770172,209.301544,284.897705,209.122253,284.919189,208.900009C284.934326,208.773743,284.915405,208.661362,284.863617,208.565399L284.840881,208.554031L284.17038,208.798996C283.746124,208.955566,283.425385,209.033859,283.209473,209.033859L282.919037,208.966934L284.193115,208.475739C285.146454,208.104507,285.604828,207.672653,285.568207,207.182724L285.512634,207.048889L285.467194,206.993317L285.455841,206.981964L284.450714,207.249649C283.801697,207.42012,283.339539,207.505981,283.06427,207.505981C282.900116,207.505981,282.792786,207.479462,282.739746,207.427704C282.718292,207.398651,283.083191,207.257233,283.835785,207.004684C284.595917,206.750885,285.121216,206.595566,285.411621,206.536224C285.82074,206.446579,286.101074,206.364502,286.250061,206.289993C286.428101,206.201599,286.473572,206.10437,286.383911,206.000839C286.301849,205.911179,286.059387,205.840469,285.657867,205.788696L284.674225,205.721771L284.003723,205.710419L282.259918,205.888458L282.248566,205.888458C282.196777,205.888458,282.181641,205.66243,282.203094,205.209122C282.22583,204.755814,282.214478,204.528519,282.170258,204.528519C281.692963,204.677521,281.190399,205.108109,280.661316,205.821533L279.811523,207.171371zM293.737915,187.2686C293.626801,187.230713,293.540924,187.163788,293.481598,187.067825L293.258087,186.44278C293.048492,185.75209,292.862854,185.373276,292.6987,185.306351L292.643158,185.283615C292.427216,185.224274,292.139343,185.253311,291.781982,185.373276L291.424652,185.505859L291.044556,185.606873L290.026825,185.572784C289.587402,185.513428,289.129028,185.658646,288.653015,186.008408L287.79184,186.610718C287.478699,186.647339,287.109985,186.84053,286.685699,187.190308C286.372559,187.442841,286.085907,187.725693,285.824524,188.037582C285.369965,188.580551,285.083344,189.386154,284.96463,190.456924C284.905273,190.99231,284.890137,191.472137,284.919189,191.895142C285.203278,191.338287,285.627563,190.902664,286.193237,190.590775C286.416748,190.472076,286.763977,190.326874,287.233704,190.156403L286.808197,189.43161C286.674347,189.096985,286.647827,188.833084,286.729889,188.639893C286.849854,188.364624,287.017792,188.152481,287.233704,188.004745C287.531708,187.788834,287.870117,187.737061,288.250183,187.848175L288.473694,187.926468C288.615112,187.985809,288.838623,188.144913,289.144196,188.405029C289.427032,188.643677,289.625275,188.777527,289.736389,188.806564L289.803314,188.8293C289.856354,188.8293,290.16571,188.658829,290.731415,188.316635C291.275635,187.982025,291.674652,187.851959,291.927185,187.926468C291.980225,187.934036,292.035797,187.963074,292.095123,188.014847L292.6987,188.661362L293.056061,189.062897L293.357849,189.27504L293.491699,189.286392L293.827576,189.219467L294.453857,189.186646C294.595306,189.223267,294.748077,189.323013,294.912231,189.487167C295.030914,189.605865,295.195068,189.917755,295.403412,190.424103L295.739319,191.215805C295.970367,191.55043,296.222931,191.757507,296.498199,191.839584C296.707794,191.891357,296.893433,191.873688,297.057556,191.784027C297.393463,191.613571,297.664917,191.334503,297.873291,190.94812C298.081635,190.575623,298.175079,190.219543,298.152344,189.87735C298.130859,189.60965,298.052582,189.360901,297.918732,189.129822C297.865692,189.40509,297.731842,189.586914,297.51593,189.676575L296.778503,189.720764C296.413605,189.624802,296.144623,189.389938,295.9729,189.018707C295.533478,188.096924,295.202667,187.569122,294.979156,187.435272L294.732941,187.33551L294.184906,187.290054L293.737915,187.2686zM303.08194,195.920654C302.642517,195.147873,301.945496,194.512741,300.992157,194.013962C299.985779,193.48616,299.122101,193.359894,298.39856,193.635162C298.704132,194.170547,298.618286,195.021606,298.142242,196.188354C297.51593,197.735168,297.17627,198.917053,297.124481,199.734024C297.877075,199.577454,298.786224,199.555984,299.851929,199.667099C300.663849,199.75676,301.416443,199.898178,302.10965,200.09137C302.646301,200.239105,303.093292,200.395691,303.450653,200.55983C303.689301,200.670959,303.886292,200.782074,304.042847,200.893188L304.367371,201.194977L304.210815,200.893188L304.088318,200.55983C303.886292,199.986572,303.752441,199.276932,303.685516,198.429657C303.603424,197.314682,303.402679,196.478775,303.08194,195.920654zM304.244904,216.058289C304.57193,216.712372,304.489868,217.389191,303.998657,218.087463C303.580719,218.68219,303.271362,218.971344,303.070587,218.957458L303.047852,220.841415C302.690491,221.711426,302.291473,222.350357,301.852051,222.75946C302.881165,223.168594,303.89386,223.818878,304.89267,224.710358C305.280304,223.669891,305.842224,222.547333,306.579651,221.342712C307.094818,220.51059,307.962311,219.636795,309.184601,218.722595C308.312073,217.637939,307.318329,216.51918,306.200836,215.366333L304.691895,213.883911L304.244904,216.058289zM274.436188,225.356857L291.290802,229.751068L291.36908,229.783905C291.823669,230.051605,292.133026,230.18544,292.295898,230.18544L292.542145,230.16272L293.436127,230.141251C293.808624,230.208176,294.047272,230.405151,294.1521,230.732193L294.364227,231.256226C294.587708,231.730988,294.744293,232.136322,294.833954,232.470947C294.996826,233.042953,295.05365,233.612427,295.00061,234.176865C294.941284,234.794327,294.681152,235.406738,294.218994,236.016617C295.097839,235.488815,296.461578,234.622589,298.308899,233.419235L298.253357,233.363678C297.754578,232.909103,297.456573,232.30426,297.359344,231.54538L296.990662,232.258804C296.960327,232.348465,296.908569,232.411591,296.834076,232.448212L296.576477,232.41539C296.339081,232.244919,295.959015,231.880005,295.437531,231.323151C294.773346,230.608459,294.173553,229.869766,293.638153,229.103302C293.220215,228.508575,292.799713,227.766098,292.374207,226.873367L291.86026,225.680115C288.924469,227.033737,286.416748,227.259766,284.338318,226.360703C283.257446,225.899811,282.275085,225.212906,281.38739,224.297455L280.76236,223.60675C276.797455,224.765915,274.753143,225.346756,274.62561,225.346756L274.436188,225.356857zM274.894562,226.471832L274.770813,226.404907C274.845306,226.598099,274.908447,226.84433,274.961487,227.141068C274.969055,227.186523,275.878204,227.494614,277.688934,228.06662C279.498383,228.64621,280.407532,228.96315,280.4151,229.014923L277.744476,228.557816C275.956482,228.20047,275.061218,228.051468,275.061218,228.110809L275.028412,228.657562C275.020813,228.716919,276.111816,229.062897,278.302612,229.694244C280.478241,230.31929,281.559113,230.661484,281.543976,230.720825L278.168762,230.129883L274.793549,229.527573L274.503113,230.074326C274.480377,230.11853,275.91861,230.504913,278.81778,231.23349C281.70813,231.96965,283.142548,232.356033,283.119812,232.392654C283.083191,232.445679,281.555328,232.188095,278.537476,231.623657C275.519592,231.059235,273.992981,230.795334,273.955109,230.831955L273.441162,231.400177L282.158905,233.385132L289.021698,234.935745L291.055939,235.00267C291.346344,234.876404,291.696106,234.913025,292.106506,235.113785L291.982758,234.689514C291.97644,234.652893,290.6203,234.318283,287.915588,233.686935L283.858521,232.683075C283.843353,232.623734,285.157837,232.794189,287.803192,233.19574C290.448578,233.604858,291.763031,233.775314,291.749146,233.708405L291.659515,233.050522L291.659515,232.325729C291.667084,232.289108,290.225067,231.876205,287.333466,231.088287C284.450714,230.292786,283.012482,229.87735,283.020081,229.839462C283.027649,229.802841,284.487335,230.103363,287.400391,230.742294C290.314728,231.382492,291.774414,231.683014,291.781982,231.646393L292.061035,230.742294C291.800934,230.675385,291.480194,230.535217,291.100128,230.31929L274.972839,226.461731C274.994324,226.521072,274.969055,226.524857,274.894562,226.471832zM280.460571,200.569931L280.449188,200.581299C280.076691,200.745453,279.733246,200.946228,279.420105,201.183609C277.721741,202.469055,276.25827,204.075211,275.028412,206.000839C273.471497,208.423965,273.080048,210.441772,273.854095,212.055511C274.308655,213.021484,275.206451,213.765213,276.548706,214.285446C277.561401,214.686996,278.697815,214.207169,279.956757,212.847229C280.30777,212.467163,280.598206,212.111069,280.829285,211.776459C280.158783,211.248642,279.71936,210.646332,279.509735,209.969528C279.391052,209.554092,279.331696,209.093201,279.331696,208.586853L279.398621,207.160004C278.27356,207.517349,277.532349,208.129761,277.173737,208.999756C277.129547,209.126038,277.032318,209.192963,276.883331,209.200531C276.734314,209.215683,276.690125,209.144974,276.749481,208.988403C277.02475,208.33432,277.401031,207.769882,277.878326,207.293854C278.40741,206.781189,278.995819,206.450363,279.644867,206.301361L280.516113,205.297516C280.858307,204.92627,281.163879,204.639633,281.432861,204.440125C281.66391,204.268402,281.864685,204.157288,282.036407,204.105515L282.103333,204.082794L282.170258,204.082794C282.304108,204.082794,282.420288,204.130768,282.516235,204.227997C282.576843,204.294922,282.617279,204.383316,282.639984,204.495697C282.602112,201.566208,282.661469,199.994141,282.818024,199.778229L283.746124,199.845139L284.640137,200.035812L285.623779,198.819824L285.635132,198.663254L284.840881,198.819824C283.268829,199.169601,281.805359,199.749176,280.449188,200.55983L280.460571,200.569931zM288.305756,188.316635C287.919373,188.204254,287.598633,188.341888,287.344849,188.728287C287.06958,189.137405,287.173096,189.58313,287.65799,190.066742L287.724915,190.18924C287.740051,190.271301,287.694611,190.326874,287.591064,190.357178C287.054413,190.498596,286.647827,190.642548,286.372559,190.79155C285.664185,191.156464,285.210876,191.680481,285.00882,192.363617C285.381317,191.902725,285.80307,191.516342,286.271545,191.204453C286.846069,190.869827,287.207214,190.699371,287.356201,190.691788L287.445862,190.701889C287.512787,190.717041,287.545593,190.758713,287.545593,190.825638C287.553192,190.884979,287.520355,190.925385,287.445862,190.94812L287.109985,191.08197L286.406647,191.438049C286.11496,191.59462,285.816956,191.814331,285.512634,192.095917L284.953278,192.686859L284.930542,192.921722L284.941895,192.921722C285.359863,192.43811,285.787933,192.078247,286.227356,191.839584C286.584686,191.646393,286.871307,191.542847,287.088501,191.527695L287.144073,191.527695C287.210999,191.55043,287.229919,191.598419,287.199615,191.672913C287.17691,191.761307,287.109985,191.820648,286.99884,191.850952C286.752625,191.910294,286.536713,191.992371,286.349823,192.095917L285.031555,193.088409L285.042908,193.178055L285.210876,193.277817C285.299255,193.367462,285.28537,193.457123,285.165405,193.545502C284.546692,193.784149,284.278992,194.229889,284.361053,194.883972C284.435547,195.522903,284.777771,195.928223,285.388916,196.098694L285.556854,196.14415C285.728577,196.842438,285.955872,197.481354,286.238708,198.06221L286.271545,198.016754C286.361176,197.913208,286.466003,197.886688,286.584686,197.938461L288.607544,198.685974L290.786987,199.321121L290.809692,199.187271C290.853882,199.076157,290.947327,199.043335,291.088745,199.087524L291.134216,199.098892L292.005493,199.466339L292.095123,199.544617L292.061035,199.588821L292.843933,199.701202L294.285919,199.812317L294.788483,199.265564C295.794861,198.054626,296.360565,196.668182,296.488098,195.106216C296.57016,194.147812,296.465363,193.122498,296.174927,192.028992C295.905975,191.910294,295.664795,191.686798,295.447632,191.359756L295.101624,190.535217C294.89328,190.037704,294.744293,189.739716,294.654633,189.643738C294.602875,189.590714,294.53595,189.554092,294.453857,189.531357L293.638153,189.586914L293.212646,189.554092C292.973969,189.487167,292.6987,189.29776,292.385559,188.98587C292.259277,188.859604,292.095123,188.766159,291.894379,188.706818C291.409485,188.572968,290.891785,188.680298,290.339966,189.030075C290.183411,189.133606,290.001556,189.160126,289.793213,189.108353C289.644226,189.062897,289.464905,188.966934,289.256561,188.817932C289.084839,188.684082,288.794434,188.528778,288.384033,188.349472L288.305756,188.316635zM286.607422,193.434387L286.428101,193.524033C286.301849,193.590958,286.227356,193.654099,286.20462,193.71344L286.137695,193.790466L286.048035,193.790466C285.952057,193.761429,285.925568,193.694504,285.969757,193.590958C286.015198,193.478577,286.101074,193.386398,286.227356,193.311905C286.361176,193.229828,286.469788,193.185638,286.551849,193.178055L286.607422,193.178055C286.666748,193.193207,286.700867,193.237411,286.708435,193.311905C286.708435,193.37883,286.674347,193.419235,286.607422,193.434387zM286.865021,192.363617C286.924347,192.386337,286.957184,192.430542,286.964752,192.497452C286.972351,192.564377,286.924347,192.61615,286.81955,192.654037L286.316986,192.809341L285.93692,193.044205L285.657867,193.189423L285.635132,193.132599C285.635132,193.073257,285.698273,192.984863,285.824524,192.866165C285.93692,192.753784,286.059387,192.657822,286.193237,192.575745C286.402863,192.449478,286.61499,192.378769,286.830902,192.363617L286.865021,192.363617zM295.280945,193.166687L294.129364,193.489944L293.928589,193.445755L293.838928,193.266449L293.816193,193.044205L293.850281,192.73233C293.886902,192.590897,293.93869,192.531555,294.006866,192.553024L294.230377,192.97728L295.292297,193.021484C295.447632,193.080826,295.443848,193.130081,295.280945,193.166687zM294.196289,194.248825L294.184906,194.125092L294.263214,194.02533C294.360443,193.973557,294.438721,193.99881,294.498077,194.103622L294.677368,194.258942L294.77713,194.270294L294.86676,194.31575L294.945068,194.325851C295.094055,194.371307,295.246857,194.344803,295.403412,194.248825C295.411011,194.375107,295.388275,194.508942,295.336487,194.649109C295.269592,194.849884,295.176147,195.010239,295.057434,195.128937C294.9375,195.247635,294.822571,195.289307,294.710205,195.251419C294.614227,195.214798,294.546051,195.132721,294.50943,195.006454C294.471558,194.880188,294.471558,194.723602,294.50943,194.537994C294.383148,194.486221,294.278351,194.388992,294.196289,194.248825zM291.145569,193.37883L291.625397,193.300537L291.547119,193.623795C291.480194,193.868759,291.372864,194.065735,291.223877,194.214737C291.07486,194.348587,290.93219,194.40036,290.79834,194.371307C290.694794,194.325851,290.6203,194.229889,290.574829,194.080887C290.53064,193.9319,290.523071,193.753845,290.553375,193.545502C290.381653,193.463425,290.261688,193.308121,290.194763,193.077042C290.179626,193.032852,290.190979,192.992447,290.228851,192.954559L290.328613,192.876266C290.425842,192.854797,290.492767,192.899002,290.53064,193.010117C290.567261,193.151535,290.63797,193.237411,290.742767,193.266449L290.776886,193.277817L291.145569,193.37883zM291.256714,192.275223C291.09256,192.1035,290.79834,191.891357,290.374084,191.638824C289.993988,191.41658,289.803314,191.28653,289.803314,191.248642C289.930847,191.181717,290.276855,191.263794,290.843781,191.493607C291.327423,191.694382,291.678436,191.869888,291.894379,192.017624L292.295898,191.99617L292.60907,191.906509C292.65451,191.944397,292.523193,192.111069,292.217621,192.409073C291.912048,192.705811,291.730225,192.847229,291.670868,192.832077L291.525665,192.64267L291.256714,192.275223zM292.888123,193.122498L293.067413,194.11499C293.141907,194.381409,293.317444,194.832199,293.592712,195.463562C293.64447,195.612549,293.619232,195.731247,293.514404,195.820908L292.83255,196.389114L292.509308,196.433319L292.295898,196.310837L292.20752,196.199707L292.274445,196.065872L292.821198,195.641602L292.933563,195.486282C292.962616,195.419357,292.970184,195.356232,292.956299,195.296875L292.74292,194.304398L292.643158,193.478577L292.620422,193.099762C292.620422,192.943192,292.660828,192.872482,292.74292,192.887634L292.754272,192.887634C292.813629,192.91037,292.85907,192.988647,292.888123,193.122498zM289.860138,196.132782L289.982635,196.288101C290.861481,196.935867,291.531982,197.351303,291.99411,197.536926L292.284546,197.637939L293.436127,197.850067L294.039703,197.905624C294.09906,197.920776,294.155884,197.905624,294.207642,197.861435L294.308655,197.716217L294.341492,197.571014L294.419769,197.471252L294.486694,197.548279L294.744293,198.150589C294.796051,198.284439,294.769531,198.399353,294.666016,198.496582L293.995514,199.076157C293.96521,199.120346,293.936157,199.135498,293.905853,199.120346L293.894501,199.009232L293.928589,198.909485C293.96521,198.797104,293.932373,198.730179,293.827576,198.70871L293.772003,198.697342L292.977783,198.898117C292.359039,199.009232,291.831238,199.005447,291.390533,198.886749L291.380432,198.875381C290.939758,198.749115,290.422058,198.377884,289.82605,197.760422L289.054535,196.88031L288.966156,196.834854C288.868927,196.798233,288.783051,196.813385,288.708557,196.88031L288.563354,197.370239L288.450958,197.404327C288.421936,197.404327,288.406769,197.366455,288.406769,197.291946L288.485046,196.266632L288.563354,196.088593L288.731293,195.987579L290.016724,195.530472L290.105103,195.519119C290.158142,195.534271,290.154358,195.574677,290.095001,195.641602L289.860138,195.94339C289.829834,195.987579,289.829834,196.05072,289.860138,196.132782zM289.591187,196.355026L289.278046,196.377747C289.166931,196.421951,289.122742,196.496445,289.144196,196.601257L289.289398,196.802017C289.952332,197.448532,290.418274,197.865219,290.687225,198.050842C290.947327,198.228882,291.294586,198.377884,291.72644,198.496582L292.43103,198.607697L293.883118,198.529404C293.995514,198.536987,294.085144,198.477631,294.1521,198.351364C294.218994,198.247818,294.177338,198.16954,294.028351,198.117767L293.984131,198.117767L293.357849,198.050842L292.139343,197.815979L291.837555,197.716217C291.287018,197.507874,290.616516,197.094971,289.82605,196.478775C289.714935,196.41185,289.636658,196.370178,289.591187,196.355026zM279.654968,221.08638C280.184021,222.097809,280.865906,223.015808,281.700531,223.840347C282.535187,224.681305,283.451904,225.346756,284.450714,225.836685C285.434357,226.327881,286.957184,226.368286,289.021698,225.959167L291.816071,225.201538C291.398132,224.576508,291.111481,224.004501,290.954926,223.484268C290.918304,223.342834,290.962494,223.275909,291.088745,223.283493C291.223877,223.291077,291.312256,223.354202,291.357727,223.4729L292.43103,225.892242C293.034576,227.163788,293.626801,228.219406,294.207642,229.059113C294.624329,229.669006,295.153412,230.271301,295.794861,230.866043L296.799988,231.780243L297.325256,230.876144L297.336639,230.876144C297.9263,229.98468,298.700348,229.144974,299.661255,228.357056C300.428986,227.710541,301.383606,227.056458,302.522552,226.394806C302.001068,225.012146,301.334351,223.580231,300.52243,222.101593C299.7547,220.718933,299.002136,219.633011,298.264709,218.845093C297.281067,217.804611,296.18631,217.110123,294.979156,216.760361C293.235352,216.25528,291.543335,216.645447,289.904327,217.930878C288.563354,218.99408,287.478699,220.428513,286.651611,222.235443L286.630157,222.291016C286.577118,222.417282,286.477356,222.484192,286.328369,222.491776C286.179352,222.506927,286.137695,222.440002,286.20462,222.291016L286.81955,221.109116L287.020325,220.741669L283.087006,220.194916L283.041534,218.856445C282.349579,218.834991,281.715698,218.971344,281.142426,219.269348C280.389862,219.663315,279.8974,220.261841,279.666321,221.064911L279.654968,221.08638zM294.553619,202.153366L291.000366,201.763199L288.529266,201.495499L287.646637,201.40712L287.411774,201.373016L287.121338,201.640717L283.679199,204.696457L283.701935,205.276047L284.003723,205.264679L284.674225,205.276047C285.761414,205.276047,286.439484,205.417465,286.708435,205.699051L286.718536,205.710419C286.875122,205.888458,286.916779,206.079132,286.842285,206.279892C286.767792,206.517288,286.49881,206.702896,286.037933,206.836746L285.969757,206.981964L286.003845,207.104446L286.003845,207.148636C286.040466,207.639832,285.80307,208.059052,285.287903,208.408813C285.385132,208.647461,285.396484,208.892441,285.321991,209.144974C285.239899,209.427826,285.058075,209.650055,284.773956,209.814209L284.315613,210.103363L283.813049,210.42662L283.879974,216.6707L283.891327,217.106339L283.914063,219.581238L287.367554,220.139359C288.022919,219.150665,288.760315,218.328644,289.579834,217.674561C290.555908,216.879044,291.584991,216.377762,292.664612,216.169403C294.952637,215.731247,297.034851,216.58989,298.912476,218.745331L299.651184,219.693619L301.36087,211.419113L301.450531,210.984741L301.471985,210.883728C302.508667,205.888458,303.007446,203.350418,302.969574,203.268341C302.925354,203.157227,300.346924,202.811249,295.235474,202.231659L295.101624,202.220291L294.553619,202.153366z"/>
</svg>
