<?xml version="1.0" encoding="UTF-8"?>
<svg xmlns="http://www.w3.org/2000/svg" xmlns:xlink="http://www.w3.org/1999/xlink" width="42.106mm" height="52.276mm" viewBox="-264.562653 184.744492 42.106491 52.275589">
    <path transform="matrix(-1,0,0,1,0,0)" style="stroke:none;fill:#000000;fill-rule:evenodd" d="M227.308594,224.175674L227.308594,224.175446L229.562225,223.523117L230.751694,223.176147L230.497345,222.84729L230.485245,222.831421L230.23671,222.48288L230.225311,222.466095L229.991089,222.108612L229.98056,222.091614L229.760666,221.725403L229.750595,221.707947L229.545013,221.333023L229.519058,221.278442L229.499817,221.221161L229.487518,221.16188L229.482147,221.101486L229.483948,221.041077L229.491318,220.991425L229.455078,220.96637L229.409668,220.926315L229.3694,220.881134L229.334503,220.831696L229.305878,220.778229L229.29245,220.746231L229.123993,220.306641L229.11908,220.293671L228.960693,219.844238L228.956436,219.831268L228.808105,219.371994L228.804321,219.359924L228.667633,218.897522L228.63765,218.809143L228.621765,218.750763L228.614609,218.708252L228.492249,217.727081L228.48822,217.666672L228.491577,217.606277L228.501862,217.546768L228.519089,217.488602L228.542358,217.434692L228.53833,217.427536L228.514618,217.368469L227.703003,214.932526L227.662964,214.934082L227.462952,214.931183L227.409271,214.927368L227.212189,214.903656L227.159393,214.894714L226.96521,214.850418L226.914215,214.835876L226.722931,214.770782L226.687378,214.757126L226.204834,214.551773L226.171265,214.536102L225.730347,214.309494L225.69455,214.289139L225.295456,214.041718L225.258087,214.016205L224.900391,213.747986L224.861694,213.716003L224.545807,213.426743L224.50824,213.388489L224.233734,213.078201L224.198395,213.033463L223.965515,212.702606L223.934418,212.652496L223.743134,212.300598L223.722137,212.257416L223.59079,211.950272L223.575378,211.908875L223.47113,211.592117L223.459045,211.549377L223.382324,211.222992L223.374252,211.18071L223.324585,210.844925L223.320114,210.802872L223.297974,210.457687L223.296844,210.417419L223.302002,210.062851L223.304016,210.024811L223.336456,209.660614L223.340912,209.625275L223.400665,209.251678L223.406921,209.219025L223.493942,208.835815L223.501556,208.806061L223.61586,208.413452L223.624588,208.386597L223.76619,207.984375L223.775574,207.959778L223.944717,207.548157L223.954102,207.526443L224.150299,207.105438L224.160141,207.085739L224.38385,206.655106L224.393463,206.637436L224.64447,206.197403L224.65387,206.181519L224.932159,205.731873L224.941559,205.717102L225.413574,205.009964L225.425873,204.992508L225.920044,204.315353L225.933258,204.297897L226.449341,203.650711L226.463654,203.633484L227.00145,203.016281L227.01712,202.999268L227.577057,202.412262L227.593384,202.395935L228.175247,201.838684L228.192688,201.8228L228.796478,201.295746L228.814819,201.280533L229.440765,200.783447L229.46225,200.76712L229.702728,200.595978L229.728226,200.578979L229.980133,200.421494L230.005615,200.406494L230.268478,200.262665L230.294876,200.249237L230.453705,200.173843L230.480331,200.151245L230.534485,200.115677L231.048096,199.822632L231.06601,199.812775L231.589691,199.541199L231.60849,199.532028L232.142242,199.28215L232.161041,199.273651L232.70488,199.045471L232.724121,199.038086L233.27803,198.831375L233.297485,198.824448L233.861664,198.639435L233.88092,198.633621L234.45517,198.470093L234.474625,198.464935L235.059174,198.322891L235.080887,198.317963L235.875031,198.161377L235.934998,198.15332L235.995621,198.152191L236.055801,198.158234L236.059158,198.158905L235.909271,197.827377L235.898315,197.800751L235.71756,197.332306L235.708374,197.306808L235.548218,196.816223L235.540833,196.791611L235.47641,196.55426L235.34375,196.508392L235.279541,196.48111L235.088257,196.384018L235.022278,196.343964L234.856049,196.225174L234.79187,196.170593L234.650909,196.029663L234.595642,195.964569L234.479782,195.801697L234.4375,195.730789L234.34668,195.546005L234.318054,195.474869L234.252502,195.268158L234.236389,195.202606L234.195892,194.973984L234.188965,194.915817L234.174652,194.680252L234.175537,194.605759L234.193878,194.389664L234.208649,194.303757L234.259872,194.107346L234.278656,194.04985L234.292984,194.016739L234.377106,193.839783L234.406189,193.786774L234.428329,193.754547L234.545319,193.596832L234.58403,193.550537L234.609314,193.525482L234.758972,193.387451L234.827423,193.334427L234.88446,193.297287L234.88089,193.284088L234.874634,193.246964L234.854034,193.221909L234.821594,193.17067L234.795441,193.116089L234.77597,193.058823L234.763214,192.999756L234.757629,192.93959L234.759857,192.872925L234.782684,192.638031L234.792084,192.578079L234.808411,192.519913L234.831665,192.463989L234.842651,192.44429L234.836578,192.395081L234.836578,192.334457L234.84375,192.274506L234.859192,192.215225L234.842651,192.194855L234.810211,192.143631L234.784256,192.08905L234.764557,192.031784L234.752029,191.972504L234.746674,191.917023L234.733017,191.589066L234.732574,191.56311L234.735703,191.214127L234.736374,191.191528L234.756058,190.821289L234.757629,190.801392L234.793869,190.410339L234.796326,190.389313L234.848663,190.00029L234.852692,189.974335L234.920929,189.609924L234.927185,189.581284L235.011078,189.241913L235.020035,189.210373L235.119583,188.895615L235.131897,188.860947L235.247101,188.571014L235.263885,188.533218L235.394958,188.267899L235.417114,188.227631L235.564087,187.987137L235.591827,187.946426L235.754456,187.730331L235.778839,187.700119L235.979523,187.471725L235.996521,187.453598L236.207031,187.23616L236.224701,187.218704L236.444824,187.012451L236.463623,186.995667L236.693359,186.800598L236.707016,186.789413L236.863617,186.665482L236.881958,186.651611L237.033173,186.542664L237.054199,186.528351L237.200287,186.433716L237.226685,186.417603L237.367615,186.337967L237.397827,186.322311L237.533386,186.257217L237.570068,186.241333L237.7005,186.190765L237.744797,186.175781L237.870071,186.139984L237.922424,186.127914L237.930695,186.126572L238.698456,185.589447L238.702713,185.586533L238.880554,185.464844L238.912552,185.444702L239.088379,185.342468L239.125305,185.323013L239.299789,185.239792L239.341614,185.222107L239.514099,185.157913L239.562866,185.142471L239.73378,185.097733L239.786575,185.086777L239.955688,185.06105L240.012741,185.055679L240.180298,185.049194L240.238922,185.050308L240.389694,185.061722L241.32547,185.093262L241.608459,185.017868L241.942902,184.893936L241.979797,184.881851L242.234833,184.808701L242.290085,184.796173L242.518707,184.757248L242.59053,184.750092L242.792755,184.744492L242.853165,184.746506L242.88739,184.750763L243.062775,184.778732L243.122055,184.791702L243.175293,184.810043L243.230774,184.832642L243.28537,184.85881L243.312439,184.874695L243.375061,184.91452L243.424072,184.950089L243.473724,184.996399L243.538376,185.065292L243.588715,185.12793L243.65538,185.226135L243.682449,185.271103L243.751129,185.398621L243.766785,185.430161L243.837708,185.586761L243.847763,185.610474L243.920929,185.796371L243.927856,185.814941L244.003021,186.030151L244.007492,186.044022L244.081543,186.277344L244.256042,186.765259L244.548645,186.779343L244.566315,186.780457L245.114166,186.825882L245.174133,186.834381L245.232513,186.850037L245.264069,186.861664L245.510361,186.961441L245.56517,186.987396L245.631378,187.030792L245.7202,187.099472L245.780823,187.154724L245.8797,187.260315L245.912354,187.298798L246.02153,187.441299L246.041656,187.469711L246.160675,187.649124L246.173645,187.669708L246.302948,187.886246L246.311905,187.901688L246.451279,188.154922L246.457977,188.16745L246.607422,188.457596L246.612335,188.467438L246.768036,188.786453L246.823975,188.894501L246.873199,188.969894L246.924408,189.032974L246.980133,189.087784L247.03537,189.130295L247.099365,189.168762L247.169159,189.200089L247.1828,189.20433L247.69487,189.17392L247.702484,189.165863L247.727295,189.120895L247.766006,188.987793L247.786362,188.93074L247.813202,188.876602L247.8461,188.825821L247.88501,188.77951L247.929092,188.7379L247.977631,188.701889L248.030212,188.671906L248.085907,188.648193L248.144073,188.631195L248.203796,188.621353L248.264206,188.618439L248.324615,188.622925L248.383881,188.634323L248.441589,188.652679L248.496643,188.677734L248.548523,188.709045L248.596191,188.746185L248.63913,188.78891L248.676727,188.836334L248.713867,188.898087L248.803802,189.074585L248.826843,189.12648L248.895966,189.309921L248.913391,189.365631L248.961273,189.556L248.972015,189.612381L248.998627,189.809464L249.003113,189.887085L248.998413,190.146362L248.990356,190.228699L248.942261,190.493561L248.923462,190.56604L248.83197,190.836502L248.807129,190.896912L248.672485,191.173187L248.646759,191.219727L248.478729,191.489288L248.43692,191.546997L248.251892,191.768021L248.267792,191.791748L248.295303,191.845657L248.314545,191.895996L248.34407,191.988159L248.359055,192.046768L248.366669,192.102478L248.376495,192.222595L248.377167,192.297546L248.368011,192.438934L248.360397,192.500229L248.333099,192.645859L248.319916,192.699997L248.274506,192.849884L248.257935,192.895966L248.194641,193.050095L248.163544,193.11319L248.079651,193.257248L248.044067,193.310272L247.926407,193.464401L247.895981,193.50087L247.745209,193.664398L247.719482,193.690125L247.535141,193.863495L247.488617,193.90242L247.438049,193.935303L247.383698,193.962158L247.351929,193.973557L247.352371,193.982727L247.365356,194.357895L247.365784,194.381836L247.361328,194.750504L247.360428,194.775558L247.338287,195.138184L247.335602,195.167038L247.267136,195.744659L247.261322,195.782471L247.151932,196.343521L247.142761,196.382004L246.992203,196.926498L246.979889,196.964752L246.788177,197.492935L246.77298,197.530518L246.539856,198.04213L246.521744,198.077927L246.247482,198.573212L246.227112,198.606781L245.911682,199.08551L245.889557,199.116608L245.532959,199.57901L245.504547,199.612793L245.414169,199.711212L248.602661,199.491531L248.625946,199.490417L249.106232,199.479233L249.120544,199.479004L249.164185,199.479233L249.172455,199.392441L249.175812,199.364914L249.203094,199.183487L249.206909,199.161118L249.244507,198.969406L249.248962,198.94838L249.297516,198.74614L249.302216,198.72847L249.361267,198.515945L249.365967,198.500061L249.43576,198.277252L249.440247,198.263382L249.520538,198.030273L249.525024,198.017975L249.616058,197.774353L249.620331,197.763611L249.721893,197.509491L249.726135,197.498749L249.838654,197.234558L249.842224,197.226273L249.965057,196.951553L249.969086,196.943054L250.102844,196.657837L250.106201,196.650665L250.250519,196.355148L250.253876,196.34845L250.408661,196.042633L250.412018,196.036377L250.577789,195.720047L250.580261,195.715347L250.897919,195.124084L251.027435,194.869293L251.135284,194.644012L251.241302,194.407333L251.323853,194.207336L251.400146,194.00354L251.460083,193.821884L251.508636,193.650757L251.543549,193.499527L251.567474,193.357697L251.579559,193.238464L251.582001,193.135101L251.575745,193.047852L251.56366,192.980743L251.548248,192.931091L251.514893,192.859726L251.492523,192.803574L251.477081,192.744965L251.468597,192.685226L251.467255,192.624603L251.473083,192.564423L251.485809,192.505371L251.505493,192.448105L251.531891,192.393509L251.564575,192.342514L251.602814,192.295746L251.646454,192.253922L251.694763,192.217453L251.747101,192.186813L251.802582,192.162643L251.860535,192.145203L251.920044,192.134689L251.980438,192.131332L252.049561,192.136246L252.296753,192.1707L252.360504,192.18367L252.598999,192.24855L252.660736,192.269806L252.890472,192.365097L252.947083,192.392838L253.168091,192.518341L253.218445,192.550781L253.391357,192.677841L254.562012,191.82753L254.613037,191.794876L254.667389,191.768478L254.72467,191.748795L254.783722,191.736038L254.840546,191.730667L254.845459,191.726868L254.897583,191.696213L254.953064,191.671829L255.011017,191.654388L255.070526,191.643646L255.13092,191.64006L255.191315,191.643646L255.250824,191.654388L255.308746,191.672058L255.364227,191.696442L255.416351,191.727081L255.464447,191.763779L255.507874,191.806061L255.546112,191.852814L255.578552,191.904037L255.604736,191.958618L255.624176,192.0159L255.628448,192.036026L255.674072,192.044083L255.732025,192.06131L255.787506,192.085464L255.839844,192.116119L255.908508,192.170929L256.109406,192.361526L256.150787,192.405594L256.186829,192.454361L256.216553,192.506927L256.240051,192.562866L256.25528,192.615875L256.284363,192.619461L256.343201,192.633774L256.39978,192.655029L256.453461,192.68277L256.503815,192.716553L256.543854,192.750778L256.767334,192.961502L256.80896,193.005585L256.842041,193.050323L257.022797,192.699326L257.062622,192.634674L257.134003,192.535568L257.163086,192.498657L257.23175,192.419693L257.277832,192.373154L257.344513,192.313873L257.391937,192.276291L257.417419,192.259735L257.481415,192.220581L257.534882,192.191956L257.594818,192.168915L257.656586,192.149445L257.715179,192.134689L257.77536,192.127075L257.814301,192.125732L257.873352,192.12619L257.933746,192.130219L257.993256,192.141388L258.042236,192.156158L258.09906,192.176514L258.154785,192.200226L258.231964,192.24765L258.286102,192.287918L258.332397,192.326843L258.373779,192.37114L258.425018,192.444748L258.447388,192.483887L258.474213,192.538254L258.501068,192.61969L258.516968,192.686569L258.528137,192.752121L258.537994,192.847198L258.540436,192.886124L258.543793,193.009155L258.543793,193.032196L258.541107,193.183197L258.54068,193.199539L258.531708,193.378281L258.531036,193.389679L258.516052,193.596619L258.515167,193.606232L258.493683,193.841125L258.493011,193.847839L258.465515,194.110687L258.465057,194.116516L258.431274,194.407333L258.430603,194.411804L258.390778,194.730362L258.39035,194.73439L258.344238,195.081146L258.343811,195.084503L258.291443,195.459198L258.291016,195.46167L258.232635,195.864334L258.232178,195.86702L258.167511,196.297668L258.167297,196.299896L258.096375,196.758499L258.09549,196.763641L257.78476,198.647263L257.783875,198.652405L257.470215,200.439606L257.557037,200.460632L257.61496,200.478317L257.670227,200.502914L257.702881,200.521042L257.79303,200.57608L257.842712,200.610748L257.887878,200.650787L257.928162,200.696198L257.992371,200.777634L258.027039,200.827301L258.05545,200.880539L258.085876,200.965546L258.102661,201.029968L258.114502,201.089478L258.118988,201.144745L258.121887,201.248322L258.120544,201.301788L258.109589,201.444733L258.106232,201.475372L258.081177,201.657471L258.078491,201.675812L258.039795,201.897293L258.037323,201.910263L257.984741,202.171112L257.915863,202.481171L257.914276,202.487885L257.833984,202.82724L257.832642,202.833282L257.73822,203.211792L257.737122,203.216278L257.628845,203.634155L257.62793,203.637741L257.506012,204.094772L257.504913,204.098129L257.368896,204.594543L257.368225,204.597214L257.218323,205.132782L257.217896,205.134796L257.054352,205.709717L257.05368,205.71196L256.876068,206.326263L256.875397,206.328049L256.722382,206.850403L256.733551,206.893799L256.734222,206.894699L256.764435,206.947052L256.788361,207.002747L256.805603,207.060684L256.812744,207.098267L256.825287,207.17926L256.830872,207.239426L256.829529,207.300049L256.816559,207.379471L256.794403,207.469849L256.77652,207.527573L256.742493,207.600494L256.685913,207.700272L256.653015,207.751053L256.633545,207.775665L256.542297,207.885056L256.500244,207.930023L256.374268,208.048584L256.342285,208.076096L256.181671,208.204056L256.157288,208.222412L255.961975,208.359756L255.939606,208.374527L255.694885,208.528214L255.669617,208.543198L255.410339,208.685928L255.385498,208.698669L255.111237,208.830658L255.087067,208.841629L254.798248,208.962646L254.775208,208.971603L254.471863,209.081894L254.449493,209.089493L254.131165,209.188812L254.110596,209.194641L253.777924,209.283447L253.757568,209.288589L253.410156,209.366226L253.350433,209.375839L253.290009,209.378525L253.229614,209.373825L253.170349,209.362198L253.11261,209.343628L253.057587,209.318344L253.006134,209.286804L252.958496,209.249222L252.915771,209.206497L252.878174,209.159073L252.846649,209.107391L252.82135,209.052368L252.802795,208.994873L252.791168,208.935364L252.787354,208.896667L252.780426,208.779663L252.77951,208.752136L252.779297,208.722839L251.474854,215.038559L252.148438,211.850052L252.260284,211.306442L252.261871,211.298828L252.563629,209.93779L252.5802,209.87941L252.603699,209.8237L252.633453,209.770905L252.66922,209.722137L252.710388,209.677841L252.756714,209.638702L252.807037,209.605362L252.861176,209.578293L252.917999,209.557709L252.977051,209.543854L253.037231,209.53714L253.11441,209.538925L253.299194,209.557266L253.460938,209.561295L253.629395,209.552567L253.796936,209.53154L253.970978,209.497086L254.144348,209.450104L254.326019,209.388153L254.497589,209.317673L255.133606,208.97406L255.188416,208.948563L255.245911,208.929535L255.305176,208.917694L255.36557,208.912766L255.425995,208.915009L255.485931,208.924179L255.544098,208.940735L255.600037,208.963776L255.652832,208.993301L255.701813,209.02887L255.746338,209.069809L255.785492,209.115891L255.819031,209.166229L255.846558,209.220367L255.867371,209.277191L255.881226,209.336029L255.888153,209.396194L255.887939,209.456604L255.878754,209.527069L255.092438,213.377304L255.117279,213.37999L255.176117,213.393631L255.233154,213.414215L255.287048,213.441284L255.337616,213.474609L255.38974,213.519348L256.898651,215.001648L256.911194,215.014404L257.726135,215.872757L257.733521,215.880814L258.502411,216.726212L258.510254,216.735153L259.233032,217.567795L259.241333,217.577194L259.87149,218.340256L260.030792,218.24675L260.039063,218.24205L260.397003,218.040497L260.405273,218.035797L260.755829,217.846756L260.764557,217.842285L261.107727,217.665771L261.117554,217.660858L261.453339,217.497101L261.463623,217.492188L261.792267,217.340958L261.803223,217.336029L262.124237,217.197327L262.136993,217.191971L262.595581,217.008301L262.602081,217.005844L262.73407,216.955063L262.741913,216.952148L262.861572,216.90831L262.8703,216.905182L262.97702,216.868256L262.996246,216.862L263.172546,216.808746L263.219971,216.796906L263.34613,216.771622L263.397797,216.764008L263.516602,216.752609L263.588409,216.750595L263.693542,216.75528L263.782806,216.767365L263.874542,216.787949L263.932709,216.804504L263.979218,216.823517L264.057312,216.859985L264.110321,216.88884L264.165131,216.927994L264.229553,216.980789L264.273865,217.021729L264.316589,217.072281L264.367371,217.140961L264.400482,217.191742L264.424866,217.240067L264.461975,217.324844L264.482788,217.381439L264.491516,217.414108L264.515015,217.514999L264.525757,217.578537L264.560425,217.914093L264.562653,217.987244L264.549011,218.325943L264.541168,218.396408L264.479431,218.737793L264.463318,218.802658L264.353271,219.146942L264.331573,219.203323L264.173401,219.550293L264.148346,219.598175L263.941864,219.948044L263.915924,219.98764L263.661102,220.340424L263.635834,220.372864L263.332703,220.728561L263.310333,220.752945L263.012146,221.060089L262.996918,221.075317L262.68866,221.367249L262.672333,221.382019L262.35376,221.658737L262.336548,221.673065L262.00769,221.934357L261.990021,221.947769L261.651093,222.193848L261.632538,222.206818L261.283539,222.437469L261.264526,222.449326L260.905273,222.664749L260.885559,222.675934L260.516022,222.875931L260.496094,222.88623L260.328552,222.967651L260.303925,222.978836L260.147552,223.04483L260.117371,223.056458L259.971954,223.107239L259.933472,223.118881L259.799255,223.154221L259.73996,223.166306L259.687408,223.170776L259.061005,223.193375L259.016479,223.193146L258.832397,223.183746L258.725891,223.19046L258.681152,223.20076L258.678925,223.201874L258.658569,223.219101L258.632172,223.25177L258.602173,223.306351L258.576447,223.377045L258.471313,223.898056L258.462585,223.934296L258.422089,224.079483L258.402405,224.136749L258.388092,224.168289L258.327698,224.290894L258.297729,224.34346L258.267975,224.384842L258.187439,224.485291L258.146729,224.530029L258.102203,224.569183L258.06662,224.596924L258.076019,224.648148L258.079163,224.738297L258.05188,225.248581L258.047852,225.290634L257.977386,225.806274L257.970215,225.8461L257.856354,226.367569L257.846954,226.40448L257.689911,226.931763L257.679626,226.962845L257.536682,227.35054L257.52771,227.372681L257.379639,227.723236L257.367767,227.749405L257.214294,228.062149L257.197754,228.093246L257.038696,228.36795L257.005371,228.418518L256.966217,228.4646L256.921906,228.505981L256.882324,228.535522L256.189056,229.004181L256.136932,229.035049L256.081665,229.059662L256.023743,229.077332L255.964233,229.088303L255.903839,229.092102L255.843414,229.088745L255.832001,229.086731L255.647217,229.38829L255.637848,229.403046L255.435394,229.709534L255.425751,229.723404L255.206299,230.03302L255.197144,230.045547L254.960907,230.358292L254.952179,230.369476L254.699371,230.685349L254.690643,230.696091L254.420868,231.015091L254.412598,231.024719L254.126251,231.346848L254.11795,231.355804L253.814606,231.681076L253.806793,231.689346L253.486664,232.017746L253.479279,232.025131L253.142609,232.356659L253.024475,232.475906L252.979279,232.516388L252.92984,232.551071L252.876617,232.579926L252.820251,232.602081L252.761841,232.617508L252.746185,232.619751L252.739929,232.647491L252.719788,232.704529L252.693176,232.758896L252.660065,232.809448L252.621368,232.855988L252.585785,232.890442L252.359161,233.08931L252.343506,233.102509L252.12204,233.281708L252.103912,233.295792L251.887817,233.455292L251.866333,233.470276L251.655609,233.60965L251.630768,233.625092L251.425201,233.744781L251.396118,233.760437L251.195679,233.860428L251.161224,233.876099L250.96637,233.955963L250.927002,233.970276L250.737305,234.030457L250.67868,234.045212L250.595245,234.054169L250.136871,234.065567L250.076447,234.063553L250.01651,234.054382L249.958344,234.038055L249.915833,234.0215L249.490356,233.832016L249.436646,233.804062L249.386536,233.770279L249.344269,233.734039L249.326355,233.716812L249.3078,233.724426L249.24942,233.740753L249.189697,233.750153L249.129059,233.75238L249.068878,233.747467L249.044281,233.742538L249.021912,233.769608L248.978058,233.811432L248.926819,233.849243L248.256821,234.284576L248.255707,234.285248L247.63089,234.689041L247.62999,234.689713L247.050812,235.061966L247.049255,235.06308L246.515259,235.403564L246.513458,235.404694L246.024887,235.713623L246.022873,235.714966L245.579712,235.992142L245.57724,235.993484L245.179504,236.23912L245.175919,236.241348L244.823578,236.454987L244.770111,236.483398L244.713516,236.505096L244.654907,236.520096L244.59494,236.527924L244.534332,236.528595L244.474152,236.522339L244.415085,236.508911L244.358276,236.488556L244.303909,236.4617L244.253357,236.428589L244.206818,236.389893L244.165436,236.345825L244.129425,236.297272L244.122925,236.286102L244.045746,236.399963L244.014648,236.441345L243.833679,236.65744L243.79184,236.701523L243.600571,236.881378L243.554047,236.920303L243.503479,236.953186L243.449127,236.980042L243.392075,237.000397L243.333008,237.013596L243.272827,237.020081L243.212433,237.01918L243.152481,237.011139L243.093872,236.99614L243.062103,236.984955L242.966125,236.947144L242.917816,236.925003L242.807526,236.867737L242.775543,236.849838L242.65094,236.773331L242.627213,236.757675L242.498352,236.668182L242.290527,236.535751L242.136627,236.463501L242.029236,236.434189L241.952057,236.431061L241.467072,236.511139L241.395477,236.517853L241.376022,236.518311L241.313385,236.516068L241.223663,236.507111L241.201294,236.504211L240.940674,236.466629L240.930618,236.465057L240.347183,236.368866L240.341583,236.367981L238.672729,236.07402L238.669373,236.073349L234.380463,235.288132L234.378891,235.287903L223.262177,233.219955L223.257706,233.219055L223.146759,233.197357L223.078522,233.179016L222.986115,233.147247L222.930206,233.124435L222.899109,233.108093L222.825287,233.06604L222.774506,233.032928L222.727295,232.993561L222.672028,232.941437L222.630646,232.897369L222.583221,232.830261L222.54631,232.768066L222.51857,232.714386L222.490387,232.632721L222.472046,232.560471L222.460632,232.50119L222.456161,232.433167L222.45639,232.350632L222.460175,232.290222L222.466675,232.250183L222.485474,232.157562L222.510742,232.071655L222.545197,231.984192L222.580765,231.911713L222.623932,231.838562L222.657715,231.788223L222.679428,231.761597L222.731094,231.702545L222.77359,231.659363L222.811172,231.628494L222.871124,231.583984L222.921906,231.550873L222.96846,231.527161L223.036896,231.496735L223.093719,231.475479L223.14003,231.463623L223.216995,231.447525L223.270462,231.439468L223.26889,231.424255L223.269562,231.363861L223.277618,231.303894L223.292389,231.245285L223.314301,231.18869L223.342499,231.135223L223.376938,231.085327L223.400421,231.057373L223.914276,230.489151L223.957458,230.446655L224.005341,230.409744L224.057236,230.378647L224.112488,230.353821L224.170197,230.335693L224.225006,230.32518L224.249634,230.321823L224.309799,230.317123L224.351624,230.318237L224.394135,230.320923L224.380951,230.296997L224.357895,230.241058L224.341568,230.182892L224.332397,230.122955L224.330383,230.062546L224.335297,230.002136L224.34761,229.942856L224.366608,229.885376L224.390106,229.834808L224.680481,229.288071L224.711807,229.236389L224.749146,229.188965L224.791901,229.146011L224.839539,229.108429L224.890991,229.076889L224.94603,229.051605L225.00351,229.032822L225.014252,229.030579L224.978455,228.991653L224.967056,228.977341L224.932159,228.927902L224.903519,228.874664L224.881149,228.818512L224.865723,228.759888L224.857208,228.699936L224.856323,228.627686L224.889206,228.080719L224.896362,228.020538L224.910675,227.9617L224.931702,227.905106L224.959442,227.851196L224.993225,227.800858L225.032593,227.755005L225.074219,227.716522L225.084503,227.708023L225.133484,227.672455L225.168396,227.652542L225.139313,227.639786L225.102173,227.621674L225.069061,227.603775L225.017609,227.571777L224.957428,227.522125L224.945587,227.510712L224.904419,227.466415L224.869064,227.417206L224.839539,227.36441L224.816498,227.308472L224.798157,227.240479L224.758118,227.036224L224.716949,226.861954L224.67511,226.714539L224.626129,226.574051L224.609802,226.515884L224.600174,226.455933L224.597946,226.395523L224.602631,226.335129L224.614502,226.275848L224.633286,226.218353L224.658569,226.163315L224.690338,226.111862L224.727905,226.064438L224.770874,226.021713L224.818512,225.984573L224.870178,225.953033L224.925232,225.927979L224.929016,225.926865L224.646255,225.853027L224.588531,225.834244L224.533722,225.80896L224.482056,225.777191L224.434631,225.739838L224.391907,225.696884L224.354553,225.649231L224.322998,225.597565L224.297943,225.542526L224.279388,225.484818L224.267731,225.425537L224.263275,225.365128L224.265961,225.304733L224.275787,225.244995L224.292572,225.186829L224.316071,225.131134L224.346039,225.078552L224.381836,225.029785L224.423462,224.985718L224.469757,224.946793L224.520309,224.913467L224.574448,224.886627L224.6315,224.866028L224.690338,224.852615L224.748047,224.84613L224.913818,224.837402L224.917847,224.836731L224.982712,224.822189L225.112686,224.789749L225.513351,224.682602L226.092743,224.521759L227.308594,224.175674zM232.990158,205.19841L232.990158,205.365082L232.990158,205.154221L232.990158,205.19841zM233.625214,210.818527L233.641098,210.867081L233.644897,210.885651L233.644012,210.807571L233.625214,210.818527zM233.380341,217.051437L233.336151,217.072906L233.347504,217.50853L233.391708,217.485809L233.380341,217.051437M233.490997,204.490738L233.488068,204.551132L233.478027,204.61087L233.461014,204.669037L233.437286,204.724518L233.407104,204.777084L233.376007,204.818909L233.395477,204.841064L233.429474,204.890945L233.457428,204.944641L233.478912,205.001236L233.493683,205.060074L233.501282,205.120026L233.502411,205.154251L233.502411,205.282211L233.528564,205.279526L233.506653,204.717133L233.507767,204.656723L233.516281,204.596771L233.531479,204.538162L233.553619,204.481781L233.579803,204.433243L233.553619,204.409973L233.51358,204.364563L233.489197,204.329224L233.490997,204.490738zM233.548935,200.424179L233.532593,200.62999L233.532593,200.633118L233.532379,200.634232L233.519623,200.85347L233.535065,200.795532L233.554077,200.738037L233.579803,200.683456L233.611786,200.632004L233.649597,200.584793L233.69278,200.542297L233.740646,200.505386L233.792542,200.47406L233.847809,200.449234L233.905518,200.431107L233.965027,200.419922L234.025421,200.415894L234.063904,200.417023L234.419373,200.440735L234.012451,200.353928L233.559662,200.321274L233.548935,200.424179zM253.783966,217.955933L253.496948,218.140259L253.460724,218.161285L253.120911,218.342041L253.126953,218.344727L253.179291,218.375153L253.2276,218.411621L253.27124,218.453461L253.279053,218.463074L253.35199,218.449432L253.374573,218.434662L253.442383,218.376953L253.538788,218.278961L253.650177,218.15033L253.773224,217.993515L253.818207,217.931549L253.783966,217.955933zM250.491669,219.797943L250.475769,219.856323L250.4534,219.912476L250.424316,219.965714L250.389191,220.014938L250.348724,220.059906L250.30307,220.099716L250.257446,220.130585L250.405975,220.351624L250.66571,219.282745L250.68338,219.225021L250.707977,219.16954L250.738647,219.117416L250.77533,219.069321L250.817596,219.025925L250.864594,218.987885L250.915802,218.95546L250.970184,218.929504L250.959869,218.922791L250.913361,218.883865L250.871735,218.840027L250.835724,218.79126L250.805756,218.738907L250.782043,218.683197L250.765045,218.625031L250.755188,218.565308L250.753387,218.530411L250.491669,219.797943zM253.935638,202.62233L253.896484,202.668411L253.852203,202.709793L253.803436,202.745361L253.750641,202.775116L253.685089,202.801743L253.661163,202.80957L253.602539,202.825012L253.575684,202.828812L253.618866,202.85968L253.651764,202.888763L253.663391,202.899948L253.704559,202.944473L253.740112,202.993454L253.769653,203.046249L253.792694,203.102173L253.809021,203.160568L253.815948,203.199936L253.817963,203.214706L253.822235,203.303299L253.821106,203.332596L253.817963,203.372421L253.806122,203.474213L253.803436,203.494781L253.762268,203.755188L253.760254,203.766373L253.661163,204.315353L253.660034,204.321609L253.640137,204.424072L253.715729,204.148911L253.716858,204.144882L253.837891,203.717819L253.839447,203.712463L253.949738,203.338867L253.951752,203.332153L254.051086,203.01181L254.054199,203.002182L254.142792,202.735306L254.147491,202.721649L254.17276,202.651855L254.125122,202.65477L254.064728,202.651184L254.005219,202.640442L253.938538,202.617859L253.935638,202.62233zM256.453033,201.582535L256.415009,201.629517L256.371582,201.671799L256.32373,201.70871L256.27182,201.739807L256.216553,201.764404L256.15863,201.782303L256.099121,201.793274L256.038727,201.797287L255.978333,201.793945L255.918823,201.783646L255.860657,201.766418L255.805176,201.742264L255.799133,201.738678L255.774963,201.740479L255.714569,201.737564L255.654846,201.727722L255.59668,201.710938L255.570709,201.699982L255.542969,201.709824L255.483917,201.723465L255.429565,201.729065L255.429779,201.770233L255.423065,201.830399L255.40921,201.889236L255.388397,201.94606L255.361115,201.999969L255.327545,202.050537L255.304962,202.078491L255.238068,202.155457L255.229126,202.164627L255.263336,202.175812L255.406738,202.201538L255.578094,202.210709L255.723969,202.203552L255.8479,202.18364L255.953491,202.152985L256.02597,202.120544L256.642517,201.678497L256.570465,201.620789L256.469147,201.556808L256.453033,201.582535zM247.866104,192.264511C247.866104,192.085205,247.813065,191.981674,247.709534,191.95137L247.508759,191.985458C247.299149,192.096573,247.105957,192.145813,246.926651,192.130661C247.0466,192.613022,247.132477,193.067596,247.184235,193.490601C247.451935,193.25322,247.631241,193.041077,247.720886,192.855453C247.816864,192.64711,247.866104,192.450134,247.866104,192.264511zM235.377289,200.358398L235.336349,200.403152L235.29071,200.442749L235.240601,200.476746L235.186691,200.504486L235.164993,200.512543L235.318237,200.530655L235.345093,200.53447L236.708801,200.769135L236.767853,200.783005L236.824677,200.803589L236.878815,200.830872L236.929169,200.864212L236.975464,200.903351L237.016617,200.947647L237.052429,200.996414L237.082169,201.04921L237.105438,201.104919L237.121979,201.163086L237.131622,201.223038L237.132507,201.247192L237.403641,200.997086L237.450623,200.958832L237.501617,200.926392L237.555984,200.899994L237.613251,200.88031L237.672531,200.867569L237.732712,200.861969L237.793121,200.863312L237.824661,200.866898L238.050827,200.89978L238.91925,200.986801L238.923279,200.98703L241.394363,201.254578L241.395264,201.254807L243.433014,201.478729L235.558044,200.41008L235.498779,200.398453L235.441055,200.379883L235.386246,200.354599L235.382217,200.352142L235.377289,200.358398zM253.980133,193.53479C254.278122,193.832794,254.44101,194.182571,254.471313,194.58284C254.523087,195.223038,254.654419,194.442688,254.862762,192.241791L253.543228,193.20018L253.980133,193.53479zM242.610214,231.798065L242.588959,231.854889L242.561218,231.908585L242.527222,231.958694L242.487625,232.004333L242.442871,232.045258L242.431244,232.053543L242.455627,232.095383L242.479568,232.150848L242.497009,232.209015L242.507309,232.268524L242.510666,232.326462L242.510666,233.016602L242.595459,233.639862L242.600159,233.700256L242.597473,233.760651L242.587845,233.820389L242.571075,233.878784L242.547791,233.934479L242.518036,233.987045L242.482025,234.035828L242.440857,234.080109L242.401047,234.114334L242.388306,234.124176L242.344223,234.15416L242.404846,234.172501L242.428558,234.180328L242.477325,234.197784L242.533035,234.221497L242.569946,234.241852L242.586945,234.252136L242.636841,234.286377L242.682251,234.326416L242.722748,234.371613L242.757416,234.421051L242.786041,234.474289L242.813339,234.546768L242.937042,234.971146L242.944656,235.004028L243.069489,234.598221L243.133026,234.341187L243.185822,234.100464L243.227203,233.880569L243.258972,233.672302L243.28067,233.481918L243.292084,233.311447L243.293869,233.157761L243.287827,233.035843L243.246887,232.766495L243.169708,232.465836L243.052933,232.128708L242.897232,231.760712L242.725433,231.424698L242.610214,231.798065zM249.721024,232.270828C249.661667,232.434982,249.617477,232.62439,249.587173,232.840302C249.549286,233.129471,249.587173,233.303726,249.698288,233.364334L250.123825,233.553741L250.582184,233.542374C251.080948,233.408524,251.636536,233.062546,252.247696,232.505692L250.022812,231.479111L249.721024,232.270828zM233.905624,202.16539C233.861435,202.916702,233.865219,203.544266,233.916992,204.049347C234.2453,203.529114,234.751633,202.94574,235.437286,202.29924C235.928482,201.83078,236.3237,201.488586,236.621704,201.273926L235.25798,201.039063L234.688507,200.972137L234.029373,200.927948C233.976334,201.090836,233.935928,201.503738,233.905624,202.16539zM257.231598,193.412308L257.556122,193.735565L256.393158,200.660248L256.952545,200.426651C257.176025,199.191727,257.388184,197.942902,257.59021,196.680191C257.984161,194.159836,258.115479,192.832733,257.980377,192.698883C257.838959,192.565033,257.671021,192.643326,257.477814,192.933746L257.231598,193.412308zM250.794312,220.920364C251.077164,221.388824,251.360016,221.901489,251.644119,222.458344L251.923172,222.213379C252.392899,221.744904,252.660599,221.258774,252.727524,220.752426L252.895462,218.801544L252.314621,219.102066C251.860046,219.325562,251.476181,219.426575,251.163025,219.403854L250.794312,220.920364zM249.888962,230.922256C250.447083,229.88179,251.18576,228.803436,252.101227,227.688477L252.761612,227.041962C251.747665,227.644272,250.901642,228.216278,250.223572,228.759247C249.35231,229.442368,248.64772,230.155792,248.112335,230.899536C248.097183,231.977875,248.439377,232.75824,249.140167,233.240585C249.088409,232.907227,249.155319,232.501907,249.340942,232.025864L249.888962,230.922256zM255.220108,225.636566C255.787064,225.53302,256.20755,225.640366,256.482819,225.959824C256.744202,226.265396,256.717682,226.803314,256.40451,227.577347C256.285828,227.874084,256.117889,228.20871,255.901962,228.579941L256.595184,228.111481C256.811127,227.770538,257.011871,227.327332,257.198761,226.785645C257.437408,226.078522,257.559906,225.387817,257.567474,224.710999L256.694946,224.789291C256.337585,224.72995,256.039612,224.573364,255.800949,224.320831L255.499161,225.135284L255.34259,225.324677L255.11908,225.336044C254.098816,224.391541,253.074768,223.700836,252.045654,223.261414L252.839905,224.990067L253.365189,226.283081L253.409378,226.506577L253.934662,226.149231C254.358932,225.889114,254.788254,225.718643,255.220108,225.636566zM233.380341,217.051437L233.302048,215.156113C231.328445,215.594269,229.894012,216.430176,229.000015,217.663849L229.122498,218.644974L229.156586,218.745987C229.334625,219.377335,229.539185,219.983429,229.770264,220.563019C230.113724,219.790237,230.683197,219.210663,231.481232,218.82428C232.069656,218.533844,232.698486,218.384857,233.368973,218.37854L233.347504,217.50853L233.336151,217.072906L233.380341,217.051437zM255.555984,192.542313L255.275665,194.427536L255.130447,192.15213C255.108978,193.387054,254.922104,194.710373,254.572327,196.122086C254.393036,196.806473,254.377884,197.671417,254.526871,198.720734C254.6241,199.42659,254.776886,200.132431,254.985245,200.838287L255.130447,201.239822C255.145599,201.239822,255.122879,200.834503,255.063522,200.025101L255.007965,198.809113L255.197372,200.013748L255.399414,201.218369L255.510529,200.158951C255.562302,199.451843,255.600174,199.099548,255.62291,199.099548L255.689835,200.169052L255.768112,201.22847L255.91333,200.18042L256.058533,199.143738L256.035797,201.285278L257.15332,193.702744L256.807312,193.680008L256.482819,195.007111L256.415894,193.33403L256.192383,193.123154L255.890594,194.515915L255.75676,192.732971L255.555984,192.542313zM231.894135,211.53215L231.682007,211.57634L231.647903,211.73291C231.118835,212.565033,230.537994,213.24942,229.905365,213.783554C229.338409,214.267166,228.765152,214.590424,228.183044,214.754578L229.000015,217.206741C229.670502,216.055161,231.101166,215.289963,233.291946,214.909882L233.145477,210.996765C232.654282,211.249298,232.237595,211.427338,231.894135,211.53215zM222.987,232.25946C222.912506,232.519592,223.034988,232.672363,223.355713,232.716568L232.408051,234.401016C238.272064,235.493256,241.264679,236.028641,241.383377,236.00592L241.920013,235.917526C242.158676,235.894791,242.445313,236.002121,242.779922,236.240784C242.97438,236.382202,243.130951,236.470596,243.249649,236.508469C243.511032,236.292542,243.745895,235.980652,243.954239,235.571533C244.206787,235.103088,244.355774,234.613144,244.401245,234.099228C244.504776,232.947632,244.42775,232.081421,244.166382,231.501846L243.920151,230.910889C243.860794,230.732849,243.536285,230.67981,242.947861,230.754318L242.825378,230.765686L243.003418,230.843964L243.36203,231.546036C243.614578,232.096573,243.759781,232.576401,243.797668,232.984253C243.83429,233.408524,243.755997,233.991898,243.562805,234.735626L243.261017,235.716751C243.31279,235.87207,243.276169,235.988235,243.148636,236.062744L242.779922,236.040009L242.221802,235.671295C241.960434,235.538712,241.759659,235.49704,241.61824,235.548813C241.423782,235.63089,238.481674,235.084137,232.788132,233.909821L223.500931,231.958939C223.239548,231.907166,223.06781,232.006927,222.987,232.25946zM254.773102,202.522736C254.608948,202.878815,254.329895,203.804382,253.934662,205.298172C253.457367,207.089951,253.245239,208.279419,253.298264,208.866577C254.244034,208.673386,255.034485,208.36528,255.667099,207.94101C256.23407,207.562195,256.43103,207.283142,256.259308,207.105103L256.192383,206.84877L256.192383,206.837402C257.250549,203.247528,257.716461,201.333267,257.59021,201.09462C257.522003,200.968353,257.384369,200.912781,257.176025,200.927948C257.011871,200.9431,256.841431,200.991074,256.662109,201.073151C257.273254,201.421661,257.384369,201.748703,256.996735,202.054276L256.282043,202.566925C256.088837,202.670471,255.853989,202.723511,255.577454,202.723511C255.25798,202.723511,254.989029,202.656586,254.773102,202.522736zM250.291763,231.033386L252.660599,232.115509L252.783081,231.99176C254.6241,230.215149,255.749176,228.572357,256.159546,227.063431C256.285828,226.58107,256.140625,226.283081,255.722656,226.171967C255.372894,226.074738,254.970093,226.120193,254.515518,226.305801C253.800827,226.602539,253.088654,227.145508,252.381546,227.933441C251.397888,229.138062,250.689514,230.163376,250.257675,231.010651L250.291763,231.033386zM254.717545,209.780777C254.150589,210.03331,253.600052,210.122971,253.0634,210.048462L252.761612,211.409668L252.649231,211.955154L251.264038,218.511124C252.045654,218.281311,252.698486,218.013611,253.219971,217.709305C254.054626,217.218109,254.333679,216.72818,254.057144,216.236984L254.024323,216.047577L255.376678,209.424683L254.717545,209.780777zM252.459824,201.151443C252.914398,201.098404,253.394226,201.210785,253.90184,201.484787L254.538239,201.897705L254.851395,201.819412L254.91832,201.742386L254.572327,201.463333C253.216187,200.392548,251.237534,199.905151,248.637619,200.00238L244.915161,200.258713L244.143646,200.247345L243.920151,200.235977C241.990738,200.155167,239.65094,199.585678,236.902023,198.53006L236.66716,198.776291L237.884415,199.222031L236.386841,199.088181L236.287094,199.199295L237.695007,199.489716L236.085052,199.422791L235.626694,199.902618L253.454834,202.32196C253.610153,202.337128,253.521759,202.255051,253.185883,202.075745C252.828537,201.882538,252.291885,201.71965,251.575928,201.585815C252.217392,201.534042,252.828537,201.614853,253.409378,201.83078L254.125336,202.14267L254.225098,202.075745C254.26297,202.054276,254.057144,201.920425,253.610153,201.675461C253.141693,201.421661,252.757828,201.247406,252.459824,201.151443zM251.978729,192.643326C252.269165,193.163559,252.012833,194.159836,251.20723,195.63089C250.238724,197.401199,249.724808,198.727051,249.665466,199.612198C250.492538,199.634933,251.434509,199.794037,252.492661,200.092026C253.029312,200.239761,253.476303,200.396347,253.833649,200.560486C254.072296,200.671616,254.270554,200.78273,254.427124,200.893845L254.750381,201.195633L254.593796,200.893845L254.471313,200.560486C254.270554,199.987228,254.135437,199.277588,254.068512,198.430313C253.986435,197.397415,254.016739,196.601913,254.158173,196.043793C254.358932,195.255859,254.209946,194.498245,253.711166,193.769653C253.227554,193.070114,252.649231,192.695099,251.978729,192.643326zM257.288422,221.467117C256.811127,222.202011,256.393158,222.97226,256.035797,223.774078C256.25174,224.094803,256.602753,224.280426,257.086395,224.332199C257.592712,224.391541,257.888214,224.213501,257.969025,223.796814L258.08139,223.23996C258.140747,223.031616,258.245544,222.875031,258.394531,222.771484C258.520813,222.681839,258.736725,222.652802,259.042328,222.681839L259.66861,222.659119C259.840332,222.622498,260.041107,222.544205,260.272186,222.425507C261.270996,221.912842,262.161194,221.236038,262.94281,220.396347C263.815338,219.44426,264.172699,218.522491,264.016113,217.631012C263.971924,217.340591,263.78125,217.221893,263.446625,217.273666C263.311523,217.288818,263.043823,217.378479,262.641022,217.541367C261.813965,217.860825,260.9086,218.314148,259.924957,218.902557C258.703918,219.794037,257.823792,220.64888,257.288422,221.467117zM230.15033,207.172028L230.128876,208.398102C230.135193,208.851425,230.176849,209.245392,230.251358,209.580002C230.377625,210.145691,230.721085,210.673508,231.279205,211.163437L231.771652,211.096512C232.270416,210.955093,232.881577,210.669724,233.603836,210.237869L234.877914,209.43605C235.108978,209.3022,235.236511,209.12291,235.25798,208.900665C235.273132,208.774399,235.254196,208.662018,235.202423,208.566055L235.179688,208.554688L234.509201,208.799652C234.08493,208.956223,233.764206,209.034515,233.548279,209.034515L233.257858,208.96759L234.531921,208.476395C235.485275,208.105164,235.943634,207.673309,235.907013,207.18338L235.851456,207.049545L235.806,206.993973L235.794632,206.98262L234.78952,207.250305C234.140488,207.420776,233.678345,207.506638,233.403076,207.506638C233.238922,207.506638,233.131592,207.480118,233.078552,207.428345C233.057083,207.399307,233.422012,207.257889,234.174591,207.005341C234.934723,206.751541,235.460022,206.596222,235.750443,206.53688C236.159561,206.447235,236.43988,206.365158,236.588882,206.290649C236.766922,206.202271,236.812378,206.105042,236.722717,206.001495C236.640656,205.911835,236.398209,205.841125,235.996674,205.789352L235.013016,205.722443L234.342529,205.711075L232.598724,205.889114L232.587357,205.889114C232.535583,205.889114,232.520432,205.663086,232.541901,205.209778C232.564636,204.75647,232.553268,204.529175,232.509079,204.529175C232.031769,204.678177,231.529205,205.108765,231.000137,205.822189L230.15033,207.172028zM244.076721,187.269257C243.965607,187.231369,243.879745,187.164444,243.820389,187.068481L243.596893,186.443436C243.387283,185.752747,243.20166,185.373932,243.037521,185.307007L242.981964,185.284271C242.766037,185.22493,242.478134,185.253967,242.120789,185.373932L241.763443,185.506516L241.383377,185.607529L240.365631,185.573441C239.926208,185.514084,239.46785,185.659302,238.991806,186.009064L238.130646,186.611374C237.81749,186.647995,237.448776,186.841187,237.024506,187.190964C236.711365,187.443497,236.424728,187.726349,236.163345,188.038239C235.708771,188.581207,235.422134,189.38681,235.303436,190.457581C235.244095,190.992966,235.228943,191.472794,235.25798,191.895798C235.542099,191.338943,235.96637,190.90332,236.532059,190.591431C236.755554,190.472733,237.102798,190.32753,237.572525,190.157059L237.146988,189.432266C237.013153,189.097641,236.986633,188.83374,237.06871,188.640549C237.18866,188.36528,237.356598,188.153137,237.572525,188.005402C237.870514,187.78949,238.208923,187.737717,238.589005,187.848831L238.8125,187.927124C238.953918,187.986465,239.177429,188.145569,239.483002,188.405685C239.765839,188.644333,239.964096,188.778183,240.075211,188.80722L240.142136,188.829956C240.19516,188.829956,240.504532,188.659485,241.070221,188.317291C241.614441,187.982681,242.013458,187.852615,242.266006,187.927124C242.319031,187.934692,242.374603,187.963745,242.433945,188.015503L243.037521,188.662018L243.394867,189.063553L243.696655,189.275696L243.83049,189.287048L244.166382,189.220123L244.792679,189.187302C244.934097,189.223923,245.086884,189.323669,245.251038,189.487823C245.369736,189.606522,245.53389,189.918411,245.742233,190.424744L246.07811,191.216461C246.309189,191.551086,246.561722,191.758163,246.837006,191.84024C247.0466,191.892014,247.232224,191.874344,247.396378,191.784683C247.732254,191.614227,248.003738,191.335159,248.212082,190.948776C248.420425,190.576279,248.51387,190.2202,248.49115,189.878006C248.469681,189.610306,248.391388,189.361557,248.257538,189.130478C248.204514,189.405746,248.070663,189.587585,247.854736,189.677231L247.117325,189.72142C246.752396,189.625458,246.483444,189.390594,246.311707,189.019363C245.872284,188.09758,245.541458,187.569778,245.317963,187.435928L245.071732,187.336166L244.523712,187.29071L244.076721,187.269257zM254.583694,216.058945C254.910736,216.713028,254.828659,217.389832,254.337463,218.08812C253.91951,218.682846,253.610153,218.972015,253.409378,218.958115L253.386658,220.842072C253.029312,221.712082,252.630295,222.351013,252.190872,222.760132C253.219971,223.16925,254.232666,223.819534,255.231476,224.710999C255.619125,223.670532,256.18103,222.547989,256.918457,221.343369C257.433624,220.511246,258.301117,219.637451,259.523407,218.723251C258.650879,217.638596,257.657135,216.519836,256.539642,215.366989L255.030701,213.884567L254.583694,216.058945zM224.774994,225.357513L241.629593,229.75174L241.707886,229.784561C242.16246,230.052246,242.471832,230.186096,242.634705,230.186096L242.880936,230.163376L243.774933,230.141907C244.14743,230.208832,244.386078,230.405807,244.490891,230.732849L244.703018,231.256866C244.926529,231.731659,245.083099,232.136978,245.172745,232.471603C245.335632,233.04361,245.392456,233.613083,245.339432,234.177521C245.280075,234.794983,245.019958,235.407394,244.557816,236.017273C245.436661,235.489471,246.800385,234.623245,248.64772,233.419891L248.592163,233.364334C248.093384,232.90976,247.795395,232.304916,247.698166,231.546036L247.329453,232.25946C247.299149,232.349121,247.247375,232.412247,247.172882,232.448868L246.915283,232.416046C246.677902,232.245575,246.297821,231.880646,245.776321,231.323792C245.112137,230.6091,244.51236,229.870422,243.976974,229.103958C243.559021,228.509232,243.138535,227.766754,242.712997,226.874023L242.199081,225.680771C239.26329,227.034393,236.755554,227.260406,234.677139,226.361359C233.596268,225.900482,232.613876,225.213562,231.726196,224.298096L231.101166,223.607407C227.136261,224.766571,225.091934,225.347412,224.964401,225.347412L224.774994,225.357513zM225.233368,226.472488L225.109619,226.405563C225.184113,226.598755,225.247253,226.844986,225.300293,227.141724C225.307861,227.187164,226.21701,227.49527,228.027725,228.067276C229.837189,228.646866,230.746338,228.963806,230.753906,229.015564L228.083282,228.558472C226.295288,228.201126,225.40004,228.052124,225.40004,228.111481L225.367218,228.658234C225.359634,228.717575,226.450607,229.063553,228.641403,229.694916C230.817047,230.319946,231.897919,230.66214,231.882767,230.721497L228.507553,230.130539L225.132339,229.528229L224.841919,230.074982C224.819183,230.119171,226.257416,230.505569,229.156586,231.234146C232.046921,231.970306,233.481354,232.356689,233.458633,232.393311C233.422012,232.44635,231.894135,232.188751,228.876266,231.624329C225.858398,231.059891,224.331787,230.79599,224.293915,230.832611L223.779984,231.400818L232.497711,233.385803L239.360519,234.936401L241.39473,235.003326C241.68515,234.877045,242.034927,234.913666,242.445313,235.114441L242.321564,234.69017C242.315247,234.653564,240.959106,234.318939,238.254379,233.687592L234.197311,232.683731C234.182159,232.62439,235.496643,232.794861,238.141998,233.196396C240.787369,233.605515,242.101852,233.77597,242.087967,233.709045L241.998306,233.051178L241.998306,232.326385C242.00589,232.289764,240.563873,231.876862,237.672272,231.088928C234.78952,230.293427,233.351303,229.877991,233.358871,229.840118C233.366455,229.803497,234.826141,230.104034,237.739197,230.74295C240.653534,231.383148,242.11322,231.68367,242.120789,231.647049L242.399841,230.74295C242.13974,230.676025,241.819,230.535873,241.438934,230.319946L225.311646,226.462372C225.333115,226.521729,225.307861,226.525513,225.233368,226.472488zM230.799377,200.570587L230.78801,200.581955C230.415512,200.746109,230.072052,200.946884,229.758896,201.184265C228.060562,202.469711,226.597076,204.075867,225.367218,206.001495C223.810287,208.424622,223.418854,210.442429,224.192886,212.056168C224.647461,213.022141,225.545258,213.765869,226.887512,214.286102C227.900192,214.687653,229.036636,214.207825,230.295547,212.847885C230.646576,212.467804,230.937012,212.111725,231.168076,211.777115C230.497589,211.249298,230.058167,210.646988,229.848557,209.970184C229.729858,209.554749,229.670502,209.093857,229.670502,208.587509L229.737427,207.16066C228.612366,207.518005,227.871155,208.130417,227.512543,209.000427C227.468353,209.126694,227.371124,209.193619,227.222122,209.201187C227.07312,209.216339,227.028931,209.14563,227.088272,208.989059C227.363541,208.334976,227.739838,207.770538,228.217133,207.29451C228.746216,206.781845,229.334625,206.451019,229.983658,206.302017L230.854919,205.298172C231.197113,204.926926,231.502701,204.640289,231.771652,204.440796C232.002731,204.269058,232.203491,204.157944,232.375229,204.106171L232.442154,204.083435L232.509079,204.083435C232.642914,204.083435,232.759094,204.131424,232.855057,204.228653C232.915665,204.295578,232.95607,204.383972,232.978806,204.496353C232.940918,201.566864,233.000259,199.994797,233.156845,199.778885L234.08493,199.845795L234.978928,200.036469L235.96257,198.82048L235.973938,198.66391L235.179688,198.82048C233.607635,199.170258,232.14415,199.749832,230.78801,200.560486L230.799377,200.570587zM238.644562,188.317291C238.258179,188.20491,237.937439,188.342545,237.68364,188.728943C237.408371,189.138062,237.511917,189.583786,237.996796,190.067413L238.063721,190.189896C238.078873,190.271957,238.033417,190.32753,237.929871,190.357834C237.393219,190.499252,236.986633,190.643204,236.711365,190.792206C236.002975,191.15712,235.549667,191.681137,235.347641,192.364273C235.720139,191.903381,236.141876,191.516998,236.610336,191.205109C237.184875,190.870483,237.546005,190.700027,237.695007,190.692444L237.784653,190.702545C237.851578,190.717697,237.884415,190.759369,237.884415,190.826294C237.891983,190.885635,237.859161,190.926041,237.784653,190.948776L237.448776,191.082626L236.745453,191.438705C236.453766,191.595276,236.155762,191.814987,235.851456,192.096573L235.292084,192.687515L235.269348,192.922379L235.280716,192.922379C235.698669,192.438766,236.126724,192.078903,236.566147,191.84024C236.923492,191.647049,237.210129,191.543503,237.427307,191.528351L237.48288,191.528351C237.549789,191.551086,237.568741,191.599075,237.538422,191.673569C237.515701,191.761963,237.448776,191.821304,237.337662,191.851608C237.091431,191.91095,236.875519,191.993027,236.688629,192.096573L235.370361,193.089066L235.381729,193.178711L235.549667,193.278473C235.638062,193.368118,235.624176,193.457764,235.504211,193.546158C234.885483,193.784805,234.617798,194.230545,234.69986,194.884628C234.774368,195.52356,235.116562,195.928894,235.727707,196.09935L235.895645,196.144806C236.067383,196.843079,236.294662,197.48201,236.577515,198.062866L236.610336,198.01741C236.699997,197.913864,236.804794,197.887344,236.923492,197.939117L238.94635,198.68663L241.125778,199.321777L241.148499,199.187927C241.192703,199.076813,241.286148,199.043976,241.427567,199.088181L241.473022,199.099548L242.344284,199.466995L242.433945,199.545273L242.399841,199.589478L243.182724,199.701859L244.624741,199.812973L245.127289,199.26622C246.133667,198.055283,246.699356,196.668839,246.826904,195.106873C246.908966,194.148468,246.804169,193.123154,246.513748,192.029648C246.244781,191.91095,246.003616,191.687454,245.786423,191.360413L245.440445,190.535873C245.232101,190.038361,245.083099,189.740372,244.993454,189.644394C244.941681,189.59137,244.874756,189.554749,244.792679,189.532013L243.976974,189.587585L243.551437,189.554749C243.31279,189.487823,243.037521,189.298416,242.724365,188.986526C242.598099,188.86026,242.433945,188.766815,242.23317,188.707474C241.748291,188.573624,241.230591,188.680954,240.678772,189.030731C240.522202,189.134262,240.340378,189.160782,240.132034,189.109009C239.983032,189.063553,239.803726,188.96759,239.595383,188.818588C239.423645,188.684738,239.133224,188.529434,238.722855,188.350128L238.644562,188.317291zM236.946228,193.435043L236.766922,193.524689C236.640656,193.591614,236.566147,193.654755,236.543427,193.714096L236.476501,193.791122L236.386841,193.791122C236.290878,193.762085,236.264359,193.69516,236.308563,193.591614C236.354019,193.479233,236.43988,193.387054,236.566147,193.312561C236.699997,193.230484,236.808594,193.186295,236.890656,193.178711L236.946228,193.178711C237.005569,193.193863,237.039658,193.238068,237.047241,193.312561C237.047241,193.379486,237.013153,193.419891,236.946228,193.435043zM237.203812,192.364273C237.263153,192.386993,237.29599,192.431198,237.303574,192.498108C237.311142,192.565033,237.263153,192.616806,237.158356,192.654694L236.655792,192.809998L236.275726,193.044861L235.996674,193.190079L235.973938,193.133255C235.973938,193.073914,236.037079,192.985519,236.163345,192.866821C236.275726,192.75444,236.398209,192.658478,236.532059,192.576401C236.741669,192.450134,236.953796,192.379425,237.169724,192.364273L237.203812,192.364273zM245.619751,193.167343L244.46817,193.490601L244.267395,193.446411L244.177734,193.267105L244.155014,193.044861L244.189102,192.732971C244.225723,192.591553,244.277496,192.532211,244.345673,192.55368L244.569183,192.977936L245.631119,193.022141C245.786423,193.081482,245.782639,193.130737,245.619751,193.167343zM244.53508,194.249481L244.523712,194.125748L244.602005,194.025986C244.699234,193.974213,244.777527,193.999466,244.836868,194.104279L245.016174,194.259583L245.115936,194.27095L245.205582,194.316406L245.283875,194.326508C245.432861,194.371979,245.585663,194.345459,245.742233,194.249481C245.749817,194.375763,245.727081,194.509613,245.675308,194.649765C245.608383,194.85054,245.514954,195.010895,245.396255,195.129593C245.276291,195.248291,245.161392,195.289963,245.049011,195.252075C244.953033,195.215454,244.884857,195.133377,244.848236,195.007111C244.810349,194.880844,244.810349,194.724274,244.848236,194.538651C244.72197,194.486877,244.617157,194.389648,244.53508,194.249481zM241.48439,193.379486L241.964218,193.301193L241.885925,193.624451C241.819,193.869415,241.71167,194.066391,241.562683,194.215393C241.413681,194.349243,241.270996,194.401016,241.137146,194.371979C241.0336,194.326508,240.959106,194.230545,240.913635,194.081543C240.869446,193.932556,240.861877,193.754501,240.892181,193.546158C240.720459,193.464081,240.600494,193.308777,240.533569,193.077698C240.518417,193.033508,240.529785,192.993103,240.567657,192.955215L240.667419,192.876923C240.764648,192.855453,240.831573,192.899658,240.869446,193.010773C240.906067,193.152191,240.976776,193.238068,241.081589,193.267105L241.115677,193.278473L241.48439,193.379486zM241.595505,192.275879C241.431351,192.104156,241.137146,191.892014,240.712875,191.639481C240.332794,191.417236,240.142136,191.287186,240.142136,191.249298C240.269669,191.182373,240.615646,191.26445,241.182602,191.494263C241.666214,191.695038,242.017242,191.870544,242.23317,192.01828L242.634705,191.996826L242.947861,191.907166C242.993317,191.945053,242.862,192.111725,242.556427,192.409729C242.250854,192.706467,242.069016,192.847885,242.009674,192.832733L241.864456,192.643326L241.595505,192.275879zM243.226929,193.123154L243.406219,194.115646C243.480728,194.38208,243.656235,194.832855,243.931519,195.464218C243.983276,195.613205,243.958023,195.731903,243.853226,195.821564L243.171356,196.389771L242.848114,196.433975L242.634705,196.311493L242.546326,196.200363L242.613251,196.066528L243.160004,195.642258L243.272385,195.486938C243.301422,195.420013,243.30899,195.356888,243.295105,195.297531L243.081711,194.305054L242.981964,193.479233L242.959229,193.100433C242.959229,192.943848,242.999634,192.873138,243.081711,192.88829L243.093079,192.88829C243.15242,192.911026,243.197876,192.989304,243.226929,193.123154zM240.198959,196.133453L240.321442,196.288757C241.200272,196.936523,241.870773,197.351959,242.332932,197.537567L242.623352,197.638596L243.774933,197.850723L244.37851,197.906281C244.437851,197.921432,244.494675,197.906281,244.546448,197.862091L244.647461,197.716873L244.680298,197.571671L244.758575,197.471909L244.8255,197.548935L245.083099,198.151245C245.134872,198.285095,245.108353,198.400009,245.004807,198.497223L244.33432,199.076813C244.304016,199.121002,244.274963,199.136154,244.244659,199.121002L244.233307,199.009888L244.267395,198.910141C244.304016,198.79776,244.271179,198.730835,244.166382,198.709366L244.110809,198.697998L243.316574,198.898773C242.697845,199.009888,242.170044,199.006104,241.729355,198.887405L241.719254,198.876038C241.278564,198.749771,240.760864,198.37854,240.164856,197.761078L239.393341,196.880966L239.304962,196.83551C239.207733,196.798889,239.121857,196.814041,239.047363,196.880966L238.902161,197.370895L238.789764,197.404984C238.760727,197.404984,238.745575,197.367111,238.745575,197.292603L238.823868,196.267288L238.902161,196.089249L239.070099,195.988235L240.35553,195.531128L240.443909,195.519775C240.496948,195.534927,240.493164,195.575333,240.433823,195.642258L240.198959,195.944046C240.16864,195.988235,240.16864,196.051376,240.198959,196.133453zM239.929993,196.355682L239.616852,196.378418C239.505722,196.422607,239.461533,196.497101,239.483002,196.601913L239.628204,196.802673C240.291138,197.449188,240.757065,197.865875,241.026031,198.051498C241.286148,198.229538,241.633392,198.37854,242.065231,198.497223L242.769821,198.608353L244.221939,198.53006C244.33432,198.537643,244.423965,198.478287,244.490891,198.35202C244.557816,198.248474,244.516144,198.170197,244.367142,198.118423L244.322952,198.118423L243.696655,198.051498L242.478134,197.816635L242.176346,197.716873C241.625809,197.50853,240.955307,197.095627,240.164856,196.479431C240.053741,196.412506,239.975449,196.370834,239.929993,196.355682zM229.993759,221.087036C230.522842,222.098465,231.204697,223.016449,232.039337,223.841003C232.873993,224.681961,233.79071,225.347412,234.78952,225.837341C235.773163,226.328537,237.29599,226.368942,239.360519,225.959824L242.154877,225.202209C241.736923,224.577164,241.450287,224.005157,241.293716,223.484924C241.257095,223.343506,241.3013,223.276581,241.427567,223.284149C241.562683,223.291718,241.651062,223.354858,241.696518,223.473557L242.769821,225.892899C243.373398,227.164444,243.965607,228.220062,244.546448,229.059769C244.963135,229.669647,245.492218,230.271973,246.133667,230.866699L247.138794,231.780899L247.664063,230.876801L247.67543,230.876801C248.265121,229.985336,249.039154,229.14563,250.000076,228.357697C250.767807,227.711197,251.722412,227.057114,252.861374,226.395462C252.339874,225.012787,251.673157,223.580887,250.861237,222.102264C250.093521,220.719589,249.340942,219.633667,248.603531,218.845734C247.619873,217.805267,246.525116,217.110779,245.317963,216.761017C243.574158,216.25592,241.882141,216.646103,240.243149,217.931549C238.902161,218.994736,237.81749,220.429169,236.990417,222.236099L236.968948,222.291656C236.915924,222.417938,236.816162,222.484863,236.66716,222.492432C236.518158,222.507584,236.476501,222.440659,236.543427,222.291656L237.158356,221.109772L237.359131,220.742325L233.425797,220.195572L233.380341,218.857101C232.688385,218.835632,232.054504,218.972015,231.481232,219.270004C230.728653,219.663971,230.236206,220.262497,230.005127,221.065582L229.993759,221.087036zM244.892426,202.154022L241.339172,201.763855L238.868057,201.496155L237.985428,201.407776L237.750565,201.373672L237.460144,201.641373L234.018005,204.697113L234.040741,205.276703L234.342529,205.265335L235.013016,205.276703C236.100204,205.276703,236.77829,205.418121,237.047241,205.699707L237.057343,205.711075C237.213913,205.889114,237.255585,206.079773,237.181091,206.280548C237.106583,206.517944,236.837631,206.703552,236.37674,206.837402L236.308563,206.98262L236.342651,207.105103L236.342651,207.149292C236.379272,207.640488,236.141876,208.059708,235.626694,208.40947C235.723923,208.648132,235.735291,208.893097,235.660782,209.14563C235.578705,209.428482,235.396881,209.650711,235.112778,209.814865L234.654404,210.104019L234.151855,210.427277L234.218781,216.671356L234.230133,217.106995L234.252869,219.581894L237.706375,220.140015C238.36171,219.151306,239.099136,218.329285,239.91864,217.675201C240.894699,216.8797,241.923813,216.378418,243.003418,216.170074C245.291443,215.731903,247.373642,216.590546,249.251297,218.745987L249.989975,219.694275L251.699677,211.419769L251.789337,210.985397L251.810791,210.884384C252.847473,205.889114,253.346252,203.351074,253.308365,203.268997C253.264175,203.157883,250.68573,202.81189,245.574295,202.232315L245.440445,202.220947L244.892426,202.154022z"/>
</svg>
