<?xml version="1.0" encoding="UTF-8"?>
<svg xmlns="http://www.w3.org/2000/svg" xmlns:xlink="http://www.w3.org/1999/xlink" width="42.106mm" height="52.275mm" viewBox="-384.851318 252.980713 42.106293 52.275360">
    <path transform="matrix(-1,0,0,1,0,0)" style="stroke:none;fill:#000000;fill-rule:evenodd" d="M350.78598,291.083282L350.774139,291.067413L350.525574,290.718872L350.514404,290.702332L350.280182,290.345062L350.26944,290.32782L350.04953,289.961609L350.039459,289.944153L349.833893,289.569244L349.807922,289.514648L349.788696,289.457397L349.776398,289.398102L349.771027,289.337708L349.772827,289.277283L349.780182,289.227417L349.743713,289.202118L349.698303,289.162079L349.658051,289.117126L349.623383,289.067444L349.594727,289.014221L349.581329,288.982239L349.412872,288.542633L349.407959,288.529663L349.249573,288.080231L349.2453,288.067474L349.096985,287.608429L349.093201,287.59613L348.957184,287.1362L348.9263,287.044678L348.910431,286.986298L348.903473,286.944458L348.781128,285.963287L348.7771,285.902893L348.780457,285.842499L348.790741,285.78299L348.807953,285.724823L348.831238,285.670898L348.827423,285.663971L348.803253,285.604675L347.991638,283.168732L347.951172,283.170288L347.75116,283.167175L347.698151,283.163361L347.501068,283.139648L347.448273,283.130707L347.254089,283.086395L347.203735,283.072083L347.012268,283.007202L346.9758,282.993347L346.493469,282.78775L346.460358,282.772095L346.01944,282.545715L345.983429,282.525574L345.584106,282.278137L345.546509,282.252197L345.189026,281.983765L345.150787,281.952209L344.834686,281.662964L344.796875,281.624268L344.522614,281.314209L344.487274,281.269684L344.254395,280.938812L344.223297,280.888702L344.032013,280.536804L344.01123,280.493866L343.879669,280.186493L343.8638,280.144653L343.759766,279.827881L343.747925,279.785828L343.670959,279.459656L343.662903,279.416473L343.613464,279.080688L343.609009,279.039093L343.586853,278.693909L343.585724,278.653625L343.590881,278.298828L343.592896,278.261047L343.625092,277.896851L343.629578,277.861267L343.689301,277.487671L343.695557,277.454773L343.782806,277.071594L343.790405,277.042053L343.904724,276.649445L343.913452,276.622589L344.055054,276.220581L344.064453,276.195984L344.233582,275.784363L344.242981,275.762665L344.439178,275.341644L344.449005,275.32196L344.672729,274.891327L344.682343,274.873657L344.93335,274.43338L344.942749,274.417725L345.220795,273.968292L345.230438,273.953308L345.702667,273.246185L345.714752,273.228729L346.208923,272.551575L346.222107,272.534119L346.737976,271.886932L346.752533,271.86969L347.290558,271.252502L347.305969,271.235474L347.865936,270.648254L347.882263,270.631927L348.464111,270.074677L348.481567,270.058777L349.085358,269.531738L349.103699,269.51651L349.729645,269.01944L349.764313,268.994171L350.300995,268.636902L350.356476,268.604675L350.73587,268.415863L350.769196,268.387451L350.813049,268.357941L350.924225,268.291046L350.937866,268.28299L351.437653,268.002899L351.455536,267.99353L351.965607,267.733582L351.983948,267.724609L352.503845,267.48526L352.522186,267.477203L353.052155,267.257965L353.070923,267.25058L353.611206,267.051697L353.629974,267.045227L354.180084,266.866486L354.198639,266.86087L354.75882,266.702271L354.777832,266.697357L355.348053,266.559113L355.369537,266.554169L356.16391,266.397583L356.223877,266.389526L356.284485,266.388428L356.344666,266.39444L356.347809,266.395111L356.199036,266.069183L356.187195,266.041443L356.006439,265.574341L355.997253,265.548157L355.837097,265.056458L355.829468,265.030945L355.764587,264.790009L355.632629,264.744385L355.568848,264.717316L355.377594,264.620453L355.310913,264.579956L355.144714,264.460938L355.080933,264.407043L354.939789,264.266113L354.884308,264.200562L354.768433,264.037689L354.725922,263.966339L354.635315,263.781555L354.606903,263.710846L354.541382,263.50415L354.525269,263.438599L354.484772,263.209961L354.478058,263.152252L354.463501,262.916687L354.464417,262.841309L354.482971,262.625427L354.497528,262.540192L354.548737,262.343567L354.567535,262.286072L354.581848,262.252716L354.665955,262.075775L354.695068,262.022766L354.71698,261.990753L354.83374,261.833282L354.872681,261.786743L354.898407,261.761475L355.048279,261.623444L355.115845,261.571106L355.173553,261.533508L355.169769,261.519653L355.163727,261.483612L355.142914,261.45813L355.110474,261.406891L355.08429,261.352295L355.06485,261.295044L355.052094,261.235962L355.046509,261.175812L355.048737,261.109131L355.071564,260.874237L355.080933,260.814301L355.09729,260.756134L355.120544,260.700195L355.131073,260.681396L355.130829,260.680725L355.125031,260.620331L355.126129,260.559937L355.134644,260.499969L355.147827,260.451447L355.135071,260.436218L355.102203,260.385437L355.075348,260.331299L355.054993,260.274261L355.041809,260.21521L355.035309,260.153015L355.021881,259.825043L355.021454,259.799316L355.024567,259.450348L355.025238,259.427734L355.044922,259.057495L355.046509,259.037598L355.082733,258.646545L355.085876,258.620148L355.161255,258.101593L355.167755,258.065826L355.271332,257.59201L355.28183,257.551514L355.413147,257.122437L355.429932,257.076355L355.589203,256.692017L355.60733,256.652649L355.694366,256.484436L355.708679,256.458466L355.802643,256.300079L355.819855,256.273254L355.920959,256.124695L355.94043,256.09787L356.048492,255.959381L356.072632,255.93074L356.385834,255.584671L356.41983,255.550446L356.967926,255.049118L356.996124,255.025177L357.15271,254.901474L357.17038,254.888046L357.321594,254.77887L357.343536,254.764114L357.489624,254.669708L357.515106,254.654266L357.656036,254.574402L357.686707,254.558304L357.822266,254.493195L357.859619,254.477097L357.990051,254.426758L358.033661,254.411987L358.158936,254.376205L358.211304,254.36412L358.22113,254.362335L358.847961,253.92923L358.974792,253.83461L358.991821,253.822525L359.169434,253.70105L359.200989,253.681137L359.377014,253.57869L359.41394,253.559219L359.588196,253.475998L359.630951,253.457886L359.80365,253.393906L359.851288,253.378693L360.022217,253.333725L360.075439,253.322769L360.244568,253.297028L360.301636,253.291672L360.469177,253.285187L360.528442,253.286301L360.680359,253.297928L361.614563,253.329254L361.895996,253.254532L362.231537,253.129929L362.269135,253.117615L362.52417,253.044693L362.578522,253.032394L362.807129,252.99324L362.879852,252.986084L363.081848,252.980713L363.142487,252.982727L363.175598,252.986755L363.350983,253.014496L363.410034,253.027466L363.465057,253.046478L363.520782,253.069305L363.584076,253.100403L363.634857,253.129929L363.685181,253.163483L363.729706,253.201294L363.782043,253.250946L363.83551,253.310013L363.889435,253.380035L363.920776,253.425446L363.9758,253.515594L363.994354,253.549149L364.050964,253.659668L364.063263,253.685165L364.121216,253.815582L364.129486,253.835495L364.188995,253.986282L364.195038,254.002167L364.255859,254.172852L364.259003,254.182022L364.369965,254.512894L364.544678,255.001236L364.83728,255.015335L364.855194,255.016449L365.403259,255.062088L365.463226,255.070587L365.521606,255.086243L365.552704,255.097656L365.799011,255.197205L365.853607,255.22316L365.904816,255.255371L365.962097,255.29631L366.015778,255.340607L366.075745,255.397202L366.110199,255.43277L366.172821,255.504578L366.198547,255.536804L366.341492,255.730087L366.355591,255.750214L366.437927,255.873474L366.44754,255.888458L366.534332,256.028717L366.541931,256.04126L366.633209,256.198761L366.639038,256.208801L366.735016,256.383301L366.739929,256.3927L366.840149,256.584198L366.843933,256.59137L366.948853,256.799866L366.951996,256.806549L367.056458,257.022003L367.11261,257.13028L367.161835,257.205872L367.214417,257.270538L367.267426,257.322449L367.325134,257.367188L367.38913,257.405426L367.458038,257.436523L367.471008,257.440552L367.983521,257.409912L367.991577,257.401611L368.015747,257.358002L368.054871,257.223328L368.075256,257.16629L368.102081,257.112152L368.135193,257.061584L368.174133,257.015045L368.218201,256.973663L368.266968,256.937653L368.319305,256.907684L368.375244,256.883972L368.433167,256.867188L368.492889,256.85733L368.553528,256.854431L368.613708,256.858917L368.673218,256.870331L368.730927,256.888672L368.78595,256.91394L368.837646,256.945251L368.885284,256.982635L368.928223,257.025116L368.96582,257.07254L369.00296,257.134308L369.092896,257.311035L369.115936,257.363159L369.184814,257.5466L369.201843,257.601166L369.249939,257.791321L369.260895,257.848358L369.287506,258.045685L369.291992,258.123322L369.287292,258.382568L369.279236,258.464905L369.23114,258.729553L369.212341,258.802032L369.12085,259.07251L369.096008,259.132904L368.961334,259.40918L368.935608,259.455719L368.767395,259.725494L368.725555,259.783203L368.540771,260.004028L368.556641,260.02774L368.584167,260.081635L368.603394,260.131989L368.632935,260.224152L368.647919,260.282745L368.655518,260.33847L368.665375,260.458801L368.666046,260.533752L368.65686,260.67514L368.649261,260.73645L368.621979,260.88208L368.608337,260.937103L368.562683,261.086761L368.546814,261.131287L368.483734,261.2854L368.452179,261.349396L368.368073,261.493683L368.332947,261.546265L368.215515,261.700165L368.185089,261.73642L368.034302,261.900177L368.008362,261.926331L367.824005,262.099701L367.777466,262.138641L367.726929,262.171509L367.672546,262.198364L367.636322,262.211334L367.646851,262.414032L367.647522,262.435944L367.650421,262.7789L367.649963,262.801697L367.637665,263.139282L367.637451,263.143982L367.62738,263.366119L367.624451,263.403046L367.55603,263.980652L367.550201,264.018463L367.440796,264.579529L367.431641,264.617981L367.281067,265.162506L367.268768,265.200989L367.076843,265.729156L367.061615,265.766296L366.828735,266.278137L366.810608,266.314148L366.659393,266.58728L366.68689,266.570496L366.742157,266.545685L366.799866,266.527344L366.859161,266.51593L366.890472,266.512787L367.650879,266.460907L367.675018,266.459991L368.419312,266.444336L368.44458,266.444336L369.172974,266.465149L369.199371,266.466492L369.911438,266.523529L369.938507,266.526428L370.634674,266.61972L370.662415,266.62442L371.075378,266.703186L374.715118,260.119232L374.747314,260.067993L374.785583,260.021027L374.828979,259.978973L374.877075,259.942261L374.929199,259.911407L374.98468,259.887024L375.042389,259.869354L375.102112,259.858612L375.162537,259.854797L375.222931,259.858398L375.28244,259.868896L375.333221,259.884338L375.359375,259.879639L375.4198,259.876068L375.480194,259.879639L375.539703,259.890381L375.597626,259.908051L375.653107,259.932434L375.705231,259.963074L375.753326,259.999756L375.796753,260.042053L375.834991,260.088806L375.867432,260.140045L375.893616,260.194611L375.913055,260.251892L375.917542,260.272247L375.962952,260.280304L376.020874,260.297516L376.076355,260.321686L376.128723,260.352325L376.197632,260.407135L376.398285,260.597748L376.439667,260.642029L376.475464,260.690796L376.505432,260.743378L376.528717,260.799286L376.543915,260.851868L376.573242,260.855438L376.631836,260.869781L376.68866,260.891022L376.74234,260.918762L376.792664,260.952545L376.832947,260.987L377.056427,261.197937L377.098053,261.242004L377.13092,261.286743L377.311676,260.935547L377.351288,260.870667L377.422424,260.77179L377.452179,260.734192L377.521057,260.655243L377.56604,260.609833L377.632477,260.550537L377.679901,260.512939L377.705627,260.496185L377.769836,260.456787L377.823303,260.428162L377.88324,260.405121L377.944763,260.385651L378.003387,260.370911L378.063354,260.363068L378.10495,260.361725L378.164246,260.362396L378.22464,260.366638L378.283936,260.378052L378.331116,260.392365L378.387939,260.41272L378.443634,260.436432L378.520813,260.483887L378.574951,260.524139L378.621277,260.563049L378.662659,260.607361L378.713196,260.680054L378.735596,260.718994L378.762634,260.773132L378.789948,260.85611L378.805817,260.923218L378.817017,260.989685L378.82663,261.084747L378.829102,261.121216L378.832672,261.244019L378.832672,261.268188L378.829987,261.419189L378.829529,261.435516L378.820587,261.614502L378.819916,261.626556L378.804718,261.833496L378.804047,261.84201L378.782776,262.07666L378.781891,262.083832L378.754364,262.34668L378.753937,262.352509L378.720154,262.643311L378.719482,262.647797L378.679657,262.966583L378.679199,262.970825L378.632904,263.317566L378.632446,263.320251L378.580322,263.694977L378.579895,263.698334L378.521271,264.101013L378.521057,264.103027L378.456604,264.533661L378.456177,264.536102L378.385254,264.994476L378.384369,264.99942L378.073639,266.88324L378.072754,266.888611L377.759094,268.675812L377.845886,268.696838L377.903839,268.714752L377.959106,268.739136L377.990173,268.756592L378.080566,268.811401L378.130249,268.845856L378.175659,268.885651L378.217041,268.93219L378.28125,269.013611L378.315918,269.063293L378.34433,269.116516L378.374756,269.201538L378.39151,269.265961L378.403381,269.32547L378.407837,269.380737L378.410767,269.484528L378.409424,269.538879L378.398224,269.68161L378.395111,269.710693L378.37027,269.893005L378.367371,269.912048L378.328674,270.133514L378.325989,270.146912L378.273193,270.407532L378.271393,270.416718L378.204956,270.716919L378.203156,270.724548L378.12262,271.06369L378.121277,271.069061L378.0271,271.447571L378.026001,271.452271L377.917725,271.870148L377.916809,271.873718L377.794891,272.330994L377.793762,272.334351L377.657776,272.830536L377.657104,272.833221L377.507202,273.368988L377.506531,273.371216L377.342773,273.946167L377.342346,273.947937L377.164917,274.562012L377.164246,274.564026L377.01123,275.086395L377.022644,275.130463L377.02356,275.131805L377.053528,275.184387L377.077454,275.240082L377.094482,275.298035L377.10141,275.334259L377.113922,275.415009L377.119507,275.475189L377.118164,275.535828L377.105652,275.613892L377.08374,275.704498L377.06604,275.762451L377.030945,275.837616L376.974121,275.937378L376.94101,275.987946L376.921997,276.012329L376.830719,276.12149L376.788879,276.166016L376.662933,276.284576L376.631378,276.311859L376.470764,276.440063L376.446167,276.458405L376.251099,276.595764L376.228271,276.610962L375.983521,276.764435L375.95871,276.778961L375.699432,276.921906L375.67392,276.93512L375.399658,277.066895L375.37616,277.077393L375.087341,277.198639L375.06366,277.208038L374.760071,277.318115L374.738586,277.325256L374.420471,277.424805L374.399231,277.431091L374.066345,277.519653L374.046661,277.524353L373.699463,277.602203L373.63974,277.612061L373.579346,277.614746L373.518951,277.610046L373.459442,277.598419L373.401947,277.579834L373.346924,277.554779L373.295227,277.523254L373.247589,277.485657L373.204865,277.442932L373.167267,277.395508L373.135742,277.343842L373.110443,277.289032L373.091888,277.231293L373.080017,277.172028L373.076233,277.132874L373.069275,277.015656L373.06839,276.988129L373.068176,276.957947L371.768433,283.25061L372.436859,280.08783L372.436646,280.08783L372.549164,279.542419L372.55072,279.535034L372.852509,278.173798L372.86908,278.115387L372.892578,278.059692L372.922302,278.006897L372.957886,277.95813L372.999268,277.913849L373.045349,277.874695L373.095917,277.84137L373.150055,277.814301L373.206879,277.793701L373.26593,277.779846L373.326111,277.773132L373.403961,277.775146L373.585815,277.793488L373.749817,277.797302L373.917145,277.788788L374.086487,277.767517L374.258514,277.733307L374.435028,277.685669L374.614868,277.624359L374.786469,277.553894L375.422241,277.210266L375.477051,277.184784L375.534546,277.165771L375.593842,277.1539L375.654236,277.148987L375.71463,277.151215L375.774353,277.1604L375.832764,277.176727L375.888672,277.199982L375.941467,277.229523L375.990479,277.265076L376.034973,277.30603L376.074127,277.352112L376.107697,277.402435L376.135193,277.45636L376.156006,277.513184L376.169861,277.572235L376.176819,277.632202L376.176575,277.69281L376.167419,277.763275L375.381317,281.613281L375.406128,281.615967L375.464966,281.629639L375.522034,281.650208L375.575928,281.677277L375.626495,281.710602L375.678619,281.755341L377.187531,283.237854L377.200043,283.25061L378.015015,284.108765L378.0224,284.116821L378.791077,284.962189L378.798889,284.97113L379.521912,285.804016L379.530212,285.813416L380.16037,286.576477L380.319885,286.482727L380.327698,286.478271L380.685638,286.276489L380.694153,286.27179L381.044678,286.082764L381.05365,286.078064L381.39682,285.901764L381.406433,285.897064L381.742218,285.733307L381.752502,285.728394L382.080902,285.577179L382.092102,285.572266L382.41333,285.433533L382.425873,285.428192L382.88446,285.244507L382.890961,285.242065L383.022949,285.191284L383.030334,285.188354L383.14978,285.144531L383.158295,285.141602L383.265228,285.104492L383.285797,285.097778L383.462097,285.044739L383.50885,285.033112L383.63501,285.007843L383.686676,285.000244L383.805481,284.988831L383.87616,284.986816L383.981323,284.991272L384.041473,284.997559L384.071686,285.003357L384.163391,285.023926L384.221558,285.040497L384.268982,285.059967L384.347076,285.096649L384.40033,285.125732L384.453125,285.163544L384.517517,285.216095L384.562042,285.25705L384.605469,285.308289L384.65625,285.376953L384.689331,285.427734L384.713745,285.476044L384.750854,285.560852L384.771667,285.617432L384.780396,285.650085L384.803894,285.750977L384.814636,285.814758L384.84906,286.150543L384.851318,286.223236L384.837891,286.561707L384.830048,286.632385L384.768311,286.973785L384.752197,287.038666L384.642151,287.382935L384.620209,287.439545L384.461823,287.786743L384.437012,287.834381L384.23053,288.184265L384.204773,288.223633L383.950195,288.576416L383.924713,288.60907L383.621582,288.964539L383.599426,288.988953L383.301239,289.296326L383.285583,289.311523L382.977081,289.603455L382.960968,289.618225L382.642426,289.894958L382.625183,289.909271L382.29657,290.170563L382.2789,290.18399L381.939972,290.430054L381.921173,290.443054L381.57196,290.673676L381.552948,290.68576L381.193695,290.90097L381.174438,290.911926L380.805115,291.111938L380.784729,291.122223L380.616974,291.203644L380.593262,291.2146L380.43689,291.280823L380.40625,291.292664L380.261047,291.343445L380.221436,291.355316L380.087219,291.390442L380.027954,291.402283L379.976257,291.406769L379.349884,291.429596L379.304932,291.429352L379.120575,291.419739L379.014771,291.426453L378.970703,291.436737L378.96756,291.43808L378.947449,291.455322L378.920135,291.489105L378.89151,291.540985L378.864655,291.615265L378.759735,292.134277L378.751251,292.170074L378.710968,292.315033L378.691528,292.372284L378.677185,292.403839L378.616791,292.526642L378.586823,292.579224L378.556824,292.621063L378.476318,292.721497L378.435608,292.766235L378.391083,292.805389L378.355286,292.83313L378.364685,292.884125L378.367798,292.97406L378.340729,293.484344L378.336731,293.526611L378.266235,294.04248L378.259094,294.082306L378.145203,294.603546L378.13559,294.640686L377.978333,295.167969L377.968262,295.198395L377.825531,295.586304L377.816589,295.608887L377.668488,295.959229L377.656647,295.985413L377.503174,296.29837L377.486389,296.329681L377.327118,296.604401L377.293793,296.654968L377.254639,296.70105L377.210327,296.742188L377.170746,296.771729L376.477478,297.240173L376.425568,297.271057L376.370087,297.295654L376.312378,297.313538L376.252869,297.32428L376.192474,297.328094L376.13208,297.324738L376.121094,297.322723L375.936096,297.624512L375.926483,297.639496L375.723816,297.94574L375.71463,297.959167L375.495392,298.268799L375.486023,298.281525L375.249756,298.594269L375.240814,298.605682L374.987793,298.92157L374.979309,298.931854L374.709747,299.250854L374.701233,299.260712L374.414673,299.582825L374.406616,299.591553L374.103485,299.91684L374.095673,299.925354L373.775543,300.253754L373.768158,300.261108L373.431458,300.592651L373.313354,300.711884L373.268158,300.75238L373.218719,300.787048L373.165466,300.815918L373.1091,300.838074L373.05072,300.853516L373.034851,300.855743L373.028564,300.883698L373.008423,300.940735L372.981812,300.995117L372.94873,301.045654L372.910004,301.092194L372.874664,301.126648L372.648254,301.325531L372.632385,301.338715L372.410919,301.517914L372.392578,301.532013L372.176483,301.691284L372.155457,301.706055L371.944702,301.845642L371.919647,301.861298L371.71405,301.980988L371.68454,301.996887L371.4841,302.096649L371.450317,302.111847L371.255249,302.191956L371.215637,302.206482L371.02594,302.266663L370.967346,302.281433L370.883881,302.290375L370.425507,302.301788L370.365112,302.299774L370.305176,302.290588L370.247009,302.274261L370.204498,302.257721L369.778992,302.068237L369.725311,302.040283L369.675201,302.0065L369.632477,301.969574L369.615234,301.953033L369.596436,301.960632L369.538055,301.976959L369.478333,301.986359L369.417725,301.988586L369.357544,301.983673L369.332916,301.97876L369.310791,302.005585L369.266937,302.047424L369.215942,302.085236L368.545929,302.520782L368.544586,302.521454L367.919769,302.925262L367.91864,302.926147L367.339233,303.298401L367.337891,303.299286L366.803894,303.639771L366.802124,303.6409L366.313538,303.949829L366.311523,303.951172L365.868347,304.228363L365.865662,304.229919L365.46814,304.475342L365.465027,304.477356L365.112671,304.691223L365.05899,304.719391L365.002625,304.741089L364.944,304.756073L364.884033,304.76413L364.823425,304.764801L364.763245,304.758545L364.704193,304.745117L364.647369,304.724976L364.593018,304.698151L364.54245,304.665039L364.495911,304.626099L364.454315,304.582275L364.418274,304.533508L364.411804,304.522308L364.334625,304.635956L364.303284,304.677551L364.122101,304.893677L364.080933,304.937286L363.889893,305.117371L363.843567,305.156067L363.792786,305.189178L363.738647,305.216034L363.68161,305.236389L363.622559,305.249817L363.562378,305.256073L363.50177,305.255402L363.441803,305.247559L363.383179,305.232574L363.350311,305.220947L363.25412,305.182922L363.207123,305.161438L363.096863,305.104401L363.063965,305.085815L362.939575,305.009308L362.916321,304.99411L362.780518,304.900146L362.579865,304.771973L362.425507,304.699493L362.318787,304.67041L362.240723,304.667267L361.755707,304.747131L361.684143,304.753845L361.664429,304.754303L361.603149,304.752045L361.513672,304.743347L361.48996,304.740417L361.229126,304.702606L361.219269,304.70105L360.636047,304.605072L360.630463,304.604187L358.961609,304.309998L358.958252,304.309326L354.669312,303.524109L354.667755,303.523895L343.551056,301.455933L343.54657,301.455048L343.435608,301.43335L343.367371,301.415009L343.274994,301.38324L343.219055,301.360413L343.189087,301.344543L343.115265,301.302704L343.064484,301.269836L343.017059,301.230438L342.961578,301.178314L342.919983,301.134491L342.870758,301.064697L342.834076,301.002258L342.806549,300.948364L342.779266,300.868713L342.760925,300.796448L342.749512,300.737183L342.745026,300.669159L342.745239,300.586853L342.749054,300.526428L342.755554,300.486389L342.774353,300.393799L342.799622,300.307892L342.834076,300.220398L342.869202,300.148376L342.912354,300.075012L342.946136,300.024902L342.968292,299.997589L343.019745,299.938751L343.062256,299.895569L343.099609,299.864929L343.15979,299.82019L343.210571,299.787079L343.257324,299.763153L343.325775,299.732727L343.382599,299.711487L343.428894,299.699615L343.505859,299.683502L343.559113,299.675446L343.557556,299.660461L343.558197,299.600067L343.566254,299.5401L343.581024,299.481506L343.602966,299.424896L343.631134,299.371429L343.665588,299.321564L343.689301,299.293365L344.203369,298.725159L344.246552,298.682861L344.294434,298.645721L344.346344,298.614624L344.401581,298.590027L344.45929,298.571899L344.513214,298.561615L344.537598,298.558258L344.597992,298.553558L344.638062,298.55423L344.6828,298.556915L344.671387,298.537018L344.647888,298.481293L344.631348,298.423157L344.62149,298.363403L344.618805,298.303009L344.623505,298.242615L344.635132,298.183105L344.653717,298.12561L344.678772,298.070801L344.96936,297.524048L345.000916,297.472382L345.038269,297.424744L345.080994,297.382019L345.128418,297.344421L345.180084,297.312866L345.235107,297.287384L345.292603,297.268799L345.302917,297.266785L345.268005,297.22876L345.256378,297.214233L345.221466,297.164795L345.192383,297.111542L345.170013,297.055389L345.154602,296.997009L345.145874,296.937042L345.144958,296.863678L345.177856,296.316925L345.184998,296.256744L345.199341,296.197906L345.220367,296.141113L345.248108,296.087402L345.281891,296.037079L345.321259,295.991211L345.361969,295.953644L345.372467,295.944916L345.421265,295.908875L345.457275,295.888519L345.427277,295.875336L345.39328,295.858765L345.360168,295.841095L345.308502,295.80957L345.246094,295.758331L345.234009,295.746704L345.193054,295.702179L345.157501,295.653198L345.128204,295.600403L345.105164,295.54425L345.086792,295.476013L345.047211,295.27356L345.005371,295.095947L344.963318,294.94873L344.915009,294.809357L344.898438,294.75119L344.889038,294.691254L344.88681,294.630859L344.89151,294.570435L344.903595,294.511169L344.922363,294.453674L344.947876,294.398865L344.979645,294.347412L345.017242,294.299988L345.060181,294.257263L345.107849,294.220123L345.159729,294.188812L345.214783,294.163757L345.217896,294.162842L344.934906,294.08902L344.877197,294.070251L344.822388,294.044952L344.770691,294.013184L344.723267,293.97583L344.680542,293.932892L344.643188,293.885223L344.611633,293.833557L344.586609,293.778503L344.568024,293.720795L344.556396,293.66153L344.55191,293.601135L344.554596,293.54071L344.564453,293.480988L344.581238,293.422821L344.604706,293.367126L344.634705,293.314545L344.670471,293.265778L344.712097,293.22171L344.758392,293.1828L344.80896,293.149445L344.863098,293.12262L344.920135,293.10202L344.978973,293.088593L345.036926,293.082123L345.204468,293.073181L345.206482,293.072937L345.271362,293.058411L345.403351,293.025513L345.802429,292.918823L346.384766,292.756836L347.597473,292.411682L347.597473,292.411438L349.851105,291.759094L351.040344,291.41214L350.78598,291.083282zM353.914093,279.054749L353.929749,279.102844L353.933777,279.122742L353.932892,279.043549L353.914093,279.054749zM353.669342,285.287537L353.625153,285.30899L353.636505,285.744629L353.680695,285.721893L353.669342,285.287537M366.208405,267.310303L366.406616,267.313232L366.494751,267.309204L366.464539,267.246765L366.441498,267.190857L366.425171,267.13269L366.415771,267.072968L366.413544,267.012329L366.414886,266.996674L366.208405,267.310303zM374.072388,286.192139L373.785583,286.376251L373.749573,286.397522L373.40979,286.578247L373.415588,286.580719L373.467926,286.611145L373.516266,286.647614L373.559875,286.689453L373.567719,286.699066L373.641083,286.685425L373.663025,286.671112L373.731476,286.612701L373.827209,286.515625L373.938629,286.38678L374.06366,286.227478L374.1073,286.167297L374.072388,286.192139zM353.844971,268.637573L353.834442,268.764648L353.813416,269.070221L353.823273,269.033325L353.842041,268.97583L353.867554,268.921021L353.899536,268.869568L353.937134,268.822144L353.980072,268.779633L354.02774,268.742279L354.07962,268.710938L354.134674,268.685883L354.192383,268.667542L354.251892,268.656372L354.312073,268.651886L354.35257,268.653015L354.709137,268.676941L354.301331,268.590149L353.853027,268.557709L353.844971,268.637573zM370.780518,288.033936L370.764648,288.092316L370.742279,288.148468L370.713196,288.201721L370.67807,288.250916L370.637573,288.295898L370.591949,288.335693L370.546326,288.366821L370.694855,288.58783L370.95459,287.518951L370.97226,287.461243L370.996857,287.405762L371.027527,287.353638L371.064209,287.305542L371.106476,287.262146L371.153442,287.224121L371.204681,287.191681L371.259033,287.16571L371.248291,287.158783L371.201996,287.119873L371.1604,287.076019L371.12439,287.027252L371.094391,286.97467L371.070679,286.918976L371.05368,286.861023L371.043823,286.8013L371.042267,286.766846L370.780518,288.033936zM353.779877,272.705933L353.776733,272.766327L353.766449,272.82605L353.749207,272.884003L353.725281,272.939484L353.695068,272.992035L353.658844,273.040375L353.617004,273.084198L353.570465,273.122681L353.51947,273.155579L353.465118,273.18219L353.408051,273.202118L353.352142,273.21463L353.34967,273.300537L353.349457,273.307709L353.338715,273.564514L353.817444,273.515503L353.795532,272.953125L353.796631,272.892731L353.805145,272.832764L353.820343,272.774139L353.842499,272.717773L353.868683,272.66922L353.842499,272.645966L353.80246,272.600555L353.778748,272.566315L353.779877,272.705933zM374.224304,270.858551L374.18515,270.904633L374.140869,270.946014L374.091858,270.981567L374.039276,271.011322L373.977997,271.036377L373.954041,271.044434L373.89566,271.060333L373.864563,271.065033L373.907745,271.095886L373.937042,271.121399L373.948669,271.132355L373.990082,271.176422L374.026093,271.224976L374.056274,271.277557L374.079773,271.333252L374.096771,271.391418L374.104828,271.436829L374.106842,271.451813L374.111542,271.512207L374.11087,271.543549L374.109528,271.572845L374.106842,271.607513L374.095215,271.709076L374.092316,271.731232L374.050903,271.991852L374.049133,272.00235L373.950256,272.551331L373.948914,272.557831L373.92923,272.659393L374.004608,272.384888L374.005737,272.380859L374.12677,271.954041L374.128326,271.948669L374.238617,271.57486L374.240631,271.568146L374.339966,271.248016L374.343079,271.238403L374.431671,270.971283L374.436371,270.957642L374.461639,270.887848L374.414001,270.890747L374.353607,270.887177L374.294098,270.876434L374.227417,270.853851L374.224304,270.858551zM376.74234,269.818085L376.704315,269.865295L376.661133,269.907562L376.613281,269.944702L376.561371,269.975555L376.506104,270.000397L376.448181,270.018311L376.388672,270.02948L376.328491,270.033508L376.267853,270.030365L376.208374,270.020081L376.150421,270.002869L376.094727,269.978912L376.087769,269.974884L376.064514,269.976685L376.00412,269.973999L375.944397,269.964172L375.88623,269.947388L375.860046,269.936188L375.844177,269.942444L375.785553,269.957214L375.725372,269.965271L375.718445,269.965271L375.718658,270.006226L375.711731,270.066162L375.697845,270.125244L375.677063,270.182037L375.64975,270.235962L375.616425,270.28653L375.593597,270.314484L375.526733,270.391449L375.517548,270.400848L375.550201,270.41156L375.696747,270.437744L375.866302,270.44693L376.012177,270.439545L376.137451,270.419617L376.241455,270.389191L376.315308,270.356323L376.931152,269.91449L376.858887,269.856323L376.75824,269.792786L376.74234,269.818085zM368.15509,260.50061C368.15509,260.32132,368.102081,260.217773,367.998535,260.187469L367.79776,260.221558C367.588135,260.332672,367.394958,260.381927,367.215637,260.36676C367.335602,260.849121,367.421478,261.30368,367.473236,261.726715C367.740936,261.489319,367.920227,261.277191,368.009888,261.091553C368.105865,260.883209,368.15509,260.686218,368.15509,260.50061zM355.665955,268.594604L355.625244,268.63913L355.57959,268.678741L355.52948,268.712738L355.475586,268.740479L355.453644,268.748749L355.606659,268.766663L355.633942,268.770447L356.997681,269.005341L357.056519,269.019226L357.113342,269.039795L357.16748,269.067078L357.217804,269.100433L357.264099,269.139587L357.305267,269.183868L357.341064,269.232635L357.370819,269.285431L357.394104,269.34137L357.410645,269.399536L357.420258,269.459259L357.421143,269.483398L357.692963,269.233093L357.739716,269.194824L357.79071,269.162384L357.845306,269.135986L357.902588,269.116516L357.961853,269.10379L358.022034,269.098175L358.082428,269.099518L358.113098,269.103119L358.337921,269.135773L359.20813,269.222778L359.212402,269.223022L361.683472,269.490784L361.684143,269.491028L363.721893,269.714722L355.846924,268.646057L355.787659,268.63443L355.729919,268.615875L355.67511,268.590607L355.671082,268.588135L355.665955,268.594604zM362.899078,300.034058L362.877838,300.090668L362.850098,300.144562L362.816101,300.194672L362.776489,300.240326L362.731995,300.281036L362.71991,300.289764L362.743622,300.330261L362.767761,300.385742L362.785217,300.443665L362.795746,300.503174L362.799316,300.562469L362.799316,301.252594L362.884338,301.876068L362.889038,301.936462L362.886353,301.996887L362.876709,302.05661L362.860168,302.114777L362.83667,302.170471L362.806915,302.223267L362.771118,302.272034L362.729736,302.316315L362.681885,302.356598L362.668884,302.366211L362.632446,302.390137L362.693726,302.408722L362.716095,302.416107L362.764648,302.433319L362.820557,302.456818L362.862854,302.480316L362.879852,302.490814L362.929291,302.525726L362.974243,302.566223L363.014282,302.611633L363.048767,302.661499L363.076935,302.714966L363.10199,302.782745L363.225922,303.206909L363.233521,303.240234L363.358368,302.834442L363.420105,302.584106L363.473999,302.338257L363.516754,302.111847L363.547852,301.908295L363.569092,301.720367L363.580719,301.546539L363.582733,301.39444L363.576691,301.271606L363.535767,301.00293L363.458588,300.702057L363.341797,300.364685L363.186768,299.998932L363.014282,299.660919L362.899078,300.034058zM370.01001,300.506927C369.950684,300.671082,369.906464,300.860474,369.87616,301.076416C369.838287,301.36557,369.87616,301.539825,369.987305,301.600433L370.412811,301.789825L370.871185,301.778473C371.369965,301.644623,371.925537,301.298645,372.536682,300.741791L370.311798,299.71521L370.01001,300.506927zM354.194641,270.401489C354.150421,271.152802,354.154236,271.780365,354.205994,272.285461C354.534302,271.765228,355.040649,271.181854,355.726288,270.535339C356.217468,270.066864,356.612701,269.72467,356.910706,269.51001L355.546997,269.275146L354.977509,269.208221L354.318359,269.164032C354.26535,269.326935,354.224945,269.739838,354.194641,270.401489zM377.766815,261.169861L377.520599,261.648407L377.845123,261.97168L376.682159,268.896332L377.241547,268.66275C377.465027,267.427826,377.677185,266.179016,377.879211,264.91629C378.273163,262.395935,378.40448,261.068817,378.269379,260.934998C378.12796,260.801147,377.960022,260.879425,377.766815,261.169861zM371.083313,289.156464C371.36618,289.624939,371.649017,290.137573,371.933136,290.694427L372.212189,290.449463C372.681915,289.981018,372.949585,289.494873,373.01651,288.988525L373.184448,287.037659L372.603607,287.338165C372.149048,287.561676,371.765167,287.662689,371.452026,287.639954L371.083313,289.156464zM370.177948,299.158356C370.736084,298.117889,371.474762,297.039551,372.390228,295.924561L373.050629,295.278076C372.036652,295.880371,371.190643,296.452393,370.512573,296.995331C369.641296,297.678467,368.936707,298.391907,368.401337,299.13562C368.386169,300.213989,368.728363,300.994324,369.429169,301.476685C369.377411,301.143341,369.444336,300.738007,369.629944,300.261963L370.177948,299.158356zM373.9888,268.729675C374.227448,268.84079,374.424438,268.951904,374.581024,269.063019L374.905518,269.364807L374.748962,269.063019L374.626465,268.729675C374.596161,268.647583,374.410553,268.506165,374.067108,268.305389C373.642822,268.052856,373.140259,267.825562,372.558167,267.624817C370.852234,267.037628,368.974609,266.836884,366.925232,267.023743C367.230804,267.56546,367.059082,267.83316,366.411316,267.825562L365.639801,267.814209C365.379669,267.852081,365.244568,267.963196,365.238251,268.148834L369.17157,267.959412C370.922943,267.997314,372.082123,268.097046,372.647827,268.2612C373.184448,268.408936,373.63147,268.565521,373.9888,268.729675zM375.509094,293.872681C376.07605,293.769135,376.496552,293.876465,376.77182,294.195923C377.033203,294.501495,377.006683,295.039398,376.693512,295.813446C376.574829,296.110168,376.406891,296.444794,376.190979,296.81604L376.884186,296.347565C377.100128,296.006653,377.300873,295.563416,377.487762,295.021729C377.72641,294.314606,377.848907,293.623901,377.856476,292.947113L376.983948,293.025391C376.626587,292.966064,376.328613,292.809479,376.089935,292.556946L375.788147,293.371368L375.631592,293.560791L375.408081,293.572144C374.387817,292.627655,373.36377,291.936951,372.334656,291.497528L373.128906,293.226166L373.654175,294.519165L373.698395,294.742676L374.223663,294.385315C374.647949,294.125214,375.077271,293.954742,375.509094,293.872681zM374.402985,264.436462C374.708557,263.329071,374.96109,261.97168,375.163116,260.36676L371.440674,267.100769L372.781647,267.335632C373.736267,267.595764,374.384033,267.9935,374.726227,268.5289C374.592377,268.12735,374.481262,267.651306,374.391602,267.100769C374.204742,266.016113,374.208527,265.127167,374.402985,264.436462zM353.669342,285.287537L353.591064,283.392212C351.617432,283.830383,350.183014,284.66629,349.289001,285.899933L349.411499,286.881073L349.445587,286.982086C349.623627,287.613434,349.828186,288.219543,350.059265,288.799133C350.40271,288.026337,350.972198,287.446747,351.770233,287.060364C352.358643,286.769958,352.987488,286.620941,353.65799,286.614624L353.636505,285.744629L353.625153,285.30899L353.669342,285.287537zM375.844971,260.778412L375.564667,262.663635L375.419464,260.388245C375.39798,261.623169,375.211121,262.946472,374.861328,264.358185C374.682037,265.042572,374.66687,265.907532,374.815887,266.956818C374.897949,267.550293,375.017914,268.141235,375.1745,268.729675L375.262878,269.063019L375.274231,269.074402L375.419464,269.475922L375.408081,269.063019L375.386627,268.729675L375.352539,268.2612L375.296967,267.045227L375.486389,268.249847L375.553284,268.729675L375.610107,269.063019L375.688416,269.454468C375.702301,269.454468,375.721252,269.324402,375.743958,269.063019L375.766693,268.729675L375.79953,268.39505C375.851288,267.687927,375.889191,267.335632,375.911896,267.335632L375.978821,268.405151L375.990204,268.729675L376.011658,269.063019L376.057129,269.464569L376.112671,269.063019L376.15686,268.729675L376.202332,268.416504L376.347534,267.379822L376.336182,268.450623L376.324799,268.729675L376.313446,269.063019L376.324799,269.521393L376.391724,269.063019L376.437195,268.729675L377.442322,261.938843L377.096313,261.916107L376.77182,263.243225L376.704895,261.570129L376.481384,261.359253L376.179596,262.752014L376.045746,260.969086L375.844971,260.778412zM352.183136,279.76825L351.971008,279.812439L351.93692,279.969025C351.407837,280.801147,350.826996,281.485535,350.194366,282.019653C349.627411,282.503265,349.054138,282.826508,348.472046,282.990662L349.289001,285.442841C349.959503,284.29126,351.390167,283.526062,353.580963,283.145996L353.434479,279.232849C352.943298,279.485413,352.526581,279.663452,352.183136,279.76825zM343.276001,300.495575C343.201508,300.755676,343.323975,300.908478,343.644714,300.952667L352.697052,302.637115C358.561066,303.72934,361.55368,304.26474,361.672363,304.242004L362.209015,304.153625C362.447662,304.13089,362.734314,304.23822,363.068939,304.476868C363.263367,304.618286,363.419952,304.706696,363.538666,304.744568C363.800018,304.528656,364.034882,304.216766,364.243256,303.807648C364.495789,303.339172,364.644775,302.849243,364.690247,302.335327C364.793793,301.183746,364.716766,300.317535,364.455383,299.737946L364.209137,299.147003C364.149811,298.968964,363.825287,298.915924,363.236877,298.990417L363.11438,299.00177L363.292419,299.080078L363.651031,299.782135C363.903564,300.332672,364.048798,300.8125,364.08667,301.220367C364.123291,301.644623,364.044983,302.227997,363.851807,302.971741L363.550018,303.95285C363.601776,304.108154,363.565155,304.224335,363.437622,304.298828L363.068939,304.276093L362.510803,303.90741C362.24942,303.774811,362.048645,303.733154,361.907227,303.784912C361.712769,303.867004,358.77066,303.320251,353.077118,302.145935L343.789917,300.195038C343.528564,300.14328,343.356812,300.243011,343.276001,300.495575zM375.062103,270.75885C374.897949,271.114929,374.618896,272.040497,374.223663,273.534271C373.746368,275.32605,373.534241,276.515503,373.58728,277.102661C374.53302,276.909485,375.323486,276.601379,375.956116,276.177124C376.523071,275.798309,376.720032,275.519226,376.548309,275.341187L376.481384,275.084869L376.481384,275.073517C377.539551,271.483643,378.005463,269.569366,377.879211,269.330719C377.811005,269.204437,377.67337,269.148895,377.465027,269.164032C377.300873,269.179199,377.130432,269.227173,376.951111,269.309265C377.562256,269.657745,377.67337,269.984802,377.285736,270.290375L376.571045,270.80304C376.377838,270.906586,376.142975,270.959595,375.866455,270.959595C375.546997,270.959595,375.278015,270.8927,375.062103,270.75885zM370.58075,299.26947L372.949585,300.351624L373.072083,300.227875C374.913116,298.451233,376.038177,296.808472,376.448547,295.29953C376.574829,294.817169,376.429626,294.519165,376.011658,294.408051C375.661896,294.310822,375.259094,294.356293,374.804504,294.541901C374.089813,294.838654,373.377655,295.381592,372.670532,296.169525C371.68689,297.374146,370.978516,298.399475,370.546661,299.246765L370.58075,299.26947zM375.006561,278.016876C374.439606,278.269409,373.889038,278.35907,373.352417,278.284576L373.050629,279.645752L372.938232,280.191254L371.55304,286.747223C372.334656,286.517395,372.987488,286.249725,373.508972,285.945404C374.343628,285.454224,374.622681,284.964294,374.346161,284.473083L374.313324,284.283691L375.66568,277.660797L375.006561,278.016876zM373.474884,270.311829C373.117554,270.118652,372.580902,269.95575,371.864929,269.821899C372.506378,269.770142,373.117554,269.850952,373.698395,270.066864L374.414337,270.378754L374.514099,270.311829C374.551971,270.290375,374.346161,270.156525,373.89917,269.91156C373.430695,269.657745,373.046814,269.48349,372.74884,269.387543C373.2034,269.334503,373.683228,269.446899,374.190826,269.720886L374.82724,270.133789L375.140381,270.055511L375.207306,269.978485L374.861328,269.699432C374.555756,269.460785,374.216095,269.249908,373.843597,269.063019C373.591064,268.936768,373.322083,268.825623,373.039246,268.729675C371.906616,268.34201,370.535309,268.179138,368.926605,268.238464L365.204163,268.494812L364.432648,268.483429L364.209137,268.472076C362.279724,268.391266,359.939941,267.821777,357.19104,266.766174L356.956177,267.01239L358.173401,267.45813L356.675842,267.32428L356.57608,267.435394L357.984009,267.72583L356.374054,267.658905L355.91571,268.138733L373.743835,270.558075C373.89917,270.573212,373.81076,270.49115,373.474884,270.311829zM378.918396,288.186707C378.553497,288.521332,378.236542,288.848358,377.96759,289.167816L377.577423,289.703217C377.100128,290.43811,376.682159,291.208374,376.324799,292.010193C376.540741,292.330902,376.891754,292.516541,377.375397,292.568298C377.881714,292.627655,378.177216,292.449615,378.258026,292.032898L378.370392,291.476044C378.429749,291.2677,378.534546,291.111145,378.683533,291.007599C378.809814,290.917938,379.025726,290.888885,379.331329,290.917938L379.957611,290.895203C380.129333,290.858582,380.330109,290.780304,380.561188,290.661621C381.559998,290.148956,382.450195,289.472137,383.231812,288.632446C384.10434,287.680359,384.4617,286.758575,384.305115,285.867126C384.260925,285.576691,384.070251,285.458008,383.735626,285.509766C383.600525,285.524933,383.332825,285.614563,382.930023,285.777466C382.102966,286.096924,381.197601,286.550232,380.213959,287.138672L378.918396,288.186707zM350.439331,275.408112L350.417877,276.634216C350.424194,277.087524,350.465851,277.481476,350.540344,277.816101C350.666626,278.381805,351.010071,278.909607,351.568207,279.399536L352.060669,279.332611C352.559418,279.191193,353.170563,278.905823,353.892853,278.473969L355.166901,277.67215C355.39798,277.5383,355.525513,277.359009,355.546997,277.13678C355.562134,277.010498,355.543213,276.898102,355.491425,276.802155L355.468689,276.790771L354.798187,277.035736C354.373932,277.192322,354.053192,277.270599,353.83728,277.270599L353.546844,277.203674L354.820923,276.712494C355.774261,276.341248,356.232635,275.909424,356.196014,275.419495L356.140442,275.285645L356.095001,275.230072L356.083649,275.218719L355.078522,275.48642C354.429504,275.65686,353.967346,275.742737,353.692078,275.742737C353.527924,275.742737,353.420593,275.716217,353.367554,275.664459C353.3461,275.635406,353.710999,275.493988,354.463593,275.241455C355.223724,274.98764,355.749023,274.832336,356.039429,274.77298C356.448547,274.683319,356.728882,274.601257,356.877869,274.526764C357.055908,274.438354,357.101379,274.341125,357.011719,274.237579C356.929657,274.147949,356.687195,274.07724,356.285675,274.025452L355.302032,273.958527L354.631531,273.947174L352.887726,274.125214L352.876373,274.125214C352.824585,274.125214,352.809448,273.8992,352.830902,273.445862C352.853638,272.992554,352.842285,272.765289,352.798065,272.765289C352.32077,272.914276,351.818207,273.344849,351.289124,274.058289L350.439331,275.408112zM363.270966,253.52037C363.055023,253.461029,362.767151,253.490067,362.40979,253.610031L362.05246,253.742615L361.672363,253.843628L360.654633,253.80954C360.21521,253.750183,359.756836,253.895401,359.280823,254.245163L359.146973,254.344925L358.419647,254.847473C358.106506,254.884094,357.737793,255.077286,357.313507,255.427063L356.765503,255.92836L356.452332,256.274323C356.303345,256.452393,356.173279,256.656921,356.062164,256.888C355.831085,257.370361,355.67453,257.972687,355.592438,258.693695C355.533081,259.229065,355.517944,259.708893,355.546997,260.131897C355.682098,259.856628,355.85257,259.615448,356.062164,259.407104L356.821045,258.827515C357.044556,258.708832,357.391785,258.563629,357.861511,258.393158L357.436005,257.668365C357.302155,257.33374,357.275635,257.069855,357.357697,256.876648C357.477661,256.601379,357.645599,256.389252,357.861511,256.241516C358.159515,256.025574,358.497925,255.973816,358.877991,256.08493L359.101501,256.163208C359.24292,256.222565,359.466431,256.381653,359.772003,256.641785C360.05484,256.880432,360.253082,257.014282,360.364197,257.043335L360.431122,257.06604C360.484161,257.06604,360.793518,256.895599,361.359222,256.553406C361.903442,256.218781,362.30246,256.088715,362.554993,256.163208C362.608032,256.170807,362.663605,256.199829,362.722931,256.251617L363.326508,256.898102L363.683868,257.299652L363.985657,257.51178L364.119507,257.523163L364.455383,257.456238L365.081665,257.423401C365.223114,257.460022,365.375885,257.559784,365.540039,257.723938C365.658722,257.842621,365.822876,258.15451,366.031219,258.660858L366.367126,259.452576C366.598175,259.78717,366.850739,259.994263,367.126007,260.076355C367.335602,260.128113,367.52124,260.110443,367.685364,260.020782C368.021271,259.850311,368.292725,259.571259,368.501099,259.184875C368.709442,258.812378,368.802887,258.456299,368.780151,258.114105C368.758667,257.846405,368.680389,257.597656,368.546539,257.366577C368.4935,257.641846,368.35965,257.823669,368.143738,257.91333L367.406311,257.95752C367.041412,257.861572,366.77243,257.626709,366.600708,257.255463C366.302704,256.631683,366.053955,256.188477,365.851929,255.92836C365.76355,255.802078,365.681458,255.716217,365.606964,255.672028L365.360748,255.572266L364.812714,255.52681L364.365723,255.505356C364.254608,255.467468,364.168732,255.400543,364.109406,255.304581L363.885895,254.679535L363.773529,254.344925C363.609375,253.862564,363.460358,253.594879,363.326508,253.543106L363.270966,253.52037zM374.872711,284.295044C375.199738,284.949127,375.117676,285.625946,374.626465,286.324219C374.208527,286.918945,373.89917,287.208099,373.698395,287.194214L373.675659,289.078186C373.318298,289.948181,372.919281,290.587097,372.479858,290.996216C373.508972,291.405334,374.521667,292.055634,375.520477,292.947113C375.908112,291.906647,376.470032,290.784088,377.207458,289.579468L377.487762,289.167816L378.359039,288.186707C378.769409,287.785156,379.253021,287.376038,379.812408,286.959351C378.93988,285.874695,377.946136,284.75592,376.828644,283.603088L375.319702,282.120667L374.872711,284.295044zM345.063995,293.593628L361.91861,297.987823L361.996887,298.02066C362.451477,298.288361,362.760834,298.422211,362.923706,298.422211L363.169952,298.399475L364.063934,298.377991C364.436432,298.444916,364.675079,298.641907,364.779907,298.968964L364.992035,299.492981C365.215515,299.967743,365.372101,300.373077,365.461761,300.707703C365.624634,301.279694,365.681458,301.849182,365.628418,302.413605C365.569092,303.031067,365.30896,303.643494,364.846802,304.253387C365.725647,303.725555,367.089386,302.859344,368.936707,301.656006L368.881165,301.600433C368.382385,301.145844,368.084381,300.541016,367.987152,299.782135L367.618469,300.495575C367.588135,300.585205,367.536377,300.648346,367.461884,300.684967L367.204285,300.65213C366.966888,300.481689,366.586823,300.11676,366.065338,299.559906C365.401154,298.845215,364.801361,298.106537,364.265961,297.340057C363.848022,296.745331,363.427521,296.002869,363.002014,295.110107L362.488068,293.91687C359.552277,295.270477,357.044556,295.496521,354.966125,294.597473C353.885254,294.136566,352.902893,293.449677,352.015198,292.53421L351.390167,291.843506C347.425262,293.002655,345.380951,293.583496,345.253418,293.583496L345.063995,293.593628zM345.522369,294.708588L345.398621,294.641663C345.473114,294.834839,345.536255,295.081085,345.589294,295.377808C345.596863,295.423279,346.506012,295.731384,348.316742,296.303375C350.12619,296.882965,351.035339,297.19989,351.042908,297.251678L348.372284,296.794586C346.58429,296.437225,345.689026,296.288239,345.689026,296.347565L345.656219,296.894318C345.648621,296.953674,346.739624,297.299652,348.93042,297.931C351.106049,298.556061,352.18692,298.898254,352.171783,298.957581L348.79657,298.366638L345.421356,297.764343L345.13092,298.311096C345.108185,298.355286,346.546417,298.741669,349.445587,299.470245C352.335938,300.20639,353.770355,300.592804,353.74762,300.629395C353.710999,300.682434,352.183136,300.424866,349.165283,299.860413C346.1474,299.29599,344.620789,299.032104,344.582916,299.068695L344.06897,299.636932L352.786713,301.621887L359.649506,303.172485L361.683746,303.23941C361.974152,303.113159,362.323914,303.14978,362.734314,303.350555L362.610565,302.92627C362.604248,302.889648,361.248108,302.555054,358.543396,301.923676L354.486328,300.91983C354.471161,300.860474,355.785645,301.030945,358.431,301.432495C361.076385,301.841614,362.390839,302.012085,362.376953,301.94516L362.287323,301.287292L362.287323,300.5625C362.294891,300.525879,360.852875,300.112976,357.961273,299.325043C355.078522,298.529541,353.640289,298.114105,353.647888,298.076233C353.655457,298.039612,355.115143,298.340118,358.028198,298.979065C360.942535,299.619263,362.402222,299.919769,362.40979,299.883148L362.688843,298.979065C362.428741,298.91214,362.108002,298.771973,361.727936,298.556061L345.600647,294.698486C345.622131,294.757813,345.596863,294.761627,345.522369,294.708588zM351.076996,268.7966L351.088379,268.806702L351.076996,268.818054L350.584564,269.063019L350.047913,269.42038C348.349548,270.705811,346.886078,272.311951,345.656219,274.237579C344.099304,276.660736,343.707855,278.678528,344.481903,280.292267C344.936462,281.25824,345.834259,282.001984,347.176514,282.522217C348.189209,282.923737,349.325623,282.443909,350.584564,281.083984C350.935577,280.703918,351.226013,280.347839,351.457092,280.013214C350.786591,279.485413,350.347168,278.883087,350.137543,278.206268C350.01886,277.790833,349.959503,277.329956,349.959503,276.823608L350.026428,275.396759C348.901367,275.754089,348.160156,276.366516,347.801544,277.236511C347.757355,277.362793,347.660126,277.429718,347.511139,277.437286C347.362122,277.452454,347.317932,277.381714,347.377289,277.225159C347.652557,276.571075,348.028839,276.006653,348.506134,275.530609C349.035217,275.017944,349.623627,274.687103,350.272675,274.538116L351.143921,273.534271C351.486115,273.163025,351.791687,272.876404,352.060669,272.67688C352.291718,272.505157,352.492493,272.394043,352.664215,272.342285L352.73114,272.31955L352.798065,272.31955C352.931915,272.31955,353.048096,272.367523,353.144043,272.464752L353.267792,272.709717C353.252655,271.066925,353.264008,269.850952,353.300629,269.063019L353.323364,268.729675C353.353668,268.328125,353.394073,268.089478,353.445831,268.014984L354.373932,268.081909L355.267944,268.272583L356.251587,267.05658L356.262939,266.899994L355.468689,267.05658C353.934509,267.398773,352.50766,267.955627,351.18811,268.729675L351.076996,268.7966zM358.933563,256.553406C358.54718,256.44101,358.22644,256.578644,357.972656,256.965027C357.697388,257.374146,357.800903,257.819885,358.285797,258.303497L358.352722,258.425995C358.367859,258.508057,358.322418,258.563629,358.218872,258.593933C357.68222,258.735352,357.275635,258.879303,357.000366,259.02829C356.612701,259.229065,356.299561,259.477814,356.062164,259.775818C355.867706,260.020782,355.726288,260.296051,355.636627,260.600372L356.062164,260.131897L356.899353,259.441193C357.473877,259.106598,357.835022,258.936127,357.984009,258.928558L358.073669,258.93866C358.140594,258.953796,358.173401,258.995483,358.173401,259.062378C358.181,259.121735,358.148163,259.16214,358.073669,259.184875L357.737793,259.318726L357.034454,259.674805C356.742767,259.83139,356.444763,260.051086,356.140442,260.332672L356.062164,260.41095L355.581085,260.923615L355.55835,261.158478L355.569702,261.158478L356.062164,260.655914C356.322296,260.418549,356.587463,260.225342,356.855164,260.076355C357.212494,259.883148,357.499115,259.779602,357.716309,259.764465L357.771881,259.764465C357.838806,259.78717,357.857727,259.835175,357.827423,259.909668C357.804718,259.998047,357.737793,260.057404,357.626648,260.087708C357.380432,260.147064,357.16452,260.229126,356.977631,260.332672L356.062164,261.001923L355.659363,261.325165L355.670715,261.414825L355.838684,261.514557C355.927063,261.604218,355.913177,261.693878,355.793213,261.782257C355.1745,262.020905,354.906799,262.466644,354.988861,263.120728C355.063354,263.759644,355.405579,264.164978,356.016724,264.335449L356.184662,264.38092C356.356384,265.086761,356.583679,265.725677,356.866516,266.29895L356.899353,266.25351C356.988983,266.149963,357.093811,266.123444,357.212494,266.175201L359.235352,266.922729L361.414795,267.557892L361.4375,267.424042C361.481689,267.312927,361.575134,267.28009,361.716553,267.32428L361.762024,267.335632L362.633301,267.703094L362.722931,267.781372L362.688843,267.825562L363.471741,267.937958L364.913727,268.049072L365.41629,267.502319C366.422668,266.291382,366.988373,264.904938,367.115906,263.342957L367.126007,263.120728C367.179047,262.227997,367.070435,261.277191,366.802734,260.265747C366.533783,260.147064,366.292603,259.923553,366.075439,259.596527L365.729431,258.771973C365.521088,258.274475,365.372101,257.976471,365.28244,257.880493C365.230682,257.827454,365.163757,257.790833,365.081665,257.768127L364.265961,257.823669L363.840454,257.790833C363.601776,257.723938,363.326508,257.534515,363.013367,257.222626C362.887085,257.096344,362.722931,257.00293,362.522186,256.943573C362.037292,256.809723,361.519592,256.917053,360.967773,257.266815C360.811218,257.370361,360.629364,257.396881,360.421021,257.345123C360.272034,257.299652,360.092712,257.203674,359.884369,257.054688C359.712646,256.920837,359.422241,256.765533,359.011841,256.586212L358.933563,256.553406zM357.235229,261.671143L357.055908,261.760803C356.929657,261.827728,356.855164,261.890839,356.832428,261.950195L356.765503,262.027222L356.675842,262.027222C356.579865,261.998169,356.553375,261.931274,356.597565,261.827728C356.643005,261.715332,356.728882,261.623169,356.855164,261.548645C356.988983,261.466583,357.097595,261.422394,357.179657,261.414825L357.235229,261.414825C357.294556,261.429962,357.328674,261.474152,357.336243,261.548645C357.336243,261.61557,357.302155,261.655975,357.235229,261.671143zM357.492828,260.600372C357.552155,260.623108,357.584991,260.667297,357.59256,260.734222C357.600159,260.801147,357.552155,260.852905,357.447357,260.890778L356.944794,261.046112L356.564728,261.280975L356.285675,261.426178L356.262939,261.369354C356.262939,261.309998,356.32608,261.221619,356.452332,261.102936C356.564728,260.99054,356.687195,260.894592,356.821045,260.8125C357.03067,260.686218,357.242798,260.615509,357.45871,260.600372L357.492828,260.600372zM365.908752,261.403442L364.757172,261.726715L364.556396,261.682495L364.466736,261.503204L364.444,261.280975L364.478088,260.969086C364.514709,260.827667,364.566498,260.768311,364.634674,260.789764L364.858185,261.21405L365.920105,261.25824C366.075439,261.317596,366.071655,261.366821,365.908752,261.403442zM364.936462,261.961578C364.980652,262.139618,365.070313,262.265869,365.204163,262.340363L365.271088,262.384583L365.360748,262.428772L365.450378,262.485596L365.685242,262.495697C365.803955,262.466644,365.874664,262.503265,365.8974,262.608063L365.886017,262.73056L365.785004,262.818939L365.360748,262.808838C365.271088,262.949005,365.167542,263.053802,365.047577,263.120728L365.036224,263.13208L364.723083,263.164917L364.656158,263.120728C364.596802,263.061371,364.566498,262.964142,364.566498,262.830292C364.560181,262.659851,364.60437,262.481812,364.701599,262.294922L364.936462,261.961578zM361.828949,261.604218C361.613037,261.715332,361.414795,261.741852,361.236755,261.682495C361.116791,261.852966,360.986725,261.975464,360.845306,262.049957L360.487946,262.084045C360.367981,262.01712,360.304871,261.88327,360.297272,261.682495C360.297272,261.474152,360.356628,261.25824,360.476593,261.036011L360.654633,260.756958C360.71524,260.942566,360.811218,261.072632,360.94632,261.147125L361.269562,261.336517L361.30365,261.3479L361.638275,261.325165C361.743073,261.265808,361.821381,261.280975,361.873138,261.369354L361.895874,261.493103L361.828949,261.604218zM361.884521,260.511963C361.720367,260.34024,361.426147,260.128113,361.001892,259.87558C360.621796,259.653351,360.431122,259.523285,360.431122,259.485413C360.558655,259.418488,360.904663,259.500549,361.471588,259.730377C361.955231,259.931122,362.306244,260.106659,362.522186,260.254395L362.923706,260.23291L363.236877,260.14328C363.282318,260.181152,363.151001,260.347839,362.845428,260.645813C362.539856,260.942566,362.358032,261.083984,362.298676,261.068817L362.153473,260.879425L361.884521,260.511963zM363.38208,261.12439C363.441437,261.147125,363.486877,261.225403,363.51593,261.359253L363.695221,262.351746L363.974274,263.120728L364.22052,263.700317C364.272278,263.849304,364.24704,263.968018,364.142212,264.057648L363.460358,264.625885L363.137115,264.670074L362.923706,264.547577L362.835327,264.436462L362.902252,264.302612L363.449005,263.878357L363.561371,263.723053C363.590424,263.656128,363.597992,263.592987,363.584106,263.53363L363.370728,262.541138L363.270966,261.715332L363.24823,261.336517C363.24823,261.179962,363.288635,261.109253,363.370728,261.12439L363.38208,261.12439zM360.856659,264.012207C361.198853,264.13089,361.46402,264.436462,361.649658,264.926392C361.739288,265.172638,361.798645,265.410004,361.828949,265.641083C362.23175,265.714325,362.763367,265.982025,363.427521,266.442902C363.664917,266.58432,363.956604,266.643677,364.298798,266.622223L364.913727,266.498474L365.05896,266.52121C365.081665,266.588135,365.062744,266.647461,365.003387,266.699249C364.868286,266.811615,364.64856,266.918945,364.342987,267.023743L363.303802,267.001038L362.621918,266.576752C362.264587,266.354523,361.951416,266.179016,361.683746,266.052734C361.131927,265.792603,360.547302,265.570374,359.928589,265.383484L359.905853,265.373383L359.246704,265.394867L359.157074,265.528717L359.023224,265.651184C358.919678,265.681488,358.851501,265.654968,358.822449,265.574158C358.881805,265.394867,358.990387,265.264801,359.146973,265.182739L359.49295,265.105713L359.660889,265.071594C359.689911,264.841797,359.809875,264.591797,360.018219,264.325348C360.272034,264.019775,360.551086,263.916229,360.856659,264.012207zM361.225372,264.771088C361.091522,264.503387,360.934937,264.343018,360.755646,264.29126C360.606659,264.254639,360.461426,264.29126,360.320007,264.402374C360.126831,264.574097,360.033386,264.830444,360.040955,265.172638L360.442505,265.283752C360.360413,265.023621,360.37558,264.807709,360.487946,264.637238L360.677368,264.759735C360.580139,264.930176,360.602844,265.142334,360.744293,265.394867L360.868042,265.440308L361.4375,265.662567L361.414795,265.49588C361.414795,265.264801,361.351654,265.023621,361.225372,264.771088zM350.282776,289.323151C350.811829,290.334564,351.493713,291.252563,352.328339,292.077087C353.162994,292.91806,354.079712,293.583496,355.078522,294.073425C356.062164,294.564636,357.584991,294.605042,359.649506,294.195923L362.443878,293.438293C362.02594,292.813263,361.739288,292.241241,361.582733,291.721008C361.546112,291.57959,361.590302,291.512665,361.716553,291.520264C361.851685,291.527832,361.940063,291.590942,361.985535,291.709656L363.058838,294.128998C363.662384,295.400543,364.254608,296.456177,364.835449,297.295868C365.252136,297.905762,365.781219,298.508057,366.422668,299.102783L367.427795,300.016998L367.953064,299.112915L367.964447,299.112915C368.554108,298.221436,369.328156,297.381714,370.289063,296.593811C371.056793,295.947296,372.011414,295.293213,373.15036,294.631561C372.628876,293.248901,371.962158,291.816986,371.150238,290.338348C370.382507,288.955688,369.629944,287.869751,368.892517,287.081848C367.908875,286.041382,366.814117,285.346893,365.606964,284.997101C363.863159,284.492035,362.171143,284.882202,360.532135,286.167633C359.191162,287.230835,358.106506,288.665283,357.279419,290.472198L357.257965,290.527771C357.204926,290.654022,357.105164,290.720947,356.956177,290.728546C356.807159,290.743683,356.765503,290.676758,356.832428,290.527771L357.447357,289.345886L357.648132,288.978424L353.714813,288.431671L353.669342,287.093201C352.977386,287.071747,352.343506,287.208099,351.770233,287.506104C351.01767,287.900085,350.525208,288.498596,350.294128,289.301666L350.282776,289.323151zM365.729431,270.457062L365.181427,270.390137L361.628174,269.999939L359.157074,269.732269L358.274445,269.64386L358.039581,269.609772L357.749146,269.877472L354.307007,272.933228L354.329742,273.512787L354.631531,273.501434L355.302032,273.512787C356.389221,273.512787,357.067291,273.654236,357.336243,273.935791L357.346344,273.947174C357.50293,274.125214,357.544586,274.315887,357.470093,274.516663C357.395599,274.754028,357.126617,274.939667,356.665741,275.073517L356.597565,275.218719L356.631653,275.341187L356.631653,275.385376C356.668274,275.876587,356.430878,276.295807,355.91571,276.645569C356.012939,276.884216,356.024292,277.129181,355.949799,277.381714C355.867706,277.664581,355.685883,277.88681,355.401764,278.050964L354.94342,278.340118L354.440857,278.663391L354.507782,284.907471L354.519135,285.343079L354.54187,287.817993L357.995361,288.376099C358.650726,287.387421,359.388123,286.565399,360.207642,285.911316C361.183716,285.115814,362.212799,284.614502,363.292419,284.406158C365.580444,283.968018,367.662659,284.82666,369.540283,286.982086L370.278992,287.930389L371.988678,279.655853L372.078339,279.221497L372.099792,279.120483C373.136475,274.125214,373.635254,271.587158,373.597382,271.505096C373.553162,271.393982,370.974731,271.048004,365.863281,270.468414L365.729431,270.457062z"/>
</svg>
