<?xml version="1.0" encoding="UTF-8"?>
<svg xmlns="http://www.w3.org/2000/svg" xmlns:xlink="http://www.w3.org/1999/xlink" width="42.107mm" height="52.275mm" viewBox="-334.159943 252.981644 42.106506 52.275375">
    <path transform="matrix(-1,0,0,1,0,0)" style="stroke:none;fill:#000000;fill-rule:evenodd" d="M300.094604,291.084442L300.08252,291.068573L299.833984,290.720032L299.822571,290.703247L299.588379,290.345764L299.57785,290.328766L299.357941,289.962555L299.34787,289.945099L299.142303,289.57016L299.116333,289.515564L299.097107,289.458313L299.084808,289.399048L299.079437,289.338623L299.081207,289.278229L299.088593,289.228577L299.052368,289.203522L299.006958,289.163452L298.966675,289.118286L298.931793,289.068848L298.903137,289.015381L298.889709,288.983398L298.721283,288.543793L298.716339,288.530823L298.557953,288.08139L298.553711,288.06842L298.405396,287.609131L298.401581,287.597076L298.264893,287.134644L298.234924,287.046295L298.219055,286.987915L298.211884,286.945404L298.089539,285.964233L298.08551,285.903809L298.088867,285.843414L298.099152,285.783905L298.116364,285.725739L298.139648,285.671844L298.135834,285.664917L298.111877,285.605621L297.300293,283.169678L297.260254,283.171234L297.060242,283.168335L297.006561,283.16452L296.809479,283.140808L296.756683,283.131866L296.5625,283.087555L296.511932,283.073242L296.320679,283.008362L296.284424,282.994507L295.80188,282.78891L295.768555,282.773254L295.327637,282.546631L295.29184,282.526489L294.892517,282.279083L294.854919,282.253357L294.497437,281.985138L294.459198,281.953369L294.143097,281.664124L294.105286,281.625427L293.831024,281.315369L293.795685,281.270844L293.562805,280.939758L293.531708,280.889648L293.340424,280.53775L293.319397,280.494568L293.18808,280.187408L293.172638,280.146027L293.06839,279.829254L293.056335,279.786743L292.97937,279.460358L292.971313,279.417419L292.921875,279.081635L292.917389,279.040009L292.895264,278.694824L292.894135,278.654572L292.899292,278.299988L292.901306,278.261963L292.933716,277.897766L292.938202,277.862427L292.997925,277.488831L293.004211,277.456177L293.091217,277.072968L293.098816,277.043213L293.213135,276.650604L293.221863,276.623749L293.363464,276.221527L293.372864,276.196899L293.541992,275.785278L293.551392,275.763611L293.747589,275.34259L293.757416,275.322906L293.98114,274.892273L293.990753,274.874573L294.24176,274.43454L294.25116,274.418671L294.529449,273.968994L294.538818,273.954254L295.010864,273.247131L295.023163,273.229675L295.517334,272.55249L295.530518,272.535034L296.046387,271.887848L296.060944,271.870636L296.598969,271.253418L296.61438,271.23642L297.174316,270.649414L297.190674,270.633087L297.772522,270.075836L297.789978,270.059937L298.393768,269.532898L298.412109,269.51767L299.038055,269.020599L299.07251,268.9953L299.609161,268.637817L299.664856,268.605621L300.043396,268.417267L300.082092,268.38504L300.12146,268.358887L300.232635,268.291992L300.246277,268.283936L300.746063,268.003845L300.763947,267.994232L301.273987,267.734497L301.292358,267.725769L301.812256,267.48642L301.830597,267.478363L302.360535,267.259125L302.379333,267.25174L302.919586,267.052856L302.938385,267.046387L303.488495,266.867615L303.50705,266.86203L304.0672,266.70343L304.085999,266.698517L304.656464,266.560028L304.678162,266.555115L305.472321,266.398499L305.532288,266.390472L305.592896,266.389343L305.653076,266.395386L305.656006,266.396057L305.507446,266.070343L305.495605,266.042603L305.314819,265.5755L305.305664,265.549316L305.145477,265.057373L305.137878,265.031891L305.072998,264.791168L304.94101,264.745544L304.876831,264.718231L304.685547,264.621155L304.619568,264.581116L304.453339,264.462341L304.389343,264.408173L304.248199,264.267273L304.192719,264.201721L304.076843,264.038849L304.034332,263.967468L303.943726,263.782715L303.915314,263.712006L303.849762,263.50531L303.833679,263.439758L303.793182,263.211121L303.786469,263.153412L303.771912,262.917847L303.772827,262.842468L303.791382,262.626343L303.805939,262.540894L303.857147,262.344482L303.875946,262.286987L303.890259,262.253876L303.974365,262.076935L304.003448,262.023895L304.025391,261.992157L304.142151,261.834442L304.180847,261.787903L304.206818,261.76239L304.356689,261.62439L304.424713,261.571594L304.481964,261.534424L304.47818,261.520813L304.471893,261.4841L304.451324,261.459045L304.418884,261.407837L304.3927,261.353241L304.37326,261.295959L304.360504,261.236908L304.354919,261.176727L304.357147,261.110077L304.379944,260.875183L304.389343,260.815216L304.405701,260.75708L304.428955,260.701111L304.439453,260.682343L304.43924,260.681671L304.433411,260.621277L304.43454,260.560852L304.443054,260.500916L304.456238,260.452148L304.443939,260.437378L304.410828,260.386597L304.383972,260.332458L304.363861,260.275421L304.350433,260.21637L304.343933,260.154175L304.330292,259.826416L304.329834,259.800476L304.332977,259.451263L304.333649,259.42868L304.353333,259.058441L304.354919,259.038544L304.391144,258.647491L304.394287,258.621094L304.469666,258.102753L304.476166,258.066956L304.579742,257.592926L304.59024,257.552429L304.721558,257.123352L304.738342,257.077057L304.897614,256.692963L304.915527,256.654022L305.002533,256.485565L305.01709,256.459412L305.111023,256.301025L305.128479,256.273956L305.229614,256.125641L305.249054,256.098999L305.35733,255.960312L305.381287,255.931671L305.694244,255.585831L305.728241,255.551605L306.276337,255.050262L306.304291,255.02655L306.460876,254.902618L306.479248,254.888763L306.630463,254.779816L306.651489,254.765488L306.797577,254.670868L306.823975,254.654755L306.964905,254.575119L306.995117,254.559448L307.130676,254.494354L307.167358,254.478485L307.297791,254.427917L307.342072,254.412933L307.467346,254.377136L307.519714,254.365051L307.529755,254.363266L308.157257,253.929718L308.283203,253.835754L308.299774,253.823914L308.477386,253.702209L308.509827,253.681854L308.685883,253.57962L308.722565,253.56015L308.897064,253.476929L308.938904,253.459259L309.111389,253.39505L309.160156,253.379623L309.331055,253.334869L309.38385,253.323914L309.552979,253.298187L309.610016,253.292816L309.777588,253.286346L309.836182,253.287445L309.986969,253.298859L310.922729,253.330414L311.20575,253.255005L311.540161,253.131073L311.577515,253.118774L311.83255,253.045853L311.886932,253.033539L312.11554,252.9944L312.187805,252.987244L312.390045,252.981644L312.450439,252.983658L312.48468,252.987915L312.660065,253.015869L312.71933,253.028839L312.772583,253.04718L312.828064,253.069794L312.891602,253.100891L312.942596,253.130402L312.99292,253.163742L313.040131,253.203552L313.092255,253.253448L313.143921,253.311157L313.197845,253.381195L313.229156,253.426605L313.28421,253.516754L313.302551,253.549866L313.359131,253.660156L313.371674,253.686325L313.429626,253.816971L313.437897,253.836426L313.497375,253.986984L313.503418,254.003326L313.56427,254.174225L313.567413,254.182953L313.67926,254.515839L313.853302,255.002396L314.145691,255.016495L314.163361,255.017609L314.711456,255.063019L314.771423,255.071533L314.829803,255.087189L314.861328,255.098816L315.107635,255.198578L315.162445,255.224548L315.213226,255.256531L315.270508,255.29747L315.323517,255.341095L315.383484,255.397461L315.418579,255.433716L315.481232,255.505524L315.506958,255.53772L315.649902,255.731018L315.663788,255.750473L315.746338,255.873749L315.756409,255.889618L315.843201,256.030121L315.850586,256.042175L315.941833,256.199463L315.947876,256.210205L316.04364,256.384705L316.04834,256.393646L316.14856,256.585144L316.152344,256.592285L316.257263,256.800781L316.260406,256.807495L316.36377,257.020691L316.420807,257.130737L316.470032,257.206604L316.522156,257.270569L316.576508,257.324036L316.634216,257.368774L316.696411,257.405914L316.765747,257.437225L316.779419,257.441711L317.292145,257.411041L317.299744,257.403015L317.324127,257.358948L317.363281,257.224487L317.383636,257.16745L317.410492,257.113312L317.443604,257.062744L317.482513,257.016205L317.526611,256.974823L317.575378,256.938812L317.627716,256.908844L317.683655,256.885132L317.741577,256.868347L317.8013,256.85849L317.861938,256.855591L317.922119,256.860077L317.981628,256.87146L318.039337,256.889832L318.09436,256.9151L318.146057,256.946411L318.193695,256.983795L318.236633,257.026276L318.274231,257.0737L318.311127,257.135223L318.401062,257.311737L318.424103,257.363647L318.493225,257.547058L318.510681,257.602783L318.558563,257.793152L318.569305,257.849518L318.595917,258.046631L318.600403,258.124237L318.595703,258.383514L318.587646,258.465851L318.539551,258.730713L318.520752,258.803192L318.42926,259.073669L318.404419,259.134064L318.269745,259.410339L318.244019,259.457092L318.075806,259.726654L318.03418,259.783936L317.849182,260.005188L317.865051,260.02887L317.892578,260.082825L317.911804,260.133118L317.941345,260.225311L317.956329,260.283905L317.963928,260.3396L317.973785,260.459747L317.974457,260.534698L317.965271,260.676086L317.957672,260.737366L317.930389,260.882996L317.917175,260.937134L317.871765,261.087036L317.855225,261.133118L317.791901,261.287231L317.760803,261.350342L317.676941,261.494385L317.641357,261.547424L317.523682,261.701538L317.493469,261.737549L317.342712,261.901337L317.316528,261.927734L317.132202,262.100861L317.085663,262.139801L317.035095,262.172668L316.980743,262.199524L316.944946,262.212036L316.955475,262.415192L316.956146,262.437317L316.958832,262.780273L316.958374,262.802856L316.946075,263.140442L316.945862,263.145142L316.935791,263.367279L316.932861,263.404175L316.86441,263.981812L316.858612,264.019592L316.813171,264.252716L316.836243,264.250031L317.213196,264.22406L317.237122,264.222961L317.608032,264.214905L317.633087,264.214905L317.998169,264.224731L318.023682,264.226074L318.382507,264.253845L318.408905,264.256531L318.761688,264.302155L318.787842,264.306183L319.134613,264.369507L319.161224,264.375092L319.502167,264.456299L319.528992,264.46344L319.863678,264.562561L319.889832,264.571289L320.218689,264.688263L320.244415,264.69812L320.567017,264.832764L320.592072,264.843964L320.908813,264.996765L320.93277,265.009064L321.179291,265.144409L321.361847,264.852692L321.622009,264.433228L321.868317,264.032349L322.099854,263.651154L322.317963,263.287201L322.519958,262.945587L322.711487,262.616943L322.884613,262.314056L323.048157,262.022125L323.1922,261.758606L323.327789,261.503784L323.44635,261.27359L323.546783,261.070007L323.638977,260.873169L323.710754,260.709625L323.773407,260.554596L323.799377,260.5L323.831573,260.448792L323.869598,260.401581L323.912994,260.359314L323.96109,260.322601L324.013,260.291748L324.068237,260.267151L324.12619,260.249237L324.185699,260.238281L324.240509,260.234924L324.25415,260.195099L324.280334,260.140747L324.312775,260.089508L324.351013,260.042755L324.394653,260.000702L324.442749,259.96402L324.494873,259.93335L324.550354,259.908997L324.608276,259.891541L324.667786,259.880798L324.72821,259.877197L324.788605,259.880798L324.848083,259.891541L324.906036,259.90921L324.961517,259.933594L325.013641,259.964233L325.061737,260.000916L325.105133,260.043213L325.143402,260.089966L325.175842,260.141174L325.201996,260.19577L325.221466,260.253052L325.225708,260.273193L325.271362,260.281219L325.329285,260.298462L325.384766,260.322601L325.437134,260.353271L325.506042,260.408081L325.706696,260.598663L325.748077,260.642944L325.783875,260.691742L325.813843,260.744293L325.837097,260.800232L325.852325,260.853027L325.881622,260.856598L325.94046,260.870911L325.99707,260.892181L326.050751,260.919922L326.101074,260.953705L326.141113,260.987915L326.364624,261.198669L326.406219,261.242737L326.439331,261.287476L326.620087,260.936462L326.659668,260.871826L326.730835,260.772949L326.760132,260.736023L326.829041,260.65683L326.874451,260.610748L326.940887,260.551453L326.988312,260.513885L327.015167,260.496429L327.079346,260.457275L327.132813,260.428894L327.19165,260.406281L327.253174,260.38681L327.311798,260.37207L327.371765,260.364227L327.411346,260.362885L327.470642,260.363342L327.531036,260.367371L327.590546,260.37854L327.639526,260.393311L327.69635,260.413666L327.752045,260.437378L327.829224,260.484802L327.883362,260.525085L327.929688,260.563995L327.971069,260.608276L328.022278,260.681885L328.044678,260.721039L328.071503,260.775391L328.098358,260.856812L328.114227,260.923706L328.125427,260.989258L328.135254,261.084351L328.137726,261.12326L328.141083,261.246307L328.141083,261.269348L328.138397,261.420349L328.137939,261.436676L328.128998,261.615417L328.128326,261.626831L328.113342,261.83374L328.112427,261.843384L328.090973,262.078278L328.090302,262.084961L328.062775,262.347839L328.062317,262.353668L328.028564,262.64447L328.027893,262.648956L327.988068,262.967743L327.98761,262.971771L327.941528,263.318298L327.941101,263.321625L327.888733,263.69635L327.888306,263.698822L327.829895,264.101501L327.829468,264.104187L327.764801,264.53479L327.764587,264.537048L327.693665,264.995636L327.69278,265.000793L327.38205,266.884399L327.381134,266.889557L327.067505,268.676758L327.154297,268.697784L327.21225,268.715698L327.267517,268.740051L327.299255,268.757965L327.389648,268.812988L327.439514,268.847443L327.484711,268.887482L327.525452,268.93335L327.58963,269.014771L327.624329,269.064453L327.65271,269.117676L327.683167,269.202698L327.699921,269.26712L327.711792,269.32663L327.716248,269.381897L327.719177,269.485474L327.717834,269.53894L327.706848,269.681885L327.703491,269.712524L327.678467,269.894623L327.675781,269.912964L327.637085,270.13443L327.634399,270.147858L327.581604,270.408691L327.579803,270.417877L327.513367,270.717865L327.511566,270.72525L327.43103,271.064606L327.429688,271.07019L327.33551,271.44873L327.334381,271.45343L327.226105,271.871307L327.22522,271.874878L327.103302,272.331909L327.102173,272.335266L326.966156,272.831696L326.965485,272.834381L326.815613,273.369934L326.814941,273.372162L326.651184,273.947083L326.650757,273.948853L326.473328,274.563171L326.472656,274.565186L326.319641,275.087555L326.330841,275.130951L326.331055,275.131165L326.361481,275.183533L326.385437,275.239227L326.402649,275.29718L326.410034,275.335419L326.422546,275.416412L326.428162,275.476563L326.426819,275.537201L326.413818,275.616638L326.391693,275.707001L326.373779,275.764709L326.339783,275.837646L326.283203,275.937408L326.250305,275.98819L326.230621,276.013245L326.13913,276.12265L326.09729,276.167175L325.971344,276.285736L325.939575,276.313019L325.779175,276.440979L325.754578,276.459534L325.559265,276.596924L325.536896,276.611664L325.292175,276.76535L325.266876,276.780334L325.007599,276.923065L324.982788,276.935822L324.708496,277.06781L324.684357,277.078796L324.395538,277.199799L324.372498,277.20874L324.068909,277.319031L324.04657,277.32666L323.728455,277.425964L323.707855,277.431793L323.375214,277.520599L323.355072,277.525513L323.00766,277.603394L322.947937,277.61322L322.887512,277.615906L322.827118,277.611206L322.767853,277.599579L322.710358,277.580994L322.655334,277.555725L322.603638,277.52417L322.556,277.486816L322.513245,277.444092L322.475677,277.396667L322.444153,277.344971L322.418854,277.289948L322.400299,277.232452L322.388428,277.172974L322.384644,277.134033L322.377686,277.016815L322.376801,276.989288L322.376587,276.959991L321.076599,283.253326L321.74527,280.088989L321.745056,280.088989L321.857574,279.543365L321.859131,279.53598L322.160919,278.174927L322.17749,278.116547L322.200958,278.060852L322.230713,278.008057L322.26651,277.95929L322.307678,277.914978L322.353973,277.875854L322.404327,277.842529L322.458466,277.81543L322.515259,277.794861L322.574341,277.781006L322.634521,277.774292L322.7117,277.776062L322.89624,277.794434L323.057983,277.798462L323.226685,277.789703L323.394226,277.768677L323.568268,277.734253L323.741638,277.687256L323.923279,277.625305L324.094879,277.55481L324.730652,277.211212L324.785461,277.18573L324.842957,277.166687L324.902222,277.154846L324.962646,277.149902L325.023041,277.152161L325.082764,277.161316L325.141174,277.177673L325.197083,277.200928L325.249878,277.230438L325.298889,277.266022L325.343384,277.306946L325.382538,277.353027L325.416077,277.403381L325.443604,277.457275L325.464417,277.514099L325.478271,277.573181L325.485229,277.633118L325.484985,277.693756L325.47583,277.764221L324.689697,281.614441L324.714539,281.617126L324.773376,281.630768L324.830444,281.651367L324.884338,281.678436L324.934906,281.711761L324.98703,281.7565L326.495941,283.2388L326.508453,283.251526L327.323425,284.109924L327.330811,284.117981L328.099701,284.963348L328.107513,284.97229L328.830322,285.804932L328.838593,285.814331L329.468781,286.577393L329.628296,286.483887L329.636108,286.479431L329.994049,286.277649L330.002563,286.272949L330.353088,286.083923L330.361816,286.079437L330.704987,285.902924L330.714844,285.89801L331.050629,285.734253L331.060913,285.72934L331.389526,285.578094L331.400513,285.573181L331.721527,285.434479L331.734283,285.429108L332.192871,285.245453L332.199371,285.242981L332.33136,285.1922L332.338745,285.189301L332.458191,285.145447L332.46759,285.14209L332.574524,285.105194L332.593536,285.099152L332.769806,285.045898L332.817261,285.034058L332.94342,285.008759L332.995087,285.00116L333.113892,284.989746L333.185699,284.987732L333.290833,284.992432L333.380096,285.004517L333.471802,285.025085L333.529968,285.041656L333.576508,285.060669L333.654572,285.097137L333.707611,285.125977L333.76239,285.165131L333.826843,285.217926L333.871124,285.258881L333.913849,285.309448L333.96463,285.378113L333.997742,285.428894L334.022125,285.477203L334.059265,285.562012L334.080078,285.618591L334.088806,285.651245L334.112305,285.752136L334.123016,285.815674L334.157715,286.151245L334.159943,286.224396L334.146301,286.56308L334.138458,286.633545L334.076721,286.974945L334.060608,287.039795L333.950562,287.384094L333.928833,287.44046L333.770691,287.787445L333.745636,287.835327L333.539154,288.185181L333.513184,288.224792L333.258392,288.577576L333.233124,288.610016L332.929993,288.965698L332.907623,288.990082L332.609436,289.297241L332.594208,289.312225L332.28595,289.604401L332.269379,289.619598L331.950806,289.896118L331.934052,289.909973L331.605194,290.171509L331.587067,290.185364L331.248169,290.431213L331.229797,290.44397L330.880829,290.674622L330.861816,290.686462L330.502533,290.901917L330.482849,290.913086L330.113281,291.113098L330.093384,291.123352L329.925812,291.204803L329.901001,291.216003L329.744385,291.281982L329.71463,291.29361L329.569458,291.344391L329.530762,291.356018L329.396545,291.391357L329.33725,291.403442L329.284668,291.407928L328.658295,291.430511L328.61377,291.430298L328.429657,291.420898L328.323181,291.427612L328.278442,291.437897L328.276184,291.439026L328.256744,291.455353L328.228546,291.490479L328.199463,291.54303L328.173737,291.61441L328.068604,292.135193L328.059875,292.171448L328.019379,292.31662L327.999695,292.373901L327.985596,292.404999L327.925201,292.527802L327.895233,292.580383L327.864807,292.622681L327.784271,292.7229L327.743774,292.767639L327.699463,292.806335L327.66391,292.834045L327.673309,292.885315L327.676453,292.975464L327.649139,293.485718L327.645111,293.527771L327.574646,294.043427L327.567505,294.083252L327.453613,294.604706L327.444,294.641846L327.286743,295.169128L327.276672,295.199768L327.133942,295.587463L327.125,295.609833L326.976898,295.960388L326.965057,295.986572L326.811584,296.299316L326.7948,296.330383L326.635529,296.605347L326.602203,296.655884L326.563263,296.701965L326.518982,296.743347L326.47937,296.772888L325.786316,297.241333L325.734192,297.272217L325.678955,297.296814L325.621002,297.314484L325.561523,297.325439L325.501099,297.329254L325.440704,297.325897L325.429291,297.323883L325.244507,297.625427L325.235107,297.640198L325.032654,297.946686L325.023041,297.960571L324.803589,298.270142L324.794403,298.282684L324.558167,298.595428L324.549438,298.606628L324.296661,298.922485L324.287933,298.933228L324.018127,299.252258L324.009644,299.261841L323.723083,299.583984L323.715027,299.592712L323.411896,299.917999L323.404053,299.926514L323.083923,300.254883L323.076569,300.262268L322.739868,300.593811L322.621765,300.713043L322.576569,300.75354L322.52713,300.788208L322.473877,300.817078L322.417511,300.839233L322.359131,300.854675L322.343475,300.856873L322.337219,300.884644L322.317078,300.941681L322.290466,300.996033L322.257324,301.0466L322.218628,301.09314L322.183075,301.127563L321.956451,301.326477L321.940796,301.339661L321.71933,301.51886L321.701202,301.532959L321.485107,301.692444L321.463623,301.707428L321.252899,301.846802L321.228058,301.862244L321.022461,301.981934L320.993408,301.997559L320.792969,302.097595L320.758728,302.113007L320.56366,302.193115L320.523621,302.207642L320.334137,302.267578L320.275513,302.282349L320.192505,302.291321L319.734131,302.302734L319.673737,302.30072L319.61377,302.291534L319.555634,302.275208L319.513123,302.258667L319.087402,302.069153L319.033722,302.041443L318.983612,302.007446L318.941315,301.971191L318.923431,301.953979L318.905304,301.961548L318.847137,301.977905L318.787415,301.987305L318.726776,301.989532L318.666626,301.984833L318.641541,301.979675L318.619202,302.006775L318.575317,302.048584L318.524109,302.086395L317.854095,302.521729L317.852966,302.5224L317.228149,302.926208L317.227264,302.92688L316.648102,303.299133L316.646545,303.300232L316.112549,303.64093L316.110748,303.642059L315.622162,303.950775L315.620148,303.952118L315.177002,304.229309L315.17453,304.230652L314.776794,304.476257L314.773193,304.478516L314.420868,304.692139L314.367401,304.720551L314.310791,304.742249L314.252197,304.757233L314.19223,304.765076L314.131592,304.765747L314.071411,304.75946L314.01236,304.746033L313.955536,304.725708L313.901184,304.698853L313.850647,304.665741L313.804108,304.627045L313.762695,304.582977L313.726685,304.534424L313.720215,304.523254L313.643036,304.637115L313.611694,304.678711L313.430511,304.894836L313.38913,304.93866L313.198059,305.11853L313.15155,305.157227L313.100983,305.190338L313.046631,305.217163L312.989563,305.237305L312.930725,305.250732L312.870575,305.257019L312.809937,305.256348L312.75,305.248291L312.691376,305.233276L312.659393,305.222107L312.563416,305.184296L312.515533,305.162354L312.405029,305.105103L312.372375,305.086761L312.247986,305.010254L312.224487,304.994812L312.095642,304.905334L311.887817,304.772888L311.733887,304.700623L311.626526,304.671326L311.549347,304.668213L311.064331,304.748291L310.992554,304.755005L310.972839,304.755432L310.910217,304.752991L310.82074,304.744019L310.798798,304.741364L310.537964,304.703766L310.527679,304.702209L309.944458,304.606018L309.938873,304.605103L308.27002,304.311157L308.266663,304.310486L303.977722,303.525269L303.976166,303.525055L292.859467,301.457092L292.85498,301.456207L292.744019,301.434509L292.675781,301.416168L292.583405,301.384399L292.527466,301.361572L292.496368,301.345245L292.422546,301.303192L292.371765,301.270081L292.32547,301.231384L292.269989,301.17926L292.228394,301.135406L292.179626,301.066284L292.142914,301.004089L292.115173,300.950195L292.087677,300.869873L292.069336,300.797607L292.057922,300.738342L292.053436,300.670319L292.05365,300.587769L292.057465,300.527374L292.063965,300.487122L292.082733,300.394714L292.108032,300.309479L292.142487,300.221802L292.17804,300.148865L292.221222,300.075714L292.255005,300.025391L292.276031,299.99942L292.327484,299.940369L292.369995,299.897186L292.409119,299.865204L292.469299,299.820679L292.519867,299.787567L292.565735,299.764313L292.634186,299.733887L292.69101,299.712646L292.737305,299.700775L292.81427,299.684662L292.867737,299.676605L292.86618,299.661407L292.866852,299.601013L292.874878,299.541046L292.889648,299.482422L292.911591,299.425842L292.939758,299.372375L292.974213,299.322479L292.997711,299.294525L293.511566,298.726318L293.554749,298.683777L293.6026,298.646881L293.65451,298.615784L293.709778,298.590942L293.767487,298.572845L293.822296,298.562317L293.846893,298.55896L293.907074,298.55426L293.948914,298.555389L293.991425,298.558075L293.97821,298.534119L293.95517,298.47821L293.938843,298.420044L293.929688,298.360107L293.927673,298.299683L293.932587,298.239288L293.944885,298.179993L293.963898,298.122498L293.987396,298.07196L294.277771,297.525208L294.309082,297.473541L294.346436,297.426117L294.38916,297.383179L294.436829,297.345581L294.488281,297.314026L294.543304,297.288757L294.6008,297.269958L294.611542,297.267731L294.575745,297.228821L294.564331,297.214478L294.529449,297.165039L294.500793,297.111816L294.478424,297.055664L294.462982,296.99704L294.454498,296.937073L294.453613,296.865051L294.486267,296.318298L294.493408,296.258118L294.507751,296.19928L294.528778,296.142456L294.556274,296.088806L294.590057,296.038452L294.629669,295.992615L294.67038,295.954773L294.680878,295.946045L294.729645,295.910034L294.765686,295.889709L294.736603,295.876953L294.699463,295.858826L294.666351,295.840942L294.614899,295.808929L294.558075,295.762634L294.54599,295.751221L294.504608,295.707153L294.468597,295.658386L294.438599,295.605804L294.415131,295.55011L294.395203,295.476929L294.356293,295.277618L294.31424,295.098663L294.272156,294.950989L294.223389,294.810516L294.206848,294.75238L294.197449,294.692383L294.195221,294.632019L294.199921,294.571594L294.212006,294.512329L294.230774,294.454834L294.256287,294.400024L294.288055,294.348572L294.325623,294.301147L294.368591,294.258423L294.416229,294.221283L294.46814,294.189941L294.523163,294.164917L294.526306,294.164001L294.243317,294.090179L294.185608,294.071411L294.130798,294.046112L294.079102,294.014343L294.031677,293.97699L293.988953,293.934021L293.951599,293.886383L293.920044,293.834717L293.894989,293.779663L293.876434,293.721954L293.864807,293.662659L293.860321,293.602295L293.863007,293.54187L293.872864,293.482147L293.889648,293.423981L293.913116,293.368286L293.943115,293.315704L293.978882,293.266937L294.020508,293.22287L294.066803,293.18396L294.117371,293.150604L294.171509,293.123779L294.228546,293.10318L294.287384,293.089783L294.345337,293.083252L294.510193,293.074554L294.515564,293.073669L294.582001,293.058899L294.710419,293.026917L295.11084,292.919983L295.693176,292.757996L296.905884,292.412811L296.905884,292.412598L299.159515,291.760254L300.348969,291.4133L300.094604,291.084442zM303.22226,279.055664L303.238159,279.104004L303.242188,279.123901L303.241272,279.044708L303.22226,279.055664zM302.977783,285.288544L302.933594,285.309998L302.944946,285.745636L302.989136,285.7229L302.977783,285.288544M303.154053,268.630005L303.142853,268.765564L303.12204,269.070709L303.131683,269.033997L303.150696,268.976746L303.176178,268.921722L303.208191,268.870239L303.245758,268.823059L303.288727,268.780334L303.336578,268.743195L303.388275,268.711884L303.443512,268.687042L303.501221,268.668701L303.560516,268.657288L303.620911,268.653046L303.66095,268.654175L304.016663,268.677887L303.609741,268.591064L303.161194,268.558655L303.154053,268.630005zM323.381256,286.192841L323.094452,286.377197L323.057983,286.398438L322.71817,286.579193L322.724213,286.581879L322.77655,286.612305L322.82489,286.648773L322.86853,286.690613L322.876343,286.700226L322.94928,286.686584L322.971863,286.671814L323.0401,286.613647L323.135834,286.516327L323.247009,286.387939L323.371643,286.229309L323.415924,286.168243L323.381256,286.192841zM320.088928,288.035095L320.073059,288.093475L320.05069,288.149628L320.021606,288.202881L319.986481,288.252075L319.945984,288.297058L319.90036,288.336853L319.854736,288.367737L320.003265,288.588745L320.263,287.519897L320.28067,287.462158L320.305267,287.406677L320.335907,287.354553L320.37262,287.306458L320.414886,287.263062L320.461853,287.225037L320.513092,287.192596L320.567444,287.166656L320.557159,287.159943L320.51062,287.121033L320.469025,287.077179L320.433014,287.028381L320.403015,286.976044L320.379333,286.920349L320.362305,286.862183L320.352478,286.80246L320.350677,286.767548L320.088928,288.035095zM303.088257,272.707092L303.085144,272.767487L303.07486,272.827209L303.057617,272.885162L303.033691,272.940613L303.003479,272.993195L302.967255,273.041504L302.925415,273.085358L302.878876,273.12384L302.827881,273.156738L302.773499,273.18335L302.716461,273.203247L302.660553,273.21579L302.658081,273.301697L302.657867,273.308838L302.647125,273.56543L303.125854,273.516663L303.103943,272.954285L303.105042,272.89386L303.113556,272.833923L303.128754,272.775299L303.150909,272.718933L303.177094,272.67038L303.150909,272.647125L303.11087,272.601715L303.087158,272.567261L303.088257,272.707092zM323.532928,270.859467L323.493774,270.905579L323.449463,270.94696L323.400696,270.982513L323.3479,271.012268L323.282379,271.038879L323.258423,271.046722L323.199829,271.062164L323.172974,271.065948L323.216156,271.096832L323.249023,271.125916L323.260681,271.137085L323.301819,271.18161L323.337402,271.230591L323.366943,271.283386L323.389984,271.339325L323.406311,271.397705L323.413239,271.437073L323.415253,271.451843L323.419495,271.540436L323.418396,271.569763L323.415253,271.609558L323.403381,271.711365L323.400696,271.731934L323.359558,271.992554L323.357544,272.003723L323.258423,272.55249L323.257324,272.558746L323.237396,272.661438L323.313019,272.386047L323.314148,272.382019L323.435181,271.954956L323.436737,271.949585L323.547028,271.575989L323.549042,271.569305L323.648346,271.248962L323.651489,271.239319L323.740082,270.972443L323.744781,270.958801L323.77005,270.889008L323.722412,270.891907L323.661987,270.888336L323.602478,270.877594L323.535828,270.855011L323.532928,270.859467zM326.050751,269.819L326.012726,269.866211L325.969543,269.908508L325.921692,269.945618L325.869781,269.976501L325.814514,270.001343L325.756592,270.019226L325.697083,270.030396L325.636902,270.034424L325.576263,270.031311L325.516754,270.021027L325.458832,270.003784L325.403137,269.979858L325.396179,269.97583L325.372681,269.9776L325.312073,269.974731L325.252563,269.964844L325.194397,269.94809L325.168457,269.937134L325.150787,269.943848L325.092163,269.958618L325.031982,269.966217L325.026855,269.966217L325.027069,270.007385L325.020355,270.067535L325.00647,270.126373L324.985687,270.183228L324.958374,270.237122L324.924835,270.287659L324.901794,270.316071L324.834686,270.393036L324.826172,270.401764L324.860413,270.412964L325.004242,270.43869L325.175385,270.447845L325.320801,270.440704L325.445862,270.420776L325.550323,270.390137L325.62323,270.357697L326.239563,269.915649L326.167969,269.85791L326.066406,269.793945L326.050751,269.819zM317.463531,260.501617C317.463531,260.322327,317.410522,260.218781,317.306976,260.188477L317.106201,260.222565C316.896606,260.333679,316.7034,260.382935,316.524078,260.367767C316.644043,260.850128,316.729919,261.304688,316.781677,261.727722C317.049377,261.490326,317.228668,261.278198,317.318329,261.09256C317.414307,260.884216,317.463531,260.687225,317.463531,260.501617zM304.974579,268.595551L304.933624,268.640289L304.888,268.679871L304.837891,268.713898L304.783966,268.741638L304.762268,268.749695L304.915527,268.767822L304.942352,268.771606L306.306091,269.006287L306.365143,269.020142L306.421967,269.040741L306.476105,269.068024L306.526428,269.101349L306.572754,269.140503L306.613892,269.184814L306.649689,269.233582L306.679443,269.286377L306.702728,269.342072L306.719269,269.400238L306.728882,269.460175L306.729797,269.484344L307.00116,269.234253L307.047913,269.195984L307.099121,269.16333L307.153503,269.137146L307.210754,269.117462L307.27005,269.104706L307.330231,269.099121L307.390625,269.100464L307.421936,269.104034L307.648102,269.136932L308.516541,269.223938L308.520782,269.224182L310.991882,269.491943L310.992554,269.492157L313.034088,269.716339L305.155334,268.647217L305.096039,268.63559L305.03833,268.617035L304.983521,268.591736L304.979492,268.589294L304.974579,268.595551zM312.207489,300.035217L312.186249,300.092041L312.158508,300.145721L312.124512,300.195831L312.0849,300.241699L312.040161,300.28241L312.028534,300.29071L312.052917,300.33252L312.076843,300.388L312.094299,300.446167L312.104584,300.505676L312.107941,300.563599L312.107941,301.25354L312.192719,301.877014L312.197418,301.937408L312.194733,301.997803L312.18512,302.057556L312.168335,302.115906L312.145081,302.171631L312.115326,302.224182L312.079315,302.272949L312.038147,302.317261L311.994751,302.354187L311.981781,302.364014L311.94104,302.391296L312.000793,302.40921L312.025848,302.41748L312.074615,302.434937L312.13031,302.458649L312.167236,302.479004L312.184235,302.489288L312.234131,302.523499L312.279541,302.563568L312.320007,302.608765L312.354675,302.658203L312.383331,302.711426L312.410614,302.783936L312.534332,303.208282L312.541931,303.24115L312.666748,302.835388L312.728516,302.585022L312.782196,302.340759L312.825134,302.113007L312.856262,301.909424L312.877502,301.722412L312.88913,301.547028L312.891144,301.395813L312.885101,301.27301L312.844177,301.004089L312.766998,300.703186L312.650452,300.366302L312.494293,299.997406L312.322693,299.661865L312.207489,300.035217zM319.318451,300.507935C319.259125,300.672089,319.214905,300.861481,319.184601,301.077423C319.146729,301.366577,319.184601,301.540833,319.295746,301.60144L319.721252,301.790833L320.179626,301.77948C320.678406,301.64563,321.233978,301.299652,321.845123,300.742798L319.620239,299.716217L319.318451,300.507935zM303.503052,270.402496C303.458862,271.153809,303.462677,271.781372,303.514435,272.286469C303.842743,271.766235,304.349091,271.182861,305.034729,270.536346C305.525909,270.067871,305.921143,269.725677,306.219147,269.511017L304.855438,269.276154L304.28595,269.209229L303.626801,269.165039C303.573792,269.327942,303.533386,269.740845,303.503052,270.402496zM327.153564,261.972687L325.990601,268.897339L326.549988,268.663757C326.773468,267.428833,326.985626,266.180023,327.187653,264.917297C327.581604,262.396942,327.712921,261.069824,327.57782,260.936005C327.436401,260.802155,327.268463,260.880432,327.075256,261.170868L326.829041,261.649414L327.153564,261.972687zM320.391754,289.157471C320.674622,289.625946,320.957458,290.13858,321.241577,290.695435L321.52063,290.45047C321.990356,289.982025,322.258026,289.49588,322.324951,288.989532L322.49292,287.038635L321.912048,287.339172C321.457489,287.562683,321.073608,287.663696,320.760468,287.640961L320.391754,289.157471zM321.52063,265.563812C322.019379,265.801208,322.597717,266.292389,323.253052,267.034851L324.091492,268.082916C323.583893,267.027283,323.457611,265.489319,323.711426,263.467712C323.837677,262.456299,324.016998,261.549652,324.248077,260.746582C323.934906,261.564819,323.025757,263.169708,321.52063,265.563812zM319.486389,299.159363C320.044525,298.118896,320.783203,297.040527,321.698669,295.925568L322.35907,295.279053C321.345093,295.881378,320.499084,296.4534,319.821014,296.996338C318.949738,297.679474,318.245148,298.392914,317.709778,299.136627C317.694611,300.214996,318.036804,300.995331,318.73761,301.477692C318.685852,301.144348,318.752777,300.739014,318.938385,300.26297L319.486389,299.159363zM324.817535,293.873688C325.384491,293.770142,325.804993,293.877472,326.080261,294.19693C326.341644,294.502502,326.315125,295.040405,326.001953,295.814453C325.88327,296.111206,325.715332,296.445801,325.49942,296.817047L326.192627,296.348572C326.408569,296.00766,326.609314,295.564453,326.796204,295.022736C327.034851,294.315613,327.157349,293.624939,327.164917,292.94812L326.292389,293.026398C325.935028,292.967041,325.637054,292.810486,325.398376,292.557922L325.096619,293.372375L324.940033,293.561798L324.716522,293.573151C323.696259,292.628662,322.672211,291.937958,321.643097,291.498535L322.437347,293.227173L322.962646,294.520172L323.006836,294.743683L323.532104,294.386322C323.95639,294.126221,324.385712,293.95575,324.817535,293.873688zM302.977783,285.288544L302.899506,283.393219C300.925903,283.83139,299.491455,284.667297,298.597473,285.90094L298.71994,286.88208L298.754028,286.983093C298.932068,287.614441,299.136627,288.220551,299.367706,288.80011C299.711151,288.027344,300.28064,287.447754,301.078674,287.061371C301.667084,286.770966,302.295929,286.621948,302.966431,286.615631L302.944946,285.745636L302.933594,285.309998L302.977783,285.288544zM325.153412,260.779419L324.873108,262.664642L324.727905,260.389252C324.706421,261.624176,324.519562,262.947479,324.169769,264.359192C323.990479,265.043579,323.975311,265.908539,324.124329,266.957825C324.20639,267.5513,324.326355,268.142242,324.482941,268.730682L324.57132,269.064026L324.582672,269.075409L324.727905,269.476929L324.716522,269.064026L324.695068,268.730682L324.66098,268.262207L324.605408,267.046234L324.79483,268.250854L324.861755,268.730682L324.918549,269.064026L324.996857,269.455475C325.010742,269.455475,325.029694,269.325409,325.052399,269.064026L325.075134,268.730682L325.107971,268.396057C325.159729,267.688934,325.197632,267.336639,325.220337,267.336639L325.287262,268.406158L325.298645,268.730682L325.320099,269.064026L325.36557,269.465576L325.421112,269.064026L325.465302,268.730682L325.510773,268.417511L325.655975,267.380829L325.644623,268.45163L325.63324,268.730682L325.621887,269.064026L325.63324,269.5224L325.700165,269.064026L325.745636,268.730682L326.750763,261.93985L326.404755,261.917114L326.080261,263.244232L326.013336,261.571136L325.789825,261.36026L325.488037,262.753021L325.354187,260.970093L325.153412,260.779419zM301.491577,279.769257L301.279449,279.813446L301.245361,279.970032C300.716278,280.802155,300.135437,281.486542,299.502808,282.02066C298.935852,282.504272,298.362579,282.827515,297.780487,282.991669L298.597473,285.443848C299.267944,284.292267,300.698608,283.527069,302.889404,283.147003L302.74292,279.233856C302.25174,279.48642,301.835022,279.664459,301.491577,279.769257zM292.584442,300.496582C292.509949,300.756683,292.632446,300.909485,292.953156,300.953674L302.005493,302.638123C307.869507,303.730347,310.862122,304.265747,310.980804,304.243011L311.517456,304.154633C311.756104,304.131897,312.042755,304.239227,312.37738,304.477875C312.571838,304.619293,312.728394,304.707703,312.847107,304.745575C313.108459,304.529663,313.343323,304.217773,313.551697,303.808655C313.80423,303.340179,313.953217,302.85025,313.998688,302.336334C314.102234,301.184753,314.025208,300.318542,313.763824,299.738953L313.517578,299.14801C313.458252,298.969971,313.133728,298.916931,312.545319,298.991425L312.422821,299.002777L312.600861,299.081085L312.959473,299.783142C313.212006,300.333679,313.357239,300.813507,313.395111,301.221375C313.431732,301.64563,313.353424,302.229004,313.160248,302.972748L312.858459,303.953857C312.910217,304.109161,312.873596,304.225342,312.746063,304.299835L312.37738,304.2771L311.819244,303.908386C311.557861,303.775818,311.357086,303.734161,311.215668,303.785919C311.02121,303.867981,308.079102,303.321228,302.385559,302.146912L293.098358,300.196045C292.836975,300.144287,292.665253,300.244019,292.584442,300.496582zM324.370544,270.759857C324.20639,271.115936,323.927338,272.041504,323.532104,273.535278C323.05481,275.327057,322.842682,276.51651,322.895721,277.103668C323.841461,276.910492,324.631927,276.602386,325.264557,276.178101C325.831512,275.799316,326.028473,275.520233,325.85675,275.342194L325.789825,275.085876L325.789825,275.074524C326.847961,271.48465,327.313904,269.570374,327.187653,269.331726C327.119446,269.205444,326.981812,269.149902,326.773468,269.165039C326.609314,269.180206,326.438873,269.22818,326.259552,269.310272C326.870697,269.658752,326.981812,269.985809,326.594177,270.291382L325.879486,270.804047C325.686279,270.907593,325.451416,270.960602,325.174896,270.960602C324.855438,270.960602,324.586456,270.893677,324.370544,270.759857zM319.889191,299.270477L322.258026,300.352631L322.380524,300.228882C324.221558,298.45224,325.346619,296.809479,325.756989,295.300537C325.88327,294.818176,325.738068,294.520172,325.320099,294.409058C324.970337,294.311829,324.567535,294.3573,324.112946,294.542908C323.398254,294.839661,322.686096,295.382599,321.978973,296.170532C320.995331,297.375153,320.286957,298.400482,319.855103,299.247742L319.889191,299.270477zM324.315002,278.017883C323.748047,278.270416,323.197479,278.360077,322.660858,278.285583L322.35907,279.646759L322.246674,280.192261L320.861481,286.74823C321.643097,286.518402,322.295929,286.250732,322.817413,285.946411C323.652069,285.4552,323.931122,284.965302,323.654602,284.474091L323.621765,284.284698L324.974121,277.661804L324.315002,278.017883zM323.297241,268.730682C323.535889,268.841797,323.73288,268.952911,323.889465,269.064026L324.213959,269.365814L324.057404,269.064026L323.934906,268.730682C323.881866,268.574097,323.730347,268.313995,323.476563,267.949066C323.104065,267.407349,322.672211,266.919952,322.179749,266.48938C320.667023,265.150909,318.89798,264.575104,316.871338,264.760742C317.056946,265.087769,317.098633,265.336517,316.993805,265.50824C316.934479,265.596649,316.743805,265.738068,316.424347,265.931244C315.679352,266.369415,315.272766,267.087891,315.205841,268.082916L318.815918,267.927582C320.321045,267.986938,321.367828,268.098053,321.956268,268.262207C322.49292,268.409943,322.939911,268.566528,323.297241,268.730682zM322.783325,270.312836C322.425995,270.119659,321.889343,269.956757,321.17337,269.822906C321.814819,269.771149,322.425995,269.851959,323.006836,270.067871L323.722778,270.379761L323.82254,270.312836C323.860413,270.291382,323.654602,270.157532,323.207581,269.912567C322.739136,269.658752,322.355255,269.484497,322.057281,269.38855C322.511841,269.33551,322.991669,269.447906,323.499268,269.721893L324.135681,270.134796L324.448822,270.056519L324.515747,269.979492L324.169769,269.700439C323.864197,269.461792,323.524536,269.250916,323.152039,269.064026C322.899506,268.937775,322.630554,268.82663,322.347687,268.730682C321.215057,268.343018,319.84375,268.180145,318.235046,268.239471L314.512604,268.495819L313.741089,268.484436L313.517578,268.473083C311.588165,268.392273,309.248383,267.822784,306.499481,266.767181L306.264618,267.013397L307.481842,267.459137L305.984283,267.325287L305.884521,267.436401L307.29245,267.726837L305.682495,267.659912L305.224121,268.13974L323.052277,270.559082C323.207581,270.574219,323.119202,270.492157,322.783325,270.312836zM328.226837,288.187714C327.861938,288.522339,327.544983,288.849365,327.276031,289.168823L326.885864,289.704224C326.408569,290.439117,325.990601,291.209351,325.63324,292.0112C325.849182,292.331909,326.200195,292.517517,326.683838,292.569305C327.190186,292.628662,327.485657,292.450623,327.566467,292.033905L327.678833,291.477051C327.73819,291.268707,327.842987,291.112152,327.991974,291.008606C328.118256,290.918945,328.334167,290.889893,328.639771,290.918945L329.266052,290.89621C329.437775,290.859589,329.63855,290.781311,329.869629,290.662628C330.868439,290.149963,331.758636,289.473145,332.540253,288.633453C333.412781,287.681366,333.770142,286.759583,333.613556,285.868134C333.569366,285.577698,333.378693,285.459015,333.044067,285.510773C332.908966,285.52594,332.641266,285.61557,332.238464,285.778473C331.411407,286.097931,330.506042,286.551239,329.5224,287.139679L328.226837,288.187714zM299.747772,275.409119L299.726318,276.635223C299.732635,277.088531,299.774292,277.482483,299.848785,277.817108C299.975067,278.382813,300.318512,278.910614,300.876648,279.400543L301.36908,279.333618C301.867859,279.1922,302.479004,278.90683,303.201294,278.474976L304.475342,277.673157C304.706421,277.539307,304.833954,277.360016,304.855438,277.137787C304.870575,277.011505,304.851624,276.899109,304.799866,276.803162L304.77713,276.791779L304.106628,277.036743C303.682373,277.193329,303.361633,277.271606,303.145721,277.271606L302.855286,277.204681L304.129364,276.713501C305.082703,276.342255,305.541077,275.910431,305.504456,275.420502L305.448914,275.286652L305.403442,275.231079L305.39209,275.219727L304.386963,275.487427C303.737946,275.657867,303.275787,275.743744,303.000519,275.743744C302.836365,275.743744,302.729034,275.717224,302.675995,275.665466C302.654541,275.636414,303.01944,275.494995,303.772034,275.242462C304.532166,274.988647,305.057465,274.833344,305.34787,274.773987C305.756989,274.684326,306.037323,274.602264,306.18631,274.527771C306.364349,274.439362,306.409821,274.342133,306.32016,274.238586C306.238098,274.148956,305.995636,274.078247,305.594116,274.026459L304.610474,273.959534L303.939972,273.948181L302.196167,274.126221L302.184814,274.126221C302.133026,274.126221,302.117889,273.900208,302.139343,273.446899C302.162079,272.993561,302.150696,272.766296,302.106506,272.766296C301.629211,272.915283,301.126648,273.345856,300.597595,274.059296L299.747772,275.409119zM312.579407,253.521378C312.363464,253.462036,312.075592,253.491074,311.718231,253.611038L311.360901,253.743622L310.980804,253.844635L309.963074,253.810547C309.523651,253.75119,309.065277,253.896408,308.589233,254.24617L308.455414,254.345932L307.728088,254.84848C307.414917,254.885101,307.046234,255.078293,306.621948,255.42807L306.073944,255.929367L305.760773,256.27533C305.611786,256.4534,305.48172,256.657928,305.370605,256.889008C305.139526,257.371368,304.982971,257.973694,304.900879,258.694702C304.841522,259.230072,304.826385,259.7099,304.855438,260.132904C304.99054,259.857635,305.161011,259.616455,305.370605,259.408112L306.129486,258.828522C306.352997,258.709839,306.700256,258.564636,307.169983,258.394165L306.744446,257.669373C306.610596,257.334747,306.584076,257.070862,306.666138,256.877655C306.786102,256.602386,306.954041,256.390259,307.169983,256.242523C307.467957,256.026581,307.806366,255.974823,308.186432,256.085938L308.409943,256.164215C308.551361,256.223572,308.774872,256.38266,309.080444,256.642792C309.363281,256.881439,309.561523,257.015289,309.672638,257.044342L309.739563,257.067047C309.792603,257.067047,310.101959,256.896606,310.667664,256.554413C311.211884,256.219788,311.610901,256.089722,311.863434,256.164215C311.916473,256.171814,311.972046,256.200836,312.031372,256.252625L312.634949,256.899109L312.99231,257.300659L313.294098,257.512787L313.427948,257.52417L313.763824,257.457245L314.390106,257.424408C314.531555,257.461029,314.684326,257.560791,314.84848,257.724915C314.967163,257.843628,315.131317,258.155518,315.339661,258.661865L315.675568,259.453583C315.906616,259.788177,316.15918,259.99527,316.434448,260.077362C316.644043,260.12912,316.829681,260.11145,316.993805,260.02179C317.329712,259.851318,317.601196,259.572266,317.80954,259.185883C318.017883,258.813385,318.111328,258.457306,318.088593,258.115112C318.067108,257.847412,317.988831,257.598663,317.85498,257.367584C317.801941,257.642853,317.668091,257.824677,317.452179,257.914337L316.714752,257.958527C316.349854,257.862579,316.080872,257.627716,315.909149,257.25647C315.611145,256.63269,315.362396,256.189484,315.16037,255.929367C315.071991,255.803085,314.989899,255.717224,314.915405,255.673035L314.669189,255.573273L314.121155,255.527817L313.674164,255.506363C313.563049,255.468475,313.477173,255.40155,313.417847,255.305588L313.194336,254.680542L313.08197,254.345932C312.917816,253.863571,312.768799,253.595886,312.634949,253.544113L312.579407,253.521378zM324.181152,284.296051C324.508179,284.950134,324.426117,285.626953,323.934906,286.325226C323.516968,286.919952,323.207581,287.209106,323.006836,287.195221L322.9841,289.079193C322.62674,289.949188,322.227722,290.588104,321.7883,290.997223C322.817413,291.406342,323.830109,292.056641,324.828918,292.94812C325.216553,291.907654,325.778473,290.785095,326.5159,289.580475L326.796204,289.168823L327.66748,288.187714C328.07785,287.786163,328.561462,287.377045,329.12085,286.960358C328.248322,285.875702,327.254578,284.756927,326.137085,283.604095L324.628143,282.121674L324.181152,284.296051zM294.372437,293.594604L311.227051,297.988831L311.305328,298.021667C311.759888,298.289368,312.069275,298.423218,312.232147,298.423218L312.478394,298.400482L313.372375,298.379028C313.744873,298.445923,313.983521,298.642914,314.088318,298.969971L314.300476,299.493988C314.523956,299.96875,314.680542,300.374084,314.770203,300.70871C314.933075,301.280701,314.989899,301.850189,314.936859,302.414612C314.877533,303.032074,314.617401,303.644501,314.155243,304.254395C315.034088,303.726563,316.397827,302.860352,318.245148,301.656982L318.189606,301.60144C317.690826,301.146851,317.392822,300.542023,317.295593,299.783142L316.92688,300.496582C316.896606,300.586212,316.844818,300.649353,316.770325,300.685974L316.512726,300.653137C316.27533,300.482666,315.895264,300.117767,315.373779,299.560913C314.709595,298.846222,314.109802,298.107544,313.574402,297.341064C313.156464,296.746338,312.735962,296.003876,312.310455,295.111145L311.796509,293.917877C308.860718,295.271484,306.352997,295.497528,304.274597,294.59848C303.193695,294.137573,302.211304,293.450684,301.323639,292.535217L300.698608,291.844513C296.733704,293.003662,294.689392,293.584534,294.561859,293.584534L294.372437,293.594604zM294.830811,294.709595L294.707062,294.64267C294.781555,294.835846,294.844696,295.082092,294.897736,295.378815C294.905304,295.424286,295.814453,295.732391,297.625183,296.304382C299.434631,296.883972,300.343781,297.200897,300.351349,297.252686L297.680725,296.795593C295.892731,296.438232,294.997498,296.289246,294.997498,296.348572L294.964661,296.895325C294.957062,296.954681,296.048035,297.300659,298.238831,297.932007C300.41449,298.557068,301.495361,298.899231,301.480225,298.958588L298.105011,298.367645L294.729797,297.76535L294.439362,298.312073C294.416626,298.356293,295.854858,298.742676,298.754028,299.471252C301.644379,300.207397,303.078796,300.593811,303.056061,300.630432C303.01944,300.683441,301.491577,300.425873,298.473694,299.86142C295.455841,299.296997,293.92923,299.033081,293.891357,299.069702L293.377441,299.637939L302.095154,301.622894L308.957947,303.173523L310.992188,303.240417C311.282593,303.114166,311.632355,303.150787,312.042755,303.351563L311.919006,302.927277C311.912689,302.890656,310.556549,302.55603,307.851837,301.924683L303.794739,300.920837C303.779602,300.861481,305.094086,301.031952,307.739441,301.433502C310.384827,301.842621,311.69928,302.013092,311.685394,301.946167L311.595764,301.2883L311.595764,300.563477C311.603333,300.526886,310.161316,300.113983,307.269714,299.32605C304.386963,298.530548,302.94873,298.115112,302.956329,298.077209C302.963898,298.040619,304.423584,298.341125,307.336639,298.980072C310.250977,299.620239,311.710663,299.920776,311.718231,299.884155L311.997284,298.980072C311.737183,298.913147,311.416443,298.77298,311.036377,298.557068L294.909088,294.699493C294.930542,294.75885,294.905304,294.762634,294.830811,294.709595zM300.385437,268.797607L300.39682,268.807709L300.385437,268.819061L299.893005,269.064026L299.356354,269.421387C297.65799,270.706818,296.194519,272.312988,294.964661,274.238586C293.407745,276.661743,293.016296,278.679535,293.790344,280.293274C294.244904,281.259247,295.1427,282.002991,296.484955,282.523224C297.49765,282.924744,298.634064,282.444916,299.893005,281.084991C300.244019,280.704926,300.534454,280.348846,300.765533,280.014221C300.095032,279.48642,299.655609,278.884094,299.445984,278.207275C299.327301,277.79187,299.267944,277.330963,299.267944,276.824615L299.334869,275.397766C298.209808,275.755096,297.468597,276.367523,297.109985,277.237518C297.065796,277.3638,296.968567,277.430725,296.81958,277.438293C296.670563,277.453461,296.626373,277.382751,296.68573,277.226166C296.960999,276.572083,297.33728,276.00766,297.814575,275.531616C298.343658,275.018951,298.932068,274.68811,299.581116,274.539124L300.452362,273.535278C300.794556,273.164032,301.100128,272.877411,301.36908,272.677887C301.600159,272.506165,301.800934,272.39505,301.972656,272.343262L302.039581,272.320557L302.106506,272.320557C302.240356,272.320557,302.356537,272.36853,302.452484,272.465759L302.576233,272.710724C302.561096,271.067932,302.572449,269.851959,302.60907,269.064026L302.631805,268.730682C302.662109,268.329132,302.702515,268.090485,302.754272,268.015991L303.682373,268.082916L304.576355,268.27359L305.560028,267.057587L305.571381,266.901001L304.77713,267.057587C303.24295,267.39978,301.816101,267.956635,300.496552,268.730682L300.385437,268.797607zM308.242004,256.554413C307.855621,256.442017,307.534882,256.579651,307.281097,256.966034C307.005829,257.375153,307.109344,257.820892,307.594238,258.304504L307.661163,258.427002C307.6763,258.509064,307.630859,258.564636,307.527313,258.59494C306.990662,258.736359,306.584076,258.88031,306.308807,259.029297C305.921143,259.230072,305.608002,259.478821,305.370605,259.776825C305.176147,260.02179,305.034729,260.297058,304.945068,260.601379L305.370605,260.132904L306.207794,259.4422C306.782318,259.107605,307.143463,258.937134,307.29245,258.929565L307.382111,258.939667C307.449036,258.954803,307.481842,258.99646,307.481842,259.063385C307.489441,259.122742,307.456604,259.163147,307.382111,259.185883L307.046234,259.319733L306.342896,259.675812C306.051208,259.832397,305.753204,260.052094,305.448914,260.333679L305.370605,260.411957L304.889526,260.924622L304.866791,261.159485L304.878143,261.159485L305.370605,260.656921C305.630737,260.419556,305.895905,260.226349,306.163574,260.077362C306.520935,259.884155,306.807556,259.780609,307.02475,259.765472L307.080322,259.765472C307.147247,259.788177,307.166168,259.836182,307.135864,259.910675C307.113159,259.999054,307.046234,260.058411,306.93512,260.088715C306.688873,260.148071,306.472961,260.230133,306.286072,260.333679L305.370605,261.00293L304.967804,261.326172L304.979187,261.415833L305.147095,261.515564C305.235504,261.605225,305.221619,261.694885,305.101654,261.783264C304.482941,262.021912,304.21524,262.467651,304.297302,263.121735C304.371826,263.760651,304.713989,264.165985,305.325165,264.336456L305.493103,264.381927C305.664825,265.087769,305.89212,265.726685,306.174957,266.299957L306.207794,266.254517C306.297424,266.15097,306.402252,266.124451,306.520935,266.176208L308.543793,266.923737L310.723206,267.558899L310.745941,267.425049C310.790131,267.313934,310.883575,267.281097,311.024994,267.325287L311.070465,267.336639L311.941742,267.704102L312.031372,267.782379L311.997284,267.826569L312.780182,267.938965L314.222168,268.050079L314.724731,267.503326C315.73111,266.292389,316.296814,264.905945,316.424347,263.343964L316.434448,263.121735C316.487488,262.229004,316.378876,261.278198,316.111176,260.266754C315.842224,260.148071,315.601044,259.924561,315.383881,259.597534L315.037903,258.77298C314.829529,258.275482,314.680542,257.977478,314.590881,257.8815C314.539124,257.828461,314.472198,257.79184,314.390106,257.769135L313.574402,257.824677L313.148865,257.79184C312.910217,257.724915,312.634949,257.535522,312.321808,257.223633C312.195526,257.097351,312.031372,257.003937,311.830627,256.94458C311.345734,256.81073,310.828033,256.91806,310.276215,257.267822C310.119659,257.371368,309.937805,257.397888,309.729462,257.34613C309.580475,257.300659,309.401184,257.204681,309.19281,257.055695C309.021088,256.921844,308.730682,256.766541,308.320282,256.587219L308.242004,256.554413zM306.543671,261.67215L306.364349,261.76181C306.238098,261.828735,306.163574,261.891846,306.140869,261.951202L306.073944,262.028229L305.984283,262.028229C305.888306,261.999176,305.861816,261.932281,305.906006,261.828735C305.951447,261.716339,306.037323,261.624176,306.163574,261.549652C306.297424,261.46759,306.406036,261.423401,306.488098,261.415833L306.543671,261.415833C306.603027,261.430969,306.637115,261.475159,306.644684,261.549652C306.644684,261.616577,306.610596,261.656982,306.543671,261.67215zM306.80127,260.601379C306.860596,260.624115,306.893433,260.668304,306.901001,260.735229C306.9086,260.802155,306.860596,260.853912,306.755798,260.891785L306.253235,261.047119L305.873169,261.281982L305.594116,261.427185L305.571381,261.370361C305.571381,261.311005,305.634521,261.222626,305.760773,261.103943C305.873169,260.991547,305.995636,260.895599,306.129486,260.813507C306.339111,260.687225,306.551239,260.616516,306.767151,260.601379L306.80127,260.601379zM315.217194,261.404449L314.065613,261.727722L313.864838,261.683502L313.775177,261.504211L313.752441,261.281982L313.78656,260.970093C313.823181,260.828674,313.874939,260.769318,313.943115,260.790771L314.166626,261.215057L315.228546,261.259247C315.383881,261.318604,315.380066,261.367828,315.217194,261.404449zM314.244904,261.962585C314.289093,262.140625,314.378754,262.266876,314.512604,262.34137L314.579529,262.38559L314.669189,262.429779L314.75882,262.486603L314.993683,262.496704C315.112396,262.467651,315.183105,262.504272,315.205841,262.60907L315.194458,262.731567L315.093445,262.819946L314.669189,262.809845C314.579529,262.950012,314.475983,263.05481,314.356018,263.121735L314.344666,263.133087L314.031525,263.165924L313.9646,263.121735C313.905243,263.062378,313.874939,262.965149,313.874939,262.831299C313.868622,262.660858,313.912811,262.482819,314.01004,262.295929L314.244904,261.962585zM311.13739,261.605225C310.921478,261.716339,310.723206,261.742859,310.545166,261.683502C310.425232,261.853973,310.295166,261.976471,310.153748,262.050964L309.796387,262.085052C309.676453,262.018127,309.613312,261.884277,309.605713,261.683502C309.605713,261.475159,309.66507,261.259247,309.785034,261.037018L309.963074,260.757935C310.023682,260.943573,310.119659,261.073639,310.254761,261.148132L310.578003,261.337524L310.612091,261.348907L310.946716,261.326172C311.051514,261.266815,311.129822,261.281982,311.18158,261.370361L311.204315,261.49411L311.13739,261.605225zM311.192932,260.51297C311.028809,260.341248,310.734589,260.12912,310.310303,259.876587C309.930237,259.654358,309.739563,259.524292,309.739563,259.48642C309.867096,259.419495,310.213074,259.501556,310.780029,259.731384C311.263672,259.932129,311.614685,260.107666,311.830627,260.255402L312.232147,260.233917L312.545319,260.144287C312.590759,260.182159,312.459442,260.348846,312.15387,260.64682C311.848297,260.943573,311.666473,261.084991,311.607117,261.069824L311.461914,260.880432L311.192932,260.51297zM312.690521,261.125397C312.749878,261.148132,312.795319,261.22641,312.824371,261.36026L313.003662,262.352753L313.282715,263.121735L313.528961,263.701324C313.580719,263.850311,313.555481,263.969025,313.450653,264.058655L312.768799,264.626892L312.445557,264.671082L312.232147,264.548584L312.143768,264.437469L312.210693,264.303619L312.757446,263.879364L312.869812,263.72406C312.898865,263.657135,312.906433,263.593994,312.892548,263.534637L312.679138,262.542145L312.579407,261.716339L312.556671,261.337524C312.556671,261.180969,312.597076,261.110229,312.679138,261.125397L312.690521,261.125397zM310.1651,264.013214C310.507294,264.131897,310.772461,264.437469,310.958069,264.927399C311.047729,265.173645,311.107086,265.411011,311.13739,265.64209C311.540192,265.715332,312.071777,265.983032,312.735962,266.443909C312.973358,266.585327,313.265045,266.644684,313.607239,266.62323L314.222168,266.499481L314.367401,266.522217C314.390106,266.589142,314.371185,266.648468,314.311829,266.700256C314.176727,266.812622,313.957001,266.919952,313.651428,267.02475L312.612244,267.002045L311.930359,266.577759C311.573029,266.35553,311.259857,266.180023,310.992188,266.053741C310.440369,265.79361,309.855743,265.571381,309.23703,265.384491L309.214294,265.37439L308.555145,265.395874L308.465515,265.529724L308.331665,265.652191C308.228119,265.682495,308.159912,265.655975,308.13089,265.575165C308.190247,265.395874,308.298828,265.265808,308.455414,265.183746L308.801392,265.10672L308.96933,265.072601C308.998352,264.842804,309.118317,264.592773,309.32666,264.326355C309.580475,264.020782,309.859528,263.917236,310.1651,264.013214zM310.533813,264.772095C310.399963,264.504395,310.243408,264.344025,310.064087,264.292267C309.9151,264.255646,309.769867,264.292267,309.628448,264.403381C309.435272,264.575104,309.341827,264.831451,309.349396,265.173645L309.750946,265.28476C309.668854,265.024628,309.684021,264.808716,309.796387,264.638245L309.985809,264.760742C309.88858,264.931183,309.911316,265.143341,310.052734,265.395874L310.176483,265.441315L310.745941,265.663574L310.723206,265.496887C310.723206,265.265808,310.660095,265.024628,310.533813,264.772095zM299.591217,289.324158C300.12027,290.335571,300.802155,291.253571,301.63678,292.078125C302.471436,292.919067,303.388153,293.584534,304.386963,294.074463C305.370605,294.565643,306.893433,294.606049,308.957947,294.19693L311.752319,293.439301C311.334381,292.81427,311.047729,292.242249,310.891174,291.722015C310.854553,291.580597,310.898743,291.513672,311.024994,291.52124C311.160126,291.528839,311.248505,291.59198,311.293976,291.710663L312.367249,294.130005C312.970825,295.40155,313.563049,296.457184,314.14389,297.296875C314.560577,297.906769,315.089661,298.509064,315.73111,299.103821L316.736237,300.018005L317.261505,299.113922L317.272888,299.113922C317.862549,298.222443,318.636597,297.382751,319.597534,296.594818C320.365234,295.948303,321.319855,295.29422,322.458801,294.632568C321.937317,293.249908,321.270599,291.817993,320.458679,290.339355C319.690948,288.956696,318.938385,287.870789,318.200958,287.082855C317.217316,286.042358,316.122559,285.3479,314.915405,284.998108C313.1716,284.493042,311.479584,284.883209,309.840576,286.16864C308.499603,287.231842,307.414917,288.66629,306.58786,290.473206L306.566406,290.528778C306.513367,290.655029,306.413605,290.721954,306.264618,290.729553C306.115601,290.74469,306.073944,290.677765,306.140869,290.528778L306.755798,289.346863L306.956573,288.979431L303.023254,288.432678L302.977783,287.094208C302.285828,287.072754,301.651947,287.209106,301.078674,287.507111C300.326111,287.901062,299.833649,288.499603,299.60257,289.302673L299.591217,289.324158zM315.037903,270.458069L314.489868,270.391144L310.936615,270.000946L308.465515,269.733276L307.582886,269.644867L307.348022,269.610779L307.057587,269.878479L303.615448,272.934235L303.638184,273.513794L303.939972,273.502441L304.610474,273.513794C305.697662,273.513794,306.375732,273.655243,306.644684,273.936798L306.654785,273.948181C306.811371,274.126221,306.853027,274.316895,306.778534,274.51767C306.704041,274.755035,306.435059,274.940674,305.974182,275.074524L305.906006,275.219727L305.940094,275.342194L305.940094,275.386414C305.976715,275.877594,305.739319,276.296814,305.224121,276.646576C305.32135,276.885223,305.332733,277.130188,305.25824,277.382751C305.176147,277.665588,304.994324,277.887817,304.710205,278.051971L304.251862,278.341125L303.749298,278.664398L303.816223,284.908478L303.827576,285.344086L303.850311,287.819L307.303802,288.377106C307.959167,287.388428,308.696594,286.566406,309.516083,285.912323C310.492157,285.116821,311.52124,284.615509,312.600861,284.407166C314.888885,283.969025,316.9711,284.827637,318.848724,286.983093L319.587402,287.931396L321.297119,279.65686L321.38678,279.222504L321.408234,279.12149C322.444916,274.126221,322.943695,271.588196,322.905823,271.506104C322.861603,271.394989,320.283173,271.049011,315.171722,270.469421L315.037903,270.458069z"/>
</svg>
