<?xml version="1.0" encoding="UTF-8"?>
<svg xmlns="http://www.w3.org/2000/svg" xmlns:xlink="http://www.w3.org/1999/xlink" width="42.106mm" height="52.275mm" viewBox="-283.468262 252.981018 42.106277 52.275330">
    <path transform="matrix(-1,0,0,1,0,0)" style="stroke:none;fill:#000000;fill-rule:evenodd" d="M271.852905,261.615692L272.224915,261.214111L272.526489,260.880585L272.657806,260.731598L272.765411,260.606995L272.865845,260.487061L272.94104,260.39447L273.000732,260.316833L273.049957,260.247711L273.088013,260.200745L273.131409,260.158447L273.17926,260.121521L273.231171,260.090454L273.286438,260.065826L273.34436,260.047943L273.40387,260.036987L273.464264,260.032959L273.524658,260.036316L273.584167,260.0466L273.641663,260.063599L273.659546,260.041901L273.703186,259.999817L273.751282,259.963165L273.803406,259.932495L273.858887,259.908112L273.91684,259.890656L273.976318,259.879944L274.036743,259.876343L274.097137,259.879944L274.156647,259.890656L274.2146,259.908356L274.270081,259.932739L274.322205,259.963379L274.3703,260.000061L274.413696,260.042358L274.451935,260.089111L274.484375,260.14032L274.510559,260.194916L274.530029,260.252197L274.534485,260.272552L274.579895,260.280579L274.637848,260.297821L274.693329,260.321991L274.745667,260.352631L274.814575,260.40744L275.015259,260.598022L275.056641,260.642334L275.092407,260.691101L275.122375,260.743652L275.14566,260.799591L275.160889,260.852173L275.190186,260.855743L275.248779,260.870056L275.305603,260.891327L275.359314,260.919067L275.409637,260.95282L275.44989,260.987305L275.673401,261.198242L275.714996,261.24231L275.747864,261.287048L275.92865,260.935852L275.968231,260.870972L276.039368,260.772095L276.069122,260.734497L276.138031,260.655518L276.182983,260.610107L276.249451,260.550842L276.296875,260.513245L276.322571,260.49646L276.38678,260.457092L276.440247,260.428467L276.500214,260.405426L276.561707,260.385956L276.620361,260.371185L276.680298,260.363373L276.721924,260.36203L276.781189,260.362701L276.841583,260.366943L276.900879,260.378357L276.948059,260.39267L277.004883,260.413025L277.060608,260.436737L277.137756,260.484161L277.191895,260.524414L277.23822,260.563354L277.279602,260.607666L277.33017,260.680359L277.352539,260.719299L277.379608,260.773438L277.406891,260.856415L277.422791,260.923523L277.43396,260.988647L277.443787,261.08371L277.446289,261.122406L277.449646,261.245239L277.449646,261.268494L277.44696,261.419495L277.446472,261.435822L277.437561,261.614807L277.43689,261.626862L277.421661,261.833801L277.42099,261.842285L277.399719,262.076965L277.398865,262.084137L277.371338,262.346985L277.37088,262.352814L277.337097,262.643616L277.336426,262.648102L277.296631,262.966888L277.296143,262.970886L277.250061,263.317627L277.249634,263.321014L277.197266,263.695709L277.196838,263.698639L277.138245,264.101318L277.138,264.103302L277.073578,264.533936L277.07312,264.536407L277.002197,264.994781L277.001312,264.999695L276.690582,266.883545L276.689697,266.888916L276.376038,268.676117L276.46283,268.697144L276.520813,268.715057L276.57605,268.739441L276.607147,268.756897L276.69751,268.811676L276.747192,268.84613L276.792603,268.885956L276.833984,268.932495L276.898193,269.013916L276.932861,269.063599L276.961273,269.116821L276.991699,269.201843L277.008484,269.266266L277.020325,269.325775L277.024811,269.381042L277.02771,269.484833L277.026367,269.539185L277.015198,269.681915L277.012054,269.710999L276.987244,269.893311L276.984314,269.912354L276.945618,270.13382L276.942932,270.147217L276.890137,270.407837L276.888336,270.417023L276.821899,270.717224L276.820129,270.724823L276.739563,271.063965L276.73822,271.069336L276.644043,271.447876L276.642944,271.452545L276.534668,271.870453L276.533752,271.874023L276.411865,272.331299L276.410706,272.334656L276.274719,272.830811L276.274048,272.833496L276.124146,273.369293L276.123474,273.371521L275.959717,273.946442L275.95929,273.948242L275.781891,274.562317L275.781219,274.564331L275.628174,275.0867L275.639587,275.13031L275.640076,275.131226L275.670258,275.183563L275.694183,275.239258L275.711426,275.297211L275.718567,275.334564L275.73111,275.415314L275.736694,275.475494L275.735352,275.536133L275.722382,275.615295L275.700226,275.705933L275.682556,275.763855L275.648315,275.837006L275.591736,275.936768L275.558838,275.987549L275.538696,276.013062L275.447205,276.122253L275.405823,276.166321L275.279877,276.284882L275.248566,276.311951L275.088165,276.440125L275.06311,276.458923L274.867798,276.596283L274.845459,276.611023L274.600708,276.764709L274.575439,276.779724L274.316162,276.922424L274.290894,276.935425L274.016602,277.0672L273.993103,277.077698L273.704315,277.198944L273.680603,277.208344L273.377014,277.31842L273.35553,277.325562L273.037415,277.42511L273.016174,277.431366L272.683533,277.519958L272.663635,277.524658L272.316223,277.602509L272.25647,277.612366L272.196075,277.615051L272.135681,277.610352L272.076385,277.598694L272.01889,277.580139L271.963867,277.554871L271.91217,277.523315L271.864532,277.485962L271.821808,277.443237L271.784241,277.395813L271.752686,277.344116L271.727417,277.289093L271.708832,277.231598L271.69696,277.172089L271.693176,277.133179L271.686249,277.01593L271.685364,276.988434L271.68512,276.958221L270.385376,283.250916L271.053833,280.088135L271.053589,280.088135L271.166138,279.542725L271.167694,279.535339L271.469482,278.174072L271.486023,278.115692L271.509521,278.059998L271.539246,278.007202L271.574829,277.958435L271.616211,277.914124L271.662292,277.875L271.71286,277.841644L271.766998,277.814575L271.823822,277.794006L271.882874,277.780151L271.943054,277.773438L272.020905,277.775421L272.202789,277.793762L272.36676,277.797577L272.534088,277.789093L272.70343,277.767822L272.875488,277.733612L273.051971,277.685944L273.231842,277.624634L273.403442,277.554199L274.039185,277.210571L274.093994,277.185059L274.151489,277.166077L274.210785,277.154205L274.271179,277.149292L274.331604,277.15152L274.391296,277.160706L274.449707,277.177002L274.505615,277.200287L274.558411,277.229828L274.607422,277.265381L274.651917,277.306335L274.691101,277.352386L274.72464,277.40274L274.752136,277.456635L274.772949,277.513489L274.786835,277.57254L274.793762,277.632477L274.793549,277.693115L274.784363,277.76358L273.99826,281.613586L274.023071,281.616272L274.081909,281.629913L274.138977,281.650513L274.192871,281.677582L274.243439,281.710907L274.295563,281.755646L275.804474,283.238159L275.817017,283.250916L276.631958,284.109039L276.639343,284.117096L277.408234,284.962494L277.41629,284.971436L278.139099,285.804321L278.147156,285.813721L278.777344,286.576782L278.936829,286.483032L278.944885,286.478577L279.302826,286.277008L279.311096,286.272308L279.661652,286.083252L279.67038,286.078796L280.01355,285.902283L280.023376,285.897369L280.359161,285.733612L280.369446,285.728699L280.69809,285.577454L280.709045,285.57254L281.03009,285.433838L281.042816,285.428467L281.501404,285.244812L281.507904,285.242371L281.639893,285.191589L281.647278,285.18866L281.766724,285.144806L281.775238,285.141907L281.882172,285.104767L281.902771,285.098053L282.079041,285.045044L282.125793,285.033417L282.251953,285.008118L282.30365,285.000519L282.422424,284.989105L282.493103,284.987122L282.598267,284.991577L282.658447,284.997833L282.68866,285.003662L282.780334,285.024231L282.838501,285.040802L282.885925,285.060242L282.96402,285.096954L283.017273,285.126038L283.070068,285.163818L283.134491,285.2164L283.179016,285.257324L283.222412,285.308563L283.273193,285.377258L283.306274,285.42804L283.330688,285.476349L283.367798,285.561127L283.388611,285.617737L283.397339,285.650391L283.420837,285.751282L283.43158,285.815063L283.466003,286.150818L283.468262,286.223541L283.454834,286.562012L283.447021,286.63269L283.385254,286.97406L283.369141,287.03894L283.259094,287.38324L283.237396,287.439606L283.079224,287.786804L283.054169,287.8349L282.847473,288.184784L282.821747,288.223938L282.567169,288.576721L282.541656,288.609375L282.238525,288.964844L282.21637,288.989227L281.918182,289.2966L281.902771,289.311829L281.594482,289.60376L281.578156,289.61853L281.259583,289.895264L281.242371,289.909576L280.913513,290.170868L280.895844,290.184265L280.556946,290.430359L280.538361,290.443329L280.189392,290.673981L280.170135,290.686066L279.810638,290.901276L279.791382,290.912231L279.422058,291.112213L279.401917,291.122498L279.234375,291.203949L279.209961,291.214905L279.053406,291.281128L279.023193,291.292969L278.877991,291.34375L278.838409,291.355621L278.704163,291.390747L278.644897,291.402588L278.593201,291.407074L277.966858,291.429871L277.921875,291.429657L277.737549,291.420044L277.631714,291.426758L277.587646,291.437042L277.584534,291.438385L277.565063,291.454956L277.537781,291.488708L277.507996,291.542419L277.481628,291.61557L277.376709,292.134583L277.368195,292.170349L277.327942,292.315308L277.308472,292.372589L277.294128,292.404144L277.233765,292.526947L277.203766,292.579529L277.173798,292.621338L277.093262,292.721802L277.052551,292.766541L277.008026,292.805695L276.972473,292.833435L276.981873,292.884888L276.984985,292.974823L276.957703,293.484863L276.953674,293.526917L276.883179,294.042786L276.876038,294.082611L276.762177,294.603851L276.752563,294.640991L276.595276,295.168274L276.585205,295.1987L276.442505,295.586609L276.433533,295.609192L276.285461,295.959534L276.27359,295.985687L276.120117,296.298645L276.103333,296.329987L275.944092,296.604675L275.910736,296.655273L275.871582,296.701355L275.827301,296.742493L275.787903,296.772034L275.094879,297.240479L275.042755,297.271362L274.987488,297.295959L274.929565,297.313629L274.870056,297.324585L274.809631,297.328369L274.749268,297.325012L274.738068,297.322998L274.55304,297.624817L274.54364,297.639587L274.341187,297.946045L274.331604,297.9599L274.112122,298.269531L274.102966,298.282043L273.866699,298.594574L273.858002,298.605774L273.605225,298.921631L273.596497,298.932373L273.326691,299.251373L273.318176,299.260986L273.031616,299.58313L273.02356,299.591858L272.720459,299.917114L272.712616,299.925629L272.392487,300.254028L272.385101,300.261414L272.048431,300.592957L271.930542,300.712189L271.885559,300.752441L271.836121,300.787354L271.782898,300.816223L271.726501,300.838379L271.668121,300.853821L271.652008,300.856018L271.645752,300.884003L271.62561,300.94104L271.598999,300.995422L271.565887,301.045959L271.527191,301.092499L271.491638,301.126953L271.265015,301.325806L271.249329,301.33902L271.027893,301.518188L271.009521,301.532288L270.793427,301.691589L270.7724,301.70636L270.561646,301.845947L270.536621,301.861603L270.331024,301.981293L270.301514,301.997192L270.101044,302.096924L270.067261,302.112152L269.872192,302.192261L269.832581,302.206787L269.642883,302.266968L269.58429,302.281738L269.500854,302.29068L269.042694,302.302063L268.9823,302.300049L268.922333,302.290894L268.864166,302.274567L268.821655,302.257996L268.395935,302.068542L268.342255,302.040771L268.292145,302.006775L268.24942,301.969879L268.232178,301.953308L268.213867,301.960938L268.155701,301.977264L268.095947,301.986633L268.035339,301.988892L267.975159,301.984192L267.94989,301.979065L267.927734,302.00589L267.883881,302.047729L267.832886,302.085541L267.162872,302.521088L267.16153,302.521759L266.536713,302.925537L266.535583,302.926453L265.956177,303.298706L265.954834,303.299591L265.421082,303.640076L265.419312,303.641205L264.930725,303.950134L264.928711,303.951477L264.485535,304.228638L264.482849,304.230225L264.085083,304.475647L264.08197,304.477661L263.729614,304.691528L263.675934,304.719696L263.619568,304.741394L263.560974,304.756378L263.500977,304.764435L263.440369,304.765106L263.380188,304.75885L263.321136,304.745422L263.264313,304.725281L263.209961,304.698425L263.159393,304.665344L263.112854,304.626404L263.071259,304.582581L263.035217,304.533813L263.028748,304.522614L262.951569,304.63623L262.920258,304.677856L262.739044,304.893982L262.697876,304.937592L262.506836,305.117676L262.460541,305.156372L262.40976,305.189484L262.355621,305.216309L262.298584,305.236694L262.239502,305.250122L262.179321,305.256348L262.118713,305.255676L262.058777,305.247864L262.000122,305.23288L261.967255,305.221252L261.871063,305.183228L261.824097,305.161743L261.713806,305.104675L261.680908,305.086121L261.556519,305.009613L261.533264,304.994385L261.39859,304.901123L261.196808,304.772278L261.04245,304.699768L260.93573,304.670715L260.857666,304.667572L260.372681,304.747437L260.301086,304.75415L260.281403,304.754578L260.220093,304.75235L260.130615,304.743652L260.106903,304.740723L259.846069,304.702911L259.836212,304.701355L259.252991,304.605377L259.247437,304.604492L257.578552,304.310303L257.575195,304.309631L253.286285,303.524414L253.284714,303.5242L242.167999,301.456238L242.163528,301.455353L242.052567,301.433655L241.984344,301.415283L241.891953,301.383545L241.836014,301.360718L241.806046,301.344849L241.732224,301.303009L241.681442,301.270142L241.634018,301.230743L241.578537,301.178619L241.536926,301.134766L241.488159,301.065643L241.451462,301.003479L241.423721,300.949524L241.395981,300.869019L241.37764,300.796509L241.366241,300.73703L241.361984,300.669464L241.362213,300.587158L241.366013,300.526733L241.372498,300.486694L241.391296,300.394073L241.416565,300.308167L241.451019,300.220703L241.486145,300.148682L241.529312,300.075317L241.563095,300.025208L241.585251,299.997894L241.636703,299.939056L241.679199,299.895874L241.716568,299.865234L241.776733,299.820496L241.827515,299.787384L241.874283,299.763428L241.942734,299.733032L241.999557,299.711792L242.045853,299.699921L242.122818,299.683807L242.176285,299.675751L242.174713,299.660767L242.175385,299.600372L242.183441,299.540405L242.198212,299.481812L242.220123,299.425201L242.248322,299.371735L242.282761,299.321838L242.306259,299.293884L242.820114,298.725647L242.863281,298.683167L242.911163,298.64624L242.963058,298.615173L243.018311,298.590332L243.076035,298.572205L243.130844,298.561707L243.155457,298.55835L243.215622,298.55365L243.255447,298.554535L243.299515,298.55722L243.28833,298.537292L243.264847,298.481598L243.248291,298.423431L243.238449,298.363708L243.235764,298.303314L243.240463,298.24292L243.25209,298.183411L243.27066,298.125916L243.295715,298.071106L243.586304,297.524353L243.617859,297.472687L243.655212,297.425049L243.697937,297.382324L243.745361,297.344727L243.797043,297.313171L243.852081,297.287659L243.909561,297.269104L243.919861,297.26709L243.881836,297.225281L243.870422,297.210724L243.835968,297.161072L243.807556,297.107605L243.785858,297.050995L243.770645,296.992371L243.762589,296.932434L243.762146,296.864197L243.7948,296.317444L243.801971,296.257263L243.816284,296.198425L243.837311,296.141602L243.864822,296.087952L243.898605,296.037598L243.938202,295.99173L243.978912,295.953918L243.989426,295.94519L244.038208,295.90918L244.074219,295.888824L244.044235,295.87561L244.010239,295.85907L243.977127,295.8414L243.925446,295.809875L243.863037,295.758636L243.850952,295.747009L243.810013,295.702484L243.774445,295.653503L243.745148,295.600708L243.722107,295.544556L243.703751,295.476318L243.663483,295.270508L243.622559,295.097137L243.580719,294.950134L243.531952,294.809662L243.515396,294.751495L243.505997,294.691528L243.503769,294.631134L243.508453,294.57074L243.520538,294.511475L243.539337,294.453979L243.564835,294.39917L243.596603,294.347717L243.634186,294.300293L243.677139,294.257568L243.724792,294.220398L243.776688,294.189087L243.831711,294.164032L243.834854,294.163147L243.551865,294.089325L243.494141,294.070526L243.439331,294.045258L243.387665,294.013489L243.340225,293.976135L243.297501,293.933167L243.260147,293.885529L243.228607,293.833862L243.203552,293.778809L243.184982,293.7211L243.17334,293.661804L243.168869,293.60141L243.171555,293.541016L243.181396,293.481293L243.198181,293.423126L243.221664,293.367432L243.251648,293.31485L243.28743,293.266083L243.329041,293.222015L243.375351,293.183075L243.425919,293.14975L243.480057,293.122925L243.537094,293.102325L243.595932,293.088898L243.65387,293.082397L243.821426,293.073456L243.823441,293.073242L243.888321,293.058716L244.020309,293.025818L244.419403,292.919098L245.001709,292.757141L246.214432,292.411957L246.214432,292.411743L248.468063,291.759399L249.657288,291.412445L249.402939,291.083588L249.391083,291.067688L249.142548,290.719177L249.131348,290.702606L248.897141,290.345337L248.886398,290.328125L248.666489,289.961914L248.656418,289.944458L248.450836,289.569519L248.424881,289.514954L248.40564,289.457672L248.393341,289.398407L248.38797,289.338013L248.389771,289.277588L248.397141,289.227936L248.360901,289.202881L248.315491,289.162842L248.275223,289.117645L248.240326,289.068207L248.211685,289.01474L248.198273,288.982758L248.029816,288.542938L248.024902,288.529968L247.866516,288.080536L247.862259,288.06778L247.713943,287.608734L247.710144,287.596191L247.575241,287.139618L247.543472,287.045898L247.527588,286.987488L247.520432,286.944763L247.398071,285.963593L247.394043,285.903198L247.3974,285.842773L247.407684,285.783264L247.424911,285.725098L247.448181,285.671204L247.444382,285.664276L247.420212,285.60498L246.608597,283.169037L246.568115,283.170593L246.368118,283.16748L246.315094,283.163666L246.118011,283.139954L246.065216,283.130981L245.871033,283.0867L245.820709,283.072388L245.629211,283.007507L245.592743,282.993652L245.110428,282.788055L245.077316,282.7724L244.636398,282.546021L244.600372,282.525879L244.201065,282.278442L244.163483,282.252502L243.805984,281.984039L243.767731,281.952515L243.451645,281.663239L243.413834,281.624542L243.139572,281.314484L243.104218,281.269989L242.871338,280.939117L242.84024,280.888977L242.648972,280.537109L242.628174,280.494171L242.496628,280.186768L242.480743,280.144958L242.376724,279.828186L242.364868,279.786133L242.287918,279.459961L242.279861,279.416779L242.230423,279.080994L242.225937,279.039368L242.203796,278.694214L242.202682,278.653931L242.207825,278.299133L242.209839,278.261108L242.242279,277.896912L242.24675,277.861572L242.306473,277.487976L242.312744,277.455322L242.399765,277.072083L242.407364,277.042358L242.521683,276.64975L242.530411,276.622894L242.672012,276.220886L242.681412,276.196289L242.85054,275.784668L242.859924,275.76297L243.056122,275.341949L243.065964,275.322266L243.289673,274.891602L243.299301,274.873962L243.550293,274.433899L243.559692,274.41803L243.837982,273.968384L243.847382,273.953613L244.319397,273.24646L244.331711,273.229004L244.825882,272.551849L244.839081,272.534424L245.35495,271.887207L245.369492,271.869995L245.907501,271.252808L245.922943,271.235779L246.48288,270.64856L246.499207,270.632233L247.08107,270.074951L247.098526,270.059082L247.702316,269.532043L247.720657,269.516815L248.346588,269.019714L248.381256,268.994446L248.917938,268.637207L248.973419,268.60498L249.352371,268.416382L249.386154,268.387756L249.430008,268.358215L249.541183,268.291351L249.55484,268.283295L250.054596,268.003204L250.072495,267.993591L250.58255,267.733856L250.600662,267.725159L251.12056,267.485535L251.13913,267.477478L251.669098,267.25827L251.687881,267.250885L252.228134,267.052002L252.246933,267.045502L252.797028,266.866791L252.815598,266.861176L253.375763,266.702576L253.394775,266.697662L253.965225,266.559387L253.98671,266.554504L254.780869,266.397888L254.84082,266.389832L254.901443,266.388702L254.961624,266.394745L254.964752,266.395416L254.815994,266.069489L254.804138,266.041748L254.623383,265.574646L254.614212,265.548462L254.454041,265.056763L254.446426,265.03125L254.381546,264.790314L254.249557,264.74469L254.185806,264.717621L253.994537,264.620758L253.927872,264.580261L253.761658,264.461243L253.697906,264.407349L253.556747,264.266388L253.501038,264.200409L253.385376,264.037537L253.343323,263.967072L253.252502,263.782288L253.223862,263.711151L253.158325,263.504456L253.142212,263.438904L253.101715,263.210266L253.095016,263.152557L253.080475,262.916992L253.08136,262.841614L253.09993,262.625732L253.114471,262.540497L253.165695,262.343842L253.184494,262.286377L253.198807,262.253021L253.282928,262.07605L253.312012,262.023071L253.333923,261.991058L253.450699,261.833588L253.489624,261.787048L253.51535,261.76178L253.665237,261.623718L253.733017,261.571167L253.790512,261.533813L253.786713,261.519928L253.78067,261.483917L253.759872,261.458405L253.727432,261.407196L253.701263,261.3526L253.681793,261.295349L253.669037,261.236267L253.663452,261.176086L253.665695,261.109436L253.688507,260.874542L253.697906,260.814575L253.714233,260.756409L253.737503,260.7005L253.748016,260.681702L253.747787,260.68103L253.741974,260.620636L253.743088,260.560242L253.751587,260.500275L253.764786,260.451508L253.752487,260.436981L253.719376,260.3862L253.692535,260.332031L253.672394,260.274994L253.658981,260.215942L253.652496,260.153534L253.63884,259.825562L253.638397,259.799622L253.641525,259.450623L253.642197,259.42804L253.66188,259.0578L253.663452,259.037903L253.699692,258.646851L253.70282,258.620453L253.778214,258.101898L253.784698,258.066101L253.888275,257.592285L253.898788,257.551819L254.030106,257.122742L254.04689,257.07666L254.206161,256.692322L254.224289,256.652954L254.31131,256.484711L254.325623,256.458771L254.419586,256.300385L254.436813,256.27356L254.537918,256.125L254.557831,256.097717L254.666107,255.959229L254.68959,255.931274L255.002563,255.58519L255.036789,255.550751L255.584869,255.049408L255.613068,255.025482L255.769653,254.901764L255.787338,254.888336L255.938553,254.779175L255.96048,254.764404L256.106567,254.670013L256.13208,254.654572L256.27301,254.574707L256.30365,254.558594L256.439209,254.4935L256.476563,254.477386L256.606995,254.427063L256.650635,254.412292L256.775879,254.376495L256.828247,254.36441L256.838074,254.36264L257.466492,253.928406L257.591766,253.8349L257.608765,253.822815L257.786377,253.701355L257.817932,253.681442L257.993988,253.578979L258.031128,253.559296L258.205627,253.476074L258.247894,253.458176L258.42038,253.394196L258.468262,253.378998L258.63916,253.334015L258.692383,253.323059L258.861511,253.297333L258.918579,253.291962L259.086121,253.285477L259.145416,253.286591L259.297302,253.298218L260.231506,253.329544L260.512939,253.254822L260.848511,253.130219L260.886078,253.11792L261.141113,253.044983L261.195465,253.032684L261.424103,252.99353L261.496796,252.986389L261.699036,252.981018L261.759644,252.983032L261.792786,252.987061L261.96814,253.014801L262.027222,253.027771L262.082916,253.046997L262.138397,253.069824L262.20105,253.100693L262.251831,253.130219L262.302155,253.163788L262.34668,253.201584L262.399017,253.251251L262.452484,253.310303L262.506409,253.380325L262.53772,253.425751L262.592743,253.5159L262.611328,253.549454L262.667908,253.659973L262.680237,253.685455L262.738159,253.815887L262.746429,253.8358L262.805939,253.986572L262.811981,254.002457L262.872833,254.173157L262.875977,254.182312L262.985352,254.508484L263.161621,255.001541L263.454224,255.015625L263.472137,255.016754L264.020203,255.062378L264.0802,255.070892L264.13855,255.086548L264.169678,255.097961L264.415955,255.19751L264.470551,255.22345L264.522888,255.256348L264.58017,255.297501L264.63208,255.340454L264.692017,255.39682L264.727142,255.433075L264.789795,255.504883L264.815491,255.537094L264.958435,255.730377L264.972534,255.750519L265.054871,255.873779L265.06427,255.888092L265.151306,256.028351L265.159119,256.041565L265.250397,256.199036L265.256439,256.209564L265.352173,256.384064L265.356873,256.393005L265.457092,256.584503L265.460907,256.591644L265.565826,256.80014L265.56897,256.806854L265.674988,257.025208L265.729553,257.130554L265.778809,257.206177L265.831146,257.270599L265.884399,257.322723L265.942078,257.367462L266.005188,257.405273L266.074982,257.436584L266.088409,257.440857L266.600464,257.410217L266.608307,257.402161L266.63269,257.358307L266.671814,257.223633L266.6922,257.166565L266.719055,257.112427L266.752136,257.06189L266.791077,257.01535L266.835144,256.973969L266.883911,256.937958L266.936249,256.907959L266.992188,256.884277L267.05011,256.867493L267.109863,256.857635L267.170471,256.854736L267.230652,256.859192L267.290161,256.870605L267.3479,256.888977L267.402893,256.914246L267.45459,256.945557L267.502258,256.98291L267.545166,257.025421L267.582764,257.072845L267.619904,257.134583L267.709839,257.31134L267.732666,257.363007L267.801788,257.546448L267.819214,257.601929L267.867096,257.792053L267.877838,257.848663L267.90448,258.045959L267.908936,258.123596L267.904236,258.382874L267.896179,258.46521L267.848083,258.729858L267.829285,258.802338L267.737793,259.072815L267.712952,259.133179L267.578308,259.409485L267.552551,259.455994L267.384338,259.7258L267.342712,259.783295L267.157715,260.004547L267.173615,260.028015L267.201111,260.08194L267.220367,260.132294L267.249878,260.224426L267.264893,260.283051L267.272491,260.338745L267.282349,260.459106L267.28302,260.534058L267.273834,260.675446L267.266235,260.736725L267.238953,260.882385L267.225525,260.936737L267.180115,261.086395L267.163757,261.132233L267.100464,261.286377L267.06958,261.34903L266.985687,261.493317L266.949677,261.546997L266.832001,261.700928L266.802032,261.736694L266.651245,261.900452L266.625305,261.926636L266.440979,262.100006L266.39444,262.138916L266.343872,262.171814L266.28952,262.198669L266.253479,262.211426L266.264008,262.414307L266.264679,262.436462L266.267365,262.779419L266.266907,262.802002L266.254639,263.139587L266.254395,263.144287L266.244324,263.366425L266.241425,263.40332L266.172974,263.980957L266.167145,264.018738L266.057739,264.579834L266.048584,264.618286L265.89801,265.162781L265.885742,265.201263L265.693787,265.729431L265.678589,265.766571L265.445679,266.278442L265.427551,266.314453L265.15332,266.809509L265.133179,266.843079L264.817749,267.322021L264.79538,267.353333L264.438538,267.815521L264.410156,267.84906L264.31955,267.947723L267.508484,267.728058L267.533325,267.726929L267.929291,267.719116L267.950317,267.511963L267.955017,267.477478L267.993286,267.253113L267.999756,267.221344L268.054352,266.990723L268.061707,266.962524L268.132416,266.725159L268.141144,266.699005L268.228149,266.455383L268.236877,266.432312L268.340027,266.182251L268.349426,266.16098L268.469116,265.904602L268.477844,265.886719L268.613403,265.623627L268.622559,265.606628L268.774475,265.33728L268.783417,265.322083L268.95166,265.046234L268.960144,265.032837L269.144714,264.750488L269.152771,264.738403L269.353424,264.449615L269.36145,264.438416L269.578461,264.143372L269.58606,264.133301L269.819397,263.831726L269.826355,263.822998L270.075775,263.514954L270.082703,263.506683L270.34845,263.192139L270.371063,263.16687L270.929443,262.588379L271.424072,262.070679L271.852905,261.615692zM252.531036,279.05481L252.546707,279.102936L252.550735,279.122803L252.549835,279.043854L252.531036,279.05481zM252.285919,285.287842L252.24173,285.309326L252.253082,285.744965L252.297287,285.722229L252.285919,285.287842M272.689331,286.192444L272.402557,286.376556L272.366516,286.397583L272.026489,286.578552L272.032776,286.581238L272.085114,286.611664L272.133423,286.648132L272.177063,286.689972L272.184662,286.699371L272.258057,286.68573L272.279968,286.671173L272.348419,286.613007L272.444153,286.51593L272.555573,286.387085L272.680176,286.228455L272.724243,286.167603L272.689331,286.192444zM252.461914,268.637878L252.451401,268.764954L252.430374,269.070496L252.440216,269.0336L252.459015,268.976105L252.484512,268.921326L252.516495,268.869843L252.554077,268.822418L252.597031,268.779938L252.644684,268.742554L252.696579,268.711243L252.751617,268.686188L252.809341,268.667847L252.868835,268.656647L252.929016,268.652191L252.969513,268.65332L253.326096,268.677246L252.918274,268.590454L252.469971,268.558014L252.461914,268.637878zM269.397491,288.034241L269.381592,288.092621L269.359253,288.148773L269.330139,288.201996L269.295044,288.251221L269.254517,288.296204L269.208923,288.335999L269.163269,288.367096L269.311829,288.588135L269.571533,287.519257L269.589203,287.461548L269.613831,287.406067L269.64447,287.353943L269.681152,287.305847L269.72345,287.262451L269.770416,287.224396L269.821655,287.191956L269.875977,287.166016L269.865265,287.159088L269.81897,287.120148L269.777344,287.076294L269.741333,287.027527L269.711365,286.974976L269.687622,286.91925L269.670654,286.861328L269.660797,286.801605L269.659241,286.767151L269.397491,288.034241zM252.39682,272.706207L252.393692,272.766602L252.383392,272.826355L252.366165,272.884277L252.342239,272.939758L252.312027,272.99234L252.275787,273.040649L252.233963,273.084503L252.187424,273.122986L252.136429,273.155884L252.082062,273.182495L252.025009,273.202393L251.969086,273.214905L251.966629,273.300842L251.9664,273.307983L251.955658,273.564819L252.434402,273.515808L252.412476,272.95343L252.413589,272.893005L252.422089,272.833069L252.437302,272.774445L252.459457,272.718079L252.485626,272.669525L252.459457,272.646271L252.419418,272.600861L252.395706,272.56662L252.39682,272.706207zM272.841248,270.858856L272.802094,270.904907L272.757813,270.946289L272.708801,270.981873L272.65625,271.011627L272.59494,271.036682L272.570984,271.044739L272.512634,271.060608L272.481506,271.065308L272.524719,271.096191L272.554016,271.121704L272.565643,271.13266L272.607025,271.176727L272.643036,271.225281L272.673248,271.277832L272.696716,271.333557L272.713745,271.391724L272.721802,271.437134L272.723816,271.452118L272.728027,271.539795L272.726929,271.569122L272.723816,271.608948L272.711945,271.71051L272.709259,271.731079L272.668091,271.991699L272.666077,272.002869L272.566986,272.551849L272.565857,272.558105L272.546387,272.658783L272.621582,272.385193L272.622681,272.381165L272.743713,271.954346L272.74527,271.948975L272.85556,271.575134L272.857574,271.568451L272.956909,271.248291L272.960022,271.238708L273.048645,270.971588L273.053314,270.957947L273.078613,270.888153L273.030945,270.891052L272.970551,270.887482L272.911041,270.87674L272.84436,270.854126L272.841248,270.858856zM275.359314,269.818359L275.321289,269.86557L275.278076,269.907867L275.230225,269.945007L275.178314,269.975861L275.123047,270.000702L275.065125,270.018585L275.005615,270.029785L274.945435,270.033813L274.884827,270.03067L274.825317,270.020386L274.767365,270.003174L274.71167,269.979218L274.704712,269.975189L274.681244,269.97699L274.620605,269.97406L274.561096,269.964233L274.50293,269.947449L274.47699,269.936493L274.461121,269.942749L274.402496,269.95752L274.342346,269.965576L274.335632,269.965576L274.335815,270.006287L274.328918,270.066467L274.315033,270.125305L274.294434,270.182129L274.267151,270.236267L274.233582,270.286591L274.210327,270.315247L274.143219,270.392181L274.134521,270.401123L274.167389,270.411865L274.31369,270.438049L274.483948,270.447205L274.630005,270.440063L274.753052,270.420166L274.85907,270.389282L274.932007,270.356842L275.548096,269.914795L275.47583,269.856628L275.375183,269.793091L275.359314,269.818359zM266.771667,260.500946C266.771667,260.321625,266.718658,260.218079,266.615112,260.187775L266.414337,260.221863C266.204712,260.333008,266.011536,260.382233,265.832214,260.367096C265.952179,260.849426,266.038055,261.304016,266.089813,261.72702C266.357513,261.489624,266.536804,261.277496,266.626465,261.091888C266.722443,260.883545,266.771667,260.686554,266.771667,260.500946zM254.282898,268.59491L254.242188,268.639435L254.196548,268.679016L254.146439,268.713043L254.092529,268.740784L254.070602,268.749054L254.223831,268.766968L254.251129,268.770752L255.614853,269.005646L255.673691,269.019531L255.730515,269.0401L255.784653,269.067383L255.834976,269.100708L255.881287,269.139862L255.922455,269.184174L255.958252,269.232941L255.987991,269.285736L256.011261,269.341644L256.027832,269.399811L256.037415,269.459564L256.03833,269.48349L256.309906,269.233368L256.356689,269.195129L256.407654,269.162689L256.46228,269.136292L256.519531,269.116821L256.578796,269.104065L256.638977,269.09848L256.699402,269.099823L256.730042,269.103394L256.954865,269.136047L257.825073,269.223083L257.829346,269.223328L260.300415,269.491089L260.301086,269.491333L262.338837,269.715027L254.463882,268.646362L254.404587,268.634735L254.346878,268.61618L254.292068,268.590881L254.28804,268.58844L254.282898,268.59491zM261.516052,300.034363L261.494781,300.090942L261.467041,300.144867L261.433044,300.194977L261.393433,300.240601L261.348938,300.281311L261.336853,300.290039L261.359222,300.327393L261.38385,300.38269L261.401733,300.440613L261.412689,300.500122L261.416504,300.562744L261.416504,301.253113L261.501282,301.876587L261.505981,301.936768L261.503296,301.997375L261.493652,302.057129L261.476898,302.115295L261.453613,302.17099L261.423889,302.223785L261.387878,302.272552L261.34668,302.31662L261.298828,302.356873L261.285828,302.366516L261.24939,302.390442L261.310669,302.408997L261.332397,302.416168L261.381165,302.433411L261.437073,302.456909L261.480042,302.480591L261.497009,302.491119L261.546448,302.526001L261.591431,302.566528L261.63147,302.611938L261.665924,302.661804L261.694092,302.715271L261.719177,302.783264L261.842896,303.207428L261.850464,303.240295L261.975525,302.833832L262.037292,302.584167L262.090759,302.340118L262.133698,302.112152L262.164795,301.908569L262.186035,301.72113L262.197693,301.548187L262.199707,301.393829L262.193665,301.272339L262.15271,301.003235L262.075531,300.702332L261.959198,300.366333L261.802856,299.996765L261.631256,299.661011L261.516052,300.034363zM268.626587,300.507263C268.567261,300.671387,268.523041,300.860809,268.492737,301.076721C268.454865,301.365906,268.492737,301.540131,268.603882,301.600739L269.029388,301.790161L269.487762,301.778809C269.986542,301.644958,270.542114,301.29895,271.153259,300.742126L268.928375,299.715515L268.626587,300.507263zM252.811203,270.401825C252.767014,271.153137,252.770798,271.780701,252.822571,272.285767C253.150879,271.765533,253.657211,271.182159,254.342865,270.535645C254.834061,270.0672,255.229279,269.725006,255.527283,269.510345L254.163559,269.275482L253.594086,269.208557L252.934952,269.164368C252.881912,269.32724,252.841507,269.740143,252.811203,270.401825zM276.4617,261.971985L275.298737,268.896667L275.858124,268.663055C276.081604,267.428131,276.293762,266.179321,276.495789,264.916626C276.88974,262.396271,277.021057,261.069153,276.885956,260.935303C276.744537,260.801453,276.576599,260.879761,276.383392,261.170166L276.137177,261.648743L276.4617,261.971985zM269.69989,289.156799C269.982758,289.625244,270.265594,290.137909,270.549713,290.694763L270.828766,290.449799C271.298492,289.981323,271.566162,289.495178,271.633087,288.988831L271.801025,287.037964L271.220184,287.338501C270.765625,287.561981,270.381744,287.662994,270.068604,287.640259L269.69989,289.156799zM268.794525,299.158691C269.352661,298.118225,270.091339,297.039856,271.006805,295.924896L271.667206,295.278381C270.653229,295.880707,269.80722,296.452698,269.12915,296.995667C268.257874,297.678772,267.553284,298.392212,267.017914,299.135956C267.002747,300.214294,267.34494,300.994659,268.045746,301.47699C267.993988,301.143646,268.060913,300.738312,268.246521,300.262268L268.794525,299.158691zM274.125671,293.872986C274.692627,293.76944,275.113129,293.87677,275.388397,294.196228C275.64978,294.501831,275.62326,295.039734,275.310089,295.813782C275.191406,296.110504,275.023468,296.445129,274.807556,296.816345L275.500763,296.3479C275.716705,296.006958,275.91745,295.563751,276.10434,295.022064C276.342987,294.314941,276.465485,293.624237,276.473053,292.947418L275.600525,293.025726C275.243164,292.96637,274.94519,292.809784,274.706512,292.557251L274.404724,293.371704L274.248169,293.561096L274.024658,293.572479C273.004395,292.62796,271.980347,291.937256,270.951233,291.497833L271.745483,293.226501L272.270752,294.519501L272.314972,294.742981L272.84024,294.385651C273.264526,294.125549,273.693848,293.955078,274.125671,293.872986zM252.285919,285.287842L252.207626,283.392517C250.234024,283.830688,248.799591,284.666595,247.905594,285.900269L248.028076,286.881378L248.062164,286.982391C248.240204,287.61377,248.444763,288.219849,248.675842,288.799438C249.019302,288.026672,249.588776,287.447083,250.38681,287.060699C250.975235,286.770264,251.604065,286.621277,252.274551,286.61496L252.253082,285.744965L252.24173,285.309326L252.285919,285.287842zM274.461548,260.778717L274.181244,262.66394L274.036041,260.38855C274.014557,261.623474,273.827698,262.946808,273.477905,264.35849C273.298615,265.042877,273.283447,265.907837,273.432465,266.957153C273.514526,267.550629,273.634491,268.141571,273.791077,268.72998L273.879456,269.063354L273.890808,269.074707L274.036041,269.476257L274.024658,269.063354L274.003204,268.72998L273.969116,268.261536L273.913544,267.045532L274.102966,268.250153L274.169861,268.72998L274.226685,269.063354L274.304993,269.454773C274.318878,269.454773,274.33783,269.324738,274.360535,269.063354L274.38327,268.72998L274.416107,268.395386C274.467865,267.688263,274.505768,267.335968,274.528473,267.335968L274.595398,268.405487L274.606781,268.72998L274.628235,269.063354L274.673706,269.464874L274.729248,269.063354L274.773438,268.72998L274.818909,268.41684L274.964111,267.380157L274.952759,268.450928L274.941376,268.72998L274.930023,269.063354L274.941376,269.521698L275.008301,269.063354L275.053772,268.72998L276.058899,261.939148L275.712891,261.916443L275.388397,263.24353L275.321472,261.570435L275.097961,261.359589L274.796173,262.75235L274.662323,260.969391L274.461548,260.778717zM250.799713,279.768555L250.587585,279.812775L250.553482,279.96933C250.024414,280.801453,249.443573,281.48584,248.810944,282.019958C248.243988,282.503601,247.670731,282.826843,247.088623,282.990997L247.905594,285.443176C248.57608,284.291565,250.006744,283.526367,252.197525,283.146301L252.051056,279.233185C251.55986,279.485718,251.143173,279.663757,250.799713,279.768555zM241.892578,300.49588C241.818085,300.756012,241.940567,300.908783,242.261292,300.952972L251.313629,302.637451C257.177643,303.729675,260.170258,304.265076,260.28894,304.24234L260.825592,304.153931C261.06424,304.131226,261.350891,304.238556,261.685516,304.477203C261.879944,304.618622,262.03653,304.707001,262.155243,304.744904C262.416595,304.528961,262.651459,304.217072,262.859833,303.807953C263.112366,303.339508,263.261353,302.849579,263.306824,302.335632C263.41037,301.184052,263.333344,300.317841,263.07196,299.738251L262.825714,299.147308C262.766388,298.969269,262.441864,298.916229,261.853455,298.990723L261.730957,299.002106L261.908997,299.080383L262.267609,299.782471C262.520142,300.333008,262.665375,300.812836,262.703247,301.220673C262.739868,301.644958,262.66156,302.228333,262.468384,302.972046L262.166595,303.953186C262.218353,304.10849,262.181732,304.22467,262.054199,304.299164L261.685516,304.276428L261.12738,303.907715C260.865997,303.775146,260.665222,303.733459,260.523804,303.785217C260.329346,303.86731,257.387238,303.320557,251.69371,302.14624L242.406509,300.195374C242.145126,300.143585,241.973389,300.243347,241.892578,300.49588zM273.67868,270.759155C273.514526,271.115234,273.235474,272.040802,272.84024,273.534576C272.362946,275.326355,272.150818,276.515839,272.203857,277.102997C273.149597,276.90979,273.940063,276.601685,274.572693,276.177429C275.139648,275.798615,275.336609,275.519562,275.164886,275.341522L275.097961,275.085175L275.097961,275.073822C276.156128,271.483948,276.62204,269.569702,276.495789,269.331024C276.427582,269.204773,276.289948,269.1492,276.081604,269.164368C275.91745,269.179504,275.747009,269.227509,275.567688,269.30957C276.178833,269.658081,276.289948,269.985107,275.902313,270.29068L275.187622,270.803345C274.994415,270.906891,274.759552,270.95993,274.483032,270.95993C274.163574,270.95993,273.894592,270.893005,273.67868,270.759155zM269.197327,299.269806L271.566162,300.351929L271.68866,300.22818C273.529694,298.451569,274.654755,296.808777,275.065125,295.299835C275.191406,294.817505,275.046204,294.519501,274.628235,294.408386C274.278473,294.311157,273.875671,294.356598,273.421082,294.542236C272.70639,294.838959,271.994232,295.381927,271.287109,296.169861C270.303467,297.374481,269.595093,298.39978,269.163239,299.24707L269.197327,299.269806zM273.623138,278.017181C273.056183,278.269745,272.505615,278.359375,271.968994,278.284882L271.667206,279.646088L271.55481,280.191559L270.169617,286.747559C270.951233,286.517731,271.604065,286.250031,272.125549,285.94574C272.960205,285.454529,273.239258,284.9646,272.962738,284.473419L272.929901,284.283997L274.282257,277.661102L273.623138,278.017181zM272.929901,264.213287C273.272095,262.912689,273.451385,261.690399,273.466553,260.545135C273.220337,260.908783,272.311188,261.901276,270.739105,263.522583C269.278168,265.217133,268.511688,266.636414,268.437195,267.781708C269.264252,267.804413,270.206238,267.963531,271.264404,268.261536C271.801025,268.409271,272.248047,268.565826,272.605377,268.72998C272.844025,268.841095,273.041016,268.95224,273.197601,269.063354L273.522095,269.365143L273.36554,269.063354L273.243042,268.72998C273.041016,268.156708,272.907166,267.447083,272.84024,266.599792C272.758179,265.566925,272.788483,264.771393,272.929901,264.213287zM272.091461,270.312164C271.734131,270.118958,271.197479,269.956085,270.481506,269.822235C271.122955,269.770447,271.734131,269.851257,272.314972,270.0672L273.030914,270.379089L273.130676,270.312164C273.168549,270.29068,272.962738,270.15686,272.515747,269.911896C272.047272,269.658081,271.663391,269.483826,271.365417,269.387848C271.819977,269.334839,272.299805,269.447205,272.807404,269.721222L273.443817,270.134125L273.756958,270.055817L273.823883,269.978821L273.477905,269.699738C273.172333,269.46109,272.832672,269.250214,272.460175,269.063354C272.207642,268.937073,271.93866,268.825958,271.655823,268.72998C270.523193,268.342346,269.151886,268.179443,267.543182,268.2388L263.82074,268.495117L263.049225,268.483765L262.825714,268.472412C260.896301,268.391571,258.556519,267.822113,255.807602,266.766479L255.572739,267.012695L256.789978,267.458435L255.292419,267.324585L255.192673,267.43573L256.600586,267.726135L254.990631,267.65921L254.532272,268.139038L272.360413,270.55838C272.515747,270.573547,272.427338,270.491455,272.091461,270.312164zM277.534973,288.187012C277.170074,288.521637,276.853119,288.848694,276.584167,289.168152L276.194,289.703552C275.716705,290.438416,275.298737,291.208679,274.941376,292.010498C275.157318,292.331238,275.508331,292.516846,275.991974,292.568604C276.498291,292.62796,276.793793,292.449921,276.874603,292.033234L276.986969,291.476379C277.046326,291.268036,277.151123,291.11145,277.30011,291.007904C277.426392,290.918274,277.642303,290.889221,277.947906,290.918274L278.574188,290.895538C278.745911,290.858917,278.946686,290.78064,279.177765,290.661926C280.176575,290.149261,281.066772,289.472473,281.848389,288.632751C282.720917,287.680664,283.078278,286.758911,282.921692,285.867432C282.877502,285.577026,282.686829,285.458313,282.352203,285.510101C282.217102,285.525238,281.949402,285.614899,281.5466,285.777771C280.719543,286.09726,279.814178,286.550568,278.830536,287.138977L277.534973,288.187012zM249.055908,275.408447L249.034454,276.634521C249.040771,277.08783,249.082428,277.481812,249.156937,277.816406C249.283203,278.382111,249.626663,278.909912,250.184784,279.399841L250.677231,279.332947C251.175995,279.191498,251.787155,278.906128,252.509415,278.474304L253.783493,277.672485C254.014557,277.538635,254.14209,277.359314,254.163559,277.137085C254.178711,277.010803,254.159775,276.898438,254.108002,276.80246L254.085266,276.791107L253.41478,277.036072C252.990509,277.192657,252.669785,277.270935,252.453857,277.270935L252.163437,277.20401L253.4375,276.71283C254.390854,276.341583,254.849213,275.909729,254.812592,275.4198L254.757034,275.28595L254.711578,275.230408L254.700211,275.219025L253.695099,275.486725C253.046066,275.657196,252.583923,275.743073,252.308655,275.743073C252.144501,275.743073,252.03717,275.716553,251.984131,275.664764C251.962662,275.635742,252.327591,275.494293,253.08017,275.24176C253.840302,274.987946,254.365601,274.832642,254.656021,274.773315C255.06514,274.683655,255.345459,274.601563,255.494461,274.527069C255.672501,274.43869,255.717957,274.341461,255.628296,274.237915C255.546234,274.148254,255.303787,274.077545,254.902252,274.025787L253.918594,273.958862L253.248108,273.947479L251.504303,274.125519L251.492935,274.125519C251.441162,274.125519,251.42601,273.899506,251.447479,273.446198C251.470215,272.992889,251.458847,272.765594,251.414658,272.765594C250.937347,272.914612,250.434784,273.345184,249.905716,274.058594L249.055908,275.408447zM261.887543,253.520691C261.6716,253.461349,261.383728,253.490387,261.026367,253.610352L260.669037,253.742935L260.28894,253.843948L259.27121,253.80986C258.831787,253.750504,258.373413,253.895721,257.8974,254.245483L257.76355,254.345245L257.036224,254.847794C256.723083,254.884415,256.35437,255.077606,255.930084,255.427383L255.38208,255.92868L255.068924,256.274658C254.919922,256.452698,254.789871,256.657257,254.678741,256.888336C254.447678,257.370697,254.291092,257.972992,254.209015,258.694C254.149673,259.229401,254.134521,259.709229,254.163559,260.132233C254.298676,259.856964,254.469131,259.615784,254.678741,259.40744L255.437637,258.82785C255.661133,258.709167,256.008362,258.563934,256.478088,258.393463L256.052582,257.668671C255.918732,257.334076,255.892212,257.07016,255.974289,256.876953C256.094238,256.601685,256.262177,256.389557,256.478088,256.241821C256.776093,256.025909,257.114502,255.974136,257.494568,256.085266L257.718079,256.163544C257.859497,256.2229,258.083008,256.381989,258.38858,256.64209C258.671417,256.880768,258.869659,257.014587,258.980774,257.04364L259.047699,257.066376C259.100739,257.066376,259.410095,256.895905,259.9758,256.553711C260.52002,256.219086,260.919037,256.08905,261.17157,256.163544C261.224609,256.171112,261.280182,256.200165,261.339508,256.251923L261.943085,256.898438L262.300446,257.299988L262.602234,257.512115L262.736084,257.523468L263.07196,257.456543L263.698242,257.423706C263.839691,257.460327,263.992462,257.560089,264.156616,257.724243C264.275299,257.842926,264.439453,258.154816,264.647797,258.661163L264.983704,259.452881C265.214752,259.787506,265.467316,259.994598,265.742584,260.07666C265.952179,260.128448,266.137817,260.110748,266.301941,260.021118C266.637848,259.850647,266.909302,259.571594,267.117676,259.185181C267.326019,258.812683,267.419464,258.456604,267.396729,258.11441C267.375244,257.846741,267.296967,257.597961,267.163116,257.366913C267.110077,257.642181,266.976227,257.824005,266.760315,257.913635L266.022888,257.957855C265.65799,257.861877,265.389008,257.627014,265.217285,257.255768C264.919281,256.631989,264.670532,256.188782,264.468506,255.92868C264.380127,255.802399,264.298035,255.716537,264.223541,255.672348L263.977325,255.572586L263.429291,255.52713L262.9823,255.505676C262.871185,255.467789,262.785309,255.400864,262.725983,255.304901L262.502472,254.679855L262.390106,254.345245C262.225952,253.862885,262.076935,253.5952,261.943085,253.543427L261.887543,253.520691zM273.489288,284.29538C273.816315,284.949463,273.734253,285.626251,273.243042,286.324524C272.825104,286.919281,272.515747,287.208435,272.314972,287.19455L272.292236,289.078491C271.934875,289.948486,271.535858,290.587433,271.096436,290.996552C272.125549,291.40567,273.138245,292.055969,274.137054,292.947418C274.524689,291.906952,275.086609,290.784424,275.824036,289.579803L276.10434,289.168152L276.975616,288.187012C277.385986,287.785492,277.869598,287.376373,278.428986,286.959686C277.556458,285.875,276.562714,284.756256,275.445221,283.603394L273.936279,282.120972L273.489288,284.29538zM243.680573,293.593933L260.535187,297.988159L260.613464,298.020996C261.068054,298.288666,261.377411,298.422516,261.540283,298.422516L261.78653,298.39978L262.680511,298.378326C263.053009,298.445251,263.291656,298.642242,263.396484,298.969269L263.608612,299.493286C263.832092,299.968079,263.988678,300.373413,264.078339,300.708008C264.241211,301.280029,264.298035,301.849487,264.244995,302.41394C264.185669,303.031403,263.925537,303.643799,263.463379,304.253693C264.342224,303.725891,265.705963,302.85968,267.553284,301.656311L267.497742,301.600739C266.998962,301.146179,266.700958,300.541351,266.603729,299.782471L266.235046,300.49588C266.204712,300.585541,266.152954,300.648682,266.078461,300.685303L265.820862,300.652466C265.583466,300.481995,265.2034,300.117065,264.681915,299.560211C264.017731,298.84552,263.417938,298.106842,262.882538,297.340393C262.4646,296.745636,262.044098,296.003174,261.618591,295.110443L261.104645,293.917175C258.168854,295.270813,255.661133,295.496826,253.582718,294.597778C252.501846,294.136902,251.519455,293.449982,250.631775,292.534515L250.006744,291.843811C246.04184,293.002991,243.997513,293.583832,243.86998,293.583832L243.680573,293.593933zM244.138947,294.708893L244.015198,294.641968C244.089691,294.835175,244.152832,295.08139,244.205872,295.378143C244.21344,295.423584,245.122589,295.731689,246.933304,296.303711C248.742767,296.88327,249.651917,297.200226,249.659485,297.251984L246.988861,296.794891C245.200867,296.437561,244.305618,296.288544,244.305618,296.3479L244.272797,296.894653C244.265213,296.953979,245.356186,297.299988,247.546982,297.931335C249.722626,298.556366,250.803497,298.89856,250.788345,298.957916L247.413132,298.366974L244.037918,297.764648L243.747498,298.311401C243.724762,298.355591,245.162994,298.741974,248.062164,299.470581C250.952499,300.206726,252.386932,300.593109,252.364212,300.62973C252.327591,300.68277,250.799713,300.425171,247.781845,299.860748C244.763977,299.296326,243.237366,299.03241,243.199493,299.069031L242.685562,299.637238L251.40329,301.622223L258.266083,303.172821L260.300323,303.239746C260.590729,303.113464,260.940491,303.150085,261.350891,303.350861L261.227142,302.926605C261.220825,302.889984,259.864685,302.555359,257.159973,301.924011L253.10289,300.920166C253.087738,300.860809,254.402222,301.031281,257.047577,301.4328C259.692963,301.841919,261.007416,302.01239,260.99353,301.945465L260.9039,301.287598L260.9039,300.562805C260.911469,300.526184,259.469452,300.113281,256.57785,299.325348C253.695099,298.529846,252.256882,298.11441,252.26445,298.076538C252.272034,298.039917,253.73172,298.340454,256.644775,298.97937C259.559113,299.619568,261.018799,299.920105,261.026367,299.883484L261.30542,298.97937C261.045319,298.912445,260.724579,298.772278,260.344513,298.556366L244.217224,294.698792C244.238693,294.758148,244.21344,294.761932,244.138947,294.708893zM249.693588,268.796906L249.704956,268.807007L249.693588,268.81839L249.201126,269.063354L248.664474,269.420685C246.966141,270.706116,245.502655,272.312286,244.272797,274.237915C242.715866,276.661041,242.324432,278.678864,243.098465,280.292603C243.55304,281.258545,244.450836,282.002289,245.793091,282.522522C246.805771,282.924072,247.942215,282.444244,249.201126,281.08429C249.552155,280.704224,249.84259,280.348145,250.073654,280.013519C249.403168,279.485718,248.963745,278.883423,248.754135,278.206604C248.635437,277.791168,248.57608,277.330292,248.57608,276.823944L248.643005,275.397064C247.517944,275.754425,246.776733,276.366821,246.418121,277.236847C246.373932,277.363098,246.276703,277.430023,246.127701,277.437622C245.978699,277.452759,245.934509,277.38205,245.993851,277.225464C246.269119,276.571381,246.645416,276.006958,247.122711,275.530914C247.651794,275.01825,248.240204,274.687439,248.889236,274.538452L249.760498,273.534576C250.102692,273.163361,250.408279,272.876709,250.677231,272.677216C250.90831,272.505493,251.10907,272.394348,251.280807,272.34259L251.347733,272.319855L251.414658,272.319855C251.548492,272.319855,251.664673,272.367859,251.760635,272.465088L251.884384,272.710052C251.869232,271.067261,251.880585,269.851257,251.917206,269.063354L251.939941,268.72998C251.970245,268.328461,252.010651,268.089783,252.062424,268.015289L252.990509,268.082214L253.884506,268.272888L254.868149,267.056915L254.879517,266.90033L254.085266,267.056915C252.551086,267.399109,251.124237,267.955963,249.804703,268.72998L249.693588,268.796906zM257.55014,256.553711C257.163757,256.441345,256.843018,256.578979,256.589233,256.965363C256.313965,257.374481,256.41748,257.820221,256.902374,258.303833L256.969299,258.4263C256.984436,258.508392,256.938995,258.563934,256.835449,258.594238C256.298798,258.735657,255.892212,258.879608,255.616943,259.028625C255.229279,259.229401,254.916138,259.478149,254.678741,259.776154C254.484283,260.021118,254.342865,260.296387,254.25322,260.600677L254.678741,260.132233L255.515915,259.441528C256.090454,259.106903,256.451599,258.936432,256.600586,258.928864L256.690247,258.938965C256.757172,258.954132,256.789978,258.995789,256.789978,259.062714C256.797577,259.12207,256.76474,259.162476,256.690247,259.185181L256.35437,259.319031L255.651031,259.67511C255.359344,259.831696,255.06134,260.051422,254.757034,260.333008L254.678741,260.411285L254.197662,260.92395L254.174927,261.158813L254.186295,261.158813L254.678741,260.65625C254.938858,260.418854,255.204025,260.225677,255.471725,260.07666C255.829071,259.883484,256.115692,259.779938,256.332886,259.764771L256.388458,259.764771C256.455383,259.787506,256.474304,259.83548,256.444,259.909973C256.421295,259.998383,256.35437,260.057739,256.243225,260.088043C255.997009,260.147369,255.781097,260.229462,255.594208,260.333008L254.678741,261.002228L254.27594,261.32547L254.287308,261.415131L254.455246,261.514893C254.54364,261.604553,254.529755,261.694183,254.40979,261.782593C253.791061,262.02124,253.523376,262.46698,253.605438,263.121063C253.679947,263.759979,254.022141,264.165314,254.633286,264.335785L254.801224,264.381226C254.972961,265.087097,255.200241,265.726013,255.483093,266.299286L255.515915,266.253815C255.605576,266.150269,255.710373,266.123779,255.829071,266.175537L257.851929,266.923065L260.031372,267.558197L260.054077,267.424347C260.098267,267.313232,260.191711,267.280396,260.33313,267.324585L260.378601,267.335968L261.249878,267.7034L261.339508,267.781708L261.30542,267.825897L262.088318,267.938263L263.530304,268.049377L264.032867,267.502625C265.039246,266.291718,265.60495,264.905243,265.732483,263.343292L265.742584,263.121063C265.795624,262.228302,265.687012,261.277496,265.419312,260.266083C265.15036,260.147369,264.90918,259.923889,264.692017,259.596832L264.346008,258.772278C264.137665,258.27478,263.988678,257.976776,263.899017,257.880829C263.84726,257.827789,263.780334,257.791168,263.698242,257.768433L262.882538,257.824005L262.457031,257.791168C262.218353,257.724243,261.943085,257.534851,261.629944,257.222961C261.503662,257.09668,261.339508,257.003235,261.138763,256.943878C260.65387,256.810059,260.136169,256.917389,259.584351,257.267151C259.427795,257.370697,259.245941,257.397217,259.037598,257.345428C258.888611,257.299988,258.70929,257.20401,258.500946,257.055023C258.329224,256.921173,258.038818,256.765839,257.628418,256.586548L257.55014,256.553711zM255.851807,261.671448L255.672501,261.761108C255.546234,261.828033,255.471725,261.891174,255.449005,261.950531L255.38208,262.027557L255.292419,262.027557C255.196457,261.998505,255.169937,261.93158,255.214142,261.828033C255.259598,261.715668,255.345459,261.623474,255.471725,261.548981C255.605576,261.466919,255.714172,261.422699,255.796234,261.415131L255.851807,261.415131C255.911148,261.430298,255.945236,261.474487,255.95282,261.548981C255.95282,261.615906,255.918732,261.656311,255.851807,261.671448zM256.109406,260.600677C256.168732,260.623413,256.201569,260.667603,256.209137,260.734528C256.216736,260.801453,256.168732,260.853241,256.063934,260.891113L255.561371,261.046417L255.181305,261.281281L254.902252,261.426483L254.879517,261.36969C254.879517,261.310333,254.942657,261.221924,255.068924,261.103241C255.181305,260.990875,255.303787,260.894897,255.437637,260.812836C255.647247,260.686554,255.859375,260.615845,256.075287,260.600677L256.109406,260.600677zM264.52533,261.403778L263.373749,261.72702L263.172974,261.682831L263.083313,261.50351L263.060577,261.281281L263.094666,260.969391C263.131287,260.827972,263.183075,260.768616,263.251251,260.7901L263.474762,261.214355L264.536682,261.258545C264.692017,261.317902,264.688232,261.367157,264.52533,261.403778zM263.55304,261.961884C263.597229,262.139923,263.68689,262.266205,263.82074,262.340698L263.887665,262.384888L263.977325,262.429077L264.066956,262.485901L264.301819,262.496002C264.420532,262.46698,264.491241,262.503601,264.513977,262.608398L264.502594,262.730865L264.401581,262.819275L263.977325,262.809174C263.887665,262.94931,263.784119,263.054138,263.664154,263.121063L263.652802,263.132416L263.339661,263.165253L263.272736,263.121063C263.213379,263.061707,263.183075,262.964478,263.183075,262.830627C263.176758,262.660156,263.220947,262.482117,263.318176,262.295227L263.55304,261.961884zM260.445526,261.604553C260.229614,261.715668,260.031372,261.742188,259.853333,261.682831C259.733368,261.853302,259.603302,261.975769,259.461884,262.050262L259.104523,262.084381C258.984558,262.017456,258.921448,261.883606,258.913849,261.682831C258.913849,261.474487,258.973206,261.258545,259.09317,261.036316L259.27121,260.757263C259.331818,260.942871,259.427795,261.072937,259.562897,261.14743L259.886139,261.336853L259.920227,261.348206L260.254852,261.32547C260.35965,261.266144,260.437958,261.281281,260.489716,261.36969L260.512451,261.493408L260.445526,261.604553zM260.501099,260.512299C260.336945,260.340576,260.042725,260.128448,259.618469,259.875885C259.238373,259.653656,259.047699,259.52359,259.047699,259.485718C259.175232,259.418793,259.52124,259.500885,260.088165,259.730682C260.571808,259.931458,260.922821,260.106964,261.138763,260.2547L261.540283,260.233246L261.853455,260.143585C261.898895,260.181458,261.767578,260.348145,261.462006,260.646149C261.156433,260.942871,260.974609,261.08429,260.915253,261.069153L260.77005,260.879761L260.501099,260.512299zM261.998657,261.124725C262.058014,261.14743,262.103455,261.225739,262.132507,261.359589L262.311798,262.352051L262.590851,263.121063L262.837097,263.700623C262.888855,263.84964,262.863617,263.968323,262.758789,264.057983L262.076935,264.62619L261.753693,264.67038L261.540283,264.547913L261.451904,264.436798L261.518829,264.302948L262.065582,263.878662L262.177948,263.723358C262.207001,263.656433,262.214569,263.593292,262.200684,263.533966L261.987305,262.541473L261.887543,261.715668L261.864807,261.336853C261.864807,261.180267,261.905212,261.109558,261.987305,261.124725L261.998657,261.124725zM259.473236,264.012512C259.81543,264.131226,260.080597,264.436798,260.266235,264.926727C260.355865,265.172943,260.415222,265.410339,260.445526,265.641418C260.848328,265.714661,261.379944,265.98233,262.044098,266.443237C262.281494,266.584656,262.573181,266.644012,262.915375,266.622528L263.530304,266.498779L263.675537,266.521515C263.698242,266.58844,263.679321,266.647797,263.619965,266.699554C263.484863,266.811951,263.265137,266.919281,262.959564,267.024078L261.92038,267.001343L261.238495,266.577087C260.881165,266.354828,260.567993,266.179321,260.300323,266.05304C259.748505,265.792938,259.163879,265.570709,258.545166,265.38382L258.52243,265.373718L257.863281,265.395172L257.773651,265.529022L257.639801,265.65152C257.536255,265.681824,257.468079,265.655304,257.439026,265.574493C257.498383,265.395172,257.606964,265.265137,257.76355,265.183044L258.109528,265.106018L258.277466,265.07193C258.306488,264.842102,258.426453,264.592102,258.634796,264.325684C258.888611,264.020081,259.167664,263.916565,259.473236,264.012512zM259.841949,264.771393C259.708099,264.503723,259.551514,264.343353,259.372223,264.291565C259.223236,264.254944,259.078003,264.291565,258.936584,264.40271C258.743408,264.574432,258.649963,264.83075,258.657532,265.172943L259.059082,265.284058C258.97699,265.023956,258.992157,264.808014,259.104523,264.637573L259.293945,264.76004C259.196716,264.930511,259.219421,265.142639,259.36087,265.395172L259.484619,265.440643L260.054077,265.662872L260.031372,265.496185C260.031372,265.265137,259.968231,265.023956,259.841949,264.771393zM248.899338,289.323456C249.428421,290.3349,250.110275,291.252869,250.944916,292.077423C251.779572,292.918396,252.696289,293.583832,253.695099,294.073761C254.678741,294.564941,256.201569,294.605347,258.266083,294.196228L261.060455,293.438629C260.642517,292.813568,260.355865,292.241577,260.19931,291.721344C260.162689,291.579926,260.206879,291.513,260.33313,291.520569C260.468262,291.528137,260.556641,291.591278,260.602112,291.709961L261.675415,294.129333C262.278961,295.400879,262.871185,296.456482,263.452026,297.296204C263.868713,297.906067,264.397797,298.508392,265.039246,299.103119L266.044373,300.017334L266.569641,299.11322L266.581024,299.11322C267.170685,298.221741,267.944733,297.38205,268.90564,296.594116C269.67337,295.947632,270.627991,295.293518,271.766937,294.631866C271.245453,293.249207,270.578735,291.817322,269.766815,290.338684C268.999084,288.956024,268.246521,287.870087,267.509094,287.082153C266.525452,286.041687,265.430695,285.347198,264.223541,284.997437C262.479736,284.49234,260.78772,284.882538,259.148712,286.167969C257.807739,287.23114,256.723083,288.665588,255.895996,290.472534L255.874527,290.528076C255.821503,290.654358,255.721741,290.721283,255.572739,290.728851C255.423737,290.744019,255.38208,290.677094,255.449005,290.528076L256.063934,289.346191L256.264709,288.97876L252.331375,288.432007L252.285919,287.093536C251.593964,287.072052,250.960083,287.208435,250.38681,287.506439C249.634232,287.900391,249.141785,288.498901,248.910706,289.302002L248.899338,289.323456zM264.346008,270.457367L263.798004,270.390442L260.244751,270.000275L257.773651,269.732574L256.891022,269.644196L256.656158,269.610107L256.365723,269.877777L252.923584,272.933533L252.94632,273.513123L253.248108,273.50177L253.918594,273.513123C255.005783,273.513123,255.683868,273.654541,255.95282,273.936127L255.962921,273.947479C256.119507,274.125519,256.161163,274.316193,256.08667,274.516968C256.012177,274.754364,255.74321,274.939972,255.282318,275.073822L255.214142,275.219025L255.24823,275.341522L255.24823,275.385712C255.284851,275.876892,255.047455,276.296112,254.532272,276.645905C254.629501,276.884552,254.640869,277.129517,254.56636,277.38205C254.484283,277.664886,254.30246,277.887146,254.018356,278.05127L253.559982,278.340454L253.057434,278.663696L253.124359,284.907776L253.135712,285.343414L253.158447,287.818329L256.611938,288.376434C257.267303,287.387726,258.0047,286.565704,258.824219,285.911621C259.800293,285.116119,260.829376,284.614838,261.908997,284.406494C264.197021,283.968323,266.279236,284.826965,268.15686,286.982391L268.895569,287.930695L270.605255,279.656189L270.694916,279.221802L270.71637,279.120789C271.753052,274.125519,272.251831,271.587494,272.213959,271.505432C272.169739,271.394287,269.591309,271.048309,264.479858,270.46875L264.346008,270.457367z"/>
</svg>
