<?xml version="1.0" encoding="UTF-8"?>
<svg xmlns="http://www.w3.org/2000/svg" xmlns:xlink="http://www.w3.org/1999/xlink" width="44.599mm" height="59.649mm" viewBox="-197.143951 86.007904 44.598877 59.648758">
    <path transform="matrix(-1,0,0,1,0,0)" style="stroke:none;fill:#000000;fill-rule:evenodd" d="M174.7435,135.549576C174.256073,135.045731,173.895538,134.732971,173.661896,134.612045C173.399139,134.47171,173.249847,134.565018,173.211792,134.891968C173.071457,136.067627,173.165512,137.020096,173.493195,137.747879C173.230453,138.52269,173.310318,139.185547,173.732056,139.73642C173.778336,139.811066,173.788055,139.86705,173.759674,139.904373L174.574799,140.88446C175.005508,141.183044,175.351868,141.332336,175.614609,141.332336C175.895279,141.332336,176.199829,141.168854,176.527527,140.841919C176.696213,140.665009,176.906708,140.524673,177.15976,140.422409C177.777817,140.207428,178.185379,140.016342,178.382446,139.848389C178.578766,139.689392,178.836288,139.357971,179.155029,138.854111C179.361038,139.264664,178.972137,139.973785,177.989075,140.982239C176.883575,142.111633,176.317017,142.727448,176.288651,142.83046C176.214005,143.119339,176.007996,143.423141,175.670593,143.740387L175.192871,144.132263C174.846512,144.412186,174.649445,144.650299,174.603165,144.846619C174.518829,145.210144,174.766647,145.466919,175.347382,145.616211C175.647461,145.700562,175.975143,145.663239,176.331207,145.504242C176.770859,145.30867,177.056747,144.986206,177.188126,144.53833C177.291138,144.165115,177.6987,143.674698,178.410065,143.068573L179.983582,141.583893C180.555359,140.809814,181.037567,140.263412,181.430954,139.946167C182.067673,139.749863,182.864136,138.807098,183.818848,137.117874C184.699661,135.391327,185.205002,134.448563,185.33638,134.289581C185.533447,135.036774,186.198532,135.083054,187.331635,134.429901C188.380402,133.673752,188.876785,133.356506,188.820801,133.47818C188.118393,134.121628,187.766815,134.583679,187.766815,134.863586C187.766815,135.03154,187.846695,135.171875,188.005676,135.283844C188.427429,135.592133,188.849167,135.568237,189.270172,135.213684C189.523224,134.989746,190.267426,133.89769,191.504303,131.937515C191.663284,131.676254,191.776001,131.419479,191.840942,131.167923C191.953659,130.766327,191.91185,130.486404,191.714798,130.327423C191.53714,130.178131,191.054184,130.266953,190.267426,130.593903C189.527695,130.901443,189.158203,131.032059,189.158203,130.985779C189.3172,130.490891,189.382889,129.98703,189.354523,129.47348C189.307495,128.45607,188.834991,127.765602,187.935516,127.401329C188.048233,127.317726,188.366211,127.252045,188.890976,127.205765L190.674988,127.051247C192.482895,126.837013,193.892197,126.351822,194.904373,125.595665C195.625443,125.054489,196.21962,124.018417,196.688385,122.48745C197.203445,120.816895,197.28331,119.332954,196.927261,118.035622C196.842911,117.717636,196.622711,117.545204,196.266647,117.517586C195.910583,117.498924,195.751602,117.717636,195.788925,118.175209C195.873276,119.556885,195.901627,120.433968,195.873276,120.80719C195.723236,122.496407,195.161896,123.724319,194.18779,124.489426C193.156937,125.310524,191.504303,125.852448,189.228363,126.113708L185.940262,126.281654C184.413757,126.533958,182.934296,127.243088,181.501114,128.40979C180.123917,129.520508,179.084854,130.813354,178.382446,132.287598C177.595688,132.642151,177.056747,133.020615,176.766388,133.422195C176.476013,133.814087,176.387192,134.257477,176.499908,134.751633C175.750458,134.938232,175.164505,135.204727,174.7435,135.549576zM177.075409,138.783951L177.047791,138.881729C177.00972,139.05043,176.879089,139.213165,176.654419,139.372162C176.476013,139.493073,176.307312,139.554291,176.148315,139.554291L176.007996,139.554291L176.007996,139.498306C175.951263,139.246002,176.002762,139.017593,176.162506,138.812317L176.218491,138.742157L176.457352,139.078049L176.766388,138.727966L176.808929,138.700348L176.850739,138.727966L176.991058,138.783951L177.075409,138.783951zM173.802231,138.615997L173.844025,138.601822L173.886581,138.630188L174.139618,139.007889L174.350128,138.769775L174.420288,138.713776L174.462097,138.783951C174.584503,138.998932,174.621826,139.237045,174.574799,139.498306L174.560623,139.554291L174.504639,139.554291C174.307571,139.554291,174.115738,139.465454,173.928375,139.287811C173.722351,139.110901,173.600693,138.951904,173.56337,138.812317L173.535004,138.756332L173.802231,138.615997zM176.583496,135.984009C177.6987,135.050949,178.43396,134.556061,178.789261,134.500076L178.845993,134.500076L178.873611,134.54187C179.229675,135.306992,179.295349,136.119125,179.070679,136.978287L178.986328,137.047714C178.930344,137.047714,178.901978,137.01561,178.901978,136.949921C178.864655,136.193771,178.747467,135.601089,178.5504,135.171875L177.511337,135.760086C177.164246,135.936981,176.911942,136.091507,176.752197,136.222137L176.696213,136.278122L176.640228,136.207947L176.570068,136.040009L176.570068,135.998199L176.583496,135.984009z"/>
    <path transform="matrix(-1,0,0,1,0,0)" style="stroke:none;fill:#000000;fill-rule:evenodd" d="M165.401154,86.011604L165.484711,86.023506L165.544098,86.036469L165.623322,86.060005L165.66272,86.073891L165.71814,86.101791L165.806488,86.154823L165.841248,86.178101L165.859894,86.192909L165.957642,86.275169L165.989624,86.305191L166.096741,86.416801L166.117249,86.439812L166.23349,86.58065L166.247253,86.598244L166.372894,86.76844L166.38266,86.782326L166.5177,86.981888L166.524963,86.993126L166.660645,87.20842L167.037415,87.724312L167.431122,87.633987L167.438904,87.632263L168.009949,87.512848L168.051208,87.506371L168.092987,87.50412L168.145752,87.507294L168.431549,87.543137L168.472656,87.550407L168.510498,87.560989L168.563782,87.578705L168.604126,87.594574L168.66272,87.621155L168.691803,87.635834L168.755402,87.671013L168.777496,87.684105L168.846405,87.728012L168.863464,87.739388L168.937653,87.792023L168.951263,87.8022L169.030609,87.863564L169.041718,87.872421L169.126221,87.942513L169.135223,87.95018L169.224884,88.028999L169.232147,88.035484L169.327118,88.123032L169.333191,88.128845L169.433441,88.225121L169.438995,88.230545L169.54425,88.335548L169.548737,88.340042L169.659302,88.453773L169.663147,88.45787L169.778839,88.5802L169.78241,88.584038L169.903442,88.715225L169.906616,88.718658L170.032776,88.858574L170.035553,88.861748L170.159576,89.002197L170.250305,89.096352L170.335602,89.16922L170.420654,89.227936L170.50647,89.274223L170.595062,89.309929L170.688965,89.335716L170.788544,89.351585L170.896179,89.35701L170.96521,89.354362L171.030029,89.346428L171.093231,89.333336L171.153687,89.315086L171.213989,89.291283L171.272552,89.261925L171.332214,89.225555L171.381134,89.190117L171.40625,89.166573L171.424896,89.143692L171.441956,89.115662L171.456116,89.083786L171.468536,89.042664L171.478058,88.990295L171.482819,88.927345L171.481903,88.836487L171.483612,88.794701L171.489441,88.753441L171.499481,88.712845L171.513519,88.673431L171.531494,88.635742L171.553192,88.600037L171.578461,88.566711L171.606873,88.536163L171.638214,88.508522L171.672211,88.484322L171.708588,88.463562L171.746796,88.446632L171.786469,88.43367L171.827332,88.424812L171.868713,88.420052L171.910522,88.419525L171.952179,88.423225L171.993164,88.43116L172.033234,88.443192L172.071838,88.459198L172.108612,88.479034L172.143127,88.502441L172.175262,88.529282L172.200653,88.554939L172.345215,88.714561L172.373108,88.749077L172.496613,88.919144L172.521484,88.957626L172.624115,89.138008L172.644867,89.179794L172.726471,89.370628L172.741669,89.412155L172.781494,89.542282L172.789948,89.574554L172.81958,89.709442L172.825134,89.740784L172.844696,89.880699L172.847748,89.910721L172.857269,90.055389L172.858185,90.083961L172.857666,90.233398L172.85672,90.260109L172.846161,90.414444L172.843628,90.439697L172.822876,90.598785L172.819183,90.621666L172.788361,90.785522L172.780426,90.819901L172.734406,90.985207L172.726715,91.009811L172.672241,91.166916L172.662323,91.192566L172.599243,91.341476L172.586945,91.367928L172.515259,91.508636L172.500732,91.534821L172.482727,91.564445L172.493195,91.571449L172.526642,91.596451L172.555725,91.623161L172.586548,91.654236L172.614441,91.685448L172.62912,91.70462L172.657837,91.74469L172.685455,91.789124L172.711914,91.838188L172.729492,91.874954L172.753723,91.932877L172.765228,91.963959L172.787048,92.030869L172.796295,92.063797L172.830017,92.20623L172.838623,92.255295L172.855927,92.409622L172.858459,92.454056L172.8591,92.620285L172.857513,92.658508L172.841644,92.836777L172.832672,92.893112L172.814148,92.973251L172.807129,92.999695L172.781097,93.085922L172.773682,93.108009L172.740082,93.20005L172.733215,93.217636L172.6922,93.315765L172.685455,93.331108L172.637054,93.434921L172.630859,93.447746L172.574921,93.55764L172.569214,93.568222L172.506012,93.683937L172.50058,93.693588L172.42984,93.815254L172.407104,93.850296L172.380768,93.882828L172.35141,93.912453L172.319153,93.939034L172.284515,93.962311L172.247467,93.981888L172.211639,93.996429L172.242584,94.078819L172.24881,94.096542L172.372711,94.477669L172.378387,94.496582L172.48233,94.877319L172.487091,94.896622L172.571472,95.276962L172.574371,95.291504L172.630981,95.59845L172.633484,95.613388L172.678314,95.919006L172.680298,95.934349L172.713379,96.238777L172.714813,96.254646L172.735992,96.557884L172.736786,96.573753L172.746185,96.875801L172.746307,96.892067L172.743805,97.192795L172.743408,97.209061L172.729095,97.508598L172.727905,97.524734L172.701874,97.823212L172.700134,97.839607L172.662201,98.136765L172.659821,98.152893L172.610077,98.44873L172.607056,98.464859L172.54541,98.759636L172.54184,98.775238L172.468445,99.068825L172.464355,99.084167L172.379181,99.376556L172.37442,99.391502L172.277496,99.682571L172.272339,99.69725L172.163513,99.987267L172.157959,100.001282L172.037323,100.290108L172.031372,100.303726L171.895844,100.597977L171.88855,100.612915L171.744019,100.896057L171.735809,100.911392L171.582275,101.183289L171.573029,101.198761L171.41037,101.459419L171.400177,101.474892L171.228516,101.724304L171.217407,101.739647L171.036774,101.977951L171.024597,101.993294L170.834961,102.220222L170.821869,102.235168L170.623108,102.450989L170.608948,102.465668L170.401215,102.67012L170.386536,102.683876L170.169769,102.87722L170.154022,102.890579L169.928162,103.072678L169.911774,103.085243L169.8414,103.136292L170.221069,103.48687L170.250305,103.516754L170.276367,103.549423L170.294067,103.576134L170.370789,103.70269L170.385742,103.729538L170.448944,103.853851L170.463226,103.885056L170.513092,104.007256L170.525787,104.042961L170.556732,104.144653L170.596405,104.134476L170.637665,104.128128L170.679443,104.126007L170.7211,104.128128L170.76236,104.134476L170.802826,104.14492L170.842102,104.15947L170.879517,104.177849L170.914978,104.199936L170.948029,104.225456L170.978333,104.254288L170.993134,104.270683L172.018036,105.470276L172.034302,105.490509L172.41449,105.997009L172.420319,106.004944L172.792725,106.52626L172.798157,106.534058L173.16275,107.070313L173.167908,107.077988L173.524689,107.628922L173.529602,107.636719L173.878571,108.202599L173.883087,108.210136L174.224274,108.790825L174.228516,108.798233L174.56189,109.39373L174.56601,109.401268L174.891449,110.011711L174.894348,110.017265L175.086639,110.391518L175.08902,110.396011L175.272705,110.764709L175.275085,110.769608L175.450195,111.132889L175.452423,111.137779L175.619049,111.495499L175.621582,111.500793L175.779602,111.852959L175.782135,111.858643L175.931427,112.205261L175.933807,112.211075L176.074646,112.552277L176.077148,112.55835L176.209412,112.89386L176.211517,112.899414L176.246033,112.990799L176.307007,113.145264L176.317444,113.175018L176.359894,113.312546L176.370605,113.355133L176.393768,113.473495L176.399719,113.514885L176.401154,113.536179L176.405121,113.634964L176.404602,113.67675L176.398376,113.727005L176.359497,113.935822L176.356323,113.951553L176.337433,114.034866L176.346954,114.034348L176.388611,114.036194L176.429993,114.042282L176.470459,114.05246L176.509735,114.066742L176.547424,114.084862L176.583008,114.106812L176.61618,114.132072L176.646729,114.160637L176.674103,114.192245L176.698181,114.226364L176.72345,114.272385L176.844177,114.530922L176.847473,114.538193L176.959625,114.790916L176.963074,114.798851L177.066498,115.045624L177.069794,115.053955L177.164612,115.294907L177.16806,115.303894L177.254272,115.539032L177.257843,115.54895L177.335327,115.778122L177.338776,115.788971L177.407532,116.012329L177.410858,116.023705L177.471008,116.241249L177.474213,116.253548L177.525787,116.465141L177.528961,116.47876L177.571808,116.684662L177.574585,116.699341L177.608704,116.8993L177.611084,116.914902L177.636597,117.109039L177.638458,117.125839L177.655365,117.314026L177.656555,117.332535L177.664764,117.51503L177.665161,117.53447L177.664764,117.711021L177.664246,117.732178L177.655121,117.902908L177.653534,117.922218L177.633423,118.121376L177.630768,118.143066L177.599976,118.342491L177.59613,118.363251L177.554749,118.562943L177.55011,118.582916L177.498138,118.783005L177.492584,118.802567L177.429901,119.002792L177.423676,119.020905L177.350555,119.22139L177.343658,119.238846L177.259827,119.439728L177.252563,119.456131L177.158142,119.657272L177.15033,119.673004L177.045197,119.874283L177.037384,119.888565L176.921692,120.09024L176.913757,120.1036L176.787567,120.305542L176.779114,120.318497L176.64212,120.520569L176.634186,120.531815L176.486725,120.734276L176.478668,120.745117L176.320618,120.947853L176.312439,120.957901L176.143677,121.160904L176.135742,121.170288L175.956421,121.373413L175.946625,121.383995L175.732391,121.610268L175.70224,121.639099L175.663879,121.668457L175.401123,121.846062L175.395172,121.850029L175.242157,121.949608L175.219543,121.963226L175.069305,122.047867L175.043518,122.061226L174.89621,122.13105L174.866455,122.143745L174.722168,122.198761L174.682373,122.211716L174.641632,122.220444L174.600128,122.225075L174.565613,122.225739L174.052765,122.213837L174.011108,122.210793L173.969849,122.203522L173.929626,122.192146L173.890869,122.176674L173.853729,122.157501L173.818817,122.134621L173.788788,122.11042L173.736023,122.063736L173.706146,122.034515L173.670044,121.989288L173.630615,121.932281L173.608551,121.896713L173.584991,121.846062L173.55896,121.778488L173.545868,121.738815L173.536469,121.694778L173.524048,121.616615L173.519806,121.579193L173.517426,121.544281L173.515961,121.54454L173.494812,121.546921L173.422333,121.553268L173.380676,121.554855L173.347748,121.553009L173.280182,121.546661L173.23877,121.54071L173.199371,121.530922L173.13681,121.512009L173.097412,121.497864L173.058807,121.479347L173.001007,121.447876L172.965424,121.426056L172.93396,121.402252L172.881195,121.358208L172.850525,121.32991L172.81427,121.28746L172.767731,121.224777L172.744598,121.189995L172.725006,121.153091L172.709259,121.11409L172.683228,121.039101L172.671448,120.999031L172.66391,120.957901L172.661133,120.929337L172.655701,120.842194L172.655182,120.8004L172.659546,120.754639L172.674225,120.658371L172.627808,120.65731L172.549652,120.649902L172.50827,120.643951L172.467804,120.633636L172.436462,120.622795L172.365692,120.594757L172.327759,120.577438L172.291656,120.556274L172.265076,120.537369L172.201721,120.488297L172.169983,120.46106L172.141266,120.430771L172.121185,120.40538L172.105042,120.383301L172.082153,120.348389L172.062866,120.311356L172.049225,120.277496L172.039307,120.249466L172.027283,120.209396L172.017761,120.153717L172.014313,120.119995L172.012207,120.078209L172.013275,120.049118L172.016052,120.009705L172.023041,119.957077L172.032166,119.911842L172.041687,119.87442L172.057037,119.823502L172.066956,119.794411L172.088776,119.737679L172.097382,119.716919L172.125397,119.654358L172.133728,119.636902L172.168274,119.568665L172.175018,119.55584L172.215729,119.481918L172.221558,119.471733L172.268494,119.391983L172.2742,119.382736L172.327606,119.297165L172.332367,119.289627L172.392151,119.19838L172.396118,119.192429L172.462097,119.095367L172.465942,119.089813L172.538269,118.987053L172.541718,118.982162L172.620544,118.873589L172.628082,118.863541L173.22345,118.094002L173.083801,117.845917L173.057617,117.789841L172.994141,117.622551L172.984619,117.59465L172.937653,117.437935L172.929077,117.403816L172.898529,117.257416L172.892029,117.216293L172.877747,117.080612L172.87616,117.061829L172.852234,116.657951L172.851959,116.616165L172.855804,116.574509L172.863861,116.533508L172.876038,116.493576L172.892181,116.454956L172.904327,116.432602L172.890442,116.422684L172.858978,116.395309L172.830414,116.364761L172.805145,116.331573L172.785858,116.300629L172.441071,115.687408L172.075562,115.096535L171.680145,114.512146L171.457703,114.210098L171.444885,114.284813L171.402832,114.56517L171.372131,114.813004L171.353485,115.018509L171.341858,115.329948L171.338165,115.371605L171.330353,115.412598L171.318329,115.452667L171.302307,115.491287L171.282623,115.528046L171.259216,115.562698L171.232361,115.594704L171.209076,115.617981L171.168365,115.655533L171.189514,115.671143L171.220581,115.699043L171.248749,115.729988L171.273499,115.76358L171.294769,115.799545L171.312378,115.837509L171.325989,115.877045L171.33551,115.917648L171.341858,115.976364L171.401642,117.592392L171.401093,117.634186L171.39621,117.675583L171.38736,117.716446L171.374268,117.756119L171.35733,117.794334L171.336578,117.830566L171.318848,117.855301L171.341187,117.884399L171.363159,117.919968L171.381256,117.957527L171.395538,117.996803L171.405853,118.037399L171.411957,118.078659L171.413788,118.119659L171.411285,118.853088L171.410889,118.869621L171.379272,119.596176L171.378235,119.612839L171.317535,120.332779L171.315796,120.349579L171.226135,121.062904L171.223633,121.079964L171.104736,121.786423L171.101563,121.803215L170.953857,122.503052L170.94989,122.519852L170.773071,123.212952L170.768585,123.229477L170.562683,123.915833L170.558319,123.929321L170.4328,124.300926L170.429504,124.310181L170.296997,124.673599L170.293427,124.683121L170.1539,125.038193L170.149933,125.047981L170.003418,125.394859L169.999054,125.404648L169.84552,125.743195L169.840881,125.753113L169.680328,126.083458L169.675293,126.093506L169.507874,126.415527L169.502472,126.425705L169.327911,126.739532L169.322083,126.74971L169.140625,127.055191L169.134277,127.065384L168.945831,127.362671L168.93924,127.372711L168.743896,127.661804L168.736755,127.672119L168.534424,127.952881L168.526886,127.962936L168.317535,128.235489L168.309601,128.245529L168.093262,128.509766L168.08493,128.519684L167.861572,128.775696L167.852966,128.785233L167.622742,129.033051L167.592712,129.062286L167.560059,129.088196L167.52475,129.110687L167.487457,129.129593L167.448425,129.144531L167.408234,129.155518L167.366974,129.162262L167.325317,129.164902L167.302032,129.163971L167.326233,130.122498L167.326355,130.128571L167.337067,131.127686L167.337067,131.133499L167.333374,132.145584L167.333374,132.15126L167.315521,133.176559L167.315399,133.182236L167.283264,134.220642L167.28299,134.225922L167.236694,135.277267L167.23645,135.282684L167.175751,136.347137L167.175476,136.352173L167.100616,137.429825L167.095612,137.471344L167.092682,137.484436L167.116241,137.502167L167.299652,137.620911L167.303619,137.623566L167.490875,137.747879L167.495239,137.750793L167.674164,137.872849L167.678528,137.875885L167.849396,137.995697L167.856934,138.001129L168.17392,138.234268L168.185028,138.242737L168.464478,138.463196L168.631378,138.590668L168.634674,138.593185L168.79007,138.714447L168.793884,138.717499L168.937775,138.83255L168.942017,138.835983L169.074249,138.94455L169.07901,138.948532L169.199768,139.050751L169.205566,139.055786L169.314819,139.151794L169.321564,139.157867L169.419159,139.247528L169.426422,139.254425L169.512634,139.337585L169.522949,139.347778L169.684967,139.515472L169.70282,139.535309L169.837189,139.693726L169.857941,139.720184L169.964783,139.869217L169.98819,139.905991L170.067535,140.045776L170.092285,140.097198L170.144104,140.227737L170.157471,140.267273L170.165131,140.298889L170.189484,140.420151L170.195679,140.461411L170.197418,140.513519L170.194092,140.625534L170.190796,140.667175L170.183258,140.708313L170.177032,140.731323L170.146362,140.834213L170.132477,140.873627L170.114502,140.911316L170.08606,140.957062L170.027069,141.039185L170.001038,141.071854L169.971802,141.101608L169.94693,141.122894L169.859802,141.191406L169.825684,141.215485L169.781219,141.239929L169.665771,141.294556L169.627167,141.310547L169.602448,141.318359L169.458679,141.35936L169.410278,141.370071L169.238251,141.39743L169.201477,141.401672L169.001251,141.415298L168.972687,141.416229L168.744049,141.415955L168.722473,141.415436L168.465668,141.401672L168.455475,141.401016L168.123688,141.374969L168.110321,141.373642L167.787903,141.337799L167.773743,141.335953L167.46048,141.29007L167.445526,141.287689L167.141632,141.23175L167.126282,141.228577L166.831787,141.162704L166.815643,141.158737L166.530396,141.082825L166.513855,141.078064L166.237854,140.992111L166.220673,140.98642L165.954071,140.890411L165.935547,140.883148L165.760864,140.810547L165.743652,140.803009L165.571198,140.721939L165.554413,140.71347L165.384216,140.62381L165.368225,140.614944L165.200256,140.516693L165.185333,140.507568L165.019623,140.40097L165.005066,140.391052L164.841614,140.275742L164.828125,140.265961L164.666931,140.142181L164.654358,140.131989L164.49527,139.999603L164.463135,139.969864L163.570465,139.050491L163.552612,139.078918L163.514008,139.126266L163.464417,139.178497L163.434143,139.207336L163.401062,139.232849L163.365631,139.255066L163.332031,139.271729L163.265381,139.301224L163.226379,139.316162L163.186035,139.327148L163.132202,139.33522L163.048492,139.342087L163.006714,139.343414L162.951172,139.338516L162.850128,139.322784L162.809143,139.314316L162.785736,139.307449L162.667633,139.268951L162.625183,139.252426L162.490021,139.191193L162.461334,139.176788L162.30899,139.092941L162.286896,139.079849L162.138519,138.985687L162.119232,138.972733L161.989868,138.880035L161.967133,138.862579L161.856842,138.771317L161.830658,138.74765L161.739288,138.657852L161.709259,138.624939L161.636932,138.536591L161.604401,138.490967L161.551086,138.404083L161.531128,138.367432L161.519745,138.341644L161.485504,138.256104L161.472015,138.216553L161.462738,138.177399L161.447266,138.093292L161.441467,138.046219L161.429565,137.868484L161.429962,137.808182L161.440277,137.678436L161.443176,137.652008L161.462494,137.518692L161.466705,137.494354L161.495026,137.357224L161.500183,137.335266L161.537354,137.194565L161.543304,137.174332L161.589447,137.029922L161.595673,137.011658L161.650665,136.863678L161.657166,136.847549L161.721039,136.69574L161.727783,136.680527L161.800629,136.525131L161.820343,136.488251L161.843475,136.453583L161.870209,136.421326L161.899963,136.391968L161.932495,136.365921L161.967529,136.34317L162.004822,136.324127L162.041199,136.309723L162.019775,136.276642L162.000854,136.239349L161.985657,136.20047L161.974548,136.160141L161.968597,136.127472L161.96051,136.069809L161.947968,136.015076L161.927979,135.948944L161.894012,135.85585L161.752625,135.478424L161.747223,135.462814L161.098816,133.494873L161.035736,133.707397L161.032684,133.717438L160.943695,133.991852L160.93985,134.00322L160.850464,134.25383L160.845306,134.267456L160.755249,134.494247L160.748749,134.50972L160.658447,134.712723L160.649323,134.731888L160.558319,134.91095L160.546173,134.933044L160.454926,135.088287L160.437195,135.115936L160.345276,135.247253L160.320282,135.279388L160.227966,135.386902L160.191223,135.424591L160.098389,135.508301L160.065979,135.534622L160.045074,135.549042L159.951843,135.608948L159.915619,135.6297L159.87674,135.647034L159.783112,135.682999L159.743439,135.695953L159.688019,135.70694L159.593872,135.719101L159.552216,135.722412L159.49057,135.719498L159.395905,135.707855L159.354767,135.700592L159.301605,135.684723L159.206512,135.649139L159.168182,135.632614L159.141327,135.617935L159.053772,135.566223L159.008423,135.535278L158.924164,135.469025L158.888062,135.437027L158.807129,135.356354L158.77832,135.324478L158.700806,135.229263L158.679138,135.200043L158.60495,135.090408L158.588287,135.063568L158.517395,134.939255L158.504822,134.915451L158.437378,134.776855L158.427734,134.755692L158.363586,134.602554L158.357635,134.587341L158.277771,134.373245L158.271423,134.355255L158.198669,134.12886L158.193787,134.112457L158.12793,133.873886L158.123962,133.85788L158.065369,133.60701L158.062195,133.592743L158.010498,133.329697L158.008118,133.315811L157.963684,133.040482L157.961823,133.028183L157.924255,132.74054L157.922943,132.728775L157.892517,132.428986L157.891998,132.423157L157.820465,131.6035L157.819397,131.589478L157.806702,131.350388L157.806183,131.332535L157.804047,131.114197L157.804443,131.093033L157.812653,130.895599L157.814514,130.869675L157.833008,130.69313L157.843597,130.634018L157.870453,130.529007L157.886963,130.478226L157.931793,130.365952L157.949646,130.327332L158.01236,130.207794L158.029419,130.178162L158.109955,130.051331L158.12384,130.030838L158.422302,129.617844L158.509979,129.469604L158.577972,129.341583L158.621735,129.243332L158.64328,129.177994L158.65097,129.141495L158.652008,129.128143L158.089569,128.941544L158.05069,128.926453L158.01355,128.907425L157.97229,128.88031L157.954956,128.86734L157.922821,128.840637L157.893585,128.810883L157.867401,128.778214L157.854828,128.759705L157.841339,128.738678L157.820587,128.702438L157.80365,128.664215L157.796265,128.643723L157.786743,128.614502L157.775879,128.574158L157.771271,128.549042L157.765564,128.511871L157.761078,128.465195L157.759369,128.419968L157.759369,128.387833L157.761475,128.334534L157.763184,128.310333L157.769287,128.24884L157.771515,128.230331L157.781586,128.160889L157.783813,128.147278L157.797699,128.069641L157.799835,128.05867L157.817535,127.973114L157.819519,127.963852L157.841217,127.870087L157.843201,127.862152L157.868866,127.76046L157.870453,127.754379L157.899933,127.644485L157.901398,127.638794L157.934845,127.520828L157.93631,127.516075L157.973724,127.390045L157.974915,127.38607L158.016174,127.251976L158.034698,127.203178L158.308716,126.597893L158.327759,126.56073L158.358826,126.514709L158.419006,126.437347L158.457214,126.39476L158.518311,126.335388L158.549652,126.307747L158.576782,126.28804L158.639191,126.246384L158.675171,126.22496L158.723175,126.203278L158.786499,126.179474L158.826324,126.166779L158.867188,126.158173L158.892975,126.154999L158.957489,126.148926L158.999298,126.147064L159.040955,126.149445L159.069916,126.153687L159.135498,126.165588L159.176239,126.17511L159.2146,126.188995L159.174927,125.984276L159.173981,125.979118L159.053253,125.310356L159.052185,125.304932L158.941498,124.641983L158.940704,124.636429L158.840057,123.979172L158.839264,123.973618L158.748688,123.322182L158.747894,123.31636L158.667358,122.670609L158.666687,122.664795L158.61142,122.163055L157.868713,122.130653L157.827057,122.126686L157.786194,122.118622L157.751678,122.108307L157.015747,121.85347L157.291199,123.56472L157.336304,123.767059L157.341583,123.79509L157.472931,124.662491L157.476501,124.694748L157.485352,124.818268L157.486267,124.836784L157.489197,124.945755L157.489197,124.969955L157.486145,125.064514L157.483765,125.096779L157.474915,125.176788L157.467102,125.223206L157.452148,125.288666L157.440796,125.328873L157.432068,125.35228L157.411285,125.40332L157.393585,125.441147L157.361816,125.491791L157.334991,125.528427L157.308655,125.560822L157.279175,125.590454L157.232635,125.626816L157.199829,125.648903L157.164124,125.670456L157.126312,125.688309L157.094177,125.699951L157.049988,125.713966L157.009674,125.724548L156.954773,125.732216L156.908905,125.735519L156.867096,125.73645L156.815796,125.731689L156.768188,125.724281L156.727325,125.71582L156.689362,125.703918L156.640045,125.685799L156.601563,125.669403L156.580399,125.658295L156.529205,125.629593L156.484528,125.600632L156.43161,125.561218L156.399612,125.534637L156.345001,125.48465L156.32106,125.460983L156.264587,125.400146L156.247131,125.38018L156.18895,125.308769L156.17572,125.29158L156.115692,125.20945L156.105103,125.194107L156.043488,125.101273L156.035675,125.089241L155.972076,124.985825L155.965195,124.974182L155.899994,124.859924L155.895111,124.850937L155.827911,124.726097L155.823303,124.717239L155.754517,124.58168L155.750946,124.574539L155.730453,124.532089L155.700165,124.547165L155.661819,124.563965L155.622009,124.57666L155.581146,124.585388L155.539627,124.589882L155.515961,124.590546L155.384644,124.590546L155.342834,124.588425L155.301575,124.582077L155.261902,124.571899L155.177795,124.545715L155.132843,124.528786L155.050186,124.49202L155.008789,124.470734L154.927734,124.423126L154.893219,124.400513L154.813599,124.342316L154.783981,124.318512L154.705963,124.249619L154.682159,124.226738L154.605438,124.147263L154.585342,124.124771L154.510223,124.034584L154.493958,124.013824L154.420303,123.912918L154.407211,123.894012L154.335007,123.782532L154.324295,123.764938L154.25354,123.642746L154.244553,123.62648L154.175385,123.493576L154.168243,123.479156L154.162018,123.465927L154.15448,123.468582L154.11377,123.478226L154.072357,123.48378L154.030579,123.485107L154.003067,123.483521L153.896484,123.474258L153.855087,123.468582L153.821228,123.46064L153.721786,123.432869L153.682114,123.419647L153.647461,123.404175L153.555023,123.357758L153.518799,123.337128L153.490479,123.317551L153.40506,123.252625L153.373184,123.225647L153.353882,123.206467L153.275589,123.123016L153.238297,123.076996L153.167023,122.975037L153.140839,122.932327L153.076691,122.811714L153.059235,122.774551L153.002228,122.635559L152.994293,122.61441L152.880707,122.287491L152.873444,122.264481L152.77742,121.925278L152.771729,121.902794L152.693314,121.551422L152.689087,121.529732L152.628113,121.165924L152.625076,121.144897L152.581833,120.768921L152.580109,120.749222L152.554199,120.360947L152.553406,120.342041L152.545074,119.941467L152.545074,119.923752L152.554199,119.51088L152.554993,119.491302L152.574554,119.210678L152.578522,119.175903L152.624542,118.880463L152.63063,118.849518L152.703491,118.539276L152.710632,118.512695L152.810349,118.1875L152.824631,118.148224L152.842743,118.110535L152.864563,118.074959L152.889954,118.041763L152.918518,118.011353L152.950012,117.983841L152.984131,117.959778L153.02063,117.939278L153.058838,117.922485L153.098648,117.909653L153.139511,117.900925L153.167282,117.897888L153.154327,117.86496L153.141098,117.825279L153.131836,117.784546L153.126816,117.743027L153.126022,117.7052L153.137924,117.170799L153.140961,117.129013L153.15036,117.078888L153.170319,116.99968L153.22467,116.670914L153.225861,116.664032L153.291199,116.307373L153.292389,116.301025L153.365509,115.934311L153.366837,115.928223L153.447769,115.55159L153.448959,115.545898L153.537842,115.159218L153.539032,115.15406L153.635559,114.757324L153.636887,114.752434L153.741226,114.345642L153.742416,114.341019L153.854431,113.924316L153.856812,113.915718L154.05014,113.2537L154.052673,113.245369L154.257248,112.596046L154.260025,112.587708L154.475586,111.950958L154.478485,111.942352L154.705292,111.318161L154.708588,111.309433L154.946503,110.697929L154.950073,110.689201L155.199097,110.090393L155.202927,110.081406L155.463058,109.495163L155.467285,109.486038L155.738525,108.912621L155.743942,108.901512L156.016769,108.367111L156.023117,108.355339L156.317627,107.821869L156.323837,107.81076L156.639771,107.277939L156.646393,107.267227L156.984131,106.735077L156.990631,106.725159L157.349792,106.193794L157.356415,106.184273L157.737152,105.653839L157.743896,105.644844L158.146301,105.115067L158.152924,105.106606L158.576904,104.577759L158.582458,104.570885L158.742615,104.379654L158.749878,104.371193L158.92099,104.177719L158.927887,104.170181L159.109711,103.974586L159.11618,103.967712L159.308868,103.769745L159.315216,103.763397L159.518616,103.563309L159.524567,103.557617L159.738678,103.355286L159.744354,103.349991L159.969299,103.145279L159.974854,103.140259L160.21051,102.933426L160.243317,102.907501L160.278503,102.885025L160.315796,102.866241L160.354797,102.851303L160.395142,102.840324L160.436401,102.83358L160.478058,102.830933L160.519836,102.83252L160.545898,102.836227L160.54776,102.804085L160.552246,102.762558L160.560974,102.721695L160.573792,102.681892L160.590454,102.643677L160.610962,102.607178L160.635162,102.573059L160.662537,102.54158L160.694794,102.511429L160.863403,102.370193L160.865265,102.368736L161.025696,102.235962L161.027924,102.234116L161.180145,102.109932L161.182648,102.107819L161.326813,101.992104L161.32959,101.989853L161.465393,101.882736L161.468689,101.880219L161.596466,101.78157L161.600281,101.778656L161.719696,101.688599L161.724457,101.685028L161.835815,101.603569L161.870728,101.580688L161.907745,101.561378L161.946625,101.545906L161.986847,101.534531L162.027954,101.52713L162.069611,101.524086L162.104279,101.525009L161.824829,101.193741L161.809906,101.174957L161.504669,100.76725L161.491577,100.748734L161.201294,100.312721L161.189789,100.294472L161.040771,100.043205L160.95401,100.040558L160.927551,100.038841L160.808136,100.027603L160.781036,100.024162L160.666382,100.005646L160.637543,99.999962L160.527649,99.974045L160.497375,99.965714L160.39209,99.932251L160.361816,99.92128L160.261444,99.880547L160.230896,99.866661L160.135132,99.81839L160.10553,99.801857L160.014526,99.746185L159.986237,99.727272L159.900024,99.664192L159.873688,99.643166L159.792236,99.572678L159.767914,99.549934L159.691193,99.471909L159.670288,99.448898L159.598236,99.363602L159.579041,99.339264L159.511871,99.246429L159.496124,99.222885L159.433594,99.12265L159.420105,99.099373L159.362305,98.99173L159.351074,98.969109L159.298035,98.853928L159.287598,98.829063L159.241974,98.710045L159.232849,98.68399L159.196869,98.567352L159.188934,98.537598L159.162872,98.42347L159.156921,98.391602L159.140533,98.280113L159.136963,98.245598L159.130219,98.136497L159.129547,98.098679L159.132721,97.992218L159.13562,97.953995L159.148468,97.849922L159.155334,97.81012L159.178101,97.708679L159.18866,97.670731L159.221069,97.571678L159.235229,97.534515L159.277405,97.43811L159.294189,97.403854L159.346161,97.30983L159.365356,97.278625L159.427094,97.187111L159.447723,97.159203L159.467957,97.134079L159.452881,97.117943L159.427643,97.084747L159.405823,97.049042L159.387695,97.011353L159.373535,96.972076L159.363495,96.93148L159.359802,96.909927L159.3479,96.82621L159.344055,96.784683L159.34433,96.763657L159.325928,96.734833L159.307159,96.697403L159.292358,96.658394L159.277802,96.599014L159.230072,96.313759L159.225159,96.272232L159.22464,96.230446L159.228333,96.188919L159.236145,96.147797L159.248047,96.107857L159.252014,96.098602L159.236267,96.06739L159.221344,96.028381L159.21048,95.988045L159.203735,95.946777L159.201508,95.887405L159.203491,95.824852L159.177948,95.812553L159.142395,95.790733L159.109039,95.765472L159.078491,95.737045L159.050995,95.705566L159.026794,95.671448L159.006287,95.635078L158.984222,95.582314L158.871277,95.248924L158.864929,95.228561L158.763763,94.869644L158.759003,94.851265L158.669617,94.467224L158.666046,94.450165L158.588806,94.04113L158.585907,94.023941L158.52597,93.612122L158.523468,93.590965L158.487091,93.199257L158.485657,93.175453L158.472687,92.803848L158.472565,92.777L158.483124,92.425354L158.485107,92.39547L158.519226,92.063934L158.523987,92.031265L158.581543,91.719696L158.589722,91.684258L158.670654,91.392792L158.683105,91.354965L158.787567,91.083603L158.800659,91.053314L158.943085,90.756294L158.951294,90.740028L159.103882,90.45491L159.113403,90.438248L159.276489,90.164894L159.287048,90.148102L159.460419,89.886917L159.469421,89.873825L159.593994,89.700974L159.605225,89.686165L159.72876,89.530121L159.741852,89.514381L159.864044,89.374863L159.880981,89.356613L160.002228,89.233887L160.022461,89.214844L160.142426,89.10878L160.167664,89.08802L160.28656,88.998627L160.317505,88.9776L160.435089,88.904861L160.473572,88.883705L160.5065,88.867836L161.151306,88.073174L161.154877,88.068939L161.302612,87.891861L161.322968,87.869118L161.474518,87.71254L161.49884,87.689529L161.653992,87.553314L161.68335,87.529778L161.842285,87.414063L161.876556,87.391579L162.039215,87.296234L162.078491,87.276001L162.244843,87.201149L162.288635,87.184357L162.458679,87.129997L162.5047,87.118095L162.667633,87.086098L163.680115,86.822395L163.729553,86.803223L163.790802,86.772934L163.856659,86.733528L163.930176,86.68222L164.244385,86.438751L164.270325,86.420242L164.393036,86.339439L164.408905,86.329521L164.526733,86.25943L164.546173,86.248451L164.659241,86.189209L164.681854,86.17823L164.790039,86.1297L164.817535,86.118591L164.920837,86.080902L164.953217,86.070587L165.051605,86.04361L165.090637,86.034882L165.184265,86.018745L165.229767,86.013458L165.318359,86.008163L165.360138,86.007904L165.401154,86.011604zM162.496765,101.959442L162.506561,101.952957L162.496643,101.943176L162.494934,101.941322L162.496765,101.959442zM167.331512,104.2929L167.311432,104.297661L167.121246,104.338394L167.124969,104.374763L167.124969,104.41655L167.12085,104.458206L167.112915,104.496826L167.14679,104.48307L167.274139,104.421181L167.408356,104.346725L167.529358,104.266983L167.581879,104.22612L167.331512,104.2929zM171.954544,91.980469C171.771667,92.154388,171.585052,92.257401,171.394714,92.289497C171.656708,92.732887,171.882889,93.172546,172.073227,93.607727C172.27179,93.275558,172.39122,93.006088,172.430786,92.800072C172.462875,92.554489,172.450943,92.341003,172.394958,92.158867C172.339722,91.968521,172.259842,91.873726,172.15683,91.873726C172.093384,91.873726,172.026199,91.908806,171.954544,91.980469zM174.49173,117.868851C174.125977,117.662827,173.951294,117.223175,173.967728,116.549873L173.264572,116.633476L173.288452,117.037308C173.296661,117.211227,173.348175,117.413513,173.44371,117.643425L173.717667,118.130112L172.954788,119.116165C172.518112,119.710342,172.351654,120.058937,172.454666,120.161949C172.613663,120.32019,172.851776,120.256744,173.169769,119.971603L173.729599,119.425201C173.760956,119.409523,173.772903,119.413254,173.764694,119.437141L173.800522,119.437141C173.808731,119.484917,173.657944,119.737961,173.348175,120.197777C173.062286,120.60907,172.994354,120.89048,173.145874,121.041267C173.280243,121.175629,173.466858,121.175629,173.705719,121.041267L174.229721,120.637436L174.205841,120.613548C174.031174,120.470978,173.963242,120.221664,174.003555,119.864861L174.241669,118.842972L174.49173,117.868851zM176.671371,116.930565C176.766907,117.207497,176.719131,117.741959,176.528793,118.533936C176.282471,119.555832,175.833847,120.229126,175.18219,120.553833C174.832855,120.7285,174.555176,120.775528,174.348419,120.696411L174.301392,120.791206L173.991608,121.302521C173.935623,121.357758,173.916214,121.44136,173.9319,121.551834C173.939362,121.663055,173.983398,121.745911,174.062515,121.801147L174.575333,121.813095C174.765686,121.749649,174.964233,121.646637,175.170258,121.504059L175.432999,121.326408L175.647232,121.100235C176.631805,120.01564,177.164017,118.942245,177.243149,117.880798C177.314804,116.985802,177.016968,115.841492,176.34964,114.447128C176.03241,115.374214,175.500183,115.991531,174.753738,116.30056L174.384247,116.43119C174.35289,116.795456,174.420074,117.085083,174.58728,117.298561L174.861221,117.512794L175.051575,117.59565L174.705963,118.973602C174.483521,119.749908,174.416336,120.173889,174.503677,120.244804C174.567123,120.284363,174.72612,120.244804,174.979904,120.126114C175.512131,119.864861,175.869675,119.286362,176.051819,118.391365C176.115265,118.106224,176.16304,117.623268,176.195129,116.942505C176.202591,116.823074,176.274261,116.764107,176.409363,116.764107C176.544464,116.771568,176.631805,116.827553,176.671371,116.930565zM158.684906,126.768036L158.41095,127.373405C158.180298,128.110153,158.116852,128.502029,158.219864,128.549805L158.863297,128.76329C159.046188,128.874512,159.105896,129.048431,159.04245,129.28656C159.010345,129.413452,158.919281,129.599319,158.767761,129.844894L158.458725,130.272614C158.339294,130.446533,158.267639,130.601044,158.243744,130.73616C158.212402,130.957855,158.207916,131.234787,158.231812,131.567703L158.303467,132.387299C158.375122,133.203186,158.522171,133.888412,158.744614,134.443024C158.911072,134.870743,159.113358,135.143951,159.351486,135.262634C159.859818,135.515686,160.34874,134.751312,160.816772,132.969543C160.150177,130.807068,159.609756,128.700592,159.19696,126.648598C159.014084,126.498566,158.843903,126.538124,158.684906,126.768036zM161.853577,138.018524C161.869263,138.240967,162.087219,138.478333,162.508224,138.731384C162.937424,138.985184,163.183762,138.997131,163.247208,138.767212C163.271088,138.696304,163.326324,138.62912,163.413666,138.565674L163.663727,138.553741L164.759521,139.682373C165.180511,140.046631,165.625397,140.319824,166.094162,140.501968C166.792847,140.771439,167.590805,140.933411,168.488037,140.98941C169.210602,141.044647,169.631592,140.953568,169.751022,140.716202C169.869705,140.454193,169.695038,140.094406,169.226273,139.634583C169.012039,139.421112,168.674652,139.139694,168.214081,138.791107C167.856537,138.497742,167.412399,138.181259,166.880173,137.840881L166.832413,137.805038L166.760742,137.840881C165.998627,138.205139,165.188721,138.272324,164.331055,138.042419L163.74733,137.840881C163.167328,137.587082,162.643326,137.207138,162.174561,136.700287C161.968536,137.119797,161.857315,137.499756,161.841644,137.840881L161.853577,138.018524zM158.708786,121.754128C158.93869,121.690674,159.010345,121.579453,158.923019,121.421204L158.827469,121.314468C158.796127,121.290573,158.720734,121.251022,158.601303,121.195778C158.243744,121.029327,157.938446,120.838974,157.683914,120.625488C157.47789,120.45903,157.298737,120.232864,157.147964,119.947716C156.735168,120.170158,156.115616,120.201508,155.290039,120.043259C154.821274,119.955925,154.392807,119.73423,154.003159,119.377426C153.685928,119.084824,153.419434,118.728012,153.205215,118.30851C153.054428,118.751907,152.975311,119.155731,152.967087,119.520004C152.919327,120.637436,153.058167,121.623497,153.384354,122.478928C153.526932,122.874542,153.745636,123.072357,154.039001,123.072357L153.8367,122.216919C153.69339,121.615288,153.677719,121.247284,153.78894,121.112175C153.828491,121.056946,153.971817,121.512276,154.21814,122.478928C154.543594,123.500076,154.932495,124.066628,155.384842,124.177849L155.51622,124.177849L155.563995,124.153961L155.242279,122.858871C155.035507,122.01165,155.016098,121.551834,155.182556,121.480927C155.206451,121.472717,155.325882,121.86087,155.5401,122.644638L156.05217,124.248764C156.433609,125.057167,156.738907,125.409492,156.969559,125.306488C157.065109,125.266922,157.096451,125.072845,157.065109,124.724243L156.933731,123.856873L156.885956,123.642647L156.528412,121.421204L156.540344,121.302521C156.556778,121.262955,156.719498,121.302521,157.029266,121.421204L157.886948,121.718292L158.708786,121.754128zM161.472153,88.333313L160.768982,89.199936C160.459961,89.326836,160.138245,89.632133,159.804581,90.115089C159.566452,90.455467,159.355957,90.82795,159.17308,91.231773C158.863297,91.928963,158.803589,92.83963,158.994675,93.964531C159.089478,94.526611,159.217117,95.022247,159.375366,95.449966C159.518692,94.784134,159.828461,94.218323,160.304703,93.750298L160.840652,93.287498L161.234024,92.99041L160.578644,92.372353C160.34053,92.071533,160.241257,91.810272,160.280807,91.588577C160.320374,91.279549,160.427856,91.010078,160.602539,90.780174C160.848862,90.479355,161.182526,90.329315,161.602783,90.329315L161.865524,90.352455C162.023773,90.376343,162.297714,90.475624,162.687363,90.649544C163.044174,90.80854,163.286774,90.887665,163.413666,90.887665L163.485321,90.875717C163.540558,90.867508,163.807037,90.606255,164.283279,90.091202C164.743835,89.592575,165.113327,89.342514,165.391006,89.342514L165.593292,89.378342L166.391998,89.877716L166.89212,90.174805C167.042908,90.2696,167.161591,90.317375,167.248932,90.317375L167.40419,90.281548L167.725906,90.115089C168.027466,89.964302,168.237976,89.889656,168.357407,89.889656C168.515656,89.889656,168.698532,89.948631,168.905304,90.067314C169.063538,90.162857,169.325546,90.436058,169.691315,90.887665L170.263092,91.600525C170.580338,91.877457,170.902054,92.016296,171.227509,92.016296C171.449951,92.016296,171.632828,91.944633,171.775406,91.802063C172.069504,91.525131,172.27179,91.160866,172.383011,90.709259C172.478561,90.265869,172.466614,89.873238,172.347183,89.532852C172.25238,89.271599,172.101593,89.037956,171.894836,88.83194C171.910507,89.132759,171.827652,89.358932,171.644775,89.508972C171.422333,89.68364,171.172272,89.770226,170.894592,89.770226C170.489258,89.770226,170.143661,89.608246,169.857773,89.283539C169.143417,88.467674,168.650757,88.024277,168.380539,87.952621L168.09465,87.916794L167.523621,88.036224L167.058578,88.142967C166.931686,88.142967,166.824188,88.09967,166.736862,88.012337L166.320343,87.442047C165.923233,86.792641,165.625397,86.455986,165.426834,86.432098L165.343231,86.420158C165.113327,86.420158,164.831177,86.53511,164.497513,86.765022L164.175797,87.014336C164.048889,87.109131,163.925735,87.176315,163.807037,87.215874L162.758286,87.489075C162.290253,87.552521,161.861053,87.833939,161.472153,88.333313zM175.825638,113.045288C175.484512,112.157761,175.051575,111.211266,174.527557,110.205795C173.669891,108.55838,172.728622,107.069214,171.704483,105.738289L170.679611,104.538742L170.631836,104.847778C170.473587,105.480766,169.874191,105.97641,168.833633,106.332466C168.809753,106.475037,168.885147,107.00576,169.059814,107.924644C169.266586,109.025658,169.369583,109.769867,169.369583,110.15802C169.369583,111.203796,169.274048,112.629517,169.083694,114.435181L168.964264,116.205765C169.703247,116.18187,170.357895,115.884789,170.929672,115.314499L170.94162,114.993523C170.981918,114.423233,171.140167,113.548401,171.418594,112.368256L171.942596,110.14608L172.502441,109.742249L172.049347,111.714371L171.585052,113.686493C172.180725,114.462799,172.701004,115.266724,173.145874,116.098274C173.407883,116.201279,173.904282,116.102753,174.634308,115.801933C175.349396,115.508575,175.801758,114.791985,175.992844,113.651413C176.000305,113.532722,175.957016,113.361786,175.861465,113.140091L175.825638,113.045288zM160.960083,102.827881C160.927979,103.113022,160.955597,103.44146,161.042938,103.813942C161.13028,104.146111,161.234024,104.399902,161.352722,104.57383C161.694595,105.057526,162.18277,105.473297,162.817993,105.821892C163.453232,106.170486,164.076508,106.372025,164.688599,106.427261C165.299942,106.498924,165.633606,107.603668,165.688843,109.742249C165.720947,110.994049,165.664963,112.356316,165.522385,113.829063C165.402954,115.175659,165.260376,116.098274,165.09317,116.597649C164.981964,116.914139,164.851334,117.073135,164.699799,117.073135L164.652771,117.073135C163.294235,116.985802,162.087219,116.767838,161.030991,116.419243C160.332321,116.197548,159.744858,115.932556,159.268631,115.623528L158.982727,116.098274C158.974518,116.383415,158.943176,116.696922,158.887192,117.037308C158.839417,117.306778,158.982727,117.571762,159.316391,117.833023L160.209152,118.379425C160.87648,118.744438,161.761765,119.040779,162.865768,119.270691C165.033463,119.714081,166.998871,119.587929,168.761978,118.890739C169.627869,118.550362,170.369827,118.122643,170.98938,117.60759L170.929672,115.991531C170.357895,116.45134,169.667419,116.684982,168.857529,116.692444C168.770187,116.692444,168.690323,116.657364,168.619415,116.585709C168.523865,116.482697,168.479828,116.272942,168.488037,115.955704L168.619415,114.387405C168.801544,112.677292,168.893356,111.267242,168.893356,110.15802C168.893356,109.754189,168.794083,109.041336,168.59552,108.01944L168.357407,106.534752C168.340988,106.217514,168.412643,106.015968,168.57164,105.928635L168.607468,105.904747C169.536041,105.603928,170.060806,105.215775,170.179489,104.74028C170.242935,104.447678,170.163818,104.130432,169.941376,103.790054L169.465134,103.350395C169.147141,103.524323,168.806015,103.678833,168.440262,103.813942C168.226028,104.241653,167.900574,104.56636,167.463898,104.788055C167.074249,104.99408,166.621902,105.097092,166.10611,105.097092C165.152893,105.097092,164.271332,104.803734,163.461441,104.217773C162.60376,103.58403,162.143204,102.823402,162.079758,101.936615C161.793869,102.142639,161.420639,102.439728,160.960083,102.827881zM162.57988,106.237663C161.888672,105.84951,161.352722,105.385963,160.972031,104.847778C160.598801,104.332726,160.436066,103.798264,160.483093,103.243652C159.840408,103.798264,159.31192,104.328995,158.899139,104.835831C157.739899,106.245132,156.810562,107.663383,156.111893,109.089104C155.373642,110.60141,154.754089,112.249573,154.25322,114.031349C153.944199,115.15625,153.71727,116.17366,153.574707,117.085083L153.550812,117.179878L153.538879,117.71434C153.65831,118.054718,153.82103,118.363747,154.027054,118.641434C154.392807,119.14827,154.817535,119.445358,155.301987,119.531937C156.064117,119.682724,156.572449,119.682724,156.826233,119.531937C156.921783,119.128113,157.108398,118.585442,157.386078,117.904678C157.695862,117.128372,158.24823,116.134102,159.04245,114.922615C159.470917,114.264992,160.448013,113.231155,161.972275,111.821854L162.210388,112.047287L162.04393,112.213745C160.979492,113.282661,160.141968,114.285141,159.530624,115.219696C159.959091,115.496635,160.50325,115.742218,161.162369,115.955704C162.162613,116.28862,163.306183,116.498367,164.593048,116.585709C164.846848,116.094543,165.033463,114.644936,165.152893,112.237633C165.287994,109.678802,165.192459,108.000031,164.867004,107.199837C164.779663,107.009491,164.704269,106.906487,164.640823,106.890808C163.957825,106.835571,163.271088,106.617607,162.57988,106.237663zM161.876724,90.804062L161.805817,90.804062C161.369141,90.804062,161.075043,91.033966,160.924255,91.493034C160.765259,91.99987,161.003372,92.432068,161.638611,92.788124C161.6707,92.788124,161.706528,92.823952,161.746094,92.895615C161.793869,92.96653,161.766251,93.033707,161.662491,93.097153C161.138489,93.414398,160.76152,93.67939,160.530869,93.892868C159.903854,94.487045,159.597809,95.156609,159.614227,95.900818C159.835922,95.338745,160.150177,94.823692,160.554764,94.356415C161.0392,93.84211,161.360931,93.560699,161.519913,93.512924L161.602783,93.489044C161.682648,93.489044,161.734146,93.521141,161.758041,93.584587C161.773712,93.648033,161.749832,93.699539,161.686371,93.739105L161.38855,93.988419L160.768982,94.546761C160.412186,94.887146,160.034485,95.453697,159.637375,96.245682L159.68515,96.530823L160.066589,95.82991C160.273346,95.496994,160.483093,95.223793,160.698074,95.010307C160.991425,94.725166,161.257919,94.534821,161.496033,94.440018L161.543808,94.428078C161.614716,94.428078,161.655029,94.471367,161.662491,94.558708C161.662491,94.653503,161.607254,94.732628,161.496033,94.796074L160.90036,95.235733L160.185272,96.138939L159.756805,96.768196L159.768753,96.851799L160.102417,96.804031C160.181534,96.875687,160.185272,96.966751,160.114349,97.077225C159.550034,97.504944,159.403732,98.039398,159.673203,98.681351C159.94342,99.315086,160.415924,99.631577,161.090714,99.631577L161.269867,99.619637C161.984207,100.895325,162.857559,101.869438,163.889893,102.54274C163.993652,102.606186,164.04068,102.661423,164.033218,102.709198C164.025009,102.748756,163.973495,102.768166,163.87796,102.768166C163.552505,102.768166,163.167328,102.613647,162.722458,102.304619C162.786652,102.898788,163.194946,103.43325,163.949615,103.908737C164.648285,104.352127,165.32756,104.57383,165.986679,104.57383C166.280777,104.57383,166.522629,104.514862,166.712967,104.396172L166.654007,104.396172L165.867249,104.229713C165.510437,104.118492,165.343231,104.031906,165.367126,103.96846L165.414902,103.944572L165.688843,103.9804L166.188965,104.027428C166.832413,104.027428,167.570648,103.84977,168.404434,103.492966C169.874191,102.851768,170.958038,101.730598,171.656708,100.130959C172.331497,98.594017,172.502441,97.006317,172.168777,95.366364C171.970215,94.352684,171.561172,93.334526,170.94162,92.313385C170.648254,92.26561,170.334747,92.107361,170.001083,91.837891L169.417358,91.089203C169.059814,90.637604,168.817963,90.376343,168.690323,90.305435L168.452209,90.245712C168.22229,90.245712,167.948349,90.344994,167.630356,90.542801L167.178009,90.637604C166.923477,90.637604,166.586075,90.523392,166.165085,90.293488C165.998627,90.197945,165.803802,90.150917,165.58136,90.150917C165.041672,90.150917,164.545288,90.41217,164.092926,90.934692C163.957825,91.092934,163.778671,91.172806,163.556976,91.172806C163.389771,91.172806,163.179276,91.125031,162.925491,91.030235L161.876724,90.804062zM161.41243,96.293457L161.484085,96.281509C161.555756,96.281509,161.599045,96.312866,161.614716,96.376312C161.638611,96.447968,161.619202,96.503204,161.555756,96.54277L161.400482,96.673401C161.297485,96.776405,161.241486,96.863739,161.234024,96.934654C161.217606,97.021988,161.166107,97.065285,161.078766,97.065285C160.983963,97.065285,160.939926,97.001839,160.948135,96.875687C160.955597,96.756256,161.01532,96.637566,161.126541,96.518883L161.41243,96.293457zM161.472153,95.378311L161.50798,95.366364C161.571426,95.366364,161.614716,95.402191,161.638611,95.473106C161.662491,95.544769,161.631134,95.611946,161.543808,95.675392L161.078766,95.984421L160.75705,96.328537L160.506989,96.55471L160.459961,96.506943C160.451752,96.443489,160.491302,96.336746,160.578644,96.185966L160.888428,95.782135C161.054886,95.592537,161.24971,95.457428,161.472153,95.378311zM168.845581,101.1409C169.012039,101.164047,169.023987,101.215546,168.881409,101.29467L168.476089,101.496964L168.166306,101.556679L167.761734,101.496964L167.594528,101.390221C167.546753,101.326767,167.531082,101.263321,167.546753,101.199875C167.570648,101.081184,167.654251,101.021469,167.797562,101.021469L167.844589,101.021469L168.583572,101.12896L168.845581,101.1409zM169.536041,92.39624C169.559937,92.27755,169.619644,92.217834,169.715195,92.217834L169.833878,92.26561L170.739319,92.835899L170.834869,92.930695C170.82666,92.962791,170.790833,92.97847,170.727386,92.97847L169.73909,92.930695C169.65921,92.930695,169.595764,92.899345,169.547989,92.835899C169.500961,92.780663,169.484543,92.71273,169.500961,92.633606L169.536041,92.39624zM164.37883,92.514923L164.890884,92.016296L165.021515,91.980469C165.101395,91.980469,165.161102,92.020027,165.200668,92.099152L165.367126,92.325325C165.478348,92.483574,165.517914,92.586586,165.486557,92.633606L165.271576,92.729156L164.819229,92.918755L164.319107,93.215843L163.961563,93.370354L163.949615,93.370354C163.90184,93.172546,164.045166,92.887405,164.37883,92.514923zM165.688843,94.926704C165.697052,95.156609,165.661224,95.350693,165.58136,95.508934C165.502228,95.667183,165.402954,95.746307,165.283524,95.746307L165.271576,95.746307C165.152893,95.746307,165.049881,95.671661,164.962555,95.520882C164.875214,95.362633,164.827438,95.172287,164.819229,94.950592C164.81102,94.728897,164.846848,94.538551,164.926712,94.380302C165.005844,94.222054,165.108856,94.138451,165.236496,94.130989C165.355179,94.130989,165.458191,94.210114,165.546265,94.368362C165.633606,94.519142,165.680634,94.705009,165.688843,94.926704zM165.233582,94.817543L165.231995,94.936295L165.241913,95.054657L165.261627,95.157547L165.262421,95.160057L165.274048,95.064705L165.275635,94.941322L165.265717,94.823891L165.246277,94.723251L165.245636,94.72113L165.233582,94.817543zM170.727386,94.950592C170.735596,95.180496,170.699768,95.374573,170.620636,95.532822C170.540771,95.691071,170.437759,95.770195,170.310867,95.770195C170.191437,95.770195,170.088425,95.694801,170.001083,95.544769C169.913757,95.393982,169.865982,95.208115,169.857773,94.98642C169.850311,94.764725,169.885391,94.570648,169.965256,94.40419C170.044388,94.245941,170.143661,94.162338,170.263092,94.154877L170.27504,94.154877C170.393723,94.154877,170.497482,94.234001,170.584808,94.39225C170.67215,94.54303,170.719925,94.728897,170.727386,94.950592zM170.285217,94.749832L170.272247,94.854172L170.270538,94.972L170.280579,95.089569L170.299774,95.188225L170.300293,95.190208L170.312592,95.088905L170.314178,94.963409L170.304535,94.848091L170.285492,94.748901L170.285217,94.749832zM167.904312,94.39225L168.380539,95.342476L168.929184,96.115051L169.309875,96.590546L169.381531,96.780136L169.333755,96.97049L168.797806,97.754257C168.71048,97.849808,168.607468,97.896828,168.488037,97.896828L168.226028,97.83786L168.106598,97.731117C168.08345,97.68335,168.090927,97.631836,168.130478,97.576599L168.57164,96.99437C168.666428,96.867477,168.678375,96.733116,168.607468,96.590546L168.106598,95.639565C167.908035,95.259621,167.745316,94.859528,167.618423,94.440018C167.570648,94.289238,167.590805,94.206383,167.678131,94.189957L167.690079,94.189957C167.761734,94.189957,167.832642,94.257889,167.904312,94.39225zM170.739319,98.39621C170.763214,98.39621,170.795303,98.42009,170.834869,98.467117L171.275284,99.002319L171.334991,99.191925L171.299164,99.382263L170.787094,100.166039L170.703491,100.237701C170.66394,100.237701,170.651993,100.201866,170.667664,100.130959L170.667664,100.012268C170.667664,99.892838,170.612427,99.83387,170.501205,99.83387L170.441498,99.84581L169.691315,100.285469C169.087433,100.570618,168.544022,100.716919,168.05957,100.72438L168.047623,100.72438C167.554962,100.72438,166.91153,100.495224,166.11731,100.035408C165.720947,99.806252,165.37085,99.57634,165.06929,99.346436L164.962555,99.334496C164.858795,99.334496,164.77594,99.378532,164.711746,99.465118L164.711746,100.000328L164.616943,100.071243L164.53334,99.9645L164.307159,98.882889C164.27507,98.732857,164.331055,98.614166,164.473618,98.526833L165.664963,97.68335L165.748566,97.659462C165.803802,97.659462,165.812012,97.702751,165.772446,97.790085L165.62912,98.158836C165.60524,98.214073,165.621658,98.277519,165.676895,98.348434C165.72467,98.42009,165.784393,98.463387,165.855301,98.479065C166.943634,98.882889,167.753525,99.116531,168.285736,99.179977L168.607468,99.191925L169.845825,99.073235L170.477325,98.954552C170.628098,98.930664,170.703491,98.8396,170.703491,98.681351L170.691559,98.514893C170.691559,98.435768,170.707977,98.39621,170.739319,98.39621zM170.727386,99.382263C170.766937,99.24791,170.699768,99.179977,170.525101,99.179977L170.489258,99.179977L169.833878,99.299408L168.499969,99.418098L168.166306,99.406151C167.539291,99.350166,166.733124,99.12101,165.748566,98.717178L165.462677,98.669403C165.351456,98.669403,165.248444,98.705238,165.152893,98.776146C165.049881,98.85527,165.029724,98.942604,165.09317,99.037407L165.283524,99.215805C166.157608,99.675621,166.760742,99.960762,167.094406,100.071243L168.273804,100.225754L169.035919,100.142899L170.501205,99.643524C170.620636,99.619637,170.69603,99.533051,170.727386,99.382263zM159.363434,118.533936L158.815521,118.153992C158.815521,119.088547,158.843903,119.959656,158.899139,120.768066L158.899139,120.815094C159.217117,120.965874,159.383575,121.156219,159.399261,121.385376C159.423141,121.567513,159.355957,121.726509,159.19696,121.86087L159.006622,121.979553C159.355957,125.377396,160.133759,129.020813,161.340775,132.909821L162.139465,135.333542L162.282043,135.714233C162.338028,135.856812,162.369385,135.975494,162.377594,136.070297C162.941162,136.743591,163.596542,137.2146,164.342987,137.48407C165.168564,137.769211,165.950851,137.741592,166.689087,137.401215C167.126511,131.619217,166.955566,126.395554,166.177017,121.73024C166.161346,121.603348,166.228531,121.492867,166.380051,121.397324C166.5383,121.31073,166.630112,121.342087,166.654007,121.492867C167.019012,123.662796,167.241455,126.082794,167.320587,128.75209C168.567154,127.45253,169.516647,125.801376,170.167542,123.797165C170.755005,121.975815,171.033432,120.082825,171.001328,118.118164C170.53331,118.490646,169.91748,118.851181,169.155365,119.199768C167.669922,119.880539,166.014297,120.161949,164.187729,120.043259C162.353699,119.916367,160.745102,119.413254,159.363434,118.533936z"/>
</svg>
