<?xml version="1.0" encoding="UTF-8"?>
<svg xmlns="http://www.w3.org/2000/svg" xmlns:xlink="http://www.w3.org/1999/xlink" width="33.361mm" height="56.342mm" viewBox="-147.459229 87.660812 33.360596 56.342484">
    <path transform="matrix(-1,0,0,1,0,0)" style="stroke:none;fill:#000000;fill-rule:evenodd" d="M121.676414,87.662926L121.717674,87.669273L121.752716,87.678001L121.823997,87.699295L121.863411,87.71331L121.918022,87.740685L121.997505,87.788292L122.03215,87.811569L122.051193,87.826775L122.139137,87.900833L122.17141,87.930984L122.267548,88.031357L122.287918,88.054237L122.392517,88.181061L122.406143,88.198517L122.519211,88.351654L122.529259,88.365944L122.650528,88.545662L122.657669,88.556641L122.779472,88.750114L123.100693,89.189957L123.427071,89.114716L123.443871,89.111145L123.958168,89.01487L123.999565,89.009315L124.041351,89.007858L124.085258,89.011032L124.342346,89.043167L124.383469,89.050446L124.417854,89.059967L124.467049,89.075836L124.506859,89.090912L124.560547,89.114578L124.590431,89.129257L124.648621,89.160736L124.671371,89.173958L124.734055,89.213234L124.75177,89.225006L124.818954,89.272079L124.83271,89.282135L124.904381,89.336884L124.915489,89.345612L124.991798,89.408165L125.00132,89.416367L125.081993,89.486717L125.089394,89.493195L125.17469,89.57122L125.181305,89.577438L125.271103,89.663269L125.276657,89.668686L125.370949,89.762314L125.375572,89.767075L125.474495,89.868507L125.478859,89.872871L125.582138,89.981979L125.585579,89.985809L125.696663,90.106155L125.809074,90.230728L125.812119,90.234169L125.922012,90.358742L126.004662,90.444702L126.08004,90.509903L126.155556,90.562798L126.229614,90.603661L126.30526,90.635002L126.383675,90.657349L126.463425,90.670578L126.544754,90.674805L126.658745,90.665024L126.760445,90.637909L126.863335,90.590042L126.967407,90.519424L126.980766,90.506859L126.995049,90.489403L127.006554,90.47049L127.018059,90.444435L127.027451,90.413223L127.035248,90.36998L127.039085,90.318939L127.038162,90.238403L127.039749,90.196609L127.045563,90.155212L127.055618,90.114616L127.069633,90.07534L127.087486,90.037521L127.109177,90.001816L127.1343,89.968491L127.162735,89.937805L127.194077,89.910172L127.228065,89.885963L127.264297,89.865204L127.302521,89.848145L127.342194,89.835182L127.383057,89.826187L127.424576,89.821426L127.46637,89.8209L127.507896,89.8246L127.549019,89.832405L127.588959,89.844437L127.627579,89.860306L127.664474,89.88015L127.69899,89.903557L127.731125,89.930267L127.757309,89.956848L127.883339,90.096497L127.911377,90.131149L128.021133,90.282967L128.044952,90.319992L128.13858,90.483711L128.157745,90.521538L128.235504,90.697289L128.252838,90.743835L128.288544,90.860878L128.296997,90.893143L128.323578,91.014679L128.329132,91.045753L128.346725,91.171524L128.349899,91.201805L128.358368,91.331932L128.359161,91.35997L128.358765,91.494461L128.357834,91.521576L128.348312,91.660301L128.345795,91.685295L128.327148,91.828384L128.323578,91.851128L128.295944,91.998581L128.287872,92.033234L128.24649,92.182007L128.238815,92.206604L128.189758,92.347977L128.17984,92.373627L128.123108,92.507591L128.110809,92.534042L128.046265,92.660736L128.031708,92.686783L128.031189,92.687576L128.069672,92.717728L128.101288,92.745102L128.129974,92.77552L128.165161,92.823654L128.213287,92.900497L128.233658,92.936996L128.253235,92.983543L128.290787,93.091057L128.303619,93.135757L128.333771,93.268661L128.341568,93.315742L128.356903,93.458038L128.359283,93.500488L128.359955,93.652306L128.358368,93.690262L128.344208,93.851334L128.336014,93.904495L128.321594,93.969559L128.313934,93.999313L128.292114,94.071793L128.284698,94.094009L128.255615,94.173882L128.248596,94.191864L128.212097,94.279144L128.205627,94.293694L128.161713,94.388252L128.156158,94.399887L128.10498,94.501717L128.099945,94.511368L128.041382,94.620605L128.036865,94.62867L127.971016,94.745178L127.948669,94.780487L127.922882,94.813286L127.893784,94.843307L127.861916,94.870285L127.8274,94.893951L127.791428,94.913528L127.803329,94.945534L127.809547,94.963387L127.920898,95.308151L127.926453,95.326797L128.020081,95.671692L128.024841,95.691132L128.100739,96.035889L128.103516,96.049644L128.154297,96.324448L128.15683,96.339264L128.197159,96.613007L128.199142,96.628616L128.22876,96.901436L128.230225,96.917175L128.249268,97.188934L128.250061,97.20507L128.258392,97.475906L128.258514,97.492043L128.256271,97.761826L128.255875,97.778091L128.243042,98.046814L128.241852,98.06321L128.218323,98.331009L128.216599,98.347008L128.182617,98.613876L128.180237,98.630409L128.135406,98.896088L128.132355,98.911827L128.077087,99.176712L128.073364,99.192719L128.007248,99.456413L128.003281,99.471489L127.926712,99.734261L127.921951,99.749336L127.834671,100.011185L127.829514,100.025726L127.731651,100.286514L127.726097,100.300667L127.617523,100.560394L127.611313,100.574417L127.48819,100.840622L127.480919,100.855568L127.349861,101.111458L127.341797,101.126534L127.202805,101.372246L127.19368,101.387589L127.046753,101.622986L127.036575,101.638321L126.881714,101.863403L126.870605,101.878876L126.70768,102.093643L126.695648,102.108856L126.52478,102.313438L126.511559,102.328384L126.332764,102.522514L126.318878,102.536926L126.132149,102.721016L126.117203,102.735031L125.922539,102.908669L125.906799,102.922028L125.704071,103.08548L125.687805,103.097916L125.549606,103.198418L126.07515,103.632843L126.105965,103.661148L126.133736,103.692352L126.158203,103.726074L126.17923,103.762314L126.196419,103.8004L126.203293,103.82103L126.226044,103.824471L126.26664,103.834785L126.305786,103.849197L126.343346,103.867447L126.378914,103.889404L126.425072,103.92643L126.584824,104.074677L126.593552,104.083008L126.741005,104.228081L126.750793,104.238129L126.885811,104.380295L126.896126,104.391403L127.018852,104.530525L127.029831,104.543488L127.140251,104.679565L127.15229,104.695305L127.250145,104.828476L127.262444,104.846062L127.348007,104.976196L127.36084,104.997086L127.433968,105.124176L127.453011,105.161469L127.461479,105.181831L127.568459,105.459946L127.575073,105.478455L127.67955,105.794128L127.687744,105.822296L127.770798,106.149475L127.776878,106.177109L127.838509,106.515526L127.842476,106.542503L127.882545,106.892288L127.884659,106.917816L127.903442,107.278976L127.903969,107.303436L127.901192,107.67598L127.900398,107.698723L127.876328,108.082764L127.874481,108.104317L127.82885,108.499603L127.826469,108.516922L127.817741,108.571938L127.815758,108.582779L127.78614,108.742004L127.784683,108.749542L127.738396,108.974754L127.737473,108.979118L127.637497,109.440262L127.636833,109.443436L127.499825,110.052689L127.499428,110.054672L127.259407,111.097549L127.25914,111.09848L127.188919,111.400391L127.101639,111.786285L127.02401,112.146255L126.955505,112.483215L126.89798,112.786987L126.851433,113.057159L126.814529,113.299835L126.787292,113.51619L126.771156,113.689293L126.771156,113.872986L126.769043,113.914772L126.762695,113.956032L126.752243,113.996498L126.737831,114.035645L126.719452,114.073196L126.699219,114.105728L126.701332,114.108902L126.721039,114.145676L126.736908,114.184288L126.74881,114.224358L126.756607,114.265488L126.760315,114.308731L126.814003,116.008873L126.81321,116.050659L126.808182,116.092186L126.798927,116.132919L126.785706,116.172592L126.780807,116.183304L126.805145,116.214905L126.827095,116.250488L126.845345,116.28804L126.859764,116.327187L126.870079,116.367653L126.874702,116.395424L126.983147,117.215744L126.984863,117.229889L127.06395,118.044258L127.065002,118.058937L127.114464,118.867081L127.115128,118.882034L127.135231,119.684357L127.135361,119.69957L127.125969,120.495682L127.125443,120.511024L127.086693,121.301323L127.085632,121.316925L127.017395,122.101013L127.015808,122.116608L126.918083,122.894875L126.916626,122.905586L126.85672,123.298889L126.855003,123.30867L126.787689,123.68914L126.785835,123.699326L126.711121,124.06723L126.70874,124.077942L126.626747,124.433014L126.62397,124.444389L126.534569,124.786911L126.531265,124.798813L126.434593,125.128494L126.430626,125.14119L126.326416,125.458313L126.321922,125.471275L126.210571,125.775703L126.205147,125.789719L126.086258,126.081322L126.080177,126.095604L125.954018,126.374641L125.946869,126.389587L125.813309,126.65593L125.805107,126.671532L125.664131,126.925049L125.654877,126.940781L125.50663,127.181732L125.496048,127.197998L125.340263,127.426254L125.328491,127.442657L125.165565,127.658081L125.152473,127.674606L124.98201,127.877472L124.965485,127.895859L124.876747,127.989487L124.854134,128.011566L124.762222,128.094757L124.735374,128.117111L124.639893,128.189835L124.624557,128.200546L124.639236,128.231232L124.653648,128.270508L124.663834,128.310974L124.670044,128.352234L124.671898,128.394028L124.669647,128.435684L124.663696,128.47403L124.569801,128.937424L124.567818,128.946548L124.468765,129.384277L124.466255,129.394592L124.361786,129.806793L124.358871,129.818039L124.249107,130.204865L124.24514,130.217819L124.172935,130.443695L124.169495,130.454132L124.09716,130.66124L124.092926,130.672867L124.020721,130.861328L124.0149,130.875336L123.942566,131.045135L123.935158,131.061676L123.862823,131.212692L123.852768,131.232407L123.780434,131.364777L123.766151,131.38884L123.69368,131.502441L123.67424,131.53035L123.601906,131.625427L123.582458,131.649109L123.521362,131.71814L123.498222,131.742203L123.435272,131.802643L123.407898,131.826706L123.343361,131.878555L123.309639,131.903015L123.243256,131.946136L123.204109,131.968475L123.135872,132.002869L123.093025,132.021637L123.023064,132.047424L122.975327,132.061707L122.903778,132.078644L122.855911,132.087097L122.782379,132.095566L122.733055,132.098206L122.657936,132.097809L122.612183,132.095032L122.53521,132.086044L122.493027,132.078903L122.414345,132.06131L122.375458,132.050598L122.295059,132.024155L122.261993,132.011719L122.179871,131.976685L122.151039,131.963058L122.067062,131.919281L122.042206,131.905136L121.956505,131.852631L121.935745,131.839005L121.848335,131.777924L121.826378,131.761505L121.663322,131.630585L121.634758,131.605469L121.482941,131.458679L121.45755,131.431702L121.317101,131.269028L121.295151,131.241257L121.165947,131.062729L121.14743,131.034821L121.029472,130.840424L121.01413,130.812927L120.907539,130.602646L120.895241,130.576202L120.800026,130.350067L120.790504,130.325195L120.706528,130.083191L120.699257,130.059906L120.626518,129.802032L120.620964,129.78035L120.559601,129.506607L120.555771,129.486633L120.505646,129.197021L120.502869,129.178635L120.464119,128.873138L120.462273,128.856354L120.434761,128.535004L120.433708,128.519516L120.432518,128.494659L120.088814,129.296722L119.018814,131.977341L119.009293,131.998108L119.167061,132.2052L119.18161,132.225433L119.371117,132.507904L119.376671,132.516373L119.548851,132.787079L119.554802,132.796738L119.709396,133.055267L119.715744,133.066238L119.85302,133.312622L119.863731,133.333252L120.19593,134.017609L120.211006,134.052917L120.275146,134.223923L120.284004,134.249832L120.329498,134.400864L120.338493,134.436432L120.367981,134.579391L120.374458,134.621841L120.387947,134.756866L120.389801,134.806458L120.387154,134.933411L120.384247,134.975067L120.381073,134.996094L120.36335,135.097137L120.354095,135.137863L120.33783,135.184814L120.300537,135.274216L120.282417,135.311905L120.253059,135.358444L120.196457,135.436081L120.170143,135.468475L120.134041,135.504059L120.058128,135.570175L120.02533,135.596085L119.990814,135.61792L119.89534,135.672134L119.85804,135.690918L119.835564,135.700043L119.720772,135.742752L119.669464,135.758102L119.535233,135.789047L119.493973,135.796448L119.340439,135.81575L119.298775,135.818787L119.249321,135.817078L118.253113,135.720795L118.211723,135.714584L118.172318,135.704666L117.932289,135.631409L117.909943,135.623871L117.677193,135.53804L117.654442,135.528915L117.42923,135.430252L117.407143,135.4198L117.189201,135.308594L117.167519,135.296692L116.956985,135.172775L116.935822,135.159424L116.732697,135.022675L116.712723,135.008392L116.517006,134.858948L116.49836,134.843887L116.309906,134.681885L116.28756,134.661118L116.030342,134.404694L116.016716,134.390411L115.872971,134.232635L115.867943,134.226959L115.733711,134.074081L115.728157,134.067734L115.603584,133.919891L115.597633,133.91275L115.482712,133.769928L115.476364,133.761719L115.370964,133.623795L115.36396,133.614395L115.268341,133.481628L115.260941,133.470917L115.17485,133.343033L115.166916,133.330734L115.090477,133.208008L115.081879,133.193604L115.014961,133.07576L115.005707,133.058441L114.948578,132.945633L114.939186,132.925934L114.891579,132.818161L114.881927,132.794342L114.843971,132.691589L114.834709,132.663422L114.806412,132.565704L114.79821,132.532227L114.779564,132.439529L114.77375,132.400909L114.764626,132.31311L114.762375,132.26709L114.763039,132.184433L114.763298,132.170685L114.783272,131.687988L114.782341,131.680191L114.521156,131.631119L114.480431,131.621338L114.441017,131.607452L114.403198,131.589722L114.367355,131.568298L114.3339,131.543304L114.306396,131.518311L114.288673,131.500732L114.260635,131.46991L114.225197,131.419662L114.209457,131.393341L114.189888,131.356445L114.179306,131.331848L114.16555,131.296677L114.151138,131.25264L114.139503,131.208984L114.132362,131.177246L114.122704,131.124756L114.119263,131.102417L114.111465,131.041306L114.109482,131.022522L114.10379,130.952698L114.102997,130.939346L114.099167,130.860794L114.098633,130.838562L114.099297,130.709244L114.10128,130.67128L114.114105,130.539978L114.119003,130.504791L114.14373,130.37149L114.151405,130.338165L114.188301,130.202881L114.197556,130.173248L114.246353,130.03598L114.257065,130.008728L114.318031,129.869354L114.329536,129.845413L114.402534,129.704041L114.414307,129.682755L114.499474,129.539261L114.522614,129.504486L114.549065,129.472214L114.57869,129.442719L114.611221,129.416412L114.646133,129.393524L114.683289,129.374359L114.722176,129.359009L114.762375,129.347641L114.803505,129.340378L114.808266,129.339966L114.782211,129.212891L114.775993,129.171631L114.77388,129.123352L114.774803,129.071259L114.770576,129.0177L114.759071,128.939667L114.739494,128.840225L114.665436,128.502075L114.657104,128.444946L114.639915,128.21814L114.639519,128.212982L114.6259,127.997421L114.625633,127.992393L114.615189,127.788208L114.614922,127.782127L114.60791,127.58931L114.607651,127.582832L114.603943,127.401398L114.603943,127.393585L114.603683,127.223526L114.603683,127.215324L114.60659,127.056625L114.606987,127.046448L114.613335,126.898994L114.614128,126.886032L114.638855,126.554626L114.639648,126.544968L114.671127,126.224274L114.67218,126.214226L114.710266,125.904243L114.711723,125.893532L114.756554,125.594131L114.758408,125.582626L114.809982,125.29393L114.812363,125.282028L114.870552,125.004051L114.873459,124.991089L114.938393,124.723824L114.941963,124.710205L115.013641,124.453644L115.026863,124.414108L115.04406,124.376022L115.065086,124.339783L115.089546,124.306061L115.117317,124.274857L115.148132,124.246552L115.181725,124.221695L115.21756,124.200272L115.255386,124.182541L115.294792,124.168655L115.335526,124.159012L115.376915,124.153458L115.418571,124.151993L115.460365,124.154907L115.501495,124.162048L115.528206,124.169449L115.527939,124.16893L115.516304,124.143929L115.346504,123.745872L115.337112,123.721542L115.188995,123.302979L115.181458,123.279449L115.055031,122.839996L115.049217,122.817383L114.944611,122.3573L114.940506,122.337326L114.876503,121.973526L114.874123,121.958183L114.821091,121.572296L114.819374,121.558411L114.777321,121.150558L114.77626,121.137863L114.745316,120.707809L114.744652,120.696304L114.724815,120.244286L114.724419,120.233971L114.715424,119.759872L114.715424,119.750214L114.717674,119.254036L114.717812,119.245308L114.731033,118.727173L114.734207,118.685516L114.741615,118.644386L114.75312,118.604309L114.768593,118.56543L114.787895,118.528404L114.810905,118.493492L114.837227,118.46109L114.866852,118.431602L114.899117,118.405151L114.934029,118.382141L114.971054,118.362839L115.009804,118.347229L115.050011,118.335724L115.091133,118.328323L115.13279,118.32515L115.174583,118.326202L115.181328,118.326996L115.17511,118.313377L115.159241,118.273041L115.119041,118.153488L115.109779,118.12175L115.075005,117.982239L115.072357,117.971527L115.051994,117.879608L114.973305,117.578621L114.971718,117.572403L114.893166,117.25145L114.891708,117.245361L114.8162,116.915283L114.81501,116.909332L114.742668,116.570389L114.741478,116.565231L114.671921,116.217285L114.67086,116.211868L114.604477,115.854805L114.603683,115.849777L114.540199,115.483727L114.539406,115.478966L114.478973,115.10405L114.477654,115.095856L114.3909,114.479065L114.389839,114.470337L114.317238,113.860153L114.316177,113.851288L114.257591,113.247864L114.256935,113.238602L114.212364,112.641907L114.211708,112.632523L114.18116,112.042572L114.180763,112.032928L114.16436,111.449463L114.16423,111.439407L114.16198,110.862823L114.16198,110.852768L114.173622,110.282654L114.173882,110.2771L114.188698,109.842285L114.188828,109.838577L114.206284,109.43219L114.206413,109.427963L114.226517,109.049866L114.226784,109.044975L114.249527,108.69532L114.250053,108.689636L114.275452,108.368408L114.275978,108.361404L114.304146,108.068481L114.305069,108.06028L114.335884,107.795792L114.337204,107.785606L114.370667,107.549545L114.372513,107.537781L114.452919,107.068573L114.456093,107.05191L114.552498,106.600952L114.556602,106.583366L114.669144,106.150925L114.674431,106.132675L114.802841,105.718483L114.809319,105.699043L114.953865,105.303238L114.9618,105.283127L115.122475,104.905701L115.131996,104.885208L115.308678,104.526161L115.319786,104.505135L115.512604,104.164474L115.526093,104.142258L115.635063,103.975227L115.646965,103.957901L115.770348,103.788231L115.781586,103.773552L115.919258,103.601105L115.930367,103.587616L116.082581,103.412659L116.092758,103.401413L116.259392,103.223549L116.269173,103.213501L116.450089,103.033112L116.459343,103.024124L116.654671,102.841095L116.663269,102.83329L116.873138,102.647491L116.9058,102.621437L116.940849,102.598824L116.978142,102.579773L117.017021,102.564697L117.057358,102.553589L117.098618,102.546585L117.140274,102.543808L117.168839,102.544861L117.172409,102.523972L117.183517,102.483635L117.198723,102.444756L117.217766,102.407593L117.240517,102.372551L117.266701,102.340019L117.296059,102.310127L117.333878,102.279312L118.372932,101.531204L118.408104,101.508591L118.445267,101.489548L118.451088,101.487305L118.364067,101.384148L118.349258,101.365501L118.074715,100.998657L118.061623,100.980011L117.800575,100.587769L117.78907,100.569656L117.66568,100.361496L117.491386,100.350922L117.436241,100.343781L117.234299,100.303711L117.174393,100.287178L116.98938,100.22039L116.950897,100.204254L116.928413,100.192619L116.760597,100.098991L116.725288,100.076775L116.704262,100.061035L116.553505,99.940697L116.522163,99.913055L116.50563,99.895859L116.371933,99.74881L116.334633,99.701065L116.217995,99.527298L116.190887,99.480881L116.091309,99.280258L116.075699,99.24469L116.034569,99.137573L116.025581,99.111389L115.993179,99.006516L115.985245,98.97702L115.961708,98.874405L115.95562,98.8424L115.940811,98.742157L115.937241,98.706848L115.93129,98.608719L115.930626,98.571823L115.933403,98.475945L115.936317,98.437462L115.947823,98.343964L115.954697,98.304558L115.97506,98.213181L115.985771,98.174164L116.014999,98.085159L116.028885,98.048798L116.066841,97.961914L116.083633,97.927795L116.130318,97.843155L116.149628,97.811417L116.20517,97.729156L116.225533,97.701653L116.28994,97.621513L116.307396,97.60141L116.296684,97.591759L116.268776,97.560677L116.244179,97.526955L116.223022,97.490852L116.222626,97.489792L116.209801,97.480408L116.178986,97.45224L116.151077,97.421158L116.12648,97.387436L116.105324,97.351334L116.087997,97.313385L116.074646,97.273705L116.065254,97.232712L116.02227,96.98687L116.01725,96.945343L116.016319,96.903549L116.01963,96.861893L116.027168,96.82077L116.037086,96.786911L116.031532,96.776199L116.01619,96.73732L116.004951,96.697121L115.997673,96.655991L115.994766,96.614334L115.994896,96.59198L115.995956,96.561699L115.961311,96.540672L115.927986,96.515549L115.897301,96.487114L115.869797,96.455772L115.845459,96.421654L115.824829,96.385414L115.802216,96.331726L115.700523,96.031792L115.694176,96.011162L115.603317,95.688484L115.598557,95.670235L115.518158,95.324814L115.514587,95.308014L115.444893,94.93985L115.441978,94.92186L115.38829,94.548798L115.38578,94.527771L115.353111,94.172958L115.351662,94.149284L115.340157,93.812988L115.340019,93.786537L115.349541,93.46862L115.351524,93.438995L115.382072,93.139595L115.386703,93.106796L115.438408,92.825638L115.446609,92.790199L115.519348,92.527428L115.531776,92.489868L115.625542,92.245354L115.637444,92.217178L115.761353,91.954018L115.770477,91.935898L115.906425,91.680534L115.91674,91.662415L116.064857,91.415253L116.075966,91.397659L116.236115,91.158562L116.245636,91.144943L116.357513,90.991669L116.368622,90.977249L116.479576,90.838531L116.492271,90.823189L116.602165,90.698608L116.618301,90.681419L116.727272,90.571259L116.746841,90.55275L116.854759,90.457001L116.878693,90.437294L116.98555,90.355965L117.014771,90.335732L117.120705,90.268684L117.156143,90.248581L117.181664,90.235756L117.757988,89.524536L117.761696,89.520042L117.89447,89.360825L117.914703,89.338211L118.050911,89.197365L118.075249,89.174225L118.214767,89.051636L118.244125,89.028229L118.386948,88.924149L118.421333,88.901535L118.567596,88.815842L118.606873,88.795609L118.756439,88.728294L118.800079,88.711494L118.953087,88.662567L118.999374,88.650665L119.155693,88.61998L119.175133,88.616676L119.368736,88.588242L119.569748,88.544205L119.792976,88.482185L120.013298,88.409714L120.282684,88.26226L120.546112,88.057678L120.572166,88.039032L120.682457,87.966293L120.698593,87.956245L120.80439,87.893295L120.8237,87.882454L120.925262,87.829155L120.948006,87.818184L121.045204,87.774544L121.072845,87.763298L121.16568,87.729446L121.198082,87.718994L121.286552,87.694794L121.325302,87.686203L121.409546,87.671654L121.454506,87.666496L121.534386,87.661606L121.559639,87.660812L121.634621,87.660812L121.676414,87.662926zM123.358574,104.186424L123.338737,104.191315L123.203842,104.220276L123.203842,104.259819L123.202789,104.270798L123.279488,104.234825L123.373909,104.182327L123.358574,104.186424zM127.504898,93.066635C127.361946,93.209175,127.194397,93.30545,127.001427,93.355469C127.236908,93.740158,127.44072,94.135689,127.612015,94.542053C127.797485,94.221542,127.904594,93.978973,127.933357,93.815178C127.962112,93.594284,127.951279,93.39798,127.90126,93.227097C127.858337,93.063301,127.787064,92.981194,127.687035,92.981194C127.622849,92.981194,127.561996,93.009537,127.504898,93.066635zM121.024315,126.991684L120.831757,127.440552C120.767159,129.450714,121.185188,130.783585,122.08503,131.439606C122.556,131.788879,122.952362,131.767197,123.273697,131.375427C123.466675,131.147034,123.659645,130.719406,123.852196,130.092133C124.002243,129.593246,124.137695,129.02684,124.259399,128.392075C123.695068,128.634644,123.095314,128.588379,122.459717,128.253281C121.952911,127.982376,121.474442,127.561836,121.024315,126.991684zM118.667809,132.230667C118.246437,132.451553,117.764633,132.504913,117.221985,132.391129C116.714752,132.284012,116.279213,132.06311,115.914948,131.728027C115.422302,131.264984,115.068871,130.605621,114.854645,129.749969C114.611656,130.135071,114.497459,130.498505,114.511627,130.840683C114.519135,131.061584,114.54747,131.189957,114.597488,131.225372L114.940086,131.289566C115.097214,131.318329,115.183067,131.446686,115.197243,131.674667L115.175987,132.187729C115.147224,132.615356,115.529419,133.257202,116.322144,134.112457L116.5793,134.368774C117.071938,134.818069,117.642937,135.131485,118.293121,135.309875L119.289238,135.406158C119.724777,135.3703,119.953171,135.209839,119.974846,134.924759C119.989014,134.760956,119.960258,134.5755,119.888992,134.368774L119.824806,134.197891L119.49263,133.513519C119.321327,133.193024,119.103348,132.839996,118.839111,132.455307L118.667809,132.230667zM115.593605,118.930222C115.629448,119.336166,115.71489,119.700027,115.850761,120.020531C116.215027,120.939957,116.693497,121.699341,117.286171,122.297844C117.557495,122.568756,117.810898,122.64711,118.046799,122.533325L117.564583,121.913155C117.221985,121.470947,117.071938,121.175446,117.114868,121.025818L117.971779,121.987762C118.614464,122.700882,119.139191,123.021385,119.546394,122.950119L119.663925,122.896767L119.696014,122.86467C119.703522,122.843414,119.453445,122.529579,118.94622,121.923569C118.46067,121.29631,118.2752,120.925789,118.389397,120.812012L119.117935,121.635162L120.124474,122.768394C120.738815,123.288544,121.121002,123.466919,121.27063,123.303131C121.370659,123.196014,121.181442,122.800491,120.702972,122.116127L120.585434,121.955666L119.471375,120.266434L119.439278,120.159737C119.439278,120.123894,119.588905,120.098892,119.888992,120.084717L120.692551,120.020531C120.98513,119.963432,121.213531,119.870903,121.377747,119.742538C121.549461,119.599998,121.570717,119.482468,121.442345,119.389938L121.31356,119.336166L121.099335,119.314919L120.135307,119.186546C119.935249,119.136948,119.703522,119.018997,119.439278,118.833946C119.175034,119.161537,118.67865,119.414948,117.950104,119.592911C117.171967,119.785461,116.38633,119.564568,115.593605,118.930222zM127.183563,105.608109L127.076447,105.330109C126.898064,104.995018,126.587143,104.62825,126.144516,104.228966C125.901527,104.578232,125.48391,104.884567,124.891243,105.148392C124.877075,105.283852,124.987518,105.754402,125.223419,106.559631C125.494743,107.486145,125.648125,108.142166,125.683968,108.526855C125.769821,109.453781,125.805252,110.739983,125.791084,112.386703C125.776909,113.270699,125.791084,113.805023,125.834007,113.990486L126.358742,113.872955L126.358742,113.669563C126.394585,113.177757,126.537125,112.39045,126.787193,111.306808C127.172722,109.653008,127.383614,108.701485,127.419044,108.452248C127.569084,107.382782,127.49073,106.435013,127.183563,105.608109zM118.078896,89.784454L117.446632,90.564674C117.168221,90.685959,116.878967,90.960617,116.5793,91.388237C116.357574,91.70166,116.16835,92.036758,116.011223,92.393112C115.732811,93.02037,115.679459,93.843521,115.850761,94.862976C115.936615,95.36895,116.050819,95.814499,116.193359,96.199188C116.322144,95.593597,116.600555,95.080124,117.029007,94.659584L117.51123,94.242798L117.864662,93.975639L117.27533,93.419647C117.061104,93.148743,116.971909,92.913254,117.007751,92.714035C117.043182,92.436035,117.139877,92.19722,117.297005,91.997581C117.518318,91.726669,117.817986,91.591217,118.196426,91.591217L118.432327,91.602051C118.574867,91.623306,118.821602,91.712502,119.171288,91.869209C119.49263,92.011749,119.710602,92.083023,119.824806,92.083023L119.888992,92.083023C119.939003,92.068848,120.178238,91.830032,120.606689,91.36657C121.020981,90.917686,121.352737,90.693047,121.602806,90.693047L121.784943,90.73597L122.159637,90.949783L122.502647,91.174431L122.952362,91.452423L123.273697,91.569962L123.412903,91.537865L123.702156,91.388237L123.991402,91.249031C124.091431,91.20652,124.184372,91.184853,124.269814,91.184853C124.398605,91.184853,124.562813,91.241951,124.762871,91.356148C124.905411,91.434502,125.141312,91.676659,125.469742,92.083023L125.984055,92.735291C126.19828,92.913254,126.412506,93.027458,126.626732,93.077469L126.851379,93.109566C127.04435,93.109566,127.208565,93.041626,127.344025,92.906174C127.608261,92.656937,127.790398,92.328926,127.890427,91.922562C127.976288,91.523697,127.965446,91.170677,127.858337,90.864342C127.765388,90.621773,127.629936,90.411713,127.451134,90.23333C127.465721,90.504242,127.390701,90.707214,127.226486,90.842667C127.019348,91.006882,126.794281,91.08857,126.551712,91.08857C126.194527,91.08857,125.884026,90.93895,125.619781,90.639694C124.984184,89.912819,124.541557,89.516876,124.291489,89.45269L124.034332,89.420601L123.52002,89.516876L123.102402,89.613152C122.988205,89.613152,122.891922,89.573975,122.813156,89.495621L122.438461,88.982559C122.081276,88.397812,121.813705,88.095222,121.634903,88.073547L121.559883,88.073547C121.352737,88.073547,121.099335,88.17691,120.799667,88.383636L120.510414,88.608284L120.178238,88.790001C119.813965,88.918373,119.49971,88.996727,119.235474,89.02507C118.814102,89.082169,118.428574,89.335159,118.078896,89.784454zM117.650436,103.394981C117.72879,103.694229,117.832573,103.925964,117.960945,104.08976C118.289368,104.503212,118.76075,104.852478,119.37468,105.137558C119.996101,105.429726,120.585434,105.576019,121.142265,105.576019L121.185188,105.576019C121.734932,105.590187,122.124207,106.538376,122.352608,108.420158C122.48848,109.525055,122.556,110.736649,122.556,112.055359C122.563499,113.381149,122.505981,114.27182,122.384697,114.728195C122.313431,114.98494,122.20256,115.116638,122.052521,115.123726L121.570717,115.123726L119.535553,114.952843C119.449699,115.80809,119.428444,116.695419,119.471375,117.614853C120.599609,117.807404,121.677834,117.821579,122.706039,117.657776C123.370392,117.557747,124.020164,117.36895,124.655762,117.09095C125.319695,116.80587,125.901527,116.449524,126.401672,116.021896L126.347908,114.321831L125.780243,114.428947L125.748154,114.428947L125.555595,114.353928C125.462654,114.268486,125.401802,114.083015,125.373459,113.797928L125.362625,112.375862C125.376801,110.743736,125.34095,109.475037,125.255508,108.569778C125.226753,108.206345,125.077126,107.575333,124.805382,106.677162L124.473625,105.373039C124.437782,105.087959,124.484047,104.898743,124.612831,104.806213L124.64492,104.784958C125.244675,104.521133,125.633957,104.243141,125.81234,103.950974L125.126724,103.384148C124.891243,103.505432,124.630753,103.615875,124.344833,103.715485C124.152283,104.107681,123.859283,104.403603,123.466675,104.603241C123.11657,104.781204,122.709793,104.870399,122.245491,104.870399C121.352737,104.870399,120.538757,104.588654,119.803131,104.025574C119.010826,103.427071,118.614464,102.707283,118.614464,101.866211L117.575417,102.614342C117.560829,102.863998,117.585838,103.124069,117.650436,103.394981zM114.779625,107.607422C114.686676,108.199265,114.622498,109.093681,114.586655,110.291107C114.536636,111.802368,114.636665,113.384483,114.886734,115.038284C115.043869,116.05024,115.233086,116.966331,115.454399,117.786148L115.475655,117.882423C115.518585,118.08165,115.575684,118.227936,115.647369,118.320465C116.375496,119.04776,117.082359,119.33284,117.767967,119.176125C118.42524,119.011909,118.842857,118.823105,119.02124,118.609299C118.914131,117.953697,118.867867,117.440216,118.882034,117.069695C118.932053,115.62262,119.114189,114.325584,119.428444,113.177757C119.606827,112.515068,119.892738,111.727341,120.285355,110.815002L120.488739,110.996719C120.074455,112.137047,119.792709,113.163589,119.64267,114.075928L119.578484,114.525223L121.945404,114.696106C122.131294,114.232635,122.181305,112.917679,122.095451,110.750816C122.002922,108.448502,121.774109,106.951828,121.409836,106.260376C121.310226,106.089081,121.231453,106.003639,121.174355,106.003639L121.131424,106.003639C120.510414,106.003639,119.863983,105.846924,119.192543,105.533089C118.514435,105.212578,117.993034,104.820389,117.628769,104.357338C117.271996,103.908043,117.111115,103.441246,117.146957,102.95652C116.568466,103.455414,116.143341,103.925964,115.872017,104.36776C115.336449,105.251755,114.972595,106.33165,114.779625,107.607422zM115.454399,120.181C115.290184,119.767548,115.186821,119.286575,115.14389,118.737671C115.09388,120.148903,115.161812,121.325073,115.347282,122.265755C115.597351,123.520279,116.079163,124.553902,116.793526,125.366631L116.911064,126.114761L116.761017,126.082672L116.129173,125.473328C115.800743,125.131149,115.561508,124.828148,115.411469,124.564743C115.211411,125.234512,115.083038,126.018906,115.02594,126.916656C115.004684,127.294678,115.01886,127.793571,115.068871,128.413742L115.14389,128.75592C115.179321,128.919724,115.193909,129.044342,115.186821,129.130203C115.301018,129.771637,115.543587,130.370132,115.914948,130.926132C116.186272,131.346664,116.589722,131.663834,117.12529,131.877655C117.710869,132.098541,118.214348,132.081039,118.635719,131.824295L119.706856,129.140625L120.403305,127.515579L120.467484,127.376373L120.788826,126.638657L120.863846,126.45694C121.31356,125.402061,121.649071,124.482635,121.870804,123.698654C122.263412,122.379951,122.513481,121.08625,122.620598,119.817558C122.634766,119.696274,122.713127,119.610832,122.856079,119.560822C122.999039,119.510803,123.063225,119.560822,123.049049,119.710442C122.956108,120.808258,122.741882,121.959412,122.406372,123.163925C122.13504,124.126282,121.7491,125.224091,121.249374,126.45694C121.720757,127.098373,122.252579,127.56559,122.845245,127.857758C123.595039,128.221191,124.202293,128.139084,124.666176,127.611855C125.594772,126.564056,126.208702,124.974442,126.508781,122.843414C126.808456,120.776161,126.794281,118.645142,126.465858,116.449524C126.001556,116.820038,125.430565,117.155136,124.752037,117.454391C123.988068,117.811157,123.145332,118.046219,122.224236,118.160423C121.324394,118.26712,120.417473,118.252945,119.503464,118.117493L119.524719,118.352562C119.781876,118.573875,120.021111,118.712662,120.242424,118.76976L121.110168,118.887291L121.516953,118.940643C121.652824,118.976486,121.752853,119.05484,121.817039,119.176125C121.902893,119.325752,121.906227,119.482468,121.827873,119.646255C121.670746,119.981354,121.249374,120.216843,120.563766,120.351875L120.081963,120.426895L121.045982,121.870224C121.34565,122.283676,121.538628,122.593765,121.624062,122.800491C121.767021,123.13559,121.756187,123.399414,121.591972,123.591545C121.256462,123.947891,120.695885,123.834106,119.910248,123.249359L119.696014,123.356476C119.324661,123.463181,118.82869,123.324387,118.20726,122.939278L117.650436,122.982208C117.400368,122.93219,117.175301,122.804245,116.975243,122.597511C116.347153,121.962753,115.83992,121.157524,115.454399,120.181zM118.442749,92.007996L118.378563,92.007996C117.985947,92.007996,117.72171,92.218475,117.585838,92.639015C117.443298,93.087891,117.657524,93.473,118.228516,93.793922C118.257278,93.793922,118.289368,93.8256,118.325211,93.889786C118.368141,93.953972,118.343132,94.014816,118.250191,94.071922C117.807564,94.328239,117.4683,94.570808,117.232399,94.79879C116.668488,95.333527,116.393417,95.935783,116.407585,96.605553C116.600555,96.099579,116.882721,95.632782,117.254074,95.205154C117.682526,94.755859,117.971779,94.502876,118.121407,94.445778L118.196426,94.435356C118.268112,94.435356,118.314377,94.463699,118.335632,94.520798C118.35022,94.577896,118.328545,94.624161,118.271446,94.659584L118.003868,94.873398L117.446632,95.376038C117.13237,95.675293,116.793526,96.188766,116.42926,96.915642L116.472183,97.161545C116.714752,96.61264,117.018173,96.156677,117.382446,95.793243C117.65377,95.536499,117.893005,95.365616,118.100151,95.279762L118.143074,95.279762C118.20726,95.279762,118.239357,95.318939,118.239357,95.397293C118.239357,95.476067,118.193092,95.543587,118.100151,95.600685L117.564583,96.00705C117.300339,96.277962,116.975243,96.708916,116.589722,97.300751L116.621811,97.289917L116.643486,97.343262L116.825623,97.397026C116.925644,97.453712,116.936066,97.539566,116.857712,97.653351C116.350487,98.03846,116.218361,98.519432,116.461349,99.09668C116.703918,99.667259,117.129044,99.952339,117.735878,99.952339L117.896759,99.941498C118.539444,101.088913,119.324661,101.965828,120.253258,102.571831C120.346199,102.636017,120.388718,102.685616,120.38163,102.721458C120.374542,102.756882,120.328278,102.774803,120.242424,102.774803C119.949837,102.774803,119.603493,102.639351,119.203377,102.368439C119.260475,102.896088,119.628502,103.373726,120.30661,103.801346C120.93512,104.200211,121.545708,104.399849,122.138374,104.399849C122.402618,104.399849,122.620598,104.346497,122.791901,104.239388L122.738129,104.239388L122.031265,104.08976C121.709923,103.99015,121.559883,103.915131,121.581551,103.865532C121.581551,103.850945,121.595726,103.843857,121.624062,103.843857L122.320511,103.908043C122.89901,103.908043,123.56295,103.747581,124.312744,103.427071C125.626869,102.856911,126.60173,101.848289,127.236908,100.401215C127.844162,99.018326,127.997543,97.592918,127.697868,96.124588C127.519073,95.205154,127.151466,94.285728,126.594223,93.365883C126.344574,93.33046,126.062408,93.18792,125.748154,92.938263L125.223419,92.275574C124.894997,91.862122,124.677017,91.62706,124.569901,91.569962L124.355675,91.51619C124.148529,91.51619,123.902214,91.602051,123.616714,91.772934L123.209518,91.858376C122.988205,91.858376,122.684784,91.758759,122.299255,91.55912C122.149216,91.473679,121.974167,91.430756,121.774109,91.430756C121.281471,91.430756,120.835091,91.662483,120.435394,92.125946C120.30661,92.275574,120.146149,92.350182,119.953171,92.350182L119.385513,92.211388C119.192543,92.140121,118.8787,92.072182,118.442749,92.007996zM117.607506,97.482468C117.614594,97.368271,117.667946,97.261574,117.767967,97.161545L118.025124,96.947739L118.08931,96.937317C118.146408,96.937317,118.186005,96.968994,118.20726,97.033173C118.228516,97.097359,118.211014,97.143623,118.153915,97.172379L118.01429,97.300751L117.853828,97.53582C117.853828,97.614174,117.810898,97.653351,117.725456,97.653351C117.639603,97.653351,117.600426,97.596252,117.607506,97.482468zM118.110985,96.113747C118.168083,96.113747,118.20726,96.145844,118.228516,96.210022C118.257278,96.281296,118.228516,96.341728,118.143074,96.391747L117.725456,96.669739L117.436211,96.979828L117.211143,97.193634L117.168221,97.140289C117.161133,97.090271,117.196976,96.993996,117.27533,96.851456L117.553741,96.488022C117.703789,96.317139,117.878838,96.195854,118.078896,96.124588L118.110985,96.113747zM124.816223,101.363571C124.823303,101.391914,124.798302,101.42067,124.741203,101.449013L124.37693,101.641571L124.088097,101.684082L123.734245,101.63073C123.670059,101.616562,123.620049,101.584465,123.584625,101.534454C123.541695,101.484856,123.527519,101.431091,123.541695,101.373993C123.570038,101.260208,123.645058,101.20311,123.766754,101.20311L123.809265,101.213943L124.709106,101.320641C124.780792,101.327728,124.816223,101.342316,124.816223,101.363571zM125.298439,93.654716L125.330536,93.440903C125.344704,93.341293,125.394722,93.291283,125.480576,93.291283L125.598106,93.323372L126.412506,93.836433L126.497948,93.932709L126.401672,93.964806L125.512665,93.921875C125.440979,93.921875,125.383881,93.893532,125.34095,93.836433C125.298439,93.786423,125.283852,93.72599,125.298439,93.654716zM121.581551,93.376724C121.68158,93.519264,121.71701,93.611786,121.688667,93.654716L121.495697,93.750992L121.088493,93.921875L120.638786,94.178619L120.317444,94.328239L120.30661,94.328239C120.264099,94.143188,120.392464,93.886452,120.692551,93.558441L121.153099,93.109566L121.27063,93.077469C121.342316,93.077469,121.395668,93.109566,121.431511,93.173744L121.581551,93.376724zM125.619781,95.771568C125.605194,95.57193,125.637703,95.397293,125.716057,95.247665C125.787331,95.105125,125.876938,95.033859,125.984055,95.033859L125.994469,95.033859C126.101585,95.033859,126.194527,95.101791,126.272888,95.237251C126.351654,95.379791,126.394585,95.550674,126.401672,95.750313C126.408752,95.949951,126.376663,96.120834,126.305397,96.263374C126.233704,96.405914,126.140762,96.480934,126.026566,96.488022C125.919449,96.488022,125.826927,96.416748,125.748154,96.274208C125.6698,96.138756,125.626869,95.971207,125.619781,95.771568zM121.217285,96.252953C121.138512,96.1175,121.096001,95.949951,121.088493,95.750313C121.081413,95.543587,121.113503,95.36895,121.185188,95.22641C121.256462,95.08387,121.349403,95.012604,121.4636,95.012604C121.570717,95.012604,121.663658,95.080124,121.742012,95.215576C121.820786,95.358116,121.863297,95.529419,121.870804,95.729057C121.877884,95.928696,121.845795,96.099579,121.774109,96.242119C121.702835,96.384659,121.613647,96.459679,121.506531,96.466766L121.495697,96.466766C121.38858,96.466766,121.295639,96.395493,121.217285,96.252953zM123.605881,95.279762C123.56295,95.14431,123.580872,95.069702,123.659645,95.055534L123.670059,95.055534C123.734245,95.055534,123.795097,95.115967,123.852196,95.237251L124.291489,96.103333L124.784126,96.78727L125.126724,97.21489C125.219666,97.336182,125.223419,97.450378,125.137566,97.557076L124.666176,98.262688C124.587822,98.348549,124.494881,98.39106,124.387764,98.39106L124.152283,98.337715L124.045166,98.252274C124.023499,98.209343,124.030579,98.163078,124.066422,98.113068L124.462784,97.578751C124.555733,97.464546,124.562813,97.343262,124.484047,97.21489L124.045166,96.370483C123.866371,96.028305,123.720078,95.664871,123.605881,95.279762zM126.412506,98.850777L126.497948,98.904541L126.89431,99.385513C126.930153,99.428436,126.948074,99.485123,126.948074,99.556389L126.915565,99.727692L126.455017,100.444145L126.379997,100.508331C126.344574,100.508331,126.333733,100.472488,126.347908,100.401215L126.347908,100.294518C126.347908,100.187401,126.29789,100.134056,126.19828,100.134056L126.144516,100.144478L125.469742,100.540421C124.927086,100.803833,124.437782,100.935951,124.002243,100.935951L123.991402,100.935951C123.548775,100.935951,122.970284,100.732559,122.256325,100.326195L121.31356,99.706436L121.217285,99.684761C121.124344,99.684761,121.049316,99.723938,120.992218,99.802292L120.981384,100.283684L120.895943,100.34787C120.8601,100.34787,120.838844,100.315773,120.831757,100.251587L120.627945,99.28923L120.64962,99.107513L120.777992,98.968727L121.849129,98.209343L121.924149,98.177246C121.974167,98.177246,121.981247,98.216431,121.945404,98.294785L121.817039,98.626541C121.795776,98.683228,121.809952,98.74408,121.859962,98.808266L122.020432,98.914963C122.999039,99.278397,123.727165,99.488876,124.205627,99.545975L124.494881,99.556389L125.608948,99.449692L126.176605,99.342583C126.233704,99.335495,126.283722,99.310486,126.326653,99.267975L126.379997,99.107513L126.369576,98.947052C126.369576,98.882866,126.383751,98.850777,126.412506,98.850777zM126.219536,99.545975L126.187447,99.545975L125.598106,99.652672L124.398605,99.759781L124.098518,99.748947C123.534607,99.706436,122.809814,99.503044,121.924149,99.13961L121.666992,99.086258C121.566963,99.086258,121.474442,99.118347,121.38858,99.182533C121.302727,99.260895,121.285217,99.342583,121.335236,99.428436L121.506531,99.578064C122.291756,99.998596,122.831078,100.258675,123.124077,100.358284L124.195213,100.49749L124.880409,100.42247L126.19828,99.962753C126.305397,99.941498,126.37291,99.863144,126.401672,99.727692C126.437515,99.606407,126.376663,99.545975,126.219536,99.545975z"/>
    <path transform="matrix(-1,0,0,1,0,0)" style="stroke:none;fill:#000000;fill-rule:evenodd" d="M125.610802,137.4823C125.151733,137.030701,124.819565,136.744812,124.615784,136.626129C124.38588,136.497726,124.250023,136.583572,124.207474,136.881409C124.079834,137.938385,124.164925,138.807999,124.462761,139.489502C124.232857,140.223267,124.30526,140.827881,124.67923,141.305618L124.692665,141.343689L123.990257,141.625092C123.743927,141.719147,123.56105,141.83783,123.44162,141.983398C123.313972,142.15358,123.310242,142.311081,123.428925,142.455902C123.676003,142.771652,124.029068,142.894806,124.488136,142.826889C124.87928,142.767166,125.198761,142.609665,125.445091,142.353638C125.828018,142.63504,126.146751,142.776123,126.402039,142.776123C126.649109,142.776123,126.920822,142.626831,127.218651,142.328247C127.371674,142.166275,127.563515,142.038635,127.792671,141.94458C128.328629,141.757217,128.698868,141.58255,128.902649,141.420563C129.098221,141.250381,129.332596,140.947327,129.605057,140.512894C130.064117,140.538269,130.510498,140.483032,130.944183,140.346436C130.98674,140.346436,130.995697,140.371811,130.969574,140.423309L130.179077,141.791565C130.111145,141.910995,129.813309,142.166275,129.285568,142.558167C128.877274,142.86496,128.681702,143.180695,128.698868,143.504654C128.698868,143.836838,128.975052,144.003296,129.528168,144.003296C129.749115,144.003296,130.195496,143.63678,130.868042,142.903763C131.52269,142.17897,131.969055,141.58255,132.207932,141.113785L133.024551,140.039642C133.559753,139.332001,133.917297,138.765442,134.095703,138.339233C134.215134,138.040649,134.193481,137.831635,134.032257,137.712952C133.93895,137.644287,133.891922,137.576355,133.891922,137.508423L133.929993,137.392731C134.159897,137.265076,134.665985,136.834381,135.448273,136.101364L136.852341,134.707748C137.191971,135.176514,137.753311,135.266083,138.536331,134.976471C139.046906,134.780151,139.556732,134.465149,140.067307,134.029968L140.858536,133.263367C141.326569,132.752045,141.653503,132.593796,141.840866,132.790115C141.993896,133.131241,142.159607,133.318604,142.338745,133.352936C142.576874,133.395493,142.763474,133.173798,142.900085,132.687851C143.035934,132.151154,142.80603,131.673431,142.211105,131.256165C141.921478,131.059845,141.419876,131.16658,140.705521,131.575638L139.620926,132.176529C139.518661,132.107864,139.395493,131.945877,139.250687,131.690598C138.910309,131.050888,138.569916,130.620926,138.230286,130.399231L137.579376,130.053635C137.860046,129.823715,138.391525,129.661743,139.174545,129.568436L141.355667,129.683395C142.334274,129.930466,143.193436,130.002869,143.933167,129.900604C144.528839,129.806549,145.047623,129.60202,145.490265,129.287018C146.17923,128.79213,146.702499,128.10614,147.059296,127.228317C147.492981,126.17955,147.574356,125.071815,147.301895,123.903625C147.233963,123.613998,147.04213,123.452019,146.727875,123.418434C146.412872,123.384094,146.259857,123.580414,146.268066,124.00589C146.268066,124.875504,146.221786,125.557755,146.127731,126.05191C145.906784,127.296242,145.443237,128.097931,144.737091,128.455475C144.498978,128.583862,144.231003,128.673447,143.933167,128.724197L141.828171,128.621933C140.280045,128.289764,139.06781,128.170334,138.191467,128.263641C137.902588,128.297974,137.459946,128.430099,136.865036,128.660004L135.780441,129.030991C132.717758,129.397491,130.493332,131.038193,129.107178,133.953827C128.426407,134.26062,127.95018,134.635345,127.677719,135.078735C127.456772,135.437027,127.29554,135.995377,127.193275,136.753769C126.504303,136.932907,125.976563,137.175507,125.610802,137.4823zM127.729225,140.4487L127.703842,140.525574C127.652344,140.687561,127.533661,140.836853,127.346298,140.972702C127.176109,141.092133,127.018608,141.151855,126.874542,141.151855L126.797653,141.151855L126.759583,141.13916L126.746902,141.101089C126.695389,140.870438,126.742416,140.66217,126.88723,140.474075L126.937988,140.410629L127.167892,140.704727L127.435867,140.397934L127.473938,140.371811L127.512009,140.397934L127.639648,140.4487L127.729225,140.4487zM125.432404,141.151855L125.381638,141.151855C125.236832,141.151855,125.062157,141.071228,124.858383,140.909256C124.696396,140.772644,124.585922,140.623367,124.526207,140.46138L124.513519,140.410629L124.794189,140.269547L124.819565,140.308365L125.049469,140.640533L125.304756,140.371811L125.342827,140.4487C125.4533,140.645004,125.48764,140.862228,125.445091,141.101089L125.432404,141.151855zM127.256721,137.930176L127.256721,137.904785L127.282852,137.878662C128.320419,137.018005,128.984009,136.570145,129.272888,136.536545L129.323639,136.523865L129.349762,136.574615C129.672974,137.256866,129.736435,137.993622,129.540863,138.786346L129.451294,138.85054C129.408737,138.85054,129.387833,138.820679,129.387833,138.760971C129.362457,138.130219,129.255722,137.589035,129.069107,137.137436C128.847412,137.290466,128.533157,137.474091,128.124847,137.686829L127.42318,138.109314L127.371674,138.16008L127.333603,138.095886L127.256721,137.930176z"/>
</svg>
