<?xml version="1.0" encoding="UTF-8"?>
<svg xmlns="http://www.w3.org/2000/svg" xmlns:xlink="http://www.w3.org/1999/xlink" width="38.266mm" height="66.983mm" viewBox="-140.790985 150.083633 38.265800 66.982697">
    <path transform="matrix(-1,0,0,1,0,0)" style="stroke:none;fill:#000000;fill-rule:evenodd" d="M118.390533,206.959244C117.903107,206.455399,117.542572,206.142639,117.308929,206.021713C117.046181,205.881378,116.896889,205.974686,116.858818,206.301636C116.718491,207.477295,116.812546,208.429764,117.140228,209.157547C116.87748,209.932358,116.957352,210.595215,117.379097,211.146088C117.425377,211.220734,117.435081,211.276718,117.406715,211.314041L118.22184,212.294128C118.652542,212.592712,118.998894,212.742004,119.261642,212.742004C119.542313,212.742004,119.846863,212.578522,120.174553,212.251587C120.343246,212.074677,120.553749,211.934341,120.806793,211.832077C121.424858,211.617096,121.83242,211.42601,122.02948,211.258057C122.2258,211.09906,122.483322,210.767639,122.802055,210.263779C123.00808,210.674332,122.619179,211.383453,121.636101,212.391907C120.530609,213.521301,119.96405,214.137115,119.935692,214.240128C119.861046,214.529007,119.655022,214.832809,119.317627,215.150055L118.839897,215.541931C118.493546,215.821854,118.296486,216.059967,118.250206,216.256287C118.165855,216.619812,118.413673,216.876587,118.994415,217.025879C119.294487,217.110229,119.622177,217.072906,119.978233,216.91391C120.417892,216.718338,120.703781,216.395874,120.835159,215.947998C120.938171,215.574783,121.345734,215.084366,122.057098,214.478241L123.630615,212.993561C124.2024,212.219482,124.684601,211.67308,125.077988,211.355835C125.714706,211.159531,126.511169,210.216766,127.465881,208.527542C128.346695,206.800995,128.852036,205.858231,128.983414,205.699249C129.180481,206.446442,129.845566,206.492722,130.978668,205.839569C132.027435,205.08342,132.523819,204.766174,132.467834,204.887848C131.765427,205.531296,131.413849,205.993347,131.413849,206.273254C131.413849,206.441208,131.493729,206.581543,131.65271,206.693512C132.074463,207.001801,132.496201,206.977905,132.917206,206.623352C133.170258,206.399414,133.914459,205.307358,135.151337,203.347183C135.310318,203.085922,135.423035,202.829147,135.487976,202.577591C135.600693,202.175995,135.558884,201.896072,135.361832,201.737091C135.184174,201.587799,134.701218,201.67662,133.914459,202.003571C133.174728,202.311111,132.805237,202.441727,132.805237,202.395447C132.964233,201.900558,133.029922,201.396698,133.001556,200.883148C132.954529,199.865738,132.482025,199.175262,131.58255,198.811005C131.695267,198.727402,132.013245,198.661713,132.53801,198.615433L134.322021,198.460907C136.129929,198.246689,137.53923,197.76149,138.551407,197.005341C139.272476,196.464157,139.866653,195.428085,140.335419,193.897125C140.850479,192.226563,140.930344,190.742615,140.574295,189.445282C140.489944,189.127304,140.269745,188.954865,139.913681,188.927246C139.557617,188.908585,139.398636,189.127304,139.435959,189.584869C139.520309,190.966553,139.54866,191.843628,139.520309,192.216858C139.37027,193.906082,138.808929,195.133987,137.834824,195.899094C136.80397,196.7202,135.151337,197.262115,132.875397,197.523376L129.587296,197.69133C128.060791,197.943619,126.581337,198.652756,125.148148,199.819458C123.77095,200.930176,122.731888,202.223022,122.02948,203.697266C121.242722,204.051819,120.703781,204.430283,120.413414,204.831863C120.123047,205.223755,120.034218,205.667145,120.146935,206.161301C119.397499,206.3479,118.811531,206.614395,118.390533,206.959244zM120.722443,210.193619L120.694824,210.291397C120.656761,210.460098,120.526131,210.622833,120.301453,210.78183C120.123047,210.90274,119.954346,210.963959,119.795357,210.963959L119.655022,210.963959L119.655022,210.907974C119.598297,210.65567,119.649796,210.427261,119.80954,210.221985L119.865524,210.151825L120.104385,210.487717L120.413414,210.137634L120.455963,210.110016L120.497765,210.137634L120.6381,210.193619L120.722443,210.193619zM117.449265,210.025665L117.491066,210.01149L117.533615,210.039856L117.786659,210.417557L117.997162,210.179443L118.067322,210.123444L118.109123,210.193619C118.231537,210.4086,118.268867,210.646713,118.22184,210.907974L118.207657,210.963959L118.151672,210.963959C117.954613,210.963959,117.762772,210.875122,117.575409,210.697479C117.369392,210.520569,117.247719,210.361572,117.210396,210.221985L117.182037,210.166L117.449265,210.025665zM120.230537,207.393677C121.345734,206.460617,122.080986,205.965729,122.436295,205.909744L122.493027,205.909744L122.520645,205.951538C122.876701,206.71666,122.94239,207.528793,122.717712,208.387955L122.633362,208.457382C122.577377,208.457382,122.549011,208.425278,122.549011,208.359589C122.511688,207.603439,122.394493,207.010757,122.197433,206.581543L121.158371,207.169754C120.811272,207.346649,120.558975,207.501175,120.399231,207.631805L120.343246,207.68779L120.28727,207.617615L120.217102,207.449677L120.217102,207.407867L120.230537,207.393677z"/>
    <path transform="matrix(-1,0,0,1,0,0)" style="stroke:none;fill:#000000;fill-rule:evenodd" d="M115.508743,150.085754L115.550003,150.092102L115.588226,150.101883L115.664795,150.125427L115.704071,150.139709L115.758163,150.167343L115.845047,150.220245L115.879562,150.243774L115.896622,150.257401L115.99395,150.339539L116.024506,150.368103L116.132149,150.479431L116.151588,150.501007L116.269684,150.641708L116.282776,150.658112L116.411186,150.828033L116.420441,150.840866L116.559433,151.040161L116.566437,151.050476L116.71006,151.270264L117.085106,151.784042L117.479195,151.695572L117.493744,151.692535L118.064117,151.585815L118.105515,151.580261L118.147301,151.578796L118.191467,151.58197L118.476593,151.617798L118.517715,151.625092L118.555405,151.635651L118.608307,151.653259L118.647713,151.668732L118.705772,151.694916L118.735657,151.709854L118.798874,151.744766L118.820427,151.757462L118.888794,151.800842L118.907043,151.813141L118.980446,151.865372L118.993408,151.875031L119.07196,151.93573L119.083069,151.94458L119.166641,152.013885L119.175507,152.021545L119.264374,152.099579L119.271912,152.106323L119.365807,152.192932L119.372154,152.198883L119.471069,152.294113L119.476364,152.299271L119.580444,152.403076L119.585205,152.407837L119.694435,152.520386L119.698402,152.524612L119.81266,152.645752L119.816101,152.649445L119.935516,152.779175L119.93869,152.782745L120.063133,152.921082L120.06591,152.923996L120.189301,153.063904L120.283455,153.161774L120.369019,153.235687L120.45723,153.297729L120.544113,153.345856L120.631126,153.381836L120.723167,153.408264L120.817596,153.423889L120.921272,153.429443L120.987396,153.426666L121.05101,153.418579L121.113297,153.404846L121.173065,153.386047L121.231125,153.361847L121.289307,153.331451L121.34697,153.294678L121.40741,153.248779L121.443909,153.217041L121.463478,153.194565L121.478424,153.171295L121.490723,153.14418L121.500771,153.109528L121.507912,153.064041L121.510292,153.004532L121.505005,152.918182L121.504471,152.876389L121.508308,152.834717L121.516373,152.793732L121.528412,152.753784L121.54454,152.715179L121.564377,152.678406L121.587921,152.64389L121.614899,152.611893L121.644791,152.582794L121.677582,152.556885L121.712761,152.534393L121.750183,152.515625L121.7892,152.500671L121.829529,152.489838L121.870659,152.482956L121.912453,152.480438L121.954109,152.482162L121.995499,152.487976L122.036102,152.498032L122.075378,152.512054L122.113197,152.530029L122.148903,152.551727L122.182228,152.576981L122.214897,152.607529L122.36367,152.762665L122.397392,152.802582L122.522102,152.970947L122.551331,153.016296L122.652229,153.197998L122.67511,153.246399L122.752335,153.441467L122.7612,153.466064L122.803383,153.596069L122.812645,153.629517L122.844116,153.764282L122.850601,153.797867L122.871231,153.937531L122.874664,153.969513L122.884583,154.113937L122.885513,154.144745L122.884583,154.293915L122.883392,154.322876L122.871628,154.476959L122.868851,154.502991L122.846497,154.661957L122.84227,154.686691L122.808937,154.85054L122.80378,154.87236L122.760803,155.037262L122.753265,155.063049L122.701294,155.21991L122.691376,155.246613L122.630409,155.395264L122.61824,155.422104L122.548553,155.562546L122.533478,155.590317L122.50914,155.631042L122.541275,155.653L122.569977,155.677063L122.602509,155.706818L122.631996,155.736572L122.649582,155.757599L122.679474,155.795959L122.710152,155.841461L122.737526,155.888275L122.757759,155.927277L122.782623,155.982559L122.795982,156.016281L122.818199,156.080154L122.831558,156.127228L122.863953,156.274963L122.871758,156.325195L122.886436,156.483246L122.888153,156.529266L122.884979,156.697739L122.882202,156.737549L122.861443,156.916351L122.856415,156.948608L122.843193,157.015656L122.834732,157.050568L122.812508,157.127274L122.804443,157.152008L122.773361,157.238495L122.765694,157.258453L122.725494,157.354462L122.719406,157.368225L122.670479,157.47403L122.664658,157.486053L122.606735,157.601379L122.601845,157.610901L122.534927,157.73587L122.53083,157.743271L122.455185,157.877899L122.432968,157.913208L122.407181,157.946136L122.37822,157.976288L122.346344,158.003265L122.311966,158.027069L122.27533,158.04718L122.245316,158.059875L122.283264,158.161163L122.289482,158.179016L122.411674,158.557098L122.417229,158.575882L122.519058,158.951065L122.523956,158.971039L122.605415,159.34317L122.608459,159.358124L122.663467,159.663208L122.665848,159.678146L122.709229,159.982056L122.711075,159.997528L122.742683,160.300354L122.744003,160.315964L122.763977,160.617752L122.764771,160.633621L122.773102,160.934204L122.773232,160.950348L122.769791,161.249756L122.769264,161.265884L122.754189,161.564224L122.752998,161.580505L122.726151,161.877655L122.724434,161.893646L122.685951,162.189758L122.683571,162.205872L122.633316,162.500916L122.63028,162.516663L122.56839,162.810516L122.564819,162.826111L122.491287,163.118774L122.48719,163.133972L122.401886,163.425568L122.397263,163.440399L122.300323,163.730927L122.295166,163.745346L122.186462,164.034821L122.180908,164.048859L122.060432,164.337158L122.054214,164.351166L121.91774,164.646606L121.910599,164.66153L121.765259,164.945618L121.757065,164.960693L121.602867,165.233368L121.593735,165.248718L121.430817,165.509888L121.420761,165.52536L121.248978,165.775177L121.237869,165.790527L121.05722,166.028961L121.045059,166.044281L120.855545,166.27124L120.842453,166.286041L120.644218,166.501587L120.630333,166.516022L120.42337,166.720215L120.408424,166.734222L120.192474,166.927032L120.176735,166.940399L119.952049,167.121704L119.935654,167.134247L119.766769,167.257111L120.492004,167.949951L120.520706,167.980377L120.546227,168.013428L120.568176,168.048859L120.594101,168.105591L120.656387,168.274475L120.668945,168.314423L120.673973,168.336487L120.691429,168.424316L120.719597,168.419678L120.761261,168.417175L120.803047,168.418884L120.844307,168.424835L120.884903,168.434875L120.924179,168.449036L120.961868,168.467041L120.997574,168.488708L121.030907,168.513977L121.061455,168.542542L121.080765,168.563843L121.971298,169.620056L121.984657,169.636749L122.366318,170.139923L122.372398,170.148254L122.745728,170.667053L122.751678,170.675507L123.11628,171.209778L123.121704,171.217987L123.477966,171.767853L123.483261,171.776062L123.830933,172.341553L123.835823,172.349731L124.174896,172.930817L124.179398,172.938751L124.510139,173.535309L124.514374,173.543121L124.836655,174.155426L124.839294,174.160431L125.028275,174.531799L125.030396,174.536163L125.211571,174.902588L125.213684,174.906952L125.387192,175.268799L125.389435,175.27356L125.555008,175.630341L125.557259,175.635254L125.715157,175.987396L125.717407,175.992432L125.867638,176.339722L125.869888,176.345123L126.012177,176.6875L126.014427,176.693054L126.142044,177.01297L126.182114,177.09259L126.202614,177.140839L126.235672,177.234467L126.238846,177.243866L126.266617,177.329041L126.270187,177.340271L126.292801,177.416992L126.296906,177.432068L126.314224,177.500153L126.318459,177.51828L126.330757,177.577789L126.335388,177.605164L126.3424,177.656219L126.345833,177.693115L126.347816,177.735565L126.34623,177.7948L126.342926,177.828796L126.339882,177.852844L126.299812,178.107971L126.293594,178.139709L126.28315,178.183594L126.315552,178.183197L126.357079,178.18692L126.398209,178.194702L126.438141,178.206604L126.476761,178.222626L126.513657,178.24231L126.548302,178.265717L126.580307,178.292572L126.609528,178.322449L126.635582,178.355133L126.658195,178.390167L126.675789,178.424408L126.794807,178.685333L126.797714,178.691956L126.908401,178.946381L126.911713,178.954071L127.013809,179.202301L127.016846,179.210083L127.110611,179.452087L127.113914,179.460815L127.199211,179.696503L127.202515,179.705872L127.279358,179.935333L127.282532,179.945374L127.350899,180.168335L127.354073,180.179443L127.413979,180.396332L127.417152,180.408234L127.468597,180.618622L127.471504,180.631317L127.514618,180.83551L127.517395,180.849915L127.55191,181.04776L127.554161,181.062714L127.580345,181.254211L127.582329,181.271118L127.599915,181.456268L127.601242,181.473999L127.610497,181.652924L127.611023,181.672363L127.611816,181.84494L127.61142,181.865845L127.603752,182.032074L127.601242,182.062347L127.57254,182.300781L127.568573,182.326843L127.523872,182.567535L127.518456,182.592377L127.457619,182.835327L127.451141,182.858063L127.374573,183.103241L127.367165,183.125061L127.27446,183.372498L127.266396,183.392334L127.157822,183.641876L127.149223,183.6604L127.024651,183.912079L127.016052,183.928589L126.87574,184.182495L126.864235,184.201935L126.659256,184.529266L126.646957,184.547638L126.424126,184.864227L126.411163,184.881805L126.170479,185.187958L126.156723,185.204498L125.898056,185.500336L125.886948,185.512482L125.6735,185.737854L125.643219,185.766663L125.613991,185.789673L125.364708,185.968079L125.345665,185.981049L125.154045,186.10257L125.131958,186.11554L124.955147,186.21286L124.926056,186.227417L124.764183,186.300537L124.724907,186.31601L124.57785,186.365082L124.523895,186.379089L124.391785,186.404083L124.350388,186.40979L124.31839,186.411224L124.20108,186.41217L124.159294,186.410431L124.1064,186.401978L124.003906,186.378693L123.963707,186.36734L123.92482,186.35199L123.898773,186.33902L123.811356,186.291687L123.77565,186.269989L123.734787,186.238403L123.682022,186.191833L123.65213,186.162598L123.614578,186.11554L123.575432,186.058411L123.553612,186.022827L123.530998,185.973907L123.504944,185.906464L123.491852,185.866791L123.482468,185.823792L123.469772,185.745636L123.464478,185.684814L123.464348,185.673309L123.451653,185.675415L123.37812,185.681763L123.336464,185.683228L123.304855,185.681519L123.235962,185.675171L123.194565,185.66922L123.157669,185.660217L123.093132,185.641296L123.053726,185.627563L123.017883,185.611023L122.957718,185.579529L122.921745,185.558258L122.893051,185.537476L122.837372,185.493439L122.805901,185.465942L122.766754,185.422028L122.720467,185.362122L122.696663,185.327881L122.67643,185.29126L122.65818,185.247864L122.632263,185.174866L122.620224,185.134949L122.612427,185.093811L122.609253,185.062866L122.603828,184.97702L122.603302,184.935242L122.607666,184.889221L122.622604,184.790436L122.623001,184.78833L122.576851,184.787262L122.498955,184.779846L122.457565,184.773773L122.417099,184.76358L122.384827,184.752228L122.314346,184.72406L122.27639,184.706604L122.240288,184.685425L122.2145,184.666931L122.151413,184.617981L122.119812,184.590759L122.090981,184.560455L122.060959,184.520782L122.04615,184.498566L122.024727,184.462738L122.007141,184.424927L121.994576,184.389465L121.986115,184.361572L121.976059,184.320953L121.969452,184.270844L121.967072,184.237122L121.966141,184.195343L121.967995,184.168091L121.971832,184.128693L121.979897,184.077911L121.990082,184.032684L121.999603,183.997772L122.015869,183.946838L122.02565,183.919617L122.048264,183.862885L122.056862,183.842651L122.085693,183.780212L122.096664,183.75827L122.172836,183.616241L122.185005,183.595215L122.286308,183.430298L122.295166,183.416534L122.421196,183.228607L122.428337,183.21817L122.579361,183.007233L122.588226,182.995483L123.181343,182.226471L123.041687,181.977722L123.023178,181.940277L123.003601,181.884735L122.837906,181.280121L122.828911,181.239258L122.823883,181.195343L122.800079,180.791473L122.799812,180.749695L122.80365,180.708038L122.811714,180.667023L122.823883,180.627106L122.840019,180.588623L122.851654,180.567322L122.840019,180.559113L122.808281,180.531891L122.779579,180.501587L122.754059,180.468414L122.727341,180.424103L122.579498,180.140289L122.419876,179.854919L122.247696,179.566101L122.056335,179.263245L121.851746,178.955505L121.633812,178.643036L121.402252,178.325378L121.355171,178.263214L121.321312,178.486694L121.290894,178.727783L121.272247,178.929077L121.248711,179.700317L121.24527,179.741974L121.237732,179.783112L121.225967,179.823181L121.210358,179.861938L121.190788,179.898834L121.167648,179.933594L121.127441,179.980164L121.122818,179.984772L121.129692,179.990601L121.158783,180.020477L121.18457,180.053284L121.207054,180.088593L121.22583,180.125885L121.240776,180.164886L121.251617,180.205231L121.258362,180.24649L121.260345,180.272278L121.319992,181.495026L121.319992,181.536804L121.315628,181.578339L121.307167,181.619202L121.294601,181.659149L121.278069,181.697479L121.257706,181.733978L121.242889,181.755157L121.249374,181.762299L121.274368,181.795868L121.295654,181.831726L121.313377,181.869659L121.327133,181.909088L121.336784,181.949677L121.342346,181.991211L121.343666,182.017395L121.349747,182.350128L121.349747,182.356995L121.350281,182.681793L121.350281,182.689331L121.344986,183.006195L121.344727,183.013855L121.333878,183.322662L121.333481,183.330719L121.316948,183.631561L121.316422,183.640167L121.294205,183.932953L121.293411,183.941833L121.26564,184.226685L121.26458,184.236328L121.230988,184.513245L121.229797,184.522919L121.190659,184.791901L121.188934,184.80246L121.144104,185.063385L121.14212,185.074249L121.091606,185.327209L121.089096,185.338715L121.03289,185.583771L121.029976,185.595551L120.968216,185.83252L120.964783,185.845093L120.897339,186.074127L120.893234,186.087097L120.820107,186.308228L120.815346,186.321838L120.736526,186.534882L120.729782,186.552063L120.648712,186.744232L120.642502,186.75824L120.54808,186.960724L120.542259,186.972748L120.434479,187.185669L120.429054,187.195831L120.308052,187.419067L120.302895,187.428192L120.168533,187.661743L120.16391,187.669678L120.01619,187.913666L120.011826,187.920807L119.850746,188.17511L119.846649,188.181458L119.672218,188.446075L119.647491,188.479675L119.619453,188.510742L119.588509,188.538788L119.554787,188.563538L119.518814,188.584686L119.480858,188.602142L119.441315,188.615631L119.400589,188.625153L119.375854,188.628326L119.393974,188.666687L119.400719,188.68161L119.486679,188.883148L119.493156,188.899414L119.568275,189.098572L119.574356,189.115784L119.638763,189.312561L119.644447,189.331085L119.698135,189.525482L119.703033,189.545441L119.74588,189.737457L119.749977,189.758362L119.782112,189.947876L119.785286,189.970215L119.80658,190.157349L119.808563,190.180481L119.819138,190.365234L119.819801,190.389038L119.819672,190.571411L119.818878,190.596252L119.807899,190.776123L119.805649,190.800964L119.783966,190.978577L119.780128,191.003723L119.747726,191.178802L119.74231,191.203918L119.699066,191.376648L119.692055,191.401093L119.6381,191.57132L119.630295,191.593781L119.511673,191.904572L119.502281,191.927032L119.360382,192.241791L119.350464,192.262299L119.185028,192.580994L119.174973,192.599243L118.98613,192.92218L118.976082,192.938446L118.763962,193.265228L118.754044,193.279907L118.518379,193.610931L118.508591,193.624023L118.249527,193.959137L118.240135,193.970886L117.957657,194.309967L117.946022,194.323334L117.49189,194.82309L117.484222,194.831268L117.024139,195.310547L117.015808,195.319L116.549644,195.777496L116.540649,195.78595L116.068405,196.223541L116.046722,196.24234L115.364067,196.791809L115.379013,196.816925L115.553841,197.14267L115.558205,197.151123L115.71994,197.469849L115.724442,197.478699L115.873215,197.790253L115.877708,197.800171L116.01339,198.104889L116.017891,198.115448L116.14061,198.412994L116.145241,198.424652L116.254868,198.715179L116.259369,198.727753L116.356041,199.011292L116.360405,199.024902L116.444115,199.301422L116.449402,199.320221L116.509178,199.557587L116.509048,199.557587L116.567101,199.779236L116.568161,199.783051L116.603996,199.925629L116.612595,199.969666L116.618813,200.014221L116.656631,200.008026L116.698425,200.005493L116.740082,200.007233L116.781471,200.013184L116.822067,200.023224L116.861343,200.037384L116.89904,200.055359L116.934746,200.077179L116.966751,200.101379L117.134033,200.241028L117.143822,200.249359L117.295113,200.38385L117.305954,200.393921L117.441376,200.523254L117.453934,200.535797L117.573227,200.659973L117.587112,200.675201L117.690521,200.79422L117.706131,200.813385L117.793678,200.927246L117.811264,200.951843L117.882813,201.060547L117.901588,201.092041L117.95713,201.195313L117.969955,201.221222L118.001297,201.290802L118.014786,201.324646L118.037796,201.390778L118.049568,201.431366L118.064384,201.493927L118.073112,201.544952L118.07946,201.604218L118.081573,201.662933L118.07959,201.71875L118.076019,201.760406L118.072052,201.784058L118.061737,201.836304L118.051552,201.87677L118.042557,201.903229L118.023911,201.952148L118.006989,201.990509L117.992966,202.016144L117.965988,202.061523L117.942848,202.096283L117.927246,202.115997L117.891937,202.158051L117.848953,202.20224L117.805183,202.240845L117.76339,202.273102L117.711418,202.308289L117.672012,202.331818L117.611572,202.363556L117.57653,202.379974L117.507629,202.408264L117.478142,202.419098L117.401039,202.444092L117.373932,202.451904L117.288368,202.473328L117.266281,202.47821L117.172386,202.496338L117.131126,202.502167L117.073074,202.503204L114.756798,202.38446L114.715271,202.380219L114.6838,202.374146L114.279922,202.279449L114.261147,202.274567L113.983566,202.195618L113.965317,202.189941L113.702545,202.101837L113.682968,202.094696L113.435013,201.997375L113.413986,201.988525L113.180832,201.881805L113.159149,201.871094L112.940811,201.755249L112.918198,201.742279L112.714668,201.617188L112.691261,201.601715L112.502686,201.467346L112.479408,201.449493L112.305634,201.306L112.287254,201.289856L111.465088,200.524689L111.463364,200.528809L111.445114,200.566345L111.423164,200.601929L111.397644,200.635132L111.360352,200.673462L111.317635,200.712097L111.285233,200.738525L111.25045,200.761536L111.213425,200.780853L111.173355,200.796844L111.112122,200.817627L111.071922,200.828979L111.030792,200.836273L110.99469,200.839172L110.914948,200.842072L110.873154,200.841553L110.838379,200.837708L110.73999,200.822906L110.690392,200.812317L110.573486,200.779663L110.540825,200.769073L110.405273,200.718689L110.382263,200.70932L110.228065,200.641205L110.208626,200.631958L110.054825,200.554199L110.032738,200.542297L109.89785,200.46347L109.871796,200.44693L109.755951,200.367065L109.725662,200.344055L109.628601,200.26297L109.594482,200.230988L109.516319,200.148987L109.479164,200.103882L109.419785,200.020721L109.397171,199.985535L109.383415,199.959229L109.343079,199.874969L109.32695,199.836365L109.315048,199.797089L109.293625,199.711639L109.28344,199.654114L109.268761,199.513672L109.26651,199.477051L109.264267,199.328796L109.26506,199.296814L109.274841,199.140747L109.277756,199.111115L109.299973,198.947266L109.304337,198.921631L109.338715,198.750092L109.344009,198.727234L109.390686,198.547882L109.396378,198.528046L109.455223,198.340942L109.461174,198.32309L109.532326,198.128296L109.548721,198.089813L109.568825,198.053162L109.592499,198.018799L109.619476,197.98703L109.649628,197.958069L109.682556,197.932281L109.717995,197.910065L109.755424,197.891418L109.776184,197.883636L109.765205,197.868683L109.744049,197.832703L109.726456,197.794769L109.712967,197.755219L109.703445,197.71463L109.698158,197.673096L109.697098,197.650604L109.685066,197.116211L109.684937,197.113037L109.676865,196.571503L109.676865,196.561035L109.682419,196.028107L109.682686,196.017517L109.701729,195.493286L109.702255,195.482178L109.734924,194.966553L109.735847,194.9552L109.782005,194.448151L109.783195,194.436523L109.842834,193.93811L109.844421,193.926056L109.917686,193.436218L109.91967,193.424072L110.006424,192.942963L110.008934,192.930389L110.109306,192.457886L110.112221,192.445313L110.226082,191.981384L110.229385,191.968567L110.356743,191.513245L110.36071,191.500153L110.501678,191.053558L110.506042,191.040619L110.660507,190.6026L110.665398,190.589386L110.833481,190.159973L110.838776,190.147034L111.020218,189.726227L111.026169,189.713135L111.22123,189.300934L111.240929,189.26416L111.264336,189.229523L111.291054,189.197388L111.320938,189.168152L111.353607,189.14209L111.385605,189.12146L111.198875,188.959473L111.185654,188.947571L110.883339,188.661377L110.870514,188.64856L110.584862,188.353241L110.572037,188.339355L110.303177,188.034668L110.290878,188.020142L110.038689,187.706299L110.026917,187.690826L109.791389,187.367615L109.780151,187.351501L109.561287,187.019043L109.550705,187.002228L109.348633,186.660522L109.339111,186.643311L109.153572,186.29248L109.144577,186.274506L109.082428,186.141724L109.054123,186.161804L109.018951,186.184296L108.992767,186.197937L108.929024,186.228333L108.881279,186.247528L108.802727,186.27356L108.76239,186.284821L108.721268,186.291809L108.679474,186.294586L108.654747,186.294189L107.835091,186.258362L107.793434,186.254395L107.752434,186.246338L107.717918,186.236023L106.986076,185.982483L107.261147,187.692291L107.30571,187.892517L107.311005,187.920685L107.441658,188.786621L107.445229,188.818634L107.454094,188.941864L107.455017,188.960388L107.457924,189.069092L107.457924,189.093414L107.454887,189.187866L107.452507,189.220795L107.443512,189.300659L107.435844,189.345367L107.421028,189.41095L107.40979,189.451294L107.400269,189.476807L107.379372,189.52771L107.361649,189.565552L107.3311,189.614197L107.30439,189.650848L107.278076,189.68338L107.248581,189.712982L107.200844,189.750427L107.167915,189.772522L107.132072,189.794067L107.094254,189.811798L107.063835,189.822754L107.020065,189.836792L106.979729,189.847504L106.924057,189.855438L106.878433,189.858734L106.836639,189.85965L106.784927,189.854889L106.737457,189.847504L106.696594,189.838898L106.659302,189.827271L106.610107,189.809265L106.571617,189.792999L106.549538,189.781494L106.498489,189.752808L106.453392,189.723297L106.400757,189.683899L106.369553,189.65799L106.314934,189.608002L106.290733,189.584045L106.234528,189.523346L106.217072,189.503265L106.159012,189.431854L106.146057,189.414917L106.086151,189.332916L106.075439,189.317596L106.013947,189.224884L106.005875,189.212311L105.942528,189.108887L105.936317,189.098328L105.871117,188.984314L105.865562,188.974396L105.798782,188.849823L105.794548,188.841492L105.725914,188.706207L105.722076,188.698669L105.70211,188.657288L105.676186,188.670502L105.63797,188.687561L105.598297,188.700653L105.557434,188.709656L105.516037,188.714417L105.489059,188.715332L105.358536,188.715332L105.31675,188.713226L105.275482,188.706879L105.23568,188.696686L105.151703,188.670502L105.10582,188.653198L105.02343,188.616302L104.98362,188.595673L104.902557,188.548187L104.867645,188.525299L104.788162,188.467255L104.758408,188.443451L104.680511,188.374664L104.656708,188.351807L104.580139,188.272461L104.559906,188.249969L104.484924,188.159912L104.468788,188.13916L104.395264,188.038391L104.382172,188.019348L104.310097,187.90799L104.299118,187.890137L104.22863,187.768066L104.219902,187.752075L104.150871,187.619293L104.14373,187.604889L104.138046,187.592834L104.132225,187.594818L104.091492,187.604492L104.050102,187.610046L104.008446,187.611359L103.980148,187.609772L103.873688,187.600372L103.832298,187.594574L103.798965,187.586761L103.699524,187.55899L103.659851,187.545776L103.625069,187.530151L103.532761,187.483734L103.496391,187.463104L103.468491,187.443665L103.383194,187.378876L103.351189,187.35202L103.331612,187.332458L103.253456,187.248993L103.216034,187.20285L103.144882,187.100769L103.119232,187.058716L103.055092,186.938232L103.037498,186.900665L102.980507,186.761536L102.972305,186.740112L102.859367,186.413757L102.852226,186.390869L102.756615,186.052185L102.750923,186.029572L102.672905,185.678589L102.6688,185.657166L102.608101,185.294037L102.605057,185.27301L102.561951,184.89743L102.560226,184.877838L102.534309,184.490234L102.533516,184.471344L102.525185,184.071411L102.525185,184.053833L102.53418,183.641632L102.534973,183.62204L102.554413,183.341949L102.55838,183.306793L102.60453,183.011597L102.610481,182.981049L102.68322,182.671082L102.690491,182.644226L102.790207,182.31958L102.804489,182.280304L102.822739,182.242615L102.844559,182.207031L102.869949,182.173828L102.898514,182.143433L102.930122,182.115906L102.964241,182.091858L103.000603,182.07135L103.038826,182.054565L103.078629,182.04184L103.119492,182.033112L103.145416,182.030334L103.132454,181.997284L103.119362,181.957611L103.110237,181.91687L103.105209,181.875366L103.104416,181.838074L103.116318,181.30365L103.119362,181.261871L103.128754,181.211761L103.149384,181.130157L103.283607,180.405182L103.285728,180.39447L103.446007,179.640289L103.448257,179.630219L103.632339,178.859772L103.63485,178.850128L103.842873,178.063263L103.844994,178.055206L104.034897,177.391449L104.037407,177.382996L104.238815,176.732483L104.24173,176.723755L104.454643,176.086578L104.45768,176.077606L104.682098,175.453918L104.685539,175.444946L104.921463,174.834503L104.925171,174.825226L105.1726,174.228271L105.176567,174.218903L105.435501,173.635284L105.439865,173.625916L105.710312,173.055664L105.715332,173.045227L105.979294,172.52655L105.985374,172.515167L106.272743,171.991882L106.278831,171.981293L106.589607,171.453003L106.595688,171.442932L106.929871,170.909851L106.935822,170.900482L107.293549,170.36264L107.299362,170.354156L107.680367,169.811432L107.68618,169.803375L108.090591,169.255737L108.096275,169.248199L108.523956,168.695801L108.532944,168.68457L108.706192,168.476288L108.711479,168.470062L108.898338,168.254242L108.903496,168.248566L109.104248,168.025208L109.108871,168.02005L109.323242,167.789398L109.327477,167.784912L109.555603,167.546722L109.55957,167.542633L109.801445,167.297058L109.805275,167.293365L110.060776,167.040497L110.064079,167.037048L110.333199,166.776794L110.364677,166.74942L110.398796,166.72522L110.435165,166.70459L110.473381,166.687805L110.513184,166.674988L110.553917,166.666107L110.595444,166.661469L110.63723,166.661224L110.678886,166.665039L110.703751,166.6698L110.711418,166.637268L110.725174,166.59787L110.742897,166.560059L110.76432,166.5242L110.789185,166.490631L110.817352,166.459808L110.840622,166.438507L111.861824,165.57193L111.894882,165.546539L111.930458,165.524719L111.968147,165.50647L112.007423,165.492188L112.04789,165.481842L112.080025,165.477081L111.880203,165.239716L111.864998,165.220551L111.56176,164.813477L111.548401,164.794434L111.260765,164.359222L111.24913,164.340576L111.103134,164.091949L111.007256,164.08905L110.981201,164.087463L110.862183,164.076355L110.834541,164.072784L110.720146,164.05426L110.690788,164.048462L110.581024,164.0224L110.551407,164.014191L110.446533,163.980865L110.415718,163.969635L110.315475,163.928772L110.285194,163.915009L110.18985,163.866882L110.159958,163.85022L110.069237,163.79454L110.040939,163.775497L109.954979,163.712418L109.928925,163.69165L109.847595,163.62117L109.823265,163.598297L109.746826,163.520401L109.725662,163.497131L109.653854,163.411835L109.635208,163.387878L109.568161,163.295181L109.552429,163.271637L109.490005,163.171539L109.476387,163.148254L109.418724,163.040741L109.407349,163.017731L109.354584,162.902679L109.344536,162.878876L109.298782,162.759979L109.28952,162.733139L109.253685,162.616638L109.24575,162.58728L109.219696,162.473419L109.213745,162.441406L109.19735,162.329926L109.193779,162.294891L109.187164,162.186035L109.186501,162.149277L109.189545,162.042816L109.192589,162.003418L109.205544,161.899597L109.212288,161.860992L109.234901,161.759552L109.245483,161.720673L109.277885,161.621887L109.291771,161.58551L109.333824,161.489105L109.351013,161.454468L109.402855,161.360703L109.421768,161.32962L109.483391,161.238251L109.503891,161.21048L109.575172,161.121735L109.595932,161.097809L109.613525,161.079163L109.589722,161.060516L109.55957,161.031555L109.532585,160.999664L109.508919,160.965286L109.488815,160.92865L109.472549,160.890167L109.469902,160.881714L109.460777,160.873383L109.432877,160.8423L109.408279,160.808578L109.387253,160.772614L109.369797,160.734528L109.356438,160.694977L109.350357,160.670654L109.29071,160.398102L109.283836,160.356964L109.281189,160.31517L109.282776,160.273514L109.288597,160.232117L109.298515,160.191528L109.308167,160.164276L109.307373,160.162964L109.289261,160.125275L109.275108,160.085999L109.26506,160.045532L109.258972,160.004135L109.257782,159.944214L109.260696,159.889618L109.238609,159.879303L109.202766,159.85788L109.169312,159.832886L109.138496,159.804565L109.110725,159.773361L109.086258,159.739502L109.065369,159.7034L109.041298,159.646408L108.929283,159.313141L108.922676,159.291199L108.82415,158.932953L108.819122,158.913116L108.733826,158.529861L108.730255,158.512009L108.658051,158.103516L108.656067,158.090546L108.596428,157.676483L108.59391,157.655457L108.557678,157.261765L108.556221,157.237961L108.543526,156.864624L108.543396,156.838181L108.55397,156.485229L108.555954,156.455734L108.589943,156.12326L108.594574,156.090469L108.65197,155.778381L108.660172,155.74292L108.740967,155.451202L108.753403,155.413376L108.857613,155.141998L108.868851,155.115692L109.000702,154.832687L109.009293,154.815231L109.156219,154.535126L109.165215,154.51886L109.32708,154.241425L109.336472,154.226074L109.513145,153.951538L109.529549,153.928009L109.656502,153.757935L109.667213,153.744171L109.792717,153.590118L109.805412,153.575165L109.929321,153.436981L109.945061,153.420441L110.06752,153.298248L110.08683,153.280121L110.207832,153.173935L110.231506,153.154755L110.351189,153.064438L110.380013,153.044464L110.498108,152.970154L110.533157,152.950439L110.569656,152.93219L111.214478,152.135559L111.218445,152.130798L111.365906,151.954102L111.385872,151.931763L111.537025,151.775314L111.561623,151.751907L111.716354,151.616089L111.745445,151.592804L111.904007,151.477234L111.938393,151.454742L112.100525,151.359665L112.139801,151.339294L112.305634,151.264587L112.349014,151.247925L112.518417,151.193573L112.565102,151.181534L112.728554,151.149536L113.738251,150.897202L113.787575,150.878021L113.84642,150.848938L113.911751,150.809784L113.986343,150.757553L114.299232,150.514496L114.325287,150.49585L114.447479,150.415314L114.463478,150.405396L114.580917,150.335419L114.600357,150.324448L114.713028,150.265335L114.735641,150.254364L114.843422,150.205963L114.870926,150.194717L114.974075,150.157028L115.006874,150.146576L115.105133,150.119736L115.143753,150.111145L115.237114,150.095001L115.282211,150.089844L115.370941,150.084427L115.396072,150.083633L115.466957,150.083633L115.508743,150.085754zM115.414192,153.822464L115.416702,153.822327L115.415512,153.822067L115.414192,153.822464zM112.550949,166.01825L112.551216,166.020355L112.570129,166.007538L112.569733,166.007141L112.55069,165.988495L112.548836,165.986633L112.550949,166.01825zM108.322151,181.046844L108.277718,181.12619L108.300728,181.126709L108.342247,181.132141L108.382851,181.141541L108.391449,181.14444L108.391975,181.12619L108.395279,181.096954L108.430855,180.863159L108.322151,181.046844zM117.377106,168.335297L117.356735,168.34021L117.158897,168.382904L117.162338,168.416626L117.162338,168.458435L117.158234,168.500092L117.149902,168.540955L117.146866,168.550598L117.198837,168.53064L117.321564,168.474182L117.44812,168.402496L117.567802,168.32196L117.640404,168.264435L117.377106,168.335297zM121.988678,156.037933C121.814011,156.196182,121.628143,156.302933,121.430336,156.35817C121.691589,156.809021,121.913284,157.24794,122.095421,157.675644C122.308907,157.303925,122.428337,157.034454,122.451477,156.868744C122.491035,156.623154,122.483574,156.405945,122.428337,156.215591C122.372353,156.03421,122.289497,155.943146,122.178276,155.943146C122.11483,155.943146,122.052124,155.974487,121.988678,156.037933zM107.959892,184.386627L108.446579,184.730743C108.161438,183.535675,108.102463,182.471985,108.268921,181.538177C107.912117,182.29805,107.626976,182.99823,107.41349,183.638672C107.587418,183.987274,107.769547,184.23584,107.959892,184.386627zM123.212112,180.76709L123.235992,181.170914L123.401711,181.775543L123.674911,182.262222L122.915024,183.247543C122.479095,183.840225,122.308907,184.188812,122.404449,184.291824C122.562698,184.450073,122.800072,184.386627,123.116562,184.101471L123.674911,183.555817L123.722679,183.567764L123.746567,183.567764L123.294968,184.326904C123.009819,184.746414,122.942642,185.027069,123.093422,185.169647C123.235992,185.304016,123.425591,185.304016,123.663712,185.169647L124.186226,184.765823L124.150398,184.742676C123.98394,184.600113,123.920494,184.3508,123.960052,183.994736L124.198174,182.974335L124.447487,182.000977C124.075005,181.803162,123.896606,181.368729,123.913025,180.696167L123.212112,180.76709zM112.271393,189.987244L111.59436,189.477417C110.517975,191.652573,110.0186,194.195724,110.097725,197.106873L110.109665,197.641342L110.774757,198.305679C111.004662,198.495285,111.250244,198.646057,111.511505,198.756531C111.305481,198.352707,111.127083,197.921997,110.977043,197.462936C110.944946,197.368134,110.961365,197.150925,111.024818,196.810547C111.080055,196.50972,111.071838,196.323853,111.000931,196.252945L110.810585,196.217117L110.585159,196.169342C110.489609,196.09021,110.434372,195.967804,110.418701,195.802094L110.430641,195.374374C110.454529,195.018311,110.565002,194.674194,110.762817,194.342026C110.913597,194.081512,111.143501,193.796371,111.451782,193.488098C111.420433,191.945175,111.693634,190.778473,112.271393,189.987244zM110.394814,200.263626C110.830742,200.468903,111.068115,200.485321,111.107674,200.310638C111.131561,200.215851,111.186798,200.129257,111.274132,200.05014L111.535385,200.026245L112.568474,200.987671C113.011871,201.382553,113.61425,201.679626,114.374138,201.877441L114.777969,201.972244L117.094208,202.090927C117.617462,202.003601,117.78318,201.770706,117.593582,201.390762C117.466682,201.12204,117.169594,200.797333,116.702316,200.418137C116.662758,200.789871,116.520187,201.074265,116.274597,201.272064C115.997665,201.501236,115.573685,201.569153,115.004143,201.473618L114.374138,201.319855L113.744881,201.070526C113.079796,200.769714,112.477409,200.227783,111.939217,199.444763C111.210678,199.270844,110.537384,198.878952,109.920074,198.269852C109.71405,198.799835,109.638657,199.246948,109.693893,199.611221C109.72599,199.840378,109.959633,200.057602,110.394814,200.263626zM126.609207,181.064178C126.704002,181.34111,126.660706,181.874817,126.478577,182.666061C126.232994,183.686462,125.785866,184.359009,125.136459,184.682968C124.787865,184.856888,124.506454,184.904663,124.292969,184.825531L124.245193,184.920334L123.936913,185.430908C123.889137,185.493607,123.868988,185.577209,123.877197,185.679474C123.885406,185.790695,123.928703,185.87355,124.007828,185.928787C124.221313,186.087036,124.593788,185.988495,125.124512,185.632446L125.373833,185.454041L125.587311,185.228622C125.944115,184.841217,126.253151,184.426178,126.514404,183.982788C126.910027,183.30278,127.1362,182.645905,127.191437,182.012909C127.254883,181.143295,126.957794,180.003464,126.300171,178.595657C125.959793,179.513046,125.42907,180.126633,124.70874,180.434921L124.328796,180.577484C124.2967,180.933548,124.368362,181.217941,124.542282,181.431427L124.803543,181.64566L124.993889,181.728516L124.767708,182.678009L124.649025,183.104965C124.42733,183.872314,124.363884,184.295563,124.459427,184.37468C124.522873,184.414246,124.676643,184.37468,124.922226,184.255997C125.45295,183.994736,125.809753,183.416992,125.99189,182.523483C126.054588,182.238342,126.102364,181.756134,126.13446,181.075378C126.14193,180.957428,126.213585,180.89772,126.347946,180.89772C126.482307,180.90593,126.569641,180.961166,126.609207,181.064178zM111.083786,195.730423C111.274132,195.738647,111.396545,195.793884,111.451782,195.896881C111.523445,196.039459,111.539124,196.232788,111.499557,196.478378L111.46373,197.106873L111.642136,197.724197C112.030289,198.713242,112.5849,199.511948,113.305222,200.121048C113.621719,200.389771,113.978523,200.599518,114.374138,200.750305L114.564484,200.821228C115.07132,200.987671,115.542336,201.027237,115.977516,200.939911C116.223099,200.892136,116.298485,200.587585,116.20369,200.026245L116.167862,199.883667L116.108887,199.658249L116.049171,199.420868C115.843155,198.693085,115.499039,197.889908,115.015343,197.012085L114.647339,197.178543C113.847893,197.462936,113.154442,197.190491,112.568474,196.35968C112.204208,195.837173,111.863831,195.038467,111.547333,193.96283C111.143501,194.421158,110.925537,194.907837,110.89344,195.42215C110.877762,195.619949,110.941216,195.722961,111.083786,195.730423zM108.672752,185.88176C108.901909,185.818314,108.973572,185.70784,108.886238,185.549591L108.791435,185.442856L108.565262,185.324158C108.209206,185.157715,107.904655,184.968109,107.650864,184.754623C107.444839,184.588165,107.267189,184.362732,107.116402,184.077591C106.704361,184.299286,106.087051,184.33139,105.26297,184.173141C104.796432,184.0858,104.368721,183.864105,103.980568,183.508057C103.663322,183.215439,103.398331,182.85939,103.184853,182.440628C103.034065,182.88327,102.954941,183.287109,102.946732,183.65062C102.899704,184.765823,103.037796,185.751129,103.362503,186.605072C103.505081,187.000687,103.723038,187.198502,104.016396,187.198502L103.81411,186.344559C103.671539,185.74292,103.655861,185.374924,103.766335,185.24057C103.805901,185.185333,103.948471,185.640656,104.194054,186.605072C104.518753,187.626221,104.906906,188.191284,105.358513,188.302505L105.489143,188.302505L105.536163,188.27861L105.215942,186.985016C105.009918,186.13855,104.989769,185.679474,105.156227,185.608566L105.513031,186.77153L106.023605,188.373413C106.403542,189.180328,106.708839,189.532654,106.938004,189.429642C107.033546,189.390076,107.064896,189.195999,107.033546,188.84816L106.902924,187.982269L106.855148,187.768036L106.498344,185.549591L106.510284,185.430908C106.526711,185.391342,106.68869,185.430908,106.997719,185.549591L107.853149,185.845932L108.672752,185.88176zM111.535385,152.395264L110.834473,153.261139C110.525444,153.395508,110.200737,153.700058,109.860352,154.174805C109.614777,154.539063,109.408752,154.910797,109.243042,155.289993C108.934006,155.986435,108.87429,156.900085,109.064636,158.031708C109.15197,158.593033,109.274391,159.087189,109.43264,159.514908C109.567001,158.858032,109.87603,158.288483,110.358978,157.806274L111.298019,157.046387C111.04422,156.864258,110.826263,156.658981,110.644127,156.429077C110.406754,156.128998,110.303741,155.867752,110.335846,155.646057C110.382874,155.329559,110.494095,155.06456,110.668015,154.851089C110.90538,154.550262,111.234573,154.400223,111.654076,154.400223L111.915329,154.41217C112.081787,154.43605,112.354996,154.534592,112.734932,154.708511C113.099205,154.86676,113.341049,154.945877,113.45974,154.945877L113.530655,154.945877L114.33831,154.150909C114.798126,153.65303,115.166122,153.403717,115.443054,153.403717L115.6334,153.450745L116.049171,153.68811L116.441063,153.937424L116.92849,154.245712C117.078529,154.333054,117.201691,154.376343,117.296494,154.376343L117.439064,154.341263L117.771233,154.174805L118.092209,154.020279L118.401237,153.949371C118.535599,153.949371,118.717735,154.012817,118.947639,154.138962C119.097672,154.226303,119.35968,154.495026,119.731415,154.945877L120.301697,155.669937C120.634613,155.946869,120.954842,156.084961,121.26387,156.084961C121.469894,156.084961,121.652031,156.010315,121.810272,155.859543C122.10363,155.582611,122.301437,155.219086,122.404449,154.768219C122.507462,154.324829,122.495514,153.933701,122.368622,153.593307C122.281288,153.324585,122.131248,153.090958,121.917015,152.893143C121.949112,153.19397,121.865509,153.419388,121.667702,153.569427C121.446007,153.751556,121.196693,153.842621,120.919014,153.842621C120.523392,153.842621,120.179283,153.676163,119.885925,153.343994C119.181274,152.537094,118.693848,152.098175,118.425125,152.027267L118.139977,151.991425L117.569695,152.098175L117.094208,152.20491C116.975517,152.20491,116.872505,152.161621,116.785919,152.074295L116.370148,151.504745C115.958107,150.856079,115.657288,150.520172,115.466942,150.496292L115.396027,150.496292C115.166122,150.496292,114.884712,150.611252,114.552544,150.840408L114.231567,151.089722C114.104668,151.184525,113.982254,151.251694,113.863571,151.29126L112.817795,151.552521C112.351257,151.615967,111.923546,151.896637,111.535385,152.395264zM125.765717,177.18338C125.417122,176.289886,124.985672,175.344131,124.471375,174.34761C123.623405,172.694229,122.68512,171.207306,121.655762,169.886078L120.765244,168.829849L120.741356,168.995575C120.583115,169.628555,119.985207,170.123459,118.947639,170.47876C118.915543,170.621338,118.987198,171.151321,119.161125,172.069458C119.367142,173.168976,119.470154,173.91243,119.470154,174.299835C119.470154,175.518051,119.375359,176.938538,119.185013,178.55983C119.082001,179.604111,119.042435,180.19754,119.066322,180.340118C119.541817,180.331909,119.961319,180.237106,120.325584,180.054977C120.53907,179.952713,120.709259,179.829544,120.836159,179.687714L120.860046,178.903946C120.899605,178.358292,121.057854,177.484192,121.334785,176.281662L121.869995,174.039337C122.052124,173.176437,122.134979,172.432968,122.119308,171.808197L122.523132,172.923386C122.451477,173.525024,122.289497,174.327454,122.035706,175.332184L121.477356,177.740982C122.174545,178.643433,122.712738,179.47348,123.093422,180.233368C123.362144,180.33638,123.861519,180.237106,124.590057,179.936295C125.040909,179.746689,125.393982,179.371231,125.647026,178.809143C125.797813,178.468765,125.892609,178.129135,125.932175,177.788757C125.947853,177.709625,125.908287,177.539429,125.813492,177.278183L125.765717,177.18338zM111.143501,167.963226C111.222626,168.264053,111.337578,168.51709,111.487617,168.723114C111.827995,169.197861,112.31543,169.612885,112.949165,169.968933C113.574692,170.316788,114.192001,170.518326,114.801857,170.57431C115.411705,170.645218,115.744621,171.748474,115.799858,173.884811C115.831207,175.063461,115.779709,176.42424,115.64534,177.9664C115.518448,179.311508,115.372147,180.233368,115.205688,180.731262C115.095207,181.04776,114.964584,181.205994,114.813797,181.205994L114.777969,181.205994C113.336571,181.111206,112.069847,180.873825,110.977043,180.494629C110.29628,180.257263,109.729729,179.98407,109.278122,179.675781L108.910126,180.304291L108.85041,180.849945L108.803383,181.158966C108.810844,181.238098,108.86235,181.324692,108.957901,181.419479C109.243042,181.720306,109.638657,182.009186,110.1455,182.286118C111.618248,183.084808,113.483627,183.464752,115.740143,183.425201C116.65081,183.416992,117.561478,183.243057,118.472153,182.903427C119.406708,182.563049,120.218842,182.10025,120.907822,181.51503L120.848099,180.292343C120.349472,180.64093,119.719467,180.818588,118.959579,180.826797C118.872246,180.826797,118.793121,180.79097,118.721466,180.720062C118.626663,180.61705,118.583374,180.403564,118.590836,180.078857L118.721466,178.512802C118.903595,176.819855,118.995415,175.415787,118.995415,174.299835C118.995415,173.896759,118.896133,173.184647,118.698326,172.164246L118.460205,170.681046C118.444534,170.364563,118.51619,170.16301,118.674438,170.075684L118.721466,170.051788C119.640343,169.750977,120.159126,169.363571,120.277817,168.888824C120.333054,168.69101,120.309914,168.477524,120.206902,168.248367L119.387299,167.465347L118.484093,167.856476C118.262398,168.291672,117.937691,168.620102,117.509979,168.841797C117.114357,169.039612,116.659027,169.138138,116.143974,169.138138C115.17807,169.138138,114.286804,168.833588,113.47168,168.224487C112.60804,167.575821,112.160912,166.796524,112.128815,165.886597L111.107674,166.753235C111.02034,167.156311,111.03228,167.56015,111.143501,167.963226zM109.31395,182.440628L108.684692,181.989777C108.613037,182.867599,108.736198,183.852173,109.052696,184.944214L109.052696,185.039017C109.234833,185.157715,109.337837,185.315948,109.361725,185.513763L109.337837,185.727249L109.349785,185.739197C110.205215,187.685181,111.772758,189.235565,114.053162,190.391068L114.35025,190.960602C114.255455,191.039734,114.168121,191.062866,114.088997,191.031525L112.509506,190.33136C112.073578,191.019577,111.879501,192.044464,111.927277,193.40448C112.260193,194.527893,112.5849,195.334808,112.90139,195.825226C113.479141,196.711273,114.176331,196.956848,114.992203,196.561234L115.787918,195.920776C116.421654,195.351227,117.038963,194.725708,117.640602,194.045685C118.425125,193.135773,118.959579,192.269882,119.244728,191.446548C119.561218,190.544846,119.418648,189.540115,118.817009,188.433136C118.207161,187.293304,117.260666,186.241547,115.977516,185.276398C115.867043,185.197266,115.875252,185.086792,116.001404,184.944214C116.128296,184.801651,116.243248,184.770294,116.34626,184.849426C117.692108,185.854141,118.686386,186.977554,119.327583,188.218903C119.810532,187.499329,120.150917,186.890213,120.349472,186.391586C120.784653,185.276398,120.978729,183.820816,120.930954,182.024857C120.448006,182.396591,119.830688,182.757126,119.07827,183.104965C117.597313,183.784988,115.942429,184.066391,114.112885,183.947708C112.283333,183.820816,110.683685,183.318451,109.31395,182.440628zM108.85041,168.948547C107.678482,170.428009,106.755867,171.855957,106.083313,173.232422C105.346573,174.735016,104.732986,176.380951,104.241821,178.168701C103.948471,179.228653,103.719307,180.245316,103.552849,181.217941L103.528961,181.312744L103.517021,181.847198C103.635704,182.186829,103.798431,182.495865,104.004456,182.772797C104.368721,183.2789,104.791962,183.575226,105.27491,183.662567C106.035545,183.812607,106.542381,183.812607,106.795433,183.662567C106.922325,183.132584,107.108192,182.590668,107.353775,182.036804C108.042747,180.47821,109.238564,178.765854,110.941216,176.898987C111.796646,175.973389,112.5849,175.197815,113.305222,174.573044L113.400024,174.91716L112.010132,176.222702C111.139023,177.07663,110.315689,178.093307,109.539383,179.271942C109.920074,179.540665,110.434372,179.789978,111.083786,180.019897C112.128815,180.391617,113.336571,180.624512,114.707054,180.720062C114.960098,180.228897,115.150444,178.781525,115.277344,176.376465C115.411705,173.821365,115.312424,172.144089,114.980255,171.345398C114.9086,171.155792,114.833206,171.05278,114.754082,171.037109C114.073318,170.981125,113.388077,170.763916,112.699104,170.383972C112.010132,169.996552,111.47567,169.533752,111.095734,168.995575C110.889709,168.702957,110.743408,168.382736,110.656067,168.034882C110.569481,167.694504,110.557541,167.374283,110.620239,167.073456C109.884239,167.777359,109.2938,168.402893,108.85041,168.948547zM111.939217,154.863022L111.855614,154.863022C111.42865,154.863022,111.139023,155.096664,110.988983,155.563202C110.830742,156.061829,111.068115,156.4888,111.701843,156.844849C111.7332,156.844849,111.769028,156.880676,111.808594,156.951599C111.855614,157.022507,111.827995,157.089691,111.724991,157.153137C111.234573,157.438278,110.85836,157.707001,110.597099,157.960052C109.979042,158.545258,109.670013,159.214081,109.670013,159.965759C109.915588,159.380539,110.232834,158.861755,110.620239,158.410904C111.095734,157.913025,111.416702,157.631607,111.582413,157.568909L111.666016,157.556961C111.74514,157.556961,111.792915,157.588318,111.808594,157.651764C111.832474,157.71521,111.812325,157.766724,111.748871,157.806274L111.44059,158.042908L110.834473,158.601242C110.580681,158.846085,110.339577,159.162582,110.109665,159.549988L109.693893,160.309875L109.753609,160.582321C110.022339,159.973221,110.358978,159.467133,110.762817,159.064041C111.056168,158.787109,111.317429,158.596771,111.547333,158.494507L111.59436,158.494507C111.673485,158.494507,111.713791,158.537796,111.713791,158.62439C111.713791,158.711716,111.662285,158.787109,111.559273,158.849823L110.965103,159.301422L110.300018,160.108337L109.860352,160.748779L109.920074,160.736847L109.943207,160.784607L110.13356,160.843582C110.244774,160.907028,110.255974,161.001831,110.169388,161.128723C109.607307,161.555695,109.460258,162.089417,109.729729,162.730606C109.999191,163.363602,110.4702,163.680099,111.143501,163.680099L111.333099,163.668152C112.03775,164.941589,112.908859,165.914215,113.946426,166.586777C114.049431,166.658432,114.097206,166.713669,114.088997,166.753235C114.081528,166.792786,114.025543,166.812195,113.922539,166.812195C113.597832,166.812195,113.217888,166.66217,112.782707,166.361343C112.846153,166.946564,113.253716,167.477295,114.006142,167.951279C114.702576,168.394669,115.379608,168.616364,116.037231,168.616364C116.330582,168.616364,116.567955,168.556656,116.750092,168.437973L116.690376,168.437973L115.918549,168.272263C115.561737,168.161041,115.391548,168.078186,115.407974,168.022949L115.466942,167.999054L116.239517,168.069977C116.880722,168.069977,117.612984,167.892319,118.437065,167.536255C119.894135,166.903259,120.974998,165.784332,121.679649,164.177979C122.352943,162.64328,122.526871,161.061554,122.202164,159.431305C122.012566,158.442993,121.604256,157.422607,120.978729,156.370102C120.669701,156.322342,120.356934,156.164093,120.040443,155.89537L119.458214,155.16011C119.093941,154.70105,118.852844,154.439789,118.733406,154.376343C118.670708,154.336777,118.587105,154.317368,118.484093,154.317368C118.254936,154.317368,117.985466,154.41217,117.676437,154.601776C117.542076,154.665222,117.391289,154.697311,117.224831,154.697311C116.979996,154.697311,116.643349,154.58609,116.21563,154.364395C116.049171,154.269592,115.855095,154.222565,115.6334,154.222565C115.102676,154.222565,114.60778,154.479355,114.148712,154.993652C114.006142,155.16011,113.824005,155.242966,113.60231,155.242966L112.972305,155.088455C112.767029,155.009323,112.422173,154.933945,111.939217,154.863022zM111.451782,160.736847L111.286072,160.998093C111.286072,161.084686,111.238304,161.128723,111.143501,161.128723C111.047958,161.128723,111.004662,161.065277,111.012878,160.938385C111.02034,160.812225,111.080055,160.693542,111.190529,160.582321C111.277863,160.480057,111.372665,160.40094,111.47567,160.344955L111.547333,160.333755C111.610779,160.333755,111.654076,160.368835,111.677963,160.440506C111.701843,160.511414,111.681694,160.562927,111.618248,160.594269L111.451782,160.736847zM111.701843,159.52684C111.724991,159.605972,111.689903,159.673157,111.59436,159.728394L111.131561,160.036667L110.810585,160.380783C110.691902,160.539032,110.612778,160.618164,110.573212,160.618164L110.525444,160.559189C110.509766,160.503204,110.549332,160.396454,110.644127,160.23822L110.941216,159.835129C111.123352,159.637329,111.317429,159.50296,111.523445,159.431305L111.57122,159.420105C111.633919,159.420105,111.677963,159.455185,111.701843,159.52684zM119.006607,165.246155L118.923752,165.340942L118.51992,165.554428L118.198952,165.602203L117.79512,165.542496L117.640602,165.435745C117.593582,165.372299,117.577156,165.313324,117.593582,165.258087L117.676437,165.127457L117.842896,165.067749L117.890663,165.079681L118.887924,165.19838C118.959579,165.206589,118.999146,165.22226,119.006607,165.246155zM119.743355,156.287247L119.862038,156.322342L120.777191,156.891876L120.871986,156.999359C120.863777,157.022507,120.824219,157.034454,120.753304,157.034454L119.779182,156.987427C119.700058,156.987427,119.636612,156.955322,119.588837,156.891876C119.5336,156.836639,119.513451,156.769455,119.529869,156.690338L119.576897,156.452972C119.592575,156.342484,119.64856,156.287247,119.743355,156.287247zM114.421913,156.583588L114.944427,156.084961C114.975777,156.061829,115.015343,156.049881,115.06311,156.049881C115.150444,156.049881,115.213898,156.084961,115.253456,156.156631L115.419914,156.38205C115.530388,156.540298,115.569954,156.643311,115.538605,156.690338C115.514717,156.729904,115.288544,156.829178,114.861572,156.987427L114.362198,157.27182L114.018082,157.438278L114.006142,157.438278C113.950905,157.232254,114.088997,156.947861,114.421913,156.583588zM120.301697,158.221298C120.420387,158.221298,120.523392,158.30043,120.610733,158.458679C120.697319,158.608719,120.745094,158.794586,120.753304,159.016281C120.760765,159.237976,120.725685,159.427567,120.645813,159.585815C120.566689,159.744064,120.468155,159.82692,120.349472,159.835129L120.337532,159.835129C120.218842,159.835129,120.115837,159.756012,120.028496,159.597763C119.941162,159.447723,119.894135,159.261856,119.885925,159.040161C119.877716,158.818466,119.917282,158.62439,120.004616,158.458679C120.08374,158.30043,120.183014,158.221298,120.301697,158.221298zM120.301041,158.910461L120.299057,159.02684L120.308846,159.142822L120.327225,159.238159L120.33847,159.147308L120.340317,159.030548L120.330269,158.913116L120.312943,158.823975L120.301041,158.910461zM115.597572,158.422852C115.684906,158.5811,115.732681,158.770691,115.740143,158.992386C115.748352,159.214081,115.712524,159.403687,115.6334,159.561935C115.554276,159.720184,115.451263,159.803772,115.324371,159.811249C115.205688,159.811249,115.102676,159.732117,115.015343,159.573868C114.928749,159.423843,114.880981,159.237976,114.873512,159.016281C114.865303,158.787109,114.901131,158.593033,114.980255,158.434784C115.05938,158.276535,115.157913,158.197418,115.277344,158.197418L115.288544,158.197418C115.407974,158.197418,115.510986,158.272812,115.597572,158.422852zM115.288025,158.87767L115.286438,159.00238L115.296097,159.119537L115.314346,159.214752L115.325584,159.124573L115.327171,159.007141L115.317253,158.887054L115.298737,158.789734L115.288025,158.87767zM117.937691,158.446732L118.413177,159.408157L118.971527,160.167297L119.351471,160.642044C119.446266,160.760727,119.450745,160.886871,119.363411,161.021988L118.840897,161.805008C118.753563,161.899811,118.64682,161.947586,118.51992,161.947586L118.270607,161.887863L118.151924,161.793076C118.128036,161.7453,118.135498,161.693787,118.175064,161.63855L118.614723,161.04512C118.702057,160.918976,118.710266,160.784607,118.638611,160.642044L118.139977,159.704498C117.949638,159.324554,117.791389,158.921478,117.66449,158.494507C117.617462,158.343719,117.636871,158.260864,117.724205,158.245193L117.736153,158.245193C117.80706,158.245193,117.874245,158.312378,117.937691,158.446732zM120.777191,162.457413C120.80854,162.457413,120.83989,162.47757,120.871986,162.51712L121.299706,163.050842L121.370621,163.240433L121.323593,163.430786L120.812271,164.225754L120.741356,164.296661L120.693588,164.177979L120.693588,164.059296C120.709259,163.940613,120.657761,163.881638,120.53907,163.881638L120.480103,163.893585L119.731415,164.332489C119.129776,164.625107,118.583374,164.771408,118.092209,164.771408L118.080261,164.771408C117.597313,164.771408,116.956108,164.545975,116.155914,164.095123L115.110886,163.406891L115.015343,163.383011C114.896652,163.383011,114.813797,163.4263,114.766022,163.513641L114.754082,164.047348L114.659286,164.119003L114.576431,164.012268L114.362198,162.944092L114.386086,162.742554L114.516708,162.588043L115.704315,161.7453L115.799858,161.71022C115.855095,161.71022,115.863304,161.75351,115.823746,161.840103L115.669228,162.208099C115.64534,162.271545,115.661018,162.33873,115.716255,162.410385L115.894661,162.529068C116.979996,162.932159,117.791389,163.165787,118.329575,163.228485L118.650551,163.240433L119.885925,163.12175L120.515182,163.003067C120.578636,162.995605,120.634613,162.967987,120.681641,162.920212L120.741356,162.742554L120.729416,162.564148C120.729416,162.49324,120.745094,162.457413,120.777191,162.457413zM120.53907,163.691284C120.642082,163.675613,120.717476,163.589035,120.765244,163.430786C120.7966,163.296417,120.729416,163.228485,120.562958,163.228485L120.52713,163.228485L119.873985,163.347183L118.543808,163.465866L118.210892,163.453918C117.585365,163.406891,116.77771,163.181473,115.787918,162.777634L115.514717,162.718674C115.403496,162.718674,115.300484,162.754501,115.205688,162.825409C115.102676,162.91275,115.078789,163.003067,115.134773,163.098618L115.336311,163.264328C116.20742,163.73085,116.805328,164.01973,117.130035,164.130951L118.317635,164.284714L119.066322,164.201859L120.53907,163.691284z"/>
</svg>
