<?xml version="1.0" encoding="UTF-8"?>
<svg xmlns="http://www.w3.org/2000/svg" xmlns:xlink="http://www.w3.org/1999/xlink" width="39.475mm" height="58.872mm" viewBox="-191.023499 223.746338 39.475433 58.871704">
    <path transform="matrix(-1,0,0,1,0,0)" style="stroke:none;fill:#000000;fill-rule:evenodd" d="M164.332596,223.751099L164.397522,223.761551L164.456772,223.775696L164.523422,223.79686L164.562561,223.811539L164.61467,223.838638L164.691498,223.885864L164.74176,223.922226L164.828644,223.995621L164.857742,224.022598L164.954803,224.12204L164.97345,224.142548L165.080566,224.268173L165.093002,224.283524L165.210297,224.435196L165.219299,224.447235L165.346649,224.624969L165.353394,224.634766L165.484055,224.828766L165.810959,225.284744L166.133774,225.204071L166.158096,225.198792L166.673996,225.102509L166.715515,225.096954L166.757172,225.095505L166.802795,225.098938L167.049835,225.130951L167.090958,225.138351L167.118469,225.145889L167.166473,225.160706L167.20932,225.176575L167.261948,225.199448L167.292633,225.214264L167.350021,225.245071L167.373169,225.258423L167.435333,225.29718L167.454376,225.309875L167.521149,225.356812L167.535034,225.367004L167.606583,225.42189L167.618225,225.431137L167.694397,225.494095L167.703384,225.501755L167.784317,225.572647L167.792526,225.580048L167.878082,225.659134L167.884293,225.664948L167.974625,225.751968L167.980179,225.757385L168.075256,225.852478L168.080154,225.857498L168.179871,225.960648L168.18396,225.964874L168.288437,226.076096L168.291885,226.079803L168.401108,226.198959L168.404556,226.202789L168.518417,226.330139L168.521317,226.33345L168.631485,226.459351L168.712418,226.54332L168.784363,226.604813L168.858292,226.655594L168.93248,226.695663L169.007858,226.726089L169.087723,226.748032L169.17276,226.76152L169.258331,226.765884L169.37999,226.756104L169.485397,226.729385L169.586029,226.684296L169.691162,226.614334L169.711136,226.597015L169.725677,226.580353L169.735596,226.56488L169.744598,226.544907L169.751862,226.519913L169.75769,226.483154L169.759674,226.434753L169.755035,226.35791L169.754517,226.316132L169.758347,226.274475L169.766418,226.233475L169.77858,226.193527L169.794586,226.154922L169.814545,226.118286L169.838089,226.083771L169.864929,226.051773L169.894958,226.022675L169.92775,225.99675L169.962921,225.974274L170.000214,225.95549L170.03923,225.940552L170.079575,225.929703L170.120834,225.922821L170.162491,225.920319L170.204269,225.922028L170.245667,225.927856L170.286133,225.937897L170.325546,225.95192L170.363235,225.96991L170.398941,225.991592L170.432266,226.016861L170.469559,226.052292L170.595856,226.18837L170.626266,226.225281L170.736557,226.3759L170.762482,226.415833L170.856506,226.581284L170.876602,226.621872L170.954239,226.801987L170.96759,226.837311L171.005814,226.954468L171.015335,226.988586L171.043762,227.11026L171.050247,227.143707L171.068893,227.269745L171.072327,227.302139L171.081192,227.432541L171.082123,227.462952L171.081329,227.597839L171.080139,227.627197L171.069427,227.766327L171.066513,227.792648L171.046143,227.936127L171.041916,227.960587L171.011765,228.108444L171.006866,228.129868L170.968124,228.278778L170.960327,228.304825L170.913376,228.446335L170.903717,228.472519L170.848831,228.60675L170.836411,228.634384L170.773331,228.7612L170.758377,228.788452L170.758377,228.788574L170.783768,228.807755L170.815781,228.834595L170.845001,228.864487L170.87767,228.906799L170.929382,228.98378L170.950806,229.019608L170.970901,229.063126L171.013214,229.170898L171.026581,229.210571L171.032135,229.232666L171.061615,229.366089L171.069427,229.416351L171.082916,229.559036L171.084763,229.605057L171.082123,229.757141L171.079346,229.797745L171.060562,229.959213L171.056992,229.983948L171.044952,230.051392L171.036758,230.087494L171.016525,230.161682L171.007935,230.189316L170.97963,230.270248L170.971558,230.291672L170.935333,230.379364L170.927399,230.397217L170.883087,230.491501L170.875946,230.50592L170.823578,230.606949L170.817093,230.618988L170.756668,230.726761L170.750977,230.736679L170.68248,230.851212L170.659195,230.885986L170.632614,230.918121L170.602859,230.947479L170.57019,230.973663L170.535156,230.996414L170.509491,231.009644L170.524567,231.049438L170.530655,231.066498L170.643326,231.410202L170.648758,231.427933L170.74437,231.771103L170.748993,231.789749L170.827545,232.132538L170.831512,232.151443L170.881241,232.42691L170.883621,232.441849L170.92276,232.716125L170.924622,232.731598L170.953186,233.004944L170.954498,233.020554L170.972488,233.292984L170.973282,233.308716L170.98082,233.580078L170.980957,233.596481L170.977783,233.866791L170.977249,233.882935L170.963501,234.152313L170.962433,234.168304L170.938232,234.43663L170.936386,234.453033L170.901474,234.720428L170.899094,234.736298L170.853729,235.00264L170.850693,235.018646L170.794617,235.283936L170.790909,235.29953L170.724258,235.563889L170.720169,235.578964L170.643066,235.84227L170.638443,235.857346L170.550629,236.119583L170.545471,236.133865L170.447205,236.395187L170.44165,236.40921L170.332687,236.669464L170.326477,236.683609L170.202957,236.950348L170.195679,236.965164L170.064224,237.221588L170.056168,237.236664L169.916641,237.483032L169.907516,237.498383L169.760071,237.734436L169.750015,237.749634L169.59462,237.97551L169.583649,237.99086L169.420197,238.206543L169.408295,238.221497L169.23703,238.427002L169.223816,238.442078L169.044357,238.637405L169.030594,238.651688L168.843338,238.8367L168.828522,238.850708L168.633209,239.025543L168.617737,239.038635L168.414474,239.203278L168.398209,239.215851L168.377304,239.231186L168.956284,239.674332L168.988144,239.701309L169.017105,239.731461L169.042892,239.764267L169.065109,239.799713L169.088791,239.849167L169.153992,240.012756L169.1651,240.04541L169.176071,240.043304L169.21759,240.039734L169.259384,240.04039L169.300903,240.045151L169.341644,240.054138L169.381439,240.06723L169.419525,240.08429L169.455765,240.105057L169.489761,240.129517L169.510254,240.146973L169.846558,240.453125L169.853958,240.460007L170.175583,240.767471L170.183121,240.774872L170.489929,241.083542L170.497467,241.091339L170.789719,241.401321L170.79924,241.411774L171.17746,241.841705L171.184082,241.849365L171.555557,242.292923L171.561768,242.300598L171.926498,242.758026L171.932449,242.765701L172.290436,243.236893L172.296127,243.244431L172.647369,243.72937L172.652527,243.736771L172.997162,244.235336L173.002319,244.242874L173.34021,244.755325L173.344833,244.762604L173.67598,245.288666L173.679153,245.293823L173.876862,245.618362L173.879501,245.622726L174.069275,245.942886L174.071655,245.946991L174.253891,246.262787L174.256531,246.267426L174.430954,246.578857L174.433731,246.58374L174.600372,246.890961L174.602875,246.895844L174.761841,247.198547L174.764618,247.203842L174.915909,247.502319L174.918686,247.507874L175.062042,247.801727L175.103027,247.883179L175.108459,247.894165L175.174179,248.034882L175.18515,248.060532L175.232361,248.182465L175.245331,248.221863L175.273758,248.325012L175.282745,248.365753L175.286057,248.389023L175.295441,248.473389L175.297958,248.515045L175.295181,248.567291L175.26741,248.803223L175.282623,248.803223L175.324142,248.807587L175.365143,248.81604L175.404953,248.828613L175.443298,248.845276L175.479797,248.865509L175.514053,248.889435L175.545654,248.916809L175.574478,248.947098L175.600006,248.980164L175.620499,249.012817L175.746674,249.236847L175.750504,249.243866L175.868469,249.46312L175.872437,249.470795L175.982193,249.685425L175.986298,249.693756L176.087723,249.903625L176.091827,249.912354L176.185196,250.117599L176.189423,250.127258L176.27446,250.327744L176.278824,250.338181L176.355652,250.534042L176.359756,250.545288L176.428391,250.736374L176.432617,250.748672L176.493057,250.935135L176.497162,250.948364L176.549393,251.130203L176.553238,251.144882L176.597137,251.32196L176.600708,251.337158L176.636551,251.509476L176.639725,251.52681L176.667221,251.694626L176.669739,251.712875L176.689041,251.875793L176.691025,251.895767L176.702011,252.054199L176.702927,252.074951L176.705841,252.2285L176.705582,252.250183L176.698303,252.465881L176.696579,252.492722L176.674896,252.711456L176.671463,252.737244L176.635223,252.959015L176.6306,252.982956L176.580078,253.207764L176.574265,253.230652L176.509186,253.458511L176.502716,253.479401L176.42337,253.710175L176.416092,253.729614L176.322327,253.963425L176.314667,253.981277L176.206482,254.217987L176.196304,254.238617L176.032181,254.55072L176.021866,254.569107L175.841614,254.873001L175.83078,254.890457L175.634781,255.186295L175.622879,255.203217L175.410767,255.490982L175.392914,255.513596L175.210022,255.7285L175.18132,255.758911L175.152618,255.783905L174.937729,255.954895L174.925156,255.964554L174.761581,256.084778L174.740814,256.09906L174.588593,256.197174L174.561218,256.21344L174.420517,256.28949L174.382828,256.307465L174.253494,256.361298L174.202316,256.378754L174.084473,256.410492L174.04361,256.41922L174.014389,256.422913L173.907928,256.432556L173.866135,256.434296L173.817215,256.430847L173.722,256.418427L173.680862,256.410889L173.640793,256.399231L173.618057,256.390656L173.534332,256.35614L173.496643,256.338287L173.450623,256.309723L173.397858,256.271759L173.365326,256.245697L173.335449,256.216339L173.319046,256.197449L173.278183,256.147308L173.253448,256.113739L173.223694,256.060181L173.19487,255.998016L173.179123,255.959259L173.167099,255.917206L173.149902,255.842758L173.146729,255.822266L173.14183,255.823059L173.038681,255.833374L172.996902,255.835358L172.955231,255.833237L172.912125,255.826492L172.819031,255.806793L172.778564,255.796082L172.739548,255.781265L172.693924,255.757996L172.610733,255.708664L172.575958,255.685516L172.543686,255.659073L172.509567,255.624146L172.464478,255.572174L172.43869,255.539246L172.416336,255.503815L172.39743,255.465729L172.369385,255.401062L172.354843,255.362045L172.344131,255.321579L172.339371,255.294205L172.328522,255.216843L172.324829,255.175323L172.325485,255.131149L172.329315,255.075211L172.26413,255.074539L172.222473,255.072037L172.181213,255.065292L172.148285,255.056824L172.08374,255.037247L172.044464,255.023102L172.006775,255.005112L171.977158,254.987259L171.917908,254.94838L171.884186,254.923782L171.853104,254.895874L171.824936,254.864929L171.794128,254.821823L171.767151,254.77858L171.74678,254.742081L171.730377,254.703735L171.717819,254.663788L171.709351,254.622925L171.706177,254.596619L171.700363,254.531021L171.698776,254.489227L171.701416,254.447571L171.704865,254.423767L171.7202,254.335556L171.734879,254.2771L171.771378,254.166412L171.78447,254.131897L171.841995,253.998734L171.852707,253.975861L171.931534,253.820328L171.939728,253.804993L172.039566,253.626984L172.046188,253.615616L172.167191,253.415131L172.177505,253.398865L172.649216,252.693863L172.518829,252.493774L172.497803,252.457672L172.47731,252.411133L172.283966,251.886383L172.27153,251.846436L172.261475,251.792358L172.218231,251.428146L172.215332,251.38649L172.216782,251.344696L172.222336,251.303314L172.232117,251.262711L172.240845,251.237854L172.238861,251.236389L172.207001,251.209549L172.177902,251.179535L172.151978,251.146729L172.140213,251.12941L171.911301,250.769958L171.672333,250.421509L171.418549,250.076599L171.141891,249.724304L170.859146,249.386017L170.545731,249.032791L170.229797,248.696625L170.084457,248.549973L170.078506,248.578934L170.023758,248.873306L169.977478,249.15062L169.942032,249.397522L169.917175,249.614929L169.9021,249.806427L169.891907,250.066818L169.888214,250.108337L169.88028,250.149338L169.86824,250.189407L169.852112,250.228027L169.832275,250.264786L169.808868,250.299301L169.768402,250.345459L169.757156,250.35643L169.78241,250.383148L169.807938,250.416214L169.829895,250.451782L169.848145,250.489349L169.862549,250.528625L169.872864,250.569092L169.879089,250.610352L169.880676,250.632965L169.945602,252.12204L169.945343,252.163834L169.940842,252.205353L169.932114,252.246216L169.919281,252.286026L169.902618,252.324249L169.882126,252.360748L169.858063,252.394867L169.846817,252.407684L169.866257,252.440216L169.88385,252.478043L169.897461,252.517578L169.90712,252.558182L169.912537,252.599701L169.913727,252.641495L169.910156,252.688446L169.859772,253.058197L169.856201,253.07962L169.785721,253.45018L169.781219,253.471069L169.690506,253.842285L169.685074,253.862122L169.574265,254.233994L169.568039,254.253174L169.436981,254.625702L169.430237,254.643692L169.279083,255.016876L169.27182,255.033813L169.100555,255.407669L169.092758,255.423676L168.90126,255.798187L168.895447,255.809174L168.706207,256.153412L168.698395,256.166901L168.496597,256.503052L168.488129,256.516663L168.273499,256.844788L168.264633,256.857727L168.037308,257.177765L168.027786,257.190613L167.787628,257.502563L167.777969,257.51474L167.525116,257.818756L167.514938,257.830536L167.24939,258.126373L167.238937,258.137604L166.960571,258.425507L166.930023,258.453949L166.89682,258.47934L166.861115,258.501007L166.823425,258.519135L166.784149,258.533417L166.743683,258.543457L166.702286,258.549561L166.666977,258.550995L166.72821,259.102325L166.804382,259.72403L166.873413,260.250885L166.946014,260.752228L167.021133,261.225006L167.101151,261.681366L167.186172,262.121887L167.273331,262.532654L167.364304,262.922089L167.459,263.289612L167.552887,263.614532L167.653259,263.930725L167.753769,264.218109L167.856125,264.483002L167.962585,264.730835L168.070374,264.956024L168.178009,265.155853L168.295059,265.348145L168.314896,265.384766L168.320709,265.398804L168.484161,265.276337L168.508759,265.259277L168.802216,265.070679L168.828125,265.055359L169.130966,264.890686L169.158752,264.876953L169.471375,264.736237L169.50325,264.723419L169.773819,264.627808L169.805557,264.618011L170.080231,264.545135L170.112762,264.537872L170.391541,264.48761L170.424591,264.483124L170.707474,264.455475L170.739731,264.453491L170.924622,264.449921L170.957947,264.450714L171.125626,264.461029L171.166351,264.465546L171.316986,264.48999L171.36525,264.500854L171.498688,264.539337L171.55397,264.559692L171.670349,264.612183L171.707642,264.631226L171.730652,264.64566L171.829971,264.712311L171.863419,264.737305L171.889206,264.760559L171.971329,264.841248L171.999634,264.87207L172.022507,264.902222L172.08757,264.99704L172.109406,265.032593L172.127518,265.07016L172.176315,265.185883L172.190598,265.225159L172.198929,265.257141L172.227234,265.38504L172.234238,265.426147L172.236359,265.450745L172.244293,265.590668L172.2435,265.648468L172.230804,265.800537L172.224182,265.847748L172.191132,266.011749L172.181213,266.050629L172.127518,266.226654L172.116943,266.257202L172.043015,266.445251L172.032028,266.470642L171.937485,266.670715L171.931137,266.683411L171.884445,266.774017L171.877579,266.786957L171.818192,266.892761L171.812515,266.902527L171.740295,267.023285L171.736069,267.030151L171.651169,267.165985L171.647461,267.171814L171.549744,267.322571L171.547089,267.32666L171.436661,267.492615L171.434021,267.496582L171.310638,267.67749L171.308655,267.680298L171.172577,267.876282L171.165039,267.886719L170.934143,268.198029L170.927795,268.20636L170.691864,268.50827L170.685257,268.516479L170.444168,268.809113L170.437164,268.817444L170.191177,269.100586L170.183777,269.108795L169.932648,269.38266L169.924973,269.390869L169.668808,269.655365L169.660751,269.663574L169.399567,269.918671L169.391098,269.926727L169.125015,270.172302L169.09288,270.199036L169.058243,270.22229L169.021469,270.242126L168.982864,270.257996L168.942795,270.269897L168.901794,270.277832L168.860138,270.281403L168.835663,270.281158L168.832367,270.306671L168.822968,270.347412L168.809357,270.386932L168.791901,270.424774L168.770599,270.460876L168.74588,270.494446L168.717834,270.525391L168.688873,270.551727L168.541824,270.672974L168.536789,270.677094L168.396881,270.788849L168.391464,270.79306L168.258682,270.895569L168.251801,270.900726L168.126038,270.993683L168.1185,270.999115L167.999878,271.082703L167.990891,271.088898L167.879272,271.163208L167.868164,271.170349L167.763565,271.235291L167.750198,271.243225L167.65274,271.298767L167.646912,271.301941L167.493118,271.386322L167.471161,271.397552L167.321854,271.46817L167.295944,271.479431L167.151138,271.536133L167.121506,271.546478L166.980927,271.589569L166.946945,271.59845L166.81073,271.627808L166.771851,271.634277L166.640137,271.64975L166.597946,271.652527L166.470459,271.654388L166.424835,271.652527L166.301727,271.640625L166.26033,271.634399L166.233749,271.628204L165.835953,271.520691L165.796143,271.507721L165.757935,271.490936L165.721695,271.470154L165.687576,271.445953L165.656235,271.418457L165.62767,271.387909L165.602417,271.354584L165.580719,271.318878L165.560883,271.276825L165.55043,271.251038L165.518829,271.19693L165.498993,271.158447L165.485901,271.129639L165.476776,271.133606L165.436966,271.146423L165.396103,271.155151L165.354584,271.159668L165.31279,271.159912L165.271271,271.156067L165.23027,271.147888L165.190201,271.135712L165.151718,271.119568L165.115082,271.099609L165.080566,271.075928L165.043411,271.044067L164.280624,270.305084L164.253769,270.276398L164.006744,269.986755L163.981354,269.953705L163.959259,269.918121L163.94101,269.880585L163.926605,269.841431L163.91629,269.800964L163.9151,269.793274L163.889572,269.78299L163.852676,269.763397L163.817886,269.740387L163.785492,269.713806L163.756134,269.684204L163.736435,269.660645L163.566895,269.440979L163.561203,269.433319L163.391403,269.202423L163.386246,269.195404L163.216049,268.953552L163.211411,268.946777L163.040817,268.693817L163.036453,268.687195L162.865723,268.423218L162.861893,268.417145L162.690765,268.14209L162.687195,268.136261L162.515671,267.850098L162.512375,267.844391L162.340714,267.547363L162.33609,267.539185L161.847046,266.646515L161.840958,266.63501L161.378769,265.72464L161.373077,265.713013L161.358139,265.681122L160.448685,266.775452L160.904144,267.467621L160.925293,267.503723L160.942749,267.541687L160.956238,267.581238L160.965637,267.621948L160.970917,267.663361L160.971985,267.705139L160.968811,267.746796L160.96286,267.780121L160.994858,267.790314L161.033203,267.806976L161.06958,267.827332L161.103821,267.85141L161.135437,267.878784L161.164001,267.90921L161.189529,267.942261L161.21254,267.97995L161.299423,268.140106L161.301804,268.14447L161.380081,268.292969L161.382996,268.298523L161.452423,268.435272L161.455597,268.44162L161.516434,268.566711L161.520142,268.574646L161.572235,268.687866L161.576874,268.698029L161.620377,268.799744L161.625931,268.813477L161.660583,268.90329L161.667191,268.921814L161.693115,268.999817L161.702896,269.034332L161.737671,269.180481L161.745209,269.220795L161.76387,269.358734L161.767563,269.405548L161.770218,269.5354L161.7677,269.589233L161.754211,269.711182L161.743362,269.769897L161.713745,269.883606L161.701172,269.923431L161.693237,269.94339L161.647491,270.049194L161.628967,270.086609L161.617462,270.105774L161.55571,270.203522L161.518417,270.253784L161.440521,270.343445L161.399002,270.384827L161.311722,270.460327L161.269928,270.492065L161.174713,270.555298L161.128555,270.581879L161.025269,270.63266L160.978592,270.6521L160.867371,270.690704L160.820953,270.703918L160.701797,270.730255L160.658035,270.737396L160.530945,270.751404L160.490997,270.753906L160.35585,270.755646L160.320145,270.754578L160.177048,270.744019L160.145706,270.740417L159.994553,270.71756L159.967178,270.712402L159.808228,270.677216L159.784546,270.671265L159.617523,270.623779L159.597031,270.617432L159.421936,270.557678L159.403946,270.551056L159.220917,270.478973L159.205444,270.472504L159.014481,270.388123L159.000595,270.381653L158.801712,270.284851L158.79007,270.279022L158.583099,270.170044L158.560883,270.157349L158.223801,269.95224L158.200378,269.93692L157.882065,269.712372L157.859329,269.69516L157.559784,269.451172L157.537964,269.432129L157.257217,269.168579L157.236847,269.147949L156.975006,268.865051L156.956223,268.843384L156.713028,268.540924L156.696091,268.518311L156.471817,268.196564L156.456863,268.173553L156.251221,267.832214L156.245667,267.822723L156.152176,267.657806L156.149536,267.653168L156.062912,267.495667L156.060257,267.490784L155.980255,267.340546L155.977081,267.334473L155.903946,267.191498L155.900909,267.185425L155.834381,267.049866L155.830811,267.042328L155.771042,266.914063L155.767334,266.905975L155.714172,266.785126L155.710083,266.77533L155.663666,266.661987L155.659302,266.651001L155.594757,266.479614L155.588684,266.462311L155.534592,266.296722L155.5289,266.277557L155.485123,266.117676L155.479843,266.096252L155.446381,265.942047L155.441879,265.917725L155.418869,265.769196L155.415573,265.742096L155.403,265.599274L155.401413,265.569916L155.39917,265.432922L155.399963,265.400116L155.408295,265.268646L155.413055,265.227142L155.423111,265.182159L155.562622,264.689545L155.575989,264.650024L155.593307,264.612061L155.614471,264.575958L155.639069,264.542236L155.666962,264.511169L155.697906,264.483002L155.731506,264.45813L155.767471,264.436829L155.805298,264.41925L155.844833,264.40564L155.885574,264.396118L155.893372,264.39505L155.892975,264.393982L155.877899,264.356567L155.864273,264.317017L155.85463,264.276428L155.849197,264.235046L155.848007,264.193237L155.850922,264.151581L155.8582,264.110443L155.869431,264.070129L155.884781,264.031372L155.905273,263.991821L156.044662,263.756042L156.204544,263.469208L156.206787,263.46524L156.368393,263.18277L156.370911,263.178528L156.529205,262.909393L156.531982,262.904633L156.686966,262.649017L156.690018,262.644135L156.841568,262.401855L156.844879,262.396545L156.992981,262.167511L156.997086,262.161285L157.142029,261.94574L157.146133,261.939636L157.287491,261.737305L157.294235,261.728058L157.485733,261.469513L157.493011,261.459991L157.686218,261.214417L157.69429,261.204498L157.889206,260.972015L157.898071,260.9617L158.094727,260.742188L158.104507,260.73172L158.30275,260.525299L158.313583,260.514435L158.513672,260.321106L158.525314,260.310272L158.726852,260.130005L158.739944,260.118774L158.943207,259.951599L158.976669,259.926758L159.012634,259.905457L159.050461,259.887878L159.089996,259.874115L159.1306,259.864471L159.154663,259.861298L159.142502,259.820282L159.140518,259.813538L159.00563,259.327423L159.00444,259.322662L158.879333,258.850403L158.878006,258.845398L158.762695,258.386902L158.761368,258.381592L158.655838,257.936859L158.65451,257.931183L158.55864,257.500183L158.557312,257.493835L158.471359,257.076599L158.470032,257.070007L158.393723,256.666504L158.39241,256.659241L158.325882,256.269379L158.32457,256.260925L158.252884,255.780609L158.251572,255.770813L158.192719,255.299622L158.191528,255.289444L158.14537,254.82724L158.14444,254.816406L158.111252,254.36319L158.110596,254.352081L158.090088,253.908005L158.089691,253.89624L158.082031,253.461151L158.082031,253.448853L158.087189,253.022888L158.087585,253.010071L158.10556,252.593231L158.109406,252.551697L158.117599,252.510712L158.129761,252.470764L158.145905,252.432281L158.165863,252.395523L158.189545,252.361008L158.216522,252.329132L158.246536,252.300049L158.279343,252.274261L158.314651,252.251907L158.338974,252.239609L158.324036,252.220169L158.281845,252.158539L158.251831,252.106827L158.224319,252.050629L158.207794,252.012268L158.194962,251.971008L158.182007,251.920105L158.173798,251.879105L158.169708,251.837585L158.16983,251.795792L158.171951,251.770935L158.204086,251.492554L158.205673,251.480911L158.246811,251.196594L158.275238,250.899033L158.292557,250.575836L158.298508,250.225906L158.301422,250.18425L158.308426,250.14299L158.319534,250.102783L158.334747,250.063904L158.35379,250.026611L158.376404,249.991577L158.382614,249.983902L158.381302,249.982712L158.353928,249.951111L158.329849,249.916992L158.309494,249.880493L158.292831,249.84227L158.288193,249.82785L158.150391,249.981262L157.937225,250.2267L157.729721,250.474136L157.541138,250.707947L157.356262,250.946381L157.190033,251.17041L157.027771,251.399445L156.87912,251.620178L156.74173,251.835861L156.610672,252.054199L156.500504,252.250183L155.934372,253.513916L155.969803,253.532959L156.004456,253.556503L156.036453,253.583221L156.065689,253.613098L156.091599,253.645905L156.123337,253.697876L156.219879,253.886322L156.310074,254.035889L156.396164,254.155045L156.466263,254.233994L157.205902,254.789948L157.375305,254.898529L157.409302,254.922852L157.440643,254.950363L157.475159,254.988586L157.560974,255.0961L157.585449,255.129959L157.606201,255.166199L157.623276,255.204407L157.635437,255.240509L157.65065,255.293945L157.660034,255.334671L157.665848,255.386505L157.668228,255.43425L157.668228,255.475906L157.664001,255.517563L157.65686,255.553131L157.646545,255.595184L157.634644,255.635132L157.618637,255.673752L157.594574,255.717529L157.571564,255.753891L157.547363,255.78801L157.519989,255.819489L157.49115,255.846725L157.455322,255.877411L157.422256,255.902924L157.374649,255.931366L157.325989,255.956223L157.287888,255.973419L157.2621,255.982407L157.200745,256.001709L157.150497,256.01416L157.076172,256.027649L157.034775,256.033051L156.992981,256.034119L156.954376,256.031464L156.223724,255.945648L156.182465,255.938629L156.142258,255.927521L156.103241,255.912445L155.526779,255.654434L155.629669,257.146973L155.650436,257.331696L155.65097,257.337921L155.665649,257.488678L155.666168,257.493317L155.678345,257.634949L155.678864,257.641418L155.688126,257.773682L155.688385,257.779877L155.695129,257.903137L155.695526,257.911346L155.699493,258.025208L155.699768,258.034454L155.70108,258.139191L155.70108,258.150696L155.699631,258.246185L155.699234,258.259399L155.695129,258.345764L155.693939,258.362152L155.687195,258.43927L155.684952,258.4599L155.675568,258.52774L155.670807,258.55484L155.65863,258.613556L155.649902,258.648193L155.635101,258.697662L155.618301,258.743683L155.600845,258.783875L155.582336,258.82132L155.568176,258.844727L155.547943,258.875793L155.523346,258.909668L155.486847,258.949341L155.463974,258.97113L155.432358,258.998383L155.398117,259.022339L155.361343,259.042694L155.335831,259.055267L155.29747,259.071777L155.241791,259.088196L155.202515,259.096771L155.161392,259.103668L155.102142,259.106171L155.061951,259.10498L155.020294,259.101532L154.968582,259.09137L154.927582,259.080505L154.887772,259.06781L154.851807,259.052338L154.809891,259.03186L154.773392,259.011597L154.751968,258.997467L154.709381,258.967163L154.669968,258.935303L154.626328,258.895386L154.596832,258.865356L154.552536,258.815613L154.5327,258.791687L154.487335,258.7323L154.471863,258.710632L154.425842,258.641602L154.414612,258.623871L154.367661,258.545044L154.358932,258.529572L154.311188,258.440979L154.30484,258.42868L154.25618,258.330566L154.250626,258.318909L154.201157,258.210876L154.197067,258.201599L154.146683,258.084045L154.143112,258.075439L154.091934,257.94809L154.091797,257.947693L154.054901,257.959351L154.013901,257.967926L153.972382,257.97229L153.930588,257.972443L153.883911,257.967529L153.754837,257.946503L153.713974,257.937653L153.660934,257.919403L153.589401,257.889252L153.54483,257.86731L153.475403,257.827637L153.437439,257.80304L153.369995,257.753967L153.337601,257.727783L153.272141,257.669189L153.245697,257.64328L153.18222,257.575287L153.160782,257.550446L153.099289,257.473083L153.081436,257.448883L153.022064,257.361847L153.008438,257.340576L152.95105,257.244293L152.939941,257.224457L152.884537,257.118652L152.875671,257.100677L152.822235,256.985352L152.815094,256.968964L152.763916,256.844513L152.755585,256.845703L152.713806,256.847809L152.675446,256.845978L152.579971,256.836975L152.538712,256.831024L152.496918,256.820435L152.409103,256.793335L152.369965,256.779053L152.328445,256.758698L152.248291,256.713593L152.212982,256.691254L152.179138,256.664673L152.106796,256.60144L152.076782,256.572479L152.055618,256.54776L151.990952,256.466553L151.966476,256.432709L151.955505,256.414581L151.898636,256.315277L151.876297,256.269775L151.827103,256.152466L151.812943,256.113464L151.771561,255.978043L151.765076,255.953979L151.692337,255.651794L151.687439,255.629303L151.630585,255.317474L151.627274,255.295792L151.586151,254.974167L151.58403,254.95314L151.558777,254.621872L151.557709,254.602036L151.548187,254.260971L151.548065,254.242188L151.554276,253.891342L151.555069,253.873489L151.577026,253.513L151.578339,253.496201L151.616165,253.126038L151.619995,253.09787L151.664032,252.842255L151.67131,252.808792L151.739685,252.54509L151.74855,252.515335L151.841385,252.243317L151.851303,252.217255L151.96846,251.937424L151.986588,251.899734L152.00827,251.864029L152.033539,251.830841L152.062103,251.800293L152.093567,251.772781L152.127563,251.748581L152.163925,251.727951L152.202148,251.711029L152.241943,251.698196L152.282806,251.689468L152.29393,251.688278L152.286911,251.659058L152.282013,251.625992L152.274216,251.55246L152.271973,251.510803L152.273163,251.476685L152.281219,251.373795L152.286774,251.331879L152.310989,251.199371L152.316666,251.173187L152.37883,250.925217L152.380417,250.918869L152.464386,250.605194L152.46611,250.598969L152.557083,250.279205L152.558945,250.273117L152.657074,249.947403L152.658783,249.941589L152.764053,249.609772L152.7659,249.604218L152.878311,249.266479L152.880035,249.261444L152.999451,248.917603L153.001175,248.912582L153.127731,248.56279L153.12944,248.558029L153.263153,248.202164L153.26474,248.198196L153.489685,247.617905L153.492996,247.609573L153.727325,247.041718L153.730896,247.033386L153.974625,246.477951L153.978455,246.46936L154.231705,245.926224L154.235809,245.917633L154.498322,245.386795L154.502808,245.378067L154.774841,244.859665L154.779602,244.8508L155.06102,244.344711L155.066177,244.335846L155.357117,243.842041L155.363998,243.830673L155.625977,243.41687L155.63443,243.404175L155.920609,242.987213L155.92894,242.975433L156.239319,242.55542L156.247528,242.544708L156.58197,242.121796L156.589905,242.112015L156.948547,241.685913L156.95636,241.676926L157.339081,241.248047L157.346619,241.239853L157.753525,240.807816L157.760803,240.800278L158.191788,240.365311L158.196808,240.360428L158.374817,240.186783L158.380234,240.181488L158.570007,240.003098L158.574905,239.998596L158.776184,239.815445L158.781067,239.811081L158.994247,239.623154L158.998749,239.619186L159.223572,239.426636L159.227798,239.423065L159.464386,239.225891L159.468216,239.222717L159.716446,239.02092L159.720154,239.018005L159.98027,238.811432L160.014267,238.787109L160.050491,238.766342L160.088715,238.74942L160.128387,238.73645L160.16925,238.727463L160.21077,238.722702L160.252563,238.722168L160.294098,238.725876L160.33522,238.733673L160.338257,238.734604L160.341965,238.697174L160.348312,238.655792L160.358765,238.615326L160.373169,238.576172L160.391418,238.53862L160.413513,238.503174L160.439026,238.469986L160.467728,238.439697L160.511505,238.40332L161.092194,237.985306L161.127365,237.962692L161.164536,237.943649L161.203537,237.928436L161.243744,237.917328L161.285004,237.910324L161.32666,237.907547L161.368454,237.908997L161.404816,237.914017L161.353775,237.860336L161.336716,237.841415L161.049744,237.499573L161.034668,237.480392L160.7621,237.1138L160.748886,237.094894L160.490738,236.703583L160.479095,236.684799L160.35968,236.481018L160.174942,236.469772L160.119659,236.462631L159.917053,236.422424L159.857025,236.405762L159.671478,236.338715L159.632996,236.322586L159.611038,236.311218L159.442566,236.217453L159.40712,236.195358L159.385956,236.179626L159.23468,236.059021L159.203461,236.03125L159.186676,236.013916L159.052567,235.86647L159.015274,235.818726L158.898376,235.644562L158.871399,235.598145L158.771545,235.397125L158.755554,235.360626L158.714157,235.25206L158.70517,235.225876L158.672638,235.11969L158.664825,235.090454L158.641159,234.986511L158.635208,234.954376L158.620392,234.852814L158.616821,234.818558L158.610748,234.719238L158.610077,234.682083L158.612854,234.585281L158.615768,234.546799L158.627411,234.45224L158.634155,234.413101L158.654648,234.320786L158.6651,234.282562L158.694321,234.19278L158.708344,234.155884L158.746429,234.068329L158.763214,234.03421L158.810043,233.949051L158.829208,233.91745L158.884888,233.834656L158.905258,233.806885L158.969788,233.726349L158.990814,233.702148L158.997696,233.694733L158.984863,233.676361L158.964493,233.639984L158.953659,233.61499L158.931839,233.602692L158.89772,233.578766L158.866104,233.551392L158.837418,233.520966L158.812027,233.487915L158.79007,233.452332L158.771683,233.41478L158.757401,233.375504L158.745636,233.328033L158.702255,233.092224L158.696838,233.050705L158.695648,233.009048L158.698547,232.967392L158.705688,232.926132L158.716675,232.887512L158.705032,232.862518L158.691284,232.822983L158.681488,232.782379L158.675934,232.740997L158.67514,232.685715L158.676331,232.663361L158.675415,232.662964L158.639709,232.641144L158.606506,232.615891L158.575958,232.587326L158.548462,232.555847L158.524261,232.521866L158.503632,232.485489L158.481674,232.432983L158.37944,232.132141L158.372971,232.111633L158.281586,231.788162L158.276825,231.769653L158.196152,231.423569L158.192581,231.406631L158.122757,231.037811L158.119843,231.020218L158.066025,230.648865L158.063507,230.627579L158.030853,230.274353L158.029388,230.250687L158.017761,229.915573L158.017624,229.888733L158.027283,229.571732L158.029266,229.542114L158.059937,229.243103L158.064697,229.210312L158.116547,228.92955L158.124741,228.894104L158.197739,228.631348L158.210175,228.593521L158.304337,228.34874L158.316101,228.321091L158.440277,228.057404L158.449539,228.039017L158.586014,227.783249L158.596191,227.765274L158.744705,227.517578L158.755676,227.500244L158.916092,227.260483L158.926544,227.245682L159.041336,227.089493L159.052307,227.075211L159.165909,226.933975L159.178604,226.9189L159.290741,226.792343L159.306488,226.775681L159.417313,226.663803L159.436874,226.645157L159.546371,226.548218L159.570175,226.528778L159.67836,226.446518L159.707581,226.426147L159.814438,226.358582L159.850937,226.337952L159.909393,226.308853L159.950378,226.262833L160.011215,226.190094L160.094131,226.087479L160.195572,225.958664L160.313263,225.806458L160.446442,225.632294L160.45755,225.618393L160.590591,225.459045L160.61055,225.436691L160.746765,225.295715L160.770966,225.272705L160.910217,225.150116L160.938782,225.127106L161.081085,225.022766L161.114929,225.000412L161.260147,224.914459L161.299545,224.893967L161.447922,224.826523L161.491302,224.809723L161.642731,224.760529L161.689804,224.74823L161.832901,224.719788L162.749878,224.483475L162.784668,224.46933L162.834656,224.443527L162.890457,224.409286L162.957901,224.361801L163.24118,224.14267L163.270264,224.122177L163.383209,224.049438L163.3992,224.039658L163.507645,223.976578L163.526428,223.966263L163.630112,223.912964L163.651932,223.902527L163.750977,223.858749L163.778091,223.8479L163.872513,223.813919L163.904785,223.803864L163.994446,223.779663L164.031601,223.771332L164.116501,223.756653L164.162399,223.751358L164.242538,223.746597L164.284317,223.746338L164.332596,223.751099zM166.063156,240.310043L165.904068,240.343369L165.90419,240.344818L165.90419,240.386612L165.903397,240.394943L165.990555,240.353287L166.069901,240.308456L166.063156,240.310043zM170.403458,229.0755L170.231781,229.161346C170.073532,229.303909,169.905579,229.400208,169.72644,229.450211C169.969772,229.871964,170.170578,230.268326,170.328079,230.639313C170.521408,230.325058,170.628891,230.082458,170.650543,229.91153C170.686371,229.689835,170.678909,229.493515,170.628891,229.321823C170.578873,229.157608,170.503494,229.0755,170.403458,229.0755zM166.168854,269.183777C165.732178,270.026489,165.65007,270.655029,165.921783,271.068542L165.94342,271.122284L166.341278,271.229797C166.663742,271.279785,167.032501,271.183502,167.448273,270.940155C167.699081,270.804321,168.024521,270.569183,168.426117,270.233276L166.201691,269.204651L166.168854,269.183777zM173.820709,252.407288C173.477341,252.243073,173.287003,251.860901,173.251175,251.26149C173.022003,251.339874,172.814499,251.379425,172.627884,251.379425L172.671173,251.743698L172.864517,252.268448L173.143677,252.696915L172.520401,253.628479C172.169571,254.192795,172.044159,254.51825,172.14418,254.603348C172.294968,254.732483,172.502487,254.657089,172.767471,254.378662L173.229523,253.864365L173.294464,253.864365C173.308655,253.914368,173.190704,254.153992,172.939896,254.582443C172.717453,254.975082,172.677902,255.231857,172.821213,255.353531C173.02948,255.525223,173.344482,255.378174,173.766968,254.914612L173.734863,254.892975C173.577362,254.778763,173.505707,254.560806,173.519897,254.239075L173.659485,253.297058L173.820709,252.407288zM166.405472,268.090942C166.8638,267.340759,167.337051,266.655548,167.824478,266.033752C167.086243,266.283813,166.387558,266.787659,165.728439,267.544556C165.198471,268.151428,164.728943,268.876221,164.320648,269.718964L164.567719,270.008606L165.330582,270.747559C165.309692,270.361664,165.435089,269.886902,165.706802,269.322601C165.829224,269.05835,166.061356,268.647827,166.405472,268.090942zM174.121536,252.064667L174.304413,252.12886L174.078979,253.382156C173.935669,254.103973,173.906555,254.492874,173.993149,254.550354C174.049866,254.57872,174.186478,254.528702,174.401443,254.400314C174.859772,254.128601,175.146408,253.585938,175.26062,252.771561C175.303909,252.450592,175.311371,252.014664,175.282257,251.464523C175.282257,251.357788,175.343475,251.300308,175.465149,251.293594C175.594284,251.286118,175.676392,251.329422,175.712219,251.421982C175.819702,251.664581,175.815979,252.14679,175.701767,252.867859C175.55098,253.810623,175.192688,254.446594,174.626877,254.77504C174.318588,254.95343,174.067795,255.014648,173.874451,254.957169L173.842361,255.053467L173.595291,255.525223C173.551987,255.58194,173.537811,255.657333,173.551987,255.749893C173.566925,255.857391,173.613205,255.932037,173.691574,255.974579C173.899841,256.096252,174.229019,255.98204,174.680618,255.631958L174.895599,255.461029L175.078476,255.246048C175.371841,254.867584,175.62265,254.468246,175.830902,254.046494C176.138443,253.41127,176.292953,252.807388,176.292953,252.236359C176.299667,251.429443,175.955566,250.422485,175.26062,249.215469C175.024734,250.072403,174.587311,250.661346,173.949844,250.983063L173.616928,251.133102C173.616928,251.461548,173.699036,251.714584,173.864014,251.893738L174.121536,252.064667zM160.55928,267.69458L160.086777,266.976501C159.233582,267.369141,158.395325,267.319122,157.571991,266.826477C156.819565,266.377106,156.28212,265.701569,155.959656,264.802094L155.820068,265.294739C155.784241,265.63739,155.859619,266.041199,156.045502,266.505493C156.160446,266.798096,156.346313,267.16983,156.604584,267.619202C157.127838,268.555237,157.851151,269.283783,158.775269,269.80481C159.900162,270.419128,160.684677,270.507965,161.128815,270.072784C161.357986,269.84436,161.415451,269.530121,161.301254,269.130005C161.243774,268.937439,161.092987,268.619446,160.84964,268.176788C160.391327,268.076782,159.84642,268.183533,159.215668,268.497772C159.065628,268.569427,158.986511,268.5336,158.979797,268.391022C158.972321,268.255188,159.0298,268.155151,159.151474,268.090942C159.660553,267.847626,160.129318,267.715485,160.55928,267.69458zM152.638702,254.668289C152.681992,254.625,152.775299,255.043015,152.91861,255.921585C153.133591,256.864349,153.434418,257.40329,153.821075,257.539124L153.950211,257.560028L153.992752,257.539124L153.799423,256.350037C153.685211,255.564026,153.706863,255.14975,153.864365,255.107208C153.885269,255.099731,153.960663,255.457291,154.089798,256.178345L154.422714,257.657074C154.702637,258.413971,154.945969,258.756592,155.153488,258.684937C155.296799,258.642395,155.325912,258.206482,155.240082,257.377899L155.21843,257.185333L155.078842,255.16095L155.099747,255.053467C155.11467,255.025101,155.257996,255.075104,155.529694,255.203491L156.271667,255.53566L157.002441,255.621506C157.217422,255.59314,157.295792,255.503571,157.238327,255.353531L157.152481,255.246048L156.969604,255.128845L156.185089,254.539154C156.035049,254.389114,155.891724,254.171906,155.755875,253.886017L154.079346,253.821823C153.312744,253.600128,152.735733,253.02536,152.349075,252.096771C152.176636,252.47522,152.069153,252.832764,152.026611,253.167923C151.904938,254.168167,151.951218,255.064651,152.166199,255.857391C152.26622,256.242554,152.449097,256.43515,152.714081,256.43515L152.596146,255.65361C152.5103,255.10347,152.52449,254.77504,152.638702,254.668289zM171.564194,266.494293C171.843369,265.944916,171.904572,265.523163,171.74707,265.23056C171.596283,264.958862,171.263367,264.837921,170.747574,264.866302C170.36763,264.887939,169.998886,264.970062,169.640594,265.11261C169.217361,265.284302,168.820236,265.51944,168.447769,265.819519C167.960327,266.427124,167.466187,267.112366,166.964569,267.87674L166.405472,268.75531L168.844879,269.868988C169.561462,269.226318,170.224319,268.483582,170.83342,267.640839C171.213364,267.098175,171.456711,266.716003,171.564194,266.494293zM160.118866,266.526398L161.107178,265.337311C160.383865,263.795135,159.750122,262.105927,159.205215,260.270386C158.661057,260.698853,158.134064,261.266907,157.625732,261.973785C157.25325,262.495575,156.844193,263.159149,156.400055,263.966064L156.260468,264.201965L156.28212,264.255707C156.518738,265.140991,156.99498,265.830719,157.711578,266.323364C158.499817,266.866028,159.302261,266.93396,160.118866,266.526398zM161.92453,225.122299C161.508759,225.179779,161.125092,225.433563,160.774261,225.882935C160.394318,226.383057,160.183075,226.640579,160.140518,226.654755C159.860596,226.775681,159.567245,227.054108,159.258957,227.490036C159.037262,227.804291,158.846924,228.140198,158.689423,228.496994C158.410248,229.125519,158.356506,229.946609,158.528183,230.961029C158.614029,231.467865,158.728989,231.914246,158.872299,232.300171C159.001434,231.700012,159.280609,231.189453,159.710571,230.768448L160.55928,230.082458L159.968094,229.525604C159.753113,229.253906,159.660553,229.018768,159.688919,228.818726C159.732208,228.532837,159.83223,228.290237,159.989731,228.090179C160.204712,227.818481,160.501801,227.682617,160.881744,227.682617L161.118362,227.704269C161.268402,227.725922,161.515488,227.814743,161.859589,227.972244C162.189529,228.114822,162.407486,228.186478,162.514984,228.186478L162.579926,228.176025C162.629929,228.168564,162.870285,227.929703,163.2995,227.457947C163.715271,227.015289,164.051926,226.793594,164.310196,226.793594L164.481873,226.825699L165.212646,227.275803L165.653061,227.543777L165.986725,227.661728L166.115112,227.640076L166.416672,227.490036C166.688385,227.354187,166.875,227.286255,166.975021,227.286255C167.118332,227.286255,167.287033,227.339996,167.480362,227.447495C167.616211,227.525864,167.852844,227.772202,168.189499,228.186478L168.705292,228.829178C168.991928,229.079239,169.278564,229.203888,169.565201,229.203888C169.765991,229.203888,169.933945,229.139694,170.070541,229.011307C170.335541,228.761246,170.514679,228.4328,170.607239,228.025986C170.700546,227.6259,170.690094,227.272079,170.57515,226.965286C170.48259,226.715225,170.345993,226.50473,170.16684,226.333038C170.195953,226.604752,170.12056,226.807785,169.941406,226.943634C169.740616,227.101135,169.515182,227.17952,169.264374,227.17952C168.898621,227.17952,168.587357,227.033218,168.329071,226.740601C167.684143,225.997131,167.240005,225.597794,166.996658,225.540314L166.749588,225.508209L166.233795,225.604507L165.803833,225.71199C165.69635,225.71199,165.603043,225.67244,165.524658,225.594055L165.148453,225.069305C164.768509,224.490799,164.496063,224.190735,164.331833,224.169083L164.266891,224.15863C164.059387,224.15863,163.801117,224.26239,163.493576,224.469162L163.203201,224.693832C163.088257,224.779678,162.980759,224.840881,162.880737,224.875977L161.92453,225.122299zM169.232285,240.452148L169.199432,240.730576C169.049408,241.302353,168.504501,241.744995,167.566208,242.05925C167.537842,242.195099,167.598297,242.673584,167.749084,243.494675C167.920776,244.473267,168.006607,245.140594,168.006607,245.498154C167.992432,246.469284,167.89241,247.758408,167.705795,249.365509C167.598297,250.286621,167.555756,250.818848,167.57666,250.961426C168.293243,250.939774,168.927734,250.636719,169.479355,250.050751L169.489807,249.782776C169.518921,249.268463,169.658508,248.479477,169.909317,247.415787L170.210129,246.205048L170.467651,245.005493C170.589325,244.847992,170.772217,244.555389,171.016296,244.126923C170.965546,244.669586,170.847595,245.326462,170.660995,246.097549L170.17804,248.058472C171.123795,248.987061,171.893372,249.936539,172.488297,250.907669C172.753296,250.971863,173.193695,250.850952,173.810257,250.543411C174.204391,250.343353,174.494003,249.979095,174.680618,249.450607C174.788116,249.165466,174.856033,248.854935,174.885147,248.519028C174.885147,248.419006,174.834396,248.268967,174.73436,248.068924L174.691071,247.983078C174.318588,247.204529,173.864014,246.379715,173.326569,245.508606C172.452469,244.087357,171.506714,242.812424,170.489304,241.68454C170.10936,241.270264,169.690598,240.859711,169.232285,240.452148zM160.752609,238.738297C160.710068,239.030899,160.716782,239.356354,160.774261,239.713165C160.831726,240.069962,160.913849,240.327484,161.021332,240.484238C161.307968,240.905991,161.716278,241.266525,162.246262,241.566589C162.769516,241.866669,163.292786,242.041336,163.815292,242.091354C164.367661,242.16301,164.657288,243.162506,164.686401,245.090591C164.700592,246.140839,164.639374,247.368759,164.503525,248.775818C164.37439,249.990295,164.234802,250.821838,164.084015,251.271942C163.983994,251.557831,163.866058,251.700409,163.729446,251.700409L163.686905,251.689957C161.652084,251.532455,159.993469,251.047256,158.71106,250.23288C158.71106,250.72554,158.67897,251.161469,158.614029,251.539917L158.58194,251.818344C158.589401,251.882538,158.635681,251.960907,158.721512,252.05423C158.908127,252.246811,159.176849,252.454315,159.527679,252.675262C160.15097,253.067902,160.971313,253.375443,161.988724,253.59639C163.886948,254.032318,165.642609,253.968124,167.254944,253.403809C168.135742,253.097015,168.89563,252.675262,169.533096,252.14006L169.468155,250.650894C168.873993,251.143555,168.218597,251.389877,167.502014,251.389877C167.394516,251.389877,167.315399,251.357788,167.265381,251.293594C167.17955,251.200287,167.139984,251.011429,167.147446,250.72554L167.275833,249.311768C167.462448,247.726303,167.562469,246.455093,167.57666,245.498154C167.57666,245.098053,167.490814,244.455353,167.319138,243.569321L167.125793,242.230942C167.118332,241.937576,167.186264,241.755447,167.32959,241.68454L167.362427,241.67334C168.200684,241.394913,168.673187,241.04483,168.780685,240.623825C168.83815,240.431244,168.812775,240.22374,168.705292,240.002045L167.964066,239.434738C167.727432,239.570587,167.422882,239.705688,167.050415,239.841553C166.857086,240.227463,166.566711,240.520081,166.180054,240.720123C165.821747,240.905991,165.409714,240.99855,164.943924,240.99855C164.119843,240.99855,163.35025,240.748489,162.633667,240.249115C161.873779,239.720627,161.440842,239.077179,161.333344,238.320282L160.752609,238.738297zM161.66626,246.151291L161.859589,246.333435C160.218903,247.712128,159.151474,248.729538,158.657318,249.386414L158.67897,249.69693C159.08728,249.990295,159.588898,250.254532,160.183075,250.48967C161.214661,250.897217,162.364944,251.154007,163.633163,251.26149C163.86232,250.811386,164.045197,249.508087,164.181061,247.351593C164.324371,245.044312,164.252716,243.526779,163.96608,242.798248C163.901886,242.634018,163.836945,242.541458,163.772751,242.519821C163.185287,242.469803,162.604553,242.277222,162.032028,241.941315C161.451294,241.612885,160.996704,241.209045,160.666763,240.730576C160.294281,240.195374,160.15097,239.663147,160.236816,239.134659C159.527679,239.691513,158.943954,240.199097,158.484894,240.65593C157.303268,241.819641,156.37915,242.952011,155.712585,244.051529C154.924332,245.351837,154.236847,246.783539,153.649384,248.347351C153.28363,249.304291,152.993256,250.197052,152.779022,251.02562L152.757385,251.11145C152.692444,251.347336,152.671539,251.504089,152.692444,251.582458C152.771561,251.889999,152.893234,252.182617,153.058197,252.461029C153.351563,252.946976,153.709854,253.250031,154.133087,253.371704C154.533936,253.485916,154.866852,253.543396,155.132584,253.543396L155.497604,253.479202L156.131332,252.064667C156.762085,250.900955,157.840698,249.590195,159.366455,248.133118C160.412231,247.133621,161.178833,246.473007,161.66626,246.151291zM158.517731,252.611069C158.452789,253.710602,158.52446,254.90715,158.732712,256.200012C158.896942,257.221161,159.165649,258.388611,159.538132,259.703094C160.304733,262.43808,161.357986,264.984222,162.697861,267.340759C163.156174,268.147705,163.611511,268.837402,164.06311,269.408447C164.521439,268.50824,165.047684,267.737152,165.642609,267.094452C166.365906,266.315918,167.132523,265.805328,167.942413,265.562744C167.612488,265.055878,167.319138,264.334076,167.060852,263.398773C166.795868,262.420166,166.574173,261.213165,166.39502,259.77774C166.180054,258.099731,166.050919,256.506805,166.007614,254.99971C166.0009,254.885513,166.068832,254.785477,166.212143,254.700394C166.355469,254.621262,166.430862,254.650375,166.437576,254.785477C166.473404,255.906647,166.548798,257.024841,166.663742,258.13855C167.422882,257.381653,168.046173,256.538879,168.5336,255.610306C169.071045,254.610809,169.393524,253.618042,169.501007,252.632721C169.063583,252.96788,168.522415,253.282135,167.87822,253.575485C166.538345,254.189072,165.04097,254.442856,163.386078,254.336121C161.730453,254.221909,160.280106,253.768066,159.033539,252.975342L158.517731,252.611069zM161.064621,228.111084C160.677216,228.111084,160.415955,228.318604,160.280106,228.73288C160.13678,229.182983,160.351761,229.568161,160.925034,229.889877L161.021332,229.986176C161.057159,230.064545,161.028793,230.128738,160.935486,230.178757C160.483887,230.457184,160.147232,230.696793,159.925537,230.896835C159.366455,231.417862,159.08728,232.021744,159.08728,232.706985C159.323151,232.164307,159.609787,231.696289,159.946442,231.30365C160.362213,230.853546,160.648849,230.604233,160.806351,230.554214L160.892197,230.532562C160.963852,230.532562,161.007141,230.560928,161.021332,230.618408C161.042984,230.67514,161.021332,230.72142,160.957138,230.757248L160.688416,230.971481C160.473434,231.149887,160.286819,231.321564,160.129318,231.485794C159.806854,231.79332,159.466476,232.303894,159.108185,233.017502L159.151474,233.253387L159.173126,233.242935C159.430649,232.686081,159.732208,232.2397,160.075577,231.903793C160.348038,231.632095,160.584656,231.461151,160.784698,231.389496L160.828003,231.379044C160.899658,231.379044,160.935486,231.417862,160.935486,231.496979C160.935486,231.582077,160.885483,231.653732,160.784698,231.711212L160.258453,232.107574C159.993469,232.371826,159.674728,232.792816,159.302261,233.371323L159.334351,233.457169C159.398544,233.463882,159.456024,233.481796,159.506042,233.51091C159.606812,233.560913,159.617264,233.643021,159.538132,233.757233C159.0298,234.14241,158.896942,234.628342,159.141022,235.213562C159.384369,235.785339,159.810593,236.071228,160.419693,236.071228L160.59137,236.060028C161.222122,237.20285,162.006653,238.081421,162.944931,238.695755C163.0457,238.752472,163.09198,238.80249,163.084518,238.845779C163.077805,238.880875,163.027786,238.898788,162.934479,238.898788C162.640381,238.898788,162.293274,238.759949,161.891693,238.481522C161.956635,239.016724,162.329117,239.495193,163.009872,239.916946C163.639877,240.316284,164.252716,240.516342,164.847641,240.516342C165.126801,240.516342,165.341782,240.466324,165.491821,240.366302L165.43808,240.366302L164.728943,240.21701C164.406479,240.116989,164.256439,240.037872,164.278091,239.98114L164.331833,239.959488L165.02977,240.023682C165.632156,240.023682,166.29425,239.866928,167.018311,239.552673C168.336548,238.974182,169.314392,237.959747,169.951859,236.510147C170.560959,235.124725,170.71846,233.69603,170.42511,232.224777C170.238495,231.311111,169.869751,230.39299,169.31813,229.471863C169.031494,229.42186,168.748581,229.279282,168.468658,229.043396L167.931961,228.368607C167.609497,227.961792,167.390793,227.725922,167.275833,227.661728L167.060852,227.607971C166.853348,227.607971,166.610001,227.697556,166.330078,227.875961L165.921783,227.961792C165.692612,227.961792,165.388062,227.858032,165.008865,227.650528C164.843903,227.56543,164.668488,227.522141,164.481873,227.522141C163.994446,227.522141,163.547318,227.758011,163.13826,228.229019C163.016586,228.372345,162.852371,228.443253,162.644119,228.443253C162.49408,228.443253,162.303726,228.400711,162.07457,228.314865L161.140015,228.111084L161.064621,228.111084zM160.84964,233.285477L160.698868,233.403412C160.606308,233.495972,160.555542,233.575104,160.548828,233.639297C160.548828,233.717667,160.505539,233.757233,160.419693,233.757233C160.333847,233.757233,160.294281,233.699753,160.301758,233.585556C160.308472,233.478806,160.362213,233.371323,160.462982,233.263824L160.720505,233.060791L160.784698,233.039154C160.842178,233.039154,160.878006,233.071243,160.892197,233.135437C160.913849,233.199631,160.899658,233.249649,160.84964,233.285477zM159.9039,233.296677L159.860596,233.253387C159.84642,233.196655,159.882248,233.099609,159.968094,232.964508L160.236816,232.600235C160.387589,232.442734,160.563004,232.318085,160.763809,232.224777L160.795898,232.224777C160.860092,232.224777,160.903397,232.256866,160.925034,232.321808C160.945938,232.386002,160.913849,232.446472,160.828003,232.503952L160.409241,232.782379L160.118866,233.092896C160.011383,233.228745,159.939728,233.296677,159.9039,233.296677zM166.437576,237.752975C166.287537,237.702972,166.222595,237.613403,166.244247,237.485001C166.265884,237.377518,166.345016,237.324524,166.480865,237.324524L166.524155,237.324524L167.42662,237.431259C167.490814,237.438721,167.526642,237.456635,167.534103,237.485001L167.45871,237.559647L167.093704,237.752975L166.803329,237.805984L166.437576,237.752975zM169.221085,230.028717L169.113602,230.060822L168.232788,230.028717L168.049911,229.943619C168.006607,229.893616,167.992432,229.832397,168.006607,229.76149L168.049911,229.547256C168.057373,229.439774,168.107376,229.386017,168.200684,229.386017L168.307434,229.418121L169.135239,229.932419C169.192719,229.968246,169.221085,230.000351,169.221085,230.028717zM163.96608,229.171799C164.045197,229.171799,164.101929,229.207626,164.137756,229.279282L164.288544,229.482315C164.388565,229.625626,164.424393,229.718201,164.396027,229.76149L164.191498,229.846588L163.783203,230.018265L163.332336,230.27504C163.167374,230.375076,163.059891,230.425079,163.009872,230.425079C162.959122,230.246674,163.084518,229.989899,163.386078,229.653992L163.858582,229.203888L163.96608,229.171799zM164.159409,231.111069L164.170609,231.111069C164.278091,231.111069,164.370651,231.182724,164.449783,231.325302C164.528152,231.461151,164.571442,231.629105,164.578918,231.828415C164.585632,232.028458,164.549805,232.203873,164.47142,232.353912C164.399765,232.496475,164.310196,232.568146,164.202698,232.568146C164.095215,232.568146,164.001907,232.496475,163.922791,232.353912C163.844406,232.218048,163.801117,232.05011,163.794388,231.850052C163.779465,231.657471,163.812302,231.485794,163.890686,231.335754C163.962341,231.193176,164.051926,231.117783,164.159409,231.111069zM168.705292,231.132721C168.812775,231.132721,168.906082,231.203629,168.985214,231.346954C169.063583,231.482056,169.106873,231.650009,169.113602,231.850052C169.121063,232.05011,169.088959,232.224777,169.017303,232.374817C168.945648,232.518127,168.856079,232.589035,168.748581,232.589035L168.737381,232.589035C168.629898,232.589035,168.537338,232.521118,168.458221,232.386002C168.379089,232.242691,168.336548,232.071747,168.329071,231.871704C168.322357,231.671646,168.358185,231.499969,168.436569,231.357391C168.508224,231.214828,168.597794,231.139435,168.705292,231.132721zM166.373383,231.16481L166.383835,231.16481C166.45549,231.16481,166.516693,231.225281,166.566711,231.346954L166.996658,232.203873L167.845383,233.328766C167.931961,233.428802,167.934952,233.542999,167.856567,233.671387L167.383331,234.378281C167.304947,234.464127,167.207916,234.506668,167.093704,234.506668L166.857086,234.442474L166.749588,234.356628C166.735413,234.314087,166.74585,234.267807,166.781693,234.217789L167.17955,233.693039C167.257919,233.578094,167.265381,233.457169,167.201187,233.328766L166.749588,232.4711C166.570435,232.128479,166.427124,231.767944,166.319641,231.389496C166.283798,231.253647,166.301727,231.179001,166.373383,231.16481zM169.135239,234.956787C169.149429,234.956787,169.174805,234.974701,169.210632,235.010529L169.60849,235.492737C169.694336,235.606934,169.70105,235.724884,169.629395,235.845795L169.167343,236.552689L169.103149,236.616882C169.074036,236.616882,169.05986,236.584793,169.05986,236.520599L169.05986,236.413849C169.074036,236.306366,169.027756,236.253357,168.920273,236.253357L168.866516,236.253357L168.189499,236.649734C167.645325,236.913971,167.150436,237.049072,166.706299,237.056549L166.695847,237.056549C166.258423,237.056549,165.678436,236.84903,164.955124,236.434753C164.596832,236.227982,164.281082,236.021225,164.009369,235.813705L163.922791,235.803253C163.822754,235.803253,163.74736,235.839081,163.697357,235.910004L163.686905,236.402649L163.601059,236.46759L163.525665,236.37056L163.332336,235.395691C163.310699,235.26059,163.356979,235.153091,163.471924,235.074722L164.546066,234.314087L164.62146,234.292435C164.67894,234.292435,164.689392,234.328262,164.653564,234.399933L164.513977,234.742554C164.492325,234.792557,164.507248,234.849289,164.557266,234.91423L164.718506,235.031433C165.700073,235.395691,166.430862,235.606934,166.910828,235.663666L167.211639,235.674866L168.329071,235.567383L168.898621,235.460632L169.038956,235.374786C169.081497,235.324783,169.099411,235.271042,169.091949,235.213562L169.091949,235.06427C169.077774,234.992615,169.091949,234.956787,169.135239,234.956787zM168.94191,235.663666L168.909821,235.663666L168.318634,235.771164L167.114609,235.867447L166.813782,235.856995C166.247971,235.813705,165.517197,235.609924,164.62146,235.245651L164.37439,235.20311C164.274368,235.20311,164.181061,235.235199,164.095215,235.299408C164.001907,235.371063,163.980255,235.449432,164.030273,235.535278L164.21315,235.685318C165.001404,236.106308,165.542572,236.367569,165.835938,236.46759L166.910828,236.60643L167.58786,236.531784L168.920273,236.08168C169.01358,236.060028,169.081497,235.981659,169.124802,235.845795C169.153152,235.724884,169.091949,235.663666,168.94191,235.663666z"/>
    <path transform="matrix(-1,0,0,1,0,0)" style="stroke:none;fill:#000000;fill-rule:evenodd" d="M170.885757,274.598175L169.705627,273.576294C169.430176,273.424011,169.266708,273.525543,169.21521,273.881592C169.06218,275.162506,169.164444,276.19931,169.522003,276.992035C169.236099,277.855682,169.322693,278.577515,169.782501,279.157501C169.833267,279.238098,169.843719,279.304535,169.81311,279.355316C169.302536,280.087585,168.505325,280.681763,167.422226,281.139313C166.860153,281.332642,166.630249,281.658112,166.732513,282.114929C166.804169,282.450836,167.044525,282.618042,167.452835,282.618042L168.372467,282.420227C169.43541,281.973114,170.211716,281.302063,170.702133,280.407806C171.161942,280.74295,171.544876,280.910919,171.851669,280.910919C172.14801,280.910919,172.474945,280.732513,172.832504,280.377197C173.016129,280.183868,173.246033,280.031586,173.522217,279.919617C174.165665,279.695679,174.609802,279.487427,174.855377,279.294098C175.090515,279.091064,175.371185,278.73053,175.69812,278.211731C176.249756,278.24234,176.786453,278.175903,177.307465,278.013184C177.358231,278.013184,177.368683,278.043793,177.338074,278.105011L176.617752,279.050751C176.331863,279.426208,176.188538,279.726288,176.188538,279.950226C176.188538,280.356293,176.520706,280.560089,177.185059,280.560089C177.715775,280.560089,178.262924,280.01593,178.825012,278.928345L179.82077,276.610596C180.199219,275.665588,180.551544,274.95871,180.878494,274.491425C181.491333,274.155548,182.017578,273.739014,182.456482,273.24115C182.671463,273.850983,183.075287,274.430237,183.667221,274.978882L182.748352,276.839783C181.992188,277.560852,181.613739,278.069183,181.613739,278.364014C181.613739,278.526733,181.70108,278.679016,181.874252,278.821594C182.344513,279.147034,182.804337,279.121674,183.253693,278.745453C183.529877,278.491669,184.34201,277.301819,185.690857,275.177429C185.874481,274.872131,185.966293,274.63327,185.966293,274.460846C185.966293,274.216736,185.685623,273.947266,185.12355,273.652435C184.735397,273.480011,184.541321,273.26651,184.541321,273.011963C184.541321,272.859711,184.633133,272.631287,184.816757,272.325989C185.889404,270.516602,186.426102,269.240906,186.426102,268.498932C186.426102,268.082428,186.282791,267.553192,185.996902,266.91272C185.731155,266.313324,185.491547,265.92218,185.276581,265.739319C186.278305,265.38324,187.223312,264.885376,188.112335,264.244904C189.869476,262.984161,190.839874,261.352417,191.023499,259.350433C191.033951,257.591797,190.318848,256.137726,188.878189,254.988937C187.877213,254.186493,186.819489,253.682648,185.70578,253.479614C185.358688,253.418396,185.087723,253.550522,184.893646,253.875977C184.710022,254.211884,184.852585,254.47612,185.322861,254.668701C186.579132,255.156891,187.350952,255.487564,187.636856,255.659988C188.985687,256.483337,189.6754,257.52536,189.706009,258.786133C189.736618,260.666443,188.684113,262.175751,186.548523,263.31485C185.475876,263.894073,184.331573,264.295685,183.115601,264.51886C179.703583,265.068237,177.246262,266.91272,175.7444,270.053802C174.017868,270.826355,173.037033,272.0513,172.801895,273.728577C171.984528,273.942047,171.345581,274.232422,170.885757,274.598175zM172.280884,278.958954L172.265198,278.913422C172.203995,278.638702,172.259979,278.389404,172.433899,278.166199L172.495102,278.090088L172.755615,278.440155L173.093018,278.074402L173.13855,278.043793L173.18483,278.074402C173.266937,278.115448,173.317688,278.13562,173.337845,278.13562L173.430405,278.13562L173.399063,278.226685C173.358749,278.420013,173.215424,278.598419,172.970596,278.760376C172.766068,278.902954,172.581696,278.973877,172.418228,278.973877L172.326416,278.973877L172.280884,278.958954zM169.920593,277.922119L169.951202,277.967651L170.226639,278.364014L170.533432,278.043793L170.579712,278.13562C170.712585,278.369232,170.752899,278.628265,170.702133,278.913422L170.686462,278.973877L170.625244,278.973877C170.431168,278.973877,170.222168,278.877563,169.996735,278.684235C169.802658,278.521515,169.6698,278.343872,169.598877,278.150543L169.583206,278.090088L169.629486,278.059479L169.920593,277.922119zM172.878036,275.131897L172.878036,275.101288L172.908646,275.070679C174.135056,274.054016,174.932266,273.520294,175.299515,273.469543L175.360733,273.45462L175.392075,273.515076C175.780228,274.339172,175.851151,275.217743,175.606308,276.153046L175.514496,276.229187C175.453293,276.229187,175.422684,276.194092,175.422684,276.122437C175.392075,275.340149,175.268921,274.694458,175.054688,274.186127L173.920822,274.842285L173.077332,275.345367L173.016129,275.405823L172.970596,275.329712C172.908646,275.258789,172.878036,275.192352,172.878036,275.131897z"/>
</svg>
