<?xml version="1.0" encoding="UTF-8"?>
<svg xmlns="http://www.w3.org/2000/svg" xmlns:xlink="http://www.w3.org/1999/xlink" width="40.535mm" height="61.321mm" viewBox="-142.274933 222.338989 40.534767 61.321259">
    <path transform="matrix(-1,0,0,1,0,0)" style="stroke:none;fill:#000000;fill-rule:evenodd" d="M113.001282,222.340805L113.036911,222.346298L113.055984,222.350754L113.091965,222.360229L113.143021,222.377823L113.18174,222.394608L113.218063,222.412994L113.259636,222.436981L113.286247,222.453888L113.330673,222.485062L113.350891,222.500366L113.398071,222.538742L113.413376,222.552002L113.463287,222.597565L113.475052,222.608765L113.527931,222.661636L113.537415,222.671585L113.593033,222.731659L113.600571,222.73999L113.658936,222.807159L113.664993,222.814346L113.726318,222.888824L113.731689,222.895325L113.795761,222.97699L113.800217,222.982819L113.867035,223.071686L113.870468,223.076355L113.940247,223.172409L113.943558,223.177094L114.016083,223.28035L114.018829,223.284241L114.094208,223.394684L114.096611,223.398331L114.171188,223.510498L114.561699,224.05542L114.569008,224.061584L114.581345,224.068329L114.586945,224.070038L115.004395,223.965759L115.025299,223.961197L115.601631,223.853607L115.637383,223.848801L115.673477,223.847549L115.713226,223.85051L115.989738,223.886612L116.025261,223.893112L116.047989,223.899292L116.101669,223.915741L116.138214,223.929092L116.197159,223.954453L116.225136,223.968048L116.289215,224.002533L116.309204,224.014069L116.378647,224.05748L116.39418,224.067749L116.468872,224.120071L116.481438,224.129318L116.561386,224.190643L116.571556,224.198761L116.656647,224.269119L116.664413,224.275742L116.754868,224.355011L116.761612,224.361053L116.857323,224.449356L116.863037,224.454712L116.964005,224.552032L116.968681,224.556595L117.074905,224.662811L117.07901,224.667038L117.190491,224.782288L117.194145,224.786057L117.310875,224.910324L117.313843,224.913528L117.435944,225.046692L117.438797,225.049896L117.566032,225.192093L117.568542,225.194839L117.69635,225.340805L117.788528,225.436401L117.87841,225.513382L117.968643,225.575867L118.061844,225.626114L118.158012,225.664948L118.258865,225.692703L118.364517,225.709488L118.479301,225.715439L118.553314,225.712463L118.624588,225.703781L118.693001,225.689499L118.758675,225.669739L118.824005,225.643707L118.887741,225.611832L118.951813,225.572784L119.012115,225.529266L119.051979,225.494766L119.076424,225.466675L119.096405,225.435379L119.112289,225.400314L119.124847,225.357361L119.133186,225.30426L119.135925,225.238815L119.130333,225.147552L119.129875,225.111465L119.133186,225.075592L119.140045,225.040192L119.150543,225.005585L119.164368,224.972351L119.18161,224.940598L119.201828,224.910675L119.225021,224.883026L119.250946,224.857895L119.279266,224.83551L119.309647,224.816101L119.341858,224.799881L119.375549,224.786972L119.410385,224.777496L119.44603,224.771667L119.482002,224.769379L119.518097,224.770752L119.553726,224.775894L119.588791,224.784454L119.622833,224.79657L119.65538,224.812103L119.686218,224.830826L119.715004,224.852539L119.750412,224.886688L119.896149,225.047729L119.92025,225.077301L120.044861,225.248749L120.066216,225.281982L120.169815,225.463928L120.187515,225.499451L120.270096,225.691559L120.281738,225.722397L120.324348,225.853745L120.332344,225.882416L120.364212,226.018448L120.369804,226.047806L120.390594,226.188751L120.393562,226.216156L120.40361,226.362015L120.404411,226.388733L120.403503,226.539383L120.402466,226.564392L120.390594,226.719849L120.388077,226.742691L120.365349,226.902939L120.361694,226.924179L120.328003,227.08934L120.323654,227.108185L120.280144,227.274704L120.273636,227.296753L120.221207,227.454941L120.212646,227.478119L120.151077,227.628204L120.14035,227.651733L120.069763,227.793472L120.056854,227.817001L120.007278,227.900146L120.014938,227.904266L120.050339,227.925858L120.080154,227.946182L120.106079,227.96788L120.138855,227.998032L120.164101,228.023743L120.178719,228.041214L120.208984,228.080048L120.236061,228.120255L120.26358,228.167648L120.281174,228.201904L120.306076,228.257996L120.317032,228.285858L120.339417,228.350388L120.350616,228.389801L120.383736,228.53862L120.390594,228.582474L120.405663,228.741806L120.407265,228.781448L120.404411,228.951172L120.402008,228.986115L120.381111,229.166458L120.377914,229.188507L120.364319,229.264114L120.357353,229.294724L120.33474,229.377762L120.327316,229.401749L120.295677,229.492203L120.288712,229.510712L120.248161,229.608826L120.241425,229.623901L120.191971,229.729431L120.185684,229.74234L120.12709,229.855301L120.121727,229.865128L120.054337,229.985626L120.049194,229.994537L119.972672,230.122559L119.952682,230.152603L119.929611,230.180359L119.903915,230.205719L119.875824,230.228333L119.845551,230.248093L119.813461,230.264542L119.779877,230.277786L119.745155,230.287491L119.733047,230.289551L119.787872,230.434952L119.793129,230.449799L119.918991,230.833908L119.923676,230.849442L120.03035,231.233093L120.03447,231.249298L120.121956,231.632721L120.125153,231.648605L120.180771,231.956421L120.182945,231.969208L120.226913,232.275879L120.228516,232.289352L120.260498,232.594879L120.261642,232.608368L120.28186,232.91275L120.282547,232.926559L120.290878,233.229813L120.290993,233.243622L120.287567,233.545837L120.287109,233.560013L120.271805,233.860962L120.270889,233.874908L120.24382,234.174835L120.242226,234.188766L120.203278,234.487549L120.201218,234.501495L120.150391,234.799255L120.147766,234.812958L120.085182,235.109467L120.082092,235.122818L120.007736,235.418304L120.004089,235.431549L119.917847,235.725891L119.913849,235.738556L119.815857,236.031754L119.811516,236.044205L119.701752,236.336365L119.69696,236.34848L119.575317,236.639496L119.569839,236.651947L119.431633,236.950043L119.425354,236.962723L119.278351,237.249405L119.271271,237.262543L119.115257,237.537811L119.107491,237.550934L118.942673,237.814774L118.93399,237.827911L118.760269,238.080444L118.750793,238.093689L118.568161,238.334808L118.55777,238.347931L118.366226,238.577515L118.354919,238.590302L118.154358,238.808563L118.142479,238.820908L117.933121,239.027863L117.920334,239.039856L117.702065,239.235275L117.688583,239.246704L117.470551,239.423401L117.807831,239.737152L117.832954,239.762955L117.855453,239.791397L117.935745,239.904236L117.950714,239.9272L118.017532,240.038223L118.032379,240.065399L118.085709,240.174469L118.099762,240.207138L118.139511,240.314392L118.151047,240.351624L118.177429,240.45694L118.185425,240.499878L118.187714,240.518387L118.209976,240.509811L118.244705,240.500336L118.280334,240.494278L118.316315,240.492004L118.352409,240.493362L118.388153,240.498276L118.423218,240.506851L118.45726,240.518951L118.489807,240.534363L118.520767,240.552994L118.549545,240.574692L118.576042,240.599243L118.606308,240.63443L118.755936,240.833725L118.759476,240.838531L118.902016,241.035202L118.905785,241.040466L119.04113,241.234512L119.045013,241.240219L119.173164,241.431656L119.176933,241.437363L119.298004,241.626053L119.302002,241.632446L119.415985,241.818619L119.420097,241.82547L119.526886,242.009018L119.530884,242.016098L119.630707,242.197006L119.633911,242.202957L119.925964,242.756775L119.929611,242.764099L120.211609,243.329803L120.215157,243.337006L120.486984,243.914825L120.490295,243.922012L120.752083,244.511719L120.755165,244.518799L121.00679,245.120483L121.009529,245.127441L121.250977,245.741013L121.253601,245.747864L121.485008,246.373535L121.487518,246.380402L121.708641,247.017944L121.710121,247.0224L121.843872,247.424896L121.845245,247.429123L121.970428,247.822266L121.971794,247.826828L122.088409,248.210587L122.08989,248.2155L122.197716,248.589905L122.199196,248.594925L122.298569,248.960083L122.300049,248.96579L122.390625,249.321457L122.391998,249.327393L122.473892,249.673706L122.475372,249.679871L122.547325,250.010635L122.570282,250.100754L122.571198,250.10463L122.592896,250.194061L122.595413,250.205368L122.612656,250.288055L122.615402,250.302109L122.628082,250.378067L122.630371,250.394623L122.638588,250.46373L122.640411,250.484406L122.644188,250.546875L122.644867,250.573486L122.644073,250.629227L122.642014,250.662125L122.636765,250.711121L122.629562,250.753845L122.619743,250.796097L122.610603,250.828308L122.524368,251.086548L122.515579,251.110199L122.473434,251.211838L122.495705,251.209671L122.531677,251.209671L122.567657,251.21344L122.602951,251.220749L122.637329,251.231598L122.670456,251.24588L122.701981,251.263458L122.73156,251.284149L122.758972,251.307678L122.78376,251.333832L122.805801,251.362381L122.824875,251.393097L122.840744,251.425537L122.855484,251.466766L122.935661,251.744537L122.937378,251.750946L123.010017,252.021179L123.011841,252.02803L123.076942,252.290955L123.078659,252.298492L123.136108,252.554108L123.137825,252.562103L123.187622,252.810181L123.189224,252.818634L123.231483,253.059402L123.232971,253.068649L123.267685,253.301987L123.269058,253.312042L123.296127,253.538086L123.297272,253.54892L123.316689,253.767426L123.31749,253.778961L123.329369,253.990143L123.329819,254.002594L123.334167,254.20636L123.334274,254.220062L123.330849,254.416504L123.330276,254.431015L123.319313,254.619934L123.318062,254.635345L123.299545,254.816956L123.297501,254.83374L123.271347,255.007919L123.268143,255.025848L123.234337,255.192612L123.229309,255.213852L123.166946,255.447189L123.160095,255.469925L123.080833,255.702927L123.072723,255.724518L122.97644,255.957062L122.967529,255.9767L122.854454,256.209015L122.844864,256.227509L122.714767,256.459259L122.704834,256.47583L122.557838,256.707336L122.547562,256.722534L122.383652,256.953461L122.373489,256.967285L122.192566,257.197906L122.18309,257.20932L121.927933,257.508118L121.914345,257.523193L121.641144,257.808502L121.626862,257.82254L121.335617,258.094269L121.320992,258.107178L121.01181,258.365417L120.99662,258.377411L120.756767,258.55661L120.726837,258.576721L120.702629,258.590088L120.414459,258.733887L120.402351,258.739594L120.235718,258.815063L120.209785,258.825592L120.046112,258.884766L120.016762,258.894012L119.856171,258.936829L119.822708,258.944031L119.665092,258.970184L119.629227,258.974304L119.59314,258.974762L119.557159,258.971558L119.521751,258.964691L119.508392,258.960693L119.507477,259.049561L119.507248,259.060059L119.490227,259.493073L119.489655,259.503571L119.460297,259.928101L119.459274,259.939301L119.417358,260.355286L119.4161,260.366699L119.361732,260.774109L119.359909,260.785889L119.292976,261.184814L119.290802,261.196838L119.21154,261.587311L119.209259,261.597839L119.148605,261.856415L119.146095,261.866241L119.079849,262.116486L119.077103,262.126434L119.005379,262.368561L119.001953,262.379425L118.924515,262.613342L118.920631,262.624298L118.837708,262.849854L118.833374,262.861298L118.744858,263.078644L118.739716,263.090393L118.645599,263.299652L118.639893,263.311981L118.540176,263.512878L118.533669,263.52533L118.42836,263.718018L118.421165,263.730591L118.310379,263.915039L118.302155,263.927948L118.185768,264.104187L118.176743,264.11731L118.054642,264.285339L118.04483,264.298126L117.917244,264.457916L117.906509,264.470825L117.773331,264.622375L117.761566,264.635071L117.622803,264.778412L117.610458,264.790619L117.466202,264.925751L117.452728,264.937744L117.302765,265.064636L117.288712,265.075928L117.13327,265.194489L117.11853,265.205109L116.957375,265.315552L116.942184,265.325378L116.775543,265.42749L116.76001,265.436523L116.587769,265.530518L116.571671,265.538727L116.393829,265.62439L116.37796,265.631592L116.194641,265.709045L116.178421,265.715424L115.989395,265.784637L115.973404,265.790009L115.778778,265.851013L115.763245,265.85556L115.563141,265.908447L115.547607,265.912109L115.341904,265.956665L115.326828,265.959625L115.115532,265.995941L115.100677,265.998108L114.883789,266.026093L114.869965,266.02771L114.647476,266.047577L114.633881,266.048492L114.405792,266.06015L114.392883,266.060577L114.159203,266.064026L114.123108,266.062653L114.087357,266.057739L114.052292,266.049286L114.018257,266.03717L114.009918,266.033173L113.940475,266.472229L113.939453,266.478271L113.803986,267.248535L113.802963,267.254272L113.651741,268.037903L113.650597,268.043274L113.492981,268.798462L113.49218,268.802582L113.331482,269.529327L113.330452,269.533783L113.166664,270.232086L113.165527,270.236786L112.998886,270.906555L112.997513,270.911682L112.827789,271.553009L112.826302,271.55838L112.65361,272.171356L112.651894,272.177307L112.476227,272.761871L112.474289,272.76825L112.295654,273.324493L112.282867,273.358307L112.274643,273.374756L113.649689,274.335876L113.671043,274.352081L114.271927,274.843323L114.27787,274.848236L114.698181,275.207336L114.72731,275.235107L114.887665,275.40686L114.902634,275.424133L115.035583,275.586182L115.05294,275.609161L115.158585,275.761505L115.178116,275.79303L115.256363,275.935577L115.276802,275.979675L115.327629,276.112396L115.338821,276.146667L115.344879,276.172913L115.368408,276.296051L115.373314,276.331787L115.374458,276.375183L115.370575,276.488617L115.367599,276.524597L115.36087,276.559998L115.355614,276.579407L115.324318,276.683136L115.31221,276.717041L115.292564,276.757019L115.267899,276.800201L115.248367,276.830566L115.235458,276.847595L115.203362,276.887238L115.167847,276.925049L115.128555,276.961243L115.091774,276.990936L115.045059,277.023712L115.010796,277.044952L114.956886,277.07431L114.925133,277.08963L114.8638,277.11554L114.835587,277.126038L114.766945,277.148438L114.742729,277.155396L114.666779,277.174377L114.645302,277.179047L114.562042,277.194458L114.544449,277.197327L114.453873,277.209442L114.43766,277.211151L114.339775,277.219727L114.325729,277.220734L114.220535,277.225769L114.209,277.226105L114.096497,277.227814L114.085533,277.227814L113.965836,277.225983L113.956238,277.225647L113.829117,277.220276L113.820892,277.219818L113.686462,277.211029L113.68235,277.210815L113.345299,277.184753L113.333534,277.183624L113.006989,277.147522L112.994659,277.145935L112.678619,277.099792L112.665604,277.097717L112.360077,277.041534L112.346367,277.038666L112.051346,276.972321L112.037071,276.968781L111.752563,276.892365L111.737595,276.888031L111.463707,276.801453L111.448288,276.796204L111.184792,276.699463L111.170746,276.69397L110.994736,276.620758L110.979889,276.614136L110.806046,276.532349L110.791656,276.525146L110.620224,276.434814L110.6064,276.427155L110.437134,276.328125L110.423996,276.320129L110.257019,276.212555L110.244675,276.204224L110.079987,276.088074L110.0681,276.079254L109.905685,275.954315L109.894836,275.945618L109.734711,275.812225L109.714951,275.794403L109.282303,275.375366L109.269958,275.362793L108.746056,274.802673L108.741028,274.808716L108.735321,274.820953L108.7183,274.852814L108.698196,274.882751L108.668732,274.917358L108.630356,274.95697L108.603973,274.981659L108.575302,275.003479L108.535095,275.0271L108.483353,275.053253L108.450348,275.067993L108.416084,275.079193L108.390503,275.085144L108.325165,275.097809L108.289413,275.102844L108.254128,275.104309L108.175316,275.103638L108.123917,275.099396L108.031631,275.085144L107.99588,275.07782L107.890236,275.050171L107.864304,275.042297L107.745071,275.00119L107.733078,274.996735L107.631989,274.957764L107.622169,274.953888L107.529427,274.914948L107.518349,274.910034L107.433945,274.871216L107.420692,274.864807L107.344513,274.825867L107.329544,274.817749L107.261589,274.778809L107.243881,274.767944L107.184265,274.729004L107.163589,274.714508L107.112305,274.675537L107.089233,274.656372L107.046181,274.617523L107.021851,274.593445L106.965195,274.531525L106.94339,274.505249L106.8937,274.43924L106.874054,274.410339L106.831337,274.34021L106.814545,274.309143L106.778801,274.234802L106.765663,274.203735L106.736771,274.125366L106.726715,274.093628L106.704788,274.011169L106.697937,273.980194L106.682968,273.893524L106.679199,273.864166L106.671204,273.773468L106.669838,273.746063L106.668808,273.651154L106.66938,273.625916L106.675323,273.527008L106.67749,273.504486L106.690277,273.401367L106.693481,273.380219L106.713348,273.27298L106.717239,273.2547L106.743965,273.143463L106.748413,273.126892L106.782112,273.011414L106.786789,272.99646L106.827454,272.876892L106.832367,272.863281L106.880112,272.739594L106.885025,272.727478L107.028702,272.392273L107.044579,272.359924L107.063652,272.329224L107.085693,272.300781L107.110596,272.274506L107.138008,272.250977L107.167587,272.230408L107.199112,272.21283L107.232239,272.198547L107.266617,272.187714L107.302017,272.180389L107.328407,272.177643L107.322235,272.170227L107.302139,272.140198L107.285347,272.108337L107.271759,272.07486L107.261589,272.040253L107.255081,272.00473L107.252106,271.96875L107.252563,271.938141L107.255417,271.886292L107.254509,271.835236L107.24971,271.774109L107.241028,271.705597L107.227211,271.625305L107.209045,271.537354L107.18689,271.44519L107.156509,271.331879L106.976959,270.688721L106.968742,270.652191L106.835335,269.861572L106.821976,269.871521L106.790909,269.890015L106.75824,269.905334L106.724205,269.917206L106.685829,269.926117L106.569557,269.946564L106.532547,269.951111L106.424164,269.958679L106.380753,269.959015L106.280014,269.953766L106.229767,269.947479L106.136902,269.929199L106.101959,269.920502L106.083115,269.914246L105.998016,269.883057L105.964783,269.868896L105.943878,269.857819L105.866669,269.813721L105.836288,269.794312L105.817558,269.780029L105.748116,269.723145L105.72139,269.698822L105.706772,269.683167L105.645096,269.613281L105.613571,269.57193L105.559662,269.489136L105.537384,269.449371L105.491241,269.353668L105.476059,269.317352L105.43779,269.20871L105.428314,269.177094L105.397812,269.055664L105.391991,269.028046L105.369377,268.893616L105.366287,268.870544L105.351334,268.723297L105.349846,268.702972L105.342758,268.542725L105.342422,268.525604L105.343109,268.35257L105.343567,268.336456L105.35556,268.091797L105.356697,268.075806L105.381256,267.815063L105.382736,267.801453L105.419632,267.524719L105.421463,267.512512L105.470795,267.219666L105.47274,267.209137L105.534416,266.900208L105.536469,266.890594L105.610718,266.565643L105.61277,266.557312L105.699341,266.216156L105.701286,266.20874L105.800201,265.851563L105.811615,265.817322L105.826355,265.784424L105.844398,265.753113L105.865524,265.723877L105.889404,265.69693L105.916016,265.672485L105.944908,265.650909L105.975861,265.632263L106.00853,265.616882L106.042564,265.604858L106.077629,265.596405L106.113373,265.591492L106.149353,265.59024L106.185448,265.592651L106.22097,265.598694L106.255806,265.608307L106.2686,265.613312L106.263458,265.565704L106.263,265.560547L106.166374,264.535004L106.165916,264.529877L106.083908,263.500336L106.08345,263.495178L106.016182,262.461548L106.015724,262.425446L106.018806,262.389465L106.025543,262.354065L106.035934,262.319458L106.049644,262.286102L106.066666,262.254242L106.086884,262.224304L106.109955,262.196655L106.135765,262.171417L106.15564,262.155548L106.15358,262.153839L106.086197,262.093628L106.060501,262.068298L106.037537,262.040405L106.017548,262.010376L106.006241,261.989014L106.000076,261.984009L105.974716,261.958405L105.953133,261.932129L105.458694,261.263519L105.43528,261.281799L105.404785,261.300873L105.388107,261.309662L105.339798,261.333435L105.306671,261.347717L105.272293,261.358551L105.246246,261.364258L105.114792,261.388123L105.078926,261.392822L105.042946,261.393738L105.006851,261.391113L104.980125,261.38678L104.894577,261.369385L104.854149,261.358673L104.768715,261.330566L104.732506,261.316406L104.647072,261.277557L104.615326,261.26123L104.530121,261.21167L104.503281,261.194305L104.418076,261.133881L104.395569,261.116516L104.310478,261.04538L104.291748,261.028595L104.206772,260.946686L104.191353,260.930817L104.106491,260.838196L104.093582,260.823456L104.008835,260.720093L103.9981,260.706268L103.913467,260.592041L103.904785,260.579712L103.820152,260.454773L103.812614,260.443237L103.774239,260.381439L103.755737,260.392731L103.723183,260.408386L103.689262,260.420624L103.654198,260.429291L103.618446,260.434418L103.582466,260.435913L103.53952,260.432953L103.262894,260.396851L103.227371,260.39035L103.192764,260.38028L103.155075,260.364868L103.090195,260.333801L103.055023,260.314514L102.992432,260.27533L102.96125,260.253296L102.900826,260.20578L102.874214,260.182709L102.816078,260.126831L102.794724,260.104462L102.738754,260.040497L102.720825,260.018341L102.667145,259.946045L102.653206,259.925842L102.6017,259.845428L102.590164,259.825989L102.540932,259.737244L102.52951,259.714996L102.378746,259.391754L102.370979,259.373718L102.236664,259.038483L102.230042,259.020447L102.112167,258.673218L102.106567,258.655396L102.005264,258.296204L102.000809,258.278839L101.916061,257.907532L101.912628,257.890625L101.844444,257.507416L101.841934,257.491089L101.790306,257.095886L101.788589,257.080475L101.753418,256.673309L101.75296,256.666321L101.743935,256.531555L101.743248,256.51535L101.74028,256.374634L101.740166,256.359894L101.743134,256.213257L101.743706,256.199432L101.752731,256.046722L101.753754,256.034271L101.768723,255.875504L101.769974,255.863617L101.791107,255.699036L101.792587,255.688766L101.81955,255.518127L101.821259,255.508301L101.854263,255.331604L101.862717,255.296539L101.874596,255.26239L101.889908,255.229736L101.908409,255.198776L101.929993,255.169876L101.954323,255.143265L101.981277,255.119278L102.010513,255.098038L102.041695,255.079987L102.074593,255.06514L102.108856,255.053726L102.144035,255.045731L102.179901,255.041382L102.215988,255.040695L102.221817,255.041153L102.162308,254.923279L102.151573,254.89975L102.13501,254.860016L102.121536,254.82164L102.107941,254.77446L102.100288,254.742477L102.089897,254.687897L102.086243,254.664124L102.078705,254.60199L102.076759,254.581787L102.072304,254.512222L102.071732,254.496918L102.070137,254.419937L102.070023,254.406235L102.071503,254.321716L102.071854,254.311203L102.076187,254.219147L102.078133,254.19574L102.089096,254.098877L102.110001,253.749039L102.110458,253.743546L102.138092,253.376114L102.138435,253.370865L102.172363,252.994293L102.172928,252.989151L102.213364,252.60321L102.213821,252.598648L102.260422,252.203354L102.260986,252.198669L102.314102,251.794006L102.314674,251.78978L102.374062,251.375732L102.374748,251.371735L102.440422,250.948349L102.441338,250.942749L102.558868,250.256882L102.560234,250.249451L102.690559,249.575241L102.692039,249.567703L102.835037,248.905136L102.836754,248.897369L102.992432,248.24646L102.994484,248.238571L103.162956,247.599197L103.165123,247.59108L103.346382,246.963348L103.348892,246.955139L103.542953,246.33905L103.545692,246.330826L103.752533,245.726166L103.756302,245.715668L103.983597,245.113632L103.98793,245.102554L104.231331,244.517654L104.236237,244.506348L104.495743,243.938797L104.501221,243.927383L104.776939,243.376984L104.78299,243.365555L105.074699,242.832397L105.081322,242.820862L105.389252,242.304825L105.396446,242.293182L105.720589,241.79451L105.728355,241.783096L106.068604,241.301559L106.073174,241.295166L106.233765,241.078156L106.239014,241.071304L106.414566,240.84584L106.419479,240.839676L106.610107,240.60553L106.614555,240.600159L106.820259,240.357452L106.824371,240.352661L107.045036,240.101486L107.048805,240.09726L107.284431,239.837433L107.287979,239.833649L107.538681,239.56514L107.54187,239.561707L107.807541,239.284622L107.833817,239.259842L107.86248,239.237915L107.893089,239.218948L107.925644,239.203186L107.95945,239.190735L107.9944,239.181824L108.030151,239.176575L108.066238,239.174866L108.102219,239.176804L108.137856,239.182404L108.172806,239.191528L108.206612,239.204208L108.238937,239.2202L108.25058,239.227509L108.255615,239.201584L108.261436,239.176575L108.291016,239.067841L108.298553,239.043625L108.336472,238.935242L108.345047,238.913071L108.39119,238.804916L108.40078,238.784363L108.455147,238.676529L108.472961,238.645126L108.49398,238.615768L108.517731,238.588593L108.535782,238.571228L109.352539,237.84082L109.380638,237.818207L109.410904,237.798553L109.443001,237.781998L109.476578,237.768753L109.511299,237.758926L109.546822,237.752762L109.551392,237.752411L109.539856,237.739044L109.533005,237.730942L109.374588,237.536438L109.368073,237.528091L109.213768,237.326736L109.207489,237.31839L109.057297,237.110062L109.051697,237.101959L108.90538,236.886658L108.899902,236.878555L108.757706,236.656403L108.752792,236.648407L108.614594,236.419403L108.609795,236.411179L108.584778,236.367096L108.58284,236.367096L108.45755,236.363327L108.435272,236.361954L108.314888,236.350754L108.290909,236.347672L108.175201,236.328949L108.150421,236.324036L108.039513,236.297882L108.013359,236.29068L107.907257,236.256989L107.881096,236.247513L107.779785,236.20639L107.753403,236.194397L107.656891,236.145737L107.631424,236.131577L107.539703,236.0755L107.515152,236.059052L107.42823,235.995438L107.405273,235.977158L107.323151,235.906006L107.302704,235.88681L107.225266,235.808228L107.20665,235.787781L107.134125,235.701782L107.117798,235.680878L107.050064,235.587219L107.036583,235.567123L106.973541,235.466156L106.961548,235.445602L106.903412,235.336975L106.893929,235.317902L106.840477,235.201859L106.830994,235.179138L106.784966,235.057831L106.777313,235.035675L106.740997,234.916885L106.734253,234.891541L106.70787,234.775375L106.702728,234.747513L106.686279,234.633972L106.683319,234.604507L106.676575,234.4935L106.67601,234.461395L106.679199,234.353119L106.681717,234.320007L106.694733,234.214355L106.700562,234.180878L106.723404,234.077744L106.73243,234.044617L106.765091,233.944122L106.777084,233.912247L106.81958,233.814484L106.834305,233.784668L106.886734,233.689407L106.903061,233.66246L106.965317,233.569824L106.97171,233.561157L106.957886,233.541382L106.940414,233.509872L106.92614,233.476746L106.915283,233.442368L106.907974,233.406952L106.904327,233.371094L106.904327,233.335007L106.907867,233.299133L106.912552,233.268066L106.912773,233.259506L106.911179,233.246597L106.901924,233.207428L106.895416,233.171906L106.892334,233.125076L106.892334,233.112854L106.894157,233.076752L106.894386,233.075043L106.889587,233.06842L106.871429,233.037247L106.856468,233.004349L106.844925,232.9702L106.83979,232.949524L106.779831,232.674255L106.774002,232.638748L106.771713,232.602646L106.773087,232.566666L106.778114,232.530914L106.786789,232.49585L106.798904,232.461823L106.806213,232.446167L106.789192,232.41774L106.774002,232.384949L106.762123,232.350922L106.753784,232.315857L106.748993,232.279984L106.747963,232.241837L106.750702,232.133224L106.728661,232.125336L106.696106,232.109924L106.665154,232.091309L106.636261,232.069611L106.609756,232.045166L106.585892,232.018097L106.564873,231.988861L106.546829,231.95755L106.527069,231.910736L106.412628,231.574585L106.407143,231.556778L106.304916,231.195404L106.30069,231.179291L106.210464,230.79245L106.207382,230.77771L106.129364,230.365051L106.127541,230.354309L106.094421,230.144379L106.093163,230.135696L106.065979,229.930679L106.064835,229.921539L106.043594,229.721664L106.042679,229.711853L106.027374,229.516998L106.026802,229.506714L106.017441,229.317001L106.016983,229.306259L106.013443,229.12146L106.013443,229.109818L106.015839,228.930145L106.016182,228.917938L106.024521,228.743301L106.025436,228.730621L106.039597,228.561005L106.04097,228.54718L106.06118,228.382599L106.063232,228.368668L106.089279,228.209106L106.092018,228.19426L106.124001,228.039841L106.127541,228.024414L106.165459,227.875031L106.1698,227.859375L106.213547,227.715012L106.219025,227.698456L106.268829,227.559113L106.275108,227.542664L106.330734,227.40834L106.337585,227.392914L106.476357,227.098129L106.484352,227.08226L106.636719,226.796371L106.645401,226.780945L106.811234,226.503983L106.820831,226.488785L107.000153,226.22084L107.009399,226.207703L107.137779,226.033417L107.146912,226.021423L107.273811,225.863571L107.284889,225.850555L107.410187,225.709152L107.423775,225.694641L107.547592,225.569687L107.564377,225.553818L107.686813,225.445313L107.707375,225.428406L107.828217,225.336456L107.853455,225.318985L107.972931,225.243378L108.004227,225.225677L108.087486,225.184097L108.091026,225.180328L108.11673,225.152237L108.180458,225.078217L108.26384,224.976685L108.365829,224.848755L108.558167,224.601135L108.70665,224.406631L108.714417,224.396805L108.860611,224.218628L108.878082,224.19899L109.028282,224.04126L109.049759,224.020462L109.204178,223.883408L109.229759,223.862732L109.38829,223.746231L109.418442,223.726364L109.581085,223.630539L109.615234,223.612839L109.782104,223.537445L109.820145,223.522827L109.991005,223.468124L110.031326,223.457733L110.19603,223.425522L111.209457,223.163849L111.506195,222.996643L111.81012,222.761124L111.835251,222.743301L111.961685,222.661758L111.975281,222.653412L112.096466,222.582718L112.112793,222.573807L112.228729,222.514069L112.24826,222.504715L112.358932,222.455933L112.381889,222.446808L112.487427,222.408768L112.515289,222.399979L112.615463,222.37291L112.648354,222.365601L112.743271,222.34938L112.781982,222.344925L112.871643,222.339554L112.893005,222.338989L112.965187,222.338989L113.001282,222.340805zM106.762123,254.471329L106.774574,254.463562L106.807007,254.447693L106.832253,254.438217L106.816376,254.416046L106.798447,254.384766L106.796959,254.381439L106.762123,254.471329zM109.94886,238.266617L109.960167,238.419434L109.967705,238.47403L109.981979,238.457703L110.008362,238.432907L110.037033,238.41098L110.067764,238.392136L110.100197,238.376495L110.126579,238.366898L110.062164,238.305222L110.054283,238.297455L109.94783,238.189056L109.94886,238.266617zM112.89769,226.00383L112.831787,226.022781L112.744865,226.061966L112.638306,226.125244L112.549561,226.188965L112.624939,226.164993L112.667542,226.154251L112.865593,226.117126L112.909561,226.111755L113.111725,226.099426L113.139252,226.099304L113.002655,226.015137L112.926582,226.000854L112.89769,226.00383zM115.193649,240.563721L115.177551,240.568405L114.896576,240.642532L114.878761,240.646759L114.605103,240.704102L114.608299,240.714722L114.615265,240.750122L114.618576,240.786102L114.618233,240.822083L114.614235,240.857941L114.606583,240.893234L114.595505,240.927612L114.581001,240.960632L114.563187,240.992035L114.542282,241.0215L114.536118,241.028473L114.598816,241.008026L114.734619,240.953888L114.866768,240.890839L115.000519,240.81546L115.124207,240.732651L115.240143,240.641052L115.34465,240.543961L115.380173,240.50502L115.193649,240.563721zM119.558151,228.28743C119.382149,228.447311,119.193901,228.554977,118.994049,228.610413C119.266106,229.08168,119.490463,229.524582,119.666458,229.939758C119.882431,229.588394,120.002342,229.316986,120.02684,229.125519C120.066811,228.87796,120.058426,228.658768,120.002342,228.4673C119.946251,228.283554,119.862442,228.191376,119.750267,228.191376C119.70256,228.191376,119.638092,228.223602,119.558151,228.28743zM119.054008,253.733154C119.246124,254.595093,119.386017,255.425446,119.474342,256.223572L120.134499,254.691147C119.798622,254.435211,119.690315,253.972321,119.810226,253.301849L119.065613,253.25415C119.081726,253.445618,119.077858,253.605499,119.054008,253.733154zM119.404724,254.555359L119.405785,254.565155L119.41835,254.696594L119.419006,254.691315L119.423637,254.662613L119.437393,254.593582L119.442154,254.572556L119.461853,254.495056L119.466614,254.477997L119.489098,254.403275L119.467148,254.403275L119.425621,254.399048L119.385025,254.390579L119.404724,254.555359zM105.699356,268.353973C105.674858,269.31131,105.983017,269.71875,106.623833,269.575012L106.143539,265.946716C105.863106,266.920837,105.714828,267.722809,105.699356,268.353973zM119.582008,257.49295L119.606506,258.618591C119.814735,258.594727,120.030708,258.526367,120.255058,258.414856L120.543228,258.271088L120.783051,258.091858C121.207253,257.756622,121.583755,257.385284,121.911896,256.977844C122.416687,256.363464,122.740959,255.744568,122.884727,255.121796C123.08522,254.252121,122.9608,253.066544,122.512741,251.56572C122.047928,252.436035,121.423874,252.966614,120.63929,253.158081L120.242805,253.241898C120.154488,253.593246,120.182854,253.89238,120.326614,254.139938L120.554832,254.391373L120.735344,254.499039L120.182854,255.816772C119.830208,256.542694,119.698051,256.957855,119.786369,257.061646L120.266663,257.001709C120.835274,256.826355,121.283325,256.307373,121.612122,255.445435C121.732033,255.134048,121.851944,254.65892,121.971855,254.020035C121.996353,253.908508,122.076294,253.86467,122.212318,253.888519C122.348351,253.912369,122.428291,253.976196,122.452789,254.079987C122.500496,254.3759,122.3722,254.902603,122.068558,255.660767C121.668205,256.642609,121.115707,257.245392,120.411072,257.469086L119.582008,257.49295zM107.356194,272.532806L107.212433,272.868042C106.939728,273.538513,106.964226,274.03363,107.284637,274.352753C107.388428,274.456543,107.580544,274.560364,107.860985,274.664124C108.196869,274.791779,108.388977,274.775665,108.437332,274.616425L108.605598,274.41272L108.857666,274.400452L109.530075,275.119293L109.962662,275.53833C110.386864,275.905823,110.834915,276.181091,111.307472,276.364807C111.995995,276.63623,112.796692,276.799347,113.709564,276.855438C114.445801,276.911499,114.870644,276.819336,114.982819,276.580139C115.10273,276.316467,114.930603,275.949646,114.466431,275.478394L114.046097,275.119293L113.445244,274.628052L112.040482,273.646179C111.247513,274.045258,110.410713,274.125183,109.530075,273.886017C108.705521,273.662292,107.980896,273.211029,107.356194,272.532806zM105.891472,258.019653C105.899208,257.988068,106.067467,258.015808,106.395615,258.103455L107.284637,258.294952L108.100807,258.223389C108.325157,258.135712,108.388977,258.019653,108.292923,257.875885L108.173012,257.780487L107.944794,257.684418C107.568298,257.549042,107.24015,257.393036,106.960358,257.217682L106.34726,256.606506C105.963028,256.870178,105.34671,256.970123,104.498306,256.906281C103.601547,256.842468,102.836952,256.3396,102.204514,255.397079C102.108459,255.876083,102.076225,256.29126,102.108459,256.642609C102.180016,257.744385,102.428223,258.718506,102.852425,259.564331C102.980713,259.81189,103.132866,259.971771,103.308861,260.043335L103.585434,260.079437L103.285004,259.241333C103.069038,258.658539,103.009087,258.294952,103.105141,258.151825L103.693741,259.468903C104.141792,260.450775,104.59436,260.973602,105.050804,261.037415L105.18232,261.01358L105.230667,260.989716L104.761978,259.731934C104.458336,258.901581,104.386131,258.442566,104.546013,258.354889L105.050804,259.48053C105.395065,260.334717,105.623283,260.853699,105.73481,261.037415L106.239601,261.720154C106.287308,261.727905,106.315674,261.763977,106.32341,261.82782C106.50779,262.003174,106.656067,262.059265,106.767601,261.995422C106.904274,261.907745,106.835938,261.42038,106.563881,260.534576L106.503922,260.330872L106.107437,258.977661L105.891472,258.151825L105.891472,258.019653zM108.281319,225.485626C107.968643,225.621002,107.640503,225.932388,107.296242,226.419128C107.048035,226.770477,106.835938,227.145691,106.659935,227.544754C106.34726,228.247452,106.287308,229.165482,106.479424,230.298843C106.575485,230.866165,106.703773,231.364502,106.864304,231.795807C107.008064,231.109207,107.320091,230.538666,107.801025,230.083511C108.049232,229.844345,108.365128,229.588394,108.749359,229.316986L108.089203,228.694229C107.848732,228.39122,107.744942,228.127548,107.776535,227.90448C107.824883,227.584717,107.937057,227.313309,108.113052,227.09024C108.352875,226.786606,108.685539,226.635101,109.109741,226.635101L109.374062,226.658951C109.54232,226.6828,109.818245,226.78273,110.202484,226.958084C110.571243,227.117966,110.814934,227.197906,110.935486,227.197906L111.00705,227.185654C111.063133,227.177917,111.331322,226.910385,111.812256,226.383667C112.276428,225.88855,112.652931,225.640991,112.941101,225.640991L113.133217,225.677094L113.949387,226.179947L114.441933,226.47908C114.594078,226.566757,114.718498,226.611252,114.81456,226.611252L114.958321,226.586746L115.2826,226.419128C115.434746,226.339828,115.546921,226.287613,115.619125,226.263763L115.919548,226.191559C116.07943,226.191559,116.263809,226.251511,116.472046,226.371429C116.631927,226.459106,116.896248,226.734375,117.264359,227.197906L117.852959,227.916092C118.17337,228.195877,118.493134,228.335129,118.813538,228.335129C119.037888,228.335129,119.226135,228.26358,119.378281,228.119812C119.674194,227.840012,119.874695,227.47319,119.978485,227.018036C120.082924,226.571274,120.070679,226.176086,119.942383,225.832458C119.846329,225.569427,119.694183,225.333481,119.485947,225.125885C119.518181,225.429535,119.434372,225.657104,119.233871,225.808609C119.009521,225.984604,118.757454,226.072281,118.477661,226.072281C118.068932,226.072281,117.720795,225.908539,117.432625,225.581039C116.711868,224.750687,116.215462,224.303909,115.943405,224.240097L115.666832,224.203995L115.090485,224.311646L114.610191,224.431564C114.49028,224.431564,114.385841,224.387726,114.298164,224.300049L113.877831,223.713379C113.452988,223.066772,113.149338,222.72702,112.964958,222.695419L112.892754,222.695419C112.660667,222.695419,112.37249,222.810822,112.028229,223.042908L111.703949,223.294342L111.343575,223.497421L110.274689,223.773346C109.802132,223.837158,109.374062,224.120178,108.98983,224.623032C108.565628,225.181976,108.329025,225.469513,108.281319,225.485626zM122.224571,250.188675L122.200073,250.092606C122.016335,249.206818,121.739769,248.220444,121.371651,247.134796C120.795303,245.41864,120.110649,243.830139,119.318329,242.369278C119.061745,241.890289,118.729729,241.38356,118.320999,240.848465L118.29715,240.944534C118.177238,241.567291,117.588638,242.061768,116.531998,242.429245C116.5075,242.58847,116.588089,243.123566,116.77182,244.033859C116.988434,245.071152,117.099968,245.817703,117.108345,246.272858C117.116081,247.318527,117.032272,248.755539,116.856277,250.583862C116.760216,251.597305,116.724113,252.196213,116.747971,252.379959C117.524811,252.339981,118.105034,252.116272,118.489265,251.709488L118.513115,251.146667C118.545349,250.587738,118.701363,249.705795,118.981804,248.500244L119.353783,247.003281L119.666458,245.530823L119.942383,246.500427L119.462097,248.476379C119.262238,249.274506,119.125565,249.928864,119.054008,250.440094C118.957947,251.070602,118.929581,251.793289,118.969551,252.607529L118.969551,252.46376L119.065613,252.726791C119.362167,252.855087,119.874695,252.826721,120.603188,252.64299C121.083473,252.531464,121.491562,252.212341,121.828087,251.685623C122.020203,251.389709,122.16848,251.066727,122.272278,250.715378C122.304512,250.611588,122.288391,250.436234,122.224571,250.188675zM108.773216,238.837051C108.461182,239.411469,108.50116,239.998138,108.893768,240.597046C109.221916,241.092163,109.726059,241.531189,110.406845,241.914139C111.079254,242.297729,111.727806,242.509186,112.352509,242.549149C112.96109,242.612976,113.305351,243.70636,113.385292,245.829956C113.432999,247.050995,113.397537,248.408051,113.276985,249.901138C113.157074,251.314285,113.012665,252.280029,112.845047,252.798996C112.740608,253.126495,112.612312,253.289612,112.460815,253.289612L112.424713,253.289612C110.502907,253.194183,108.997566,252.826721,107.908691,252.188477C107.620514,252.826721,107.356194,253.505569,107.116371,254.223755C108.27681,255.054108,109.958786,255.540848,112.160385,255.684616C113.321465,255.764557,114.45031,255.653015,115.546921,255.349365C116.715736,255.01413,117.720795,254.491302,118.56147,253.780853L118.489265,252.35611C118.025093,252.682953,117.412636,252.850571,116.651909,252.858963L116.639664,252.858963C116.551987,252.858963,116.472046,252.822845,116.399841,252.751297C116.30378,252.647507,116.2593,252.436035,116.267677,252.116272L116.387589,250.535507C116.555855,248.803238,116.635796,247.382355,116.628059,246.272858C116.619675,245.897644,116.512016,245.183334,116.30378,244.129272L116.051712,242.632965C116.027214,242.305466,116.095551,242.09787,116.255432,242.010193L116.30378,241.99794C117.232124,241.678833,117.740784,241.295242,117.829109,240.848465C117.885193,240.584793,117.796875,240.301773,117.564789,239.998138L117.204407,239.662903C116.860146,239.87886,116.459793,240.066467,116.003357,240.225708C115.787384,240.656998,115.463112,240.984497,115.030525,241.207565C114.63018,241.415146,114.169876,241.518951,113.649612,241.518951C112.640678,241.518951,111.723938,241.199829,110.899384,240.560944C110.010361,239.874359,109.573914,239.056244,109.590027,238.106628L108.773216,238.837051zM106.359512,241.507339C105.430519,242.768341,104.674301,244.213089,104.089577,245.841553C103.520966,247.438446,103.08902,249.158463,102.792473,251.002914C102.608734,252.144653,102.492691,253.185806,102.444336,254.128342L102.432091,254.236008C102.416618,254.491302,102.432091,254.666656,102.480438,254.762711C102.61647,255.06636,102.816971,255.361618,103.080643,255.649155C103.505493,256.11203,103.961929,256.359589,104.449951,256.391174C105.210686,256.455017,105.719337,256.39505,105.975281,256.211975C106.055222,255.716843,106.18351,255.154037,106.359512,254.523529C107.224037,252.223938,108.417351,250.160309,109.938156,248.332626L110.190872,248.547943C109.357941,249.609741,108.693275,250.627701,108.196869,251.601822L108.113052,251.757187C109.138107,252.347717,110.546745,252.695206,112.340256,252.798996C112.59684,252.303879,112.776711,250.843018,112.881149,248.416428C112.98494,245.837692,112.868896,244.145386,112.532372,243.338898C112.444695,243.147415,112.368622,243.043625,112.304153,243.028152C111.607895,242.979797,110.891006,242.744492,110.154778,242.321579C109.4179,241.906403,108.865402,241.419022,108.497292,240.860718C108.209114,240.421692,108.064705,239.978149,108.064705,239.531372C107.336212,240.281799,106.767601,240.940018,106.359512,241.507339zM109.397911,227.114105L109.314102,227.101852C108.881523,227.101852,108.589478,227.337158,108.437332,227.808426C108.27681,228.311279,108.517273,228.742569,109.158089,229.101669L109.265755,229.20932C109.305725,229.296997,109.274132,229.369202,109.169693,229.424652C108.66555,229.736038,108.289055,230.003571,108.040848,230.22728C107.416153,230.810074,107.104126,231.484421,107.104126,232.250946C107.368446,231.644302,107.68885,231.12146,108.064705,230.682434C108.529526,230.179581,108.849289,229.89978,109.025932,229.844345L109.121986,229.819839C109.201927,229.819839,109.249634,229.852081,109.265755,229.915894C109.290253,229.979721,109.265755,230.031937,109.19355,230.071274L108.893768,230.311096L108.269073,230.885513C107.908691,231.229126,107.528328,231.799667,107.127975,232.598434L107.187935,232.873718C107.460632,232.258682,107.801025,231.751968,108.209114,231.352905C108.513405,231.049255,108.777725,230.857788,109.001434,230.777847L109.049782,230.766235C109.129723,230.766235,109.169693,230.810074,109.169693,230.897751C109.169693,230.99382,109.113609,231.073105,109.001434,231.137573L108.413483,231.580475C108.060837,231.939575,107.672737,232.450165,107.248535,233.1129L107.248535,233.125137C107.272385,233.205078,107.276253,233.280518,107.260139,233.352722L107.668869,233.268906L107.608269,233.424271C107.040298,233.855576,106.892021,234.398392,107.164078,235.05275C107.436134,235.691635,107.91256,236.010757,108.593346,236.010757L108.785461,235.999146C109.490105,237.276276,110.366875,238.258133,111.415779,238.944717C111.527954,239.008545,111.579529,239.064636,111.571793,239.112335C111.564056,239.152298,111.507965,239.172287,111.403526,239.172287C111.075386,239.172287,110.687286,239.016281,110.238586,238.704895C110.303055,239.296066,110.715004,239.830505,111.475731,240.309509C112.180374,240.756927,112.868896,240.97998,113.541306,240.97998C113.86171,240.97998,114.10154,240.920685,114.262062,240.800766L114.20211,240.812378L113.409142,240.644745C113.048767,240.533218,112.881149,240.445541,112.904999,240.381714L112.964958,240.357864L113.745667,240.429428C114.418076,240.429428,115.158821,240.254074,115.967255,239.902725C117.440361,239.256104,118.533104,238.122101,119.246124,236.501999C119.92627,234.95282,120.102913,233.356583,119.774124,231.71199C119.566536,230.69017,119.153931,229.664474,118.537613,228.634918C118.193352,228.578827,117.876816,228.41507,117.588638,228.143661L116.988434,227.400986C116.628059,226.946487,116.38372,226.6828,116.255432,226.611252L116.01561,226.551285C115.782875,226.551285,115.510818,226.650574,115.198792,226.850418L114.742355,226.946487C114.486412,226.946487,114.146019,226.830444,113.721817,226.598999C113.537437,226.502945,113.341454,226.455231,113.133217,226.455231C112.588463,226.455231,112.088188,226.718903,111.631744,227.245621C111.49572,227.405502,111.31134,227.484787,111.079254,227.484787C110.910988,227.484787,110.698891,227.437088,110.442947,227.341675C110.178627,227.245621,109.830498,227.16954,109.397911,227.114105zM108.461182,233.232803C108.469566,233.1129,108.529526,232.993622,108.641701,232.873718L108.929871,232.646149L109.001434,232.622284C109.065903,232.622284,109.105873,232.657745,109.121986,232.72995C109.145844,232.801514,109.129723,232.857605,109.073639,232.897568L108.905373,233.029083L108.737755,233.292755C108.721642,233.380432,108.673286,233.424271,108.593346,233.424271C108.497292,233.424271,108.453445,233.360458,108.461182,233.232803zM108.977577,231.71199L109.01368,231.71199C109.085884,231.71199,109.133591,231.748093,109.158089,231.819656C109.181946,231.891861,109.145844,231.959549,109.049782,232.023376L108.5811,232.334763L108.256821,232.682251L108.016998,232.90918L107.968643,232.861465C107.953171,232.797638,107.993149,232.689987,108.089203,232.538483L108.388977,232.131042C108.54113,231.963425,108.737755,231.823517,108.977577,231.71199zM116.423691,237.53157C116.495895,237.539307,116.535866,237.55928,116.543602,237.591522L116.447548,237.675323L116.051712,237.890656L115.727432,237.950607L115.318703,237.890656L115.150436,237.771393C115.10273,237.715302,115.086617,237.65535,115.10273,237.591522C115.126587,237.471619,115.214905,237.411652,115.36705,237.411652L115.414757,237.411652L116.423691,237.53157zM117.072243,228.957901L117.108345,228.718719C117.132202,228.598816,117.192154,228.538849,117.288216,228.538849L117.408768,228.574951L118.333252,229.149368L118.429306,229.257034L118.309395,229.293137L117.324318,229.257034C117.244377,229.249298,117.176041,229.217712,117.119949,229.161621C117.072243,229.10553,117.056129,229.037842,117.072243,228.957901zM112.352509,229.245422L111.847717,229.532959L111.487984,229.700577C111.431892,229.500717,111.571793,229.213196,111.908318,228.837982L112.436317,228.335129L112.55687,228.299026C112.644547,228.299026,112.709015,228.339005,112.748985,228.418945L112.916603,228.646515C113.028778,228.806396,113.068748,228.910187,113.037163,228.957901L112.808945,229.053955L112.352509,229.245422zM112.443794,228.820511L112.564743,228.769684L112.53688,228.731873L112.443794,228.820511zM112.820549,232.09494C112.700638,232.09494,112.59684,232.01564,112.508522,231.855759C112.420197,231.704254,112.37249,231.516647,112.364113,231.292953C112.34864,231.077621,112.384743,230.885513,112.47242,230.717896C112.552361,230.558655,112.652931,230.474838,112.772842,230.466461L112.784447,230.466461C112.904999,230.466461,113.008797,230.546402,113.097115,230.706284C113.184792,230.857788,113.233147,231.045395,113.240883,231.269089C113.24926,231.492798,113.20929,231.684265,113.120972,231.843506C113.041031,232.003387,112.941101,232.087204,112.820549,232.09494zM112.754456,230.964676L112.731049,231.053543L112.719162,231.154617L112.720657,231.275574L112.731613,231.404984L112.752289,231.512009L112.781189,231.600983L112.811569,231.663223L112.842636,231.594925L112.867874,231.505951L112.882156,231.403275L112.884323,231.280151L112.874039,231.157364L112.853256,231.049194L112.824356,230.960449L112.788383,230.886093L112.754456,230.964676zM117.852959,230.490967C117.97287,230.490967,118.077309,230.570251,118.164986,230.730133C118.253311,230.881638,118.301018,231.069244,118.309395,231.292953C118.317131,231.524384,118.281029,231.719727,118.201088,231.879608C118.121147,232.03949,118.021225,232.119431,117.900665,232.119431L117.889061,232.119431C117.768509,232.119431,117.664711,232.043365,117.576385,231.891861C117.488708,231.731979,117.440361,231.540512,117.432625,231.316803C117.42424,231.093094,117.460342,230.901627,117.540283,230.742386C117.620872,230.582504,117.72467,230.498703,117.852959,230.490967zM115.943405,231.688141L116.5075,232.466278L116.89238,232.945282C116.988434,233.057449,116.992302,233.185104,116.903984,233.328857L116.375343,234.118607C116.287666,234.214661,116.179359,234.262375,116.051712,234.262375L115.787384,234.190811L115.666832,234.094757C115.65136,234.047043,115.662964,233.995468,115.702934,233.939377L116.147766,233.352722C116.235443,233.225067,116.243828,233.089035,116.171623,232.945282L115.666832,231.987274C115.46698,231.60434,115.307098,231.201401,115.186539,230.777847C115.146568,230.626343,115.162689,230.542542,115.234894,230.526413L115.258743,230.526413C115.338684,230.526413,115.407028,230.594757,115.463112,230.730133L115.943405,231.688141zM116.576355,233.150208L116.574524,233.180359L116.597137,233.146667L116.576004,233.12027L116.576355,233.150208zM117.432625,235.447937L118.068932,235.328033L118.224945,235.23262C118.273293,235.176529,118.293282,235.116577,118.284897,235.05275L118.284897,234.885132C118.269424,234.805191,118.284897,234.765228,118.333252,234.765228L118.417061,234.82518L118.861893,235.364136C118.957947,235.491791,118.965683,235.623947,118.885742,235.759323L118.369354,236.549713L118.29715,236.621277L118.249443,236.513611L118.249443,236.394348C118.264915,236.274429,118.213341,236.214478,118.092781,236.214478L118.032829,236.214478L117.264359,236.657379C116.655777,236.952637,116.107155,237.104782,115.619125,237.112518L115.606873,237.112518C115.118851,237.112518,114.470299,236.881073,113.661217,236.418198L112.604576,235.723221L112.508522,235.711624C112.396347,235.711624,112.312538,235.751587,112.256447,235.831528L112.244202,236.382095L112.14814,236.453659L112.064331,236.345993L111.847717,235.25647C111.823868,235.104965,111.876083,234.985062,112.004379,234.897385L113.204781,234.047043L113.28923,234.023193C113.336937,234.023193,113.34919,234.063156,113.325333,234.143097L113.169319,234.526047C113.144821,234.582138,113.160942,234.64595,113.217026,234.717514L113.397537,234.84903C114.494148,235.25647,115.310966,235.487915,115.847343,235.544006L116.183228,235.567856L117.432625,235.447937zM112.200287,235.196609L112.20108,235.204834L112.241173,235.406189L112.250534,235.402771L112.250427,235.40242L112.245857,235.364395L112.243683,235.330475L112.243225,235.294373L112.247574,235.250854L112.252937,235.217621L112.260475,235.182327L112.273041,235.144073L112.217758,235.183243L112.200287,235.196609zM118.320999,235.759323C118.353233,235.623947,118.284897,235.555603,118.117279,235.555603L118.081177,235.555603L117.42038,235.675522L116.075562,235.783173L115.739037,235.771576C115.106598,235.723221,114.289787,235.495651,113.28923,235.088852L113.012665,235.041153C112.901131,235.041153,112.796692,235.076599,112.700638,235.148804C112.59684,235.228745,112.572342,235.316422,112.628433,235.411835L112.832794,235.579468C113.71344,236.05072,114.318153,236.342117,114.646294,236.453659L115.847343,236.609665L116.603561,236.525864L118.092781,236.010757C118.19722,236.003021,118.273293,235.919205,118.320999,235.759323zM106.948105,254.774963L106.599976,256.128143C106.783714,256.431152,106.991951,256.662598,107.224037,256.822479C107.480621,256.98172,107.776535,257.121613,108.113052,257.241516L108.521141,257.420746C108.657173,257.509064,108.737755,257.628326,108.761612,257.780487C108.801582,257.971954,108.753227,258.139587,108.617203,258.283325C108.337402,258.602448,107.804893,258.710114,107.020317,258.606323L106.491669,258.522522L106.960358,260.187103L107.020317,260.390808C107.196312,260.933624,107.296242,261.328827,107.320091,261.576385C107.352325,261.991577,107.248535,262.266846,107.008064,262.402222L106.371765,262.438324C106.531647,265.200165,106.848183,267.918793,107.320091,270.592957L107.500603,271.239563C107.58828,271.550964,107.624382,271.790131,107.608269,271.957764C108.185257,272.628235,108.845421,273.08725,109.590027,273.334808C110.422966,273.614594,111.211411,273.574615,111.956024,273.215546C112.436317,271.770142,112.885017,270.0224,113.301483,267.970367C114.149887,263.755432,114.32589,260.111023,113.829483,257.037811C113.813362,256.910156,113.881699,256.798615,114.033844,256.702576C114.193726,256.614899,114.285919,256.646484,114.309769,256.798615C114.726234,259.360596,114.674019,262.330658,114.153755,265.70752C116.675766,265.715271,118.244926,264.318237,118.861893,261.516418C119.318329,259.456665,119.242256,257.033936,118.633675,254.247604C118.177238,254.615082,117.536423,254.994156,116.711868,255.385468C115.238762,256.06369,113.589653,256.347351,111.763908,256.235809C109.946541,256.115906,108.341278,255.629166,106.948105,254.774963z"/>
    <path transform="matrix(-1,0,0,1,0,0)" style="stroke:none;fill:#000000;fill-rule:evenodd" d="M117.581726,224.763306L117.554489,224.86937L117.539139,224.993027L117.537292,225.137833L117.549454,225.284622L117.573792,225.412643L117.608574,225.522659L117.648247,225.608231L117.681046,225.528091L117.708153,225.420578L117.724152,225.289917L117.726402,225.139023L117.714233,224.99527L117.6903,224.871887L117.656311,224.76741L117.615051,224.682648L117.581726,224.763306z"/>
    <path transform="matrix(-1,0,0,1,0,0)" style="stroke:none;fill:#000000;fill-rule:evenodd" d="M139.028809,255.033218C138.723511,254.83989,138.423447,254.865265,138.128601,255.10936C137.833008,255.362396,137.874054,255.657242,138.250275,255.991653C138.952682,256.519409,139.553574,257.0979,140.0522,257.727142C141.018845,258.97522,141.289063,260.192688,140.861343,261.379547C140.220154,263.135193,138.667526,264.30188,136.204254,264.880371C134.952454,265.1745,133.705872,265.30661,132.463791,265.276001C129.063705,265.823914,126.616096,267.665405,125.119461,270.801239C123.399643,271.572327,122.422539,272.794983,122.188156,274.469299C121.373772,274.682007,120.737801,274.971649,120.27948,275.33667L119.103821,274.317017C118.829124,274.164734,118.666397,274.266235,118.615639,274.621552C118.462616,275.899475,118.56488,276.934814,118.920937,277.726044C118.635796,278.588959,118.722382,279.309265,119.180702,279.887756L119.775627,280.785736C120.254105,281.35379,120.743027,281.638184,121.241653,281.638184C121.536499,281.638184,121.862701,281.460541,122.218758,281.105225C122.402382,280.912659,122.630798,280.760376,122.906235,280.648407C123.54744,280.425201,123.990082,280.216949,124.234169,280.024353C124.468559,279.82132,124.748474,279.461548,125.073929,278.944244L125.669594,278.928589L124.676819,279.90271C124.371521,280.227417,124.203568,280.455811,124.172958,280.587952C124.091599,280.902191,123.867661,281.232117,123.50116,281.576996L122.982376,282.003204C122.615868,282.30777,122.402382,282.56604,122.341171,282.77951C122.249359,283.17514,122.518829,283.454315,123.15033,283.616272C123.475777,283.708099,123.831833,283.667053,124.219238,283.494629C124.696976,283.291565,125.007492,282.946716,125.15007,282.460022C125.262032,282.043518,125.704681,281.506073,126.478745,280.846222C127.425247,280.034821,127.995537,279.496643,128.188858,279.233124C128.809906,278.400848,129.333923,277.807404,129.761627,277.452087C130.412537,277.249054,131.21199,276.34137,132.158493,274.72757C132.575745,274.961182,133.293091,274.75293,134.311249,274.103516C135.196533,273.454102,135.6138,273.185394,135.563049,273.297363C134.800171,273.997528,134.417999,274.499878,134.417999,274.803711C134.417999,274.986572,134.504578,275.138855,134.67775,275.260529C135.136078,275.595673,135.593658,275.570313,136.051971,275.184387C136.32666,274.94104,137.135818,273.753448,138.479431,271.623077C138.652603,271.338684,138.774277,271.059509,138.845932,270.785553C138.968353,270.34964,138.922073,270.045074,138.708588,269.87265C138.515259,269.710663,137.990509,269.806946,137.135818,270.16153C136.331894,270.496674,135.92955,270.638489,135.92955,270.587738C136.102722,270.070465,136.178864,269.53302,136.158707,268.97467C136.128113,267.868439,135.6138,267.041351,134.616547,266.493469C135.583954,266.442719,136.570755,266.265808,137.578461,265.961243C139.584167,265.362579,141.018845,264.169769,141.883987,262.384247C142.525192,260.74057,142.383362,259.127502,141.457016,257.544281C140.805359,256.438049,139.996216,255.601257,139.028809,255.033218zM122.570335,278.806915L122.72261,278.868103L122.814423,278.868103L122.783821,278.959167C122.742767,279.151764,122.600189,279.329407,122.356102,279.492157C122.152321,279.633972,121.969437,279.704895,121.806717,279.704895L121.714905,279.704895L121.669373,279.689941L121.653694,279.643677C121.592484,279.36972,121.648468,279.121155,121.82164,278.89798L121.882858,278.821838L122.142616,279.171936L122.478523,278.806915L122.524055,278.776306L122.570335,278.806915zM120.080925,279.704895L120.020462,279.704895C119.827133,279.704895,119.618118,279.608582,119.394188,279.416016C119.200859,279.253296,119.068733,279.075623,118.997078,278.883057L118.982147,278.821838L119.027679,278.791992L119.318054,278.654633L119.348656,278.700165L119.623352,279.095795L119.92865,278.776306L119.974182,278.868103C120.107048,279.101013,120.147354,279.360016,120.096596,279.643677L120.080925,279.704895zM124.676819,274.210266L124.738022,274.195343L124.768631,274.255798C125.155289,275.077637,125.226952,275.955475,124.982117,276.889282L124.891052,276.965424C124.829842,276.965424,124.799232,276.929596,124.799232,276.858673C124.768631,276.077148,124.64621,275.432953,124.432724,274.926117C124.16774,275.108246,123.791527,275.326202,123.302605,275.580017C122.895782,275.783051,122.615868,275.950256,122.462845,276.082367L122.402382,276.143585L122.356102,276.067444C122.294891,275.996521,122.26429,275.930084,122.26429,275.869629L122.26429,275.83902L122.294891,275.808411C123.51683,274.794006,124.31031,274.261017,124.676819,274.210266z"/>
</svg>
