<?xml version="1.0" encoding="UTF-8"?>
<svg xmlns="http://www.w3.org/2000/svg" xmlns:xlink="http://www.w3.org/1999/xlink" width="45.386mm" height="59.718mm" viewBox="-428.446411 58.460419 45.386230 59.718018">
    <path transform="matrix(-1,0,0,1,0,0)" style="stroke:none;fill:#000000;fill-rule:evenodd" d="M403.911987,58.466278L403.988892,58.471649L404.034302,58.478485L404.149536,58.499481L404.224731,58.517303L404.265259,58.530243L404.390503,58.574188L404.477173,58.610565L404.611938,58.67746L404.674438,58.712372L404.819458,58.802216L404.86731,58.834442L405.021851,58.947235L405.057495,58.974823L405.222046,59.110565L405.250122,59.134979L405.424438,59.293671L405.445923,59.313934L405.630249,59.495331L405.64856,59.51413L405.842651,59.718719L405.857056,59.734344L406.061157,59.961884L406.073608,59.9758L406.287476,60.226288L406.297485,60.238495L406.521362,60.511932L406.530151,60.522919L406.763794,60.819305L406.771362,60.829071L407.014771,61.148407L407.021118,61.156952L407.274536,61.499237L407.280396,61.50705L407.543579,61.872284L407.546997,61.877167L407.77356,62.196503L407.98938,62.492157L408.186157,62.751923L408.359741,62.971161L408.519409,63.162079L408.662476,63.322479L408.698364,63.3591L410.485474,63.419891L410.815552,63.302216L410.846069,63.292206L411.287476,63.155487L411.323608,63.145233L411.739868,63.038544L411.782104,63.028778L412.173218,62.951874L412.222778,62.943817L412.588745,62.896698L412.647339,62.891571L412.987915,62.874237L413.057495,62.873749L413.372925,62.886444L413.451782,62.893768L413.742065,62.936005L413.820923,62.951874L413.988403,62.994598L414.070679,63.020477L414.256958,63.091278L414.31604,63.116913L414.521362,63.215546L414.566528,63.238983L414.790649,63.365692L414.824341,63.385956L415.067505,63.540497L415.095337,63.558807L415.357056,63.741669L415.377808,63.75705L415.658569,63.967743L415.675903,63.980927L415.975464,64.219452L415.990112,64.231415L416.308716,64.49826L416.320923,64.508759L416.658081,64.803436L416.668335,64.812469L417.024536,65.135223L417.033325,65.14328L417.408325,65.493866L417.415894,65.50119L417.809937,65.879852L417.816528,65.886444L418.22937,66.293182L418.235474,66.299042L418.667114,66.733856L418.672241,66.739227L419.111694,67.190643L419.390991,67.455536L419.670044,67.680145L419.952759,67.870331L420.244995,68.030731L420.546997,68.161835L420.857544,68.263885L421.184448,68.339081L421.512085,68.383759L421.838501,68.391815L422.160034,68.369598L422.463257,68.318817L422.752319,68.238983L423.034058,68.12912L423.303589,67.990692L423.568726,67.818817L423.82019,67.619354L423.959106,67.482635L424.067261,67.342499L424.154663,67.189667L424.224487,67.016327L424.275513,66.821014L424.306274,66.597626L424.314331,66.342255L424.294312,66.027313L424.293335,65.950165L424.300171,65.87326L424.314819,65.797577L424.337036,65.723602L424.366333,65.652313L424.402954,65.584442L424.446167,65.520721L424.495728,65.461395L424.550903,65.407684L424.611206,65.359589L424.676147,65.317841L424.744995,65.282928L424.817017,65.255341L424.891479,65.234833L424.967407,65.222137L425.044312,65.217255L425.12146,65.220184L425.197876,65.230682L425.272827,65.248993L425.345581,65.274872L425.415161,65.307831L425.481323,65.347626L425.542847,65.394012L425.573608,65.421112L425.816284,65.646698L425.847534,65.67746L426.076782,65.916473L426.105103,65.947723L426.321167,66.199677L426.347778,66.232391L426.550903,66.497528L426.575562,66.531708L426.765259,66.810028L426.787231,66.844208L426.963745,67.135468L426.983276,67.169891L427.146851,67.474335L427.164429,67.509003L427.314575,67.826385L427.338257,67.881805L427.49353,68.290741L427.514282,68.353729L427.634644,68.779022L427.649536,68.841522L427.735229,69.283905L427.744507,69.344696L427.795532,69.803436L427.799683,69.861542L427.81604,70.336884L427.81604,70.391815L427.797485,70.884003L427.793823,70.934784L427.740356,71.443573L427.734009,71.489716L427.646118,72.01535L427.63855,72.054657L427.518677,72.595184L427.506958,72.641327L427.358276,73.156708L427.342896,73.204315L427.165649,73.695038L427.145386,73.745087L426.939087,74.210419L426.914917,74.259979L426.680054,74.700653L426.651001,74.750458L426.526001,74.947479L426.564331,74.95163L426.658325,74.97287L426.812134,75.018036L426.885132,75.043671L426.954956,75.076141L427.022827,75.116913L427.168335,75.214813L427.230103,75.2612L427.305542,75.333221L427.442749,75.483368L427.491821,75.542694L427.523804,75.589081L427.652466,75.791962L427.680542,75.840302L427.803589,76.070038L427.839722,76.147919L427.939819,76.399139L427.96521,76.473846L428.042358,76.746796L428.058472,76.815399L428.112915,77.109589L428.121948,77.172577L428.153442,77.488495L428.15686,77.543671L428.165894,77.880829L428.165649,77.930878L428.151733,78.289764L428.148804,78.33371L428.111938,78.714081L428.105835,78.760223L428.064819,79.01828L428.053589,79.075409L427.987183,79.353729L427.974487,79.40036L427.882935,79.698944L427.869751,79.738007L427.752808,80.056854L427.740356,80.088348L427.598511,80.42746L427.586548,80.455048L427.419312,80.814423L427.408081,80.837372L427.215698,81.21701L427.205444,81.236542L426.987915,81.636688L426.947632,81.702362L426.901001,81.763885L426.848511,81.820282L426.790405,81.871063L426.727417,81.915741L426.660278,81.953583L426.589722,81.984833L426.516479,82.008514L426.44104,82.024872L426.36438,82.033173L426.287231,82.034149L426.210327,82.027069L426.134644,82.012177L426.060913,81.989716L426.01355,81.970184L426.219116,82.433563L426.225708,82.448944L426.47644,83.049774L426.483032,83.065643L426.717407,83.665009L426.723755,83.681854L426.941528,84.279755L426.947388,84.296844L427.14856,84.89328L427.154419,84.910858L427.339233,85.505829L427.34436,85.523651L427.512817,86.116913L427.517944,86.135956L427.6698,86.727997L427.673462,86.742645L427.836304,87.43454L427.840942,87.455536L427.983765,88.149628L427.987671,88.170135L428.110962,88.865692L428.11438,88.887177L428.217651,89.584686L428.220581,89.605682L428.304321,90.304901L428.306519,90.32663L428.370239,91.027802L428.371948,91.048798L428.416138,91.751678L428.417114,91.773407L428.441284,92.477997L428.441772,92.499237L428.446411,93.20578L428.446167,93.227264L428.430786,93.935516L428.430054,93.956268L428.395142,94.666229L428.393921,94.687469L428.338989,95.399384L428.337036,95.420135L428.262329,96.133759L428.259888,96.154022L428.165649,96.869354L428.16272,96.889618L428.048462,97.606903L428.045044,97.626678L427.911011,98.345673L427.906372,98.369354L427.748657,99.088104L427.743774,99.108368L427.568237,99.815399L427.562866,99.835907L427.369507,100.531464L427.363403,100.55246L427.151978,101.236298L427.145142,101.25705L426.915894,101.929413L426.908325,101.950653L426.661011,102.611298L426.65271,102.632538L426.387329,103.281708L426.378296,103.302704L426.095093,103.940155L426.085327,103.961395L425.784058,104.587128L425.773804,104.60788L425.454712,105.222137L425.443481,105.242889L425.106323,105.845673L425.09436,105.86618L424.739136,106.457245L424.726685,106.477264L424.353638,107.05661L424.340698,107.076141L423.949829,107.644012L423.936157,107.6633L423.527222,108.219452L423.512817,108.238251L423.085815,108.782684L423.06189,108.811737L422.615112,109.326874L422.599731,109.344208L422.140991,109.841766L422.124634,109.858856L421.654175,110.338348L421.637085,110.355194L421.154419,110.817108L421.136597,110.833466L420.641968,111.277557L420.623413,111.293915L420.116821,111.71994L420.097778,111.735321L419.578979,112.143768L419.55896,112.159149L419.028198,112.549286L419.00769,112.56369L418.344116,113.018768L418.321899,113.033417L417.672974,113.44577L417.647827,113.461151L417.013062,113.83078L416.984985,113.846405L416.364868,114.173553L416.339478,114.186249L415.839478,114.426483L415.825806,114.432831L415.331665,114.658417L415.317017,114.665009L414.828979,114.875458L414.814087,114.881805L414.332153,115.077606L414.315552,115.083954L413.839478,115.264618L413.822876,115.270721L413.352661,115.436737L413.334595,115.442841L412.870483,115.593719L412.852173,115.599579L412.394165,115.735809L412.373901,115.741425L411.921753,115.862518L411.901489,115.867645L411.4552,115.974091L411.433228,115.978973L411.192505,116.029022L411.235718,116.064667L411.289917,116.119598L411.338013,116.179901L411.380005,116.244598L411.415405,116.313202L411.443481,116.384979L411.463989,116.459198L411.477173,116.53537L411.482544,116.612274L411.479858,116.689423L411.469604,116.765839L411.451782,116.84079L411.426392,116.913544L411.393677,116.983368L411.354126,117.049774L411.307983,117.111542L411.255981,117.168427L411.198364,117.219696L411.142212,117.260956L410.834839,117.465057L410.769897,117.503632L410.441772,117.67746L410.374634,117.708954L410.025757,117.852264L409.958862,117.87619L409.589478,117.988983L409.524536,118.005829L409.134644,118.088348L409.07312,118.098602L408.662231,118.150848L408.603882,118.155975L408.172729,118.17746L408.120483,118.178436L407.668335,118.169891L407.619995,118.16745L407.147339,118.128387L407.103638,118.123505L406.610474,118.053925L406.571655,118.047333L406.057739,117.947479L406.022827,117.939911L405.488159,117.809784L405.456421,117.801239L404.901245,117.640594L404.873169,117.631805L404.297241,117.440643L404.272339,117.432098L403.675659,117.210907L403.652954,117.201874L403.035522,116.950165L403.015747,116.941864L402.387085,116.664764L402.362183,116.65329L401.769409,116.365936L401.74231,116.35202L401.185425,116.054169L401.15686,116.038055L400.63562,115.729706L400.605347,115.710907L400.120239,115.392303L400.088013,115.369843L399.639038,115.040741L399.605835,115.015106L399.192505,114.675507L399.158081,114.645233L398.780884,114.29538L398.745972,114.260956L398.404419,113.900604L398.369263,113.860809L398.063843,113.48996L398.029907,113.445526L397.760376,113.064423L397.727661,113.014374L397.494263,112.622528L397.46521,112.568817L397.267456,112.166718L397.241821,112.108368L397.0802,111.69577L397.059204,111.634979L396.933472,111.211884L396.917847,111.149628L396.828003,110.716278L396.81604,110.639862L396.812134,110.562958L396.815796,110.485809L396.827271,110.409637L396.846558,110.33493L396.873169,110.262421L396.907104,110.193329L396.947632,110.127655L396.994751,110.06662L397.047729,110.010468L397.106079,109.960175L397.169312,109.915985L397.236694,109.878387L397.307495,109.847626L397.380981,109.824432L397.456421,109.808563L397.533081,109.800507L397.610229,109.800262L397.687134,109.807831L397.762573,109.823212L397.836304,109.846161L397.907349,109.87619L397.958618,109.903778L398.430786,110.179901L398.885132,110.419159L398.972046,110.459442L398.413208,110.034393L398.393433,110.019012L397.799194,109.535614L397.780151,109.519745L397.197876,109.013641L397.180054,108.997528L396.609253,108.468964L396.592163,108.452362L396.033081,107.901093L396.016479,107.884491L395.469116,107.310516L395.453735,107.293915L394.917847,106.697235L394.902954,106.680145L394.379028,106.061005L394.365356,106.044159L393.852905,105.402313L393.839722,105.385468L393.338989,104.720917L393.326782,104.704315L392.837769,104.017303L392.826294,104.000702L392.348755,103.290985L392.338013,103.274628L392.132446,102.951385L391.7323,102.978973L391.678345,102.980682L391.28064,102.97995L391.223755,102.977753L390.839722,102.948212L390.779175,102.941132L390.408569,102.882538L390.346313,102.870087L389.989136,102.782684L389.926147,102.764374L389.582642,102.648163L389.520142,102.623749L389.189819,102.478485L389.129272,102.4487L388.812622,102.274628L388.755737,102.23996L388.452515,102.036835L388.400269,101.998505L388.110718,101.766571L388.064087,101.726044L387.78772,101.465302L387.746216,101.422821L387.483521,101.133026L387.447632,101.090546L387.198364,100.771698L387.168335,100.730438L386.932495,100.383026L386.906616,100.342255L386.684448,99.96579L386.658813,99.918671L386.465454,99.530975L386.44397,99.483856L386.285278,99.102753L386.265259,99.049286L386.141235,98.674774L386.124146,98.61496L386.03479,98.246796L386.021851,98.180634L385.967407,97.819305L385.960083,97.747772L385.940552,97.393036L385.940063,97.318573L385.954956,96.970184L385.962036,96.892792L386.011841,96.550995L386.026978,96.474579L386.11145,96.139374L386.134155,96.065887L386.253296,95.737274L386.282104,95.668182L386.436157,95.346161L386.46936,95.284393L386.657837,94.968719L386.694702,94.912811L386.918091,94.603973L386.955933,94.555634L387.214233,94.253143L387.252075,94.212128L387.5448,93.916229L387.582153,93.880829L387.590698,93.87326L387.435669,93.836884L387.36145,93.815399L387.289917,93.786591L387.221558,93.750702L387.157349,93.708221L387.097534,93.659393L387.043091,93.604706L386.994507,93.544891L386.952271,93.480438L386.916626,93.412079L386.897095,93.365448L386.781372,93.06076L386.75769,92.987518L386.741577,92.912079L386.733032,92.835419L386.732544,92.75827L386.739624,92.681366L386.741821,92.67038L386.736694,92.66745L386.674194,92.622528L386.616333,92.571503L386.564087,92.514862L386.5177,92.453094L386.477905,92.387177L386.434937,92.291718L386.166138,91.566864L386.142944,91.493378L386.127319,91.417694L386.119507,91.341034L386.119507,91.263885L386.127075,91.187225L386.1427,91.111542L386.155151,91.071991L386.096313,91.022675L386.042358,90.967499L385.994263,90.907196L385.952515,90.842499L385.917358,90.773651L385.889526,90.701874L385.869263,90.627411L385.856323,90.551483L385.851196,90.4758L385.843628,90.029999L385.844116,89.989716L385.850464,89.812225L385.846802,89.812714L385.769653,89.812714L385.692993,89.804901L385.617554,89.78952L385.543823,89.766327L385.473022,89.735809L385.40564,89.698456L385.342163,89.65451L385.283569,89.604218L385.230591,89.548309L385.183228,89.487274L385.142456,89.421844L385.10144,89.336151L384.894165,88.821014L384.887573,88.803436L384.687378,88.268036L384.681274,88.25119L384.488159,87.695282L384.482544,87.679169L384.296753,87.102997L384.292114,87.087372L384.113647,86.490692L384.109253,86.476044L383.93811,85.8591L383.934448,85.845428L383.770386,85.208221L383.767212,85.195038L383.610474,84.537567L383.604614,84.510468L383.470581,83.841522L383.467163,83.8237L383.352417,83.17038L383.349243,83.150848L383.254272,82.513397L383.251587,82.493134L383.175903,81.871307L383.173462,81.849579L383.11731,81.243622L383.115601,81.220917L383.078735,80.630829L383.077515,80.605927L383.060425,80.031708L383.060181,80.006073L383.062378,79.447479L383.062866,79.419891L383.084595,78.877167L383.086304,78.848114L383.127563,78.321259L383.130737,78.291229L383.191284,77.780243L383.195679,77.747772L383.276001,77.252411L383.282104,77.219452L383.381714,76.73996L383.389771,76.70578L383.508667,76.241913L383.518677,76.20578L383.657349,75.757782L383.6698,75.721405L383.827759,75.289276L383.838501,75.2612L384.22644,74.317596L384.242065,74.282684L384.677856,73.35788L384.694946,73.3237L385.178833,72.417694L385.197388,72.384735L385.72937,71.497772L385.748657,71.467499L386.130493,70.893768L386.149292,70.866669L386.528931,70.346649L386.55188,70.31662L386.929321,69.850067L386.957642,69.817108L387.332397,69.404266L387.367798,69.367889L387.740356,69.008759L387.784058,68.969696L388.154175,68.664032L388.208618,68.623016L388.576294,68.371063L388.643188,68.330048L388.862671,68.210907L390.901733,65.493866L391.115601,65.192841L391.13147,65.171356L391.353149,64.881561L391.37146,64.858368L391.597534,64.585419L391.617798,64.561981L391.848022,64.305878L391.869751,64.282684L392.104126,64.042938L392.129028,64.018524L392.367554,63.795868L392.393921,63.77243L392.636597,63.566132L392.666626,63.541962L392.913696,63.352509L392.945435,63.329559L393.196655,63.156708L393.231323,63.134247L393.486694,62.978241L393.523315,62.957001L393.782837,62.817596L393.822144,62.798065L394.085815,62.675507L394.126343,62.657928L394.394409,62.551727L394.43811,62.536102L394.710327,62.446991L394.753296,62.434296L395.029663,62.361542L395.074829,62.351044L395.35022,62.296112L395.657349,62.232635L395.989136,62.152313L396.332642,62.059296L396.728149,61.94162L397.149536,61.806854L397.588745,61.657684L398.059204,61.489471L398.542114,61.309052L398.75354,61.207977L398.990112,61.070526L399.239868,60.901337L399.512573,60.692841L400.493774,59.866425L400.527222,59.839813L400.941772,59.528534L400.977661,59.503143L401.377808,59.237274L401.421265,59.210419L401.807007,58.98996L401.859985,58.962616L402.231323,58.787323L402.296021,58.760223L402.652954,58.630341L402.730591,58.606659L403.07312,58.521942L403.165405,58.505096L403.49353,58.46579L403.598267,58.460419L403.911987,58.466278zM425.744324,76.047348C425.208252,76.58065,424.619843,76.949966,423.981812,77.153915C424.90094,78.526436,425.680908,79.898964,426.318939,81.272865C426.93219,80.178703,427.278076,79.302277,427.353851,78.640816C427.482025,77.597641,427.367645,76.784599,427.009338,76.20031C426.677246,75.589836,426.255554,75.538849,425.744324,76.047348zM395.504639,63.042801C393.99707,63.29636,392.66864,64.262367,391.519348,65.940811L389.372375,68.80162C388.402222,69.259132,387.404541,70.288528,386.383392,71.889809C385.642029,73.059761,385.028809,74.280701,384.543732,75.551254C383.649384,77.813995,383.584595,80.750595,384.352173,84.361053C384.760071,86.141479,385.246521,87.705551,385.808777,89.051895C386.191864,86.840141,387.098602,84.971527,388.529022,83.44603L391.4422,80.891151C390.598816,80.331665,389.871216,79.708794,389.257996,79.02253C388.414642,78.081329,388.031555,77.254509,388.10733,76.543442C388.235474,75.399673,388.618591,74.458466,389.257996,73.721222C390.12616,72.653236,391.391205,72.195732,393.051727,72.347313L395.926331,73.26371C397.152771,73.721222,397.95755,73.898987,398.340637,73.797012L401.100861,70.746033C402.659424,68.991791,403.924438,68.305527,404.894592,68.687248L407.539063,70.135559L409.455902,71.166336L410.835327,71.280716L411.870209,70.707451L413.518341,69.945396C414.080597,69.818611,414.783386,69.9702,415.62674,70.402901C416.162811,70.657837,417.057159,71.495689,418.309784,72.920578L420.225281,75.093742C421.094818,75.755203,421.950562,76.149323,422.793945,76.2761C423.739258,76.402878,424.517853,76.149323,425.131073,75.514046C426.025421,74.572845,426.613861,73.364304,426.894958,71.889809C427.176086,70.466293,427.086517,69.220543,426.626251,68.152565C426.243164,67.288536,425.719513,66.56369,425.055298,65.979401C425.157257,66.945404,424.914734,67.682655,424.326294,68.191154C423.509125,68.902222,422.550018,69.220543,421.451721,69.144753C420.353424,69.042778,419.395691,68.572868,418.577148,67.733643C416.124237,65.191162,414.476105,63.843441,413.632721,63.690479C412.892731,63.537518,411.882629,63.702881,410.605194,64.186569L408.382416,64.110779C408.050293,63.831039,407.565216,63.232971,406.925812,62.317951C405.495422,60.308773,404.486694,59.279377,403.898254,59.22839C403.081085,59.152599,402.109589,59.55912,400.985107,60.449333L399.98877,61.288559C399.580872,61.617908,399.196411,61.860443,398.839478,62.012028C397.433899,62.546707,396.321808,62.889839,395.504639,63.042801zM396.539551,74.331688L393.16748,73.797012C391.735718,73.670227,390.765564,74.407486,390.254303,76.008759C389.692078,77.68721,390.509247,79.073517,392.707214,80.166306C392.809204,80.166306,392.923584,80.26828,393.051727,80.470848C393.230865,80.725784,393.153717,80.954544,392.821594,81.158493C391.263031,82.175484,390.087585,83.0905,389.29657,83.903542C387.404541,85.886536,386.511566,88.073486,386.613525,90.463005C387.430725,88.404213,388.376038,86.700958,389.449524,85.353241C390.879944,83.674789,391.863861,82.733589,392.399933,82.531021C392.732025,82.378052,392.975952,82.416641,393.128906,82.645393C393.28186,82.847961,393.230865,83.039513,392.975952,83.217278L392.016815,84.056503L390.13855,85.963715C389.015442,87.132286,387.929565,88.912712,386.88089,91.302231L387.149597,92.027077C387.941956,90.17086,388.899719,88.64537,390.02417,87.450615C390.918518,86.433624,391.735718,85.785942,392.477081,85.506203C392.758209,85.378044,392.937347,85.480019,393.013153,85.810745C393.064148,86.115295,392.898773,86.395035,392.515686,86.649971L390.675995,88.136879C389.90979,88.976105,388.848724,90.527771,387.49411,92.790512L387.609863,93.095062L388.261658,93.248016C388.644775,93.425781,388.69574,93.730331,388.414642,94.16304C386.574951,95.688522,386.216675,97.493759,387.341125,99.578728C388.490417,101.663696,390.215729,102.515327,392.515686,102.133606C394.968567,106.099609,397.918976,109.100967,401.368195,111.134956C402.288727,111.643448,402.211548,111.884613,401.139435,111.858429C400.090759,111.808815,398.902893,111.376114,397.574463,110.561691C397.95755,112.901596,399.87439,114.795029,403.323639,116.24472C406.670898,117.668236,409.1362,117.796387,410.720947,116.626434L408.190857,116.28331C406.887238,115.977386,406.261597,115.711426,406.312592,115.482666L408.726929,115.558456C410.900085,115.507469,413.326813,114.821213,416.009857,113.499664C416.827026,113.091766,417.6828,112.570877,418.577148,111.935593C420.008911,110.918602,421.311157,109.710068,422.486633,108.312729C424.811371,105.439529,426.369934,102.070221,427.162323,98.2062C427.929871,94.366989,427.852722,90.603561,426.93219,86.917313C426.165985,83.764359,424.696991,80.548019,422.525208,77.268288C421.553711,77.166313,420.518799,76.708801,419.420502,75.894386L417.427856,73.606842C416.201385,72.183327,415.384216,71.368904,414.974945,71.166336C414.489868,70.936203,413.81189,71.013374,412.943726,71.395088L411.640076,72.081352C410.900085,72.43689,410.107697,72.538864,409.264343,72.385902C408.651123,72.283928,407.858765,71.991783,406.887238,71.509468L403.629547,71.395088C402.378296,71.826416,401.266205,72.653236,400.296082,73.872803C399.554688,74.814003,398.302063,74.966965,396.539551,74.331688zM391.786682,93.019264C391.786682,92.662354,391.965851,92.282013,392.324127,91.874115L393.243286,91.112061C393.499603,90.985283,393.703552,91.048676,393.856506,91.302231C393.98468,91.557167,393.933685,91.759735,393.703552,91.912704L393.204681,92.370209C392.872589,92.700943,392.694824,92.980682,392.66864,93.209435C392.643829,93.513977,392.477081,93.654541,392.1698,93.628357C391.890045,93.628357,391.761902,93.425781,391.786682,93.019264zM393.320435,88.175461C393.550598,88.073486,393.729736,88.149277,393.856506,88.404213C394.00946,88.657776,393.921265,88.900307,393.589172,89.129066L392.093994,90.158463L390.906128,91.493774C390.496857,92.002274,390.254303,92.129051,390.177155,91.874115L390.523041,90.806137L391.480774,89.51078C392.042999,88.87413,392.65625,88.429016,393.320435,88.175461zM417.580811,79.2127L417.619385,78.450645L417.888123,77.91597C418.065887,77.813995,418.27121,77.813995,418.501343,77.91597L421.604675,79.441452L421.911987,79.747375C421.911987,79.847977,421.783813,79.911362,421.5289,79.937546L418.462769,80.090515C418.181641,80.115318,417.963898,80.03952,417.810944,79.861755C417.631805,79.708794,417.556,79.492447,417.580811,79.2127zM402.63324,78.830986L403.170654,78.640816C403.348419,78.665619,403.502777,78.767593,403.629547,78.945358L404.242767,79.633003C404.652069,80.115318,404.818787,80.43364,404.741638,80.585228C404.715454,80.636215,404.486694,80.764374,404.051239,80.966942L402.671814,81.730377L401.139435,82.835564C400.577209,83.242081,400.218903,83.44603,400.065948,83.44603C399.835815,82.835564,400.194092,81.881958,401.139435,80.585228L402.63324,78.830986zM419.49765,86.611389C419.395691,85.900322,419.446686,85.277451,419.650635,84.742767C419.854584,84.209465,420.149475,83.915947,420.532562,83.866333C420.915649,83.815346,421.272583,84.017921,421.604675,84.475433C421.936798,84.932938,422.15451,85.5186,422.2565,86.229675C422.358459,86.942116,422.307495,87.564987,422.103546,88.09967C421.899597,88.657776,421.604675,88.951294,421.221588,88.976105C420.838501,89.027084,420.481567,88.823135,420.149475,88.365631C419.817383,87.908119,419.59964,87.323837,419.49765,86.611389zM403.515167,86.344048C403.719116,85.810745,404.014038,85.5186,404.397125,85.467621C404.780212,85.416626,405.150909,85.620575,405.507813,86.078087C405.839935,86.535599,406.057648,87.119888,406.159637,87.832329C406.261597,88.543396,406.210632,89.166275,406.006653,89.700951C405.801331,90.260437,405.507813,90.552582,405.124725,90.577377C404.741638,90.628372,404.370941,90.425797,404.014038,89.968292C403.680542,89.51078,403.464172,88.92511,403.362213,88.21405C403.260254,87.501602,403.311218,86.878723,403.515167,86.344048zM412.253326,84.818558C412.534424,84.717964,412.790741,84.908134,413.019501,85.391823L414.897766,88.251251L416.891785,90.501587L418.27121,91.912704C418.628113,92.268234,418.692902,92.676132,418.462769,93.133644L417.044769,95.802902C416.763641,96.184616,416.380554,96.374786,415.894104,96.374786L415.243652,96.260406L414.821991,95.993073L414.859192,95.498352L416.085632,93.438187C416.341949,92.980682,416.315765,92.561752,416.009857,92.180038L414.092987,89.319229C413.352997,88.175461,412.713593,86.942116,412.177521,85.620575C411.972198,85.187874,411.998383,84.920532,412.253326,84.818558zM406.964417,96.642128L407.347504,96.566338C407.424683,96.615944,407.437073,96.730324,407.386078,96.90947L407.041565,98.167618L407.233124,98.778091C407.412262,98.955856,407.616211,99.070236,407.846344,99.121216C411.474731,100.03624,414.143982,100.506149,415.856873,100.532333C416.928986,100.532333,418.411774,100.291168,420.302429,99.80748L422.831146,99.082634L423.291412,98.739502C423.419556,98.561737,423.470551,98.370193,423.444366,98.167618L423.368561,97.632935L423.444366,97.252594C423.521545,97.201614,423.637299,97.252594,423.790253,97.404182L425.361206,98.968262C425.693329,99.298981,425.770508,99.705505,425.591339,100.189194L424.211945,102.858459C424.109955,103.062408,424.020386,103.150604,423.943207,103.125793L423.790253,102.782669L423.790253,102.400955C423.764069,102.196999,423.6745,102.04541,423.521545,101.943436L422.985474,101.943436L420.724121,103.583305C418.909241,104.727081,417.223907,105.388535,415.665344,105.566299C414.105408,105.744072,411.959808,105.235573,409.225769,104.040817C407.871155,103.430344,406.670898,102.807472,405.623566,102.172195L405.010345,102.210785L404.550079,102.6297L404.703033,104.34536L404.397125,104.612701L404.128418,104.308151L403.054901,100.914047C402.928131,100.455154,403.054901,100.061035,403.438019,99.731689L406.964417,96.642128zM413.43396,104.658661L413.786011,104.724335L414.133667,104.776581L414.45105,104.811493L414.761353,104.832489L415.046021,104.838348L415.324341,104.830048L415.575073,104.809052L416.114624,104.727264L416.539673,104.632294L416.117065,104.679657L416.098999,104.681366L415.615845,104.723846L415.513062,104.726044L413.251587,104.618622L413.43396,104.658661zM412.330475,103.812057L415.549591,103.965027C416.878021,103.863052,417.888123,103.671501,418.577148,103.391754L423.138428,101.257179C423.470551,101.155205,423.688263,100.86306,423.790253,100.379364C423.866058,99.897049,423.58493,99.705505,422.946899,99.80748L420.416809,100.532333C418.450348,101.014648,416.839417,101.269577,415.588165,101.294388C413.569336,101.345367,410.900085,100.887863,407.577637,99.92186C406.760468,99.768898,406.147217,99.897049,405.737946,100.303574C405.432037,100.583313,405.381042,100.86306,405.584991,101.142799C405.737946,101.345367,405.968079,101.510742,406.274017,101.637512C409.238159,102.833649,411.256989,103.557129,412.330475,103.812057z"/>
</svg>
