<?xml version="1.0" encoding="UTF-8"?>
<svg xmlns="http://www.w3.org/2000/svg" xmlns:xlink="http://www.w3.org/1999/xlink" width="44.866mm" height="59.026mm" viewBox="-363.436707 58.807175 44.866455 59.025879">
    <path transform="matrix(-1,0,0,1,0,0)" style="stroke:none;fill:#000000;fill-rule:evenodd" d="M326.315613,65.760056L326.535095,65.457565L326.55072,65.436813L326.773621,65.150681L326.790955,65.129196L327.017273,64.859421L327.037048,64.836716L327.267029,64.583542L327.288757,64.560593L327.5224,64.32402L327.546082,64.301071L327.783142,64.080856L327.809265,64.057663L328.049988,63.853806L328.078552,63.830612L328.322693,63.643356L328.354431,63.620407L328.602234,63.449753L328.635681,63.428024L328.886902,63.273727L328.923279,63.252731L329.178162,63.115036L329.216736,63.095749L329.475281,62.974411L329.516052,62.956589L329.778015,62.851852L329.820251,62.836472L330.085632,62.748093L330.130066,62.734665L330.399353,62.662888L330.442566,62.652878L331.017273,62.534958L331.333679,62.458298L331.688416,62.361862L332.075867,62.246628L332.490417,62.114059L332.919128,61.968307L333.389587,61.800339L333.862976,61.623581L334.074158,61.522507L334.3078,61.38652L334.551208,61.22197L334.820007,61.015915L335.789734,60.198288L335.8349,60.162888L336.260681,59.855515L336.29364,59.833054L336.700378,59.570602L336.740173,59.546677L337.128113,59.328659L337.177917,59.303024L337.547058,59.129929L337.608093,59.104538L337.957947,58.97612L338.034119,58.952438L338.365417,58.868942L338.457703,58.851852L338.769714,58.813034L338.878845,58.807175L339.172058,58.813034L339.249207,58.818649L339.290222,58.824753L339.408386,58.845749L339.483582,58.863083L339.520691,58.874557L339.648376,58.918015L339.733826,58.953171L339.871033,59.019333L339.934753,59.053757L340.081482,59.142624L340.130066,59.174606L340.286072,59.286179L340.322205,59.313766L340.487732,59.4478L340.516052,59.47197L340.691345,59.628708L340.715027,59.650925L340.899353,59.830368L340.917419,59.848434L341.111511,60.050583L341.126892,60.06694L341.330261,60.29155L341.342957,60.306198L341.555847,60.553757L341.566345,60.566208L341.788757,60.836227L341.797791,60.847458L342.029724,61.140182L342.037781,61.150436L342.278992,61.465866L342.285583,61.474655L342.536316,61.812546L342.542664,61.821091L342.793152,62.168747L343.963562,63.648972L345.661072,63.707321L345.985046,63.592087L346.015564,63.581833L346.451599,63.447067L346.487244,63.437057L346.898376,63.331589L346.940857,63.321823L347.327087,63.245895L347.377136,63.237839L347.738464,63.191452L347.796814,63.186325L348.13324,63.169235L348.202332,63.168747L348.513855,63.181198L348.594421,63.188766L348.881287,63.231003L348.957214,63.24614L349.14032,63.292526L349.216248,63.316208L349.415466,63.38945L349.474792,63.414108L349.690369,63.514694L349.735535,63.537643L349.967468,63.665329L350.003113,63.686081L350.251404,63.840866L350.280212,63.859909L350.544617,64.041794L350.56781,64.058151L350.848572,64.267136L350.867615,64.281784L351.164734,64.517868L351.180847,64.531052L351.49408,64.794235L351.507263,64.80571L351.836853,65.095749L351.848816,65.106491L352.194519,65.423874L352.204285,65.433151L352.566345,65.777634L352.575134,65.785934L352.953552,66.157516L352.961121,66.165085L353.355896,66.563766L353.362488,66.570602L353.773376,66.99614L353.77948,67.002487L354.191345,67.439011L354.463806,67.698044L354.737244,67.918259L355.018005,68.106979L355.30365,68.263962L355.600769,68.393356L355.908875,68.494675L356.229187,68.568161L356.551941,68.612106L356.88446,68.620407L357.207703,68.598923L357.512146,68.54863L357.805359,68.468796L358.082214,68.362106L358.353455,68.223434L358.612244,68.056442L358.861755,67.858688L359.005066,67.717087L359.113953,67.575729L359.198914,67.425339L359.263123,67.261032L359.306824,67.077682L359.329041,66.867722L359.326599,66.631149L359.292419,66.3311L359.287537,66.253952L359.290466,66.176804L359.301208,66.100632L359.319763,66.025681L359.345642,65.952927L359.378845,65.883347L359.41864,65.817429L359.465271,65.755905L359.517517,65.699265L359.575623,65.648239L359.638367,65.603317L359.705261,65.565231L359.775818,65.533737L359.84906,65.509811L359.924255,65.49321L360.000916,65.484421L360.078064,65.483444L360.154968,65.49028L360.230652,65.504684L360.304626,65.526901L360.375916,65.556442L360.443787,65.592819L360.507751,65.636032L360.569275,65.68779L360.808777,65.911179L360.83905,65.940964L361.065369,66.177048L361.094177,66.208786L361.307556,66.458054L361.333923,66.490524L361.534363,66.752487L361.558533,66.786179L361.746033,67.061081L361.768494,67.095749L361.94281,67.383591L361.962341,67.418015L362.123962,67.71904L362.141296,67.753464L362.289734,68.067184L362.31366,68.123093L362.466736,68.527145L362.487488,68.590134L362.60614,69.010544L362.620789,69.073044L362.705261,69.510056L362.714539,69.571091L362.764587,70.02446L362.768738,70.081833L362.784851,70.551804L362.784851,70.606491L362.766541,71.092575L362.762878,71.143112L362.710388,71.646042L362.704041,71.692673L362.617126,72.21196L362.609558,72.251266L362.49115,72.785202L362.479431,72.831345L362.332458,73.340622L362.317078,73.388229L362.142029,73.872849L362.122009,73.922653L361.918396,74.38237L361.894226,74.432175L361.662292,74.867477L361.63324,74.917282L361.51825,75.098679L361.551208,75.102341L361.639343,75.122116L361.79657,75.167038L361.869568,75.19194L361.93988,75.224167L361.998718,75.258347L362.149109,75.354782L362.211853,75.39946L362.285828,75.466843L362.429138,75.61528L362.479919,75.673386L362.510681,75.715622L362.646912,75.915573L362.689636,75.985886L362.81073,76.212936L362.846619,76.290573L362.945251,76.539108L362.970398,76.613083L363.04657,76.882858L363.062439,76.951462L363.11615,77.242233L363.125183,77.304733L363.156433,77.616989L363.159851,77.672897L363.16864,78.006149L363.168396,78.054977L363.154968,78.409225L363.152039,78.452927L363.11615,78.828415L363.108826,78.884079L363.068054,79.122849L363.056091,79.179001L362.990417,79.442429L362.97821,79.48613L362.887878,79.774216L362.875671,79.810349L362.760193,80.122849L362.748962,80.150925L362.608826,80.488327L362.598572,80.512253L362.433533,80.874313L362.424011,80.894333L362.233826,81.281052L362.225525,81.297409L362.010681,81.70903L361.971619,81.775681L361.925964,81.837692L361.874207,81.895065L361.817078,81.946823L361.754822,81.992477L361.688416,82.03154L361.618347,82.063766L361.545349,82.088913L361.470398,82.106491L361.393738,82.116257L361.316833,82.11821L361.239685,82.112595L361.163757,82.098923L361.089783,82.077927L361.018005,82.049362L361.013123,82.046921L361.189392,82.444382L361.196228,82.460007L361.444763,83.056442L361.451111,83.072556L361.684021,83.668991L361.690369,83.685593L361.90741,84.282516L361.913269,84.299362L362.114685,84.89653L362.1203,84.913864L362.306091,85.511276L362.311462,85.529099L362.481384,86.126755L362.486267,86.144577L362.640808,86.742722L362.645447,86.761276L362.867859,87.720993L362.873474,87.748581L363.058533,88.706589L363.06366,88.734909L363.211121,89.69072L363.215027,89.719772L363.32489,90.673386L363.327576,90.702927L363.399841,91.654831L363.40155,91.684616L363.436218,92.634323L363.436707,92.664352L363.434021,93.611862L363.433289,93.642136L363.393005,94.587692L363.391296,94.617966L363.313416,95.561325L363.310242,95.591354L363.194763,96.532761L363.190613,96.562546L363.037537,97.501999L363.032166,97.531052L362.841736,98.468307L362.835144,98.497116L362.607117,99.432175L362.599792,99.460495L362.334167,100.3936L362.325867,100.4207L362.022888,101.351852L362.013611,101.378464L361.672791,102.307419L361.663513,102.331589L361.274841,103.289352L361.262634,103.317673L360.843933,104.240524L360.830261,104.269089L360.381775,105.157516L360.366394,105.186569L359.888123,106.039841L359.870789,106.069138L359.362488,106.887985L359.343201,106.917282L358.805115,107.701218L358.784363,107.73027L358.216492,108.479782L358.193542,108.508591L357.595886,109.222946L357.571228,109.250778L356.943542,109.93071L356.917419,109.957809L356.259949,110.602829L356.232361,110.628708L355.545105,111.239059L355.516052,111.263474L354.798767,111.839157L354.768494,111.862106L354.021423,112.402878L353.990662,112.424118L353.213806,112.930466L353.182312,112.949997L352.375427,113.421432L352.343445,113.439011L351.506775,113.875534L351.485046,113.88652L350.991394,114.124313L350.97699,114.130905L350.489197,114.353561L350.475037,114.359909L349.993103,114.568161L349.977478,114.574753L349.501404,114.768112L349.485535,114.774216L349.015564,114.952927L348.99823,114.959274L348.533875,115.123093L348.516785,115.128952L348.058533,115.278366L348.039001,115.28447L347.586609,115.418747L347.567322,115.424118L347.120789,115.543991L347.099792,115.549362L346.659119,115.654343L346.637634,115.659225L346.388611,115.710983L346.409363,115.728073L346.463562,115.783005L346.511902,115.843307L346.55365,115.908005L346.58905,115.976608L346.617126,116.048386L346.637634,116.122604L346.650818,116.198776L346.656189,116.275681L346.653503,116.352829L346.64325,116.429245L346.625427,116.504196L346.600037,116.57695L346.567322,116.647018L346.527771,116.713181L346.481628,116.774948L346.429626,116.831833L346.372009,116.883347L346.316345,116.924118L346.012878,117.126022L345.947693,117.164841L345.623962,117.336472L345.557556,117.367722L345.21405,117.509323L345.1474,117.533005L344.78363,117.644821L344.717957,117.661911L344.333923,117.743454L344.272156,117.753952L343.868347,117.805466L343.810486,117.810593L343.386414,117.832077L343.333679,117.833054L342.889587,117.824753L342.840759,117.822067L342.376404,117.783493L342.332458,117.77861L341.848328,117.710007L341.809021,117.703415L341.304382,117.604782L341.268982,117.59697L340.744568,117.468307L340.713074,117.460007L340.168396,117.301315L340.140076,117.292282L339.575134,117.103561L339.549744,117.094528L338.964783,116.875778L338.941833,116.866989L338.336609,116.61821L338.318787,116.610397L337.698181,116.336472L337.673279,116.324997L337.08783,116.041061L337.06073,116.027145L336.510925,115.732712L336.482117,115.716599L335.967712,115.411911L335.937439,115.393112L335.458435,115.078171L335.426697,115.055954L334.983093,114.730759L334.949402,114.704636L334.541443,114.368942L334.507263,114.339157L334.134705,113.993454L334.099548,113.958786L333.762634,113.602829L333.727966,113.563278L333.426208,113.196823L333.392029,113.152145L333.125916,112.775436L333.093445,112.725632L332.862976,112.338669L332.833923,112.284958L332.638611,111.887741L332.612732,111.829147L332.453308,111.421432L332.432556,111.360641L332.308533,110.942917L332.292908,110.880661L332.204285,110.452438L332.192322,110.376022L332.188416,110.299118L332.192078,110.22197L332.203796,110.145798L332.222839,110.071091L332.249695,109.998581L332.283386,109.929489L332.324158,109.863815L332.371277,109.80278L332.424255,109.746628L332.482605,109.696335L332.545837,109.652145L332.61322,109.614548L332.684021,109.58403L332.757507,109.560593L332.832947,109.544968L332.909851,109.536911L332.987,109.536667L333.06366,109.544479L333.139343,109.559616L333.21283,109.582565L333.283875,109.612839L333.339783,109.642868L333.803894,109.918747L334.234558,110.147995L334.281189,110.169724L333.773376,109.783493L333.753601,109.768112L333.166687,109.290573L333.147888,109.274704L332.572693,108.774948L332.554626,108.758835L331.990906,108.236618L331.973572,108.220016L331.421326,107.675339L331.405212,107.658737L330.864441,107.091843L330.848572,107.074997L330.319519,106.485641L330.305115,106.468796L329.787292,105.856979L329.773376,105.840134L329.267273,105.2061L329.254089,105.189255L328.75946,104.532761L328.747253,104.515915L328.264343,103.83696L328.252869,103.820602L327.781189,103.119431L327.770447,103.102829L327.570251,102.787643L327.172058,102.814743L327.118347,102.816452L326.722595,102.815475L326.666199,102.813278L326.284363,102.783981L326.224304,102.776901L325.856384,102.71904L325.79364,102.706589L325.439636,102.619919L325.376648,102.601608L325.03656,102.486618L324.973816,102.462204L324.647644,102.318649L324.586853,102.28862L324.274353,102.116501L324.216736,102.081345L323.918396,101.880661L323.865417,101.841599L323.580994,101.61235L323.533875,101.570847L323.263123,101.313034L323.220886,101.269821L322.964294,100.983444L322.92865,100.940231L322.68573,100.62529L322.654724,100.582321L322.425964,100.238815L322.400574,100.1978L322.185486,99.825729L322.166687,99.791061L321.97113,99.408249L321.948914,99.36113L321.787781,98.984421L321.767517,98.931442L321.641052,98.561569L321.62323,98.501511L321.531433,98.137741L321.517761,98.071579L321.460632,97.714645L321.452576,97.6436L321.429871,97.293015L321.428894,97.217331L321.440857,96.873093L321.447449,96.7957L321.493835,96.458054L321.508728,96.380173L321.590027,96.049118L321.612244,95.974899L321.727966,95.650192L321.756531,95.5811L321.906677,95.262741L321.940369,95.19902L322.125183,94.887253L322.162048,94.8311L322.381531,94.525925L322.419617,94.477097L322.673767,94.178268L322.711853,94.136765L323.000427,93.844284L323.034363,93.812057L322.896423,93.779587L322.822449,93.758102L322.750916,93.729294L322.682556,93.693405L322.618347,93.650681L322.558777,93.601852L322.504333,93.547165L322.45575,93.487106L322.413513,93.422653L322.377869,93.354294L322.358093,93.306442L322.245056,93.006149L322.221619,92.932663L322.205505,92.857224L322.197449,92.780319L322.19696,92.703171L322.204285,92.626511L322.209412,92.600632L322.18573,92.58403L322.12738,92.533493L322.074646,92.477341L322.027527,92.416306L321.987244,92.350632L321.95282,92.279343L321.651062,91.56279L321.624695,91.49028L321.605896,91.415573L321.594666,91.339157L321.591248,91.262253L321.595642,91.185104L321.607849,91.108932L321.627625,91.03447L321.63324,91.019577L321.622253,91.010788L321.567078,90.957077L321.517517,90.897751L321.474304,90.83403L321.437683,90.766159L321.408142,90.69487L321.385925,90.620895L321.371277,90.545212L321.364441,90.467331L321.348083,90.026901L321.347595,89.984421L321.351013,89.803513L321.330017,89.80571L321.252869,89.805466L321.176208,89.797409L321.100525,89.781784L321.027039,89.758347L320.956238,89.727829L320.888855,89.690231L320.825623,89.646042L320.767273,89.595749L320.714294,89.539597L320.667175,89.478561L320.626404,89.413132L320.586365,89.328415L320.381775,88.819138L320.374939,88.801559L320.177429,88.272263L320.171326,88.255661L319.980652,87.7061L319.975281,87.689743L319.791931,87.120163L319.787292,87.105026L319.611023,86.515427L319.606873,86.501022L319.437683,85.891647L319.433777,85.877731L319.271667,85.248093L319.268494,85.234909L319.113708,84.585495L319.107849,84.558395L318.975525,83.897263L318.972107,83.878952L318.85907,83.233444L318.855896,83.214645L318.761902,82.584763L318.759216,82.564255L318.684509,81.949997L318.682068,81.928268L318.626648,81.329636L318.624939,81.306442L318.588806,80.723434L318.587585,80.699265L318.570496,80.131882L318.570251,80.106247L318.572205,79.554245L318.572693,79.526413L318.594177,78.99028L318.595886,78.961716L318.636414,78.440964L318.639587,78.410446L318.699402,77.905563L318.703796,77.873581L318.782898,77.384079L318.789001,77.35112L318.887146,76.877243L318.895203,76.842331L319.012878,76.384079L319.022888,76.348679L319.159607,75.906052L319.171814,75.869431L319.32782,75.442184L319.338806,75.413864L319.722107,74.481735L319.737732,74.446579L320.16864,73.532761L320.18573,73.498825L320.663757,72.603806L320.682312,72.570847L321.207703,71.694382L321.226746,71.664352L321.603943,71.097214L321.622742,71.070358L321.997498,70.556198L322.020447,70.526169L322.392761,70.065231L322.421082,70.032272L322.791199,69.624069L322.826599,69.587448L323.194519,69.232468L323.23822,69.193405L323.603699,68.891403L323.658386,68.850143L324.021423,68.601364L324.088318,68.560349L324.37616,68.404099L324.37616,68.403854L324.436462,68.333786L324.508972,68.245163L324.60199,68.127731L324.831482,67.82695L325.112,67.447311L325.458679,66.968796L325.856628,66.410934L326.309509,65.7686L326.315613,65.760056zM362.357452,78.755905C362.482849,77.726509,362.369843,76.921738,362.01709,76.344337C361.662933,75.742134,361.234344,75.691147,360.72998,76.19413C360.199432,76.721916,359.619293,77.085724,358.989532,77.286911L361.334961,81.356262C361.941284,80.226273,362.281677,79.359482,362.357452,78.755905zM326.93222,66.207489C325.645142,68.041656,324.938202,68.982857,324.812805,69.033844C323.853699,69.48584,322.869781,70.502831,321.861053,72.086197C321.129303,73.242371,320.52298,74.448158,320.043427,75.703552C319.160095,77.940109,319.098083,80.840874,319.854614,84.408615C320.258392,86.166992,320.737946,87.71315,321.293304,89.044334C321.670868,86.883575,322.57901,85.037003,324.01767,83.504623L326.856445,80.980057C326.024109,80.42746,325.304749,79.811478,324.698425,79.133484C323.8909,78.203308,323.525726,77.387512,323.601501,76.683334C323.702118,75.553345,324.068665,74.623169,324.698425,73.895561C325.556946,72.839981,326.80545,72.387985,328.445313,72.538193L331.284058,73.442184C332.495361,73.895561,333.290497,74.070572,333.669464,73.969978L336.393829,70.956207C337.957916,69.222633,339.207794,68.543259,340.140717,68.920845L342.752106,70.352623L344.644165,71.369621L346.007019,71.48262L347.029541,70.917618L348.657013,70.163834C349.237152,70.038437,349.942719,70.190018,350.776428,70.615829C351.280792,70.868011,352.151703,71.696213,353.387817,73.103188L355.317047,75.251549C356.150757,75.904739,356.983093,76.294724,357.81543,76.420128C358.749756,76.545532,359.518707,76.294724,360.123657,75.666344C361.006989,74.736168,361.587128,73.542786,361.865509,72.086197C362.142487,70.679222,362.054291,69.448631,361.600922,68.393059C361.221954,67.538673,360.7052,66.823471,360.049255,66.244698C360.199432,67.174873,359.97345,67.903854,359.367126,68.43026C358.55957,69.134438,357.600464,69.448631,356.49115,69.372841C355.406616,69.272247,354.45993,68.807846,353.652374,67.978264C351.330383,65.490906,349.702942,64.159721,348.769989,63.984711C348.038269,63.833126,347.041931,63.997116,345.779663,64.473915L343.584442,64.398125L342.184357,62.627342C340.771851,60.642967,339.761749,59.625977,339.156799,59.574989C338.400269,59.499199,337.441132,59.901585,336.280823,60.780773L335.296906,61.610352C334.893158,61.936947,334.514191,62.175346,334.161407,62.325554C332.773743,62.853344,331.675446,63.192341,330.86792,63.343925C329.404419,63.594727,328.092529,64.549706,326.93222,66.207489zM331.927612,74.497765L328.559692,73.969978C327.171997,73.844574,326.212891,74.573555,325.682343,76.155548C325.153168,77.814705,325.960693,79.183098,328.10495,80.263474C328.205536,80.263474,328.319916,80.364075,328.445313,80.565269C328.623077,80.816071,328.547302,81.042068,328.219299,81.243263C326.680054,82.247849,325.532135,83.153221,324.774231,83.956619C322.857361,85.916191,321.97406,88.07695,322.125641,90.438911C322.806396,88.57856,323.726898,86.895973,324.888611,85.388397C326.301086,83.730621,327.285004,82.800446,327.840363,82.600632C328.168335,82.449043,328.408112,82.487633,328.559692,82.713631C328.711273,82.913445,328.647888,83.102234,328.369507,83.278625L327.461395,84.106827L325.607941,85.991982C324.472412,87.146774,323.386536,88.906532,322.352997,91.267113L322.654785,91.983688C323.437531,90.098534,324.370453,88.592339,325.45636,87.460968C326.364471,86.481186,327.171997,85.840393,327.877563,85.539986C328.155914,85.413208,328.332306,85.513802,328.408112,85.840393C328.483887,86.142189,328.332306,86.419174,327.953369,86.669975L326.137085,88.138962L324.282257,90.626328L322.957977,92.73748L323.070953,93.037888L323.714508,93.189476C324.093475,93.364487,324.14447,93.666275,323.866089,94.093468C322.049835,95.601044,321.709473,97.384224,322.844971,99.444389C323.954285,101.504562,325.657532,102.346542,327.953369,101.970337C330.375946,105.889481,333.290497,108.853638,336.696991,110.862816C337.605133,111.365799,337.529327,111.604202,336.469635,111.579391C335.409912,111.528412,334.237213,111.101212,332.950134,110.297821C333.327698,112.608795,335.22113,114.480164,338.626251,115.91333C341.907379,117.320297,344.328583,117.445709,345.894043,116.289528L343.39566,115.950531C342.108551,115.648743,341.503601,115.385536,341.579407,115.159538L343.963409,115.233948C346.107635,115.184341,348.505402,114.506348,351.153992,113.199966C355.696014,110.963409,358.963348,107.245468,360.957367,102.044754C362.874207,97.096214,363.189789,92.058105,361.90271,86.933182C361.121368,83.743027,359.670288,80.565269,357.550842,77.399918C356.616547,77.299316,355.607819,76.847321,354.523315,76.042542L352.516876,73.782562C351.305603,72.375587,350.498047,71.570816,350.094299,71.369621C349.614746,71.143623,348.946381,71.219414,348.089233,71.595619L346.802155,72.274986C346.070435,72.626389,345.287689,72.72699,344.455353,72.575401C343.850403,72.476181,343.067688,72.186798,342.108551,71.709991L338.929413,71.595619C337.693329,72.022812,336.596405,72.839981,335.637299,74.045769C334.879364,74.94976,333.64328,75.101349,331.927612,74.497765zM327.196808,92.963478C327.221619,92.612076,327.399384,92.234497,327.727356,91.832108L328.635498,91.078323C328.887665,90.952919,329.088867,91.016312,329.240448,91.267113C329.392029,91.519295,329.341034,91.719109,329.088867,91.870697L328.596893,92.322693C328.268921,92.649284,328.10495,92.924896,328.10495,93.152267C328.080139,93.452682,327.916138,93.591858,327.612976,93.565681C327.309814,93.565681,327.171997,93.364487,327.196808,92.963478zM352.365295,105.135689C352.239899,105.310699,352.024933,105.361687,351.721741,105.285896L351.078217,105.059891L350.397461,105.248688L349.64093,105.172897C349.362549,104.946899,349.374969,104.657509,349.678131,104.306107C350.006104,103.954712,350.473267,103.77832,351.078217,103.77832C351.508148,103.77832,351.873352,103.954712,352.176514,104.306107C352.453491,104.632706,352.516876,104.909691,352.365295,105.135689zM328.748474,88.177551C328.975861,88.07695,329.152252,88.152748,329.279022,88.403549C329.430603,88.65435,329.328644,88.892754,328.975861,89.118752L327.53717,90.137123L326.364471,91.455902C325.935913,91.958893,325.696136,92.08429,325.645142,91.832108L325.985504,90.777908L326.893646,89.49633C327.473785,88.86795,328.092529,88.428352,328.748474,88.177551zM355.05246,78.228119L356.187988,79.3209C356.919708,80.150482,357.19809,80.879456,357.020325,81.507843L356.37677,80.941467L355.392853,80.037476L354.068542,79.774277L353.312012,79.698479C353.236206,79.548279,353.476013,79.246483,354.031342,78.794487C354.585327,78.316307,354.927063,78.127518,355.05246,78.228119zM354.807556,79.144577L354.931335,79.168991L354.861755,79.102097L354.807556,79.144577zM340.973053,77.32412C341.149445,77.198723,341.579407,77.32412,342.260132,77.701706C342.940887,78.077911,343.231659,78.354897,343.131073,78.529907L342.184357,78.718697C341.477417,78.844101,340.923462,79.03289,340.519684,79.283691C340.140717,79.484886,339.712158,79.87487,339.232605,80.452271C338.804016,80.92907,338.525665,81.167473,338.400269,81.167473C338.197693,80.540466,338.56424,79.710884,339.497192,78.681488L340.973053,77.32412zM341.166687,78.181686L341.38324,78.118454L341.331238,78.096725L341.278503,78.078903L341.166687,78.181686zM354.484711,84.106827L354.523315,83.541832C354.674896,83.340637,354.964294,83.467415,355.392853,83.919411C356.251373,84.798599,357.108521,85.375999,357.96701,85.652985L358.647766,85.803192C358.799347,85.827995,358.862762,85.9534,358.837952,86.179398L358.53479,86.594185C358.257782,86.87117,357.96701,87.033783,357.663849,87.084763C357.663849,87.71315,357.550842,88.239563,357.323486,88.666756C357.0961,89.093948,356.819122,89.319946,356.49115,89.34613C355.78421,89.370934,355.368042,88.617142,355.242645,87.084763C355.19165,86.505989,355.267456,85.979584,355.468628,85.501404L354.749298,84.747612L354.484711,84.106827zM354.749298,103.250534C354.699707,103.502716,354.548126,103.589531,354.295929,103.515114L353.047424,102.49675C352.037323,101.894547,351.104401,101.73056,350.24588,102.007538L347.255524,103.402115C346.222015,103.979515,345.578461,104.230316,345.326294,104.155899C344.746124,103.979515,345.174683,103.188522,346.613373,101.78154C348.050659,100.374565,349.565125,99.859177,351.153992,100.236763C352.769073,100.612968,353.879761,101.317146,354.484711,102.346542C354.712097,102.697937,354.800293,102.999725,354.749298,103.250534zM339.535767,88.629547L339.535767,87.988762C338.929413,88.089355,338.349274,87.963959,337.793915,87.612556L337.150391,87.046181C337.176575,86.79538,337.365356,86.632767,337.71814,86.556976L338.777832,86.443977C339.156799,86.419174,339.648773,86.255188,340.253723,85.9534C340.911041,85.601997,341.515991,85.174805,342.07135,84.673203C342.575714,84.24601,342.891296,84.182617,343.016693,84.484406L343.055267,85.049408L342.752106,85.577194L341.806763,86.707184C342.08374,87.210167,342.247742,87.775162,342.298737,88.403549C342.348328,89.13253,342.260132,89.747131,342.032776,90.250122C341.806763,90.777908,341.503601,91.053513,341.124634,91.078323C340.745667,91.129311,340.405304,90.91571,340.103516,90.438911C339.775543,89.935928,339.585388,89.332344,339.535767,88.629547zM347.710297,85.539986C347.583496,85.061806,347.634491,84.786194,347.861877,84.710403C348.114044,84.659416,348.353821,84.860611,348.581207,85.312607L350.24588,88.251968L352.137909,90.626328L353.425018,92.058105L353.652374,92.661682C353.677185,92.88768,353.639984,93.088882,353.539398,93.265266L351.949127,95.827042C351.67215,96.178436,351.293182,96.342422,350.813629,96.317627L350.170074,96.166039C349.968903,96.141235,349.829712,96.05304,349.753906,95.902832C349.678131,95.751251,349.702942,95.576233,349.829712,95.375046L351.153992,93.452682C351.432373,93.051666,351.432373,92.624481,351.153992,92.172485L349.413544,89.270332C348.757599,88.089355,348.18985,86.846367,347.710297,85.539986z"/>
</svg>
