<?xml version="1.0" encoding="UTF-8"?>
<svg xmlns="http://www.w3.org/2000/svg" xmlns:xlink="http://www.w3.org/1999/xlink" width="45.399mm" height="59.709mm" viewBox="-298.952118 58.465736 45.398666 59.708565">
    <path transform="matrix(-1,0,0,1,0,0)" style="stroke:none;fill:#000000;fill-rule:evenodd" d="M274.52417,58.479233L274.880127,58.569565C275.228577,58.6866,275.545776,58.881577,275.807861,59.139389C276.059509,59.367172,276.293945,59.613266,276.509521,59.875473L278.063721,61.847885L279.262939,63.363754L280.987305,63.422836L281.317383,63.304916C282.10907,63.008072,282.950012,62.864395,283.79541,62.881577C284.345032,62.914597,284.877563,63.085007,285.343506,63.378403C286.297791,63.989151,287.17981,64.705978,287.9729,65.515121C288.535522,66.062546,289.084656,66.623978,289.619385,67.198715L289.893555,67.458969C290.904114,68.400467,292.37738,68.651016,293.642578,68.096909C294.007751,67.928207,294.329407,67.678177,294.585205,67.367661C294.804871,66.958664,294.877747,66.487137,294.796631,66.030014C294.801025,65.97847,294.805542,65.92717,294.80249,65.875961L294.817139,65.800278L294.839355,65.726303C294.932373,65.442459,295.190186,65.248398,295.487549,65.2202C295.688965,65.207138,295.887512,65.270737,296.045166,65.396713L296.318848,65.650131L296.349121,65.679916C297.646057,66.936081,298.358887,68.67717,298.313232,70.482162C298.289978,72.05925,297.846191,73.601517,297.02832,74.95018L297.161621,74.976059C297.613831,75.098587,297.985535,75.418503,298.182861,75.843491C298.58667,76.596634,298.751221,77.455246,298.655273,78.304428C298.599304,79.168381,298.363281,80.011063,297.962158,80.778305C297.823486,81.091568,297.667786,81.397018,297.496338,81.693588L297.368652,81.836899L297.213623,81.949936C296.991882,82.066818,296.726563,82.065933,296.504883,81.948959L296.721191,82.436508C300.108032,90.120926,299.616455,98.961014,295.398682,106.222641C293.765747,108.928879,291.550964,111.237625,288.915039,112.981674L288.646729,113.140366C288.616333,113.162827,288.586731,113.186386,288.557617,113.210434L288.498047,113.248032L286.888672,114.164291C285.245178,115.006363,283.500793,115.634872,281.697998,116.034653L281.744141,116.079819C281.798218,116.12886,281.841858,116.187149,281.882324,116.247543L281.91748,116.316147C282.069824,116.629959,281.974854,117.007187,281.700439,117.222885C280.831726,117.851486,279.784546,118.185593,278.712402,118.174301C277.542175,118.185928,276.378784,117.992538,275.275146,117.603256C273.343506,117.011368,271.529602,116.088058,269.914307,114.874741C268.996399,114.142776,268.258484,113.21019,267.757568,112.148422C267.535645,111.644485,267.386597,111.111526,267.314209,110.565659C267.300354,110.448959,267.329895,110.330673,267.394531,110.232407C267.470459,110.065567,267.604614,109.930527,267.775391,109.864243C267.956055,109.794601,268.154663,109.788162,268.338623,109.848862C268.549438,109.940872,268.75116,110.052689,268.938965,110.185532L269.384766,110.419174L269.468262,110.457748C266.747253,108.399429,264.430481,105.855362,262.634766,102.95433C260.693848,103.207352,258.775391,102.348099,257.669922,100.732895C256.935242,99.768967,256.507568,98.606461,256.442627,97.396225C256.443298,96.223709,256.899475,95.097305,257.716309,94.256088C257.835022,94.122696,257.960632,93.99559,258.093262,93.875961C258.021545,93.841019,257.942749,93.826889,257.863281,93.8181L257.791748,93.789291C257.652222,93.721329,257.534363,93.615738,257.454102,93.482895C257.296875,93.243515,257.224731,92.958572,257.243896,92.672836L257.206299,92.643295C257.174377,92.616745,257.142456,92.590317,257.109375,92.565414L257.057861,92.507797L256.987793,92.406479C256.834717,92.07814,256.713379,91.736069,256.625,91.38475C256.614807,91.271591,256.627747,91.157455,256.664795,91.050034C256.495667,90.914627,256.39563,90.710739,256.391113,90.494125C256.374695,90.267288,256.370178,90.03978,256.377441,89.812485L256.276367,89.815659L256.199707,89.808334C255.931076,89.770798,255.703537,89.590988,255.6035,89.338852C254.377121,86.376022,253.683121,83.220078,253.553452,80.016098C253.505356,78.056442,253.905167,76.111588,254.722397,74.329819C255.430923,72.698807,256.356567,71.171066,257.474121,69.787827C258.025452,69.133835,258.691833,68.586472,259.440186,68.172104L259.495605,68.107895C260.234741,67.156357,260.945374,66.183151,261.626709,65.189438L261.86792,64.879135C262.666321,63.822433,263.74353,63.009415,264.978516,62.530991C265.361206,62.394943,265.756042,62.296036,266.157715,62.235825L266.482666,62.157455C267.428345,61.907852,268.355103,61.591354,269.256104,61.210678C269.523865,61.0634,269.777344,60.891403,270.013184,60.697006L270.99585,59.869125C271.661194,59.332809,272.411011,58.91069,273.214844,58.620346C273.637634,58.487137,274.082642,58.439377,274.52417,58.479233zM296.783447,75.713852L296.612793,75.773422C296.405273,75.907059,296.214661,76.065079,296.042725,76.242172L295.834229,76.419174C295.433899,76.746872,294.975586,76.996445,294.483643,77.156479L296.859375,81.275375C297.303528,80.518753,297.63147,79.699661,297.830566,78.8452C297.984009,78.046738,297.919861,77.222153,297.647461,76.456039C297.537781,76.191208,297.365173,75.957474,297.144043,75.775131C297.07312,75.731491,296.991394,75.711594,296.908447,75.704575L296.783447,75.713852zM283.176758,103.280014L283.281738,103.613998C283.487244,104.191422,283.544861,104.811172,283.445557,105.416L283.359619,105.955063C283.194702,107.301956,283.430298,108.667404,284.037109,109.881088C284.448303,110.59639,285.202393,111.045761,286.0271,111.070053C287.098083,111.152695,288.148254,110.743515,288.880371,109.957504C289.811707,109.023849,290.226501,107.693588,289.993896,106.395493C289.849548,105.396194,289.496277,104.438583,288.956299,103.585434C288.800476,103.37532,288.608826,103.194351,288.389893,103.051254L287.622314,102.746567L287.660889,103.242661L288.581299,105.187241C288.822083,105.797531,288.882263,106.464371,288.754639,107.107895C288.669678,107.448746,288.478516,107.753311,288.209717,107.979477L288.130615,107.990463L288.066162,107.947495C287.912109,107.66124,287.826538,107.343369,287.813965,107.018539L287.761475,106.614487C287.69574,105.99733,287.521057,105.396713,287.244629,104.841049C286.841675,104.237717,286.309753,103.731522,285.687256,103.358871C284.89679,102.827927,284.025757,102.428482,283.108154,102.174057L282.907959,102.136215L283.176758,103.280014zM274.022705,59.223373C273.260254,59.364548,272.540405,59.678207,271.918213,60.140854L271.486816,60.451889L270.490479,61.291245C270.126526,61.601822,269.717285,61.855057,269.276855,62.041977C268.130371,62.504929,266.942993,62.859421,265.730469,63.101303L265.458008,63.173813C264.306885,63.556839,263.297485,64.277359,262.561768,65.241928C262.200623,65.672958,261.866028,66.125534,261.559814,66.597153L261.153809,67.166245C260.789673,67.721909,260.386414,68.251022,259.947266,68.749496C259.812683,68.852402,259.665344,68.937332,259.509033,69.00267L258.985596,69.388901C258.479065,69.797714,258.028809,70.271744,257.646484,70.798569C256.373901,72.502792,255.394638,74.407486,254.749008,76.434067C254.34935,77.980972,254.224014,79.585983,254.378159,81.176254C254.627548,83.883682,255.278793,86.538895,256.310547,89.054428C256.638367,86.956528,257.585693,85.004501,259.030762,83.448715L261.943848,80.893784L261.333008,80.462143C260.51709,79.862839,259.799316,79.140488,259.20459,78.321274C258.957581,77.948776,258.777588,77.535904,258.674316,77.101059C258.615173,76.640701,258.649048,76.173141,258.774658,75.726303C259.026489,74.4832,259.802917,73.409653,260.903809,72.77977C261.726379,72.381912,262.647217,72.232773,263.553467,72.349838L266.427979,73.266342L266.868164,73.424789C267.438965,73.65773,268.044556,73.794083,268.660156,73.82811L268.842285,73.799545L272.026855,70.278061C272.546997,69.731766,273.139526,69.259445,273.788086,68.874252C274.149902,68.679886,274.556152,68.583603,274.966797,68.593246C275.113831,68.604446,275.258179,68.638046,275.39624,68.689926L278.040771,70.138168L279.957764,71.16893L281.337158,71.283188L282.37207,70.709946L284.02002,69.947983C284.528137,69.862106,285.050293,69.926559,285.522217,70.13353C286.157837,70.3647,286.731567,70.739029,287.201416,71.225571C287.680969,71.685226,288.141174,72.164841,288.580811,72.662827L290.727051,75.09642C291.541016,75.765366,292.529541,76.186874,293.575684,76.312241C294.377808,76.36998,295.16095,76.048508,295.689209,75.442123C296.521301,74.53038,297.090942,73.410202,297.337402,72.200668C297.56604,71.260941,297.608948,70.285751,297.465332,69.32933C297.227356,68.029465,296.554138,66.849197,295.557129,65.981918C295.662598,66.613663,295.537292,67.261917,295.205566,67.809799C294.903503,68.199203,294.515564,68.513046,294.070313,68.72435C292.736633,69.397141,291.140625,69.283554,289.917236,68.426498C289.437866,68.110184,289.00946,67.722672,288.64624,67.277817L288.230225,66.846909C287.303284,65.855942,286.282776,64.956802,285.182861,64.162094C284.858948,63.953964,284.505432,63.796158,284.134521,63.6931C283.566772,63.604935,282.987061,63.634293,282.431152,63.779282C281.98114,63.886337,281.538696,64.023148,281.106934,64.189194L278.884277,64.113266C277.907776,62.881577,276.904846,61.610825,275.933838,60.374741L275.708496,60.114975C275.440186,59.783371,275.105042,59.512192,274.726074,59.316391C274.502014,59.231277,274.26123,59.20018,274.022705,59.223373zM284.604736,71.05394L284.341797,71.096909C284.033997,71.167892,283.734131,71.269394,283.445557,71.39769L282.141846,72.083969C281.243652,72.506516,280.219238,72.575211,279.272705,72.276352C278.622681,72.079697,277.992126,71.823776,277.388916,71.511948L274.131348,71.39769C272.805115,71.885941,271.647644,72.746292,270.797852,73.875473L270.586182,74.109116C270.055542,74.620438,269.313599,74.849197,268.586914,74.727036C268.059021,74.652145,267.54071,74.520676,267.04126,74.334213L263.669189,73.799545C262.600891,73.664078,261.566467,74.229446,261.103516,75.201645C260.68866,75.883835,260.527832,76.690384,260.651123,77.479233C260.781494,78.089951,261.103149,78.643326,261.56958,79.058578C262.072815,79.531448,262.654114,79.91362,263.287842,80.187973L263.371338,80.245102C263.531677,80.3647,263.6297,80.54982,263.646973,80.749252C263.607727,80.929489,263.491028,81.084457,263.323242,81.161118L262.756836,81.537582C261.539734,82.31575,260.423584,83.24144,259.433594,84.293442C258.337036,85.497543,257.585815,86.97496,257.258545,88.570297C257.145264,89.195267,257.109741,89.831833,257.152588,90.465561C257.905334,88.36113,259.037048,86.412491,260.492188,84.716049C261.104736,84.015518,261.769653,83.362625,262.481201,82.762924C262.707581,82.603012,262.965576,82.493423,263.238037,82.442368C263.45459,82.450363,263.644958,82.590073,263.707031,82.797836C263.728699,82.973221,263.637085,83.143478,263.477783,83.219955L262.557129,84.059067L260.640381,85.966293C259.688477,87.01915,258.88678,88.198563,258.258301,89.471176C257.94519,90.072098,257.653198,90.683701,257.382568,91.304916L257.651367,92.02977L257.989746,91.307602C258.666931,89.83815,259.57019,88.483932,260.666992,87.294418C261.250122,86.689255,261.898499,86.150589,262.600098,85.687973C262.775269,85.573318,262.971924,85.495651,263.178223,85.459702L263.269531,85.461655L263.341064,85.491684L263.403564,85.537827C263.553711,85.754379,263.560303,86.039169,263.423096,86.264145C263.31665,86.420761,263.178467,86.553177,263.017334,86.652573L261.216309,88.139389C260.375671,89.101913,259.620422,90.135849,258.959229,91.229477C258.631042,91.746445,258.309998,92.267563,257.99585,92.793198L258.111572,93.097641L258.763428,93.250717C258.963135,93.32872,259.097046,93.518143,259.092529,93.732895L259.064941,93.865219C259.025879,93.970169,258.975525,94.070389,258.916504,94.165512L258.588867,94.455063C257.935059,95.028366,257.476929,95.791519,257.278564,96.638168C257.119141,97.506027,257.246887,98.402725,257.644531,99.190414C258.078308,100.178726,258.789368,101.019577,259.691406,101.612289C260.567871,102.128433,261.593506,102.332413,262.601074,102.192612L263.017334,102.136215L263.564209,103.002914C265.099609,105.3629,266.989075,107.472397,269.166504,109.257309C270.153809,110.048447,271.200012,110.763199,272.295898,111.395493L272.390381,111.468735L272.452148,111.530502L272.508545,111.596909L272.520996,111.669662L272.507813,111.741928L272.450195,111.777573L272.38916,111.807358C271.89978,111.896957,271.396851,111.880997,270.914551,111.759018C269.902771,111.539688,268.940491,111.134048,268.076172,110.564194C268.316162,111.890366,269.011902,113.091415,270.042236,113.96019C270.80835,114.652969,271.670105,115.231888,272.600586,115.680405C274.10791,116.46373,275.721863,117.021774,277.391113,117.336899C278.240234,117.470932,279.107239,117.439713,279.944824,117.246078C280.404297,117.118729,280.836548,116.90889,281.222656,116.629135L278.692627,116.285873C278.099121,116.182266,277.524414,115.990067,276.989014,115.713852L276.924561,115.663803L276.887939,115.620102L276.856445,115.572739L276.846436,115.528549L276.853027,115.485336L279.267334,115.56102C281.135986,115.472122,282.973877,115.050674,284.694336,114.315903C285.310425,114.068375,285.916748,113.796982,286.511719,113.502182L288.121094,112.585922L288.043945,112.585922L285.438232,112.395737C284.594666,112.136887,283.860657,111.605392,283.35083,110.885239C282.722961,110.10405,282.315979,109.169174,282.169434,108.177719C282.142456,107.94487,282.133362,107.710312,282.141846,107.476059L282.410645,105.111313C282.489502,104.364578,282.285706,103.615158,281.835938,103.013901L281.115234,102.038803C280.639038,101.360611,280.215149,100.647232,279.846191,99.905258C279.78064,99.736465,279.716553,99.567062,279.653809,99.397202L279.586182,99.321518C279.257263,99.072433,278.890564,98.877914,278.500977,98.742172L277.388916,98.360336L276.775879,98.970932C276.595276,99.158401,276.367859,99.293808,276.118896,99.369858L276.014893,99.378647L275.897705,99.327621C275.790222,99.258438,275.711609,99.154953,275.662354,99.037338C275.54895,98.629929,275.597473,98.194107,275.799316,97.822495C276.266113,97.025711,276.963318,96.390182,277.800537,96.000473C277.922058,95.951187,278.048523,95.915054,278.177734,95.892319C278.409546,95.873032,278.637146,95.959671,278.790527,96.134995C278.821045,96.184311,278.842285,96.238052,278.862549,96.292221C278.889893,96.491104,278.860352,96.694412,278.769775,96.87352L278.500977,97.406723C278.929321,97.780563,279.424866,98.069443,279.961426,98.257553L280.099121,98.283432C280.191833,98.298294,280.285889,98.294388,280.379395,98.284653C281.342651,98.14653,282.29425,97.936142,283.22583,97.65477C283.839417,97.449631,284.435669,97.195969,285.009521,96.897202L285.432861,96.730942C286.570374,96.302292,287.768372,96.056137,288.982666,96.000229C289.44281,96.000504,289.900818,96.063278,290.343994,96.187241L292.719727,96.949203L293.831787,97.445297L293.8396,97.485336L293.824463,97.528793L293.786865,97.575912L293.726318,97.62645L293.497803,97.757553L292.14502,98.360336C291.650513,98.74614,291.237183,99.226028,290.928467,99.771957C290.47876,100.53511,290.103455,101.339737,289.807861,102.174789L290.688477,104.1577C291.043701,104.96907,291.281982,105.826767,291.396484,106.705063C291.419678,107.047043,291.381165,107.390274,291.285645,107.719467C291.019592,108.890549,290.57605,110.014084,289.970215,111.05101L289.653564,111.517807C292.731506,109.154373,295.084351,105.974319,296.44458,102.339828C298.985352,95.796585,298.737244,88.498459,295.757568,82.143051C294.975891,80.450211,294.062927,78.821213,293.026855,77.270981L292.643555,77.207504C291.661621,76.979599,290.744812,76.530685,289.960938,75.896957C289.080322,74.904892,288.1604,73.866318,287.282959,72.873032L286.752686,72.284653C286.391235,71.892563,285.99353,71.535629,285.564453,71.218979C285.272461,71.057327,284.934204,71.000565,284.604736,71.05394zM264.009277,91.055893L264.090332,91.067123C264.143738,91.084549,264.188721,91.117355,264.233887,91.150375C264.282166,91.19603,264.322693,91.248611,264.361084,91.302719L264.405518,91.391342C264.42926,91.448105,264.437256,91.508713,264.444336,91.569565C264.435608,91.625046,264.420105,91.679031,264.397461,91.730453C264.344055,91.802475,264.279175,91.864548,264.205322,91.915268L263.706543,92.372787C263.398682,92.638535,263.193481,93.003464,263.123291,93.404037L263.082764,93.485336C263.035156,93.546097,262.973328,93.594803,262.899902,93.618637C262.794128,93.653,262.680298,93.653336,262.57373,93.621567C262.520325,93.601334,262.468201,93.577957,262.420898,93.545395L262.365723,93.478745L262.324951,93.393295L262.297607,93.237045C262.253601,92.86824,262.359619,92.497025,262.59082,92.206284C262.66394,92.092728,262.740479,91.981308,262.825928,91.876694L263.745117,91.114731L263.838623,91.076157L263.92749,91.055161L264.009277,91.055893zM264.05957,88.138412L264.128906,88.158676L264.193604,88.195541L264.253418,88.249252L264.324219,88.346909C264.384277,88.451065,264.419434,88.567368,264.428467,88.687241L264.378906,88.821762L264.303955,88.942368C264.240723,89.013779,264.169189,89.077225,264.09082,89.131577L262.634277,90.161118L261.407959,91.496323L261.262207,91.669174C261.152405,91.816849,261.00647,91.934586,260.835449,92.002426L260.767822,91.996323L260.715576,91.95433L260.687256,91.875961C260.678711,91.777603,260.685486,91.678391,260.715088,91.583969C260.802979,91.314072,260.920105,91.054642,261.062012,90.808823L261.982422,89.513412C262.505127,88.872452,263.199768,88.393753,263.985352,88.134995L264.05957,88.138412zM287.16333,77.7285C288.456116,78.396225,289.541931,79.403854,290.304932,80.642807C290.371277,80.751602,290.426331,80.867111,290.462891,80.989243L290.466064,81.055649L290.473633,81.122787L290.460205,81.175278L290.434082,81.218246L290.343994,81.275375L290.285645,81.280502C290.059509,81.200516,289.853271,81.071304,289.689941,80.895737C289.559509,80.784561,289.432739,80.669144,289.309082,80.550522L287.891113,79.444077L285.289551,79.100327C284.986267,79.050583,284.700623,78.925583,284.459473,78.735092C284.308838,78.539597,284.290771,78.269577,284.424561,78.062485L284.513184,77.939682C284.641235,77.797134,284.799683,77.684647,284.977783,77.613998L287.16333,77.7285zM287.146729,78.577133C287.083374,78.548477,287.02124,78.517197,286.961914,78.480942L286.060059,78.433823L287.146729,78.577133zM288.926025,83.638901C289.890625,83.933273,290.788696,84.412491,291.570313,85.049789L293.104248,86.423813L293.157715,86.507309L293.185059,86.585922L293.186035,86.659653C293.166809,86.707687,293.143738,86.754196,293.109375,86.792953C293.01416,86.863297,292.908569,86.917892,292.796875,86.957016L291.914795,87.034164L288.427002,85.623276C288.356262,85.590897,288.296082,85.540543,288.247803,85.479721L288.196289,85.342026L288.168945,85.198471C288.163025,84.989548,288.19519,84.781113,288.268066,84.58519C288.364563,84.267807,288.516785,83.970444,288.713867,83.703598L288.782471,83.65892L288.857666,83.626938L288.926025,83.638901zM275.923828,77.651596L276.038574,77.689926C276.313843,77.813705,276.504456,78.071487,276.550537,78.369858C276.687317,78.767014,276.598816,79.206619,276.316895,79.518051C276.133118,79.657578,275.920776,79.753189,275.695068,79.800766L275.415527,79.879623L275.126221,79.966293L274.875488,80.034653C274.627258,80.111893,274.390198,80.221146,274.169922,80.359116C273.661926,81.04158,273.163208,81.731735,272.674561,82.428207L272.523193,82.603012C272.416687,82.71492,272.299194,82.815964,272.170166,82.900864L272.089355,82.92601L272.026367,82.90477L271.969727,82.870346C271.942444,82.820633,271.924255,82.766983,271.907471,82.712875C271.899048,82.365097,271.96283,82.019363,272.094238,81.69725C272.390259,80.848587,272.746094,80.022018,273.158447,79.223373C273.703369,78.384689,274.57373,77.812332,275.55957,77.643539C275.679932,77.619614,275.803894,77.625229,275.923828,77.651596zM276.958252,84.622299L277.049561,84.649399C277.162964,84.690109,277.255127,84.77565,277.308105,84.884018C277.611267,85.379105,277.751953,85.956619,277.706543,86.535385L277.682373,86.604721L277.648193,86.670395L277.562012,86.764145C277.255981,86.972702,276.915527,87.125412,276.555908,87.213852C275.814148,87.418503,275.069946,87.612625,274.322754,87.796371L273.121338,88.438217L272.98877,88.510727L272.846436,88.558823C272.747803,88.580612,272.646729,88.585281,272.545898,88.581772L272.476318,88.552963L272.416504,88.505356C272.385071,88.418991,272.384399,88.324387,272.422119,88.240219C272.563477,87.870499,272.766357,87.527786,273.020508,87.22435L274.707275,85.545883C275.275024,85.127182,275.914978,84.816422,276.594727,84.62767C276.715332,84.611465,276.837402,84.606888,276.958252,84.622299zM282.999023,84.008041L283.09082,84.049301L283.181396,84.113266C283.289673,84.20433,283.378113,84.316483,283.445557,84.440903L285.399414,86.805649L287.430664,88.596909C287.91394,89.005356,288.40863,89.400253,288.914063,89.780991L289.001709,89.871567L289.073975,89.973129C289.21405,90.202774,289.229309,90.488174,289.117432,90.732895L288.121094,93.287827C287.925171,93.703964,287.500671,93.965652,287.04126,93.944321C286.888062,93.927933,286.736389,93.90004,286.587402,93.861069L286.166992,93.669418L286.166992,93.212143L287.009033,91.304916L287.086182,90.694321C287.059998,90.589798,287.023071,90.48851,286.980957,90.389389L286.906494,90.26561L284.824951,87.834946C283.959167,86.800278,283.204468,85.677536,282.572998,84.485336L282.537109,84.375229L282.525391,84.278061L282.541992,84.198471C282.560913,84.147202,282.592285,84.102036,282.632813,84.065414L282.716553,84.020493L282.812012,83.993637L282.90625,83.989487L282.999023,84.008041z"/>
</svg>
