<?xml version="1.0" encoding="UTF-8"?>
<svg xmlns="http://www.w3.org/2000/svg" xmlns:xlink="http://www.w3.org/1999/xlink" width="46.618mm" height="58.360mm" viewBox="-466.452454 131.140320 46.617920 58.359619">
    <path transform="matrix(-1,0,0,1,0,0)" d="M442.208801,131.142517L442.3172,131.151062L442.688293,131.207214L442.787415,131.228943L443.167786,131.339783L443.252991,131.3703L443.643127,131.536316L443.714172,131.570984L444.113342,131.792175L444.170227,131.827087L444.578918,132.102966L444.626038,132.13739L445.044006,132.468689L445.08136,132.500183L445.50885,132.886169L445.539856,132.915955L445.976379,133.357117L445.994446,133.375916L446.248108,133.650574L446.247864,133.650574L446.483215,133.90155L446.713196,134.142517L446.934143,134.3703L447.14679,134.5849L447.339417,134.775085L447.526184,134.955017L447.711975,135.128601L447.868713,135.270691L448.028137,135.409851L448.172913,135.530457L448.29718,135.628845L448.417786,135.718201L448.522522,135.790222L448.602844,135.840271L448.670959,135.877136L448.701965,135.891541L448.766907,135.917664L448.863098,135.953064L448.955627,135.984558L449.094543,136.028992L449.237854,136.072449L449.581604,136.169617L449.999329,136.280212L450.479797,136.400574L451.038635,136.534851L451.038635,136.535095L451.657776,136.67865L451.686584,136.68573L452.142151,136.810242L452.190002,136.825134L452.617493,136.972839L452.668762,136.992615L453.068176,137.163757L453.121887,137.189392L453.492981,137.383972L453.548157,137.41571L453.89093,137.633728L453.946106,137.672302L454.260559,137.913757L454.314026,137.959167L454.600403,138.224304L454.650696,138.275085L454.795471,138.436951L454.871155,138.255798L454.953186,138.015564L455.01593,137.778015L455.06012,137.543396L455.086243,137.306091L455.094055,137.073669L455.08429,136.84491L455.056213,136.60907L455.010315,136.375183L454.944397,136.133728L454.861389,135.895691L454.754944,135.645691L454.631897,135.401306L454.485657,135.148621L454.305969,134.874695L454.266907,134.808044L454.234924,134.737976L454.210022,134.664734L454.192932,134.589539L454.183167,134.513123L454.181458,134.435974L454.187561,134.35907L454.201233,134.283142L454.222473,134.209167L454.251282,134.13739L454.28717,134.069275L454.329651,134.004822L454.378479,133.945251L454.433167,133.890564L454.492981,133.84198L454.557434,133.799744L454.625793,133.764099L454.697327,133.735535L454.771545,133.714294L454.847473,133.700867L454.924377,133.695007L455.001526,133.69696L455.077942,133.706726L455.153137,133.724304L455.214417,133.744568L455.54718,133.871277L455.621643,133.904236L455.962708,134.07782L456.023743,134.112488L456.373108,134.332947L456.422424,134.367126L456.779846,134.634216L456.820374,134.666687L457.186096,134.980896L457.219055,135.010681L457.592834,135.371765L457.619446,135.398865L458.001526,135.806824L458.023743,135.831726L458.168518,136.000427L458.1922,135.656189L458.194397,135.202332L458.166565,134.754089L458.109192,134.304626L458.023254,133.868591L457.906555,133.429138L457.752991,132.973328L457.731995,132.899109L457.718811,132.823181L457.71344,132.746277L457.715637,132.669128L457.725647,132.592712L457.743469,132.517517L457.768616,132.444763L457.801086,132.374695L457.840637,132.308289L457.886536,132.246277L457.938293,132.189392L457.995667,132.137878L458.058167,132.092468L458.124817,132.053406L458.194885,132.021667L458.267883,131.996765L458.343079,131.979675L458.419739,131.970154L458.496887,131.968445L458.573792,131.974548L458.649719,131.988464L458.723694,132.009949L458.795227,132.038757L458.863586,132.074646L458.929504,132.118347L459.225403,132.338074L459.254944,132.361267L459.532288,132.589294L459.562805,132.615662L459.821106,132.85199L459.850647,132.880554L460.090393,133.124939L460.120422,133.15741L460.341125,133.410095L460.36969,133.444763L460.571838,133.70575L460.599182,133.743591L460.782288,134.012634L460.807922,134.052917L460.972229,134.330261L460.995422,134.372253L461.141174,134.657898L461.161926,134.702087L461.288879,134.995789L461.306946,135.041687L461.414856,135.343689L461.429504,135.389099L461.51886,135.699402L461.530823,135.746033L461.601135,136.064392L461.60968,136.109558L461.661438,136.436218L461.667053,136.481384L461.699768,136.816345L461.702698,136.858826L461.715637,137.173279L461.724915,137.265808L461.736877,137.304382L461.766418,137.359802L461.791077,137.391785L463.482239,136.583191L463.553284,136.553406L463.627258,136.531189L463.702942,136.516296L463.779602,136.509216L463.85675,136.510193L463.933411,136.518738L464.00885,136.534851L464.082336,136.558533L464.152893,136.589783L464.219788,136.627869L464.282776,136.672546L464.340881,136.723328L464.393372,136.77948L464.440247,136.841003L464.480286,136.906921L464.513733,136.976257L464.539856,137.049011L464.558655,137.123718L464.569641,137.200134L464.572815,137.277283L464.565491,137.37616L464.475891,138.018005L464.470764,138.049988L464.351624,138.700134L464.34552,138.730408L464.197083,139.388611L464.189758,139.417419L464.01178,140.083923L464.004211,140.111023L463.796936,140.785828L463.788391,140.811951L463.551575,141.494812L463.542786,141.518738L463.276672,142.2099L463.267395,142.232849L463.019592,142.819519L463.214417,142.997498L463.752502,143.225525L464.404602,143.440613L465.082581,143.604675L465.810852,143.72113L465.886292,143.737244L465.959778,143.760681L466.030334,143.791443L466.097473,143.829529L466.160706,143.873962L466.218811,143.9245L466.271545,143.980652L466.31842,144.041931L466.358948,144.107605L466.392395,144.177185L466.418762,144.249695L466.437805,144.324402L466.449036,144.400574L466.452454,144.477722L466.448059,144.554626L466.436096,144.630798L466.416321,144.705505L466.389221,144.777771L466.354797,144.846863L466.313782,144.912048L466.277893,144.958923L466.097961,145.176697L466.074524,145.203796L465.873596,145.424988L465.851624,145.448181L465.629456,145.673035L465.609192,145.692566L465.366272,145.920837L465.346985,145.938416L465.082825,146.170105L465.065002,146.185486L464.779602,146.420593L464.763245,146.433777L464.456604,146.672546L464.441223,146.684021L464.113586,146.926208L464.093323,146.940613L463.617737,147.268738L463.586487,147.289246L463.409241,147.399109L463.412659,147.400574L463.479309,147.439636L463.541321,147.485291L463.598694,147.537048L463.650452,147.594177L463.696106,147.656433L463.735168,147.722839L463.759583,147.774353L463.917053,148.139832L463.929749,148.170837L464.064514,148.525818L464.077209,148.561951L464.188782,148.906921L464.200012,148.945251L464.289124,149.279968L464.299622,149.324402L464.36554,149.648865L464.373596,149.696472L464.416809,150.010437L464.42218,150.06366L464.442444,150.367615L464.444153,150.425476L464.441467,150.719177L464.438538,150.780212L464.413147,151.063416L464.404358,151.128601L464.355774,151.401794L464.340881,151.467957L464.269592,151.730652L464.248108,151.797546L464.15387,152.050232L464.126038,152.115662L464.00885,152.357849L463.974915,152.420105L463.834778,152.652039L463.796692,152.709167L463.63385,152.930847L463.591614,152.983337L463.405579,153.194519L463.351624,153.249695L463.292542,153.299255L463.228821,153.342468L463.160706,153.379089L463.089661,153.40863L463.015686,153.430847L462.940002,153.445496L462.863098,153.452332L462.78595,153.451355L462.70929,153.442566L462.634094,153.426208L462.560608,153.402283L462.490051,153.371033L462.472229,153.360779L462.531311,153.483337L462.538391,153.498718L462.955872,154.414978L462.96344,154.432068L463.337463,155.309509L463.34552,155.329041L463.676086,156.167908L463.684387,156.18988L463.971497,156.990173L463.980042,157.01532L464.223694,157.777039L464.232239,157.806091L464.43219,158.529236L464.439758,158.558533L464.599182,159.239441L464.603821,159.260437L464.743469,159.943054L464.747375,159.964294L464.867249,160.648621L464.870667,160.669861L464.971008,161.35614L464.973938,161.377625L465.054749,162.065613L465.056946,162.087585L465.117737,162.777283L465.119446,162.798767L465.160706,163.490173L465.161682,163.511658L465.183411,164.204773L465.183655,164.226501L465.185608,164.92157L465.185364,164.943298L465.167542,165.639832L465.166809,165.661072L465.129456,166.359558L465.127991,166.380798L465.070862,167.081238L465.068909,167.10199L464.992249,167.803894L464.989563,167.824646L464.893127,168.528503L464.890198,168.548523L464.774231,169.254089L464.770569,169.274109L464.634827,169.981384L464.63092,170.000427L464.476379,170.707703L464.471741,170.72821L464.299622,171.423767L464.29425,171.444275L464.104553,172.128601L464.09845,172.149353L463.891174,172.822205L463.884338,172.842957L463.659485,173.504578L463.651917,173.526062L463.409241,174.175964L463.401184,174.196716L463.141174,174.835144L463.132141,174.856384L462.854309,175.483582L462.844543,175.504578L462.549133,176.1203L462.538635,176.141296L462.225647,176.745544L462.214661,176.766052L461.884094,177.358826L461.872375,177.379089L461.524231,177.960632L461.51178,177.980896L461.146057,178.55072L461.133118,178.570251L460.749817,179.128845L460.736145,179.148132L460.335266,179.695251L460.320862,179.71405L459.902161,180.249695L459.884094,180.271912L459.463196,180.770691L459.446838,180.789734L459.010559,181.273376L458.992981,181.291931L458.541321,181.760193L458.523743,181.778015L458.056946,182.23114L458.038635,182.24823L457.556702,182.686218L457.537903,182.70282L457.040588,183.125671L457.021301,183.141296L456.50885,183.549011L456.489319,183.564148L455.961487,183.956726L455.938293,183.973328L455.28717,184.420837L455.265198,184.435486L454.628723,184.841248L454.603333,184.856628L453.981018,185.220154L453.952698,185.236023L453.345032,185.557068L453.320129,185.569519L452.829895,185.806091L452.816223,185.812683L452.331848,186.034607L452.3172,186.040955L451.83844,186.24823L451.823303,186.254578L451.350647,186.447205L451.334534,186.453552L450.867737,186.631531L450.850647,186.637878L450.389709,186.801208L450.371643,186.807312L449.916565,186.95575L449.89801,186.961609L449.448792,187.095642L449.428772,187.101257L448.985413,187.220398L448.965149,187.225525L448.527649,187.330261L448.505432,187.335388L448.263977,187.385681L448.280334,187.399109L448.334534,187.454041L448.382629,187.514343L448.424622,187.579041L448.459778,187.647644L448.487854,187.719666L448.508606,187.793884L448.521545,187.869812L448.526917,187.94696L448.524231,188.023865L448.513977,188.100281L448.495911,188.175476L448.47052,188.24823L448.437805,188.318054L448.398254,188.384216L448.352112,188.445984L448.30011,188.502869L448.242493,188.554138L448.187805,188.594421L447.886536,188.795349L447.821838,188.833923L447.500793,189.004822L447.433411,189.03656L447.092346,189.177429L447.025696,189.201355L446.664612,189.312439L446.598938,189.329529L446.217834,189.410583L446.156067,189.421082L445.755188,189.472351L445.697327,189.477478L445.276184,189.498962L445.222717,189.499939L444.781799,189.491394L444.732971,189.488708L444.272034,189.450134L444.228333,189.445251L443.747375,189.376892L443.708069,189.3703L443.207336,189.272156L443.171692,189.264343L442.650696,189.136169L442.618958,189.127625L442.078186,188.969421L442.049866,188.960388L441.489075,188.7724L441.46344,188.763367L440.882629,188.545349L440.859924,188.536316L440.259094,188.288513L440.24176,188.281189L439.625305,188.008972L439.599915,187.997253L439.018616,187.714539L438.99176,187.700867L438.445862,187.408142L438.417053,187.391785L437.906311,187.088562L437.875793,187.069519L437.400208,186.756042L437.367981,186.733582L436.927795,186.409607L436.894836,186.383972L436.489563,186.049988L436.455139,186.019714L436.085266,185.675476L436.049866,185.64032L435.715393,185.285583L435.680969,185.246521L435.381409,184.881775L435.347229,184.836853L435.083069,184.461609L435.051086,184.412292L434.822083,184.027039L434.792542,183.972595L434.598938,183.576843L434.573792,183.51947L434.4151,183.113708L434.394104,183.052429L434.270813,182.636169L434.255188,182.574158L434.167053,182.147888L434.155334,182.071716L434.151428,181.994568L434.15509,181.917664L434.166809,181.841248L434.186096,181.766541L434.212708,181.694275L434.246399,181.624939L434.28717,181.559509L434.33429,181.49823L434.387268,181.442322L434.445862,181.392029L434.50885,181.347839L434.576233,181.310242L434.647034,181.279724L434.720764,181.256287L434.796204,181.240662L434.872864,181.232605L434.950012,181.232361L435.026672,181.240173L435.102356,181.25531L435.176086,181.278259L435.247131,181.308533L435.304016,181.339294L435.763733,181.613708L436.188538,181.840515L436.202454,181.847107L435.726379,181.48407L435.706848,181.468445L435.124329,180.993103L435.10553,180.977234L434.534241,180.479431L434.51593,180.463074L433.95636,179.943054L433.93927,179.926697L433.39093,179.38446L433.374573,179.367859L432.837708,178.803162L432.822083,178.786316L432.296692,178.199402L432.282043,178.182556L431.768127,177.573425L431.754456,177.55658L431.252014,176.925232L431.238831,176.908142L430.747864,176.254333L430.735901,176.237732L430.256165,175.561707L430.24469,175.545105L429.776428,174.846863L429.765686,174.830505L429.568665,174.51947L429.177307,174.546326L429.12384,174.548035L428.731018,174.547302L428.674377,174.545105L428.295227,174.516052L428.235168,174.508972L427.869934,174.451599L427.80719,174.439148L427.455627,174.35321L427.391907,174.334656L427.05426,174.220154L426.991516,174.19574L426.667542,174.052917L426.606506,174.022644L426.296204,173.851257L426.238831,173.816101L425.942444,173.616394L425.889221,173.577332L425.60675,173.34906L425.559631,173.307556L425.290833,173.050964L425.24884,173.007507L424.993958,172.722351L424.958069,172.678894L424.716858,172.365173L424.686096,172.322449L424.458801,171.980408L424.433411,171.939392L424.219788,171.569031L424.197815,171.527771L424.008118,171.146423L423.986633,171.099548L423.830872,170.724792L423.810608,170.670593L423.68927,170.302185L423.672424,170.243103L423.584778,169.881042L423.571838,169.814636L423.518616,169.459167L423.511536,169.388367L423.492249,169.039246L423.49176,168.964783L423.506409,168.622253L423.513489,168.545349L423.562317,168.208923L423.577454,168.132751L423.660217,167.803162L423.682678,167.729675L423.799622,167.406189L423.828186,167.337341L423.979065,167.020691L424.012512,166.958435L424.197571,166.647888L424.233948,166.592468L424.452942,166.288513L424.490784,166.240417L424.743958,165.94281L424.782043,165.901062L425.069397,165.610046L425.090881,165.589539L424.932678,165.552673L424.858459,165.531433L424.786926,165.502869L424.718567,165.46698L424.654114,165.4245L424.594543,165.375671L424.539856,165.321228L424.491272,165.261414L424.448792,165.19696L424.413147,165.128601L424.392395,165.078552L424.279602,164.778259L424.256165,164.704773L424.240295,164.629333L424.232239,164.552673L424.23175,164.475525L424.239319,164.398865L424.244202,164.374451L424.223938,164.360291L424.165588,164.309753L424.11261,164.253601L424.065735,164.192566L424.024963,164.126892L423.9776,164.023376L423.714417,163.310974L423.691467,163.237244L423.676086,163.161804L423.668274,163.0849L423.668274,163.007751L423.676086,162.931091L423.691711,162.855652L423.701477,162.824158L423.66217,162.792908L423.606995,162.739197L423.557434,162.679871L423.514221,162.61615L423.4776,162.548279L423.448303,162.47699L423.426086,162.403015L423.411438,162.327332L423.404358,162.245544L423.392639,161.87738L423.392639,161.829285L423.400208,161.591248L423.375793,161.593689L423.298645,161.593445L423.221985,161.585388L423.146301,161.569763L423.072815,161.546326L423.002014,161.515808L422.934631,161.47821L422.871399,161.434021L422.813049,161.383728L422.760071,161.327576L422.712952,161.266541L422.67218,161.201111L422.638489,161.131775L422.619202,161.082214L421.942688,159.132263L421.930969,159.095398L421.696594,158.28949L421.689026,158.260925L421.493469,157.476501L421.486389,157.44574L421.329407,156.682312L421.323303,156.648376L421.205383,155.906189L421.2005,155.869812L421.121155,155.148621L421.117737,155.109558L421.076965,154.409607L421.075745,154.367371L421.074036,153.688416L421.075256,153.643738L421.112122,152.985779L421.115784,152.941589L421.195618,152.247009L421.202209,152.202332L421.327454,151.487732L421.335754,151.446716L421.506653,150.712341L421.516418,150.6745L421.733215,149.919861L421.743958,149.885925L422.006165,149.111511L422.017395,149.080017L422.325745,148.285828L422.337219,148.25824L422.690979,147.443787L422.702698,147.417908L423.039368,146.715271L422.817444,146.553162L422.679993,146.53363L422.372131,146.502869L422.085266,146.487L421.802551,146.484314L421.524231,146.495544L421.26593,146.518738L421.013245,146.555603L420.746643,146.609558L420.670227,146.621033L420.593323,146.624695L420.516174,146.620544L420.440002,146.608582L420.365295,146.58905L420.29303,146.562195L420.223938,146.528015L420.158508,146.487L420.097717,146.439636L420.042053,146.386414L419.99176,146.32782L419.948059,146.264343L419.910706,146.196716L419.880432,146.125916L419.857483,146.052185L419.842102,145.976746L419.834534,145.899841L419.834534,145.822693L419.84259,145.746033L419.858215,145.670593L419.881409,145.596863L419.911926,145.526062L419.949524,145.458679L419.985413,145.406189L420.168518,145.16156L420.18927,145.135193L420.39093,144.889099L420.410706,144.865906L420.630676,144.618347L420.650208,144.597107L420.888977,144.348083L420.907043,144.330017L421.163879,144.079529L421.181702,144.062439L421.457336,143.810486L421.473938,143.795837L421.767883,143.542419L421.783752,143.528992L422.096252,143.274109L422.111389,143.262146L422.442444,143.005798L422.456848,142.995056L422.806458,142.737244L422.819641,142.727722L423.187561,142.468445L423.200256,142.459656L423.586731,142.198914L423.598938,142.190857L424.003967,141.92865L424.015198,141.92157L424.438538,141.657898L424.449524,141.651062L424.891663,141.385925L424.901428,141.38031L425.093567,141.268982L423.335266,140.610779L423.264465,140.580017L423.197083,140.542419L423.13385,140.49823L423.0755,140.447693L423.022522,140.391785L422.975647,140.330505L422.93512,140.265076L422.901184,140.19574L422.874573,140.12323L422.85553,140.048523L422.844055,139.972107L422.840393,139.895203L422.844543,139.818054L422.856262,139.741882L422.875793,139.667419L422.902893,139.595154L422.936829,139.525818L422.977844,139.460632L423.025208,139.399597L423.07843,139.343933L423.137024,139.29364L423.2005,139.249695L423.267883,139.212341L423.35553,139.176208L423.868713,139.000427L423.895569,138.991882L424.401672,138.839294L424.431213,138.830994L424.930481,138.702087L424.960754,138.695007L425.452698,138.589294L425.485413,138.582947L425.970276,138.500671L426.004944,138.495544L426.482971,138.436951L426.518616,138.433533L426.989563,138.398132L427.027405,138.396179L427.033264,138.395935L426.969299,138.20282L426.959534,138.171082L426.831116,137.717224L426.822083,137.682068L426.72052,137.244812L426.712463,137.205261L426.638,136.784363L426.631409,136.740173L426.584045,136.335876L426.579895,136.287537L426.559387,135.899353L426.558411,135.84613L426.564758,135.474548L426.568176,135.415466L426.601868,135.059998L426.612854,134.983826L426.631897,134.908875L426.65802,134.836365L426.691467,134.767029L426.73175,134.701355L426.778625,134.639832L426.83136,134.583679L426.889465,134.532898L426.952454,134.488464L427.019592,134.450378L427.090393,134.419617L427.163635,134.395935L427.239075,134.379822L427.315735,134.371277L427.392883,134.370789L427.469788,134.377869L427.545471,134.392761L427.619202,134.415222L427.690247,134.445251L427.758118,134.482117L427.821838,134.525574L427.880676,134.575378L427.936096,134.632751L428.111389,134.8349L428.279602,134.999695L428.45929,135.149353L428.659241,135.290222L428.86676,135.413269L429.098694,135.528015L429.338928,135.62616L429.409973,135.649597L429.471497,135.572205L429.520569,135.516052L429.771057,135.257263L429.826477,135.20575L430.09967,134.974548L430.160217,134.928162L430.45636,134.724548L430.519836,134.685242L430.838928,134.509216L430.903381,134.477722L431.245422,134.329041L431.309143,134.304626L431.673889,134.183533L431.735657,134.16571L432.123352,134.072449L432.180481,134.061218L432.591125,133.995056L432.645081,133.98822L433.078674,133.94989L433.127991,133.947205L433.584534,133.936462L433.628723,133.936707L434.107971,133.953308L434.148743,133.95575L434.65094,134.000183L434.687073,134.004333L435.212219,134.076111L435.244934,134.081238L435.79303,134.180603L435.822815,134.186707L436.22467,134.276306L436.333557,134.25116L436.555481,134.029968L436.638,133.958679L439.005676,132.194763L439.075256,132.148621L439.462952,131.921082L439.497864,131.901794L439.873108,131.707214L439.912903,131.688171L440.274963,131.526306L440.321838,131.507019L440.671204,131.377869L440.725891,131.360046L441.062317,131.263855L441.125061,131.248718L441.448547,131.185242L441.520081,131.174744L441.830627,131.143982L441.911438,131.14032L442.208801,131.142517zM459.912903,148.638367L460.052307,148.864685L460.073303,148.811218L460.108704,148.742859L460.15094,148.678406L460.182434,148.639343L460.168762,148.641541L460.092102,148.649353L460.014954,148.649353L459.938293,148.641785L459.911682,148.636169L459.912903,148.638367zM436.330627,142.343933L436.350647,142.416199L436.53009,142.424988L436.699036,142.306335L436.725891,142.288513L436.739807,142.27948L436.705872,142.28949L436.630188,142.303406L436.553284,142.309753L436.476135,142.308044L436.399475,142.298767L436.32428,142.281677L436.316467,142.278992L436.330627,142.343933zM443.656555,139.921326L442.86676,140.005554L442.094055,140.130798L441.325989,140.299255L440.574768,140.507751L439.827454,140.760193L439.093323,141.05365L439.079651,141.059998L439.449524,140.917419L439.475891,140.907654L439.955139,140.743103L439.981262,140.734558L440.474182,140.5849L440.499817,140.57782L441.006653,140.443054L441.031799,140.436707L441.552551,140.317078L441.576721,140.311951L442.111145,140.207214L442.134338,140.203064L442.682434,140.11322L442.705139,140.109802L443.267395,140.034851L443.289124,140.03241L443.864807,139.972595L443.885803,139.970642L444.475647,139.92572L444.494934,139.9245L445.179016,139.889832L445.206116,139.888855L445.379456,139.886169L445.259827,139.880066L444.45343,139.879578L443.656555,139.921326zM463.060028,148.075684L460.766968,149.127121C461.494568,150.177185,462.183594,151.365051,462.834015,152.690735C463.886841,151.591049,463.961243,150.051788,463.060028,148.075684zM425.406494,140.572266C425.657288,140.671478,425.832306,140.860275,425.932922,141.134506C426.056946,141.434906,425.994934,141.647125,425.74411,141.772537C423.238831,143.198807,421.523193,144.561676,420.595764,145.862549C421.348175,145.687546,422.187408,145.67514,423.113434,145.825348L423.677063,146.237381C423.853455,146.488174,423.890656,146.712799,423.79007,146.912613C422.662842,149.164337,422.02478,151.202454,421.873199,153.028351C421.722992,154.755035,421.986206,156.704956,422.662842,158.882248L423.339447,160.832184C423.715637,158.681061,424.616882,156.842758,426.044525,155.317276L428.074371,153.441757L429.57782,152.353104L429.652222,149.201538C429.777649,147.95166,430.053253,146.975998,430.479065,146.274582L431.343079,146.237381C431.74411,146.512985,431.857086,146.800995,431.682098,147.100021C431.305878,147.750458,431.055084,148.639297,430.929688,149.763779L430.855255,152.690735L429.351837,153.666382C428.199768,154.366425,427.348145,155.067841,426.796936,155.767883C424.917297,158.11882,424.040863,160.269943,424.16626,162.221237C424.842896,160.370529,425.768921,158.694839,426.947144,157.19278C428.300385,155.568069,429.263641,154.642029,429.841034,154.417404C430.16626,154.267212,430.404633,154.304413,430.55484,154.529037C430.705048,154.730225,430.654083,154.917633,430.404633,155.092651L429.464813,155.918091L427.623779,157.79361C426.521332,158.94426,425.456116,160.695755,424.429474,163.046692L424.692688,163.759125C425.468506,161.883621,426.395935,160.382935,427.473572,159.25708C428.374786,158.281433,429.176819,157.643402,429.878235,157.342987C430.153839,157.218964,430.328857,157.318176,430.404633,157.643402C430.479065,157.943817,430.328857,158.219421,429.952637,158.468842L428.148804,159.932312L426.307739,162.408661L424.993103,164.510162L425.106079,164.810577L425.74411,164.959412C426.120331,165.134415,426.182343,165.43483,425.932922,165.860641C424.129059,167.361328,423.777649,169.137619,424.880096,171.188141C425.982513,173.240036,427.67337,174.077881,429.952637,173.701675C432.358704,177.604279,435.251221,180.55603,438.634277,182.556946C439.535522,183.057175,439.461121,183.294205,438.408295,183.269394C437.355469,183.219788,436.19104,182.793976,434.913574,181.993332C435.289795,184.294662,437.16806,186.159149,440.549774,187.58403C443.807434,188.985504,446.212128,189.110901,447.765167,187.960236L445.284698,187.62262C444.007263,187.322205,443.406433,187.059006,443.480835,186.834381L445.848328,186.908798C447.97876,186.859192,450.358643,186.183945,452.989319,184.883087C453.789948,184.483444,454.629181,183.969437,455.506989,183.345184C456.934631,182.318542,458.199677,181.130676,459.302094,179.780212C461.58139,176.953842,463.109619,173.639664,463.886841,169.837662C464.662689,166.060455,464.600677,162.359039,463.698059,158.732056C463.222626,156.855164,462.282806,154.567612,460.879974,151.86528C458.775696,147.813858,456.471619,144.886902,453.966339,143.0858C451.360474,141.235092,448.21579,140.434464,444.533661,140.685257C441.351776,140.885071,438.759705,141.722931,436.754639,143.198807L436.003601,143.161591C435.777618,143.011383,435.639801,142.797791,435.59021,142.52356C435.088593,140.02243,434.02475,138.458344,432.395905,137.832718C432.044495,137.68251,431.869507,137.420685,431.869507,137.045868C431.869507,136.644852,432.09549,136.519455,432.546112,136.669662C434.475372,137.395889,435.802429,139.021973,436.530029,141.547913C440.462952,139.071579,444.846497,138.483154,449.682007,139.784027C454.491364,141.084885,457.948883,143.785843,460.053131,147.88826C461.180359,147.762863,462.383392,147.237823,463.660828,146.313171C464.563446,145.662735,465.238708,145.0495,465.690704,144.47348C464.662689,144.349457,463.698059,144.073853,462.796814,143.648041L462.346191,143.236008C462.195984,143.036194,462.1698,142.83638,462.270386,142.635178C463.097229,140.759674,463.611237,138.970978,463.811035,137.270477L462.007202,138.133133C461.756378,138.233734,461.506958,138.170334,461.256165,137.945724C461.054962,137.7211,460.95575,137.482697,460.95575,137.233276C460.930939,135.381195,460.104126,133.880508,458.475281,132.729843C458.950714,134.005905,459.076111,135.331589,458.851501,136.708237C458.825317,136.957672,458.67511,137.070663,458.399506,137.045868C458.174866,137.045868,457.986084,136.957672,457.835876,136.782654C456.784424,135.506592,455.819794,134.732132,454.943359,134.456528C456.019623,136.006821,456.14502,137.558487,455.318207,139.10878C455.218994,139.283798,455.054993,139.359589,454.830383,139.333405L454.341156,139.071579C453.690735,138.270935,452.738525,137.7211,451.48587,137.420685C449.731628,137.019684,448.680176,136.733047,448.328796,136.558029C447.777588,136.282425,446.812958,135.394974,445.434906,133.892914C444.258057,132.643036,443.18045,131.980194,442.2034,131.904404C441.427582,131.854797,440.512543,132.155197,439.461121,132.805634L437.093628,134.569519L436.717438,134.944351L436.228241,135.057358C433.122131,134.30632,430.993073,134.732132,429.841034,136.332031C429.715637,136.457443,429.56543,136.494644,429.389038,136.445038C428.537415,136.194229,427.860779,135.757401,427.360565,135.13176C427.235168,136.0578,427.397766,137.157486,427.848389,138.433548L427.848389,138.921371L427.510773,139.145996C426.282928,139.145996,424.980682,139.39679,423.602661,139.897018L425.406494,140.572266zM430.102844,164.922195C430.078064,165.22261,429.915436,165.360413,429.615021,165.335602C429.314606,165.335602,429.176819,165.134415,429.20163,164.734787C429.22641,164.359955,429.415222,163.985138,429.765228,163.608917L430.629272,162.859268C430.880066,162.733871,431.079895,162.795883,431.231476,163.046692C431.381683,163.296112,431.343079,163.497299,431.118469,163.646133L430.592072,164.096756L430.102844,164.922195zM430.742249,159.969528C430.968262,159.8703,431.14328,159.944717,431.268677,160.195526C431.418884,160.444946,431.318298,160.68335,430.968262,160.907974L429.539246,161.920822L428.374786,163.2341C427.973785,163.734329,427.736755,163.859726,427.66098,163.608917L427.998596,162.558868L428.938416,161.282791C429.514435,160.632355,430.116638,160.195526,430.742249,159.969528zM430.328857,143.011383C430.429443,142.635178,430.717468,142.511154,431.192871,142.635178C431.644867,142.76059,432.056915,143.0858,432.433105,143.61084C432.809326,144.111069,433.035309,144.549286,433.109741,144.924103C433.210327,145.274124,433.08493,145.500122,432.733521,145.59935C432.383514,145.699936,432.145111,145.586945,432.019714,145.261719L431.606293,144.549286C431.305878,144.049057,431.017883,143.761047,430.742249,143.68663C430.366058,143.586029,430.228271,143.361404,430.328857,143.011383zM432.470337,140.234634L433.786346,141.69812C434.411987,142.573166,434.788177,143.435822,434.913574,144.286072C434.98938,144.586487,434.851563,144.786301,434.500183,144.886902C434.123962,144.987488,433.848358,144.798706,433.67334,144.324661L433.410156,143.61084L432.846527,142.297562L431.531891,140.535049C431.030273,139.884613,430.943451,139.546997,431.268677,139.522202C431.51947,139.496017,431.920471,139.734421,432.470337,140.234634zM452.274109,161.546005C453.351746,162.67186,454.053162,163.509705,454.379761,164.05954C455.081177,165.185394,455.231384,166.185852,454.830383,167.060913C454.404572,167.962143,453.777557,168.511993,452.950714,168.711792L451.185455,168.524384C450.759644,168.32457,450.683868,167.311707,450.959473,165.485809C451.235077,163.659912,451.673279,162.346649,452.274109,161.546005zM461.068756,156.330124C461.619965,157.155579,461.719177,158.394424,461.369171,160.045319C461.017761,161.721008,460.229523,162.733871,459.001709,163.083893C457.773865,163.433914,456.583252,162.946091,455.431183,161.620422C454.053162,160.094925,453.439941,158.269028,453.590149,156.142715C453.740356,153.866196,454.943359,153.141342,457.197845,153.966797C459.226318,154.716446,460.517548,155.504684,461.068756,156.330124zM456.371033,155.955307C455.418793,156.155121,455.155579,157.130768,455.58139,158.882248C456.007202,160.407745,456.683838,161.070587,457.611267,160.870758C458.137665,160.770172,458.524902,160.432541,458.775696,159.85791C459.001709,159.306686,459.026489,158.694839,458.851501,158.018219C458.67511,157.318176,458.349884,156.768341,457.874451,156.36734C457.372864,155.967697,456.871246,155.829895,456.371033,155.955307zM449.268616,171.751755C451.323273,171.601547,453.339325,171.900574,455.318207,172.651611C457.372864,173.427444,458.925903,174.502319,459.978729,175.877594C460.203339,176.153198,460.229523,176.377823,460.053131,176.554214C460.00354,176.729233,459.853333,176.791245,459.602509,176.741638C456.721039,176.216599,453.828552,176.20282,450.922241,176.703049C447.915375,177.203278,445.197876,178.19133,442.767029,179.667206C442.542419,179.817413,442.316406,179.755402,442.090393,179.479797L441.752777,178.767349C441.777588,174.440308,444.282867,172.101776,449.268616,171.751755zM446.088928,177.199402L446.069641,177.21991L446.139465,177.192566L446.09967,177.18573L446.088928,177.199402zM445.510712,176.703049L445.510712,174.489914C444.333862,175.340164,443.569031,176.416412,443.219025,177.717285L445.510712,176.703049zM448.855194,173.139435C447.902985,173.339249,447.03894,173.639664,446.261719,174.039291L446.261719,176.441223L448.855194,175.690186L448.855194,173.139435zM449.606232,173.026443L449.606232,175.539978L453.100922,175.090744L453.100922,173.139435L449.606232,173.026443zM442.2034,156.029709C445.736694,154.203812,447.802368,154.491821,448.404572,156.893738C448.955811,158.993881,448.503784,161.082977,447.051331,163.159683C445.973724,164.685181,444.583282,165.410019,442.880035,165.335602C441.201569,165.259811,439.848328,164.446777,438.821716,162.896484C437.795074,161.346191,437.493286,160.132141,437.920471,159.25708C438.371094,158.35585,439.798737,157.280975,442.2034,156.029709zM444.187073,157.041931L444.257141,157.048035L444.465637,157.076111L444.542786,157.090515L444.736877,157.13739L444.820374,157.162781L445.000061,157.228699L445.083069,157.264832L445.248596,157.34906L445.333557,157.399353L445.484436,157.502625L445.561584,157.563171L445.698303,157.685242L445.765686,157.753601L445.888,157.894226L445.944397,157.967468L446.052307,158.127136L446.095764,158.19989L446.18927,158.378113L446.221252,158.447449L446.300598,158.64447L446.323792,158.710388L446.388489,158.926208L446.403625,158.985291L446.453918,159.21991L446.463196,159.271912L446.499329,159.525085L446.504456,159.572693L446.52594,159.84491L446.528137,159.885681L446.535461,160.176453L446.535461,160.21283L446.528137,160.539734L446.526428,160.576111L446.504944,160.882019L446.500793,160.9245L446.464661,161.209167L446.457336,161.255798L446.407043,161.519714L446.394836,161.573669L446.330139,161.816101L446.31134,161.876404L446.231995,162.098083L446.205139,162.163513L446.111633,162.363953L446.074036,162.434265L445.966125,162.613708L445.915833,162.687195L445.793518,162.845398L445.73053,162.917175L445.593811,163.054382L445.519104,163.1203L445.368225,163.236511L445.282288,163.29364L445.11676,163.388611L445.027649,163.432312L444.847961,163.506287L444.757629,163.537048L444.563538,163.589783L444.478577,163.607849L444.270081,163.639587L444.191223,163.6474L443.968567,163.657898L443.898254,163.657898L443.639709,163.646179L443.567688,163.639587L443.318665,163.604431L443.243225,163.589783L443.003723,163.530945L442.929504,163.508484L442.699036,163.426208L442.626526,163.396179L442.405823,163.29071L442.337219,163.253601L442.125793,163.124451L442.063538,163.08197L441.861633,162.929382L441.80719,162.883972L441.614807,162.708191L441.566956,162.660583L441.390686,162.468201L441.34552,162.414001L441.192688,162.212585L441.150208,162.15033L441.020813,161.939392L440.983215,161.870789L440.877502,161.650574L440.847229,161.577576L440.764954,161.347839L440.742493,161.273376L440.683655,161.034607L440.669006,160.959656L440.633606,160.711121L440.62677,160.638367L440.615051,160.380554L440.615051,160.311462L440.62677,160.053162L440.633606,159.980164L440.669006,159.731628L440.683411,159.657166L440.742249,159.417908L440.764954,159.342957L440.847229,159.11322L440.877502,159.040466L440.983215,158.820007L441.020813,158.75116L441.150208,158.540222L441.192444,158.478455L441.345276,158.276794L441.39093,158.221863L441.5672,158.029724L441.614807,157.982361L441.80719,157.80658L441.861633,157.761169L442.063538,157.608582L442.125793,157.566101L442.337219,157.436951L442.405334,157.400085L442.626038,157.294373L442.699524,157.263855L442.929993,157.181824L443.003723,157.159607L443.243225,157.100769L443.318665,157.086121L443.567688,157.050964L443.639709,157.044373L443.898254,157.032654L443.964417,157.032654L444.187073,157.041931z"/>
</svg>
