<?xml version="1.0" encoding="UTF-8"?>
<svg xmlns="http://www.w3.org/2000/svg" xmlns:xlink="http://www.w3.org/1999/xlink" width="45.947mm" height="58.709mm" viewBox="-336.616455 130.964859 45.946716 58.708908">
    <path transform="matrix(-1,0,0,1,0,0)" style="stroke:none;fill:#000000;fill-rule:evenodd" d="M315.99054,131.196304L316.067444,131.202652C318.123688,131.557022,320.114563,132.220047,321.972717,133.169205C322.554993,133.471878,323.118408,133.809402,323.659973,134.179947C323.955688,134.412369,324.038391,134.826065,323.8526,135.153091L323.81134,135.218277C323.753052,135.302017,323.678375,135.373306,323.590881,135.425797L324.076233,135.526382C325.721741,135.859238,327.292175,136.491501,328.70929,137.391617C330.993073,138.918503,332.843781,141.009445,334.082092,143.461685C335.141479,145.668503,335.704712,148.080551,335.731995,150.528336C335.767914,151.616409,335.711975,152.705582,335.56427,153.784195C335.461609,154.115555,335.148865,154.336472,334.802307,154.321304C334.600281,154.307053,334.410034,154.220413,334.27179,154.072281L334.089417,153.871353L334.245667,154.220718C334.886475,155.680588,335.422485,157.184219,335.84967,158.72023C336.921387,163.077591,336.871246,167.635788,335.703918,171.968521C334.858246,175.322372,333.292236,178.451981,331.114807,181.13942C331.084381,181.16893,331.053406,181.197861,331.01886,181.222427C329.877533,182.643784,328.537598,183.893448,327.0401,184.932877L324.439758,186.517593C322.948792,187.259628,321.382111,187.838394,319.766907,188.244156C319.570129,188.261765,319.372589,188.228348,319.189514,188.154068C319.201813,188.191574,319.211121,188.229416,319.228577,188.26442L319.244202,188.340103C319.298279,188.696976,319.095276,189.042557,318.757629,189.170181C317.517395,189.672714,316.157959,189.80452,314.844543,189.548355C312.422424,189.083817,310.084656,188.255173,307.910706,187.090591C306.570679,186.344742,305.325836,185.439346,304.20343,184.394302C301.739777,182.131241,299.749023,179.402451,298.346252,176.365494C297.987488,175.60939,297.663879,174.837082,297.376526,174.051041C297.353027,174.078445,297.330811,174.106918,297.309387,174.136002L297.254211,174.189713C296.989929,174.422836,296.600037,174.443344,296.312073,174.24025C294.541199,173.12236,293.540955,171.111435,293.717346,169.024673C293.791199,168.292801,294.045166,167.590988,294.456604,166.981216C294.689941,166.738144,295.056152,166.679031,295.354309,166.835953L295.171692,165.685318C295.106506,165.279343,295.05545,164.871231,295.01886,164.461685C294.946747,163.706802,295.020081,162.945084,295.235657,162.218033L293.868958,165.130142C293.781433,165.319473,293.618683,165.462875,293.420685,165.528458C293.222717,165.59404,293.006531,165.576187,292.821838,165.479263C292.669739,165.397415,292.548004,165.268173,292.480042,165.10939C291.615112,163.274368,291.043854,161.314835,290.78717,159.302505C290.483307,156.656235,290.770386,153.975388,291.627502,151.453384C291.852417,150.772171,292.109253,150.101852,292.397278,149.444839C292.561676,149.111008,292.816864,148.830368,293.133606,148.635025C293.106079,148.473251,293.107697,148.308029,293.136536,148.1465C292.821442,147.95726,292.685242,147.570755,292.81427,147.226578C293.224548,146.071426,293.856262,145.007339,294.674133,144.094254C295.026001,143.687729,295.402679,143.303329,295.802063,142.943375C295.763733,142.725693,295.764038,142.502945,295.803284,142.285416C295.437836,142.134171,295.246948,141.730576,295.364075,141.352798C295.577637,140.672867,295.882935,140.025223,296.271057,139.427505C296.601563,138.880142,296.95105,138.344528,297.318909,137.821548L299.376282,135.232193C299.548706,135.043472,299.738098,134.871048,299.941956,134.716812C301.635773,133.226456,303.627441,132.11348,305.784485,131.452164C306.580322,131.209,307.398376,131.0457,308.226624,130.964859L315.99054,131.196304zM294.80304,167.910416C294.388947,168.84581,294.335999,169.901474,294.65387,170.873795C295.000061,172.010788,295.744781,172.98497,296.751038,173.617447C295.987,171.638565,295.402222,169.595016,295.003723,167.51149L294.80304,167.910416zM307.648743,131.805435C305.380432,132.19249,303.239685,133.123642,301.409973,134.519058C300.911438,134.890518,300.431763,135.286728,299.972961,135.706314L297.915588,138.29567C297.300934,139.142532,296.762512,140.042221,296.306702,140.984146C296.219055,141.176956,296.146942,141.376511,296.091125,141.580826C300.078674,138.427811,304.753662,136.259659,309.736389,135.252457C313.538086,134.488602,317.428741,134.267197,321.292542,134.594742C321.925781,134.644028,322.557861,134.705399,323.188782,134.778824C321.594482,133.71904,319.839325,132.923965,317.991272,132.424332C317.324188,132.238358,316.649017,132.082779,315.967834,131.958023L308.203918,131.726578L307.648743,131.805435zM306.533752,145.560562C304.367676,145.829147,302.226563,146.270248,300.130676,146.879654C298.463318,147.322708,296.818848,147.84761,295.203186,148.452652C294.579803,148.674789,293.987793,148.9767,293.441956,149.350845C293.298096,149.447922,293.181702,149.580429,293.102112,149.734634C292.282745,151.557358,291.749603,153.495621,291.521545,155.480972C291.257263,157.996262,291.562561,160.538986,292.414856,162.920181C292.639221,163.560806,292.894318,164.190292,293.17926,164.806412L294.847961,161.250992L295.056702,160.606705C295.619446,159.127121,296.384033,157.732407,297.328674,156.462173L297.877014,155.725113L298.332336,155.062515C299.436584,153.438278,300.709473,151.935226,302.1297,150.578629C303.799683,149.101334,305.582794,147.757156,307.462708,146.558365C308.118103,146.127457,308.77948,145.704575,309.445618,145.290543L306.533752,145.560562zM303.073792,152.38356C301.470215,153.864365,300.003479,155.486832,298.691467,157.231216L296.012512,162.25563C295.787689,162.953201,295.708466,163.689499,295.779602,164.418961C296.120361,167.50029,296.851074,170.525894,297.954163,173.423111C298.952881,176.281509,300.432068,178.948532,302.327942,181.309341C303.750336,183.075821,305.437988,184.611099,307.330872,185.860367C309.335022,187.09758,311.52655,188.001663,313.820129,188.537369C314.548828,188.749954,315.300385,188.874496,316.058655,188.908951C316.892517,188.934464,317.722229,188.780289,318.491028,188.456314C314.151245,187.213211,310.410645,184.434586,307.966858,180.638931C306.540497,178.416122,305.443298,175.998703,304.70929,173.461685C303.597748,169.668015,303.020172,165.738022,302.993225,161.784927C302.967499,158.407242,303.24292,155.034103,303.816223,151.705338L303.073792,152.38356zM316.902649,135.846695C313.739868,136.079117,310.613403,136.667587,307.582581,137.601089C304.113434,138.595108,300.834595,140.161484,297.881409,142.235611C296.629944,143.103836,295.528442,144.170425,294.620422,145.393326C294.155396,146.03624,293.787262,146.744003,293.527893,147.493912C297.737915,145.569656,302.250763,144.392746,306.864319,144.015884C308.36908,143.899979,309.879456,143.874191,311.387268,143.938736L311.774475,143.938736L311.930237,143.97731L312.874084,144.037369C317.977509,144.429916,322.959717,145.788834,327.555725,148.041763C329.43161,148.97377,331.184753,150.13472,332.774963,151.498062C333.510315,152.13533,334.199097,152.824417,334.835999,153.560074C335.119141,151.281357,334.995697,148.970444,334.471252,146.734879C333.708069,143.665604,331.963593,140.929001,329.503235,138.941666C328.026367,137.690292,326.270264,136.812271,324.383118,136.381363C323.580658,136.183609,322.766663,136.036026,321.945862,135.939224L318.180969,135.784927L316.902649,135.846695zM312.473206,145.251968L305.563782,149.773209L305.563782,150.004898L305.344543,151.080338C304.606567,154.687119,304.195007,158.353073,304.114807,162.033707C304.05014,164.449234,304.24057,166.864944,304.682922,169.240494C305.528442,173.704849,307.459229,177.892593,310.305237,181.434586C311.611877,183.056229,313.1828,184.445877,314.951721,185.544937C316.40802,186.435928,317.995361,187.092422,319.655579,187.49025C321.169128,187.098434,322.63916,186.554581,324.043274,185.866959L326.643616,184.282242C328.125916,183.244919,329.447479,181.99498,330.565491,180.572525L330.565491,180.611099C332.800537,177.820755,334.36615,174.55513,335.141907,171.065201C336.107635,167.06398,336.095795,162.888809,335.107483,158.893082C334.535889,156.871384,333.782196,154.905685,332.855774,153.020035C331.489166,151.72966,329.955872,150.628159,328.296936,149.744644C325.959015,148.506607,323.496246,147.520493,320.950012,146.80275C319.68869,146.436417,318.415527,146.112686,317.132385,145.832047L312.551819,145.17482L312.473206,145.251968zM313.718567,149.041519L313.871155,149.077652C314.452179,149.280319,314.993958,149.580856,315.473206,149.966812C315.569122,150.026077,315.62915,150.129654,315.638245,150.242203L315.617737,150.314957L314.647766,150.507828L312.900452,151.087906L311.580139,152.285416L310.765686,153.020035L310.715637,152.76857C310.705505,152.343307,310.825684,151.925034,311.06012,151.570084C311.299377,151.175949,311.577881,150.807083,311.891663,150.469254L313.406067,149.077408C313.502563,149.027634,313.613678,149.01329,313.718567,149.041519zM324.664612,149.580338C326.034729,150.312057,327.180817,151.399673,327.982971,152.729752C328.038818,152.824295,328.064392,152.933975,328.055969,153.043472L328.01593,153.146255C327.960327,153.214737,327.866211,153.230362,327.786926,153.19313C327.447754,152.988571,327.140991,152.734573,326.876526,152.439713L325.440491,151.319351C324.652893,151.201004,323.863037,151.099594,323.071106,151.015152L322.795471,150.971451C322.532532,150.937088,322.280334,150.84523,322.057678,150.701187C321.840485,150.509384,321.777344,150.196426,321.907532,149.937515C322.037964,149.729416,322.227203,149.564743,322.451477,149.464615L324.664612,149.580338zM326.489075,155.570816C327.46637,155.867783,328.376129,156.353134,329.166809,156.999771L330.719788,158.430191C330.774963,158.476578,330.805725,158.545761,330.803284,158.617813C330.800903,158.689835,330.765625,158.756821,330.710999,158.804214C330.610046,158.881851,330.494324,158.937943,330.371155,158.97023L329.478088,159.008804L325.983459,157.618423C325.78186,157.510391,325.675079,157.283798,325.720276,157.059586C325.776031,156.544052,325.966827,156.052811,326.273987,155.635025C326.329407,155.576279,326.410889,155.549484,326.489075,155.570816zM314.262268,156.589615C314.46228,156.596359,314.642761,156.710526,314.73761,156.886734C315.040161,157.384262,315.171661,157.966537,315.113586,158.545914C314.970978,158.780045,314.745789,158.951279,314.482971,159.029068C314.207947,159.143112,313.926056,159.239883,313.638977,159.318863L311.697327,159.820572C311.285156,160.012711,310.878662,160.216843,310.478333,160.432632L310.355286,160.489761C310.184509,160.583908,309.983765,160.60643,309.795715,160.554947C309.749573,160.520767,309.714355,160.472916,309.712708,160.41481C309.746155,160.176407,309.839844,159.950546,309.984436,159.758072C310.095703,159.581375,310.213806,159.409073,310.338684,159.241714L312.085999,157.502701C312.634094,157.120346,313.238708,156.825912,313.877747,156.630386C314.003052,156.597275,314.132751,156.583939,314.262268,156.589615zM320.937073,156.380875L322.917297,158.777359L324.97467,160.593765L326.372131,161.713882L326.68219,162.217056L326.68219,162.797134L325.673401,165.346451C325.43634,165.843155,324.893738,166.118057,324.353088,166.014908C324.171143,166.005447,323.992065,165.963882,323.82428,165.892838C323.656494,165.797989,323.581085,165.596115,323.648499,165.415543L323.693176,165.269302L324.547424,163.337418C324.731476,162.948929,324.653137,162.486588,324.353333,162.178482L322.33429,159.820572C321.488037,158.819962,320.747131,157.734787,320.123352,156.582291C320.047241,156.447311,320.016113,156.291641,320.03595,156.137955C320.054504,156.05336,320.118591,155.987228,320.199768,155.956558L320.937073,156.380875zM315.771545,167.991714L315.880676,168.011002C316.014343,168.039352,316.134705,168.114151,316.214172,168.225082C316.293701,168.336044,316.325806,168.474075,316.304504,168.608902C316.286987,168.749405,316.252563,168.887283,316.200745,169.019058L315.92926,169.559097C316.332703,169.890152,316.786224,170.155228,317.272766,170.344009C317.450195,170.413193,317.642456,170.437057,317.830872,170.409439L319.461243,170.100845C320.266083,169.936996,321.048462,169.677536,321.791565,169.327652L322.499817,169.018326C323.371826,168.662033,324.279602,168.400589,325.207581,168.238541C325.996704,168.092911,326.805847,168.093155,327.595032,168.238541C328.812744,168.563553,330.009644,168.961929,331.17926,169.431412C331.280792,169.471237,331.375061,169.527206,331.458313,169.597672L331.466125,169.637711L331.450745,169.679947C331.288483,169.829422,331.090332,169.934464,330.875549,169.984879L329.749573,170.486588C329.167847,170.939316,328.690796,171.512192,328.350891,172.166275C327.967102,172.86586,327.643036,173.596512,327.382141,174.350601L328.15802,176.361099C328.483032,177.209518,328.712524,178.091507,328.842346,178.990738C328.862885,179.182419,328.868011,179.375443,328.85675,179.567886C328.676147,180.844284,328.103577,182.032822,327.216858,182.968521C326.47406,183.74324,325.473755,184.220963,324.404358,184.312027C323.575195,184.44017,322.726898,184.359207,321.937073,184.076187C321.20816,183.803665,320.616608,183.253098,320.291809,182.545914C320.145752,182.246567,320.023987,181.935989,319.928284,181.616959L319.57843,179.722183L319.888489,177.327164C319.974243,176.582169,319.76532,175.833023,319.306946,175.239517L319.079895,174.931168C318.398224,174.047287,317.803284,173.099808,317.303284,172.101822C317.232605,171.927048,317.163666,171.75145,317.096741,171.575211L317.028137,171.498795C316.69397,171.248306,316.323425,171.050369,315.92926,170.912369L314.803528,170.525162L314.524231,170.827164C314.28186,171.109421,313.984741,171.339615,313.650696,171.503433C313.477753,171.589127,313.266968,171.528305,313.169739,171.361588C312.922333,170.992264,312.89209,170.518723,313.092834,170.122086C313.318359,169.636887,313.653503,169.210831,314.071838,168.877213C314.451385,168.507706,314.903046,168.220413,315.398743,168.033707C315.519165,167.99614,315.645691,167.982712,315.771545,167.991714zM320.627014,175.472427C320.832245,176.042892,320.950256,176.641129,320.975891,177.246841C320.966187,177.512589,320.931152,177.776779,320.870422,178.03566L320.825745,178.404068C320.716919,179.615189,320.923004,180.833817,321.424377,181.941666C321.770874,182.734909,322.525543,183.274429,323.388245,183.345474C324.891235,183.539047,326.356049,182.775528,327.058655,181.432877C327.526245,180.57756,327.697571,179.591324,327.54718,178.628189C327.424713,177.601944,327.064392,176.618698,326.49469,175.756363C326.348694,175.548355,326.161438,175.372452,325.944885,175.239517L325.169006,174.969254L325.207581,175.433853L326.100647,177.442886C326.304626,177.951859,326.394226,178.499496,326.362122,179.04689C326.326965,179.48967,326.138763,179.906631,325.829163,180.225113C325.796844,180.272202,325.738647,180.294601,325.683167,180.281021C325.582458,180.218155,325.521576,180.110153,325.501282,179.992935C325.406586,179.617661,325.342712,179.235275,325.309875,178.849625L325.246887,178.471695C325.168762,177.900284,324.970154,177.351944,324.664612,176.862808C324.165527,176.255661,323.554016,175.750748,322.863586,175.375259C322.154327,174.933395,321.388977,174.588638,320.587952,174.350601L320.394104,174.312027L320.627014,175.472427z"/>
</svg>
