<?xml version="1.0" encoding="UTF-8"?>
<svg xmlns="http://www.w3.org/2000/svg" xmlns:xlink="http://www.w3.org/1999/xlink" width="45.962mm" height="58.707mm" viewBox="-271.874329 130.965866 45.961807 58.707489">
    <path transform="matrix(-1,0,0,1,0,0)" style="stroke:none;fill:#000000;fill-rule:evenodd" d="M251.233246,131.197311L251.31015,131.203659C253.366455,131.557816,255.357361,132.22084,257.215424,133.170212C257.797668,133.472885,258.361115,133.81041,258.902679,134.180954C259.197845,134.413528,259.279114,134.82634,259.095306,135.154099C259.031616,135.26503,258.941925,135.35881,258.833588,135.426804L259.318939,135.52739C260.964417,135.860306,262.534912,136.492477,263.951996,137.392624C266.242615,138.925308,268.09967,141.022446,269.343842,143.481735C270.404053,145.685562,270.964447,148.096298,270.984955,150.541794C271.018036,151.627121,270.958191,152.713272,270.806,153.788376C270.700409,154.118454,270.388031,154.338089,270.04184,154.322067C269.777069,154.30336,269.536621,154.160049,269.391449,153.93779L269.512054,154.196335C273.002991,161.876541,272.610931,170.761887,268.457123,178.104782C267.837402,179.199966,267.115509,180.234085,266.301117,181.193405L266.261322,181.223679L265.972015,181.578415C264.542938,183.248947,262.852356,184.676682,260.966156,185.805954C259.132233,186.899521,257.147644,187.716934,255.075531,188.232224C254.873718,188.272812,254.663986,188.249954,254.475677,188.166794C254.475922,188.201981,254.489883,188.235794,254.509857,188.265671L254.525482,188.34111C254.5802,188.701309,254.373077,189.049789,254.030609,189.174118C252.61145,189.737198,251.048523,189.82814,249.573578,189.43364C247.335724,188.950882,245.176483,188.156845,243.159027,187.074753C241.830658,186.333023,240.596832,185.433304,239.484467,184.395309C237.017288,182.130936,235.019165,179.403854,233.603607,176.368942C233.240753,175.611435,232.912704,174.837784,232.620453,174.050339L232.587494,174.095993C232.334991,174.408798,231.88327,174.472977,231.554779,174.241257C229.784027,173.123184,228.783691,171.112442,228.960052,169.025681C229.033585,168.293747,229.287521,167.591782,229.69931,166.982224C229.938705,166.734543,230.314758,166.679092,230.615814,166.846481L230.600189,166.766403C230.452667,166.00502,230.339676,165.237228,230.261566,164.465622C230.222473,163.703781,230.298477,162.940414,230.486908,162.201218L229.111664,165.131149C228.939941,165.498611,228.509918,165.666153,228.134369,165.512985C227.949951,165.437607,227.80278,165.292831,227.722748,165.110397C226.857788,163.275406,226.286514,161.315872,226.029877,159.303513C225.726135,156.657211,226.013168,153.976395,226.870209,151.454391C227.095093,150.773148,227.351959,150.10289,227.639984,149.445847C227.790558,149.146011,228.012131,148.887558,228.285248,148.692673C228.333817,148.519669,228.415863,148.358017,228.525482,148.215622L228.472015,148.195847C228.097015,148.035751,227.913452,147.609238,228.056976,147.227585C228.467651,146.072647,229.099457,145.008743,229.91684,144.095261C230.345322,143.602066,230.808578,143.140182,231.30307,142.713181C231.26709,142.592087,231.252975,142.465591,231.262543,142.339645C231.033417,142.319809,230.82663,142.195724,230.6996,142.004044C230.572571,141.812332,230.53891,141.573532,230.606781,141.353806C230.820343,140.673721,231.125671,140.025864,231.514252,139.428268C232.38356,137.974899,233.391556,136.609329,234.524261,135.350388C236.208862,133.703506,238.230072,132.440994,240.449066,131.649704C241.425323,131.303421,242.439117,131.073898,243.46933,130.965866L251.233246,131.197311zM230.045746,167.911423C229.631927,168.846909,229.578857,169.902451,229.896576,170.874802C230.242798,172.011795,230.987488,172.985947,231.993744,173.618454C231.260086,171.629471,230.676041,169.588516,230.246429,167.512497L230.045746,167.911423zM242.88681,131.810837C240.424774,132.245071,238.117218,133.309799,236.189056,134.901169C235.280762,135.603195,234.484467,136.439682,233.827972,137.381393C232.947876,138.50206,232.184418,139.709518,231.549408,140.985153C231.462189,141.178146,231.390076,141.37764,231.333832,141.581833C235.880981,137.983688,241.307068,135.665451,247.050385,134.867233C250.824127,134.343307,254.650146,134.31395,258.431488,134.779831C256.837189,133.720047,255.082031,132.924942,253.233978,132.425339C252.566925,132.239365,251.891724,132.083725,251.210541,131.95903L243.446625,131.727585L242.88681,131.810837zM241.776459,145.561569C239.610352,145.830124,237.469269,146.271225,235.373383,146.880661C233.706024,147.323715,232.061554,147.848679,230.445892,148.453659C229.822418,148.675583,229.230408,148.977524,228.684662,149.351852C228.540558,149.448654,228.423767,149.581039,228.344818,149.735641C227.525421,151.558334,226.992249,153.496597,226.764252,155.481979C226.499893,157.997269,226.805313,160.540024,227.657806,162.921188C227.881973,163.561905,228.137024,164.19133,228.421967,164.807419L230.090668,161.251999L230.291595,160.632858C230.751343,159.432358,231.351013,158.290329,232.078217,157.23027C232.421555,156.717087,232.781754,156.215439,233.158295,155.72612C234.353424,153.831863,235.780777,152.094498,237.407074,150.554489C239.088791,149.071976,240.88472,147.724289,242.778168,146.523972C243.422455,146.104416,244.071716,145.693832,244.726898,145.29155L241.776459,145.561569zM238.316498,152.384567C236.712891,153.865341,235.246155,155.487808,233.934174,157.232224C232.960846,158.8629,232.066803,160.539688,231.255219,162.256638C231.065903,162.961319,230.987305,163.691147,231.022308,164.419968C231.505859,168.43541,232.606812,172.351669,234.286469,176.030807C235.777039,179.242722,237.94342,182.095078,240.637543,184.392868C242.415543,185.904678,244.465424,187.063889,246.677338,187.808395C247.849899,188.21904,249.048416,188.551437,250.264984,188.803513C251.442978,189.028458,252.66095,188.908066,253.772308,188.457321C249.43277,187.213913,245.692215,184.43541,243.248383,180.639938C241.821945,178.41716,240.72467,175.999741,239.99057,173.462692C238.879333,169.668625,238.298004,165.739243,238.263031,161.785934C238.230255,158.409164,238.496582,155.036118,239.058929,151.706345L238.316498,152.384567zM252.145355,135.847702C248.982574,136.080124,245.856155,136.668625,242.825287,137.602097C239.356155,138.596115,236.077271,140.162521,233.124115,142.236618C231.872635,143.104935,230.771057,144.171463,229.862885,145.394333C229.397919,146.037277,229.029846,146.74501,228.770599,147.494919C232.643677,145.733383,236.770767,144.594589,240.999115,144.120651C242.868927,143.91954,244.751129,143.859055,246.629974,143.939743L247.05722,143.939743L247.172943,143.978317L248.116791,144.038376C253.220215,144.431015,258.202454,145.789871,262.798431,148.04277C264.973206,149.114456,266.977295,150.502548,268.745209,152.161667C269.211853,152.606522,269.656891,153.073532,270.078705,153.561081C270.37085,151.289658,270.253662,148.984238,269.732513,146.754196C268.966492,143.678879,267.217102,140.937485,264.75058,138.947311C263.273041,137.693314,261.515198,136.813522,259.625824,136.38237C258.823364,136.184647,258.009369,136.036972,257.188568,135.940231L253.423676,135.785934L252.145355,135.847702zM247.715912,145.252975L240.806488,149.774216L240.806488,150.005905L240.58725,151.085739C239.851563,154.695694,239.447296,158.365341,239.379486,162.048874C239.33429,164.459305,239.525223,166.868271,239.949554,169.241501C240.849152,174.017166,242.998123,178.46904,246.177826,182.144089C247.71489,183.903091,249.589661,185.335434,251.690765,186.356247C252.717468,186.845291,253.792511,187.225632,254.898285,187.491257C256.189789,187.176468,257.446045,186.731766,258.648041,186.164108C261.233185,184.982651,263.530487,183.253799,265.381439,181.096725L265.808197,180.573532L265.808197,180.612106C268.045349,177.818619,269.621582,174.555191,270.418793,171.066208C271.861023,164.96904,271.036255,158.555069,268.09848,153.021042C266.72644,151.724014,265.187073,150.616257,263.521332,149.727341C261.186523,148.488998,258.725647,147.504837,256.180756,146.791794C254.923462,146.428909,253.654236,146.109177,252.375092,145.833054L247.794525,145.175827L247.715912,145.252975zM258.947113,162.244186C259.622223,162.907455,260.229675,163.636337,260.760345,164.419968C261.089722,164.917068,261.314636,165.475998,261.420746,166.06279C261.521027,166.678757,261.389557,167.310135,261.051605,167.834763C260.670929,168.51152,260.034882,169.007828,259.28598,169.212936L257.421478,169.020065C257.222534,168.888962,257.097168,168.671982,257.079681,168.434372C256.991455,167.701248,257.011536,166.959213,257.139496,166.231979C257.281128,165.121689,257.549103,164.031296,257.938568,162.981979C258.093384,162.575119,258.297577,162.188705,258.547211,161.832077L258.947113,162.244186zM262.476654,153.702438C263.265656,153.862991,264.032135,154.118851,264.759369,154.464401C265.597687,154.803299,266.381805,155.263565,267.086517,155.830124C267.638184,156.265274,267.998962,156.899002,268.0914,157.595505C268.20694,158.493942,268.156555,159.405716,267.942719,160.285934C267.805145,161.120438,267.445526,161.902847,266.901703,162.550583C265.877991,163.682999,264.159485,163.849625,262.936615,162.935837C260.942596,161.473282,259.812561,159.109726,259.925873,156.63945C259.925079,156.111374,259.999817,155.585892,260.147552,155.078903C260.272949,154.59938,260.575439,154.18483,260.993744,153.918991C261.449768,153.682144,261.971985,153.605728,262.476654,153.702438zM262.982025,156.008102L262.779144,156.034714C262.315521,156.136551,261.957336,156.505661,261.867279,156.971725C261.760284,157.564926,261.781067,158.173996,261.929047,158.758347C262.027557,159.369064,262.245911,159.954453,262.571381,160.480515C262.960388,161.131577,263.792053,161.365707,264.46347,161.012985C264.831055,160.811264,265.114197,160.484787,265.263763,160.093063C265.615997,159.227707,265.551575,158.248978,265.087982,157.43779C264.777405,156.80574,264.23587,156.317093,263.575287,156.073044C263.383301,156.014877,263.182098,155.993393,262.982025,156.008102zM257.065521,172.313522L257.852386,172.364304C260.235168,172.583755,262.5271,173.385971,264.526703,174.700241C265.330139,175.240189,266.036102,175.912704,266.614349,176.689011C266.777344,176.903336,266.74646,177.206772,266.547699,177.388474C266.424805,177.479752,266.268402,177.512375,266.118256,177.482468L265.002045,177.304245C262.016296,176.897446,258.982239,177.018143,256.038177,177.66069C253.436615,178.199661,250.944733,179.174576,248.66806,180.543991L248.572845,180.571091C248.354996,180.593369,248.143295,180.48909,248.027435,180.303268L247.677338,179.568893C247.651123,178.331467,247.918152,177.105331,248.45639,175.990768C249.092896,174.77916,250.126038,173.822495,251.382904,173.280807C252.681671,172.72493,254.069809,172.406967,255.481049,172.342331C256.008301,172.303757,256.537231,172.294052,257.065521,172.313522zM252.139008,177.939987L252.086029,177.995895C252.056549,178.026199,252.022675,178.051712,251.986908,178.074265L252.344574,177.93486C252.282013,177.936356,252.219574,177.929153,252.158783,177.914352L252.139008,177.939987zM251.124847,175.485886C250.173569,176.244553,249.505783,177.301926,249.230316,178.487106L251.560638,177.443893L251.560638,175.163376L251.124847,175.485886zM254.279633,173.946335C253.605499,174.123306,252.953674,174.376389,252.336517,174.700241L252.336517,177.173874L255.015228,176.400681L255.015228,173.772751L254.279633,173.946335zM255.791107,176.246384L259.440277,175.782028L259.440277,173.772751L255.791107,173.657028L255.791107,176.246384zM252.482269,154.96196C253.245728,155.049149,253.911591,155.521683,254.245697,156.213669C254.745117,157.357834,254.903534,158.621475,254.70224,159.853561C254.466278,161.167953,253.936493,162.411911,253.152191,163.492722C252.56839,164.397446,251.710358,165.091782,250.703705,165.473923C248.892609,166.102158,246.881821,165.637436,245.530121,164.278122C244.664886,163.368484,244.024475,162.269699,243.65976,161.068405C243.471252,160.477982,243.540558,159.834702,243.851166,159.298386C244.209976,158.771469,244.661163,158.314011,245.182953,157.9478C246.678955,156.863785,248.310547,155.981094,250.036469,155.322067C250.685501,155.078629,251.371033,154.946701,252.064056,154.931931L252.482269,154.96196zM249.934418,157.205612C248.675018,157.20842,247.521774,157.913345,246.94516,159.033005C246.09491,160.671188,246.712662,162.689529,248.334076,163.571335C249.20575,164.069382,250.262497,164.120987,251.178558,163.710251C251.796234,163.369003,252.245941,162.788162,252.42099,162.104538C252.71138,161.060989,252.709244,159.95842,252.414642,158.916061C252.083893,157.840805,251.057007,157.132462,249.934418,157.205612z"/>
</svg>
