<?xml version="1.0" encoding="UTF-8"?>
<svg xmlns="http://www.w3.org/2000/svg" xmlns:xlink="http://www.w3.org/1999/xlink" width="46.190mm" height="67.906mm" fill="white" stroke="black" stroke-width="0.5" viewBox="-284.837494 274.366821 46.189941 67.905518">
    <path transform="matrix(-1,0,0,1,0,0)" d="M269.921478,274.370239L269.997894,274.38147L270.072601,274.400269L270.145111,274.426392L270.214691,274.460083L270.274994,274.496704L270.322357,274.528687L270.690521,274.752075L270.771576,274.808716L271.125336,275.092163L271.195404,275.155884L271.520599,275.490601L271.577972,275.557007L271.875092,275.943237L271.920746,276.009644L272.189056,276.447388L272.22348,276.509644L272.463715,276.998901L272.489349,277.057251L272.700775,277.598022L272.719086,277.650269L272.902435,278.242554L272.912689,278.279419L273.031097,278.743286L273.038666,278.775513L273.13974,279.257935L273.145355,279.288208L273.22934,279.78894L273.233734,279.817505L273.300629,280.336548L273.303558,280.363892L273.353119,280.901489L273.355072,280.927368L273.387299,281.483521L273.388275,281.507202L273.403656,282.081909L273.4039,282.104858L273.402191,282.611938L273.726166,282.510132L274.160492,282.353394L274.53598,282.194946L275.548431,281.677856L275.654877,281.633423L275.813568,281.580688L275.890228,281.559692L276.039154,281.526978L276.136078,281.512085L276.274994,281.499878L276.390472,281.498413L276.519623,281.506714L276.596283,281.515503L276.649994,281.526489L276.769135,281.555298L276.842865,281.577271L276.903168,281.60144L277.012543,281.650757L277.081146,281.685913L277.13681,281.721313L277.23642,281.791138L277.297211,281.838501L277.339935,281.87854L277.429535,281.968872L277.481049,282.026245L277.526459,282.088745L277.565277,282.155396L277.59726,282.225464L277.621918,282.298462L277.639008,282.373657L277.648529,282.450317L277.650238,282.527466L277.644135,282.60437L277.630219,282.680298L277.624847,282.698608L277.713959,282.724487L277.786713,282.749634L277.831635,282.769409L277.874359,282.789917L277.941986,282.826782L278.005707,282.870239L278.083344,282.93811L278.220551,283.075317L278.581635,283.409058L278.642914,283.47229L278.957367,283.838745L279.015228,283.915649L279.271576,284.304565L279.321869,284.393188L279.520111,284.804565L279.558685,284.901001L279.699066,285.335083L279.723969,285.434692L279.806,285.890991L279.815521,285.964722L279.834564,286.201538L279.837006,286.247925L279.841644,286.490112L279.841156,286.535522L279.831146,286.783569L279.828217,286.825806L279.803802,287.079224L279.798676,287.120483L279.759613,287.378052L279.750824,287.426147L279.697601,287.670288L279.684174,287.722046L279.616547,287.953003L279.598236,288.007935L279.516205,288.22522L279.492279,288.281616L279.395844,288.485718L279.366058,288.542603L279.255463,288.733276L279.218597,288.790649L279.093353,288.967896L279.051361,289.022095L278.911957,289.185913L278.864349,289.236938L278.710541,289.387329L278.659515,289.432983L278.491302,289.57019L278.437103,289.610474L278.254486,289.734253L278.199066,289.768433L278.002289,289.87854L277.948334,289.905884L277.736908,290.003052L277.682953,290.025269L277.457123,290.108765L277.406586,290.12561L277.166595,290.195679L277.118988,290.207886L276.864349,290.264771L276.852875,290.266724L276.996185,290.909058L277.437836,292.768188L277.43808,292.769897L277.854828,294.542114L277.855316,294.543823L278.247162,296.229614L278.24765,296.231812L278.614594,297.831177L278.615326,297.833862L278.956879,299.346558L278.957367,299.348999L279.274017,300.775024L279.27475,300.778198L279.566254,302.117798L279.566986,302.12146L279.833344,303.374634L279.83432,303.379761L279.950043,303.943481L279.951752,303.952026L280.056244,304.49231L280.057953,304.501343L280.151459,305.0177L280.153412,305.028198L280.235443,305.520874L280.237152,305.532104L280.308197,306.001099L280.31015,306.014038L280.36972,306.459351L280.371429,306.473511L280.419769,306.894653L280.421478,306.910767L280.458588,307.308228L280.459076,307.314087L280.504242,307.841919L280.505707,307.863647L280.535004,308.379517L280.53598,308.40271L280.549164,308.906616L280.549408,308.930786L280.546722,309.422729L280.546234,309.447632L280.527924,309.927856L280.526459,309.954712L280.492035,310.422729L280.489349,310.450317L280.439056,310.90686L280.435394,310.935181L280.369476,311.379761L280.365814,311.403198L280.322357,311.643921L280.316986,311.670532L280.261078,311.927856L280.255707,311.950562L280.187347,312.224487L280.18222,312.244263L280.10141,312.534546L280.096283,312.55188L280.003021,312.858765L279.998138,312.87439L279.892181,313.197632L279.887543,313.211304L279.769135,313.550903L279.764496,313.563599L279.633148,313.9198L279.631439,313.924438L279.480316,314.326294L279.345062,314.692749L279.227631,315.019653L279.122894,315.319946L279.029633,315.597534L278.954681,315.832886L278.898285,316.023071L278.857269,316.175171L278.818939,316.350464L278.793304,316.524536L278.777435,316.714722L278.77182,316.919312L278.777435,317.141968L278.795013,317.383179L278.823578,317.62854L278.866791,317.906372L278.894623,318.072876L278.929047,318.256958L278.97348,318.475464L279.022552,318.701538L279.078461,318.946411L279.078705,318.946411L279.145111,319.224243L279.217377,319.516235L279.296967,319.828491L279.303558,319.856812L279.493256,320.739624L279.694916,321.645142L279.69516,321.645142L279.908539,322.57312L280.135345,323.528687L280.135101,323.528687L280.371185,324.497681L280.371429,324.497681L280.621918,325.498413L280.621674,325.498413L280.881683,326.512573L281.24765,327.903442L281.247894,327.903442L281.455902,328.669067L281.690521,329.512573L281.954193,330.44397L282.404877,332.005005L282.917328,333.750366L283.496185,335.692261L283.50351,335.718628L284.814056,340.769165L284.829681,340.844604L284.837494,340.921509L284.837494,340.998657L284.829926,341.075317L284.814301,341.151001L284.791351,341.224487L284.761078,341.295532L284.723724,341.362915L284.679535,341.426147L284.629486,341.484741L284.565277,341.545044L284.311615,341.757202L284.250092,341.803589L284.18808,341.841675L283.946136,341.973755L283.876556,342.007202L283.837006,342.022583L283.555756,342.122925L283.458832,342.150269L283.137543,342.218872L283.055267,342.231812L282.693939,342.268433L282.607513,342.272339L282.412689,342.269897L282.345306,342.265991L282.172211,342.248413L282.088226,342.235229L281.936859,342.202515L281.835052,342.172974L281.705414,342.125366L281.634369,342.095093L281.583588,342.067749L281.475433,342.004517L281.410736,341.96228L281.348236,341.911255L281.262054,341.83313L281.207611,341.778687L281.147064,341.702271L281.082367,341.608765L281.04184,341.543091L281.00058,341.455444L280.957611,341.346802L280.931244,341.268188L279.261078,335.181519L275.860199,322.891968L274.877045,319.483276L274.727631,319.109497L274.533295,318.697144L274.29892,318.259644L274.027679,317.805786L273.713959,317.32605L273.359467,316.824585L272.973236,316.312866L272.530365,315.760132L272.008392,315.128052L272.003998,315.122681L271.525482,314.532349L271.521576,314.527466L271.301361,314.251099L271.298187,314.247192L271.090668,313.983276L271.087738,313.97937L270.892914,313.728149L270.889008,313.723267L270.706879,313.484497L270.702972,313.47937L270.533539,313.253296L270.5289,313.246704L270.372162,313.032837L270.367035,313.025757L270.223236,312.824829L270.217377,312.816772L270.086029,312.628052L270.079193,312.618042L269.960785,312.442017L269.953461,312.430786L269.847748,312.267456L269.839203,312.254028L269.745941,312.103149L269.734467,312.084106L269.654388,311.945679L269.638275,311.916382L269.324554,311.314575L269.314545,311.294312L269.008148,310.661255L268.999115,310.641724L268.700287,309.977417L268.692474,309.959595L268.40097,309.264526L268.394135,309.247681L268.109711,308.521362L268.103607,308.505249L267.826752,307.748169L267.821381,307.733032L267.551605,306.944458L267.546967,306.930542L267.284271,306.110962L267.28183,306.103149L267.211273,305.874634L267.208832,305.866577L267.056244,305.352173L267.053802,305.343628L266.886078,304.753296L266.884125,304.746948L266.701019,304.080688L266.699554,304.075073L266.501556,303.332642L266.500336,303.327759L266.174408,302.071899L266.173187,302.067017L266.107758,301.807739L266.107513,301.85022L266.086761,302.395142L266.087006,302.945435L266.107513,303.521851L266.149017,304.136108L266.150238,304.213257L266.14389,304.290161L266.12973,304.365845L266.107758,304.439819L266.101166,304.455933L266.111664,304.470337L266.150238,304.536987L266.18222,304.6073L266.206635,304.680542L266.227142,304.776978L266.670746,307.840454L266.671234,307.844116L267.3685,312.832642L267.373627,312.879761L267.427582,313.582642L267.428802,313.602173L267.463715,314.28479L267.464447,314.305298L267.480316,314.967163L267.48056,314.989868L267.476898,315.63147L267.47641,315.654663L267.453949,316.275757L267.452728,316.301392L267.410736,316.902222L267.408295,316.928833L267.34726,317.508911L267.343597,317.537231L267.263275,318.096802L267.255707,318.141235L267.1185,318.812378L267.102631,318.87561L266.913422,319.515991L266.891205,319.580933L266.64975,320.190063L266.620453,320.254517L266.326508,320.832886L266.291595,320.894653L265.945892,321.442017L265.905121,321.500366L265.507172,322.016479L265.462494,322.069214L265.012543,322.554565L264.964691,322.601685L264.462494,323.055786L264.417084,323.093872L264.137543,323.309692L264.109222,323.330444L263.825531,323.529175L263.794037,323.550171L263.506195,323.731323L263.473236,323.750854L263.181244,323.914673L263.146332,323.933228L262.850189,324.079712L262.813324,324.096558L262.513031,324.225708L262.474945,324.241089L262.170746,324.352905L262.130951,324.366089L261.822357,324.460571L261.781097,324.472046L261.468353,324.54895L261.427826,324.557739L261.111176,324.617554L261.069672,324.624146L260.748627,324.666626L260.707611,324.671021L260.38266,324.696167L260.3414,324.69812L260.012299,324.705688L259.972992,324.705688L259.63974,324.696167L259.601166,324.69397L259.263519,324.667114L259.225433,324.663208L258.932709,324.625122L258.898285,324.625122L258.821136,324.621216L258.75473,324.610962L258.723236,324.84314L258.720551,324.860474L258.496918,326.2677L258.494232,326.284546L258.235443,327.705933L258.232269,327.72229L257.938568,329.157837L257.93515,329.173462L257.606537,330.623413L257.602875,330.638794L257.239105,332.102661L257.235199,332.11731L256.836517,333.595581L256.832611,333.609741L256.398773,335.102417L256.394623,335.116089L255.972015,336.473999L256.143402,336.533081L256.149261,336.535034L256.578705,336.68689L256.585052,336.689331L256.980316,336.83313L256.988617,336.836304L257.349213,336.97229L257.358978,336.975952L257.685394,337.104126L257.697357,337.109009L257.989105,337.22937L258.003021,337.235229L258.26059,337.347534L258.280121,337.356323L258.503021,337.46106L258.535004,337.477173L258.920746,337.68103L258.954681,337.700073L259.307953,337.910522L259.345306,337.934204L259.666107,338.151489L259.706146,338.180542L259.994476,338.404419L260.037201,338.440063L260.293304,338.670776L260.337494,338.713989L260.561127,338.95105L260.606293,339.00354L260.797699,339.247437L260.8414,339.309204L261.00058,339.559692L261.048187,339.646606L261.147064,339.858765L261.176117,339.930054L261.199554,340.012085L261.243256,340.204956L261.256439,340.281128L261.262054,340.358032L261.260101,340.42688L261.247894,340.600708L261.238617,340.677124L261.221771,340.752319L261.186615,340.85144L261.119232,341.006226L261.084808,341.075317L261.043793,341.140503L260.984955,341.213745L260.861908,341.349487L260.807465,341.403931L260.74765,341.452759L260.714203,341.475708L260.53598,341.592163L260.46933,341.630981L260.411957,341.657837L260.177826,341.755249L260.084076,341.787231L259.794525,341.865601L259.71933,341.881958L259.628754,341.891235L257.704926,341.97522L257.596283,341.97229L256.747162,341.887817L256.712982,341.883667L255.835297,341.755981L255.804047,341.75061L254.898041,341.5802L254.868988,341.574341L253.934906,341.360718L253.908539,341.354126L252.945648,341.09729L252.921478,341.090454L251.930267,340.790894L251.907806,340.783569L250.888275,340.440796L250.868256,340.433716L250.110931,340.155151L250.017426,340.517212L249.994232,340.590942L249.963959,340.661743L249.926605,340.729126L249.882416,340.792603L249.832367,340.851196L249.776459,340.904419L249.715424,340.951538L249.649994,340.992554L249.580902,341.026489L249.508636,341.053345L249.433929,341.072876L249.357758,341.084595L249.31308,341.087769L249.085297,341.097778L249.012299,341.097534L248.773285,341.085083L248.707367,341.078735L248.457367,341.043823L248.399261,341.033325L248.138031,340.975952L248.08725,340.963013L247.815033,340.883179L247.770844,340.868774L247.487152,340.766479L247.449066,340.751587L247.154388,340.627075L247.120941,340.611938L246.815033,340.464966L246.74765,340.428345L245.985443,339.962524L245.921967,339.919067L245.862885,339.869263L245.809174,339.813843L245.771576,339.767212L245.662445,339.620483L245.619476,339.556274L245.597015,339.515991L245.50058,339.329712L245.46225,339.242554L245.379242,339.016968L245.357269,338.947144L245.287689,338.681763L245.277679,338.638794L245.171478,338.110962L245.160248,338.034546L245.156586,337.957642L245.160736,337.880493L245.172699,337.804321L245.192474,337.729614L245.21933,337.657593L245.253754,337.588257L245.294769,337.523071L245.33139,337.475952L245.29184,337.440063L245.240326,337.38269L245.19516,337.32019L245.156097,337.25354L245.124359,337.183472L245.099701,337.110229L245.082611,337.035034L245.07309,336.958618L245.071381,336.88147L245.077484,336.804565L245.083588,336.766235L245.169037,336.300415L245.174652,336.272583L245.676117,334.015991L245.884613,332.588745L246.042328,331.107056L246.099945,330.366577L246.144623,329.609253L246.175629,328.843384L246.179291,328.684937L246.012543,328.727905L245.949554,328.741333L245.670502,328.788696L245.61142,328.796509L245.319183,328.822876L245.264252,328.825806L244.959076,328.831177L244.907806,328.8302L244.589203,328.814331L244.542328,328.810669L244.210785,328.77356L244.169037,328.7677L243.824066,328.709595L243.785736,328.702026L243.427582,328.622681L243.379242,328.610474L243.035492,328.510376L243.003998,328.500366L242.680756,328.390747L242.645111,328.377563L242.342133,328.25769L242.304535,328.241821L242.022064,328.112183L241.981537,328.091919L241.719574,327.952271L241.677094,327.927856L241.435638,327.778442L241.390228,327.748169L241.169281,327.588501L241.123138,327.552368L240.922699,327.38269L240.864594,327.328003L240.548676,326.997925L240.495209,326.935669L240.212738,326.568481L240.167816,326.503296L239.919037,326.098999L239.883148,326.033569L239.66806,325.592407L239.640228,325.528442L239.459076,325.050415L239.439301,324.990356L239.291595,324.47522L239.277679,324.419067L239.16391,323.867065L239.155121,323.815552L239.075287,323.226929L239.068939,323.150269L239.07016,323.07312L239.079193,322.99646L239.096039,322.921265L239.120453,322.848022L239.151947,322.77771L239.190521,322.710815L239.235687,322.648315L239.286957,322.590698L239.343597,322.538452L239.405365,322.492065L239.437592,322.472778L239.424896,322.46228L239.366547,322.432739L239.301605,322.391235L239.241302,322.34314L239.186127,322.289185L239.136566,322.230103L239.093353,322.166382L239.056732,322.098267L239.027191,322.027222L239.004974,321.953247L238.990326,321.877563L238.98349,321.800659L238.983246,321.748413L239.046478,319.656616L239.052826,319.579712L239.066742,319.503784L239.088226,319.42981L239.117279,319.358276L239.153168,319.290161L239.195892,319.225952L239.244965,319.166382L239.299896,319.111938L239.359711,319.063599L239.424408,319.021362L239.479828,318.992798L239.471771,318.984497L239.43515,318.956909L239.375824,318.907349L239.322113,318.852173L239.274017,318.79187L239.232269,318.726929L239.197357,318.658081L239.169769,318.58606L239.149261,318.511597L239.136566,318.435669L239.131683,318.358521L239.137543,318.254028L239.369232,316.393677L239.38266,316.317749L239.403656,316.24353L239.431976,316.171753L239.467377,316.103394L239.509613,316.03894L239.558197,315.978882L239.61264,315.924194L239.672211,315.875366L239.73642,315.832642L239.804779,315.796753L239.876312,315.7677L239.950287,315.746216L240.026215,315.7323L240.081146,315.727905L240.015717,315.481812L240.009857,315.457886L239.900482,314.984497L239.895355,314.960083L239.800873,314.479858L239.789642,314.403442L239.786469,314.326294L239.791107,314.24939L239.803314,314.173218L239.814056,314.129028L240.089447,313.13562L240.113861,313.062378L240.145355,312.992065L240.183929,312.925415L240.229095,312.862671L240.280365,312.805054L240.33725,312.752808L240.399017,312.706665L240.464935,312.66687L240.53476,312.634155L240.607513,312.608521L240.624603,312.60437L240.583832,312.533081L240.549164,312.464233L240.521332,312.392212L240.501068,312.317749L240.488617,312.241577L240.483734,312.164673L240.486664,312.087524L240.497406,312.011108L240.515961,311.936157L240.543549,311.859253L240.882416,311.055786L240.902679,311.011841L241.156097,310.503784L241.174896,310.468384L241.428558,310.02063L241.454437,309.978394L241.708099,309.591431L241.743744,309.541382L241.997162,309.215454L242.047455,309.157104L242.103607,309.104126L242.164642,309.057007L242.230072,309.016235L242.299408,308.982544L242.371918,308.955688L242.446625,308.936646L242.522797,308.924927L242.599945,308.921265L242.638519,308.923218L242.633881,308.899292L242.622894,308.822876L242.61972,308.745728L242.627289,308.649048L242.616547,308.627075L242.589935,308.554565L242.565765,308.450073L242.306976,306.828491L242.303802,306.806519L242.097504,305.216187L242.094818,305.192749L241.941254,303.633911L241.939301,303.609497L241.83847,302.082642L241.83725,302.005493L241.843842,301.928589L241.858246,301.852905L241.880219,301.778931L241.909515,301.707397L241.945892,301.639526L241.988861,301.575562L242.038177,301.516235L242.093109,301.46228L242.153412,301.41394L242.218353,301.372192L242.262787,301.349487L242.005219,301.078491L241.954926,301.019897L241.910736,300.956665L241.873383,300.889282L241.842865,300.818481L241.819916,300.744751L241.804291,300.669312L241.796478,300.592407L241.795502,300.553589L241.795502,299.770874L241.799408,299.693726L241.811127,299.617554L241.830414,299.542847L241.857025,299.470581L241.890961,299.401245L241.931732,299.335815L241.979095,299.27478L242.032074,299.218872L242.090668,299.168579L242.134857,299.137817L242.00473,299.043579L241.972748,299.018921L241.414398,298.567505L241.381195,298.539185L240.866547,298.071899L240.832855,298.039429L240.455902,297.65271L240.45224,297.650269L240.391205,297.602905L240.335297,297.549927L240.285004,297.491333L240.241058,297.428101L240.203461,297.360718L240.172943,297.289917L240.14975,297.216187L240.135834,297.149048L240.128754,297.146362L240.060394,297.110962L239.995697,297.06897L239.935638,297.020386L239.880951,296.966187L239.817474,296.886597L239.635834,296.624634L239.612152,296.588501L239.447845,296.32019L239.425629,296.281128L239.279144,296.006714L239.258881,295.965942L239.12973,295.684937L239.111908,295.642944L239.000336,295.355835L238.984955,295.312378L238.890961,295.019165L238.878265,294.974731L238.801849,294.675171L238.79184,294.630981L238.733002,294.325073L238.725922,294.281372L238.684418,293.969116L238.680023,293.925903L238.656097,293.607544L238.6539,293.565308L238.647552,293.240601L238.648041,293.200317L238.659027,292.869263L238.661224,292.829712L238.690033,292.492554L238.694183,292.455933L238.740326,292.112427L238.745697,292.078003L238.809174,291.728149L238.81601,291.694458L238.897308,291.338501L238.918304,291.264282L238.946625,291.192505L238.982025,291.124146L239.024261,291.059448L239.072845,290.999634L239.127289,290.944702L239.186859,290.895874L239.251068,290.853149L239.252045,290.852661L239.221527,290.782104L239.198334,290.708618L239.182465,290.633179L239.174408,290.556519L239.17392,290.47937L239.181488,290.40271L239.196625,290.327026L239.223969,290.240845L239.388275,289.814331L239.399261,289.78772L239.585297,289.354126L239.596283,289.329712L239.804047,288.889038L239.815033,288.866821L240.044525,288.418579L240.055756,288.397339L240.30722,287.942017L240.317719,287.923462L240.590668,287.460571L240.601654,287.442505L240.896576,286.972534L240.907074,286.956421L241.223724,286.478882L241.269379,286.41687L241.321381,286.359741L241.378754,286.308228L241.44101,286.262817L241.50766,286.223755L241.577728,286.191772L241.650726,286.16687L241.725922,286.14978L241.79306,286.141235L241.790131,286.130005L241.777924,286.053833L241.773529,285.976929L241.776947,285.89978L241.787933,285.823608L241.806732,285.748657L241.832855,285.676147L241.866302,285.606567L241.906586,285.540894L241.948334,285.485718L243.364838,283.772827L243.41684,283.715942L243.474457,283.664673L243.536957,283.619507L243.603607,283.580688L243.67392,283.54895L243.747162,283.524536L243.822357,283.507446L243.899017,283.498169L243.951996,283.49646L243.969574,283.49646L243.967621,283.488647L243.95517,283.412476L243.950775,283.335571L243.953949,283.258423L243.965179,283.182007L243.983734,283.1073L244.010101,283.03479L244.043549,282.96521L244.103363,282.872192L246.323334,279.913696L246.330902,279.903442L246.65976,279.480103L246.665619,279.472778L246.986664,279.069946L246.993256,279.06189L247.306244,278.67981L247.313324,278.671265L247.618744,278.309448L247.626556,278.300415L247.923676,277.959351L247.932709,277.949097L248.22226,277.62854L248.232025,277.618042L248.513519,277.317993L248.52475,277.306274L248.798431,277.026733L248.813568,277.011597L249.186615,276.651245L249.214935,276.625122L249.593842,276.294556L249.625824,276.268188L250.010834,275.967407L250.045258,275.942017L250.435883,275.670776L250.474213,275.645874L250.870941,275.404419L250.912689,275.380737L251.315521,275.169067L251.359955,275.147583L251.768646,274.965454L251.815765,274.946167L252.230316,274.793823L252.294037,274.77356L252.770844,274.644409L252.839447,274.629272L253.309418,274.547485L253.383392,274.538208L253.846039,274.503784L253.924652,274.502075L254.380219,274.515259L254.460541,274.521851L254.908783,274.582642L254.987885,274.597778L255.429047,274.705933L255.505707,274.728882L255.939301,274.884888L256.009613,274.914185L256.436127,275.117798L256.503754,275.154663L256.567719,275.197876L256.626801,275.247681L256.680511,275.302856L256.728363,275.363403L256.769867,275.428345L256.789154,275.464233L256.821381,275.528687L256.876556,275.601685L256.910492,275.650757L257.002045,275.794067L257.029633,275.840942L257.115326,275.998901L257.137543,276.042847L257.217133,276.21521L257.234222,276.255005L257.307953,276.442017L257.321136,276.478394L257.389008,276.680054L257.399506,276.713501L257.461273,276.929321L257.46933,276.960083L257.524994,277.190552L257.536713,277.249146L257.606781,277.687378L257.612885,277.734985L257.639984,278.018677L257.713959,278.006714L257.790863,278.002075L257.847992,278.004517L257.841156,277.942261L257.840668,277.865112L257.847748,277.788452L257.86264,277.712769L257.885101,277.638794L257.914886,277.567749L257.951752,277.499878L257.995209,277.436401L258.045013,277.377319L258.100433,277.323608L258.16098,277.276001L258.225922,277.234497L258.295013,277.199829L258.367035,277.172485L258.441498,277.152466L258.51767,277.140015L258.594574,277.135376L258.671722,277.13855L258.747894,277.149536L258.822845,277.168091L258.895355,277.194214L258.964935,277.227417L259.002777,277.24939L259.325531,277.449097L259.664154,277.621704L260.032562,277.776245L260.451263,277.9198L260.907318,278.046753L261.398773,278.15564L261.941254,278.24939L262.518646,278.324585L262.82309,278.356323L263.135101,278.380737L263.417572,278.395142L263.681976,278.400757L263.945404,278.397583L264.183197,278.385864L264.406586,278.366333L264.624359,278.337769L264.818451,278.303101L264.998138,278.261353L265.165619,278.21228L265.312347,278.159546L265.451263,278.098999L265.57309,278.035278L265.680023,277.968384L265.801361,277.878296L265.86557,277.835327L265.933685,277.799194L266.004974,277.770386L266.079193,277.748657L266.154877,277.734497L266.231781,277.728149L266.308929,277.729614L266.38559,277.738892L266.410004,277.744507L266.431976,277.595581L266.447113,277.519897L266.470062,277.446167L266.500092,277.375122L266.536957,277.307495L266.5914,277.230591L266.797699,276.973022L266.961517,276.723267L267.107758,276.447144L267.244232,276.123169L267.277679,276.053589L267.317963,275.987915L267.364838,275.926636L267.417572,275.870239L267.475677,275.819702L267.538666,275.775024L267.605804,275.737183L267.676605,275.706177L267.749847,275.682495L267.825287,275.666382L267.901947,275.658081L267.979095,275.657593L268.043793,275.663452L268.049408,275.643921L268.077728,275.572144L268.113373,275.503784L268.155853,275.439331L268.204437,275.379517L268.258881,275.324829L268.33139,275.266724L269.410248,274.505981L269.475433,274.464722L269.544525,274.430542L269.616791,274.403198L269.691254,274.383423L269.767426,274.371216L269.84433,274.366821L269.921478,274.370239zM265.899994,301.153198L265.870209,301.204224L265.844086,301.245483L265.855804,301.255005L265.910492,301.309448L265.95932,301.369263L266.001801,301.433472L266.023529,301.474976L265.928802,301.099243L265.899994,301.153198zM242.200775,320.457642L242.142914,320.508667L242.11557,320.528442L242.259369,320.62439L242.50058,320.772827L242.306976,320.505493L242.29306,320.485474L242.243256,320.411743L242.200775,320.457642zM239.893356,318.348602L239.977417,318.411987C240.484528,318.960449,241.048157,319.460693,241.668274,319.912689C240.964096,318.715149,240.450089,317.572784,240.124878,316.488251L239.893356,318.348602zM244.881851,318.369263L244.035736,315.49469L243.972351,315.47403L243.0215,315.114349C243.304001,316.185089,243.924118,317.270996,244.881851,318.369263zM271.793579,306.682129C272.019562,306.96463,272.32962,307.118958,272.723755,307.147919L273.801361,306.999084L274.37326,306.639404C273.823425,306.401001,273.343872,305.957275,272.93457,305.308228L271.243713,305.371613C271.327789,305.878754,271.511078,306.315582,271.793579,306.682129zM274.985107,303.766205C274.746704,304.244385,274.37326,304.624725,273.864746,304.907227C274.161041,305.301331,274.500031,305.597626,274.880371,305.794678C275.330994,306.034454,275.817444,305.957275,276.338348,305.561798L276.613953,305.160767L276.782074,304.907227L276.528503,303.490601L275.133942,303.449249L274.985107,303.766205zM243.40184,313.276062L242.59845,309.683502C242.260834,310.077637,241.921829,310.634338,241.584213,311.352295L241.245209,312.155701C241.710999,313.072083,242.521271,313.79007,243.67746,314.310944L243.40184,313.276062zM245.769318,322.934723C245.06514,322.778992,244.345795,322.532318,243.614059,322.194702L243.297119,322.131317L243.19101,322.025208C241.964554,321.420258,240.837311,320.637512,239.807922,319.679779L239.744537,321.771667L239.807922,321.792328C241.654495,323.385345,243.705017,324.385803,245.959488,324.793701C245.918137,324.173584,245.854752,323.553467,245.769318,322.934723zM245.325592,320.270966C243.21167,318.312775,242.112,316.397308,242.027939,314.523163C241.50705,314.142822,241.104645,313.748718,240.823532,313.339447L240.547928,314.333008C241.013702,316.911316,242.105103,319.207123,243.824905,321.221802C244.332016,321.461609,244.931458,321.687592,245.621857,321.898438L245.325592,320.270966zM240.907593,297.024841C242.105103,298.333984,243.768402,299.475006,245.896088,300.447876C244.868073,298.292633,244.48085,296.262787,244.734406,294.361084C243.437668,295.065277,242.154724,295.952728,240.886932,297.024841L240.907593,297.024841zM246.024246,325.744537C243.824905,325.449646,241.760605,324.575958,239.829971,323.124878C239.998093,324.74408,240.527252,325.97052,241.414703,326.801483C241.921829,327.267273,242.648056,327.625549,243.59201,327.87912C244.564911,328.118896,245.395874,328.13269,246.087646,327.921844L246.024246,325.744537zM262.724701,296.495667C262.724701,296.692749,262.647522,296.855347,262.491821,296.982117C262.125244,297.855804,261.95575,298.806641,261.98468,299.834656C262.012238,300.807556,262.224457,301.751526,262.618591,302.666534L262.639252,302.815369C263.231812,302.532867,263.759613,302.222809,264.225372,301.885193C265.409119,300.968781,265.811493,299.911835,265.429779,298.714325C265.134888,297.770355,264.388,296.785065,263.189087,295.755676L262.724701,296.495667zM242.535065,285.971588L247.735779,286.203125C249.652618,286.655121,251.146423,287.479187,252.217148,288.676697L252.662262,287.893951C252.013199,286.386383,250.786743,285.32254,248.982895,284.703796C247.461548,284.181519,245.805145,284.034088,244.015076,284.258698L243.951675,284.258698L242.535065,285.971588zM261.13858,300.194336C261.111023,299.166321,261.258453,298.186523,261.582306,297.256348C260.27179,297.636688,259.228607,298.4263,258.454163,299.62384C257.734833,300.722107,257.333801,302.005066,257.248383,303.46994C258.997101,303.639435,260.504669,303.526428,261.772461,303.132324C261.39212,302.188354,261.181305,301.208557,261.13858,300.194336zM241.858444,286.900391C240.984772,288.18335,240.343979,289.387756,239.934692,290.514984C241.795044,289.670258,243.69812,289.134186,245.642532,288.908203C247.771606,288.6698,249.729797,288.824127,251.519867,289.373962C250.519409,288.260529,249.053177,287.49295,247.122543,287.069885L241.985229,286.900391L241.858444,286.900391zM258.771118,278.531586C259.22171,279.321198,259.81427,279.961975,260.547394,280.455322C261.321838,280.962433,262.154175,281.251831,263.041656,281.322113C263.224915,281.322113,263.315887,281.399261,263.315887,281.553619C263.528076,284.118134,263.52121,286.429108,263.295197,288.486511C264.718719,285.442444,265.705383,282.110352,266.255219,278.490234C265.508331,279.095184,264.232269,279.292236,262.428406,279.081421C260.765137,278.898132,259.490448,278.503998,258.601593,277.897675L258.771118,278.531586zM247.207977,300.848907L247.249329,301.018402L248.475784,301.462128C248.249786,299.927002,248.482666,298.003265,249.173065,295.692291L250.145966,293.009247C248.863007,292.797028,247.355438,293.100189,245.621857,293.917358C245.269089,296.031281,245.798248,298.340881,247.207977,300.848907zM275.408173,287.703796C275.197327,288.140625,274.873474,288.500305,274.436646,288.781433C274.167938,288.937134,273.717316,289.141083,273.083405,289.394653C271.687469,289.930695,270.462372,290.240753,269.404053,290.324829L269.003052,291.8255L273.421021,290.514984C273.534027,290.232483,273.737976,289.944489,274.034241,289.648193C274.301605,289.394653,274.563416,289.204468,274.816986,289.077698L275.810547,289.014313C276.134399,289.098358,276.430664,289.267853,276.697998,289.521423C278.093964,289.254089,278.875305,288.416229,279.0448,287.0065C279.214294,285.639496,278.762299,284.512268,277.691559,283.624786L277.544128,283.477356L277.501404,283.456665C276.571228,283.146606,276.007599,283.604126,275.810547,284.830597L275.683777,286.39328C275.627258,287.013397,275.534943,287.450226,275.408173,287.703796zM274.858337,282.886169C274.337433,283.124573,273.667694,283.350586,272.850525,283.561401L270.757294,284.027191L269.636932,289.437378C271.046661,289.324371,272.547363,288.880646,274.14035,288.106171C274.590973,287.880188,274.85144,287.316559,274.921722,286.415314C274.921722,285.401093,274.964417,284.724487,275.048492,284.385468C275.161499,283.878357,275.380585,283.456665,275.704437,283.117676C276.042053,282.78006,276.437561,282.576111,276.888184,282.505829C276.66217,282.237122,276.331451,282.188873,275.894592,282.356995L274.858337,282.886169zM276.966644,305.993042L276.919769,306.054321L276.867035,306.110718L276.808685,306.161255L276.771332,306.188599L276.577728,306.322144L276.508636,306.364624L276.317963,306.46814L276.233978,306.507446L276.046967,306.581177L275.944427,306.613403L275.760345,306.657349L275.684418,306.671509L275.642914,306.675903L275.46225,306.690063L275.385101,306.692017L275.335785,306.689331L275.158539,306.673706L275.133881,306.670288L275.131927,306.713501L275.120453,306.789673L275.10141,306.864624L275.075043,306.93689L275.041351,307.006226L275.000824,307.071899L274.953705,307.133179L274.900726,307.189331L274.842377,307.239624L274.779388,307.284058L274.207611,307.643677L274.140228,307.681274L274.069427,307.712036L273.995941,307.735474L273.906097,307.75354L272.828461,307.902466L272.751801,307.909058L272.674652,307.908081L272.602875,307.89978L272.32309,307.854614L272.24765,307.838501L272.178314,307.816528L271.930023,307.723999L271.859222,307.693237L271.782562,307.64978L271.64389,307.560181L271.632904,307.58606L271.595551,307.653687L271.551849,307.716675L271.593597,307.789185L271.614105,307.831909L271.64389,307.903198L271.660492,307.954712L271.811615,308.490601L271.978851,308.992554L272.174164,309.499878L272.388275,309.986694L272.62851,310.472046L272.89267,310.949829L273.18222,311.422241L273.491058,311.880249L273.842621,312.340942L274.191498,312.759155L274.537689,313.134888L274.874115,313.461548L275.206635,313.746216L275.527435,313.983765L275.842865,314.18103L276.10141,314.312378L276.413177,313.286987L276.41391,313.284302L276.570648,312.775513L276.708099,312.282104L276.823578,311.813599L276.923187,311.34729L277.004974,310.892212L277.06723,310.458618L277.113861,310.019165L277.141693,309.603149L277.159271,309.167358L277.165863,308.729614L277.160736,308.263306L277.145111,307.795044L277.117523,307.300903L277.079926,306.802612L277.028412,306.263062L276.9935,305.953979L276.966644,305.993042zM274.943756,299.053314C273.674591,298.91275,272.377869,299.017487,271.053558,299.37027C269.883606,299.680328,269.009918,300.348663,268.432526,301.378052C267.783478,302.50531,268.079742,303.392761,269.319977,304.040436C269.559753,304.167206,269.559753,304.386322,269.319977,304.696381C269.023712,305.090515,269.0802,305.611389,269.489471,306.259094C269.912537,306.908142,270.397614,307.238861,270.947449,307.252655C270.51062,306.618744,270.292877,305.822235,270.292877,304.864502L270.292877,304.843842C269.996613,304.506226,269.820221,304.132751,269.763702,303.72348C269.707214,303.272858,269.820221,302.892517,270.102722,302.582458C270.270844,302.3992,270.503723,302.244843,270.799988,302.118073C269.996613,301.427673,269.842255,300.665619,270.334229,299.834656C270.476166,299.594879,270.666321,299.510834,270.906097,299.581116C271.145874,299.637604,271.180328,299.807098,271.010834,300.088226C270.786224,300.468567,270.877167,300.848907,271.286438,301.229248C271.582733,301.497955,271.96994,301.722565,272.449524,301.905853C272.674133,301.991302,272.709961,302.159424,272.55423,302.412964C272.413696,302.666534,272.244171,302.793304,272.047119,302.793304L270.926788,302.920105C270.462372,303.046875,270.426544,303.34314,270.820679,303.807556C271.187225,304.244385,271.546906,304.491058,271.899658,304.547546C272.490845,304.64679,273.033813,304.533783,273.52713,304.20993C274.034241,303.886108,274.37326,303.449249,274.541382,302.899414C274.781158,302.109802,274.717773,301.265076,274.351196,300.363831C274.280914,300.151611,274.37326,299.940765,274.626801,299.729919L275.133942,299.75061C275.471558,300.610504,275.563873,301.511749,275.408173,302.455688L275.430206,302.476379C275.66861,302.645874,275.978668,302.709259,276.360382,302.666534L275.408173,298.75705C275.267609,298.983032,275.111877,299.080872,274.943756,299.053314zM255.43074,337.094055C254.120224,337.981506,252.415588,338.46106,250.31546,338.531342C248.91951,338.572693,247.482208,338.389404,246.002197,337.981506L245.918137,337.960846L246.024246,338.488647C246.108307,338.868958,246.228195,339.143188,246.382538,339.312714L247.144592,339.778473C247.975555,340.200165,248.686615,340.383423,249.279175,340.326935L249.426636,339.756439C249.455566,339.615875,249.539627,339.502869,249.680191,339.418823C249.822128,339.305817,249.955795,339.278259,250.082581,339.333374C252.915817,340.41925,255.444519,341.046265,257.671417,341.214386L259.595184,341.130341C260.441284,340.947052,260.694855,340.559814,260.357239,339.968658C259.975525,339.292023,259.250671,338.685699,258.178558,338.151001C257.630096,337.882294,256.713684,337.530884,255.43074,337.094055zM262.639252,295.29126L261.328735,294.361084C260.060944,293.557709,258.447266,292.719849,256.487701,291.846191C255.85379,293.86087,255.487244,295.587555,255.389404,297.024841C255.177185,299.587982,255.543732,301.511749,256.487701,302.793304C256.727478,301.215454,257.313141,299.841553,258.243317,298.672974C259.243774,297.418976,260.497772,296.629333,262.005371,296.305511L262.639252,295.29126zM267.185394,277.70752C266.522583,282.540283,265.092163,286.900391,262.892822,290.789215L262.872131,291.001434C262.829437,291.155792,262.731598,291.268768,262.575867,291.33905C262.139038,292.058411,261.738007,292.677124,261.37146,293.199402C262.272705,293.747864,263.098145,294.32666,263.845032,294.93161C265.451843,292.28302,266.606628,289.310577,267.312195,286.012939C268.016357,282.773163,268.227203,279.574738,267.946075,276.419037C267.762817,276.912384,267.509247,277.340942,267.185394,277.70752zM240.443192,296.452972C244.345795,293.156677,247.701324,291.712494,250.50563,292.121796L251.350372,290.34549C249.546509,289.725372,247.559387,289.550354,245.388977,289.817719C243.40184,290.042328,241.484985,290.605957,239.639801,291.508545C239.160248,293.424042,239.427582,295.072174,240.443192,296.452972zM268.728821,292.755676L267.62912,295.90451L267.713196,296.051941L268.749481,299.75061L269.340668,299.284821C270.13028,298.77771,271.082489,298.433197,272.19458,298.249908L275.240051,298.165863L275.260712,298.165863L273.421021,291.359741L268.728821,292.755676zM262.491821,282.188873C261.13858,281.990448,259.990662,281.435089,259.045349,280.518707C259.088043,281.786499,258.933716,283.223785,258.580933,284.830597C258.341156,285.928894,257.960815,287.282104,257.439911,288.887543L256.783966,290.895325C258.291534,291.558167,259.617218,292.205841,260.75824,292.839752L262.111481,290.72583C262.435303,289.27475,262.5979,287.33725,262.5979,284.914642L262.512482,282.65329L262.491821,282.188873zM268.770142,275.889862C269.093994,279.228851,268.883148,282.603668,268.136261,286.012939C267.37558,289.493866,266.128448,292.628906,264.394867,295.41806C265.212067,296.136017,265.789459,296.882904,266.128448,297.658752C266.789917,296.136017,267.389343,294.494751,267.925415,292.733643C267.896484,292.565521,267.952972,292.38913,268.093536,292.205841L268.665405,290.113983L268.728821,289.901764C269.376495,287.282104,269.940094,284.273865,270.419647,280.878357C270.447235,280.63858,270.609833,280.469086,270.906097,280.371246C271.187225,280.272034,271.307129,280.371246,271.264404,280.666138L270.906097,283.13974L272.639679,282.696014C272.667236,281.089203,272.512909,279.680847,272.173889,278.46817C271.723297,276.820038,270.969482,275.721741,269.912537,275.171906L269.849152,275.129181L268.770142,275.889862zM265.388428,304.187897C265.318176,303.34314,265.303009,302.553528,265.345734,301.821808C264.472046,302.765747,263.231812,303.519531,261.625031,304.08316C260.948395,304.322937,260.151886,304.449707,259.236877,304.463501L256.804657,304.336731L256.509735,304.294006L256.34024,304.273315C254.226334,304.047333,251.907104,303.533325,249.385284,302.729919C246.397705,301.772186,244.121185,300.785522,242.557098,299.771271L242.557098,300.554016C244.854294,303.0896,248.342102,304.970612,253.020554,306.195679C256.220367,307.041809,259.187256,307.005981,261.921295,306.090942C262.724701,305.822235,263.499146,305.434998,264.246063,304.927887L264.817932,304.506226L265.008118,304.357391C265.11972,304.244385,265.246521,304.187897,265.388428,304.187897zM252.492767,275.509521C251.379303,275.876099,250.329239,276.559601,249.34256,277.560059C248.62323,278.278015,247.819839,279.215088,246.932373,280.371246L244.712357,283.329895C246.488647,283.187958,248.109222,283.371246,249.575455,283.878357C251.309021,284.484711,252.534103,285.478271,253.253433,286.85907L255.516174,283.1604C256.304413,281.695557,256.763306,280.328522,256.890076,279.06073C256.931427,278.524689,256.896973,277.96106,256.783966,277.369873C256.643402,276.735992,256.43808,276.256439,256.170746,275.932587L256.107361,275.805817C254.980118,275.199463,253.774338,275.101624,252.492767,275.509521zM257.798218,278.764465C257.614929,280.51181,256.861145,282.442444,255.53685,284.554962C253.4505,287.796112,251.858856,290.775452,250.759186,293.494324C250.12529,295.044617,249.695343,296.404724,249.469345,297.573303C249.159286,299.151154,249.159286,300.560883,249.469345,301.799744L253.676498,302.878754L255.579559,303.259094C254.902954,302.215912,254.52951,300.864075,254.459229,299.200775C254.402725,297.876465,254.536392,296.481903,254.860229,295.017029C255.086227,294.001434,255.466568,292.670258,256.001251,291.022095C256.706787,288.908203,257.136749,287.570129,257.291077,287.0065C258.207489,283.794312,258.383881,281.068542,257.820251,278.82785L257.798218,278.764465zM275.514282,289.944489C275.288269,289.831482,274.993378,289.874207,274.626801,290.071259C274.274048,290.268311,274.133484,290.479156,274.203766,290.70517L274.731537,292.628906C275.634155,295.897614,276.324554,298.566864,276.804108,300.638062C277.664001,304.300873,278.030579,307.302246,277.902405,309.640778C277.84729,310.824524,277.592346,312.114349,277.141724,313.508942L276.550568,315.453339C276.423767,316.128601,276.423767,316.798309,276.550568,317.461151C276.591888,317.68576,276.472015,317.882843,276.190887,318.052338C275.923553,318.206665,275.760925,318.15155,275.704437,317.882843C275.534943,316.92511,275.577667,315.974243,275.831207,315.030304C274.858337,314.593445,273.871643,313.6922,272.871185,312.325195C271.956177,311.028473,271.307129,309.640778,270.926788,308.16214L270.906097,308.119446C270.116486,308.203491,269.43988,307.852081,268.876251,307.062469C268.326416,306.274231,268.206543,305.491516,268.516602,304.717041C267.769684,304.223724,267.368683,303.57605,267.312195,302.772644C267.283234,302.054688,267.52301,301.321564,268.030151,300.574677L267.099976,297.278412L266.445404,298.77771L266.466064,299.13739L266.402679,299.813995L266.42334,299.940765C267.115112,302.729919,267.642914,304.710175,268.00946,305.878754C268.69986,308.105652,269.467438,310.000458,270.313538,311.564514C270.707672,312.268707,271.646118,313.508942,273.124756,315.283844C274.36499,316.791412,275.19043,318.108826,275.598328,319.236053L276.591888,322.681152L279.995636,334.980164L281.665833,341.066956C281.751282,341.377014,282.068207,341.524445,282.616669,341.510681C283.125183,341.483124,283.526184,341.370117,283.822449,341.173065L284.076019,340.960846L282.765503,335.910339C281.679596,332.288849,280.898254,329.569977,280.418701,327.75235C279.671814,324.934265,279.051697,322.355957,278.55835,320.017395C278.332367,319.143738,278.184906,318.482269,278.114624,318.031647C277.97406,317.228271,277.97406,316.551636,278.114624,316.001801C278.227631,315.551178,278.494965,314.769836,278.91803,313.656372C279.284576,312.684875,279.516083,311.888367,279.615295,311.26825C279.812378,310.098297,279.841309,308.802948,279.699371,307.379425C279.615295,306.35141,279.411346,305.068451,279.087524,303.533325C278.410919,300.307343,277.465576,296.158051,276.254272,291.08551L276.084778,290.324829L275.514282,289.944489zM265.916229,307.949921L265.472504,304.886566C264.148193,306.168121,262.385712,307.021118,260.187714,307.44281C258.243317,307.809387,256.269958,307.809387,254.26767,307.44281C252.069702,307.048706,250.005402,306.421692,248.074768,305.561798C245.875427,304.590271,244.050903,303.413422,242.59845,302.032623C242.697662,304.047333,242.937439,306.147461,243.31778,308.330261C243.40184,308.41571,243.423889,308.556274,243.381165,308.753326L243.782181,310.803833L245.284241,316.530975C245.945709,318.912231,246.382538,320.841492,246.594757,322.321503C246.834534,324.012329,246.954422,325.836853,246.954422,327.795044L246.954422,328.091339C246.925491,330.190094,246.7491,332.21167,246.425262,334.156067L245.918137,336.43811L245.832703,336.9039C246.228195,337.200165,246.868988,337.397217,247.756439,337.495056L249.7229,337.601166L252.556152,337.431671C253.584167,337.220825,254.46611,336.874939,255.197845,336.39679C257.791321,328.322845,258.890991,320.856628,258.496887,313.994019C258.48172,313.769379,258.61676,313.572327,258.897888,313.402832C259.180389,313.248474,259.32782,313.303619,259.341614,313.572327C259.524902,316.868591,259.377441,320.299896,258.897888,323.863525L258.981934,323.863525C260.814728,324.146027,262.47113,323.688507,263.951141,322.490997C265.359497,321.321045,266.212524,319.820343,266.508789,317.988953C266.748566,316.524078,266.78302,314.840118,266.613525,312.938416L265.916229,307.949921z"/>
</svg>
