<?xml version="1.0" encoding="UTF-8"?>
<svg xmlns="http://www.w3.org/2000/svg" xmlns:xlink="http://www.w3.org/1999/xlink" width="46.659mm" height="72.220mm" fill="white" stroke="black" stroke-width="0.5" viewBox="-222.903534 272.209351 46.658936 72.220459">
    <path transform="matrix(-1,0,0,1,0,0)" d="M191.35495,272.217896L191.41452,272.221558L191.780243,272.258911L191.840057,272.267456L192.203827,272.334106L192.279022,272.351929L192.35202,272.377075L192.421844,272.409546L192.488251,272.448853L192.550262,272.494751L192.607391,272.546753L192.658905,272.604126L192.688934,272.645142L192.72702,272.636108L192.803436,272.625854L192.880585,272.623413L192.957489,272.628784L193.033661,272.641968L193.10788,272.66272L193.179657,272.69104L193.249969,272.727173L193.444061,272.840454L193.488739,272.868774L193.669891,272.992065L193.714813,273.025024L193.882782,273.158325L193.925995,273.195435L194.081512,273.338989L194.123505,273.380737L194.265839,273.534302L194.304657,273.579712L194.434052,273.743286L194.469452,273.79187L194.585907,273.965698L194.61618,274.014771L194.644989,274.06604L194.719696,274.124146L194.778046,274.174683L194.831024,274.230835L194.88205,274.297974L195.510223,275.226685L195.550262,275.292847L195.583221,275.362427L195.6091,275.435181L195.627411,275.510132L195.637177,275.578979L197.398895,277.453003L197.436249,277.386108L197.480682,277.322876L197.530975,277.264526L197.587128,277.211548L197.648163,277.164429L197.713837,277.123901L197.783173,277.089966L197.855438,277.063599L197.930389,277.044312L198.006561,277.032837L198.08371,277.029175L198.160614,277.033325L198.236786,277.045044L198.319794,277.067261L198.763397,277.213013L199.189423,277.327271L199.613251,277.414917L200.035126,277.476196L200.457977,277.512085L200.879608,277.522339L201.302216,277.507202L201.722137,277.466431L202.13205,277.393188L202.522186,277.294556L202.881073,277.174683L203.21579,277.03186L203.522186,276.86853L203.804901,276.68396L204.061493,276.479858L204.325409,276.226196L204.383759,276.175659L204.446747,276.131226L204.513885,276.093384L204.584686,276.062378L204.658173,276.03894L204.733612,276.023071L204.760956,276.020142L204.754852,275.996216L204.743866,275.920044L204.740448,275.842896L204.744843,275.765991L204.75705,275.689819L204.776825,275.615112L204.799286,275.554077L205.015839,275.036011L205.049286,274.966431L205.089325,274.900757L205.135956,274.839233L205.18869,274.782837L205.246552,274.732056L205.30954,274.687378L205.349091,274.663696L206.128876,274.230835L206.198212,274.196899L206.270477,274.170044L206.345184,274.150757L206.421356,274.139038L206.498505,274.135132L206.575409,274.139038L206.626678,274.146851L206.629608,274.133911L206.653778,274.060669L206.685272,273.990112L206.723846,273.923462L206.768768,273.860718L206.820038,273.802856L206.897919,273.733521L207.567596,273.215454L207.631073,273.171509L207.698456,273.134155L207.769257,273.103638L207.842987,273.080444L207.918427,273.065063L207.995087,273.057251L208.072235,273.057251L208.149139,273.065063L208.224579,273.080444L208.298309,273.103638L208.352264,273.125854L208.898163,273.376831L208.95993,273.408813L209.481659,273.709106L209.539276,273.745972L210.037567,274.095825L210.090302,274.136108L210.564667,274.535034L210.611786,274.578247L211.062469,275.026733L211.103485,275.070923L211.530243,275.568726L211.565155,275.612671L211.968231,276.15979L211.997772,276.202759L212.377167,276.799194L212.399384,276.836548L212.699677,277.37439L212.717743,277.409058L212.991913,277.96521L213.00827,278.000366L213.256073,278.574829L213.270233,278.609985L213.491669,279.202759L213.503632,279.237671L213.6987,279.848755L213.708954,279.883179L213.877655,280.512329L213.885712,280.545776L214.02829,281.193481L214.034882,281.22644L214.145477,281.860962L214.21994,281.849976L214.281219,281.843628L214.702118,281.81604L214.774384,281.814575L215.162323,281.82605L215.247772,281.833374L215.602509,281.884155L215.699188,281.904419L216.020721,281.994019L216.126678,282.032349L216.415009,282.161011L216.483612,282.195923L216.523163,282.220093L216.778534,282.388062L216.84079,282.433716L216.878876,282.466919L217.101044,282.673706L217.17038,282.747437L218.662811,284.560913L218.70871,284.622681L218.74826,284.689087L218.780731,284.758911L218.806122,284.831909L218.8237,284.90686L218.833954,284.983276L218.836395,285.060425L218.83078,285.137329L218.817596,285.213501L218.810272,285.239624L218.868134,285.247925L218.943085,285.266235L219.015594,285.292358L219.085419,285.325317L219.151337,285.365356L219.21286,285.411987L219.269257,285.464478L219.320282,285.522339L219.363007,285.581665L219.947723,286.484497L219.963348,286.509888L220.494354,287.404663L220.509979,287.432007L220.987762,288.318481L221.003143,288.348755L221.427216,289.227417L221.441864,289.260132L221.812714,290.130493L221.826874,290.165894L222.144257,291.028198L222.157196,291.066284L222.421356,291.920776L222.432831,291.961792L222.643524,292.808228L222.658173,292.883911L222.665253,292.960815L222.664764,293.037964L222.656219,293.114624L222.639862,293.190063L222.61618,293.263306L222.585175,293.333862L222.547089,293.401001L222.502411,293.463989L222.451874,293.522095L222.395477,293.574829L222.333954,293.62146L222.26828,293.661743L222.1987,293.694946L222.12619,293.721313L222.083221,293.732056L222.325653,294.127808L222.344696,294.160522L222.589081,294.607544L222.606171,294.640991L222.828094,295.099243L222.858124,295.170288L222.880829,295.243774L222.895966,295.319458L222.903534,295.396362L222.902313,295.486206L222.872772,295.89563L222.867401,295.946899L222.811493,296.34436L222.801971,296.397095L222.719696,296.782593L222.706268,296.836792L222.597626,297.209839L222.579803,297.263062L222.445038,297.624146L222.422821,297.677612L222.261444,298.026489L222.235321,298.077515L222.047577,298.414429L222.017792,298.463501L221.80368,298.78772L221.758026,298.849731L221.706268,298.907104L221.649139,298.958618L221.586884,299.004272L221.520477,299.043335L221.450165,299.075562L221.377167,299.100464L221.302216,299.117798L221.225555,299.127563L221.148407,299.129517L221.123505,299.127563L221.128632,299.240845L221.128143,299.317993L221.119843,299.394653L221.103973,299.470093L221.080292,299.543579L221.04953,299.61438L221.011688,299.681519L220.967255,299.744507L220.916718,299.802856L220.860565,299.855591L220.806366,299.897583L219.704071,300.674683L219.614227,300.729126L218.314667,301.398804L218.244354,301.430786L218.171112,301.4552L218.095917,301.47229L218.019501,301.481567L217.942352,301.483276L217.865448,301.476929L217.78952,301.463013L217.748505,301.45105L217.727509,301.488647L217.683807,301.552124L217.633759,301.610962L217.578094,301.664429L217.517303,301.711792L217.452118,301.752808L217.383026,301.787231L217.325653,301.809448L216.392303,302.128296L216.352509,302.140503L215.414032,302.404907L215.373505,302.415161L214.429657,302.625854L214.387909,302.633911L213.438934,302.790649L213.362274,302.799438L213.285126,302.800415L213.208221,302.793579L213.132538,302.778931L213.058563,302.756714L212.987518,302.727173L212.919403,302.690552L212.89035,302.670776L212.850067,302.714233L212.792206,302.765259L212.729462,302.810181L212.662567,302.848511L212.59201,302.879761L212.518768,302.903687L212.443329,302.920288L212.351776,302.92981L210.881317,302.994507L210.804169,302.994019L210.727509,302.985718L210.652069,302.969604L210.578583,302.946167L210.508026,302.915161L210.440887,302.877319L210.425507,302.866333L210.390839,302.889282L210.322479,302.925171L210.250946,302.953979L210.176727,302.97522L210.1008,302.988892L210.023895,302.994995L209.935516,302.99231L206.777069,302.711304L206.700897,302.700562L206.625946,302.682251L206.553192,302.656372L206.483612,302.623169L206.41745,302.583374L206.355927,302.536987L206.299286,302.484497L206.24826,302.426636L206.237762,302.411743L206.213104,302.42688L206.143768,302.460327L206.071259,302.486694L205.996307,302.505493L205.920135,302.516479L205.842987,302.519897L205.766083,302.515503L205.66452,302.497437L205.10788,302.359009L205.074188,302.349731L204.550751,302.193726L204.514374,302.182007L204.024139,302.008667L203.984589,301.993286L203.527069,301.802368L203.491913,301.786743L204.582245,306.978394L204.59079,307.028198L204.697723,307.783569L204.700653,307.80603L204.782196,308.53894L204.784393,308.562622L204.841034,309.27356L204.842743,309.299438L204.873993,309.987915L204.874725,310.015259L204.881073,310.681274L204.880829,310.710815L204.86203,311.354858L204.860321,311.386108L204.81662,312.00769L204.81369,312.040894L204.745087,312.640015L204.732391,312.716187L204.712128,312.790649L204.695526,312.835083L204.699188,312.853394L204.706512,312.930054L204.706024,313.007202L204.694305,313.104126L204.617889,313.513306L204.68161,313.528931L204.754364,313.554565L204.824188,313.587524L204.89035,313.627319L204.952118,313.673462L205.008759,313.725708L205.060028,313.783569L205.10495,313.846069L205.143524,313.912964L205.175018,313.983276L205.204071,314.074829L205.295868,314.442505L205.305145,314.484741L205.375214,314.853149L205.38205,314.895874L205.430634,315.264526L205.435272,315.308472L205.462372,315.677856L205.464325,315.722534L205.469696,316.092651L205.468964,316.136597L205.45285,316.507446L205.449677,316.551636L205.411835,316.922974L205.406219,316.965698L205.346893,317.338013L205.341278,317.369751L205.266327,317.738647L205.256805,317.779419L205.162567,318.140747L205.150604,318.182007L205.036591,318.535767L205.02243,318.57605L204.888885,318.922729L204.87204,318.962524L204.718964,319.301392L204.700409,319.339478L204.527802,319.671021L204.507782,319.707397L204.315643,320.03186L204.293182,320.067505L204.081268,320.384155L204.035126,320.445923L203.983124,320.502808L203.925507,320.554077L203.863007,320.599487L203.796356,320.638062L203.726044,320.6698L203.652802,320.694214L203.577606,320.711304L203.500946,320.720581L203.423798,320.722046L203.36911,320.717407L203.382538,320.791626L203.480194,321.287964L203.592743,321.819702L203.710907,322.345825L204.662811,326.188599L204.999725,327.489624L204.999481,327.489624L205.331757,328.752075L205.659637,329.977173L205.98288,331.161987L206.301483,332.307007L206.61618,333.416138L206.615936,333.416138L206.924286,334.478638L207.535126,336.538452L207.536591,336.543335L207.826874,337.546753L207.828339,337.551636L208.103241,338.526245L208.104706,338.53186L208.363739,339.477661L208.365204,339.483032L208.608856,340.39978L208.610565,340.405884L208.838837,341.293579L208.840546,341.300171L209.053192,342.159058L209.054901,342.165894L209.252167,342.995728L209.266083,343.071655L209.27243,343.14856L209.270721,343.225708L209.261444,343.302124L209.244598,343.377319L209.21994,343.450562L209.188202,343.520874L209.149384,343.587524L209.104218,343.650024L209.0466,343.713745L208.937714,343.821411L208.880096,343.872925L208.830536,343.909546L208.60495,344.06311L208.557343,344.09314L208.356171,344.209351L208.282684,344.24646L208.105682,344.324585L208.033661,344.352173L207.993622,344.364136L207.841034,344.404663L207.765594,344.420532L207.688934,344.428833L207.625702,344.42981L206.780975,344.407837L206.74411,344.406128L206.586639,344.394409L206.566376,344.392456L206.429169,344.37854L206.405243,344.375854L206.2883,344.360229L206.250946,344.354126L206.154266,344.336304L206.101532,344.324829L206.025116,344.305054L205.941132,344.277954L205.884979,344.256226L205.814423,344.224731L205.738251,344.180298L205.702606,344.156616L205.640594,344.110718L205.583466,344.058716L205.531952,344.001343L205.469208,343.911255L205.453827,343.885376L205.417694,343.817017L205.388885,343.745483L205.374237,343.69812L202.1716,332.059204L202.171356,332.058228L201.435516,329.370972L200.784393,327.018433L200.219208,325.005493L199.891083,323.855347L199.890839,323.855347L199.809052,323.573853L199.750214,323.605591L199.679169,323.635132L199.605194,323.657349L199.52951,323.671997L199.466278,323.678345L196.825897,323.829956L196.748749,323.830444L196.671844,323.82312L196.623749,323.813599L196.524384,324.659058L196.521698,324.679077L196.352997,325.847534L196.350067,325.866821L196.149872,327.040894L196.146698,327.058228L195.921844,328.213257L195.917938,328.231323L195.666473,329.375854L195.662323,329.394165L195.383514,330.52771L195.378876,330.545776L195.073456,331.668579L195.068085,331.687134L194.735321,332.79895L194.729706,332.817017L194.370087,333.918335L194.363983,333.936401L193.977264,335.026978L193.970428,335.045044L193.610809,335.983032L193.804901,336.049927L193.811249,336.052124L194.249725,336.207397L194.256805,336.209839L194.659637,336.357056L194.667938,336.360229L195.034882,336.499146L195.045868,336.503296L195.376678,336.634399L195.388641,336.639282L195.683807,336.762085L195.699677,336.768921L195.959198,336.883911L195.978729,336.892944L196.202362,336.999634L196.219696,337.008179L196.619354,337.211548L196.654266,337.230591L197.019989,337.441284L197.058319,337.464722L197.390106,337.682983L197.431122,337.712036L197.729218,337.937622L197.773407,337.973755L198.037811,338.206909L198.083954,338.251099L198.314667,338.491821L198.361786,338.545776L198.558563,338.794067L198.603729,338.857544L198.766815,339.113159L198.817596,339.206665L198.918915,339.428589L198.947479,339.500122L198.969696,339.5802L199.014374,339.78186L199.027313,339.857788L199.03244,339.934937L199.030731,339.997925L199.018524,340.179077L199.009491,340.255737L198.992645,340.330933L198.958954,340.427124L198.890106,340.588257L198.856171,340.657593L198.815643,340.723267L198.75827,340.795776L198.632538,340.93689L198.578339,340.991821L198.519012,341.041138L198.4841,341.065552L198.301727,341.186157L198.235321,341.225464L198.176727,341.253052L197.937469,341.353638L197.841522,341.386597L197.54538,341.466919L197.46994,341.483276L197.37912,341.492798L195.387909,341.579712L195.27536,341.576294L194.396454,341.484253L194.363251,341.480103L193.458221,341.345093L193.427704,341.339966L192.496307,341.161987L192.467743,341.155884L191.509979,340.934448L191.483856,340.927856L190.499481,340.663452L190.475311,340.656616L189.464813,340.348999L189.442596,340.341675L188.405731,339.990845L188.385223,339.983765L187.61618,339.698853L187.496063,340.105347L187.470673,340.178101L187.437714,340.247925L187.398163,340.314087L187.35202,340.375854L187.299774,340.432739L187.242157,340.484009L187.179657,340.529175L187.112762,340.567749L187.04245,340.599243L186.969208,340.623657L186.894012,340.640503L186.797333,340.650757L186.529022,340.661987L186.44162,340.660767L186.156464,340.640015L186.082001,340.630737L185.779999,340.578491L185.71579,340.564575L185.396942,340.480591L185.342743,340.464233L185.00705,340.348511L184.961395,340.330933L184.608856,340.183472L184.570282,340.166138L184.200897,339.986938L184.167938,339.970093L183.781464,339.758911L183.728485,339.727173L183.568329,339.621948L183.506073,339.576294L183.470673,339.545532L183.326141,339.412476L183.247528,339.328491L183.118622,339.167603L183.060028,339.08313L182.946747,338.894409L182.905731,338.81604L182.808075,338.599976L182.780243,338.529663L182.697968,338.285522L182.680145,338.223755L182.613495,337.952026L182.602509,337.899048L182.551239,337.599731L182.541962,337.523071L182.540741,337.445923L182.547089,337.369263L182.561249,337.293335L182.582977,337.21936L182.61203,337.147827L182.648407,337.079712L182.691132,337.015747L182.738739,336.95813L182.680878,336.910522L182.626678,336.855835L182.578339,336.795776L182.536102,336.731079L182.500702,336.662476L182.472626,336.590698L182.45163,336.516479L182.438446,336.440552L182.433075,336.363647L182.435272,336.286499L182.445282,336.210083L182.457245,336.156128L182.608856,335.57312L182.618134,335.541138L182.782684,335.005981L182.950653,334.276245L183.093719,333.47229L183.241669,332.571411L183.363983,331.690063L183.463593,330.810425L183.537323,329.959351L183.588348,327.991821L183.53952,328.005981L183.474579,328.021606L183.182831,328.078735L183.120819,328.088257L182.814667,328.122437L182.757538,328.126587L182.437469,328.138062L182.384003,328.138062L182.04953,328.126587L182.00119,328.123413L181.652557,328.089233L181.608368,328.083618L181.245575,328.026489L181.20578,328.019165L180.828827,327.939087L180.7883,327.929321L180.426239,327.831421L180.390106,327.820679L180.050507,327.710571L180.012177,327.696899L179.69455,327.574829L179.652557,327.557251L179.357391,327.422974L179.312225,327.400757L179.03952,327.254272L178.992645,327.226929L178.742157,327.068481L178.692352,327.034058L178.464569,326.863159L178.415497,326.822876L178.20993,326.640015L178.166229,326.598022L177.851776,326.270142L177.797333,326.206665L177.514862,325.838501L177.469696,325.772827L177.218964,325.363892L177.183563,325.299194L176.964813,324.849976L176.937958,324.788208L176.750946,324.298218L176.731659,324.240601L176.576385,323.710327L176.562714,323.657104L176.439423,323.086304L176.430634,323.037964L176.339325,322.426636L176.331757,322.349976L176.332001,322.272827L176.340302,322.196167L176.355927,322.120483L176.379364,322.046997L176.409882,321.976196L176.447723,321.909058L176.491913,321.845825L176.542206,321.787476L176.598358,321.734497L176.659393,321.687378L176.703827,321.660034L176.615448,321.587036L176.586151,321.567749L176.524139,321.522095L176.466766,321.470337L176.415253,321.413208L176.369598,321.350952L176.330536,321.284546L176.298309,321.214233L176.273407,321.141235L176.256073,321.066284L176.246307,320.989624L176.244598,320.901001L176.331512,318.76355L176.338593,318.68689L176.353485,318.610962L176.375702,318.537231L176.405487,318.465942L176.442108,318.398315L176.485565,318.334595L176.535126,318.275513L176.590546,318.221802L176.651093,318.17395L176.716034,318.132446L176.776093,318.101929L176.742889,318.072876L176.705536,318.037964L176.640839,317.973267L176.589081,317.916138L176.543427,317.853882L176.504364,317.787476L176.472137,317.717407L176.447235,317.644409L176.429657,317.569214L176.419891,317.492798L176.417938,317.415649L176.422577,317.34729L176.638885,315.467651L176.651581,315.391724L176.671844,315.317261L176.699677,315.245239L176.734589,315.176392L176.776093,315.11145L176.824188,315.051147L176.878143,314.995972L176.937225,314.946411L177.000946,314.903198L177.069061,314.866577L177.140106,314.837036L177.214081,314.814819L177.289764,314.800171L177.366669,314.793335L177.379364,314.793579L177.306854,314.526001L177.300751,314.502075L177.186493,314.018433L177.181366,313.994507L177.082001,313.504028L177.070526,313.427612L177.066864,313.350708L177.071014,313.27356L177.082733,313.197388L177.093475,313.153198L177.374481,312.117065L177.398407,312.043823L177.429657,311.973267L177.467743,311.906128L177.512421,311.843384L177.563446,311.785522L177.619843,311.733032L177.681366,311.686401L177.747284,311.646362L177.816864,311.613159L177.889618,311.587036L177.933807,311.57605L177.885223,311.493042L177.849823,311.424683L177.821259,311.352905L177.800018,311.278687L177.786591,311.202759L177.780975,311.125854L177.782928,311.04895L177.792938,310.97229L177.810272,310.897095L177.847382,310.796265L178.215302,309.974976L178.229218,309.945435L178.48996,309.424683L178.509979,309.387329L178.773895,308.925903L178.800018,308.883423L179.066376,308.481567L179.10202,308.432251L179.370575,308.089722L179.421112,308.031616L179.477264,307.978882L179.538544,307.932007L179.604218,307.891479L179.673798,307.858032L179.746307,307.831665L179.821014,307.812622L179.89743,307.801392L179.948944,307.799194L179.946991,307.785767L179.944061,307.708862L179.948944,307.631714L179.960663,307.560425L179.959442,307.558472L179.924286,307.489868L179.89621,307.417847L179.875702,307.343628L179.866913,307.298462L179.742889,306.526733L179.741425,306.517456L179.628876,305.756226L179.627655,305.746216L179.526825,304.995972L179.525604,304.985962L179.436005,304.24646L179.434784,304.235962L179.356903,303.506958L179.355682,303.496216L179.289276,302.778442L179.2883,302.767212L179.233368,302.059937L179.232635,302.048218L179.189178,301.351929L179.188202,301.275024L179.195038,301.19812L179.209686,301.122437L179.231903,301.048462L179.261444,300.977173L179.298065,300.909302L179.341522,300.845581L179.391083,300.786499L179.446259,300.732544L179.506561,300.684692L179.571503,300.642944L179.64035,300.608032L179.643524,300.606812L179.349579,300.293335L179.299774,300.234253L179.256073,300.170776L179.219208,300.103149L179.189178,300.03186L179.166473,299.95813L179.151581,299.88269L179.143768,299.789185L179.121796,298.816284L179.121552,298.790894L179.130341,297.978638L179.130829,297.961304L179.157196,297.176147L179.157928,297.157349L179.202118,296.399048L179.203583,296.379272L179.26535,295.647827L179.267303,295.626831L179.346649,294.922485L179.349579,294.89978L179.446503,294.222534L179.450409,294.198608L179.564667,293.548462L179.56955,293.522583L179.701385,292.899292L179.721161,292.824829L179.748505,292.752563L179.782684,292.683472L179.823944,292.618286L179.871552,292.557495L179.925018,292.501831L179.983612,292.452026L180.047333,292.408325L180.11496,292.371216L180.136688,292.361938L180.113983,292.331177L180.074921,292.264771L180.042694,292.194702L180.017792,292.121704L180.000214,292.046509L179.990448,291.970093L179.988495,291.892944L179.994354,291.81604L180.007782,291.740112L180.020966,291.69104L180.171112,291.194946L180.183563,291.15686L180.682343,289.77478L180.712128,289.703735L180.748993,289.636108L180.792694,289.572388L180.842255,289.513306L180.897675,289.459839L180.958221,289.411987L181.023407,289.370728L181.092499,289.33606L181.16452,289.308716L181.238983,289.288696L181.315155,289.276245L181.392059,289.271606L181.469208,289.27478L181.54538,289.285767L181.617157,289.303589L181.607635,288.819214L181.607635,288.797729L181.613495,288.08728L181.613983,288.06604L181.639618,287.358521L181.640594,287.336548L181.686493,286.631958L181.688202,286.610474L181.753876,285.908569L181.756317,285.886841L181.84201,285.18811L181.84494,285.166382L181.950653,284.470337L181.954315,284.449097L182.079803,283.755737L182.083954,283.734009L182.229706,283.043823L182.234589,283.022827L182.400116,282.335327L182.405243,282.314575L182.590546,281.630005L182.596649,281.609253L182.802216,280.927612L182.808563,280.907593L183.033905,280.228638L183.042206,280.204956L183.271698,279.582642L183.277557,279.567017L183.510956,278.974487L183.517792,278.957886L183.755096,278.394897L183.763153,278.376343L184.004608,277.84314L184.013641,277.823853L184.259003,277.320435L184.269745,277.299438L184.519012,276.825562L184.531708,276.802368L184.785126,276.358521L184.79953,276.334106L185.057098,275.9198L185.081268,275.883423L185.456268,275.350708L185.484589,275.31311L185.873749,274.827026L185.907196,274.788208L186.31076,274.348511L186.349823,274.308716L186.767303,273.915894L186.812469,273.876587L187.24411,273.530151L187.296356,273.491821L187.742401,273.192261L187.79953,273.157349L188.259491,272.903931L188.322723,272.872925L188.7966,272.666382L188.841522,272.64856L189.219452,272.511597L189.268524,272.495483L189.644257,272.387573L189.697723,272.37439L190.071259,272.295776L190.126923,272.286255L190.498505,272.23645L190.557587,272.230835L190.927216,272.210327L190.987274,272.209351L191.35495,272.217896zM200.700165,303.869263L200.702606,303.871704L200.702118,303.86853L200.700165,303.869263zM182.559784,318.165161L182.580292,318.185425L182.574432,318.159302L182.559784,318.165161zM212.008026,290.923706L212.053192,290.956177L212.033661,290.90564L212.008026,290.923706zM209.095673,296.248169L209.127167,296.426392L209.174042,296.41394L209.238007,296.403687L209.083954,296.196899L209.095673,296.248169zM179.533173,319.573364L179.4758,319.624634L179.4133,319.670044L179.408661,319.672729L179.562469,319.77478L179.925507,319.994507L179.665497,319.638794L179.651093,319.618286L179.583221,319.518677L179.533173,319.573364zM201.554901,282.598755L201.517059,282.666138L201.48288,282.714966L201.519745,282.741333L201.580048,282.789429L201.631805,282.839722L201.731415,282.946167L201.781219,283.005249L201.811737,283.048218L201.898895,283.180786L201.937958,283.247437L201.970184,283.317505L201.994843,283.390503L202.012421,283.465698L202.021942,283.542114L202.023895,283.619263L202.018036,283.696167L202.004364,283.772095L201.987762,283.829712L201.99826,283.829712L202.075409,283.833618L202.151581,283.845337L202.226288,283.864624L202.298553,283.891235L202.367889,283.925171L202.433319,283.965942L202.507538,284.025024L202.70285,284.200562L202.733124,284.229126L202.914032,284.410522L202.943573,284.442017L203.109589,284.62854L203.139618,284.664429L203.290741,284.856812L203.318329,284.894165L203.426239,285.050415L203.435516,285.039673L203.491425,284.98645L203.55246,284.939331L203.617889,284.89856L203.687225,284.86438L203.699188,284.859985L203.694061,284.855347L201.558563,282.59021L201.554901,282.598755zM200.417587,303.162292L199.768539,300.527466C199.090546,301.016693,199.306885,301.894501,200.417587,303.162292zM180.900436,291.415894L180.750229,291.911987L180.966583,292.128326L181.767212,292.776001C181.593582,291.99881,181.470947,291.085175,181.399292,290.033722L180.900436,291.415894zM210.912735,288.760406L210.868637,288.760406L209.354172,289.084259C210.118973,289.428772,210.86174,289.83252,211.582458,290.292786L210.912735,288.760406zM177.179733,317.434631L177.244507,317.49939L178.99736,319.031769C178.333145,317.966553,177.79985,316.807617,177.396088,315.554993L177.179733,317.434631zM181.46405,314.518707L181.355194,314.518707L180.382294,314.130096C180.670303,315.253204,181.305573,316.361145,182.28537,317.455292L181.46405,314.518707zM203.577423,316.764893C203.361084,317.296814,203.252213,317.830139,203.252213,318.362061C203.238434,318.779602,203.303207,319.312897,203.447891,319.960571C204.039078,319.125488,204.420792,318.211853,204.594421,317.218262C204.78183,316.224701,204.737732,315.23941,204.46489,314.259644L203.577423,316.764893zM208.359222,288.65155C209.008286,288.305664,209.728989,288.061737,210.522736,287.917053L209.440979,285.629517C208.834641,286.031891,208.243469,286.809113,207.666077,287.961151L208.2724,288.608826L208.359222,288.65155zM203.599487,289.667175C203.035858,290.558746,202.26416,291.141663,201.28299,291.415894L201.759796,293.380981C202.393692,292.559662,203.28804,291.724579,204.442841,290.875702L203.599487,289.667175zM178.910553,310.286743L178.542603,311.108063C179.046967,312.071289,179.912384,312.82785,181.13884,313.374939C180.60553,311.50354,180.215546,309.898132,179.970261,308.560059C179.610596,308.9776,179.256439,309.552246,178.910553,310.286743zM197.649109,292.668518L194.727676,293.488464C195.434601,294.366272,196.335846,294.956085,197.432755,295.259247C197.547134,295.288177,197.605011,295.359833,197.605011,295.474213L197.691833,295.647858L197.649109,296.511871C198.081818,296.511871,198.456635,296.590424,198.77359,296.748901L197.649109,292.668518zM205.286194,290.31485L207.342224,289.126984L203.988083,285.564728C204.391846,286.527985,204.427673,287.536713,204.096954,288.586792L204.117615,288.608826L205.286194,290.31485zM199.228348,322.270172C198.867294,321.046478,198.124542,319.759369,196.998672,318.406158C196.998672,320.032227,196.927017,321.58667,196.782318,323.069427L199.422638,322.917847L199.228348,322.270172zM217.96553,300.721771L219.265015,300.052063L220.367447,299.274841C220.353668,297.80722,219.517197,296.45401,217.858047,295.215149C218.203934,297.144409,218.239761,298.97995,217.96553,300.721771zM210.00322,302.23349C210.45108,301.556885,210.580627,300.728668,210.393204,299.750275C210.24852,298.915161,209.895737,298.051147,209.332123,297.159546C209.318344,298.066315,209.088211,298.944122,208.64035,299.792999C208.207642,300.599152,207.609573,301.318481,206.844757,301.952362L210.00322,302.23349zM213.163071,283.037415L213.03215,283.124237L214.396408,285.650177C215.175003,285.16098,216.401459,284.959778,218.074387,285.045227L216.58197,283.23172C216.033524,282.628143,215.132278,282.440735,213.876892,282.670868L213.163071,283.037415zM180.55455,321.191162C179.256439,320.572418,178.103012,319.773163,177.092911,318.794739L177.006104,320.932098L177.070862,320.974823C179.033188,322.644989,181.153992,323.659241,183.433273,324.01889L183.216919,322.140625C182.465881,321.968384,181.723114,321.716187,180.987244,321.385468L180.663406,321.320709L180.55455,321.191162zM177.828796,313.352875C178.319366,315.987701,179.443848,318.326233,181.203598,320.369843L183.065338,321.083679L182.740112,319.42038L182.740112,319.398346C180.561432,317.412598,179.430069,315.461273,179.343246,313.54718L178.109909,312.316589L177.828796,313.352875zM207.364273,274.336487C209.166748,276.697052,210.941666,279.403534,212.686264,282.454498L213.400085,282.023193C213.125854,280.22345,212.570511,278.618042,211.734039,277.208313C210.754257,275.55191,209.520905,274.421936,208.034012,273.818329L207.364273,274.336487zM183.518707,325.012451C181.210495,324.710663,179.069031,323.810822,177.092911,322.31427C177.294113,323.99823,177.835678,325.250854,178.716248,326.070801C179.23439,326.575165,179.99231,326.948608,180.987244,327.193909C182.011139,327.437805,182.884811,327.437805,183.60553,327.193909L183.518707,325.012451zM196.047836,279.582672C197.114426,280.835327,198.196198,281.936371,199.293106,282.887207L199.444702,282.800385C199.560455,282.655701,199.689987,282.584045,199.833298,282.584045L199.855347,282.584045L200.439636,282.324982L200.872345,282.260193L194.966064,275.977722C194.879257,275.8909,194.850311,275.783417,194.879257,275.6539L194.25087,274.725098L194.056564,274.573517C193.797501,274.070526,193.40062,273.673645,192.865936,273.385651C192.852158,274.408142,193.198044,275.524353,193.904984,276.73288C194.366623,277.510101,195.080444,278.460968,196.047836,279.582672zM216.278809,289.796692C216.854828,291.27948,217.287537,292.646484,217.57692,293.899109L217.815323,293.941833C218.680725,294.473755,219.401443,295.100769,219.978836,295.820099C220.641678,296.626251,221.038559,297.475128,221.168091,298.368103C221.774429,297.519226,222.098267,296.539429,222.142365,295.431488C221.580124,294.194031,220.77948,293.07782,219.740448,292.084229C218.716553,291.092041,217.561768,290.328613,216.278809,289.796692zM214.742294,286.341949L215.802002,288.629486L216.018356,288.629486C217.173157,289.004333,218.268692,289.573456,219.307739,290.33551C220.317841,291.098938,221.183243,291.983643,221.903961,292.992371C221.413376,290.746155,220.353668,288.41452,218.72345,285.996063L218.529144,286.018127L216.624695,285.931305C215.817169,285.945068,215.188782,286.082886,214.742294,286.341949zM205.178711,279.906525C205.221436,281.418213,205.19249,283.11734,205.091888,285.002502L205.02713,285.176147L207.125885,287.398895C207.688126,286.290955,208.34407,285.471039,209.095093,284.937744L206.044113,278.934998L205.178711,279.906525zM204.8535,276.775604C204.117615,277.552826,203.108902,278.035126,201.82457,278.222565C200.569168,278.381042,199.322052,278.237701,198.081818,277.791229L204.248535,284.332764L204.313309,280.533508C204.298141,280.087036,204.442841,279.691528,204.746002,279.345642L205.61142,278.244598L205.63208,278.201874L204.8535,276.775604zM199.725815,288.910614C199.50946,289.357117,199.177353,289.723663,198.730865,290.011658L197.345947,290.638672C196.01889,291.141663,194.850311,291.451721,193.84021,291.566101L194.186096,292.711243L194.230194,292.776001L197.562286,291.825165C197.633957,291.509583,197.836517,291.17749,198.167252,290.832977L199.032654,290.163269L200.049652,290.09848C200.396912,290.185303,200.70697,290.357544,200.981201,290.616638C202.393692,290.343781,203.187439,289.49353,203.361084,288.068634C203.53334,286.672668,203.079956,285.513763,201.998199,284.591858L201.867279,284.591858C200.916443,284.276276,200.339035,284.736542,200.136475,285.97403L200.006927,287.593201C199.949051,288.227112,199.855347,288.666718,199.725815,288.910614zM194.770386,285.564728C194.034515,287.521545,193.695526,289.22757,193.753403,290.681396C195.225143,290.580811,196.782318,290.127441,198.427704,289.321259C198.889343,289.091125,199.155304,288.515106,199.228348,287.593201C199.228348,286.556915,199.271057,285.866516,199.35788,285.52063C199.473633,285.002502,199.703766,284.571167,200.049652,284.225281C200.396912,283.879395,200.80069,283.671326,201.262329,283.59967C201.045975,283.21106,200.698715,283.102173,200.223282,283.275818L199.098801,283.83667C198.579285,284.08197,197.91507,284.305206,197.107544,284.506409L195.030838,284.959778L194.770386,285.564728zM199.249008,307.372192C198.744659,307.803528,198.175522,308.084656,197.540253,308.214172C196.920135,308.314758,196.335846,308.163177,195.787384,307.760803C195.974792,309.142975,196.25592,310.344635,196.632111,311.367126C196.920135,312.200836,197.424484,313.035919,198.146576,313.871033L200.310104,315.900879L200.332153,315.836121C200.966049,313.964722,201.305054,312.251831,201.349152,310.697388C201.391861,309.690063,201.340881,308.58075,201.197556,307.372192C200.53334,307.573395,199.884293,307.573395,199.249008,307.372192zM183.302353,337.471313C183.418106,338.306396,183.699234,338.846588,184.147095,339.090515C185.199921,339.695465,186.072205,339.961426,186.765366,339.889771L186.937622,339.306854C186.966553,339.177307,187.053375,339.061554,187.198074,338.960968L187.58667,338.875519C190.457123,339.983459,193.046463,340.631165,195.354675,340.818542L197.345947,340.73175C198.211349,340.544342,198.470428,340.141937,198.124542,339.523193C197.734543,338.831421,196.984894,338.219574,195.874191,337.687653C195.325745,337.413422,194.395569,337.053772,193.082291,336.607269C191.6698,337.529175,189.916931,338.011505,187.825073,338.054199C186.382263,338.125885,184.918793,337.93985,183.433273,337.493347L183.302353,337.471313zM199.335831,298.843506L199.18425,298.691925C199.06987,298.318481,198.860413,298.01532,198.557236,297.785187C198.269226,297.583984,197.930237,297.468231,197.540253,297.439301C197.208145,299.267944,196.530151,300.657013,195.506256,301.606476C194.366623,302.628998,192.845276,303.3125,190.940826,303.658386C191.286713,305.255524,191.877884,306.32074,192.715729,306.854065L192.845276,306.940857L193.66658,307.220612L195.073563,307.070404L194.230194,305.623474C194.143387,305.407104,194.230194,305.190765,194.489273,304.9758L195.051514,304.99646C195.802536,306.709351,196.710663,307.472778,197.778641,307.28537L198.492462,307.005646C197.814484,306.588104,197.266022,305.954193,196.848465,305.105316C196.74649,304.888977,196.826416,304.672607,197.085495,304.457642L197.649109,304.478302C198.254074,305.702026,199.054718,306.400665,200.049652,306.572937C200.294952,306.630798,200.605011,306.630798,200.981201,306.572937L201.06665,306.530212L200.807571,304.99646C200.013824,304.306061,199.451584,303.723145,199.119476,303.247742C198.571014,302.456726,198.405655,301.693298,198.622009,300.958801C198.751541,300.484772,199.06987,300.080994,199.574234,299.750275L199.50946,299.578003L199.335831,298.843506zM182.04834,294.158203L180.447052,293.057129C180.072235,294.683228,179.883438,296.597321,179.883438,298.799408L179.905487,299.772308C181.145721,301.168274,182.75528,302.376801,184.731384,303.399323C186.447037,304.27713,188.358368,304.960632,190.465393,305.449829L189.988602,303.701111L189.058426,303.162292L188.279831,302.535278C186.620667,301.297791,185.177856,299.792999,183.951416,298.022217L183.043289,296.425049C182.668457,295.705719,182.365295,294.964355,182.133774,294.200897L182.04834,294.158203zM212.037201,291.911987C211.013321,291.06311,209.700058,290.299683,208.09877,289.623077C206.166763,290.544983,204.6082,291.552307,203.425842,292.646484C204.49382,292.430115,205.596252,292.617554,206.735901,293.207336C207.817657,293.754425,208.769882,294.55368,209.59256,295.60376C210.415253,296.655182,210.948563,297.756256,211.193848,298.908295C211.468079,300.160919,211.352325,301.26886,210.847961,302.23349L212.318329,302.168732C213.241608,301.132446,213.653641,299.663452,213.551666,297.763123C213.480011,296.482941,213.163071,294.920227,212.599442,293.07782L212.231506,291.976746C212.146072,291.976746,212.081299,291.954712,212.037201,291.911987zM202.192505,294.006592C201.485565,294.956085,201.088699,295.928955,201.001877,296.921143C200.887497,298.216522,201.327087,299.296906,202.322037,300.160919C203.14473,300.880249,204.32019,301.41217,205.848434,301.758057C206.96051,301.052521,207.723953,300.138885,208.142868,299.015778C208.589355,297.849945,208.560425,296.677246,208.056061,295.496277L207.817657,295.237183C207.039063,294.502686,206.151611,293.992828,205.156662,293.704803C204.00325,293.358917,203.015198,293.459534,202.192505,294.006592zM205.502548,275.848206C207.594406,279.64743,209.434097,283.253784,211.020218,286.665802C212.405151,289.61618,213.314651,291.940918,213.74736,293.640045C214.164902,295.324005,214.381256,296.755798,214.396408,297.936768C214.410187,299.60556,214.049149,300.973969,213.314651,302.039185C214.583817,301.86554,215.83783,301.549988,217.079453,301.088348C217.512146,298.512787,217.208984,295.60376,216.169937,292.365356C215.449234,290.120544,214.23793,287.427856,212.534683,284.29007C210.674332,280.821533,208.662384,277.690643,206.498871,274.897339L205.718903,275.330048L205.502548,275.848206zM199.768539,291.047943C199.552185,290.947357,199.264175,290.983185,198.903122,291.15683C198.557236,291.329071,198.383606,291.523376,198.383606,291.739746L198.427704,291.934021L198.967896,293.790253C199.949051,297.41864,200.649094,300.145752,201.06665,301.974426C201.947205,305.717163,202.322037,308.783295,202.192505,311.172821C202.134628,312.381348,201.875549,313.698761,201.41391,315.123657L200.82962,317.110779C200.684937,317.801178,200.67804,318.48468,200.807571,319.161316C200.850296,319.391449,200.727646,319.592651,200.439636,319.766266C200.165405,319.924744,200.000046,319.866882,199.942169,319.592651C199.783691,318.714844,199.804367,317.837006,200.006927,316.959198L199.877396,316.89444C198.93895,316.131012,198.189301,315.440613,197.62706,314.821869C196.848465,313.971619,196.284851,313.129639,195.938965,312.294556C195.44838,311.099792,195.102493,309.667999,194.899933,307.997833L193.233871,308.12735L193.061615,308.084656C193.320694,309.625275,193.623856,310.913757,193.969757,311.950043C194.431396,313.303284,195.037735,314.453918,195.787384,315.404785L198.167252,318.211853C199.047821,319.333557,199.645889,320.398804,199.964218,321.407501C200.540237,323.292664,201.521393,326.776367,202.906326,331.857178L206.108887,343.496094C206.122665,343.567749,206.354172,343.617371,206.800659,343.646301L207.645401,343.668335C207.832809,343.639404,208.084991,343.509888,208.401947,343.279724L208.510803,343.172241C208.005066,340.997711,207.335342,338.514465,206.498871,335.722565C205.689972,333.03125,204.832825,329.914154,203.923325,326.372589L202.9711,322.529236C202.625214,321.032684,202.401962,319.744232,202.299988,318.665222C202.271057,318.174622,202.401962,317.584839,202.689972,316.89444C203.267365,315.469543,203.642197,314.38916,203.815826,313.656036L203.945374,312.964264C203.887482,312.863678,203.901276,312.727264,203.988083,312.553619C204.204437,310.985413,204.154831,309.178802,203.836502,307.135162L202.712021,301.780121L202.732697,301.585815C200.944,300.54953,200.078598,299.145294,200.136475,297.374542C200.151627,296.353394,200.461685,295.344666,201.06665,294.352478L200.981201,294.200897L200.332153,291.436554L199.768539,291.047943zM189.101135,273.36496C187.818192,273.854187,186.68544,274.839478,185.704285,276.322235C185.012497,277.387451,184.363449,278.769623,183.757111,280.46875C182.501709,284.08197,182.097946,287.816467,182.545807,291.674957C182.718063,293.028198,183.114944,294.337341,183.735062,295.60376C184.3414,296.798523,185.113098,297.928497,186.050171,298.993713C187.147079,300.261505,188.481018,301.398407,190.05336,302.405762L190.465393,302.664825L190.508118,302.686859C191.416245,302.557343,192.325745,302.305145,193.233871,301.930328C194.027618,301.614746,194.6698,301.168274,195.16037,300.592255C195.606857,300.074097,195.983063,299.368561,196.284851,298.475586C196.501205,297.843048,196.645905,297.137512,196.71756,296.360291L196.71756,296.20871C195.492477,295.791168,194.489273,295.020844,193.710678,293.899109L193.385468,293.336884C192.823227,292.315735,192.6427,291.027283,192.845276,289.47287C192.961029,288.479279,193.277969,287.190826,193.797501,285.607452L194.359741,284.29007C194.676682,283.742981,195.030838,283.461853,195.419449,283.448059C195.564133,283.434296,195.650955,283.499054,195.679901,283.642365L195.744659,283.901459L198.189301,283.275818C197.049667,282.253326,195.983063,281.130219,194.98674,279.906525C193.991791,278.726929,193.262817,277.682373,192.801178,276.775604C192.138336,275.466492,191.886154,274.249664,192.044632,273.126556L192.066681,273.083862C191.099289,272.867493,190.111237,272.961212,189.101135,273.36496zM180.706131,307.718079C181.153992,310.136536,181.723114,312.432343,182.416275,314.60553C182.804886,315.871948,183.159042,317.232056,183.475983,318.685883L183.518707,318.944946L183.951416,321.385468L183.973465,321.537048C184.232529,323.509033,184.363449,325.343201,184.363449,327.042297C184.435104,327.158081,184.435104,327.308289,184.363449,327.495697L184.298676,330.000977C184.211853,331.180573,184.060272,332.382202,183.843933,333.605896C183.757111,334.168152,183.649628,334.700073,183.518707,335.204437L183.346451,335.765289L183.19487,336.348206C183.569702,336.665161,184.225647,336.8815,185.164093,336.99588L187.240784,337.125427L190.140182,336.953156C191.193008,336.723022,192.094238,336.356476,192.845276,335.852112C193.984909,332.987183,194.835159,330.007843,195.398773,326.912781C195.974792,323.774994,196.213196,320.695068,196.112595,317.671661L196.177368,317.455292L194.57608,315.534302C194.027618,314.786041,193.645905,314.058441,193.429565,313.352875C192.809448,311.367126,192.354691,309.473694,192.066681,307.673981C191.676697,307.414917,191.32254,307.033203,191.005585,306.530212L190.898102,306.530212C188.820023,306.112671,186.879745,305.500824,185.077271,304.694672C183.028122,303.758972,181.319366,302.628998,179.949585,301.304688C180.050186,303.147125,180.273422,305.105316,180.619324,307.177887C180.777786,307.249542,180.806732,307.430084,180.706131,307.718079z"/>
</svg>
