<?xml version="1.0" encoding="UTF-8"?>
<svg xmlns="http://www.w3.org/2000/svg" xmlns:xlink="http://www.w3.org/1999/xlink" width="45.587mm" height="65.326mm" viewBox="-511.575531 356.656128 45.586670 65.326416">
    <path transform="matrix(-1,0,0,1,0,0)" style="stroke:none;fill:#000000;fill-rule:evenodd" d="M481.693695,356.660034L481.769867,356.671753L481.844574,356.69104L481.91684,356.717651L481.986176,356.751587L482.051605,356.792358L482.11264,356.839722L482.168549,356.8927L482.218842,356.951294L482.262787,357.014526L482.300385,357.081909L482.330902,357.15271L482.353607,357.224731L482.575531,358.070679L482.5914,358.146118L482.599457,358.222778L482.599701,358.299927L482.592133,358.376831L482.576752,358.452515L482.567719,358.481567L482.607758,358.598755L482.706635,358.843872L482.823822,359.095825L482.960052,359.355591L483.114594,359.621216L483.289886,359.89563L483.482513,360.173462L483.681244,360.439087L483.931488,360.719604L483.943451,360.702271L483.993256,360.643433L484.049164,360.59021L484.109955,360.542847L484.17514,360.501587L484.244232,360.467407L484.316498,360.440308L484.390961,360.420776L484.467377,360.408569L484.544281,360.404419L484.621429,360.407837L484.697601,360.419312L484.772308,360.438354L484.844818,360.464722L484.899261,360.490356L485.387787,360.744507L485.858734,360.949585L486.331146,361.116089L486.806244,361.244995L487.285004,361.337036L487.769867,361.3927L488.26181,361.411743L488.757904,361.393921L489.13266,361.35437L489.487396,361.289673L489.81308,361.202515L490.123627,361.090454L490.414642,360.9552L490.684174,360.798462L490.938568,360.617065L491.205414,360.387329L491.266205,360.34021L491.331635,360.299194L491.40097,360.265259L491.473236,360.238159L491.547943,360.218872L491.624115,360.206909L491.701019,360.203003L491.778168,360.206665L491.85434,360.218384L491.929047,360.237427L492.001556,360.264038L492.070892,360.297974L492.136322,360.338501L492.197357,360.38562L492.204926,360.3927L492.230316,360.38269L492.2435,360.379028L492.030609,360.046021L491.992279,359.979126L491.961029,359.908569L491.937103,359.835083L491.920746,359.759888L491.911957,359.683228L491.91098,359.606079L491.917816,359.529175L491.932465,359.453491L491.954681,359.379517L491.984222,359.308472L492.020844,359.240356L492.064056,359.176636L492.113617,359.117554L492.168793,359.063599L492.229095,359.015503L492.294037,358.973999L492.360931,358.940063L492.569672,358.846558L492.799164,358.735718L493.044281,358.609741L493.322845,358.459839L493.39267,358.42688L493.465424,358.401001L493.540131,358.38269L493.616547,358.371948L493.693695,358.369019L493.770599,358.373901L493.786713,358.376587L493.808441,358.315308L493.841644,358.245728L493.881439,358.17981L493.92807,358.118286L493.980316,358.061646L494.042084,358.00769L494.890961,357.342163L494.953949,357.297729L495.021332,357.259888L495.091888,357.228882L495.165375,357.205444L495.240814,357.189331L495.317474,357.18103L495.394623,357.180542L495.471527,357.187866L495.547211,357.202759L495.617035,357.223999L496.078461,357.38855L496.150238,357.418335L496.595551,357.630493L496.661713,357.666138L497.090668,357.925171L497.151459,357.965942L497.564056,358.272583L497.616791,358.315552L498.013031,358.669067L498.059174,358.713989L498.438812,359.115112L498.477142,359.158813L498.840424,359.606812L498.872894,359.64978L499.219574,360.144897L499.248871,360.190063L499.508148,360.622437L499.52597,360.653931L499.767914,361.104614L499.783539,361.135132L500.008636,361.603882L500.022308,361.634155L500.23056,362.121216L500.242523,362.151245L500.433685,362.656616L500.444183,362.685669L500.618256,363.209351L500.627045,363.237427L500.784271,363.779419L500.791595,363.807007L500.911713,364.287476L500.957123,364.277954L501.03183,364.265991L501.443451,364.221069L501.530609,364.216675L501.917328,364.218872L502.015961,364.225952L502.377289,364.275269L502.484955,364.297974L502.820892,364.394653L502.89389,364.419556L502.930267,364.435181L503.241058,364.578979L503.309174,364.614868L503.34433,364.637085L503.629974,364.828003L503.691986,364.874146L503.721771,364.900024L503.981781,365.13855L504.033539,365.19104L505.246185,366.541382L505.294769,366.601196L505.337006,366.665649L505.37265,366.734253L505.40097,366.805786L505.421967,366.880005L505.435394,366.956177L505.44101,367.033081L505.439056,367.109985L505.434662,367.1427L505.503754,367.15564L505.577728,367.177368L505.649017,367.206665L505.717133,367.242798L505.781342,367.285767L505.840668,367.334839L505.894867,367.389771L505.932465,367.435669L506.377533,368.021362L506.397797,368.04895L506.693939,368.477417L506.698578,368.484497L506.981537,368.903931L506.987152,368.912476L507.256195,369.322876L507.261566,369.331177L507.517181,369.7323L507.523285,369.741821L507.765228,370.134155L507.770844,370.143677L507.999359,370.526733L508.005707,370.537476L508.220551,370.911255L508.226898,370.922485L508.428314,371.287231L508.43515,371.299927L508.622894,371.65564L508.62973,371.669067L508.804047,372.015747L508.811371,372.030396L508.972015,372.367798L508.979584,372.384155L509.126556,372.712524L509.133881,372.729614L509.267426,373.048706L509.274994,373.067505L509.395111,373.377319L509.403168,373.399048L509.509369,373.699829L509.516937,373.722534L509.609711,374.014282L509.629486,374.088989L509.641449,374.165161L509.645599,374.242065L509.641937,374.319214L509.630707,374.395386L509.611664,374.470337L509.585297,374.542603L509.551605,374.612183L509.511078,374.677612L509.464203,374.738892L509.411224,374.795044L509.352875,374.845581L509.289886,374.890015L509.222504,374.927612L509.171967,374.949585L509.335541,375.181274L509.356049,375.211792L509.613129,375.616089L509.632172,375.647583L509.857758,376.043335L509.884125,376.083374L509.923187,376.150024L509.955414,376.220093L509.980316,376.293091L509.99765,376.368042L510.007416,376.444702L510.009613,376.502563L510.009613,376.864868L510.007416,376.924438L509.982758,377.238892L509.977386,377.286011L509.933685,377.595093L509.925629,377.642212L509.863129,377.945435L509.851654,377.993042L509.770111,378.290649L509.755707,378.337524L509.655121,378.629517L509.638031,378.674438L509.518646,378.960815L509.498871,379.004272L509.360687,379.28479L509.33847,379.326782L509.181244,379.60144L509.139496,379.666138L509.0914,379.726685L509.037689,379.78186L508.978363,379.831421L508.914642,379.874634L508.846771,379.911011L508.775482,379.940552L508.701508,379.962769L508.625824,379.977417L508.54892,379.984253L508.53891,379.984009L508.547699,380.050171L508.554047,380.127075L508.552338,380.204224L508.54306,380.28064L508.52597,380.355835L508.501312,380.429077L508.469574,380.49939L508.430756,380.56604L508.385345,380.628296L508.330414,380.689575L508.120697,380.898804L508.096039,380.922241L507.871185,381.127319L507.846283,381.149292L507.606293,381.349731L507.582123,381.369019L507.326752,381.565308L507.303314,381.582642L507.032806,381.774536L507.010101,381.789917L506.724457,381.977417L506.701996,381.991577L506.401215,382.174438L506.380219,382.18689L506.064301,382.365356L505.995453,382.39978L505.923187,382.427124L505.848724,382.446899L505.772552,382.459351L505.695648,382.463745L505.6185,382.460571L505.542084,382.449341L505.522308,382.444458L505.51181,382.466675L505.471771,382.532593L505.425385,382.594116L505.373138,382.650757L505.315277,382.701782L505.252533,382.746704L505.185638,382.785034L505.132416,382.809448L504.437592,383.097534L504.401947,383.11145L503.671722,383.371948L503.637299,383.383179L502.871429,383.616089L502.838715,383.625366L502.037933,383.830444L502.02475,383.833618L501.600189,383.934204L501.524261,383.94812L501.447357,383.954468L501.370209,383.952759L501.293549,383.943481L501.218353,383.926392L501.145355,383.901733L501.075043,383.869995L501.074554,383.869751L501.069183,383.876587L501.015472,383.931763L500.95639,383.981567L500.89267,384.025024L500.825043,384.06189L500.753754,384.091675L500.680023,384.113892L500.596527,384.130005L499.241791,384.310669L499.164886,384.317017L499.087738,384.315552L499.011078,384.306274L498.935883,384.289185L498.86264,384.264771L498.792572,384.233032L498.788422,384.230591L498.755219,384.256958L498.690277,384.298462L498.621429,384.333374L498.549408,384.360962L498.501068,384.374146L498.532806,384.392944L498.594574,384.438843L498.651703,384.490845L498.703217,384.548218L498.748383,384.610718L498.787201,384.677368L498.819183,384.747681L498.836761,384.797241L499.054291,385.485474L499.057465,385.495483L499.275482,386.21936L499.277924,386.228149L499.496918,386.987915L499.499359,386.996216L499.718842,387.79187L499.720795,387.799438L499.94101,388.631226L499.942963,388.638306L500.16391,389.505737L500.165619,389.512573L500.38681,390.416138L500.388031,390.421997L500.610199,391.361694L500.612885,391.372681L502.067963,397.96228L502.080658,398.038452L502.085297,398.109009L502.151459,398.15979L502.506927,398.473022L502.569672,398.535034L502.889496,398.890259L502.943207,398.957153L503.227142,399.354858L503.270844,399.423706L503.518646,399.863403L503.552338,399.930542L503.764496,400.41272L503.789398,400.476929L503.965424,401.001099L503.982758,401.060913L504.122894,401.627563L504.134125,401.681763L504.238373,402.290649L504.24765,402.36731L504.249359,402.419312L504.249359,402.479858L504.246429,402.546509L504.230804,402.724487L504.216888,402.817261L504.180267,402.988403L504.154388,403.080688L504.097015,403.244507L504.147552,403.290161L504.19931,403.347534L504.244965,403.409546L504.284027,403.476196L504.316254,403.546265L504.3414,403.619263L504.358734,403.694214L504.3685,403.770874L504.370697,403.829956L504.369965,404.358032L504.369476,404.383911L504.349213,404.959839L504.348236,404.981812L504.308197,405.605347L504.306732,405.624634L504.246429,406.296265L504.235687,406.372681L504.217133,406.447632L504.191254,406.520142L504.158051,406.589966L504.118011,406.655884L504.071625,406.717407L504.019135,406.774048L503.986176,406.804077L504.013031,406.847778L504.046722,406.917114L504.073334,406.989624L504.092377,407.064331L504.103607,407.140503L504.107269,407.217651L504.103119,407.2948L504.093842,407.357056L503.81015,408.848267L503.79184,408.923218L503.78183,408.951782L503.828217,408.977173L503.839447,408.983276L504.133392,409.150269L504.14267,409.15564L504.450531,409.336304L504.459808,409.341919L504.781097,409.536743L504.787933,409.540894L505.123383,409.749146L505.130951,409.754028L505.480072,409.97644L505.486176,409.980103L505.849213,410.216187L505.854828,410.220093L506.231781,410.470093L506.293793,410.515991L506.350922,410.567749L506.402435,410.625122L506.44809,410.687378L506.486908,410.754028L506.51889,410.824097L506.543793,410.897095L506.560883,410.97229L506.570648,411.04895L506.570892,411.064575L506.617523,411.050415L506.693207,411.035767L506.769867,411.028687L506.847015,411.029175L506.923676,411.03772L506.999115,411.054077L507.072601,411.077759L507.143158,411.108765L507.210297,411.146851L507.269135,411.18811L507.549408,411.405884L507.555511,411.410767L507.820648,411.621216L507.826752,411.626099L508.076752,411.828735L508.083832,411.834595L508.318695,412.029663L508.326263,412.036011L508.546234,412.223511L508.555511,412.231567L508.760101,412.411743L508.76889,412.419556L508.958588,412.591919L508.970062,412.602661L509.144379,412.7677L509.197601,412.823364L509.244965,412.884155L509.28598,412.949585L509.319916,413.018921L509.347015,413.091187L509.366547,413.165649L509.378265,413.241821L509.382416,413.31897L509.382172,413.325806L509.397308,413.325562L509.474213,413.332397L509.549896,413.346802L509.623871,413.369019L509.69516,413.39856L509.763031,413.434937L509.826996,413.478149L509.886078,413.52771L509.946625,413.590454L510.233978,413.924927L510.257172,413.953247L510.512543,414.281128L510.536713,414.314087L510.76059,414.63562L510.78598,414.674194L510.978119,414.98938L511.003754,415.03479L511.16391,415.34314L511.188812,415.396118L511.317474,415.698364L511.340424,415.759155L511.437347,416.054565L511.456635,416.124634L511.52182,416.41394L511.535004,416.491821L511.568451,416.774292L511.573822,416.859253L511.575531,417.13562L511.570892,417.224487L511.540863,417.494263L511.525238,417.584839L511.463226,417.848022L511.437592,417.93396L511.344086,418.190796L511.309662,418.270874L511.184418,418.521362L511.143646,418.592651L510.986664,418.836792L510.942474,418.89856L510.753754,419.136108L510.711761,419.184692L510.481537,419.429077L510.447601,419.462769L510.201752,419.692993L510.165131,419.72522L509.903168,419.940796L509.866302,419.96936L509.58847,420.170776L509.550385,420.196655L509.256927,420.383423L509.218597,420.406128L508.909271,420.578491L508.870941,420.598511L508.545746,420.756226L508.507904,420.773315L508.16684,420.916382L508.084076,420.945679L505.436859,421.712036L505.36557,421.728882L504.295013,421.930054L504.218597,421.940552L504.141693,421.943237L504.064545,421.937866L503.988617,421.924927L503.914154,421.904419L503.842377,421.876587L503.773773,421.841431L503.708832,421.799438L503.648773,421.751343L503.593597,421.697144L503.544281,421.637817L503.530121,421.616577L503.504242,421.657593L503.456879,421.718628L503.403656,421.774292L503.345062,421.824585L503.281586,421.86853L503.214203,421.905884L503.143158,421.936157L503.069672,421.959106L502.993988,421.974487L502.917328,421.982056L502.854828,421.982544L502.517914,421.971558L502.4935,421.970581L502.13974,421.947632L502.117767,421.945679L501.746674,421.910767L501.726654,421.908813L501.338715,421.861938L501.320648,421.859497L500.915375,421.800659L500.898773,421.797974L500.476654,421.727173L500.461517,421.724487L500.022308,421.641724L500.008392,421.639038L499.552338,421.544312L499.477875,421.52478L499.405609,421.497925L499.336273,421.463745L499.270844,421.422729L499.210052,421.37561L499.158051,421.32605L499.100922,421.341431L499.02475,421.354126L498.947845,421.359009L498.870697,421.356079L498.794281,421.345337L498.736664,421.331909L497.963226,421.119263L497.881195,421.105347L497.806,421.088745L497.732758,421.064331L497.662445,421.032593L497.595551,420.994019L497.533051,420.948853L497.475433,420.897583L497.441498,420.860718L497.419281,420.868042L497.343842,420.884399L497.267181,420.892944L497.190277,420.893921L497.113373,420.886841L497.002289,420.862671L496.550629,420.727905L496.541107,420.724976L496.115326,420.591919L496.105316,420.588745L495.705414,420.457642L495.693695,420.453735L495.319427,420.324341L495.30722,420.319946L494.958832,420.192749L494.943451,420.18689L494.621185,420.061401L494.60434,420.054565L494.307709,419.930786L494.288422,419.922485L494.01767,419.800659L493.982269,419.783813L493.601898,419.588501L493.569672,419.570679L493.217133,419.367554L493.182953,419.346802L492.858246,419.136353L492.822113,419.11145L492.525238,418.893677L492.48642,418.863159L492.217377,418.637573L492.177582,418.601685L491.936371,418.368774L491.896088,418.326782L491.682465,418.086304L491.642426,418.037231L491.456635,417.789429L491.423187,417.741089L491.038666,417.136108L491.00058,417.06897L490.969574,416.998413L490.945892,416.925171L490.929535,416.849731L490.92099,416.773071L490.920502,416.695923L490.927582,416.619019L490.938812,416.557983L490.970306,416.4198L490.960785,416.41687L490.889496,416.387085L490.821625,416.350464L490.757904,416.307251L490.698822,416.25769L490.644867,416.202271L490.597015,416.141968L490.555511,416.077026L490.520599,416.008179L490.490082,415.926636L489.904388,414.052612L489.885101,413.977905L489.873627,413.901733L489.86972,413.824585L489.873627,413.747681L489.885345,413.671265L489.904877,413.596802L489.923431,413.544312L489.966644,413.435181L489.984222,413.288208L489.993011,413.232544L490.040131,412.991089L490.029877,412.986938L489.961517,412.95105L489.897064,412.908813L489.83725,412.859985L489.782806,412.805542L489.733978,412.745728L489.691498,412.681519L489.655609,412.613159L489.627045,412.541382L489.60556,412.467407L489.596771,412.423706L489.496185,411.839478L489.488617,411.783325L489.28598,409.687134L489.282562,409.610229L489.286713,409.533081L489.29892,409.456909L489.318451,409.382446L489.345551,409.310181L489.379974,409.241089L489.404633,409.202026L489.375092,409.169312L489.329193,409.1073L489.290131,409.040894L489.25766,408.970825L489.232513,408.897827L489.214935,408.822876L489.203217,408.716675L489.165131,407.747925L489.164642,407.727905L489.151947,406.756714L489.151947,406.736694L489.164642,405.762817L489.165131,405.743042L489.203217,404.766479L489.210052,404.689819L489.224701,404.614136L489.246918,404.540161L489.276703,404.468872L489.313324,404.401001L489.356537,404.33728L489.406097,404.277954L489.461273,404.224243L489.495941,404.196655L489.44516,404.1427L489.398285,404.081665L489.357758,404.015991L489.324066,403.946655L489.297455,403.874146L489.278412,403.799438L489.266937,403.723267L489.263275,403.646118L489.26767,403.566284L489.650726,400.039673L489.662933,399.963501L489.682709,399.889038L489.710052,399.816772L489.744476,399.747681L489.785736,399.682495L489.833344,399.621948L489.88681,399.566284L489.945648,399.516479L490.009125,399.472778L490.064545,399.442505L489.955902,399.027954L489.827728,398.589478L489.700531,398.199585L489.56601,397.829956L489.42807,397.492554L489.287689,397.187134L489.275726,397.16394L489.158783,397.404175L488.992279,397.760864L488.79892,398.188354L488.5914,398.660278L488.366791,399.181519L488.367035,399.181519L488.120697,399.764038L487.85849,400.394165L487.479095,401.337769L487.095551,402.323853L486.69931,403.375122L486.298187,404.469849L485.890228,405.61438L485.476898,406.804077L485.052826,408.054321L485.052582,408.054321L484.627289,409.336548L483.092133,414.25354L483.065521,414.32605L483.031586,414.395142L482.991058,414.460815L482.943939,414.521851L482.911469,414.55603L482.930756,414.587524L482.964447,414.65686L482.990814,414.72937L483.009857,414.804077L483.023041,414.900757L483.083588,415.767456L483.085052,415.801636L483.105804,416.627075L483.104584,416.692505L483.092133,416.896851L483.090668,416.917114L483.074066,417.106079L483.071381,417.131958L483.05014,417.305786L483.046234,417.333618L483.020844,417.49231L483.014496,417.526733L482.984711,417.670288L482.974701,417.712524L482.940277,417.841187L482.925629,417.889282L482.887054,418.002808L482.86264,418.065552L482.819183,418.16394L482.797211,418.209595L482.759369,418.28186L482.720062,418.348267L482.67807,418.405884L482.624847,418.472046L482.573578,418.529663L482.532806,418.567993L482.464447,418.627808L482.374603,418.695435L482.291351,418.748901L482.20932,418.7948L482.110687,418.842163L482.038422,418.872192L481.924896,418.912964L481.863861,418.932007L481.734955,418.966431L481.684418,418.978149L481.540619,419.006226L481.464203,419.017212L481.377777,419.020142L480.508148,419.000854L480.431244,418.995239L480.355316,418.982056L480.266693,418.955933L480.157562,418.916626L480.075775,418.881714L479.980316,418.834106L479.889984,418.780884L479.808685,418.72522L479.747162,418.678589L479.715424,418.650269L479.647797,418.586304L479.594574,418.530396L479.559906,418.487183L479.54306,418.464478L479.253998,418.674194L479.224701,418.694458L478.435883,419.211792L478.415375,419.224731L477.656342,419.688599L477.63266,419.702515L476.903412,420.112915L476.876068,420.127563L476.176605,420.484497L476.144379,420.499878L475.474457,420.803101L475.437103,420.81897L474.796967,421.068726L474.75351,421.084106L474.143158,421.280396L474.0914,421.295044L473.51059,421.437622L473.452728,421.449585L473.163422,421.497192L473.141693,421.500366L472.865082,421.53772L472.840912,421.540649L472.576996,421.567749L472.549408,421.569946L472.297943,421.586548L472.267181,421.588013L472.028412,421.594116L471.994965,421.59436L471.76889,421.59021L471.73056,421.588501L471.516937,421.573853L471.474457,421.569702L471.273773,421.544556L471.227631,421.537231L471.039398,421.501831L470.98764,421.490356L470.811859,421.444458L470.756195,421.427612L470.593353,421.37146L470.532806,421.347534L470.382416,421.280884L470.319672,421.249634L470.181976,421.172729L470.116547,421.131714L469.991302,421.044067L469.928802,420.995239L469.816254,420.897583L469.755219,420.838501L469.655365,420.730103L469.606049,420.670776L469.566254,420.611938L469.51059,420.521118L469.473724,420.453491L469.442963,420.380005L469.40683,420.279175L469.384369,420.2052L469.370453,420.134888L469.353851,420.024048L469.346283,419.947388L469.345795,419.892944L469.348724,419.771851L469.359467,419.661255L469.381927,419.530396L469.402924,419.440552L469.44516,419.299683L469.46933,419.231079L469.530853,419.079956L469.556488,419.02356L469.637787,418.862671L469.676117,418.795776L469.704193,418.755005L470.371185,417.848267L470.411957,417.797241L470.742035,417.420776L470.75473,417.40686L471.108002,417.02356L471.119965,417.010864L471.496674,416.620483L471.508148,416.608765L471.908295,416.211548L471.919037,416.20105L472.342377,415.796997L472.352631,415.787476L472.799408,415.376587L472.808929,415.368042L473.2789,414.950073L473.287689,414.942261L473.780853,414.517212L473.841888,414.469849L473.907318,414.428833L473.97641,414.394653L474.030609,414.37439L474.026459,414.347534L474.023041,414.304077L473.983002,413.437378L473.982513,413.425171L473.935883,411.881714L473.935638,411.872681L473.907318,410.335327L473.907318,410.326294L473.897308,408.795532L473.897308,408.786499L473.905853,407.261841L473.905853,407.252563L473.932465,405.734253L473.932709,405.724976L473.977875,404.212769L473.978363,404.203491L474.04184,402.697632L474.042084,402.68811L474.123871,401.188599L474.124115,401.184692L474.193939,400.014526L474.194427,400.008179L474.271576,398.875854L474.272064,398.868774L474.356781,397.774292L474.357513,397.766968L474.449799,396.710083L474.450531,396.702026L474.550385,395.683228L474.551117,395.674683L474.658295,394.693481L474.659515,394.68396L474.77475,393.740601L474.77597,393.730591L474.898529,392.825073L474.900482,392.81189L475.07016,391.705688L475.072357,391.692261L475.257904,390.61145L475.260345,390.597778L475.461273,389.542114L475.464203,389.52771L475.681244,388.497437L475.684418,388.482544L475.917084,387.477661L475.920746,387.46228L476.169037,386.482544L476.173431,386.466431L476.437836,385.511841L476.442474,385.495483L476.72226,384.56604L476.748383,384.49353L476.772552,384.442749L476.58847,384.393677L476.515228,384.369995L476.444427,384.338989L476.377289,384.301147L476.314301,384.256714L476.256195,384.205933L476.203461,384.14978L476.156586,384.088257L476.154633,384.084839L476.11557,384.102661L476.042328,384.127319L475.967133,384.144409L475.890717,384.153931L475.813568,384.15564L475.736664,384.149536L475.660736,384.13562L475.606781,384.120728L474.394135,383.739136L474.321869,383.71228L474.252533,383.678345L474.187103,383.637573L474.126312,383.59021L474.070404,383.536987L474.020111,383.478638L473.976166,383.415161L473.938568,383.347778L473.91391,383.28772L473.779633,383.072876L473.74765,383.103638L473.686859,383.151245L473.621674,383.192505L473.552826,383.226929L473.48056,383.254272L473.406097,383.274048L473.329926,383.286255L473.252777,383.290649L473.175873,383.287231L473.099457,383.276245L473.02475,383.257446L472.963226,383.235718L472.170746,382.91687L472.14389,382.905396L471.402924,382.573853L471.373871,382.559937L470.684906,382.215942L470.653168,382.199341L470.015961,381.842896L469.981537,381.822388L469.396088,381.453247L469.359467,381.428589L468.825775,381.046997L468.786469,381.016968L468.304535,380.622925L468.263519,380.586792L467.833588,380.180298L467.780121,380.124634L467.732758,380.063599L467.691742,379.998413L467.657562,379.929077L467.630707,379.856812L467.625092,379.835571L467.608978,379.829956L467.53891,379.797974L467.472504,379.758911L467.410248,379.713257L467.352875,379.661499L467.281586,379.579224L466.989838,379.190063L466.951508,379.134155L466.702728,378.7323L466.668304,378.670288L466.462494,378.255981L466.432953,378.188599L466.270111,377.761841L466.246918,377.69104L466.126801,377.251343L466.110687,377.178345L466.033783,376.72644L466.024994,376.654419L465.990814,376.189575L465.988861,376.119263L465.997894,375.641968L466.004242,375.557251L466.165619,374.328003L466.179535,374.252075L466.201019,374.178101L466.230072,374.106567L466.265961,374.038208L466.308685,373.973999L466.357513,373.914429L466.412201,373.859985L466.463226,373.818726L466.446381,373.785034L466.419037,373.713013L466.399261,373.638306L466.38681,373.562378L466.382416,373.485229L466.38559,373.408325L466.39682,373.331909L466.417084,373.252075L466.548431,372.831177L466.558197,372.802124L466.710541,372.375366L466.720795,372.347778L466.894135,371.915649L466.904633,371.890503L467.098724,371.452515L467.109955,371.428833L467.325043,370.985229L467.336029,370.963501L467.572113,370.514038L467.583099,370.49353L467.839935,370.038696L467.851166,370.019653L468.129242,369.55896L468.172455,369.494995L468.221771,369.435913L468.276947,369.381958L468.33725,369.333862L468.401947,369.292114L468.470795,369.256958L468.542816,369.229126L468.602631,369.212036L468.627777,369.205933L468.620697,369.179321L468.608978,369.103149L468.605072,369.026001L468.608978,368.949097L468.620453,368.872681L468.63974,368.797974L468.666351,368.725708L468.700287,368.656372L468.741058,368.590942L468.788177,368.529907L468.816254,368.50061L470.167328,366.816284L470.218597,366.758667L470.275482,366.706421L470.33725,366.660278L470.403412,366.620728L470.473236,366.587769L470.54599,366.562378L470.648285,366.539673L470.663177,366.537476L470.652435,366.474976L470.647308,366.386353L470.647308,366.365601L470.651215,366.288452L470.662933,366.21228L470.68222,366.137573L470.723724,366.033081L471.022552,365.417114L471.031586,365.399048L471.341644,364.800903L471.35141,364.782593L471.672699,364.202026L471.683685,364.182983L472.016693,363.619995L472.027924,363.601196L472.371918,363.05603L472.384369,363.037231L472.739838,362.509399L472.753265,362.489868L473.120209,361.979858L473.134613,361.960571L473.513031,361.46814L473.527679,361.449829L473.951752,360.931763L473.966644,360.914185L474.379974,360.439331L474.397064,360.420044L474.799652,359.987915L474.820404,359.966675L475.21225,359.577515L475.236908,359.554077L475.618256,359.207886L475.647552,359.182739L476.017914,358.879272L476.054047,358.85144L476.41391,358.590942L476.457123,358.561646L476.806,358.343872L476.838715,358.324585L477.890228,357.738892L477.921478,357.722534L479.134125,357.119019L479.204926,357.088257L479.278412,357.064575L479.353851,357.048706L479.430511,357.040405L479.50766,357.039917L479.58432,357.047241L479.660004,357.062378L479.686859,357.070435L479.712738,357.035522L479.764496,356.978394L479.821869,356.92688L479.884125,356.881226L479.950775,356.842407L480.021088,356.810425L480.094086,356.785522L480.169281,356.768188L480.242767,356.758911L481.536713,356.658325L481.595795,356.656128L481.616547,356.656128L481.693695,356.660034zM492.187164,373.640076L492.369049,373.478851L492.268463,373.418213L492.187164,373.640076zM480.267426,385.253296L481.020844,385.508667L481.022064,385.492798L481.03598,385.41687L481.055756,385.348755L480.356049,385.237183L480.340179,385.234497L480.08725,385.188599L480.267426,385.253296zM496.855957,371.363556C497.664856,371.672241,498.385559,372.001587,499.01947,372.35022L498.312531,370.959778L496.855957,371.363556zM490.246887,411.709747L490.347473,412.294037C490.820129,411.312897,491.54776,410.466766,492.531677,409.754333L490.044312,409.61377L490.246887,411.709747zM493.138,372.833923L494.976318,371.585419L493.299225,370.295563L492.632263,372.492157L493.138,372.833923zM496.47287,368.400787C495.946442,368.965759,495.5289,369.676849,495.218842,370.536743L495.199554,370.557404L495.785217,370.980469L495.946442,371.041107C496.552795,370.651123,497.207336,370.382385,497.907379,370.234955L496.73468,368.159607L496.47287,368.400787zM501.808624,417.876465C500.47467,418.842468,499.774628,419.816772,499.707123,420.797913C500.945953,421.06665,502.004303,421.207214,502.879364,421.220978C502.435638,420.751068,502.118683,420.227417,501.929901,419.648621C501.714905,419.031281,501.673584,418.440094,501.808624,417.876465zM505.689178,381.701599C506.551819,381.231689,507.253235,380.713562,507.792053,380.149933C507.657013,378.780151,506.801239,377.570251,505.224762,376.522919C505.669891,378.322662,505.824219,380.049316,505.689178,381.701599zM495.340118,383.575745C496.202759,383.683228,497.193573,383.703888,498.312531,383.636353C498.676331,382.963867,498.74939,382.178406,498.534393,381.278534C498.345612,380.51236,497.968018,379.726868,497.401642,378.920715C497.442993,379.766846,497.274872,380.606049,496.897278,381.439758C496.533478,382.232147,496.013977,382.94458,495.340118,383.575745zM499.889008,365.619904L501.323547,367.877106C502.064941,367.353455,503.182526,367.07785,504.679077,367.050293L503.4664,365.699829C502.806305,365.00116,501.876129,364.806854,500.677246,365.11554L499.908295,365.579926L499.908295,365.599213L499.889008,365.619904zM496.391541,367.533997L494.20874,363.867035C494.101257,365.827972,493.878021,367.622192,493.541779,369.246887L494.612488,370.093018C495.125122,368.924438,495.717682,368.071411,496.391541,367.533997zM471.873505,376.925323C470.700775,377.623993,469.529449,378.523834,468.35675,379.626282C469.434357,380.727325,471.064575,381.694702,473.247406,382.528412C472.197327,380.552307,471.738464,378.685059,471.873505,376.925323zM500.192169,364.55191C499.84079,363.033325,499.308868,361.710388,498.595032,360.581787C497.692413,359.198242,496.613403,358.317657,495.360779,357.941467L494.511902,358.607056C496.183472,360.474304,497.846771,362.617157,499.504547,365.035614L500.192169,364.55191zM505.022217,375.313019C505.871063,375.74295,506.591797,376.273499,507.18573,376.904663C507.885773,377.644653,508.330872,378.416351,508.519653,379.222504C508.963379,378.49765,509.207306,377.710815,509.247284,376.864685L509.247284,376.502258L509.207306,376.44162C508.599579,375.313019,507.785156,374.319458,506.761292,373.459564C505.737396,372.613434,504.604645,371.980927,503.365814,371.564758C504.012115,372.908325,504.510956,374.151337,504.860962,375.293732L505.022217,375.313019zM469.366852,369.025024C471.159668,368.716339,472.843628,368.702576,474.420105,368.985077C476.306641,369.321289,477.789429,370.059937,478.867035,371.202332L479.130249,370.174316L479.109558,370.153625C478.475677,368.770081,477.263,367.849548,475.471558,367.393433C474.042542,367.031006,472.472931,366.996552,470.761414,367.292847L469.387512,369.005737L469.366852,369.025024zM501.708008,368.501373L502.860077,370.557404L503.1026,370.536743C504.207794,370.80545,505.26474,371.269836,506.276215,371.927185C507.260132,372.559692,508.128296,373.33139,508.883453,374.245026C508.424591,372.71402,507.386932,370.791656,505.770477,368.482086L505.325378,367.896423L505.204102,367.917084C504.072723,367.8909,503.095703,367.998383,502.27301,368.239532L501.708008,368.501373zM489.195435,377.973999C489.195435,378.161407,489.127899,378.322662,488.994232,378.457703C488.684174,379.303802,488.569794,380.224335,488.649719,381.217896C488.731049,382.159119,488.980469,383.05896,489.39801,383.918854L489.437958,384.080078C490.044312,383.77002,490.570709,383.407623,491.014435,382.991455L491.156372,382.56839C491.263855,382.43335,491.385132,382.374084,491.520172,382.386475C491.991486,381.741577,492.167877,381.077362,492.0466,380.391083C491.897766,379.425079,491.116425,378.397064,489.701172,377.308411L489.600586,377.247772L489.195435,377.973999zM485.799957,362.476593C486.877563,363.577637,488.455444,365.02182,490.529388,366.809143C491.08197,364.914337,491.473328,362.96579,491.702087,360.964874C490.948303,361.675934,489.983673,362.072815,488.812347,362.154114C487.329559,362.261627,485.90744,361.932251,484.547302,361.166077L485.799957,362.476593zM487.861481,381.640961C487.767792,380.6474,487.854614,379.692413,488.124695,378.780151C486.898254,379.19632,485.941895,380.002472,485.254242,381.197235C484.621735,382.285889,484.311676,383.52887,484.324066,384.926208C485.874359,384.993744,487.194519,384.872467,488.285919,384.563782L488.630432,384.442505C488.199127,383.555054,487.94281,382.622131,487.861481,381.640961zM468.781189,369.952454C468.012238,371.188538,467.466522,372.364014,467.144073,373.478851C468.867981,372.578979,470.647034,371.97403,472.479828,371.665344C474.48764,371.329102,476.360382,371.37735,478.099487,371.807281C477.034241,370.744812,475.579041,370.0737,473.732483,369.791229L468.861115,369.933167L468.781189,369.952454zM493.339203,410.036804C491.69519,411.111694,490.820129,412.306458,490.711273,413.62384L490.631348,413.825043L491.21701,415.699188C491.958405,413.764404,493.609283,412.179657,496.169678,410.943573C497.706207,410.204956,500.003387,409.458038,503.061249,408.705627L503.345123,407.2146C502.778748,407.604584,502.064941,407.920166,501.202271,408.162689L498.837555,408.726318C496.654755,409.249969,494.903259,409.572418,493.581726,409.693695L493.339203,410.036804zM488.488495,385.288635C487.369537,385.704803,485.853699,385.860535,483.940979,385.753021C483.832123,385.819183,483.731506,385.819183,483.637817,385.753021L483.535828,385.732361L481.777466,385.591797C483.624023,386.155426,485.766876,386.599152,488.205994,386.9216L493.177979,386.719025C495.05072,386.31665,496.533478,385.591797,497.624908,384.543121C495.239502,384.63681,493.211029,384.26062,491.540863,383.41449C490.70575,384.206879,489.687408,384.832489,488.488495,385.288635zM475.977295,380.633606L476.704895,377.953339L477.553772,375.333679C476.05722,375.186249,474.440796,375.562439,472.701691,376.462311C472.486725,378.490784,473.119232,380.654297,474.60202,382.951477L474.622681,383.012115L475.835358,383.393829C475.714081,382.58905,475.760925,381.668518,475.977295,380.633606zM495.502716,400.50354C493.912476,400.598633,492.214722,400.47049,490.408112,400.121826L490.025024,403.648224C490.820129,404.46817,492.207825,404.944977,494.18808,405.078644L494.309326,404.978027C495.145813,404.346893,495.805878,403.655121,496.290955,402.90271C496.855957,402.015259,497.132935,401.115417,497.119141,400.201752L495.603302,400.50354L495.502716,400.50354zM495.825165,377.187134C495.097565,376.569794,494.276276,376.159119,493.359863,375.957947C492.308411,375.716766,491.419586,375.831146,490.691986,376.301056L490.449463,376.684174L490.731934,376.885345C492.107239,378.000183,492.827942,379.161865,492.895477,380.371796C492.949219,381.164154,492.706665,381.930359,492.167877,382.668976C492.86792,382.991455,493.628571,383.239502,494.451263,383.41449C495.435181,382.675873,496.081482,381.776001,496.391541,380.713562C496.729187,379.586304,496.627197,378.483887,496.088379,377.408997L495.825165,377.187134zM480.301575,357.518402C480.450409,359.23819,481.117371,361.004852,482.303864,362.818329L482.42514,363.000244C483.852783,365.122437,486.184418,367.480255,489.418671,370.0737C489.701172,369.375061,489.971283,368.62265,490.226196,367.816498C488.178436,366.09668,486.399384,364.470612,484.890442,362.939606L483.092102,360.923553C482.458191,360.10498,482.026886,359.325012,481.798126,358.586395C481.758179,358.478912,481.770569,358.371399,481.838074,358.263916L481.616211,357.417816L481.595551,357.417816L480.301575,357.518402zM493.48114,362.677795L492.471039,361.105438C492.200928,363.255188,491.755829,365.358063,491.135712,367.41272C491.135712,367.520203,491.102631,367.627686,491.035126,367.735168C490.200012,370.382385,489.094849,372.787079,487.720947,374.950592L489.883087,376.261108C489.896851,376.126068,489.964386,375.997894,490.085632,375.878021L490.226196,375.777405L490.650635,375.233093C491.041992,374.493073,491.398926,373.693817,491.722748,372.833923L491.823364,372.613434C492.793488,369.93866,493.339203,366.641022,493.460449,362.717743L493.48114,362.677795zM502.617523,416.425415L502.71814,416.364777L502.860077,416.2435L504.032776,415.255463C504.530243,414.839294,504.947784,414.544373,505.2854,414.369385C506.498077,413.818146,507.610168,413.469513,508.62027,413.320679C508.175171,412.890747,507.568817,412.380859,506.801239,411.789673L506.579376,411.869598C505.784271,411.883392,504.935394,412.03772,504.032776,412.334015L501.626709,413.301392C500.44162,413.798859,499.525208,414.792419,498.877533,416.283478C498.352509,417.479614,498.06311,418.816315,498.009369,420.293549L498.009369,420.354187L498.130646,420.374878L498.938171,420.596741C499.100769,419.776794,499.578949,418.984436,500.374084,418.218231C500.737885,417.855804,501.484772,417.257751,502.617523,416.425415zM489.03421,371.001129C486.203705,368.743896,484.055359,366.694763,482.586365,364.853699L482.910217,367.272156L483.15274,369.711304C483.220276,370.67868,483.232666,371.759064,483.192688,372.9552C484.755402,373.56015,486.063141,374.116882,487.114594,374.628143C487.842194,373.44577,488.481598,372.237244,489.03421,371.001129zM503.487061,402.419037C503.256927,400.739197,502.643707,399.509979,501.6474,398.731384C500.770966,399.281219,499.530731,399.718079,497.92807,400.040527C497.914276,401.007904,497.644196,401.949127,497.119141,402.861389C496.647858,403.695099,496.00708,404.454376,495.199554,405.139282L496.37088,405.159943C497.422333,405.159943,498.870636,404.944977,500.717224,404.515015C502.536224,404.125031,503.459503,403.447052,503.487061,402.479675L503.487061,402.419037zM489.054871,376.845398C487.733337,375.931763,485.753082,374.964355,483.111389,373.943237C483.057648,374.654297,482.963959,375.427399,482.828888,376.261108C482.505066,378.289581,482.343842,379.68692,482.343842,380.451721C482.343842,382.117767,482.747589,383.41449,483.556519,384.341919C483.705322,382.80954,484.190399,381.472839,485.011719,380.331818C485.888153,379.08194,487.040192,378.262024,488.467834,377.87204L489.054871,376.845398zM489.964386,404.796143C489.896851,406.099762,489.896851,407.396484,489.964386,408.68634C491.21701,408.941284,492.672241,408.974365,494.330017,408.786926L498.65567,407.960114L501.202271,407.396484C502.186188,407.114014,502.946869,406.72403,503.487061,406.227936C503.58078,405.300507,503.620728,404.501251,503.608337,403.828766C503.014404,404.527435,502.354309,404.957367,501.626709,405.118591L499.908295,405.583008L498.191284,405.905457C495.307037,406.146606,492.928528,405.945435,491.055786,405.300507L489.964386,404.796143zM467.890961,379.121918C469.441254,377.684631,470.963989,376.569794,472.459167,375.777405C474.399445,374.742493,476.199158,374.312561,477.856934,374.487579L478.381958,372.833923L478.281372,372.814636C476.516113,372.263428,474.568939,372.162811,472.43988,372.511475C470.525787,372.821533,468.686096,373.459564,466.920837,374.426941L466.759583,375.656158C466.678284,376.945984,467.055878,378.1008,467.890961,379.121918zM482.121979,417.855804C482.243225,417.613281,482.316284,417.210876,482.343842,416.645905L482.323151,415.820435L482.262512,414.953674C480.96991,415.799774,479.634613,416.26416,478.260712,416.344116C476.737976,416.425415,475.410919,416.007874,474.278168,415.094208C472.931824,416.236603,471.833527,417.304596,470.98465,418.29953L470.317688,419.206299C470.075165,419.648621,470.04071,419.984863,470.215729,420.213623C470.714569,420.818604,471.752228,420.979828,473.328705,420.697327C474.837646,420.388641,476.663544,419.508087,478.806396,418.057007L479.473389,417.573303C479.568451,417.493378,479.682831,417.458923,479.816498,417.472717C479.951569,417.472717,480.02597,417.547119,480.039734,417.69458C480.053528,417.963287,480.214752,418.145203,480.524811,418.238892L481.394348,418.258209C481.798126,418.192047,482.040649,418.057007,482.121979,417.855804zM502.697449,419.225586C502.927582,419.884277,503.378204,420.468567,504.052063,420.979828L504.154053,421.18103L505.224762,420.979828L507.871979,420.213623C508.802155,419.851196,509.564209,419.333069,510.156769,418.661957C511.248169,417.412079,510.984985,415.88797,509.36853,414.086884C508.27713,414.126831,507.097534,414.409332,505.831116,414.932983C505.521057,415.068054,505.164154,415.289917,504.760376,415.598572L503.790253,416.404724C503.250061,416.820892,502.893127,417.217773,502.71814,417.593994C502.48938,418.077667,502.482483,418.622009,502.697449,419.225586zM494.18808,375.273041C494.983185,375.514221,495.745239,375.911072,496.47287,376.462311C497.522919,377.240906,498.338715,378.301971,498.918884,379.645569C499.565186,381.13797,499.639587,382.440216,499.140747,383.555054L500.495361,383.374542C501.843079,381.680939,501.708008,378.799438,500.09021,374.728729L499.72641,373.861938L499.544495,373.821991C498.548187,373.109528,497.280396,372.485291,495.745239,371.947845C494.115021,372.875275,492.760406,373.922577,491.681427,375.091156C492.450348,374.917511,493.285461,374.976776,494.18808,375.273041zM479.473389,357.800903L478.260712,358.40448L477.209259,358.990143C476.292877,359.513794,475.262085,360.493591,474.116943,361.932251C473.093048,363.222107,472.19043,364.699371,471.409088,366.365417L471.409088,366.386078L475.814697,366.547302C477.432495,366.935913,478.631409,367.688324,479.41275,368.804535C479.587769,367.769623,479.66217,366.439819,479.634613,364.813751L479.594635,360.80365C479.594635,360.212463,479.648376,359.782532,479.755859,359.513794C479.608429,358.908844,479.513336,358.338348,479.473389,357.800903zM492.672241,359.635071C494.761322,362.87207,496.674042,366.063629,498.413147,369.20694L499.989594,372.209686C500.555969,373.352051,500.987305,374.399384,501.2836,375.352966C501.78244,376.939087,502.071838,378.255127,502.151764,379.303802C502.286804,380.848602,502.04425,382.145325,501.424133,383.192627L501.848572,383.092041C502.940002,382.837097,503.937683,382.507751,504.840302,382.105377C505.096619,379.726868,504.658417,377.114105,503.527039,374.265717C502.731903,372.237244,501.472382,369.858734,499.74707,367.131592C497.832977,364.148163,495.812775,361.481659,493.683716,359.130707C493.292358,359.345673,492.956116,359.513794,492.672241,359.635071zM492.065887,417.332153C492.52478,418.003265,493.278564,418.594421,494.330017,419.105682C495.017639,419.428162,495.980896,419.769897,497.219757,420.132324C497.44989,416.827789,498.742493,414.376251,501.101685,412.77774C502.408081,411.890289,503.977661,411.333557,505.810455,411.104797C504.78656,410.419922,503.911499,409.882477,503.182526,409.492493C499.935852,410.271088,497.624908,410.997314,496.249603,411.668427C493.609283,412.932068,492.086548,414.617432,491.681427,416.727203L492.065887,417.332153zM480.382874,361.266663L480.362213,361.932251L480.403564,365.902405C480.375977,367.419617,480.228546,368.743896,479.958435,369.872528C479.715912,370.947388,479.365906,372.202789,478.907013,373.640076L477.675049,377.348389L476.765533,380.472382C476.5354,381.694702,476.542297,382.755798,476.784821,383.657043C478.766449,384.206879,480.726013,384.583069,482.667664,384.785645C481.548706,383.267059,481.266205,380.895447,481.818787,377.670837C482.262512,375.064972,482.451324,372.814636,482.383789,370.91983C482.357605,370.006195,482.243225,368.770081,482.040649,367.211517L481.616211,363.523895C481.144928,362.799042,480.73291,362.046631,480.382874,361.266663zM491.256989,393.511383C491.43338,393.658844,491.419586,393.840729,491.21701,394.055725C490.624451,394.686859,490.098053,395.418579,489.640533,396.252319C490.098053,396.977142,490.48941,397.991394,490.813263,399.295013C492.52478,399.617462,494.168762,399.738739,495.745239,399.65744L498.595032,399.113098C499.740173,398.871948,500.649689,398.542603,501.323547,398.126434L499.868347,391.536652C499.275787,388.983154,498.688751,386.814117,498.109955,385.026794C496.990997,386.101685,495.522003,386.88028,493.703003,387.363953C492.140289,387.781494,490.475647,387.942749,488.710358,387.847656C486.016296,387.700195,483.118286,387.075958,480.019073,385.973511C478.860138,385.571136,478.051239,385.188049,477.593719,384.825623L477.451782,384.785645C476.684235,387.230286,476.084778,389.943634,475.653442,392.927094C475.315826,395.291809,475.060913,398.058899,474.884521,401.229767C474.641968,405.220581,474.595123,409.277527,474.743958,413.401978L474.783905,414.268768C475.861542,415.182404,477.129333,415.584808,478.584534,415.477325C479.918488,415.383606,481.178009,414.899902,482.364502,414.026245L483.899628,409.109406C485.058563,405.576111,486.143066,402.573364,487.154572,400.101166C487.882172,398.3414,488.42099,397.1315,488.770996,396.474182C488.770996,396.379089,488.824738,396.278503,488.933594,396.17099C489.486206,395.137482,490.071869,394.283081,490.691986,393.612C490.893188,393.397003,491.08197,393.363953,491.256989,393.511383z"/>
</svg>
