<?xml version="1.0" encoding="UTF-8"?>
<svg xmlns="http://www.w3.org/2000/svg" xmlns:xlink="http://www.w3.org/1999/xlink" width="57.142mm" height="69.284mm" viewBox="-381.852692 354.677063 57.141602 69.284424">
    <path transform="matrix(-1,0,0,1,0,0)" style="stroke:none;fill:#000000;fill-rule:evenodd" d="M365.909821,354.677551L365.986481,354.686096L366.06192,354.702209L366.135162,354.726135L366.205719,354.757141L366.272858,354.794983L366.309967,354.820129L366.655426,355.069153L366.726715,355.127258L367.046295,355.42218L367.106598,355.48468L367.400543,355.8255L367.449371,355.888733L367.717682,356.275452L367.756256,356.336975L367.998932,356.769592L368.028473,356.828186L368.24527,357.306946L368.266998,357.360168L368.45816,357.884583L368.47403,357.933167L368.639557,358.503479L368.64859,358.537415L368.756744,358.986389L368.76358,359.016663L368.855621,359.481262L368.860504,359.509827L368.93692,359.990295L368.940826,360.017639L369.001373,360.513977L369.004059,360.539612L369.048981,361.051575L369.050934,361.076721L369.079742,361.604553L369.080475,361.627991L369.093414,362.171448L369.093658,362.193176L369.091461,362.664856L369.292633,362.604065L369.549713,362.520325L369.779205,362.439026L370.000641,362.354065L370.198151,362.271057L370.360748,362.195618L371.347565,361.642639L371.416656,361.608459L371.459625,361.59137L371.618073,361.533752L371.695953,361.510071L371.845367,361.473206L371.942291,361.455872L372.082428,361.440002L372.159332,361.43512L372.197906,361.435608L372.328766,361.440735L372.40567,361.447815L372.458649,361.457092L372.580475,361.483215L372.655182,361.503235L372.715729,361.525696L372.828033,361.572815L372.897369,361.606262L372.952545,361.639465L373.055817,361.707581L373.118073,361.753235L373.162018,361.792053L373.255768,361.881409L373.30899,361.937317L373.35611,361.998352L373.396881,362.063782L373.430573,362.133118L373.457428,362.205627L373.476715,362.28009L373.48819,362.356506L373.492096,362.433411L373.48819,362.510559L373.476471,362.586731L373.471832,362.605042L373.527008,362.618958L373.600739,362.641418L373.672516,362.671692L373.714996,362.6922L373.782623,362.729309L373.846344,362.77301L373.923004,362.840149L374.054596,362.971985L374.41568,363.29425L374.477448,363.356018L374.798004,363.715881L374.856354,363.790588L375.120026,364.173401L375.171295,364.259094L375.378571,364.6651L375.418854,364.75885L375.569489,365.187561L375.596588,365.285461L375.690338,365.737366L375.70401,365.832336L375.741364,366.30719L375.743073,366.39679L375.723541,366.894592L375.717926,366.961731L375.684723,367.22052L375.676666,367.269348L375.628815,367.514709L375.616852,367.566956L375.554352,367.799133L375.537262,367.853821L375.460358,368.072571L375.437897,368.129211L375.346588,368.334778L375.317535,368.393372L375.211578,368.58551L375.175934,368.64386L375.055328,368.822571L375.014557,368.877502L374.879791,369.04303L374.832916,369.095276L374.683502,369.24762L374.631989,369.295715L374.467926,369.434631L374.414459,369.476135L374.235992,369.601868L374.180573,369.637268L373.987701,369.749573L373.932281,369.77887L373.725006,369.877747L373.671295,369.90094L373.449371,369.986633L373.39859,370.004211L373.162262,370.076721L373.11319,370.089905L372.862213,370.148987L372.831451,370.154602L373.213287,371.583557L373.21524,371.590637L373.788727,373.821838L373.788971,373.823303L374.309235,375.864075L374.309723,375.865784L374.776764,377.715881L374.777496,377.718079L375.191071,379.377991L375.191559,379.38092L375.55191,380.850403L375.552887,380.853821L375.860016,382.133118L375.860748,382.13678L375.994293,382.704895L375.995026,382.707825L376.115143,383.228333L376.115875,383.23175L376.222809,383.704895L376.223785,383.70929L376.317291,384.134583L376.320221,384.148254L376.442047,384.75592L376.444977,384.770569L376.552155,385.364319L376.554596,385.379456L376.647125,385.959534L376.649567,385.975891L376.727448,386.542297L376.729645,386.559387L376.792877,387.111633L376.79483,387.129944L376.843414,387.668762L376.844879,387.688293L376.878571,388.212952L376.879547,388.232971L376.898834,388.743958L376.899323,388.76593L376.903717,389.263245L376.903473,389.28595L376.893463,389.769348L376.892731,389.793762L376.867828,390.263245L376.866119,390.288391L376.826813,390.744202L376.823883,390.771545L376.769684,391.213684L376.765778,391.241516L376.697174,391.669739L376.691803,391.699768L376.608307,392.114075L376.601471,392.144348L376.503571,392.544983L376.47525,392.635559L375.629791,394.851868L375.538239,395.113586L375.462067,395.356995L375.402252,395.576721L375.357574,395.776428L375.326324,395.95929L375.309235,396.113586L375.303131,396.265686L375.303619,396.486877L375.313873,396.721741L375.334381,396.975891L375.365387,397.245667L375.407623,397.537659L375.460358,397.840881L375.522369,398.150452L375.596344,398.481262L376.226227,400.84259L376.228912,400.853821L376.454254,401.752258L376.454498,401.752258L376.692291,402.675598L376.940094,403.614807L377.198151,404.570374L377.469635,405.554504L377.750397,406.551819L378.043121,407.572815L378.345856,408.60968L379.66983,412.868958L379.670563,412.870911L380.977692,417.114319L380.983795,417.135559L381.825592,420.180725L381.842438,420.256165L381.851471,420.332825L381.852692,420.409729L381.846344,420.486633L381.83194,420.562561L381.810211,420.636536L381.780914,420.707825L381.744537,420.77594L381.701569,420.839905L381.652496,420.899231L381.597321,420.95343L381.551666,420.991028L381.480133,421.045227L381.275543,421.210754L381.213287,421.256165L381.177399,421.278137L380.945953,421.411926L380.87735,421.447083L380.838287,421.46344L380.585846,421.560608L380.476959,421.593323L380.203766,421.65387L380.095856,421.669739L379.81485,421.690735L379.699615,421.690735L379.426666,421.669739L379.350006,421.659973L379.308502,421.651184L379.044098,421.588196L378.969879,421.566711L378.931549,421.552063L378.772125,421.486633L378.685944,421.476624L378.609772,421.463928L378.535553,421.44342L378.463531,421.415588L378.394684,421.380432L378.329987,421.338684L378.269684,421.290588L378.214508,421.236877L378.165192,421.177551L378.121979,421.113586L378.092682,421.060608L378.029938,420.93512L377.999176,420.864319L377.980621,420.809875L375.831696,413.521301L375.83194,413.521301L372.254791,401.662415L371.609772,399.584534L371.413483,399.054016L371.207184,398.57843L370.992828,398.157288L370.75943,397.770325L370.691315,397.666565L370.611725,397.550598L370.507477,397.404114L370.397614,397.254456L370.279205,397.096985L370.278961,397.096985L370.138092,396.913635L369.825836,396.517151L369.4711,396.078674L369.470856,396.078674L369.055573,395.576721L368.595856,395.03009L368.087067,394.433655L368.07901,394.424133L367.653473,393.908752L367.642975,393.895813L367.250885,393.399231L367.239655,393.384583L366.881256,392.907043L366.868805,392.889954L366.544098,392.431702L366.53067,392.41217L366.23941,391.972717L366.225006,391.950256L365.967194,391.529846L365.951569,391.502991L365.727448,391.101624L365.710846,391.069885L365.520172,390.687317L365.504791,390.65509L365.278229,390.141418L365.273346,390.129944L365.046051,389.591125L365.041901,389.580627L364.813873,389.016907L364.809723,389.007141L364.581207,388.418518L364.577789,388.409241L364.348541,387.795715L364.345367,387.78717L364.115387,387.148499L364.112701,387.140686L363.881989,386.477112L363.879547,386.469788L363.648102,385.781311L363.64566,385.773987L363.413727,385.060364L363.41153,385.053772L363.178864,384.315491L363.17691,384.309387L362.943512,383.545959L362.941803,383.539856L362.707672,382.751282L362.705963,382.745911L362.4711,381.932678L362.469635,381.927307L362.234283,381.088928L362.232819,381.083801L361.996735,380.22052L361.995514,380.215881L361.863434,379.720764L361.857819,379.724182L361.787506,379.756165L361.714508,379.781067L361.639557,379.798645L361.562897,379.808167L361.485748,379.81012L361.426422,379.805725L361.429352,379.844543L361.436676,380.056213L361.436188,380.12262L361.425201,380.331116L361.41861,380.398743L361.389313,380.603821L361.376617,380.670959L361.32901,380.872864L361.310455,380.938293L361.244537,381.13678L361.2211,381.198303L361.136871,381.393616L361.109283,381.450989L361.006744,381.642883L360.976715,381.694153L360.889069,381.83136L360.93692,381.8797L360.98526,381.939758L361.027252,382.004456L361.062653,382.072815L361.090729,382.144836L361.111481,382.219055L361.124664,382.294983L361.13028,382.371887L361.126129,382.46759L361.085602,382.847473L361.06192,383.304504L361.067047,383.785217L361.101227,384.289612L361.167389,384.83844L361.17276,384.915344L361.170319,384.992493L361.160065,385.068909L361.141998,385.14386L361.116608,385.216614L361.105133,385.241272L361.112701,385.249329L361.160309,385.31012L361.201324,385.375549L361.235504,385.444641L361.262604,385.516907L361.280426,385.583557L361.924713,388.507141L361.926422,388.514954L362.043121,389.071594L362.044342,389.077942L362.161774,389.663147L362.162994,389.669006L362.281158,390.282532L362.282135,390.287903L362.400787,390.929504L362.401764,390.934631L362.521149,391.604797L362.521881,391.609436L362.641754,392.307922L362.642487,392.312073L362.762848,393.037415L363.604645,398.056458L363.613678,398.133118L363.614655,398.210022L363.612457,398.235657L363.623932,398.243225L363.705475,398.313293L364.059479,398.664124L364.116608,398.727356L364.430573,399.117249L364.479645,399.185852L364.753082,399.615051L364.792633,399.684875L365.026031,400.153625L365.056061,400.222473L365.249176,400.73053L365.270905,400.796448L365.423737,401.343811L365.438141,401.40509L365.55069,401.992004L365.559235,402.047913L365.631744,402.674377L365.636871,402.751282L365.633942,402.82843L365.623444,402.904846L365.596588,403.006409L365.577057,403.06427L365.555328,403.215393L365.540436,403.291077L365.528961,403.332092L365.464996,403.539124L365.438629,403.611633L365.420074,403.651917L365.411041,403.670227L365.452057,403.709778L365.502106,403.768616L365.545807,403.832092L365.582672,403.899719L365.612946,403.970764L365.635651,404.044495L365.650787,404.120178L365.658112,404.197083L365.658112,404.264709L365.632477,404.855774L365.63028,404.889221L365.576324,405.506409L365.572906,405.537659L365.489899,406.180725L365.485748,406.20929L365.373444,406.878479L365.356842,406.953674L365.332672,407.026917L365.301422,407.097473L365.262848,407.164368L365.217926,407.227112L365.166901,407.284729L365.086334,407.356506L365.066315,407.371887L365.097321,407.428284L365.12735,407.499329L365.150055,407.572815L365.165192,407.648499L365.17276,407.725403L365.172272,407.802551L365.164215,407.879211L365.149567,407.950012L364.750641,409.5047L364.727692,409.578186L364.704498,409.632385L367.089264,411.342346L367.149567,411.390198L367.204742,411.444153L367.254059,411.503479L367.297272,411.567444L367.333893,411.635315L367.36319,411.706604L367.385406,411.780579L367.399811,411.856262L367.406647,411.933167L367.40567,412.010071L367.397614,412.08136L367.403473,412.08136L367.445221,412.069397L367.520172,412.051819L367.596832,412.042053L367.673981,412.0401L367.750885,412.045959L367.826813,412.059387L367.900787,412.080627L367.972565,412.109192L368.040924,412.144836L368.105377,412.187317L368.183014,412.252502L369.909332,413.912415L369.962311,413.968567L370.009186,414.029846L370.049469,414.09552L370.08316,414.1651L370.109528,414.23761L370.128571,414.312317L370.139801,414.388489L370.143219,414.465637L370.139069,414.540588L370.187408,414.541321L370.264069,414.549866L370.339264,414.566467L370.41275,414.590393L370.483307,414.621399L370.550201,414.659729L370.61319,414.704407L370.671051,414.755188L370.740631,414.833069L370.994049,415.157776L371.01236,415.181946L371.240143,415.499084L371.259186,415.526917L371.461823,415.837219L371.481354,415.868958L371.6586,416.171692L371.678619,416.208069L371.830719,416.503723L371.851227,416.546448L371.977692,416.835022L371.996735,416.883118L372.097809,417.164368L372.115143,417.218567L372.191071,417.492493L372.205475,417.55426L372.256012,417.821106L372.265778,417.889465L372.290924,418.149231L372.294342,418.22345L372.294098,418.475647L372.290192,418.553284L372.264801,418.798645L372.251862,418.879456L372.20108,419.117249L372.179596,419.197083L372.103424,419.427795L372.073639,419.503479L371.972321,419.726868L371.935699,419.797913L371.808746,420.014221L371.774811,420.066711L371.568024,420.360901L371.526764,420.414368L371.295319,420.688293L371.250153,420.737366L370.994537,420.991028L370.945465,421.035706L370.665436,421.269104L370.614166,421.308167L370.309479,421.521057L370.258453,421.553772L369.929596,421.746643L369.878326,421.774231L369.524811,421.946838L369.475006,421.968811L369.097076,422.120911L368.994537,422.154114L366.088776,422.868713L365.999664,422.885071L364.463531,423.073303L364.386383,423.078674L364.309479,423.076477L364.232819,423.066467L364.157867,423.048645L364.085114,423.023254L364.015045,422.990784L363.948639,422.951477L363.886871,422.905579L363.829742,422.853577L363.778229,422.796204L363.732819,422.733704L363.70816,422.69342L363.683502,422.649963L363.657379,422.694397L363.611481,422.756409L363.559723,422.813782L363.502594,422.865295L363.440338,422.91095L363.373932,422.950012L363.303864,422.982239L363.230865,423.007141L363.15567,423.024475L363.07901,423.034241L363.002106,423.036194L362.943756,423.032532L362.189606,422.955383L362.14566,422.949524L361.357819,422.822083L361.318756,422.814758L360.496246,422.637268L360.461823,422.628967L359.604645,422.401917L359.531158,422.378479L359.460358,422.347717L359.393219,422.309875L359.330231,422.265442L359.271881,422.214905L359.227203,422.167542L359.221344,422.169495L359.145905,422.186096L359.069244,422.194885L358.992096,422.195862L358.915436,422.189026L358.843903,422.175598L358.758942,422.155334L358.684479,422.133606L357.779938,421.817688L357.708405,421.788391L357.640289,421.752258L357.576324,421.709534L357.516754,421.660461L357.462555,421.60553L357.430084,421.565002L357.408844,421.570618L357.332672,421.582825L357.255768,421.586975L357.178619,421.583557L357.102448,421.572083L357.027496,421.553284L356.946686,421.523254L354.692535,420.53717L354.637604,420.510315L353.227203,419.753235L353.172516,419.720764L352.796295,419.476379L352.750885,419.444641L352.421783,419.195129L352.37149,419.153381L352.089508,418.898743L352.035065,418.844299L351.800201,418.584534L351.751373,418.524719L351.720367,418.479309L351.046539,417.408508L351.008942,417.34137L350.97818,417.270569L350.954742,417.197083L350.938873,417.121643L350.930817,417.044983L350.930328,416.967834L350.937897,416.89093L350.961334,416.784973L350.995758,416.66925L350.959869,416.656555L350.890045,416.623596L350.824127,416.583557L350.76236,416.537415L350.705719,416.484924L350.654449,416.427307L350.609528,416.364563L350.571198,416.297668L350.539703,416.227356L350.525299,416.186829L350.376617,415.727844L350.364655,415.687317L350.233795,415.191467L350.225006,415.154358L350.112701,414.621643L350.106354,414.587952L350.012848,414.018372L350.004303,413.941711L350.003326,413.864563L350.010406,413.787659L350.025055,413.711975L350.047272,413.638245L350.070465,413.580872L350.137848,413.431702L350.169098,413.262268L350.183746,413.198303L350.240875,412.991272L350.193756,412.969055L350.127838,412.929016L350.066071,412.882629L350.00943,412.830383L349.958405,412.772522L349.913483,412.709778L349.875153,412.642883L349.843658,412.572571L349.819489,412.499329L349.802887,412.423889L349.795074,412.361633L349.752594,411.857483L349.750641,411.828186L349.645416,409.518127L349.645905,409.440979L349.653961,409.364319L349.66983,409.288879L349.693268,409.215393L349.72403,409.144592L349.761871,409.077454L349.806305,409.014221L349.817047,409.00177L349.815582,409.000305L349.767487,408.940002L349.725739,408.875305L349.690582,408.806458L349.66275,408.734436L349.642242,408.660217L349.629547,408.584045L349.62442,408.48468L349.63858,407.506653L349.639313,407.48468L349.682526,406.482971L349.683746,406.462219L349.756012,405.437317L349.757477,405.41803L349.858551,404.369202L349.869781,404.292786L349.888824,404.218079L349.915192,404.145569L349.948883,404.076233L349.989166,404.010315L350.036041,403.94928L350.08902,403.892883L350.147125,403.842346L350.203033,403.802795L350.180573,403.778137L350.1315,403.718567L350.08902,403.654358L350.053131,403.585999L350.024323,403.514465L350.002838,403.440491L349.988922,403.364563L349.982819,403.287659L349.984528,403.21051L349.993073,403.139709L350.603912,399.505676L350.620514,399.430237L350.644684,399.356995L350.676178,399.286682L350.714508,399.219788L350.75943,399.157043L350.810455,399.099182L350.867096,399.046936L350.928864,399.000549L350.994781,398.96051L351.064606,398.927551L351.072418,398.924866L351.072174,398.923645L350.967194,398.408752L350.84903,397.90802L350.719635,397.427063L350.57608,396.953674L350.417145,396.483704L350.248199,396.033264L350.065826,395.591858L350.0336,395.638977L349.795319,396.022522L349.563629,396.431458L349.337067,396.868713L349.120514,397.3255L348.909088,397.813293L348.707916,398.318909L348.509674,398.863342L348.329742,399.402161L348.146393,400.002258L348.138336,400.024231L348.218658,400.089417L348.276031,400.141174L348.313629,400.181458L348.445953,400.333801L348.493561,400.394592L348.518219,400.431946L348.63028,400.61261L348.680328,400.707581L348.772125,400.916321L348.804352,401.003479L348.875641,401.24054L348.89444,401.316711L348.945221,401.582092L348.954498,401.646545L348.985016,401.940247L348.988922,401.994934L348.999176,402.316711L348.997711,402.393616L348.988434,402.470276L348.971344,402.545471L348.94693,402.618713L348.915192,402.689026L348.876617,402.755676L348.831451,402.818176L348.780182,402.875793L348.762604,402.891907L348.782623,402.918274L348.822906,402.983948L348.856354,403.053284L348.882721,403.125793L348.90152,403.200745L348.91275,403.276917L348.916168,403.354065L348.911774,403.430969L348.905182,403.478821L348.777985,404.215393L348.776764,404.222473L348.689362,404.701965L348.685699,404.720032L348.581207,405.223694L348.577789,405.239807L348.456207,405.767883L348.452545,405.782532L348.313873,406.334778L348.310455,406.347961L348.154694,406.924377L348.151276,406.93634L347.978424,407.53717L347.97525,407.548401L347.785065,408.173401L347.782135,408.182922L347.575104,408.832336L347.548004,408.904602L347.51358,408.973694L347.472565,409.038879L347.424957,409.09967L347.371735,409.155334L347.312897,409.205383L347.24942,409.249084L347.181793,409.286438L347.110992,409.316467L347.049469,409.33551L347.075836,409.378235L347.112701,409.445862L347.142731,409.516907L347.165192,409.590637L347.180328,409.666321L347.187653,409.742981L347.187164,409.820129L347.178864,409.89679L347.162994,409.972473L347.138092,410.049622L345.769928,413.620911L345.764313,413.634827L345.406158,414.517395L345.373688,414.587219L345.334137,414.653381L345.288239,414.715393L345.236237,414.772278L345.178619,414.823792L345.116119,414.869202L345.049469,414.90802L344.979401,414.939758L344.906158,414.964417L344.830963,414.981506L344.799957,414.985168L344.82901,415.066467L344.852448,415.145081L344.872711,415.229797L344.886627,415.305725L344.893219,415.382385L344.891754,415.459534L344.882477,415.536194L344.865631,415.611389L344.841217,415.684631L344.804352,415.764709L344.521881,416.296204L344.512604,416.313049L344.223053,416.825989L344.212799,416.843811L343.91568,417.338684L343.904449,417.356506L343.600006,417.833069L343.588043,417.851624L343.276276,418.309875L343.262848,418.328674L342.943756,418.768372L342.929352,418.787659L342.602936,419.208801L342.587555,419.228088L342.254059,419.630676L342.201813,419.687561L342.144196,419.738831L342.081696,419.783997L342.014801,419.822571L341.944489,419.854309L341.87149,419.878723L341.796051,419.895569L341.719635,419.904846L341.642487,419.906311L341.621002,419.904358L341.625397,419.947083L341.629547,420.024231L341.625885,420.101135L341.614655,420.177551L341.595612,420.252258L341.569244,420.324768L341.535553,420.394104L341.495026,420.459778L341.448151,420.521057L341.373444,420.597229L340.025787,421.793762L339.965729,421.841858L339.900787,421.88385L339.832184,421.919006L339.760406,421.947083L339.685944,421.96759L339.610016,421.98053L339.533112,421.985901L339.455963,421.983215L339.435944,421.98053L339.425934,422.019348L339.399078,422.091858L339.365387,422.161194L339.324615,422.226624L339.277496,422.287659L339.224518,422.343811L339.166168,422.394104L339.087799,422.447571L338.627594,422.721252L338.592926,422.74054L338.128815,422.98468L338.091705,423.002991L337.623932,423.21759L337.584869,423.234192L337.112946,423.419495L337.07193,423.434387L336.596344,423.590393L336.553131,423.603088L336.073639,423.729553L336.028961,423.739807L335.545319,423.836731L335.500397,423.844543L335.012848,423.91217L334.935944,423.918762L334.858795,423.917786L334.782135,423.908752L334.70694,423.892151L334.633698,423.868225L334.563141,423.836731L334.496246,423.798401L334.472565,423.781555L334.41983,423.822571L334.354645,423.863831L334.285553,423.898254L334.213531,423.925354L334.138824,423.945129L334.062653,423.957092L333.985748,423.961487L333.936188,423.960266L332.882233,423.897522L332.825104,423.891907L332.288483,423.819153L332.258209,423.814514L331.732819,423.721741L331.702789,423.715637L331.188629,423.603333L331.157867,423.596008L330.654694,423.463928L330.623199,423.454895L330.1315,423.30304L330.100494,423.292786L329.619781,423.121399L329.588043,423.109192L329.118317,422.917786L329.087555,422.904602L328.628815,422.693665L328.592926,422.675842L328.057037,422.394348L328.015289,422.370911L327.524323,422.072327L327.480133,422.043274L327.034088,421.7276L326.987701,421.691956L326.586578,421.359192L326.539703,421.316956L326.183014,420.967346L326.135651,420.916565L325.824127,420.549866L325.779449,420.49176L325.51236,420.107971L325.471344,420.042297L325.249176,419.641663L325.208405,419.555481L324.955475,418.924133L324.930328,418.851135L324.91275,418.77594L324.902985,418.699524L324.901031,418.622375L324.906647,418.545471L324.915436,418.492249L324.947174,418.332336L324.964508,418.262268L325.007477,418.118713L325.037018,418.036926L325.05484,417.995422L325.027496,417.9776L324.967194,417.929504L324.912262,417.875549L324.862701,417.816223L324.819733,417.752258L324.783356,417.684143L324.754059,417.612854L324.732086,417.538879L324.717682,417.463196L324.71109,417.386292L324.711823,417.316956L324.737213,416.858704L324.743561,416.794006L324.80899,416.332336L324.820465,416.270325L324.926178,415.805481L324.941559,415.748108L325.087311,415.279602L325.10611,415.226379L325.292145,414.7547L325.312897,414.706604L325.539215,414.231506L325.561432,414.188293L325.827789,413.710022L325.850739,413.671692L326.157135,413.190247L326.175446,413.162903L326.806793,412.259827L326.854156,412.198792L326.907379,412.143127L326.965973,412.092834L327.029449,412.048889L327.096832,412.011536L327.167877,411.981262L327.241364,411.958313L327.317047,411.942932L327.417877,411.934387L327.441803,411.933899L327.432526,411.87677L327.428131,411.799622L327.431305,411.722473L327.442535,411.646301L327.46109,411.57135L327.487457,411.49884L327.52066,411.42926L327.560944,411.363586L327.607574,411.302063L327.639801,411.266418L328.524078,410.343079L328.580231,410.2901L328.641266,410.243225L328.70694,410.202698L328.776276,410.169006L328.848785,410.142395L328.911041,410.125793L329.102448,410.083801L329.235992,410.012512L329.220612,409.982239L329.19278,409.910461L329.172272,409.835999L329.159576,409.759827L329.154449,409.682922L329.157379,409.605774L329.172028,409.509094L329.95108,405.939758L329.956451,405.916077L330.041168,405.579895L330.063873,405.506165L330.093903,405.43512L330.130768,405.367493L330.174469,405.303772L330.224274,405.244934L330.279938,405.191467L330.329742,405.152405L330.318512,405.126282L330.295319,405.052551L330.279938,404.977112L330.272125,404.900452L330.272125,404.823303L330.279938,404.746399L330.305573,404.635315L330.535797,403.894836L330.543121,403.87262L330.791656,403.152649L330.799957,403.1297L331.066803,402.429749L331.076324,402.406067L331.361969,401.726379L331.372467,401.702454L331.676422,401.043274L331.687897,401.019104L332.010162,400.380188L332.023102,400.355774L332.363922,399.737122L332.378082,399.712463L332.737457,399.114075L332.780426,399.05011L332.829742,398.990784L332.884918,398.936584L332.944977,398.888489L333.009674,398.846497L333.078522,398.81134L333.150299,398.783264L333.189117,398.772522L333.18277,398.737366L333.177399,398.660461L333.179596,398.583313L333.189606,398.506653L333.207428,398.431702L333.232574,398.358704L333.265045,398.288879L333.304352,398.222473L333.330231,398.185852L334.404449,396.758362L334.425201,396.731995L334.718903,396.375549L334.770905,396.318665L334.828522,396.267151L334.890778,396.221985L334.957428,396.183167L335.02774,396.151184L335.100739,396.126526L335.176178,396.109436L335.181061,396.108948L335.161285,396.04718L335.145172,395.971497L335.137115,395.894836L335.136627,395.817688L335.141266,395.760803L335.178864,395.449036L335.216217,394.687561L335.216461,394.682922L335.258209,393.928284L335.258453,393.922424L335.303619,393.203674L335.304108,393.197327L335.352692,392.514954L335.35318,392.508362L335.404938,391.862122L335.405426,391.854553L335.460358,391.244446L335.461334,391.235657L335.519684,390.661926L335.52066,390.652893L335.58194,390.116272L335.581696,390.116272L335.653717,389.476379L335.654205,389.471985L335.727936,388.848938L335.728668,388.844299L335.804108,388.238342L335.804596,388.233948L335.8815,387.645081L335.882233,387.640198L335.960602,387.06842L335.961334,387.063049L336.041412,386.508362L336.042145,386.502747L336.123932,385.965149L336.124908,385.95929L336.20816,385.438782L336.209381,385.431946L336.294586,384.928528L336.295563,384.922424L336.381989,384.436096L336.383453,384.428284L336.471832,383.959045L336.473297,383.951721L336.563141,383.499573L336.56485,383.491272L336.656403,383.055969L336.658356,383.046692L336.751617,382.628723L336.753815,382.618958L336.848785,382.218079L336.851227,382.208069L336.947662,381.82428L336.970123,381.750549L337.000153,381.679504L337.037018,381.611877L337.080719,381.548157L337.130524,381.489319L337.185944,381.435608L337.24649,381.388L337.311676,381.346741L337.332916,381.336243L337.297516,381.272278L337.267242,381.201477L337.244293,381.127747L337.228668,381.052307L337.2211,380.975403L337.2211,380.898254L337.228912,380.821594L337.244537,380.746155L337.263336,380.684387L337.411041,380.264954L337.440338,380.193665L337.476715,380.125549L337.519684,380.061584L337.569,380.002258L337.623932,379.948303L337.681305,379.902161L337.202545,379.557922L337.170563,379.533752L336.608795,379.083069L336.576324,379.055237L336.055817,378.587463L336.023102,378.556458L335.544098,378.071594L335.492584,378.013977L335.447418,377.951477L335.4086,377.884827L335.376862,377.814514L335.352203,377.741272L335.335358,377.666077L335.335114,377.6651L335.329254,377.662659L335.260895,377.627258L335.196198,377.585022L335.136139,377.536438L335.081451,377.481995L335.018951,377.403625L334.838043,377.143127L334.814362,377.10675L334.650787,376.839905L334.628571,376.801086L334.482574,376.528137L334.462311,376.48761L334.333649,376.208313L334.315582,376.165833L334.204498,375.880432L334.189362,375.837463L334.095612,375.545959L334.082672,375.501282L334.0065,375.20343L333.996735,375.159485L333.937897,374.855286L333.930573,374.810852L333.889313,374.500549L333.884918,374.457581L333.860992,374.141174L333.858795,374.098694L333.852448,373.77594L333.852936,373.735657L333.863922,373.406555L333.866119,373.367249L333.894684,373.032043L333.89859,372.995667L333.944244,372.654114L333.950104,372.618225L334.01358,372.270569L334.020172,372.238342L334.100739,371.884338L334.12149,371.81012L334.149811,371.738342L334.185211,371.669983L334.227448,371.605286L334.275787,371.545227L334.330231,371.49054L334.389801,371.441467L334.453766,371.398743L334.423737,371.328186L334.400787,371.254456L334.385406,371.179016L334.377838,371.102112L334.378082,371.024963L334.386139,370.948303L334.402008,370.872864L334.425446,370.798645L334.58902,370.361389L334.60025,370.333069L334.785553,369.892639L334.797272,369.866272L335.004059,369.42218L335.016266,369.397034L335.245026,368.949768L335.257233,368.926819L335.507477,368.476135L335.520172,368.454163L335.792389,368.000061L335.80484,367.980042L336.098541,367.522766L336.111237,367.503723L336.42691,367.043274L336.473541,366.981995L336.526276,366.925598L336.584625,366.875061L336.647614,366.830383L336.714752,366.792542L336.785309,366.761536L336.858795,366.738098L336.934235,366.721985L336.985504,366.71637L336.983795,366.709534L336.971588,366.633362L336.967194,366.556458L336.970612,366.479309L336.981598,366.403137L337.000397,366.328186L337.026764,366.255676L337.059967,366.186096L337.100494,366.120422L337.138336,366.069641L338.233063,364.725159L338.25235,364.702209L338.568024,364.344299L338.621979,364.289124L338.681061,364.239807L338.745026,364.196594L338.812897,364.159973L338.884186,364.130432L338.95816,364.108459L339.033844,364.093811L339.139557,364.086487L339.153961,364.086487L339.153229,364.084045L339.140778,364.007874L339.136383,363.930725L339.139557,363.853821L339.150787,363.777405L339.169586,363.702454L339.195709,363.629944L339.229156,363.560608L339.289215,363.466858L341.500885,360.525452L341.506012,360.519104L341.82901,360.098938L341.834625,360.09137L342.150055,359.691467L342.156891,359.682922L342.46524,359.303284L342.472565,359.294495L342.77359,358.93512L342.781647,358.925598L343.075348,358.586243L343.085114,358.5755L343.371735,358.256897L343.381744,358.245911L343.661041,357.947327L343.673004,357.934875L343.945221,357.656799L343.964752,357.637512L344.340729,357.28009L344.369049,357.254456L344.749664,356.927307L344.78067,356.901917L345.165924,356.604553L345.200836,356.579163L345.590729,356.312073L345.629303,356.287415L346.023834,356.050598L346.065338,356.027405L346.464752,355.820374L346.509674,355.798889L346.913727,355.621887L346.961823,355.6026L347.370514,355.455872L347.424469,355.438782L347.904938,355.305481L347.973297,355.289856L348.445709,355.204651L348.51944,355.195129L348.984039,355.157532L349.062653,355.155334L349.519196,355.165588L349.600006,355.171692L350.048737,355.229797L350.128815,355.244446L350.569977,355.350403L350.646637,355.373108L351.079742,355.526672L351.151764,355.556458L351.576813,355.758118L351.644684,355.794739L351.708649,355.837952L351.767731,355.887268L351.821686,355.942688L351.869781,356.002991L351.911285,356.067932L351.950836,356.147278L351.976959,356.208801L352.018219,356.263245L352.054108,356.315247L352.144196,356.457825L352.172516,356.506653L352.256012,356.663391L352.278473,356.70929L352.355377,356.880432L352.372955,356.922668L352.443268,357.108215L352.456451,357.146057L352.520416,357.346008L352.530914,357.382141L352.588043,357.596741L352.595856,357.629211L352.646149,357.857971L352.65152,357.884583L352.729645,358.312073L352.73819,358.370911L352.76651,358.644836L352.772125,358.643372L352.848053,358.63092L352.925201,358.626038L353.002106,358.628967L353.078522,358.639954L353.109528,358.647522L353.111725,358.638977L353.138092,358.566467L353.171539,358.496887L353.211823,358.431213L353.258698,358.369934L353.311432,358.313538L353.369537,358.262756L353.432526,358.218323L353.499664,358.180481L353.570221,358.149475L353.643707,358.125793L353.719147,358.10968L353.795807,358.101135L353.872955,358.100647L353.949615,358.107727L354.025299,358.12262L354.09903,358.145081L354.170319,358.174866L354.257965,358.224426L354.536774,358.407043L354.811676,358.568909L355.092194,358.716125L355.383698,358.8526L355.683746,358.975891L355.997223,359.088928L356.321198,359.189514L356.593658,359.261292L359.276276,359.419983L359.680328,359.353577L360.110016,359.238831L360.511871,359.086487L360.932526,358.875061L361.003082,358.844055L361.076569,358.820129L361.152008,358.804016L361.228668,358.795471L361.305573,358.794495L361.382477,358.801575L361.438141,358.812561L361.448883,358.743469L361.464752,358.66803L361.487946,358.594543L361.518707,358.523743L361.556305,358.45636L361.600739,358.393372L361.633698,358.353577L361.897614,358.058899L362.093414,357.779846L362.254059,357.479309L362.396149,357.115051L362.427887,357.044739L362.466461,356.977844L362.511383,356.915344L362.562653,356.857727L362.619537,356.805481L362.681305,356.759338L362.747223,356.719788L363.02066,356.573792L363.090485,356.540833L363.163239,356.515198L363.23819,356.497131L363.314606,356.486633L363.391754,356.483948L363.468658,356.489075L363.509186,356.495911L363.511139,356.490295L363.542389,356.419739L363.580475,356.3526L363.625153,356.289856L363.675934,356.23175L363.73233,356.17926L363.793854,356.132629L364.184967,355.866028L364.56778,355.573547L364.948883,355.250305L365.344635,354.881165L365.403717,354.83136L365.467438,354.787903L365.535065,354.751038L365.606354,354.721252L365.680084,354.699036L365.755768,354.684143L365.832672,354.677063L365.909821,354.677551zM336.754547,408.03009L337.128082,408.476379L337.149078,408.502747L337.327789,408.736389L337.369293,408.684387L337.396881,408.656311L337.344879,408.630188L337.27774,408.592102L337.214996,408.547424L337.156891,408.496643L337.104156,408.440247L337.057526,408.378967L337.017242,408.313049L336.983795,408.243469L336.957672,408.170959L336.939117,408.096252L336.927887,408.019836L336.926666,407.98761L336.754547,408.03009zM350.55426,412.29718C351.088928,411.344971,351.895142,410.504791,352.976349,409.776611L350.406586,409.482971L350.51181,411.79306L350.55426,412.29718zM370.708496,386.461914C370.146698,386.224304,369.656158,385.789764,369.235199,385.160065L367.570129,385.285645C367.683838,385.803345,367.879028,386.231079,368.160797,386.567139C368.610596,387.098419,369.298004,387.176514,370.224762,386.798004L370.708496,386.461914zM373.045746,384.698364L372.772461,383.289581C372.266663,383.43045,371.810089,383.423676,371.404419,383.269226L371.256744,383.605286C371.046265,384.053375,370.681335,384.43869,370.161957,384.761169C370.470886,385.138,370.820526,385.426544,371.214325,385.621735C371.648834,385.845795,372.127472,385.75412,372.646881,385.34845L372.920135,384.949585L373.045746,384.698364zM359.799683,421.664825C360.965759,422.000885,362.038483,422.20459,363.02124,422.27417C362.600311,421.75647,362.313446,421.189575,362.158997,420.573425C362.004517,419.928436,362.018097,419.319092,362.201416,418.745392L360.641571,419.984436C360.151031,420.517426,359.869263,421.077545,359.799683,421.664825zM348.154205,403.348785C346.889679,404.343445,345.465607,405.205688,343.878601,405.933838C344.973389,406.422668,345.962952,407.312073,346.848938,408.600372C347.424347,406.836823,347.816437,405.331299,348.026917,404.085449L348.154205,403.348785zM336.08609,377.535583C337.308197,378.851044,338.971588,379.984863,341.077972,380.937073C340.039215,378.767853,339.645416,376.751404,339.898315,374.887726C338.620239,375.588745,337.350616,376.471344,336.08609,377.535583zM331.033112,404.861115C333.095367,404.469025,335.279846,403.818939,337.581451,402.90918C336.907623,402.51709,336.177765,401.984131,335.391876,401.311981L333.390717,399.506012C332.407959,401.074341,331.62207,402.859955,331.033112,404.861115zM347.796082,368.461578C347.164673,366.97641,345.949371,365.92746,344.151855,365.31131C342.636139,364.778351,340.986328,364.623901,339.204102,364.847961L339.139618,364.847961L338.823914,365.206085L337.729126,366.550385L342.909424,366.781219C344.818939,367.229309,346.307495,368.047455,347.375122,369.238983L347.796082,368.461578zM357.588043,377.493164C357.223114,378.375763,357.055084,379.321198,357.083923,380.329407C357.111084,381.308777,357.321564,382.254211,357.715332,383.163971L357.735718,383.289581C358.367126,382.995941,358.901794,382.688721,359.336304,382.366241C360.515961,381.456451,360.916534,380.405792,360.536316,379.215973C360.242676,378.277344,359.497559,377.296265,358.304321,376.274475L357.840942,377.009399C357.840942,377.233459,357.757782,377.394714,357.588043,377.493164zM333.938965,398.643738L336.150604,400.660187C337.019623,401.388367,337.834351,401.948486,338.593079,402.340576L338.698303,402.445801C339.947571,401.91452,341.196808,401.325562,342.446045,400.682251C341.548157,400.458221,340.607819,400.149292,339.625061,399.757202C337.377777,398.889862,335.938416,397.924072,335.307007,396.859833L335.013367,397.216278L333.938965,398.643738zM352.38739,383.941376C354.113586,384.109406,355.608948,383.997375,356.871765,383.605286C356.493256,382.666656,356.289581,381.694092,356.262421,380.685852C356.219971,379.664063,356.367645,378.689789,356.703735,377.766418C355.398468,378.144928,354.352905,378.929108,353.567047,380.118958C352.864349,381.210327,352.470551,382.485046,352.38739,383.941376zM337.160522,367.473724L337.055267,367.473724C336.18454,368.705994,335.546326,369.904327,335.138977,371.065308C336.992493,370.240417,338.879913,369.714233,340.804718,369.490173C342.924683,369.252563,344.874939,369.407013,346.658844,369.951874C345.676086,368.831604,344.223145,368.062714,342.300079,367.641785L337.160522,367.473724zM358.43161,362.159363C358.64209,364.722351,358.626831,367.01886,358.389191,369.048859C359.750458,366.15152,360.71286,362.985962,361.274658,359.555634C360.68399,359.891693,360.032227,360.102173,359.315948,360.185333L356.4729,360.017303C355.490112,359.779694,354.61261,359.394379,353.840302,358.86142L353.903107,359.156769C354.352905,359.940918,354.941895,360.577423,355.671753,361.067963C356.444031,361.572083,357.272339,361.858917,358.156647,361.928528C358.311096,361.928528,358.402771,362.006592,358.43161,362.159363zM344.111145,415.321838C343.365997,412.98291,341.308838,410.939301,337.939606,409.189331C338.951202,410.64566,339.77951,412.234375,340.4245,413.957184C341.055908,415.664703,341.471771,417.394287,341.666962,419.144257C342.566559,418.095306,343.388062,416.847748,344.1315,415.406708L344.111145,415.321838zM340.782654,374.44812C340.417725,376.56131,340.950684,378.857819,342.38324,381.337646L342.425659,381.505676L343.647766,381.945282C343.422028,380.448242,343.654541,378.543823,344.34198,376.232025L345.289093,373.543427C344.026276,373.334656,342.524109,373.635101,340.782654,374.44812zM327.388916,417.884827L326.231323,417.822021C325.922394,417.918793,325.7323,418.192047,325.66272,418.640167L325.915619,419.271576C326.448578,420.362976,327.458496,421.272736,328.947083,422.000885C330.155579,422.589874,331.481201,422.968384,332.927338,423.136414L333.981384,423.199219C333.462006,420.97229,332.04303,419.424316,329.726166,418.556976L327.388916,417.884827zM354.028717,409.776611C353.987976,409.958252,353.889526,410.092346,353.735077,410.175507C353.005219,410.596436,352.394165,411.078491,351.901947,411.625031C351.312958,412.2836,350.968414,412.962524,350.869965,413.661835L350.764709,413.894379C350.87674,414.678558,351.039703,415.364288,351.250153,415.951569C352.134491,413.93512,353.945557,412.359985,356.68335,411.226166C358.339966,410.540436,360.78244,409.902222,364.012482,409.314941L364.411377,407.760193C363.793518,408.138702,363.036499,408.432343,362.136932,408.642792L359.652008,409.084106C357.335144,409.516937,355.461273,409.749451,354.028717,409.776611zM373.341095,363.357666C372.400757,363.077606,371.852509,363.574951,371.698059,364.847961L371.592834,366.465515C371.536804,367.081665,371.438354,367.516174,371.299194,367.767365C371.031006,368.215485,370.638916,368.587189,370.119537,368.880829L368.624176,369.532623C367.2612,370.050293,366.047607,370.337158,364.97998,370.393158L364.559021,372.010742L369.445679,370.478027C369.557709,370.184387,369.754608,369.889069,370.034668,369.595428C370.287567,369.328949,370.540466,369.133728,370.793365,369.008148L371.782928,368.923279C372.105408,369.008148,372.407532,369.167694,372.687622,369.407013C374.064148,369.126953,374.822876,368.279968,374.962036,366.86438C375.089355,365.506531,374.612396,364.393066,373.531189,363.525726L373.383514,363.378052L373.341095,363.357666zM373.275299,385.779846L373.228668,385.841125L373.175934,385.897278L373.088531,385.969788L372.89566,386.106995L372.832428,386.147522L372.643463,386.255676L372.562164,386.295959L372.377106,386.374329L372.279205,386.408264L372.098053,386.457336L372.022614,386.473694L371.981354,386.479309L371.804108,386.498596L371.726959,386.502991L371.677643,386.50177L371.504547,386.49176L371.469391,386.487854L371.467926,386.527893L371.457184,386.604309L371.439117,386.67926L371.413483,386.752014L371.380524,386.821594L371.340729,386.887756L371.294586,386.949524L371.24234,387.006165L371.184479,387.057434L371.143463,387.087952L370.659576,387.424133L370.594147,387.464905L370.524811,387.49884L370.482086,387.515686L370.145905,387.636292L370.071442,387.658752L369.757477,387.736389L369.665924,387.753235L369.37442,387.788391L369.261627,387.793518L368.992584,387.78595L368.91568,387.779846L368.861969,387.770813L368.615143,387.72052L368.540436,387.701477L368.475494,387.677795L368.251129,387.584778L368.181305,387.551819L368.119049,387.514221L368.014801,387.444397L368.012848,387.44928L367.977692,387.517883L367.935455,387.582581L367.928131,387.591614L367.960846,387.643127L367.99527,387.711975L368.022614,387.784241L368.042389,387.858704L368.045319,387.877747L368.194489,388.354797L368.378571,388.863098L368.588287,389.368958L368.815582,389.852844L369.067047,390.328674L369.338531,390.788879L369.629547,391.232971L369.945465,391.66925L370.319733,392.133606L370.689362,392.554749L371.045074,392.923889L371.389801,393.245178L371.722076,393.518372L372.037262,393.74176L372.338043,393.919983L372.575836,394.031799L372.599518,393.946594L372.602203,393.936829L372.684723,393.654114L372.687164,393.645813L372.780914,393.337952L372.782623,393.332092L372.887115,392.998352L373.030426,392.505676L373.155182,392.02179L373.263336,391.540344L373.353912,391.063782L373.428131,390.587708L373.485016,390.117737L373.525543,389.645569L373.548492,389.191956L373.548248,388.766663L373.537994,388.335022L373.51651,387.858948L373.486237,387.400452L373.443268,386.898254L373.391022,386.397522L373.329742,385.895081L373.307281,385.733215L373.275299,385.779846zM366.349731,364.135071L365.19043,369.532623L365.254944,369.512238C366.110413,369.456238,366.98114,369.294983,367.865448,369.028503C368.821075,368.748444,369.620514,368.383514,370.267212,367.935425C370.659271,367.670624,370.862976,367.054504,370.876556,366.087006C370.905396,364.854736,370.947845,364.155426,371.003845,363.987396C371.312775,363.104767,371.888153,362.587097,372.730042,362.432617C372.492401,362.166138,372.154633,362.125397,371.720123,362.307037L370.708496,362.873932C370.189117,363.126831,369.488129,363.364471,368.602112,363.588531L366.432892,364.113007L366.349731,364.135071zM345.058258,413.347839L346.4263,409.776611C345.373962,407.997803,344.11792,406.913208,342.656525,406.521118L342.573334,406.478699L341.624512,406.836823L337.686707,407.948578C341.324097,409.713837,343.661346,411.806641,344.700104,414.230469L345.058258,413.347839zM350.744354,403.265625C351.460632,404.119385,352.884705,404.693085,355.019958,404.988434L355.125183,404.903564C356.036682,404.300995,356.766541,403.62207,357.314758,402.86673C357.946167,401.997711,358.290741,401.081146,358.346741,400.115356L356.788605,400.324127L356.746155,400.324127L356.68335,400.346191C355.011475,400.346191,353.236053,400.108551,351.355408,399.631592L350.744354,403.265625zM366.538147,379.782867C366.679016,379.529968,366.86911,379.440002,367.10675,379.509613C367.346069,379.579193,367.388489,379.754028,367.234039,380.034088C367.02356,380.399017,367.122009,380.769043,367.529388,381.147522C367.838287,381.427612,368.230377,381.651642,368.707336,381.819672C368.933075,381.904541,368.967041,382.072601,368.812561,382.323792C368.673401,382.561432,368.503662,382.681946,368.308472,382.681946L367.19162,382.849976C367.01001,382.905975,366.904755,382.975586,366.875916,383.058746L366.960785,383.457611C367.198395,384.03302,367.619354,384.362305,368.223602,384.445465C368.82785,384.530334,369.381195,384.389465,369.886993,384.026245C370.392792,383.661316,370.701721,383.186035,370.813751,382.597076C370.981781,381.841736,370.898621,381.049103,370.560852,380.224182C370.477661,380.013702,370.560852,379.796448,370.813751,379.572388C371.06665,379.361938,371.241486,379.377197,371.339905,379.614838C371.691254,380.524597,371.796509,381.414032,371.65564,382.281372L371.677704,382.303436C371.917023,382.485046,372.217438,382.547852,372.582367,382.491821L371.530029,378.481018C370.209473,378.465729,368.848206,378.682983,367.444519,379.131104C366.251282,379.523193,365.34491,380.230957,364.727081,381.252777C364.026062,382.429016,364.328186,383.338806,365.633453,383.983795C365.857513,384.109406,365.857513,384.333435,365.633453,384.655945C365.353394,385.048035,365.422974,385.558929,365.843933,386.18866C366.278442,386.818359,366.77066,387.134064,367.318909,387.134064C366.86911,386.517944,366.629791,385.733765,366.602631,384.781555L366.602631,384.761169C366.293701,384.43869,366.110413,384.066956,366.054382,383.647736C365.984802,383.199615,366.090027,382.821106,366.370087,382.513885C366.553406,382.317017,366.784241,382.162537,367.06601,382.050537C366.251282,381.393646,366.076447,380.636627,366.538147,379.782867zM358.051422,421.035095L358.031036,421.0979L358.93573,421.413605L359.020599,421.43399C359.231079,420.593811,359.764038,419.796051,360.621185,419.039032C361.014984,418.718231,361.828003,418.151306,363.06366,417.338287L363.211334,417.255127L363.464233,417.065002L364.68634,416.141663C365.19043,415.749573,365.619873,415.483093,365.969513,415.342224C367.17804,414.866943,368.315247,414.573303,369.381195,414.461304L367.654999,412.8013L367.507324,412.843719C366.665436,412.8013,365.767548,412.906525,364.811951,413.157745L362.264221,414.019989C360.999695,414.454498,359.983002,415.420288,359.210693,416.919037C358.592865,418.136047,358.205872,419.509186,358.051422,421.035095zM359.526398,405.134399L361.800842,404.820374C362.61557,404.679504,363.240204,404.504669,363.674713,404.29422C364.404572,403.95813,364.791565,403.489655,364.832306,402.887115L364.874725,402.761505C364.735565,401.038696,364.166931,399.736847,363.168915,398.854218C362.214996,399.387177,360.887665,399.764008,359.188629,399.988037C359.132629,400.982697,358.803345,401.941681,358.199097,402.86673C357.666107,403.693359,356.956635,404.441864,356.072327,405.114014L357.251984,405.197205L359.526398,405.134399zM351.628662,383.289581C351.867981,381.707672,352.44339,380.336212,353.354858,379.173523C354.352905,377.927673,355.602142,377.143494,357.104309,376.821014L357.757782,375.83316L356.450836,374.90979C355.257599,374.139221,353.650208,373.299011,351.628662,372.389252C350.983673,374.44812,350.61026,376.162445,350.51181,377.535583C350.3302,380.096893,350.701935,382.016571,351.628662,383.289581zM357.968262,371.549072C357.925812,371.703522,357.834167,371.815552,357.693268,371.885132C357.258759,372.599701,356.858185,373.215851,356.493256,373.733551C357.420013,374.293671,358.234741,374.867371,358.93573,375.456329C360.536316,372.823761,361.722778,369.904327,362.495056,366.69635C363.267365,363.532501,363.562683,360.382233,363.379364,357.245544L363.10611,357.39151C362.9245,357.95163,362.622375,358.442169,362.201416,358.86142C361.527588,363.469696,360.128967,367.628204,358.008972,371.338593L357.968262,371.549072zM350.617065,404.441864C350.462585,405.855774,350.38623,407.206848,350.38623,408.495117C351.677887,408.844788,353.186829,408.972076,354.914734,408.873627L359.441528,408.284668L362.158997,407.845062C363.211334,407.605713,364.032867,407.242493,364.621826,406.751953C364.791565,405.842194,364.881531,405.002014,364.89679,404.231415C364.250122,404.945984,363.540619,405.373718,362.77002,405.512909L360.958954,405.869354L359.14621,406.101868C356.141907,406.198639,353.685852,405.848969,351.776337,405.051208C351.340118,404.883179,350.954834,404.679504,350.617065,404.441864zM346.490814,370.919342C344.693329,370.303223,342.721008,370.119904,340.572174,370.372803C338.593079,370.610413,336.683563,371.170563,334.843628,372.053162C334.366699,373.957581,334.633179,375.59552,335.644775,376.968689C339.519836,373.704681,342.860199,372.270447,345.669312,372.662506L346.490814,370.919342zM364.306122,372.913727L363.589844,375.351105L363.717163,375.53952L364.97998,379.740448C365.23288,379.489227,365.485779,379.285553,365.738678,379.131104C367.184814,378.165314,369.03833,377.654419,371.299194,377.598389L369.445679,371.296143L364.348572,372.913727L364.306122,372.913727zM367.296844,415.720734C366.806305,415.846313,366.314087,416.056793,365.823547,416.350433L364.516602,417.233063C363.885193,417.653992,363.464233,418.003662,363.253784,418.283722C362.944855,418.702942,362.82605,419.235931,362.89563,419.879211C362.99408,420.67865,363.450653,421.427185,364.263702,422.128204L364.370636,422.316589L365.906738,422.128204L368.812561,421.413605C369.853058,421.035095,370.632141,420.439331,371.15152,419.627991C371.894958,418.494171,371.558868,417.051453,370.139893,415.301483C369.269165,415.301483,368.322052,415.440674,367.296844,415.720734zM357.610107,362.790771C356.289581,362.622742,355.138763,362.069397,354.156006,361.130768C354.212036,362.376617,354.064362,363.805786,353.713013,365.414856C353.488953,366.451935,353.110443,367.796234,352.575775,369.447754L351.924011,371.443817C353.509338,372.143127,354.829865,372.788116,355.882202,373.375397C356.345581,372.718536,356.79538,372.017517,357.229889,371.275787C357.554108,369.749878,357.715332,367.823395,357.715332,365.499725L357.630493,363.252441L357.610107,362.790771zM337.982025,380.937073C338.038055,380.937073,338.08728,380.959137,338.1297,381.001556C340.404144,383.535706,343.892181,385.426544,348.59552,386.672394C351.796692,387.498993,354.744995,387.456573,357.440369,386.546783C358.241516,386.280304,359.020599,385.901794,359.779297,385.411255L360.347931,384.96994L360.410736,384.92923C360.298706,384.15863,360.269836,383.444031,360.325867,382.785461L360.368286,382.386597C359.512817,383.298065,358.297546,384.017731,356.7258,384.55072C355.615723,384.94281,354.021912,385.02597,351.944366,384.80191L351.628662,384.761169L351.480988,384.739105C349.374603,384.515076,347.066223,384.00415,344.552429,383.206421C341.857056,382.366241,339.716705,381.470032,338.1297,380.517822L337.982025,380.937073zM336.045349,408.369537C333.222687,409.068848,330.997467,409.881866,329.368011,410.805206L329.074371,410.86972L328.190063,411.79306C329.59375,411.806641,331.067047,412.205536,332.611633,412.989685C333.9729,413.677124,335.217041,414.558044,336.338989,415.637543C337.124878,416.379303,337.791931,417.219482,338.340179,418.158112C338.944427,419.193481,339.336517,420.215271,339.519836,421.223511L340.867523,420.026886C340.684204,417.911987,340.180084,415.846313,339.350098,413.829895C338.508209,411.743835,337.406616,409.924286,336.045349,408.369537zM365.864288,355.437866C365.317749,355.970856,364.769501,356.41214,364.222961,356.76181C364.418152,360.052948,364.109222,363.371246,363.296204,366.718414C362.467896,370.106323,361.203369,373.180206,359.504333,375.938385C360.641571,376.960205,361.308624,377.997253,361.505524,379.047913L362.011322,377.786804C363.598328,373.292236,364.9664,367.684204,366.117188,360.962738C366.159637,360.725098,366.320862,360.557068,366.602631,360.458618C366.896271,360.360168,367.016785,360.458618,366.960785,360.752258L366.517761,363.252441L366.538147,363.252441L368.328827,362.748322C368.357697,361.235992,368.216797,359.891693,367.907898,358.715454C367.500519,357.133514,366.819885,356.040436,365.864288,355.437866zM327.431335,412.696045L326.799927,413.59906C325.929199,414.887329,325.486176,416.141663,325.472595,417.358643L325.851135,417.044647C326.231323,416.791748,326.750702,416.728943,327.409271,416.854553L328.969147,417.317932C332.380798,418.227692,334.359894,420.174561,334.908142,423.156799C336.213409,423.0159,337.476227,422.561035,338.698303,421.792114C338.416565,420.040466,337.498291,418.326141,335.938416,416.645782C334.858917,415.483093,333.574036,414.537659,332.085449,413.809509C330.442444,412.98291,328.891052,412.612885,327.431335,412.696045zM347.585602,400.556671C346.490814,401.031921,345.170288,401.150726,343.625702,400.913086L343.605316,400.933472C338.888397,403.42688,334.612793,405.037659,330.780212,405.765808L330.695343,406.101868L329.91626,409.671387C331.348816,408.916077,333.075012,408.243927,335.096558,407.654938L340.529724,406.310638C343.309998,405.653778,345.879761,404.329865,348.237366,402.340576C348.237366,401.444366,348.020111,400.850311,347.585602,400.556671zM353.587402,419.081451L354.997894,419.83847L357.251984,420.824646C357.686493,417.436737,359.132629,414.999359,361.590393,413.515869C362.291382,413.09494,363.092529,412.74527,363.990417,412.46521C364.890015,412.19873,365.774323,412.030701,366.645081,411.961121L364.095642,410.133057C361.624329,410.596436,359.940552,410.959686,359.040955,411.226166C354.773834,412.541595,352.322876,414.468079,351.691467,417.002228L352.365326,418.073242C352.647064,418.422913,353.054443,418.758972,353.587402,419.081451zM352.007172,359.681244C352.063202,359.149963,352.029236,358.596619,351.901947,358.02124C351.776337,357.39151,351.579437,356.91626,351.312958,356.593781L351.250153,356.446106C350.126526,355.845245,348.919708,355.753571,347.628021,356.172821C346.531555,356.52417,345.485992,357.19632,344.489655,358.18927C343.773376,358.903839,342.980713,359.835693,342.109955,360.983093L339.898315,363.924591C341.666962,363.783722,343.282837,363.967041,344.742554,364.47113C346.46875,365.071991,347.690826,366.059845,348.407104,367.431305C349.445892,365.822235,350.189331,364.596741,350.63913,363.756561C351.438568,362.300232,351.895142,360.942352,352.007172,359.681244zM352.933929,359.387604C352.752319,361.151123,351.993591,363.070831,350.659485,365.14328C348.568359,368.405579,346.988129,371.367432,345.922211,374.027191C345.289093,375.568359,344.861359,376.919464,344.637329,378.080444C344.3284,379.648773,344.3284,381.049103,344.637329,382.281372L348.828064,383.354095L350.72229,383.730896C350.048431,382.709106,349.676727,381.364807,349.607147,379.697998C349.551117,378.396149,349.683502,377.009399,350.007721,375.53952C350.23175,374.5177,350.61026,373.193787,351.144928,371.569427L352.407745,367.578979C353.320923,364.386261,353.502533,361.677307,352.955994,359.450409L352.933929,359.387604zM370.793365,372.535217C371.677704,375.519135,372.421112,378.158508,373.025391,380.455017C373.909698,383.927795,374.337433,386.847229,374.310272,389.213318C374.267822,390.515167,374.036987,391.852692,373.614349,393.22583C373.320709,394.1492,373.144196,394.800964,373.088196,395.179474C372.976166,395.851624,372.982941,396.515289,373.11026,397.173859C373.16626,397.411499,373.05423,397.608368,372.772461,397.762817C372.492401,397.930878,372.322693,397.874847,372.266663,397.594788C372.069763,396.656158,372.091827,395.710754,372.331177,394.758545C371.404419,394.380035,370.406372,393.50589,369.340454,392.132751C368.413696,390.914063,367.733063,389.549377,367.296844,388.037048L367.296844,388.016693C366.497406,388.115143,365.815063,387.779053,365.254944,387.008453C364.677856,386.237854,364.538666,385.46048,364.832306,384.6763C364.075287,384.20105,363.661133,383.562866,363.589844,382.765106C363.549103,382.065796,363.773163,381.344421,364.263702,380.600983L363.126465,376.821014L363.126465,376.88382L362.327026,378.900269L362.495056,379.131104C363.759583,383.93457,364.995239,387.673828,366.202057,390.347137C366.665436,391.341797,367.486938,392.538422,368.666595,393.938721C370.097473,395.605499,371.01062,396.747803,371.404419,397.363953C371.754059,397.895233,372.062988,398.553802,372.331177,399.337952L372.982941,401.437561L376.562653,413.30542L378.711487,420.593811L378.774292,420.719391L378.964386,420.741455C379.300446,420.909485,379.6586,420.965515,380.038818,420.909485C380.417297,420.853485,380.739807,420.699036,381.006287,420.447815L381.091156,420.383331L380.249268,417.338287L378.942322,413.09494L377.616699,408.831207C376.788391,406.016998,376.078888,403.420074,375.489929,401.038696L374.856812,398.665833C374.632751,397.713623,374.527527,396.907379,374.541107,396.250488C374.541107,395.759979,374.702362,395.108185,375.02655,394.296844L375.763184,392.363586C376.325012,390.263977,376.262207,387.575378,375.57309,384.297791C375.109711,382.155762,374.077728,377.983704,372.477142,371.779907L372.056183,370.204773L371.65564,369.911133L370.688141,369.931488C370.280762,370.099518,370.119537,370.337158,370.202698,370.646088L370.793365,372.535217zM336.338989,390.201172C336.170959,391.586182,336.036865,393.358215,335.938416,395.515564L335.897705,395.851624L335.91806,395.892365C336.18454,396.761414,337.462646,397.713623,339.750671,398.748993C343.079163,400.205322,345.633667,400.548157,347.417572,399.779266C348.37146,396.515289,349.712372,394.254425,351.438568,392.994995C351.706757,392.798096,351.888367,392.811676,351.986816,393.035736C352.085266,393.259766,352.013977,393.456665,351.776337,393.624695C351.355408,393.947205,350.948029,394.346069,350.55426,394.82135C351.129639,396.040039,351.552277,397.355469,351.818787,398.771057C353.614563,399.219147,355.328888,399.443207,356.956635,399.443207L359.967712,399.064697C361.176239,398.867798,362.136932,398.574158,362.85321,398.182068L362.011322,393.163025C361.688812,391.187317,361.373108,389.513733,361.064209,388.142273L360.536316,385.747345C359.203918,386.867584,357.498077,387.602539,355.418823,387.953888C353.580627,388.261108,351.720337,388.240723,349.837982,387.891083C347.507507,387.470154,345.331512,386.798004,343.309998,385.874634C341.008392,384.823975,339.132813,383.535706,337.686707,382.009796C337.167297,384.010956,336.719208,386.741974,336.338989,390.201172z"/>
</svg>
