<?xml version="1.0" encoding="UTF-8"?>
<svg xmlns="http://www.w3.org/2000/svg" xmlns:xlink="http://www.w3.org/1999/xlink" width="54.879mm" height="69.830mm" fill="white" stroke="black" stroke-width="0.5" viewBox="-312.971283 354.405212 54.879150 69.829834">
    <path transform="matrix(-1,0,0,1,0,0)" d="M282.152924,354.406433L282.451019,354.423767L282.527679,354.432068L282.603119,354.448181L282.676605,354.471863L282.747162,354.502869L282.814545,354.54071L282.877533,354.585144L282.915375,354.618347L282.953217,354.604187L283.027924,354.5849L283.104095,354.572937L283.181,354.569031L283.258148,354.572693L283.33432,354.584412L283.432465,354.611267L283.707123,354.706726L283.772552,354.732849L284.031097,354.850525L284.096039,354.883972L284.338226,355.023621L284.400726,355.063904L284.626801,355.225525L284.686615,355.273132L284.896088,355.457214L284.948822,355.507996L285.142181,355.71405L285.189056,355.768982L285.365814,355.997253L285.404877,356.052673L285.505951,356.210144L285.531342,356.225281L285.593353,356.270935L285.650482,356.322693L285.70224,356.380066L285.74765,356.442322L285.779144,356.494812L286.031586,356.95575L286.065277,357.025085L286.091644,357.097595L286.110687,357.172302L286.121918,357.248718L286.125336,357.325623L286.120941,357.402771L286.112152,357.463318L286.088715,357.587341L286.152679,357.755066L286.333832,358.114197L286.571381,358.498962L286.861908,358.899841L286.930267,358.977966L286.970062,358.922302L287.021088,358.864441L287.077728,358.812195L287.139252,358.765808L287.205414,358.726013L287.274994,358.69281L287.347748,358.667175L287.422699,358.648865L287.499115,358.638123L287.576263,358.635193L287.653168,358.640076L287.729095,358.652771L287.803558,358.673035L287.87558,358.700867L287.914398,358.719421L288.457123,358.998474L288.989838,359.221375L289.551117,359.406433L290.086761,359.539734L292.471283,359.637634L292.821869,359.58197L293.192474,359.494324L293.535248,359.38324L293.853607,359.24823L294.146088,359.091248L294.411713,358.914246L294.661713,358.7099L294.914154,358.458191L294.971527,358.406677L295.033783,358.361023L295.100189,358.32196L295.170258,358.289978L295.243256,358.265076L295.318451,358.247742L295.333588,358.245789L295.333344,358.244812L295.322357,358.16864L295.318939,358.091492L295.323334,358.014587L295.335541,357.938416L295.35556,357.863953L295.382416,357.792664L295.592621,357.310486L295.627045,357.241394L295.66806,357.176208L295.715668,357.115417L295.769135,357.059753L295.827972,357.009949L295.921967,356.948425L296.677826,356.529724L296.746918,356.495789L296.819427,356.468933L296.894135,356.449646L296.970306,356.438171L297.047211,356.434265L297.124359,356.438171L297.1539,356.44281L297.17392,356.380554L297.20517,356.309998L297.243256,356.242859L297.287933,356.179871L297.338715,356.122009L297.407074,356.059265L298.056976,355.534607L298.119476,355.489441L298.186127,355.450623L298.256439,355.41864L298.329437,355.393982L298.404633,355.376892L298.481293,355.367615L298.558441,355.365906L298.635345,355.372253L298.711029,355.386169L298.785248,355.407654L298.860199,355.438171L299.388763,355.686951L299.448334,355.718201L299.953949,356.013123L300.010101,356.049255L300.492767,356.390808L300.544037,356.430603L301.003998,356.818787L301.05014,356.861023L301.486664,357.295593L301.526703,357.338562L301.940521,357.819519L301.975189,357.862976L302.366058,358.390564L302.395599,358.433533L302.763031,359.007751L302.786469,359.046814L303.077972,359.568787L303.096039,359.603455L303.362152,360.14325L303.37851,360.17865L303.618744,360.736023L303.632904,360.770935L303.847748,361.34613L303.859711,361.381042L304.04892,361.973816L304.059174,362.007996L304.222992,362.618591L304.231293,362.652771L304.369232,363.280945L304.37558,363.313416L304.482758,363.928894L304.533295,363.92157L304.593353,363.915222L305.004486,363.888367L305.076263,363.887146L305.454193,363.898132L305.539398,363.905457L305.883881,363.954529L305.981537,363.975037L306.292572,364.061951L306.39975,364.100769L306.677338,364.225525L306.746185,364.260681L306.788666,364.287048L307.032562,364.450134L307.09433,364.496277L307.134857,364.532166L307.345306,364.732849L307.408051,364.800232L308.856293,366.561218L308.902191,366.62323L308.941498,366.689636L308.973969,366.75946L308.999359,366.832458L309.017181,366.90741L309.027191,366.98407L309.029388,367.060974L309.024017,367.137878L309.014252,367.194519L309.042084,367.198425L309.117035,367.21698L309.189545,367.242859L309.259125,367.276062L309.325043,367.316345L309.386566,367.362976L309.442963,367.415466L309.493988,367.473328L309.534515,367.529968L310.105804,368.405945L310.122406,368.432312L310.639496,369.300476L310.655609,369.329041L311.118988,370.189392L311.134857,370.220642L311.544525,371.073181L311.559906,371.107361L311.915863,371.952087L311.930511,371.989441L312.232513,372.826355L312.245697,372.86615L312.494232,373.695007L312.505707,373.737732L312.700531,374.558533L312.714447,374.63446L312.720795,374.711365L312.719086,374.788513L312.709808,374.864929L312.692719,374.940125L312.668304,375.013367L312.636322,375.083679L312.597748,375.15033L312.552338,375.21283L312.501068,375.270203L312.444183,375.322205L312.382172,375.368347L312.31601,375.407898L312.245941,375.440369L312.180511,375.463074L312.40976,375.841003L312.428558,375.873962L312.665375,376.312195L312.682465,376.34613L312.897308,376.795837L312.927094,376.866882L312.94931,376.940857L312.964203,377.016541L312.971283,377.093201L312.970062,377.177429L312.941986,377.578796L312.936371,377.630554L312.882416,378.01825L312.873138,378.07196L312.793549,378.445984L312.779633,378.500916L312.674408,378.861267L312.655853,378.916687L312.524994,379.263367L312.501801,379.318298L312.345306,379.651306L312.317963,379.704041L312.136322,380.023376L312.104584,380.074402L311.897308,380.380066L311.850922,380.441589L311.798431,380.49823L311.74057,380.549011L311.677826,380.593933L311.610931,380.632263L311.540375,380.663513L311.467133,380.687439L311.391693,380.704041L311.315033,380.71283L311.24765,380.713562L311.252045,380.786316L311.252533,380.863464L311.245453,380.940369L311.230804,381.016052L311.208344,381.089783L311.178558,381.161072L311.141937,381.228699L311.09848,381.292419L311.048676,381.351501L310.995941,381.403015L310.763031,381.608826L310.724457,381.640808L310.468597,381.838562L310.430756,381.865906L310.151459,382.055603L310.116547,382.07782L309.814301,382.259949L309.770355,382.284607L308.511078,382.934509L308.44101,382.966248L308.367767,382.990906L308.292572,383.007996L308.216156,383.017273L308.139008,383.018982L308.062103,383.012634L307.986176,382.998718L307.963715,382.992126L307.95224,383.013123L307.908539,383.076843L307.858734,383.135681L307.80307,383.189148L307.742523,383.236755L307.677338,383.277771L307.608246,383.312195L307.549896,383.3349L306.69223,383.628113L306.651947,383.640564L305.757416,383.892273L305.718353,383.902283L304.787445,384.111755L304.750336,384.11908L303.782806,384.286804L303.706146,384.296082L303.629242,384.297791L303.552338,384.291443L303.47641,384.277527L303.402435,384.255798L303.330902,384.226746L303.262787,384.190613L303.234222,384.17157L303.233246,384.172791L303.176605,384.225037L303.115082,384.271423L303.049164,384.311462L302.97934,384.344421L302.906586,384.3703L302.831879,384.388611L302.732269,384.401062L301.305267,384.48407L301.228119,384.484558L301.151459,384.477478L301.075775,384.462341L301.002045,384.43988L300.930756,384.410095L300.863129,384.37323L300.851898,384.365417L300.826019,384.382263L300.757416,384.417664L300.685638,384.44574L300.61142,384.466492L300.535248,384.479675L300.458344,384.485291L300.376068,384.482361L297.315033,384.210388L297.238617,384.199646L297.163666,384.181335L297.090912,384.155457L297.021332,384.122253L296.955414,384.082458L296.893646,384.036072L296.83725,383.983582L296.787689,383.927429L296.781342,383.931335L296.712006,383.964783L296.639496,383.990906L296.564545,384.009705L296.488373,384.020935L296.411224,384.024353L296.33432,384.019958L296.258148,384.007751L296.215179,383.997253L295.951996,383.925232L295.945648,383.923523L295.700531,383.854187L295.692963,383.85199L295.4664,383.785339L295.456879,383.782654L295.248627,383.718445L295.238373,383.715027L295.048431,383.653503L295.037201,383.649841L294.876312,383.59491L295.024017,384.163269L295.024994,384.167419L295.242279,385.023132L295.2435,385.028015L295.437836,385.81488L295.439301,385.820251L295.610931,386.538269L295.61264,386.545593L295.761078,387.194763L295.762787,387.203308L295.888519,387.78363L295.890228,387.791199L295.944672,388.055359L295.946136,388.062927L295.994476,388.309998L295.995697,388.316345L296.038666,388.546326L296.040375,388.556091L296.07724,388.768738L296.08017,388.785828L296.195648,389.556091L296.199066,389.583435L296.283783,390.332703L296.286713,390.362L296.340668,391.090271L296.342133,391.121765L296.365326,391.829285L296.365814,391.862976L296.358002,392.549255L296.356781,392.584412L296.318451,393.249695L296.315277,393.287048L296.246185,393.931335L296.241058,393.970886L296.140961,394.594177L296.133148,394.634949L296.072601,394.913757L296.06723,394.936707L295.989349,395.248718L295.984711,395.266052L295.88974,395.611511L295.885834,395.625916L295.773773,396.004578L295.770111,396.016052L295.680267,396.302673L295.692963,396.306335L295.76474,396.334412L295.833344,396.369568L295.898041,396.41156L295.958344,396.459656L296.013275,396.513855L296.062592,396.573181L296.10556,396.63739L296.141693,396.705261L296.162689,396.754089L296.666107,398.054138L296.690277,398.12738L296.706879,398.202576L296.715668,398.279236L296.715912,398.300232L296.753021,398.322205L296.815033,398.367859L296.866058,398.413269L297.214203,398.753601L297.273285,398.818542L297.583344,399.200867L297.632904,399.269226L297.905121,399.693298L297.944916,399.763123L298.178802,400.229187L298.208588,400.29657L298.404633,400.804626L298.426117,400.868835L298.584076,401.418884L298.59848,401.477478L298.718597,402.069275L298.727386,402.123474L298.809174,402.757263L298.815277,402.834167L298.813568,402.911072L298.803802,402.987732L298.795746,403.027771L298.732269,403.299988L298.710785,403.373962L298.677582,403.455505L298.548676,403.725281L298.604095,403.774353L298.656586,403.83075L298.703217,403.892273L298.743256,403.958191L298.776459,404.027771L298.802582,404.100525L298.821136,404.175232L298.831879,404.251648L298.834564,404.34613L298.825775,404.610535L298.824799,404.631042L298.807953,404.909607L298.806732,404.927673L298.782074,405.220398L298.780609,405.237244L298.747894,405.544373L298.746185,405.558777L298.705658,405.88031L298.703705,405.894226L298.655121,406.230164L298.653168,406.242615L298.596527,406.592957L298.594818,406.603943L298.538666,406.921082L298.537933,406.934509L298.526215,407.010681L298.506927,407.085388L298.480316,407.157654L298.446381,407.22699L298.405609,407.292419L298.358246,407.353455L298.305267,407.409363L298.22226,407.477722L298.207367,407.48822L298.210052,407.491882L298.248627,407.558777L298.280121,407.629089L298.304291,407.702332L298.320892,407.777771L298.329926,407.854431L298.331146,407.931335L298.324554,408.00824L298.31015,408.084656L298.142426,408.77533L298.120453,408.84906L298.091156,408.920593L298.054779,408.988464L298.011566,409.052429L297.96225,409.111755L297.907318,409.16571L297.847015,409.21405L297.782074,409.255798L297.71347,409.29071L297.641693,409.318787L297.56723,409.339294L297.491058,409.352234L297.469818,409.353699L297.649017,409.94696L297.694183,410.093933L297.735931,410.070496L297.806732,410.039978L297.880219,410.016541L297.955658,410.000916L298.032562,409.992859L298.109467,409.992615L298.186371,410.000427L298.262054,410.015564L298.335541,410.038513L298.406586,410.068787L298.474213,410.105896L298.525482,410.140564L300.288177,411.440613L300.347748,411.489441L300.402191,411.544128L300.450775,411.603943L300.493256,411.668396L300.528656,411.737L300.55722,411.808533L300.578217,411.882751L300.591888,411.958679L300.597504,412.035583L300.595551,412.112732L300.590179,412.153992L300.605072,412.153015L300.748138,412.135193L300.825043,412.129578L300.902191,412.131531L300.978607,412.141541L301.053802,412.159119L301.126556,412.184265L301.196625,412.216492L301.263031,412.255798L301.325287,412.301453L301.371185,412.342224L303.07016,413.977722L303.122894,414.034119L303.169769,414.095398L303.210052,414.161072L303.243744,414.230408L303.269867,414.302917L303.28891,414.377869L303.30014,414.454041L303.303558,414.531189L303.299408,414.60321L303.333588,414.604187L303.410004,414.613953L303.485199,414.631531L303.558197,414.656677L303.628265,414.688904L303.694672,414.727966L303.756683,414.773865L303.813812,414.825623L303.876801,414.896667L304.17807,415.284851L304.201508,415.316833L304.465424,415.695984L304.489838,415.733337L304.7164,416.10321L304.741302,416.1474L304.930511,416.50824L304.95517,416.559753L305.107025,416.911316L305.130463,416.972351L305.24472,417.314636L305.264252,417.38446L305.341156,417.717712L305.355072,417.797302L305.394379,418.121521L305.399994,418.214539L305.399506,418.514343L305.394623,418.599548L305.36142,418.890808L305.346283,418.97821L305.280121,419.260681L305.254974,419.345642L305.156097,419.619568L305.121918,419.699646L304.990082,419.965271L304.94931,420.037048L304.785004,420.293884L304.740082,420.356873L304.542816,420.605408L304.496429,420.65863L304.266693,420.898621L304.227386,420.936707L304.047699,421.099304L304.014008,421.128113L303.810638,421.291687L303.779633,421.315369L303.552826,421.479431L303.524994,421.498474L303.274506,421.663269L303.249115,421.679382L302.974945,421.844666L302.953217,421.857361L302.655609,422.023621L302.635101,422.034607L302.313812,422.201355L302.296234,422.210388L301.951508,422.378113L301.880463,422.408142L301.806732,422.431091L301.731049,422.446472L301.618011,422.454773L301.596771,422.454773L301.560638,422.45282L301.641205,422.747742L301.657562,422.823181L301.666595,422.899841L301.667572,422.97699L301.660736,423.05365L301.646332,423.129578L301.624359,423.203552L301.594818,423.274841L301.558441,423.342712L301.515228,423.406677L301.441254,423.491394L301.206146,423.723328L301.148529,423.774597L301.116547,423.799011L300.936615,423.92865L300.871674,423.970642L300.821381,423.997253L300.633636,424.087585L300.562592,424.117371L300.496674,424.137878L300.301117,424.189148L300.225433,424.205017L300.128021,424.213806L299.33139,424.235046L299.278168,424.234558L299.120453,424.227722L299.103363,424.226746L298.966156,424.217712L298.940277,424.215759L298.823334,424.204041L298.786957,424.199402L298.690277,424.184998L298.638519,424.175476L298.562103,424.15863L298.474945,424.133972L298.419037,424.114441L298.347504,424.085144L298.269135,424.042908L298.233246,424.020691L298.169769,423.976746L298.111176,423.926697L298.057953,423.871033L298.010345,423.810242L297.986176,423.773132L297.970795,423.74823L297.933441,423.680603L297.896332,423.589539L297.686127,422.960876L297.665375,422.886414L297.652191,422.810486L297.64975,422.777039L297.61972,422.712341L297.597992,422.652039L297.590179,422.626892L297.548676,422.649597L297.477631,422.679871L297.404144,422.70282L297.328461,422.718201L297.251801,422.725769L297.174652,422.725769L297.097992,422.717712L297.022308,422.702087L296.948822,422.678894L296.878021,422.648376L296.850677,422.632996L296.845795,422.643982L296.807709,422.710876L296.762787,422.773621L296.712006,422.831726L296.655365,422.884216L296.593842,422.930603L296.527924,422.970886L296.458344,423.004089L296.385834,423.029968L296.310883,423.048523L296.234467,423.059265L296.157562,423.062439L296.088959,423.058533L295.347015,422.983582L295.308197,422.978699L294.529388,422.859314L294.494476,422.85321L293.679047,422.689148L293.648285,422.682312L292.796478,422.473816L292.722504,422.451599L292.651215,422.422058L292.583344,422.385681L292.519379,422.342468L292.460297,422.292908L292.426361,422.25824L292.387054,422.268982L292.311127,422.281921L292.233978,422.287048L292.157074,422.284363L292.080658,422.273865L291.990082,422.250916L291.004486,421.936462L290.932465,421.909363L290.863373,421.875183L290.797943,421.834167L290.737152,421.78656L290.681488,421.733093L290.631683,421.6745L290.622894,421.661804L290.619965,421.662537L290.543793,421.674988L290.466888,421.679382L290.38974,421.676208L290.313568,421.664978L290.238617,421.646423L290.177094,421.624695L289.562103,421.378113L289.537445,421.367615L288.909515,421.089783L288.886566,421.079285L288.245697,420.769958L288.224945,420.75946L287.570648,420.41864L287.535248,420.399109L285.940521,419.457458L285.876068,419.414734L285.83847,419.385193L285.464935,419.07196L285.409515,419.020447L285.085541,418.688904L285.030853,418.626648L284.756683,418.277039L284.705658,418.203552L284.481537,417.836121L284.449554,417.778015L284.241058,417.357849L284.210297,417.287292L284.186859,417.213806L284.17099,417.138123L284.162933,417.061462L284.162445,416.984314L284.169769,416.907654L284.192474,416.804382L284.222992,416.700378L284.190521,416.687683L284.121918,416.652527L284.05722,416.610779L283.997162,416.562439L283.941986,416.50824L283.892914,416.448914L283.849945,416.384949L283.813568,416.316833L283.784271,416.245544L283.764008,416.177917L283.28183,414.250671L283.266937,414.174988L283.259125,414.065613L283.259125,413.93866L283.263031,413.861511L283.27475,413.785339L283.294037,413.710632L283.324799,413.629089L283.371429,413.524109L283.403412,413.351501L283.417328,413.290466L283.473969,413.081726L283.434174,413.063171L283.368011,413.023865L283.306,412.977966L283.248871,412.925964L283.197601,412.868591L283.151947,412.806335L283.113129,412.739685L283.081146,412.669373L283.056488,412.596375L283.039398,412.521179L283.029633,412.440613L282.840668,409.632263L282.839447,409.555115L282.845795,409.47821L282.860199,409.402283L282.881927,409.328308L282.911224,409.257019L282.947601,409.188904L282.99057,409.124939L283.020599,409.088806L283.014984,409.082703L282.968842,409.020935L282.929047,408.954773L282.896088,408.884949L282.870453,408.812195L282.852142,408.737244L282.841644,408.660828L282.838959,408.584167L282.853607,407.599792L282.85434,407.578064L282.897797,406.572449L282.899017,406.551697L282.971527,405.524841L282.972992,405.505798L283.073578,404.458191L283.084808,404.381775L283.103851,404.307068L283.130219,404.234558L283.163666,404.164978L283.204193,404.099304L283.250824,404.038025L283.303802,403.981873L283.361908,403.931335L283.424896,403.886902L283.429291,403.88446L283.397064,403.850281L283.350189,403.788757L283.309906,403.723083L283.276459,403.653748L283.250336,403.581238L283.231293,403.506287L283.220306,403.430115L283.216888,403.352966L283.221283,403.275818L283.227386,403.23114L283.836517,399.62616L283.853363,399.550964L283.877533,399.477722L283.909027,399.407166L283.947357,399.340271L283.992523,399.277771L284.043549,399.21991L284.100189,399.167664L284.161957,399.121277L284.228119,399.081482L284.297699,399.048523L284.302826,399.046814L284.301361,399.040955L284.205658,398.552673L284.098236,398.084656L283.975677,397.619812L283.840424,397.165955L283.688324,396.7099L283.519623,396.253113L283.336029,395.800232L283.267426,395.896423L282.964447,396.377625L282.675629,396.893494L282.39267,397.461121L282.126556,398.059509L281.868256,398.709656L281.627777,399.386414L281.392181,400.128845L281.477631,400.201111L281.534027,400.253845L281.566742,400.289978L281.698822,400.44574L281.745453,400.507019L281.767426,400.54071L281.879242,400.723328L281.927826,400.816589L282.019135,401.025818L282.050385,401.111023L282.121429,401.347351L282.139984,401.422302L282.190765,401.685242L282.200287,401.749939L282.230804,402.039734L282.234711,402.09491L282.244965,402.411316L282.2435,402.488464L282.234222,402.56488L282.217377,402.64032L282.192963,402.713318L282.161224,402.78363L282.12265,402.850525L282.077484,402.913025L282.026215,402.970642L282.021332,402.975281L282.047455,403.00946L282.087982,403.075134L282.121429,403.14447L282.147797,403.21698L282.16684,403.291931L282.17807,403.368103L282.181488,403.445251L282.177094,403.522156L282.168304,403.582458L281.938812,404.797791L281.933929,404.82196L281.723724,405.766541L281.718353,405.789246L281.4664,406.778015L281.460785,406.798035L281.167084,407.831238L281.161713,407.849548L280.826019,408.927917L280.799408,409.000183L280.765717,409.069519L280.724945,409.135193L280.677826,409.196228L280.624847,409.25238L280.566498,409.302673L280.503265,409.346863L280.435883,409.38446L280.365326,409.415222L280.30307,409.434753L280.320404,409.461853L280.358978,409.528748L280.390472,409.59906L280.414642,409.672302L280.431244,409.747742L280.440033,409.824158L280.441254,409.901306L280.434662,409.97821L280.420258,410.053894L280.407318,410.100769L280.322601,410.372742L280.311371,410.405701L280.093353,411.007263L280.091644,411.01239L279.877533,411.590271L279.875336,411.59613L279.664886,412.15033L279.662689,412.156189L279.45639,412.686462L279.453705,412.693054L279.251068,413.19989L279.248383,413.206482L279.049896,413.689636L279.046722,413.697449L278.851898,414.156921L278.848236,414.164978L278.657562,414.600769L278.623138,414.669861L278.581879,414.735046L278.534271,414.795593L278.480804,414.851257L278.421967,414.901062L278.358246,414.944763L278.290619,414.981628L278.219574,415.011658L278.145844,415.034119L278.07016,415.049255L278.042572,415.051941L278.056,415.090271L278.076508,415.132263L278.107025,415.203064L278.130219,415.276794L278.145844,415.352234L278.153656,415.428894L278.153656,415.506042L278.146088,415.582947L278.130463,415.658386L278.107513,415.732117L278.06723,415.822449L277.790619,416.349304L277.781342,416.366882L277.495941,416.877625L277.486176,416.89447L277.192474,417.389832L277.181488,417.407654L276.878998,417.887146L276.867279,417.905212L276.556244,418.368835L276.544037,418.386658L276.224701,418.834656L276.211029,418.852966L275.882904,419.285339L275.8685,419.30365L275.53183,419.720154L275.48056,419.777527L275.423431,419.829529L275.36142,419.875427L275.295258,419.914978L275.225189,419.947449L275.152435,419.972839L275.07724,419.990662L275.000824,420.000671L274.923676,420.003113L274.898529,420.00116L274.900482,420.01947L274.904633,420.096619L274.90097,420.173523L274.88974,420.249939L274.870697,420.324646L274.844086,420.397156L274.810394,420.466492L274.769867,420.532166L274.722992,420.593445L274.644135,420.673279L273.301849,421.846375L273.241302,421.894226L273.176117,421.935486L273.107269,421.970154L273.035248,421.997498L272.960541,422.017517L272.884613,422.029968L272.807465,422.034607L272.73056,422.031433L272.719574,422.029968L272.712006,422.060242L272.686127,422.132996L272.652679,422.202576L272.61264,422.26825L272.56601,422.329773L272.513519,422.386414L272.455414,422.437195L272.361664,422.500671L271.934906,422.7453L271.898529,422.764832L271.458344,422.986267L271.419769,423.004333L270.965668,423.201843L270.927826,423.217224L270.460052,423.391541L270.421234,423.404724L269.939789,423.555115L269.901703,423.565857L269.406342,423.69281L269.368744,423.701599L268.859711,423.804871L268.82309,423.811218L268.300385,423.891052L268.223724,423.898865L268.146576,423.898865L268.069916,423.891052L267.994232,423.875427L267.920746,423.852478L267.849701,423.82196L267.782318,423.784607L267.766449,423.773376L267.764008,423.775818L267.703217,423.823425L267.638031,423.864685L267.569183,423.899353L267.496918,423.926697L267.422455,423.946472L267.346283,423.958923L267.271088,423.963318L266.790863,423.968201L266.756439,423.967712L266.280853,423.951111L266.245697,423.949158L265.774506,423.910828L265.739105,423.907166L265.272552,423.847107L265.237152,423.841736L264.775482,423.760193L264.739838,423.752869L264.282806,423.649353L264.248138,423.640564L263.795746,423.515564L263.761322,423.50531L263.313568,423.358582L263.283295,423.347839L262.82431,423.17572L262.788177,423.161072L262.345062,422.968445L262.308929,422.951843L261.881683,422.738953L261.845795,422.719666L261.434174,422.486267L261.398529,422.464783L261.002533,422.210876L260.968109,422.187439L260.587982,421.913269L260.555023,421.888123L260.190521,421.593689L260.158783,421.566589L259.809906,421.251648L259.773773,421.21698L259.542328,420.978699L259.513763,420.947449L259.302094,420.703796L259.274261,420.669861L259.082123,420.421082L259.054779,420.38324L258.882416,420.129333L258.856049,420.08783L258.703461,419.828552L258.679535,419.784851L258.546478,419.520691L258.524261,419.472351L258.411224,419.202576L258.392914,419.154236L258.299164,418.879578L258.277924,418.805359L258.264496,418.729431L258.258636,418.652527L258.26059,418.575623L258.270355,418.498962L258.281586,418.446716L258.318207,418.301941L258.339935,418.230896L258.38681,418.100525L258.419525,418.023865L258.361908,417.980164L258.305511,417.927429L258.25473,417.869568L258.210052,417.80658L258.171967,417.739441L258.140717,417.668884L258.117035,417.595642L258.100677,417.520203L258.092133,417.443542L258.092133,417.34906L258.126312,416.809265L258.135345,416.730896L258.227875,416.180847L258.2435,416.10907L258.394623,415.548523L258.414886,415.484558L258.624115,414.913513L258.647552,414.856873L258.915375,414.27533L258.940033,414.226501L259.265961,413.634705L259.290863,413.592712L259.67514,412.990173L259.700043,412.953796L260.14267,412.340759L260.190765,412.280457L260.244965,412.225525L260.304291,412.176453L260.368256,412.133484L260.436371,412.097107L260.50766,412.06781L260.581635,412.046082L260.657562,412.031677L260.746918,412.024841L260.76767,412.024353L260.758881,411.969421L260.754242,411.892517L260.757416,411.815369L260.768646,411.739197L260.787201,411.664246L260.813324,411.591736L260.846771,411.522156L260.887054,411.456482L260.933685,411.394958L260.965424,411.359558L261.846771,410.437439L261.902679,410.38446L261.963959,410.337585L262.029388,410.296814L262.098724,410.263123L262.171234,410.236511L262.23642,410.219421L262.424408,410.17865L262.603851,410.082458L262.580414,410.036072L262.552826,409.96405L262.532562,409.889587L262.520111,409.81366L262.515228,409.736511L262.518158,409.659607L262.524506,409.608582L262.71347,408.41449L262.724457,408.358582L263.353119,405.696716L263.374603,405.622498L263.403656,405.550964L263.439545,405.482849L263.482269,405.41864L263.531097,405.358826L263.586029,405.304626L263.627045,405.271423L263.613373,405.240173L263.589935,405.166931L263.573822,405.091248L263.565521,405.014587L263.565033,404.937439L263.572357,404.860779L263.59726,404.748962L263.830902,403.981628L263.837982,403.959656L264.087982,403.219421L264.096039,403.196472L264.36264,402.483337L264.371918,402.4599L264.654877,401.773376L264.665619,401.748718L264.964935,401.08905L264.976898,401.064148L265.292328,400.431335L265.305756,400.405212L265.637543,399.799011L265.652679,399.772644L266.000824,399.193054L266.044037,399.129089L266.093109,399.069763L266.148285,399.015564L266.208344,398.967468L266.273285,398.925476L266.341888,398.89032L266.413666,398.862244L266.465912,398.847839L266.465179,398.844177L266.45932,398.767273L266.461273,398.690125L266.471039,398.613708L266.488373,398.538513L266.513275,398.465515L266.545502,398.395447L266.584564,398.328796L266.621918,398.277039L268.006439,396.516052L268.05722,396.457947L268.113617,396.405212L268.174896,396.358337L268.24057,396.318054L268.31015,396.284607L268.38266,396.25824L268.457367,396.239441L268.487396,396.235046L268.47641,396.164001L268.472504,396.086853L268.47641,396.009949L268.487885,395.933533L268.497406,395.892761L268.551605,395.685974L268.587494,395.455994L268.610687,395.162781L268.619476,394.791199L268.61972,394.782654L268.661957,393.567322L268.66684,393.503601L268.800873,392.376648L268.802094,392.366882L268.952484,391.22821L268.953705,391.218689L269.120453,390.068054L269.121918,390.058777L269.305023,388.896179L269.306488,388.887146L269.506195,387.713074L269.50766,387.704285L269.72348,386.51825L269.725189,386.50946L269.957611,385.311951L269.95932,385.303406L270.208344,384.094177L270.209076,384.091003L270.544769,382.497742L270.564545,382.423035L270.591644,382.350769L270.625824,382.281677L270.667084,382.216492L270.714447,382.155701L270.767914,382.100037L270.826752,382.049988L270.852875,382.031921L270.818695,381.971863L270.787445,381.901306L270.763519,381.828064L270.747162,381.752625L270.738373,381.675964L270.737396,381.59906L270.744232,381.522156L270.753021,381.472839L270.879974,380.865173L270.88681,380.835388L272.41806,374.737976L272.440521,374.664246L272.470551,374.592957L272.507416,374.52533L272.550873,374.461609L272.600677,374.402771L272.656342,374.349304L272.716888,374.301453L272.782074,374.260193L272.850922,374.225769L272.923187,374.198425L272.99765,374.178406L273.073822,374.166199L273.106537,374.164246L273.062103,373.924988L273.056976,373.89325L272.989349,373.418152L272.985199,373.383972L272.911469,372.6203L272.90976,372.599548L272.857269,371.838318L272.856049,371.817078L272.824799,371.058533L272.82431,371.037781L272.813812,370.281433L272.814056,370.25116L272.839935,369.253601L272.8414,369.222595L272.907562,368.230164L272.910248,368.198914L273.017181,367.211609L273.021088,367.180603L273.168304,366.198425L273.173676,366.167419L273.361664,365.190613L273.368256,365.160095L273.597015,364.188416L273.604584,364.158386L273.873871,363.191833L273.882904,363.162537L274.192963,362.201355L274.203217,362.17157L274.425873,361.56781L274.431488,361.552673L274.657562,360.977722L274.664642,360.960632L274.894867,360.41449L274.902679,360.396179L275.13681,359.878845L275.146088,359.859558L275.383881,359.371033L275.394623,359.349548L275.636566,358.889832L275.648773,358.867371L275.894379,358.436462L275.909027,358.412048L276.158783,358.009705L276.182953,357.973083L276.546478,357.456238L276.574799,357.41864L276.951996,356.947205L276.985199,356.908386L277.376068,356.481873L277.415131,356.442322L277.819672,356.060974L277.865082,356.021423L278.283539,355.685242L278.335052,355.6474L278.766937,355.356384L278.824554,355.320984L279.270599,355.07489L279.333588,355.043884L279.793304,354.842957L279.826996,354.829041L280.106293,354.722595L280.148529,354.707947L280.430267,354.61908L280.474457,354.606628L280.759125,354.535339L280.804779,354.525574L281.091888,354.472107L281.138275,354.464783L281.42807,354.429138L281.474213,354.424988L281.766693,354.406921L281.812836,354.405457L282.108002,354.405212L282.152924,354.406433zM299.613373,378.03949L299.634613,378.033875L299.660492,378.029724L299.596527,377.943542L299.613373,378.03949zM291.513031,381.143738L291.543793,381.173767L291.589447,381.22821L291.58847,381.226746L291.555023,381.173279L291.520599,381.112976L291.513031,381.143738zM291.669281,381.357117L291.675629,381.353943L291.637299,381.298035L291.669281,381.357117zM294.549896,367.547546L294.603607,367.697693L294.632416,367.68158L294.699554,367.652527L294.683929,367.611023L294.674896,367.577332L294.63974,367.569519L294.566498,367.544861L294.544281,367.534851L294.549896,367.547546zM290.834564,379.213806L290.875092,379.27948L290.903656,379.337097L290.97226,379.491882L290.947845,379.237L290.944427,379.177429L290.941986,379.037048L290.916107,379.037537L290.839203,379.030945L290.763519,379.016541L290.689545,378.994568L290.681244,378.99115L290.834564,379.213806zM270.052826,408.140076L270.399017,408.554138L270.420258,408.58075L270.606537,408.824646L270.609222,408.820251L270.657562,408.760193L270.68222,408.735291L270.634613,408.711365L270.567474,408.673523L270.504486,408.628845L270.446381,408.578064L270.393646,408.521912L270.347015,408.460388L270.306732,408.394714L270.273285,408.325134L270.247162,408.252625L270.228363,408.177673L270.217377,408.101501L270.217377,408.09906L270.052826,408.140076zM297.276825,408.114838L297.402252,408.595398L297.570068,407.904694L297.276825,408.114838zM295.452301,397.029266L295.263336,397.511475C295.12326,397.889404,295.040161,398.293396,295.012482,398.726715L295.955688,398.329254L295.452301,397.029266zM298.073425,410.753876L298.536072,412.221649L299.836029,412.053864L298.073425,410.753876zM291.718567,384.290222L290.985504,381.691925C290.299683,382.193665,290.544037,383.060303,291.718567,384.290222zM296.248901,420.4776C296.431366,421.021698,296.752289,421.516907,297.214935,421.964905L296.227722,418.780151C296.046906,419.311218,296.053436,419.876465,296.248901,420.4776zM301.324982,370.627533L301.282623,370.648682C300.808563,370.663361,300.318237,370.761108,299.81485,370.941925C300.61145,371.305206,301.324982,371.702667,301.953796,372.136017L301.324982,370.627533zM291.992249,405.327576L291.321075,403.252197C290.943146,403.89566,290.271973,404.558655,289.307587,405.242859L291.992249,405.327576zM297.780212,406.83606C297.962646,405.843964,298.060394,405.006653,298.073425,404.320831C297.669434,404.741119,297.136719,405.096252,296.480225,405.389465L297.04715,407.380157L297.780212,406.857239L297.780212,406.83606zM283.79007,412.389435C284.280396,411.508118,284.979248,410.740845,285.888245,410.084351L283.601074,409.580994L283.79007,412.389435zM292.704132,374.797852C293.404602,374.0159,294.186554,373.317047,295.053192,372.702911L294.214233,371.48764C293.683167,372.212555,293.018524,372.709412,292.221924,372.974945L292.704132,374.797852zM298.703857,370.459717L298.850464,370.523254C299.493958,370.173004,300.19281,369.943329,300.947052,369.830933L299.878387,367.589355C299.277283,368.008026,298.695709,368.791595,298.136963,369.936798L298.703857,370.459717zM298.786957,413.016602L299.542816,415.280975C300.549561,414.875336,301.548157,414.624481,302.54187,414.526733L300.842773,412.891174L300.674988,412.912354L298.786957,413.016602zM295.872589,372.136017C296.416687,371.787384,297.066681,371.409454,297.822571,371.005463L294.970123,368.364777C295.067871,369.10437,294.991302,369.817902,294.7388,370.502075L295.872589,372.136017zM295.809082,418.0047C294.088806,419.205322,293.145599,420.441742,292.977814,421.71402L292.977814,421.733582C294.137695,422.041473,295.201447,422.230438,296.165833,422.300476C295.647797,421.657013,295.354553,420.966309,295.284515,420.225098C295.214478,419.443146,295.388794,418.703583,295.809082,418.0047zM308.05777,376.913971C308.393372,378.785706,308.429199,380.566254,308.162048,382.257202L309.421265,381.607208C309.839935,381.369385,310.196686,381.111969,310.491547,380.831787C310.476898,380.092194,310.226013,379.359131,309.735687,378.632599C309.317017,378.003784,308.756622,377.430359,308.05777,376.913971zM290.858429,372.722443L289.915222,372.78598C289.509583,372.953766,289.341797,373.155792,289.411865,373.393616L290.943146,378.275818C291.083252,377.396149,291.440002,376.536011,292.01178,375.6987L292.01178,375.677521L291.278717,373.036865L290.858429,372.722443zM300.821594,381.313995C300.668488,380.517395,300.324738,379.673553,299.793701,378.779205C299.78064,379.658875,299.555847,380.510864,299.122528,381.335144C298.703857,382.131744,298.122284,382.837128,297.382721,383.451263L300.443665,383.723328C300.876984,383.081482,301.004059,382.278381,300.821594,381.313995zM288.4263,377.164825L288.405121,377.961426L288.447449,377.940247C288.963867,377.857178,289.454224,377.912567,289.915222,378.108032L288.677155,374.147858L285.552673,375.154602C286.279236,376.061981,287.181702,376.654938,288.258484,376.93515C288.369263,376.96283,288.4263,377.039398,288.4263,377.164825zM303.506256,365.075775L303.380829,365.158844L304.701965,367.610535C305.485535,367.121826,306.673096,366.932861,308.267914,367.045288L306.819702,365.284302C306.303314,364.697845,305.428528,364.516998,304.198608,364.740173L303.506256,365.075775zM281.4198,403.441162C280.162201,404.433228,278.728638,405.291748,277.120789,406.01828C278.225281,406.536316,279.218994,407.429016,280.098663,408.701294C280.574341,407.233551,280.937622,405.886322,281.190125,404.656403L281.4198,403.441162zM295.053192,399.544495C295.095551,399.948486,295.207947,400.500732,295.388794,401.199615L296.29126,404.656403C296.990112,404.350159,297.486969,403.986877,297.780212,403.566589L297.990356,403.12674L298.053894,402.854706C297.886078,401.108368,297.312683,399.810028,296.333618,398.958038L295.053192,399.544495zM292.221924,421.525055C292.544495,419.974213,293.704346,418.527649,295.704803,417.186951L295.724365,417.186951L294.865845,414.420837C292.76767,415.803894,291.56543,418.03241,291.257538,421.106384L291.236359,421.210663L292.221924,421.525055zM297.886078,356.652039C299.647064,358.927795,301.36734,361.55542,303.045227,364.530029L303.737579,364.09021C303.472046,362.343872,302.932831,360.78653,302.121582,359.418121C301.171844,357.824951,299.976135,356.728607,298.536072,356.127472L297.886078,356.652039zM285.111206,411.718262C284.539398,412.374756,284.203827,413.05246,284.104462,413.751312L284.021393,413.93866L284.021393,414.065704L284.503571,415.992859C285.73349,413.339172,288.740692,411.37619,293.521912,410.10553L293.417664,409.831848C291.446503,410.362915,289.307587,410.503021,286.999268,410.252136L286.958527,410.271698C286.230347,410.664307,285.616211,411.144867,285.111206,411.718262zM264.326355,404.970825C266.437592,404.552155,268.618866,403.902161,270.870178,403.022491C270.199036,402.616852,269.465942,402.079285,268.667725,401.409729L266.654236,399.585236C265.704529,401.095337,264.92746,402.888916,264.326355,404.970825zM306.526489,371.634247C307.072205,373.045013,307.490875,374.371033,307.785736,375.613983L307.994232,375.656342C308.833191,376.159729,309.533691,376.767334,310.092438,377.479248C310.735901,378.275818,311.126892,379.100128,311.266968,379.952118C311.853424,379.155518,312.169464,378.212311,312.210175,377.124115C311.666077,375.908844,310.889038,374.819031,309.882294,373.854645C308.890228,372.890259,307.771057,372.150665,306.526489,371.634247zM308.707764,367.986847C306.946777,367.80603,305.71524,367.903778,305.016357,368.281708L306.06546,370.523254L306.275604,370.502075C307.393127,370.865356,308.44873,371.417603,309.442444,372.157166C310.421509,372.898376,311.260468,373.756897,311.95932,374.734314C311.511322,372.556305,310.491547,370.291931,308.896729,367.946136L308.707764,367.986847zM271.982819,402.561462C272.932556,402.155853,274.177124,401.569397,275.714935,400.802124C274.820587,400.577301,273.883911,400.271057,272.904846,399.880096C270.640503,398.971069,269.20694,398.006683,268.605835,396.986908L267.221161,398.747894L269.444794,400.759766C270.324463,401.499329,271.135712,402.066254,271.876923,402.457214L271.982819,402.561462zM295.766724,362.057159C295.809082,363.524933,295.781372,365.165375,295.683624,366.98175C295.654297,367.149536,295.564728,367.281494,295.409973,367.379211L297.591248,369.433441C298.179321,368.27356,298.835815,367.442749,299.563995,366.939392L296.584503,361.094421L295.766724,362.057159zM284.000214,358.70462C284.378143,359.431152,285.021606,360.416718,285.930603,361.659698C286.90802,362.972687,287.929443,364.139069,288.991577,365.158844L290.83725,364.319885L287.587341,360.884277L286.266174,359.375793C285.790497,358.761627,285.467957,358.188202,285.300171,357.657135L285.363708,357.321564L285.111206,356.860565C285.028137,356.832855,284.9646,356.783997,284.923859,356.713928C284.51825,356.016724,283.936676,355.555695,283.182434,355.330902C283.084686,356.337646,283.35672,357.46167,284.000214,358.70462zM277.352112,415.385223C276.638611,413.080139,274.597412,411.040588,271.226959,409.266571C272.233704,410.719666,273.057983,412.311249,273.701447,414.044525C274.331879,415.763153,274.744019,417.494843,274.939514,419.24115C275.848511,418.151337,276.66629,416.893707,277.392822,415.468323L277.352112,415.385223zM299.961487,416.600494L301.261444,420.811523L301.597015,421.692841L301.618195,421.692841C302.56955,421.244873,303.268402,420.805023,303.7164,420.371704C304.372894,419.742889,304.680786,419.024475,304.638428,418.213226C304.583038,417.361237,304.12854,416.41153,303.274933,415.364044C302.142761,415.364044,300.976379,415.580719,299.772522,416.014038L299.961487,416.600494M292.453247,366.18515C291.516571,365.906586,290.977356,366.408325,290.83725,367.693634C290.656433,369.565399,290.537506,370.544434,290.482117,370.627533C290.229614,371.060852,289.845184,371.424103,289.327148,371.717346C289.076263,371.857452,288.579407,372.080627,287.838196,372.388489C286.650635,372.849518,285.601532,373.134613,284.692535,373.247009C284.775635,373.652649,284.91571,374.056641,285.111206,374.46228L285.217102,374.419922L288.677155,373.310547C288.789551,373.017303,288.978516,372.730591,289.244049,372.450409L290.01947,371.842773L290.985504,371.759705C291.306427,371.842773,291.607788,371.997528,291.886353,372.220703C293.256378,371.912842,293.997589,371.060852,294.109985,369.663116C294.222382,368.294739,293.740204,367.183746,292.663391,366.331757L292.495605,366.18515L292.453247,366.18515zM259.020599,418.633514C259.243774,419.373108,259.677094,420.057312,260.320557,420.686096C261.229553,421.552765,262.306366,422.202728,263.550934,422.63443C264.738495,423.054718,265.976563,423.243683,267.263519,423.201324C266.745483,421.007019,265.3396,419.479004,263.047577,418.612335L260.719666,417.962372L259.607056,417.879272C259.299164,417.97702,259.103668,418.227905,259.020599,418.633514zM289.97876,360.297821C289.110474,360.115356,288.307373,359.815613,287.566162,359.396942L288.551727,360.465607C289.543793,361.58313,290.796539,362.88147,292.306641,364.362244L294.844696,366.835114L294.927765,362.643616C294.914734,362.211914,295.053192,361.827484,295.348053,361.491882L296.187012,360.423248L296.208191,360.38089L295.452301,358.997833C294.7388,359.781403,293.759735,360.248932,292.515167,360.402069L289.97876,360.297821zM290.83725,402.519104L290.921967,402.204712C290.669464,401.618256,290.327362,401.031799,289.894043,400.445343C288.173798,400.445343,286.404663,400.21405,284.588287,399.753021L283.979034,403.358063C284.286926,403.678986,284.790283,403.993408,285.489136,404.30127C286.300385,404.677582,287.215912,404.943115,288.237305,405.096252L288.320404,405.013184C289.356476,404.34201,290.089539,403.700165,290.522858,403.086029L290.83725,402.519104zM285.616211,367.379211C284.888031,369.265656,284.552429,370.941925,284.607819,372.408051C285.446777,372.33963,286.300385,372.163696,287.167053,371.885132C288.07605,371.591919,288.84494,371.222107,289.475372,370.774139C289.851685,370.508606,290.04718,369.89444,290.061829,368.930054C290.061829,367.701782,290.089539,367.00293,290.146545,366.835114C290.42511,365.955444,290.977356,365.437408,291.803284,365.284302L291.59314,365.075775L290.77536,365.158844C290.649933,365.396698,290.488647,365.515625,290.293152,365.515625L290.187286,365.494446L289.830505,365.724121C289.314117,365.989655,288.649475,366.227509,287.838196,366.437653L285.762817,366.960571L285.616211,367.379211zM278.106354,407.904694C277.407501,407.262878,276.680969,406.83606,275.925079,406.625916L275.84201,406.585205L274.897156,406.919128C273.722626,407.324768,272.416138,407.69455,270.976074,408.030151C274.582764,409.776459,276.910645,411.864899,277.959747,414.29541C278.463104,413.164856,279.00885,411.781799,279.595276,410.14624L279.679993,409.874207C279.218994,409.105316,278.694427,408.448792,278.106354,407.904694zM290.690643,388.375854C290.201935,388.822205,289.656219,389.108917,289.055084,389.234344C288.468628,389.374451,287.922913,389.270172,287.419556,388.919952C287.642731,390.275299,287.965271,391.469391,288.383942,392.503815C288.691833,393.300415,289.201721,394.088867,289.915222,394.870789C290.446289,395.444214,291.166321,396.079529,292.075317,396.778412L292.096497,396.693695C292.697632,394.683472,292.963135,392.852417,292.893097,391.203857C292.880066,390.268799,292.782318,389.297882,292.599884,388.291138L290.690643,388.375854zM283.601074,408.595398C287.069305,409.602173,290.265472,409.75528,293.18634,409.056427L292.285461,406.207245C289.265228,406.291962,286.831451,405.941711,284.985779,405.15979C284.510101,404.949646,284.125641,404.741119,283.832397,404.530975C283.679291,405.941711,283.601074,407.297058,283.601074,408.595398zM271.498993,381.628387L271.709137,381.691925L272.170166,382.068237L272.694702,382.446167C274.862946,383.954651,277.89621,385.127563,281.79776,385.966492L281.546875,385.002106L281.35791,385.023285C281.077728,385.065643,280.714447,384.925537,280.266449,384.604645L279.302063,383.850403L277.645325,382.446167L277.246216,382.068237L276.28183,381.020752L275.1073,379.46991C274.198303,378.114563,273.548309,376.599548,273.157349,374.923279L271.626068,381.020752L271.498993,381.628387zM302.416443,373.708008C301.422729,372.883728,300.150452,372.144135,298.597961,371.48764C296.794647,372.324982,295.284515,373.302399,294.067627,374.419922C295.102081,374.211395,296.172333,374.385712,297.276825,374.944458C298.325928,375.475525,299.247955,376.250946,300.046173,377.270721C300.842773,378.290497,301.360809,379.359131,301.597015,380.476654C301.864197,381.691925,301.751801,382.77359,301.261444,383.723328L302.688477,383.640228C303.582825,382.648163,303.981934,381.222748,303.884186,379.365662C303.814148,378.122711,303.506256,376.614227,302.960541,374.84021L302.60376,373.771545C302.520691,373.771545,302.457153,373.750366,302.416443,373.708008zM292.871918,375.719879C292.173065,376.669617,291.788605,377.612823,291.718567,378.547882C291.56543,380.238831,292.383209,381.545319,294.173523,382.467346C294.284302,382.369598,294.403198,382.32074,294.530273,382.32074C294.655701,382.32074,294.7388,382.397278,294.781158,382.550415L294.823517,382.760559C295.159088,382.899048,295.690155,383.066833,296.416687,383.262299C297.4935,382.578125,298.234711,381.691925,298.64032,380.602081C299.073669,379.456879,299.045959,378.310059,298.557251,377.164825L298.325928,376.93515C297.584717,376.223236,296.724579,375.719879,295.745544,375.426666C294.628021,375.104095,293.670135,375.203461,292.871918,375.719879zM288.300842,378.800385C288.005981,380.629791,287.342987,382.012848,286.306915,382.947906C285.342529,383.829224,284.055603,384.44986,282.447723,384.813141L282.889191,386.217377C282.929932,386.259735,282.951111,386.308594,282.951111,386.363983C283.524536,387.621613,284.308105,388.305786,285.300171,388.418213L286.559418,388.250397L286.642487,388.208069L285.762817,386.825012C285.650421,386.629517,285.72699,386.427521,285.992523,386.217377C286.244995,386.007233,286.425842,386.007233,286.538239,386.217377C286.888489,386.92926,287.237091,387.453796,287.587341,387.789398C288.103729,388.291138,288.664124,388.480103,289.265228,388.354675L289.936401,388.040253C289.25058,387.634644,288.698334,387.035156,288.279663,386.238556C288.167267,386.028412,288.237305,385.826416,288.48819,385.63092C288.740692,385.420776,288.929657,385.420776,289.055084,385.63092C289.418365,386.315125,289.900574,386.839661,290.501678,387.202942C291.159821,387.621613,291.816315,387.725861,292.474426,387.517334L292.160034,386.049591L292.117676,386.028412C291.306427,385.371918,290.739502,384.821289,290.41861,384.373291C289.872864,383.633728,289.692047,382.899048,289.872864,382.174103C289.970612,381.713104,290.271973,381.307465,290.77536,380.957214L290.754181,380.937683L290.501678,380.098724L290.333893,379.930939C290.195435,379.526917,289.936401,379.219055,289.558472,379.008911C289.19519,378.800385,288.796082,378.730347,288.362762,378.800385L288.300842,378.800385zM285.132385,417.439453C285.397919,417.941193,285.797028,418.395691,286.328094,418.801331L287.922913,419.742889C288.80423,420.218567,289.649689,420.609558,290.460938,420.917419C290.866577,417.675659,292.257782,415.266296,294.634521,413.687775L293.753235,410.879333C291.54425,411.452728,289.775116,412.123901,288.447449,412.891174C286.531708,413.995667,285.357178,415.370575,284.923859,417.019165L285.132385,417.439453zM269.317719,408.448792C266.494598,409.175354,264.283997,409.993134,262.690796,410.900513L262.397583,410.96402L261.516266,411.886047C262.914001,411.899109,264.381744,412.298218,265.921173,413.080139C267.263519,413.751312,268.499939,414.624481,269.633759,415.699646C270.41568,416.453857,271.080322,417.299347,271.626068,418.234406C272.227173,419.254181,272.618134,420.267456,272.800598,421.272552L274.142914,420.09967C273.960449,417.990051,273.457092,415.929321,272.632813,413.919098C271.779175,411.82254,270.674713,409.999634,269.317719,408.448792zM260.760406,412.786926C259.502777,414.435516,258.865845,415.97168,258.852814,417.397095L259.188385,417.103851C259.551666,416.851349,260.061554,416.795959,260.719666,416.936066L262.291687,417.375916C265.66217,418.270264,267.62677,420.190887,268.185547,423.137817C269.5979,422.95697,270.863678,422.523651,271.982819,421.839478C271.687958,420.106171,270.772461,418.402191,269.23465,416.725922C268.157837,415.580719,266.879059,414.637512,265.396637,413.897919C263.75946,413.073639,262.215118,412.703827,260.760406,412.786926zM276.848755,401.052979C272.191345,403.538879,267.941193,405.145111,264.095032,405.871674L263.466217,408.533508L263.277252,409.7276C264.689636,408.988007,266.409882,408.331512,268.438049,407.758087L273.807343,406.417389C275.177368,406.081818,276.526184,405.56543,277.855469,404.866547C279.183136,404.182373,280.393524,403.371094,281.483337,402.436035C281.483337,401.556366,281.266693,400.961761,280.833374,400.65387C279.756561,401.144226,278.441925,401.269653,276.889465,401.031799L276.848755,401.052979zM296.29126,357.614807L296.081116,358.096985C298.109253,361.785126,299.891418,365.284302,301.42923,368.594482L302.898621,371.92749C303.415039,373.19812,303.807617,374.349854,304.073151,375.384308C304.47879,377.005188,304.680786,378.394745,304.680786,379.554626C304.695465,381.160858,304.351715,382.486877,303.652863,383.53598C304.967499,383.340515,306.184387,383.032623,307.303528,382.613953C307.722198,380.098724,307.428955,377.277222,306.422241,374.147858C305.723358,371.98288,304.548828,369.363373,302.898621,366.291016C301.108307,362.966187,299.158356,359.93454,297.04715,357.196136L296.29126,357.614807zM292.285461,382.947906C293.277557,386.525269,293.767883,389.527588,293.753235,391.958099C293.753235,393.17334,293.543091,394.515686,293.12442,395.981812L292.621063,397.930115C292.508636,398.601288,292.529816,399.264313,292.682953,399.920807C292.73996,400.15863,292.627563,400.354126,292.347382,400.507263C292.068817,400.675049,291.901031,400.619659,291.843994,400.341095C291.663177,399.502136,291.656677,398.656677,291.824463,397.804688L291.676208,397.742798L289.433044,395.792847C288.649475,395.010895,288.07605,394.214294,287.712769,393.404663C287.181702,392.217102,286.790741,390.778687,286.538239,389.087738L284.860321,389.297882L284.775635,389.276703C285.070465,390.799835,285.406067,392.063965,285.783997,393.069092C286.287354,394.40979,286.922699,395.535461,287.691589,396.44281L290.083008,399.104675C290.977356,400.15213,291.59314,401.157257,291.928711,402.121643L295.137909,412.158112L295.47348,413.269104C295.683624,413.296814,295.732513,413.458069,295.620117,413.751312L296.773468,417.458984L296.815826,417.56488L298.325928,422.425903C298.408997,422.468262,298.438324,422.56601,298.408997,422.719147L298.619141,423.347961C298.63382,423.417999,298.863495,423.45874,299.311493,423.473389L300.108093,423.452209C300.373627,423.409851,300.619598,423.263245,300.842773,423.01236L300.906311,422.948853C300.318237,420.756165,299.549347,418.249084,298.597961,415.427582C297.703644,412.759216,296.809296,409.874207,295.91333,406.772522L294.865845,403.10556C294.473267,401.667145,294.214233,400.417664,294.088806,399.35553C294.046448,398.936859,294.158844,398.363464,294.424377,397.636902C294.927765,396.226166,295.250305,395.17218,295.388794,394.473328C295.696655,392.839386,295.675476,390.980682,295.326874,388.898773C295.144409,387.810577,294.717621,385.987671,294.046448,383.430084C293.17981,383.011444,292.508636,382.543915,292.032959,382.025879L292.285461,382.947906zM270.954895,384.247864C270.269073,387.488037,269.759186,390.60437,269.423615,393.593628L269.381256,394.808899C269.381256,395.367645,269.332367,395.792847,269.23465,396.08606C269.555542,396.967377,270.82132,397.895935,273.030273,398.873352C276.330719,400.326447,278.875244,400.668549,280.665558,399.899628C281.281342,397.847046,282.050232,396.213135,282.97229,394.997864L283.118896,394.78772L283.79007,394.033478C284.014862,393.810303,284.216858,393.774475,284.399323,393.92923C284.580139,394.082336,284.55896,394.271332,284.335785,394.494507L283.832397,395.038605C284.405823,396.281555,284.811462,397.566864,285.049286,398.894531C286.517059,399.257782,287.887085,399.467926,289.159363,399.523315L288.740692,399.062317L286.684845,396.778412C286.000671,395.884064,285.503815,394.997864,285.195923,394.116577C284.607819,392.497314,284.140289,390.772156,283.79007,388.941132C283.148224,388.57785,282.615509,387.927856,282.196869,386.992798C277.330933,386.056091,273.694946,384.611145,271.290466,382.654663L270.954895,384.247864zM276.806396,358.411377C276.135223,359.445831,275.506409,360.78653,274.918335,362.43512C274.037018,364.991058,273.590668,367.604034,273.576019,370.270752C273.576019,371.277496,273.631409,372.290771,273.743805,373.310547C274.051697,375.851837,275.211548,378.269318,277.225037,380.559753L277.645325,381.020752L278.715607,382.068237L279.134277,382.446167C279.750061,382.962555,280.406555,383.444763,281.105408,383.891113L281.504517,384.143616L281.546875,384.163147C282.413513,384.024689,283.29483,383.780334,284.189178,383.430084C284.958069,383.109192,285.580353,382.669342,286.05603,382.110565C286.48938,381.594177,286.852631,380.908356,287.145874,380.056366C287.356018,379.456879,287.496094,378.771057,287.566162,378.003784L287.566162,377.73175C286.363922,377.35379,285.363708,376.599548,284.567108,375.467377C283.881287,374.46228,283.615753,373.16391,283.76889,371.57074C283.868256,370.523254,284.189178,369.195587,284.734894,367.589355C285.181244,366.220978,285.705811,365.515625,286.306915,365.473267C286.559418,365.458588,286.629456,365.605194,286.517059,365.913086L287.922913,365.494446C286.971558,364.544708,285.992523,363.391357,284.985779,362.03598C284.091431,360.82074,283.433289,359.773254,283.014648,358.893585C282.426544,357.595245,282.2099,356.399536,282.364655,355.309723L282.407013,355.184265C281.608765,355.114227,280.839874,355.233154,280.098663,355.541046C278.854095,356.016724,277.757751,356.972961,276.806396,358.411377z"/>
</svg>
