<?xml version="1.0" encoding="UTF-8"?>
<svg xmlns="http://www.w3.org/2000/svg" xmlns:xlink="http://www.w3.org/1999/xlink" width="62.714mm" height="72.439mm" fill="white" stroke="black" stroke-width="0.5" viewBox="-249.138580 353.099976 62.714111 72.439453">
    <path transform="matrix(-1,0,0,1,0,0)"  d="M226.912506,353.103638L227.009918,353.119995L228.091461,353.372437L228.16568,353.393677L228.237213,353.422241L228.305573,353.45813L228.370026,353.50061L228.429596,353.549438L228.484283,353.604126L228.532867,353.66394L228.542633,353.678833L228.564606,353.670044L228.63858,353.648315L228.714508,353.634155L228.791412,353.627808L228.868561,353.629272L228.944977,353.63855L229.020416,353.65564L229.091949,353.679565L230.450592,354.209106L230.521149,354.240845L232.177643,355.088745L232.214508,355.108765L232.514801,355.284058L232.53775,355.297974L232.806305,355.467651L232.832184,355.484741L233.069489,355.64856L233.101471,355.671997L233.307037,355.8302L233.343658,355.860229L233.517975,356.012573L233.562897,356.055298L233.705475,356.202026L233.757965,356.261841L233.868805,356.40271L233.92691,356.487915L234.006256,356.622925L234.041901,356.691284L234.070465,356.762817L234.091705,356.837036L234.100983,356.889038L234.127838,356.984009L234.144928,357.059204L234.152985,357.117798L234.225494,357.103394L234.302155,357.095581L234.379303,357.095825L234.455963,357.103882L234.531647,357.119507L234.605133,357.142944L234.675934,357.173462L234.743317,357.21106L234.83609,357.279419L236.330475,358.566528L236.386383,358.619751L238.802155,361.169556L238.852203,361.228149L238.896149,361.291626L238.933502,361.359009L238.963776,361.430054L238.986969,361.503784L239.00235,361.579224L239.009918,361.655884L239.009918,361.660522L239.0336,361.665161L239.10733,361.687622L239.178619,361.717407L239.246246,361.754272L239.309967,361.797974L239.368805,361.847778L239.422516,361.903198L239.457428,361.946411L240.180328,362.908569L240.194,362.927368L240.867828,363.883179L240.8815,363.903198L241.506744,364.853149L241.52066,364.874878L242.097321,365.819214L242.134186,365.887085L242.163971,365.95813L242.186188,366.032104L242.20108,366.107788L242.20816,366.184448L242.207672,366.261597L242.203522,366.307495L242.151276,366.74231L242.193024,366.742065L242.269684,366.749146L242.345367,366.764038L242.419098,366.786255L242.490387,366.81604L242.558258,366.852905L242.621979,366.896362L242.680817,366.946167L242.734528,367.001587L242.782379,367.062134L242.823639,367.127075L242.843414,367.164429L243.35318,368.190796L243.364166,368.213501L243.835846,369.248169L243.8461,369.271851L244.279938,370.315308L244.289459,370.339233L244.685455,371.391235L244.694244,371.416382L245.05191,372.476929L245.059967,372.502075L245.379547,373.571167L245.386871,373.596802L245.668365,374.674438L245.674713,374.700562L245.917877,375.786743L245.930817,375.862915L245.936188,375.939819L245.933502,376.016724L245.923248,376.093384L245.905182,376.168335L245.879791,376.241089L245.861969,376.279175L245.893219,376.309448L245.94278,376.368774L245.985992,376.432495L246.022614,376.500366L246.052155,376.571655L246.074371,376.64563L246.082916,376.684448L246.245026,377.532593L246.251373,377.572144L246.341461,378.229126L246.343658,378.245239L246.41861,378.894897L246.420319,378.911255L246.480377,379.553589L246.481598,379.570923L246.52652,380.205933L246.52774,380.223267L246.55777,380.851196L246.558258,380.869263L246.573151,381.489868L246.573395,381.508423L246.573151,382.121704L246.572906,382.140503L246.55777,382.746948L246.55191,382.823853L246.538483,382.89978L246.517242,382.973999L246.488678,383.045532L246.453033,383.113892L246.410553,383.178345L246.365875,383.233521L246.371002,383.240845L246.408844,383.307983L246.439606,383.378784L246.463043,383.452271L246.478912,383.52771L246.487213,383.60437L246.487701,383.681519L246.484772,383.721558L246.430084,384.280884L246.427399,384.30481L246.355621,384.857788L246.351959,384.882202L246.262848,385.428833L246.258453,385.453735L246.152008,385.993774L246.146881,386.018188L246.023346,386.55188L246.016998,386.576782L245.876129,387.103882L245.869293,387.128296L245.711334,387.649048L245.703278,387.673706L245.527985,388.187866L245.516998,388.21814L245.079742,389.34314L245.048248,389.413452L245.009674,389.480347L244.964752,389.542847L244.913483,389.600708L244.856842,389.652954L244.795074,389.699097L244.728912,389.738892L244.659332,389.771851L244.586578,389.797485L244.511627,389.815552L244.441071,389.825562L244.468658,389.865845L244.50528,389.933716L244.534821,390.005005L244.557281,390.078735L244.57193,390.154419L244.57901,390.231323L244.578033,390.308472L244.569489,390.385132L244.553131,390.460327L244.529449,390.533813L244.484283,390.630737L244.289215,390.983276L244.277252,391.004272L244.078278,391.338501L244.064606,391.360718L243.861237,391.677124L243.845856,391.700073L243.63858,391.998169L243.621002,392.022339L243.409576,392.302368L243.390289,392.326782L243.174957,392.588989L243.152252,392.615356L242.932526,392.859253L242.907867,392.885376L242.684235,393.111206L242.656158,393.138062L242.428375,393.345825L242.396881,393.372925L242.164948,393.562378L242.131012,393.588745L241.894928,393.760376L241.856842,393.786255L241.616608,393.939575L241.57608,393.963745L241.33194,394.098999L241.287018,394.121948L241.038483,394.238892L240.991852,394.258911L240.73941,394.357788L240.690582,394.375122L240.43399,394.455933L240.359283,394.475464L240.283112,394.487183L240.205963,394.491089L240.129059,394.487427L240.052643,394.475708L239.977936,394.456421L239.90567,394.42981L239.836334,394.396118L239.802155,394.374878L239.765533,394.417114L239.709381,394.469849L239.648346,394.516968L239.582672,394.557495L239.513092,394.590942L239.440826,394.617554L239.366119,394.636597L239.289703,394.647827L239.229889,394.651489L238.876129,394.658081L238.830963,394.657593L238.484039,394.643433L238.437897,394.640015L238.097321,394.605347L238.049225,394.598999L237.71524,394.543335L237.667877,394.533813L237.340485,394.457642L237.292389,394.444702L236.971344,394.347534L236.924225,394.331665L236.610016,394.213745L236.56485,394.19519L236.256989,394.056519L236.20108,394.028442L235.863922,393.841919L235.802155,393.803833L235.504547,393.599976L235.439362,393.549927L235.181549,393.328979L235.115387,393.265015L234.897125,393.026733L234.835114,392.949341L234.656158,392.69397L234.601471,392.603149L234.462311,392.330444L234.420319,392.231567L234.320709,391.941528L234.29361,391.84021L234.233551,391.533081L234.223297,391.463501L234.183258,391.067261L234.179352,391.000854L234.173737,390.582642L234.175446,390.522583L234.204254,390.082153L234.209625,390.028442L234.273102,389.565796L234.280914,389.518677L234.378571,389.034058L234.388336,388.99231L234.52066,388.485474L234.531158,388.448853L234.697906,387.919556L234.708893,387.887329L234.910065,387.33606L234.948151,387.248901L235.385162,386.399048L235.423981,386.332153L235.469147,386.269897L235.520416,386.21228L235.529205,386.204224L235.494049,386.141235L235.463531,386.070435L235.440338,385.996704L235.424713,385.921265L235.417389,385.85144L235.360016,384.910522L235.256744,384.013062L235.106842,383.143921L234.906158,382.280396L234.892487,382.204468L234.886627,382.127563L234.88858,382.050415L234.898102,381.973999L234.91568,381.898804L234.940582,381.825806L234.972565,381.755737L235.011627,381.689087L235.057281,381.626831L235.108795,381.569702L235.166168,381.517944L235.22818,381.472046L235.282867,381.439819L235.245758,381.413452L235.212067,381.388062L234.74649,381.016479L234.726715,381.006714L234.661285,380.965942L234.60025,380.918579L234.544342,380.865601L234.494049,380.807007L234.450104,380.743774L234.399323,380.648071L233.709625,379.085815L233.682037,379.01355L233.662018,378.939087L233.649323,378.863159L233.644684,378.786011L233.646881,378.7323L233.611481,378.715698L233.545319,378.676147L233.483551,378.630005L233.426666,378.578003L233.375397,378.520386L233.324615,378.449341L233.100494,378.093628L232.874664,377.767944L232.635895,377.453247L232.379547,377.144897L232.115631,376.854614L231.836578,376.572876L231.58609,376.341187L231.693024,377.72937L231.737946,378.267212L231.793365,378.835815L231.859283,379.436401L231.859528,379.436401L231.937164,380.080688L232.024567,380.749146L232.123199,381.455933L232.233307,382.203247L232.353668,382.978394L232.361725,383.055054L232.361725,383.132202L232.354156,383.208862L232.338776,383.284546L232.316071,383.358276L232.285797,383.429077L232.265289,383.466187L232.289703,383.489136L232.339996,383.547485L232.384186,383.610718L232.421783,383.678101L232.452301,383.748901L232.475494,383.822632L232.48941,383.886841L233.571198,390.224243L233.580231,390.300903L233.581451,390.377808L233.575104,390.454712L233.560944,390.53064L233.538971,390.604614L233.509918,390.675903L233.475983,390.73938L233.48526,390.746704L233.540436,390.800659L233.589752,390.859985L233.632965,390.92395L233.669342,390.991821L233.698639,391.06311L233.720612,391.137085L233.735748,391.219116L234.542145,397.443481L234.548248,397.520386L234.546539,397.597534L234.537018,397.67395L234.519684,397.749146L234.494781,397.822144L234.462799,397.892456L234.423981,397.959106L234.41568,397.970337L234.454254,398.004028L234.506744,398.060425L234.553375,398.121948L234.593658,398.187622L234.627106,398.257202L234.653229,398.329712L234.672028,398.404663L234.681793,398.469116L235.164215,402.901245L235.16861,402.978394L235.165192,403.055298L235.154205,403.131714L235.135406,403.206421L235.109039,403.278931L235.075592,403.348511L235.035309,403.414185L235.005768,403.453003L235.059235,403.501099L235.110992,403.558228L235.156891,403.620239L235.196198,403.686646L235.228424,403.756714L235.253571,403.829712L235.271149,403.904663L235.279694,403.964966L235.509674,406.260132L235.513336,406.337036L235.50943,406.414185L235.506989,406.42981L238.659332,406.702026L238.735748,406.712524L238.810699,406.730835L238.883453,406.75647L238.953278,406.789429L239.01944,406.829224L239.081207,406.875366L239.137848,406.927612L239.189117,406.985474L239.234039,407.047974L239.272614,407.114868L239.304108,407.185181L239.328278,407.258423L239.345123,407.333618L239.348541,407.363403L239.377594,407.356812L239.43985,407.345093L239.990143,407.266235L240.056305,407.259888L240.486969,407.236206L240.632965,407.182739L240.706696,407.15979L240.782379,407.144653L240.859039,407.137085L240.936188,407.137329L241.012848,407.14563L241.104401,407.165649L241.426666,407.257935L241.499664,407.283081L241.569733,407.315308L241.636383,407.35437L241.698395,407.400024L241.755768,407.451782L241.807281,407.508911L241.85318,407.571167L241.892242,407.637573L241.914948,407.687134L242.020905,407.632935L242.091217,407.60144L242.164459,407.577026L242.239655,407.560181L242.316315,407.550903L242.393463,407.549683L242.470123,407.55603L242.546051,407.57019L242.583405,407.5802L242.743561,407.627319L242.808502,407.649536L245.131989,408.567261L245.202057,408.599243L245.268707,408.638062L245.330963,408.683472L245.38858,408.734985L245.440582,408.79187L245.486481,408.853882L245.525787,408.920288L245.558258,408.990112L245.583649,409.06311L245.592682,409.101196L245.628326,409.09021L245.703766,409.074829L245.78067,409.067017L245.857819,409.067017L245.934479,409.074829L246.009918,409.090454L246.083649,409.113403L246.154449,409.143921L246.243317,409.19519L246.550446,409.401245L246.584137,409.425171L246.872467,409.642212L246.90567,409.668823L247.175201,409.896362L247.208893,409.926636L247.459625,410.165161L247.492096,410.197876L247.72403,410.446899L247.755768,410.483032L247.968903,410.743042L247.997955,410.781128L248.19278,411.05188L248.220367,411.092896L248.396393,411.37439L248.42984,411.433716L248.675934,411.918823L248.709137,411.993774L248.894684,412.483765L248.920807,412.566772L249.046051,413.06189L249.062897,413.150513L249.127838,413.650513L249.134186,413.742065L249.13858,414.246948L249.134186,414.336548L249.078278,414.846313L249.063873,414.931519L248.947418,415.446411L248.92569,415.523804L248.748688,416.043579L248.721588,416.111938L248.512848,416.573608L248.485016,416.628784L248.239166,417.072632L248.207184,417.12561L247.923737,417.551636L247.888092,417.600464L247.567291,418.008423L247.529938,418.052612L247.172028,418.442749L247.132721,418.482544L246.737213,418.854858L246.697418,418.889771L246.264557,419.243774L246.22525,419.273804L245.755035,419.609985L245.703278,419.643921L244.7836,420.194214L244.715485,420.230591L244.643951,420.259644L244.569977,420.281372L244.494049,420.295532L244.417389,420.30188L244.34024,420.300659L244.26358,420.291382L244.188385,420.274536L244.126129,420.254517L243.841705,420.14856L243.842438,420.180786L243.836823,420.25769L243.823151,420.333618L243.802155,420.407837L243.77359,420.47937L243.737946,420.547974L243.695465,420.612427L243.646881,420.672241L243.592438,420.726685L243.532867,420.775757L243.468414,420.818237L243.400055,420.854126L243.360748,420.870972L242.860748,421.068481L242.833405,421.078491L242.322418,421.258179L242.295319,421.267212L241.773834,421.428833L241.746979,421.436646L241.214508,421.580444L241.187653,421.58728L240.64444,421.713013L240.618317,421.718628L240.064362,421.826538L240.038239,421.830933L239.473541,421.920776L239.448639,421.924438L238.873199,421.99646L238.796295,422.002075L238.719147,422.000122L238.642487,421.990112L238.567535,421.972534L238.494537,421.947388L238.424469,421.915161L238.358063,421.875854L238.337555,421.860718L238.328033,421.87146L238.27066,421.923218L238.208405,421.968872L238.141998,422.007935L238.07193,422.040161L237.998932,422.065308L237.923737,422.082642L237.829498,422.093628L236.977692,422.138794L236.900543,422.139038L236.823883,422.131226L236.748199,422.115845L236.674713,422.09314L236.603668,422.062866L236.536041,422.025513L236.472809,421.981812L236.413971,421.931519L236.4086,421.925903L236.361725,421.971802L236.301666,422.020142L236.236725,422.062134L236.168121,422.09729L236.096344,422.125122L236.021881,422.145874L235.945953,422.158813L235.832672,422.16394L234.268707,422.116821L234.222565,422.113892L230.954987,421.816284L230.878571,421.805542L230.803619,421.786987L230.73111,421.760864L230.66153,421.727661L230.595612,421.687622L230.534088,421.640991L230.477692,421.588501L230.460114,421.568481L230.448395,421.575317L230.377838,421.606567L230.304596,421.630493L230.229401,421.647095L230.15274,421.655884L230.075592,421.65686L229.998688,421.650024L229.954742,421.642456L229.236969,421.498657L229.206451,421.492065L228.514801,421.323853L228.483307,421.315308L227.817291,421.122681L227.783844,421.112183L227.143951,420.894897L227.110016,420.882446L226.496002,420.640747L226.460846,420.626099L225.872711,420.359985L225.837067,420.342651L225.274567,420.05188L225.238678,420.03186L224.702301,419.716919L224.66983,419.696899L224.267242,419.432495L224.225739,419.403198L223.846344,419.116089L223.805817,419.08313L223.449615,418.773071L223.41153,418.737671L223.077789,418.404419L223.026031,418.347046L222.980133,418.285034L222.941071,418.218628L222.908844,418.14856L222.883698,418.075562L222.866119,418.000366L222.856354,417.92395L222.854401,417.846802L222.860016,417.769897L222.865143,417.74353L222.862457,417.743286L222.787262,417.726196L222.71402,417.701538L222.643951,417.669556L222.577301,417.630493L222.515045,417.585083L222.457428,417.533569L222.40567,417.476685L222.359772,417.414673L222.332916,417.371216L222.067291,416.907104L222.039948,416.855103L221.794342,416.336792L221.774078,416.289673L221.548492,415.716919L221.533356,415.674683L221.328033,415.047485L221.320221,415.022827L220.860504,413.43811L220.842926,413.362915L220.832916,413.286499L220.830719,413.209351L220.83609,413.132446L220.849518,413.056519L220.877838,412.961304L220.916901,412.855835L220.992096,412.318481L220.998932,412.277222L221.05191,412.00769L221.021881,412.004761L220.946442,411.989868L220.872711,411.967163L220.801422,411.937134L220.733795,411.900269L220.670319,411.856567L220.611237,411.806763L220.55777,411.751343L220.510162,411.690552L220.468903,411.625366L220.434479,411.556519L220.407135,411.484253L220.383698,411.3927L219.761871,408.108032L219.761627,408.106079L219.714508,407.853638L219.704254,407.777222L219.701569,407.700073L219.70694,407.623169L219.719879,407.546997L219.740631,407.472778L219.768707,407.401001L219.803864,407.332153L219.805573,407.329468L219.800446,407.325073L219.747223,407.268921L219.700104,407.207886L219.659332,407.142456L219.625641,407.07312L219.598785,407.000854L219.579498,406.926147L219.572174,406.883423L219.042633,403.254028L219.035309,403.177124L219.035797,403.099976L219.044098,403.023315L219.060211,402.947876L219.083893,402.87439L219.12735,402.779419L219.400787,402.277466L219.443024,402.209106L219.680328,401.865601L219.646881,401.839722L219.590973,401.786499L219.540924,401.727905L219.496735,401.664673L219.459137,401.59729L219.428864,401.526489L219.424957,401.513794L219.37442,401.507935L219.299225,401.491577L219.225739,401.467651L219.155182,401.436401L219.088287,401.398315L219.025543,401.353394L218.967438,401.302612L218.914948,401.245972L218.868561,401.184448L218.828278,401.11853L218.795074,401.04895L218.769196,400.97644L218.750641,400.901489L218.739899,400.825317L218.734772,400.769165L218.682037,401.055054L218.664215,401.130249L218.638824,401.203003L218.606354,401.273071L218.566803,401.339233L218.520905,401.401245L218.468903,401.45813L218.411285,401.509644L218.372955,401.536499L218.38736,401.556274L218.426422,401.622925L218.458405,401.692993L218.483063,401.766235L218.500397,401.841431L218.509918,401.917847L218.511627,401.994995L218.505524,402.071899L218.494049,402.137817L217.572662,406.317505L217.552155,406.391968L217.524567,406.463745L217.48941,406.532593L217.447906,406.597534L217.399811,406.657837L217.345856,406.713013L217.28653,406.762329L217.222809,406.805542L217.154694,406.842163L217.145905,406.845825L217.179108,406.888794L217.219879,406.954224L217.253815,407.023315L217.280426,407.095825L217.299713,407.170532L217.311432,407.246704L217.315338,407.323608L217.311432,407.400757L217.292145,407.510132L217.036285,408.52356L217.033356,408.535034L216.771637,409.508179L216.768219,409.520142L216.500641,410.453247L216.496735,410.466675L216.039948,411.956665L216.01358,412.029175L215.980133,412.098511L215.93985,412.164429L215.892975,412.225708L215.84024,412.28186L215.782135,412.332642L215.719147,412.377075L215.652008,412.414917L215.581207,412.445923L215.541901,412.458618L215.581696,412.513794L215.62027,412.580688L215.652008,412.651001L215.676422,412.724243L215.693024,412.799438L215.702301,412.876099L215.703522,412.953003L215.697174,413.029907L215.683014,413.105835L215.670563,413.151245L215.463531,413.826294L215.460846,413.835083L215.253815,414.482056L215.250641,414.491577L215.04361,415.110474L215.040192,415.120728L214.83316,415.711548L214.82901,415.722778L214.621979,416.285522L214.617584,416.297485L214.410553,416.832397L214.405182,416.845337L214.198151,417.352173L214.192291,417.366333L213.98526,417.845337L213.95108,417.914673L213.910065,417.979858L213.862701,418.040894L213.809479,418.096558L213.750885,418.146606L213.687408,418.190552L213.620026,418.227905L213.548981,418.258179L213.475494,418.281128L213.399811,418.296509L213.323151,418.304077L213.276276,418.304077L213.324371,418.433716L213.359772,418.492554L213.392731,418.562134L213.41861,418.634888L213.43692,418.709839L213.447418,418.786255L213.450348,418.863403L213.445221,418.940308L213.432526,419.016235L213.412262,419.090698L213.38443,419.16272L213.358551,419.215454L213.097321,419.69812L213.086823,419.716919L212.820465,420.177368L212.808502,420.197144L212.537018,420.635132L212.523834,420.65564L212.247467,421.071411L212.232574,421.09314L211.95108,421.48645L211.934967,421.508179L211.64859,421.879517L211.630035,421.902466L211.338531,422.251587L211.318024,422.275024L211.021637,422.601929L210.966949,422.656372L210.907135,422.7052L210.842682,422.747437L210.774323,422.783081L210.702545,422.811646L210.628571,422.832642L210.552643,422.846313L210.475739,422.851929L210.39859,422.849976L210.364899,422.845581L210.36734,422.887573L210.364166,422.964722L210.35318,423.041138L210.334625,423.115845L210.308502,423.188599L210.275299,423.258179L210.235016,423.323853L210.188629,423.385376L210.135895,423.441772L210.063873,423.50354L209.586578,423.863159L209.540192,423.895386L209.039948,424.217163L208.990875,424.246216L208.467194,424.529907L208.416901,424.55481L207.870514,424.800659L207.818512,424.821899L207.248932,425.029419L207.197906,425.046021L206.605133,425.215698L206.554352,425.228149L205.938629,425.359497L205.889801,425.368286L205.251129,425.461548L205.174225,425.468872L205.097321,425.468384L205.020416,425.460083L204.944977,425.44397L204.871735,425.420532L204.800934,425.389526L204.733795,425.351685L204.670807,425.307251L204.612457,425.256714L204.559723,425.200317L204.545074,425.180054L204.522369,425.216187L204.474762,425.276978L204.421295,425.332642L204.362457,425.382446L204.298981,425.426147L204.231354,425.463257L204.160309,425.493286L204.086578,425.515991L204.010895,425.531128L203.934235,425.538696L203.884918,425.539429L203.442535,425.531128L203.414459,425.529907L202.973785,425.505249L202.944977,425.503052L202.505768,425.461792L202.477692,425.458618L202.039948,425.401001L202.011627,425.396851L201.575104,425.322632L201.547516,425.317505L201.112457,425.226929L201.084869,425.220581L200.651276,425.113403L200.623932,425.106079L200.191559,424.982056L200.17569,424.977417L199.634186,424.809204L199.613434,424.802368L199.080963,424.619995L199.059723,424.612183L198.537018,424.415649L198.515533,424.407349L198.001862,424.196411L197.980865,424.187378L197.476471,423.96228L197.455231,423.952515L196.960114,423.713013L196.938873,423.702271L196.453033,423.448364L196.432281,423.437134L195.955719,423.168823L195.927399,423.152222L195.35733,422.798218L195.327545,422.778687L194.802155,422.417358L194.77066,422.394409L194.289948,422.026245L194.2565,421.999146L193.819977,421.623901L193.784576,421.591187L193.392731,421.208618L193.35611,421.170288L193.008942,420.78064L192.972076,420.736206L192.669098,420.339233L192.632721,420.286987L192.37442,419.88269L192.33609,419.815796L192.305084,419.745239L192.281158,419.671997L192.264557,419.596558L192.256012,419.519897L192.255035,419.442749L192.262115,419.365845L192.276764,419.290161L192.280182,419.278687L192.278473,419.277954L192.211823,419.23938L192.149323,419.194214L192.091705,419.142944L192.039459,419.08606L191.993317,419.024048L191.953766,418.957886L191.921051,418.888062L191.889313,418.793091L191.776276,418.360962L191.759186,418.275513L191.697418,417.841431L191.690094,417.752319L191.679596,417.316284L191.682526,417.227905L191.723053,416.789673L191.735748,416.704468L191.827301,416.264282L191.848053,416.185913L191.990631,415.74353L192.017242,415.672974L192.210846,415.228394L192.241119,415.16687L192.485748,414.719849L192.517975,414.666382L192.841949,414.174683L192.871979,414.131958L193.244781,413.6427L193.274811,413.605835L193.696198,413.119019L193.725739,413.086792L194.196198,412.602417L194.252594,412.549927L194.314117,412.503296L194.380035,412.463257L194.45108,412.429565L194.756256,412.303101L194.795074,412.288208L195.10733,412.178345L195.146393,412.165649L195.465973,412.072144L195.504547,412.062134L195.830963,411.984985L195.861481,411.978638L195.845367,411.928345L195.829498,411.852905L195.821198,411.776245L195.820709,411.699097L195.828033,411.622192L195.84317,411.546509L195.865875,411.472778L195.895905,411.401733L195.93277,411.334106L195.992828,411.250122L196.148346,411.060669L196.225006,410.911499L196.319977,410.663208L196.415436,410.338257L196.503326,409.953979L196.75235,408.483521L196.768951,408.408325L196.793121,408.335083L196.824615,408.264526L196.86319,408.197632L196.908112,408.135132L196.959381,408.077271L197.016022,408.025024L197.040436,408.006714L197.012848,407.951782L196.985504,407.879761L196.965729,407.805054L196.953278,407.729126L196.948883,407.651978L196.952057,407.574829L196.966705,407.481567L197.610992,404.564331L197.6315,404.489868L197.659332,404.418091L197.694244,404.349243L197.735992,404.284302L197.784088,404.223999L197.838043,404.168823L197.897369,404.119507L197.898834,404.11853L197.895905,404.113647L197.861725,404.044556L197.834625,403.972534L197.81485,403.897827L197.802887,403.821655L197.798737,403.744507L197.802399,403.667603L197.815826,403.581177L199.104645,397.586792L199.124664,397.512329L199.152008,397.440308L199.186676,397.371216L199.227936,397.306274L199.275787,397.245483L199.329254,397.190063L199.388336,397.140503L199.452057,397.096802L199.519684,397.059937L199.590729,397.030151L199.664703,397.00769L199.740387,396.992798L199.74527,396.99231L199.731842,396.970093L199.707428,396.926636L199.517487,396.55896L199.485504,396.488647L199.46109,396.415405L199.443756,396.34021L199.434479,396.263794L199.432526,396.209106L199.432526,396.186646L199.436432,396.109497L199.452301,396.01355L200.85611,389.99646L200.877594,389.922241L200.906158,389.850708L200.942047,389.782349L200.984528,389.717896L201.033356,389.658325L201.087799,389.603882L201.147614,389.555054L201.212067,389.512573L201.280426,389.476929L201.283356,389.475708L201.252106,389.435669L201.210846,389.370483L201.176666,389.301392L201.149567,389.229126L201.129791,389.154419L201.117584,389.078247L201.113434,389.001343L201.116852,388.924194L201.128082,388.848022L201.140045,388.797485L202.152008,385.077515L202.176178,385.004028L202.207428,384.933716L202.245514,384.866577L202.290436,384.803833L202.341461,384.745972L202.397858,384.693481L202.459381,384.647095L202.525299,384.607056L202.594879,384.573853L202.667633,384.547729L202.742584,384.529419L202.818756,384.518433L202.840973,384.5177L202.839752,384.50769L202.837799,384.430786L202.843658,384.353882L202.85733,384.277954L202.878571,384.203735L202.907135,384.132202L202.94278,384.063843L202.98526,383.99939L203.034088,383.939575L203.052399,383.921265L203.017731,383.899048L202.957428,383.850952L202.902252,383.796997L202.852936,383.737671L202.809723,383.673706L202.773346,383.605835L202.743805,383.534546L202.721832,383.460571L202.707428,383.384888L202.700592,383.307983L202.701569,383.230835L202.710602,383.154175L202.734772,383.052368L203.309479,381.21521L203.336334,381.142944L203.37027,381.073608L203.410797,381.008179L203.457916,380.947144L203.511139,380.890991L203.569489,380.840698L203.632721,380.796753L203.700104,380.759155L203.771149,380.728638L203.809967,380.716431L203.772125,380.658569L203.736237,380.59021L203.707672,380.518677L203.686432,380.444458L203.673004,380.36853L203.667145,380.291626L203.669098,380.214478L203.678864,380.138062L203.696198,380.062866L203.714752,380.00647L205.186432,376.05481L205.202545,376.017456L205.007233,376.188599L204.395905,376.770142L203.801178,377.38147L203.198639,378.048706L203.143951,378.103149L203.084381,378.151978L203.019928,378.194458L202.951569,378.230103L202.880035,378.258911L202.830475,378.274048L202.584625,378.339966L202.498199,378.390747L202.470856,378.406128L202.277252,378.509399L202.253082,378.521606L202.065094,378.613403L202.094879,378.666138L202.125885,378.736694L202.149567,378.810181L202.165924,378.88562L202.174469,378.96228L202.175201,379.039429L202.168121,379.116089L202.153229,379.191772L202.130768,379.265747L202.100983,379.336792L202.064362,379.404663L202.039215,379.442993L199.945465,382.452515L199.898346,382.51355L199.845123,382.569458L199.786774,382.619751L199.723297,382.66394L199.655914,382.701294L199.585114,382.731812L199.511627,382.755005L199.435944,382.77063L199.409332,382.773315L199.414948,382.786255L199.437897,382.859741L199.453522,382.935425L199.46109,383.012085L199.46109,383.089233L199.453278,383.165894L199.437653,383.241577L199.414459,383.315063L199.370514,383.412231L197.952789,386.03772L197.54361,386.874878L197.506256,386.942261L197.462311,387.005737L197.412262,387.064331L197.356354,387.117554L197.295563,387.164917L197.230133,387.205688L197.160797,387.239868L197.148346,387.244507L197.18692,387.309204L197.219635,387.379272L197.240875,387.43811L197.276031,387.550171L197.318268,387.654907L197.381989,387.789673L197.465729,387.947144L197.572174,388.129517L197.694,388.323853L197.842194,388.546265L198.012848,388.790161L198.053864,388.855347L198.072174,388.890259L198.254303,389.259888L198.257721,389.267456L198.425934,389.618286L198.430573,389.627808L198.584381,389.960327L198.588776,389.970093L198.728424,390.283569L198.734039,390.296509L198.859039,390.591675L198.864899,390.605591L198.975494,390.881958L198.981842,390.898804L199.078033,391.156616L199.085358,391.17688L199.166901,391.415894L199.175446,391.442749L199.382721,392.132446L199.401031,392.206665L199.430328,392.357788L199.437164,392.39856L199.455475,392.531128L199.460846,392.583374L199.468658,392.697388L199.469879,392.77478L199.466705,392.869995L199.454987,392.980347L199.441071,393.057251L199.423492,393.132202L199.392242,393.220337L199.367584,393.278198L199.333893,393.347534L199.293121,393.412964L199.234528,393.487671L199.199127,393.527222L199.144684,393.581909L199.085114,393.630981L199.020905,393.673706L198.940826,393.71521L198.894684,393.735718L198.822662,393.76355L198.748199,393.783813L198.672028,393.796509L198.602692,393.801147L197.613434,393.823853L197.536285,393.821899L197.476715,393.814819L196.829254,393.71228L196.784576,393.703735L196.108795,393.555054L196.069,393.545288L195.364655,393.349976L195.330231,393.339478L195.010895,393.234497L195.133942,393.485718L195.143219,393.505493L195.373688,394.012085L195.383453,394.034058L195.585602,394.518677L195.595612,394.544312L195.769196,395.006714L195.779449,395.035522L195.924957,395.475952L195.935211,395.509644L196.052155,395.927856L196.06192,395.967407L196.150299,396.363647L196.158844,396.408325L196.219147,396.782593L196.225983,396.835327L196.257721,397.187134L196.260651,397.248169L196.263824,397.578247L196.261383,397.647095L196.236481,397.954956L196.225983,398.033569L196.172516,398.319214L196.151031,398.405151L196.069,398.669067L196.034821,398.758911L195.924713,399.00061L195.875641,399.091675L195.736969,399.311157L195.674225,399.396606L195.506989,399.594116L195.442291,399.661743L195.243073,399.845581L195.154205,399.916138L194.935455,400.064575L194.869293,400.104614L194.834381,400.122192L194.596344,400.235229L194.489899,400.276489L194.232086,400.35437L194.127594,400.378052L193.85025,400.420776L193.753082,400.429321L193.456696,400.436646L193.371002,400.43396L193.055084,400.406128L192.981354,400.395874L192.646149,400.332886L192.585602,400.31897L192.306549,400.242554L192.264069,400.229614L191.990631,400.137329L191.947906,400.12146L191.680573,400.013062L191.640533,399.995483L191.378815,399.87146L191.339752,399.851685L191.083893,399.711792L191.047272,399.690308L190.797028,399.53479L190.761871,399.511597L190.517242,399.34021L190.484283,399.315796L190.245514,399.12854L190.221832,399.109253L189.750397,398.70813L189.714508,398.675415L189.278473,398.25354L189.243561,398.217407L188.842926,397.775024L188.809235,397.735474L188.443756,397.272095L188.41275,397.229614L188.082428,396.745483L188.053864,396.700562L187.758942,396.195923L187.733795,396.149292L187.473785,395.623657L187.452057,395.575562L187.227448,395.029175L187.201813,394.956421L187.183746,394.88147L187.173004,394.805054L187.170319,394.727905L187.175446,394.651001L187.188141,394.574829L187.208649,394.50061L187.236481,394.428589L187.271637,394.359741L187.313385,394.295044L187.347076,394.252808L187.318756,394.243042L187.246979,394.214478L187.178619,394.178833L187.114166,394.136353L187.054352,394.087769L186.999908,394.033081L186.95108,393.973511L186.9086,393.909058L186.872711,393.840698L186.844147,393.769165L186.820709,393.686157L186.719147,393.226196L186.713043,393.194702L186.62735,392.710327L186.622711,392.68103L186.552887,392.172241L186.549713,392.145386L186.495758,391.612427L186.493561,391.588013L186.455231,391.03064L186.45401,391.00769L186.431549,390.425903L186.431061,390.404907L186.424469,389.798462L186.424469,389.779175L186.433502,389.14856L186.434967,389.11145L186.504791,388.008911L186.51358,387.932251L186.529938,387.856812L186.554108,387.783569L186.585358,387.713013L186.623688,387.646118L186.668365,387.583374L186.719391,387.525513L186.775787,387.473022L186.837555,387.426392L186.903473,387.386353L186.973053,387.353394L187.045563,387.327271L187.120514,387.30896L187.19693,387.297974L187.274078,387.295044L187.350983,387.299927L187.427155,387.312378L187.501617,387.332642L187.573639,387.360229L187.642487,387.394897L187.707428,387.436401L187.767975,387.484253L187.819244,387.534058L187.843903,387.496216L187.891998,387.436157L187.946198,387.380981L187.989166,387.345337L187.860992,387.271118L187.794342,387.227905L187.397858,386.939819L187.338287,386.891724L186.964996,386.558228L186.910065,386.503784L186.860992,386.444458L186.818268,386.380249L186.782135,386.312134L186.753082,386.240601L186.731354,386.166626L186.717194,386.090698L186.710846,386.013794L186.712311,385.936646L186.716217,385.897095L186.822418,385.031616L186.825348,385.010864L186.960602,384.113892L186.963531,384.095093L187.12735,383.166138L187.130524,383.149048L187.322662,382.188354L187.341705,382.113647L187.368073,382.041138L187.401764,381.971558L187.442047,381.905884L187.488922,381.844604L187.541901,381.788452L187.600006,381.737915L187.662994,381.693481L187.730377,381.65564L187.800934,381.624878L187.831696,381.615112L187.823639,381.606812L187.772614,381.548706L187.727936,381.485962L187.689606,381.419067L187.658356,381.348511L187.634186,381.275269L187.617828,381.199829L187.609039,381.123169L187.608063,381.046265L187.614899,380.96936L187.629547,380.893188L187.90274,379.781128L187.906647,379.766235L188.197174,378.679565L188.201324,378.66394L188.509186,377.602905L188.514069,377.587036L188.83902,376.552368L188.865875,376.480103L188.899811,376.410767L188.940582,376.345337L188.987946,376.284302L189.040924,376.228394L189.099518,376.178101L189.16275,376.134155L189.230377,376.096558L189.301178,376.066284L189.324615,376.05896L189.322906,376.056763L189.283356,375.990601L189.250641,375.920776L189.22525,375.848022L189.207184,375.773071L189.19693,375.696411L189.194244,375.619507L189.199615,375.542603L189.212555,375.466431L189.233307,375.392212L189.246979,375.354126L190.835602,371.31189L190.851471,371.274536L191.448883,369.964966L191.484528,369.896362L191.526764,369.831909L191.575348,369.771851L191.629791,369.717163L191.689362,369.668335L191.753571,369.62561L191.82193,369.589722L191.893463,369.560913L191.928131,369.550903L191.912018,369.513306L191.889069,369.439575L191.873444,369.364136L191.865631,369.287476L191.865631,369.210327L191.873444,369.133423L191.888824,369.057983L191.911774,368.984253L191.945953,368.906128L192.498932,367.806519L192.50943,367.786255L193.088531,366.715454L193.099762,366.69519L193.704987,365.653198L193.717438,365.63269L194.348785,364.620239L194.392731,364.557007L194.443024,364.498657L194.498932,364.445435L194.559967,364.398071L194.625397,364.3573L194.694489,364.323364L194.766998,364.296509L194.841461,364.277222L194.917877,364.265503L194.994781,364.261597L195.07193,364.265503L195.148102,364.276978L195.174225,364.283813L195.17569,364.2323L195.175934,364.222778L195.200592,363.591675L195.207672,363.514771L195.222076,363.439087L195.244293,363.365356L195.274078,363.294067L195.310699,363.226196L195.354645,363.161255L195.852448,362.504272L195.865387,362.487671L196.369537,361.859253L196.383942,361.842163L196.894684,361.24231L196.910065,361.224487L197.427399,360.653442L197.443756,360.636108L197.967438,360.093384L197.985504,360.075317L198.515778,359.561401L198.535065,359.543335L199.07193,359.057983L199.092926,359.039673L199.636627,358.58313L199.698151,358.536499L199.764069,358.49646L199.833649,358.463257L199.906158,358.437134L199.98111,358.418579L200.057526,358.407837L200.13443,358.404663L200.211578,358.409302L200.286041,358.421509L200.287506,358.384399L200.298492,358.307983L200.317047,358.233276L200.34317,358.160522L200.376373,358.090942L200.416656,358.025024L200.463287,357.963745L200.515778,357.907349L200.573883,357.856323L200.622223,357.821167L202.301178,356.696167L202.36734,356.656616L202.437164,356.623901L202.509918,356.598267L202.584869,356.5802L202.661285,356.569946L202.738434,356.567261L202.815338,356.572632L202.891266,356.585571L202.89859,356.587524L202.90152,356.577026L202.930084,356.505493L202.965973,356.437134L203.008453,356.372681L203.057281,356.312866L203.111969,356.258423L203.171783,356.209839L203.236237,356.167358L203.304596,356.131714L203.376129,356.103149L203.397125,356.097046L203.662994,355.964478L203.67276,355.959839L204.018463,355.793335L204.029449,355.788208L204.364899,355.633179L204.376129,355.628052L204.700592,355.484497L204.713531,355.478882L205.027496,355.346802L205.041168,355.341187L205.344391,355.220581L205.359528,355.214722L205.651764,355.105591L205.668854,355.099487L205.950592,355.001831L206.024567,354.980347L206.100494,354.966431L206.177399,354.960083L206.254547,354.961792L206.330963,354.971069L206.406158,354.988159L206.479401,355.012817L206.48526,355.015503L206.493805,354.999634L206.537506,354.936157L206.587555,354.877319L206.643219,354.823853L206.703766,354.776489L206.769196,354.735229L206.838287,354.70105L206.910309,354.673706L206.986237,354.653687L209.172028,354.195923L209.228912,354.186157L209.370026,354.167603L209.412506,354.163452L209.53653,354.154175L209.596832,354.151978L209.703278,354.152466L209.782623,354.15686L209.871979,354.166626L209.948151,354.178833L209.986969,354.188354L210.058746,354.207642L210.132233,354.231323L210.211334,354.266724L210.266022,354.295044L210.332672,354.334106L210.394928,354.379517L210.459625,354.438354L210.496735,354.476196L210.548004,354.533813L210.592926,354.596558L210.6315,354.663208L210.653473,354.710327L210.673492,354.757202L210.706207,354.849731L210.942535,355.687866L211.158112,356.156128L211.394196,356.630737L211.63858,357.084595L211.855865,357.455688L211.870026,357.423706L211.908112,357.356812L211.953033,357.293823L212.003815,357.235962L212.060211,357.183228L212.121735,357.136841L212.187408,357.096558L212.257233,357.063354L212.329742,357.037231L212.404449,357.018677L212.480865,357.00769L212.558014,357.004517L212.634918,357.009155L212.71109,357.021606L212.785553,357.041626L212.857574,357.06897L212.926666,357.103638L213.010895,357.159058L213.319244,357.3927L213.624176,357.600708L213.935699,357.791138L214.26944,357.973267L214.604401,358.13562L214.967438,358.290894L215.331451,358.427124L215.711823,358.551147L216.090485,358.651245L216.471344,358.734497L216.850739,358.79895L217.225494,358.845337L217.598053,358.872681L217.961578,358.881958L218.325836,358.872681L218.684235,358.845581L219.016022,358.805542L219.320465,358.752319L219.612457,358.683716L219.897369,358.598511L220.164703,358.500122L220.41861,358.387817L220.664215,358.259155L220.89151,358.120239L221.1315,357.947388L221.347076,357.766479L221.546051,357.571411L221.727203,357.363403L221.89151,357.141479L222.037506,356.907104L222.169098,356.654663L222.294098,356.363403L222.328033,356.294067L222.368805,356.228638L222.415924,356.167603L222.469147,356.111694L222.52774,356.061401L222.590973,356.017456L222.658356,355.979858L222.729156,355.949585L222.802887,355.926392L222.878326,355.910767L222.955231,355.902954L222.994293,355.901978L223.018951,355.901978L223.0961,355.905884L223.172272,355.917603L223.246979,355.93689L223.319244,355.963501L223.337555,355.972534L223.375397,355.855103L223.40274,355.782837L223.437408,355.713989L223.478668,355.648804L223.526276,355.588257L223.579987,355.532837L223.638824,355.483032L223.698883,355.441772L224.063629,355.215454L224.413483,354.980347L224.750641,354.735229L225.07608,354.480103L225.388092,354.216431L225.695953,353.936157L225.984528,353.653198L226.283844,353.337524L226.339752,353.284302L226.400787,353.237183L226.465973,353.196167L226.535309,353.162231L226.607574,353.135132L226.682281,353.115845L226.758453,353.103882L226.835358,353.099976L226.912506,353.103638zM219.469879,381.42395L219.519196,381.440796L219.519684,381.416382L219.469879,381.42395zM208.633209,384.301636L208.654205,384.297485L208.635651,384.286743L208.633209,384.301636zM196.13028,372.116821L196.123444,372.121216L196.180328,372.14978L196.157135,372.095337L196.13028,372.116821zM205.79776,407.241821L206.146393,407.483521L206.181305,407.509155L206.738922,407.944702L206.771149,407.971313L206.776764,407.976196L206.784332,407.946411L206.810944,407.873901L206.844879,407.80481L206.8815,407.745483L206.817291,407.728149L206.745026,407.700806L206.676178,407.666138L206.610992,407.624878L206.550446,407.577026L206.495026,407.52356L206.445221,407.464478L206.401764,407.400757L206.364899,407.33313L206.335114,407.261841L206.312653,407.18811L206.29776,407.112427L206.297272,407.106323L205.79776,407.241821zM198.193634,379.904968L199.320526,382.017426L201.414139,379.007965C200.387115,379.482849,199.312988,379.782471,198.193634,379.904968zM205.211273,382.452728L204.037277,381.442657L203.462524,383.279999C205.288544,383.907501,206.760284,384.214661,207.879639,384.197723L206.500244,383.325226L205.211273,382.452728zM217.750336,401.973633C216.06189,402.968628,214.512878,403.803406,213.103317,404.476166C214.497803,404.798401,215.741531,405.356201,216.828857,406.15332L217.750336,401.973633zM220.511047,407.966156L221.132904,411.250732C221.852768,408.770813,223.186951,406.581085,225.135468,404.683441C223.279297,405.356201,221.722748,406.366272,220.463928,407.713623L220.511047,407.966156zM194.995728,365.023529C194.136429,366.353943,193.346848,367.763519,192.626984,369.248444C193.576752,370.105865,194.596222,370.855865,195.68544,371.498474C195.165329,369.798706,194.933548,367.641022,194.995728,365.023529zM232.980377,391.317139L231.576477,391.294495C231.131744,393.591644,231.086517,395.666412,231.438904,397.518799L233.786926,397.541443L232.980377,391.317139zM240.619904,414.465576C239.805832,415.370117,239.231064,416.425415,238.893753,417.635223C238.571518,418.845032,238.533829,420.047302,238.778809,421.240143C240.32782,421.072418,241.761871,420.712494,243.080978,420.162231C241.91452,419.610107,241.124939,418.797913,240.710358,417.727539C240.342896,416.74762,240.312744,415.660309,240.619904,414.465576zM218.762283,359.603882C217.703232,359.711304,216.614029,359.603882,215.494659,359.281647C214.375305,358.944336,213.393524,358.439301,212.551178,357.766571C213.500931,359.081909,214.559982,360.069336,215.724579,360.728912C217.060638,361.493988,218.440048,361.78418,219.866562,361.601379C221.338318,360.116455,222.389832,358.469452,223.019226,356.664154L222.994736,356.664154C222.657425,357.536652,222.097748,358.233887,221.315704,358.753998C220.59584,359.228882,219.74408,359.511536,218.762283,359.603882zM187.19603,389.159424C187.150803,390.874268,187.2733,392.327179,187.565384,393.521912C188.530212,393.874298,189.43663,394.019409,190.278976,393.959106C191.353119,393.881836,192.127625,393.476685,192.602493,392.74176C190.211136,391.714752,188.430344,390.154419,187.265762,388.057037L187.19603,389.159424zM188.370041,381.075195C188.967407,381.717773,189.642044,382.200195,190.393921,382.52243C191.223083,382.904999,191.997589,383.01239,192.717438,382.842804C192.120087,381.495422,191.752609,380.0802,191.613159,378.595276L191.660278,378.365356C190.878235,377.905579,190.179108,377.37793,189.566666,376.780548C189.121933,378.143005,188.722427,379.575195,188.370041,381.075195zM240.205322,393.729218C241.584732,393.34668,242.788895,392.189636,243.817795,390.261841L243.748077,390.169495C243.258118,389.09726,242.543915,388.247375,241.609238,387.619843C240.719772,387.022491,239.705948,386.670105,238.571518,386.564575C239.430817,387.727264,240.020645,388.874878,240.342896,390.009338C240.742386,391.401917,240.695282,392.641876,240.205322,393.729218zM219.291809,398.48175L219.4991,400.756287C221.937561,396.454102,224.146133,393.131836,226.124786,390.78949L224.536209,390.536957C224.198898,391.486725,223.556305,392.359222,222.60466,393.154449C221.807541,393.812134,220.848358,394.379333,219.729004,394.854218L219.244705,398.321594L219.291809,398.48175zM199.850052,397.746826L198.561096,403.741241C200.846924,403.680939,203.132751,403.121246,205.418564,402.065979C202.78035,400.7789,200.924179,399.339172,199.850052,397.746826zM207.512177,408.173431C209.828156,410.285889,211.752167,413.410278,213.286102,417.542877C213.838242,416.302917,214.390381,414.765198,214.942535,412.927887L214.804962,412.835541C213.900436,411.733154,212.811218,410.775848,211.537354,409.965546C210.280426,409.153351,208.938705,408.555969,207.512177,408.173431zM190.416534,383.692688C189.589279,383.447693,188.807236,382.997314,188.070419,382.337769C187.795288,383.639923,187.595535,384.857269,187.473053,385.989807C188.437881,386.939575,189.649582,387.405029,191.108139,387.389954C192.380127,387.389954,193.669083,387.030029,194.973114,386.312042C194.266449,385.577118,193.646469,384.687653,193.109406,383.647461C192.250107,383.937653,191.353119,383.952728,190.416534,383.692688zM194.051636,383.119812C194.788452,384.512421,195.725006,385.652496,196.859436,386.54007L197.274017,385.692078L198.700546,383.050079C198.240738,382.330231,197.711212,381.342773,197.111969,380.087738L197.089355,379.950195C195.55542,379.93512,194.068588,379.582703,192.626984,378.893005C192.856903,380.394897,193.331772,381.802582,194.051636,383.119812zM237.374893,386.54007L236.063324,386.747345L235.626144,387.597229C235.043839,389.09726,234.829025,390.359833,234.981659,391.386841C235.089066,392.229187,235.618591,392.886871,236.570236,393.361755C237.382431,393.759369,238.264359,393.934601,239.216003,393.889374C239.798294,392.879333,239.845398,391.654449,239.353561,390.214722C238.986099,389.09726,238.349152,387.987305,237.444626,386.884918C237.367355,386.792572,237.344742,386.679504,237.374893,386.54007zM236.178284,385.805145C237.834702,385.407532,239.400665,385.484772,240.872421,386.035034C242.421432,386.61734,243.587891,387.62738,244.369934,389.067108L244.807129,387.942078C245.297089,386.579651,245.604248,385.147461,245.72673,383.647461C244.085388,384.229736,242.3517,384.36731,240.527557,384.06015C238.80896,383.769928,237.182678,383.119812,235.648758,382.10788C235.955917,383.272461,236.133057,384.504883,236.178284,385.805145zM207.052383,407.003204C208.631531,407.308472,210.142853,407.875702,211.584457,408.70108C213.026047,409.528351,214.267899,410.538422,215.311874,411.733154L215.494659,411.135773C215.864014,409.973083,216.2164,408.70108,216.553726,407.323547C215.157349,406.160858,213.548035,405.471161,211.722015,405.256317L211.561844,405.21109L207.949371,406.703583L207.052383,407.003204zM193.361923,393.016876C192.82486,393.889374,192.02774,394.464142,190.968689,394.739258C190.049072,394.984253,189.03714,394.984253,187.932861,394.739258C188.484985,396.224213,189.41214,397.486786,190.716171,398.52887C191.345581,399.048981,192.035278,399.401367,192.78717,399.584167C193.706772,399.798981,194.420975,399.638794,194.92601,399.101746C195.892731,398.10675,195.647751,396.171448,194.191071,393.292023L193.361923,393.016876zM198.446136,391.661987C198.248276,391.04953,197.893997,390.237335,197.388977,389.227295C196.897125,388.539459,196.606934,388.017456,196.514587,387.666962L195.570496,386.907532C194.451126,387.597229,193.284668,388.0495,192.072968,388.262451C190.738785,388.49234,189.534637,388.384949,188.462387,387.942078C189.811646,390.069641,191.935394,391.547028,194.835556,392.374298C195.832428,392.726685,196.752029,392.956604,197.596252,393.062103L198.585587,393.03949C198.72316,393.009338,198.745758,392.779449,198.653427,392.351685L198.446136,391.661987zM196.26207,418.43988C194.573608,417.980042,193.491943,418.324921,193.017059,419.472534C193.646469,420.559875,194.750763,421.569916,196.32991,422.504608C197.588715,423.239532,198.945511,423.819946,200.402191,424.249603C201.553589,424.60199,202.71817,424.777222,203.899719,424.777222C202.748322,423.032257,201.37645,421.507751,199.782211,420.207458C198.753296,419.365112,197.581177,418.775299,196.26207,418.43988zM242.528839,408.358124L242.368668,408.311005C241.15509,408.893311,239.952805,409.788391,238.756195,410.99823C237.437088,412.390808,236.630539,414.030273,236.340347,415.912842C236.063324,417.672913,236.263077,419.495148,236.937714,421.377716L237.789474,421.332489C237.544495,419.802307,237.712219,418.285339,238.296387,416.785339C238.878677,415.300385,239.775681,414.052887,240.987366,413.042847L241.21727,412.927887C242.061493,411.228119,243.273193,410.010773,244.852356,409.275818L242.528839,408.358124zM230.933884,377.790619L230.818939,376.298126C228.440765,378.747925,224.928177,380.4552,220.281143,381.420044C224.636078,382.889923,228.410614,383.447693,231.600983,383.095306C231.263657,380.967773,231.04129,379.200165,230.933884,377.790619zM210.225769,355.951843L209.973267,355.056732C209.943115,354.919159,209.728287,354.879608,209.328781,354.941772L207.142822,355.399689C207.864563,358.55426,210.350143,361.723877,214.597672,364.9086L214.850189,365.09137C216.323822,364.41864,217.635391,363.583832,218.784897,362.588837C217.603363,362.573761,216.423691,362.266602,215.242157,361.66922C214.152954,361.103912,213.186234,360.353882,212.343887,359.41922C211.57692,358.561798,210.870255,357.406616,210.225769,355.951843zM240.504944,372.555634C239.660721,374.223358,238.62616,375.632935,237.397507,376.780548C238.501785,377.607819,239.82843,377.890503,241.379333,377.630432C242.698441,377.415619,243.962906,376.857819,245.174591,375.953278C244.577225,373.045593,243.570938,370.228363,242.161377,367.503448C241.839142,369.293671,241.286987,370.978363,240.504944,372.555634zM235.83342,359.144073L234.339066,357.857025C234.291962,358.48642,234.069595,359.311798,233.67009,360.338806C233.195206,361.546753,232.497971,362.886597,231.576477,364.356445C231.516174,364.463867,231.478485,364.71637,231.461517,365.113983L231.486023,365.986481L231.438904,369.156128L231.438904,369.22583C233.019958,368.903595,234.446472,367.946289,235.718475,366.353943C236.745499,365.083832,237.589722,363.531067,238.249283,361.693726L235.83342,359.144073zM227.02179,390.927032C225.810089,392.334717,224.583313,393.996796,223.341476,395.911377L220.143585,401.261322C222.137314,399.011292,225.572647,397.771332,230.449585,397.541443C230.159378,395.641907,230.242294,393.544525,230.703979,391.249298L227.02179,390.927032zM240.642517,407.990631C239.200912,408.005707,237.689606,408.540894,236.110443,409.598083C233.027496,411.695465,231.331497,415.515228,231.024338,421.057343L234.291962,421.355103L235.856033,421.402222C235.303894,419.579956,235.158798,417.817993,235.418854,416.120117C235.695862,414.343079,236.408173,412.713043,237.55957,411.228119C238.526291,409.958008,239.745529,408.878235,241.21727,407.990631L240.895035,407.898315L240.642517,407.990631zM235.096603,380.340271L235.121109,380.340271C236.607925,381.595306,238.286972,382.460266,240.158218,382.93515C242.168915,383.440155,244.047699,383.372314,245.796463,382.727844C245.856766,381.120422,245.756882,379.437622,245.496826,377.675659L245.334778,376.827667C243.940292,377.822662,242.513763,378.418121,241.057098,378.617889C239.353561,378.862854,237.881805,378.518005,236.638077,377.585205L236.570236,377.492859C235.895615,377.997894,235.173874,378.427551,234.406906,378.778076L235.096603,380.340271zM245.72673,409.873199C244.775085,410.13324,243.925217,410.645813,243.173325,411.410889C242.483612,412.115692,241.961624,412.9505,241.609238,413.915314C241.147552,415.170349,241.187119,416.317993,241.724182,417.360077C242.244293,418.400299,243.133743,419.127686,244.392548,419.540375L245.312164,418.990112C246.616196,418.117615,247.520721,417.052917,248.027634,415.797882C248.579773,414.405273,248.487442,413.06543,247.750626,411.778381C247.305893,411.013306,246.6633,410.363159,245.819077,409.827972L245.72673,409.873199zM200.194901,396.209137C201.13147,398.184021,203.285385,399.929016,206.660416,401.444092C208.056793,400.694092,209.383423,399.806519,210.64035,398.781403C209.046112,397.878754,207.412308,396.584137,205.740814,394.899445C204.589417,393.736755,203.210007,392.159485,201.598816,390.169495L200.194901,396.186523L200.194901,396.209137zM202.128326,389.089722C203.829987,391.217255,205.2565,392.871796,206.407898,394.049561C208.171738,395.811523,209.88092,397.134399,211.537354,398.023834C212.796143,396.936523,214.037994,395.681488,215.264771,394.256836C212.903564,393.506836,210.610199,392.304565,208.386566,390.651917C206.330643,389.119873,204.497086,387.329651,202.887772,385.277496L201.875824,388.997375L202.128326,389.089722zM195.962448,363.621521C195.885193,365.336365,195.900269,366.798676,196.007675,368.008484C196.162201,369.646057,196.50705,371.055634,197.044128,372.233398C199.482574,373.365967,201.613892,373.573242,203.439911,372.853394C202.288513,371.000977,201.431091,368.788635,200.862,366.2164C200.387115,364.028564,200.142136,361.676758,200.12706,359.166687C198.668503,360.346344,197.281555,361.831299,195.962448,363.621521zM220.32637,406.773315C222.060059,405.073547,224.246002,403.89386,226.884216,403.236206C229.322693,402.638824,231.830872,402.555908,234.406906,402.983704L233.924484,398.551483L228.333359,398.781403C226.354691,399.026367,224.728424,399.416443,223.456421,399.95163C221.675629,400.70163,220.45639,401.766357,219.796844,403.14386L220.32637,406.773315zM220.234039,362.336334C218.869705,363.698761,217.328232,364.801178,215.609619,365.643524C216.838272,366.516022,218.072586,367.311249,219.314423,368.031097L219.384155,367.98587C222.082672,366.958862,224.215851,365.121521,225.779938,362.473877C227.251694,359.978882,227.958344,357.221954,227.896164,354.206848L227.918777,354.114502L226.837112,353.862C226.039993,354.734497,225.12793,355.476959,224.100906,356.089417C223.456421,358.354492,222.175003,360.42926,220.25853,362.313721L220.234039,362.336334zM221.592712,413.225616L222.052521,414.810425C222.312576,415.682922,222.627274,416.410339,222.994736,416.992615C223.823883,414.405273,225.320129,412.138306,227.481583,410.195435C229.597809,408.295929,232.02121,407.010742,234.751755,406.336121L234.521851,404.040863C231.898712,403.503784,229.345306,403.543365,226.861603,404.153931L226.699554,404.315979C225.335205,405.40332,224.206436,406.696045,223.316986,408.196045C222.397369,409.773315,221.84523,411.388306,221.660553,413.042847L221.592712,413.225616zM197.641479,373.610931C195.755157,372.953247,193.9216,371.843323,192.1427,370.281128L191.545319,371.59082L189.956741,375.632935C192.365051,378.112854,195.088074,379.222778,198.123901,378.962738L200.379578,378.457703C201.206848,378.182587,201.843781,377.905579,202.288513,377.630432L202.633362,377.538086C203.432373,376.620361,204.267181,375.793121,205.141556,375.058167L203.922333,373.565704C202.081223,374.423126,199.98761,374.438202,197.641479,373.610931zM235.143723,407.163391C232.383011,407.745667,229.952087,408.993164,227.850937,410.905884C225.702682,412.865692,224.291229,415.185425,223.616608,417.865112C224.046249,418.324921,224.536209,418.722534,225.088348,419.059845C226.484711,419.932343,228.156219,420.5448,230.104736,420.895294C230.504227,415.370117,232.328369,411.403381,235.580917,409.000702C236.470367,408.343048,237.474777,407.828583,238.594131,407.461121L235.143723,407.163391zM219.429382,394.074066C221.882919,393.079071,223.309448,391.846649,223.708939,390.376801C221.100876,389.839722,218.669952,389.166992,216.416153,388.354797C213.945648,387.437073,211.529816,386.304504,209.16861,384.957153C207.787308,385.354767,205.931137,385.18515,203.600082,384.450226C205.608887,387.022491,207.934296,389.159424,210.57251,390.85733C213.516006,392.726685,216.468918,393.797058,219.429382,394.074066zM205.026611,407.57608L200.079956,408.448578L197.503922,408.610626L197.251404,410.103088C197.127029,410.715546,196.974396,411.175354,196.789719,411.480621L196.582428,411.733154C198.008957,411.533386,199.550415,411.710541,201.206848,412.260773C202.65033,412.735657,204.014664,413.425354,205.303619,414.328003C206.560547,415.215576,207.64975,416.350037,208.569351,417.727539C209.50592,419.135223,210.135315,420.590027,210.45755,422.090027C211.254669,421.247681,211.999023,420.169769,212.688736,418.852539L212.641632,418.782837C210.725159,413.410278,208.224503,409.720551,205.141556,407.713623L205.026611,407.57608zM231.693314,375.218353L231.715927,375.448242C232.620453,376.183197,233.372345,377.048157,233.969711,378.043121C236.133057,377.125397,237.896881,375.510437,239.261215,373.198242C240.472916,371.115936,241.202194,368.788635,241.447174,366.2164C240.710358,364.961365,239.845398,363.691223,238.848526,362.404175C238.081558,364.318756,237.129913,365.926178,235.995483,367.228333C234.629272,368.818787,233.11795,369.791168,231.461517,370.143555C231.508636,371.735901,231.576477,373.32074,231.668808,374.89801C231.731003,374.990326,231.738541,375.095856,231.693314,375.218353zM228.815765,354.389648C228.80069,357.406616,228.04126,360.191833,226.539368,362.749023C224.973404,365.42868,222.872253,367.358368,220.234039,368.536133L222.949509,369.913666C224.25354,370.46579,225.135468,370.778625,225.595261,370.855865L225.687607,370.878479C227.3591,369.776093,228.970291,368.628479,230.519302,367.433746L230.587143,365.413605C230.619186,364.893524,230.734131,364.411102,230.933884,363.96637L231.668808,362.634064L232.93515,360.016571C233.349731,358.959412,233.50238,358.019073,233.394958,357.191803L233.349731,357.031616L233.349731,357.009003C233.18013,356.656616,232.673218,356.242035,231.830872,355.767181L230.174454,354.919159L228.815765,354.389648zM209.720749,372.073212C210.042984,371.935669,210.210693,372.011047,210.225769,372.303131C210.242737,372.593323,210.118362,372.800629,209.858307,372.923096C208.723877,373.428131,207.580017,374.125366,206.430511,375.012939L206.315567,375.310699C207.664825,376.075775,209.29863,376.895508,211.215103,377.768005L211.262207,377.768005C213.193771,377.217743,215.104584,376.528046,216.990906,375.700775C213.278564,374.200745,210.118362,371.758514,207.512177,368.375946C204.966309,365.038605,203.370178,361.356415,202.725708,357.329376L201.046661,358.454376C201.031586,361.516602,201.368912,364.326294,202.058609,366.883484C202.887772,369.97583,204.174835,372.440704,205.923599,374.278015C206.031006,374.155518,206.185532,374.078278,206.385284,374.048126C207.564941,373.20578,208.676758,372.548096,209.720749,372.073212zM218.509766,380.800079C220.948242,380.462738,223.149261,379.880463,225.112854,379.055084C227.521164,378.075165,229.39241,376.803162,230.726593,375.242859C230.572067,372.71582,230.496689,370.443176,230.496689,368.421173C224.283691,373.183167,218.262909,376.482819,212.436218,378.320129L215.127197,379.467773L218.509766,380.800079zM216.0242,394.556488C213.125931,397.969177,210.05806,400.548981,206.820587,402.293976C206.698105,402.416473,206.568085,402.478668,206.430511,402.478668C203.762146,403.856201,201.069275,404.606201,198.355682,404.728668L197.711212,407.645782L200.10257,407.50824C202.940536,407.216125,205.593826,406.628204,208.064331,405.738739C211.147263,404.65332,214.4375,403.044006,217.933136,400.916473C218.272339,399.141327,218.562531,397.17395,218.80751,395.014404L216.071304,394.486755L216.0242,394.556488zM205.51091,415.912842C204.099457,414.627625,202.418549,413.685425,200.471909,413.088074C198.263351,412.398346,196.352524,412.415314,194.743225,413.133301C194.083664,413.777771,193.554138,414.427887,193.154633,415.085571C192.434784,416.280304,192.257645,417.450531,192.626984,418.600037C193.20929,417.865112,194.083664,417.467499,195.248245,417.405304C196.277145,417.345001,197.296631,417.535339,198.308578,417.980042C199.627686,418.562347,200.924179,419.510223,202.196167,420.827454C203.255234,421.914764,204.23703,423.207489,205.141556,424.70752C206.875244,424.509644,208.363953,423.904724,209.605789,422.894684C209.360809,421.607605,208.861435,420.337494,208.109543,419.082458C207.40477,417.902802,206.537933,416.847504,205.51091,415.912842zM206.200607,355.721954C205.463791,355.966919,204.61203,356.334381,203.647186,356.824341L203.622696,356.824341C204.282257,360.911682,205.931137,364.616486,208.569351,367.938751C211.269745,371.338287,214.520416,373.710815,218.325104,375.058167L218.347702,375.058167C220.341446,374.125366,222.397369,372.983398,224.513596,371.636047L222.627274,370.948212C220.266068,369.938141,217.488403,368.298706,214.29805,366.0336C212.351425,364.671143,210.695007,363.193756,209.328781,361.601379C207.642212,359.61142,206.598236,357.651611,206.200607,355.721954zM204.42923,380.27243L204.521576,380.340271L205.578751,381.350311L206.797974,382.222809C209.513458,384.075226,212.756577,385.75238,216.531113,387.25238C221.545609,389.227295,226.976563,390.261841,232.820206,390.352295L231.738541,384.014923C229.285004,384.337158,226.524292,384.129883,223.456421,383.394928C221.35527,382.904999,218.709518,382.032501,215.519165,380.777466C212.006561,379.398041,208.799255,377.913116,205.900986,376.32074L204.42923,380.27243z"/>
</svg>
