<?xml version="1.0" encoding="UTF-8"?>
<svg xmlns="http://www.w3.org/2000/svg" xmlns:xlink="http://www.w3.org/1999/xlink" width="46.516mm" height="63.463mm" fill="white" stroke="black" stroke-width="0.5" viewBox="-435.896301 200.588745 46.516113 63.462646">
    <path transform="matrix(-1,0,0,1,0,0)" d="M405.982971,200.591431L406.454163,200.63147L406.530579,200.641968L406.60553,200.660034L406.678284,200.685669L406.748108,200.718384L406.81427,200.757935L406.876038,200.804321L406.932922,200.856323L406.984192,200.91394L407.029358,200.976685L407.067932,201.043335L407.09967,201.113647L407.12384,201.18689L407.140686,201.262085L407.149963,201.338745L407.150208,201.439087L407.144592,201.526489L407.207092,201.527954L407.283752,201.537964L407.358704,201.555542L407.431702,201.580688L407.50177,201.612915L407.568176,201.652222L407.630188,201.697876L407.687317,201.749634L407.739075,201.807007L407.798645,201.891479L408.013489,202.244263L408.239807,202.557251L408.493469,202.856323L408.777893,203.144165L409.089905,203.417358L409.432434,203.678345L409.810852,203.929321L410.215149,204.163696L410.621399,204.367798L411.030579,204.5448L411.4422,204.694702L411.84845,204.815308L412.259583,204.909302L412.666565,204.975708L413.083557,205.016235L413.499817,205.029663L413.899231,205.015259L414.277161,204.973267L414.628967,204.904663L414.959778,204.809692L415.272766,204.68811L415.566223,204.541382L415.840149,204.369995L416.129211,204.148315L416.192688,204.104614L416.260315,204.067505L416.331116,204.037476L416.404846,204.014526L416.48053,203.99939L416.55719,203.991821L416.634338,203.99231L416.711243,204.000366L416.730774,204.004517L416.825256,203.44397L416.841858,203.368774L416.866272,203.295532L416.897522,203.224976L416.936096,203.158081L416.981018,203.095581L417.032043,203.03772L417.088684,202.985474L417.150452,202.939087L417.21637,202.899292L417.291565,202.864136L417.844299,202.640991L417.917053,202.615845L417.992249,202.598022L418.068665,202.588013L418.145813,202.585815L418.222717,202.591187L418.288635,202.602905L418.299866,202.582153L418.343567,202.518677L418.393372,202.459839L418.448792,202.406128L418.509583,202.358521L418.590881,202.308472L418.898254,202.144653L418.968079,202.111694L419.040833,202.086304L419.115784,202.068237L419.1922,202.057739L419.269348,202.055054L419.346252,202.060425L419.422424,202.073364L419.496643,202.093872L419.568665,202.121704L419.637268,202.15686L419.708801,202.203735L420.815247,203.019409L420.875061,203.068237L420.929504,203.122925L420.978088,203.182739L421.020325,203.247192L421.055969,203.315552L421.094055,203.417358L421.170959,203.678345L421.183411,203.725952L421.184143,203.728882L421.238342,203.716675L421.314758,203.707642L421.391907,203.706421L421.468811,203.712769L421.544739,203.727173L421.618713,203.748901L421.690002,203.778198L421.758118,203.814331L421.822083,203.8573L421.889954,203.914429L424.020569,205.930542L424.073792,205.986206L424.121155,206.047241L424.16217,206.112427L424.19635,206.181763L424.22345,206.254028L424.243958,206.333618L424.251038,206.36853L424.478577,206.942505L424.497864,206.996704L424.625305,207.405396L424.63678,207.399536L424.708557,207.371216L424.782776,207.350464L424.858948,207.337036L424.935852,207.331665L425.012756,207.333862L425.089417,207.343872L425.164368,207.361694L425.237366,207.386841L425.30719,207.419312L425.373596,207.458618L425.435608,207.504517L425.492737,207.556519L425.537903,207.606079L426.177795,208.375366L426.187805,208.387817L426.816956,209.177368L426.826721,209.190063L427.444885,210.000122L427.454163,210.012329L428.06134,210.842407L428.070374,210.855103L428.666565,211.705688L428.674866,211.717651L429.260559,212.588501L429.268616,212.600952L429.843323,213.49231L429.850891,213.504272L430.414856,214.416138L430.419983,214.424438L430.765442,214.999146L430.769836,215.006714L431.099182,215.569214L431.103821,215.577271L431.417297,216.127808L431.42218,216.136353L431.719543,216.674683L431.724426,216.683716L432.00592,217.209839L432.011292,217.219604L432.276672,217.733765L432.281799,217.744507L432.531067,218.24646L432.536682,218.257446L432.767639,218.742065L432.845032,218.896851L432.853088,218.91394L432.978577,219.181274L432.999573,219.230347L433.089172,219.46228L433.113586,219.536499L433.167053,219.732544L433.183655,219.807739L433.18927,219.847778L433.207336,220.008179L433.211975,220.085083L433.206848,220.181274L433.152161,220.651733L433.151428,220.656372L433.208557,220.656616L433.285217,220.664673L433.360657,220.680542L433.434143,220.703735L433.504944,220.734253L433.572327,220.771851L433.635559,220.81604L433.693909,220.866577L433.746887,220.922485L433.794006,220.983521L433.831116,221.042847L434.071838,221.468872L434.079407,221.482544L434.304016,221.89978L434.31134,221.913208L434.520569,222.321411L434.528137,222.336792L434.721497,222.735962L434.729065,222.752075L434.907043,223.142456L434.914856,223.160522L435.076965,223.54187L435.085022,223.561646L435.231262,223.934204L435.239075,223.954468L435.369934,224.317993L435.377502,224.340454L435.492737,224.694946L435.500549,224.720093L435.599915,225.065796L435.606995,225.092407L435.690735,225.429321L435.697327,225.458618L435.765198,225.786255L435.771057,225.817749L435.823303,226.136841L435.827942,226.1698L435.864807,226.479614L435.868469,226.516724L435.889465,226.817749L435.891174,226.8573L435.896301,227.149292L435.895813,227.18811L435.882141,227.598755L435.878967,227.649048L435.837463,228.065308L435.83136,228.111938L435.762756,228.533813L435.753967,228.578979L435.657532,229.006714L435.64679,229.048706L435.52301,229.481812L435.510803,229.52063L435.359436,229.959839L435.345764,229.995972L435.166809,230.440552L435.152893,230.473511L434.946594,230.92395L434.92926,230.959351L434.616272,231.558716L434.59552,231.595581L434.252258,232.172241L434.229065,232.209106L433.855042,232.763062L433.829895,232.797974L433.425598,233.329224L433.409485,233.349487L433.060852,233.776733L433.009094,233.834106L432.945862,233.890503L432.536682,234.217163L432.507385,234.239624L432.191223,234.467896L432.152649,234.493774L431.859436,234.679321L431.808655,234.708862L431.538635,234.851929L431.468079,234.884888L431.221008,234.984985L431.124329,235.016724L430.899963,235.074341L430.824524,235.089722L430.766907,235.096313L430.565979,235.111206L430.488831,235.112915L430.391907,235.104126L430.213684,235.076294L430.138245,235.060425L430.064758,235.037231L430.016174,235.017212L429.860901,234.946655L429.792297,234.911011L429.737122,234.87561L429.636292,234.804565L429.575745,234.757202L429.495667,234.676392L429.417542,234.584839L429.370422,234.523804L429.313538,234.42688L429.258606,234.315308L429.228088,234.244263L429.201477,234.157593L429.169495,234.025269L429.156799,233.957397L429.057434,233.972778L428.98053,233.980591L428.919495,233.981323L428.802795,233.977905L428.725891,233.971802L428.650208,233.957886L428.540344,233.932007L428.46637,233.910522L428.391663,233.880249L428.289124,233.832153L428.221008,233.795776L428.161438,233.756226L428.065735,233.685913L428.00592,233.637329L427.941223,233.571167L427.855286,233.472046L427.807678,233.411255L427.766663,233.345825L427.731995,233.276489L427.678528,233.153442L427.651428,233.081177L427.631897,233.006714L427.622864,232.956177L427.602112,232.80896L427.595276,232.732056L427.596497,232.650513L427.604065,232.538696L427.589172,232.539673L427.455872,232.538696L427.378967,232.534302L427.302795,232.522095L427.241516,232.506226L427.118469,232.469116L427.045715,232.443237L426.976135,232.410034L426.922424,232.378052L426.809631,232.304565L426.747375,232.259155L426.689758,232.207886L426.637756,232.151001L426.576965,232.06604L426.52594,231.983276L426.488831,231.915649L426.458801,231.844604L426.436096,231.770874L426.420959,231.69519L426.415588,231.650024L426.404602,231.52478L426.401672,231.447632L426.406555,231.370728L426.412903,231.327026L426.4422,231.159302L426.469055,231.052124L426.538391,230.841431L426.563293,230.776245L426.673157,230.523315L426.692688,230.482056L426.842834,230.186157L426.858215,230.157104L427.048645,229.818726L427.061096,229.797485L427.292053,229.416382L427.310608,229.387085L428.21759,228.034302L427.960754,227.642212L427.912415,227.557007L427.782288,227.288452L427.763,227.244995L427.65802,226.988647L427.638733,226.935913L427.559387,226.692505L427.541321,226.62854L427.487854,226.397827L427.473694,226.31604L427.391174,225.624146L427.385803,225.546997L427.388489,225.470093L427.398743,225.393677L427.416809,225.318481L427.438782,225.255737L427.421692,225.244263L427.36261,225.194702L427.308899,225.139526L427.25592,225.071655L425.93634,223.172729L425.226135,222.260864L424.486145,221.380249L423.715881,220.531372L423.285706,220.091919L423.265442,220.191772L423.158264,220.764282L423.069641,221.295044L423.002747,221.761597L422.954895,222.179077L422.926575,222.542603L422.906311,223.03772L422.899231,223.114624L422.884338,223.190308L422.862122,223.264038L422.832336,223.335327L422.795715,223.403198L422.752258,223.466919L422.695129,223.533813L422.642151,223.589233L422.651672,223.597534L422.704651,223.653687L422.751526,223.714722L422.792053,223.780396L422.825745,223.849731L422.852356,223.922241L422.871399,223.996948L422.882629,224.073364L422.885559,224.114624L423.008118,226.946411L423.007629,227.02356L422.999329,227.10022L422.983215,227.175659L422.959534,227.249146L422.928528,227.319702L422.890686,227.386841L422.846252,227.449829L422.806702,227.495239L422.81012,227.49939L422.851135,227.564575L422.885315,227.633911L422.912415,227.705933L422.93219,227.78064L422.944153,227.856812L422.948303,227.933716L422.941223,228.040405L422.845032,228.744019L422.838684,228.783569L422.704163,229.488159L422.695618,229.526733L422.522522,230.232788L422.512756,230.269409L422.301575,230.976685L422.2901,231.011841L422.040344,231.720581L422.027649,231.753784L421.739807,232.463745L421.726379,232.495239L421.399963,233.206421L421.385559,233.235962L421.020569,233.948364L421.007629,233.97229L420.647278,234.617798L420.632629,234.642944L420.24762,235.27478L420.232483,235.298706L419.823303,235.917358L419.80719,235.940796L419.373596,236.546021L419.356995,236.568237L418.899231,237.160278L418.881653,237.182251L418.399475,237.76062L418.381897,237.781128L417.875549,238.346313L417.857239,238.365845L417.326721,238.917603L417.270569,238.970581L417.20929,239.017456L417.143616,239.057739L417.074036,239.091431L417.001526,239.117798L416.926819,239.136841L416.850647,239.148071L416.773499,239.151489L416.742981,239.14978L416.855286,240.190552L416.999084,241.401978L417.139221,242.422974L417.286194,243.404907L417.435364,244.316772L417.591614,245.189331L417.755188,246.022339L417.919495,246.785034L418.093079,247.516235L418.270813,248.192993L418.453918,248.832642L418.640686,249.427124L418.831848,249.975708L419.029114,250.485718L419.231018,250.954224L419.433899,251.373169L419.641418,251.752075L419.861389,252.104126L419.898987,252.171509L419.926086,252.234253L420.263245,251.981812L420.308167,251.950806L420.867493,251.591675L420.915833,251.562866L421.493469,251.249634L421.544495,251.224487L422.139954,250.956909L422.198792,250.933472L422.715149,250.751343L422.773743,250.733032L423.297424,250.594604L423.356995,250.581421L423.888,250.485718L423.94928,250.477417L424.488098,250.424927L424.54718,250.421265L424.899719,250.414429L424.962219,250.415894L425.282288,250.435913L425.356262,250.444214L425.643372,250.490601L425.732483,250.510376L425.987122,250.583618L426.089172,250.621216L426.311096,250.721069L426.3797,250.756226L426.422424,250.782837L426.611633,250.909546L426.673401,250.955688L426.721252,250.998657L426.877747,251.152222L426.929993,251.209106L426.972473,251.265015L427.096252,251.445435L427.136536,251.511353L427.165344,251.569702L427.259583,251.783813L427.286926,251.855835L427.302795,251.911499L427.35968,252.146606L427.37384,252.22229L427.378723,252.266479L427.398743,252.522583L427.399475,252.629517L427.382141,252.90686L427.371155,252.996216L427.316711,253.294312L427.299866,253.366821L427.208557,253.686157L427.188538,253.746216L427.059875,254.086304L427.039612,254.135132L426.873596,254.496216L426.822815,254.588989L425.491516,256.667114L425.469055,256.700073L425.013245,257.335571L425.000793,257.352661L424.535461,257.964966L424.522278,257.981812L424.047424,258.571411L424.033264,258.588257L423.549133,259.154907L423.533752,259.172485L423.039856,259.716187L423.023499,259.733521L422.519836,260.254272L422.502991,260.271362L421.990051,260.769165L421.971741,260.786255L421.448792,261.261353L421.388977,261.310181L421.324768,261.352905L421.256653,261.388794L421.18512,261.417603L421.110901,261.439087L421.034973,261.453003L420.958069,261.459106L420.895569,261.457642L420.887024,261.525269L420.869446,261.600464L420.844543,261.673462L420.812317,261.74353L420.773254,261.809937L420.7276,261.872192L420.675842,261.929321L420.62384,261.976685L420.362854,262.193481L420.354553,262.200317L420.103821,262.40271L420.093811,262.410522L419.853333,262.598022L419.841614,262.607056L419.611145,262.779663L419.598938,262.788696L419.378723,262.946899L419.364319,262.956909L419.154358,263.100464L419.137024,263.111938L418.937073,263.240845L418.917786,263.253052L418.728333,263.36731L418.690247,263.38855L418.411682,263.535522L418.375061,263.553833L418.103088,263.679077L418.060608,263.696899L417.794739,263.800415L417.748596,263.816772L417.489075,263.899048L417.435608,263.91394L417.182678,263.974243L417.125061,263.985718L416.878479,264.02478L416.81427,264.032104L416.57428,264.049438L416.50592,264.051392L416.272034,264.047241L416.194885,264.04187L416.097229,264.02356L415.216614,263.79895L415.142883,263.776245L415.071838,263.745972L415.004211,263.708862L414.940735,263.665161L414.882141,263.615112L414.828674,263.559448L414.781311,263.498657L414.725403,263.40564L414.693665,263.34314L414.61676,263.211792L414.580627,263.142212L414.537415,263.047241L414.496155,263.064575L414.422424,263.08728L414.346741,263.102173L414.269836,263.109497L414.192932,263.109009L414.116028,263.100708L414.040588,263.084595L413.967346,263.061157L413.896545,263.030396L413.829407,262.992554L413.752747,262.937134L413.42511,262.668091L413.397278,262.644165L413.069641,262.347534L413.044739,262.323853L412.717102,261.999146L412.695129,261.97644L412.367493,261.623657L412.340149,261.592651L411.746155,260.879028L411.700012,260.817261L411.660217,260.751099L411.627258,260.681519L411.601379,260.608765L411.583313,260.533813L411.581116,260.517944L411.518372,260.492554L411.450256,260.456421L411.386047,260.413696L411.326477,260.364624L411.272278,260.309937L411.232483,260.261841L410.925354,259.856567L410.916565,259.844604L410.610168,259.423218L410.602112,259.411987L410.296204,258.974976L410.288391,258.963501L409.983459,258.510376L409.976379,258.499878L409.671936,258.031128L409.665344,258.02063L409.361633,257.535767L409.35553,257.525757L409.052551,257.025024L409.046692,257.015259L408.744446,256.498657L408.735168,256.4823L407.847961,254.87561L407.836975,254.855103L406.988586,253.202271L406.978577,253.182007L406.713196,252.624634L404.906311,254.805542L405.778625,256.146362L405.817444,256.213013L405.849182,256.283325L405.87384,256.356323L405.890686,256.431763L405.899963,256.508179L405.901672,256.585327L405.895325,256.662231L405.881409,256.738159L405.88092,256.739624L405.887756,256.741089L405.961243,256.764526L406.032043,256.795288L406.099182,256.832886L406.162415,256.877075L406.220764,256.927612L406.273743,256.983765L406.320618,257.0448L406.363342,257.113892L406.529114,257.418579L406.533508,257.427124L406.682678,257.709595L406.687805,257.719116L406.820374,257.979126L406.826721,257.992065L406.942444,258.230103L406.949524,258.244995L407.048645,258.460571L407.056946,258.479614L407.139465,258.672729L407.149963,258.69812L407.215881,258.869263L407.228088,258.903931L407.277161,259.052368L407.294495,259.113159L407.361389,259.390991L407.375549,259.466187L407.411438,259.728394L407.418518,259.816528L407.423401,260.063599L407.418762,260.162476L407.393127,260.394409L407.373108,260.502808L407.316711,260.719116L407.293518,260.792847L407.278625,260.829956L407.191467,261.031128L407.157288,261.10022L407.135803,261.136108L407.017883,261.322144L406.948792,261.414673L406.800354,261.585083L406.724426,261.660767L406.555725,261.806763L406.479065,261.865112L406.295471,261.987183L406.211243,262.035767L406.012756,262.133911L405.92511,262.170532L405.711487,262.244751L405.626282,262.268921L405.39801,262.319458L405.316223,262.33313L405.073059,262.359741L404.997864,262.364136L404.739807,262.366821L404.672913,262.364624L404.399719,262.343384L404.34137,262.336548L404.053528,262.291626L404.002014,262.281616L403.69928,262.212769L403.654602,262.201294L403.336975,262.108521L403.298889,262.096313L402.966125,261.979858L402.931946,261.966919L402.584534,261.826294L402.555725,261.814087L402.19342,261.64978L402.167786,261.637573L401.790588,261.449341L401.768372,261.437622L401.376282,261.225464L401.348206,261.209595L400.709778,260.828491L400.665344,260.799683L400.061584,260.379761L400.018616,260.347778L399.44928,259.889282L399.40802,259.853394L398.873596,259.355835L398.83551,259.317749L398.33551,258.781372L398.300354,258.741089L397.835022,258.165894L397.803772,258.124146L397.373108,257.510132L397.34552,257.467896L396.94928,256.815063L396.937805,256.795532L396.759827,256.481567L396.755432,256.473755L396.590149,256.17395L396.585022,256.164673L396.432434,255.87854L396.426575,255.867554L396.28717,255.595581L396.281799,255.584595L396.154846,255.326782L396.147766,255.312134L396.033997,255.068237L396.027161,255.052856L395.926086,254.822876L395.91803,254.804321L395.829895,254.588501L395.822815,254.57019L395.699524,254.244507L395.688293,254.212769L395.584778,253.897827L395.573792,253.86145L395.490295,253.557251L395.48053,253.517456L395.416809,253.224243L395.408508,253.179565L395.364563,252.897095L395.358459,252.846069L395.334778,252.574585L395.331848,252.52063L395.327698,252.259888L395.329163,252.199341L395.345032,251.949341L395.353821,251.872681L395.372375,251.789673L395.638245,250.852661L395.663147,250.779663L395.695129,250.709351L395.734192,250.642944L395.779602,250.580688L395.831116,250.523315L395.888245,250.471313L395.950256,250.425659L396.016663,250.386353L396.086731,250.353882L396.159485,250.328735L396.23468,250.310913L396.276428,250.305542L396.267883,250.27771L396.239075,250.207397L396.21344,250.134644L396.195618,250.059692L396.185364,249.983276L396.182678,249.906128L396.188049,249.829224L396.200989,249.753052L396.221741,249.678833L396.249817,249.607056L396.282043,249.543579L396.548157,249.074829L396.860901,248.516235L396.865295,248.508423L397.174377,247.971313L397.17926,247.963013L397.482483,247.451294L397.487854,247.442261L397.785217,246.955688L397.791565,246.945679L398.083313,246.484741L398.090149,246.473999L398.376038,246.038452L398.383606,246.027222L398.663635,245.616821L398.672424,245.604126L398.946594,245.21936L398.955872,245.206665L399.321594,244.71521L399.335266,244.697144L399.704651,244.230347L399.720032,244.211792L400.093323,243.769653L400.110413,243.750122L400.48761,243.332886L400.506165,243.31311L400.887024,242.920776L400.907288,242.900513L401.292297,242.532837L401.314758,242.512329L401.70343,242.169556L401.728088,242.148804L402.120911,241.830933L402.183167,241.785522L402.249817,241.74646L402.319885,241.714478L402.393127,241.689819L402.468323,241.672729L402.512512,241.667114L402.395325,241.27063L402.393127,241.26355L402.140442,240.376831L402.138489,240.369507L401.904846,239.516724L401.902649,239.508179L401.688293,238.689087L401.685852,238.680054L401.490784,237.894897L401.488342,237.884888L401.312317,237.133423L401.309875,237.122437L401.152893,236.404663L401.150208,236.392212L401.012512,235.70813L401.009094,235.689575L400.852356,234.797485L400.849426,234.780151L400.716858,233.907104L400.714417,233.888306L400.606262,233.034302L400.604065,233.014771L400.520081,232.17981L400.518127,232.159058L400.458557,231.343384L400.457336,231.321655L400.42218,230.525024L400.421448,230.501831L400.410706,229.724487L400.410706,229.700317L400.424377,228.942017L400.429749,228.865112L400.442688,228.78894L400.46344,228.714722L400.491516,228.642944L400.526672,228.574097L400.531067,228.567261L400.20636,228.461792L400.190979,228.456665L399.480286,228.208862L399.408997,228.17981L399.340881,228.143677L399.276672,228.100952L399.217102,228.05188L399.162903,227.996948L399.114563,227.93689L399.074768,227.875854L399.034241,227.890747L398.95929,227.90979L398.883118,227.921021L398.805969,227.924683L398.729065,227.920532L398.652893,227.908569L398.578186,227.888794L398.523987,227.869263L397.315491,227.38147L397.245422,227.348999L397.179016,227.309692L397.117004,227.263794L397.06012,227.212036L397.008606,227.154663L396.963196,227.092163L396.918762,227.015015L396.884094,226.945679L396.750061,226.693481L396.726135,226.713257L396.66217,226.75647L396.594299,226.793091L396.52301,226.822388L396.449036,226.844604L396.373352,226.859009L396.296448,226.865845L396.219299,226.864868L396.142639,226.856079L396.067444,226.839478L395.994202,226.815308L395.935852,226.790161L395.148987,226.408813L395.123596,226.395874L394.391174,226.00647L394.363342,225.990845L393.68512,225.59314L393.654846,225.574585L393.031067,225.168579L392.99884,225.146362L392.42926,224.7323L392.394104,224.704956L391.878723,224.282349L391.841614,224.249878L391.38092,223.819214L391.341858,223.780151L390.935364,223.340942L390.886047,223.28186L390.842834,223.217896L390.806213,223.150024L390.776672,223.078735L390.7547,223.004761L390.747131,222.965698L390.733948,222.960083L390.666321,222.922974L390.6026,222.879517L390.543762,222.829712L390.490295,222.774048L390.442444,222.713501L390.416321,222.673706L390.16925,222.273315L390.139954,222.221313L389.931458,221.815552L389.90509,221.758911L389.73468,221.34729L389.712219,221.285278L389.580383,220.868042L389.562805,220.802612L389.469543,220.379517L389.457825,220.312622L389.402649,219.883911L389.397034,219.816284L389.380188,219.381958L389.380676,219.314819L389.402405,218.874878L389.413879,218.774536L389.679993,217.327515L389.697815,217.252563L389.723206,217.17981L389.755676,217.109741L389.794983,217.043335L389.840881,216.981567L389.892883,216.924438L389.950256,216.872925L390.012756,216.827515L390.038879,216.812134L390.017639,216.759888L389.995667,216.685913L389.981506,216.609985L389.975159,216.533081L389.976379,216.455933L389.985413,216.379517L390.002258,216.304077L390.032043,216.217407L390.210022,215.785278L390.220764,215.76062L390.416809,215.328735L390.42804,215.305054L390.641907,214.873901L390.653381,214.85144L390.885071,214.420776L390.897278,214.399048L391.147034,213.969116L391.159485,213.948608L391.427307,213.519165L391.439514,213.500122L391.725159,213.071167L391.737854,213.052612L392.041565,212.62439L392.089417,212.563843L392.142883,212.508423L392.201965,212.458618L392.265686,212.415161L392.333313,212.378296L392.404602,212.348511L392.478333,212.32605L392.554016,212.311157L392.586487,212.308716L392.583313,212.291626L392.576965,212.214722L392.578186,212.137573L392.587219,212.061157L392.604065,211.985718L392.628479,211.912476L392.659973,211.842163L392.698547,211.775513L392.743713,211.712769L392.787415,211.66272L394.344543,210.032349L394.400452,209.97937L394.461731,209.932251L394.527161,209.891724L394.596497,209.857788L394.669006,209.831177L394.743713,209.812134L394.836487,209.79895L394.864075,209.796753L394.855286,209.738403L394.851624,209.661255L394.855774,209.584351L394.867493,209.508179L394.887024,209.433472L394.913879,209.361206L394.950989,209.286743L395.266418,208.731079L395.277649,208.711792L395.60968,208.164917L395.621643,208.146118L395.97052,207.607788L395.982971,207.588989L396.34845,207.059937L396.361389,207.04187L396.743713,206.521606L396.756653,206.504272L397.155334,205.992798L397.16925,205.975708L397.584778,205.473267L397.59845,205.456909L398.030334,204.963501L398.04718,204.944946L398.50885,204.451294L398.526428,204.433228L398.979309,203.980103L398.999573,203.960571L399.44342,203.547974L399.467102,203.526733L399.901917,203.155151L399.92926,203.132935L400.355042,202.80188L400.387024,202.778442L400.803772,202.487915L400.842102,202.462769L401.250061,202.213257L401.293762,202.188599L401.692444,201.979614L401.717346,201.967163L402.213196,201.729858L402.224426,201.724487L402.687805,201.512085L402.701233,201.505981L403.131897,201.318481L403.147766,201.31189L403.545715,201.149292L403.564758,201.141724L403.929993,201.003784L403.954407,200.994995L404.286926,200.882202L404.316956,200.872925L404.61676,200.78479L404.656799,200.774048L404.923889,200.71106L404.999573,200.697144L405.076477,200.69104L405.153625,200.692749L405.230286,200.702271L405.305481,200.71936L405.378479,200.744019L405.429504,200.767212L405.473938,200.731812L405.538879,200.690063L405.607483,200.655151L405.679504,200.627075L405.753967,200.606812L405.829895,200.593872L405.906799,200.588745L405.982971,200.591431zM406.290344,229.461548L406.248352,229.526245L406.199768,229.586304L406.145569,229.640991L406.088684,229.687866L406.249329,229.733032L406.682678,229.831177L406.665833,229.81311L406.619202,229.751587L406.579163,229.685669L406.546204,229.615845L406.520081,229.543335L406.50177,229.468384L406.496399,229.431274L406.42218,229.424194L406.346497,229.409058L406.321594,229.401245L406.290344,229.461548zM407.881897,230.062134L407.954163,230.074829L408.876526,230.195435L409.33844,230.23645L409.340637,230.197144L409.352844,230.120972L409.372864,230.046509L409.388733,230.004761L407.881897,230.062134zM418.94931,202.980972C419.044373,204.243256,419.05127,205.560654,418.969971,206.933182C419.707214,206.579025,420.192291,206.103607,420.423798,205.506912C420.615356,204.963959,420.594666,204.338333,420.363159,203.632782L419.256592,202.816986L418.94931,202.980972zM415.83493,259.393707C415.001221,260.996368,414.844116,262.191132,415.363647,262.97937L415.404999,263.060669L416.285553,263.285309C416.900146,263.325256,417.583679,263.135101,418.334686,262.714783C418.82666,262.429535,419.42749,261.988556,420.137177,261.390503L415.896942,259.435059L415.83493,259.393707zM391.494629,222.823334C392.506134,224.005692,394.097748,225.09848,396.268158,226.104446C395.353149,224.040146,395.025177,222.131561,395.285645,220.378693C394.042633,221.004333,392.778992,221.818756,391.494629,222.823334zM429.131622,228.039215L427.943756,229.811371C427.274017,230.884857,427.035614,231.502228,427.2258,231.666214C427.512421,231.910126,427.909302,231.768188,428.415039,231.23764L429.295624,230.239944L429.376923,230.260605L429.418243,230.260605C429.445831,230.355698,429.219818,230.803558,428.741638,231.604202C428.318573,232.351089,428.244171,232.840302,428.517029,233.071808C428.762299,233.289536,429.083405,233.26886,429.480255,233.009796L430.319489,232.256012L430.25885,232.216049C429.958435,231.998322,429.820648,231.578018,429.848206,230.952393C429.848206,230.585831,429.937775,229.994644,430.11554,229.180237L430.422852,227.48938C429.766907,227.176559,429.40448,226.450333,429.336945,225.309326L428.147705,225.533936L428.230377,226.225708C428.284119,226.52475,428.408142,226.858231,428.598328,227.224792L429.131622,228.039215zM412.925903,261.105225C413.362732,261.594452,413.799561,262.007843,414.23642,262.348236C414.208862,261.613739,414.448639,260.711121,414.954376,259.637634L416.285553,257.315643C417.077911,255.99823,417.979156,254.694611,418.990631,253.403381C417.583679,253.866409,416.257996,254.815872,415.015015,256.25592C414.018677,257.396942,413.122955,258.776367,412.33197,260.391418L412.925903,261.105225zM394.89563,210.558792L393.33847,212.189026C395.182281,211.998856,396.889648,212.114609,398.460632,212.534912C400.318237,213.024109,401.752747,213.879868,402.762878,215.102188L403.111511,214.083817C402.57959,212.62999,401.431671,211.604736,399.669159,211.008041C398.249786,210.532623,396.658142,210.382416,394.89563,210.558792zM412.67923,222.721359C412.67923,222.939087,412.597931,223.096191,412.433929,223.191269C412.064636,224.033264,411.886841,224.942764,411.900635,225.921173C411.914429,226.872009,412.09906,227.788406,412.45459,228.670349L412.45459,228.855011C413.355835,228.47467,414.072418,228.006134,414.605713,227.448029C415.247894,226.770035,415.513855,226.028656,415.404999,225.228012C415.268555,224.235825,414.523041,223.15683,413.171173,221.988251L412.67923,222.721359zM411.655334,229.138885C411.286041,228.215607,411.095856,227.264755,411.082092,226.28772C411.068298,225.281754,411.2323,224.330917,411.572662,223.435181C410.303497,223.760406,409.271332,224.494904,408.478973,225.63591C407.769287,226.681839,407.359985,227.911057,407.249756,229.323547L411.553375,229.159561L411.655334,229.138885zM390.736725,216.507782C392.540588,215.733337,394.391296,215.259293,396.288849,215.081512C398.351776,214.891357,400.243805,215.081512,401.964966,215.652023C401.008606,214.538574,399.601654,213.764114,397.744049,213.330032C396.145508,212.949692,394.493256,212.861496,392.785858,213.065445L392.663208,213.065445C391.829498,214.206467,391.187347,215.35437,390.736725,216.507782zM396.145508,219.972183C395.777588,222.008911,396.248871,224.216537,397.559387,226.59227L397.600739,226.674957L398.809265,227.162781C398.75415,226.4021,398.857513,225.533936,399.116577,224.555527L399.957184,222.06955L401.14505,219.177048C399.696716,218.905579,398.03067,219.170166,396.145508,219.972183zM412.639252,221.54039C411.327362,220.494446,409.402252,219.367218,406.861145,218.158676L405.631927,223.781067C405.48172,224.609283,405.474854,225.44574,405.611267,226.28772C405.775269,227.224792,406.08255,228.018539,406.533173,228.670349C406.792236,227.150375,407.380676,225.838486,408.295685,224.738815C409.291992,223.544052,410.52121,222.804047,411.983307,222.518799L412.639252,221.54039zM430.032867,225.065399C430.032867,225.675873,430.189972,226.158188,430.50415,226.510971L430.996124,226.83757L431.344757,226.939545L430.913422,229.342834C430.640564,230.715363,430.586823,231.455368,430.749451,231.56424C430.85968,231.617981,431.118744,231.522888,431.528046,231.278976C432.403076,230.762222,432.948792,229.730072,433.167908,228.182526C433.249207,227.5569,433.26297,226.728699,433.209229,225.696548C433.209229,225.492599,433.324982,225.383728,433.556519,225.369949C433.803162,225.357544,433.960266,225.438858,434.027802,225.61525C434.233124,226.076889,434.226227,226.993286,434.007111,228.365814C433.72049,230.15863,433.038361,231.367172,431.959351,231.991425C431.370941,232.331802,430.894135,232.446182,430.524811,232.338684L430.462799,232.501297L429.991516,233.417694C429.910217,233.526566,429.88266,233.669876,429.910217,233.846268C429.937775,234.036438,430.02597,234.171478,430.176178,234.252792C430.559265,234.498077,431.187653,234.287231,432.06134,233.621643L432.470612,233.295044L432.819244,232.867859C433.378723,232.174713,433.856903,231.420914,434.253784,230.606506C434.840851,229.397964,435.134369,228.250061,435.134369,227.162781C435.148132,225.629028,434.492188,223.713547,433.167908,221.41774C432.717285,223.047958,431.883575,224.168304,430.668152,224.780151L430.032867,225.065399zM415.444946,211.924438C414.365936,214.81694,413.027863,217.349777,411.429352,219.522934C412.249268,220.012146,413.03476,220.582642,413.785797,221.234467C415.411865,218.680954,416.606628,215.81601,417.37146,212.636887C418.108704,209.512863,418.362244,206.416412,418.129364,203.347519L417.576782,203.57077C417.112366,206.532166,416.401306,209.315811,415.444946,211.924438zM391.064697,222.273499C392.71698,220.942322,394.336151,219.930832,395.920898,219.237686C397.956268,218.341965,399.813873,218.036041,401.493683,218.321289L402.168945,216.711731L402.087616,216.691071C400.338898,215.985519,398.372437,215.727814,396.186859,215.917984C394.206635,216.094376,392.287018,216.609772,390.429413,217.46553L390.163452,218.91246C390.054596,220.093445,390.355011,221.213791,391.064697,222.273499zM413.499146,205.79216C412.256165,205.79216,411.040741,205.472458,409.852875,204.834427C408.623657,204.168839,407.721039,203.319962,407.147766,202.287811L407.045807,205.852798C408.206116,207.06134,409.640656,207.733826,411.348053,207.870239C412.482178,208.032852,413.03476,210.646988,413.007202,215.714035C414.673248,212.534912,415.869385,208.881729,416.592865,204.753128C415.772919,205.444901,414.742157,205.79216,413.499146,205.79216zM396.10556,251.997787C396.036652,252.649597,396.179962,253.41716,396.535522,254.300491C396.753235,254.857208,397.108765,255.564148,397.600739,256.419922C398.61084,258.212738,399.990234,259.590759,401.738983,260.555389C403.869415,261.750153,405.365967,261.926544,406.225861,261.084564C406.66272,260.650482,406.772949,260.052429,406.553833,259.291748C406.444977,258.925171,406.158356,258.320221,405.693939,257.478241C404.818909,257.288086,403.781219,257.492035,402.57959,258.090088C402.292969,258.225128,402.141357,258.157623,402.128967,257.886139C402.115173,257.628448,402.22406,257.438293,402.455566,257.315643C403.42569,256.854004,404.320038,256.60318,405.139984,256.561859L404.238739,255.17691C402.612671,255.937592,401.015503,255.849396,399.44455,254.91095C398.01001,254.05658,396.986115,252.772247,396.371521,251.060715L396.10556,251.997787zM411.26535,208.684662C409.654419,208.549622,408.24057,207.979111,407.025146,206.973145L407.147766,212.087036C407.202911,214.111374,407.147766,215.809128,406.983795,217.180267C408.432098,217.832092,409.721954,218.490784,410.856079,219.156372L412.228607,217.078293L412.167969,217.078293C412.235504,214.688782,412.161072,212.650665,411.941986,210.966705C411.750427,209.512863,411.525818,208.752197,411.26535,208.684662zM402.046295,202.654373C400.994843,203.157349,399.846924,204.094421,398.603943,205.465576C397.429871,206.769196,396.432159,208.169281,395.613586,209.663071C397.210754,209.554214,398.686615,209.716812,400.038483,210.152283C401.650787,210.681442,402.804199,211.530319,403.501495,212.698898C403.705444,211.774231,403.90387,209.886322,404.095428,207.035156C404.259399,204.644257,404.594269,202.783905,405.098633,201.452728C404.430298,201.587769,403.411926,201.988785,402.046295,202.654373zM418.519348,214.348404L418.334686,211.74115C417.569885,215.449463,416.230438,218.76915,414.319092,221.702988C415.629608,222.925308,416.278656,224.135223,416.264893,225.329987C416.251099,226.45723,415.71228,227.461823,414.647064,228.345139C413.813354,229.038284,412.755005,229.595016,411.470673,230.01532L410.098145,230.279907C412.501465,230.470078,414.783478,230.27301,416.941498,229.690109C418.976868,229.133377,420.744873,228.229385,422.246948,226.979507L422.124298,224.147629C420.991547,225.084702,419.741669,225.553238,418.376038,225.553238C418.170715,225.553238,418.020508,225.492599,417.924042,225.369949C417.76004,225.193558,417.685638,224.827011,417.699432,224.270279L417.944702,221.601013C418.300232,218.585876,418.491791,216.168793,418.519348,214.348404zM420.178497,252.996857C419.249725,254.151657,418.307129,255.455292,417.350769,256.907745L416.285553,258.579285L420.936432,260.697327C422.343414,259.461243,423.647034,257.981232,424.850067,256.25592L426.181244,254.177841C426.673218,253.187027,426.76828,252.419464,426.467865,251.876526C426.181244,251.359756,425.545959,251.129623,424.562042,251.183365C423.838593,251.224701,423.135773,251.380432,422.452271,251.651901C421.646118,251.978485,420.888214,252.426361,420.178497,252.996857zM397.210754,249.451172L396.944794,249.919708L396.986115,250.021683C397.436737,251.705643,398.344879,253.017532,399.71051,253.954605C401.212585,254.986755,402.743561,255.114899,404.300751,254.341827L406.225861,252.018463C404.887787,249.13974,403.67926,245.941315,402.60025,242.423172C401.547424,243.237595,400.537323,244.317978,399.5672,245.66156C398.843719,246.653748,398.058228,247.917419,397.210754,249.451172zM405.918579,201.350754C405.399048,202.681931,405.065552,204.569839,404.915344,207.014481C404.737579,209.839462,404.52536,211.754944,404.28009,212.759521C403.979675,213.940506,403.522156,215.306137,402.907562,216.855057L401.226349,220.847229L399.997131,224.087006C399.615417,225.390625,399.525848,226.52475,399.731171,227.48938C401.616333,228.168747,403.582794,228.697922,405.631927,229.078247C404.962219,227.923462,404.654907,226.538528,404.710022,224.922089C404.737579,224.093887,404.908478,223.041077,405.222656,221.764999L406.001251,218.647888C406.260315,217.166489,406.376068,215.380554,406.348511,213.288696L406.2052,207.890915L406.2052,206.158722L406.123901,206.077423L406.2052,205.996109C406.218994,204.447205,406.281006,202.912064,406.389862,201.390717L405.918579,201.350754zM421.366364,204.467865C421.393951,204.92952,421.338806,205.363586,421.202393,205.7715C420.87442,206.694778,420.13028,207.381042,418.969971,207.828903C418.873505,208.074188,418.921753,209.166977,419.113281,211.108643L419.337921,214.348404C419.310333,216.222534,419.120178,218.667175,418.764648,221.682327C418.559326,223.462753,418.477997,224.481125,418.519348,224.738815C419.379242,224.698853,420.206085,224.439774,420.998444,223.964355C421.46283,223.665314,421.844543,223.346985,422.144958,223.006622L422.165649,222.498123C422.220764,221.519714,422.486725,220.019028,422.964905,217.996063L424.214783,212.290985C424.48764,210.159164,424.254761,208.257477,423.517487,206.585907L423.496826,206.483932L421.366364,204.467865zM424.972717,212.453598C424.836273,213.376892,424.515198,214.844498,424.00946,216.855057L423.456848,219.177048C424.562042,220.264328,425.594208,221.445297,426.550568,222.721359L427.881744,224.636841C428.387482,224.759476,429.226715,224.527969,430.402161,223.945068C431.153198,223.564728,431.705811,222.871567,432.06134,221.866974C432.266663,221.322662,432.39621,220.732849,432.449951,220.093445C432.449951,219.903275,432.354858,219.618027,432.1633,219.237686L432.082001,219.075073C431.481171,217.785233,430.709473,216.365845,429.766907,214.81694C428.277252,212.358521,426.673218,210.117828,424.952026,208.093491C425.211121,209.384705,425.217987,210.837158,424.972717,212.453598zM416.347565,232.0121C416.4151,234.143921,416.558411,236.270233,416.777527,238.389664C418.224457,236.935822,419.413696,235.340057,420.342499,233.600983C421.366364,231.69928,421.980988,229.811371,422.18631,227.937241L421.632355,228.2845C420.472046,229.085144,419.092621,229.764511,417.49408,230.321243C415.746735,230.931717,413.526733,231.190781,410.835419,231.095703C407.99527,231.00061,405.625061,230.525192,403.726105,229.669434L403.624146,229.608795L401.186401,228.955612C401.117493,230.952393,401.309021,233.153107,401.759644,235.557785C402.10141,237.336838,402.647095,239.475555,403.398132,241.975311C404.98288,247.176025,406.983795,251.890289,409.402252,256.113983C410.207031,257.512695,411.020081,258.741913,411.839996,259.801605C412.713684,258.090088,413.718262,256.629364,414.851013,255.420837C416.230438,253.940826,417.685638,252.969299,419.215271,252.50766C418.586884,251.570587,418.027405,250.198059,417.535431,248.392838C417.043457,246.612411,416.613525,244.317978,416.244202,241.505402C415.83493,238.205002,415.595154,235.17746,415.527618,232.419998C415.513855,232.202271,415.643372,232.0121,415.916229,231.849487C416.19046,231.69928,416.333771,231.75441,416.347565,232.0121z"/>
</svg>
