<?xml version="1.0" encoding="UTF-8"?>
<svg xmlns="http://www.w3.org/2000/svg" xmlns:xlink="http://www.w3.org/1999/xlink" width="46.433mm" height="64.193mm" viewBox="-373.258301 200.223572 46.433105 64.192871">
    <path transform="matrix(-1,0,0,1,0,0)" style="stroke:none;fill:#000000;fill-rule:evenodd" d="M345.741943,200.230164L345.817871,200.244324L345.891846,200.266052L345.963135,200.295105L346.03125,200.331238L346.095459,200.374207L346.154785,200.423279L346.208984,200.47821L346.257324,200.538269L346.299561,200.602966L346.334717,200.67157L346.363037,200.743347L346.383789,200.817566L346.396729,200.893494L346.402344,200.970398L346.398682,201.060486L346.392578,201.122009L346.487061,201.452087L346.666504,201.908386L346.905273,202.392761L347.178955,202.85907L347.206299,202.826843L347.261475,202.773132L347.322021,202.725281L347.386963,202.683777L347.455811,202.649109L347.527832,202.621521L347.602295,202.601257L347.678467,202.588806L347.755371,202.583923L347.83252,202.586853L347.908936,202.597839L347.983887,202.61615L348.056396,202.642273L348.125977,202.675232L348.191895,202.715271L348.226807,202.740417L348.739258,203.132019L349.257813,203.460632L349.813965,203.749939L350.401367,203.996765L351.001221,204.184998L351.596191,204.319519L352.181396,204.399841L352.76416,204.426941L353.213623,204.409851L353.635254,204.359314L354.02417,204.277039L354.382813,204.164246L354.716309,204.020447L355.025146,203.84613L355.309082,203.642517L355.604492,203.378601L355.664551,203.330017L355.729248,203.288025L355.797852,203.252625L355.869629,203.224304L355.943848,203.203552L356.003418,203.193298L355.999756,203.167175L355.996582,203.090271L356.001221,203.013123L356.013672,202.937195L356.033691,202.862488L356.061279,202.790466L356.095459,202.722595L356.178223,202.576355L356.219482,202.511169L356.26709,202.450623L356.320801,202.395203L356.379639,202.345398L356.443359,202.301697L356.510986,202.264832L356.546875,202.248718L357.483887,201.85614L357.556396,201.830017L357.631348,201.811462L357.70752,201.800232L357.784668,201.797058L357.861572,201.801697L357.937744,201.813904L357.974609,201.823669L357.989014,201.78949L358.026367,201.722107L358.070313,201.65863L358.120361,201.600037L358.176025,201.54657L358.237061,201.499207L358.295166,201.462341L358.553955,201.314148L358.779053,201.174011L358.981689,201.03656L359.176025,200.891541L359.240234,200.848572L359.30835,200.812195L359.379639,200.783142L359.453613,200.761169L359.529541,200.747009L359.606445,200.740662L359.68335,200.741882L359.76001,200.750916L359.835449,200.767761L359.939453,200.804871L360.4021,201.008972L360.470459,201.043396L360.911621,201.29364L360.975098,201.333923L361.394775,201.630066L361.45166,201.6745L361.850098,202.016541L361.900146,202.06366L362.2771,202.451599L362.320068,202.499451L362.675781,202.933289L362.71167,202.980896L363.045898,203.460632L363.075439,203.506531L363.388428,204.03241L363.412109,204.07489L363.647217,204.534363L363.662842,204.566833L363.878906,205.043396L363.892578,205.075623L364.089844,205.570007L364.101563,205.601257L364.280273,206.112976L364.290283,206.143982L364.449951,206.673035L364.458252,206.703064L364.599121,207.249451L364.605957,207.278015L364.728271,207.84198L364.733887,207.8703L364.829102,208.406189L364.849609,208.402771L364.912598,208.394714L365.314209,208.360779L365.389893,208.358093L365.76123,208.363708L365.849365,208.3703L366.189941,208.415222L366.290771,208.435486L366.600586,208.519958L366.709229,208.558533L366.98877,208.682556L367.057617,208.717468L367.098145,208.742371L367.34668,208.905701L367.408936,208.951111L367.447754,208.984802L367.665771,209.187927L367.733887,209.260437L369.171143,211.000916L369.217041,211.062683L369.256592,211.128845L369.289307,211.198914L369.314697,211.271667L369.332764,211.346619L369.342773,211.423035L369.345459,211.500183L369.340088,211.577087L369.328857,211.642273L369.375,211.648865L369.449951,211.667664L369.522461,211.693787L369.592041,211.72699L369.657959,211.767273L369.719238,211.813904L369.775879,211.866394L369.82666,211.9245L369.867188,211.98114L370.424805,212.838074L370.440918,212.863953L370.94751,213.715515L370.963623,213.743835L371.419678,214.590515L371.435303,214.621033L371.840576,215.462341L371.855469,215.495544L372.210205,216.331726L372.224609,216.367859L372.52832,217.199158L372.541016,217.237244L372.794434,218.063416L372.805664,218.104431L373.008057,218.925476L373.022705,219.00116L373.029785,219.078064L373.028809,219.155212L373.020264,219.231873L373.003662,219.307068L372.97998,219.380554L372.94873,219.451111L372.9104,219.518005L372.865723,219.58075L372.814941,219.638855L372.758301,219.691345L372.696777,219.737976L372.630859,219.778015L372.561279,219.811218L372.48877,219.837341L372.482422,219.838806L372.698975,220.194519L372.717529,220.226746L372.952881,220.659607L372.970459,220.693787L373.184082,221.138611L373.213867,221.209656L373.236328,221.283386L373.251221,221.35907L373.258301,221.435974L373.25708,221.522888L373.229248,221.910583L373.223877,221.961609L373.171143,222.338562L373.162109,222.390564L373.084717,222.756775L373.071289,222.810242L372.968994,223.165222L372.95166,223.218201L372.824707,223.562195L372.803467,223.613708L372.651855,223.94696L372.626465,223.997742L372.449951,224.319763L372.421631,224.367371L372.220703,224.678162L372.175537,224.740662L372.124512,224.798279L372.067627,224.850525L372.005859,224.896667L371.939697,224.936462L371.870117,224.969421L371.797363,224.995056L371.722412,225.013123L371.645752,225.023621L371.568848,225.026306L371.547607,225.024841L371.551025,225.099304L371.550537,225.176453L371.54248,225.253113L371.526611,225.328552L371.503174,225.402039L371.472412,225.472839L371.43457,225.539978L371.390137,225.60321L371.3396,225.66156L371.283447,225.714294L371.23584,225.751892L370.174561,226.518005L370.102295,226.564148L369.797852,226.735535L369.774658,226.747986L369.4646,226.90863L369.441406,226.920349L369.126221,227.070251L369.103516,227.080505L368.783447,227.220154L368.711426,227.247253L368.636719,227.267029L368.560547,227.279236L368.483643,227.28363L368.406494,227.280212L368.330322,227.268982L368.283691,227.257263L368.272705,227.277039L368.22876,227.340271L368.178467,227.398865L368.122803,227.452087L368.061768,227.499451L367.996338,227.540222L367.927246,227.574402L367.877441,227.593689L367.027588,227.891052L366.984375,227.904724L366.10083,228.155945L366.058105,228.166687L365.140625,228.371277L365.099365,228.379333L364.147949,228.537048L364.071533,228.545837L363.994385,228.546814L363.91748,228.539978L363.841797,228.52533L363.767822,228.503113L363.696533,228.473572L363.628662,228.437195L363.607178,228.422546L363.588623,228.443542L363.531982,228.495544L363.470215,228.541931L363.404053,228.581482L363.334229,228.614441L363.261475,228.640076L363.186523,228.658142L363.094482,228.669861L362.136719,228.731873L362.087402,228.733337L362.001221,228.733337L362.009766,228.778748L362.016602,228.855652L362.015625,228.932556L362.006592,229.009216L361.992432,229.076355L361.811035,229.770691L361.804688,229.793396L361.604248,230.47406L361.597168,230.496765L361.37793,231.163513L361.369873,231.186951L361.131348,231.839783L361.122314,231.862976L360.86499,232.501892L360.85498,232.525574L360.578369,233.150574L360.567627,233.173767L360.272217,233.784851L360.260498,233.808289L359.946045,234.405457L359.933105,234.42865L359.599609,235.011902L359.586182,235.034851L359.233643,235.604187L359.218994,235.626892L358.847412,236.182312L358.832031,236.204285L358.441406,236.745789L358.425537,236.767273L358.015869,237.295105L357.998779,237.316101L357.570068,237.829773L357.552734,237.849792L357.105225,238.349548L357.087158,238.36908L356.620361,238.855164L356.564209,238.907898L356.50293,238.955017L356.437256,238.9953L356.36792,239.028992L356.29541,239.055359L356.220703,239.074402L356.144531,239.085876L356.067383,239.089294L356.032715,239.087341L356.035889,239.121033L356.307373,241.403259L356.452881,242.467957L356.604004,243.481628L356.759033,244.434265L356.919678,245.333435L357.08374,246.168396L357.250732,246.938171L357.417969,247.632019L357.594971,248.289246L357.783203,248.952576L357.974854,249.56781L358.166992,250.126404L358.362549,250.637878L358.566895,251.117371L358.771729,251.545837L358.977051,251.925476L359.196533,252.280212L359.233887,252.347839L359.263916,252.418884L359.268799,252.434265L359.64209,252.154968L359.687012,252.123962L360.255615,251.759216L360.303711,251.730652L360.890625,251.412292L360.941162,251.38739L361.545898,251.115173L361.605225,251.091492L362.128418,250.906921L362.185547,250.889099L362.713867,250.74823L362.773926,250.734802L363.307129,250.637878L363.368896,250.629333L363.907715,250.576355L363.967041,250.572693L364.325195,250.565613L364.387207,250.567078L364.712158,250.587097L364.786621,250.595398L365.078613,250.642517L365.168213,250.662537L365.426758,250.737L365.528564,250.774353L365.75415,250.875916L365.822754,250.911072L365.865479,250.937683L366.057861,251.066589L366.119873,251.112732L366.16748,251.155945L366.326416,251.311951L366.378662,251.368591L366.420898,251.424255L366.546631,251.607361L366.586914,251.673035L366.614502,251.728699L366.714111,251.952332L366.741943,252.024353L366.759033,252.084412L366.818359,252.331482L366.83252,252.40741L366.837646,252.456726L366.856445,252.727234L366.856201,252.835632L366.834717,253.129578L366.82251,253.220154L366.760498,253.537292L366.742432,253.610291L366.640137,253.950867L366.619873,254.009949L366.477295,254.373474L366.456787,254.420837L366.273926,254.8078L366.224365,254.896423L364.78833,257.112244L364.763672,257.148132L364.325928,257.745789L364.313721,257.762146L363.864014,258.342957L363.851318,258.358826L363.389893,258.922791L363.376465,258.938904L362.90332,259.486023L362.88916,259.501648L362.404541,260.031677L362.389893,260.047302L361.893311,260.56073L361.878174,260.576111L361.370117,261.072449L361.354492,261.087097L360.834961,261.566833L360.775879,261.61615L360.711914,261.659363L360.643799,261.69574L360.57251,261.725281L360.498779,261.747253L360.422852,261.761658L360.346191,261.768494L360.269043,261.767517L360.266113,261.767273L360.266113,261.770203L360.256348,261.846619L360.23877,261.921814L360.213623,261.994812L360.181396,262.06488L360.142334,262.131287L360.096436,262.193298L360.044678,262.250671L359.987549,262.302185L359.951904,262.329529L358.057129,263.695007L357.969482,263.749695L357.671631,263.908142L357.631348,263.927917L357.341064,264.060974L357.295654,264.080017L357.013428,264.187927L356.960449,264.205994L356.685791,264.288513L356.625977,264.303894L356.359131,264.361023L356.293213,264.372253L356.034424,264.404236L355.96167,264.409607L355.710449,264.416443L355.632568,264.41449L355.389404,264.396179L355.312744,264.386658L355.243896,264.371033L354.494385,264.164246L354.421143,264.139832L354.35083,264.108337L354.283936,264.070007L354.221191,264.024841L354.163574,263.973816L354.111328,263.916931L354.064941,263.855408L354.025146,263.789246L353.98999,263.713806L353.971436,263.667664L353.90918,263.564148L353.87207,263.494324L353.82666,263.397156L353.78125,263.417175L353.707764,263.440857L353.632324,263.45697L353.555664,263.465515L353.478516,263.466003L353.401855,263.458923L353.326172,263.444031L353.252197,263.42157L353.181152,263.391785L353.113281,263.355164L353.049561,263.311707L352.980957,263.252625L351.502197,261.823669L351.452393,261.770691L350.974365,261.211121L350.927246,261.150085L350.886719,261.084656L350.852783,261.01532L350.826172,260.94281L350.806885,260.868103L350.801758,260.834412L350.733643,260.807068L350.665527,260.771179L350.601074,260.728699L350.541504,260.679871L350.487061,260.625183L350.450439,260.581238L350.108398,260.138611L350.098633,260.125916L349.759277,259.666931L349.750488,259.65448L349.413574,259.179138L349.405029,259.166931L349.070801,258.675476L349.062988,258.664001L348.731201,258.156433L348.723877,258.144714L348.394775,257.620789L348.387939,257.609802L348.061523,257.069763L348.055176,257.059021L347.731201,256.502625L347.724854,256.491394L347.251953,255.647156L347.246094,255.636658L346.785156,254.782166L346.779541,254.771423L346.330566,253.906189L346.324951,253.895203L345.888184,253.01947L345.882813,253.008484L345.810791,252.857849L344.006592,255.022644L344.902832,256.381775L344.941895,256.448181L344.974121,256.51825L344.999023,256.591248L345.016602,256.666443L345.026367,256.742859L345.02832,256.820007L345.022461,256.896912L345.009033,256.972839L345.001953,256.997498L345.002197,256.997498L345.075684,257.020935L345.146484,257.051697L345.213867,257.089294L345.276855,257.133728L345.335205,257.184021L345.388184,257.240173L345.435059,257.301453L345.472168,257.360535L345.641357,257.661072L345.646729,257.670837L345.799316,257.951355L345.805176,257.962341L345.941406,258.222839L345.947754,258.235046L346.067871,258.475281L346.075684,258.491638L346.179443,258.712097L346.188232,258.731628L346.275635,258.931824L346.285889,258.955994L346.357178,259.135925L346.368896,259.168152L346.424072,259.328064L346.445068,259.399841L346.512451,259.682556L346.526611,259.759705L346.561768,260.02655L346.568359,260.114929L346.572021,260.365906L346.566406,260.468933L346.537842,260.704529L346.516602,260.813416L346.456543,261.033386L346.432373,261.106628L346.41626,261.145447L346.324219,261.350037L346.289063,261.41864L346.266357,261.455505L346.142334,261.64447L346.072998,261.734802L345.91748,261.908386L345.847412,261.97699L345.680908,262.120544L345.602783,262.179626L345.420654,262.299744L345.335938,262.348083L345.138184,262.444763L345.050781,262.480896L344.837402,262.554138L344.751221,262.578308L344.522217,262.627869L344.442627,262.640564L344.197998,262.666931L344.125,262.671326L343.86499,262.674255L343.799316,262.672058L343.523438,262.651306L343.467041,262.644958L343.175537,262.601013L343.125244,262.591736L342.818115,262.524109L342.774902,262.513367L342.452393,262.422302L342.415283,262.410583L342.076904,262.296082L342.044189,262.284363L341.69043,262.146423L341.662354,262.134705L341.292725,261.973328L341.267578,261.961853L340.882568,261.776794L340.861328,261.766296L340.460449,261.558044L340.421875,261.536316L339.763672,261.144226L339.719238,261.115906L339.0979,260.684998L339.054443,260.652527L338.470459,260.182556L338.429199,260.146667L337.882568,259.638123L337.84375,259.599548L337.333984,259.051941L337.298584,259.010925L336.825928,258.4245L336.793701,258.381531L336.358398,257.756042L336.330566,257.71283L335.932129,257.048767L335.917725,257.023621L335.732422,256.686462L335.728516,256.679382L335.55835,256.361755L335.553955,256.353699L335.398682,256.055359L335.394043,256.046326L335.253662,255.767517L335.248291,255.756531L335.122803,255.497009L335.116211,255.482605L335.006104,255.242371L334.999268,255.227234L334.903809,255.006287L334.895508,254.986267L334.815186,254.784851L334.809082,254.769226L334.683838,254.434021L334.672852,254.402771L334.567871,254.079529L334.557617,254.044373L334.4729,253.733337L334.463379,253.694519L334.398682,253.395935L334.390381,253.351501L334.345947,253.065125L334.339844,253.015808L334.31543,252.741882L334.3125,252.686218L334.30835,252.424255L334.309814,252.363953L334.325684,252.114441L334.333496,252.043396L334.373779,251.78949L334.385742,251.730652L334.444336,251.487244L334.461182,251.427429L334.537842,251.194275L334.560059,251.135193L334.654541,250.912048L334.688232,250.842712L334.728516,250.777039L334.775635,250.715759L334.828369,250.659607L334.886719,250.60907L334.949707,250.564636L335.016846,250.526794L335.087646,250.496033L335.161133,250.472595L335.236572,250.456726L335.276855,250.452332L335.264648,250.413025L335.234863,250.341003L335.208984,250.26825L335.190674,250.193298L335.180176,250.116882L335.177246,250.039734L335.182129,249.96283L335.194824,249.886902L335.215332,249.812439L335.24292,249.740417L335.284424,249.660339L335.550537,249.213318L335.852051,248.661316L335.857178,248.652039L336.163574,248.10907L336.168945,248.099548L336.471436,247.581238L336.477539,247.570984L336.776123,247.077087L336.782959,247.065857L337.077637,246.596863L337.085205,246.585388L337.375977,246.140808L337.384521,246.127869L337.671387,245.707947L337.680908,245.694275L337.963867,245.299011L337.97168,245.288513L338.342773,244.788513L338.356201,244.770691L338.730713,244.295837L338.745361,244.277771L339.122803,243.828064L339.139648,243.808777L339.520752,243.38446L339.538574,243.365417L339.922607,242.966248L339.942627,242.946228L340.330078,242.572449L340.351807,242.552185L340.742676,242.203552L340.76709,242.1828L341.161377,241.859802L341.223389,241.813904L341.289795,241.774597L341.359863,241.742126L341.432861,241.71698L341.507813,241.699402L341.573975,241.690857L341.537109,241.564148L341.53418,241.554138L341.272705,240.609802L341.270264,240.600769L341.028076,239.6828L341.025635,239.673767L340.802246,238.782166L340.800049,238.772156L340.595459,237.907166L340.593018,237.896667L340.407227,237.058044L340.404785,237.04657L340.238037,236.234802L340.235596,236.222595L340.087646,235.437439L340.085205,235.4245L339.955811,234.665955L339.953125,234.649353L339.814941,233.715515L339.8125,233.69696L339.699707,232.780701L339.697754,232.761658L339.610107,231.862976L339.608398,231.842468L339.546387,230.961365L339.545166,230.940369L339.508301,230.076599L339.507568,230.054382L339.496094,229.208191L339.496094,229.184998L339.510254,228.356384L339.51123,228.332458L339.550537,227.521179L339.558105,227.444519L339.573486,227.368835L339.596191,227.295105L339.626465,227.224304L339.663818,227.156677L339.707764,227.093201L339.757813,227.034607L339.813477,226.981384L339.874268,226.934021L339.930176,226.899109L339.919434,226.884705L339.872803,226.81488L339.810791,226.709412L339.76001,226.605652L339.720459,226.506531L339.695557,226.433533L339.679932,226.367859L339.662109,226.275085L339.651367,226.198669L339.649414,226.090515L339.654053,226.004089L339.662109,225.927429L339.765625,225.264099L339.832275,224.571716L339.864746,223.831238L339.862549,223.023376L339.866211,222.946472L339.877686,222.870056L339.896729,222.795349L339.92334,222.723083L339.957031,222.653748L339.997803,222.588074L340.044678,222.527039L340.05542,222.515564L340.022949,222.483826L339.973389,222.424744L339.930176,222.361023L339.893555,222.292908L339.864014,222.221863L339.841797,222.147888L339.827148,222.072205L339.820801,222.006042L339.80542,221.714783L339.796631,221.688171L339.796143,221.686218L339.512451,222.027039L339.087158,222.582214L338.668213,223.157166L338.250732,223.760437L337.861328,224.352234L337.463379,224.988953L337.093994,225.610779L336.718262,226.277039L336.374023,226.919861L335.258301,229.404236L335.287354,229.416199L335.355225,229.45282L335.419189,229.496033L335.478271,229.545349L335.532227,229.600769L335.580322,229.661072L335.621826,229.726013L335.646729,229.773376L335.807861,230.107117L335.972412,230.383972L336.146484,230.621521L336.336182,230.831482L336.640381,231.114929L336.964355,231.378845L337.30542,231.620789L337.692139,231.859314L337.703613,231.866638L338.057861,232.093933L338.120605,232.138855L338.178467,232.18988L338.239746,232.257019L338.406494,232.463806L338.45166,232.526062L338.490479,232.592957L338.532959,232.691589L338.567383,232.790466L338.588867,232.864441L338.605957,232.966248L338.614746,233.055359L338.618408,233.132263L338.614258,233.209412L338.602295,233.286072L338.585693,233.365417L338.566162,233.440125L338.539063,233.51239L338.492188,233.60321L338.450195,233.672791L338.406982,233.736755L338.357666,233.795837L338.304688,233.847839L338.237549,233.907654L338.17749,233.955994L338.09375,234.008728L338.000977,234.059021L337.931396,234.092224L337.883789,234.110291L337.765625,234.150574L337.679688,234.1745L337.536377,234.205261L337.460205,234.217468L337.383301,234.222107L337.288086,234.21698L335.871338,234.051453L335.795166,234.038757L335.720947,234.01825L335.648682,233.990173L334.463379,233.460144L334.492676,233.981384L334.679199,236.394714L334.719482,236.777039L334.719971,236.782654L334.748535,237.074158L334.749512,237.083191L334.772949,237.356628L334.773682,237.367371L334.791992,237.62323L334.792725,237.635437L334.805908,237.87323L334.806641,237.888367L334.814453,238.108582L334.814941,238.126404L334.817383,238.328796L334.817383,238.348083L334.814941,238.532654L334.814209,238.558289L334.806396,238.725281L334.804199,238.755554L334.79126,238.90448L334.786865,238.943787L334.768555,239.075134L334.760254,239.123962L334.736816,239.237488L334.720703,239.301453L334.692139,239.397156L334.6604,239.483582L334.626465,239.561462L334.592285,239.630554L334.567627,239.671326L334.528564,239.731628L334.483398,239.794128L334.413818,239.869568L334.369385,239.911804L334.311035,239.962097L334.247559,240.006287L334.183838,240.041687L334.134277,240.066345L334.063721,240.097351L333.990234,240.120789L333.951904,240.129822L333.873047,240.146423L333.796875,240.15863L333.692871,240.162537L333.612793,240.160095L333.535889,240.153748L333.446533,240.136414L333.364746,240.115417L333.291016,240.092468L333.224854,240.064392L333.141846,240.024597L333.073975,239.987976L333.037842,239.964294L332.953125,239.905701L332.876465,239.845154L332.790527,239.767761L332.737305,239.714783L332.649658,239.618591L332.609863,239.571472L332.520996,239.456482L332.493408,239.418152L332.402832,239.284607L332.380859,239.250183L332.289063,239.097839L332.272705,239.069519L332.179199,238.898132L332.166504,238.873962L332.071533,238.684021L332.061035,238.662048L331.964844,238.453308L331.957031,238.435974L331.859131,238.208679L331.852295,238.192322L331.75293,237.945984L331.747559,237.93158L331.739014,237.909363L331.709473,237.922302L331.635986,237.945496L331.560303,237.961365L331.483643,237.969421L331.406494,237.969666L331.306641,237.958191L331.077881,237.916687L331.002686,237.899109L330.923828,237.871521L330.782715,237.813416L330.700195,237.773376L330.563477,237.696716L330.49292,237.652039L330.360352,237.557312L330.299316,237.508972L330.170898,237.395691L330.121094,237.347351L329.99707,237.216003L329.955811,237.16864L329.835938,237.018738L329.803711,236.975281L329.687988,236.807312L329.661377,236.765808L329.550049,236.579529L329.529053,236.542175L329.421875,236.337585L329.405273,236.303894L329.302246,236.080994L329.288574,236.0495L329.189941,235.808289L329.18042,235.783875L329.115234,235.792908L329.038086,235.795837L328.975098,235.792175L328.794434,235.774597L328.718018,235.763367L328.640625,235.743591L328.473633,235.691345L328.401367,235.66449L328.324707,235.626404L328.171387,235.539246L328.106201,235.497986L328.045898,235.450134L327.90625,235.32782L327.85083,235.274109L327.813477,235.23114L327.6875,235.073914L327.624512,234.982117L327.512207,234.790222L327.470947,234.709167L327.372314,234.482117L327.346191,234.412781L327.261475,234.150574L327.246582,234.098328L327.101563,233.50946L327.092285,233.466492L326.979736,232.860046L326.973145,232.817566L326.893311,232.193787L326.88916,232.153259L326.841797,231.512146L326.840088,231.473328L326.825195,230.81488L326.825195,230.777771L326.842773,230.101746L326.844482,230.066589L326.894531,229.372986L326.897705,229.340027L326.980225,228.629089L326.987061,228.582703L327.071533,228.111267L327.083496,228.056091L327.212402,227.553894L327.225586,227.50824L327.398682,226.974792L327.412354,226.936218L327.629395,226.372009L327.660645,226.301697L327.698975,226.234558L327.743896,226.171814L327.794678,226.113953L327.851318,226.061462L327.912842,226.015076L327.97876,225.975037L328.04834,225.941833L328.121094,225.915955L328.196045,225.897644L328.272461,225.886658L328.302734,225.885437L328.296387,225.863953L328.278809,225.788757L328.270996,225.736511L328.253418,225.578796L328.248779,225.501648L328.25,225.450867L328.261719,225.246277L328.270264,225.168396L328.310791,224.917175L328.320557,224.867126L328.38916,224.569763L328.419434,224.470154L328.469238,224.33905L328.62207,223.770447L328.625244,223.758972L328.801758,223.141052L328.804932,223.129578L328.995361,222.499939L328.998535,222.489929L329.202393,221.848572L329.205811,221.838318L329.42334,221.185486L329.426514,221.176453L329.657471,220.511658L329.660645,220.502136L329.905518,219.825867L329.908691,219.817566L330.166992,219.129333L330.170166,219.121033L330.606201,217.999207L330.612305,217.98407L331.066406,216.886169L331.072998,216.870544L331.54541,215.79657L331.55249,215.780945L332.042969,214.730896L332.050781,214.715027L332.55957,213.68866L332.567871,213.672302L333.094971,212.670105L333.103516,212.653992L333.648682,211.675476L333.658203,211.658875L334.22168,210.704285L334.233643,210.684753L334.836426,209.730408L334.850098,209.709656L335.47168,208.793396L335.486572,208.772156L336.126953,207.894226L336.143311,207.872742L336.80249,207.032898L336.820068,207.011169L337.498291,206.209656L337.517334,206.187927L338.214355,205.424744L338.234863,205.403259L338.950684,204.678162L338.972656,204.656921L339.707275,203.970154L339.737305,203.943298L340.531494,203.276062L340.556152,203.256287L341.376465,202.62323L341.401611,202.604675L342.247559,202.00531L342.273193,201.987976L343.144775,201.422302L343.211426,201.383728L343.281738,201.35199L343.35498,201.327576L343.430176,201.310486L343.506836,201.301208L343.583984,201.299744L343.631348,201.30365L343.644287,201.253357L343.671143,201.180847L343.705078,201.111755L343.74585,201.046326L343.792969,200.985291L343.846191,200.929382L343.904541,200.879089L343.968018,200.8349L344.0354,200.797546L344.093994,200.771667L345.363037,200.275574L345.436035,200.25116L345.511475,200.234314L345.587891,200.225037L345.665039,200.223572L345.741943,200.230164zM360.007568,222.360291L360.01416,222.358582L360.026367,222.356628L360.001221,222.322693L360.007568,222.360291zM360.193878,215.3582C360.984863,215.704086,361.6987,216.096832,362.338104,216.539185L361.691803,215.048141L361.650482,215.068817C361.179169,215.096375,360.692719,215.192841,360.193878,215.3582zM360.276581,212.044022C359.652313,212.458801,359.069397,213.238785,358.527832,214.3853L359.069397,214.881393L359.256805,214.944794C359.853516,214.612686,360.546661,214.378418,361.337646,214.240616L360.276581,212.044022zM369.728516,225.900192L370.789612,225.134003C370.775848,223.725647,369.971069,222.427536,368.375305,221.241043C368.707397,223.145493,368.743225,224.906631,368.478638,226.521683C368.9086,226.342545,369.326141,226.135834,369.728516,225.900192zM361.192963,225.610809C361.053772,224.796387,360.713409,223.959915,360.171844,223.104156C360.158051,223.973694,359.936188,224.817047,359.506256,225.63147C359.090088,226.404556,358.514069,227.094955,357.778198,227.702667L360.818146,227.97139C361.248077,227.336105,361.373474,226.549255,361.192963,225.610809zM363.85672,209.559418L363.691345,209.683441L364.231537,210.656342L365.001862,212.085358C365.765289,211.603043,366.958679,211.401855,368.583374,211.485916L367.146088,209.745453C366.605896,209.15152,365.737732,208.979263,364.544342,209.22731L363.85672,209.559418zM352.844818,219.521255C353.469055,218.73439,354.315186,217.940643,355.384521,217.139999L352.282562,214.261276C352.337677,216.360031,352.226074,218.582809,351.949097,220.929611L352.657379,219.748627L352.844818,219.521255zM354.696899,263.429688L355.446533,263.636383C356.084564,263.719086,356.806671,263.533051,357.61145,263.076904L359.506256,261.711273L355.113068,259.681427C354.266937,261.310272,354.113983,262.525696,354.655548,263.326324L354.696899,263.429688zM359.631653,201.502029C359.367065,201.710114,359.048737,201.916809,358.67392,202.12352C360.242126,204.098251,361.796539,206.410599,363.337189,209.061951L364.086853,208.585144C363.836029,207.011429,363.385406,205.623734,362.733612,204.422089C361.92746,202.958618,360.893921,201.985718,359.631653,201.502029zM351.553589,260.716339L352.031769,261.275818L353.510406,262.704834C353.469055,261.945526,353.711578,261.020874,354.23938,259.929474L355.57193,257.568878C356.41806,256.18811,357.341339,254.862427,358.340424,253.591873C356.911407,254.075562,355.558167,255.048462,354.280731,256.511932C353.254089,257.686035,352.344574,259.087494,351.553589,260.716339zM366.834656,216.041702C367.376221,217.381165,367.806152,218.693054,368.124481,219.977386L368.333954,220.018723C369.16629,220.529984,369.859436,221.129425,370.414795,221.819824C371.054199,222.592896,371.44281,223.408707,371.580627,224.264465C372.14975,223.450043,372.455658,222.517105,372.497009,221.468414C371.955444,220.266769,371.18512,219.190521,370.186035,218.236923C369.186951,217.27092,368.069366,216.539185,366.834656,216.041702zM365.335358,212.748199L366.375763,214.944794L366.605896,214.924118C367.71521,215.28241,368.770782,215.82811,369.769867,216.559845C370.741394,217.291595,371.57373,218.140457,372.26825,219.107849C371.795593,216.925034,370.782715,214.688477,369.228302,212.39679L369.040894,212.417465L367.188812,212.334778C366.38266,212.36235,365.765289,212.500153,365.335358,212.748199zM346.556824,203.304504C346.085541,202.558975,345.772705,201.854797,345.619751,201.191971L345.640411,200.98526L344.371246,201.481354C344.63446,203.084015,345.446106,204.816208,346.806244,206.680695C347.514557,207.660477,348.771332,209.123962,350.575165,211.071121C352.463074,213.12854,354.349609,214.958572,356.237549,216.559845C356.90451,216.131287,357.556305,215.759216,358.194336,215.440887C356.292664,213.784485,354.335846,211.954453,352.323914,209.952164C350.588959,208.226852,349.130981,206.632462,347.951385,205.168991L346.556824,203.304504zM362.774963,218.071564C361.71936,217.21579,360.457092,216.484055,358.985352,215.876343C357.126373,216.759674,355.627075,217.733932,354.4888,218.796402C355.515442,218.589706,356.577911,218.761963,357.674835,219.314545C358.71524,219.839584,359.631653,220.605774,360.422638,221.613113C361.213623,222.621841,361.726257,223.677414,361.963287,224.782608C362.226501,225.98288,362.114868,227.053619,361.629791,227.99205L361.858551,227.97139L362.087311,227.97139L363.045044,227.909378C363.920105,226.943375,364.315582,225.562576,364.231537,223.766998C364.176422,222.579117,363.892548,221.115646,363.37854,219.376556L362.962372,218.133575L362.774963,218.071564zM352.157166,222.87677C352.045532,224.133545,352.469971,225.168457,353.427704,225.98288C354.232483,226.673279,355.370758,227.184525,356.841125,227.516632C357.896698,226.840012,358.624298,225.962204,359.026672,224.885956C359.458008,223.766998,359.437347,222.642517,358.964661,221.509766L358.71524,221.261719C357.965607,220.557541,357.112579,220.066956,356.154846,219.789978C355.044159,219.459244,354.093323,219.55571,353.302307,220.080734C352.636719,220.964066,352.255005,221.895615,352.157166,222.87677zM335.522858,254.502747C335.717163,255.014008,336.07132,255.731964,336.585327,256.656616C337.598206,258.479767,339.006531,259.888123,340.811768,260.881683C342.990448,262.055786,344.50354,262.228027,345.34967,261.399841C345.807159,260.957489,345.92569,260.351135,345.703796,259.576691C345.5784,259.177063,345.280762,258.562439,344.808075,257.734253C343.920624,257.541321,342.865051,257.748047,341.644104,258.355743C341.365753,258.493561,341.221069,258.424652,341.207275,258.147675C341.178345,257.885834,341.283081,257.692902,341.518707,257.568878C342.517792,257.098969,343.434174,256.844055,344.26651,256.801331L343.351501,255.413635C341.699219,256.174316,340.075897,256.076477,338.47876,255.124252C337.022156,254.2547,335.98175,252.949707,335.35614,251.209244C335.218323,251.5,335.12738,251.816956,335.086029,252.162842C335.01712,252.811905,335.161804,253.591873,335.522858,254.502747zM348.909119,204.795532C349.992279,206.134995,351.477783,207.729385,353.364319,209.580093L357.965607,213.908508C358.534729,212.748199,359.200317,211.906219,359.963745,211.38118C358.770386,208.924133,357.487427,206.445053,356.112122,203.946671C355.279785,204.774872,354.162201,205.189651,352.760742,205.189651C351.900848,205.189651,351.025787,205.0298,350.138336,204.71286C349.249512,204.380753,348.458496,203.925995,347.763977,203.34584L348.909119,204.795532zM327.736938,228.716904C327.473755,230.636505,327.556427,232.368698,327.986389,233.916245C328.194458,234.661758,328.548615,235.033829,329.048828,235.033829L328.840759,233.522125C328.674011,232.459656,328.701569,231.824371,328.923431,231.616302C329.007507,231.533615,329.188019,232.341141,329.465027,234.040268C329.867401,235.86203,330.450317,236.905212,331.213745,237.167038L331.442505,237.208374L331.52655,237.167038L331.151733,234.868469C330.943634,233.349869,330.991882,232.542343,331.296417,232.445877C331.339142,232.445877,331.483826,233.143158,331.73465,234.537735L332.358887,237.395782C332.900452,238.859268,333.378632,239.522095,333.7948,239.384293C334.073181,239.300232,334.128296,238.458252,333.961548,236.856979L333.920197,236.46286L333.732788,234.040268L333.650116,232.569901L333.691467,232.361816C333.719025,232.306686,333.996002,232.404541,334.523804,232.652588L335.959717,233.294739L337.376343,233.460114C337.79248,233.391205,337.938568,233.218964,337.813171,232.941971L337.646423,232.73526L337.292267,232.507889C336.736908,232.18956,336.238068,231.810593,335.794342,231.368256C335.460846,231.037521,335.182495,230.615845,334.960632,230.104584L331.691925,229.98056C330.207764,229.552002,329.090179,228.441299,328.340515,226.645706C328.022217,227.418793,327.819641,228.109192,327.736938,228.716904zM359.547577,253.177078C358.562286,254.36496,357.604553,255.690628,356.674377,257.154114L355.57193,258.851837L360.317902,261.00708C361.71936,259.750336,362.996826,258.314392,364.148865,256.697968L365.584778,254.482086C366.126343,253.419617,366.237946,252.603821,365.918243,252.038818C365.627502,251.513794,364.981201,251.279526,363.982117,251.334641C363.26001,251.375977,362.553101,251.534454,361.858551,251.810059C361.040009,252.142181,360.269684,252.596924,359.547577,253.177078zM350.303711,225.858856C346.417633,225.569458,343.19165,224.622757,340.624359,223.021469C340.651917,224.154221,340.581635,225.16156,340.414917,226.044891C340.373566,226.266754,340.567871,226.556137,340.997803,226.915802L341.955536,227.578644C342.732758,228.102295,343.795227,228.59288,345.141571,229.049011C347.320251,229.766968,349.526489,230.111481,351.761658,230.083923C354.107086,230.042572,356.27887,229.58783,358.278412,228.716904L356.717102,228.448181C356.577911,228.489532,356.473175,228.46196,356.404266,228.365509C353.378113,227.564865,351.706543,226.156509,351.386841,224.140442C351.164978,224.982422,350.956909,225.500565,350.762604,225.693481C350.65097,225.803726,350.513153,225.858856,350.346436,225.858856L350.303711,225.858856zM356.841125,202.951721L356.758423,203.097794C358.770386,206.784042,360.48465,210.153351,361.899902,213.20433C363.191132,215.993469,364.030334,218.168015,364.418945,219.727966C364.82135,221.316833,365.029419,222.690735,365.044586,223.84967C365.05835,225.452332,364.717987,226.762848,364.023438,227.785355C365.314667,227.606201,366.514954,227.301666,367.625641,226.874466C368.041809,224.443604,367.778595,221.744034,366.834656,218.775742C366.1539,216.649429,365.029419,214.142776,363.461212,211.257156C361.755188,208.082153,359.860413,205.18277,357.778198,202.558975L356.841125,202.951721zM338.583496,245.742569C337.833832,246.763687,337.042847,248.048019,336.21051,249.594177L335.939026,250.050308L335.98175,250.153671C336.43927,251.865189,337.362549,253.197754,338.750244,254.151352C340.2771,255.200043,341.831512,255.330963,343.413513,254.544098L345.328979,252.245529C343.871033,249.139435,342.643188,245.873474,341.644104,242.449051C340.588531,243.277252,339.568787,244.375549,338.583496,245.742569zM340.227478,204.526825C338.243103,206.307251,336.45993,208.495575,334.87793,211.091797C333.351074,213.605331,332.018524,216.37381,330.880249,219.397232C330.173309,221.24794,329.611084,222.973236,329.194916,224.574524L329.131531,224.741257C329.021271,225.168457,328.985443,225.473007,329.028168,225.652145C329.179749,226.259857,329.416779,226.826233,329.735107,227.349884C330.290466,228.289703,330.978088,228.875381,331.796661,229.111023C333.115417,229.469315,334.002899,229.538208,334.461792,229.317734L335.689606,226.583694C336.647339,224.748154,337.723602,223.069702,338.916962,221.551102C340.193054,219.949829,341.962433,218.305817,344.225189,216.621857L347.265137,214.550674L347.38916,215.3582L345.036835,217.160675C343.233002,218.637939,341.726807,220.066956,340.519623,221.447754L340.560974,221.571777L340.581635,221.965897C341.317505,222.517105,342.275269,223.028366,343.454865,223.498276C345.46817,224.312698,347.722626,224.823944,350.221008,225.030655C350.54071,224.519394,350.845276,223.076599,351.137421,220.70224C351.45575,218.050888,351.546692,215.606247,351.407501,213.36969L349.720795,211.60994C348.001007,209.745453,346.757996,208.288864,345.994568,207.240173C344.675781,205.389465,343.864136,203.662796,343.55957,202.061508C342.379974,202.793243,341.269287,203.614563,340.227478,204.526825zM340.311554,227.557968C340.172363,229.698059,340.304657,232.0242,340.707031,234.537735C341.026764,236.524872,341.546265,238.797256,342.268372,241.350754C343.795227,246.722351,345.834717,251.644699,348.389618,256.119202C349.249512,257.624023,350.138336,258.956573,351.053345,260.115509C351.928406,258.390198,352.948151,256.89917,354.113983,255.642395C355.515442,254.137573,356.99408,253.149521,358.548492,252.680984C357.924255,251.741165,357.36203,250.346588,356.861786,248.497269C356.376709,246.798141,355.93988,244.465118,355.55127,241.496826C355.147522,238.430695,354.898071,235.352158,354.801636,232.258453C354.801636,232.037979,354.939423,231.845047,355.217773,231.679688C355.480988,231.526718,355.620178,231.581848,355.633942,231.845047C355.689087,233.70816,355.835144,235.8703,356.070801,238.327347C358.610504,235.772461,360.338593,232.625015,361.254974,228.883652L359.755676,228.861603L359.423553,228.840927L359.1521,229.152359C357.01474,230.214828,354.690002,230.80188,352.177826,230.912125C349.859985,231.023743,347.473206,230.726089,345.016174,230.021912C343.100708,229.455536,341.532501,228.634216,340.311554,227.557968z"/>
</svg>
