<?xml version="1.0" encoding="UTF-8"?>
<svg xmlns="http://www.w3.org/2000/svg" xmlns:xlink="http://www.w3.org/1999/xlink" width="46.530mm" height="66.013mm" viewBox="-310.710144 199.313095 46.530273 66.012711">
    <path transform="matrix(-1,0,0,1,0,0)" style="stroke:none;fill:#000000;fill-rule:evenodd" d="M281.426941,199.316025L282.098816,199.376572L282.254333,199.376572L282.331482,199.380478L282.407654,199.392197L282.482361,199.411484L282.554626,199.438095L282.623962,199.472031L282.689392,199.512802L282.750427,199.560165L282.806335,199.613144L282.856628,199.671738L282.900574,199.73497L282.938171,199.802353L282.969177,199.874619L283.118103,200.278183L283.141052,200.351913L283.156677,200.427597L283.159119,200.461777L283.212341,200.661484L283.29657,200.921738L283.398865,201.191757L283.517029,201.464951L283.652771,201.744247L283.808044,202.033554L283.979431,202.32579L284.156433,202.604843L284.485046,203.028427L284.517273,202.987656L284.570984,202.932236L284.629822,202.882675L284.693787,202.839218L284.761414,202.802353L284.832703,202.772812L284.906433,202.750351L284.982117,202.735458L285.059021,202.728378L285.136169,202.729355L285.21283,202.737656L285.288269,202.754013L285.361511,202.777695L285.461609,202.82457L285.948181,203.096054L286.415466,203.320663L286.888123,203.511826L287.354187,203.664902L287.825134,203.784531L288.295593,203.869492L288.768982,203.920273L289.246521,203.937363L289.664978,203.922226L290.06073,203.878281L290.431335,203.805771L290.777527,203.70665L291.104919,203.579697L291.412537,203.425644L291.701355,203.24498L292.002869,203.013535L292.066345,202.969833L292.133972,202.932724L292.205017,202.902451L292.278748,202.879745L292.354187,202.864365L292.431091,202.856796L292.50824,202.85704L292.5849,202.865097L292.660339,202.880966L292.733826,202.904404L292.804626,202.934921L292.872009,202.972519L292.904968,202.995712L292.935242,202.978378L293.005798,202.947372L293.079041,202.923447L293.126404,202.913437L292.991882,202.667587L292.958435,202.598251L292.932068,202.525742L292.913025,202.451035L292.901794,202.374619L292.898376,202.297714L292.902771,202.220566L292.914734,202.144394L292.934509,202.069931L292.961609,201.997665L292.996033,201.928574L293.037048,201.863388L293.084656,201.802597L293.138123,201.746933L293.19696,201.697128L293.260437,201.653183L293.328064,201.616074L293.396179,201.587021L293.930847,201.389511L294.434265,201.162216L294.506042,201.13414L294.580261,201.113388L294.656189,201.100204L294.733337,201.094833L294.810242,201.097275L294.886902,201.107529L294.924988,201.116806L294.92865,201.104843L294.959167,201.034042L294.996521,200.96666L295.040466,200.903183L295.090515,200.844589L295.146423,200.791367L295.214783,200.738876L296.025085,200.187607L296.091003,200.147568L296.160583,200.114365L296.233337,200.088242L296.308044,200.069687L296.38446,200.058945L296.461609,200.055771L296.538513,200.06041L296.614685,200.072861L296.716248,200.102402L297.221375,200.287704L297.296326,200.319687L297.778015,200.55748L297.847839,200.596786L298.30658,200.886826L298.3703,200.931747L298.805603,201.274033L298.861511,201.322617L299.273621,201.717148L299.321716,201.767441L299.710632,202.214462L299.750427,202.264511L300.11615,202.763779L300.148865,202.812119L300.49115,203.363632L300.515076,203.405136L300.770935,203.881943L300.788269,203.916367L301.023621,204.413925L301.039001,204.448349L301.253601,204.966415L301.266296,204.999619L301.460388,205.538193L301.471375,205.570663L301.644958,206.12999L301.653992,206.161484L301.806824,206.741318L301.814148,206.771591L301.946472,207.371933L301.952332,207.40123L302.061462,208.009384L302.149597,207.99791L302.224548,207.991562L302.661072,207.977402L302.746521,207.979599L303.15448,208.012314L303.250671,208.02623L303.629822,208.106064L303.732117,208.135117L304.082947,208.26207L304.18573,208.307968L304.507751,208.481796L304.603943,208.543808L304.8974,208.764755L304.98114,208.837753L305.246033,209.10582L305.310486,209.180038L306.440369,210.66539L306.483826,210.729111L306.520691,210.796982L306.55072,210.868027L306.573181,210.941757L306.588074,211.017441L306.595154,211.094345L306.594666,211.171494L306.586121,211.248154L306.570007,211.323593L306.569519,211.325302L306.623474,211.333359L306.698181,211.352402L306.770691,211.378769L306.840027,211.41246L306.905701,211.452988L306.96698,211.499863L307.023132,211.552841L307.073669,211.611191L307.105896,211.655624L307.404968,212.100937L307.423523,212.129745L307.712585,212.605087L307.717712,212.613876L307.992615,213.079941L307.997742,213.088974L308.258972,213.545761L308.264587,213.555283L308.511902,214.002792L308.517273,214.013046L308.750916,214.451279L308.756775,214.462265L308.976501,214.89122L308.982361,214.903183L309.188171,215.322861L309.194275,215.335312L309.386414,215.745712L309.392517,215.759384L309.57074,216.160507L309.577087,216.175156L309.741394,216.567001L309.747742,216.582626L309.898376,216.965195L309.904968,216.98204L310.041687,217.355087L310.048035,217.373398L310.171082,217.737411L310.177429,217.757187L310.28656,218.111923L310.292664,218.133163L310.388123,218.478622L310.394226,218.501816L310.475769,218.837997L310.490173,218.913925L310.496765,218.990585L310.495544,219.067734L310.486755,219.144394L310.46991,219.219833L310.44574,219.293076L310.414246,219.363388L310.375916,219.430283L310.330994,219.493027L310.279724,219.550644L310.223083,219.603134L310.16156,219.649277L310.095398,219.689316L310.025818,219.722275L309.953064,219.74791L309.924744,219.754745L310.119324,220.075546L310.137878,220.107773L310.378845,220.552109L310.395691,220.585068L310.579529,220.967392L310.59906,220.995956L310.635925,221.063583L310.66571,221.134872L310.688171,221.208603L310.703064,221.284286L310.710144,221.361191L310.707947,221.4608L310.674011,221.843124L310.667664,221.894882L310.608582,222.267929L310.598083,222.32164L310.513367,222.68541L310.498962,222.738144L310.389099,223.092636L310.370789,223.145126L310.235535,223.490341L310.213562,223.540878L310.052917,223.876816L310.027283,223.925644L309.841003,224.252304L309.813171,224.29747L309.601746,224.614609L309.555847,224.67662L309.503845,224.733505L309.446228,224.785019L309.383972,224.830429L309.317078,224.869247L309.247009,224.900986L309.173767,224.925644L309.098572,224.942734L309.022156,224.952011L308.945007,224.95372L308.934509,224.952744L308.93988,225.034775L308.940857,225.111923L308.934021,225.188828L308.919617,225.264511L308.8974,225.338486L308.868103,225.409775L308.831482,225.477646L308.788513,225.541611L308.738953,225.600693L308.659851,225.674911L308.143982,226.094101L308.093445,226.131943L307.527039,226.518906L307.477234,226.550156L306.860535,226.905136L306.812439,226.930527L306.145447,227.253525L306.074402,227.283554L306.000671,227.306259L305.925232,227.321396L305.848328,227.328964L305.771179,227.328476L305.694519,227.320419L305.61908,227.30455L305.585388,227.293808L305.564636,227.331406L305.520691,227.394638L305.470398,227.453232L305.41449,227.506454L305.353699,227.553818L305.288269,227.594589L305.218933,227.628769L305.166199,227.649033L304.623718,227.836288L304.591736,227.846542L303.98822,228.025497L303.961365,228.033066L303.296326,228.203964L303.273621,228.209335L302.547546,228.372421L302.507751,228.380234L301.377869,228.57164L301.301453,228.580673L301.224304,228.581894L301.1474,228.575302L301.071472,228.561142L300.997498,228.539169L300.926208,228.509872L300.858093,228.473495L300.807556,228.43956L300.766052,228.485703L300.708923,228.53746L300.646912,228.583115L300.580505,228.622421L300.510437,228.654648L300.437439,228.67955L300.362244,228.697128L300.29657,228.706161L299.145935,228.812119L299.069031,228.815292L298.991882,228.810654L298.91571,228.798203L298.841248,228.778183L298.818054,228.769394L298.837341,228.836777L298.850769,228.912704L298.856628,228.989609L298.854675,229.066757L298.838074,229.17662L298.689392,229.833115L298.681335,229.865829L298.502136,230.521347L298.492615,230.553329L298.282654,231.207382L298.272156,231.2379L298.031677,231.890732L298.020203,231.920029L297.749207,232.57164L297.736755,232.599716L297.434998,233.249863L297.422058,233.276474L297.089783,233.9254L297.076355,233.950546L296.713318,234.598251L296.700623,234.61972L296.339294,235.217621L296.326355,235.238632L295.946716,235.823349L295.932556,235.844101L295.534119,236.41539L295.51947,236.435898L295.102234,236.994003L295.087097,237.013535L294.651306,237.558472L294.635437,237.577744L294.181091,238.109482L294.16449,238.128052L293.691101,238.646591L293.674255,238.664658L293.182312,239.169785L293.125671,239.222275L293.064148,239.268661L292.99823,239.308701L292.92865,239.341904L292.855896,239.367783L292.781189,239.386093L292.704773,239.397079L292.627625,239.400009L292.577576,239.39682L292.582703,239.452744L292.860535,241.787949L293.005066,242.843124L293.157654,243.864853L293.312927,244.815292L293.475525,245.724472L293.644958,246.588974L293.818542,247.39389L293.997986,248.151474L294.179871,248.845322L294.372742,249.525513L294.569031,250.155624L294.763855,250.722031L294.969421,251.259872L295.176941,251.747421L295.384705,252.181992L295.596863,252.574081L295.821228,252.936142L295.858582,253.003769L295.888855,253.074814L295.902039,253.116791L296.304382,252.815781L296.34906,252.784775L296.931335,252.410751L296.979675,252.382202L297.58075,252.056015L297.631775,252.030624L298.250916,251.752304L298.309265,251.729111L298.846619,251.53891L298.905212,251.520615L299.450134,251.375839L299.511414,251.362411L300.064636,251.26329L300.126404,251.25473L300.687439,251.201035L300.744812,251.197632L301.111511,251.190292L301.173767,251.191772L301.505554,251.212265L301.58075,251.220551L301.877869,251.26889L301.967957,251.289413L302.230408,251.36557L302.334412,251.40416L302.562195,251.508163L302.630798,251.543564L302.675476,251.571884L302.868591,251.70372L302.929871,251.750351L302.980164,251.796738L303.138367,251.95639L303.18988,252.014023L303.233093,252.072861L303.356873,252.260361L303.395935,252.327011L303.413269,252.361923L303.515808,252.584824L303.544373,252.656372L303.561462,252.713974L303.624207,252.958603L303.639587,253.034042L303.645447,253.083115L303.668152,253.34996L303.669617,253.460312L303.652283,253.748871L303.641052,253.841171L303.583923,254.151718L303.565857,254.227402L303.468689,254.559921L303.447937,254.621201L303.310974,254.975449L303.289734,255.025009L303.112732,255.40123L303.104675,255.417831L303.008728,255.609482L302.995789,255.634384L302.878601,255.84848L302.868103,255.86705L302.729675,256.103882L302.720398,256.119263L302.560486,256.37854L302.552673,256.390747L302.371521,256.672485L302.364929,256.682739L302.162292,256.986938L302.156677,256.995239L301.9328,257.321899L301.927673,257.329224L301.682556,257.67807L301.678406,257.68396L301.204285,258.345825L301.191833,258.36264L300.707703,259.00061L300.694519,259.0177L300.200378,259.631714L300.185974,259.648804L299.682068,260.238647L299.666931,260.255951L299.152771,260.822144L299.136414,260.839478L298.612488,261.38147L298.595642,261.39856L298.061951,261.917114L298.043396,261.934448L297.499451,262.428833L297.43988,262.477661L297.375671,262.520386L297.307312,262.556274L297.235779,262.585083L297.161804,262.606567L297.085876,262.620483L297.008972,262.626587L296.931824,262.624878L296.914978,262.622681L296.91449,262.644409L296.904724,262.720825L296.887146,262.796021L296.862,262.869019L296.829773,262.939087L296.79071,263.005493L296.745056,263.067505L296.693298,263.124634L296.60614,263.199341L294.730652,264.578735L294.634705,264.639038L294.344421,264.792114L294.308044,264.809937L294.024841,264.940552L293.983337,264.958374L293.706726,265.066528L293.659119,265.08313L293.389343,265.168579L293.337585,265.183228L293.074646,265.24646L293.014832,265.258179L292.758484,265.298462L292.695007,265.305786L292.445251,265.323853L292.374939,265.325806L292.132019,265.320923L292.055115,265.315308L291.975769,265.301392L291.0578,265.089233L290.983582,265.067993L290.912048,265.039429L290.843689,265.003784L290.779236,264.961548L290.719421,264.912964L290.664734,264.858276L290.615906,264.798706L290.573425,264.734253L290.5224,264.631226L290.499451,264.574341L290.436707,264.465698L290.400818,264.395386L290.344421,264.269653L290.284607,264.295776L290.211365,264.319458L290.135925,264.335571L290.059265,264.344116L289.982117,264.344604L289.905212,264.337524L289.829529,264.322632L289.755798,264.300171L289.684753,264.270386L289.616882,264.233765L289.553162,264.190063L289.489685,264.136353L288.125427,262.842407L288.063904,262.776489L287.446472,262.033569L287.400085,261.971802L287.360291,261.90564L287.327576,261.83606L287.301941,261.763306L287.28363,261.688354L287.278992,261.654663L287.276306,261.6539L287.204529,261.62561L287.136169,261.59021L287.071472,261.547974L287.011414,261.499634L286.956726,261.44516L286.912537,261.391968L286.592957,260.969849L286.583923,260.957886L286.265076,260.519165L286.257019,260.50766L285.939148,260.052856L285.931335,260.041626L285.613953,259.569946L285.607117,259.559692L285.290222,259.071655L285.283386,259.060913L284.967468,258.556274L284.961609,258.546753L284.645935,258.025513L284.64032,258.015747L284.325378,257.477905L284.315369,257.460541L283.378601,255.759628L283.368103,255.739609L282.475769,253.998871L282.465759,253.978882L282.197937,253.416122L280.265564,255.727402L281.186951,257.1427L281.225525,257.20932L281.257507,257.279663L281.281921,257.352631L281.299011,257.42807L281.308289,257.504517L281.309998,257.581665L281.30365,257.658569L281.289734,257.734497L281.278503,257.773041L281.298279,257.777222L281.371765,257.800903L281.442566,257.831665L281.509705,257.869507L281.572693,257.914185L281.630798,257.964722L281.683533,258.020874L281.730408,258.082153L281.766541,258.140015L281.939636,258.447876L281.944519,258.456909L282.101013,258.744263L282.106873,258.755493L282.246521,259.022339L282.253113,259.03479L282.37616,259.280884L282.383728,259.296753L282.490173,259.522583L282.499207,259.542358L282.588806,259.747437L282.598816,259.771606L282.672058,259.956177L282.684509,259.989868L282.740906,260.154175L282.758484,260.213257L282.832214,260.502319L282.847595,260.578735L282.888123,260.851929L282.896179,260.942017L282.903503,261.199097L282.899353,261.302124L282.873474,261.543335L282.852722,261.656128L282.793396,261.881226L282.769958,261.954712L282.753357,261.995728L282.660583,262.2052L282.625671,262.274048L282.602234,262.312622L282.476257,262.505981L282.430847,262.568237L282.40448,262.599487L282.245056,262.776733L282.172058,262.847778L281.998962,262.994995L281.921082,263.053101L281.732117,263.176147L281.648621,263.223267L281.444031,263.322388L281.357605,263.357788L281.136902,263.432983L281.051941,263.456665L280.815613,263.50769L280.735291,263.52063L280.482849,263.547485L280.411316,263.551636L280.14325,263.55481L280.077332,263.552612L279.793396,263.531372L279.737244,263.525269L279.437683,263.480347L279.387146,263.470825L279.071472,263.401489L279.028992,263.390991L278.697693,263.297974L278.660095,263.286255L278.312683,263.169067L278.280212,263.157349L277.917419,263.016235L277.888855,263.004517L277.509949,262.839233L277.485046,262.827759L277.090515,262.63855L277.068787,262.627808L276.658142,262.414429L276.615906,262.390747L275.942322,261.984497L275.898621,261.955933L275.263611,261.511108L275.22113,261.479126L274.624695,260.995728L274.583923,260.960327L274.026306,260.438843L273.987732,260.400024L273.468689,259.839722L273.433533,259.79895L272.953308,259.200531L272.921326,259.157593L272.479919,258.52063L272.451599,258.476929L272.048767,257.801392L272.040466,257.786743L271.855164,257.459839L271.850281,257.451294L271.678406,257.138794L271.673523,257.130005L271.514832,256.832153L271.50946,256.821655L271.364197,256.538696L271.358582,256.52771L271.226257,256.259155L271.219421,256.24472L271.100769,255.990829L271.093933,255.975952L270.988464,255.736923L270.980408,255.71788L270.888611,255.493515L270.881042,255.474472L270.752869,255.135361L270.741882,255.103622L270.634216,254.775742L270.62323,254.73912L270.53656,254.42247L270.526794,254.383408L270.460388,254.078232L270.452087,254.033051L270.406433,253.738892L270.40033,253.688843L270.375427,253.405869L270.372498,253.351913L270.367859,253.080429L270.369324,253.02037L270.385437,252.759872L270.393982,252.683212L270.413269,252.598022L270.691589,251.622421L270.716492,251.549423L270.748474,251.479355L270.787537,251.412704L270.833191,251.350449L270.884705,251.29332L270.942078,251.241562L271.004089,251.195663L271.070496,251.156601L271.140564,251.12413L271.213562,251.099228L271.288513,251.08165L271.365173,251.07164L271.365906,251.07164L271.345154,251.00473L271.314392,250.928574L271.289246,250.85582L271.271667,250.780624L271.261658,250.704208L271.25946,250.62706L271.264832,250.55014L271.278259,250.474228L271.299255,250.400009L271.327576,250.328232L271.36615,250.254272L271.63739,249.797958L271.958923,249.217621L271.963562,249.20932L272.284851,248.646362L272.290222,248.637314L272.605408,248.102402L272.611511,248.092148L272.921082,247.584824L272.927673,247.574081L273.23114,247.094833L273.238708,247.083359L273.536072,246.631943L273.544861,246.618759L273.836609,246.195419L273.846375,246.181503L274.132019,245.78624L274.135437,245.781372L274.515564,245.263779L274.529968,245.24498L274.91449,244.754272L274.930115,244.735214L275.318542,244.271103L275.335388,244.251343L275.727966,243.813583L275.747009,243.79332L276.143494,243.382431L276.164246,243.361679L276.56488,242.977402L276.58783,242.95639L276.992371,242.59874L277.016785,242.577988L277.424988,242.246689L277.487244,242.201035L277.553894,242.161972L277.623962,242.12999L277.69696,242.105331L277.772156,242.088013L277.848816,242.078232L277.854919,242.077988L277.722351,241.629272L277.720154,241.621933L277.457214,240.698853L277.455261,240.691513L277.211853,239.803818L277.209656,239.795273L276.986511,238.94249L276.98407,238.933472L276.780701,238.11557L276.778259,238.10556L276.59491,237.323105L276.592468,237.311874L276.429138,236.564301L276.426453,236.551865L276.283142,235.839218L276.279724,235.820908L276.116638,234.892441L276.113708,234.874863L275.976013,233.966171L275.973328,233.947372L275.861023,233.058701L275.85907,233.039413L275.771667,232.170517L275.769714,232.149521L275.707947,231.3004L275.706726,231.278915L275.670105,230.44957L275.669373,230.42662L275.657898,229.617294L275.657898,229.593369L275.67157,228.803574L275.676941,228.726669L275.68988,228.650497L275.710388,228.576279L275.738464,228.504501L275.773621,228.435654L275.792664,228.406357L275.455017,228.298447L275.440857,228.293808L274.674011,228.031845L274.602478,228.003036L274.534119,227.967392L274.469666,227.924911L274.409851,227.876328L274.355164,227.821884L274.306335,227.76207L274.263855,227.697617L274.243347,227.65831L274.186707,227.678818L274.112,227.698105L274.035828,227.709335L273.958679,227.712997L273.881775,227.708847L273.805603,227.696884L273.730896,227.677353L273.679382,227.659042L272.399109,227.149033L272.329041,227.116806L272.26239,227.077744L272.200134,227.032089L272.143005,226.980576L272.091248,226.923447L272.045349,226.861191L272.006287,226.794785L271.973816,226.724716L271.944763,226.633652L271.827087,226.41246L271.774597,226.456161L271.710876,226.499374L271.642761,226.535751L271.571472,226.565292L271.497498,226.587265L271.421814,226.601669L271.34491,226.608505L271.267761,226.607529L271.191345,226.598495L271.115906,226.582138L271.042664,226.557968L270.984802,226.532822L270.16571,226.136337L270.140076,226.123398L269.377625,225.718124L269.349792,225.702499L268.643982,225.288681L268.613953,225.270126L267.964783,224.847763L267.931824,224.825302L267.33905,224.393906L267.304138,224.366806L266.76825,223.927109L266.73114,223.894394L266.251648,223.445908L266.21283,223.407089L265.789734,222.949814L265.740417,222.890488L265.697205,222.826767L265.660583,222.758652L265.631042,222.687363L265.60907,222.613632L265.598083,222.556503L265.571228,222.545273L265.503601,222.508163L265.440125,222.464706L265.381287,222.414658L265.327576,222.359238L265.279968,222.298447L265.256287,222.262802L264.998962,221.850937L264.968933,221.798203L264.751404,221.379257L264.72406,221.320908L264.54657,220.894394L264.523621,220.831406L264.386414,220.397568L264.368835,220.332138L264.271423,219.890976L264.259705,219.822861L264.202576,219.374374L264.19696,219.306747L264.179871,218.850937L264.180359,218.785019L264.203064,218.321396L264.214539,218.22081L264.491638,216.716171L264.50946,216.640976L264.534851,216.568222L264.567322,216.498154L264.606873,216.431992L264.652771,216.36998L264.704773,216.312851L264.762146,216.261581L264.824402,216.216171L264.874695,216.186874L264.870056,216.178329L264.841248,216.10704L264.819519,216.032822L264.805359,215.957138L264.799011,215.880234L264.800476,215.803085L264.809753,215.726425L264.826843,215.65123L264.852478,215.575546L265.023621,215.143906L265.035339,215.115341L265.229187,214.678818L265.241638,214.652451L265.457947,214.211533L265.470642,214.186874L265.7099,213.741074L265.722595,213.718369L265.984558,213.267929L265.997253,213.246933L266.281677,212.792099L266.294128,212.772812L266.601257,212.313095L266.613464,212.295273L266.943054,211.830917L266.990662,211.77037L267.044373,211.714951L267.103455,211.66539L267.167175,211.621933L267.234802,211.585068L267.306091,211.555283L267.379822,211.532822L267.455505,211.517929L267.523132,211.513046L267.513611,211.462265L267.507263,211.385361L267.508484,211.308212L267.517517,211.231552L267.534363,211.156357L267.558777,211.083115L267.590271,211.012802L267.628845,210.945908L267.674011,210.883408L267.717468,210.833603L269.338074,209.135849L269.394226,209.08287L269.455261,209.035751L269.520691,208.99498L269.590027,208.961288L269.662537,208.934433L269.737244,208.91539L269.830261,208.902206L269.872253,208.899033L269.867371,208.880234L269.855896,208.804062L269.852234,208.726913L269.856384,208.650009L269.868103,208.573837L269.887634,208.49913L269.914734,208.426865L269.953552,208.349472L270.291443,207.761581L270.302429,207.742783L270.655701,207.166855L270.667419,207.1483L271.036072,206.584335L271.048523,206.566269L271.432556,206.014023L271.445251,205.996201L271.844666,205.455917L271.858093,205.438339L272.272644,204.910019L272.28656,204.892929L272.716736,204.376328L272.73114,204.359482L273.176697,203.855087L273.190857,203.839462L273.671082,203.325058L273.68866,203.306747L274.159607,202.835068L274.179871,202.815536L274.641541,202.386093L274.665222,202.364853L275.117615,201.97789L275.145203,201.955673L275.588318,201.610947L275.620544,201.587021L276.054382,201.284775L276.091736,201.260361L276.516052,201.000351L276.560486,200.975204L276.975525,200.757675L277.010925,200.740097L277.49408,200.517929L277.500427,200.514999L277.947693,200.314316L277.956238,200.310654L278.367371,200.132187L278.376648,200.128281L278.751648,199.971298L278.764099,199.966171L279.10321,199.831161L279.118103,199.825546L279.421082,199.712265L279.441345,199.704941L279.708435,199.613632L279.736023,199.604843L279.96698,199.535507L280.041687,199.516953L280.118103,199.50621L280.195251,199.503281L280.272156,199.508163L280.348328,199.520615L280.422791,199.540878L280.494812,199.56871L280.56366,199.603378L280.628601,199.644882L280.688904,199.692978L280.696228,199.700058L280.708191,199.678329L280.751404,199.614609L280.801208,199.555527L280.856628,199.501816L280.917175,199.453964L280.982117,199.41246L281.050964,199.377792L281.122986,199.350449L281.197693,199.330185L281.273621,199.317734L281.350769,199.313095L281.426941,199.316025zM297.112244,222.29039L297.149597,222.280624L297.193298,222.273544L297.188416,222.266708L297.084656,222.13414L297.112244,222.29039zM292.494568,216.846786L292.653992,216.731064L292.576599,216.650253L292.494568,216.846786zM281.688904,229.284531L281.648865,229.350449L281.602478,229.412216L281.549988,229.468613L281.492126,229.519638L281.429382,229.56456L281.362976,229.602646L281.943787,229.766708L282.394226,229.874619L282.333923,229.840195L282.271179,229.795517L282.213318,229.744492L282.160828,229.687851L282.114441,229.626328L282.074402,229.56041L282.041199,229.490829L282.01532,229.418076L281.997009,229.343124L281.99408,229.322861L281.944031,229.323105L281.867371,229.315781L281.791687,229.300888L281.717957,229.278183L281.696228,229.26915L281.688904,229.284531zM282.775085,229.960068L283.348816,230.07457L284.075867,230.191757L284.784851,230.28038L285.10321,230.271347L285.098816,230.240097L285.095886,230.162949L285.101013,230.086044L285.113708,230.009872L285.134216,229.93541L285.159607,229.869736L282.775085,229.960068zM298.819977,214.7966C298.336273,214.810379,297.838806,214.909592,297.327545,215.09288C298.237061,215.531097,298.968811,215.93486,299.524139,216.301422L298.862701,214.774551L298.819977,214.7966zM293.318848,216.323456C293.930695,215.912811,294.583893,215.531097,295.281158,215.178314L293.681274,213.75618L292.893036,215.878357L293.318848,216.323456zM296.346375,214.668442C297.000946,214.315659,297.712036,214.08139,298.47821,213.968399L297.412994,211.698761C296.730865,212.165924,296.134186,212.972076,295.621552,214.117218L296.17688,214.605057L296.346375,214.668442zM308.179596,225.083649C308.136871,223.656006,307.312805,222.339981,305.706024,221.138336C306.047791,223.046906,306.083618,224.857651,305.813507,226.567795C306.736786,226.158524,307.525024,225.663803,308.179596,225.083649zM298.329376,227.204453L298.35144,226.971558L298.414825,226.780014C298.529205,225.691376,298.158508,224.440109,297.306885,223.026245C297.291718,223.93161,297.057465,224.801147,296.602692,225.634872C296.17688,226.441025,295.578827,227.154846,294.811249,227.77771L296.751526,228.032654L297.946289,228.07399L298.329376,227.204453zM302.252655,211.741486C303.020233,211.246765,304.213623,211.041443,305.834198,211.126877L304.704193,209.641357C304.035858,208.864136,303.062958,208.588531,301.784119,208.814529L301.079956,209.153534L300.909088,209.280304L302.252655,211.741486zM295.110291,207.096115C294.896698,209.033646,294.527374,210.892609,294.00235,212.674423L295.046906,213.608734C295.629822,212.420868,296.311951,211.558212,297.093292,211.020767L295.110291,207.096115zM291.101563,227.522781C290.221008,228.541153,288.899475,229.340408,287.136963,229.920563L285.858154,230.174133L290.739166,230.004623C292.431396,229.764847,293.901764,229.367981,295.153015,228.816757L293.703308,228.520477L293.469055,228.455719C292.587097,228.202148,291.798859,227.890717,291.101563,227.522781zM291.229736,264.34671L292.147522,264.558929C292.786926,264.601654,293.496613,264.403198,294.279327,263.964996L296.154846,262.585571L291.656921,260.507507C290.817688,262.190094,290.661987,263.434448,291.187012,264.240601L291.229736,264.34671zM271.317078,225.847092C270.364868,223.697342,270.024475,221.711594,270.294586,219.88707C269.029541,220.50856,267.714905,221.357437,266.349243,222.432312C267.402069,223.662903,269.057098,224.801147,271.317078,225.847092zM295.643585,201.368988C297.320679,203.489792,298.955017,205.915146,300.546661,208.645035L301.314209,208.157211C301.044128,206.473251,300.553528,205.009766,299.843842,203.765396C298.961914,202.224762,297.831909,201.242218,296.453888,200.81778L295.643585,201.368988zM288.650055,262.289307L290.014313,263.583282C289.971588,262.819855,290.221008,261.878662,290.7612,260.762451L292.125458,258.343994C292.992249,256.930115,293.937592,255.571365,294.961456,254.270508C293.496613,254.766602,292.118561,255.756027,290.824585,257.240173C289.773132,258.443207,288.842957,259.877747,288.032684,261.546539L288.650055,262.289307M309.928345,221.371216C309.372986,220.140625,308.584747,219.031311,307.560852,218.04187C306.538361,217.066223,305.393219,216.316574,304.128174,215.792923C304.683533,217.17923,305.116211,218.521439,305.429047,219.823685L305.642639,219.865021C306.480469,220.374893,307.191559,220.989502,307.774475,221.711594C308.413879,222.502594,308.812134,223.33078,308.967834,224.192062C309.565918,223.358353,309.892517,222.425415,309.949005,221.393265L309.928345,221.371216zM269.889435,209.662033L268.26886,211.359772C270.187103,211.161331,271.963379,211.281219,273.599121,211.72081C275.531128,212.229309,277.023529,213.119522,278.076355,214.392838L278.438782,213.331741C277.869659,211.818665,276.667999,210.75206,274.835205,210.129181C273.371735,209.63446,271.722229,209.478745,269.889435,209.662033zM306.367493,212.102539C304.548462,211.917877,303.290314,212.023987,302.593048,212.420868L303.659637,214.668442L303.89389,214.668442C305.045959,215.036377,306.133209,215.601379,307.155731,216.36618C308.165833,217.114456,309.025726,217.999161,309.735413,219.017532C309.337158,217.249512,308.350494,215.085983,306.772614,212.525589L306.473602,212.08049L306.367493,212.102539zM288.395111,222.326202C288.395111,222.5522,288.309662,222.714813,288.138794,222.814026C287.754333,223.69046,287.562775,224.63855,287.562775,225.656921C287.577942,226.646347,287.776367,227.601334,288.159454,228.520477L288.159454,228.710648C289.0979,228.315155,289.844818,227.827332,290.398773,227.247177C291.067139,226.540237,291.344116,225.769913,291.229736,224.93483C291.087799,223.902679,290.313354,222.778198,288.906372,221.562759L288.395111,222.326202zM287.307831,229.008301C286.937134,228.046432,286.745605,227.057007,286.731812,226.038635C286.702881,224.991333,286.866852,224.001892,287.222412,223.06897C285.899475,223.421738,284.834259,224.185181,284.023987,225.359253C283.270172,226.463074,282.84436,227.741882,282.745148,229.198471L287.222412,229.028976L287.307831,229.008301zM292.467224,203.61795C291.614197,204.338669,290.54071,204.699707,289.246735,204.699707C287.825989,204.699707,286.439667,204.295944,285.090576,203.489792L286.390076,205.038712C287.684052,206.53801,289.197144,208.114487,290.932068,209.768143C291.585266,207.789276,292.096527,205.738754,292.467224,203.61795zM265.561005,215.856308C267.451691,215.050156,269.369904,214.555435,271.317078,214.372162C273.477844,214.173721,275.445679,214.372162,277.223358,214.966095C276.228394,213.805786,274.76355,212.999634,272.831543,212.547638C271.182037,212.152145,269.46225,212.059814,267.67218,212.272034L267.564697,212.272034C266.655182,213.516403,265.986816,214.711166,265.561005,215.856308zM281.145264,200.668945C281.473236,202.421814,282.502625,204.501282,284.237579,206.904572C285.601837,208.814529,287.41394,210.865051,289.67392,213.056137L290.569641,210.849899C288.395111,208.758041,286.603668,206.870117,285.196686,205.187531L283.533386,203.044693C282.965637,202.182037,282.588043,201.362106,282.403412,200.583511L282.403412,200.542175L282.254578,200.138412L282.063019,200.138412L281.358856,200.075012L281.145264,200.668945zM271.168243,219.462631C270.79895,221.583435,271.296417,223.882004,272.660675,226.356964L272.681335,226.441025L273.961548,226.950897C273.903656,226.158524,274.011139,225.253143,274.28125,224.234787L275.154907,221.64682L276.391022,218.635818C274.884827,218.351929,273.144348,218.627548,271.168243,219.462631zM295.814453,221.158997C295.188843,220.565063,294.470886,220.106171,293.660583,219.78096C292.737305,219.426804,291.898071,219.34964,291.144287,219.546692L290.099731,221.265106C291.450226,222.524628,292.125458,223.782791,292.125458,225.040939C292.111694,225.6073,291.961487,226.158524,291.677612,226.695953C292.431396,227.077667,293.170013,227.360168,293.894867,227.54483C294.97525,226.865448,295.722137,225.973862,296.134186,224.871429C296.573761,223.712509,296.546204,222.5522,296.048737,221.393265L295.814453,221.158997zM288.352386,221.095612C286.873749,219.921524,284.854919,218.74881,282.297302,217.574722C282.198059,218.33815,282.047852,219.130524,281.849426,219.950455C281.338165,222.226974,281.052917,223.69046,280.996429,224.340897C280.854492,226.108917,281.181091,227.515884,281.9776,228.561829C282.247681,226.964676,282.865051,225.585266,283.832428,224.426331C284.870087,223.181961,286.148895,222.411636,287.670258,222.113983L288.352386,221.095612zM293.277496,203.659286C292.609161,207.335907,291.578369,210.687286,290.185181,213.713455C290.185181,213.841614,290.121796,213.982178,289.993622,214.137894C289.126862,215.919693,288.159454,217.538895,287.094238,218.995483C287.747437,219.392349,288.422668,219.865021,289.119965,220.417618L289.56781,219.758911C289.595367,219.589417,289.67392,219.45575,289.802094,219.356522L289.971588,219.250412L291.101563,218.062546C291.911865,216.407532,292.566437,214.746994,293.063904,213.078186C293.048737,213.006531,293.084564,212.886642,293.170013,212.717133C293.852142,210.397903,294.26416,208.071777,294.406128,205.738754L293.277496,203.659286zM265.902771,221.859039C267.622559,220.474121,269.306519,219.419922,270.954651,218.699203C273.072693,217.764893,275.006104,217.447937,276.753448,217.744217L277.435577,216.068527L277.372192,216.047852C275.538025,215.311981,273.491638,215.043274,271.231628,215.241699C269.171478,215.424988,267.174683,215.962418,265.241302,216.854004L264.964325,218.358826C264.849945,219.604568,265.162781,220.770386,265.902771,221.859039zM299.970642,217.893051C298.961914,217.057953,297.669312,216.309692,296.091461,215.644089C294.371674,216.436462,292.91507,217.3694,291.720306,218.44426L291.677612,218.571045C293.624756,218.274765,295.46582,219.108475,297.199402,221.074936C298.934357,223.040024,299.601318,224.998215,299.204437,226.950897L299.076294,228.053329L300.226959,227.94722C301.136444,226.957779,301.548492,225.550812,301.463043,223.726288C301.406555,222.495697,301.108887,220.996399,300.568695,219.229752L300.163544,217.956436L299.970642,217.893051zM289.226074,214.053833C286.92337,211.804871,284.99823,209.627579,283.447937,207.520554L282.510895,206.204529L282.617004,211.380447C282.630768,213.374466,282.560486,215.085983,282.403412,216.513641C284.03775,217.26329,285.402008,217.963333,286.497559,218.61377C287.463562,217.326675,288.373047,215.806702,289.226074,214.053833zM271.14621,252.807022C271.075928,253.486389,271.224762,254.28566,271.594055,255.204803C271.821442,255.783585,272.192139,256.51947,272.7034,257.411041C273.725891,259.263123,275.161804,260.705933,277.009766,261.738098C279.240814,262.939728,280.797974,263.116119,281.678558,262.267273C282.148468,261.815247,282.261475,261.193756,282.020294,260.401398C281.892151,259.990723,281.586212,259.362366,281.102539,258.513489C280.208191,258.315033,279.127808,258.527252,277.862762,259.150146C277.578888,259.29071,277.42868,259.220428,277.414917,258.937927C277.401123,258.669189,277.507233,258.470764,277.734619,258.343994C278.758484,257.863037,279.695557,257.601227,280.548553,257.558502L279.610107,256.117065C277.91925,256.908081,276.255981,256.817108,274.621613,255.840088C273.129211,254.949875,272.063965,253.613174,271.424561,251.831375L271.14621,252.807022zM277.329468,201.432388C276.235291,201.956039,275.040527,202.931686,273.747925,204.359344C272.539398,205.689148,271.494843,207.145737,270.614288,208.729095C272.291351,208.616089,273.826477,208.785599,275.218323,209.238968C276.910522,209.790192,278.110809,210.673508,278.821869,211.89032C279.063049,210.829224,279.269745,208.990921,279.440613,206.375412C279.596344,203.984512,279.866425,202.161362,280.250916,200.90184L280.186127,200.265182C279.618378,200.420898,278.666168,200.810883,277.329468,201.432388zM296.197571,253.847443C295.301849,254.936096,294.322052,256.293457,293.255463,257.919556L292.147522,259.65863L296.987183,261.864868C298.450653,260.577789,299.808014,259.03714,301.059265,257.240173C301.741394,256.279694,302.196167,255.557587,302.423553,255.07666C302.948578,254.044495,303.047791,253.245239,302.721191,252.680237C302.437317,252.142807,301.784119,251.90303,300.760254,251.959534C300.00647,252.00087,299.274719,252.163483,298.56366,252.447357C297.7258,252.786346,296.936188,253.25351,296.197571,253.847443zM294.747864,201.856812C294.406128,202.026321,294.043701,202.17514,293.660583,202.301926C295.792419,206.163193,297.597656,209.697861,299.076294,212.908691C300.384033,215.763977,301.243927,217.992264,301.655975,219.589417C302.067993,221.230652,302.273346,222.637634,302.273346,223.810349C302.302277,225.437805,301.96051,226.773132,301.250824,227.820435L302.380829,227.628891C303.389557,227.416672,304.235657,227.183777,304.917786,226.928848C305.343597,224.440109,305.080383,221.668869,304.128174,218.61377C303.432251,216.407532,302.281586,213.834732,300.674805,210.892609C298.799286,207.470947,296.830078,204.472336,294.769928,201.899536L294.747864,201.856812zM272.298248,250.177734L272.021271,250.643509L272.063965,250.749619C272.532501,252.50386,273.477844,253.868118,274.898621,254.843765C276.462677,255.91864,278.054321,256.052307,279.674896,255.246155L281.678558,252.849747C280.285339,249.823578,279.028595,246.485962,277.905487,242.838303C276.81131,243.685791,275.758484,244.817169,274.749786,246.232407C273.995972,247.24939,273.178802,248.56543,272.298248,250.177734zM280.676727,202.55687C280.520996,203.447083,280.370789,205.024933,280.228851,207.286285C280.115845,209.295471,279.922943,210.849899,279.652832,211.953705C279.3414,213.184296,278.864594,214.605057,278.225189,216.217361L276.47644,220.374893L275.197632,223.746948C274.799377,225.104324,274.707062,226.292191,274.920654,227.310562C276.967041,228.032654,278.999634,228.570084,281.018463,228.922867C280.392853,227.933441,280.093811,226.660126,280.122742,225.104324C280.150299,224.029449,280.357025,222.714813,280.740112,221.158997C281.365723,218.656479,281.728149,216.344131,281.827393,214.223328C281.870087,213.091965,281.856323,211.558212,281.786041,209.620682L281.657867,204.995987L281.700592,204.826492C281.24585,204.02034,280.904083,203.263794,280.676727,202.55687zM292.188843,231.998657C292.274292,234.232452,292.4245,236.445587,292.636719,238.638031C293.973419,237.308228,295.110291,235.83786,296.048737,234.225555C297.057465,232.500259,297.739594,230.761169,298.095123,229.008301L296.517273,228.965591C295.024841,229.855804,293.070801,230.492447,290.65509,230.874176L284.74881,231.043671C282.645935,230.817673,280.748383,230.322952,279.056152,229.559525L278.970703,229.496124L276.433746,228.816757C276.363464,230.896225,276.56189,233.186523,277.030426,235.689026C277.385956,237.542496,277.955078,239.769409,278.73645,242.37114C280.343231,247.702774,282.425446,252.60997,284.983093,257.092712C285.822327,258.549316,286.667053,259.828125,287.52005,260.931946C288.402008,259.16391,289.439667,257.643951,290.633057,256.370636C292.06897,254.829987,293.582031,253.818512,295.173676,253.33757C294.534271,252.375702,293.959625,250.948059,293.446991,249.053253C292.93573,247.199783,292.487885,244.810272,292.104797,241.883316C291.691376,238.744141,291.436432,235.591187,291.337219,232.42308C291.337219,232.197083,291.479156,231.998657,291.763031,231.829147C292.046906,231.673431,292.188843,231.729935,292.188843,231.998657z"/>
</svg>
