<?xml version="1.0" encoding="UTF-8"?>
<svg xmlns="http://www.w3.org/2000/svg" xmlns:xlink="http://www.w3.org/1999/xlink" width="46.612mm" height="58.186mm" fill="white" stroke="black" stroke-width="0.5" viewBox="-248.154907 203.226990 46.612305 58.185791">
    <path transform="matrix(-1,0,0,1,0,0)" d="M222.473755,203.228699L222.74231,203.246277L222.799194,203.252136L223.065063,203.289734L223.130005,203.301697L223.423462,203.369568L223.496704,203.39032L223.769409,203.482849L223.844849,203.513123L224.096802,203.629822L224.173218,203.670593L224.404663,203.811707L224.478149,203.862732L224.688843,204.028015L224.756714,204.088074L224.946899,204.277771L225.005493,204.343445L225.175171,204.557068L225.224243,204.626404L225.373413,204.864441L225.380005,204.874939L225.432495,204.961853L225.468872,205.029968L225.498413,205.101257L225.520386,205.175232L225.53479,205.250916L225.541626,205.32782L225.540649,205.404968L225.531616,205.481384L225.517944,205.544861L225.59021,205.552429L225.665649,205.568054L225.739136,205.591248L225.810181,205.621765L225.877563,205.659363L225.940796,205.703552L225.999146,205.753845L226.036255,205.791687L226.262573,206.039734L226.487427,206.253601L226.730347,206.454041L226.99231,206.641541L227.276001,206.817322L227.577515,206.978699L227.903931,207.128357L228.24353,207.261414L228.581177,207.370056L228.922974,207.4599L229.259888,207.528748L229.590942,207.576355L229.924927,207.604675L230.25354,207.612976L230.579956,207.601257L230.901001,207.570007L231.354126,207.487732L231.751587,207.37323L232.103394,207.227722L232.411255,207.052917L232.677124,206.851013L232.909546,206.617859L233.11145,206.349548L233.307251,206.000916L233.348267,205.93573L233.395874,205.874939L233.449341,205.819275L233.507935,205.76947L233.571655,205.725525L233.639282,205.688416L233.710083,205.658386L233.783813,205.635681L233.815063,205.629333L233.832642,205.560486L233.859497,205.487976L233.893188,205.41864L233.93396,205.35321L233.981079,205.292175L234.034058,205.236023L234.092407,205.18573L234.123901,205.162537L235.581665,204.144226L235.646851,204.103455L235.716187,204.069275L235.788452,204.042419L235.863159,204.022888L235.939331,204.011169L236.016235,204.007019L236.093384,204.010681L236.169556,204.022156L236.244263,204.041443L236.316772,204.068054L236.386108,204.101746L236.472046,204.157166L236.752319,204.365173L236.821411,204.423035L237.080688,204.667908L237.138306,204.728699L237.377319,205.010193L237.424927,205.072449L237.643188,205.390808L237.680542,205.450867L237.878296,205.805847L237.90686,205.862732L238.083862,206.254333L238.105103,206.306091L238.262085,206.734558L238.27771,206.78241L238.41394,207.247253L238.424194,207.285583L238.512573,207.657898L238.518921,207.687683L238.593872,208.07074L238.598999,208.099792L238.660278,208.493835L238.66394,208.521179L238.712036,208.925964L238.714722,208.95282L238.749146,209.368347L238.750854,209.393982L238.771851,209.820496L238.772827,209.845154L238.780151,210.282166L238.780151,210.305359L238.777466,210.503845L238.867554,210.476257L239.228638,210.348572L239.529663,210.223083L240.332153,209.807068L240.422485,209.767273L240.552856,209.71991L240.633911,209.695496L240.755981,209.665955L240.8573,209.648621L240.971313,209.636902L241.048218,209.632996L241.091431,209.634216L241.197144,209.640076L241.273804,209.648132L241.335815,209.660583L241.433716,209.684509L241.50769,209.706726L241.574585,209.73407L241.664185,209.775818L241.7323,209.811951L241.792847,209.851746L241.874146,209.911316L241.93396,209.960144L241.976196,210.001404L242.049683,210.078796L242.099976,210.13739L242.143921,210.200623L242.181519,210.268005L242.211792,210.33905L242.234985,210.412537L242.250366,210.48822L242.258179,210.56488L242.258179,210.642029L242.257202,210.652039L242.264038,210.653748L242.336304,210.680359L242.40564,210.714294L242.471069,210.755066L242.539185,210.808533L242.67688,210.929626L242.693237,210.944519L242.998901,211.229431L243.060425,211.293884L243.317505,211.596863L243.374878,211.673767L243.583862,211.994568L243.633911,212.083923L243.794556,212.422546L243.832642,212.519714L243.94519,212.875916L243.969604,212.976501L244.033813,213.350769L244.044312,213.448914L244.060181,213.841003L244.058472,213.93158L244.026245,214.341248L244.019897,214.395935L243.987915,214.60614L243.978882,214.653992L243.935425,214.85321L243.922241,214.905212L243.867065,215.093445L243.848755,215.148376L243.78186,215.325378L243.757935,215.381287L243.679565,215.547302L243.649536,215.604919L243.559448,215.759949L243.522827,215.816833L243.421265,215.960632L243.378296,216.016052L243.264771,216.148865L243.217163,216.199402L243.092163,216.321228L243.040894,216.367126L242.904419,216.477966L242.848511,216.519226L242.700073,216.618835L242.644897,216.652527L242.484985,216.74115L242.428833,216.769226L242.257202,216.846619L242.203735,216.868347L242.02063,216.934753L241.969116,216.951355L241.774048,217.006775L241.725952,217.018738L241.634399,217.038513L241.891479,218.088318L241.893188,218.095642L243.1073,223.274353L243.110474,223.288513L244.219604,228.467224L244.224487,228.491882L244.314087,228.989197L244.316528,229.004089L244.394165,229.490173L244.396606,229.505554L244.462524,229.980896L244.464478,229.997742L244.518433,230.461853L244.520386,230.478699L244.562866,230.931824L244.564331,230.950378L244.594849,231.392273L244.595825,231.41156L244.614624,231.842468L244.615356,231.86322L244.622192,232.283142L244.622192,232.304138L244.617554,232.713074L244.616821,232.736267L244.60022,233.133972L244.598999,233.157898L244.570679,233.544617L244.568481,233.569763L244.528442,233.945496L244.525024,233.972351L244.473022,234.336853L244.468628,234.363953L244.405151,234.717468L244.399292,234.746521L244.323853,235.08905L244.316528,235.11908L244.22937,235.450378L244.199585,235.54071L243.575317,237.093933L243.571411,237.103699L243.474243,237.336121L243.393433,237.546814L243.32605,237.741394L243.272583,237.917175L243.230591,238.080017L243.203247,238.214294L243.185425,238.340759L243.178101,238.440613L243.17981,238.820251L243.213257,239.243835L243.282104,239.725037L243.386597,240.255066L243.867065,242.204285L243.869995,242.216003L244.237427,243.815857L244.624146,245.403015L245.038452,247.012634L245.473511,248.615906L246.47937,252.1203L246.479614,252.121033L247.485718,255.641785L247.491333,255.662292L248.131958,258.166199L248.147095,258.241882L248.154907,258.318542L248.154663,258.395691L248.146606,258.472595L248.130981,258.548035L248.107544,258.621521L248.077026,258.692322L248.039429,258.759705L247.995239,258.822937L247.944946,258.881287L247.868774,258.951111L247.782104,259.020203L247.744263,259.048279L247.556763,259.179626L247.466675,259.23407L247.268677,259.335388L247.165649,259.378601L246.956421,259.449402L246.852173,259.476746L246.632446,259.517761L246.528687,259.529968L246.312622,259.540222L246.235474,259.539978L246.196899,259.536804L245.983032,259.514343L245.870972,259.49408L245.659546,259.439148L245.557983,259.404968L245.447388,259.358826L245.39856,259.35321L245.322632,259.340515L245.248169,259.320251L245.176147,259.292419L245.107544,259.257507L245.042603,259.215759L244.9823,259.167664L244.927124,259.113708L244.877563,259.054626L244.834351,258.990662L244.787964,258.900818L244.735718,258.780945L244.699097,258.677429L243.052368,252.651306L240.314819,242.858826L239.817261,241.15033L239.666138,240.712341L239.509155,240.326843L239.343628,239.984558L239.16687,239.67865L239.05188,239.502625L238.885376,239.263855L238.688599,238.994568L238.440552,238.665222L238.147339,238.284851L237.818237,237.865662L237.447876,237.400574L237.036987,236.890808L237.03479,236.888123L236.692993,236.4599L236.682495,236.446472L236.367554,236.033386L236.356079,236.017761L236.068237,235.619568L236.055542,235.601746L235.795044,235.218689L235.78186,235.198669L235.548218,234.83075L235.533813,234.807068L235.327271,234.454041L235.312134,234.426941L235.132446,234.08905L235.116089,234.05658L234.963745,233.733826L234.95105,233.705261L234.735962,233.196228L234.731079,233.184265L234.519165,232.657898L234.514526,232.646179L234.30603,232.102478L234.30188,232.091736L234.096313,231.530701L234.092651,231.519958L233.890503,230.941589L233.887085,230.93158L233.68811,230.335876L233.684937,230.326355L233.489136,229.713562L233.486206,229.704041L233.293823,229.073914L233.289185,229.058044L233.15686,228.588074L233.155396,228.583191L233.017212,228.079773L233.015991,228.07489L232.872437,227.538025L232.871216,227.533875L232.72229,226.963806L232.721313,226.960144L232.566772,226.356384L232.56604,226.35321L232.405884,225.716248L232.405151,225.713074L232.286011,225.230408L232.259888,225.245544L232.189819,225.277771L232.116821,225.302673L232.082886,225.310486L232.2677,226.10614L232.270386,226.118347L233.415649,231.436218L233.42688,231.50116L233.523315,232.264587L233.526489,232.294373L233.59021,233.031433L233.592163,233.06366L233.623413,233.774597L233.624146,233.809021L233.623169,234.493347L233.622192,234.531433L233.588501,235.189392L233.585327,235.229675L233.519165,235.861023L233.513306,235.904236L233.414673,236.509216L233.405884,236.555115L233.27478,237.133728L233.246704,237.228455L232.674683,238.782898L232.667603,238.801208L232.491333,239.244568L232.353149,239.62738L232.25061,239.953552L232.186401,240.208679L232.149536,240.454041L232.140747,240.744812L232.164185,241.089783L232.222046,241.481873L232.579468,242.967712L232.582397,242.980652L232.860962,244.233826L233.163696,245.525574L233.490112,246.855408L233.490356,246.855408L233.842651,248.230652L233.842407,248.230652L234.214966,249.63031L234.613159,251.07489L235.035278,252.5578L235.482056,254.081238L235.727417,254.906921L235.728638,254.91156L235.961548,255.71405L235.963013,255.718933L236.183472,256.49823L236.185181,256.503845L236.392944,257.259949L236.394409,257.265564L236.589722,257.998474L236.591431,258.004822L236.774048,258.714539L236.775513,258.72113L236.945679,259.407654L236.947388,259.414734L237.105103,260.07782L237.119263,260.153503L237.12561,260.230408L237.123901,260.307556L237.114624,260.384216L237.097778,260.459412L237.07312,260.532654L237.041382,260.602722L237.002563,260.669617L236.957397,260.731873L236.90271,260.792908L236.815796,260.879822L236.758667,260.93158L236.727417,260.955505L236.560181,261.078064L236.496704,261.120056L236.339722,261.212585L236.252319,261.256775L236.106079,261.319275L236.033569,261.345886L235.983765,261.359802L235.848022,261.392273L235.772339,261.406189L235.695435,261.412781L235.650269,261.412781L234.991577,261.394958L234.914673,261.388855L234.856079,261.379089L234.282837,261.259216L234.208374,261.239685L234.136108,261.212585L234.066772,261.178406L234.001587,261.13739L233.940796,261.090027L233.884888,261.036804L233.834839,260.977966L233.791138,260.91449L233.753784,260.847107L233.723511,260.776062L233.703979,260.714783L233.372437,259.504578L233.017212,259.602966L232.954468,259.617371L232.576538,259.688416L232.515991,259.697449L232.120239,259.739441L232.063843,259.743347L231.650024,259.756287L231.597778,259.756042L231.166138,259.739929L231.118286,259.736755L230.668579,259.691589L230.62561,259.685974L230.158325,259.612L230.119263,259.604675L229.633911,259.501648L229.598755,259.493347L229.095581,259.361267L229.063843,259.352234L228.542603,259.191101L228.514526,259.181824L227.975464,258.991882L227.949585,258.982117L227.3927,258.762878L227.369751,258.753601L226.795044,258.505554L226.774292,258.496033L226.181519,258.218933L226.162964,258.210144L225.552368,257.904236L225.535034,257.895203L225.46106,257.855652L225.456177,257.887146L225.43689,257.961853L225.410278,258.034119L225.376343,258.103455L225.335571,258.168884L225.288208,258.229919L225.235229,258.285828L225.176636,258.336121L225.113403,258.380066L225.046021,258.417664L224.97522,258.448181L224.901489,258.471375L224.82605,258.487L224.74939,258.494812L224.672241,258.494812L224.608276,258.488953L222.805786,258.246277L222.729858,258.232117L222.621948,258.197693L222.358521,258.091248L222.288452,258.058777L222.217407,258.016052L221.999146,257.868591L221.937378,257.822205L221.863403,257.751404L221.690796,257.562683L221.641724,257.503357L221.58606,257.417175L221.459106,257.187439L221.425415,257.118103L221.401733,257.055115L221.335815,256.852966L221.309448,256.747253L221.267212,256.504578L221.25769,256.423767L221.239136,256.14032L221.237427,256.07782L221.242798,255.753113L221.247925,255.676208L221.260864,255.600281L221.281616,255.525818L221.309448,255.454041L221.344604,255.385193L221.354858,255.369324L221.172974,255.199402L221.119263,255.143982L221.071655,255.083435L221.030151,255.01825L220.995728,254.949402L220.96814,254.877136L220.94812,254.802673L220.935913,254.726501L220.931274,254.649597L220.934448,254.572449L220.945435,254.496277L220.964233,254.421326L220.990356,254.348816L221.02356,254.279236L221.063843,254.213318L221.085815,254.184509L221.195923,253.672791L221.301636,253.106384L221.386841,252.563416L221.456665,252.010437L221.566772,251.031189L221.665161,250.025574L221.751587,248.992126L221.825317,247.93988L221.888794,246.840515L221.939819,245.722839L221.979126,244.577332L221.988892,244.156433L221.610962,244.323914L221.530884,244.353943L221.092896,244.491638L221.011108,244.512634L220.555786,244.60199L220.486694,244.612244L220.119995,244.649841L220.082397,244.652771L219.719604,244.671814L219.679565,244.672791L219.320435,244.672791L219.28064,244.671814L218.925415,244.653259L218.884155,244.649841L218.532837,244.612244L218.49231,244.606873L218.144653,244.55072L218.103882,244.543152L217.760132,244.468201L217.71936,244.457947L217.379517,244.363953L217.336548,244.350769L217.230835,244.314636L217.212036,244.367859L217.179077,244.437683L217.139282,244.503601L217.092896,244.565369L217.040649,244.622009L216.982788,244.673035L216.920288,244.717957L216.853394,244.756531L216.782837,244.787781L216.71228,244.811462L216.441528,244.886902L216.377075,244.901794L216.093872,244.954773L216.033813,244.963562L215.738159,244.994812L215.67981,244.998718L215.371704,245.007507L215.319214,245.007263L214.998657,244.994324L214.948853,244.990662L214.615845,244.955261L214.572144,244.949158L214.226685,244.892029L214.186157,244.884216L213.828003,244.804871L213.75354,244.784363L213.681763,244.756531L213.612915,244.721619L213.548218,244.679871L213.487915,244.631775L213.424194,244.568298L212.951538,244.038513L212.94519,244.031189L212.957886,244.087585L212.967163,244.164246L212.968628,244.24115L212.962036,244.318054L212.947876,244.393982L212.926147,244.467957L212.897095,244.53949L212.860962,244.607605L212.839966,244.640564L212.250122,245.521179L212.203979,245.582947L212.151978,245.639832L212.09436,245.691101L212.03186,245.736267L211.964966,245.775085L211.894653,245.806824L211.825073,245.830017L211.54187,245.910339L211.542847,245.917664L211.546753,245.994812L211.542847,246.071716L211.531128,246.148132L211.511841,246.222595L211.484985,246.295105L211.45105,246.364197L211.410278,246.429626L211.362915,246.490662L211.289185,246.565613L211.026489,246.797546L210.996948,246.822205L210.730103,247.034851L210.697388,247.059509L210.426392,247.252625L210.390991,247.276306L210.115601,247.450134L210.076538,247.473328L209.796997,247.62738L209.755981,247.648376L209.472046,247.783142L209.428589,247.801941L209.140259,247.917419L209.094849,247.934021L208.802612,248.029968L208.760376,248.042664L208.435669,248.128845L208.378052,248.141785L208.054565,248.201355L207.994751,248.2099L207.672485,248.243103L207.611206,248.246765L207.289673,248.253845L207.225952,248.252625L206.90564,248.232849L206.844116,248.226501L206.52478,248.180603L206.464478,248.169617L206.146118,248.097351L206.087769,248.081482L205.770386,247.982361L205.730347,247.968689L205.341675,247.823181L205.289673,247.801453L204.921753,247.631775L204.870728,247.605896L204.523315,247.412781L204.471802,247.381531L204.145142,247.16449L204.095825,247.128845L203.789917,246.888367L203.743286,246.848572L203.457642,246.584167L203.414185,246.54071L203.149292,246.252625L203.110718,246.20697L202.866333,245.895447L202.8302,245.845154L202.631226,245.543884L202.605103,245.501648L202.424683,245.185486L202.401978,245.142761L202.239868,244.811462L202.220581,244.76825L202.077026,244.421814L202.060913,244.379578L201.935669,244.018005L201.922485,243.976257L201.815796,243.599792L201.805542,243.559265L201.717407,243.167419L201.709595,243.128601L201.640015,242.721619L201.630981,242.644958L201.629761,242.56781L201.636108,242.49115L201.650269,242.415222L201.671997,242.341248L201.701294,242.269714L201.737427,242.201843L201.780396,242.137634L201.829468,242.078308L201.884644,242.024109L201.935913,241.982849L201.713989,241.710632L201.668335,241.648621L201.629028,241.58197L201.596802,241.511902L201.571899,241.438904L201.554321,241.363953L201.544556,241.287292L201.542603,241.210388L201.544556,241.170837L201.63147,240.032654L201.636841,239.983582L201.740112,239.257263L201.754761,239.18158L201.776978,239.107605L201.806763,239.036316L201.843384,238.968445L201.886841,238.904724L201.936401,238.845642L201.991577,238.791931L202.052124,238.74408L202.085083,238.722839L202.050659,238.671814L202.014038,238.603943L201.984497,238.532654L201.962524,238.458923L201.947876,238.382996L201.94104,238.306335L201.942017,238.229187L201.950806,238.152527L201.966187,238.081238L202.213745,237.151306L202.222778,237.119812L202.496216,236.246033L202.507935,236.211853L202.807007,235.394226L202.821655,235.356873L203.146851,234.595154L203.180786,234.525818L203.221558,234.460144L203.268677,234.399109L203.321655,234.342957L203.380005,234.292664L203.443237,234.248474L203.51062,234.210876L203.581421,234.180359L203.654907,234.156921L203.730347,234.141296L203.778931,234.136169L203.794556,233.726746L203.786987,233.675232L203.779663,233.598328L203.780151,233.521179L203.788452,233.444519L203.804321,233.36908L203.827759,233.295593L203.858765,233.224792L203.915894,233.128357L204.818481,231.834412L204.865845,231.773621L204.919067,231.717712L204.977661,231.667419L205.040894,231.623474L205.108276,231.586121L205.179321,231.555847L205.252808,231.532654L205.273804,231.528259L205.275024,231.504089L205.286255,231.427917L205.305542,231.35321L205.331909,231.280701L205.365601,231.211365L205.406128,231.145691L205.453247,231.084656L205.505981,231.028503L205.543579,230.994812L205.929321,230.671082L206.001343,230.617615L206.405151,230.352966L206.489136,230.305115L206.911011,230.099548L207.004272,230.061462L207.44397,229.915222L207.542358,229.889832L208.000122,229.802917L208.098511,229.79071L208.574341,229.763367L208.66687,229.763611L209.160522,229.795349L209.245728,229.805603L209.757202,229.896912L209.826538,229.912781L210.571899,230.119324L210.645142,230.143738L210.715454,230.175232L210.782349,230.213806L210.844849,230.258972L210.90271,230.310242L210.954712,230.366882L210.969604,230.386658L211.034058,230.374939L211.110962,230.36908L211.18811,230.371033L211.264526,230.380554L211.339722,230.398132L211.445679,230.436951L211.730103,230.566101L211.752075,230.576599L212.014526,230.705994L212.039185,230.718689L212.279663,230.848328L212.307495,230.863953L212.526001,230.993835L212.59021,231.03656L212.64978,231.085632L212.703979,231.14032L212.752563,231.200378L212.769897,231.22699L212.808228,231.233582L212.882446,231.254578L212.921997,231.270203L212.773315,230.492371L212.769653,230.470886L212.622681,229.561707L212.619751,229.541443L212.493286,228.59906L212.490845,228.579773L212.385132,227.603699L212.383423,227.5849L212.279907,226.34198L212.277222,226.264832L212.282593,226.187927L212.295776,226.112L212.316284,226.037537L212.34436,225.965759L212.379517,225.897156L212.421509,225.832458L212.469849,225.7724L212.471558,225.770691L212.427124,225.720886L212.381958,225.658386L212.343384,225.591492L212.311646,225.521179L212.287231,225.448181L212.270386,225.372742L212.261108,225.296326L212.259399,225.231873L212.270386,224.52655L212.271118,224.501648L212.304565,223.81073L212.306274,223.785095L212.361938,223.107849L212.364624,223.081726L212.442261,222.41864L212.445923,222.391052L212.546021,221.741882L212.550903,221.714294L212.672974,221.079041L212.679077,221.050232L212.823608,220.429138L212.830933,220.400085L212.997437,219.793152L213.021606,219.71991L213.053101,219.649597L213.091431,219.582703L213.136353,219.519958L213.187378,219.462097L213.244019,219.409851L213.305786,219.363464L213.322632,219.35321L213.315063,219.33197L213.296753,219.257019L213.286255,219.180603L213.283325,219.103455L213.288452,219.02655L213.301147,218.950378L213.321411,218.87616L213.348999,218.804382L213.9552,217.441589L213.990112,217.372986L214.03186,217.308044L214.079712,217.247498L214.133667,217.192322L214.192749,217.143005L214.256714,217.099548L214.324585,217.063171L214.395874,217.03363L214.469604,217.011414L214.545532,216.996765L214.59314,216.992615L214.58606,216.695984L214.585815,216.673767L214.588745,216.107605L214.589233,216.085388L214.608521,215.520935L214.609497,215.498474L214.645386,214.93573L214.647095,214.913269L214.699585,214.352478L214.702026,214.330017L214.771118,213.770935L214.774292,213.748962L214.859741,213.191589L214.863403,213.169373L214.965454,212.613953L214.969849,212.59198L215.088501,212.038025L215.093384,212.016541L215.228394,211.464539L215.234009,211.443054L215.385864,210.892761L215.391968,210.872253L215.559937,210.323669L215.566528,210.302917L215.751343,209.756042L215.75647,209.741394L215.96228,209.170837L215.970337,209.149597L216.184204,208.607849L216.193726,208.5849L216.415894,208.071472L216.42688,208.047058L216.657349,207.562439L216.670532,207.536316L216.909302,207.080017L216.924683,207.051941L217.171753,206.624451L217.189331,206.595398L217.444458,206.196228L217.465698,206.164734L217.72937,205.794373L217.753784,205.762146L218.025513,205.420349L218.053833,205.386658L218.333862,205.073425L218.366821,205.038757L218.655396,204.754089L218.692749,204.719666L218.98938,204.463806L219.031616,204.429871L219.336304,204.202576L219.383667,204.170105L219.696899,203.971375L219.748657,203.941101L220.07019,203.770935L220.126343,203.744324L220.455933,203.602966L220.498657,203.585876L220.783569,203.483582L220.827759,203.469421L221.109741,203.387146L221.157349,203.374939L221.436646,203.312683L221.486694,203.303162L221.763306,203.260681L221.816772,203.254333L222.090698,203.231873L222.146118,203.229431L222.417114,203.22699L222.473755,203.228699zM229.323715,226.003021C228.722885,226.417801,228.902039,227.142654,229.861145,228.177551L229.323715,226.003021zM214.21904,219.322281L214.912186,219.856964C214.77301,219.166565,214.686188,218.465149,214.651733,217.751328L214.04541,219.114197L214.21904,219.322281zM239.434387,230.301117C238.971359,230.105438,238.578613,229.743011,238.254776,229.213837L236.867096,229.282745C236.937378,229.686508,237.087585,230.042038,237.317719,230.353485C237.641556,230.744843,238.191391,230.824768,238.965851,230.594635C239.184952,230.549164,239.342056,230.451324,239.434387,230.301117zM232.531784,217.319992C232.068771,218.113739,231.42247,218.631882,230.590134,218.873047L231.196472,221.445847C231.78627,220.259354,232.231369,218.884064,232.531784,217.319992zM231.166138,251.752136L231.160522,251.777527L231.036987,252.294373L231.03064,252.319031L230.886841,252.842468L230.879761,252.865906L230.715698,253.395691L230.708862,253.417419L230.525024,253.953796L230.517212,253.975037L230.31311,254.517761L230.305542,254.537537L230.251099,254.671082L230.540649,254.735046L230.608276,254.753357L230.969116,254.868591L231.032837,254.892029L231.387573,255.041199L231.447388,255.069519L231.795288,255.252869L231.848999,255.284119L232.190552,255.501404L232.23938,255.535095L232.296753,255.578308L231.201294,251.579041L231.166138,251.752136zM239.018219,228.903778C239.260742,229.224869,239.537735,229.467407,239.850555,229.628632C240.219864,229.82431,240.619492,229.760925,241.046692,229.438461L241.27269,229.110489C241.283707,229.041595,241.330566,228.967178,241.410492,228.885864L241.202408,227.746231L240.058624,227.695251L239.937363,227.954315C239.763733,228.32225,239.457809,228.639206,239.018219,228.903778zM227.606674,222.82663C227.930511,222.815613,228.241959,222.877625,228.543747,223.0168L227.624588,219.735703L225.213028,220.409561C225.815231,221.181259,226.571777,221.692505,227.485413,221.946075C227.577744,221.969498,227.624588,222.026001,227.624588,222.118317L227.606674,222.82663zM204.853882,238.639618C204.251678,237.385605,203.916824,236.137115,203.847931,234.894119C203.397308,235.872528,203.015594,236.999756,202.702774,238.277191C203.801071,239.842651,205.27005,241.045685,207.108368,241.884903C206.171295,240.884445,205.420258,239.802689,204.853882,238.639618zM206.033493,231.578552C206.321503,232.62587,206.923706,233.547775,207.835968,234.341522C208.367889,232.765045,209.212616,231.60199,210.368805,230.853714L209.623276,230.647003C208.235596,230.324539,207.038086,230.635986,206.033493,231.578552zM205.997665,247.255127C206.842407,247.554153,207.698166,247.570694,208.564941,247.306107C209.350433,247.075974,210.090439,246.63913,210.784973,245.994217C209.292542,246.282227,207.761551,246.081024,206.189209,245.390625C204.801529,244.769135,203.53511,243.836212,202.391327,242.593216C202.552567,243.698395,202.910858,244.642365,203.466202,245.425079C204.090454,246.287735,204.933807,246.898209,205.997665,247.255127zM230.329681,218.235016C231.462433,218.0159,232.097702,217.331024,232.236893,216.180359C232.387085,215.064148,232.023285,214.142242,231.144104,213.417389L231.022827,213.297501L230.970474,213.279587C230.20842,213.026031,229.7509,213.400848,229.600708,214.401306L229.271347,216.749481C229.086685,217.095383,228.820724,217.383392,228.473465,217.61351C228.241959,217.762344,227.872635,217.934601,227.364136,218.13028C226.35817,218.521637,225.415604,218.769684,224.536407,218.873047L224.849228,219.82251L227.641129,219.045303C227.733459,218.81517,227.901581,218.579529,228.144119,218.338364C228.364594,218.13028,228.578201,217.975937,228.786285,217.871216L229.600708,217.820221C229.866669,217.88913,230.109192,218.026932,230.329681,218.235016zM237.177612,231.326599L237.121948,231.379822L237.097534,231.398621L237.102173,231.424255L237.105591,231.44989L237.242065,231.784851L237.423706,232.195251L237.606079,232.57489L237.800659,232.948914L238.004272,233.310242L238.214478,233.654968L238.434937,233.989197L238.656616,234.2995L238.936157,234.66156L239.218628,234.991882L239.507202,235.295105L239.794312,235.564392L240.089966,235.809753L240.390991,236.028748L240.690308,236.217468L240.807739,236.280457L240.974243,235.71405L240.97644,235.706726L241.104858,235.285828L241.214722,234.887878L241.310669,234.497986L241.391235,234.122742L241.457886,233.75238L241.508911,233.400818L241.545532,233.06366L241.568726,232.724548L241.582642,232.378601L241.587769,232.021179L241.583618,231.641052L241.570435,231.256531L241.549194,230.869568L241.516968,230.44574L241.480591,230.064636L241.477173,230.067078L241.318237,230.175964L241.249878,230.217712L241.093628,230.302185L241.009888,230.341003L240.856323,230.401306L240.753784,230.433533L240.602661,230.469421L240.526733,230.483337L240.485474,230.487732L240.33728,230.499207L240.260132,230.50116L240.213501,230.498718L240.170288,230.495056L240.16394,230.520691L240.138062,230.593201L240.104858,230.663025L240.064819,230.728943L240.03186,230.773865L239.950562,230.876648L239.89978,230.934753L239.825073,231.002136L239.719604,231.085388L239.656616,231.130066L239.583618,231.171082L239.454468,231.234558L239.383667,231.265076L239.329224,231.282898L239.176636,231.326843L239.154907,231.332703L238.874878,231.40448L238.809692,231.418152L238.550903,231.460876L238.469849,231.46991L238.2323,231.483337L238.135376,231.482605L237.918579,231.467224L237.842163,231.457947L237.802612,231.450134L237.6073,231.405457L237.533081,231.38446L237.479858,231.364197L237.305298,231.290222L237.235962,231.256531L237.227905,231.268005L237.177612,231.326599zM242.00029,211.380646C241.238235,211.12709,240.780731,211.496399,240.630524,212.48584L240.301163,214.834015C240.127533,215.189545,239.856064,215.483063,239.48674,215.714584C239.255234,215.863403,238.89006,216.030151,238.393967,216.214813C237.237793,216.664047,236.208389,216.921738,235.307159,216.99202L234.994339,218.217102L238.670944,217.146362C238.763275,216.916229,238.925888,216.680588,239.156021,216.439423C239.376495,216.231339,239.590103,216.077011,239.798187,215.972275L240.613983,215.92128C240.879944,215.990189,241.127991,216.122482,241.359497,216.318161C242.492249,216.11145,243.127518,215.432083,243.266708,214.281418C243.416916,213.165207,243.053101,212.237793,242.17392,211.501923L242.036118,211.380646L242.00029,211.380646zM239.989731,212.123413C240.082062,211.708618,240.2612,211.36412,240.527161,211.087128C240.804153,210.82254,241.127991,210.661316,241.497299,210.603439C241.312653,210.373306,241.041168,210.333344,240.682877,210.483551L239.850555,210.914871C239.421982,211.11055,238.861115,211.293839,238.167969,211.467468L236.434387,211.84642L235.739853,215.196442L235.479416,216.265793C236.716888,216.162445,237.977798,215.79451,239.260742,215.161987C239.630066,214.988358,239.845032,214.5336,239.902908,213.797729C239.902908,212.957123,239.931854,212.399017,239.989731,212.123413zM225.421112,213.745361L225.299835,214.056793C224.710037,215.575394,224.43306,216.945175,224.467514,218.164734C225.681564,218.073776,226.935577,217.711365,228.230927,217.077454C228.601624,216.89418,228.815216,216.432541,228.873093,215.696671C228.873093,214.868469,228.907547,214.315872,228.97644,214.038879C229.068771,213.625473,229.247925,213.279587,229.513885,213.003983C229.792252,212.72699,230.116089,212.560257,230.485397,212.50238C230.300751,212.284637,230.029266,212.243301,229.670975,212.382477L228.820724,212.813812C228.392166,213.009491,227.832672,213.192764,227.138153,213.366409L225.421112,213.745361zM212.136826,231.648834C211.859833,231.475204,211.524963,231.302948,211.130859,231.130692C210.437698,231.417328,209.842392,231.91893,209.34491,232.632751C208.905319,233.265274,208.575974,234.008041,208.356857,234.859665L208.322418,235.048462L208.130859,236.153641C208.015106,237.592316,208.373398,238.962082,209.207108,240.262955C209.923691,241.390182,210.940689,242.397537,212.258087,243.283615C210.177246,240.533051,209.455154,237.869293,210.090439,235.290985C210.426682,233.886765,211.10881,232.672714,212.136826,231.648834zM205.443695,232.270325L204.541077,233.564316L204.55899,233.685577C204.432205,235.307526,204.824951,236.959793,205.738586,238.639618C206.558517,240.125153,207.662323,241.431534,209.050018,242.558762L210.281982,242.783386C209.276016,241.850449,208.530487,240.832077,208.044052,239.726898C207.524536,238.51973,207.332977,237.253326,207.472168,235.929016L207.59343,235.204178C206.553009,234.421448,205.836426,233.443039,205.443695,232.270325zM202.30452,241.228958C203.460693,242.72551,204.83046,243.847229,206.413834,244.595505C208.217682,245.447128,209.952637,245.613876,211.61731,245.097107L212.207092,244.216553L211.253494,243.577133L211.217667,243.595047C209.565399,243.582642,207.951721,243.198181,206.379379,242.4375C204.841492,241.678192,203.547516,240.654312,202.49469,239.364471L202.391327,240.090698L202.30452,241.228958zM236.693466,224.966736C236.508804,225.278168,236.584595,225.588226,236.919464,225.899658C237.15097,226.118774,237.462402,226.302048,237.856522,226.452255C238.041183,226.521149,238.070129,226.658966,237.943344,226.865662C237.827591,227.073746,237.6884,227.171585,237.525803,227.15918L236.606644,227.280457C236.226303,227.383804,236.197372,227.626343,236.52121,228.00531C236.832642,228.362213,237.127548,228.563416,237.404526,228.61026C237.890976,228.679169,238.33609,228.581329,238.739853,228.316742C239.156021,228.052155,239.434387,227.695251,239.572189,227.246002C239.758224,226.635529,239.711365,225.945129,239.434387,225.174805C239.364105,225.001175,239.434387,224.828918,239.642471,224.656677L240.075165,224.673203C240.341125,225.399429,240.411407,226.140823,240.283249,226.900116L240.301163,226.900116C240.485825,227.06134,240.740753,227.119232,241.064606,227.073746L240.283249,223.862915L240.161987,223.879456C239.098145,223.833984,238.017761,223.960754,236.919464,224.259796C235.832184,224.569855,235.057724,225.093506,234.596085,225.830765C234.317719,226.267593,234.248825,226.711319,234.388,227.15918C234.525803,227.597412,234.826218,227.936401,235.289246,228.177551C235.486298,228.282288,235.491806,228.465576,235.307159,228.730148C235.052216,229.052612,235.099075,229.478424,235.444962,230.007599C235.781204,230.538132,236.173935,230.802719,236.624557,230.802719C236.289703,230.319031,236.11055,229.668594,236.087128,228.85141L236.087128,228.834885C235.844589,228.568924,235.69989,228.264374,235.653046,227.919861C235.607574,227.550552,235.69989,227.240494,235.931412,226.986938C236.069214,226.825699,236.266266,226.698929,236.52121,226.606598C235.839081,226.055374,235.705414,225.439392,236.121582,224.760025C236.237335,224.553314,236.393051,224.477524,236.590103,224.5354C236.798187,224.593277,236.832642,224.736603,236.693466,224.966736zM228.889633,231.493118C228.439011,231.861053,227.98288,232.085678,227.519867,232.165604C227.056839,232.257935,226.606216,232.154572,226.166626,231.855545C226.294785,232.89183,226.519409,233.881256,226.843246,234.825211C227.074753,235.492188,227.479904,236.159149,228.057297,236.827499L229.792252,238.449463L229.808777,238.398468C230.317276,236.912933,230.595642,235.544556,230.641113,234.289154C230.653519,233.357605,230.601151,232.424667,230.485397,231.493118C229.908005,231.665375,229.376083,231.665375,228.889633,231.493118zM222.907562,257.49118L224.710037,257.733734L224.710037,257.336853C224.710037,257.2211,224.773438,257.10672,224.901596,256.990967C225.039398,256.864166,225.162033,256.829712,225.265396,256.887604C228.665009,258.752075,231.301193,259.379089,233.17395,258.768616L232.618607,256.749817L232.444977,256.680908C231.578186,255.874756,230.641113,255.431015,229.635147,255.351089C228.699463,256.144836,227.467499,256.541718,225.942017,256.541718C224.704529,256.541718,223.392639,256.284027,222.004959,255.765884C221.981522,256.226135,222.022873,256.576172,222.126221,256.818695C222.265396,257.152191,222.525848,257.376801,222.907562,257.49118zM229.566254,209.516159C229.716461,209.527191,229.792252,209.619522,229.792252,209.793152L229.670975,211.692093L229.895599,211.60527C230.393066,211.455063,230.832672,211.628693,231.214386,212.123413C231.330139,212.422455,231.462433,212.623642,231.61264,212.72699L232.202438,213.314041C232.526276,213.716431,232.7509,214.149124,232.879059,214.60939L233.016861,211.829895L232.982407,210.759155L232.982407,209.688416C232.994812,209.561646,233.087143,209.41832,233.260773,209.257095L233.641113,208.912582C234.093109,208.452316,234.288788,207.892838,234.230911,207.236893C234.208862,206.937851,234.12204,206.649841,233.971832,206.374237C233.439911,207.479431,232.450485,208.129852,231.006302,208.325546C230.011353,208.452316,229.005386,208.336563,227.988403,207.979645C226.935577,207.600693,226.097733,207.041214,225.47348,206.305328C225.612656,207.214844,226.074295,207.968628,226.86116,208.566696C227.612183,209.108261,228.514801,209.423828,229.566254,209.516159zM210.837326,234.963013C210.339859,236.505035,210.44873,238.144913,211.166687,239.882614C211.74408,241.25238,212.686661,242.645584,213.993042,244.060822C214.964554,244.301987,215.802399,244.307495,216.507965,244.077362C215.778976,243.756287,215.183655,243.301529,214.720642,242.714478C213.819397,241.563812,213.299881,240.222992,213.160706,238.691986C213.03392,237.287766,213.224091,235.849091,213.73259,234.375977L213.160706,232.373688L213.091797,232.32132L212.639801,231.976807C211.830902,232.736115,211.230072,233.731049,210.837326,234.963013zM233.971832,221.652542L234.820709,224.691116L235.307159,224.29425C236.52121,223.477066,238.115601,223.091217,240.093079,223.136688L238.65303,217.836761L234.786255,218.976395L233.919464,221.565735L233.971832,221.652542zM227.501953,223.551483C227.259415,225.024612,226.721985,226.1353,225.889648,226.883575C224.988403,227.689728,223.761948,228.240952,222.213043,228.541351C222.605774,230.279068,223.340271,231.228531,224.415146,231.389771C224.785828,231.446259,225.162033,231.400787,225.542374,231.25058C225.299835,230.951553,225.075226,230.572586,224.867142,230.11232C224.785828,229.93869,224.849228,229.766434,225.057312,229.594177C225.276413,229.409515,225.42662,229.409515,225.507935,229.594177C226.132172,230.963959,226.86116,231.578552,227.693497,231.44075C227.854721,231.417328,228.046265,231.337402,228.265381,231.1996C227.710037,230.853714,227.27182,230.347961,226.947983,229.679626C226.866669,229.50737,226.930054,229.340622,227.138153,229.179398C227.358627,229.007141,227.514343,229.007141,227.606674,229.179398C228.069702,230.168823,228.704971,230.733826,229.513885,230.871628L230.259399,230.853714L230.38205,230.81926L230.173965,229.628632L230.138138,229.610718C229.502853,229.058121,229.052246,228.592346,228.786285,228.213379C228.34668,227.579483,228.207504,226.970398,228.370117,226.383347C228.48587,225.991989,228.751831,225.65712,229.167999,225.381516L228.97644,224.691116L228.837265,224.553314C228.629181,223.942841,228.184082,223.60936,227.501953,223.551483zM215.189178,220.978683L215.085815,220.944229C214.541504,220.623154,214.090881,220.306198,213.73259,219.994766C213.258545,221.594666,213.021515,223.344772,213.021515,225.243713C213.126251,225.220291,213.206177,225.243713,213.264053,225.312622C214.259003,226.463272,215.559875,227.452713,217.166656,228.282288C218.577774,229.007141,220.137711,229.565247,221.849243,229.956604L221.4496,228.575806C221.241516,228.505524,220.993469,228.356705,220.704086,228.126572L220.079834,227.626343C218.715576,226.601074,217.564911,225.399429,216.629227,224.017258C216.015991,223.109131,215.536438,222.096283,215.189178,220.978683zM234.560257,205.787201C234.954376,206.419708,235.046707,207.111481,234.838623,207.858383C234.653961,208.503311,234.272247,209.108261,233.693466,209.671875C233.982864,214.977325,233.219421,219.195511,231.404556,222.326416L231.907532,224.569855C232.76329,223.004395,233.50882,221.094437,234.144089,218.838593L234.196457,218.666336L235.012253,215.437592C235.508347,213.342972,235.902466,211.288315,236.190475,209.275009C236.213898,209.07933,236.34758,208.94014,236.590103,208.860214C236.832642,208.780289,236.930481,208.860214,236.88501,209.101379L236.572189,211.105042L238.012238,210.742615C238.046692,209.534073,237.936447,208.439911,237.682892,207.461502C237.346649,206.17305,236.792679,205.274567,236.018219,204.768829L234.560257,205.787201zM228.629181,218.682877C228.341171,218.844101,228.21991,219.016357,228.265381,219.201019L228.716003,220.771973C229.376083,223.120163,229.942459,225.30159,230.416504,227.314911C231.10965,230.319031,231.410065,232.770554,231.317734,234.669495C231.24884,235.716797,231.035233,236.769623,230.675568,237.827957L230.20842,239.41684C230.103683,239.969421,230.103683,240.51651,230.20842,241.056702C230.242859,241.241364,230.14502,241.395691,229.913513,241.522476C229.693024,241.661667,229.56073,241.620316,229.513885,241.402588C229.376083,240.712189,229.3871,240.009399,229.54834,239.295563L229.462891,239.244583L227.641129,237.586807C227.016876,236.91983,226.566254,236.245972,226.289276,235.566605C225.884125,234.600586,225.60025,233.403076,225.439026,231.976807L224.06926,232.096695L223.964523,232.08017C224.185013,233.357605,224.427551,234.404907,224.693512,235.222092C225.075226,236.338303,225.565796,237.282257,226.166626,238.052582L228.075211,240.297409C228.791794,241.194504,229.271347,242.046143,229.513885,242.852295L230.727936,247.012589L231.889618,251.207336L234.438995,260.513214L235.012253,260.633118L235.670959,260.651031C235.844589,260.627594,236.047165,260.524261,236.277298,260.340973L236.364105,260.25415C235.960342,258.516449,235.422913,256.530701,234.751801,254.298279C233.526733,250.177933,232.555206,246.459991,231.838638,243.145813L231.47345,241.627213C231.357697,240.993317,231.34668,240.469666,231.438995,240.056244C231.520309,239.675903,231.693939,239.163269,231.9599,238.51973L232.531784,236.965302C232.92453,235.457733,232.971375,233.667664,232.670975,231.596466L231.525818,226.278625L229.808777,218.890961L229.35817,218.579529C229.173508,218.487198,228.930969,218.521637,228.629181,218.682877zM240.838608,216.99202L240.387985,216.664047C240.203323,216.582748,239.960785,216.622711,239.658997,216.783936C239.370987,216.945175,239.249725,217.111908,239.295197,217.285538L239.745819,218.873047L241.428406,225.399429C242.133957,228.391159,242.434372,230.84819,242.329636,232.770554C242.284164,233.714508,242.07608,234.767334,241.705383,235.929016L241.238235,237.517899C241.122482,238.05809,241.116959,238.599655,241.220322,239.141235C241.254776,239.324509,241.156921,239.485748,240.925415,239.623535C240.706314,239.762726,240.572647,239.721375,240.527161,239.503662C240.387985,238.708527,240.43483,237.898239,240.664963,237.068665C239.705856,236.597366,238.833557,235.825668,238.046692,234.756317C237.388,233.868851,236.827133,232.833954,236.364105,231.648834L236.34758,231.527573C235.734344,231.480713,235.236877,231.159637,234.855164,230.560181C234.462418,229.93869,234.388,229.335114,234.630539,228.748062C234.017319,228.345673,233.693466,227.81514,233.659027,227.15918C233.624573,226.572144,233.814743,225.979584,234.230911,225.381516L233.468857,222.705368L232.808777,224.156448C233.27179,226.077423,233.676941,227.642883,234.022827,228.85141C234.531326,230.554672,235.075638,232.074646,235.653046,233.408585C236.023743,234.249191,236.682434,235.251022,237.630524,236.41272C238.786697,237.840363,239.515686,238.795349,239.816101,239.279037C240.093079,239.715866,240.335617,240.262955,240.543701,240.9189L241.046692,242.645584L243.787598,252.450317L245.434357,258.476471L245.486725,258.596375L245.642441,258.614288C245.919434,258.752075,246.203308,258.804443,246.492691,258.768616C246.793106,258.734192,247.064575,258.619812,247.307114,258.424133L247.393936,258.355225L246.753143,255.851318L245.747177,252.330429L244.741211,248.82608C244.139008,246.661179,243.601563,244.515579,243.127518,242.386505L242.642456,240.418671C242.468826,239.635941,242.394409,238.96759,242.416458,238.415009C242.428864,238.012619,242.579071,237.477936,242.868454,236.809586L243.492706,235.256546C243.9888,233.518829,243.983292,231.308456,243.474792,228.626801L242.365463,223.448135L241.151413,218.26947L240.838608,216.99202zM227.450958,240.832077L225.560287,238.605164C225.352203,239.56015,225.017349,240.446228,224.554321,241.263412C224.06926,242.150864,223.473938,242.870209,222.768387,243.421417C222.71051,246.610199,222.525848,249.504074,222.213043,252.105804C222.131729,252.84169,221.999435,253.613388,221.814789,254.41954L221.796875,254.66069L221.693512,254.642776L221.970505,254.901855C224.120239,255.765884,226.01091,256.00705,227.641129,255.626709C228.091751,255.512329,228.543747,255.327667,228.99437,255.075485L229.376083,254.798492C230.000336,253.325378,230.41098,251.921158,230.606674,250.585846C230.619064,250.471466,230.693481,250.368103,230.832672,250.275787L228.873093,243.352509C228.629181,242.558762,228.155136,241.71817,227.450958,240.832077zM214.564926,234.392517C214.819855,235.153183,215.067902,235.658936,215.31044,235.912491C215.449631,236.050293,215.426193,236.222549,215.241547,236.430634C215.056885,236.637329,214.894272,236.671783,214.75647,236.533981C214.512558,236.269394,214.293457,235.883545,214.09639,235.377808C213.472137,237.909271,213.866257,240.147202,215.276001,242.092987C215.79689,242.806808,216.565842,243.318054,217.582825,243.629501C218.48407,243.905106,219.426636,243.979523,220.40918,243.854126C221.646667,243.680481,222.698105,242.990082,223.566269,241.781555C224.306274,240.734238,224.780319,239.520187,224.988403,238.139404L225.091766,237.949219C224.572235,237.155472,224.149185,236.171555,223.825348,234.997467L223.184555,231.837631L223.166641,231.768723C222.831772,231.562012,222.531372,231.25058,222.265396,230.837173L222.196503,230.837173C220.438126,230.491287,218.802399,229.962112,217.287933,229.248291C215.554352,228.431122,214.137726,227.441681,213.039429,226.278625L213.142792,227.521606C213.397736,230.168823,213.871765,232.459122,214.564926,234.392517zM220.756454,204.30304C218.976028,204.981033,217.54837,206.881363,216.473511,209.999863C215.444107,212.911652,215.12027,215.897858,215.501984,218.959854C215.744522,221.054474,216.69812,223.045746,218.362793,224.932281C219.241989,225.945129,220.31134,226.854645,221.570877,227.660797L221.918137,227.867493L221.93605,227.885406C222.687088,227.780685,223.416061,227.579483,224.120239,227.280457C224.756897,227.026901,225.270905,226.664474,225.663651,226.193176C226.023315,225.778397,226.32373,225.220291,226.566254,224.51886C226.739899,224.011749,226.855652,223.448135,226.913528,222.82663L226.930054,222.60202C225.889648,222.268524,225.06282,221.647034,224.450974,220.737534C224.091309,220.231781,223.866684,219.603409,223.774353,218.856506C223.727509,218.786224,223.721985,218.695282,223.756439,218.579529C223.698563,217.532211,223.970032,216.08252,224.572235,214.22905L225.022858,213.176239C225.276413,212.739395,225.560287,212.514771,225.873108,212.50238C225.987488,212.491348,226.05777,212.531311,226.081192,212.623642C226.103241,212.692535,226.0867,212.784866,226.028824,212.899246L227.416504,212.536819L228.924088,212.088959L228.959915,212.054504L229.081177,210.224472C227.716919,210.050842,226.624146,209.550613,225.802826,208.722412C224.925018,207.823929,224.577759,206.713242,224.762405,205.39032L224.780319,205.355865L224.727951,205.269058C224.357269,204.602081,223.768845,204.19281,222.958557,204.043976C222.253006,203.917191,221.519882,204.004013,220.756454,204.30304z"/>
</svg>
