<?xml version="1.0" encoding="UTF-8"?>
<svg xmlns="http://www.w3.org/2000/svg" xmlns:xlink="http://www.w3.org/1999/xlink" width="46.633mm" height="58.539mm" fill="white" stroke="black" stroke-width="0.5" viewBox="-471.564148 279.050476 46.632568 58.538818">
    <path transform="matrix(-1,0,0,1,0,0)" d="M445.91864,279.052185L446.18866,279.07074L446.244812,279.076843L446.511658,279.115173L446.567078,279.125183L446.861023,279.18988L446.936707,279.210632L447.210144,279.301208L447.288025,279.331726L447.54071,279.447449L447.619568,279.489441L447.851746,279.630798L447.927917,279.683777L448.139343,279.850769L448.207703,279.911804L448.398621,280.104187L448.458191,280.171814L448.628601,280.389832L448.677185,280.459412L448.81073,280.676453L448.842224,280.718933L448.884705,280.783142L448.920593,280.851501L448.949402,280.923035L448.970886,280.997009L448.984802,281.072937L448.990906,281.149841L448.989197,281.22699L448.979675,281.303406L448.965515,281.365417L448.956726,281.494568L448.958435,281.568298L448.996765,281.561951L449.073669,281.557312L449.150818,281.560486L449.22699,281.571228L449.301941,281.589783L449.374695,281.615662L449.444275,281.648865L449.510193,281.688904L449.571716,281.735535L449.614929,281.774841L449.890808,282.044861L450.173523,282.279968L450.476013,282.494568L450.831238,282.708435L450.895203,282.751648L450.954529,282.800964L451.008484,282.855896L451.056824,282.916199L451.098572,282.98114L451.137878,283.059509L451.141296,283.067322L451.498718,283.468445L451.521179,283.443787L451.578796,283.392517L451.641296,283.347351L451.708191,283.308777L451.778503,283.277039L451.851746,283.252625L451.926941,283.235779L452.003601,283.226501L452.08075,283.225037L452.15741,283.231628L452.217957,283.242126L452.802673,283.369324L453.34198,283.434753L453.860291,283.44574L454.375916,283.403748L454.688904,283.347595L454.991882,283.271179L455.268982,283.17865L455.526306,283.068787L455.760925,282.943542L455.976746,282.802429L456.173279,282.645691L456.379333,282.447205L456.437439,282.396667L456.500427,282.35199L456.567566,282.314148L456.638367,282.283386L456.668152,282.273865L456.666931,282.243591L456.671326,282.166687L456.683533,282.090515L456.703552,282.016052L456.729919,281.94574L456.903503,281.546082L456.937927,281.47699L456.978943,281.41156L457.026306,281.350769L457.079773,281.295105L457.138367,281.245056L457.233093,281.183044L457.860046,280.835632L457.929382,280.801697L458.001648,280.774841L458.076355,280.755554L458.152527,280.74408L458.228943,280.740173L458.243103,280.708191L458.281189,280.641052L458.325867,280.578308L458.376648,280.520203L458.446716,280.456238L458.987,280.022156L459.0495,279.97699L459.116394,279.938171L459.186707,279.906677L459.259705,279.882019L459.3349,279.865173L459.41156,279.855896L459.488708,279.854431L459.565613,279.861023L459.641296,279.874939L459.715515,279.896667L459.78363,279.924255L460.221619,280.126404L460.283142,280.158386L460.702332,280.40033L460.759705,280.436951L461.160095,280.718445L461.213074,280.759216L461.594177,281.080505L461.640808,281.12323L462.003113,281.48407L462.04364,281.527771L462.387146,281.928406L462.422302,281.972595L462.746521,282.412781L462.776062,282.455994L463.080994,282.935974L463.10321,282.973083L463.34491,283.405701L463.36322,283.440613L463.583679,283.888123L463.599792,283.923279L463.799011,284.385681L463.813416,284.421082L463.99115,284.898132L464.003113,284.9328L464.159851,285.424255L464.169861,285.458679L464.305359,285.965027L464.31366,285.999207L464.427673,286.520203L464.434021,286.552917L464.499939,286.933289L464.793152,286.908875L464.871033,286.906189L465.180847,286.912292L465.270935,286.919617L465.555359,286.959167L465.657898,286.980652L465.916687,287.053894L465.989685,287.078552L466.027039,287.094666L466.260437,287.201843L466.329041,287.237488L466.370056,287.263367L466.577576,287.403992L466.639099,287.450378L466.676697,287.48407L466.85907,287.658386L466.918152,287.721863L468.118347,289.16449L468.164734,289.226257L468.204529,289.292175L468.237488,289.362L468.263123,289.434753L468.281189,289.509705L468.291931,289.586121L468.294617,289.663269L468.292664,289.693542L468.345886,289.712341L468.415466,289.745544L468.481628,289.785339L468.543152,289.831726L468.599792,289.883972L468.650818,289.941833L468.694275,290.002136L469.167664,290.732117L469.183533,290.757996L469.612244,291.480652L469.628357,291.508728L470.01239,292.223816L470.028015,292.254578L470.367615,292.962097L470.382751,292.995789L470.677917,293.695496L470.692322,293.732605L470.942566,294.424988L470.95575,294.464539L471.161804,295.149353L471.173279,295.192566L471.334412,295.869812L471.348572,295.945496L471.354919,296.0224L471.35321,296.099548L471.343933,296.176208L471.327087,296.251404L471.302429,296.324402L471.270691,296.394714L471.232117,296.461365L471.186707,296.523865L471.135437,296.581482L471.078552,296.633484L471.016541,296.679626L470.966736,296.709412L471.079529,296.895203L471.098328,296.927917L471.294617,297.290955L471.311707,297.324402L471.490173,297.697449L471.519714,297.768738L471.542175,297.842468L471.557068,297.918152L471.564148,297.995056L471.562683,298.081482L471.538757,298.411072L471.533386,298.462097L471.488464,298.781189L471.478943,298.834656L471.412781,299.143494L471.398865,299.197937L471.311462,299.496521L471.293396,299.55072L471.184998,299.838806L471.162537,299.892273L471.033142,300.170105L471.006287,300.222351L470.855652,300.489685L470.825378,300.539001L470.653503,300.796326L470.607605,300.858093L470.555603,300.914978L470.497986,300.966492L470.435486,301.011658L470.368835,301.050476L470.298523,301.082214L470.225525,301.106873L470.15033,301.123718L470.13739,301.125183L470.137146,301.145447L470.128845,301.222107L470.112976,301.297546L470.089294,301.371033L470.058533,301.441589L470.020691,301.508972L469.976257,301.57196L469.92572,301.630066L469.869568,301.683044L469.823669,301.718933L468.936218,302.362488L468.871521,302.40448L468.829529,302.427185L467.786316,302.948181L467.715515,302.979187L467.642029,303.002869L467.566589,303.018982L467.489929,303.027283L467.412781,303.027771L467.340515,303.021179L467.297791,303.073425L467.243103,303.127869L467.183289,303.176453L467.118835,303.218689L467.050232,303.254333L466.979675,303.282654L466.229431,303.539001L466.190125,303.551208L465.43573,303.764099L465.394714,303.774353L464.635925,303.943787L464.594177,303.951843L463.831482,304.07782L463.754822,304.086609L463.677673,304.087585L463.600769,304.08075L463.525085,304.066101L463.451111,304.043884L463.390808,304.018738L463.336853,304.059753L463.270935,304.100037L463.201599,304.133484L463.128845,304.159607L463.054138,304.178406L462.950867,304.191589L461.768494,304.260437L461.691589,304.260925L461.614685,304.253845L461.539001,304.238708L461.465271,304.216248L461.394226,304.186462L461.369568,304.173035L461.361023,304.177429L461.289246,304.205505L461.215027,304.226501L461.139099,304.239685L461.062195,304.245056L460.978699,304.242371L458.440125,304.016296L458.363708,304.005554L458.288757,303.987244L458.216248,303.961365L458.146423,303.928162L458.080505,303.888367L458.018982,303.841736L457.98407,303.809509L457.930847,303.828796L457.85614,303.847595L457.779724,303.858826L457.70282,303.862244L457.625671,303.857849L457.523621,303.839783L457.076111,303.728699L457.042419,303.719666L456.621521,303.594421L456.5849,303.582458L456.190613,303.443054L456.150574,303.427673L456.022644,303.374207L456.206726,304.205261L456.207703,304.209412L456.367615,304.951111L456.368591,304.95575L456.50824,305.62323L456.50946,305.628601L456.629089,306.221619L456.63031,306.228455L456.729919,306.747009L456.731873,306.757263L456.810974,307.201355L456.812439,307.210144L456.844666,307.404236L456.84613,307.413757L456.872986,307.589294L456.874451,307.598816L456.896423,307.755554L456.898132,307.768738L456.980408,308.440857L456.983337,308.468445L457.039001,309.1203L457.040955,309.15033L457.070007,309.782166L457.07074,309.814148L457.073181,310.42572L457.072693,310.459656L457.048523,311.051453L457.046082,311.08783L456.9953,311.659363L456.990906,311.697937L456.913513,312.249207L456.906677,312.28949L456.802673,312.820984L456.79657,312.850037L456.74115,313.084656L456.734558,313.110291L456.663269,313.371033L456.657166,313.391785L456.570007,313.678406L456.564636,313.695251L456.461609,314.007996L456.457214,314.021423L456.338562,314.360046L456.334167,314.371765L456.199646,314.736511L456.196228,314.746033L456.046082,315.136902L456.042664,315.145203L455.882751,315.547546L455.743591,315.920105L455.662048,316.216003L455.622253,316.464783L455.617371,316.674744L455.645935,316.948181L455.688416,317.28656L455.741638,317.652283L455.802429,318.021667L455.870544,318.399597L455.950134,318.803162L456.04071,319.232117L456.136169,319.657166L456.899109,322.725769L457.363953,324.558777L457.862732,326.421814L458.396423,328.320007L458.960144,330.233582L459.209656,331.075867L459.210876,331.080505L459.44696,331.895447L459.448425,331.90033L459.670837,332.688171L459.672302,332.693542L459.881042,333.454529L459.882507,333.460144L460.07782,334.193787L460.079529,334.200134L460.261169,334.906677L460.262878,334.913269L460.431091,335.592712L460.4328,335.600281L460.587341,336.252625L460.601257,336.328308L460.607605,336.405212L460.605896,336.482361L460.596619,336.559021L460.579529,336.634216L460.554871,336.707214L460.523132,336.777527L460.484314,336.844177L460.438904,336.906677L460.384705,336.96698L460.298035,337.05365L460.240906,337.105408L460.189392,337.143982L460.007996,337.268005L459.958923,337.298767L459.797058,337.392273L459.723816,337.429382L459.581726,337.492126L459.509705,337.519714L459.468933,337.531677L459.346375,337.564148L459.270935,337.580017L459.194275,337.588318L459.131287,337.589294L458.452087,337.571472L458.375183,337.565613L458.309509,337.554138L457.754089,337.4328L457.679626,337.412537L457.607605,337.384949L457.538757,337.350037L457.473816,337.308533L457.413513,337.260681L457.358093,337.206726L457.308533,337.147644L457.26532,337.083923L457.228699,337.016052L457.199158,336.944763L457.181824,336.89032L456.846375,335.669617L456.492371,335.768494L456.429382,335.783142L456.052185,335.854675L455.991394,335.863708L455.595886,335.906189L455.538757,335.910339L455.125183,335.923523L455.073425,335.923279L454.641541,335.907654L454.593933,335.90448L454.143982,335.859802L454.100769,335.854187L453.632507,335.780457L453.593445,335.773376L453.106873,335.670593L453.071716,335.662292L452.567078,335.530457L452.535583,335.521423L452.012634,335.360535L451.984314,335.351257L451.443298,335.161316L451.417908,335.151794L450.858582,334.9328L450.835876,334.923523L450.25824,334.67572L450.237488,334.666443L449.641785,334.389343L449.62323,334.380554L449.009216,334.074646L448.992126,334.065613L448.909851,334.021912L448.906433,334.044373L448.887146,334.11908L448.860535,334.191345L448.826599,334.260681L448.785828,334.326111L448.738464,334.387146L448.685486,334.443054L448.626892,334.493347L448.56366,334.537292L448.496277,334.57489L448.425476,334.605408L448.351746,334.628601L448.276306,334.644226L448.199646,334.652039L448.122498,334.652039L448.058289,334.646179L446.248962,334.402283L446.173035,334.388123L446.073181,334.356873L445.801697,334.250671L445.731384,334.218933L445.664246,334.179871L445.440613,334.034607L445.378113,333.989441L445.304138,333.92157L445.128113,333.737L445.07782,333.67865L445.01825,333.589294L444.890076,333.365173L444.855164,333.29657L444.823914,333.213318L444.758728,333.003845L444.733826,332.897644L444.694519,332.651306L444.68573,332.565857L444.672791,332.28241L444.672546,332.217468L444.685242,331.897156L444.692322,331.820496L444.70697,331.744812L444.729187,331.670837L444.758728,331.599548L444.795593,331.531677L444.805359,331.517029L444.613464,331.337585L444.559998,331.282166L444.512146,331.221375L444.470886,331.156433L444.436218,331.087341L444.408875,331.01532L444.388855,330.940857L444.376648,330.864685L444.372009,330.787537L444.375183,330.710632L444.386169,330.634216L444.404968,330.559509L444.431091,330.486755L444.464294,330.417175L444.504578,330.351501L444.524353,330.325378L444.610535,329.90448L444.708435,329.367371L444.806824,328.763855L444.900085,328.130554L445.002625,327.217712L445.095398,326.258484L445.17865,325.250671L445.252136,324.194031L445.316345,323.088806L445.370544,321.935242L445.415222,320.733337L445.429626,320.217224L445.040466,320.389343L444.9599,320.419617L444.51825,320.558044L444.436218,320.579041L443.976257,320.66864L443.910339,320.678406L443.546326,320.716736L443.507507,320.71991L443.146179,320.739441L443.105652,320.740417L442.747009,320.740662L442.706238,320.739685L442.350525,320.720886L442.309509,320.717468L441.956482,320.679626L441.916199,320.674255L441.566101,320.617615L441.525085,320.609802L441.177673,320.533875L441.137634,320.524109L440.793152,320.429138L440.747009,320.414734L440.642029,320.378357L440.6203,320.438904L440.587097,320.508484L440.547058,320.574402L440.500671,320.635925L440.448181,320.692322L440.39032,320.743347L440.327576,320.788269L440.260437,320.826355L440.190125,320.857605L440.124207,320.879578L439.856873,320.955261L439.791931,320.970642L439.511414,321.024109L439.449646,321.033386L439.156433,321.064636L439.098083,321.068542L438.791687,321.077576L438.737244,321.077087L438.417664,321.06366L438.368347,321.059998L438.036072,321.024353L437.991638,321.01825L437.645935,320.960388L437.605164,320.952576L437.246277,320.872253L437.172058,320.851501L437.100281,320.823425L437.031433,320.788269L436.966736,320.746521L436.906677,320.698181L436.845398,320.637146L436.371277,320.108093L436.357849,320.092468L436.371033,320.147888L436.381042,320.224548L436.38324,320.301453L436.377869,320.378601L436.364685,320.454529L436.343689,320.528748L436.315369,320.600525L436.279968,320.669128L436.249451,320.717224L435.64032,321.603455L435.593445,321.664734L435.54071,321.720886L435.482605,321.771423L435.419373,321.815857L435.352234,321.853943L435.281677,321.884705L435.222839,321.904236L434.934998,321.987L434.936707,321.997986L434.940613,322.075134L434.936707,322.152039L434.925232,322.228455L434.905945,322.303162L434.879333,322.375427L434.845398,322.444763L434.804626,322.510193L434.757507,322.571228L434.683777,322.646423L434.4245,322.875916L434.395203,322.900574L434.131287,323.111511L434.09906,323.135925L433.830017,323.328552L433.796082,323.351501L433.522644,323.525818L433.484802,323.548279L433.206238,323.704041L433.166443,323.724792L432.882996,323.862L432.84198,323.880554L432.55365,323.999695L432.510193,324.016052L432.217224,324.116638L432.16571,324.132263L431.840027,324.218933L431.784363,324.231628L431.4599,324.292419L431.401306,324.300964L431.07782,324.335876L431.016296,324.340027L430.694031,324.348572L430.63324,324.347839L430.311951,324.33075L430.249939,324.32489L429.929871,324.281433L429.870544,324.270935L429.551453,324.201599L429.49408,324.186707L429.176208,324.091248L429.123962,324.073425L428.745056,323.928894L428.698669,323.909607L428.340027,323.745056L428.292908,323.721375L427.954773,323.536804L427.90741,323.508728L427.589539,323.304138L427.542908,323.271667L427.245544,323.047302L427.200623,323.010437L426.923523,322.766052L426.880554,322.725281L426.623962,322.460876L426.5849,322.417419L426.348572,322.13324L426.312927,322.086609L426.097107,321.782166L426.066101,321.735046L425.870544,321.410828L425.843933,321.362732L425.668884,321.018494L425.646912,320.97113L425.492126,320.607117L425.47406,320.560486L425.339783,320.176208L425.325623,320.131775L425.211609,319.727722L425.200867,319.685242L425.107117,319.261169L425.099304,319.220642L425.026062,318.776794L425.017517,318.700134L425.016541,318.622986L425.023376,318.546326L425.038025,318.470398L425.060242,318.396667L425.090027,318.325378L425.126648,318.257507L425.169861,318.193787L425.219421,318.13446L425.274597,318.08075L425.326843,318.039246L425.100525,317.761414L425.054871,317.699158L425.015808,317.632751L424.983582,317.562439L424.958679,317.489441L424.941345,317.41449L424.93158,317.33783L424.93158,317.222839L425.01825,316.07489L425.023865,316.023865L425.128601,315.294861L425.14325,315.219177L425.16571,315.145447L425.195496,315.074158L425.232117,315.006531L425.275574,314.94281L425.325378,314.883728L425.380798,314.830017L425.441345,314.782166L425.46991,314.763855L425.440857,314.720886L425.404236,314.653015L425.374451,314.581726L425.352234,314.507996L425.33783,314.432312L425.33075,314.355408L425.331726,314.278259L425.340271,314.201599L425.352722,314.142029L425.574158,313.250671L425.5849,313.211609L425.850037,312.343933L425.862976,312.305115L426.171326,311.461365L426.186707,311.422791L426.538269,310.602478L426.572205,310.533142L426.612976,310.467712L426.660095,310.406677L426.713318,310.350525L426.771667,310.300232L426.835144,310.256287L426.902527,310.218689L426.973328,310.188171L427.046814,310.164978L427.122498,310.149353L427.172546,310.144226L427.187927,309.736755L427.183777,309.712097L427.1745,309.635437L427.173035,309.558289L427.179382,309.481384L427.193542,309.405701L427.215271,309.331726L427.244324,309.260193L427.280457,309.192078L427.302185,309.157654L428.189636,307.836121L428.235779,307.774353L428.288025,307.717468L428.345642,307.666443L428.408142,307.621277L428.475037,307.582703L428.545349,307.550964L428.618591,307.52655L428.672058,307.514587L428.673279,307.488953L428.684998,307.412781L428.704285,307.338074L428.73114,307.265808L428.765076,307.196472L428.805847,307.131042L428.85321,307.070007L428.906189,307.014099L428.940125,306.983826L429.326843,306.657654L429.398865,306.603699L429.80365,306.337097L429.888123,306.289001L430.311218,306.082214L430.404968,306.043884L430.845886,305.896912L430.944031,305.871277L431.403015,305.78363L431.501892,305.771423L431.978943,305.743835L432.071716,305.74408L432.566589,305.775818L432.65155,305.786072L433.16449,305.877625L433.235291,305.893982L433.982117,306.102234L434.055359,306.126648L434.125671,306.158386L434.192322,306.19696L434.254822,306.242126L434.312439,306.293396L434.364685,306.350281L434.377869,306.367859L434.42157,306.359558L434.498474,306.352966L434.575623,306.354187L434.652283,306.362976L434.727478,306.379578L434.8349,306.417908L435.101257,306.536072L435.131775,306.550476L435.391785,306.679871L435.421814,306.695496L435.674988,306.835876L435.702576,306.85199L435.949646,307.002869L436.013367,307.046326L436.072205,307.09613L436.125916,307.15155L436.173767,307.212097L436.187927,307.234314L436.234802,307.243103L436.308777,307.264832L436.342712,307.278748L436.199158,306.529236L436.195496,306.50946L436.043396,305.583191L436.04071,305.56488L435.905945,304.597351L435.903748,304.580017L435.78656,303.571228L435.783386,303.536804L435.696472,302.301941L435.694763,302.224792L435.701111,302.147888L435.715271,302.072205L435.736755,301.997986L435.765808,301.926697L435.801941,301.858337L435.844666,301.794373L435.892029,301.736755L435.851257,301.692322L435.805359,301.63031L435.765808,301.564148L435.733093,301.494324L435.707458,301.42157L435.689636,301.346375L435.679382,301.269958L435.676697,301.194763L435.687927,300.480896L435.68866,300.456482L435.722107,299.757263L435.723816,299.731873L435.77948,299.047302L435.782166,299.020691L435.860291,298.351013L435.863953,298.323669L435.964539,297.66864L435.969177,297.641052L436.091736,297.000671L436.097839,296.971863L436.242859,296.34613L436.250183,296.317078L436.417419,295.70575L436.441589,295.632507L436.473083,295.562195L436.511414,295.4953L436.556335,295.432556L436.607361,295.374695L436.663757,295.322205L436.725525,295.275818L436.728455,295.274109L436.728455,295.273865L436.706726,295.200134L436.692322,295.124207L436.68573,295.047302L436.686951,294.970154L436.695984,294.893738L436.712585,294.818298L436.750671,294.711609L437.359802,293.33905L437.394714,293.270203L437.436218,293.205261L437.484314,293.144714L437.538025,293.089539L437.597107,293.039978L437.661072,292.996765L437.728943,292.960144L437.799988,292.930603L437.873962,292.908386L437.949646,292.893738L438.011169,292.888123L438.004822,292.562927L438.004822,292.541931L438.00946,291.969177L438.009949,291.947449L438.030701,291.37738L438.031677,291.355896L438.068542,290.788269L438.070251,290.766541L438.12323,290.201599L438.125671,290.180115L438.194519,289.617859L438.197449,289.59613L438.28241,289.036316L438.286072,289.014587L438.387146,288.457458L438.391296,288.436218L438.50824,287.881531L438.513123,287.860291L438.646179,287.308044L438.65155,287.286804L438.80072,286.737488L438.80658,286.717224L438.971619,286.170105L438.97821,286.149353L439.159363,285.605164L439.167175,285.582703L439.377625,285.010681L439.385437,284.990173L439.603455,284.446472L439.612732,284.424255L439.838562,283.909119L439.849792,283.884949L440.083435,283.398621L440.095886,283.373718L440.337097,282.915466L440.352234,282.888123L440.601257,282.458679L440.618591,282.430115L440.875427,282.028992L440.895935,281.998718L441.160583,281.625916L441.184265,281.594177L441.456482,281.250183L441.484314,281.217224L441.764587,280.90155L441.796326,280.867859L442.084167,280.58075L442.120056,280.547058L442.415466,280.288269L442.457214,280.254333L442.760681,280.024109L442.80658,279.991882L443.117615,279.790222L443.16864,279.759949L443.487488,279.586853L443.542175,279.559998L443.868835,279.415222L443.93158,279.390564L444.221375,279.291687L444.264587,279.278503L444.550964,279.199402L444.596375,279.188171L444.879578,279.128357L444.929138,279.119568L445.208923,279.079529L445.260437,279.073914L445.536804,279.053406L445.590515,279.051453L445.863708,279.050476L445.91864,279.052185zM454.610291,288.014343L454.642273,288.084412L454.667175,288.15741L454.684509,288.232605L454.694031,288.309021L454.695984,288.386169L454.692566,288.430115L454.713074,288.436951L454.786804,288.46991L454.821472,288.487732L454.888123,288.52655L454.973816,288.591248L455.112976,288.712585L455.129578,288.727478L455.435486,289.010437L455.497253,289.074646L455.509216,289.088562L455.541199,289.062683L454.609314,288.01239L454.610291,288.014343zM453.325317,304.161316L452.768585,301.953705C452.177399,302.358826,452.363434,303.094696,453.325317,304.161316zM437.44754,295.020782L437.639099,295.228851L438.335022,295.785583C438.183411,295.102081,438.091095,294.389648,438.056641,293.648254L437.44754,295.020782zM461.742371,292.65744C461.348236,292.669861,460.941711,292.749786,460.52417,292.901367C461.162201,293.190735,461.753387,293.514587,462.299103,293.874268L461.776825,292.6409L461.742371,292.65744zM459.724915,292.552704C460.258209,292.263336,460.838379,292.073151,461.463989,291.979462L460.576538,290.120483C460.090088,290.456726,459.620178,291.076843,459.168182,291.979462L459.656006,292.51825L459.724915,292.552704zM455.899475,293.369904C455.447479,294.08786,454.825989,294.55777,454.03775,294.776855L454.420837,296.358856C454.930725,295.698792,455.650055,295.026306,456.577484,294.342773L455.899475,293.369904zM454.638855,327.860291L454.632996,327.88739L454.510193,328.405701L454.503845,328.430847L454.360046,328.95697L454.352966,328.980652L454.188171,329.514587L454.180603,329.538025L453.994324,330.079285L453.986755,330.100281L453.779724,330.649109L453.771912,330.669373L453.712097,330.815369L453.996277,330.879089L454.06366,330.8974L454.422302,331.013367L454.484802,331.036804L454.83905,331.186707L454.8974,331.214294L455.247253,331.398621L455.299255,331.42865L455.644714,331.647156L455.691101,331.678894L455.764099,331.733093L454.66449,327.731873L454.638855,327.860291zM451.98584,298.948181L451.081848,295.646423L448.664795,296.324402C449.255951,297.123657,450.015259,297.639038,450.942688,297.870575C451.035004,297.893982,451.081848,297.951874,451.081848,298.044189L451.063934,298.756653C451.38916,298.733215,451.696472,298.7966,451.98584,298.948181zM457.255463,293.890778L458.907745,292.935822L456.002838,289.668488C456.525116,290.561462,456.622955,291.510925,456.299103,292.51825L456.317017,292.51825L457.255463,293.890778zM467.446075,302.26651L468.489227,301.745605L469.376709,301.102051C469.365662,299.921082,468.693176,298.832428,467.359253,297.836121C467.637604,299.387787,467.666534,300.865051,467.446075,302.26651zM450.438324,283.361206C449.916046,283.071808,449.46405,282.724548,449.082336,282.319397C449.232544,282.77002,449.487457,283.26886,449.847137,283.813202L450.785583,285.116821C451.470459,286.008423,452.182922,286.836609,452.925659,287.60141L452.960114,287.635864L453.359741,287.46225C453.614685,287.393341,453.840698,287.393341,454.03775,287.46225L450.490692,283.482452L450.438324,283.361206zM461.046448,303.483307C461.406128,302.950012,461.510864,302.289917,461.359253,301.501709C461.232483,300.830597,460.948608,300.129181,460.507629,299.400177C460.495239,300.129181,460.310577,300.83609,459.950928,301.519623C459.603638,302.168671,459.122711,302.747437,458.508118,303.257324L461.046448,303.483307zM463.586182,288.035492L463.481445,288.105774L464.576996,290.138397C465.202606,289.744263,466.187927,289.581665,467.532867,289.651947L466.332611,288.209137C465.880615,287.69928,465.157135,287.549072,464.159454,287.757141L463.586182,288.035492zM428.231232,314.690887C427.627655,313.416199,427.296936,312.153931,427.239044,310.902679C426.741577,311.980286,426.358459,313.121307,426.092529,314.325714C427.193573,315.889801,428.65979,317.094208,430.491211,317.940308C429.552765,316.93158,428.798981,315.84845,428.231232,314.690887zM431.239502,310.345947C431.772797,308.783264,432.618896,307.613281,433.777832,306.83609L433.030945,306.627991C431.63913,306.304169,430.438843,306.616974,429.431488,307.566437C429.731903,308.66748,430.33551,309.593536,431.239502,310.345947zM458.924286,281.050232C460.386383,282.938141,461.811279,285.116821,463.203094,287.583496L463.776337,287.218323C463.557251,285.771393,463.110748,284.47879,462.438263,283.344666C461.650024,282.012115,460.657837,281.1026,459.464478,280.61615L458.924286,281.050232zM466.090088,293.474609C466.553101,294.667999,466.901733,295.76767,467.13324,296.776398L467.306885,296.810852C468.002777,297.23941,468.582947,297.742401,469.045959,298.322571C469.579254,298.971619,469.90448,299.653748,470.020233,300.373077C470.506683,299.700592,470.76712,298.91925,470.802979,298.026276C470.350952,297.018921,469.707428,296.114929,468.872345,295.315674C468.049652,294.516418,467.122223,293.903198,466.090088,293.474609zM467.898071,290.451202C466.437347,290.299622,465.417603,290.38092,464.837433,290.693726L465.70697,292.536194L465.880615,292.536194C466.808044,292.836578,467.684448,293.294098,468.507141,293.908691C469.318817,294.523315,470.01474,295.235748,470.593506,296.046051C470.222809,294.250458,469.376709,292.373566,468.055145,290.416748L467.898071,290.451202zM457.16864,285.516449C457.203094,286.731873,457.179688,288.098907,457.098389,289.617493L457.081848,289.634033L458.750641,291.493011C459.226074,290.612427,459.748352,289.975769,460.316101,289.581665L457.864563,284.733734L457.16864,285.516449zM454.473206,284.160461C453.695984,284.265198,452.889832,284.207306,452.056122,283.986816L456.42038,288.90506L456.472748,286.01944C456.461731,285.661133,456.577484,285.342804,456.821381,285.064453L457.51593,284.178375L457.533844,284.143921L456.908203,282.996033C456.317017,283.621643,455.505371,284.010254,454.473206,284.160461zM431.969849,323.395966C432.758087,323.152039,433.493958,322.712463,434.178833,322.075806C432.694702,322.365204,431.163696,322.162628,429.587219,321.466705C428.196777,320.841095,426.926239,319.904022,425.77832,318.652771C426.114563,321.073975,427.320343,322.643555,429.39566,323.361511C430.241791,323.650909,431.100311,323.661926,431.969849,323.395966zM453.777313,294.134705C454.925201,293.914215,455.568756,293.225189,455.707947,292.066254C455.858154,290.943176,455.49295,290.01712,454.612396,289.286774L454.473206,289.165497L454.438751,289.147583C453.672577,288.90506,453.215057,289.28125,453.06485,290.277588L452.734131,292.6409C452.560486,292.999207,452.287628,293.294098,451.916962,293.526978C451.707489,293.653778,451.342316,293.821899,450.821411,294.029968C449.718994,294.44751,448.775024,294.69693,447.986786,294.776855C448.044678,295.125519,448.14801,295.443848,448.299591,295.733215L451.099762,294.951874C451.192108,294.718994,451.354706,294.481964,451.586212,294.239441L452.229767,293.769531L453.046936,293.717163C453.325317,293.787445,453.569214,293.926605,453.777313,294.134705zM448.872864,289.617493L448.751587,289.946838C448.14801,291.499878,447.871033,292.872406,447.916504,294.065796C449.08783,293.984497,450.345978,293.619324,451.690948,292.970276C452.061646,292.785614,452.276611,292.321198,452.334503,291.579834L452.421326,289.912384C452.513641,289.494843,452.69278,289.147583,452.960114,288.869232C453.238495,288.592224,453.562317,288.424103,453.934387,288.366241C453.748352,288.145752,453.475525,288.105774,453.117218,288.243591L452.282135,288.695587C451.852173,288.892639,451.289948,289.071777,450.595398,289.234406L448.872864,289.617493zM434.526123,307.114441C433.84259,307.403839,433.251434,307.913696,432.752563,308.644073C432.311584,309.280731,431.980865,310.027618,431.76178,310.884766L431.709412,311.05838L431.534393,312.170471C431.41864,313.618774,431.77829,314.998199,432.613403,316.305969C433.332733,317.441467,434.352478,318.455688,435.674011,319.34729C433.587677,316.613251,432.8573,313.93161,433.482941,311.302307C433.84259,309.877411,434.531616,308.660614,435.552734,307.653259C435.227539,307.44516,434.885773,307.264648,434.526123,307.114441zM430.995575,311.232025C429.952393,310.43277,429.227539,309.443329,428.822418,308.260986L427.934937,309.58252L427.952881,309.685852C427.824707,311.320221,428.218811,312.982117,429.135223,314.672974C429.946899,316.168152,431.047943,317.482788,432.439758,318.616943L433.69101,318.842926C432.682281,317.91687,431.935394,316.897125,431.447571,315.785065C430.926666,314.568237,430.735138,313.294952,430.874298,311.962372L430.995575,311.232025zM425.77832,316.132324L425.691498,317.280243C426.851807,318.785034,428.225708,319.915039,429.813232,320.66745C431.622589,321.524597,433.354767,321.692719,435.012543,321.171814L435.621643,320.285736L434.665283,319.660095L434.612915,319.660095C432.955139,319.649078,431.344208,319.260468,429.778778,318.495667C428.225708,317.730835,426.926239,316.700073,425.883057,315.403351L425.77832,316.132324zM450.977112,308.157623C450.490692,308.249939,450.038696,308.145203,449.621124,307.844818C449.747925,308.87558,449.975281,309.877411,450.299133,310.850311C450.705658,311.985809,451.690948,313.202606,453.255035,314.499359L453.272949,314.43045C453.782806,312.947693,454.055664,311.573792,454.090118,310.311493C454.124573,309.396484,454.079102,308.452515,453.950928,307.479614C453.406616,307.664276,452.867798,307.664276,452.334503,307.479614C451.927979,307.850311,451.475983,308.076324,450.977112,308.157623zM445.551788,332.987122C445.690979,333.312317,445.95694,333.531433,446.351044,333.647186L448.160431,333.891113L448.160431,333.491486C448.160431,333.375732,448.223816,333.259949,448.351959,333.144196C448.49115,333.016052,448.612427,332.987122,448.717133,333.057404C452.137451,334.921875,454.780518,335.547516,456.646362,334.934265L456.089661,332.900299C456.020752,332.900299,455.96286,332.876862,455.916016,332.83139C455.023041,332.019714,454.084595,331.574615,453.099304,331.493317C452.159485,332.292572,450.924774,332.6922,449.395142,332.6922C448.154907,332.6922,446.838867,332.437286,445.447052,331.927399C445.412598,332.379395,445.447052,332.732178,445.551788,332.987122zM436.509094,308.331238L436.057098,307.983978C435.25647,308.712982,434.654266,309.70929,434.247742,310.971558C433.748901,312.535645,433.859131,314.186523,434.578461,315.924255C435.15863,317.314697,436.1026,318.716156,437.413086,320.128632C438.38736,320.372559,439.221069,320.378052,439.916992,320.146545C439.186646,319.822723,438.595459,319.365204,438.143463,318.774017C437.239471,317.615112,436.717194,316.265991,436.578003,314.725342C436.438812,313.311493,436.630371,311.864532,437.152649,310.381775L436.578003,308.365692L436.509094,308.331238zM452.612854,301.345978L452.437836,300.633545L452.298676,300.494354C452.195313,300.192566,452.020294,299.955536,451.777771,299.781891C451.546265,299.619293,451.273407,299.526978,450.960602,299.50354C450.716675,300.986298,450.172363,302.098389,449.32486,302.839783C448.433258,303.662445,447.209564,304.219177,445.656525,304.508575C446.050629,306.257294,446.786499,307.213654,447.864136,307.374878L448.995514,307.235718C448.751587,306.935303,448.525604,306.552216,448.316132,306.089172C448.236206,305.915558,448.299591,305.741913,448.50769,305.568298L448.959686,305.584808C449.57428,306.97525,450.304657,307.589874,451.150757,307.427246C451.336792,307.392822,451.528351,307.311493,451.725403,307.184723C451.181091,306.83609,450.740112,306.333099,450.40387,305.673004C450.322571,305.498016,450.385956,305.324371,450.595398,305.150726L451.047394,305.16864C451.546265,306.164978,452.188416,306.72583,452.978027,306.854004L453.724945,306.83609L453.847595,306.801636L453.638123,305.620667L453.603668,305.584808C452.965637,305.063934,452.508118,304.595398,452.229767,304.177856C451.788788,303.541199,451.655121,302.926575,451.830139,302.336792C451.945892,301.930267,452.206329,301.600922,452.612854,301.345978zM462.680817,295.176514C461.869141,294.516418,460.814941,293.903198,459.516846,293.335449C457.962402,294.076813,456.711151,294.894012,455.760315,295.785583C456.617432,295.611969,457.504883,295.756653,458.421295,296.219666C459.289459,296.659271,460.055634,297.302826,460.715729,298.148926C461.377197,298.993652,461.805756,299.87973,462.002808,300.807159C462.223297,301.814514,462.130981,302.712982,461.724457,303.499847L462.593994,303.448853L462.906799,303.430939C463.649567,302.597229,463.980286,301.414886,463.898987,299.886627C463.841125,298.854492,463.586182,297.597717,463.132813,296.114929L462.837891,295.228851C462.756592,295.228851,462.704224,295.212341,462.680817,295.176514zM454.768097,296.86322C454.189331,297.650085,453.869629,298.4328,453.811768,299.208649C453.719421,300.250427,454.073578,301.119965,454.872833,301.814514C455.534302,302.394653,456.478271,302.823242,457.707458,303.10022C458.600433,302.532471,459.215027,301.797974,459.55127,300.893982C459.91095,299.955536,459.887512,299.011566,459.480988,298.062103L459.289459,297.852661C458.663818,297.262848,457.951385,296.85083,457.150726,296.619293C456.223328,296.340942,455.429565,296.422241,454.768097,296.86322zM438.508636,296.86322C437.882996,296.492523,437.431,296.172821,437.152649,295.90686C436.677216,297.517792,436.438812,299.283051,436.438812,301.206787C436.532532,301.172333,436.612457,301.188873,436.682739,301.259155C437.679047,302.416718,438.98407,303.413025,440.595001,304.248138C442.010223,304.977112,443.568787,305.539337,445.273438,305.933472L444.89032,304.54303L444.143433,304.108948L443.516418,303.604584C442.194885,302.619293,441.03595,301.40387,440.039642,299.955536C439.412628,299.051544,438.937195,298.033173,438.613373,296.897675L438.508636,296.86322zM457.429108,282.249115C459.110321,285.306976,460.588959,288.209137,461.863617,290.954193C462.977081,293.329926,463.707458,295.199921,464.054718,296.566956C464.390961,297.910522,464.559082,299.063934,464.559082,300.024445C464.571472,301.369415,464.287598,302.469086,463.707458,303.326233C464.727203,303.187042,465.735931,302.932098,466.733612,302.561401C467.080872,300.488831,466.836975,298.148926,466.003265,295.541687C465.423096,293.735077,464.448822,291.568787,463.081818,289.042847C461.574249,286.228912,459.956421,283.715363,458.229736,281.502228L457.602722,281.849487L457.429108,282.249115zM452.820953,294.481964C452.634918,294.389648,452.392365,294.424103,452.090576,294.5867C451.801208,294.747925,451.678558,294.922943,451.725403,295.107605L452.177399,296.689575C452.965637,299.608276,453.527863,301.803497,453.864105,303.273865C454.571045,306.286255,454.872833,308.754303,454.768097,310.676666C454.722626,311.649567,454.513184,312.70929,454.142487,313.857178L453.672577,315.455719C453.556824,316.011047,453.5513,316.560913,453.656036,317.105225C453.690491,317.302277,453.591278,317.464905,453.359741,317.593048C453.139282,317.730835,453.006989,317.685364,452.960114,317.453857C452.83197,316.746948,452.849884,316.040009,453.012482,315.333069L452.907745,315.298615C452.142944,314.661957,451.539368,314.099731,451.099762,313.613281C450.472778,312.929749,450.020782,312.25177,449.742401,311.580658C449.33725,310.607758,449.053375,309.401978,448.890778,307.966064L447.498962,308.087341L447.41214,308.070801C447.621613,309.344116,447.864136,310.403809,448.142517,311.249939C448.514587,312.37442,449.006531,313.323883,449.621124,314.099731L451.533844,316.358337C452.240784,317.251282,452.72171,318.101532,452.978027,318.913208C453.441071,320.43042,454.229309,323.233368,455.342743,327.323364L457.916931,336.688538L458.47229,336.809784L459.151642,336.827698C459.301849,336.804291,459.504425,336.700928,459.759369,336.514893L459.846191,336.42807C459.452057,334.724823,458.913239,332.732178,458.229736,330.450134C457.452515,327.867706,456.762146,325.354156,456.159943,322.909515L455.395111,319.83374C455.11676,318.629333,454.936218,317.586151,454.854919,316.705597C454.832886,316.312866,454.936218,315.837433,455.169128,315.280701C455.632141,314.134155,455.928406,313.265991,456.055206,312.674835C456.368011,311.284393,456.396942,309.680359,456.142029,307.861328C456.038666,307.074493,455.718964,305.492493,455.185669,303.118134L455.203583,302.961029C453.766266,302.127319,453.070374,300.998718,453.117218,299.573822C453.128235,298.738739,453.377686,297.93396,453.864105,297.158112L453.795227,297.018921L453.272949,294.794769L452.820953,294.481964zM449.012054,314.656433C448.803955,315.605927,448.467712,316.497498,448.003326,317.331207C447.505859,318.224182,446.907776,318.947662,446.211884,319.504395C446.131958,322.920532,445.945923,325.828186,445.656525,328.225983C445.528351,329.140991,445.394684,329.918213,445.255524,330.554871L445.221069,330.798798L445.134247,330.780884L445.412598,331.041321C447.556824,331.910858,449.453003,332.153381,451.099762,331.771667C451.562805,331.655914,452.009277,331.469879,452.437836,331.214966L452.838867,330.936584C453.475525,329.44281,453.887543,328.028931,454.073578,326.697754C454.084595,326.582001,454.1604,326.477264,454.299591,326.384918L452.385498,319.607727C452.072662,318.542511,451.423615,317.441467,450.438324,316.305969L449.012054,314.656433zM436.543549,303.483307C436.832947,306.228363,437.30838,308.533813,437.969818,310.398315C438.271606,311.209961,438.519653,311.719849,438.716736,311.927917C438.855896,312.067108,438.833862,312.240753,438.647827,312.448822C438.461792,312.656921,438.306061,312.692749,438.177917,312.553558C437.935364,312.286224,437.714905,311.898987,437.517822,311.38913C436.890808,313.937103,437.284943,316.190216,438.700195,318.148407C439.221069,318.866364,439.987274,319.381744,440.996002,319.69455C441.911011,319.972931,442.856354,320.048706,443.830627,319.920563C445.081879,319.746918,446.137451,319.052399,446.994598,317.835571C447.737366,316.781372,448.212769,315.564575,448.420868,314.186523L448.50769,313.994995C448.14801,313.463074,447.887573,312.940796,447.724945,312.432281C447.204071,310.729034,446.833374,309.175995,446.612885,307.774536C446.264221,307.54303,445.963837,307.224701,445.708893,306.81955L445.638611,306.81955C443.876099,306.47229,442.230713,305.938965,440.699707,305.221008C438.960632,304.398315,437.546753,303.407532,436.456726,302.248596L436.543549,303.483307zM444.177887,280.111786C442.415375,280.807709,440.983582,282.719025,439.882538,285.845795C438.87381,288.742432,438.548615,291.747925,438.908264,294.865051C439.163208,296.972076,440.126465,298.977142,441.795258,300.876068C442.675812,301.895813,443.749329,302.810822,445.01297,303.622498L445.343719,303.830566L445.378174,303.84848C446.108521,303.743774,446.838867,303.541199,447.569244,303.23941C448.207275,302.984467,448.722656,302.62616,449.11676,302.161774C449.47644,301.745605,449.778229,301.177856,450.020782,300.4599C450.194397,299.950012,450.311523,299.382263,450.369415,298.756653L450.369415,298.53064C449.360687,298.194397,448.531097,297.568787,447.88205,296.653748C447.511353,296.098419,447.290863,295.467255,447.220581,294.760345C447.17511,294.702454,447.169617,294.610138,447.204071,294.481964C447.133789,293.393311,447.406616,291.93396,448.02124,290.103943C448.391937,288.968445,448.827393,288.388275,449.32486,288.366241C449.441986,288.353821,449.505371,288.395172,449.516418,288.487488C449.539825,288.556396,449.521912,288.650116,449.46405,288.765869L450.873779,288.417236L452.195313,288.017578C451.557281,287.369904,450.873779,286.570648,450.143402,285.619812C449.505371,284.809509,449.040985,284.126007,448.751587,283.569275C448.310608,282.701111,448.13147,281.912872,448.212769,281.207336L448.229309,281.171509L448.178345,281.1026C447.806274,280.419098,447.215088,280.008423,446.403412,279.869263C445.696472,279.741089,444.955109,279.822388,444.177887,280.111786z"/>
</svg>
