<?xml version="1.0" encoding="UTF-8"?>
<svg xmlns="http://www.w3.org/2000/svg" xmlns:xlink="http://www.w3.org/1999/xlink" width="41.810mm" height="64.905mm" fill="white" stroke="black" stroke-width="0.5" viewBox="-406.984802 275.867401 41.810059 64.905273">
    <path transform="matrix(-1,0,0,1,0,0)" d="M380.072449,275.867889L380.149353,275.87619L380.224792,275.892059L380.298279,275.915497L380.368835,275.946503L380.436218,275.9841L380.499207,276.028534L380.557312,276.079071L380.610291,276.135468L380.657166,276.196503L380.697693,276.262177L380.73114,276.331757L380.762146,276.419647L380.991394,277.223358L381.008972,277.298553L381.018494,277.374969L381.020447,277.452118L381.014587,277.529022L381.000916,277.60495L380.982117,277.670624L381.006287,277.742401L381.099792,277.976776L381.211853,278.219208L381.337341,278.459198L381.483582,278.710907L381.64447,278.961884L381.829041,279.225555L382.016541,279.473846L382.220886,279.703094L382.254333,279.664032L382.309998,279.610565L382.371033,279.563202L382.436218,279.522186L382.505554,279.488007L382.57782,279.461151L382.652283,279.44162L382.728455,279.429657L382.805603,279.425507L382.882507,279.429169L382.958923,279.440643L383.03363,279.459686L383.10614,279.486053L383.160095,279.511688L383.622009,279.752411L384.066589,279.946259L384.508972,280.102509L384.957703,280.224579L385.409119,280.311493L385.865662,280.364227L386.327332,280.38205L386.796082,280.36496L387.161316,280.327362L387.496765,280.267303L387.8078,280.185028L388.098083,280.08078L388.363464,279.956512L388.612976,279.80954L388.842957,279.641815L389.083435,279.42746L389.143494,279.37912L389.208191,279.337128L389.276794,279.301727L389.348572,279.273651L389.422791,279.252899L389.498718,279.239716L389.575867,279.234344L389.652771,279.236786L389.729431,279.24704L389.804382,279.265106L389.877136,279.290497L389.94696,279.322968L389.983826,279.34494L389.867371,279.162079L389.829285,279.09494L389.798035,279.024384L389.774353,278.951141L389.757996,278.875702L389.749451,278.799042L389.748474,278.721893L389.755554,278.645233L389.770203,278.569305L389.792664,278.495575L389.822205,278.424286L389.85907,278.356659L389.902283,278.292694L389.952087,278.233612L390.007263,278.179901L390.06781,278.13205L390.132751,278.090546L390.169861,278.07077L391.128845,277.592499L391.199646,277.561493L391.272888,277.538055L391.348328,277.521942L391.424988,277.513641L391.502136,277.513153L391.538757,277.516571L391.547546,277.49118L391.579773,277.421356L391.619324,277.35495L391.664978,277.292938L391.71698,277.235809L391.783875,277.176727L392.588806,276.545624L392.651794,276.50119L392.719177,276.463348L392.789734,276.432343L392.86322,276.408905L392.93866,276.392792L393.01532,276.384491L393.092468,276.384003L393.169373,276.391327L393.244812,276.406219L393.315613,276.427704L393.753357,276.584198L393.824402,276.613739L394.246765,276.814911L394.31366,276.851044L394.720154,277.097137L394.780457,277.137665L395.17157,277.42868L395.225037,277.472382L395.600281,277.808319L395.645691,277.852509L396.005554,278.233124L396.044373,278.277313L396.388611,278.70285L396.420593,278.745575L396.749207,279.21579L396.773376,279.252655L397.023621,279.658905L397.042908,279.691864L397.275574,280.115692L397.292664,280.148651L397.507996,280.590546L397.522888,280.62326L397.720642,281.083221L397.733582,281.11496L397.914001,281.592743L397.924744,281.623749L398.088074,282.119598L398.097595,282.15036L398.243103,282.664276L398.250671,282.692841L398.350525,283.106415L398.354675,283.105438L398.429382,283.093231L398.819763,283.050507L398.90741,283.046112L399.273865,283.048309L399.372986,283.055389L399.715515,283.102509L399.822693,283.125214L400.141296,283.21701L400.214294,283.242157L400.25116,283.258026L400.545593,283.394745L400.613953,283.430878L400.649597,283.453339L400.920349,283.635223L401.010925,283.706512L401.257751,283.933075L401.313171,283.989471L402.463318,285.290009L402.511414,285.350311L402.553162,285.415253L402.588074,285.483856L402.61615,285.555878L402.636414,285.630341L402.649353,285.706268L402.65448,285.783173L402.652771,285.833466L402.689392,285.84079L402.763367,285.863007L402.834412,285.892792L402.902283,285.929657L402.966003,285.973114L403.024841,286.022919L403.078552,286.078339L403.111755,286.118866L403.533386,286.673553L403.556824,286.706268L404.10199,287.507782L404.112488,287.523651L404.607117,288.291718L404.618347,288.309784L405.062683,289.044159L405.075134,289.065155L405.469177,289.766083L405.482361,289.790741L405.825867,290.457977L405.839783,290.486786L406.13324,291.120819L406.148132,291.154755L406.391296,291.755096L406.406433,291.795624L406.599304,292.362274L406.6203,292.436493L406.633972,292.512421L406.639587,292.589325L406.637634,292.666473L406.627869,292.742889L406.610291,292.818085L406.585388,292.891083L406.552917,292.961151L406.513855,293.027557L406.468201,293.089813L406.416443,293.146942L406.35907,293.1987L406.297058,293.244354L406.230408,293.283417L406.200623,293.297089L406.339783,293.494598L406.360535,293.525604L406.603699,293.909637L406.622498,293.941132L406.802429,294.25827L406.81488,294.271942L406.860291,294.334198L406.899353,294.400848L406.931335,294.471161L406.955994,294.544159L406.973328,294.619354L406.982849,294.69577L406.984802,294.751678L406.984802,295.095673L406.982605,295.154755L406.959412,295.453339L406.954041,295.500946L406.912537,295.794403L406.90448,295.841522L406.845154,296.129608L406.833679,296.176971L406.756287,296.459686L406.742126,296.505829L406.646912,296.783173L406.629578,296.829071L406.516296,297.1008L406.496765,297.143768L406.365662,297.41037L406.343445,297.452118L406.194275,297.713348L406.152771,297.77829L406.104919,297.838593L406.050964,297.894012L405.991882,297.943573L405.928162,297.986786L405.860291,298.023407L405.789001,298.052948L405.715027,298.075165L405.639343,298.089813L405.595886,298.093719L405.598816,298.115448L405.605164,298.192352L405.603455,298.269501L405.594177,298.346161L405.577087,298.421356L405.552673,298.494354L405.520691,298.564667L405.481873,298.631317L405.436707,298.693817L405.369568,298.766815L404.957214,299.16037L404.907898,299.203339L404.438416,299.580048L404.391052,299.615204L403.863953,299.974823L403.820251,300.002655L403.236023,300.345673L403.167664,300.381073L403.09613,300.409637L403.021912,300.430878L402.945984,300.444305L402.86908,300.450165L402.791931,300.448212L402.722107,300.439423L402.716492,300.451141L402.676697,300.517059L402.63031,300.578827L402.57782,300.635223L402.519958,300.686493L402.457458,300.731415L402.390564,300.769745L402.325134,300.799042L401.652039,301.064667L401.622009,301.075897L400.924988,301.317841L400.895935,301.327118L400.175232,301.545135L400.146667,301.553192L399.402283,301.747284L399.384949,301.751678L398.981873,301.846649L398.905945,301.860565L398.829041,301.866669L398.751892,301.86496L398.675476,301.855438L398.600281,301.838348L398.527039,301.81369L398.484558,301.794403L398.446228,301.833954L398.38739,301.883759L398.323669,301.92746L398.256042,301.964325L398.184753,301.99411L398.111023,302.016571L398.027283,302.032684L396.74408,302.205292L396.667175,302.211884L396.590027,302.210419L396.513611,302.201141L396.438171,302.184296L396.365173,302.159882L396.311951,302.135956L396.284607,302.156464L396.218689,302.196747L396.211365,302.200165L396.211853,302.201874L396.226746,302.277557L396.233826,302.354218L396.233337,302.431366L396.224792,302.508026L396.220398,302.528778L396.545837,303.394745L396.554871,303.420624L396.903748,304.461884L396.911804,304.48703L397.231384,305.562469L397.23822,305.586884L397.528259,306.696503L397.533875,306.719696L397.794861,307.863495L397.799744,307.885956L398.031189,309.06369L398.035095,309.085419L398.237244,310.297577L398.240417,310.318329L398.413025,311.564667L398.414978,311.580292L398.535095,312.604462L398.536804,312.620331L398.639099,313.684052L398.64032,313.698944L398.724548,314.802216L398.725525,314.815887L398.792175,315.95871L398.792908,315.971893L398.841492,317.154266L398.841736,317.166473L398.872253,318.388397L398.872498,318.399872L398.885193,319.661102L398.885193,319.6716L398.880066,320.972626L398.880066,320.983856L398.854675,322.348358L398.854431,322.355927L398.817078,323.664764L398.816833,323.673065L398.767517,324.926239L398.767029,324.935028L398.705994,326.132538L398.705505,326.142548L398.632263,327.284393L398.631531,327.294891L398.54657,328.381317L398.545349,328.393524L398.448181,329.42453L398.44696,329.437714L398.352478,330.281708L398.773376,330.439911L398.793152,330.447723L399.420593,330.703583L399.439148,330.711395L400.076355,330.99118L400.093445,330.998993L400.740417,331.30246L400.753357,331.308563L401.412292,331.632782L401.41864,331.635956L401.695984,331.775604L401.702332,331.779022L401.944763,331.904022L401.951111,331.90744L402.158875,332.017059L402.170349,332.023163L402.343201,332.118134L402.357361,332.125946L402.495544,332.20578L402.51825,332.219452L402.621765,332.284149L402.636902,332.293915L402.920349,332.480438L402.959412,332.507782L403.206482,332.693573L403.251404,332.730194L403.462097,332.915253L403.513123,332.964569L403.687195,333.148895L403.743591,333.21579L403.881042,333.399628L403.937683,333.487762L404.038757,333.670868L404.072693,333.740204L404.090271,333.78537L404.154724,333.967987L404.176697,334.041962L404.189392,334.106415L404.217224,334.2883L404.225037,334.36496L404.225769,334.422333L404.222839,334.541229L404.21698,334.618134L404.206726,334.679413L404.183044,334.791962L404.163513,334.866425L404.141296,334.927216L404.097107,335.033661L404.063904,335.103241L404.033875,335.154022L403.969421,335.25412L403.9245,335.31662L403.892761,335.353973L403.807556,335.447723L403.729919,335.521942L403.624207,335.609589L403.549744,335.664032L403.423523,335.745087L403.358826,335.78244L403.212341,335.857391L403.155212,335.883514L402.987976,335.952362L402.937683,335.971161L402.749939,336.033417L402.708679,336.045868L402.500427,336.10202L402.46405,336.110809L402.235291,336.160614L402.204773,336.166473L401.955505,336.210175L401.927673,336.214569L401.657898,336.251678L401.634949,336.254364L401.344666,336.28537L401.324158,336.287323L401.013367,336.311981L401.000427,336.312958L400.55365,336.34079L400.537048,336.341766L400.106384,336.3591L400.08783,336.359589L399.673035,336.36618L399.652771,336.36618L399.254333,336.36203L399.233337,336.361542L398.850769,336.346893L398.826599,336.345673L398.460388,336.320038L398.434265,336.317596L398.084167,336.280975L398.057068,336.277802L397.723083,336.230682L397.688416,336.224823L397.07782,336.109833L397.010437,336.093964L396.40448,335.9216L396.341003,335.90036L395.739929,335.670624L395.68158,335.645721L395.085632,335.3591L395.000183,335.31076L393.232361,334.159149L393.222351,334.179657L393.185242,334.247284L393.141541,334.31076L393.100281,334.360321L393.05365,334.411591L392.998962,334.466034L392.938904,334.514618L392.903503,334.539032L392.840027,334.580048L392.773132,334.618378L392.698914,334.651581L392.618591,334.682343L392.545349,334.706268L392.503845,334.716278L392.406921,334.736786L392.319275,334.749969L392.205505,334.760468L392.135437,334.763641L392.005066,334.763641L391.927917,334.759735L391.880066,334.753387L391.18988,334.638641L391.114441,334.62204L391.057312,334.603973L390.790955,334.50827L390.710876,334.474335L390.476746,334.358612L390.39032,334.308563L390.188416,334.173309L390.097595,334.10202L389.928162,333.946747L389.873962,333.891815L389.843689,333.855438L389.706482,333.680634L389.662048,333.617645L389.634705,333.571014L389.529968,333.37619L389.497009,333.306366L389.479431,333.260223L389.406677,333.045868L389.385681,332.971649L389.37738,332.929413L389.337341,332.695282L389.327332,332.604218L389.307068,332.192596L389.30658,332.127655L389.322205,331.696991L389.326599,331.637909L389.378113,331.188446L389.386169,331.135468L389.473572,330.666962L389.491394,330.591766L389.517029,330.519012L389.549744,330.449188L389.589294,330.383026L389.635193,330.321014L389.687439,330.26413L389.745056,330.21286L389.759216,330.202606L389.745544,330.177216L389.716003,330.105927L389.69281,330.029266L389.520447,329.321503L389.517517,329.308319L389.000916,327.011932L388.99823,327.000214L388.636414,325.263397L388.635925,325.260223L388.31366,323.680878L388.312927,323.677216L388.029724,322.254852L388.028748,322.250702L387.784607,320.986053L387.783875,320.980927L387.64325,320.225311L387.642273,320.221161L387.518738,319.535614L387.517517,319.52829L386.980164,316.370331L386.97699,316.349091L386.913757,315.901581L386.912292,315.891083L386.857117,315.457245L386.855896,315.446991L386.808289,315.027069L386.807068,315.014862L386.767517,314.608368L386.766296,314.596649L386.748474,314.379364L386.625183,314.713593L386.482361,315.145966L386.353943,315.584442L386.234314,316.045135L386.126892,316.517303L386.044861,316.932587L386.103943,316.971161L386.166199,317.016327L386.196716,317.042206L386.341248,317.1716L386.419128,317.252411L386.548035,317.407684L386.608093,317.490692L386.72113,317.6716L386.763855,317.749725L386.861511,317.956268L386.891052,318.028046L386.973083,318.260223L386.992371,318.323944L387.058777,318.581757L387.070984,318.637665L387.121765,318.921112L387.131531,318.997528L387.133484,319.074677L387.127625,319.151581L387.114197,319.227509L387.092957,319.301727L387.064392,319.37326L387.028992,319.440643L387.069763,319.487762L387.113953,319.550995L387.151306,319.618378L387.182068,319.689178L387.205261,319.762665L387.220886,319.838348L387.228943,319.915009L387.229919,319.955292L387.229919,320.778534L387.229675,320.796112L387.219177,321.248749L387.218689,321.26535L387.197693,321.733368L387.196716,321.749481L387.164734,322.233124L387.163757,322.24704L387.121521,322.746307L387.1203,322.760468L387.067078,323.27536L387.065613,323.288544L387.001404,323.819061L386.999695,323.83078L386.924988,324.376923L386.923279,324.388641L386.837585,324.950409L386.822205,325.025848L386.799255,325.099579L386.768738,325.17038L386.731384,325.237762L386.687439,325.301239L386.63739,325.359833L386.581482,325.413055L386.520447,325.460419L386.472351,325.490448L386.503601,325.52829L386.546326,325.592255L386.582703,325.66037L386.611755,325.731903L386.633484,325.805878L386.6474,325.881805L386.653992,325.95871L386.652527,326.035614L386.642273,326.117645L386.473328,327.060272L386.471375,327.070526L386.29071,328.003632L386.288513,328.014374L386.095886,328.937714L386.093689,328.948944L385.888855,329.862762L385.887634,329.867157L385.772888,330.36496L385.751892,330.439178L385.723328,330.510956L385.687683,330.579315L385.645447,330.643768L385.596863,330.703583L385.542419,330.75827L385.482605,330.807098L385.418396,330.849579L385.350037,330.885468L385.285828,330.911346L385.321716,330.960419L385.360779,331.026825L385.393005,331.096893L385.417908,331.169891L385.435486,331.245087L385.445251,331.321503L385.447205,331.398651L385.441345,331.475555L385.427917,331.551483L385.404968,331.631073L385.067078,332.599091L385.053162,332.635956L384.672546,333.568085L384.655701,333.606171L384.231628,334.501923L384.212341,334.539764L383.744812,335.399872L383.704529,335.465546L383.657898,335.527069L383.605408,335.583466L383.547302,335.634247L383.484314,335.67868L383.417175,335.716766L383.346619,335.748016L383.273376,335.771698L383.197937,335.788055L383.19696,335.788055L383.213562,335.862274L383.222839,335.938934L383.224548,336.016083L383.218201,336.092987L383.204041,336.168671L383.182556,336.242889L383.153503,336.314178L383.117371,336.382538L383.056824,336.469696L382.041199,337.733368L381.989929,337.790985L381.933044,337.843231L381.871033,337.88913L381.804871,337.928925L381.735046,337.961639L381.662292,337.98703L381.587341,338.005096L381.530457,338.012665L381.51947,338.074921L381.498474,338.149139L381.470154,338.220917L381.434753,338.28952L381.392517,338.353973L381.343933,338.414032L381.278015,338.479218L380.914246,338.797089L380.883484,338.822479L380.510925,339.115204L380.477234,339.14035L380.095398,339.407684L380.059998,339.431122L379.669373,339.673309L379.631531,339.695282L379.231873,339.912323L379.192078,339.932343L378.783142,340.124481L378.741638,340.142548L378.323914,340.309296L378.282166,340.324432L377.855408,340.466522L377.781189,340.487274L377.705017,340.500214L377.628113,340.505585L377.550964,340.502899L377.474548,340.492645L377.399597,340.474579L377.33075,340.450653L377.306824,340.476776L377.249207,340.528046L377.186951,340.573212L377.120056,340.61203L377.049988,340.643768L376.976746,340.668427L376.90155,340.685272L376.794861,340.696259L374.30365,340.772675L374.226501,340.770966L374.179871,340.766327L373.641541,340.694794L373.615662,340.690887L373.102478,340.604706L373.075378,340.599579L372.586853,340.499237L372.557068,340.492645L372.093689,340.377899L372.060974,340.368866L371.622742,340.239471L371.588806,340.228729L371.175232,340.085175L371.137878,340.071014L370.749451,339.913055L370.710388,339.895966L370.347107,339.723846L370.305115,339.702362L369.966736,339.515594L369.923767,339.48996L369.610291,339.289032L369.565369,339.258026L369.277039,339.042694L369.232361,339.006317L368.968933,338.776581L368.924255,338.734589L368.685974,338.490448L368.643982,338.443573L368.430603,338.185272L368.390808,338.132782L368.202576,337.860077L368.167175,337.80368L368.004089,337.516571L367.969421,337.447479L367.941833,337.375458L367.921814,337.300995L367.909363,337.224823L367.904724,337.131805L367.907654,336.860809L367.912292,336.783905L367.923767,336.713104L367.940125,336.634247L367.881287,336.601776L367.818054,336.557831L367.75946,336.507782L367.705994,336.451874L367.65863,336.391083L367.617859,336.325653L367.583679,336.256561L367.55658,336.184296L367.537048,336.109589L367.525818,336.037567L367.481384,335.633026L367.476746,335.564911L367.468445,335.145233L367.46991,335.082245L367.497253,334.647675L367.503357,334.589081L367.566833,334.139618L367.576111,334.086884L367.675232,333.622528L367.686951,333.574677L367.822205,333.095428L367.835632,333.052704L368.007019,332.558563L368.021179,332.52121L368.22821,332.012177L368.246765,331.970184L368.649841,331.128387L368.686707,331.060516L368.730164,330.996796L368.779724,330.937958L368.835144,330.884247L368.895691,330.836395L368.960632,330.794891L369.029724,330.760223L369.087097,330.738495L369.085144,330.72995L369.075378,330.653534L369.073425,330.576385L369.079285,330.499481L369.092957,330.423553L369.113953,330.349335L369.142761,330.277802L369.178406,330.209442L369.201355,330.172821L369.890564,329.139862L369.936462,329.07785L369.988464,329.020966L370.046082,328.969452L370.108337,328.924286L370.175232,328.885468L370.2453,328.853729L370.318542,328.829071L370.384705,328.813934L370.451111,328.761932L370.443298,328.748749L370.411072,328.67868L370.385925,328.605682L370.368347,328.530731L370.358582,328.454071L370.356628,328.377167L370.363464,328.291718L370.392761,328.078094L370.410095,327.842987L370.417664,327.56662L370.41449,327.235565L370.41449,326.117401L370.416931,326.055145L370.531433,324.658417L370.541687,324.582001L370.559509,324.506805L370.5849,324.434052L370.617615,324.364227L370.656921,324.297821L370.698669,324.241913L370.691101,324.22702L370.663269,324.154999L370.643005,324.080536L370.63031,324.004608L370.625183,323.92746L370.631775,323.817108L370.726501,323.099823L370.729431,323.078827L370.841492,322.381317L370.845398,322.3591L370.975037,321.681122L370.979919,321.658173L371.126892,320.999969L371.132507,320.976044L371.296814,320.337616L371.30365,320.312958L371.485291,319.694305L371.493347,319.668427L371.692566,319.06955L371.702087,319.042938L371.91864,318.464081L371.949158,318.39328L371.986755,318.326141L372.031189,318.262909L372.081482,318.204559L372.137634,318.151581L372.198669,318.104462L372.264343,318.063934L372.274109,318.059296L372.268005,318.035126L372.256775,317.95871L372.253601,317.881561L372.25824,317.804657L372.270447,317.728485L372.290466,317.654022L372.328308,317.558807L372.749939,316.67868L372.792908,316.6008L373.348816,315.720673L373.39325,315.657684L373.443787,315.599579L373.500183,315.5466L373.561462,315.499725L373.627136,315.459442L373.696472,315.425751L373.697449,315.425507L373.682312,315.381805L373.664978,315.30661L373.654968,315.230194L373.654724,315.117645L373.66449,314.980438L373.662537,314.82785L373.648865,314.634247L373.620544,314.387665L373.506531,313.551727L373.500183,313.476776L373.404236,310.85495L373.403748,310.827606L373.403259,310.12619L373.403259,310.11618L373.411804,309.438202L373.412048,309.427216L373.429626,308.772675L373.430115,308.7612L373.456726,308.129852L373.457214,308.117157L373.492859,307.509247L373.493835,307.495819L373.538513,306.911346L373.539734,306.897186L373.593201,306.335907L373.59491,306.320282L373.65741,305.78244L373.659607,305.76535L373.73114,305.250702L373.733826,305.232391L373.814392,304.74118L373.81781,304.721405L373.907166,304.253632L373.911804,304.231659L374.010437,303.787079L374.016052,303.763885L374.123474,303.342499L374.13031,303.31662L374.246765,302.918671L374.255554,302.890839L374.381042,302.516083L374.392029,302.486053L374.526306,302.134735L374.557312,302.064178L374.561462,302.056854L374.52948,302.057587L374.452576,302.051727L374.376648,302.038055L374.315613,302.02121L373.185242,301.657684L373.11322,301.630341L373.044128,301.595917L372.978943,301.554657L372.918396,301.50705L372.879822,301.471161L372.841492,301.432831L372.789734,301.375702L372.730652,301.292206L372.592468,301.066864L372.559753,301.092987L372.495056,301.134735L372.426208,301.169647L372.354187,301.197479L372.279968,301.217987L372.203796,301.230682L372.126892,301.235809L372.049744,301.23288L371.973328,301.222382L371.898376,301.204315L371.828552,301.179657L371.064148,300.868622L371.039246,300.85788L370.326843,300.538055L370.299255,300.525116L369.639099,300.196503L369.608826,300.180634L369.000671,299.842987L368.967224,299.823212L368.411316,299.476532L368.375671,299.45285L367.871521,299.097626L367.83197,299.067841L367.380066,298.703339L367.33905,298.667694L366.938904,298.294647L366.885193,298.239227L366.837341,298.17868L366.795837,298.113739L366.761169,298.044647L366.733826,297.972626L366.728943,297.955048L366.691101,297.937958L366.624207,297.899384L366.561462,297.854462L366.503845,297.803192L366.451599,297.746552L366.423035,297.710419L366.141785,297.32785L366.105896,297.274384L365.86615,296.882782L365.833435,296.823212L365.634949,296.422821L365.60614,296.357635L365.448914,295.948212L365.425964,295.878143L365.310242,295.45993L365.293884,295.388153L365.219177,294.960907L365.210144,294.887421L365.176941,294.451141L365.174744,294.379608L365.1828,293.934296L365.189392,293.848358L365.343445,292.680878L365.357361,292.60495L365.378845,292.530975L365.407898,292.459442L365.443787,292.391083L365.486511,292.326874L365.535583,292.267303L365.590271,292.213104L365.615173,292.192841L365.610291,292.182831L365.583191,292.110565L365.56366,292.035858L365.551941,291.959686L365.547791,291.882782L365.551453,291.805634L365.562927,291.729462L365.583923,291.648895L365.71283,291.245087L365.722107,291.217743L365.869568,290.809784L365.879333,290.784149L366.045349,290.371796L366.055359,290.347626L366.239929,289.931122L366.250671,289.908417L366.454041,289.487518L366.464539,289.466278L366.686462,289.041229L366.697205,289.021454L366.937683,288.592255L366.948669,288.5737L367.207947,288.14035L367.250671,288.076141L367.299988,288.016815L367.354919,287.962616L367.414978,287.914276L367.479675,287.872284L367.548279,287.836884L367.620056,287.808807L367.666931,287.795624L367.660339,287.754608L367.655701,287.677704L367.658875,287.600555L367.669861,287.524139L367.68866,287.449432L367.714783,287.376923L367.74823,287.307343L367.788269,287.241425L367.838562,287.178192L369.141541,285.532684L369.192322,285.474823L369.248962,285.422333L369.310486,285.375702L369.376404,285.335663L369.445984,285.30246L369.518494,285.276337L369.600525,285.258026L369.59613,285.232391L369.591003,285.155487L369.593689,285.078339L369.604431,285.001923L369.622498,284.926971L369.648132,284.854218L369.668884,284.808319L369.960144,284.215057L369.968933,284.197968L370.268738,283.623993L370.278015,283.606659L370.586365,283.051971L370.596375,283.034393L370.913025,282.498505L370.924255,282.480194L371.249451,281.963593L371.261169,281.945282L371.594666,281.447723L371.607605,281.429169L371.949158,280.950897L371.963318,280.931854L372.313416,280.472626L372.326111,280.456268L372.716003,279.972626L372.731873,279.953827L373.115906,279.507782L373.133972,279.487274L373.511658,279.079071L373.533142,279.056854L373.905212,278.686249L373.930115,278.662323L374.295837,278.329559L374.325867,278.303925L374.68573,278.009003L374.720642,277.981903L375.074646,277.724579L375.115906,277.696747L375.463562,277.477264L375.4953,277.458221L375.859802,277.252167L375.865417,277.248993L376.201843,277.062469L376.207214,277.05954L376.51532,276.892059L376.5224,276.888153L376.802429,276.739716L376.811462,276.735077L377.063171,276.605927L377.07489,276.600067L377.298767,276.48996L377.313171,276.483124L377.508728,276.392059L377.52948,276.382782L377.69696,276.31076L377.769226,276.283905L377.843933,276.264374L377.920105,276.252655L377.997253,276.248749L378.074158,276.252655L378.150574,276.26413L378.184509,276.272919L378.193787,276.260468L378.245544,276.203339L378.302917,276.151825L378.365173,276.106171L378.43158,276.067352L378.501892,276.035126L378.57489,276.010468L378.650085,275.993134L378.723572,275.983612L379.816589,275.897919L379.842957,275.889862L379.91864,275.874725L379.995544,275.867401L380.072449,275.867889zM390.222687,291.880676L390.146271,291.823975L390.05011,292.053253L390.222687,291.880676zM383.102234,303.548065L383.691589,303.576874L383.773865,303.578583L383.771423,303.555634L383.771423,303.524872L383.720398,303.526581L383.695496,303.527069L383.160339,303.52829L383.137146,303.528046L382.667908,303.514862L383.102234,303.548065zM381.708191,302.99118L381.666931,303.056366L381.619324,303.117157L381.565857,303.172821L381.507019,303.222626L381.443542,303.266327L381.375916,303.303436L381.304871,303.333466L381.271179,303.343719L381.43158,303.371063L381.96283,303.444061L382.4328,303.493866L382.422791,303.492157L382.348816,303.470917L382.277039,303.442108L382.208923,303.406219L382.14447,303.363495L382.0849,303.314667L382.030457,303.259979L381.981873,303.200165L381.939636,303.135712L381.903992,303.067108L381.875671,302.995575L381.8703,302.976776L381.813171,302.975555L381.736511,302.966034L381.722351,302.96286L381.708191,302.99118zM396.526672,290.827942L395.856079,289.507751C395.42218,289.558289,394.962372,289.680328,394.476715,289.871399C395.167023,290.138885,395.849915,290.45813,396.526672,290.827942zM390.951233,291.28775L392.695465,290.082184L391.104065,288.856873C390.938904,289.545959,390.728088,290.24118,390.47171,290.942596L390.951233,291.28775zM392.924744,289.087402L392.90625,289.105896L393.460968,289.527466L393.615051,289.565674C394.138947,289.22052,394.757751,288.965363,395.472717,288.800171L394.362061,286.829102L394.131561,287.05838C393.633545,287.568726,393.231689,288.244232,392.924744,289.087402zM384.532623,303.516022L385.777618,303.516022C388.371216,303.453156,390.517303,303.019226,392.215942,302.215515C391.180511,302.036774,390.254761,301.736023,389.437469,301.315674C388.632538,302.093475,387.668579,302.687653,386.544373,303.095673C385.944031,303.312622,385.273468,303.453156,384.532623,303.516022zM404.038666,296.262878C403.617096,295.701996,403.074707,295.210144,402.410278,294.789795C402.831879,296.473663,402.978546,298.106964,402.850342,299.688507C403.667633,299.242279,404.332062,298.751678,404.843628,298.215454C404.77951,297.538696,404.510803,296.887848,404.038666,296.262878zM394.534637,299.439514C394.189484,300.192688,393.691498,300.869415,393.039398,301.468506C393.870239,301.570831,394.80954,301.589325,395.856079,301.526459C396.214783,300.901489,396.285065,300.15448,396.066864,299.286652C395.888123,298.559357,395.53064,297.813599,394.994446,297.048096C395.044983,297.851807,394.89212,298.649353,394.534637,299.439514zM397.351349,284.416748L398.712219,286.560394C399.388977,286.075928,400.449066,285.82077,401.892548,285.794891L400.742462,284.494385C400.116241,283.829987,399.234894,283.645081,398.098358,283.938446L397.447479,284.321808L397.351349,284.416748zM386.467926,319.955139C385.458374,321.052246,384.295929,322.040833,382.979431,322.92099C384.078979,323.202026,385.11322,323.840576,386.084564,324.835358C386.327393,323.316681,386.454376,321.964417,386.467926,320.778564L386.467926,319.955139zM394.036621,286.254669L391.966949,282.771088C391.864624,284.633698,391.653839,286.331116,391.334595,287.862091L392.350311,288.684296C392.822449,287.562561,393.384552,286.751465,394.036621,286.254669zM370.79306,295.153442C369.656525,295.828979,368.544647,296.690613,367.458649,297.737183C368.455902,298.744263,370.007843,299.656464,372.115753,300.473724C371.106171,298.611145,370.664856,296.837311,370.79306,295.153442zM396.987701,283.86203L397.63855,283.403473C397.319275,281.961212,396.815125,280.711273,396.124817,279.652405C395.269318,278.338348,394.247437,277.502594,393.059113,277.145111L392.254181,277.776245C393.774078,279.435455,395.351929,281.463226,396.987701,283.86203zM372.632233,318.731079C372.031921,320.248535,371.616516,321.977966,371.387207,323.916992C373.188171,323.253815,375.047089,322.334229,376.962677,321.160706C376.285919,320.905548,375.545074,320.541901,374.740143,320.069763L372.632233,318.731079zM403.866089,291.880676C402.882416,291.064636,401.809967,290.464294,400.647552,290.082184C401.247864,291.293915,401.726135,292.467438,402.083618,293.602722L402.217987,293.622467C403.022919,294.042786,403.713226,294.553131,404.287659,295.153442C404.939758,295.828979,405.353943,296.556244,405.532684,297.335327C405.954254,296.64624,406.184784,295.899231,406.222992,295.09552L406.222992,294.751587L406.184784,294.713379C405.610352,293.64093,404.837463,292.697937,403.866089,291.880676zM368.417664,287.671051C370.116333,287.364105,371.712646,287.345612,373.207916,287.613098C374.9953,287.944702,376.400574,288.653503,377.422455,289.73703L377.672699,288.742249L377.652985,288.723755C377.052643,287.408478,375.902557,286.535736,374.203918,286.101837C372.850433,285.756683,371.361328,285.724609,369.739105,286.005676L368.436157,287.651306L368.417664,287.671051zM400.397308,289.087402C401.445099,289.34256,402.448486,289.782623,403.406311,290.407593C404.338226,291.006683,405.162872,291.740143,405.877838,292.607941C405.430359,291.141052,404.447906,289.316681,402.926788,287.134827L402.505219,286.580109L402.390564,286.598602C401.304565,286.573944,400.384979,286.675018,399.631805,286.905548L399.075867,287.15332L400.16803,289.105896L400.397308,289.087402zM387.598297,295.459167L387.214935,296.167969C387.214935,296.320801,387.150848,296.473663,387.022644,296.626526C386.729248,297.430237,386.620789,298.304199,386.697205,299.248444C386.773651,300.128571,387.010315,300.977905,387.406006,301.793945L387.444214,301.966522C388.044525,301.647247,388.543762,301.295929,388.939484,300.913818C388.925903,300.785614,388.977692,300.652466,389.092316,300.511963C389.194641,300.383759,389.303101,300.327057,389.417755,300.339386C389.865234,299.726715,390.031616,299.095581,389.916992,298.444733C389.776459,297.526367,389.035614,296.550079,387.693237,295.51709L387.598297,295.459167zM377.901978,320.56778L381.025604,318.385925L378.610779,318.060486C376.285919,317.626587,374.746307,316.983124,373.993134,316.127655L373.437195,317.007782L373.015594,317.887909L375.33429,319.362213C376.241547,319.884888,377.064972,320.274414,377.805847,320.529572L377.901978,320.56778zM389.590332,279.996307C388.901245,280.673065,387.987823,281.049042,386.850067,281.125458C385.444794,281.227783,384.097473,280.914673,382.808075,280.187378L383.995148,281.432404C385.081146,282.541809,386.582581,283.913788,388.498169,285.545868C389.009735,283.709167,389.373383,281.858917,389.590332,279.996307zM386.199219,296.913727C385.036774,297.309418,384.129517,298.074921,383.478668,299.210236C382.878357,300.256775,382.58374,301.436462,382.59729,302.750519C384.129517,302.814606,385.381927,302.699982,386.352051,302.406586L386.678711,302.291962C386.26947,301.450012,386.026642,300.5625,385.950195,299.631805C385.860229,298.69989,385.944031,297.793884,386.199219,296.913727zM367.861725,288.531464C367.145538,289.692657,366.629028,290.809448,366.309784,291.880676C367.944336,291.038727,369.630646,290.470459,371.367493,290.177094C373.284332,289.85907,375.059387,289.903442,376.69519,290.311462C375.685608,289.290802,374.306213,288.646088,372.555817,288.378601L367.938171,288.531464L367.861725,288.531464zM381.159973,330.595703C381.977234,332.012054,382.615784,333.491302,383.075562,335.035858C383.727661,333.912872,384.263885,332.694977,384.685455,331.3797L384.647247,331.341492C383.625366,329.338379,381.479248,327.801208,378.208923,326.72998C379.31958,327.852966,380.303253,329.141144,381.159973,330.595703zM369.949921,336.12677C369.042664,336.024475,368.614899,336.362213,368.666687,337.140045C369.470398,338.709259,371.342834,339.667053,374.280334,340.010986L376.771606,339.93454C375.966675,338.007874,374.46524,336.822021,372.268585,336.374542L371.100006,336.22171L369.949921,336.12677zM375.372498,296.148224L376.197174,293.660675C374.80423,293.507813,373.270752,293.85791,371.598022,294.713379C371.381073,296.614197,371.97522,298.674011,373.380493,300.894073L373.418701,300.932281L374.549072,301.295929C374.434418,300.556335,374.478821,299.688507,374.683441,298.693726C374.785736,298.183411,375.015015,297.335327,375.372498,296.148224zM381.94519,323.591583L381.465668,323.878784C380.661957,324.337341,379.389832,324.924103,377.652985,325.639069C379.22467,326.072968,380.604034,326.63385,381.792358,327.322906C383.235809,328.140198,384.314423,329.096741,385.030609,330.193848L385.145264,329.695831C385.4263,328.4841,385.675323,327.24649,385.892273,325.982971C384.641083,324.529663,383.362793,323.738251,382.059845,323.610046L381.94519,323.591583zM388.403259,294.924164L388.670746,295.133728C389.973694,296.192596,390.657837,297.297089,390.720703,298.444733C390.772491,299.172028,390.541962,299.899292,390.031616,300.626587C390.644287,300.919983,391.366638,301.149261,392.196228,301.315674C393.129364,300.614258,393.748199,299.758789,394.055115,298.751678C394.37439,297.69278,394.272095,296.64624,393.748199,295.612L393.499176,295.402466C392.796539,294.828033,392.023651,294.438507,391.180511,294.235107C390.184479,294.004578,389.341339,294.113068,388.652252,294.560516L388.403259,294.924164zM380.200928,277.738037C380.16272,277.635712,380.182465,277.534637,380.258881,277.432343L380.029602,276.628601L380.009888,276.647095L378.783356,276.743256C378.923889,278.363007,379.556244,280.04071,380.68045,281.776306L380.795105,281.929169C382.123932,283.919952,384.334137,286.158539,387.42572,288.646088C387.693237,287.98291,387.949615,287.269165,388.192474,286.503693C386.16098,284.780396,384.47467,283.237061,383.133514,281.872467L381.42746,279.958099C380.827148,279.192596,380.419128,278.453003,380.200928,277.738037zM391.276642,281.623474L390.338562,280.130676C390.057526,282.222565,389.62854,284.219513,389.054108,286.1203L388.957947,286.427246C388.166565,288.939484,387.118774,291.223633,385.815826,293.277313C386.633118,293.711212,387.317261,294.126617,387.865784,294.522308L388.058105,294.177155L388.192474,294.062531L388.59433,293.546021L389.62854,291.28775L389.706207,291.058472C390.625793,288.519135,391.142273,285.386871,391.258148,281.661682L391.276642,281.623474zM387.060852,289.527466C384.37851,287.38382,382.340881,285.437408,380.949188,283.689453L381.254883,285.985962L381.503906,288.302185C381.567993,289.449799,381.574158,290.484039,381.523621,291.402374C382.928894,291.91272,384.167725,292.435364,385.241394,292.971588C385.892273,291.950928,386.498749,290.803284,387.060852,289.527466zM387.080566,295.077026C385.828156,294.209229,383.950775,293.290863,381.447205,292.32074C381.395416,292.971588,381.306671,293.705048,381.178467,294.522308C380.872772,296.511871,380.718689,297.839478,380.718689,298.502655C380.718689,300.084198,381.102051,301.321838,381.868774,302.215515C382.009308,300.747406,382.469086,299.471558,383.248138,298.388031C384.078979,297.200958,385.171143,296.423126,386.524628,296.053314L387.080566,295.077026zM367.037048,297.258881C368.48053,295.893066,369.917847,294.834198,371.348999,294.081024C373.188171,293.099792,374.894226,292.684387,376.464661,292.837219L376.962677,291.268005L376.867767,291.268005C375.193756,290.733032,373.354584,290.630707,371.348999,290.962311C369.522156,291.255707,367.771759,291.862183,366.098999,292.780518L365.944916,293.947876C365.868469,295.147278,366.232117,296.250549,367.037048,297.258881zM397.025909,292.206085C396.054535,291.5047,394.853912,290.917938,393.42276,290.445831C391.928741,291.275421,390.644287,292.264038,389.571838,293.411682C390.299133,293.24649,391.091736,293.303192,391.947235,293.584229C392.70163,293.827087,393.42276,294.203064,394.113068,294.713379C395.096741,295.453003,395.869629,296.461334,396.431763,297.737183C397.044403,299.153534,397.114655,300.391144,396.642548,301.450012L397.925781,301.277435C399.20282,299.670013,399.075867,296.933441,397.542389,293.067749L397.197235,292.264038L397.025909,292.206085zM390.088348,332.566772C390.152435,333.217621,390.561676,333.657715,391.31485,333.886993L392.005157,334.001617C392.374969,334.015198,392.567261,333.919037,392.57959,333.714417C392.59317,333.561554,392.675751,333.428406,392.828613,333.312561L393.269897,333.274353L395.416016,334.672211C396.207397,335.09256,397.01236,335.361267,397.82962,335.475922C398.698669,335.616455,399.740295,335.641083,400.953247,335.552338C402.665466,335.437714,403.502441,335.054321,403.464233,334.403473C403.438354,333.919037,403.022919,333.428406,402.217987,332.93042C401.988708,332.777557,401.388397,332.464447,400.417023,331.99234C399.547974,331.571991,398.704834,331.214508,397.887543,330.921143C396.789215,331.80127,395.512177,332.20929,394.055115,332.145203C392.713959,332.082336,391.43689,331.634857,390.222687,330.806488C390.082184,331.443787,390.037781,332.030548,390.088348,332.566772zM378.265625,278.637909C378.125092,278.077026,378.036346,277.534637,377.998138,277.010742C377.588867,277.177155,376.880066,277.546967,375.870514,278.121399C374.950928,278.656372,373.967224,279.594452,372.919464,280.934387C371.97522,282.133789,371.1185,283.536591,370.352997,285.144012L374.529358,285.298096C376.075134,285.667908,377.21167,286.381653,377.940186,287.440521C378.106598,286.471619,378.17688,285.20813,378.15097,283.651245L378.112762,279.843475C378.112762,279.282593,378.164551,278.880737,378.265625,278.637909zM369.835266,330.595703C371.112335,330.391083,372.50528,330.519287,374.012848,330.977844C375.315796,331.387085,376.566986,331.99234,377.767609,332.796051C378.572571,333.332275,379.294922,333.976959,379.933441,334.728912C380.622528,335.532623,381.12793,336.374542,381.447205,337.25592L382.462921,335.992432C381.977234,334.117493,381.204346,332.331329,380.144226,330.633911C379.045898,328.898285,377.761444,327.431396,376.292084,326.231995L375.392212,326.653564C373.475403,327.584259,371.949341,328.516174,370.812805,329.446838C370.722809,329.524506,370.626648,329.562714,370.524353,329.562714L369.835266,330.595703zM368.934174,332.299286C368.333862,333.676208,368.116913,334.895325,368.283325,335.954193L368.512604,335.686707C368.831848,335.379761,369.299042,335.233093,369.911682,335.245422L371.425446,335.417969C374.619324,335.711365,376.68161,337.153595,377.614777,339.743469C378.764862,339.398315,379.818817,338.786926,380.776611,337.905548C380.265045,336.464539,379.236969,335.118439,377.691193,333.8685C376.554657,332.962463,375.245544,332.273376,373.762604,331.80127C372.128082,331.278625,370.652527,331.163971,369.33725,331.457336L368.934174,332.299286zM385.528625,317.505798C384.659576,318.080231,383.509491,318.385925,382.079559,318.424133L382.059845,318.424133C378.305084,321.333282,374.715485,323.431335,371.291077,324.720703L371.176422,326.11734L371.176422,327.227997C371.188751,327.712463,371.170258,328.10199,371.1185,328.395355C372.280914,327.513977,373.718231,326.659729,375.43045,325.830139L380.048096,323.802368C381.236389,323.292023,382.379089,322.627594,383.478668,321.811584C384.563416,320.981964,385.528625,320.063629,386.371765,319.055267C386.257141,318.265137,385.976074,317.748627,385.528625,317.505798zM390.509918,278.752533C392.400848,281.661682,394.215363,284.685455,395.95224,287.823883L397.447479,290.694824C397.983704,291.778351,398.391724,292.774353,398.672791,293.679169C399.146118,295.197815,399.421021,296.447784,399.497437,297.430237C399.62442,298.884796,399.395142,300.110107,398.807129,301.104858L399.210236,301.009949C400.218567,300.76712,401.164032,300.460175,402.04541,300.090363C402.288239,297.819763,401.880219,295.332184,400.818878,292.627686C400.053375,290.67511,398.852753,288.422974,397.21698,285.871307C395.428345,283.026276,393.512756,280.494324,391.468933,278.274261L390.509918,278.752533zM378.859772,280.914673L378.879517,284.685455C378.853607,286.126465,378.719238,287.38382,378.47641,288.455017C378.247131,289.463379,377.908142,290.656616,377.461914,292.033508L376.292084,295.555298C375.845856,296.958099,375.564789,297.947968,375.448914,298.521149C375.219666,299.694672,375.219666,300.709167,375.448914,301.564667C377.365753,302.087311,379.230804,302.438629,381.044098,302.617371C379.97168,301.17514,379.696777,298.923004,380.220673,295.861023C380.642242,293.399353,380.827148,291.261871,380.776611,289.449799C380.750732,288.621429,380.636078,287.454071,380.431458,285.947754L380.048096,282.427185C379.588287,281.738098,379.192596,281.023163,378.859772,280.283539L378.859772,280.914673zM393.384552,302.368378C392.36264,302.993347,391.21994,303.45932,389.9552,303.765015C388.895081,304.032501,387.674744,304.211243,386.295349,304.301239C382.603455,304.518188,379.652405,304.064545,377.4422,302.94281L377.403961,302.923096L375.545074,302.501495L375.238129,302.406586C374.497284,304.218628,374.139832,307.024231,374.16571,310.827087L374.261841,313.449005L374.376495,314.290955C374.427032,314.673065,374.440582,314.966461,374.414703,315.171082C374.69577,315.655518,375.245544,316.070923,376.062805,316.414856L378.036346,317.04599C381.33255,317.952026,383.746155,317.895325,385.279633,316.874664C385.789948,314.092468,386.79953,311.994446,388.307098,310.578094L388.766907,310.596558C388.855652,310.801208,388.805115,310.992249,388.614044,311.171021C388.153015,311.617249,387.738831,312.165771,387.367798,312.81665L387.444214,313.04715C387.457794,313.965515,387.552704,315.030548,387.731445,316.242279L388.26889,319.400421C388.574585,321.134827,389.066437,323.617462,389.744415,326.844635L390.260925,329.141144L390.433502,329.848694C391.54538,330.691864,392.726288,331.182465,393.978699,331.322998C395.358063,331.463531,396.558716,331.131927,397.580627,330.328217C397.887543,327.801208,398.066284,324.682495,398.118073,320.969635C398.156281,317.447845,398.002197,314.347656,397.658264,311.669006C397.236694,308.300079,396.502014,305.296021,395.454224,302.655579C395.428345,302.539734,395.434509,302.450958,395.472717,302.386871L393.404266,302.368378L393.384552,302.368378z"/>
</svg>
