<?xml version="1.0" encoding="UTF-8"?>
<svg xmlns="http://www.w3.org/2000/svg" xmlns:xlink="http://www.w3.org/1999/xlink" width="46.632mm" height="71.912mm" viewBox="-347.227234 272.363586 46.632080 71.911865">
    <path transform="matrix(-1,0,0,1,0,0)" style="stroke:none;fill:#000000;fill-rule:evenodd" d="M315.504089,272.365051L315.84198,272.38678L315.897644,272.392395L316.232849,272.438782L316.301453,272.451721L316.665466,272.536682L316.737,272.556946L317.075378,272.671692L317.151794,272.702209L317.464539,272.847473L317.540222,272.888L317.827332,273.063049L317.901306,273.114319L318.163025,273.319885L318.230652,273.379944L318.466492,273.615295L318.525574,273.681702L318.736023,273.947571L318.784607,274.016418L318.951843,274.283752L318.995789,274.341858L319.039246,274.405579L319.075867,274.47345L319.105652,274.544739L319.127869,274.618469L319.142761,274.694153L319.149841,274.771057L319.148865,274.848206L319.144958,274.892883L319.135193,274.974182L319.188416,275.418762L319.252869,275.744934L319.258972,275.740784L319.326599,275.703674L319.397644,275.673645L319.471375,275.65094L319.547058,275.635803L319.623718,275.628235L319.700867,275.628723L319.777527,275.63678L319.852966,275.652649L319.926453,275.676086L319.997253,275.706848L320.064636,275.744446L320.127625,275.788879L320.164001,275.819153L320.461853,276.082825L320.760193,276.316467L321.072937,276.531555L321.408142,276.734192L321.756531,276.91803L322.123718,277.086487L322.513367,277.240051L322.916931,277.375793L323.324158,277.487122L323.729431,277.576477L324.129089,277.643372L324.525085,277.688538L324.920349,277.711487L325.307068,277.712952L325.694275,277.692444L326.07782,277.650452L326.358826,277.6026L326.627625,277.54425L326.886169,277.474915L327.132751,277.395081L327.359314,277.308167L327.577332,277.209778L327.780701,277.103333L327.967468,276.990051L328.149109,276.863586L328.312195,276.733459L328.470154,276.589172L328.615173,276.437561L328.750916,276.274963L328.873962,276.105774L328.993347,275.917053L329.110779,275.702698L329.151062,275.637024L329.197937,275.575745L329.250916,275.519348L329.309021,275.468811L329.372009,275.424377L329.439148,275.386536L329.509949,275.35553L329.583435,275.332092L329.658875,275.315979L329.709412,275.310608L329.706726,275.280334L329.707703,275.203186L329.716736,275.126526L329.733337,275.051331L329.757263,274.977844L329.788757,274.907532L329.827087,274.840637L329.872009,274.777893L329.923035,274.720032L329.979675,274.667786L330.041443,274.621399L330.073914,274.600403L330.505798,274.339172L330.912292,274.06427L331.318542,273.759583L331.725525,273.422668L331.787292,273.376526L331.853455,273.336731L331.923279,273.304016L331.996277,273.278625L332.071228,273.260559L332.147644,273.250305L332.224792,273.24762L332.301697,273.252991L332.377625,273.26593L332.452087,273.286682L332.523865,273.314514L332.592468,273.34967L332.641785,273.38092L333.005554,273.629944L333.079529,273.687561L333.416199,273.984924L333.479431,274.047668L333.789001,274.393372L333.840759,274.457825L334.12323,274.851868L334.163513,274.914368L334.419128,275.35675L334.450134,275.416077L334.678894,275.906555L334.701843,275.960999L334.903748,276.499573L334.920349,276.549133L335.095642,277.136047L335.104919,277.169983L335.220398,277.63385L335.227234,277.664612L335.325867,278.144592L335.331482,278.173889L335.413269,278.669983L335.417175,278.698059L335.482117,279.210022L335.485046,279.236877L335.533142,279.764954L335.535095,279.790588L335.566101,280.334778L335.567078,280.358704L335.581482,280.918762L335.581726,280.941467L335.579529,281.465149L335.927673,281.363586L336.3703,281.206604L336.730896,281.049622L337.006287,280.886292L337.025574,280.875305L337.30658,280.719543L337.334656,280.704651L337.58075,280.58136L337.618591,280.563782L337.829529,280.472229L337.893005,280.448059L338.054871,280.394348L338.131775,280.373108L338.283386,280.339905L338.381042,280.325012L338.522888,280.312805L338.636169,280.311584L338.767761,280.319885L338.844421,280.328674L338.896912,280.339172L339.018494,280.368225L339.092712,280.389954L339.152039,280.413635L339.263611,280.46344L339.332458,280.498352L339.389587,280.534729L339.490906,280.60553L339.551697,280.652649L339.593201,280.691223L339.684509,280.782532L339.736267,280.839661L339.781921,280.901917L339.820984,280.968323L339.85321,281.038391L339.878113,281.111389L339.895691,281.186584L339.905457,281.263L339.90741,281.340149L339.90155,281.417053L339.888123,281.492981L339.87323,281.544739L339.893982,281.550842L339.966003,281.561829L340.04071,281.581116L340.112976,281.607727L340.182312,281.641663L340.247742,281.682434L340.308777,281.729797L340.348816,281.766663L340.484802,281.901428L340.666199,282.061829L340.69696,282.090637L340.879089,282.270569L340.908875,282.301575L341.076355,282.486877L341.105896,282.521545L341.258728,282.712463L341.287292,282.750549L341.425232,282.946838L341.452576,282.988831L341.575623,283.190979L341.600037,283.234436L341.708435,283.441956L341.730896,283.488342L341.824402,283.701233L341.843445,283.749329L341.922302,283.968079L341.938171,284.017151L342.002136,284.241272L342.014587,284.291077L342.06366,284.520569L342.072449,284.569641L342.106873,284.804993L342.112488,284.853821L342.132019,285.094543L342.13446,285.14093L342.139343,285.387268L342.138855,285.433411L342.128601,285.68512L342.125671,285.726624L342.101013,285.984192L342.095642,286.026428L342.055847,286.287415L342.047058,286.335754L341.992859,286.583069L341.979187,286.636047L341.910095,286.86969L341.891785,286.924133L341.808289,287.144104L341.783875,287.201233L341.68573,287.407288L341.654968,287.465393L341.541931,287.65802L341.505066,287.714661L341.377625,287.893372L341.334656,287.948059L341.192566,288.113098L341.143738,288.1651L340.986755,288.316223L340.935486,288.361145L340.764099,288.49884L340.708923,288.539368L340.522888,288.663147L340.467224,288.696594L340.266541,288.806702L340.211121,288.83429L339.996033,288.930481L339.943054,288.951965L339.713074,289.034729L339.66156,289.051086L339.417175,289.119934L339.369324,289.131897L339.110046,289.187073L339.093445,289.189758L339.435486,290.691223L339.970642,292.964905L339.97113,292.96637L340.45697,295.049377L340.457214,295.051086L340.894226,296.943176L340.894714,296.945129L341.282654,298.646057L341.283386,298.648743L341.622009,300.158997L341.622498,300.16217L341.912292,301.481262L341.913269,301.484924L342.03949,302.073059L342.039978,302.075256L342.154236,302.615295L342.154968,302.618713L342.256775,303.111389L342.257507,303.115051L342.347107,303.559631L342.349792,303.574524L342.460876,304.187561L342.463562,304.202454L342.559998,304.802307L342.562195,304.817932L342.643982,305.40509L342.646179,305.421936L342.713318,305.996155L342.715027,306.013245L342.767761,306.57428L342.76947,306.593079L342.807312,307.141418L342.808289,307.160706L342.831726,307.696106L342.832458,307.716614L342.841248,308.239075L342.841248,308.260559L342.835388,308.770325L342.834656,308.79303L342.814148,309.289612L342.812927,309.313293L342.777771,309.797211L342.775574,309.822083L342.725769,310.29303L342.722595,310.319153L342.658142,310.777191L342.653748,310.804291L342.574646,311.249329L342.569031,311.277893L342.475037,311.710022L342.468201,311.738861L342.359802,312.158264L342.329041,312.251801L341.553406,314.180969L341.549744,314.190002L341.427673,314.482971L341.325867,314.749084L341.239929,314.996887L341.171814,315.221985L341.118591,315.429504L341.081482,315.611877L341.058533,315.774963L341.048523,315.922668L341.043884,316.156342L341.049255,316.397522L341.06488,316.655334L341.092468,316.943451L341.130554,317.239075L341.179871,317.551819L341.238708,317.870941L341.309509,318.209778L341.889099,320.625793L341.889832,320.629211L342.142273,321.703674L342.39447,322.756409L342.646423,323.787201L342.899597,324.800354L343.150574,325.784973L343.402527,326.751038L343.654236,327.695618L343.90741,328.623108L345.153259,332.967102L345.153503,332.968079L346.402039,337.343323L346.40741,337.363098L347.204041,340.471985L347.219421,340.547668L347.227234,340.624329L347.22699,340.701477L347.218933,340.778137L347.203308,340.853821L347.180115,340.927307L347.149353,340.998108L347.112,341.065491L347.06781,341.128723L347.017273,341.187073L346.961365,341.240295L346.888611,341.295227L346.777283,341.369446L346.564392,341.525452L346.469177,341.584778L346.229675,341.710999L346.123962,341.756897L345.868347,341.84552L345.75946,341.874573L345.487488,341.925598L345.410828,341.935852L345.352966,341.938538L345.083435,341.940735L344.979187,341.934387L344.710144,341.899475L344.610535,341.8797L344.341736,341.807434L344.250671,341.776672L344.120789,341.72345L344.076355,341.72345L343.999207,341.719543L343.923035,341.707825L343.848328,341.688538L343.776062,341.661926L343.706726,341.627991L343.641296,341.587219L343.580261,341.539856L343.524353,341.486877L343.47406,341.428284L343.430115,341.365051L343.392517,341.297668L343.362,341.226868L343.34198,341.164368L341.232117,333.530121L337.852234,321.350647L337.235779,319.236877L337.039246,318.688293L336.835388,318.193909L336.622009,317.74762L336.40155,317.354309L336.335144,317.249084L336.251404,317.122375L336.161072,316.989563L336.050476,316.832336L335.929626,316.664124L335.929382,316.663635L335.925964,316.659271L335.645447,316.280121L335.306335,315.835022L334.924011,315.344788L334.495056,314.804749L334.010437,314.203186L333.752136,313.885803L333.747498,313.879944L333.323181,313.347717L333.312683,313.33429L332.92157,312.820862L332.910095,312.805237L332.552917,312.310608L332.540466,312.293274L332.216736,311.817444L332.203308,311.796936L331.913269,311.339691L331.899109,311.316223L331.642761,310.878021L331.62738,310.850159L331.404968,310.430725L331.388855,310.398743L331.19989,309.998108L331.187927,309.971771L330.920593,309.343842L330.915222,309.330627L330.652283,308.679749L330.647644,308.667786L330.388611,307.994202L330.384216,307.982727L330.129333,307.286438L330.125427,307.275452L329.874451,306.556213L329.871033,306.545959L329.623962,305.803772L329.620789,305.794006L329.377625,305.029358L329.374451,305.019592L329.135437,304.231995L329.13324,304.224426L328.968201,303.659485L328.966248,303.652405L328.793884,303.040344L328.792175,303.034485L328.612244,302.375793L328.610779,302.370422L328.423523,301.664612L328.422302,301.660217L328.227478,300.907776L328.226501,300.903625L328.024353,300.104065L328.023376,300.100647L327.81366,299.254211L327.812927,299.250793L327.797546,299.187073L327.775574,299.211243L327.718201,299.262756L327.655945,299.308167L327.589294,299.347229L327.519226,299.379211L327.446228,299.404114L327.371033,299.421204L327.294373,299.430969L327.229431,299.432434L327.506287,300.621643L327.508484,300.631409L328.75824,306.335022L328.765564,306.373108L328.902283,307.195618L328.905457,307.216858L329.014587,308.011292L329.017517,308.034485L329.09906,308.800598L329.101257,308.825256L329.155457,309.563293L329.156921,309.590881L329.183289,310.300598L329.183777,310.329895L329.1828,311.011536L329.182068,311.043518L329.153748,311.696594L329.15155,311.731781L329.095398,312.356781L329.084412,312.433167L329.066101,312.508118L329.040222,312.580627L329.007019,312.650452L328.982361,312.690979L328.976257,312.714417L328.960144,312.791565L328.937683,312.921204L328.920349,313.042542L328.898132,313.219788L328.894958,313.242004L328.830261,313.658051L328.839783,313.658997L328.915466,313.674622L328.988953,313.697815L329.059753,313.728333L329.127136,313.765961L329.190613,313.809875L329.248962,313.860168L329.302185,313.916351L329.349304,313.977356L329.390076,314.042786L329.424011,314.111877L329.450623,314.184387L329.467224,314.246155L329.543884,314.589691L329.551941,314.631409L329.608826,314.975403L329.614685,315.017181L329.652283,315.361877L329.655701,315.405121L329.673523,315.750549L329.6745,315.79303L329.673035,316.139221L329.67157,316.182678L329.65033,316.529358L329.646667,316.572083L329.605652,316.919281L329.599548,316.960022L329.539246,317.308167L329.531433,317.347229L329.45282,317.692444L329.44281,317.731506L329.346619,318.070129L329.334656,318.108459L329.22113,318.440247L329.20697,318.478577L329.075867,318.803772L329.059509,318.84137L328.910828,319.159729L328.892761,319.196106L328.726501,319.507629L328.70697,319.541809L328.523376,319.846771L328.50238,319.8797L328.301208,320.17804L328.254822,320.239807L328.202576,320.296448L328.144714,320.347473L328.082214,320.392639L328.01532,320.430969L327.944763,320.462463L327.871521,320.486633L327.796326,320.503479L327.719666,320.512268L327.642517,320.513489L327.637878,320.513031L327.894226,321.592102L327.896667,321.602844L328.242859,323.162201L328.618835,324.768616L329.024597,326.422424L329.461853,328.130676L329.925232,329.872131L330.420349,331.66803L330.945007,333.511292L331.500427,335.404846L331.804871,336.430481L331.806335,336.435364L332.095154,337.432434L332.096619,337.437317L332.370056,338.405334L332.371521,338.410461L332.629578,339.349426L332.631042,339.355286L332.873474,340.265686L332.874939,340.271545L333.102234,341.153137L333.103943,341.159729L333.315613,342.012512L333.317322,342.019592L333.513611,342.843811L333.527771,342.919739L333.534119,342.996399L333.532654,343.073547L333.523132,343.150208L333.506287,343.225403L333.481873,343.298645L333.450134,343.368958L333.411316,343.435608L333.36615,343.498108L333.310486,343.559631L333.20282,343.667053L333.145691,343.718811L333.092712,343.758118L332.867615,343.91095L332.818542,343.941711L332.617859,344.056702L332.546082,344.092834L332.369812,344.170471L332.297791,344.198059L332.25946,344.20929L332.107849,344.249817L332.03241,344.26593L331.95575,344.274475L331.891052,344.275452L331.050476,344.253235L330.973572,344.247375L330.909851,344.236389L330.220886,344.087708L330.146423,344.067688L330.074158,344.0401L330.00531,344.005432L329.940369,343.964172L329.879822,343.916321L329.824402,343.86261L329.774597,343.803528L329.73114,343.739807L329.694275,343.67218L329.66449,343.600891L329.646912,343.545227L326.460876,331.984711L326.460388,331.982971L325.727478,329.297913L325.08075,326.956604L325.080505,326.956604L324.695496,325.581116L324.34906,324.358948L324.069763,323.389954L324.015564,323.419495L323.944519,323.44928L323.870789,323.471771L323.795105,323.486877L323.734558,323.493225L321.063904,323.665588L320.986755,323.666565L320.909851,323.659729L320.872253,323.652649L320.774841,324.489563L320.7724,324.508606L320.608093,325.667053L320.605164,325.686096L320.410339,326.848206L320.406921,326.867493L320.183289,328.019592L320.179382,328.038391L319.928162,329.178284L319.923767,329.197083L319.644958,330.324768L319.640076,330.343842L319.333679,331.459534L319.328064,331.478577L318.993835,332.582336L318.987976,332.600891L318.626404,333.692688L318.619812,333.711487L318.230652,334.791351L318.223816,334.81012L317.872253,335.710999L318.062927,335.777649L318.067078,335.779114L318.507751,335.93634L318.513855,335.938782L318.918152,336.086975L318.9245,336.089172L319.292664,336.227844L319.30072,336.231018L319.632263,336.360168L319.642761,336.364319L319.938171,336.484436L319.950378,336.489563L320.209412,336.600159L320.224792,336.60675L320.447693,336.707825L320.488708,336.728088L320.881042,336.93512L320.914734,336.953918L321.274109,337.167542L321.310974,337.190979L321.637634,337.411438L321.677429,337.440247L321.97113,337.667297L322.013855,337.702942L322.274597,337.936829L322.319275,337.980286L322.547058,338.221008L322.59198,338.272766L322.786804,338.519836L322.831238,338.582336L322.993103,338.836487L323.040466,338.923157L323.141296,339.138733L323.170349,339.210022L323.194031,339.292053L323.238708,339.488098L323.252136,339.56427L323.257507,339.641174L323.256042,339.710022L323.243835,339.886536L323.234558,339.963196L323.217712,340.038391L323.182312,340.137756L323.113953,340.294983L323.079773,340.364075L323.038513,340.429504L322.979431,340.503479L322.854431,340.641174L322.799744,340.695618L322.739929,340.744202L322.70575,340.767639L322.524109,340.885803L322.457458,340.924622L322.400818,340.950745L322.162781,341.049622L322.068787,341.081848L321.774109,341.161194L321.698669,341.177307L321.608582,341.186584L319.626892,341.272034L319.520935,341.269348L318.675232,341.187805L318.639099,341.183411L317.75946,341.055969L317.72699,341.050598L316.813904,340.877747L316.784607,340.871399L315.83783,340.653137L315.81073,340.646545L314.830261,340.382385L314.806091,340.375305L313.791931,340.065979L313.769714,340.058899L312.722107,339.703918L312.702087,339.696838L311.897644,339.398743L311.776306,339.806458L311.750671,339.879211L311.717712,339.949036L311.677917,340.014954L311.631531,340.076721L311.579285,340.133362L311.521423,340.184387L311.458923,340.229553L311.392029,340.267883L311.321472,340.299377L311.24823,340.323547L311.173035,340.340393L311.08075,340.350159L310.828064,340.361633L310.739197,340.360413L310.465515,340.340881L310.392029,340.332092L310.097839,340.282043L310.035339,340.268616L309.71991,340.187317L309.669617,340.172668L309.333435,340.060852L309.291199,340.045227L308.934265,339.902649L308.898865,339.887512L308.520935,339.713928L308.491394,339.699768L308.092712,339.495422L308.016052,339.450012L307.852234,339.340149L307.790222,339.294006L307.757019,339.264954L307.610291,339.128235L307.533386,339.044983L307.403259,338.881409L307.34491,338.796692L307.231628,338.606262L307.190369,338.526672L307.093689,338.309631L307.065369,338.235657L306.985779,337.991516L306.967957,337.92804L306.904968,337.657288L306.894226,337.601379L306.848083,337.303772L306.840027,337.227112L306.840027,337.149963L306.847595,337.073303L306.862976,336.99762L306.885925,336.923889L306.916199,336.853088L306.953308,336.785461L306.997253,336.721985L307.033875,336.679016L306.989685,336.644104L306.934509,336.590149L306.885193,336.531067L306.841736,336.467102L306.805359,336.399231L306.775818,336.327942L306.753601,336.253967L306.738953,336.178284L306.732117,336.101379L306.733093,336.024475L306.741882,335.947815L306.756042,335.88092L306.906189,335.302063L306.918396,335.260315L307.078796,334.761292L307.410828,333.210022L307.545105,332.317444L307.661804,331.423157L307.758484,330.54303L307.830994,329.723694L307.881775,327.779114L307.846375,327.789612L307.779724,327.805969L307.492615,327.863098L307.429382,327.872864L307.126892,327.907043L307.069031,327.911438L306.750916,327.922913L306.697205,327.922913L306.363953,327.911438L306.315857,327.908264L305.96698,327.874084L305.923035,327.868469L305.558777,327.811371L305.519714,327.804291L305.139832,327.724182L305.099792,327.714691L304.739197,327.618011L304.704773,327.607727L304.366638,327.499817L304.328552,327.486633L304.012634,327.367004L303.973083,327.350647L303.679138,327.220032L303.634705,327.198547L303.36322,327.056213L303.316833,327.029846L303.067566,326.876038L303.019226,326.843567L302.792175,326.678284L302.743591,326.639954L302.538513,326.46347L302.481384,326.408752L302.169128,326.077942L302.116394,326.015686L301.835388,325.645325L301.790955,325.580139L301.541931,325.169983L301.507507,325.106995L301.289734,324.657776L301.263123,324.596008L301.077332,324.106995L301.058289,324.049866L300.903992,323.521301L300.890564,323.468323L300.768005,322.900208L300.759216,322.852112L300.668396,322.244446L300.660828,322.167786L300.661072,322.090637L300.669128,322.013977L300.684998,321.938538L300.708435,321.864807L300.738953,321.794281L300.77655,321.726868L300.820984,321.663635L300.871277,321.605286L300.927429,321.552307L300.988464,321.505188L301.027771,321.481018L300.92572,321.399963L300.853455,321.334778L300.81073,321.290833L300.759949,321.232727L300.715027,321.169983L300.676941,321.103088L300.645691,321.032532L300.621765,320.959045L300.605408,320.883881L300.596619,320.80722L300.595154,320.746887L300.615906,319.503723L300.616882,319.478088L300.661072,318.598938L300.668884,318.522278L300.684265,318.446594L300.707214,318.373108L300.737732,318.302307L300.775085,318.234711L300.819031,318.171448L300.869324,318.112854L300.924988,318.059631L300.986023,318.012268L301.051453,317.971497L301.096619,317.949036L301.087585,317.943176L301.025574,317.897522L300.968201,317.845764L300.916687,317.788635L300.871033,317.726379L300.83197,317.659973L300.799744,317.589691L300.774841,317.516663L300.757507,317.441711L300.747742,317.365051L300.745789,317.287903L300.750427,317.221252L300.965271,315.333313L300.977722,315.257141L300.997986,315.182922L301.025574,315.110931L301.060486,315.042053L301.10199,314.976868L301.149841,314.916565L301.203796,314.861145L301.262878,314.811584L301.326599,314.768372L301.39447,314.731781L301.465759,314.701965L301.53949,314.679749L301.615173,314.665131L301.692078,314.658051L301.700867,314.658051L301.630798,314.399719L301.624451,314.375549L301.510925,313.895111L301.505798,313.871399L301.406921,313.384338L301.395447,313.308167L301.391785,313.231018L301.395935,313.15387L301.407654,313.077698L301.419617,313.02887L301.699402,312.021301L301.723572,311.948059L301.75531,311.877747L301.793884,311.811096L301.83905,311.748352L301.89032,311.690735L301.947205,311.638489L302.008972,311.592346L302.075134,311.552795L302.144958,311.519836L302.217712,311.494446L302.278992,311.479797L302.220154,311.374573L302.185974,311.305511L302.159119,311.233215L302.139587,311.158508L302.127625,311.082336L302.123474,311.005432L302.127136,310.928284L302.138611,310.852112L302.157654,310.777191L302.183533,310.706604L302.528015,309.890686L302.54657,309.849915L302.789978,309.356781L302.811462,309.316223L303.068542,308.865784L303.095642,308.822083L303.36615,308.414612L303.40033,308.367004L303.684998,308.002502L303.735535,307.944153L303.791687,307.891174L303.852722,307.844299L303.918396,307.803772L303.987732,307.770111L304.060242,307.743469L304.134949,307.724426L304.211365,307.713196L304.288269,307.709534L304.365417,307.713684L304.441589,307.725647L304.491882,307.738861L304.307312,306.722229L304.30658,306.718323L304.114685,305.629456L304.113953,305.624573L303.948181,304.646545L303.947449,304.641663L303.874451,304.194153L303.873718,304.190735L303.807312,303.771057L303.806824,303.767151L303.746765,303.374817L303.746033,303.370178L303.692566,303.005676L303.691833,303.000061L303.644958,302.663147L303.643982,302.656555L303.603699,302.347229L303.602722,302.339417L303.569031,302.057678L303.568054,302.048645L303.54071,301.794495L303.53949,301.782532L303.518738,301.556213L303.517517,301.540833L303.503357,301.342102L303.501648,301.264954L303.507996,301.188049L303.521912,301.112122L303.543396,301.038147L303.572449,300.966614L303.608337,300.898499L303.651062,300.83429L303.700134,300.774719L303.754822,300.720276L303.81488,300.671936L303.879578,300.6297L303.947937,300.594299L303.967224,300.586731L303.664978,300.264465L303.615173,300.205627L303.571472,300.141907L303.534363,300.07428L303.504578,300.003235L303.481873,299.929504L303.466736,299.853821L303.458923,299.760315L303.436951,298.795715L303.436707,298.770081L303.445496,297.96344L303.445984,297.946106L303.472351,297.166077L303.473083,297.147522L303.516785,296.394104L303.51825,296.374329L303.579529,295.64801L303.581482,295.62677L303.660339,294.926819L303.663269,294.904114L303.75946,294.231262L303.763367,294.207336L303.876892,293.561096L303.881775,293.535461L304.012634,292.915833L304.03241,292.84137L304.059509,292.769104L304.093933,292.700012L304.134949,292.634827L304.182556,292.574036L304.236023,292.518372L304.294861,292.468567L304.358337,292.424622L304.425964,292.387512L304.440857,292.381165L304.405212,292.327454L304.36908,292.259338L304.340271,292.187805L304.318542,292.113831L304.304626,292.037903L304.298279,291.960999L304.299988,291.88385L304.309265,291.807434L304.331726,291.713928L304.483337,291.22052L304.500671,291.169983L305.08075,289.66803L305.112244,289.597473L305.150574,289.530579L305.195496,289.467834L305.246521,289.409973L305.303162,289.357727L305.364929,289.31134L305.430847,289.271301L305.500427,289.238342L305.573181,289.212463L305.648132,289.194153L305.724548,289.183411L305.801453,289.180481L305.878601,289.185364L305.916443,289.191711L305.910339,288.878723L305.910339,288.857483L305.916199,288.150696L305.916687,288.128967L305.942566,287.425354L305.943542,287.40387L305.989197,286.70343L305.990906,286.681702L306.056335,285.984436L306.058777,285.962952L306.143982,285.269104L306.146912,285.247131L306.252136,284.556213L306.255798,284.534729L306.380798,283.846985L306.384949,283.8255L306.529724,283.14093L306.534607,283.119446L306.699402,282.438293L306.704773,282.417542L306.889099,281.739319L306.895203,281.718567L307.099548,281.043518L307.10614,281.022766L307.330505,280.350891L307.338806,280.327209L307.601746,279.618713L307.609802,279.598206L307.882019,278.92511L307.891296,278.902893L308.172791,278.265442L308.183777,278.24176L308.474792,277.639709L308.487488,277.614563L308.787537,277.047913L308.802429,277.021057L309.111755,276.490051L309.129089,276.461731L309.447449,275.966125L309.467957,275.935608L309.795837,275.475647L309.819519,275.444397L310.156433,275.019836L310.184265,274.986877L310.530701,274.597717L310.562439,274.564026L310.917908,274.21051L310.954529,274.176331L311.319275,273.858459L311.360535,273.825012L311.734314,273.542542L311.780945,273.510071L312.164246,273.263L312.215515,273.232483L312.607849,273.021057L312.664001,272.993958L313.065613,272.818176L313.113464,272.799133L313.467468,272.671936L313.512146,272.657288L313.863708,272.554993L313.91156,272.542786L314.260193,272.465393L314.310486,272.455872L314.656677,272.403137L314.7099,272.397034L315.053162,272.369202L315.107605,272.36676L315.448181,272.363586L315.504089,272.365051zM324.97406,303.883362L324.981628,303.890442L324.979675,303.881165L324.97406,303.883362zM306.873474,318.034271L306.880066,318.040588L306.878113,318.032532L306.873474,318.034271zM328.522644,287.076233L328.445496,287.080139L328.409607,287.07843L328.422302,287.170715L328.427429,287.220276L328.444763,287.460266L328.446716,287.507629L328.448669,287.701721L328.52948,287.075256L328.522644,287.076233zM303.902283,319.381165L303.850037,319.438049L303.792419,319.489075L303.749939,319.519348L303.880798,319.605774L304.22113,319.811371L303.978699,319.480286L303.964294,319.460022L303.906433,319.375549L303.902283,319.381165zM324.696716,303.174347L324.00769,300.472015C323.289734,300.973602,323.519867,301.873474,324.696716,303.174347zM305.211243,291.444489L305.059662,291.937805L305.274658,292.173462L306.135925,292.837677C305.920959,291.823456,305.80658,290.857422,305.791412,289.942413L305.211243,291.444489zM301.571869,317.35022L303.316467,318.893616C302.641205,317.793945,302.110657,316.63501,301.722076,315.419586L301.50708,317.307495L301.571869,317.35022zM305.770752,314.390198L305.663269,314.390198L304.694489,314.026398C304.98114,315.112305,305.612274,316.213348,306.589294,317.328186L305.770752,314.390198zM328.723358,314.412231L328.465637,315.226654L327.776642,316.964355C327.532715,317.635468,327.445892,318.236298,327.517548,318.765472L327.669159,319.752136C328.228638,318.965271,328.602081,318.108154,328.788116,317.177979C328.975525,316.249176,328.953491,315.327271,328.723358,314.412231zM335.096771,304.461426L333.396271,304.546875C333.496857,305.091187,333.682892,305.526642,333.95575,305.856018C334.342987,306.356232,335.025116,306.463715,336.002136,306.177094C336.273621,306.120605,336.467926,305.997955,336.582306,305.81192C336.037964,305.58316,335.54187,305.133911,335.096771,304.461426zM327.991608,289.686096C327.432129,290.657623,326.62735,291.301178,325.580048,291.615356L326.333832,294.811035C327.094513,293.267639,327.647095,291.558868,327.991608,289.686096zM337.207916,302.895966C336.977783,303.367279,336.597443,303.753113,336.065521,304.053528C336.396271,304.48349,336.740784,304.782501,337.09906,304.954773C337.57312,305.226257,338.060944,305.147705,338.563904,304.719116L338.865692,304.333282C338.879486,304.24646,338.937378,304.154114,339.037964,304.053528L338.7789,302.638275L337.33609,302.57489L337.207916,302.895966zM303.229645,310.187195L302.885132,311.002991C303.372955,311.988281,304.227325,312.739319,305.446899,313.2547C304.887421,311.195892,304.500183,309.601501,304.285217,308.471527C303.896606,308.929016,303.545197,309.500916,303.229645,310.187195zM323.470276,322.025909C323.125763,320.895905,322.378845,319.666687,321.230957,318.336914C321.230957,319.938171,321.159302,321.460907,321.014587,322.90509L323.685242,322.732849L323.470276,322.025909zM321.919983,295.647491L321.897919,296.526672C322.300293,296.497742,322.680634,296.576294,323.03894,296.762329L321.919983,292.687469L318.92688,293.523926C319.644836,294.481689,320.584656,295.118347,321.747711,295.432526C321.862091,295.461456,321.919983,295.533112,321.919983,295.647491zM304.86676,321.017181C303.574158,320.402588,302.426239,319.608826,301.421661,318.637299L301.377563,319.51651L301.356873,320.759491L301.399597,320.803589C303.366058,322.461365,305.47583,323.47699,307.730316,323.847656L307.513947,321.961121L305.296692,321.210114L304.974243,321.146729L304.86676,321.017181zM307.061951,319.258789L307.04129,319.258789C304.902588,317.300598,303.77533,315.356201,303.66095,313.425568C303.200684,313.096222,302.791412,312.696594,302.433136,312.225281L302.153381,313.232635C302.641205,315.849548,303.760193,318.172913,305.511658,320.202759C306.100098,320.474243,306.717468,320.709869,307.36377,320.909698L307.061951,319.258789zM305.296692,326.978577C306.330231,327.222473,307.198395,327.222473,307.902557,326.978577L307.815735,324.81366C305.591583,324.542206,303.459778,323.647858,301.421661,322.132019C301.62146,323.804962,302.160278,325.056213,303.035339,325.885803C303.552094,326.372253,304.305878,326.736023,305.296692,326.978577zM323.942932,288.95575C323.727966,289.399475,323.398621,289.764648,322.953491,290.049896C322.665497,290.235931,322.213501,290.442657,321.59613,290.671387C320.347626,291.173004,319.177673,291.487213,318.086273,291.615356C318.144135,292.016357,318.273682,292.409119,318.474884,292.794952L321.940643,291.830322C322.056396,291.543701,322.256226,291.251556,322.54422,290.951141L323.340729,290.372375L324.352203,290.307587C324.682922,290.393036,324.984741,290.565308,325.257568,290.821594C326.678345,290.55014,327.474854,289.69989,327.647095,288.26947C327.83313,286.883179,327.381134,285.73941,326.291107,284.839539L326.118866,284.667297L326.074768,284.667297C325.128052,284.353088,324.553406,284.810608,324.352203,286.039825L324.22406,287.64798C324.166168,288.27774,324.072479,288.713196,323.942932,288.95575zM337.917603,285.288788C337.859741,285.918549,337.767395,286.354004,337.637878,286.597931C337.422913,287.040283,337.092163,287.405457,336.647064,287.690704C336.374207,287.847809,335.915314,288.055878,335.269012,288.313568C333.862061,288.8703,332.592865,289.19278,331.45874,289.278198L331.049469,290.800934L335.613525,289.449097C335.743073,289.163818,335.951141,288.877197,336.237793,288.591949C336.510651,288.320465,336.776611,288.127533,337.035675,288.013153L338.04715,287.948395C338.376495,288.033844,338.678284,288.199188,338.951141,288.441742C340.371887,288.184052,341.1698,287.340698,341.342041,285.911652C341.514282,284.523987,341.054016,283.373322,339.963989,282.458282L339.812408,282.308075L339.769714,282.308075C338.821594,281.993896,338.248352,282.451416,338.04715,283.680603L337.917603,285.288788zM337.271301,283.22998C337.387085,282.716003,337.608948,282.287415,337.939667,281.944275C338.28418,281.601166,338.685181,281.393066,339.145447,281.321411C338.915314,281.049927,338.577698,281.000336,338.132599,281.171204C337.874908,281.27179,337.523499,281.457825,337.0784,281.729309C336.546478,281.987,335.857452,282.208862,335.011322,282.393524L332.857452,282.86618L331.975525,287.04715L331.673737,288.356293C333.123413,288.255707,334.680603,287.805084,336.346649,287.004456C336.805542,286.775696,337.071503,286.203796,337.143158,285.288788C337.143158,284.259399,337.185883,283.57312,337.271301,283.22998zM319.18457,285.246063L319.034363,285.631927C318.287476,287.548767,317.942963,289.249268,318.000824,290.736176C319.522186,290.608002,321.079376,290.150513,322.673767,289.363647C323.132629,289.150055,323.398621,288.585052,323.470276,287.670044L323.577759,285.611237C323.692139,285.095856,323.915375,284.667297,324.24472,284.324158C324.589233,283.967255,324.991608,283.759155,325.4505,283.702667C325.221741,283.431183,324.884125,283.380188,324.439026,283.55246L323.405487,284.088501C322.873566,284.331055,322.177673,284.559814,321.316376,284.77478L319.18457,285.246063zM339.164246,305.188538L339.113708,305.246887L339.028503,305.323303L338.840759,305.46759L338.767517,305.517395L338.580994,305.628967L338.487488,305.676331L338.302185,305.754944L338.229675,305.781555L338.189392,305.792786L338.005798,305.838684L337.930115,305.853577L337.874939,305.859436L337.692566,305.872375L337.615417,305.874084L337.556824,305.869934L337.375671,305.850403L337.342957,305.845276L337.341736,305.879456L337.330994,305.955872L337.312439,306.030823L337.28656,306.103577L337.253601,306.173157L337.213562,306.239075L337.180603,306.283997L337.079773,306.411682L337.028992,306.469788L336.95575,306.536194L336.825378,306.639709L336.762634,306.684631L336.690125,306.725647L336.530212,306.804993L336.459656,306.835754L336.403259,306.854309L336.21405,306.908997L336.189148,306.915833L335.836609,307.004944L335.770203,307.018616L335.445251,307.070618L335.363708,307.079163L335.066589,307.094299L334.966492,307.092834L334.696716,307.071106L334.6203,307.061096L334.578552,307.052063L334.336609,306.993469L334.262634,306.971741L334.205994,306.949036L333.991638,306.853577L333.923035,306.818665L333.860779,306.779114L333.795349,306.732727L333.780457,306.767395L333.743347,306.835022L333.699646,306.898499L333.694031,306.904846L333.722839,306.952209L333.756042,307.02179L333.778503,307.083801L333.799011,307.148499L333.806335,307.172913L333.963562,307.733948L334.139832,308.267181L334.33905,308.784973L334.558533,309.281799L334.801697,309.765961L335.06781,310.235931L335.352966,310.684875L335.668884,311.131165L336.036072,311.613098L336.398376,312.048157L336.75116,312.431213L337.09491,312.764221L337.431335,313.050842L337.754333,313.287201L338.069031,313.479065L338.346619,313.614319L338.651306,312.568909L338.657898,312.546692L338.823669,312.036194L338.963806,311.555725L339.085876,311.082336L339.190369,310.611633L339.273865,310.162415L339.341003,309.709045L339.388611,309.271301L339.418396,308.836975L339.433044,308.401184L339.437439,307.938293L339.430115,307.451477L339.412048,306.960999L339.382751,306.453674L339.343689,305.945862L339.29071,305.394836L339.254089,305.073547L339.164246,305.188538zM330.532715,300.472015C329.87262,301.615784,330.166138,302.517029,331.414642,303.174347C331.6875,303.317657,331.694397,303.546417,331.436707,303.860596C331.134918,304.261627,331.19278,304.790771,331.608948,305.44812C332.03891,306.091644,332.535004,306.419617,333.094482,306.434784C332.649384,305.791229,332.427521,304.983704,332.427521,304.010803L332.427521,303.990143C332.125732,303.660797,331.946564,303.28183,331.888702,302.853271C331.830811,302.395752,331.946564,302.009888,332.233215,301.694336C332.420624,301.494507,332.656281,301.337402,332.944275,301.223053C332.111938,300.536774,331.953461,299.771973,332.470245,298.928619C332.613556,298.670898,332.807861,298.578583,333.051758,298.650238C333.295685,298.706757,333.331512,298.878998,333.159241,299.164246C332.929108,299.565247,333.022827,299.958008,333.438995,300.343842C333.740784,300.615326,334.134888,300.844086,334.624115,301.030121C334.852844,301.11554,334.888702,301.287811,334.731598,301.545502C334.586884,301.801819,334.414642,301.923096,334.214813,301.909302L333.072449,302.059509C332.599762,302.187683,332.563934,302.488068,332.964935,302.960754C333.338409,303.403107,333.704956,303.6539,334.063232,303.710388C334.666809,303.797211,335.219421,303.674561,335.721008,303.346588C336.237793,303.017242,336.582306,302.57489,336.754547,302.016785C336.998474,301.245087,336.935089,300.386566,336.561615,299.442627C336.48996,299.229004,336.582306,299.014038,336.84137,298.800446L337.358124,298.821106C337.702637,299.707214,337.796356,300.630493,337.637878,301.588226L337.659912,301.588226C337.888672,301.788025,338.204254,301.85968,338.606628,301.801819L338.089874,299.486725L337.702637,298.457306L337.552429,298.092133L336.691162,298.177582L333.201965,298.435272C332.011353,298.764618,331.121124,299.442627,330.532715,300.472015zM323.470276,307.291931C322.938354,307.74942,322.378845,308.029175,321.790436,308.128387C321.144135,308.242767,320.548828,308.085663,320.003113,307.657104C320.376556,309.272156,320.850616,310.709473,321.423889,311.96759C321.768372,312.710358,322.213501,313.411804,322.759186,314.069122C323.39035,314.84082,324.029755,315.392029,324.676056,315.720001C325.278259,313.947845,325.602081,312.295593,325.644806,310.765961C325.687531,309.651123,325.629639,308.493561,325.472565,307.291931C324.797302,307.493103,324.130341,307.493103,323.470276,307.291931zM324.309479,279.991608C324.524475,279.991608,324.618164,280.105988,324.589233,280.334747L324.459686,282.693939L324.71875,282.586456L325.665466,282.60849C325.895599,282.709106,326.125732,282.915802,326.354492,283.22998L326.591522,283.637909C326.678345,283.794983,326.772034,283.909363,326.871277,283.981018L327.60437,284.710022C328.005371,285.167511,328.286499,285.703583,328.443604,286.318176L328.615845,282.86618L328.573151,281.536377L328.573151,280.206573C328.586914,280.049469,328.702667,279.870331,328.917664,279.670532L329.391693,279.241943C329.922241,278.683838,330.166138,277.990692,330.123444,277.161102C330.094482,276.775269,329.980103,276.411469,329.778931,276.068329C329.118835,277.369202,327.919952,278.147797,326.182251,278.405487C325.0495,278.562592,323.886444,278.461975,322.694427,278.105072C321.488647,277.733002,320.477173,277.161102,319.6586,276.389404C320.045837,277.389862,320.634247,278.212555,321.423889,278.85611C322.271362,279.527222,323.233246,279.906158,324.309479,279.991608zM307.600769,337.187073C307.701385,338.016663,307.98111,338.559601,308.440002,338.817291C309.531403,339.402954,310.399567,339.660645,311.045868,339.588989L311.21814,339.010223L311.47583,338.667084C311.620514,338.566498,311.756927,338.53894,311.885101,338.581665C314.813416,339.710266,317.383484,340.353821,319.593842,340.510925L321.57547,340.425476C322.436737,340.239441,322.694427,339.84668,322.349915,339.24588C321.962677,338.559601,321.222687,337.945007,320.13266,337.402039C319.586945,337.144348,318.654022,336.787445,317.333862,336.329956C315.940674,337.229797,314.196075,337.716248,312.10144,337.787903C310.679321,337.830627,309.222717,337.644592,307.730316,337.229797L307.600769,337.187073zM329.692108,295.282318L330.747681,299.056763L331.349884,298.563416C332.857452,297.549194,334.839081,297.069641,337.293365,297.127502L335.506042,290.543243L330.704956,291.958496L329.62735,295.176208L329.692108,295.282318zM321.768372,297.427917C321.439026,299.271729,320.763794,300.651154,319.745422,301.566162C318.638855,302.56662,317.12439,303.246002,315.202026,303.604279C315.68985,305.777466,316.600739,306.963959,317.936066,307.163757C318.394958,307.235413,318.862091,307.177551,319.336151,306.991516C319.005432,306.562927,318.725677,306.084747,318.495544,305.555603C318.394958,305.340607,318.474884,305.125641,318.732574,304.912048L319.292053,304.932709C320.052734,306.634583,320.958099,307.399414,322.005402,307.228516C322.177673,307.199585,322.414673,307.098999,322.716492,306.928131C322.027466,306.498169,321.48175,305.869781,321.079376,305.040222C320.97876,304.826599,321.058685,304.611633,321.316376,304.396667L321.875885,304.418701C322.479462,305.663086,323.27597,306.356232,324.266785,306.498169C324.510681,306.556061,324.819366,306.556061,325.19281,306.498169L325.343018,306.455444L325.085327,304.976807L325.041229,304.954773C324.237823,304.282288,323.671448,303.703522,323.340729,303.217072C322.795013,302.43158,322.629669,301.673645,322.846008,300.944672C322.989319,300.458221,323.311798,300.043427,323.814758,299.700317L323.598419,298.821106L323.426178,298.670898C323.168457,297.912994,322.615875,297.498199,321.768372,297.427917zM304.198395,298.778412L304.220459,299.743042C305.45517,301.130707,307.055084,302.330994,309.021545,303.346588C310.730286,304.218903,312.631989,304.896881,314.727997,305.383331L314.253937,303.647003L313.327911,303.110962L312.553436,302.488068C310.902557,301.258881,309.466644,299.765076,308.24707,298.006714C307.471252,296.847778,306.882813,295.58963,306.480438,294.232239L306.352264,294.189545L304.757874,293.073334C304.385803,294.689758,304.198395,296.591461,304.198395,298.778412zM330.467957,275.252533C330.998474,276.039398,331.134918,276.911682,330.877228,277.869415C330.660858,278.683838,330.188202,279.455536,329.455078,280.18454C329.814758,286.761902,328.859772,291.994324,326.591522,295.883148L327.237823,298.670898C328.329224,296.683777,329.25528,294.317688,330.01593,291.572632L330.080719,291.357666L331.092194,287.326904C331.709564,284.781677,332.197388,282.23642,332.555664,279.692566C332.584595,279.448669,332.749969,279.277771,333.051758,279.177185C333.338409,279.076599,333.461029,279.177185,333.416931,279.4776L333.009033,281.964966L334.817017,281.514343C334.845978,279.957153,334.69577,278.569458,334.365021,277.354034C333.933716,275.725189,333.217133,274.608978,332.211151,274.009552C331.651672,274.494598,331.070129,274.909393,330.467957,275.252533zM324.072479,291.229492C323.843719,291.128906,323.541931,291.179901,323.168457,291.3797C322.810181,291.579529,322.6586,291.794495,322.716492,292.023254L323.27597,293.974548C324.208893,297.405884,324.904785,300.115112,325.365051,302.102234C326.240112,305.791229,326.613556,308.8367,326.484039,311.238617C326.427521,312.438904,326.168457,313.748047,325.709564,315.163269L325.128052,317.135254C324.984741,317.821503,324.976471,318.500885,325.105988,319.17337C325.148712,319.40213,325.027435,319.595032,324.740814,319.752136C324.467957,319.923035,324.302612,319.873413,324.24472,319.601929C324.072479,318.630432,324.115173,317.657532,324.374268,316.686005C323.671448,316.38559,322.974182,315.849548,322.285156,315.076447C321.696716,314.419128,321.195129,313.683258,320.778961,312.867462C320.089935,311.552826,319.529083,309.908813,319.099121,307.935455L317.48407,308.042969L317.376587,308.020905C317.634277,309.579468,317.936066,310.880341,318.280579,311.924896C318.739471,313.311188,319.349915,314.483887,320.110596,315.44165L322.479462,318.229401C323.354492,319.344238,323.951202,320.395691,324.266785,321.382355C324.840027,323.23996,325.817078,326.707092,327.195099,331.78241L330.381134,343.342773L331.070129,343.491608L331.910736,343.513672C332.096771,343.484711,332.347595,343.356567,332.66452,343.127808L332.772034,343.020325C332.269043,340.860931,331.602081,338.39563,330.769745,335.621643C329.247009,330.503601,328.041229,325.885803,327.152374,321.768219L326.699005,319.859619C326.555695,319.087921,326.535034,318.444397,326.63562,317.928986C326.734833,317.471497,326.951172,316.834839,327.280548,316.020416L327.991608,314.091156L328.141815,313.125153C328.199677,312.624939,328.264465,312.346558,328.336121,312.288696C328.522156,310.659851,328.414673,308.729218,328.013641,306.498169L326.763763,300.794464L324.631958,291.637421L324.072479,291.229492zM336.84137,288.999847C336.481689,289.21344,336.338379,289.428406,336.410034,289.641998L336.948853,291.594696C337.767395,294.51062,338.470215,297.219849,339.058624,299.722351C339.919891,303.382416,340.293365,306.434784,340.178986,308.879425C340.121094,310.094849,339.855133,311.395721,339.382477,312.782013L338.800934,314.777435C338.671417,315.448517,338.671417,316.121002,338.800934,316.792114C338.843658,317.036041,338.721008,317.23584,338.434387,317.392944C338.16153,317.565186,337.996155,317.507324,337.939667,317.222076C337.767395,316.262939,337.81012,315.29834,338.069214,314.326813C337.092163,313.912018,336.087585,312.997009,335.054047,311.581757C334.134888,310.351166,333.474823,308.95108,333.072449,307.378723L333.051758,307.313965C332.248352,307.399414,331.559357,307.04248,330.984711,306.241852C330.425232,305.441223,330.302582,304.647461,330.618134,303.860596C329.857483,303.375549,329.448181,302.723724,329.391693,301.909302C329.347595,301.166534,329.591522,300.422394,330.123444,299.679626L329.175354,296.376465L328.336121,298.177582C328.92453,300.622223,329.434418,302.56662,329.864349,304.010803C330.496887,306.141266,331.170746,308.029175,331.888702,309.673157C332.347595,310.716339,333.166138,311.960724,334.342987,313.404907C335.765106,315.148132,336.669128,316.334595,337.056335,316.964355C337.387085,317.507324,337.687469,318.186707,337.960327,319.001099L338.585968,321.146729L341.966278,333.327209L344.07608,340.961517L344.270386,340.961517C344.628662,341.133789,344.986938,341.204071,345.346619,341.176514C345.720062,341.133789,346.049408,340.990479,346.337433,340.746552L346.465576,340.661133L345.669067,337.552246L344.420593,333.177002L343.172089,328.823761C342.496826,326.37912,341.822968,323.70575,341.147736,320.803589L340.566193,318.379608C340.351227,317.406738,340.257538,316.578522,340.286469,315.892273C340.300232,315.392029,340.487671,314.72644,340.845947,313.896851L341.621796,311.96759C342.239136,309.765503,342.230865,307.01355,341.599731,303.710388C341.154633,301.465576,340.185852,297.184021,338.693451,290.865692L338.326904,289.256165L337.745361,288.8703C337.515228,288.75592,337.214813,288.798645,336.84137,288.999847zM313.370605,273.516205C311.204346,274.359558,309.430817,276.718781,308.052765,280.592438C306.80426,284.167053,306.401886,287.87674,306.846985,291.722839C307.162567,294.295654,308.354553,296.769226,310.421631,299.143585C311.513031,300.401733,312.840088,301.530334,314.405518,302.530792L314.813416,302.788483L314.857513,302.810547C315.660919,302.696167,316.564911,302.445374,317.569519,302.059509C318.359131,301.730164,318.998535,301.280914,319.486359,300.709045C319.931458,300.179871,320.304901,299.478455,320.606689,298.607513C320.821686,298.006714,320.964996,297.313538,321.036652,296.526672L321.036652,296.248322C319.801941,295.847321,318.775299,295.075623,317.958099,293.931854C317.497833,293.245575,317.225006,292.46698,317.139557,291.594696C317.081665,291.507874,317.074799,291.393494,317.117493,291.251556C317.032074,289.879028,317.36969,288.076569,318.130371,285.846893C318.589264,284.445435,319.128052,283.723328,319.745422,283.680603C319.888733,283.680603,319.967285,283.730225,319.981079,283.830811C320.01001,283.931427,319.989349,284.045807,319.917694,284.17395L321.660889,283.745392C322.522186,283.545563,323.139526,283.352631,323.51297,283.166595L323.577759,283.144562L323.707275,280.850128C322.228638,280.677856,320.993927,280.027435,320.003113,278.898834C319.04126,277.811554,318.495544,276.503784,318.367401,274.974182L318.388062,274.80191L318.323303,274.716461C317.86441,273.886902,317.13266,273.379791,316.128082,273.193756C315.237854,273.036652,314.318726,273.144135,313.370605,273.516205zM305.274658,307.785248C305.891998,311.160065,306.372955,313.38974,306.717468,314.47702C307.106049,315.735168,307.457458,317.085632,307.773041,318.529816C307.830902,318.601471,307.844696,318.68692,307.815735,318.787506L308.24707,321.232147L308.267761,321.360321C308.526825,323.161407,308.656342,324.984558,308.656342,326.829742C308.756958,326.944122,308.756958,327.101227,308.656342,327.301025L308.591583,329.767731C308.504761,330.896332,308.36145,332.089722,308.160248,333.34787L307.815735,334.957428L307.643494,335.493469L307.493286,336.072266C307.880524,336.386444,308.540588,336.60141,309.473541,336.71579L311.519928,336.843964L314.405518,336.673065C315.466614,336.458099,316.363708,336.101196,317.096832,335.600952C318.244751,332.769104,319.099121,329.810455,319.6586,326.72226C320.218079,323.618927,320.455109,320.552795,320.36969,317.521088L320.39035,317.372253L319.141846,315.870209C318.367401,314.84082,317.750031,313.546844,317.289764,311.988281C317.003143,310.987823,316.708221,309.565674,316.407806,307.721863L316.385773,307.63504C315.969604,307.378723,315.596161,306.991516,315.266815,306.477509L315.179993,306.455444C313.112915,306.055817,311.182312,305.44812,309.388092,304.633698C307.349976,303.703522,305.641205,302.588684,304.263184,301.287811C304.321045,302.274475,304.658661,304.439392,305.274658,307.785248z"/>
</svg>
