<?xml version="1.0" encoding="UTF-8"?>
<svg xmlns="http://www.w3.org/2000/svg" xmlns:xlink="http://www.w3.org/1999/xlink" width="54.173mm" height="70.925mm" viewBox="-210.779831 305.434326 54.172958 70.925018">
    <path transform="matrix(-1,0,0,1,0,0)" style="stroke:none;fill:#000000;fill-rule:evenodd" d="M184.35672,305.437744L184.469543,305.448334L184.558929,305.461487L184.646332,305.483459L184.731171,305.514038L184.800873,305.546875L184.909119,305.603699L184.986816,305.649414L185.059357,305.703125L185.149048,305.787659L185.243866,305.890198L185.301849,305.95932L185.371552,306.067566L185.452667,306.21582L185.491791,306.296936L185.51265,306.350647L185.580048,306.544281L185.605194,306.630829L185.618622,306.697937L185.750854,307.532532L185.767151,307.603088L185.788269,307.660217L185.830551,307.743652L185.898819,307.851593L185.990219,307.973846L186.109619,308.112946L186.262421,308.271484L186.448944,308.447418L186.469208,308.467102L186.607178,308.605652L186.653442,308.65564L186.810242,308.839294L186.839386,308.875305L187.015045,309.104065L187.035889,309.132629L187.229843,309.407104L187.24498,309.429382L187.344086,309.579071L187.358948,309.602203L187.440063,309.733307L187.460342,309.767578L187.523178,309.880127L187.550323,309.932983L187.594879,310.026917L187.62915,310.109772L187.656006,310.185181L187.667419,310.22287L187.707397,310.252014L187.898773,310.403961L187.97847,310.475372L188.173264,310.672455L188.228973,310.734436L188.427475,310.976929L188.468033,311.030334L188.670258,311.319092L188.689972,311.348267L188.848785,311.595337L188.870483,311.631012L189.009308,311.870941L189.032715,311.914368L189.15097,312.147705L189.173248,312.195129L189.196381,312.248535L191.97554,312.401062L192.006958,312.403351L194.555908,312.63385L194.645294,312.646423L194.732986,312.668152L194.81781,312.698425L194.899231,312.737244L194.976349,312.784119L195.003479,312.804657L195.020325,312.800964L195.223114,312.758972L195.257401,312.75238L195.435638,312.722687L195.483047,312.716125L195.636139,312.698975L195.701538,312.694122L195.830078,312.68927L195.930054,312.690979L196.033737,312.6987L196.123138,312.710114L196.183685,312.722961L196.262512,312.742676L196.348785,312.768951L196.43219,312.803802L196.501877,312.841217L196.556152,312.873505L196.631256,312.923462L196.700958,312.980896L196.764648,313.045166L196.846619,313.151978L196.875763,313.196533L196.921463,313.274536L196.958588,313.356506L196.987732,313.4422L197.007721,313.530151L197.015152,313.581299L197.03772,313.774933L197.043701,313.864929L197.038849,313.971741L197.017426,314.17453L197.003448,314.263641L196.98288,314.343323L196.917755,314.554688L196.886902,314.639526L196.865479,314.685791L196.756943,314.906311L196.699814,315.005707L196.547577,315.235046L196.493317,315.308472L196.297363,315.546692L196.249664,315.600098L196.010315,315.847473L195.967743,315.88858L195.684982,316.144501L195.628143,316.191925L195.063461,316.62323L195.004913,316.664368L194.382523,317.065063L194.326538,317.098206L193.646744,317.468964L193.593628,317.495789L192.913254,317.809998L192.896393,317.962219L192.882416,318.049622L192.839279,318.252991L192.816132,318.340118L192.800995,318.383545L192.739594,318.545776L192.70047,318.634338L192.598495,318.834839L192.570496,318.885681L192.428253,319.125305L192.405975,319.160736L192.2229,319.43866L192.169479,319.511475L192.109222,319.578308L192.072937,319.611145L192.128922,319.85907L192.137207,319.898804L192.217178,320.346649L192.223465,320.387787L192.282013,320.835083L192.287445,320.890198L192.335419,321.595154L192.337433,321.662262L192.332291,322.356903L192.329147,322.42572L192.271164,323.109528L192.262604,323.178955L192.151764,323.852448L192.137482,323.921875L191.973541,324.584503L191.954117,324.651611L191.737335,325.303711L191.713043,325.367981L191.44313,326.009796L191.415131,326.070068L191.092377,326.700989L191.060104,326.758698L191.04953,326.775848L191.44313,326.942383L191.514252,326.976349L191.950684,327.208282L192.004959,327.239685L192.467102,327.528748L192.501663,327.551605L192.896118,327.824646L192.927246,327.846924L193.309418,328.136566L193.338562,328.159729L193.68988,328.449615L193.694733,328.437317L193.727005,328.375061L195.784943,324.732727L195.802094,324.69162L195.845215,324.612488L195.896347,324.537964L195.95462,324.469116L196.019455,324.406281L196.090286,324.350586L196.16655,324.302002L196.247375,324.261749L196.331635,324.229767L196.418762,324.20636L196.507874,324.192078L196.597839,324.186646L196.68811,324.190338L196.777496,324.203186L196.864899,324.225189L196.969452,324.264343L197.550415,324.524231L198.171082,324.745605L198.864014,324.941254L199.629211,325.110046L200.07251,325.192322L200.249878,325.220337L201.552063,321.897339L201.589188,321.815063L201.634308,321.737091L201.687439,321.663971L201.747437,321.596558L201.81398,321.535706L201.88623,321.48175L201.963654,321.435486L202.045334,321.397186L202.130737,321.367493L202.218414,321.346344L202.307831,321.334351L202.398087,321.331207L202.488068,321.337494L202.576889,321.352631L202.664001,321.376892L202.747986,321.40976L202.828247,321.450897L202.903931,321.5L202.974487,321.556274L203.038757,321.61969L203.058456,321.643402L203.294952,321.324951L203.352356,321.255524L203.416626,321.191833L203.486603,321.135254L203.562302,321.086151L203.642563,321.044739L203.726532,321.011597L203.813385,320.987305L203.902191,320.971893L203.992462,320.965332L204.082428,320.968201L204.172119,320.980164L204.259796,321.000732L204.34491,321.030457L204.426895,321.06842L204.504303,321.114685L204.576843,321.168396L204.643677,321.229248L204.703674,321.296387L204.756805,321.369507L204.802216,321.447449L204.83963,321.529419L204.868469,321.614838L204.888474,321.703094L204.901321,321.82251L204.919312,322.289185L204.986725,322.669952L205.062134,322.899872L205.066711,322.821594L205.076691,322.731934L205.085266,322.686218L205.118393,322.532837L205.155243,322.407471L205.212646,322.254639L205.26236,322.145538L205.344055,321.993866L205.398315,321.905609L205.503998,321.754517L205.561691,321.680817L205.69194,321.530884L205.744781,321.475159L205.898743,321.32605L205.962433,321.269806L206.264618,321.028442L206.368011,320.957336L206.676498,320.775391L206.75647,320.733398L206.805878,320.712524L207.121216,320.589722L207.206909,320.561157L207.275177,320.545166L208.017822,320.401215L208.107208,320.388641L208.197464,320.384949L208.28743,320.390625L208.376556,320.405212L208.463669,320.42865L208.547928,320.460907L208.628479,320.501465L208.704453,320.550018L208.775299,320.606018L208.840118,320.668823L208.898102,320.737976L208.948944,320.8125L208.991806,320.891907L209.026642,320.975342L209.052643,321.061584L209.070053,321.150146L209.078339,321.240112L209.077194,321.330353L209.0672,321.420044L209.048355,321.508301L209.020355,321.593994L208.98407,321.676514L208.939514,321.755066L208.894958,321.818787L207.088943,324.174347L207.098663,324.181488L207.312866,324.323181L209.87323,325.674469L210.227417,325.844421L210.306549,325.887543L210.387085,325.942932L210.426208,325.973236L210.494766,326.032074L210.556747,326.097473L210.612167,326.168884L210.659851,326.245422L210.699554,326.326263L210.721268,326.381104L210.729553,326.404541L210.755249,326.491089L210.772095,326.579895L210.779831,326.669586L210.778687,326.759827L210.768112,326.849548L210.748688,326.9375L210.720398,327.023499L210.683563,327.105743L210.638733,327.184021L210.586166,327.257416L210.572449,327.272827L210.559891,327.324524L210.529327,327.409363L210.490784,327.490784L210.443924,327.567871L210.371658,327.660431L208.535065,329.721802L207.068939,331.436432L205.64566,333.169891L204.27951,334.905365L204.5103,335.069611L204.586273,335.130157L204.813065,335.332092L204.884766,335.403503L205.085266,335.627716L205.148117,335.706848L205.322342,335.952759L205.375183,336.037048L205.523132,336.304932L205.564545,336.39035L205.686523,336.680267L205.720505,336.776245L205.841034,337.189514L205.863602,337.286652L205.942444,337.740509L205.953293,337.827332L205.989853,338.321472L205.992126,338.396301L205.98671,338.931L205.984131,338.989838L205.970978,339.161499L205.969284,339.182373L205.95015,339.373169L205.948151,339.390289L205.923004,339.60022L205.921295,339.613373L205.890442,339.842438L205.888733,339.855286L205.851608,340.10321L205.849884,340.113495L205.806763,340.380554L205.805618,340.38855L205.756775,340.674469L205.755066,340.682739L205.699951,340.987793L205.693939,341.019226L205.274933,342.940918L205.272919,342.949493L204.843918,344.828918L204.818481,344.982605L204.797058,345.180817L204.780212,345.424744L204.769073,345.712952L204.764221,346.065674L204.76651,346.436432L204.775085,346.849182L204.791641,347.32074L204.791931,347.330444L204.801926,347.74118L204.802216,347.77002L204.799072,348.156494L204.798218,348.190765L204.781357,348.553223L204.778778,348.591217L204.748505,348.929688L204.743378,348.973663L204.699387,349.288147L204.690826,349.338409L204.633118,349.628906L204.61998,349.686035L204.548553,349.952515L204.528564,350.017334L204.515152,350.055328L205.61911,353.10553L206.825317,356.336304L206.83017,356.349701L207.041534,356.944397L207.042938,356.948364L207.243469,357.521057L207.244904,357.52533L207.434555,358.07605L207.436554,358.081482L207.614777,358.610168L207.616211,358.615295L207.7836,359.121704L207.785583,359.127136L207.942108,359.611572L207.944122,359.618164L208.089508,360.080292L208.092072,360.088013L208.226318,360.528442L208.230026,360.54187L208.650757,362.003967L208.666199,362.065125L208.756149,362.488129L208.766998,362.54895L208.821838,362.937683L208.828995,363.013672L208.848419,363.368713L208.848694,363.461548L208.832703,363.782898L208.823853,363.872864L208.805573,363.961121L208.78157,364.039673L208.76416,364.088196L208.729309,364.171631L208.686462,364.251038L208.63562,364.325562L208.577637,364.394684L208.512787,364.45752L208.441971,364.513489L208.365982,364.562073L208.285446,364.602631L208.201172,364.634888L208.129486,364.654907L208.089508,364.664307L208.000671,364.680603L207.91069,364.687744L207.820724,364.68573L207.731033,364.674622L207.643066,364.654602L207.557678,364.625763L207.499695,364.600647L207.437698,364.570923L207.358307,364.527771L207.258026,364.456665L207.174347,364.388123L207.082947,364.301575L206.771881,363.963104L206.714203,363.893677L206.686218,363.853699L205.884735,362.649231L205.853027,362.597809L205.649658,362.242188L205.641663,362.22821L205.424042,361.831177L205.41745,361.818909L205.186096,361.380463L205.180954,361.370483L204.935303,360.890625L204.930725,360.88205L204.671112,360.360779L204.667389,360.352783L204.394043,359.7901L204.3909,359.783813L204.103271,359.179688L204.100433,359.173401L203.799088,358.527893L203.796509,358.522766L203.299805,357.440796L203.297241,357.435089L202.838226,356.415955L202.835083,356.408813L202.414078,355.452271L202.410645,355.44455L202.027344,354.550537L202.023621,354.541107L201.678314,353.709656L201.674011,353.699097L201.366119,352.930176L201.360962,352.917908L201.130463,352.316071L200.343842,352.676819L200.325867,352.684814L199.462402,353.057861L199.445557,353.065002L198.535828,353.43631L198.520416,353.442322L197.601837,353.797058L197.570694,354.302612L197.569275,354.32489L197.485016,355.299744L197.482437,355.323425L197.375336,356.268311L197.372192,356.293457L197.241943,357.208862L197.237946,357.234863L197.085129,358.120605L197.079712,358.148315L196.903748,359.004333L196.897186,359.033752L196.698105,359.860657L196.693237,359.880371L196.54129,360.453613L196.535294,360.475311L196.363068,361.064575L196.357056,361.08429L196.164841,361.689514L196.158844,361.707794L195.946625,362.329315L195.940613,362.346436L195.708405,362.983704L195.702408,362.999115L195.450485,363.652649L195.444763,363.66748L195.172852,364.3367L195.167145,364.350403L194.875229,365.035919L194.862671,365.063629L194.832672,365.127899L194.886078,365.147888L194.965775,365.182159L195.613861,365.499207L195.690704,365.541748L196.304504,365.921082L196.37619,365.970215L196.95575,366.411804L197.021729,366.467468L197.287354,366.713989L197.358475,366.787964L197.584976,367.052734L197.65152,367.140991L197.838623,367.424347L197.895447,367.524017L198.043121,367.825928L198.084259,367.924744L198.151093,368.117004L198.176514,368.203552L198.186508,368.252655L198.217072,368.423462L198.228485,368.513153L198.230499,368.613129L198.225067,368.762207L198.217346,368.851929L198.200226,368.940735L198.1828,369.002991L198.141663,369.130676L198.10968,369.214935L198.069397,369.295776L198.013992,369.382019L197.936859,369.487976L197.880035,369.557983L197.81662,369.622253L197.748932,369.677948L197.635529,369.762482L197.56041,369.812744L197.450165,369.868744L197.301056,369.931885L197.216232,369.962708L197.148254,369.980988L196.963165,370.0224L196.868347,370.038116L196.56958,370.071838L196.488449,370.077271L196.17627,370.083801L196.101135,370.082397L195.775528,370.061829L195.708405,370.054962L195.369354,370.007568L195.308533,369.997009L194.95578,369.922424L194.901215,369.908997L194.535339,369.807312L194.48764,369.792786L194.108032,369.66394L194.06604,369.648499L193.673309,369.492859L193.582184,369.450562L191.492554,368.33606L191.451416,368.359192L191.346008,368.403748L191.266602,368.431458L191.180069,368.456879L191.091248,368.47345L191.044968,368.478302L190.946426,368.486298L190.856445,368.489166L190.783905,368.484589L190.666504,368.472595L190.55397,368.453735L190.417145,368.421753L190.339172,368.39978L190.183502,368.348053L190.126678,368.326904L189.951584,368.255249L189.909027,368.236389L189.714798,368.144714L189.643402,368.107269L188.653687,367.525452L188.578278,367.475769L188.488602,367.40033L188.288376,367.208405L188.226395,367.1427L188.155548,367.047028L188.002747,366.809387L187.957901,366.73114L187.917053,366.638306L187.811661,366.355225L187.784531,366.269257L187.769104,366.19812L187.711411,365.86908L187.700272,365.779694L187.698273,365.689453L187.705414,365.599487L187.72168,365.51062L187.746826,365.424072L187.760254,365.390961L187.741119,365.330139L187.722839,365.241882L187.713684,365.150757L187.375214,358.411652L187.375214,358.374237L184.689178,360.091705L184.646057,360.117432L184.176758,360.381348L184.148499,360.396759L183.688919,360.63385L183.657776,360.648987L183.208771,360.858887L183.173645,360.874634L182.734344,361.057434L182.696075,361.072266L182.267349,361.227936L182.225372,361.241943L181.806915,361.370758L181.787201,361.37616L181.781219,361.691528L181.780914,361.699524L181.769501,362.108521L181.769211,362.114532L181.754364,362.541809L181.754074,362.548676L181.735229,362.993958L181.73494,363.000244L181.712097,363.464111L181.712097,363.468689L181.685822,363.950562L181.685242,363.955963L181.654968,364.455811L181.654678,364.460663L181.620392,364.979065L181.620117,364.983093L181.582123,365.51947L181.581848,365.523499L181.540131,366.077881L181.539856,366.081604L181.494446,366.654572L181.494156,366.660004L181.391327,367.860229L181.390747,367.866486L181.272797,369.139526L181.272507,369.142395L181.213959,369.751923L181.213379,369.757629L181.152832,370.348328L181.151978,370.354858L181.089142,370.926422L181.088562,370.932983L181.023727,371.485413L181.022873,371.493103L180.95546,372.026367L180.954315,372.033508L180.885193,372.547913L180.884064,372.556763L180.812363,373.052063L180.810944,373.061218L180.736954,373.537354L180.730377,373.574188L180.43219,375.076874L180.419907,375.130005L180.284515,375.644409L180.257385,375.730408L180.221405,375.813232L180.177414,375.892029L180.115433,375.978333L180.075439,376.02771L180.015167,376.095154L179.948624,376.155701L179.876068,376.209381L179.798386,376.255676L179.716705,376.29364L179.631287,376.323059L179.54361,376.343933L179.453918,376.355621L179.397369,376.358459L179.345673,376.359344L179.255402,376.356201L179.166016,376.343933L179.078308,376.322784L178.993195,376.293091L178.911514,376.254517L178.834106,376.208252L178.794403,376.179962L178.730713,376.131958L178.661591,376.073975L178.598465,376.00946L178.56134,375.964294L178.486206,375.866913L178.427094,375.780365L178.276001,375.527893L178.216293,375.408478L178.089188,375.098877L178.055771,375.002319L177.952377,374.635559L177.934097,374.557892L177.854691,374.134033L177.845261,374.070313L177.682465,372.635315L177.681885,372.630737L177.632187,372.172058L177.631042,372.15976L177.584198,371.66333L177.583344,371.653931L177.538788,371.120056L177.537933,371.110657L177.496231,370.539124L177.495667,370.531982L177.456238,369.923004L177.455963,369.916443L177.418823,369.269775L177.418533,369.263214L177.384262,368.579132L177.383972,368.57428L177.3517,367.852478L177.35141,367.842773L177.228882,364.187897L177.228302,364.16217L177.22345,363.156799L177.22345,363.140808L177.235733,362.194519L177.236023,362.177368L177.264862,361.290497L177.304001,360.58844L176.659622,360.170837L176.631622,360.151978L175.675064,359.479034L175.121521,359.105713L174.521988,358.721863L173.909317,358.348511L173.256378,357.968628L172.554596,357.578491L171.835938,357.194885L171.062469,356.798431L171.062469,356.798157L170.280426,356.412537L169.875122,356.220886L169.412109,356.012085L168.904266,355.79187L168.316437,355.545105L167.677795,355.284027L166.985718,355.007263L166.947998,354.992676L163.820099,360.25708L163.807526,360.277954L161.868134,363.348999L161.816132,363.422699L160.988953,364.478668L160.978668,364.491516L160.812729,364.695435L160.803314,364.706604L160.657928,364.879395L160.644775,364.894836L160.520248,365.036194L160.501404,365.056763L160.397705,365.167297L160.363434,365.202148L160.280609,365.281281L160.210632,365.341553L160.148651,365.389526L160.074371,365.440948L159.995544,365.484924L159.933853,365.512329L159.892441,365.528931L159.807037,365.558044L159.719345,365.578613L159.629669,365.590027L159.539398,365.592346L159.449432,365.585449L159.360596,365.569763L159.273773,365.544922L159.190079,365.51178L159.110107,365.470093L159.046112,365.42865L159.025558,365.414093L158.954712,365.358398L158.889603,365.295563L158.831619,365.226715L158.780487,365.152161L158.737366,365.072754L158.702515,364.989655L158.676239,364.903381L158.658813,364.815125L158.626526,364.59375L158.617966,364.504089L158.617966,364.426697L158.629669,364.156769L158.642242,364.041382L158.698227,363.722321L158.715942,363.642639L158.815918,363.274475L158.841614,363.195068L159.262344,362.07312L159.262909,362.071686L160.64621,358.403656L160.656494,358.37738L161.807861,355.593658L161.807571,355.593658L161.975525,355.182343L162.132324,354.79248L162.276001,354.426575L162.411957,354.072968L162.541061,353.727661L162.657593,353.406891L162.728424,353.205231L162.489075,353.067566L162.457947,353.048706L162.152313,352.855896L162.119476,352.834198L161.831848,352.634552L161.799011,352.610565L161.529083,352.404358L161.494232,352.376343L161.24231,352.162964L161.208038,352.132416L160.973816,351.912476L160.93927,351.878204L160.722748,351.651428L160.688202,351.613159L160.489685,351.379517L160.434845,351.3078L160.387726,351.230957L160.348297,351.149841L160.317444,351.065033L160.295166,350.977631L160.279175,350.854797L160.196915,349.460388L160.19635,349.370117L160.20462,349.280151L160.215759,349.223297L160.19635,349.178162L160.16922,349.091919L160.151505,349.007385L160.032684,348.257324L159.887573,347.539795L159.708771,346.812317L159.501404,346.097961L159.259201,345.373596L158.986145,344.654114L158.6828,343.939209L158.345184,343.219971L158.34491,343.219971L157.572571,341.623901L157.556854,341.589355L157.354355,341.120911L157.336929,341.077515L157.176697,340.646179L157.158417,340.59137L157.040451,340.197205L157.022171,340.125793L156.946762,339.768738L156.93277,339.679626L156.927628,339.589661L156.931625,339.49939L156.940475,339.439148L156.927063,339.402588L156.904785,339.315186L156.891357,339.225769L156.887054,339.135803L156.889923,339.064941L156.920197,338.697083L156.93219,338.607666L156.948486,338.53598L157.038727,338.204346L157.067017,338.118683L157.104141,338.034973L157.254379,337.739075L157.299225,337.660828L157.356934,337.581116L157.567429,337.321472L157.627701,337.254364L157.691681,337.196106L157.962463,336.972168L158.034714,336.918182L158.090118,336.883911L158.420883,336.695984L158.538269,336.640259L158.929291,336.488312L159.030411,336.45575L159.038696,336.453735L159.0327,336.034454L159.016144,335.36322L158.992706,334.719421L158.963287,334.114746L158.926163,333.514099L158.884171,332.967407L158.833328,332.420105L158.779053,331.929688L158.695374,331.27533L158.598831,330.647522L158.489441,330.044556L158.366608,329.462463L158.228363,328.892334L158.080139,328.356201L157.917038,327.834656L157.740814,327.333099L157.52916,326.753571L157.526871,326.747009L157.339203,326.220581L157.336075,326.212036L157.172699,325.738464L157.169266,325.728149L157.029877,325.307739L157.025299,325.293457L156.910202,324.925537L156.904785,324.907288L156.81366,324.592529L156.805939,324.564209L156.739395,324.302307L156.72998,324.26062L156.687408,324.051514L156.678268,323.999268L156.641144,323.73819L156.635712,323.689941L156.614578,323.447449L156.611145,323.387146L156.606873,323.163513L156.608292,323.092957L156.620575,322.888184L156.629425,322.806213L156.65799,322.620239L156.678558,322.523132L156.723694,322.356049L156.761108,322.246643L156.8228,322.098145L156.883057,321.978729L156.961334,321.849335L157.011887,321.774506L157.047028,321.731079L157.141846,321.62027L157.203827,321.554565L157.250671,321.513153L157.361786,321.421204L157.434052,321.367188L157.487167,321.334351L157.614838,321.26123L157.695389,321.220398L157.743958,321.200378L157.888184,321.146118L158.010437,321.109863L158.171249,321.074432L158.28006,321.057312L158.457443,321.04071L158.539429,321.037598L158.57341,320.996765L158.637665,320.93335L158.708221,320.877075L158.78392,320.827942L158.864471,320.787109L158.948441,320.754242L158.994995,320.740234L159.714493,320.544006L160.436844,320.361206L160.451691,320.357788L161.192047,320.183838L161.206329,320.18042L161.964951,320.01532L161.979233,320.012451L162.756134,319.856506L162.769287,319.853943L163.564453,319.706848L163.577026,319.704559L164.390778,319.56604L164.403351,319.564026L165.235107,319.434631L165.270508,319.42981L170.512054,318.828247L170.50264,318.803986L170.464935,318.679443L170.40181,318.400085L170.386383,318.311279L170.380676,318.2453L170.375244,318.129333L170.375534,318.039063L170.390671,317.917389L170.413513,317.799988L170.435242,317.712311L170.470642,317.616058L170.522339,317.496643L170.562347,317.415833L170.598328,317.356689L170.679169,317.235321L170.732849,317.162781L170.793121,317.096802L170.91423,316.976532L170.981354,316.91626L171.019913,316.886841L171.172729,316.776306L171.268692,316.715759L171.453217,316.615234L171.533478,316.57666L171.749695,316.485535L171.818527,316.459839L172.066452,316.378723L172.122711,316.362152L172.402634,316.290466L172.448914,316.279907L172.760239,316.217621L172.800232,316.210754L173.143555,316.158203L173.238098,316.148804L174.386597,316.096802L174.407455,316.036804L174.445435,315.954834L174.491714,315.877441L174.54541,315.804871L174.586258,315.758606L174.611389,315.732056L174.676514,315.6698L174.766479,315.601532L174.815613,315.56897L174.837036,315.556396L174.826477,315.490723L174.816467,315.401001L174.815903,315.31076L174.818756,315.280487L174.785049,315.198486L174.759338,315.111938L174.742493,315.022278L174.389465,312.437927L174.381744,312.348236L174.383179,312.257965L174.393738,312.168274L174.413162,312.080322L174.441727,311.994629L174.490845,311.888672L174.680237,311.543335L174.691071,311.5242L174.879883,311.199158L174.891296,311.180298L175.078964,310.874969L175.092682,310.853271L175.27948,310.567932L175.295746,310.543915L175.481979,310.27887L175.499695,310.254272L175.684784,310.008942L175.706772,309.981232L175.891296,309.755859L175.916412,309.726166L176.100082,309.520813L176.129501,309.489685L176.312012,309.304291L176.347717,309.27002L176.529663,309.104645L176.570511,309.069794L176.751312,308.924408L176.80101,308.887268L176.981232,308.761902L177.037796,308.725616L177.217163,308.619934L177.284302,308.583923L177.462524,308.498535L177.538788,308.466553L177.716446,308.400879L177.802124,308.373718L177.978653,308.328003L178.023773,308.317749L178.546768,308.210938L179.136871,308.081238L179.693848,307.938721L180.207687,307.787048L180.709259,307.616821L180.796082,307.59198L180.884918,307.576233L180.974884,307.569702L181.06514,307.57196L181.154831,307.583679L181.242523,307.604248L181.327911,307.633362L181.389618,307.661926L181.55127,307.38031L181.600128,307.304321L181.656403,307.233765L181.727798,307.161804L182.431015,306.528015L182.638672,306.322327L182.667236,306.295502L182.874023,306.107849L182.912872,306.074402L183.104248,305.919891L183.157364,305.880188L183.333313,305.758514L183.408432,305.71167L183.56839,305.623138L183.681213,305.570862L183.825729,305.515442L183.911423,305.487457L183.992828,305.469482L184.121643,305.447205L184.211334,305.436035L184.30159,305.434326L184.35672,305.437744zM178.98938,341.005188L178.879745,341.371155L179.640717,341.39856L179.300537,341.248627C179.147369,341.16803,179.042572,341.087402,178.98938,341.005188zM200.023865,338.867401L199.372528,338.827087L199.358017,339.070526L199.778809,338.989929L200.186691,338.922211C200.285034,338.902863,200.231827,338.885132,200.023865,338.867401zM190.855225,317.378265C191.090607,317.892578,191.298584,318.416534,191.479156,318.948578C191.75,318.551971,191.912842,318.258545,191.967651,318.068298C192.040207,317.789398,192.053101,317.541107,192.007965,317.325073C191.962814,317.117096,191.877365,317.004242,191.75,316.986511C191.669403,316.986511,191.59201,317.017151,191.519455,317.081635C191.293747,317.252533,191.072876,317.350861,190.855225,317.378265zM185.552673,331.681793L185.417252,332.615265L186.095993,334.549896C186.186279,333.919525,186.349106,333.202087,186.582886,332.399231C186.231415,332.100952,185.888016,331.862366,185.552673,331.681793zM186.25882,330.126007C186.031509,330.495209,185.710678,330.793457,185.294724,331.019165C185.683258,331.127197,186.166931,331.402863,186.745712,331.844604L187.316437,329.787445L186.25882,330.126007zM203.101563,323.06131C203.652939,324.018951,204.652512,324.812164,206.098663,325.444153C204.670242,324.488098,203.97377,323.29184,204.010849,321.856995L203.116074,323.06131L203.101563,323.06131zM205.963226,323.183838L206.248596,323.806152L208.18808,321.276581L207.767288,321.357208C207.333603,321.402344,206.917664,321.605469,206.51944,321.966614C206.07608,322.36322,205.890686,322.769501,205.963226,323.183838zM185.728409,352.413177C185.702606,352.845245,185.820313,353.336975,186.081482,353.888336L186.434555,354.618683L187.830719,353.291809L187.925842,353.224121C187.509903,352.792053,187.093948,352.443787,186.677994,352.182617C186.073425,351.795685,185.755814,351.87146,185.728409,352.413177zM179.029678,316.863983L176.6017,316.904297C176.556549,317.861938,176.651672,318.785736,176.887054,319.678894C177.112762,318.938904,177.52388,318.331085,178.120392,317.852264L178.771729,317.378265L179.260223,317.081635L179.029678,316.863983zM178.257431,314.023254L179.205414,313.454163L178.310638,313.576691L178.70401,313.305847C178.052689,313.612152,177.406189,314.003906,176.764526,314.482758L175.706924,315.348511L175.761734,315.687073L176.493683,315.579041L176.493683,315.551636L178.581482,314.861603L179.327942,314.510162L178.378357,314.523041L179.273132,313.968445L178.257431,314.023254zM184.101685,331.668884C183.63092,332.038086,183.189178,332.502411,182.773224,333.061829C183.685745,333.81958,184.349976,334.501526,184.765915,335.10611L185.023865,335.510773L184.82074,332.886108L184.101685,331.668884zM193.689499,329.597198L192.970444,330.179199C194.210236,329.376343,195.80954,329.065186,197.771606,329.245728L198.179489,326.999939C197.952164,327.09021,197.568466,327.301422,197.026764,327.635132L195.954651,328.299377L194.829315,328.921692C194.313416,329.210266,193.93454,329.435974,193.689499,329.597198zM189.078583,315.619354L189.649292,316.472198C189.983032,316.823669,190.331268,317.017151,190.692398,317.05423C190.955185,317.07196,191.167999,317.009064,191.330826,316.863983C191.654892,316.612488,191.904785,316.264252,192.075668,315.822479C192.248169,315.398468,192.31105,314.992218,192.265915,314.605286L191.546875,314.861603L190.258713,315.308197L189.078583,315.619354zM176.548492,339.936279L176.250244,339.733154C175.137817,340.274841,174.441345,341.338928,174.160812,342.926941C173.862549,344.568176,174.288177,345.714447,175.436066,346.364166L176.561401,346.431885L176.019684,345.998199C175.486053,345.458099,175.10556,344.843842,174.879852,344.158661C174.617065,343.383179,174.617065,342.670593,174.879852,342.020874C175.03302,341.632324,175.255508,341.258301,175.544083,340.897156C175.842346,340.508636,176.177689,340.189392,176.548492,339.936279zM179.029678,326.70166L178.70401,326.7565C178.578262,328.073669,178.916824,329.255402,179.721313,330.301727C180.127594,330.824097,181.032043,331.654388,182.43306,332.790985C182.931229,332.141266,183.392319,331.664063,183.81633,331.357727L183.477768,331.343231C182.339539,331.235199,181.335144,330.770874,180.467773,329.950287C179.535919,329.065186,179.137695,328.086548,179.273132,327.012817L179.029678,326.70166zM191.546875,355.213562C190.20874,353.093506,188.635223,351.92627,186.827942,351.708618C187.948425,352.305145,189.196259,353.572357,190.571472,355.511841C191.954758,357.478729,192.618988,358.93454,192.564178,359.882538C192.844696,359.458527,192.812454,358.660461,192.469055,357.486786C192.20787,356.593628,191.899933,355.835876,191.546875,355.213562zM192.483566,317.026825C193.504089,316.59314,194.373062,316.078827,195.08728,315.483917C195.899826,314.789063,196.248062,314.189331,196.130371,313.684692C196.040085,313.413849,194.892197,313.670197,192.686707,314.455353C192.812454,315.096985,192.659286,315.719299,192.225601,316.323883C192.343292,316.502838,192.428741,316.73822,192.483566,317.026825zM182.976364,354.239807L183.287521,355.985809L183.680908,357.717346L183.680908,357.730225L186.557083,355.931C186.1492,355.336121,185.8461,354.821808,185.647797,354.388123C184.680481,354.360718,183.771179,354.244629,182.921555,354.036652L182.976364,354.239807zM202.382523,322.222961L200.971832,325.823029L203.454636,325.984253L206.967636,326.147064C205.810074,325.777893,204.850815,325.303894,204.091461,324.726715C203.12413,324.004456,202.555023,323.170929,202.382523,322.222961zM181.159409,346.715637L182.202515,350.950897C182.76355,349.07428,183.650269,347.58139,184.861038,346.472168C184.021088,346.391571,183.202072,346.14328,182.407257,345.727356C182.117065,346.161011,181.746246,346.47702,181.29483,346.675323L181.159409,346.715637zM188.008072,337.893616L185.376953,337.838806L182.297623,338.05484C181.981628,338.119324,181.638229,338.21283,181.267426,338.34021C180.67897,338.528839,180.47583,338.677155,180.656403,338.786774C181.072357,339.0383,181.597931,339.223694,182.229919,339.34137L182.297623,339.313965C184.422516,338.980255,186.574814,338.970581,188.752914,339.28656C189.712173,339.178558,190.245819,338.997986,190.353836,338.744873C190.200668,338.303131,189.418747,338.019379,188.008072,337.893616zM190.286118,345.390381C192.283646,344.901886,193.920044,344.587524,195.195297,344.442413L200.43013,344.008728L200.43013,343.616974C199.986771,343.644379,199.562775,343.536346,199.154877,343.292908L199.087158,343.318695L189.539673,344.118347C189.25914,344.658447,188.930252,345.14212,188.549774,345.566132C188.414352,345.737,188.224106,345.877289,187.980667,345.985291L187.966156,346.0401L188.50946,345.877289L190.286118,345.390381zM199.846512,326.633972L206.858002,326.809692L208.336411,326.809692L209.814804,326.729065C209.905075,326.719421,209.914749,326.693604,209.842209,326.648468L209.476242,326.472748L208.499237,325.958435L206.858002,325.091064C206.098663,324.613861,205.655304,324.149536,205.529556,323.69812L205.326416,324.11731L205.271591,324.197906C205.677872,324.676727,206.203445,325.095917,206.845108,325.457062C207.431961,325.790771,208.070389,326.048737,208.757187,326.229309C208.857147,326.255096,208.865204,326.314758,208.784592,326.405029C208.712051,326.4953,208.634659,326.540466,208.554047,326.540466L203.983444,326.445343C202.184219,326.382446,200.673584,326.229309,199.45314,325.984253C198.332657,325.768188,197.383057,325.466736,196.605972,325.078186L196.591461,325.118469L194.503662,328.81366C195.027618,328.505737,195.796646,328.0914,196.809113,327.567444L197.718399,327.040222C198.089203,326.824188,198.40036,326.674255,198.653473,326.593658L199.25,326.58075L199.846512,326.633972zM196.483444,336.689301L200.049652,336.689301L202.342209,333.779266L197.934433,333.698669L196.565674,336.539368L196.483444,336.689301zM187.940353,311.830658C187.667892,311.414703,187.406723,311.122894,187.153595,310.950409C184.622437,311.527557,182.592667,312.038635,181.064285,312.480377L180.440369,312.912445L181.335144,312.791534L180.385544,313.359039L181.402847,313.305847L180.495178,313.860443L181.443161,313.847534L180.508072,314.292511C181.954224,313.887848,183.179504,313.602478,184.183914,313.441254L188.454651,312.777039C188.33696,312.480377,188.166061,312.164398,187.940353,311.830658zM175.977768,318.419769C175.924576,317.952209,175.914902,317.450836,175.951981,316.918793L173.278931,317.039703C172.321289,317.167084,171.702194,317.395996,171.421677,317.729736C171.294312,317.892578,171.245941,318.050568,171.271729,318.203735C171.389435,318.97113,171.915009,319.561188,172.845245,319.977142C173.7771,320.391479,174.947571,320.562378,176.358246,320.491455C176.168015,319.79657,176.042267,319.106567,175.977768,318.419769zM175.00238,319.962646C174.84761,320.062592,174.428436,320.004547,173.740021,319.786926C172.990356,319.553131,172.461548,319.259705,172.153625,318.908264C171.855347,318.555176,171.805374,318.213409,172.005295,317.879669C172.185852,317.554016,172.393829,317.441162,172.629211,317.541107C172.746902,317.586243,172.782379,317.807129,172.737228,318.203735C172.692093,318.637421,172.754974,318.930817,172.927475,319.083984C173.098373,319.227478,173.541718,319.408051,174.255936,319.625702C174.834717,319.804657,175.082993,319.917511,175.00238,319.962646zM187.451859,331.912323L189.404236,330.801514L189.459061,330.600006L189.579971,329.679413L189.689606,328.176849C189.093079,328.771759,188.441757,329.245728,187.735611,329.597198L187.018173,332.088074C187.071381,332.178345,187.043976,332.276703,186.935944,332.386322C186.502274,333.937256,186.344269,335.272156,186.46196,336.391052L186.597382,337.405121L187.804932,337.487335C187.966156,336.594177,188.188644,335.642975,188.469162,334.632111L189.010864,332.778076L188.211212,332.562042L187.261627,332.208984C187.206802,332.183167,187.216476,332.128357,187.289032,332.04776L187.451859,331.912323zM192.130493,360.16629C192.140167,360.050201,192.093414,359.805145,191.995056,359.435944C191.904785,359.102234,191.837067,358.889404,191.791931,358.800751C191.230865,357.581909,190.471527,356.355011,189.512268,355.120056C188.843201,354.26236,188.356308,353.675537,188.04837,353.359528L186.515167,354.807312C188.016129,357.712494,189.562241,359.453674,191.153488,360.030853C191.542023,360.184021,191.867691,360.229156,192.130493,360.16629zM191.276016,367.366394C191.356628,367.30191,191.421112,367.28418,191.466263,367.311584L194.002258,368.664246C195.067932,369.115662,195.990112,369.278473,196.768814,369.15274C197.310516,369.070496,197.468506,368.759338,197.242798,368.217651C197.071899,367.803314,196.796219,367.437347,196.415741,367.121338C195.666061,366.490967,194.824493,366.026672,193.892624,365.728394C193.694336,365.8461,193.405746,365.926697,193.025269,365.971832L192.198196,366.039551L190.381241,366.134674C189.657364,366.107269,189.060837,365.96701,188.590073,365.715515C188.635223,366.184662,188.807724,366.531281,189.105988,366.756989L190.095886,367.338989C190.639191,367.609833,190.977753,367.667877,191.11319,367.514709L191.276016,367.366394zM193.50087,329.476288C193.030106,329.034546,192.528702,328.637939,191.995056,328.284851C191.361465,327.86084,190.797195,327.589996,190.299011,327.473907L190.150696,327.662537C190.141022,328.465424,190.073303,329.268311,189.947556,330.071198L189.90564,330.477478C189.879852,330.648346,189.825027,330.770874,189.742798,330.843445L188.862549,331.438354L187.885544,331.939728L189.418747,332.479828C189.454224,332.489502,189.463898,332.516907,189.44455,332.562042C188.875443,334.31131,188.449814,335.967041,188.170898,337.527649L189.391342,337.743683L189.675095,337.811401L190.218414,335.944458L191.005157,333.387512C191.338898,332.412109,191.701645,331.601166,192.090179,330.951447C192.3965,330.445221,192.862427,329.963165,193.486359,329.503693L193.50087,329.476288zM166.389969,354.226898L163.705643,353.10321C163.45253,353.870605,163.09462,354.812134,162.63353,355.931L161.480789,358.718506L160.097519,362.386292L159.676727,363.508392C159.513901,364.032349,159.46875,364.424133,159.541306,364.68692C159.56871,364.767517,159.817001,364.514404,160.287766,363.929169L161.114822,362.873169L163.054321,359.80191L166.335159,354.280121L166.389969,354.226898zM201.690887,351.249146C202.261597,352.882324,203.232147,355.182953,204.607361,358.151031C205.429596,359.927673,206.1035,361.262573,206.627457,362.155731L207.428726,363.360046L207.739883,363.698639C207.865631,363.816315,207.934967,363.829224,207.943024,363.738922C207.988159,363.332642,207.938187,362.837708,207.794708,362.250854L207.373917,360.788605C207.030518,359.643921,206.569427,358.263885,205.990646,356.648438L204.783096,353.414337L203.602966,350.152863C203.078995,350.496246,202.442169,350.860596,201.690887,351.249146zM178.270325,326.851624C177.864059,326.949951,177.425537,327.095062,176.954773,327.283691C176.809677,328.141388,176.919296,329.107086,177.280441,330.179199C177.533554,330.956299,177.949509,331.852661,178.52829,332.873199L178.839447,333.4133C178.921661,333.495514,179.097397,333.522919,179.36824,333.495514L181.091705,333.372986C181.127167,333.364929,181.149734,333.377838,181.159409,333.4133L181.132004,333.495514L179.964767,335.078705L179.979279,335.091614C180.728943,335.462402,181.48024,335.886414,182.229919,336.363647C182.745819,336.689301,183.261734,337.040771,183.776031,337.419647L185.010971,337.405121L185.567184,337.392212C185.033539,336.318481,184.437027,335.43985,183.776031,334.753052C183.377808,334.338715,182.740982,333.774414,181.863953,333.061829L179.964767,331.383514C178.626633,330.02121,178.062363,328.520233,178.270325,326.877411L178.270325,326.851624zM162.064423,337.608276C161.222839,337.311615,160.440918,337.176178,159.717041,337.203583L159.704147,337.203583C158.420822,337.464783,157.779175,338.10965,157.779175,339.138245C158.899658,339.715424,160.428024,340.315155,162.362671,340.937469C164.93898,341.758087,166.502823,342.277222,167.054199,342.493256L167.936081,342.831818C167.520126,341.920929,167.32666,340.864929,167.352463,339.665436C166.196503,339.386536,165.159851,339.025391,164.247345,338.583649C163.189728,338.077423,162.461014,337.753357,162.064423,337.608276zM188.727112,313.115601L184.251617,313.820129C183.302032,313.963623,182.207352,314.207062,180.969162,314.550446L177.415863,315.579041C175.69725,316.10141,174.992706,316.381927,175.300644,316.417389C177.082138,316.607635,179.893829,316.472198,183.735718,316.011108C187.02623,315.614502,189.165634,315.263062,190.150696,314.956726L191.424347,314.510162L194.476257,313.521881L191.927353,313.291321L188.727112,313.115601zM185.823532,346.499573L185.131897,346.485077C184.482178,347.054199,183.91629,347.794189,183.437454,348.705078C183.011841,349.507965,182.686172,350.378571,182.460464,351.316864L182.325043,351.465179L182.826431,353.562683L182.908661,353.562683C183.740555,353.806122,184.598251,353.956055,185.48497,354.009247C185.177032,353.2612,185.109314,352.616302,185.28183,352.074615C185.372116,351.776337,185.530106,351.587708,185.755814,351.505493L185.770325,351.479706C186.537735,350.378571,187.424454,349.251617,188.427246,348.095673L189.662201,346.688232C190.186157,346.138458,190.679504,345.727356,191.140594,345.458099C189.784729,345.782166,188.609421,346.106201,187.614685,346.431885C187.532471,346.449615,187.496994,346.422211,187.505066,346.351257L187.546982,346.161011C186.976257,346.368988,186.402313,346.481842,185.823532,346.499573zM198.911438,337.148773C198.214966,337.203583,197.68132,337.33902,197.310516,337.555054C197.004196,337.735626,197.084808,337.924255,197.555573,338.122559C197.907028,338.257996,198.210129,338.34021,198.463242,338.365997L199.91423,338.433716C200.538147,338.470795,200.813843,338.606201,200.741287,338.839996C200.660675,339.065704,200.349518,339.233368,199.806213,339.34137L198.368118,339.625122C197.907028,339.733154,197.500748,339.931458,197.147675,340.220032C196.705933,340.590851,196.75914,340.884277,197.310516,341.100311C197.799011,341.28894,198.364899,341.371155,199.006561,341.34375C199.620804,341.316345,200.186691,341.198639,200.700989,340.992279C200.855759,340.929413,200.913803,340.964874,200.878326,341.100311C200.833191,341.226044,200.755798,341.311493,200.647781,341.356628L199.603073,341.546875L197.989258,341.587189C198.187561,341.930603,198.485809,342.169189,198.884033,342.304626L200.064163,342.372345C200.199585,342.34494,200.22699,342.39975,200.144775,342.535156C200.064163,342.670593,199.973877,342.746368,199.873917,342.764099L199.399933,342.818909C200.049652,343.296143,200.760635,343.333221,201.528046,342.926941C202.224518,342.557739,202.812973,341.925751,203.291809,341.032593C203.77063,340.121704,203.993118,339.218872,203.956039,338.325684C203.920563,337.324524,203.540085,336.549042,202.816208,335.999268L202.397034,336.607086C202.224518,336.824738,202.061691,336.973053,201.908524,337.05365L201.257202,337.135895L200.592972,337.093964L198.911438,337.148773zM180.886948,360.911133C179.984116,361.054596,179.087723,360.915955,178.202621,360.491943C178.130066,361.556,178.102661,362.778046,178.120392,364.158112L178.24292,367.812988C178.32515,369.787933,178.433167,371.36145,178.568588,372.535156L178.73143,373.970001C178.821701,374.572968,178.974869,375.024384,179.19252,375.322632C179.300537,375.485474,179.377914,375.516113,179.423065,375.417786L179.558487,374.903473L179.85675,373.400879C180.056656,372.156281,180.232391,370.708496,180.385544,369.057617C180.720886,365.565552,180.891785,362.850616,180.901459,360.911133L180.886948,360.911133zM179.964767,340.315155C179.503677,340.60376,179.418228,340.793976,179.70842,340.884277L179.938965,340.977783L180.1147,341.11319C180.195313,341.529144,179.8116,341.767761,178.961975,341.830627C178.112335,341.893494,177.619003,341.772583,177.483582,341.466278L177.470673,341.371155C177.496475,340.739166,177.749588,340.207153,178.230026,339.773468C177.451324,339.6203,176.719391,339.954041,176.032593,340.774628C175.373199,341.559784,175.08783,342.332031,175.178116,343.089783C175.305481,344.090942,175.656952,344.879333,176.235718,345.458099C177.167587,346.386719,178.438004,346.760773,180.046982,346.5802C180.698318,346.50766,181.272263,346.306122,181.768829,345.972412C182.40242,345.520996,182.497543,345.01474,182.054184,344.455322C181.710785,344.73584,181.190033,345.051819,180.495178,345.40329C180.350082,345.47583,180.304932,345.448425,180.358139,345.322693L180.588684,345.079224C181.457672,344.672974,182.036453,344.266663,182.325043,343.860413C182.53302,343.589539,182.565247,343.318695,182.420151,343.049469C182.292786,342.796356,182.076752,342.620605,181.768829,342.52066C181.299667,343.205841,180.580627,343.739502,179.613297,344.118347C179.458527,344.17157,179.405334,344.131256,179.45047,343.995819C179.495605,343.860413,179.571381,343.770111,179.681015,343.724976C180.259796,343.508942,180.756363,343.18811,181.172302,342.764099C181.715622,342.214355,181.836533,341.687134,181.538284,341.180908C181.402847,340.929413,181.181976,340.711761,180.874054,340.531189C180.540314,340.332886,180.237228,340.261963,179.964767,340.315155zM183.044083,307.176208L182.325043,307.824341C181.465729,309.359161,180.7612,310.323242,180.209824,310.721466C179.821274,311.000366,179.485931,311.058411,179.205414,310.897186L178.894257,310.558624L180.996582,308.461151C180.327515,308.70459,179.571381,308.912567,178.73143,309.083466L178.202621,309.191467C177.262695,309.381714,176.285706,310.423218,175.273239,312.317566L175.626312,314.901917C176.972504,313.737915,178.34288,312.931793,179.734222,312.480377C180.982071,312.083771,183.332672,311.456635,186.787628,310.598938C186.885971,310.571533,186.790848,310.345825,186.502274,309.921814C186.231415,309.525208,186.008926,309.251129,185.838043,309.096375C185.259247,308.574005,184.938431,308.10968,184.875549,307.7034L184.73851,306.837646C184.657898,306.549072,184.540207,306.381409,184.387054,306.336273C184.106522,306.263702,183.658325,306.54422,183.044083,307.176208zM199.141983,338.827087L198.422928,338.786774L197.595871,338.677155C197.234741,338.606201,196.981628,338.483704,196.836517,338.312805L190.82782,338.137054L190.774628,338.380493L190.855225,338.569153L190.855225,338.651367C190.82782,340.689178,190.426376,342.44812,189.649292,343.928101L189.852432,343.968414L190.150696,343.915222L198.924332,343.17038L198.979141,343.17038L198.58577,342.818909L198.558365,342.696381C198.006989,342.515808,197.628113,342.159515,197.420135,341.627502L197.433044,341.532379C196.312561,341.371155,196.00946,340.942322,196.523758,340.247437C196.751068,339.931458,197.094482,339.683167,197.555573,339.502594C197.853821,339.386536,198.269775,339.278503,198.803421,339.178558L199.141983,339.11084L199.141983,338.827087zM204.865326,337.026245C204.575119,336.223389,204.006012,335.655884,203.156372,335.322144L203.02095,335.497894C204.502579,336.481323,204.887894,338.001648,204.173676,340.058807C203.875427,340.90683,203.422394,341.654907,202.816208,342.304626C202.20195,342.972076,201.55545,343.386414,200.878326,343.549255L200.878326,343.657257C201.17659,344.768066,201.026657,346.007874,200.43013,347.378235C199.96904,348.443909,199.264511,349.540222,198.314911,350.667145C200.502686,349.791718,202.314804,348.895325,203.752899,347.974762C203.860916,347.902222,203.910889,347.902222,203.901215,347.974762C203.883484,348.047302,203.833511,348.110168,203.752899,348.163391C202.297073,349.093628,200.402725,350.017426,198.069855,350.937988L197.283112,351.750549L197.283112,351.790863L197.242798,352.980652C199.856186,351.997223,201.971405,350.996033,203.590057,349.977112L203.602966,349.964233C203.848022,349.349976,203.946365,348.47937,203.901215,347.352448C203.848022,346.043335,203.87059,345.146942,203.968933,344.658447L204.404221,342.751221L204.823395,340.829468C204.97818,339.991089,205.068451,339.354279,205.095871,338.922211C205.131332,338.18222,205.053955,337.550232,204.865326,337.026245zM167.557205,352.764618L164.721344,351.64093C163.91684,351.30719,163.270355,350.996033,162.783463,350.707458C162.104721,350.320526,161.538834,349.886841,161.087418,349.40802L161.169647,350.802582C161.675873,351.43457,162.370728,351.993988,163.257446,352.480896C163.845901,352.804932,164.668137,353.166077,165.725739,353.562683C167.995728,354.428436,169.640182,355.110413,170.662323,355.606964C172.859756,356.671021,174.699295,357.717346,176.182526,358.745911L177.14502,359.423035L178.147797,360.072754L178.230026,360.072754L178.230026,360.125977C179.134476,360.622528,179.969604,360.811157,180.738617,360.695068C181.78656,360.532257,182.944122,360.080841,184.209702,359.34082L187.38414,357.311066L187.451859,357.270752L186.650589,356.079346L185.444656,356.837067L183.274628,358.151031C182.387909,358.610504,181.593094,358.894257,180.886948,359.002258C180.146942,359.119965,179.423065,359.052246,178.718521,358.800751C178.157471,358.60083,177.515823,358.244537,176.791931,357.730225C174.684784,356.242157,172.54216,354.987854,170.364059,353.968964C169.632111,353.625549,168.695435,353.224121,167.557205,352.764618zM182.936066,339.908875C181.543121,339.810547,180.648346,339.584839,180.250122,339.233368L180.195313,339.246277C179.590729,339.336548,179.087723,339.534851,178.691116,339.841187C178.220352,340.202301,177.972076,340.663391,177.944672,341.221222L178.44606,341.330841C178.52829,340.914917,178.766891,340.57312,179.1651,340.302246C179.500443,340.058807,179.916397,339.886322,180.412964,339.787964C180.512909,339.787964,180.566116,339.818604,180.57579,339.88147L180.588684,339.963684L181.159409,340.126526C181.565689,340.332886,181.846207,340.613403,181.999374,340.964874C182.171875,341.334076,182.167038,341.717773,181.986481,342.11438C182.429825,342.204651,182.723251,342.430389,182.868347,342.791504C183.021515,343.162323,182.953796,343.518616,182.663605,343.860413L182.447571,344.090942L182.460464,344.103851C182.731308,344.437561,182.79097,344.830963,182.637802,345.280762L182.678116,345.280762C183.790527,345.904694,184.938431,346.165863,186.12178,346.065918C187.459915,345.957886,188.424011,345.375885,189.010864,344.321503C189.807297,342.904358,190.253876,341.24057,190.353836,339.326874C189.837921,339.660614,188.960892,339.868591,187.722702,339.949188L185.376953,339.976593L182.936066,339.908875zM175.218414,347.433044C175.544083,348.650269,176.090622,350.067413,176.85965,351.682831L178.541183,355.078156C179.157043,356.404999,179.558487,357.59964,179.748718,358.665314L179.721313,358.773315C180.074402,358.836212,180.412964,358.841034,180.738617,358.786224C181.552795,358.668549,182.420151,358.37674,183.342346,357.907593L183.329437,357.893066L182.936066,356.16156L182.610397,354.415527L181.97197,351.708618L181.280319,349.016235L180.83374,346.823639C180.290436,346.996155,179.730988,347.081604,179.152206,347.081604C178.52829,347.089661,177.954346,347.004211,177.428757,346.823639L177.402969,346.838135C176.606537,346.86557,175.83429,346.846222,175.082993,346.783325L175.218414,347.433044zM191.629089,360.62738C190.479584,360.454865,189.3591,359.701965,188.266022,358.367065L188.604584,365.106079L188.617493,365.106079C188.825455,365.241516,189.033432,365.344696,189.241409,365.417236C190.063629,365.660675,190.960022,365.733215,191.927353,365.63327L193.568573,365.349518L193.771713,365.294708L194.055466,364.68692C194.859955,362.837708,195.453247,361.159393,195.832123,359.651978C196.393158,357.486786,196.709152,355.007202,196.781708,352.210022C195.553207,353.256348,193.987747,354.212402,192.090179,355.078156C192.694763,356.296997,193.065567,357.446472,193.200989,358.529877C193.400909,360.108246,192.876938,360.807922,191.629089,360.62738zM158.578827,327.027344C159.094727,328.415436,159.455856,330.013153,159.663834,331.8172C159.826675,333.169861,159.916962,334.807861,159.934692,336.729614C159.934692,336.77475,159.902435,336.819885,159.839569,336.865021C160.481232,336.84729,161.155136,336.940796,161.861282,337.148773C162.393311,337.311615,163.026901,337.567963,163.75885,337.919403C164.419861,338.235413,165.088913,338.51593,165.766052,338.759369C165.522598,336.945648,164.988953,335.001312,164.166733,332.926422L163.162323,330.788635C162.756058,329.932526,162.488434,329.200592,162.362671,328.596008C162.14502,326.783905,161.901581,325.439301,161.630737,324.563873C161.150299,323.003265,160.255524,322.13269,158.944794,321.952118C157.779175,321.789276,157.318069,322.430939,157.561523,323.873871C157.64212,324.360748,157.9823,325.411896,158.578827,327.027344zM191.817719,345.483887C191.321167,345.638672,190.792358,345.985291,190.231308,346.527008L188.943146,347.947357C188.174133,348.830841,187.38414,349.814301,186.569977,350.897705L186.299133,351.27655L186.447449,351.27655L187.369629,351.357178C188.174133,351.52002,188.893173,351.803741,189.526764,352.210022C190.123291,352.598572,190.684341,353.130615,191.208298,353.806122L191.682297,354.388123C191.882202,354.658966,191.93219,354.816956,191.83223,354.862122L193.080078,354.267212C193.892624,353.851257,194.539124,353.494965,195.019562,353.198303C195.714432,352.774292,196.307724,352.330933,196.796219,351.87146C196.822006,351.753784,196.904236,351.678009,197.039658,351.64093L197.202499,351.479706C198.260101,350.351166,199.074265,349.259705,199.643372,348.203705C200.412399,346.797852,200.705826,345.520996,200.525253,344.374695L200.510742,344.374695C197.718399,344.392426,194.892197,344.690704,192.03537,345.267853C191.990219,345.375885,191.917679,345.448425,191.817719,345.483887zM198.58577,326.959625L198.152084,329.313446C198.14241,329.385986,198.089203,329.458557,197.989258,329.531097L197.731293,329.624603C196.763977,329.508514,195.874039,329.508514,195.059875,329.624603C194.047409,329.777771,193.238068,330.111481,192.631882,330.625793L192.591583,330.653198C192.175629,331.302917,191.795151,332.128357,191.451752,333.129547L190.6521,335.741333L190.028168,337.906525C190.281281,337.987122,190.479584,338.087097,190.62468,338.204773L190.639191,338.10965L190.747208,338.014526L190.855225,337.961334L196.7285,338.122559L196.701096,337.825897C196.746231,337.409973,197.22023,337.116547,198.12468,336.945648L198.342331,336.905334L196.293213,336.905334C196.212601,336.905334,196.190033,336.860199,196.225494,336.769928L197.771606,333.563232L197.853821,333.495514L197.907028,333.468109L202.572754,333.563232L202.654984,333.630951L202.627579,333.724457L201.324905,335.389862C200.908966,336.021851,200.575226,336.458771,200.322113,336.702209L201.785995,336.689301L202.193893,336.187897C203.97377,333.779266,205.863281,331.42868,207.862411,329.137726L209.706787,327.067657L206.614563,327.256287L203.507843,327.12085L198.58577,326.959625zM196.686584,332.99411L195.100174,336.824738L194.937347,336.945648L192.198196,337.040771L192.143387,336.985962L192.21109,336.87793L192.29332,336.837616L194.924438,336.742493L195.059875,336.445862L195.954651,334.28067L196.335129,333.332672L196.415741,333.144043L196.483444,333.102142L193.310623,332.966705L191.967651,336.255615C191.949921,336.328156,191.890259,336.363647,191.791931,336.363647L191.75,336.28302L193.147797,332.873199C193.192932,332.782928,193.250977,332.74585,193.323517,332.765198L196.646286,332.898987C196.691422,332.898987,196.705933,332.931244,196.686584,332.99411zM207.373917,328.58313L207.346512,328.691132L204.309113,332.073547C204.118866,332.281525,203.833511,332.389557,203.454636,332.399231L202.464737,332.344391L193.554062,332.304108L193.47345,332.263794L193.486359,332.168671L194.300522,330.680603C194.335983,330.617737,194.390808,330.590332,194.463348,330.600006C194.535904,330.608063,194.553635,330.648346,194.516556,330.720917L193.771713,332.073547L203.752899,332.128357L203.996338,332.141266L204.051147,332.060669L207.020844,328.745941L198.99205,328.555725C198.919495,328.555725,198.893707,328.525085,198.911438,328.460602C198.938843,328.362244,198.988815,328.32193,199.059753,328.339661L207.291687,328.52829C207.336838,328.52829,207.364243,328.547638,207.373917,328.58313zM170.757446,338.272491L170.702637,338.190277C170.730042,338.099976,170.82515,338.014526,170.987991,337.933929C171.321716,337.771088,171.669952,337.695313,172.031082,337.703369C172.421234,337.703369,172.764648,337.798492,173.062897,337.987122C173.098373,338.014526,173.108047,338.051605,173.090302,338.096771C174.291397,338.159637,175.606964,338.67392,177.035385,339.638031C177.62384,339.359131,178.175217,339.28656,178.691116,339.421997C179.079666,339.178558,179.526245,338.997986,180.032471,338.88031L180.032471,338.867401L180.019577,338.744873C180.037308,338.0242,181.049774,337.595367,183.056976,337.45993C181.981628,336.711884,180.796661,336.025085,179.503677,335.402771C179.468201,335.38504,179.468201,335.344727,179.503677,335.28186L180.1147,334.441895C180.458099,333.982391,180.666077,333.747009,180.738617,333.738953L178.555695,333.901794L178.487976,333.887268C176.869324,331.307739,176.21315,329.169952,176.521088,327.473907C175.553757,327.897919,174.57193,328.483154,173.577194,329.232849L173.374054,329.39566C174.035065,329.574615,174.591278,329.985748,175.042694,330.625793C175.431229,331.194885,175.684357,331.849457,175.802048,332.58783C175.819778,332.670074,175.75206,332.755524,175.598907,332.845795L175.340942,332.858704C175.232941,332.128357,174.983032,331.488312,174.594498,330.936951C174.152756,330.30658,173.599762,329.909973,172.940369,329.747131C171.466812,330.964355,170.304413,332.308929,169.454773,333.779266C168.532593,335.367279,168.003784,337.058502,167.868362,338.854492C167.742615,340.523132,168.003784,341.925751,168.655121,343.062378C169.351593,344.271515,170.476913,345.132446,172.031082,345.646729C172.764648,345.899841,173.582031,346.098145,174.486481,346.241638C174.107605,345.799896,173.857727,345.209808,173.740021,344.469818C173.641678,343.820099,173.659424,343.18811,173.794846,342.57547C173.939941,341.953156,174.210785,341.384064,174.609009,340.869751C175.005615,340.365143,175.490891,339.949188,176.059998,339.625122C175.047531,339.020569,174.120514,338.636841,173.278931,338.475647C172.140717,338.257996,171.286255,338.488525,170.717133,339.165649L170.431778,339.326874C170.304413,339.363953,170.291504,339.318817,170.391464,339.191467C170.878357,338.623962,171.479706,338.272491,172.193924,338.137054C171.742493,338.009705,171.303986,338.046783,170.878357,338.245087L170.757446,338.272491zM159.147934,342.831818C160.124939,344.816437,160.753693,346.828491,161.032593,348.86792L161.155136,348.86792C161.671036,349.507965,162.367508,350.072235,163.244553,350.559143C163.849121,350.902527,164.676193,351.266907,165.725739,351.655426C167.995728,352.521179,169.640182,353.201538,170.662323,353.69809C172.859756,354.762146,174.699295,355.810089,176.182526,356.837067L177.701218,357.893066C178.315475,358.289673,178.871689,358.555695,179.36824,358.691101C179.124802,357.39328,178.513779,355.77301,177.538391,353.833527C176.326004,351.407166,175.589233,349.823975,175.328049,349.083954L174.947571,348.015076L174.636414,346.730133C173.278931,346.567291,172.100418,346.260986,171.096008,345.80957C169.794952,345.250122,168.8228,344.41983,168.181137,343.318695L166.444794,342.643188C165.730576,342.354614,164.282806,341.870941,162.104721,341.195435C160.27002,340.618256,158.841614,340.08139,157.819473,339.584839C157.892029,340.036255,158.077423,340.585999,158.375687,341.235718L159.147934,342.831818zM179.748718,316.891388L179.843842,317.026825C179.888992,317.12677,179.851913,317.202545,179.734222,317.257355C179.19252,317.500793,178.736267,317.761963,178.365448,318.040894C177.596436,318.645477,177.175644,319.372589,177.104706,320.220581C177.428757,319.598297,177.844711,319.043671,178.350937,318.555176C178.949066,318.032837,179.337616,317.749084,179.518188,317.703949L179.626205,317.703949C179.716492,317.712006,179.771301,317.752319,179.789032,317.82486C179.806763,317.8974,179.771301,317.952209,179.681015,317.987701L178.555695,318.800232C178.247757,319.043671,177.939835,319.372589,177.633514,319.786926L177.090195,320.612366L177.130493,320.938019L177.619003,320.180298C177.899521,319.819153,178.17038,319.5354,178.433167,319.327423C178.821701,319.021118,179.142532,318.830872,179.39566,318.758331L179.45047,318.758331C179.531082,318.768005,179.571381,318.821198,179.571381,318.921143C179.563324,319.021118,179.490768,319.101715,179.355347,319.164612L178.636307,319.598297C178.202621,319.967468,177.714111,320.504333,177.172424,321.208893L177.172424,321.221771C177.198212,321.312073,177.194992,321.397522,177.157913,321.478119L177.633514,321.424927C177.633514,321.478119,177.601257,321.537781,177.538391,321.600647C176.85965,322.024658,176.638779,322.614716,176.874161,323.372467C177.107941,324.122131,177.610931,324.533264,178.378357,324.604187L178.581482,324.604187C178.853958,325.218445,179.157043,325.768188,179.490768,326.255096C179.581055,326.272827,179.613297,326.317963,179.585892,326.390503C180.082458,327.112793,180.633835,327.717377,181.240021,328.204254C181.348038,328.284851,181.39801,328.35257,181.389954,328.407379C181.38028,328.452515,181.317413,328.470276,181.199707,328.460602C180.846649,328.42511,180.425858,328.209076,179.938965,327.8125C179.956696,328.488007,180.367813,329.137726,181.172302,329.76004C181.913925,330.337189,182.66037,330.65802,183.410049,330.720917C183.745392,330.766052,184.021088,330.725739,184.237122,330.600006L184.169403,330.600006C183.979156,330.580658,183.690582,330.490356,183.302032,330.329132C182.903824,330.156647,182.723251,330.040558,182.758728,329.976074L182.826431,329.963165L183.124695,330.030884L183.695419,330.126007C184.437027,330.198547,185.291504,330.076019,186.25882,329.76004C187.985504,329.192535,189.331696,328.036591,190.299011,326.29541C191.230865,324.62677,191.596848,322.845276,191.398544,320.950928C191.271179,319.759491,190.914886,318.560028,190.326431,317.350861C189.992706,317.26059,189.657364,317.049377,189.323639,316.715668L188.657791,315.699951C187.021393,316.05304,185.426926,316.327118,183.87114,316.525421C184.106522,316.851074,184.187134,317.05423,184.114594,317.134827L183.858246,317.22995L183.329437,317.392792L182.731308,317.662018L182.312134,317.811951L182.297623,317.811951C182.244431,317.523376,182.547516,317.121918,183.206909,316.607635L179.816437,316.851074L179.681015,316.851074L179.748718,316.891388zM179.19252,320.842896C179.26506,320.85257,179.310211,320.896118,179.327942,320.978333C179.345673,321.05896,179.318268,321.118591,179.24733,321.154053L179.042572,321.28949C178.916824,321.387848,178.844284,321.478119,178.826538,321.560333C178.808807,321.668365,178.749161,321.713501,178.6492,321.69577C178.533127,321.67804,178.487976,321.600647,178.513779,321.46521C178.541183,321.329803,178.623413,321.204041,178.758835,321.086365C178.876526,320.986389,178.994217,320.910614,179.110291,320.855804L179.19252,320.842896zM179.463364,319.949738C179.481094,320.030365,179.432739,320.102905,179.315048,320.165771L179.273132,320.180298L179.260223,320.193176C179.079666,320.265747,178.911987,320.356018,178.758835,320.46405L178.350937,320.830017L178.052689,321.05896L178.012375,320.991241L178.175217,320.639771L178.555695,320.220581C178.763672,320.022308,178.997437,319.886871,179.260223,319.814331L179.315048,319.814331C179.387589,319.824005,179.435959,319.869141,179.463364,319.949738zM186.557083,327.514221L186.189499,327.541626L185.74292,327.433624C185.552673,327.351379,185.480133,327.233704,185.525269,327.080536C185.570404,326.937042,185.675201,326.874176,185.838043,326.891907L187.018173,327.148254L187.153595,327.215973L187.031067,327.311096L186.557083,327.514221zM189.078583,317.17514L190.055573,317.919983L190.150696,318.040894L190.015274,318.082794L189.987854,318.082794L188.902847,317.932861C188.812561,317.924805,188.744843,317.884521,188.699707,317.811951L188.657791,317.568512L188.727112,317.297668C188.772263,317.162231,188.843201,317.104187,188.943146,317.121918L189.078583,317.17514zM183.667999,318.813141C183.803436,318.830872,183.911453,318.930817,183.993668,319.111389C184.083954,319.290344,184.119431,319.507996,184.101685,319.759491C184.09201,320.012634,184.029144,320.228668,183.911453,320.40921C183.803436,320.581726,183.680908,320.662354,183.545471,320.652679L183.532578,320.652679C183.405212,320.644592,183.297195,320.544647,183.206909,320.356018C183.124695,320.165771,183.094055,319.944916,183.111786,319.691803C183.129532,319.440277,183.192413,319.227478,183.302032,319.05658C183.410049,318.885681,183.532578,318.803467,183.667999,318.813141zM189.810516,320.328613C189.792786,320.581726,189.729904,320.792938,189.621887,320.963837C189.512268,321.144379,189.386505,321.226624,189.241409,321.208893C189.105988,321.199219,188.997971,321.104095,188.915741,320.923523C188.835129,320.734894,188.79805,320.514008,188.807724,320.260895C188.825455,320.007782,188.888336,319.79657,188.997971,319.625702C189.105988,319.453186,189.228516,319.372589,189.363937,319.380646L189.376831,319.380646C189.512268,319.399994,189.621887,319.498322,189.702499,319.678894C189.792786,319.859467,189.829865,320.0755,189.810516,320.328613zM186.434555,319.137207L186.447449,319.137207C186.529678,319.156525,186.602234,319.237152,186.6651,319.380646L186.800522,319.774017L187.098785,320.517242C187.243881,320.825165,187.550201,321.329803,188.020966,322.034332C188.128983,322.168152,188.125763,322.313232,188.008072,322.4664L187.316437,323.29184C187.234207,323.382141,187.113297,323.427277,186.950455,323.427277L186.6651,323.319244L186.529678,323.196716L186.582886,323.035522L187.139084,322.413208C187.266449,322.277771,187.293854,322.123016,187.221313,321.952118L186.760223,320.830017L186.447449,319.869141L186.339432,319.408051L186.352325,319.219421L186.434555,319.137207zM182.325043,323.711029L183.776031,322.88559L183.87114,322.859772C183.934021,322.877502,183.938858,322.92749,183.884033,323.008118L183.680908,323.414368C183.645432,323.477264,183.653503,323.55304,183.708313,323.643311L183.89856,323.806152L184.901352,324.265625C185.652634,324.581604,186.213684,324.776703,186.582886,324.847626L186.950455,324.902435L189.093079,324.834747C189.165634,324.834747,189.233353,324.807343,189.296234,324.75412C189.349426,324.689636,189.376831,324.621918,189.376831,324.550995L189.391342,324.360748L189.459061,324.239838L189.554184,324.320435L189.987854,324.970154C190.033005,325.033051,190.050735,325.105591,190.041061,325.186188C190.041061,325.276489,190.018494,325.34903,189.973358,325.403839L189.309128,326.242188L189.214005,326.322815L189.173691,326.187378L189.201111,326.051941C189.201111,325.926208,189.141449,325.853638,189.025375,325.835907L188.957657,325.835907L188.061279,326.255096C187.347061,326.52594,186.715088,326.633972,186.163696,326.58075L186.1492,326.58075C185.597824,326.52594,184.89328,326.201904,184.033981,325.605377L182.921555,324.712219L182.800644,324.671906C182.682953,324.671906,182.582993,324.712219,182.500763,324.794434L182.447571,325.403839L182.325043,325.484467C182.279892,325.474792,182.252487,325.429626,182.244431,325.34903L182.109009,324.104401C182.089661,323.923828,182.162201,323.793243,182.325043,323.711029zM189.093079,325.091064C188.251511,325.19104,187.487335,325.208771,186.800522,325.145905L186.434555,325.091064C185.991196,325.020142,185.412415,324.825073,184.698212,324.510681L183.748611,324.064087L183.437454,323.981873C183.310089,323.964142,183.192413,323.991547,183.084381,324.064087C182.958633,324.144714,182.921555,324.243042,182.976364,324.360748L183.179504,324.5784L183.953369,325.078186L185.131897,325.740784C185.439819,325.885895,185.883179,325.989075,186.46196,326.051941C186.832764,326.079346,187.121353,326.074524,187.32933,326.039063L189.051163,325.619873C189.178528,325.610199,189.273651,325.519928,189.336533,325.34903C189.399414,325.195862,189.331696,325.110413,189.133392,325.091064L189.093079,325.091064zM162.443283,326.904816C162.570648,327.689941,162.80603,328.52829,163.149429,329.421478L164.152222,331.857513C165.264648,334.537018,165.951447,336.887604,166.214233,338.907715L167.379868,339.259155L167.487885,338.298279C167.795822,336.3862,168.460052,334.632111,169.482193,333.034424C170.467255,331.493164,171.765076,330.138916,173.374054,328.974884C175.328049,327.567444,177.127274,326.696838,178.771729,326.363098C178.383179,325.823029,178.102661,325.36676,177.931763,324.997559L177.796341,324.983063C177.099869,324.920166,176.583969,324.473602,176.250244,323.643311C175.905228,322.787231,176.019684,322.082703,176.588806,321.532928L176.791931,321.505524L176.643616,321.28949L176.480774,320.883209C175.331268,320.963837,174.323639,320.878387,173.456284,320.626862C172.69693,320.401154,172.085907,320.05777,171.624817,319.598297L165.372665,320.315704C163.130081,320.649445,161.082581,321.076691,159.230148,321.600647C160.27002,321.72641,161.060013,322.380951,161.603333,323.562714C161.919312,324.265625,162.199844,325.381287,162.443283,326.904816z"/>
</svg>
