<?xml version="1.0" encoding="UTF-8"?>
<svg xmlns="http://www.w3.org/2000/svg" xmlns:xlink="http://www.w3.org/1999/xlink" width="54.199mm" height="70.967mm" viewBox="-141.377899 305.413757 54.199493 70.966980">
    <path transform="matrix(-1,0,0,1,0,0)" style="stroke:none;fill:#000000;fill-rule:evenodd" d="M114.902527,305.416595L115.045929,305.428314L115.135315,305.440308L115.223297,305.461151L115.308411,305.490875L115.390381,305.52887L115.497772,305.585693L115.575195,305.631958L115.647736,305.685669L115.742554,305.776489L115.835114,305.879028L115.892242,305.949005L115.94165,306.024414L115.964203,306.064972L116.041321,306.213226L116.078735,306.295197L116.100464,306.355469L116.161865,306.549408L116.192444,306.679077L116.323822,307.507965L116.33725,307.563965L116.357513,307.616211L116.402374,307.702759L116.471497,307.81189L116.569458,307.943268L116.691132,308.088654L116.849365,308.258606L117.177277,308.583344L117.227264,308.637054L117.384338,308.820709L117.415192,308.858978L117.590851,309.088928L117.610565,309.115753L117.805359,309.391388L117.820496,309.413666L117.919617,309.563354L117.935333,309.587616L118.016174,309.718719L118.035583,309.751862L118.098419,309.86441L118.125275,309.916107L118.16983,310.009766L118.205231,310.095459L118.231812,310.170593L118.242676,310.206848L118.280945,310.234558L118.472321,310.385681L118.553986,310.458801L118.748779,310.655884L118.805634,310.718994L119.003845,310.962067L119.043274,311.014618L119.245514,311.30368L119.263214,311.329651L119.423157,311.576447L119.443726,311.609589L119.585114,311.850067L119.605103,311.886353L119.72821,312.119995L119.749359,312.162842L119.782471,312.234833L122.552795,312.38678L122.583618,312.388763L125.14856,312.619263L125.237976,312.632141L125.325653,312.653534L125.410767,312.683838L125.492188,312.722656L125.569305,312.769501L125.58786,312.783508L125.607849,312.778931L125.810944,312.736938L125.847778,312.730377L126.026306,312.701233L126.072845,312.694672L126.226807,312.677826L126.29422,312.673248L126.423309,312.668976L126.523285,312.671265L126.628113,312.679535L126.717499,312.690979L126.784912,312.706116L126.865173,312.727234L126.951172,312.754669L127.033997,312.790375L127.098541,312.825775L127.153961,312.859192L127.22879,312.90976L127.298187,312.967438L127.361328,313.032013L127.431854,313.122833L127.463013,313.168823L127.509552,313.245941L127.548401,313.327637L127.578674,313.41275L127.600098,313.500153L127.610657,313.56955L127.63266,313.766357L127.638092,313.856598L127.632965,313.960571L127.610962,314.165649L127.596954,314.254761L127.576111,314.335022L127.509857,314.548401L127.478699,314.632935L127.456146,314.681793L127.345886,314.902863L127.287048,315.003418L127.132538,315.232483L127.077393,315.305878L126.878906,315.543243L126.828339,315.598938L126.585541,315.843994L126.542145,315.884857L126.255371,316.137909L126.207092,316.177612L125.642426,316.609497L125.583862,316.650604L124.961182,317.05191L124.904633,317.085632L124.224274,317.45636L124.171417,317.482941L123.491364,317.796844L123.474487,317.949646L123.46109,318.034485L123.418518,318.237854L123.388519,318.34668L123.327118,318.524323L123.283142,318.628876L123.181152,318.834534L123.144897,318.901062L123.002655,319.13559L122.971497,319.183289L122.788422,319.44577L122.733002,319.516876L122.670746,319.582306L122.657318,319.593719L122.719879,319.865631L122.728149,319.90564L122.808136,320.34491L122.814423,320.385773L122.872955,320.82077L122.878967,320.879333L122.920105,321.486298L122.922089,321.54483L122.923248,322.146667L122.921539,322.20578L122.882965,322.80246L122.876953,322.862457L122.798431,323.453979L122.788422,323.513092L122.669891,324.099487L122.656189,324.157471L122.49765,324.739014L122.48053,324.794434L122.311981,325.284576L122.335999,325.288269L122.38913,325.298553L122.770996,325.383118L122.839539,325.401093L123.162598,325.500214L123.254272,325.533905L123.518494,325.647888L123.599609,325.687866L123.639008,325.710999L123.844116,325.839539L123.917786,325.891235L123.996063,325.959778L124.141998,326.103455L124.20285,326.169739L124.256836,326.242279L124.297974,326.309967L124.384796,326.468201L124.424225,326.549316L124.455048,326.634155L124.477325,326.721558L124.490753,326.810669L124.494751,326.90094L124.489899,326.990906L124.475922,327.080017L124.452789,327.167419L124.447052,327.182281L124.462189,327.227112L124.481903,327.315369L124.492767,327.404785L124.492188,327.533295L124.445923,328.144836L126.35849,324.739868L126.36734,324.716156L126.407318,324.635345L126.455322,324.558777L126.510712,324.487671L126.572998,324.422241L126.641541,324.363708L126.71579,324.312286L126.794922,324.26886L126.877747,324.233459L126.96402,324.206604L127.052551,324.188599L127.142242,324.179749L127.232513,324.179749L127.322174,324.189178L127.410736,324.207458L127.496704,324.234589L127.548401,324.255737L128.131927,324.515656L128.756897,324.738739L129.441833,324.932373L130.212738,325.102325L130.656036,325.184601L130.833405,325.21286L132.137024,321.887878L132.174133,321.805634L132.219543,321.727661L132.2724,321.65451L132.332367,321.587128L132.398926,321.526001L132.471466,321.47229L132.548889,321.426025L132.630585,321.387756L132.715698,321.357758L132.803375,321.336914L132.893066,321.324921L132.983032,321.321777L133.073303,321.328064L133.16214,321.343201L133.248962,321.367462L133.333221,321.40033L133.413483,321.441437L133.489166,321.49057L133.559448,321.547119L133.623688,321.61026L133.643127,321.633667L133.880188,321.315186L133.937592,321.245514L134.001862,321.182098L134.072144,321.125549L134.147827,321.076416L134.228088,321.035004L134.312073,321.002167L134.398895,320.977875L134.487732,320.962463L134.577972,320.955872L134.667969,320.95874L134.757629,320.970734L134.845337,320.991577L134.93045,321.021301L135.012421,321.059265L135.089813,321.10556L135.162384,321.159241L135.228912,321.220093L135.289185,321.287506L135.342041,321.360321L135.387451,321.438293L135.424866,321.520569L135.453705,321.605957L135.473694,321.694214L135.486267,321.812469L135.504547,322.278625L135.57196,322.661072L135.659363,322.927277L135.666229,322.811615L135.676208,322.721924L135.685059,322.674774L135.718506,322.521118L135.755066,322.396881L135.812469,322.244049L135.861298,322.136658L135.942719,321.984711L135.998688,321.89389L136.104645,321.742798L136.160645,321.670807L136.290588,321.520844L136.344299,321.464294L136.498535,321.314911L136.562225,321.258636L136.864136,321.017578L136.967834,320.946167L137.276581,320.764221L137.356567,320.722534L137.40625,320.701385L137.722168,320.578552L137.807861,320.550293L137.875824,320.534302L138.619324,320.39035L138.70874,320.377472L138.798706,320.374054L138.888947,320.379761L138.977783,320.394348L139.064911,320.417755L139.14917,320.450043L139.229706,320.490875L139.305969,320.539429L139.376526,320.595428L139.441345,320.658264L139.499329,320.727386L139.550171,320.801941L139.593018,320.881317L139.627869,320.964447L139.65387,321.050995L139.671295,321.139526L139.679565,321.229523L139.678436,321.319489L139.668427,321.40918L139.649567,321.497437L139.621582,321.583405L139.585327,321.665955L139.540771,321.744507L139.494476,321.810181L137.680756,324.159485L137.700745,324.174316L137.913544,324.315155L140.474487,325.666748L140.828644,325.83667L140.907776,325.879822L140.996613,325.941803L141.035156,325.972351L141.102844,326.031769L141.164276,326.098022L141.218811,326.170013L141.265656,326.247131L141.304504,326.328522L141.345642,326.452209L141.351624,326.475922L141.369354,326.564453L141.377899,326.654419L141.37735,326.74469L141.36792,326.834381L141.34906,326.922638L141.321655,327.008606L141.285645,327.091431L141.241669,327.169983L141.189697,327.243683L141.15683,327.281677L141.148254,327.316223L141.117981,327.401337L141.079132,327.482758L141.032593,327.559875L140.960052,327.65271L139.128876,329.70752L135.79248,333.805115L135.789337,333.809113L135.788177,333.810272L134.911865,334.926788L135.114685,335.074432L135.189514,335.135284L135.414856,335.340088L135.483429,335.40976L135.68222,335.634857L135.744781,335.714264L135.916718,335.960175L135.968994,336.044159L136.11438,336.310913L136.155487,336.397461L136.274048,336.68454L136.30545,336.773346L136.426849,337.186646L136.449707,337.284912L136.528809,337.738495L136.539673,337.826477L136.575958,338.320892L136.578217,338.396576L136.57196,338.931274L136.569366,338.990112L136.555939,339.162354L136.55423,339.180328L136.5354,339.371429L136.533386,339.389984L136.50824,339.60022L136.506531,339.613342L136.475677,339.842438L136.473969,339.854126L136.437134,340.102356L136.435699,340.111755L136.393158,340.378845L136.391724,340.388824L136.342865,340.674744L136.341736,340.680725L136.287476,340.985779L136.280609,341.020081L135.859589,342.943481L135.85788,342.951202L135.428864,344.832336L135.404297,344.982574L135.382294,345.183929L135.365448,345.426453L135.354309,345.716339L135.349457,346.069397L135.351471,346.440979L135.360321,346.853729L135.376587,347.325012L135.376892,347.333588L135.387177,347.744598L135.387451,347.774872L135.384033,348.161896L135.383179,348.195313L135.366302,348.55835L135.363739,348.596344L135.333466,348.935364L135.328339,348.97937L135.284332,349.294128L135.275757,349.344666L135.218079,349.634888L135.204926,349.691132L135.13382,349.957336L135.113525,350.023041L135.106964,350.042175L136.201782,353.107544L137.423676,356.343109L137.431396,356.364258L137.807281,357.441071L137.810425,357.450226L138.164032,358.499603L138.167175,358.509308L138.498505,359.531281L138.501648,359.541565L138.811279,360.536713L138.814697,360.548126L139.24826,362.010529L139.265137,362.076233L139.356232,362.499237L139.367371,362.561523L139.422791,362.951111L139.430206,363.027954L139.449646,363.38327L139.449921,363.476105L139.433929,363.797699L139.425079,363.88739L139.406799,363.975952L139.375092,364.075348L139.361389,364.110748L139.324524,364.193024L139.279694,364.271271L139.226868,364.344696L139.167145,364.412384L139.100891,364.473511L139.0289,364.527771L138.951508,364.574341L138.868103,364.613739L138.839539,364.625458L138.754425,364.655457L138.666748,364.676575L138.577332,364.688873L138.487091,364.692017L138.397095,364.686005L138.266296,364.660583L138.22345,364.648895L138.137756,364.620605L138.055206,364.584045L137.988647,364.546631L137.931519,364.5112L137.835571,364.442383L137.76358,364.38324L137.710754,364.336395L137.624756,364.253571L137.595917,364.224152L137.495087,364.117615L137.473969,364.094482L137.359131,363.964233L137.284882,363.867401L136.485107,362.661499L136.456268,362.615204L136.264313,362.283325L136.255768,362.267883L136.045807,361.887726L136.038971,361.875153L135.811035,361.446411L135.805328,361.435852L135.559967,360.958862L135.556244,360.951141L135.292633,360.426178L135.28891,360.418732L135.007568,359.845184L135.004425,359.838928L134.705383,359.217102L134.702789,359.21167L134.386047,358.54187L134.382599,358.53418L133.883331,357.45163L133.881042,357.447083L133.645966,356.929504L133.644562,356.926086L133.419189,356.424225L133.41748,356.420227L133.201843,355.933807L133.200104,355.930115L132.994171,355.459686L132.992188,355.455109L132.795959,355.000092L132.793671,354.994965L132.607452,354.555664L132.605438,354.551086L132.428619,354.127228L132.426361,354.121216L132.259552,353.713348L132.256958,353.707336L132.099884,353.314911L132.097321,353.308044L131.949921,352.93103L131.947357,352.924164L131.809692,352.563141L131.806549,352.555115L131.72171,352.326355L130.940521,352.684814L130.922241,352.69281L130.058502,353.066132L130.041656,353.073273L129.131073,353.44458L129.115356,353.450867L128.18335,353.81076L128.153351,354.304871L128.151947,354.326874L128.068542,355.301147L128.066254,355.324585L127.960266,356.269989L127.957123,356.294006L127.828888,357.210571L127.82489,357.236572L127.674072,358.124573L127.66922,358.151154L127.496124,359.010315L127.489838,359.038879L127.294189,359.869476L127.285919,359.901764L127.127106,360.477875L127.121674,360.497009L126.94458,361.088257L126.938873,361.106232L126.74292,361.712921L126.737518,361.729492L126.52301,362.351593L126.517303,362.367279L126.28421,363.004517L126.278778,363.019379L126.026855,363.672028L126.021454,363.68573L125.750946,364.353271L125.745514,364.366394L125.456177,365.049316L125.449036,365.065338L125.415344,365.141022L125.476471,365.164154L125.555878,365.1987L126.199951,365.516327L126.27652,365.558594L126.887756,365.938477L126.958313,365.987335L127.536682,366.429199L127.601532,366.483765L127.867462,366.730255L127.939148,366.80481L128.165649,367.069855L128.231628,367.157532L128.419281,367.441467L128.47583,367.540009L128.624359,367.842468L128.665771,367.941589L128.73291,368.13382L128.758331,368.220367L128.768311,368.267792L128.799438,368.438599L128.810883,368.528259L128.813446,368.622528L128.809448,368.771637L128.802582,368.861603L128.786316,368.950439L128.76889,369.014709L128.728912,369.14209L128.697479,369.226624L128.657776,369.307739L128.604645,369.391998L128.529236,369.497986L128.473267,369.568542L128.410431,369.633362L128.342438,369.690765L128.231628,369.775024L128.157074,369.825867L128.041412,369.885284L127.894592,369.947845L127.810028,369.978973L127.741486,369.997528L127.559265,370.038666L127.462708,370.054962L127.160797,370.088928L127.08139,370.094086L126.766937,370.101227L126.691528,370.099792L126.364471,370.079529L126.297058,370.072937L125.957458,370.025818L125.895477,370.014954L125.542999,369.94043L125.488159,369.927002L125.123413,369.825317L125.075439,369.810455L124.697845,369.681915L124.654419,369.665649L124.264252,369.509674L124.229126,369.494843L124.043762,369.411438L124.02005,369.400299L123.797272,369.292053L123.78299,369.284912L123.522186,369.152374L123.510498,369.146362L123.21228,368.989288L123.20459,368.985291L122.868408,368.803894L122.861542,368.800201L122.487671,368.594238L122.481934,368.591125L122.070648,368.360596L122.070068,368.360321L122.043213,368.375458L121.934387,368.421173L121.854126,368.448883L121.767578,368.473999L121.678772,368.490295L121.632202,368.495148L121.532532,368.502838L121.442261,368.505127L121.374573,368.501129L121.255188,368.489136L121.145782,368.471161L121.006958,368.439453L120.928711,368.417725L120.770477,368.366028L120.713623,368.345184L120.53598,368.273499L120.493408,368.255219L120.296326,368.163513L120.216339,368.120972L119.239227,367.538849L119.164093,367.488861L119.085846,367.423462L118.885895,367.236084L118.823059,367.171265L118.746796,367.069855L118.593994,366.833649L118.548859,366.755676L118.506592,366.658569L118.401184,366.373505L118.374054,366.287537L118.358612,366.216125L118.300934,365.881653L118.29007,365.791962L118.288361,365.701691L118.295776,365.611725L118.312347,365.523193L118.337769,365.436371L118.342072,365.425781L118.31665,365.34494L118.29837,365.256683L118.289215,365.165283L117.950745,358.423065L117.950745,358.38736L115.278992,360.102539L115.231873,360.130829L114.75885,360.394745L114.731445,360.409302L114.269287,360.646393L114.238159,360.66153L113.78717,360.871185L113.753448,360.886017L113.313599,361.068817L113.276459,361.083405L112.848022,361.239349L112.805176,361.253632L112.387299,361.382172L112.358154,361.390442L112.352173,361.70462L112.351868,361.712067L112.340729,362.121368L112.340454,362.12793L112.325592,362.555511L112.325317,362.562378L112.306458,363.007965L112.306183,363.013672L112.28363,363.477814L112.283325,363.483521L112.256775,363.965668L112.25647,363.97052L112.226196,364.470642L112.225922,364.474945L112.191925,364.993622L112.19165,364.998199L112.153656,365.534912L112.153381,365.53891L112.111664,366.093597L112.111389,366.098999L112.016541,367.263519L112.015991,367.270081L111.906006,368.506836L111.905457,368.511719L111.844604,369.157501L111.84433,369.16095L111.779785,369.818726L111.779205,369.823608L111.714355,370.448547L111.714081,370.453125L111.649536,371.045227L111.648956,371.050934L111.584412,371.610474L111.583557,371.616486L111.518982,372.143463L111.518127,372.150299L111.453857,372.64444L111.452728,372.652161L111.388458,373.114014L111.387329,373.123169L111.323059,373.552185L111.32077,373.565887L111.250488,373.990051L111.24649,374.013458L111.170807,374.405334L111.1651,374.43161L111.084259,374.791229L111.076843,374.822357L110.855469,375.665253L110.828064,375.751221L110.792358,375.834045L110.748077,375.912872L110.687805,375.997711L110.647827,376.047424L110.587555,376.114532L110.520996,376.175659L110.448761,376.22937L110.371338,376.275909L110.289642,376.313904L110.204529,376.343903L110.116547,376.364746L110.027161,376.37674L109.968048,376.379883L109.916351,376.380737L109.82608,376.377594L109.736664,376.365326L109.648987,376.344177L109.563873,376.314484L109.482178,376.275909L109.404785,376.229645L109.363068,376.199951L109.299377,376.151672L109.230255,376.093414L109.167419,376.028564L109.132019,375.985443L109.056885,375.888031L108.994049,375.795197L108.842651,375.537567L108.785828,375.423035L108.658722,375.111694L108.62616,375.016876L108.523041,374.65155L108.505341,374.575592L108.425659,374.155701L108.414795,374.082001L108.264832,372.647034L108.210571,372.169739L108.209137,372.157745L108.157715,371.642181L108.156586,371.630463L108.109467,371.08493L108.108612,371.074341L108.065765,370.49881L108.065186,370.489685L108.026337,369.88385L108.025757,369.874725L107.991486,369.238922L107.991211,369.231476L107.960938,368.565704L107.960632,368.557983L107.934937,367.861908L107.886963,366.71225L107.886658,366.705109L107.850098,365.619171L107.849823,365.610596L107.825256,364.592896L107.824982,364.583191L107.812408,363.633179L107.812408,363.622345L107.811554,362.740601L107.811554,362.727173L107.822968,361.913727L107.823273,361.89856L107.846405,361.153076L107.84726,361.134521L107.875519,360.589539L106.265442,359.49646L105.709625,359.121704L105.124664,358.747833L104.513397,358.375641L103.8396,357.984619L103.146118,357.599304L102.423767,357.214294L101.652557,356.819275L100.832825,356.41452L100.457489,356.235168L100.030212,356.041199L99.511505,355.815857L99.511505,355.815552L98.945953,355.577362L98.945953,355.577637L98.297577,355.312286L97.590668,355.02951L97.513824,354.999237L94.394775,360.267365L94.379913,360.291626L92.425934,363.364685L92.375397,363.436096L91.548218,364.492065L91.538208,364.504364L91.372253,364.708588L91.363129,364.719727L91.217743,364.892792L91.206024,364.906799L91.081787,365.048767L91.060913,365.07132L90.957245,365.181854L90.924103,365.215576L90.841278,365.294983L90.768433,365.357513L90.706177,365.405518L90.632202,365.456909L90.55307,365.50061L90.493103,365.527191L90.451691,365.543762L90.366272,365.572876L90.278595,365.593445L90.188904,365.604889L90.098663,365.607147L90.008667,365.600311L89.919861,365.584595L89.833008,365.559753L89.749329,365.526611L89.669342,365.484924L89.605377,365.443481L89.584808,365.428925L89.513977,365.37323L89.448853,365.310394L89.390869,365.241547L89.339722,365.167023L89.2966,365.087616L89.261749,365.004486L89.235474,364.918213L89.218048,364.829956L89.185791,364.608612L89.177216,364.518921L89.177216,364.441528L89.188934,364.1716L89.201508,364.056213L89.257477,363.737152L89.275177,363.657471L89.375153,363.289307L89.400574,363.210449L89.821289,362.086792L89.823029,362.08194L91.220886,358.412506L91.230316,358.389343L92.383087,355.600189L92.549622,355.190338L92.705841,354.798737L92.852661,354.424286L92.987762,354.071533L93.115173,353.730194L93.232269,353.409149L93.300232,353.21637L92.731262,352.870758L92.668427,352.828766L92.11203,352.422607L92.046051,352.369476L91.557648,351.936462L91.491089,351.870758L91.070343,351.410339L91.012939,351.340942L90.962952,351.265808L90.920685,351.186127L90.886688,351.102417L90.861267,351.015869L90.844696,350.927063L90.83728,350.835358L90.817566,350.160706L90.758148,349.4935L90.75473,349.403503L90.760437,349.313263L90.775299,349.225006L90.757294,349.183289L90.730164,349.097046L90.711334,349.005066L90.601624,348.274139L90.463104,347.566071L90.289459,346.848297L90.083221,346.131653L89.841858,345.405029L89.569092,344.684082L89.262054,343.958588L88.912994,343.213409L88.132965,341.629608L88.110382,341.58017L87.914185,341.111755L87.898163,341.070892L87.741943,340.639618L87.724792,340.587067L87.609131,340.192902L87.592255,340.125488L87.517151,339.768433L87.502869,339.679321L87.498016,339.589081L87.502014,339.499084L87.511139,339.438843L87.498016,339.403137L87.475433,339.315735L87.462036,339.226624L87.457733,339.136353L87.459747,339.079803L87.484009,338.711334L87.494293,338.621643L87.51059,338.546234L87.596558,338.214355L87.623413,338.128387L87.661957,338.039551L87.809906,337.743347L87.854187,337.664795L87.913879,337.581696L88.12381,337.321747L88.184082,337.254364L88.250366,337.194092L88.521973,336.970154L88.594238,336.916168L88.651672,336.881042L88.985565,336.693085L89.103241,336.637695L89.49884,336.485718L89.599091,336.454041L89.594788,336.035309L89.580811,335.367798L89.559967,334.737701L89.531952,334.123016L89.496246,333.52121L89.455414,332.972229L89.406586,332.436096L89.349152,331.909119L89.267181,331.267883L89.170349,330.639221L89.061523,330.038818L88.937012,329.448151L88.80304,328.895752L88.650818,328.344208L88.48999,327.829498L88.309204,327.314514L88.101257,326.746124L88.098969,326.739563L87.911041,326.213135L87.907593,326.204285L87.744232,325.730713L87.740784,325.720428L87.60141,325.299713L87.596832,325.284851L87.482025,324.916962L87.476288,324.898407L87.385468,324.583344L87.378052,324.555359L87.311493,324.292877L87.301514,324.250031L87.259216,324.040375L87.250946,323.991516L87.213226,323.730194L87.20752,323.680206L87.186401,323.437683L87.182953,323.378571L87.178406,323.154938L87.17981,323.084656L87.191803,322.879578L87.200684,322.796173L87.229248,322.610229L87.249786,322.513123L87.294922,322.346039L87.331787,322.237762L87.393188,322.089264L87.431732,322.007843L87.45401,321.968719L87.532288,321.839325L87.582855,321.764496L87.617981,321.721069L87.712799,321.61026L87.77478,321.544556L87.822479,321.502289L87.933594,321.410614L88.006134,321.356628L88.058685,321.324066L88.186646,321.250946L88.267212,321.210083L88.31662,321.190094L88.460846,321.136108L88.58197,321.100403L88.743073,321.065002L88.851593,321.047852L89.028961,321.031281L89.095825,321.028717L89.13208,320.985016L89.19635,320.921906L89.266907,320.865631L89.342865,320.816498L89.423126,320.775635L89.507385,320.743103L89.55368,320.729095L90.258606,320.53772L90.273743,320.533722L90.996948,320.350922L91.01181,320.347198L91.752991,320.173248L91.766998,320.170105L92.526184,320.00473L92.540192,320.001892L93.317657,319.845642L93.330811,319.843079L94.126556,319.695404L94.138855,319.693115L94.952606,319.554016L94.965179,319.552032L95.796906,319.422058L95.833191,319.417206L101.082458,318.816528L101.074738,318.796539L101.036743,318.67514L100.970764,318.395813L100.954498,318.307251L100.947906,318.232697L100.942505,318.11673L100.94278,318.026489L100.952484,317.936798L100.961334,317.888519L100.986481,317.771149L101.009888,317.683746L101.051025,317.579193L101.107025,317.459808L101.149567,317.380096L101.18985,317.31842L101.276978,317.197021L101.333221,317.126465L101.364929,317.092499L101.48291,316.972229L101.549164,316.911102L101.591736,316.877991L101.742249,316.767426L101.839355,316.705444L102.022736,316.60434L102.10672,316.563507L102.322632,316.472382L102.391479,316.446686L102.639984,316.365265L102.697662,316.348419L102.979309,316.276733L103.027588,316.265869L103.341766,316.204193L103.380615,316.197601L103.727356,316.145355L103.819916,316.1362L104.95871,316.084778L104.968689,316.052216L105.003845,315.969391L105.047241,315.890289L105.098663,315.815735L105.175781,315.727753L105.202637,315.700897L105.26947,315.64035L105.353149,315.579803L105.403717,315.547516L105.408264,315.544952L105.401154,315.508972L105.388,315.419861L105.384003,315.32959L105.388855,315.239624L105.38913,315.23761L105.370575,315.193634L105.343719,315.107361L105.325165,315.012817L104.95755,312.426758L104.94928,312.337067L104.950409,312.246826L104.960419,312.157135L104.979553,312.068878L105.007538,311.983185L105.058685,311.872345L105.248322,311.527039L105.258606,311.508453L105.447418,311.183136L105.459106,311.163727L105.647064,310.858093L105.661072,310.836395L105.848145,310.551056L105.863861,310.527618L106.050079,310.262268L106.068665,310.236847L106.254303,309.991211L106.275726,309.964081L106.460236,309.738708L106.485382,309.709015L106.669037,309.503662L106.699036,309.471954L106.881836,309.28656L106.916382,309.253448L107.098328,309.087769L107.14032,309.051788L107.321411,308.906403L107.370544,308.869843L107.550781,308.744446L107.60791,308.707886L107.787567,308.602203L107.854675,308.566223L108.033203,308.480804L108.109161,308.448822L108.287109,308.383118L108.372803,308.356293L108.549622,308.310577L108.594452,308.300293L109.112854,308.194336L109.709534,308.062653L110.260223,307.922119L110.779205,307.769043L111.280212,307.599091L111.367035,307.574524L111.455872,307.558807L111.545837,307.552246L111.636108,307.554535L111.7258,307.566223L111.813477,307.586792L111.898865,307.616211L111.9617,307.645081L112.123657,307.362885L112.172516,307.286896L112.22879,307.216339L112.299042,307.145508L113.006256,306.506287L113.208771,306.308044L113.225037,306.292053L113.412689,306.117523L113.437256,306.095551L113.596069,305.958435L113.634918,305.927032L113.765167,305.826752L113.831146,305.780487L114.019653,305.660828L114.098206,305.616272L114.140778,305.596558L114.314728,305.520569L114.398987,305.488586L114.49353,305.46402L114.652039,305.431732L114.741455,305.41803L114.831421,305.413757L114.902527,305.416595zM116.683205,334.547852L116.709,334.3302L116.588089,334.289886L116.683205,334.547852zM124.091301,329.469391L123.860756,329.266235L123.752739,329.740234L124.063896,329.496796L124.091301,329.469391zM130.361176,338.987854L130.767456,338.920135C130.867416,338.902405,130.812592,338.884674,130.60463,338.866943L129.953293,338.825012L129.953293,339.070068L130.361176,338.987854zM112.543053,329.401672L112.231903,329.145325L112.122269,329.5242L112.896126,329.537109L112.543053,329.401672zM115.596573,335.508728L115.488556,334.09964L114.945244,334.588135L115.596573,335.508728zM109.612061,326.707672L109.273499,326.747986C109.218681,327.334808,109.250923,327.889404,109.368622,328.413391L109.884521,328.007111C109.820038,327.683044,109.807137,327.347717,109.842606,327.00592L109.612061,326.707672zM121.43116,317.364929C121.666542,317.879211,121.874512,318.403198,122.056694,318.935211C122.327545,318.56601,122.490379,318.272583,122.545197,318.054962C122.616135,317.776031,122.630646,317.527771,122.585495,317.31012C122.540359,317.10376,122.4533,316.990906,122.327545,316.973145C122.264671,316.973145,122.187286,317.003784,122.097,317.06665C121.871292,317.239166,121.648804,317.337524,121.43116,317.364929zM133.698456,323.051178C134.232086,324.00885,135.228439,324.80365,136.684265,325.434021C135.254227,324.477997,134.557755,323.281738,134.594833,321.846863L133.698456,323.051178zM136.834198,323.796021L138.788193,321.264862L138.367401,321.345459C137.932114,321.390594,137.516159,321.59375,137.11795,321.954895C136.674591,322.351471,136.489182,322.757751,136.561737,323.173706C136.589142,323.372009,136.679428,323.579987,136.834198,323.796021zM116.6558,353.895935L117.008873,354.626282L118.500168,353.23172C118.084213,352.799652,117.668266,352.451416,117.252312,352.190247C116.646126,351.801697,116.330132,351.877472,116.302719,352.419159C116.284988,352.844788,116.402679,353.336517,116.6558,353.895935zM109.599159,316.850616L107.169571,316.89093C107.12442,317.848572,107.219543,318.772369,107.454926,319.667145C107.680634,318.927155,108.093361,318.317749,108.68988,317.838928C109.015541,317.577728,109.396027,317.319794,109.829712,317.06665L109.599159,316.850616zM109.286392,313.289276C108.219116,313.785828,107.214706,314.467773,106.274788,315.333557L106.342499,315.672119L107.061546,315.564087L107.061546,315.536682L109.15097,314.846649L109.897423,314.495178L108.94783,314.508087L109.842606,313.953491L108.839813,314.006683L109.774895,313.439209L108.880119,313.56012L109.286392,313.289276zM107.537148,327.249359C107.364639,328.215088,107.514572,329.321075,107.983734,330.565674L108.011139,330.539886L108.120766,330.17392C108.301331,329.71283,108.581863,329.266235,108.960724,328.83255C108.789833,328.21991,108.747917,327.565369,108.839813,326.870514L108.852707,326.843109C108.419022,326.951111,107.980507,327.086548,107.537148,327.249359zM119.667404,325.082581C118.825829,325.182526,118.066483,325.200256,117.387741,325.13739L117.008873,325.082581C116.565514,325.01001,115.985123,324.816559,115.270912,324.500549L114.334213,324.053986L114.023064,323.971741C113.895699,323.95401,113.77478,323.981415,113.657089,324.053986C113.529724,324.134583,113.494263,324.234558,113.547462,324.352234L113.750595,324.568268L114.443848,325.001953L115.583679,325.679077L118.256721,325.543671L119.777031,325.556549C119.830238,325.521088,119.875381,325.448547,119.91246,325.340515C119.975334,325.187347,119.907623,325.100311,119.70771,325.082581L119.667404,325.082581zM124.268646,329.591919L123.670517,330.078796L123.657616,330.11911C124.905464,329.361359,126.470917,329.067932,128.352371,329.238831L128.758652,326.991425C128.532928,327.081696,128.149231,327.294525,127.605919,327.628235L126.533798,328.29248L124.268646,329.591919zM120.223618,316.457245C120.558952,316.810333,120.907196,317.003784,121.268326,317.039246C121.523056,317.058594,121.73909,316.99411,121.919655,316.850616C122.245323,316.597504,122.495216,316.250885,122.666107,315.807526C122.828941,315.393188,122.888596,314.986908,122.843452,314.588715L122.137306,314.846649L120.847534,315.293243L119.65451,315.604401L120.223618,316.457245zM117.049179,336.388977C117.16687,337.507843,117.382904,338.69928,117.700508,339.963257L117.958466,340.720978C118.066483,338.924988,118.427612,336.90329,119.04348,334.655853C118.337326,334.673584,117.682777,334.601044,117.076584,334.438202C116.986298,335.152405,116.976624,335.802124,117.049179,336.388977zM122.137306,355.222809C120.799171,353.101135,119.219208,351.932281,117.402252,351.716248C118.522736,352.311157,119.772194,353.579956,121.147408,355.521057C122.530685,357.487946,123.196526,358.945374,123.141708,359.893372C123.422234,359.46936,123.389992,358.671326,123.046593,357.49762C122.793472,356.630249,122.490379,355.872528,122.137306,355.222809zM123.059486,317.013458C124.081627,316.579773,124.950607,316.065491,125.664818,315.468964C126.488655,314.783783,126.841728,314.182434,126.724037,313.668121C126.624084,313.389221,125.476189,313.645569,123.277138,314.440369C123.385155,315.082031,123.227158,315.704346,122.803146,316.308929C122.919228,316.489502,123.006287,316.724884,123.059486,317.013458zM106.274788,332.123077L107.550049,330.946167C107.051872,329.619324,106.903549,328.440796,107.101852,327.412201C105.962021,327.899078,104.872169,328.548798,103.832291,329.361359C104.446548,329.496796,104.980186,329.840179,105.433212,330.389954C105.821762,330.868774,106.10228,331.445953,106.274788,332.123077zM113.547462,354.247406L113.873123,355.995056L114.26651,357.72818L114.26651,357.741058C114.682457,357.51535,115.167732,357.221924,115.719101,356.860809L117.129791,355.940216C116.750916,355.380798,116.45105,354.866516,116.235016,354.397339C115.258011,354.369934,114.348724,354.252258,113.507156,354.044281L113.547462,354.247406zM131.554214,325.814514L134.051529,325.975739L137.553238,326.13855C136.403732,325.769379,135.444473,325.29538,134.675446,324.716583C133.716187,323.994324,133.147079,323.160828,132.966507,322.21283L131.554214,325.814514zM117.129791,339.77301C116.388168,337.625549,115.493393,335.987549,114.443848,334.859009C113.529724,335.210449,112.565628,335.318481,111.553162,335.183044L111.470932,335.56192C112.069061,335.905334,112.517258,336.171326,112.815521,336.361572C114.842064,337.661011,116.302719,338.889526,117.197502,340.043854L117.129791,339.77301zM107.888611,330.904236L107.835403,331.013885C107.219543,331.726471,106.926117,332.498718,106.953529,333.32901C106.980934,334.186707,107.346909,334.921875,108.051437,335.536133C108.441597,335.877899,108.865608,336.131042,109.328308,336.293854C109.842606,336.474426,110.335938,336.524414,110.806709,336.4422L111.13237,335.102448C110.335938,334.921875,109.712021,334.601044,109.260597,334.141571C108.825302,333.707886,108.48674,333.211304,108.241684,332.651886C107.980507,332.027954,107.880547,331.433044,107.94342,330.863953L107.888611,330.904236zM122.924065,327.276794C123.304543,327.176819,123.530258,327.051086,123.602798,326.896301C123.449646,326.454559,122.666107,326.170807,121.255432,326.043457L118.622696,325.990234L115.543373,326.206268L114.511559,326.477112C113.923103,326.675415,113.719971,326.8302,113.900536,326.938232C114.334213,327.189728,114.859802,327.375122,115.474045,327.492828L115.543373,327.452515C117.677933,327.126831,119.830238,327.122009,122.001877,327.437988L122.924065,327.276794zM130.035507,325.975739C128.913422,325.759705,127.963829,325.456604,127.185127,325.069672L127.172234,325.109985L125.095703,328.806763L127.388268,327.560516L128.297546,327.031738C128.668365,326.815674,128.985962,326.667358,129.248749,326.585144L129.830765,326.572235L130.441788,326.627075L137.443604,326.802795L138.923615,326.802795L140.402008,326.720581C140.501968,326.712524,140.514862,326.685089,140.442322,326.639954L140.07634,326.464233L139.09935,325.949921L137.458115,325.082581C136.697159,324.603729,136.253799,324.139435,136.128052,323.688019L135.9104,324.107178L135.855591,324.189392C136.263474,324.668213,136.792282,325.087402,137.443604,325.448547C138.032074,325.782257,138.665665,326.040222,139.344406,326.220795C139.452423,326.246582,139.465317,326.306244,139.384705,326.396515C139.30249,326.486786,139.221878,326.531952,139.139648,326.531952L134.567429,326.436829C132.766602,326.373932,131.255951,326.220795,130.035507,325.975739zM119.409447,334.628448C118.650101,337.362762,118.301865,339.868134,118.364738,342.142944L118.364738,342.183258C118.509842,342.742706,118.604958,343.334381,118.650101,343.956696L118.975769,342.644348C119.627098,340.008392,120.233292,337.773865,120.794334,335.942383L121.350548,334.073853C120.862045,334.352753,120.215553,334.538177,119.409447,334.628448zM127.062599,336.687225L130.632034,336.687225L132.924591,333.775604L128.515198,333.693359L127.157722,336.537292L127.062599,336.687225zM118.514671,311.814087C118.24221,311.398132,117.981033,311.104706,117.727913,310.933838C115.193527,311.510986,113.163757,312.022064,111.633766,312.463806L111.009842,312.897491L111.906235,312.774963L110.956642,313.344086L111.973946,313.289276L111.07756,313.843872L112.014252,313.830963L111.092072,314.277557C112.512421,313.871277,113.737701,313.587524,114.769516,313.424683L119.04348,312.762085C118.916115,312.463806,118.740379,312.147827,118.514671,311.814087zM106.545639,318.40802C106.490829,317.984009,106.487602,317.482605,106.532745,316.905457L103.859703,317.026367C102.890762,317.1521,102.271683,317.38266,102.000824,317.7164C101.863785,317.879211,101.810585,318.037201,101.837997,318.190369C101.963745,318.957794,102.489326,319.549469,103.411507,319.965424C104.343369,320.379761,105.518661,320.550659,106.939018,320.479706C106.748779,319.820313,106.618187,319.13028,106.545639,318.40802zM105.568642,319.950897C105.415482,320.050873,104.99469,319.991211,104.306282,319.775177C103.55661,319.539795,103.031029,319.246368,102.732773,318.894897C102.424835,318.543457,102.371635,318.200043,102.569931,317.866333C102.750504,317.540649,102.958481,317.427795,103.193863,317.527771C103.311554,317.572906,103.351852,317.793762,103.316391,318.190369C103.271248,318.624054,103.334122,318.91748,103.506622,319.070648C103.677521,319.215729,104.117653,319.396301,104.822189,319.612335C105.40097,319.792908,105.650864,319.905762,105.568642,319.950897zM122.382362,358.809967C121.793907,357.555664,121.034554,356.328766,120.102699,355.127686L118.622696,353.367157L117.102379,354.816528C118.587219,357.713654,120.128494,359.456451,121.731026,360.043304C122.127632,360.186798,122.458138,360.231934,122.720924,360.178711C122.720924,360.069092,122.670944,359.825653,122.570992,359.446777L122.382362,358.809967zM122.056694,367.327271C123.304543,368.039856,124.150955,368.491272,124.594315,368.681519C125.651917,369.132935,126.574104,369.295776,127.362473,369.168396C127.896111,369.087799,128.049271,368.776642,127.823563,368.234924C127.651054,367.81897,127.375366,367.453003,126.994888,367.137024C126.245209,366.506653,125.408478,366.04071,124.48468,365.742462C124.286377,365.860138,123.996185,365.942383,123.61731,365.987518L122.775742,366.055237C121.165146,366.25354,119.96566,366.145508,119.178902,365.729553C119.224045,366.208374,119.396553,366.555023,119.694809,366.772644L120.671806,367.354675C121.223183,367.625519,121.568192,367.683563,121.703621,367.530396C121.848724,367.349823,121.964798,367.282104,122.056694,367.327271zM96.951385,354.234528L95.297264,353.557373L94.278351,353.110809C94.02523,353.86853,93.66893,354.811676,93.20623,355.940216L92.053497,358.72934L90.655716,362.398743L90.234932,363.522461C90.072098,364.046417,90.026955,364.438171,90.099503,364.700958C90.126907,364.781586,90.375191,364.528473,90.845955,363.94162L91.673019,362.88562L93.627014,359.812744L96.898186,354.28772L96.951385,354.234528zM132.287766,351.255157C132.839142,352.889923,133.808075,355.190552,135.19136,358.160248C136.060333,360.011047,136.739075,361.347565,137.22757,362.168182L138.027237,363.374115C138.35289,363.752991,138.525406,363.878754,138.543137,363.752991C138.588272,363.34671,138.5383,362.850159,138.393204,362.263306L137.959518,360.801025C137.561295,359.491913,137.105042,358.111877,136.589142,356.657654L135.367081,353.421967L134.201462,350.158844L132.287766,351.255157zM119.30143,313.100647L114.822716,313.803558C113.873123,313.948669,112.778442,314.192108,111.54026,314.535492L107.998245,315.564087C106.279625,316.088043,105.568642,316.366974,105.866898,316.404053C107.650002,316.592682,110.463303,316.457245,114.308426,315.997772C117.600555,315.599548,119.739952,315.248108,120.726624,314.941772L122.001877,314.495178C123.314217,314.043762,124.336357,313.713287,125.068298,313.506897L122.503281,313.276367L119.30143,313.100647zM129.505096,337.146729C128.800568,337.201538,128.266922,337.336975,127.904175,337.553009C127.588181,337.733551,127.665565,337.923798,128.13472,338.122101C128.487793,338.257538,128.790894,338.338135,129.044006,338.36554L130.496613,338.433258C131.120529,338.468719,131.39621,338.604156,131.323669,338.839539C131.243057,339.065247,130.930283,339.231293,130.38858,339.340942L128.948883,339.624695C128.487793,339.732697,128.081512,339.931,127.728447,340.219574C127.285088,340.590393,127.339905,340.88382,127.891281,341.099854C128.379776,341.2901,128.948883,341.370697,129.60022,341.34491C130.21608,341.317505,130.781967,341.199799,131.296265,340.991821C131.451035,340.928955,131.504242,340.964417,131.459091,341.099854C131.413956,341.227234,131.338181,341.312653,131.228546,341.357819L130.183838,341.548035L128.570023,341.588348C128.768311,341.930145,129.066574,342.170349,129.464798,342.305786L130.644928,342.373505C130.781967,342.3461,130.80777,342.400909,130.727158,342.536316C130.644928,342.671753,130.554642,342.747528,130.456299,342.765259L129.980698,342.820068C130.641708,343.298889,131.351074,343.334381,132.110428,342.928101C132.808517,342.558899,133.395355,341.92691,133.875793,341.032135C134.354614,340.129303,134.577103,339.228088,134.540024,338.325256C134.504547,337.322449,134.124069,336.546967,133.400192,335.995605L132.993912,336.605011C132.821411,336.821045,132.653732,336.970978,132.490906,337.051605L131.839569,337.13382L131.175339,337.091919L129.505096,337.146729zM108.772102,360.502777C108.662468,362.21817,108.680206,364.660675,108.825302,367.828644C108.888184,369.724609,108.99781,371.299744,109.15097,372.554016L109.300903,373.988892C109.39119,374.585419,109.54435,375.035217,109.761993,375.34314C109.87001,375.505981,109.947403,375.536621,109.992538,375.438293L110.127968,374.922363C110.245659,374.508026,110.350449,374.006653,110.440735,373.4198C110.611626,372.318665,110.784134,370.87088,110.956642,369.073273C111.290367,365.581238,111.462875,362.863037,111.470932,360.923553C110.56649,361.067047,109.666878,360.926788,108.772102,360.502777zM118.079376,346.354034L118.324432,345.310944L118.311539,345.310944C116.944382,345.438293,115.764244,346.141235,114.769516,347.422943C113.955353,348.488586,113.357224,349.788055,112.978348,351.322876L112.896126,351.445404L113.412033,353.570282L113.494263,353.570282C114.334213,353.813721,115.1903,353.963654,116.057671,354.016876C115.759407,353.251068,115.691696,352.604584,115.85453,352.080597C115.944817,351.783966,116.102814,351.593719,116.330132,351.513123L116.343033,351.485687C117.149132,350.366821,118.03907,349.238281,119.016068,348.100067L120.251022,346.692596C120.76693,346.141235,121.255432,345.73172,121.716522,345.460876C120.359039,345.784943,119.183739,346.110596,118.189011,346.434662C118.106781,346.45401,118.07132,346.426575,118.079376,346.354034zM113.181488,329.130829C113.289505,329.158234,113.349159,329.203369,113.357224,329.266235C113.439438,329.672516,113.054123,329.91275,112.204491,329.983673C111.354858,330.048157,110.861519,329.925629,110.726097,329.619324L110.711586,329.5242C110.738991,328.892212,110.992111,328.360168,111.470932,327.926514C110.693848,327.773346,109.960297,328.107056,109.273499,328.927673C108.612488,329.704773,108.328743,330.475403,108.419022,331.242798C108.544785,332.235931,108.89785,333.025909,109.476639,333.612762C110.408493,334.542999,111.680527,334.917023,113.289505,334.736481C113.940842,334.66391,114.516403,334.45755,115.012955,334.114166C115.646553,333.670807,115.741676,333.166168,115.298317,332.597076C114.892044,332.922729,114.3713,333.238739,113.737701,333.545044C113.592606,333.617584,113.547462,333.595032,113.602272,333.477325C113.665154,333.351593,113.742538,333.269348,113.832825,333.233887C114.709862,332.809875,115.288651,332.403595,115.569168,332.015045C115.777145,331.744202,115.809387,331.468536,115.664291,331.189606C115.538536,330.936493,115.320892,330.760773,115.012955,330.660797C114.542191,331.365326,113.823151,331.897369,112.85582,332.258514C112.702667,332.313324,112.64785,332.276245,112.692993,332.150482C112.738129,332.015045,112.815521,331.924774,112.923538,331.879639C113.502319,331.663605,114.000488,331.342773,114.416443,330.918762C114.959755,330.367371,115.08551,329.840179,114.796921,329.333954C114.642151,329.080841,114.416443,328.864807,114.118179,328.684235C113.782845,328.476257,113.479752,328.405334,113.208893,328.468201C112.747803,328.739044,112.660744,328.927673,112.950943,329.035706L113.181488,329.130829zM92.624222,337.607819C91.79071,337.30954,91.013626,337.174133,90.289749,337.201538L90.275238,337.201538C88.972565,337.462708,88.330917,338.107605,88.348648,339.137787C89.470749,339.714966,90.999115,340.314697,92.935379,340.938629C95.49556,341.759247,97.056183,342.278381,97.617233,342.494415L105.392914,345.351257L105.460625,345.243225C105.931389,344.60318,106.432785,344.051819,106.966431,343.592316C107.699982,342.942596,108.377106,342.57663,109.002647,342.494415L108.188477,342.102661C107.319504,343.023224,106.377975,343.627808,105.365509,343.916382C104.225677,344.242065,103.026184,344.156616,101.768661,343.660034C100.720734,343.236023,99.914627,342.742706,99.353577,342.183258C98.694183,341.515808,98.308868,340.698425,98.200851,339.732697C96.90625,339.434448,95.78093,339.05072,94.821663,338.581573C93.77211,338.085022,93.040176,337.760986,92.624222,337.607819zM113.615173,307.156433L112.896126,307.806152C112.036819,309.340973,111.330673,310.306671,110.779297,310.703278C110.390755,310.983795,110.05542,311.04184,109.774895,310.878998L109.476639,310.540436L111.566055,308.442963C110.896988,308.686401,110.142479,308.892761,109.300903,309.065277L108.772102,309.173309C107.830566,309.363525,106.853577,310.405029,105.839493,312.300964L106.207077,314.886963C107.509743,313.731018,108.875282,312.923279,110.305313,312.463806C111.588631,312.057526,113.940842,311.430389,117.360336,310.58075C117.460289,310.554962,117.365166,310.329254,117.076584,309.905243C116.804123,309.507019,116.583252,309.231323,116.410744,309.078186C115.831955,308.528412,115.511131,308.062469,115.448257,307.683624L115.311218,306.817871C115.24028,306.529266,115.125809,306.361603,114.972656,306.316467C114.792084,306.271332,114.569603,306.343872,114.308426,306.532501C114.153656,306.64212,113.923103,306.84848,113.615173,307.156433zM135.44931,337.0242C135.168777,336.230988,134.602905,335.657043,133.753265,335.305573L133.603333,335.494202C135.088181,336.479279,135.471878,337.999573,134.757675,340.05838C134.459412,340.906372,134.006378,341.656067,133.400192,342.305786C132.784332,342.973236,132.137833,343.389191,131.459091,343.550415L131.473602,343.660034C131.762192,344.769226,131.609024,346.010651,131.012512,347.382629C130.551422,348.448303,129.845276,349.544617,128.895676,350.673157C131.093124,349.807373,132.90686,348.907776,134.336884,347.979156C134.444901,347.906586,134.494888,347.906586,134.485214,347.979156C134.467468,348.051697,134.417496,348.114563,134.336884,348.167786C132.879456,349.098022,130.985107,350.023438,128.65062,350.944L127.863869,351.756561L127.87677,351.796844L127.836464,352.988281C130.451462,352.004822,132.568298,351.002045,134.186951,349.983124L134.186951,349.968628C134.432007,349.355957,134.53035,348.483765,134.485214,347.355225C134.432007,346.047729,134.454575,345.148102,134.552917,344.661224L134.98822,342.75238L135.408997,340.82901C135.562164,339.990662,135.652451,339.353821,135.679855,338.920135C135.716934,338.180145,135.639557,337.548157,135.44931,337.0242zM129.737259,338.825012L129.003693,338.784729L128.176636,338.676697C127.813889,338.604156,127.560776,338.483246,127.415672,338.31073L121.405365,338.13501L120.223618,343.848663C120.205879,343.948608,120.255859,343.988922,120.37355,343.971191L120.739517,343.916382L129.505096,343.171539L129.559906,343.171539L129.166534,342.820068L129.153641,342.69754C128.59259,342.516968,128.212112,342.160675,128.013809,341.628662L128.026703,341.533539C126.896545,341.36264,126.588615,340.933807,127.104523,340.247009C127.339905,339.931,127.683304,339.682739,128.13472,339.502167C128.442657,339.386078,128.858597,339.276428,129.384186,339.178101L129.722748,339.110382L129.737259,338.825012zM98.118629,352.772247L95.297264,351.648529C94.483101,351.305145,93.831764,350.993958,93.343262,350.71344C92.664528,350.324921,92.09864,349.892822,91.645615,349.414001C91.700424,349.875092,91.727829,350.339417,91.727829,350.808563C92.243744,351.440552,92.940216,352,93.817261,352.486877C94.423447,352.812561,95.252121,353.173676,96.300056,353.570282C98.634537,354.465057,100.277374,355.145416,101.226959,355.614563C103.461487,356.697968,105.305847,357.745911,106.76329,358.756744L108.717285,360.083618L108.797897,360.083618L108.797897,360.13681C109.712021,360.633362,110.553589,360.823608,111.322617,360.705933C112.362488,360.543091,113.52005,360.091675,114.796921,359.351654L117.958466,357.321899L118.026176,357.279968L117.224907,356.088562L116.031876,356.8479L113.845718,358.160248C112.968674,358.621338,112.177086,358.90509,111.470932,359.013092C110.729324,359.130798,110.00544,359.06308,109.300903,358.809967C108.722122,358.611664,108.074013,358.255371,107.359802,357.741058C105.297791,356.278809,103.158386,355.024506,100.941605,353.976563C100.21772,353.633179,99.277802,353.23172,98.118629,352.772247zM113.439438,327.384796C112.823578,327.483154,112.322182,327.686279,111.93364,327.994202C111.462875,328.355347,111.214592,328.814819,111.187187,329.374268L111.67569,329.483887C111.765968,329.067932,112.009415,328.719696,112.407631,328.440796C112.742966,328.197357,113.15892,328.029694,113.657089,327.939392L113.750595,327.953918L113.805412,328.034515L113.819923,328.115143L114.38903,328.277954C114.796921,328.485931,115.080673,328.764862,115.2435,329.11792C115.416008,329.487122,115.411171,329.870819,115.230606,330.269043C115.664291,330.34964,115.95932,330.570526,116.112488,330.931641C116.26564,331.30246,116.197929,331.658752,115.909348,332.002167L115.691696,332.245605L115.706207,332.258514C115.977058,332.592224,116.035095,332.985596,115.881943,333.437042L115.909348,333.437042C117.031441,334.059326,118.179337,334.322144,119.356247,334.222168C120.694382,334.104492,121.663315,333.517639,122.259834,332.461639C123.056259,331.054199,123.502846,329.388763,123.602798,327.465393C123.096573,327.799133,122.219528,328.011963,120.97007,328.102234L118.609795,328.129639L116.180199,328.06192C114.787247,327.953918,113.890862,327.723358,113.494263,327.3703L113.439438,327.384796zM122.219528,360.638214C121.060349,360.467316,119.935028,359.712799,118.84034,358.377899L119.178902,365.120148L119.193413,365.120148L119.830238,365.431305C120.662132,365.674744,121.553688,365.747284,122.503281,365.648956L124.146118,365.363586L124.362152,365.310394L124.634613,364.700958C125.431046,362.859833,126.027565,361.179901,126.425781,359.664429C126.977158,357.487946,127.289925,355.005157,127.362473,352.216034C126.158157,353.254303,124.594315,354.211945,122.666107,355.087372C123.272301,356.296539,123.647949,357.447632,123.793045,358.539124C123.991348,360.11908,123.467377,360.818787,122.219528,360.638214zM89.149918,327.018829C89.665817,328.408539,90.026955,330.006256,90.234932,331.81192C90.397766,333.183899,90.483208,334.82193,90.492889,336.727539C90.492889,336.772675,90.46064,336.817841,90.397766,336.862976C91.041031,336.843628,91.714935,336.938751,92.419472,337.146729C92.945053,337.30954,93.577034,337.565887,94.320267,337.918976C94.934517,338.217224,95.603584,338.496155,96.327461,338.757324C96.101753,336.988708,95.568115,335.044403,94.726547,332.922729L93.736649,330.783325C93.328758,329.925629,93.062744,329.193695,92.935379,328.589111C92.709671,326.775391,92.461388,325.430817,92.188927,324.555359C91.710098,322.993134,90.81855,322.122559,89.515884,321.941986C88.348648,321.779144,87.887558,322.419189,88.132614,323.863739C88.213219,324.352234,88.551781,325.403381,89.149918,327.018829zM109.884521,342.57663C109.937729,342.604034,109.942566,342.64917,109.897423,342.712067C110.548752,343.31665,111.042091,344.174316,111.377426,345.283539C111.575729,345.934875,111.815948,346.953796,112.096474,348.345123L112.747803,350.863403C113.208893,349.391449,113.87796,348.145203,114.755005,347.126282C115.769081,345.942932,116.936325,345.238403,118.256721,345.014282C118.229309,344.001831,118.106781,343.118347,117.890747,342.358978C117.004036,340.013214,114.822716,337.909302,111.350021,336.050415C110.706749,338.405853,109.7491,340.31955,108.472229,341.791504L108.907524,341.994629L109.694283,342.52182L109.884521,342.57663zM112.272202,343.998596C113.692558,343.482697,114.588943,343.186035,114.959755,343.103821C115.989952,342.870056,116.91375,342.892639,117.727913,343.171539C117.808525,343.198944,117.800461,343.266663,117.700508,343.374695L117.497368,343.537506C117.234581,343.637482,116.799286,343.700348,116.194702,343.727753C115.633659,343.763214,115.193527,343.853516,114.877533,343.998596C113.665154,344.575775,112.80101,345.356079,112.285103,346.341156L112.00135,346.544281C111.846581,346.589417,111.801437,346.552338,111.865929,346.434662C112.354431,345.514069,113.118614,344.733765,114.158485,344.092102C114.72921,343.750336,115.230606,343.519775,115.664291,343.4021L116.24791,343.334381C115.65139,343.298889,114.967819,343.397247,114.198792,343.632629L112.191597,344.337158C112.036819,344.390381,111.986839,344.359741,112.041656,344.242065C112.096474,344.114685,112.172249,344.034058,112.272202,343.998596zM105.799187,347.437439C106.116791,348.619202,106.658493,350.036316,107.427521,351.688843L109.123558,355.087372C109.739426,356.414215,110.142479,357.610474,110.3311,358.67453L110.290802,358.78418C110.653549,358.847046,110.996948,358.851868,111.322617,358.797058C112.127106,358.679382,112.991249,358.385956,113.913437,357.916809L113.900536,357.9039L113.507156,356.170776C113.379791,355.393677,113.276611,354.811676,113.194389,354.423157L112.543053,351.716248L111.865929,349.02063C111.585403,347.540619,111.340347,346.431427,111.13237,345.689819C110.761566,344.400055,110.215027,343.447235,109.49115,342.832977C108.893013,342.69754,108.111099,342.995819,107.143768,343.727753C106.174835,344.450012,105.663757,345.11264,105.608948,345.717224C105.55574,346.186371,105.618622,346.760315,105.799187,347.437439zM122.395256,345.486664C121.906761,345.641449,121.382797,345.988068,120.821747,346.529785L119.531975,347.951721C118.772629,348.809448,117.976196,349.792877,117.144295,350.903687L116.871834,351.282562L117.034668,351.282562L117.958466,351.363159C118.762955,351.526001,119.481995,351.809753,120.115593,352.216034C120.712112,352.614258,121.273163,353.146271,121.798744,353.813721L122.272736,354.397339C122.462975,354.668213,122.508118,354.826202,122.408157,354.871338L123.657616,354.274811L125.611618,353.205933C126.30809,352.780304,126.896545,352.338562,127.375366,351.877472C127.402779,351.761383,127.483383,351.68399,127.618813,351.648529L127.781647,351.485687C128.840866,350.357147,129.655029,349.265686,130.225754,348.209686C130.993164,346.800629,131.288193,345.523743,131.107635,344.377472L131.093124,344.377472C128.297546,344.395203,125.476189,344.693481,122.625809,345.27063C122.580666,345.388336,122.503281,345.460876,122.395256,345.486664zM98.70224,339.705292C98.882813,340.716156,99.371315,341.556122,100.167747,342.223572C100.88356,342.829742,101.78801,343.253754,102.882706,343.497192C104.827026,343.948608,106.527908,343.406921,107.983734,341.872101C109.160645,340.653259,110.074768,338.942719,110.726097,336.740448L108.920425,336.645325C108.306168,336.438965,107.798325,336.103607,107.400116,335.644135C106.86647,335.02182,106.577881,334.357605,106.532745,333.653076C106.487602,332.975952,106.673004,332.308472,107.088959,331.649078L106.327988,332.366516L106.369904,332.584167C106.38765,332.664795,106.319931,332.750214,106.165161,332.840515L105.921715,332.855011L105.908813,332.800201C104.025757,334.750977,102.977829,336.532471,102.760178,338.149506C102.750504,338.220459,102.674728,338.297852,102.529633,338.378448C102.374855,338.460663,102.303925,338.473572,102.311981,338.420349C102.411942,337.625549,102.705353,336.795258,103.193863,335.927887C102.479645,336.351898,102.049194,336.790436,101.905701,337.241852L101.63324,337.457886C101.480087,337.530426,101.420433,337.520752,101.457504,337.430481C101.665482,336.780762,102.307144,336.148773,103.384102,335.536133L103.424408,335.508728C104.012863,334.578461,104.822189,333.590179,105.854004,332.543854C105.708908,331.857056,105.438049,331.265381,105.039841,330.768829C104.596481,330.201324,104.057999,329.848267,103.424408,329.71283L103.397003,329.699921C102.239433,330.647919,101.285004,331.69101,100.535324,332.827606C99.837242,333.901337,99.322952,334.999268,98.98761,336.118134C98.599068,337.417572,98.503944,338.613831,98.70224,339.705292zM110.263397,316.837738L110.318207,316.878052L110.426224,317.013458C110.471367,317.111816,110.431061,317.189209,110.305313,317.242401C109.761993,317.487457,109.30574,317.748627,108.934937,318.029144C108.165909,318.641785,107.745117,319.368896,107.672577,320.208862C108.043381,319.539795,108.459335,318.985199,108.920425,318.543457C109.516937,318.029144,109.911926,317.743805,110.100555,317.690582L110.195679,317.690582C110.285965,317.698639,110.340775,317.738953,110.358513,317.811493C110.377861,317.884064,110.345612,317.938873,110.263397,317.974335C109.857117,318.217773,109.481476,318.488647,109.138069,318.786896C108.694717,319.138367,108.206215,319.74292,107.672577,320.600616L107.699982,320.9263L108.201378,320.168549C108.472229,319.815491,108.739853,319.531738,109.002647,319.314087C109.39119,319.007751,109.712021,318.817535,109.965134,318.746582L110.019951,318.746582C110.110229,318.754639,110.150543,318.809448,110.142479,318.907806C110.132805,319.007751,110.065094,319.088379,109.937729,319.152863C109.631409,319.296356,109.39119,319.441437,109.218681,319.58493L108.296494,320.532898L107.740288,321.197144L107.740288,321.210052C107.767693,321.300323,107.762863,321.385773,107.725777,321.467987L108.201378,321.413177L108.120766,321.588898C107.432358,322.012909,107.20665,322.604614,107.442032,323.363953C107.677414,324.11203,108.178802,324.523132,108.94783,324.595673L109.165482,324.595673C109.662033,325.7323,110.305313,326.707672,111.092072,327.520233L111.93364,327.573425C112.357651,327.312256,112.805847,327.131683,113.276611,327.031738L113.276611,327.018829L113.2621,326.896301C113.271774,326.382019,113.819923,326.012817,114.904938,325.787109L113.900536,325.055145L113.494263,324.703705L113.384628,324.663391C113.258873,324.663391,113.15892,324.703705,113.086365,324.784302L113.018654,325.393738L112.896126,325.475952C112.85099,325.466278,112.823578,325.421143,112.815521,325.340515L112.680092,324.094269L112.733292,323.863739L112.910637,323.700897L114.348724,322.875458L114.443848,322.848053C114.506729,322.867401,114.511559,322.915771,114.456741,322.997986L114.253609,323.404266C114.21653,323.467133,114.231033,323.544525,114.293915,323.633179L114.484154,323.796021L115.488556,324.257111C116.230179,324.57312,116.786385,324.766571,117.157196,324.839111L117.537674,324.893921L119.667404,324.826233C119.739952,324.826233,119.807663,324.798828,119.870544,324.743988C119.925354,324.681122,119.952759,324.613403,119.952759,324.540863L119.96566,324.352234L120.033371,324.229706L120.128494,324.310303L120.576691,324.961639C120.621826,325.024536,120.639565,325.097076,120.6315,325.177673L120.549278,325.393738L120.413857,325.583954L121.200607,325.651672C121.889023,324.134583,122.151817,322.564301,121.988983,320.939178C121.861618,319.784851,121.503708,318.58374,120.916862,317.337524C120.571854,317.247223,120.233292,317.036041,119.897949,316.702301L119.246613,315.686615C117.582817,316.038086,115.981895,316.313751,114.443848,316.512054C114.67923,316.845795,114.764679,317.04892,114.701797,317.12149L114.429337,317.216614L113.900536,317.377808L113.304016,317.648682L112.883232,317.798615L112.868721,317.798615C112.815521,317.51001,113.118614,317.106964,113.778008,316.592682L110.385918,316.837738L110.263397,316.837738zM109.761993,320.831177C109.834549,320.840851,109.879684,320.885986,109.897423,320.966583C109.915154,321.047211,109.889359,321.106873,109.816811,321.142334L109.626572,321.27774L109.396027,321.548615C109.376678,321.656616,109.318634,321.701752,109.218681,321.684021C109.10099,321.66629,109.055847,321.588898,109.083252,321.453491L109.328308,321.074615C109.445999,320.976257,109.56369,320.898895,109.679771,320.844055L109.761993,320.831177zM109.842606,319.802582L109.884521,319.802582C109.957077,319.810638,110.00544,319.855774,110.032845,319.938019C110.052193,320.018616,110.002213,320.091156,109.884521,320.154053L109.829712,320.181458L109.328308,320.452301L108.934937,320.818268C108.772102,320.979492,108.667305,321.056885,108.622162,321.047211L108.581863,320.979492L108.74469,320.628021L109.138069,320.208862C109.354111,320.000885,109.589493,319.865448,109.842606,319.802582zM119.65451,317.161774L120.6315,317.906616L120.726624,318.029144L120.591202,318.069458L120.563789,318.069458L119.491669,317.919525L119.274025,317.798615L119.233719,317.555176L119.314331,317.284302C119.341736,317.148895,119.409447,317.089233,119.519081,317.106964L119.65451,317.161774zM120.278427,319.667145C120.368713,319.847717,120.405792,320.063751,120.386444,320.316864C120.368713,320.570007,120.30584,320.781189,120.196205,320.953705C120.088188,321.134277,119.96566,321.214874,119.830238,321.197144L119.817337,321.197144C119.681915,321.187469,119.572281,321.092346,119.491669,320.911774C119.409447,320.723145,119.378815,320.502289,119.396553,320.249176C119.414284,319.996063,119.473938,319.784851,119.572281,319.612335C119.681915,319.441437,119.807663,319.359222,119.952759,319.368896C120.088188,319.386627,120.196205,319.486603,120.278427,319.667145zM114.240707,318.799805L114.253609,318.799805C114.38903,318.817535,114.497055,318.91748,114.579277,319.098053C114.659882,319.2883,114.692131,319.504333,114.674393,319.747772C114.664719,320.010559,114.606682,320.226593,114.497055,320.397491C114.38903,320.570007,114.263283,320.650604,114.118179,320.64093C113.982758,320.632874,113.873123,320.532898,113.792519,320.344299C113.710297,320.163727,113.67482,319.942841,113.682884,319.680054C113.702232,319.426941,113.765106,319.215729,113.873123,319.043243C113.982758,318.872345,114.103668,318.791718,114.240707,318.799805zM116.926651,319.206055L117.008873,319.125458L117.021767,319.125458C117.121727,319.143188,117.194275,319.223816,117.239418,319.368896L117.37484,319.762268L117.673103,320.505493L118.609795,322.022583C118.708138,322.167694,118.700073,322.311188,118.58239,322.456268L117.903648,323.281738C117.813362,323.372009,117.685997,323.417145,117.523163,323.417145L117.239418,323.309143L117.11689,323.186615C117.099152,323.133392,117.11689,323.078583,117.171707,323.025391L117.727913,322.401459C117.845612,322.248291,117.868179,322.095154,117.795631,321.941986L117.334534,320.818268L117.021767,319.855774L116.91375,319.396301L116.926651,319.206055zM129.166534,326.951111L128.732849,329.306549C128.723175,329.379089,128.668365,329.45166,128.570023,329.5242L128.312057,329.619324C127.452759,329.509705,126.641815,329.501617,125.882469,329.591919C124.960281,329.699921,124.196098,329.953033,123.589905,330.34964C123.209427,331.641022,122.630646,332.742157,121.851944,333.653076L120.591202,337.931854C119.875381,340.49527,119.193413,343.198944,118.542084,346.042877L119.083786,345.880066L120.862045,345.393158C122.861191,344.904663,124.499191,344.588684,125.774445,344.44519L131.025406,344.011505L131.012512,343.618134C130.577209,343.645538,130.156433,343.537506,129.750153,343.294067L129.682434,343.321472L120.007584,344.134033L119.96566,344.119507L121.22802,338.107605L121.323143,338.014099L121.43116,337.959259L127.307655,338.122101L127.280251,337.823853C127.317329,337.407898,127.791321,337.114471,128.705444,336.943573L128.921478,336.90329L126.886871,336.90329C126.786911,336.90329,126.764343,336.858124,126.81916,336.767853L128.352371,333.557953L128.432983,333.490234L128.487793,333.464447L133.169647,333.557953L133.250259,333.625671L133.209946,333.720764L131.907288,335.3862C131.501007,336.018188,131.170502,336.456696,130.917389,336.700134L132.382889,336.687225L132.789169,336.185852L135.096237,333.246796L138.448013,329.130829L140.293991,327.059143L137.200165,327.249359L134.091827,327.113953L129.166534,326.951111zM127.267349,332.990448L125.679329,336.821045L125.529388,336.943573L122.775742,337.038696L122.720924,336.983887L122.788635,336.875854L122.870865,336.835571L125.501984,336.740448L125.516495,336.713043L126.914276,333.32901L126.994888,333.138763L127.062599,333.09845L123.901062,332.963043L122.545197,336.25354C122.525848,336.326111,122.467804,336.361572,122.367851,336.361572L122.327545,336.280975L123.725327,332.86792C123.770477,332.777649,123.828514,332.742157,123.901062,332.759888L127.225433,332.895325C127.270576,332.895325,127.285088,332.927582,127.267349,332.990448zM137.959518,328.576233L137.932114,328.684235L134.893097,332.069885C134.712524,332.276245,134.42717,332.385864,134.03862,332.393921L133.047119,332.340729L124.131607,332.298798L124.063896,332.258514L124.063896,332.163391L124.89257,330.675323C124.919975,330.61084,124.968346,330.585022,125.040894,330.593079C125.113441,330.602753,125.13118,330.643066,125.095703,330.715607L124.349258,332.069885L134.336884,332.123077L134.580322,332.137573L134.648041,332.055359L137.620956,328.739044L129.574417,328.548798L129.492203,328.453705C129.537338,328.363403,129.592163,328.32309,129.655029,328.332764L137.878906,328.521393C137.924042,328.521393,137.949844,328.539124,137.959518,328.576233zM89.719025,342.832977C90.71537,344.864349,91.339294,346.877991,91.592407,348.872314L91.714935,348.872314C92.229233,349.513977,92.925705,350.07663,93.804359,350.565125C94.410553,350.898865,95.242447,351.264832,96.300056,351.661438C98.634537,352.554596,100.277374,353.236572,101.226959,353.705719C103.461487,354.789124,105.305847,355.837036,106.76329,356.8479L108.269089,357.9039C108.884956,358.300507,109.44117,358.566528,109.937729,358.701935C109.694283,357.402496,109.083252,355.782227,108.106262,353.841125C106.903549,351.430878,106.169998,349.847687,105.908813,349.088348L105.350998,347.464844C105.152695,346.723236,105.117218,346.128326,105.242973,345.67691C101.570358,344.377472,98.829613,343.366608,97.020721,342.644348C96.31456,342.363831,94.861969,341.881775,92.664528,341.194977C90.845955,340.617798,89.420761,340.080933,88.388954,339.584381C88.461502,340.035797,88.643677,340.585571,88.932266,341.235291L89.719025,342.832977zM93.00309,326.896301C93.130463,327.683044,93.365837,328.521393,93.709236,329.416168L94.726547,331.852234C95.84864,334.596191,96.535439,336.948425,96.788559,338.907257L98.173447,339.313538L98.173447,339.273224C98.13797,338.089874,98.313705,336.898438,98.70224,335.697357C99.082733,334.497864,99.634109,333.424133,100.357986,332.476135C101.488144,330.994537,102.805313,329.717651,104.306282,328.643921C105.9991,327.434784,107.680634,326.672211,109.354111,326.356201C109.002647,325.87738,108.717285,325.421143,108.499634,324.987457L108.364212,324.974548C107.66774,324.911682,107.151825,324.465088,106.8181,323.633179C106.473091,322.7771,106.590782,322.072571,107.169571,321.52121L107.359802,321.495392L107.211487,321.27774L107.048645,320.87149C105.899139,320.953705,104.8899,320.866638,104.022537,320.615143C103.261574,320.389435,102.65538,320.046021,102.203964,319.58493L95.934082,320.302368C93.691505,320.637695,91.642387,321.066559,89.786736,321.588898C90.828224,321.716278,91.61982,322.370819,92.161514,323.552582C92.479126,324.257111,92.759644,325.371155,93.00309,326.896301z"/>
</svg>
