<?xml version="1.0" encoding="UTF-8"?>
<svg xmlns="http://www.w3.org/2000/svg" xmlns:xlink="http://www.w3.org/1999/xlink" width="54.288mm" height="70.897mm" viewBox="-210.837677 385.654541 54.287506 70.897003">
    <path transform="matrix(-1,0,0,1,0,0)" style="stroke:none;fill:#000000;fill-rule:evenodd" d="M162.444397,433.26889L162.412964,433.249756L162.107056,433.056976L162.075073,433.036133L161.786865,432.836761L161.753754,432.812469L161.483246,432.606262L161.448975,432.578827L161.196198,432.365753L161.162201,432.335754L160.927124,432.116119L160.892303,432.081543L160.675201,431.855042L160.641235,431.817627L160.441864,431.584564L160.386719,431.513153L160.339325,431.43631L160.299622,431.355194L160.268463,431.27066L160.245911,431.183258L160.22934,431.057587L160.147095,429.663147L160.146515,429.572876L160.154785,429.48291L160.161926,429.446625L160.133667,429.380951L160.106537,429.294678L160.087952,429.204132L159.975128,428.460083L159.83374,427.742859L159.659821,427.024811L159.451874,426.303314L159.211945,425.583801L158.940033,424.868042L158.632965,424.147095L158.288513,423.418182L157.517303,421.830963L157.500763,421.795258L157.298248,421.326813L157.280823,421.283417L157.120575,420.852112L157.102295,420.797272L156.984344,420.403107L156.966339,420.332275L156.890656,419.97522L156.876373,419.886108L156.871216,419.796143L156.875214,419.705872L156.883789,419.647339L156.869812,419.609344L156.847504,419.521942L156.833801,419.432831L156.829529,419.34256L156.832367,419.271454L156.862366,418.904144L156.874359,418.814728L156.891205,418.741028L156.982056,418.409698L157.010315,418.324036L157.048035,418.239197L157.199127,417.943848L157.244263,417.865875L157.301666,417.787323L157.513031,417.527679L157.573303,417.460571L157.637268,417.402588L157.908905,417.17865L157.981171,417.124664L158.03717,417.090393L158.369049,416.90274L158.485596,416.847626L158.877747,416.695648L158.978577,416.663391L158.987152,416.661102L158.98114,416.242645L158.964874,415.579712L158.940887,414.927917L158.911163,414.323517L158.874603,413.736267L158.831482,413.176727L158.780365,412.629456L158.726105,412.139618L158.641815,411.482391L158.545868,410.859711L158.435608,410.252747L158.31308,409.674377L158.17511,409.107117L158.026886,408.570709L157.863495,408.048004L157.682678,407.53302L157.474762,406.965759L157.472198,406.959473L157.283966,406.433624L157.280823,406.4245L157.117157,405.951202L157.113434,405.940369L156.97406,405.519928L156.969757,405.5065L156.85437,405.138885L156.848663,405.119751L156.757538,404.804993L156.749847,404.776703L156.683289,404.514801L156.673859,404.473083L156.631287,404.264008L156.622437,404.21344L156.584747,403.952393L156.579041,403.902405L156.557892,403.659912L156.554749,403.600769L156.550171,403.377411L156.551331,403.306885L156.563324,403.102081L156.572174,403.018677L156.600739,402.833008L156.621307,402.736176L156.666443,402.569092L156.703857,402.459137L156.765533,402.310883L156.825806,402.192078L156.904083,402.062683L156.95462,401.987854L156.989746,401.944427L157.084595,401.833618L157.146576,401.767914L157.195404,401.724792L157.306793,401.633087L157.379059,401.579407L157.43219,401.546539L157.56015,401.473724L157.640717,401.433167L157.687836,401.414032L157.832367,401.359741L157.954315,401.323761L158.115417,401.28833L158.224243,401.27121L158.402191,401.254639L158.487305,401.251221L158.520721,401.210938L158.584991,401.147827L158.655548,401.091248L158.731232,401.042419L158.811493,401.001282L158.895752,400.968445L158.942871,400.954163L159.648376,400.762207L159.663818,400.758209L160.387573,400.575134L160.40271,400.571411L161.145081,400.397461L161.159637,400.394318L161.919983,400.229523L161.933411,400.226654L162.712036,400.070435L162.725433,400.067871L163.522064,399.920746L163.534912,399.918488L164.349823,399.780243L164.361816,399.778229L165.194977,399.64856L165.230682,399.643707L170.475372,399.043304L170.469391,399.028168L170.430542,398.90506L170.363983,398.626007L170.347412,398.53717L170.339691,398.417206L170.339996,398.29126L170.344849,398.200989L170.361969,398.095886L170.389404,397.975067L170.413971,397.888245L170.451385,397.794556L170.505646,397.678589L170.547913,397.598907L170.591614,397.532928L170.672455,397.421509L170.729004,397.351257L170.765869,397.312408L170.886963,397.192169L170.954071,397.131897L170.99408,397.101318L171.147156,396.991089L171.241699,396.931671L171.426788,396.830841L171.507904,396.791992L171.724701,396.700867L171.793274,396.675171L172.041748,396.594055L172.098022,396.577789L172.378784,396.506073L172.425079,396.495514L172.737549,396.433258L172.777252,396.426392L173.121704,396.37384L173.215973,396.36441L174.367615,396.312439L174.388763,396.251587L174.427032,396.169891L174.473297,396.092499L174.527008,396.019958L174.574127,395.967102L174.599823,395.940552L174.665802,395.87912L174.750061,395.816284L174.7995,395.783722L174.819489,395.772034L174.808899,395.706329L174.79892,395.616638L174.79834,395.526367L174.800903,395.496948L174.767487,395.414978L174.741791,395.32843L174.72522,395.240173L174.370483,392.655548L174.362762,392.565857L174.364197,392.475586L174.374481,392.385895L174.394196,392.297943L174.422455,392.21225L174.472717,392.104279L174.662659,391.759521L174.672943,391.741547L174.86203,391.416473L174.874329,391.395935L175.062836,391.090881L175.076263,391.070007L175.263641,390.784973L175.279327,390.761841L175.465851,390.49649L175.484131,390.471344L175.6698,390.225983L175.691803,390.197998L175.876587,389.972931L175.901428,389.944092L176.085388,389.738708L176.115082,389.707001L176.298187,389.521637L176.333008,389.48822L176.514954,389.322845L176.556946,389.28714L176.738342,389.141754L176.78717,389.105194L176.967682,388.979797L177.024536,388.943512L177.204193,388.83783L177.271301,388.801849L177.449829,388.716461L177.526947,388.683899L177.704895,388.618469L177.792297,388.591644L177.969391,388.546509L178.011383,388.536804L178.528931,388.431122L179.137024,388.297729L179.677734,388.15976L180.206116,388.004089L180.703979,387.835571L180.790802,387.811005L180.879639,387.795319L180.96991,387.788727L181.059875,387.79129L181.149567,387.802734L181.237244,387.823303L181.322662,387.852722L181.375763,387.877289L181.536865,387.598511L181.585999,387.522827L181.642273,387.452271L181.717377,387.377441L182.432587,386.743896L182.638519,386.540253L182.667389,386.512848L182.874756,386.32547L182.913605,386.292328L183.105255,386.138092L183.158081,386.098969L183.334045,385.97757L183.411163,385.929871L183.571381,385.841888L183.681366,385.791046L183.825897,385.735657L183.91156,385.707642L183.992981,385.689667L184.121796,385.667389L184.211487,385.65625L184.301727,385.654541L184.358856,385.658234L184.471985,385.669098L184.561371,385.68222L184.648773,385.704498L184.733612,385.735352L184.797028,385.765076L184.906128,385.821625L184.9841,385.867035L185.056946,385.920441L185.146912,386.00412L185.24231,386.10611L185.300568,386.174927L185.371429,386.283478L185.453094,386.431152L185.492798,386.512268L185.513367,386.565094L185.581909,386.758759L185.607635,386.845306L185.622498,386.918701L185.753021,387.752747L185.768433,387.82074L185.789581,387.877289L185.832428,387.961823L185.900391,388.068939L185.991791,388.190887L186.113464,388.332581L186.265717,388.490234L186.452515,388.666473L186.468811,388.68219L186.607605,388.819855L186.656738,388.872681L186.814117,389.056335L186.844116,389.093201L187.020355,389.32254L187.040039,389.349396L187.235138,389.623901L187.257996,389.657593L187.354523,389.807556L187.368225,389.829529L187.447357,389.960632L187.465912,389.99292L187.527618,390.105469L187.552185,390.154022L187.596466,390.247986L187.628723,390.325104L187.655853,390.400238L187.666992,390.436798L187.710144,390.467926L187.902649,390.619019L187.984344,390.691559L188.179993,390.888367L188.237396,390.951782L188.436188,391.194275L188.477325,391.24884L188.678711,391.537018L188.696106,391.562744L188.856079,391.809509L188.879486,391.847778L189.018585,392.088013L189.041443,392.13028L189.160278,392.363617L189.183411,392.412476L189.206543,392.465881L191.993408,392.618134L192.025116,392.620422L194.578888,392.850922L194.66803,392.86377L194.755707,392.885193L194.84082,392.915741L194.922241,392.95459L194.999359,393.001434L195.027344,393.022583L195.046478,393.018005L195.249847,392.976013L195.283844,392.969727L195.462341,392.940033L195.509766,392.933441L195.663422,392.916321L195.728546,392.911469L195.857361,392.906616L195.954773,392.908325L196.058441,392.915741L196.148132,392.926605L196.213257,392.940582L196.292389,392.960602L196.378632,392.987152L196.461761,393.022278L196.529449,393.058563L196.58371,393.090851L196.658844,393.140808L196.728546,393.198242L196.792236,393.262512L196.872192,393.365906L196.901611,393.410461L196.947327,393.488159L196.985016,393.570129L197.014435,393.655518L197.035004,393.7435L197.043304,393.799774L197.065582,393.993408L197.071289,394.083679L197.066437,394.189087L197.045013,394.391571L197.031006,394.480713L197.010437,394.560089L196.945313,394.771759L196.91449,394.856598L196.892487,394.904572L196.783661,395.124786L196.726532,395.223907L196.574005,395.452972L196.519745,395.526093L196.323242,395.764313L196.274384,395.818878L196.03418,396.065643L195.991608,396.106201L195.707703,396.361847L195.652008,396.408386L195.086182,396.839996L195.027344,396.881104L194.403534,397.28186L194.34726,397.315277L193.665741,397.685425L193.612915,397.711731L192.931122,398.02533L192.914825,398.176422L192.900543,398.266113L192.857147,398.469788L192.83371,398.556885L192.818878,398.599457L192.752045,398.77597L192.710602,398.86908L192.604645,399.074432L192.569519,399.136414L192.424133,399.370361L192.396149,399.412354L192.211334,399.67511L192.15564,399.746246L192.093384,399.811371L192.089386,399.814789L192.105072,399.890778L192.105652,399.896484L192.108215,399.906769L192.175629,400.217529L192.181061,400.244659L192.233032,400.526276L192.23877,400.559723L192.275604,400.8125L192.280731,400.857056L192.30188,401.080688L192.303894,401.104401L192.345001,401.710785L192.347015,401.769348L192.348145,402.3703L192.346436,402.429413L192.307892,403.025543L192.30188,403.08551L192.223328,403.676483L192.213348,403.73587L192.094788,404.321716L192.081085,404.3797L191.922577,404.960663L191.905426,405.016083L191.738037,405.502502L191.769745,405.507629L191.82373,405.517914L192.204773,405.602448L192.273895,405.620728L192.596924,405.720154L192.687469,405.753571L192.951965,405.867523L193.07193,405.930084L193.278442,406.059174L193.352417,406.11087L193.424957,406.173706L193.573486,406.317108L193.635193,406.383087L193.689758,406.454773L193.729462,406.518463L193.819427,406.677002L193.859985,406.757813L193.892242,406.842072L193.91568,406.929199L193.930237,407.018311L193.935669,407.108276L193.931946,407.198547L193.919098,407.287933L193.8974,407.375336L193.888245,407.401062L193.903107,407.445618L193.922821,407.533875L193.933685,407.62326L193.933105,407.751221L193.889099,408.338501L195.828796,404.89325L195.868805,404.828705L195.89621,404.788422L195.950775,404.716736L196.012177,404.650452L196.08017,404.591064L196.153564,404.538788L196.232117,404.494232L196.314667,404.457672L196.40036,404.429688L196.488617,404.410522L196.578308,404.400543L196.668549,404.399384L196.75824,404.407684L196.846771,404.424805L196.933319,404.450806L196.99588,404.475952L197.580566,404.73645L198.200653,404.95752L198.895294,405.153442L199.660217,405.32196L200.110931,405.404816L200.288605,405.4328L201.592773,402.110962L201.629913,402.028687L201.675323,401.950714L201.728149,401.877594L201.788147,401.810486L201.854675,401.749359L201.927246,401.695648L202.004639,401.649384L202.086334,401.611115L202.171722,401.58139L202.25943,401.560547L202.348816,401.548553L202.439087,401.54541L202.529053,401.551697L202.617889,401.567108L202.705017,401.5914L202.788971,401.624237L202.869232,401.665375L202.944916,401.714508L203.015198,401.771057L203.079468,401.834473L203.099731,401.859039L203.339386,401.537689L203.39679,401.468292L203.46106,401.404877L203.531311,401.348328L203.607025,401.299194L203.687286,401.258057L203.771545,401.22522L203.858368,401.200928L203.947205,401.185516L204.03717,401.17923L204.127441,401.182098L204.216827,401.194092L204.30481,401.21521L204.389923,401.244934L204.471619,401.283203L204.549011,401.329468L204.621552,401.383179L204.68811,401.444L204.748383,401.511414L204.801208,401.584534L204.846649,401.662506L204.883759,401.744781L204.912323,401.83017L204.932312,401.918152L204.944885,402.035248L204.96347,402.502258L205.030853,402.883301L205.109985,403.124359L205.115417,403.034088L205.125397,402.944397L205.133972,402.898987L205.167114,402.745331L205.204254,402.61908L205.261658,402.466553L205.311066,402.358032L205.392761,402.20636L205.447021,402.118103L205.552704,401.96698L205.609558,401.894165L205.739502,401.744202L205.793793,401.687073L205.948029,401.537994L206.013428,401.48056L206.316467,401.240082L206.419586,401.169525L206.728912,400.988159L206.809174,400.946442L206.857452,400.925873L207.17337,400.803345L207.259033,400.775085L207.324463,400.759644L208.067932,400.613983L208.157349,400.601135L208.247314,400.597412L208.337585,400.602844L208.426392,400.617126L208.513794,400.640533L208.598083,400.672821L208.678619,400.713104L208.754883,400.761658L208.825714,400.817352L208.890564,400.880188L208.948822,400.949005L208.999664,401.02356L209.042786,401.102966L209.077911,401.186096L209.104187,401.272339L209.121613,401.360901L209.129913,401.450867L209.129333,401.541138L209.119324,401.630798L209.100494,401.719055L209.073059,401.804749L209.036804,401.887604L208.992249,401.966125L208.946259,402.03183L207.137939,404.386536L207.145081,404.391968L207.362457,404.53537L209.945953,405.894379L209.961945,405.902954L210.048187,405.950653L210.258148,406.043182L210.338684,406.08374L210.414673,406.132294L210.485504,406.188293L210.528625,406.228546L210.55603,406.255981L210.6026,406.306244L210.623169,406.330231L210.678284,406.401642L210.725983,406.47818L210.765686,406.559326L210.796814,406.64386L210.819672,406.731262L210.833099,406.820374L210.837677,406.910645L210.833099,407.00061L210.819397,407.089996L210.796814,407.177124L210.765411,407.261963L210.725708,407.342804L210.678009,407.419342L210.630035,407.481598L210.611755,407.550446L210.580048,407.634705L210.539764,407.715546L210.491486,407.791809L210.427795,407.87207L208.58493,409.934845L207.11853,411.646332L205.690948,413.380951L204.326233,415.108429L204.557587,415.274658L204.63327,415.33551L204.860352,415.539429L204.930603,415.609985L205.131409,415.835632L205.19339,415.91391L205.36792,416.16095L205.419891,416.243805L205.56842,416.512299L205.610107,416.597961L205.732086,416.887604L205.765503,416.982147L205.886902,417.395172L205.910034,417.493134L205.989136,417.946411L206,418.034393L206.036285,418.527954L206.038574,418.603943L206.032288,419.138641L206.029694,419.197479L206.016296,419.369415L206.014557,419.387421L205.995728,419.578491L205.993713,419.597076L205.968597,419.807007L205.966858,419.820129L205.936035,420.04892L205.934296,420.060913L205.897461,420.308838L205.896027,420.319122L205.85318,420.585907L205.851746,420.593903L205.803192,420.879822L205.801788,420.887512L205.747223,421.192291L205.740356,421.226563L205.318207,423.146851L205.316772,423.153137L204.889771,425.029968L204.862915,425.190491L204.842346,425.376434L204.824371,425.633789L204.813232,425.918274L204.808075,426.269897L204.810364,426.64093L204.818939,427.052521L204.83551,427.523499L204.835785,427.532074L204.846344,427.94281L204.846649,427.972809L204.843506,428.359253L204.842651,428.393524L204.825775,428.755981L204.823212,428.793976L204.792938,429.132446L204.787811,429.177307L204.74353,429.491486L204.734955,429.542053L204.676971,429.832245L204.663544,429.888519L204.592133,430.154419L204.572144,430.219269L204.558716,430.257263L205.662964,433.302612L206.873749,436.535065L206.878601,436.548767L207.09024,437.142883L207.091949,437.147156L207.29248,437.719543L207.29361,437.723541L207.483551,438.273956L207.48526,438.278809L207.664063,438.806946L207.665771,438.812378L207.83374,439.318787L207.835724,439.324768L207.992554,439.809204L207.994537,439.815491L208.140503,440.277924L208.142792,440.285065L208.277588,440.72522L208.281891,440.739777L208.702606,442.202179L208.717468,442.260742L208.808563,442.682892L208.819702,442.745728L208.874847,443.134491L208.882263,443.210175L208.901978,443.564911L208.902252,443.6586L208.886261,443.97937L208.877411,444.069336L208.859131,444.157593L208.829712,444.250702L208.811432,444.298981L208.775146,444.381805L208.730896,444.460358L208.678894,444.534058L208.619476,444.60202L208.553802,444.663727L208.481812,444.718567L208.404999,444.765686L208.323853,444.80484L208.239044,444.835663L208.18219,444.851105L208.142212,444.860535L208.053375,444.876801L207.963409,444.883942L207.873444,444.881958L207.783752,444.870819L207.69577,444.8508L207.610382,444.82196L207.555542,444.798248L207.493561,444.768829L207.413849,444.725983L207.314178,444.655731L207.229614,444.587189L207.137665,444.50119L206.82489,444.164154L206.766907,444.095032L206.736053,444.051636L205.934875,442.847412L205.904022,442.79715L205.699799,442.441254L205.691528,442.426697L205.473602,442.029663L205.467316,442.017944L205.235077,441.579529L205.229675,441.569244L204.983459,441.089386L204.978882,441.080536L204.718689,440.559265L204.714966,440.551544L204.440765,439.988861L204.437347,439.981995L204.149414,439.377899L204.146851,439.372192L203.844666,438.726685L203.842072,438.721252L203.344818,437.640137L203.342224,437.63443L202.882385,436.615601L202.879517,436.609039L202.457367,435.653046L202.453949,435.645325L202.069489,434.751892L202.065491,434.742462L201.719025,433.911285L201.714722,433.900726L201.405975,433.132385L201.400818,433.119232L201.170044,432.517426L200.378296,432.879608L200.360291,432.887878L199.494843,433.26062L199.477692,433.267487L198.565704,433.638214L198.550262,433.644501L197.631104,433.998413L197.599976,434.502808L197.598267,434.525391L197.513733,435.499939L197.511444,435.523926L197.403748,436.468506L197.400604,436.493073L197.270355,437.408508L197.266083,437.435059L197.112701,438.320801L197.107574,438.348206L196.931335,439.204254L196.925049,439.233093L196.726257,440.059692L196.720551,440.081696L196.567169,440.654388L196.561432,440.674927L196.388641,441.263916L196.382355,441.283905L196.18927,441.88858L196.183563,441.906281L195.971039,442.527222L195.965057,442.544098L195.732544,443.18103L195.726563,443.197021L195.47406,443.849976L195.468353,443.864532L195.195862,444.533752L195.190155,444.54718L194.897949,445.232697L194.884796,445.262115L194.856262,445.323242L194.908508,445.342651L194.989075,445.377228L195.638306,445.69397L195.715424,445.736542L196.330383,446.11615L196.402649,446.165833L196.983307,446.608551L197.048431,446.663391L197.314056,446.909332L197.385468,446.983582L197.612274,447.248383L197.678253,447.33548L197.865906,447.61853L197.923309,447.718231L198.071838,448.020691L198.112976,448.118958L198.180084,448.310608L198.205505,448.397156L198.21579,448.446564L198.246643,448.617096L198.258362,448.706787L198.260345,448.806763L198.255219,448.955566L198.247498,449.045532L198.230927,449.134094L198.211517,449.202057L198.1698,449.329437L198.137543,449.413696L198.09668,449.494263L198.042419,449.577942L197.965027,449.683929L197.908173,449.753906L197.844757,449.817871L197.777344,449.873291L197.663666,449.957825L197.588562,450.008087L197.477448,450.064362L197.327484,450.127502L197.242676,450.158051L197.175842,450.175751L196.990173,450.217194L196.895905,450.23288L196.597137,450.266602L196.516022,450.272034L196.203552,450.278595L196.128723,450.277161L195.802521,450.256592L195.735107,450.249756L195.395508,450.202332L195.334961,450.191772L194.981628,450.117218L194.927643,450.104065L194.560333,450.00238L194.512634,449.987823L194.131897,449.859009L194.090179,449.843567L193.69574,449.687927L193.604065,449.64563L191.509277,448.530273L191.46814,448.55368L191.362152,448.598541L191.282776,448.626221L191.196228,448.651642L191.107391,448.668213L191.058533,448.67337L190.959717,448.681091L190.869446,448.68335L190.799774,448.679077L190.682098,448.667084L190.571838,448.648804L190.434723,448.617096L190.355042,448.594818L190.199097,448.543121L190.141693,448.521698L189.966583,448.450012L189.924042,448.431152L189.729797,448.339478L189.659546,448.302612L188.666412,447.72052L188.591003,447.670807L188.501617,447.596252L188.301392,447.405182L188.23941,447.339783L188.167145,447.242371L188.014313,447.00473L187.969482,446.926453L187.92865,446.833344L187.823242,446.550018L187.796112,446.46405L187.78067,446.393188L187.722992,446.063873L187.711853,445.974182L187.709839,445.883942L187.71698,445.793945L187.733276,445.705139L187.758392,445.618591L187.770691,445.588013L187.751251,445.526306L187.732971,445.438049L187.723846,445.346954L187.383667,438.611267L187.383667,438.573303L184.690765,440.291626L184.646484,440.318176L184.175781,440.581543L184.147797,440.596405L183.687347,440.832886L183.656525,440.848022L183.20636,441.057678L183.171509,441.07309L182.731354,441.255615L182.693359,441.270172L182.263794,441.425842L182.221802,441.440125L181.802216,441.568939L181.781067,441.574677L181.775085,441.88913L181.774811,441.897125L181.763367,442.306152L181.763092,442.313019L181.747955,442.740326L181.74765,442.746307L181.728821,443.191589L181.728516,443.197327L181.705963,443.660889L181.705688,443.666595L181.679108,444.148163L181.678833,444.153015L181.64856,444.652863L181.648254,444.657166L181.614288,445.174988L181.613983,445.179565L181.575989,445.715973L181.575714,445.719971L181.534027,446.274109L181.533722,446.278107L181.488037,446.850769L181.487732,446.855927L181.385193,448.055542L181.384644,448.061829L181.266663,449.33432L181.266388,449.338318L181.207245,449.947266L181.206696,449.952972L181.145569,450.543091L181.144714,450.549377L181.081299,451.120605L181.080444,451.127197L181.015015,451.679596L181.014465,451.686462L180.947052,452.219727L180.945892,452.227417L180.876495,452.741547L180.875366,452.748993L180.80423,453.244263L180.803101,453.253113L180.729675,453.729553L180.722839,453.768677L180.422913,455.269653L180.410645,455.321899L180.275238,455.836029L180.247833,455.922028L180.212128,456.004852L180.167847,456.083405L180.111023,456.16394L180.071014,456.214203L180.011322,456.281921L179.945068,456.343323L179.873077,456.397583L179.795685,456.444153L179.714294,456.483002L179.62915,456.513275L179.541473,456.534698L179.452087,456.547241L179.388092,456.55069L179.336395,456.551544L179.246124,456.548401L179.156738,456.536102L179.069061,456.514984L178.983917,456.48526L178.902252,456.446716L178.824829,456.400452L178.781128,456.369019L178.717438,456.320465L178.64859,456.262207L178.585754,456.197357L178.551208,456.15509L178.476074,456.057404L178.419525,455.974579L178.267853,455.723236L178.207031,455.602692L178.079346,455.293365L178.045349,455.195374L177.941681,454.828064L177.923401,454.750366L177.843719,454.325653L177.83429,454.261963L177.671173,452.828949L177.670624,452.823517L177.621216,452.365112L177.620056,452.353973L177.572937,451.857819L177.572083,451.847839L177.527527,451.31427L177.526672,451.305695L177.484375,450.734467L177.483826,450.72644L177.444397,450.117493L177.444122,450.110657L177.407257,449.464264L177.406982,449.457977L177.372711,448.773895L177.372406,448.768494L177.340729,448.046692L177.340424,448.037567L177.217896,444.385803L177.217316,444.360962L177.211609,443.35556L177.211609,443.339264L177.223328,442.392975L177.223602,442.375275L177.252472,441.488403L177.291595,440.786346L176.646362,440.369598L176.619232,440.351318L175.653503,439.675812L175.101959,439.303925L174.520142,438.932312L173.879211,438.54245L173.235107,438.168549L172.526764,437.775238L171.811829,437.394806L171.041199,437.000916L170.244293,436.608459L169.847839,436.421661L169.393982,436.217712L168.863586,435.988373L168.284027,435.745575L167.651367,435.487671L166.945007,435.206604L166.911041,435.193451L163.774567,440.456146L163.761993,440.476715L161.817719,443.547791L161.765442,443.62146L160.936859,444.675995L160.927429,444.688019L160.7612,444.892242L160.752319,444.902802L160.606934,445.075897L160.592651,445.092743L160.467834,445.234131L160.448151,445.255554L160.344177,445.365784L160.310181,445.400085L160.227051,445.479187L160.15451,445.541168L160.092255,445.588867L160.017975,445.640015L159.938873,445.683411L159.879181,445.709686L159.837463,445.726257L159.752075,445.755096L159.664093,445.775391L159.574677,445.786804L159.484436,445.788818L159.39447,445.781952L159.305634,445.765686L159.218811,445.740814L159.135101,445.707123L159.055145,445.665436L158.993164,445.625153L158.972595,445.610596L158.901764,445.554871L158.836639,445.492035L158.778656,445.423218L158.727509,445.348663L158.684387,445.269257L158.649536,445.186127L158.62326,445.099884L158.60556,445.011047L158.573578,444.790253L158.565277,444.700287L158.565277,444.621735L158.577576,444.351807L158.590424,444.236725L158.646973,443.917938L158.664673,443.839111L158.764923,443.471527L158.79007,443.393555L159.210785,442.269897L159.211945,442.267029L160.598389,438.602417L160.608368,438.576721L161.762878,435.789276L161.930267,435.381134L161.930542,435.381134L162.087067,434.992096L162.232178,434.623352L162.369843,434.265167L162.493225,433.936127L162.61261,433.607361L162.683472,433.406281L162.444397,433.26889zM186.100296,414.759247L186.14061,414.543213L186.018082,414.502899L186.100296,414.759247zM193.521301,409.687225L193.289139,409.4841L193.194016,409.958099L193.50679,409.71463L193.521301,409.687225zM199.391342,419.276642L199.813751,419.196045L200.221634,419.128326C200.319977,419.110596,200.266769,419.092865,200.05719,419.073517L199.405853,419.033203L199.391342,419.276642zM182.321289,409.754944L181.968216,409.619537L181.655441,409.361572L181.547424,409.740448L182.321289,409.754944zM185.026566,415.720123L184.916946,414.312653L184.360733,414.799561L185.026566,415.720123zM178.6922,406.967438C178.629333,407.554291,178.661575,408.108887,178.787323,408.631226L179.30484,408.226563C179.2323,407.865448,179.217789,407.531708,179.262924,407.225403L179.019485,406.927124L178.6922,406.967438zM190.870819,397.594055C191.159409,398.251831,191.364166,398.775818,191.481857,399.16275C191.754318,398.793549,191.921982,398.500122,191.984863,398.284088C192.057404,398.005188,192.070313,397.756897,192.025162,397.539246C191.980026,397.332886,191.894577,397.220032,191.767212,397.202301C191.684998,397.202301,191.609222,397.232941,191.536667,397.295807C191.319016,397.468323,191.096527,397.56665,190.870819,397.594055zM206.296432,404.018707L208.239151,401.489166L207.818359,401.571381C207.383057,401.616516,206.967117,401.819672,206.567291,402.179169C206.123932,402.575775,205.938522,402.982056,206.011078,403.396393L206.296432,404.018707zM203.155853,403.275482L203.14296,403.275482C203.695938,404.239594,204.697128,405.034393,206.1465,405.656708C204.714859,404.700684,204.016769,403.504425,204.053848,402.071167L203.155853,403.275482zM186.085785,434.088013L186.438873,434.819946L187.839874,433.493103L187.934998,433.425385C187.47229,432.965912,187.056335,432.619293,186.683929,432.383911C186.068054,431.996979,185.745621,432.072754,185.719818,432.614441C185.70047,433.046509,185.822998,433.538239,186.085785,434.088013zM179.019485,397.079773L176.58667,397.120087C176.539917,398.076111,176.635025,399.001526,176.872025,399.893066C177.097733,399.154694,177.510452,398.545258,178.108582,398.068054L178.759918,397.594055L179.250031,397.295807L179.019485,397.079773zM178.6922,393.523224C178.040878,393.829559,177.392761,394.221313,176.749496,394.700134L175.68866,395.564301L175.743469,395.902863L176.477036,395.79483L176.464142,395.767426L178.569672,395.077393L179.30484,394.725952L178.366547,394.740448L179.262924,394.185852L178.244019,394.239044L179.195221,393.67157L178.298828,393.79248L178.6922,393.523224zM178.256912,407.062561C177.840958,407.170593,177.400818,407.306,176.939728,407.468842C176.767227,408.442627,176.92038,409.546967,177.400818,410.781921L177.415344,410.756134L177.523346,410.390167C177.731323,409.893585,178.018311,409.448639,178.37944,409.050415C178.208542,408.447449,178.161789,407.792877,178.244019,407.089966L178.256912,407.062561zM193.711533,409.808167L193.113403,410.295044L193.098892,410.335358C194.332245,409.56955,195.89447,409.276123,197.788818,409.456696L198.209595,407.210876C197.982269,407.301178,197.598572,407.513977,197.05365,407.847717L195.979919,408.510315L194.852982,409.132629C194.335464,409.421234,193.954987,409.646942,193.711533,409.808167zM189.647156,396.687988C190.000229,397.039459,190.348465,397.232941,190.693481,397.27002C190.946594,397.28775,191.164246,397.224854,191.346436,397.079773C191.672089,396.828278,191.921982,396.480042,192.09288,396.038269C192.265381,395.614258,192.328262,395.209595,192.283127,394.821075L191.564072,395.077393L190.272705,395.523987L189.08934,395.835144L189.647156,396.687988zM186.466278,416.598785C186.603302,417.83374,186.824188,419.025146,187.132111,420.1698L187.377167,420.927551C187.494858,419.150909,187.857605,417.130798,188.463806,414.867249C187.812469,414.894653,187.159515,414.822113,186.508194,414.651215C186.41629,415.3461,186.403397,415.994202,186.466278,416.598785zM191.564072,435.414856C190.222717,433.2948,188.645981,432.127563,186.833862,431.91153C187.957565,432.506439,189.207031,433.773621,190.585464,435.711487C191.970352,437.678406,192.632965,439.134216,192.568481,440.080597C192.850616,439.656586,192.818375,438.858521,192.473358,437.686462C192.220245,436.794922,191.917145,436.03717,191.564072,435.414856zM192.500763,397.242615C193.524521,396.808929,194.395111,396.296234,195.110931,395.699707C195.926712,395.00647,196.274948,394.406738,196.157257,393.9021C196.066971,393.631256,194.915863,393.887604,192.705521,394.672729C192.831268,395.312775,192.673279,395.935089,192.229919,396.539673C192.34761,396.692841,192.437897,396.926605,192.500763,397.242615zM182.974228,434.441071L183.287003,436.185486L183.680374,437.916992L183.680374,437.929901L186.561401,436.130676C186.153503,435.535767,185.850403,435.021484,185.650497,434.589417C184.681564,434.562012,183.77066,434.444305,182.919418,434.237946L182.974228,434.441071zM201.01001,406.033966L203.496033,406.196808L207.01709,406.35965C205.856308,405.988831,204.897034,405.516449,204.13446,404.93927C203.165527,404.21701,202.594803,403.383514,202.422302,402.437134L201.01001,406.033966zM174.832581,410.606201C175.222733,411.085022,175.508087,411.667023,175.68866,412.352203L176.967133,411.160797C176.467361,409.835571,176.319031,408.65863,176.517334,407.630066C175.403305,408.099213,174.307007,408.748932,173.228424,409.579224C173.844299,409.71463,174.379547,410.056427,174.832581,410.606201zM192.352448,407.496246C192.740982,407.396301,192.973145,407.270538,193.044083,407.117371C192.881256,406.675629,192.097717,406.390259,190.693481,406.264526C190.240448,406.229065,189.356964,406.211304,188.043015,406.211304L184.971756,406.427338L183.938324,406.698212C183.34021,406.896515,183.132233,407.049652,183.31279,407.157684C183.748093,407.40918,184.273666,407.594604,184.889526,407.71228L184.971756,407.671967C185.27002,407.626831,185.805267,407.428528,186.575897,407.07547C187.272369,406.761078,187.817307,406.603088,188.205841,406.603088C188.605682,406.593414,189.14415,406.746582,189.824509,407.062561C190.585464,407.414032,191.123947,407.612335,191.441544,407.657471L192.352448,407.496246zM186.548492,419.981201C185.795593,417.815979,184.904037,416.179596,183.870621,415.070404C182.95488,415.421875,181.990784,415.529877,180.975098,415.39444L180.879974,415.787842L182.226166,416.57135C184.238205,417.853058,185.70047,419.078339,186.616211,420.250427L186.548492,419.981201zM177.30571,411.120483L177.237991,411.228516C176.631805,411.941101,176.341614,412.711731,176.369019,413.542023C176.396423,414.398102,176.757553,415.13327,177.455643,415.747528C177.845795,416.089325,178.27626,416.342438,178.747025,416.503662C179.254868,416.684204,179.748199,416.734192,180.228638,416.653595L180.541412,415.313843C179.753036,415.13327,179.127502,414.814056,178.664795,414.352966C178.23111,413.920898,177.895782,413.424347,177.6604,412.864899C177.397598,412.242584,177.297638,411.647675,177.360519,411.0802L177.30571,411.120483zM199.486465,406.196808C198.362762,405.980774,197.41156,405.677673,196.632858,405.290741L196.605453,405.331055L194.525696,409.024628C195.051285,408.716675,195.821915,408.302338,196.835999,407.779999L197.746887,407.252808C198.119308,407.035156,198.432083,406.886841,198.685196,406.806213L199.283325,406.791718L199.881454,406.846527L206.894562,407.022247L208.389084,407.022247L209.653046,406.967438L209.870697,406.94165L209.925522,406.927124C209.952927,406.919067,209.952927,406.904572,209.925522,406.886841L209.898102,406.859436L209.653046,406.751404L209.530518,406.683685L208.55191,406.169403L206.907455,405.30365C206.1465,404.826416,205.70314,404.362122,205.575775,403.910706L205.372635,404.329865L205.317825,404.412079C205.725708,404.889313,206.251297,405.308472,206.894562,405.669617C207.483017,406.003326,208.12146,406.259674,208.80986,406.440247C208.909821,406.467651,208.919495,406.525696,208.83728,406.615967C208.756668,406.706268,208.679276,406.751404,208.606735,406.751404L204.026443,406.656281C202.223999,406.593414,200.710129,406.440247,199.486465,406.196808zM188.83139,414.839844C188.080093,417.599945,187.735077,420.102112,187.797958,422.3479L187.797958,422.388214C187.925323,422.867035,188.020447,423.457092,188.083313,424.160034L188.410599,422.847687C189.06192,420.214966,189.669739,417.983643,190.230774,416.152191L190.788605,414.285248C190.30011,414.565765,189.647156,414.749573,188.83139,414.839844zM196.497437,416.897034L200.084595,416.897034L202.381989,413.988617L197.964539,413.906372L196.59256,416.747101L196.497437,416.897034zM187.947891,392.048065C187.677048,391.633728,187.414246,391.340302,187.159515,391.169403C184.62352,391.746582,182.588913,392.256042,181.057312,392.697784L180.431778,393.129852L181.315262,393.008942L180.378571,393.576447L181.38298,393.523224L180.486588,394.07785L181.43779,394.063324L180.499496,394.509918C181.913391,394.113312,183.141907,393.829559,184.18338,393.657043L188.463806,392.994446C188.3461,392.697784,188.175217,392.381805,187.947891,392.048065zM175.946609,398.635559L175.933716,397.134583L173.255844,397.255493C172.294968,397.382874,171.674255,397.611786,171.393738,397.945526C171.26799,398.090637,171.213165,398.248627,171.230911,398.419525C171.358276,399.185303,171.888687,399.776978,172.820541,400.191315C173.754013,400.605652,174.927704,400.77655,176.341614,400.705627C176.159424,400.038177,176.028839,399.348145,175.946609,398.635559zM174.982513,400.178436C174.827744,400.276764,174.406952,400.21875,173.718536,400.001099C172.965637,399.767303,172.436844,399.473907,172.127289,399.122437C171.829041,398.770966,171.779053,398.427582,171.978973,398.093842C172.159546,397.769806,172.367508,397.656952,172.604507,397.756897C172.722198,397.802032,172.75766,398.022919,172.712524,398.419525C172.667389,398.851593,172.730255,399.14502,172.902771,399.298157C173.075272,399.443268,173.513794,399.62384,174.221558,399.839874C174.810013,400.020447,175.063126,400.133301,174.982513,400.178436zM191.807526,438.998779C191.246475,437.781586,190.485504,436.554688,189.524628,435.319733C188.853958,434.463654,188.365448,433.876801,188.057526,433.560822L186.521088,435.008575C188.007538,437.902496,189.556885,439.643677,191.169083,440.23053C191.559235,440.383667,191.884903,440.428833,192.14769,440.364319C192.157364,440.24826,192.112228,440.004822,192.012268,439.634003C191.921982,439.300293,191.852661,439.089081,191.807526,438.998779zM192.215408,446.235992L190.395218,446.331116C189.669739,446.303711,189.071594,446.163452,188.60083,445.910339C188.645981,446.379486,188.818481,446.727722,189.116745,446.951813L190.109863,447.533813C190.653183,447.804688,190.993347,447.862701,191.128784,447.709564L191.291611,447.561218C191.37384,447.498352,191.436707,447.480621,191.481857,447.506409L194.02269,448.85907C195.093201,449.310486,196.016998,449.473297,196.795685,449.347565C197.339005,449.26532,197.498611,448.954163,197.271286,448.414093C197.098785,447.998138,196.823105,447.633789,196.442612,447.31778C195.69133,446.685791,194.848145,446.221497,193.914673,445.924835C193.714767,446.042542,193.426178,446.123138,193.044083,446.168274L192.215408,446.235992zM166.352356,434.426575L163.659973,433.304474C163.40686,434.070282,163.04895,435.013428,162.586243,436.130676L161.4319,438.918182L160.04541,442.582733L159.624619,443.706451C159.461792,444.22879,159.415039,444.622192,159.487579,444.883362C159.514984,444.963959,159.764877,444.712463,160.235641,444.12561L161.064316,443.071228L163.008636,439.999969L166.297546,434.481384L166.352356,434.426575zM201.72905,431.450439C202.299774,433.083588,203.275162,435.382599,204.651978,438.34906C205.475815,440.125732,206.151337,441.460632,206.67691,442.35379L207.47818,443.558105L207.790955,443.895081C207.91832,444.012756,207.986023,444.025665,207.995697,443.935364C208.040848,443.530701,207.99086,443.034149,207.845764,442.448914L207.424988,440.986633C207.079971,439.84198,206.617264,438.461914,206.038483,436.848114L204.827713,433.615631L203.645966,430.355743C203.120392,430.69754,202.481949,431.063507,201.72905,431.450439zM188.723358,393.333008L184.251099,394.035919C183.299896,394.18103,182.203598,394.424469,180.962189,394.766235L177.400818,395.79483C175.680603,396.318817,174.972839,396.597717,175.280777,396.633179C177.065491,396.823425,179.883636,396.687988,183.735199,396.228516C187.033768,395.831909,189.176392,395.478851,190.163071,395.172516L191.441544,394.725952L194.498291,393.739258L191.94455,393.508728L188.723358,393.333008zM198.943146,417.356506C198.245071,417.411316,197.711426,417.545135,197.339005,417.762787C197.031067,417.943359,197.113297,418.131989,197.584061,418.330292C197.929077,418.465698,198.227325,418.546326,198.482056,418.57373L199.949173,418.641449C200.574707,418.67691,200.850403,418.812317,200.777847,419.047729C200.697235,419.273438,200.38446,419.439484,199.841156,419.547485L198.399841,419.831238C197.937134,419.93927,197.529251,420.139191,197.176178,420.426147C196.723145,420.796967,196.773117,421.090393,197.326111,421.306427C197.82428,421.495056,198.395004,421.577271,199.038269,421.549866C199.654144,421.522461,200.221634,421.404755,200.737534,421.198395C200.890701,421.135529,200.945511,421.17099,200.900375,421.306427C200.864899,421.432159,200.792358,421.517609,200.682724,421.562744L199.636398,421.752991L198.019363,421.793304C198.219269,422.135101,198.517532,422.375305,198.915741,422.510742L200.099106,422.578461C200.234528,422.551056,200.261932,422.604248,200.179718,422.739685C200.099106,422.875092,200.00882,422.952484,199.908859,422.970215L199.418747,423.023438C200.079758,423.502258,200.792358,423.53772,201.553314,423.133057C202.249786,422.762238,202.839859,422.131866,203.320297,421.238708C203.808792,420.337494,204.036118,419.434631,203.999039,418.533417C203.963562,417.532227,203.583084,416.756775,202.85759,416.207001C202.477112,416.792236,202.174011,417.143707,201.946701,417.261383L201.295364,417.343628L200.627914,417.301697L198.943146,417.356506zM180.879974,441.109161C179.973907,441.252655,179.077515,441.114014,178.189194,440.690002C178.116653,441.754059,178.089233,442.976105,178.108582,444.356171L178.23111,448.007813C178.311722,449.982758,178.421356,451.556274,178.556778,452.728363L178.71962,454.161621C178.809891,454.766174,178.964661,455.21759,179.182312,455.514252C179.290329,455.677094,179.367722,455.709351,179.412857,455.609375L179.548294,455.095093L179.84816,453.594116C180.046463,452.349487,180.223801,450.901733,180.378571,449.252441C180.713913,445.761993,180.884811,443.048645,180.894485,441.109161L180.879974,441.109161zM187.512604,426.554169L187.75766,425.512665L187.744751,425.512665C186.375992,425.638428,185.194244,426.342957,184.196289,427.623047C183.372452,428.687103,182.774323,429.984924,182.403503,431.518158L182.321289,431.640686C182.556671,432.578979,182.724335,433.286743,182.824295,433.763947L182.906525,433.763947C183.740021,434.007385,184.600952,434.155731,185.487671,434.210541C185.179733,433.462463,185.112015,432.817596,185.284531,432.275879C185.374817,431.987305,185.529587,431.798676,185.745621,431.708374L185.773026,431.680969C186.543655,430.581451,187.431992,429.452911,188.438004,428.300171L189.674561,426.892731C190.20015,426.342957,190.693481,425.931854,191.156189,425.661011C189.797089,425.986664,188.618576,426.31073,187.622223,426.636383C187.540009,426.654114,187.504532,426.626709,187.512604,426.554169zM182.606644,409.348663C182.716278,409.376068,182.774323,409.421234,182.783997,409.4841C182.864594,409.890381,182.476059,410.128967,181.615143,410.201538C180.762283,410.264404,180.273773,410.141876,180.146423,409.835571L180.119003,409.740448C180.146423,409.127808,180.401154,408.595764,180.879974,408.144348C180.101273,407.99118,179.367722,408.324921,178.679306,409.145538C178.026367,409.930664,177.74585,410.701324,177.836121,411.459045C177.963486,412.450562,178.316559,413.24054,178.896957,413.825775C179.830429,414.754395,181.102448,415.128448,182.716278,414.949493C183.367615,414.876923,183.938324,414.668945,184.428436,414.327179C185.062042,413.88382,185.157166,413.379181,184.713806,412.811707C184.288177,413.153473,183.765823,413.469482,183.149963,413.758057C183.004868,413.830627,182.964554,413.808044,183.027435,413.690338C183.091919,413.564606,183.169312,413.483978,183.259598,413.446899C184.138245,413.014832,184.718643,412.608551,184.999161,412.229675C185.207138,411.958832,185.23938,411.684753,185.094284,411.404236C184.966919,411.15274,184.744431,410.97699,184.428436,410.877045C183.95607,411.579956,183.241852,412.112,182.280975,412.473145C182.126205,412.527954,182.068176,412.490875,182.103638,412.365112C182.148773,412.229675,182.226166,412.139404,182.3358,412.094269C182.924255,411.878235,183.427261,411.557404,183.843216,411.133392C184.38652,410.583618,184.509048,410.056427,184.2108,409.551819C184.05603,409.298706,183.830322,409.082642,183.530441,408.9021C183.195099,408.694122,182.896851,408.623169,182.634048,408.686066C182.163284,408.956909,182.076233,409.145538,182.376099,409.25354L182.606644,409.348663zM162.015533,417.815979C161.17395,417.519348,160.390411,417.383911,159.664917,417.411316L159.652023,417.411316C158.365479,417.672516,157.720596,418.317383,157.720596,419.34436C158.844315,419.921539,160.375916,420.521271,162.315399,421.143585C164.898148,421.964203,166.46521,422.483337,167.018204,422.699371L174.792267,425.552979L174.859985,425.444946C175.34848,424.795227,175.851501,424.245483,176.369019,423.795654C177.112244,423.145935,177.790985,422.779968,178.406845,422.699371L178.053772,422.496216L177.605576,422.307617C176.734985,423.226563,175.793457,423.831146,174.777771,424.11972C173.636322,424.443787,172.436844,424.358337,171.176086,423.863373C170.116867,423.439362,169.305923,422.947632,168.743271,422.388214C168.091934,421.720764,167.711456,420.904968,167.601822,419.93927C166.324951,419.650696,165.191574,419.268585,164.204895,418.789764C163.144073,418.285156,162.415344,417.96109,162.015533,417.815979zM183.041946,387.395233L182.30838,388.044952C181.43779,389.586212,180.736481,390.551941,180.201233,390.938873C179.803009,391.217773,179.462845,391.277435,179.182312,391.114594L178.882446,390.776031L180.989594,388.680176C180.318924,388.923615,179.562805,389.131592,178.71962,389.30249L178.189194,389.410492C177.247665,389.599121,176.269058,390.642212,175.253357,392.534943L175.608047,395.119324C176.957474,393.955322,178.326233,393.147583,179.711121,392.697784C180.971863,392.301178,183.332138,391.674042,186.793549,390.817963C186.883835,390.790558,186.788712,390.564819,186.508194,390.140808C186.235733,389.744232,186.013245,389.468536,185.840729,389.315369C185.261963,388.79303,184.939514,388.328705,184.876633,387.922424L184.741211,387.056671C184.658997,386.768097,184.54129,386.60202,184.38652,386.556885C184.106003,386.484344,183.657806,386.763245,183.041946,387.395233zM204.909943,417.233978C204.619736,416.432709,204.049011,415.858765,203.197769,415.516968L203.06073,415.705597C204.547195,416.689056,204.93251,418.209381,204.21669,420.264923C203.918427,421.112946,203.465393,421.861023,202.85759,422.510742C202.24173,423.176575,201.593628,423.592529,200.914886,423.753754L200.914886,423.863373C201.213135,424.972595,201.063202,426.212372,200.465073,427.582764C200.003983,428.64679,199.296234,429.741486,198.345016,430.870026C200.537628,429.994598,202.354584,429.098236,203.795898,428.177643C203.903915,428.105103,203.953903,428.105103,203.944229,428.177643C203.926483,428.250183,203.876511,428.31308,203.795898,428.366272C202.336853,429.296509,200.437668,430.220337,198.099976,431.139282L197.313202,431.951843L197.313202,431.992126L197.271286,433.181946C199.889526,432.200104,202.011185,431.198914,203.633072,430.180023L203.645966,430.165497C203.891022,429.552856,203.990982,428.682281,203.944229,427.555328C203.891022,426.247833,203.913589,425.349854,204.01355,424.862946L204.447235,422.955719L204.869629,421.035583C205.022797,420.197205,205.113068,419.562012,205.140488,419.128326C205.177567,418.388336,205.100174,417.757935,204.909943,417.233978zM199.173706,419.033203L198.454651,418.992889L197.611465,418.884888C197.258392,418.812317,197.008499,418.691406,196.863403,418.518921L190.843414,418.34317L189.647156,424.052002C189.629425,424.151978,189.682632,424.192261,189.809998,424.17453L190.163071,424.11972L198.957657,423.376495L199.010864,423.376495L198.602982,423.023438L198.590073,422.902496C198.037094,422.721924,197.656616,422.365631,197.448639,421.833618L197.461533,421.738495C196.347504,421.577271,196.039566,421.148438,196.537735,420.453552C196.773117,420.139191,197.118134,419.8909,197.571167,419.710327C197.879089,419.592651,198.299881,419.484619,198.835129,419.384674L199.173706,419.318573L199.173706,419.033203zM167.52121,432.965912L164.680511,431.843811C163.864731,431.500427,163.211777,431.18927,162.723282,430.910339C162.042938,430.52179,161.481888,430.089722,161.036911,429.610901L161.119141,431.005463C161.626984,431.635834,162.325073,432.195282,163.211777,432.682159C163.801849,433.006226,164.625687,433.36734,165.686523,433.763947C167.959732,434.6297,169.609024,435.310059,170.632782,435.80661C172.835052,436.870667,174.679413,437.916992,176.164261,438.945587L177.129974,439.621094L178.135986,440.270813L178.216599,440.270813L178.216599,440.324036C179.122665,440.820587,179.961014,441.009216,180.731644,440.893127C181.782806,440.730286,182.941986,440.27887,184.2108,439.540497L187.391678,437.510712L187.459396,437.470428L186.656509,436.280609L185.447357,437.038361L183.272491,438.34906C182.384155,438.81015,181.587738,439.093903,180.879974,439.201935C180.138351,439.319641,179.412857,439.251892,178.706711,438.998779C178.144058,438.800476,177.500778,438.444183,176.776901,437.929901C174.664917,436.441833,172.517456,435.189148,170.334518,434.170227C169.59935,433.826843,168.662659,433.425385,167.52121,432.965912zM182.864594,407.604248C182.248734,407.702606,181.745728,407.905731,181.357193,408.212067C180.884811,408.573212,180.636536,409.032684,180.609116,409.592102L181.097626,409.700134C181.189514,409.285797,181.432953,408.939178,181.832794,408.65863C182.168121,408.415192,182.584076,408.249146,183.082245,408.158875L183.177368,408.171753L183.232178,408.25238L183.245087,408.334595L183.815796,408.495819C184.223694,408.703796,184.509048,408.982697,184.67189,409.335785C184.844391,409.704956,184.839554,410.088684,184.658997,410.485291C185.094284,410.565887,185.387711,410.786774,185.54248,411.147888C185.69725,411.51709,185.62793,411.873383,185.33934,412.216797L185.121689,412.460236L185.134583,412.473145C185.407059,412.806854,185.465088,413.198639,185.311935,413.650055L185.33934,413.650055C186.461441,414.272369,187.612549,414.533539,188.791077,414.435181C190.132431,414.317505,191.101379,413.730652,191.699493,412.67627C192.495926,411.268799,192.94574,409.605011,193.044083,407.684875C192.537842,408.018616,191.659195,408.229797,190.408127,408.320068L188.043015,408.347504L185.610184,408.279785C184.215637,408.171753,183.317627,407.941223,182.919418,407.589752L182.864594,407.604248zM191.644684,440.825439C190.493561,440.652924,189.371475,439.900024,188.27356,438.566711L188.613739,445.302521L188.62825,445.302521C188.836212,445.437958,189.044189,445.541138,189.252167,445.613678C190.077621,445.857117,190.974014,445.929688,191.94455,445.829712L193.589005,445.545959L193.792145,445.49115L194.077515,444.883362C194.883606,443.034149,195.476898,441.357452,195.858994,439.851654C196.420044,437.686462,196.737656,435.206879,196.810196,432.411316C195.568802,433.467316,193.996902,434.421722,192.09288,435.279419C192.700684,436.486969,193.076324,437.636475,193.221436,438.727936C193.421341,440.306305,192.895752,441.005981,191.644684,440.825439zM158.523483,407.238281C159.039383,408.628021,159.40213,410.224091,159.610107,412.02655C159.772949,413.379181,159.864838,415.015594,159.882568,416.937347C159.882568,416.982483,159.850327,417.027618,159.787445,417.072754C160.430725,417.055023,161.106232,417.148529,161.812378,417.356506C162.347641,417.519348,162.981232,417.775696,163.714783,418.127136C164.358063,418.433472,165.023911,418.713989,165.712311,418.965485C165.476929,417.163055,164.94812,415.218719,164.122681,413.135742L163.116669,410.999573C162.708771,410.141876,162.442749,409.41156,162.315399,408.806976C162.097748,406.994843,161.852692,405.651886,161.581848,404.776459C161.10141,403.21582,160.2034,402.346863,158.88945,402.16629C157.720596,402.003448,157.259506,402.643494,157.504562,404.086426C157.585175,404.573303,157.925354,405.624481,158.523483,407.238281zM179.100098,422.726776L179.290329,422.779968C179.345154,422.799316,179.35321,422.844482,179.317749,422.915405C179.961014,423.519989,180.454346,424.376068,180.799362,425.48526C180.999268,426.134979,181.237885,427.1539,181.52002,428.54364L182.171356,431.058655C182.62439,429.598022,183.290222,428.353394,184.170486,427.324799C185.18457,426.144653,186.353424,425.440125,187.677048,425.216034C187.6577,424.27771,187.540009,423.394226,187.322357,422.563934C186.435638,420.219788,184.246262,418.11908,180.759064,416.260193C180.133514,418.596313,179.177475,420.508362,177.89093,421.99646L178.326233,422.199585C178.614822,422.360809,178.87439,422.53653,179.100098,422.726776zM181.695755,424.200317C183.119324,423.687653,184.015717,423.389404,184.38652,423.308777C185.411896,423.073395,186.335678,423.095978,187.159515,423.376495C187.232071,423.402283,187.224014,423.470001,187.132111,423.578033L186.92897,423.740845C186.666183,423.84082,186.230896,423.903687,185.624695,423.931091C185.053986,423.966553,184.609009,424.056854,184.291397,424.200317C183.096756,424.76944,182.231003,425.549744,181.695755,426.54126C181.660278,426.621857,181.565155,426.689575,181.410385,426.744385C181.257233,426.789551,181.215317,426.752472,181.287857,426.636383C181.777969,425.71582,182.543762,424.935486,183.585251,424.295471C184.155975,423.953674,184.654144,423.723114,185.079773,423.605438L185.677902,423.53772C185.079773,423.502258,184.391357,423.600586,183.612671,423.835968L181.600632,424.538879C181.447464,424.593719,181.402328,424.561462,181.46521,424.443787C181.52002,424.318024,181.595795,424.237427,181.695755,424.200317zM175.200165,427.635956C175.525833,428.854767,176.073975,430.270294,176.84462,431.884125L178.529373,435.279419C179.145233,436.604675,179.548294,437.799316,179.738525,438.863373L179.711121,438.971375C180.065811,439.034271,180.404373,439.039093,180.731644,438.985901C181.555481,438.858521,182.426086,438.566711,183.34021,438.105621L183.327301,438.092743L182.932312,436.361206L182.606644,434.616821L181.968216,431.91153L181.274963,429.219147C181.002502,427.740753,180.762283,426.631531,180.554306,425.891541C180.183502,424.601776,179.635345,423.650574,178.909851,423.037933C178.303665,422.902496,177.515289,423.199158,176.544739,423.931091C175.58548,424.651764,175.0728,425.314362,175.009918,425.918945C174.964783,426.423584,175.027649,426.995911,175.200165,427.635956zM191.83493,425.688416C191.336761,425.841553,190.806335,426.189789,190.245285,426.729889L188.953918,428.150238C188.183273,429.033722,187.391678,430.017181,186.575897,431.098969L186.290543,431.477844L186.453369,431.477844L187.377167,431.560059C188.183273,431.721283,188.903931,432.005035,189.537537,432.411316C190.135666,432.799866,190.698318,433.331879,191.223907,434.007385L191.699493,434.589417C191.899414,434.86026,191.947784,435.01825,191.849442,435.063385L193.098892,434.466888C193.914673,434.052551,194.56279,433.696228,195.043228,433.399597C195.7397,432.975586,196.334595,432.533844,196.823105,432.072754C196.85051,431.946991,196.931122,431.871216,197.068161,431.843811L197.230988,431.680969C198.290207,430.554047,199.105988,429.462585,199.676712,428.408203C200.447342,427.000732,200.742371,425.725494,200.560196,424.579193L200.547302,424.579193C197.746887,424.596924,194.915863,424.895203,192.052582,425.472351C192.007431,425.580383,191.934875,425.652924,191.83493,425.688416zM170.850418,417.640259C171.058395,417.000214,171.706512,416.368225,172.794739,415.747528L172.835052,415.720123C173.423508,414.791473,174.234451,413.803192,175.267883,412.756866C175.113098,412.063629,174.842255,411.471954,174.452103,410.985077C173.999069,410.417572,173.45575,410.066101,172.820541,409.930664L172.807648,409.916168C171.621063,410.889954,170.665024,411.933044,169.939529,413.042236C169.24144,414.114349,168.725525,415.210663,168.390198,416.327911C168.001648,417.62735,167.904922,418.822021,168.104828,419.913483C168.287018,420.922729,168.775513,421.761047,169.573563,422.428528C170.279709,423.033081,171.180923,423.457092,172.277222,423.700562C174.226379,424.151978,175.933716,423.61026,177.400818,422.077057C178.579346,420.850159,179.495087,419.141235,180.146423,416.950226L178.326233,416.85672C177.708755,416.648743,177.207367,416.315033,176.8172,415.85553C176.273895,415.233246,175.978851,414.570618,175.933716,413.866089C175.88858,413.190552,176.073975,412.523102,176.491547,411.865326C175.303345,412.964844,174.384384,413.966034,173.731445,414.867249C172.835052,416.094147,172.314301,417.256561,172.169205,418.357697C172.159546,418.430237,172.078934,418.506012,171.924164,418.586609C171.779053,418.668854,171.711349,418.681763,171.721008,418.62854C171.819366,417.815979,172.109558,416.987305,172.589996,416.139282C171.864502,416.57135,171.435654,417.009888,171.298615,417.45163C171.280884,417.522583,171.195435,417.595123,171.040665,417.667664C170.887512,417.740204,170.823013,417.73053,170.850418,417.640259zM179.670807,397.066864L179.725632,397.107178C179.915878,397.260345,179.911041,397.382874,179.711121,397.473145C179.132339,397.742371,178.679306,398.005188,178.352036,398.256683C177.583008,398.861267,177.160614,399.586761,177.088058,400.434784C177.415344,399.812469,177.828064,399.257874,178.326233,398.770966C178.924362,398.256683,179.317749,397.972931,179.50798,397.918121L179.615997,397.918121C179.707901,397.927795,179.761108,397.968079,179.780441,398.040649C179.798187,398.11319,179.761108,398.166382,179.670807,398.203491L178.542267,399.014404C178.234344,399.257874,177.926407,399.586761,177.618469,400.001099L177.075165,400.826538L177.10257,401.152191C177.483047,400.475067,177.923187,399.938202,178.421356,399.541595C178.809891,399.235291,179.132339,399.046661,179.385452,398.974121L179.440277,398.974121C179.520874,398.982178,179.562805,399.036987,179.562805,399.135345C179.553131,399.235291,179.480576,399.315887,179.345154,399.380402C179.019485,399.541595,178.779266,399.686707,178.624496,399.812469L177.713593,400.75882L177.157379,401.421448L177.157379,401.435944C177.183182,401.526245,177.179962,401.611694,177.142883,401.692291L177.605576,401.639099L177.523346,401.814819C176.84462,402.238831,176.622131,402.828888,176.857513,403.586639C177.092896,404.334717,177.595901,404.745819,178.366547,404.816742L178.569672,404.816742C179.067856,405.953369,179.711121,406.927124,180.499496,407.739685L181.357193,407.792877C181.782806,407.531708,182.231003,407.351135,182.701767,407.252808L182.701767,407.238281L182.688873,407.117371C182.716278,406.241943,184.196289,405.790527,187.132111,405.76474L187.186935,405.629303C187.259476,405.431,187.364273,405.277832,187.499695,405.168213C187.635132,405.060211,187.762482,405.029572,187.880188,405.074707C187.952728,405.102112,188.010773,405.160156,188.057526,405.250427L188.192947,405.142426C188.255829,405.079529,188.278397,404.984436,188.260666,404.857056C188.24292,404.776459,188.133301,404.713562,187.934998,404.668427L187.47229,404.628113C187.37233,404.628113,187.204666,404.69101,186.969284,404.816742L186.671021,404.857056C186.625885,404.749054,186.648453,404.645874,186.738739,404.547516C186.829025,404.447571,186.946716,404.384674,187.091812,404.357269L187.677048,404.329865C187.141785,404.078369,186.811279,403.815582,186.683929,403.546326L186.671021,403.53183L186.533981,403.410919L186.588806,403.248077L187.146622,402.625763C187.272369,402.490326,187.299789,402.337189,187.227234,402.16629L186.766144,401.042572L186.453369,400.083313L186.34375,399.62384L186.358261,399.433594L186.438873,399.352966L186.453369,399.352966C186.543655,399.370728,186.611374,399.451324,186.656509,399.596436L187.104706,400.733032C187.249802,401.039337,187.557739,401.543976,188.030121,402.246887C188.130066,402.400055,188.125244,402.545166,188.01561,402.680573L187.322357,403.504425C187.249802,403.576965,187.151459,403.622101,187.024094,403.639832L187.55452,404.086426L188.030121,404.357269L188.463806,404.547516C188.636307,404.655548,188.708862,404.803864,188.681442,404.992493C188.655655,405.173065,188.463806,405.390686,188.110733,405.642212L188.288071,405.76474L190.625763,405.872742C191.314178,404.357269,191.576965,402.788605,191.414139,401.1651C191.396408,400.8862,191.336761,400.529907,191.236801,400.096222C191.228729,400.159088,191.19165,400.221954,191.128784,400.286438C191.056229,400.357391,190.988525,400.39447,190.924026,400.39447L190.680588,400.447662L190.462936,400.462189L190.421021,400.57019C190.040543,401.155426,189.610077,401.398865,189.131256,401.300537C188.858795,401.245728,188.641144,401.09256,188.478302,400.841034C188.315475,400.605652,188.24292,400.349335,188.260666,400.068787C188.27034,399.970459,188.350952,399.88501,188.505722,399.812469C188.658875,399.749573,188.73143,399.780212,188.723358,399.907593C188.713684,400.078461,188.750778,400.244537,188.83139,400.407379L189.184448,400.786224L189.687469,400.881348C189.814835,400.836212,189.937363,400.718506,190.055054,400.529907L190.21788,400.39447L190.408127,400.367065C190.408127,400.249359,190.47583,400.16391,190.611267,400.110718L191.08847,399.975281L191.223907,400.028503C191.033661,399.199829,190.738617,398.379211,190.340408,397.56665C190.005066,397.476379,189.669739,397.265167,189.334396,396.931458L188.668549,395.917358C187.046661,396.259155,185.447357,396.534851,183.870621,396.741211C184.078598,397.102325,184.160812,397.305481,184.115677,397.350616L183.857727,397.44574L183.327301,397.606964C182.746902,397.895538,182.403503,398.035797,182.293884,398.026123C182.239059,397.719818,182.543762,397.318359,183.204773,396.823425L179.806244,397.066864L179.670807,397.066864zM182.118149,400.475067L182.430908,400.434784C182.511536,400.434784,182.511536,400.487976,182.430908,400.597595L182.103638,400.786224L181.492615,400.881348C181.410385,400.881348,181.410385,400.826538,181.492615,400.718506C181.600632,400.592773,181.710266,400.529907,181.818268,400.529907L182.118149,400.475067zM179.182312,401.057098C179.254868,401.065155,179.300003,401.110291,179.317749,401.192505C179.33548,401.273132,179.308075,401.331146,179.235519,401.368256C179.209717,401.368256,179.140396,401.413391,179.032379,401.503662C178.896957,401.60202,178.824402,401.692291,178.814728,401.774506C178.796997,401.882538,178.73735,401.927673,178.639008,401.908325C178.519699,401.890594,178.474548,401.814819,178.501968,401.679382C178.529373,401.543976,178.611603,401.418213,178.747025,401.300537C178.864716,401.200562,178.982407,401.124786,179.100098,401.069977L179.182312,401.057098zM181.600632,399.975281L182.280975,399.93338C182.434143,399.93338,182.476059,400.00592,182.403503,400.151031C182.330963,400.286438,182.23584,400.354156,182.118149,400.354156L181.43779,400.39447L181.302368,400.354156L181.287857,400.204224C181.342682,400.078461,181.447464,400.001099,181.600632,399.975281zM179.30484,400.028503C179.377396,400.038177,179.422531,400.083313,179.440277,400.16391C179.458008,400.244537,179.412857,400.317078,179.30484,400.379944L179.262924,400.39447L179.250031,400.407379C179.067856,400.479919,178.900177,400.57019,178.747025,400.678223L178.339127,401.042572L178.040878,401.273132L177.986053,401.205414C177.976379,401.132874,178.036041,401.016785,178.161789,400.853943L178.542267,400.434784C178.751862,400.236481,178.987244,400.101044,179.250031,400.028503L179.30484,400.028503zM189.08934,397.39093L190.067947,398.135773L190.150177,398.256683L190.027649,398.296997L190.000229,398.296997L188.913605,398.148651C188.821716,398.138977,188.753998,398.098694,188.708862,398.026123L188.668549,397.782684L188.736267,397.513458C188.781403,397.378021,188.853958,397.318359,188.953918,397.337708L189.08934,397.39093zM184.741211,400.299347C184.876633,400.289673,184.8992,400.357391,184.808929,400.502472C184.428436,401.087708,183.997986,401.331146,183.517548,401.232819C183.245087,401.178009,183.027435,401.024841,182.864594,400.773346C182.701767,400.537964,182.629211,400.281616,182.646957,400.001099C182.646957,399.90274,182.724335,399.817291,182.879105,399.744751C183.041946,399.681885,183.119324,399.712494,183.10965,399.839874C183.099976,400.010773,183.137054,400.178436,183.217682,400.339661C183.30957,400.502472,183.427261,400.628235,183.572357,400.718506C183.762604,400.826538,183.92543,400.858795,184.060852,400.813629C184.188217,400.768494,184.310745,400.650818,184.428436,400.462189C184.500992,400.354156,184.604172,400.299347,184.741211,400.299347zM198.617493,407.170593L198.169296,409.524414C198.159622,409.596954,198.104797,409.669495,198.004852,409.740448L197.761398,409.835571C196.900482,409.727539,196.089539,409.717865,195.328583,409.808167C194.403168,409.916168,193.638992,410.169281,193.031189,410.565887C192.66037,411.837921,192.079987,412.937439,191.291611,413.866089L190.666077,415.949066L190.027649,418.141663C189.366638,420.468079,188.681442,423.168518,187.975296,426.243011L188.518616,426.081787L190.30011,425.59491C192.30246,425.106384,193.942078,424.792023,195.218948,424.646912L200.465073,424.214844L200.465073,423.821472C200.021713,423.848877,199.5961,423.740845,199.188202,423.497406L199.120499,423.524811L189.429504,424.335754L189.4021,424.322876L190.653183,418.317383L190.7612,418.22226L190.870819,418.16745L196.755386,418.330292L196.727982,418.032013C196.76506,417.617676,197.235825,417.32428,198.141891,417.153381L198.372437,417.113068L196.320084,417.113068C196.239471,417.113068,196.215302,417.067932,196.25238,416.977631L197.801712,413.772583L197.883926,413.704865L197.937134,413.67746L202.612534,413.772583L202.694763,413.840271L202.667358,413.933777L201.363083,415.597595L200.887482,416.260193L200.357056,416.909943L201.824173,416.897034L202.232056,416.39563C204.016769,413.988617,205.911118,411.639618,207.913483,409.348663L209.653046,407.401123L209.76268,407.278595L209.653046,407.306L206.662399,407.468842L203.550842,407.333405L198.617493,407.170593zM196.715088,413.203461L195.123825,417.032471L194.960999,417.153381L192.215408,417.248505L192.14769,417.193665L192.229919,417.085663L192.310532,417.045349L194.948105,416.950226L194.960999,416.922821L196.360397,413.542023L196.442612,413.351776L196.51033,413.311493L194.593414,413.230865L193.50679,413.176056L193.329437,413.176056L191.984863,416.463348C191.947784,416.535889,191.88974,416.57135,191.807526,416.57135C191.754318,416.57135,191.739807,416.545563,191.767212,416.490753L193.166611,413.08255C193.211746,412.992249,193.271408,412.95517,193.343948,412.974518L196.673157,413.108337C196.718307,413.108337,196.732819,413.140594,196.715088,413.203461zM207.383057,408.9021L204.352112,412.284515C204.161865,412.490875,203.876511,412.598877,203.496033,412.608551L202.504517,412.553741L193.574493,412.513428L193.493896,412.473145L193.50679,412.378021L194.322571,410.889954C194.358032,410.827057,194.412842,410.80127,194.485397,410.809326C194.557953,410.819,194.575684,410.859314,194.540207,410.931854L193.792145,412.284515L203.795898,412.337708L204.039337,412.352203L204.094162,412.269989L207.070297,408.956909L199.025375,408.766663C198.95282,408.766663,198.925415,408.736023,198.943146,408.673157C198.970566,408.573212,199.020538,408.532898,199.093094,408.550629L207.342758,408.739258C207.387894,408.739258,207.415314,408.758606,207.424988,408.794067C207.433044,408.829529,207.420151,408.866608,207.383057,408.9021zM159.094208,423.037933C160.082489,425.030609,160.706406,427.041046,160.969208,429.070801L161.106232,429.070801C161.622147,429.710876,162.320236,430.273529,163.198883,430.762024C163.805084,431.103821,164.635361,431.469788,165.686523,431.85672C167.959732,432.722473,169.609024,433.402832,170.632782,433.899384C172.835052,434.96344,174.679413,436.009766,176.164261,437.038361L177.686188,438.092743C178.293991,438.489349,178.851807,438.755341,179.358047,438.890778C179.114609,437.592957,178.501968,435.974304,177.523346,434.03479C176.309357,431.608429,175.570969,430.026855,175.308182,429.286865L174.764862,427.663361C174.564957,426.915283,174.52948,426.320374,174.655243,425.878632C170.895569,424.551788,168.145142,423.542542,166.405563,422.847687C165.689743,422.559113,164.240372,422.077057,162.057434,421.40155C160.217911,420.824371,158.78627,420.287506,157.762512,419.790955C157.835068,420.242371,158.020477,420.792114,158.318726,421.441833L159.094208,423.037933zM162.395996,407.117371C162.523376,407.900909,162.758759,408.739258,163.10376,409.632416L164.109787,412.066864C165.223816,414.746338,165.912231,417.095337,166.175018,419.115417L167.574417,419.520081L167.561523,419.479797C167.524445,418.298035,167.701782,417.108215,168.091934,415.908752C168.480484,414.709259,169.033463,413.637146,169.749283,412.689178C170.88266,411.210785,172.199844,409.935516,173.704041,408.861786C175.398468,407.652618,177.084839,406.891663,178.759918,406.575684C178.371368,406.033966,178.089233,405.579346,177.91835,405.210144L177.781311,405.195618C177.084839,405.132751,176.567322,404.686157,176.231979,403.857483C175.88858,402.999786,176.001434,402.296875,176.572144,401.747101L176.776901,401.719696L176.626968,401.503662L176.464142,401.097382C175.313019,401.178009,174.302155,401.09256,173.433182,400.841034C172.672211,400.615326,172.059586,400.271942,171.598495,399.812469L165.331833,400.529907C163.086029,400.863617,161.033691,401.290863,159.176422,401.814819C160.217911,401.940582,161.011108,402.595123,161.554428,403.775269C161.87204,404.479797,162.152557,405.592224,162.395996,407.117371z"/>
</svg>
