<?xml version="1.0" encoding="UTF-8"?>
<svg xmlns="http://www.w3.org/2000/svg" xmlns:xlink="http://www.w3.org/1999/xlink" width="54.200mm" height="70.967mm" viewBox="-141.377472 385.619324 54.199814 70.966980">
    <path transform="matrix(-1,0,0,1,0,0)" style="stroke:none;fill:#000000;fill-rule:evenodd" d="M114.903519,385.622467L115.046906,385.63446L115.136307,385.646454L115.224274,385.667572L115.309387,385.697296L115.389648,385.734711L115.497055,385.791534L115.574448,385.83783L115.647003,385.89151L115.740967,385.981201L115.833801,386.08374L115.89093,386.153717L115.940628,386.229126L115.96376,386.270813L116.040878,386.419067L116.078293,386.501038L116.100006,386.562164L116.161133,386.755829L116.191696,386.884644L116.32309,387.714111L116.335938,387.767242L116.357071,387.822083L116.401627,387.908051L116.471603,388.018005L116.56958,388.150543L116.691833,388.295654L116.84549,388.461304L117.176254,388.788361L117.227661,388.84375L117.384476,389.02771L117.414185,389.064545L117.589844,389.294189L117.609833,389.32132L117.804626,389.596954L117.819763,389.619232L117.918884,389.768921L117.933731,389.792053L118.014847,389.923157L118.035995,389.959137L118.098541,390.071686L118.123398,390.119659L118.168243,390.213348L118.205933,390.305023L118.232224,390.380432L118.241638,390.412415L118.280197,390.440125L118.471573,390.591217L118.553543,390.664917L118.748352,390.862274L118.804047,390.923981L119.002548,391.166779L119.042831,391.220184L119.245056,391.509247L119.263046,391.535797L119.423004,391.782867L119.442993,391.815155L119.584381,392.055359L119.605225,392.092773L119.728043,392.326416L119.748611,392.368408L119.781738,392.440369L122.552048,392.592621L122.582901,392.594604L125.147827,392.825134L125.237228,392.837982L125.324921,392.859406L125.410034,392.889679L125.49144,392.928528L125.568558,392.975372L125.586838,392.989349L125.608261,392.984497L125.81134,392.94281L125.845612,392.936218L126.024139,392.906799L126.072113,392.900238L126.226074,392.883392L126.293762,392.878815L126.423157,392.874542L126.525406,392.876831L126.629944,392.885376L126.719345,392.897369L126.781326,392.911102L126.861588,392.931946L126.947571,392.959076L127.030396,392.994781L127.0961,393.030487L127.151794,393.063904L127.226624,393.114166L127.296036,393.1716L127.359436,393.236145L127.433426,393.331543L127.464264,393.377533L127.510544,393.454926L127.549103,393.536621L127.578796,393.621735L127.599945,393.709412L127.60965,393.773987L127.631927,393.971069L127.63765,394.06131L127.632507,394.167572L127.610229,394.37265L127.595947,394.461761L127.575378,394.540039L127.509399,394.753113L127.478546,394.837921L127.455414,394.888214L127.344879,395.109283L127.286606,395.208679L127.13208,395.438049L127.076385,395.512299L126.877869,395.749359L126.827606,395.804504L126.584824,396.049561L126.541397,396.090424L126.254639,396.343475L126.20665,396.383179L125.641968,396.815338L125.58313,396.856476L124.960449,397.257782L124.90419,397.291199L124.224106,397.661926L124.17041,397.689056L123.490616,398.002411L123.47377,398.155487L123.460342,398.240326L123.417786,398.443695L123.387512,398.552795L123.326096,398.730194L123.282684,398.834137L123.18071,399.0401L123.14386,399.107208L123.001617,399.341431L122.971344,399.387695L122.788544,399.650482L122.733414,399.721893L122.671158,399.787292L122.656876,399.799561L122.719131,400.071777L122.727417,400.111176L122.807404,400.550781L122.813675,400.591034L122.872513,401.026062L122.878799,401.089752L122.92308,401.795258L122.924789,401.860931L122.917084,402.556152L122.913651,402.624725L122.853104,403.309357L122.844238,403.378479L122.73114,404.052277L122.716858,404.12027L122.551468,404.783783L122.532059,404.850616L122.314117,405.503265L122.290405,405.566681L122.019928,406.209045L121.991638,406.269318L121.66832,406.900848L121.636612,406.957977L121.626328,406.974823L122.022202,407.141632L122.090179,407.173889L122.531189,407.405548L122.5849,407.436096L123.053604,407.725433L123.087601,407.747437L123.487183,408.019928L123.521469,408.044495L123.90564,408.333832L123.939056,408.360382L124.284943,408.64801L124.318359,408.576324L126.359741,404.942017L126.370026,404.915161L126.410583,404.834625L126.459137,404.758636L126.515121,404.687805L126.578247,404.622955L126.647079,404.564972L126.721924,404.514435L126.801331,404.471283L126.884445,404.436737L126.970993,404.410461L127.05954,404.393311L127.149216,404.38504L127.239471,404.386169L127.329163,404.396179L127.417419,404.415314L127.503403,404.443024L127.547958,404.461578L128.132355,404.722076L128.753586,404.94342L129.443665,405.138794L130.215424,405.308746L130.650726,405.389862L130.832672,405.418427L132.136566,402.093719L132.173691,402.011475L132.219101,401.933197L132.271942,401.860077L132.331924,401.792969L132.398483,401.731842L132.471024,401.678131L132.548431,401.631592L132.630127,401.593597L132.71524,401.563599L132.803207,401.542755L132.892609,401.530762L132.98288,401.527618L133.072845,401.533905L133.161682,401.549316L133.248505,401.573303L133.332764,401.606171L133.413025,401.647308L133.488724,401.696411L133.55899,401.752991L133.623245,401.816376L133.642395,401.839233L133.879456,401.520752L133.936874,401.451355L134.001129,401.387939L134.071396,401.33139L134.147095,401.282257L134.227356,401.240845L134.311325,401.208008L134.398438,401.183716L134.487274,401.168304L134.57724,401.161713L134.667511,401.164581L134.756912,401.176575L134.844589,401.197418L134.929993,401.227142L135.011688,401.265137L135.089096,401.311401L135.161636,401.365082L135.228195,401.425934L135.288452,401.493347L135.341583,401.566467L135.386993,401.64444L135.424133,401.72641L135.452988,401.812103L135.472977,401.900085L135.485535,402.018311L135.503815,402.485596L135.571228,402.866058L135.65892,403.133698L135.665482,403.018585L135.675201,402.928894L135.684341,402.880341L135.717758,402.726685L135.754318,402.602448L135.811722,402.449615L135.861145,402.341095L135.942825,402.189117L135.997955,402.099731L136.103638,401.948914L136.159332,401.877228L136.289291,401.72699L136.344131,401.669281L136.498383,401.520203L136.561218,401.464783L136.863129,401.223419L136.967667,401.151459L137.276718,400.969513L137.356689,400.927795L137.405533,400.906952L137.721146,400.784119L137.806839,400.755859L137.875107,400.739868L138.618881,400.595886L138.708282,400.583038L138.798248,400.57962L138.888504,400.585327L138.977341,400.599884L139.064453,400.623596L139.148712,400.655884L139.229553,400.696442L139.305527,400.744995L139.376358,400.800995L139.440918,400.863831L139.498886,400.932953L139.549728,401.007477L139.592575,401.086884L139.627426,401.170288L139.653412,401.256561L139.670837,401.345093L139.679123,401.435059L139.677979,401.52533L139.667984,401.615021L139.649139,401.703003L139.62114,401.788971L139.584869,401.871521L139.540314,401.950073L139.494034,402.015747L137.680298,404.365326L137.699158,404.379333L137.91394,404.521271L140.474304,405.872284L140.828781,406.042816L140.907898,406.085938L140.9953,406.147064L141.033569,406.177338L141.101563,406.236755L141.162964,406.303009L141.217499,406.374725L141.264343,406.451843L141.303497,406.533234L141.342346,406.648071L141.348602,406.671753L141.367188,406.76004L141.376892,406.850006L141.377472,406.939972L141.368896,407.029938L141.351196,407.1185L141.324921,407.204742L141.289764,407.287872L141.246368,407.366974L141.195221,407.441528L141.156403,407.487518L141.147827,407.52179L141.117554,407.606903L141.078705,407.688324L141.032135,407.765442L140.959595,407.858276L139.129288,409.912201L135.787445,414.015808L134.911438,415.13205L135.115082,415.280853L135.188202,415.340851L135.413559,415.545349L135.483261,415.615631L135.682053,415.840973L135.744034,415.920105L135.915985,416.166016L135.967972,416.249725L136.113358,416.516205L136.15477,416.603027L136.2733,416.890076L136.304718,416.978912L136.426117,417.392212L136.448959,417.490479L136.528076,417.944336L136.53894,418.032013L136.575211,418.526154L136.577499,418.602142L136.571213,419.136841L136.568634,419.19397L136.555496,419.36618L136.553787,419.387329L136.534653,419.5784L136.532654,419.595551L136.507523,419.805786L136.505798,419.818909L136.47496,420.047974L136.473236,420.059692L136.436401,420.307892L136.434967,420.317322L136.39241,420.584381L136.390976,420.593262L136.342422,420.879456L136.341003,420.887451L136.286438,421.1922L136.279877,421.225616L135.859146,423.149048L135.857422,423.156769L135.428131,425.039032L135.403564,425.187836L135.381287,425.390076L135.364716,425.632294L135.353577,425.923065L135.348724,426.274963L135.351013,426.646545L135.359573,427.058716L135.376144,427.529999L135.376434,427.539703L135.386429,427.951019L135.386719,427.979858L135.383575,428.366882L135.382721,428.401154L135.36586,428.764191L135.363297,428.802185L135.333023,429.14093L135.327881,429.184906L135.28389,429.499695L135.275314,429.549957L135.217621,429.840424L135.204483,429.897858L135.133072,430.164063L135.112793,430.228882L135.106232,430.248016L136.201035,433.31308L137.423233,436.548676L137.430954,436.570099L137.806549,437.646912L137.809692,437.655762L138.1633,438.70517L138.166443,438.714874L138.498047,439.736847L138.50148,439.747437L138.810822,440.742828L138.813965,440.753693L139.247833,442.21582L139.264969,442.282379L139.355789,442.705658L139.366653,442.76709L139.422058,443.156372L139.429489,443.232635L139.449188,443.587982L139.449478,443.681671L139.433487,444.003571L139.424637,444.093231L139.406357,444.181793L139.371506,444.289185L139.357513,444.32431L139.319809,444.406281L139.274109,444.484283L139.220688,444.557098L139.160431,444.623932L139.093582,444.684479L139.020752,444.73819L138.943069,444.783905L138.877365,444.815033L138.849091,444.827026L138.764252,444.858154L138.676865,444.880432L138.587738,444.893585L138.497482,444.897858L138.407516,444.893005L138.318115,444.878998L138.260406,444.865021L138.217575,444.853027L138.132172,444.824158L138.049911,444.787048L137.989929,444.753052L137.93251,444.717621L137.833405,444.64679L137.761703,444.587677L137.711441,444.542816L137.625183,444.459991L137.59433,444.428864L137.49379,444.322327L137.474075,444.300903L137.358978,444.170654L137.284134,444.072968L136.484665,442.867035L136.4561,442.821075L136.26387,442.489166L136.25502,442.47345L136.04509,442.093292L136.037949,442.080414L135.810303,441.651703L135.80545,441.641998L135.559799,441.165283L135.555237,441.156433L135.291885,440.631165L135.288452,440.624298L135.007111,440.050751L135.003967,440.044464L134.704926,439.422943L134.702637,439.417816L134.38559,438.747742L134.381882,438.739716L133.882599,437.657501L133.88031,437.652924L133.645248,437.135345L133.643524,437.131653L133.418167,436.629517L133.416748,436.626099L133.201096,436.139954L133.199387,436.135651L132.993439,435.664948L132.99144,435.660675L132.795212,435.205658L132.792938,435.200531L132.606705,434.76123L132.604706,434.756653L132.427902,434.332794L132.425613,434.326782L132.258804,433.918915L132.256241,433.912903L132.099136,433.520447L132.096573,433.513885L131.949188,433.137146L131.946335,433.12973L131.808655,432.768402L131.805801,432.760132L131.721542,432.531891L130.939789,432.890381L130.921783,432.898376L130.05777,433.271667L130.040909,433.278809L129.130325,433.650146L129.114914,433.656128L128.182907,434.016296L128.152634,434.511017L128.151199,434.532715L128.067795,435.506714L128.065506,435.530121L127.959549,436.475555L127.956406,436.499542L127.828156,437.416138L127.824158,437.442139L127.67334,438.330139L127.668488,438.356689L127.495407,439.216156L127.48912,439.24472L127.293457,440.075043L127.285172,440.107025L127.126648,440.683136L127.121231,440.70285L126.943848,441.294098L126.938141,441.311798L126.742203,441.918762L126.736771,441.935608L126.522263,442.557434L126.516556,442.572845L126.283478,443.210358L126.278061,443.22522L126.026138,443.877594L126.020706,443.891296L125.750214,444.559113L125.744797,444.572235L125.455444,445.255188L125.448303,445.271179L125.414597,445.346283L125.475723,445.369415L125.55571,445.404266L126.199509,445.721893L126.275772,445.76416L126.887009,446.144043L126.957275,446.192596L127.535965,446.63446L127.601364,446.689606L127.867004,446.936096L127.938416,447.010345L128.164917,447.275421L128.230896,447.363098L128.418549,447.647034L128.474823,447.744995L128.623627,448.047485L128.665909,448.14859L128.732742,448.341095L128.757874,448.427917L128.767014,448.471924L128.798431,448.642426L128.810425,448.732117L128.813004,448.829803L128.808716,448.978912L128.801575,449.068878L128.785294,449.15741L128.768723,449.217987L128.729019,449.345642L128.697891,449.430206L128.658478,449.511322L128.603638,449.598724L128.528229,449.704407L128.471954,449.774933L128.409119,449.839783L128.341141,449.896912L128.230026,449.981171L128.155487,450.032013L128.042664,450.090271L127.896133,450.153107L127.811584,450.184265L127.739609,450.203674L127.557098,450.244507L127.462845,450.260223L127.160934,450.294495L127.079819,450.299927L126.765335,450.306793L126.69165,450.305359L126.364594,450.28537L126.295486,450.278503L125.955872,450.231079L125.894745,450.220245L125.542572,450.145691L125.487732,450.132538L125.122696,450.030853L125.074707,450.016022L124.697113,449.887482L124.653976,449.87149L124.263809,449.71582L124.226959,449.700104L124.041885,449.616425L124.020737,449.606415L123.797668,449.498444L123.781952,449.490753L123.521469,449.358215L123.51033,449.352509L123.211838,449.195404L123.203278,449.190826L122.867096,449.009186L122.860519,449.005463L122.486923,448.79953L122.481781,448.796661L122.07019,448.566162L122.069336,448.565613L122.040207,448.582153L121.93367,448.626709L121.853409,448.654419L121.766861,448.679565L121.634033,448.700409L121.534363,448.708405L121.444092,448.710999L121.37384,448.70697L121.25444,448.694977L121.143326,448.676422L121.004517,448.64444L120.927963,448.623291L120.76973,448.571594L120.712891,448.550751L120.535233,448.479065L120.492676,448.460785L120.295593,448.36908L120.215607,448.326813L119.23848,447.744995L119.163361,447.695007L119.084534,447.629028L118.884583,447.441376L118.822037,447.376251L118.746353,447.276001L118.593536,447.04007L118.548401,446.961792L118.505569,446.864105L118.400162,446.578766L118.373322,446.492798L118.357895,446.421692L118.300201,446.087494L118.289337,445.997803L118.287628,445.907562L118.295059,445.817871L118.311615,445.729034L118.337036,445.642487L118.341324,445.631622L118.315903,445.550507L118.297623,445.46225L118.288483,445.37085L117.950012,438.628632L117.950012,438.592621L115.278549,440.307831L115.231415,440.33609L114.758133,440.600311L114.730133,440.615448L114.26799,440.852234L114.237717,440.867096L113.786713,441.077026L113.752716,441.091858L113.313141,441.274689L113.275146,441.28952L112.84642,441.44519L112.805008,441.458893L112.387421,441.587708L112.357437,441.596283L112.351715,441.909912L112.35144,441.917908L112.340286,442.326935L112.340012,442.334076L112.324875,442.761658L112.324585,442.767944L112.30574,443.213806L112.30545,443.219513L112.282883,443.68338L112.282883,443.688507L112.256607,444.170654L112.256027,444.176361L112.225479,444.676788L112.225189,444.680786L112.191193,445.199188L112.190918,445.203766L112.152924,445.740448L112.152634,445.744446L112.110931,446.299438L112.110657,446.304871L112.015823,447.469086L112.015244,447.475647L111.905289,448.712708L111.904999,448.717255L111.844452,449.362793L111.843872,449.366791L111.779037,450.024597L111.778748,450.02887L111.714203,450.653809L111.713623,450.659241L111.648788,451.251343L111.648224,451.2565L111.583664,451.81604L111.582809,451.821747L111.518539,452.348724L111.517685,452.356171L111.45314,452.850586L111.451996,452.858002L111.387726,453.31958L111.386581,453.328735L111.322311,453.758026L111.320038,453.771729L111.249771,454.195892L111.245773,454.219299L111.170074,454.611176L111.164368,454.637756L111.083527,454.99707L111.076111,455.027924L110.854752,455.871094L110.827332,455.957062L110.791626,456.039886L110.747635,456.118439L110.687363,456.203003L110.647659,456.252411L110.587677,456.319824L110.521133,456.380646L110.448868,456.434631L110.37146,456.481201L110.28978,456.51947L110.204651,456.549164L110.116684,456.570313L110.027283,456.582306L109.9673,456.585449L109.915314,456.586304L109.825348,456.58316L109.735947,456.570892L109.648254,456.549744L109.562851,456.519745L109.481445,456.481476L109.404037,456.435211L109.362335,456.405487L109.298645,456.357239L109.229523,456.29895L109.166687,456.234131L109.131836,456.192139L109.056717,456.095032L108.993027,456.000488L108.841934,455.742859L108.78537,455.628876L108.658264,455.317535L108.625992,455.223297L108.522598,454.857971L108.504318,454.780853L108.424911,454.360687L108.414337,454.287567L108.264389,452.852875L108.209839,452.375854L108.208405,452.363312L108.156998,451.848022L108.155853,451.836334L108.108719,451.290771L108.107864,451.280212L108.065018,450.704376L108.064453,450.694672L108.025894,450.089142L108.025314,450.080841L107.990753,449.445038L107.990479,449.436768L107.96048,448.770691L107.96019,448.76355L107.934494,448.067749L107.886215,446.918396L107.885941,446.91095L107.84938,445.825012L107.849091,445.816437L107.824524,444.798462L107.824234,444.788757L107.811676,443.83905L107.811676,443.827911L107.811096,442.946167L107.811096,442.933319L107.822235,442.119568L107.822525,442.104126L107.845657,441.358643L107.846512,441.340088L107.874802,440.79538L106.262146,439.700287L105.708878,439.327271L105.127625,438.955658L104.496964,438.572052L103.846298,438.194183L103.14537,437.804871L102.423309,437.420135L101.651825,437.024811L100.832077,436.620087L100.467331,436.445862L100.021179,436.243347L99.510483,436.021118L98.937225,435.78006L98.303421,435.520416L97.595627,435.237366L97.513092,435.205078L94.394043,440.473206L94.379181,440.497467L92.425201,443.570251L92.374649,443.641388L91.54776,444.697357L91.537766,444.710205L91.371521,444.914703L91.362961,444.924988L91.217865,445.098083L91.204727,445.11322L91.080185,445.255188L91.060196,445.277161L90.956512,445.387695L90.922241,445.422546L90.839401,445.501678L90.767715,445.56308L90.705444,445.611084L90.63147,445.662476L90.552353,445.706177L90.499222,445.729889L90.458084,445.746735L90.372971,445.776733L90.285278,445.797882L90.195877,445.81015L90.105621,445.813293L90.015656,445.807281L89.926819,445.792145L89.839706,445.768158L89.755737,445.735321L89.675186,445.694458L89.609497,445.652771L89.588638,445.638214L89.517517,445.582794L89.452118,445.520538L89.393555,445.451965L89.342148,445.377716L89.298447,445.298889L89.263031,445.215759L89.236176,445.129791L89.217331,445.035828L89.185043,444.814453L89.176483,444.724762L89.176483,444.647369L89.188187,444.377441L89.20076,444.262054L89.256744,443.942993L89.274445,443.863037L89.37471,443.494568L89.400131,443.416016L89.820862,442.292358L89.822571,442.287506L91.220139,438.618347L91.229568,438.595215L92.380356,435.810913L92.380081,435.810913L92.548599,435.396179L92.705688,435.003723L92.851654,434.630127L92.851929,434.630127L92.985886,434.280243L93.11499,433.935181L93.228394,433.622986L93.299515,433.421631L92.730835,433.076294L92.667709,433.034332L92.111588,432.628448L92.045609,432.575317L91.5569,432.142029L91.490341,432.076324L91.069626,431.615906L91.012207,431.546478L90.962219,431.471375L90.919952,431.391693L90.885956,431.307983L90.860535,431.221436L90.843979,431.132629L90.836548,431.040924L90.816833,430.366547L90.757431,429.699036L90.753998,429.60907L90.75972,429.518829L90.774567,429.430573L90.756577,429.388855L90.729431,429.302612L90.710587,429.210632L90.600906,428.479706L90.461807,427.769348L90.288147,427.051849L90.082199,426.33493L89.84256,425.615143L89.56665,424.885651L89.262451,424.167023L88.914566,423.423828L88.132507,421.835449L88.110229,421.786316L87.913727,421.317596L87.897446,421.276459L87.741196,420.845184L87.72406,420.792908L87.608383,420.399017L87.591248,420.330475L87.516418,419.97345L87.502411,419.884308L87.497559,419.794342L87.501846,419.704102L87.510696,419.644379L87.497269,419.608124L87.474991,419.520721L87.461578,419.43161L87.457291,419.341339L87.45929,419.28537L87.483566,418.917175L87.493851,418.827484L87.509842,418.75238L87.595825,418.420197L87.622955,418.334229L87.661514,418.245117L87.809464,417.948914L87.853745,417.870361L87.913437,417.787231L88.123367,417.527313L88.18364,417.4599L88.249908,417.399658L88.52153,417.17572L88.593796,417.121735L88.650925,417.086884L88.984543,416.898956L89.102509,416.843231L89.498093,416.691284L89.598633,416.659302L89.59436,416.240845L89.580078,415.573914L89.559219,414.943237L89.531235,414.328583L89.495529,413.726776L89.453537,413.163513L89.406128,412.641663L89.348709,412.114685L89.266449,411.47287L89.171051,410.850494L89.061661,410.247253L88.936844,409.657135L88.802017,409.100739L88.652359,408.55835L88.488403,408.032196L88.312744,407.531799L88.100525,406.952545L88.097946,406.945099L87.910294,406.418427L87.90744,406.410126L87.743774,405.936554L87.740067,405.925415L87.600952,405.5047L87.59639,405.490997L87.481277,405.123108L87.475571,405.103943L87.384735,404.78891L87.377319,404.760925L87.31076,404.498413L87.301056,404.455872L87.258774,404.24649L87.250214,404.197388L87.212509,403.936035L87.206787,403.886047L87.185654,403.64325L87.182236,403.584137L87.177658,403.360474L87.179092,403.289948L87.191086,403.085144L87.199936,403.002319L87.2285,402.816071L87.249069,402.718689L87.294189,402.551605L87.331619,402.44162L87.393311,402.293396L87.452438,402.176575L87.530411,402.046875L87.580673,401.971771L87.617813,401.925781L87.712646,401.815247L87.774902,401.749847L87.821747,401.70813L87.933151,401.61615L88.005402,401.562469L88.058823,401.529327L88.186493,401.456482L88.267044,401.415924L88.315033,401.39624L88.459549,401.341949L88.581238,401.305969L88.742035,401.270538L88.852295,401.253418L89.029953,401.237122L89.094498,401.234558L89.131058,401.190582L89.195618,401.127441L89.266174,401.071198L89.342148,401.022339L89.422409,400.981201L89.506668,400.948639L89.553223,400.934662L90.258438,400.743286L90.273285,400.739288L90.996216,400.556488L91.011063,400.552765L91.752274,400.378815L91.766556,400.375671L92.526031,400.210602L92.539459,400.207733L93.31694,400.051208L93.330078,400.048645L94.125549,399.90097L94.138397,399.898682L94.952148,399.759857L94.964142,399.757874L95.796188,399.627625L95.832748,399.622772L101.081711,399.022095L101.074005,399.00238L101.036011,398.880127L100.970322,398.600494L100.954041,398.511688L100.947479,398.438263L100.942047,398.322601L100.942337,398.23233L100.952042,398.142639L100.960892,398.094666L100.986038,397.97699L101.009171,397.889862L101.050583,397.78476L101.106567,397.665375L101.149124,397.585663L101.189392,397.523987L101.27652,397.402588L101.332779,397.332031L101.363632,397.298889L101.481308,397.17865L101.547577,397.117523L101.591568,397.083252L101.742371,396.972717L101.839203,396.910736L102.022293,396.809906L102.105972,396.769348L102.321915,396.678223L102.390182,396.652802L102.638962,396.571136L102.6978,396.553986L102.979141,396.482574L103.025986,396.472015L103.340179,396.410034L103.380737,396.402893L103.727768,396.350891L103.819458,396.342041L104.957962,396.290344L104.967957,396.258087L105.003098,396.175232L105.046509,396.09613L105.097931,396.021576L105.175049,395.933594L105.201889,395.906769L105.268723,395.846191L105.349564,395.787659L105.400116,395.755096L105.407547,395.750793L105.400406,395.714539L105.387268,395.625397L105.38327,395.535156L105.388123,395.44519L105.388412,395.443176L105.369553,395.398895L105.342987,395.312653L105.324432,395.218384L104.956818,392.632599L104.948547,392.542908L104.949677,392.452667L104.959686,392.362976L104.978821,392.274719L105.006805,392.189026L105.057938,392.078217L105.247589,391.732605L105.257874,391.71402L105.446671,391.388702L105.458679,391.368713L105.646896,391.06308L105.660614,391.041962L105.847702,390.756592L105.863403,390.733185L106.049637,390.467834L106.068207,390.442688L106.253571,390.197357L106.274704,390.170227L106.459229,389.94458L106.48465,389.914581L106.668304,389.709198L106.698288,389.67749L106.881104,389.492126L106.916229,389.458435L107.098175,389.29306L107.139587,389.257904L107.320969,389.112244L107.370087,389.075409L107.550323,388.950012L107.607727,388.913177L107.787109,388.80777L107.852798,388.772644L108.031311,388.686951L108.108444,388.654388L108.286377,388.588684L108.373215,388.561554L108.550018,388.516144L108.593155,388.506134L109.115555,388.399323L109.710526,388.267944L110.264069,388.126556L110.774765,387.976013L111.27948,387.804932L111.366302,387.780365L111.455139,387.764648L111.545105,387.758087L111.635361,387.760376L111.725052,387.772095L111.812744,387.792664L111.898148,387.822083L111.960693,387.850922L112.122925,387.56842L112.171768,387.492737L112.228043,387.42218L112.298309,387.351074L113.005524,386.711823L113.208023,386.513611L113.224884,386.497314L113.412537,386.32309L113.436539,386.301392L113.595337,386.164276L113.633331,386.133453L113.76358,386.032898L113.830978,385.985779L114.019791,385.866089L114.098328,385.821533L114.13974,385.802399L114.313416,385.72641L114.397675,385.694427L114.492783,385.669586L114.651306,385.637299L114.740707,385.623596L114.830673,385.619324L114.903519,385.622467zM117.891129,420.738922L117.958847,420.927551L117.971741,420.751831L117.891129,420.738922zM130.361557,419.194427L130.767838,419.126709C130.867798,419.108978,130.812973,419.091248,130.605011,419.073517L129.953674,419.031616L129.953674,419.276672L130.361557,419.194427zM111.838898,415.633057L112.611145,415.647583L112.259689,415.512146L111.946915,415.254211L111.838898,415.633057zM121.431541,397.571503C121.666924,398.085785,121.874893,398.609772,122.057076,399.141785C122.327927,398.772583,122.490761,398.479156,122.545578,398.261536C122.616516,397.982605,122.631027,397.734344,122.585876,397.516693C122.540741,397.310333,122.453682,397.197479,122.327927,397.179718C122.265053,397.179718,122.187668,397.210358,122.097382,397.273254C121.871674,397.44574,121.649185,397.544098,121.431541,397.571503zM116.84642,410.325684C116.611038,410.704529,116.28537,411.002808,115.869423,411.220459C116.158005,411.301056,116.470779,411.449371,116.804504,411.667023L117.428429,411.652527L117.891129,409.987122L116.84642,410.325684zM133.698837,403.257751C134.232468,404.215393,135.228821,405.010223,136.684647,405.640594C135.254608,404.68457,134.558136,403.488312,134.595215,402.053436L133.698837,403.257751zM136.834579,404.002594L138.788574,401.471436L138.367783,401.552032C137.932495,401.597168,137.516541,401.800323,137.118332,402.161469C136.674973,402.558044,136.489563,402.964325,136.562119,403.38028C136.589523,403.578583,136.67981,403.78656,136.834579,404.002594zM118.785904,420.764709L118.392532,420.764709L118.36512,422.349518L118.36512,422.389832C118.510223,422.94928,118.605339,423.540955,118.650482,424.163269L119.532356,420.684113L118.785904,420.764709zM116.656181,434.102539L117.009254,434.832855L118.500549,433.438293C118.084595,433.006226,117.668648,432.65799,117.252693,432.39682C116.646507,432.00827,116.330513,432.084045,116.303101,432.625732C116.28537,433.051361,116.403061,433.543091,116.656181,434.102539zM109.599541,397.05719L107.169952,397.097504C107.124802,398.055176,107.219925,398.978943,107.455307,399.873718C107.681015,399.133728,108.093742,398.524323,108.690262,398.045471C109.015923,397.784302,109.396408,397.526367,109.830093,397.273254L109.599541,397.05719zM109.286774,393.49585C108.219498,393.992401,107.215088,394.674347,106.275169,395.5401L106.34288,395.878693L107.061928,395.77066L107.061928,395.743256L109.151352,395.053223L109.897804,394.701782L108.948212,394.714661L109.842987,394.160065L108.840195,394.213257L109.775276,393.645782L108.880501,393.766693L109.286774,393.49585zM124.269028,409.798492C124.014297,409.979065,123.780525,410.172516,123.562881,410.380493C124.792992,409.577606,126.389076,409.264832,128.352753,409.445404L128.759033,407.197998C128.533325,407.288269,128.149612,407.501099,127.6063,407.834808L126.53418,408.499054L124.269028,409.798492zM120.223999,396.663818C120.559334,397.016907,120.907578,397.210358,121.268707,397.245819C121.523438,397.265167,121.739471,397.200684,121.920036,397.05719C122.245705,396.804077,122.495598,396.457458,122.666489,396.014099C122.829323,395.599762,122.888977,395.193481,122.843834,394.795288L122.137688,395.053223L120.847916,395.499817L119.654892,395.810974L120.223999,396.663818zM117.781502,411.652527L118.840721,411.652527L119.993454,411.002808L120.170792,409.879089C120.215935,409.437347,120.246567,408.935944,120.265915,408.376526C119.685516,408.971436,119.034187,409.445404,118.31192,409.798492L117.781502,411.652527zM109.27388,406.954559C109.146515,408.236267,109.491531,409.409943,110.305695,410.475616C110.749046,411.062469,111.638992,411.892731,112.978729,412.966461C113.014198,412.650482,113.24958,412.389313,113.683266,412.181335L114.403923,411.559021L114.05085,411.544495C112.911018,411.436493,111.906616,410.972168,111.037636,410.149933C110.105774,409.264832,109.707565,408.286224,109.842987,407.212494L109.599541,406.901337L109.27388,406.954559zM107.80838,415.903931C107.094177,416.535889,106.713692,417.285583,106.668549,418.152954C106.613739,419.036438,106.926498,419.821594,107.60524,420.508392C107.958313,420.859833,108.342026,421.135529,108.757973,421.333832C109.219063,421.551483,109.680153,421.641754,110.14286,421.604675L110.603951,421.158112C109.934883,420.967865,109.391571,420.666382,108.975616,420.250427C108.441978,419.718414,108.061493,419.104156,107.835785,418.409302C107.572998,417.63382,107.572998,416.924438,107.835785,416.284393L108.01152,415.918427L107.80838,415.903931zM122.137688,435.429382C120.799553,433.307709,119.219589,432.138855,117.402634,431.922821C118.523117,432.517731,119.772575,433.78653,121.147789,435.727631C122.531067,437.694519,123.196907,439.151947,123.14209,440.099945C123.422615,439.675934,123.390373,438.877869,123.046974,437.704193C122.793854,436.836823,122.490761,436.079102,122.137688,435.429382zM123.059868,397.220032C124.082008,396.786346,124.950989,396.272064,125.665199,395.675537C126.489037,394.990356,126.84211,394.389008,126.724419,393.874695C126.624466,393.595795,125.47657,393.852142,123.277519,394.646942C123.385536,395.288605,123.227539,395.910919,122.803528,396.515503C122.919609,396.696075,123.006668,396.931458,123.059868,397.220032zM113.547844,434.453979L113.873505,436.20163L114.266891,437.934753L114.266891,437.947632C114.682838,437.721924,115.168114,437.428528,115.719482,437.067383L117.130173,436.14679C116.751297,435.587372,116.451431,435.073059,116.235397,434.603912C115.258392,434.576508,114.349106,434.458832,113.507538,434.250854L113.547844,434.453979zM131.554596,406.021088L134.05191,406.182312L137.553619,406.345123C136.404114,405.975952,135.444855,405.501953,134.675827,404.923157C133.716568,404.200897,133.147461,403.367371,132.966888,402.419403L131.554596,406.021088zM124.091682,409.675964C123.630592,409.234222,123.129196,408.835999,122.585876,408.484528C121.942612,408.060516,121.373505,407.789673,120.875328,407.671997L120.727005,407.862213C120.709274,408.73764,120.644783,409.540527,120.536766,410.272461L120.481949,410.678741C120.454544,410.84964,120.401337,410.972168,120.319115,411.043121C120.120819,411.233337,119.817719,411.441315,119.409828,411.667023C120.469055,411.684753,121.408966,411.787964,122.232803,411.97818L122.666489,411.15274C122.974426,410.646515,123.440353,410.164459,124.064278,409.703369L124.091682,409.675964zM127.062981,413.305054L125.150902,413.224426L124.064278,413.169617L123.901443,413.169617L123.80632,413.385651C123.75312,414.704437,123.522575,415.923279,123.114685,417.042145L125.502365,416.947021L126.914658,413.535583L126.99527,413.345337L127.062981,413.305054zM115.258392,413.562988C117.39296,413.237335,119.545258,413.232483,121.716904,413.548492L122.640694,413.385651C123.019562,413.287292,123.24527,413.159943,123.317825,413.006775C123.164665,412.565033,122.382744,412.279663,120.970451,412.153931L118.337708,412.099121L115.258392,412.316742C115.058479,412.334503,114.71508,412.424774,114.226578,412.587616C113.638123,412.785919,113.434982,412.939056,113.615555,413.047089C114.05085,413.300201,114.574814,413.485596,115.190681,413.603302L115.258392,413.562988zM130.035889,406.182312C128.913803,405.966278,127.964211,405.663177,127.185509,405.276245L127.172615,405.316559L125.096085,409.013336L127.388649,407.76709L128.297928,407.238312C128.668747,407.022278,128.986343,406.873932,129.249146,406.791718L129.831146,406.778809L130.442169,406.833649L137.443985,407.009369L138.923996,407.009369L140.40239,406.927155C140.50235,406.919067,140.515244,406.891663,140.442703,406.846527L140.076721,406.670807L139.099731,406.156494L137.458496,405.289124C136.69754,404.810303,136.254181,404.346008,136.128433,403.894592L135.910782,404.313751L135.855972,404.395966C136.263855,404.874817,136.792664,405.293976,137.443985,405.655121C138.03244,405.988831,138.666046,406.246796,139.344788,406.427368C139.452805,406.453156,139.465698,406.512817,139.385086,406.603088C139.302872,406.693359,139.22226,406.738525,139.14003,406.738525L134.56781,406.643402C132.766983,406.580505,131.256332,406.427368,130.035889,406.182312zM127.062981,416.893799L130.632416,416.893799L132.924973,413.982178L128.515579,413.899933L127.158104,416.743866L127.062981,416.893799zM107.523026,407.483368C107.377922,408.341064,107.487549,409.306763,107.848686,410.380493C108.101807,411.138245,108.517746,412.036224,109.098145,413.074493L109.409302,413.61618C109.499588,413.696808,109.676926,413.724213,109.93811,413.696808L110.752274,413.643616L111.119858,413.61618L111.676071,413.575897L111.729271,413.588776L111.729271,413.630707C112.01947,413.467865,112.267746,413.355011,112.475723,413.292145C111.127914,412.189392,110.223465,411.323639,109.762375,410.69165C108.975616,409.600189,108.667686,408.394257,108.840195,407.077087L108.840195,407.049683C108.414566,407.157684,107.976051,407.302795,107.523026,407.483368zM118.515053,392.02066C118.242592,391.604706,117.981415,391.311279,117.728294,391.140411C115.193909,391.71756,113.164139,392.228638,111.634148,392.67038L111.010223,393.104065L111.906616,392.981537L110.957024,393.550659L111.974327,393.49585L111.077942,394.050446L112.014633,394.037537L111.092453,394.484131C112.512802,394.07785,113.738083,393.794098,114.769897,393.631256L119.043861,392.968628C118.916496,392.67038,118.740761,392.354401,118.515053,392.02066zM106.546021,398.614594C106.491211,398.190582,106.487984,397.689178,106.533127,397.11203L103.860085,397.232941C102.891144,397.358673,102.272064,397.589233,102.001205,397.922974C101.864166,398.085785,101.810966,398.243774,101.838379,398.396942C101.964127,399.164368,102.489708,399.756042,103.411888,400.171997C104.34375,400.586334,105.519043,400.757233,106.9394,400.686279C106.749161,400.026886,106.618568,399.336853,106.546021,398.614594zM105.569023,400.157471C105.415863,400.257446,104.995071,400.197784,104.306664,399.98175C103.556992,399.746368,103.03141,399.452942,102.733154,399.101471C102.425217,398.750031,102.372017,398.406616,102.570313,398.072906C102.750885,397.747223,102.958862,397.634369,103.194244,397.734344C103.311935,397.77948,103.352234,398.000336,103.316772,398.396942C103.271629,398.830627,103.334503,399.124054,103.507004,399.277222C103.677902,399.422302,104.118034,399.602875,104.822571,399.818909C105.401352,399.999481,105.651245,400.112335,105.569023,400.157471zM119.925735,420.603516L118.542465,426.249451L119.084167,426.086609L120.862427,425.599731C122.861572,425.111237,124.499573,424.795258,125.774826,424.651764L131.025787,424.218079L131.012894,423.824707C130.577591,423.852112,130.156815,423.74408,129.750534,423.500641L129.682816,423.528046L120.007965,424.340607L119.966042,424.32608L120.807617,420.318146L119.925735,420.603516zM122.382744,439.016541C121.794289,437.762238,121.034935,436.535339,120.103081,435.334259L118.623077,433.57373L117.10276,435.023102C118.587601,437.920227,120.128876,439.663025,121.731407,440.249878C122.128014,440.393372,122.458519,440.438507,122.721306,440.385315C122.721306,440.275665,122.671326,440.032227,122.571373,439.653351L122.382744,439.016541zM122.057076,447.533844C123.304924,448.246429,124.151337,448.697845,124.594696,448.888092C125.652298,449.339508,126.574486,449.502319,127.362854,449.374969C127.896492,449.294373,128.049652,448.983215,127.823944,448.441498C127.651436,448.025543,127.375748,447.659576,126.99527,447.343597C126.24559,446.713226,125.408859,446.247284,124.485062,445.949036C124.286758,446.066711,123.996567,446.148956,123.617691,446.194092L122.776123,446.26181C121.165527,446.460083,119.966042,446.352081,119.179283,445.936127C119.224426,446.414948,119.396935,446.761597,119.69519,446.979248L120.672188,447.561249C121.223564,447.832092,121.568573,447.890137,121.704002,447.736969C121.849106,447.556396,121.965179,447.488678,122.057076,447.533844zM96.951767,434.441101L95.297646,433.763947L94.278732,433.317383C94.025612,434.075104,93.669312,435.01825,93.206612,436.14679L92.053879,438.935913L90.656097,442.605316L90.235313,443.729004C90.072479,444.252991,90.027336,444.644745,90.099884,444.907532C90.127289,444.988159,90.375572,444.735046,90.846336,444.148193L91.673401,443.092194L93.627396,440.019318L96.898567,434.494293L96.951767,434.441101zM132.288147,431.461731C132.839523,433.096497,133.808456,435.397125,135.191742,438.366821C136.060715,440.217621,136.739456,441.554138,137.227951,442.374756L138.027618,443.580688C138.353271,443.959564,138.525787,444.085327,138.543518,443.959564C138.588654,443.553284,138.538681,443.056732,138.393585,442.469879L137.9599,441.007599C137.561676,439.698486,137.105423,438.318451,136.589523,436.864227L135.367462,433.62854L134.201843,430.365417L132.288147,431.461731zM119.301811,393.30722L114.823097,394.010132C113.873505,394.155243,112.778824,394.398682,111.540642,394.742065L107.998627,395.77066C106.280006,396.294617,105.569023,396.573547,105.867279,396.610626C107.650383,396.799255,110.463684,396.663818,114.308807,396.204346C117.600937,395.806122,119.740334,395.454681,120.727005,395.148346L122.002258,394.701782C123.314598,394.250336,124.336739,393.919861,125.06868,393.71347L122.503662,393.482941L119.301811,393.30722zM129.505478,417.353302C128.800949,417.408112,128.267303,417.543518,127.904556,417.759583C127.588562,417.940125,127.665947,418.130371,128.135101,418.328674C128.488174,418.464111,128.791275,418.544708,129.044388,418.572113L130.496979,418.639832C131.120911,418.675293,131.396606,418.81073,131.324051,419.046112C131.243439,419.27182,130.930664,419.437866,130.388962,419.547516L128.949265,419.831268C128.488174,419.93927,128.081894,420.137573,127.728828,420.426147C127.285469,420.796967,127.340286,421.090393,127.891663,421.306427C128.380157,421.496674,128.949265,421.577271,129.600601,421.551483C130.216461,421.524078,130.782349,421.406372,131.296646,421.198425C131.451416,421.135529,131.504623,421.17099,131.459473,421.306427C131.414337,421.433777,131.338562,421.519226,131.228928,421.564392L130.184219,421.754608L128.570404,421.794922C128.768707,422.136719,129.066956,422.376923,129.465179,422.51236L130.645309,422.580078C130.782349,422.552673,130.808136,422.607483,130.727539,422.74292C130.645309,422.878326,130.555023,422.954102,130.45668,422.971832L129.981079,423.026642C130.64209,423.505493,131.351456,423.540955,132.110809,423.134674C132.808899,422.765472,133.395737,422.133484,133.876175,421.238708C134.354996,420.335876,134.577484,419.434662,134.540405,418.53183C134.504944,417.529022,134.124451,416.75354,133.400574,416.202179L132.994293,416.811584C132.821793,417.027618,132.654114,417.177551,132.491287,417.258179L131.839951,417.340393L131.17572,417.298462L129.505478,417.353302zM108.772484,440.709351C108.662849,442.424744,108.680588,444.867249,108.825684,448.035217C108.888565,449.931183,108.998192,451.506317,109.151352,452.76062L109.301285,454.195465C109.391571,454.791992,109.544731,455.241791,109.762375,455.549744C109.870392,455.712555,109.947784,455.743195,109.99292,455.644836L110.128349,455.128937C110.24604,454.7146,110.35083,454.213196,110.441116,453.626373C110.612007,452.525238,110.784515,451.077454,110.957024,449.279846C111.290749,445.787811,111.463257,443.069641,111.471313,441.130127C110.566872,441.273621,109.667259,441.133362,108.772484,440.709351zM118.079758,426.560608L118.324814,425.517517L118.31192,425.517517C116.944763,425.644867,115.764626,426.347809,114.769897,427.629517C113.955734,428.69519,113.357605,429.994629,112.978729,431.529449L112.896507,431.651978L113.412415,433.776855L113.494644,433.776855C114.334595,434.020294,115.190681,434.170227,116.058052,434.22345C115.759789,433.457642,115.692078,432.811157,115.854912,432.28717C115.945198,431.99054,116.103195,431.800293,116.330513,431.719666L116.343414,431.692261C117.149513,430.573395,118.039452,429.444855,119.016449,428.306641L120.251404,426.89917C120.767311,426.347809,121.255814,425.938293,121.716904,425.66745C120.359421,425.991516,119.18412,426.317169,118.189392,426.641235C118.107162,426.660583,118.071701,426.633179,118.079758,426.560608zM114.51194,415.444427C114.35717,415.191315,114.131462,414.975281,113.833206,414.794708C113.497864,414.586731,113.194771,414.514191,112.92392,414.577057C112.46283,414.847931,112.37738,415.038147,112.665962,415.146179L112.896507,415.241302C113.006142,415.268707,113.064178,415.313843,113.073853,415.376709C113.154465,415.78299,112.77076,416.021606,111.91951,416.094147C111.069878,416.157043,110.576538,416.036133,110.441116,415.72818L110.426605,415.633057C110.454018,415.002686,110.70713,414.469055,111.187569,414.03537C110.408875,413.882202,109.676926,414.215942,108.988518,415.038147C108.329124,415.813629,108.043762,416.585876,108.134048,417.353302C108.259796,418.346405,108.612869,419.136383,109.191658,419.723236C110.123512,420.651855,111.395546,421.027527,113.006142,420.846954C113.657471,420.774414,114.231415,420.566437,114.729591,420.22464C115.361572,419.781281,115.456696,419.276672,115.013336,418.70755C114.607063,419.031616,114.086319,419.347595,113.452721,419.655518C113.309235,419.728088,113.262482,419.705505,113.317299,419.58783C113.380173,419.460449,113.457558,419.379822,113.547844,419.34436C114.426498,418.918762,115.00528,418.514099,115.285805,418.125549C115.493774,417.854675,115.524406,417.57901,115.38092,417.298462C115.253555,417.046967,115.035912,416.871246,114.729591,416.771301C114.258827,417.47583,113.53978,418.007843,112.570847,418.368988C112.417686,418.423798,112.362869,418.386719,112.408012,418.260956C112.453156,418.125549,112.53054,418.035248,112.638557,417.990112C113.217339,417.772461,113.715515,417.453247,114.131462,417.027618C114.674774,416.477875,114.800529,415.949066,114.51194,415.444427zM92.624603,417.814392C91.791092,417.516113,91.014008,417.380707,90.290131,417.408112L90.27562,417.408112C88.972946,417.669281,88.331299,418.314178,88.34903,419.34436C89.47113,419.921539,90.999496,420.521271,92.93576,421.145203C95.495941,421.96582,97.056564,422.484955,97.617615,422.700989L105.393295,425.557831L105.461006,425.449799C105.957565,424.772675,106.500885,424.185822,107.08934,423.68927C106.583099,423.861786,106.052689,423.97464,105.501312,424.027832C103.755287,424.218079,102.194672,424.002045,100.819458,423.378113C99.200806,422.638123,98.304413,421.487,98.133514,419.926392C96.866318,419.628113,95.763573,419.249237,94.822044,418.788147C93.772491,418.291595,93.040558,417.967529,92.624603,417.814392zM113.615555,387.363007L112.896507,388.012726C112.037201,389.547546,111.331055,390.513245,110.779678,390.909851C110.391136,391.190369,110.055801,391.248413,109.775276,391.085571L109.47702,390.747009L111.566437,388.649536C110.897369,388.892975,110.14286,389.099335,109.301285,389.271851L108.772484,389.379883C107.830948,389.570099,106.853958,390.611603,105.839874,392.507538L106.207458,395.093536C107.510124,393.937592,108.875664,393.129852,110.305695,392.67038C111.589012,392.264099,113.941223,391.636963,117.360718,390.787323C117.46067,390.761536,117.365547,390.535828,117.076965,390.111816C116.804504,389.713593,116.583633,389.437897,116.411125,389.28476C115.832336,388.734985,115.511513,388.269043,115.448639,387.890198L115.3116,387.024445C115.240662,386.73584,115.12619,386.568176,114.973038,386.523041C114.792465,386.477905,114.569984,386.550446,114.308807,386.739075C114.154037,386.848694,113.923485,387.055054,113.615555,387.363007zM129.73764,419.031616L129.004089,418.991302L128.177017,418.88327C127.81427,418.81073,127.561157,418.689819,127.416054,418.517303L122.518173,418.368988C122.200562,418.946167,121.866837,419.434662,121.513763,419.831268C121.396072,419.976349,121.233238,420.102112,121.025261,420.210114L120.223999,424.055237C120.206261,424.155212,120.256241,424.195496,120.373932,424.177765L120.739899,424.122955L129.505478,423.378113L129.560287,423.378113L129.166916,423.026642L129.154022,422.904114C128.592972,422.723572,128.212494,422.367249,128.014191,421.835236L128.027084,421.740112C126.896927,421.569214,126.588997,421.140381,127.104904,420.453583C127.340286,420.137573,127.683685,419.889282,128.135101,419.70874C128.443039,419.592651,128.858978,419.483032,129.384567,419.384674L129.723129,419.316956L129.73764,419.031616zM135.449692,417.230774C135.169159,416.437561,134.603287,415.863617,133.753647,415.512146L133.603714,415.700775C135.088562,416.685852,135.47226,418.206146,134.758057,420.264954C134.459793,421.112976,134.00676,421.86264,133.400574,422.51236C132.784714,423.17981,132.138214,423.595764,131.459473,423.756989L131.473984,423.866608C131.762573,424.97583,131.609406,426.217224,131.012894,427.589203C130.551804,428.654877,129.845657,429.75116,128.896057,430.87973C131.093506,430.013977,132.907242,429.114349,134.337265,428.18573C134.445282,428.113159,134.49527,428.113159,134.485596,428.18573C134.46785,428.25827,134.417877,428.321136,134.337265,428.374359C132.879837,429.304596,130.985489,430.230011,128.651001,431.150574L127.86425,431.963135L127.877151,432.003418L127.836845,433.194855C130.451843,432.211395,132.56868,431.208618,134.187332,430.189697L134.187332,430.175171C134.432388,429.562561,134.530731,428.690338,134.485596,427.561798C134.432388,426.254303,134.454956,425.354675,134.553299,424.867798L134.988602,422.958923L135.409378,421.035583C135.562546,420.197235,135.652832,419.560394,135.680237,419.126709C135.717316,418.386719,135.639923,417.75473,135.449692,417.230774zM98.119011,432.978821L95.297646,431.855103C94.483482,431.511719,93.832146,431.200562,93.343643,430.920013C92.664909,430.531494,92.099022,430.099396,91.645996,429.620575C91.700806,430.081665,91.72821,430.54599,91.72821,431.015137C92.244125,431.647125,92.940598,432.206573,93.817642,432.693451C94.423828,433.019104,95.252502,433.380249,96.300438,433.776855C98.634918,434.671631,100.277756,435.35199,101.227341,435.821136C103.461868,436.904541,105.306229,437.952484,106.763672,438.963318L108.717667,440.290192L108.798279,440.290192L108.798279,440.343384C109.712402,440.839935,110.55397,441.030182,111.322998,440.912476C112.362869,440.749664,113.520432,440.298248,114.797302,439.558228L117.958847,437.528473L118.026558,437.486542L117.225288,436.295135L116.032257,437.054474L113.8461,438.366821C112.969055,438.827911,112.177467,439.111664,111.471313,439.219666C110.729706,439.337372,110.005821,439.269653,109.301285,439.016541C108.722504,438.818237,108.074394,438.461945,107.360184,437.947632C105.298172,436.485382,103.158768,435.231079,100.941986,434.183136C100.218102,433.839722,99.278183,433.438293,98.119011,432.978821zM115.909729,414.170807C114.516785,414.062775,113.615555,413.832214,113.209274,413.480774L113.154465,413.49527C112.540207,413.593628,112.037201,413.796753,111.648659,414.103088C111.177895,414.464203,110.929619,414.925293,110.902206,415.484741L111.403603,415.592773C111.493889,415.178436,111.734108,414.8302,112.12265,414.55127C112.467667,414.306213,112.883614,414.140167,113.372108,414.049866C113.462395,414.032135,113.517212,414.062775,113.534943,414.144989L113.547844,414.225616C113.775162,414.253021,113.963791,414.306213,114.118561,414.388428C114.524841,414.596405,114.810204,414.875336,114.973038,415.228394C115.135864,415.597595,115.131027,415.981293,114.960136,416.377899C115.393822,416.460144,115.682404,416.681,115.827507,417.042145C115.982277,417.411316,115.914566,417.769257,115.624367,418.111023L115.406715,418.356079L115.434128,418.368988C115.696915,418.702698,115.751732,419.0961,115.596954,419.547516L115.63726,419.547516C116.751297,420.16983,117.899193,420.431,119.084167,420.332642C120.423912,420.214966,121.386398,419.628113,121.974854,418.572113C122.779343,417.137268,123.227539,415.471832,123.317825,413.575897C122.811592,413.909607,121.934547,414.122437,120.685089,414.212708L118.337708,414.238495L115.909729,414.170807zM114.25399,420.927551C113.775162,421.125854,113.24958,421.253235,112.680473,421.306427L110.982819,421.238708C110.521729,421.744934,110.010658,422.181854,109.449608,422.552673L109.694664,422.728394L109.884903,422.783203C109.93811,422.810608,109.942947,422.855774,109.897804,422.91864C110.549133,423.523224,111.042473,424.38092,111.377808,425.490112C111.576111,426.141449,111.81633,427.160339,112.096855,428.551697L112.748184,431.069946C113.209274,429.598022,113.878342,428.351776,114.755386,427.332855C115.769463,426.149506,116.936707,425.444977,118.257103,425.220886C118.229691,424.245483,118.107162,423.35553,117.891129,422.552673C117.638016,421.89328,117.257538,421.220978,116.751297,420.535797C116.270859,420.408417,115.809769,420.227844,115.366409,419.99408C115.068153,420.435822,114.697342,420.746979,114.25399,420.927551zM112.272583,424.20517C113.69294,423.68927,114.589325,423.392639,114.960136,423.310394C115.990334,423.07663,116.914131,423.099213,117.728294,423.378113C117.808907,423.405518,117.800842,423.473236,117.70089,423.581238L117.497749,423.74408C117.234962,423.844055,116.799667,423.906921,116.195084,423.934326C115.634041,423.969788,115.193909,424.060089,114.877914,424.20517C113.665535,424.782349,112.801392,425.562653,112.285484,426.547729L112.001732,426.750854C111.846962,426.79599,111.801819,426.758911,111.86631,426.641235C112.354813,425.720642,113.118996,424.940338,114.158867,424.298676C114.729591,423.956909,115.230988,423.726349,115.664673,423.608673L116.248291,423.540955C115.651772,423.505493,114.968201,423.603821,114.199173,423.839203L112.191978,424.543732C112.037201,424.596954,111.987221,424.566315,112.042038,424.448608C112.096855,424.321259,112.17263,424.240662,112.272583,424.20517zM122.21991,440.844788C121.06073,440.673889,119.93541,439.919373,118.840721,438.584473L119.179283,445.326721L119.193794,445.326721L119.83062,445.637878C120.662514,445.881317,121.55407,445.953857,122.503662,445.85553L124.1465,445.57016L124.362534,445.516968L124.634995,444.907532C125.431427,443.066406,126.027946,441.386475,126.426163,439.871002C126.977539,437.694519,127.290306,435.211731,127.362854,432.422607C126.158539,433.460876,124.594696,434.418518,122.666489,435.293945C123.272682,436.503113,123.648331,437.654236,123.793427,438.745667C123.99173,440.325653,123.467758,441.02533,122.21991,440.844788zM89.150299,407.225403C89.666199,408.615112,90.027336,410.21283,90.235313,412.018494C90.398148,413.390472,90.483589,415.028503,90.493271,416.934113C90.493271,416.979248,90.461021,417.024414,90.398148,417.06955C91.041412,417.050201,91.715317,417.145325,92.419853,417.353302C92.945435,417.516113,93.577415,417.772461,94.320648,418.125549C94.934898,418.423798,95.603966,418.702698,96.327843,418.963898C96.102135,417.195313,95.568497,415.250977,94.726929,413.129303L93.73703,410.989899C93.32914,410.132202,93.063126,409.400269,92.93576,408.795685C92.710052,406.981964,92.461769,405.63739,92.189308,404.761963C91.71048,403.199707,90.818932,402.329132,89.516266,402.14856C88.34903,401.985718,87.887939,402.625763,88.132996,404.070313C88.2136,404.558807,88.552162,405.609955,89.150299,407.225403zM105.799568,427.644012C106.117172,428.825775,106.658875,430.242889,107.427902,431.895416L109.12394,435.293945C109.739807,436.620789,110.14286,437.817047,110.331482,438.881104L110.291183,438.990753C110.653931,439.053619,110.99733,439.058441,111.322998,439.003632C112.127487,438.885956,112.991631,438.592529,113.913818,438.123383L113.900917,438.110474L113.507538,436.37735C113.380173,435.60025,113.276993,435.01825,113.194771,434.6297L112.543434,431.922821L111.86631,429.227203C111.585785,427.747192,111.340729,426.638,111.132751,425.896393C110.761948,424.606628,110.215408,423.653809,109.491531,423.039551C108.893394,422.904114,108.111481,423.202393,107.14415,423.934326C106.175217,424.656586,105.664139,425.319214,105.609329,425.923798C105.556122,426.392944,105.619003,426.966888,105.799568,427.644012zM120.822128,426.736328L119.532356,428.158325C118.77301,429.015991,117.976578,429.999451,117.144676,431.11026L116.872215,431.489136L117.035049,431.489136L117.958847,431.569733C118.763336,431.732574,119.482376,432.016327,120.115974,432.422607C120.712494,432.820831,121.273544,433.352844,121.799126,434.020294L122.273117,434.603912C122.463356,434.874756,122.508499,435.032776,122.408539,435.077911L123.657997,434.481384L125.612,433.412506C126.308472,432.986877,126.896927,432.545135,127.375748,432.084045C127.40316,431.967957,127.483765,431.890564,127.619194,431.855103L127.782028,431.692261C128.841248,430.563721,129.655411,429.47226,130.226135,428.41626C130.993546,427.007202,131.288574,425.730316,131.108017,424.584045L131.093506,424.584045C128.297928,424.601776,125.47657,424.900024,122.62619,425.477203C122.581047,425.59491,122.503662,425.66745,122.395638,425.693237C121.907143,425.848022,121.383179,426.194641,120.822128,426.736328zM129.166916,407.157684L128.733231,409.513123C128.723557,409.585663,128.668747,409.658234,128.570404,409.730774L128.312439,409.825897C127.343506,409.708191,126.453568,409.708191,125.639404,409.825897C124.62532,409.979065,123.820831,410.312775,123.222702,410.827087L123.169502,410.854492L122.545578,412.045898L123.317825,412.289337C123.608017,412.434448,123.775688,412.615021,123.820831,412.831055L123.820831,412.97937L123.901443,412.966461L127.225815,413.101898C127.270958,413.101898,127.285469,413.134155,127.267731,413.197021L125.67971,417.027618L125.52977,417.150146L123.046974,417.230774L122.613289,418.193237L127.308037,418.328674L127.280632,418.030426C127.317711,417.614471,127.791702,417.321045,128.705826,417.150146L128.92186,417.109863L126.887253,417.109863C126.787292,417.109863,126.764725,417.064697,126.819542,416.974426L128.352753,413.764526L128.433365,413.696808L128.488174,413.671021L133.170029,413.764526L133.250641,413.832214L133.210327,413.927338L131.907669,415.592773C131.501389,416.224731,131.170883,416.663269,130.91777,416.906708L132.38327,416.893799L132.789551,416.392426L135.096619,413.453369L138.448395,409.337402L140.294373,407.265717L137.200546,407.455933L134.092209,407.320526L129.166916,407.157684zM137.9599,408.782806L137.932495,408.890808L134.893478,412.276459C134.712906,412.482819,134.427551,412.592438,134.039001,412.600494L133.047501,412.547302L124.131989,412.505371L124.064278,412.465088L124.064278,412.369965L124.892952,410.881897C124.920357,410.817413,124.968727,410.791595,125.041275,410.799652C125.113823,410.809326,125.131561,410.84964,125.096085,410.92218L124.34964,412.276459L134.337265,412.329651L134.580704,412.344177L134.648422,412.261932L137.621338,408.945618L129.574799,408.755371L129.492584,408.660278C129.53772,408.569977,129.592545,408.529663,129.655411,408.539337L137.879288,408.727966C137.924423,408.727966,137.950226,408.745728,137.9599,408.782806zM98.580101,419.031616C98.599449,420.332642,99.015396,421.378967,99.829559,422.173798C100.553444,422.886383,101.535278,423.342651,102.773453,423.540955C103.922958,423.731201,105.130501,423.676361,106.397697,423.378113C107.65522,423.089539,108.748299,422.61554,109.680153,421.956146C109.011086,421.975494,108.369431,421.767517,107.753571,421.333832C107.174782,420.927551,106.745934,420.403595,106.465408,419.76355C106.165543,419.068695,106.125237,418.368988,106.34288,417.664459C106.541183,417.024414,106.9394,416.437561,107.537529,415.903931C106.333206,415.895844,105.338478,416.044189,104.55172,416.352112C103.474762,416.758392,102.87825,417.425842,102.760559,418.356079C102.750885,418.427032,102.67511,418.504395,102.530014,418.585022C102.375237,418.667236,102.304306,418.680145,102.312363,418.626953C102.430054,417.804718,102.850838,417.132416,103.574722,416.608459C103.094284,416.681,102.733154,416.916382,102.489708,417.312988C102.425217,417.421021,102.322037,417.498383,102.176941,417.543518L102.068924,417.516113L102.081818,417.408112C102.307526,417.055023,102.602562,416.771301,102.963699,416.555237C103.344177,416.329529,103.732719,416.21991,104.130936,416.229584L104.185745,416.256989C105.270767,415.733032,106.613739,415.49765,108.214661,415.55246C108.632217,414.920471,109.12394,414.42392,109.694664,414.062775L109.12394,414.103088L109.056229,414.090179C107.445633,411.51709,106.791077,409.374481,107.08934,407.659088C105.994644,408.15564,104.945099,408.800537,103.940689,409.595337C104.6017,409.775909,105.157913,410.187012,105.609329,410.827087C106.007545,411.396179,106.260666,412.050751,106.370285,412.790741C106.388031,412.871338,106.320313,412.956787,106.165543,413.047089L105.922096,413.061584C105.804405,412.329651,105.551285,411.689606,105.16275,411.138245C104.709717,410.506256,104.15834,410.10965,103.507004,409.946808C102.014107,411.18338,100.846863,412.519897,100.005295,413.954773C99.02829,415.615326,98.554306,417.308167,98.580101,419.031616zM110.263779,397.044312L110.318588,397.084625L110.426605,397.220032C110.471748,397.31839,110.431442,397.395752,110.305695,397.448975C109.762375,397.694031,109.306122,397.9552,108.935318,398.235718C108.16629,398.848358,107.745499,399.57547,107.672958,400.415436C108.043762,399.746368,108.459717,399.191772,108.920807,398.750031C109.517319,398.235718,109.912308,397.950378,110.100937,397.897156L110.19606,397.897156C110.286346,397.905212,110.341156,397.945526,110.358894,398.018066C110.378242,398.090637,110.345993,398.145447,110.263779,398.180908C109.857498,398.424347,109.481857,398.695221,109.138451,398.993469C108.695099,399.34494,108.206596,399.949493,107.672958,400.80719L107.700363,401.132874L108.201759,400.375122C108.47261,400.022064,108.740234,399.738312,109.003029,399.52066C109.391571,399.214325,109.712402,399.024109,109.965515,398.953156L110.020332,398.953156C110.110611,398.961212,110.150925,399.016022,110.14286,399.11438C110.133186,399.214325,110.065475,399.294952,109.93811,399.359436C109.63179,399.50293,109.391571,399.64801,109.219063,399.791504L108.296875,400.739502L107.740669,401.403717L107.740669,401.416626C107.768074,401.506897,107.763245,401.592346,107.726158,401.674561L108.201759,401.619751L108.121147,401.795471C107.432739,402.219482,107.207031,402.811188,107.442413,403.570526C107.677795,404.318604,108.179184,404.729706,108.948212,404.802246L109.165863,404.802246C109.83493,406.337067,110.716805,407.53656,111.811493,408.403931C111.91951,408.484528,111.96949,408.552246,111.959816,408.607056C111.951752,408.652191,111.888878,408.669952,111.771187,408.660278C111.40844,408.624786,110.992493,408.408752,110.521729,408.010559C110.531403,408.687683,110.937675,409.337402,111.743782,409.961304C112.485397,410.538483,113.23185,410.859314,113.983139,410.92218C114.316864,410.967346,114.592552,410.927032,114.810204,410.799652L114.755386,410.799652C114.566757,410.781921,114.276558,410.69165,113.888016,410.528809C113.489799,410.35791,113.304398,410.240234,113.331802,410.177368L113.399521,410.164459L113.697777,410.232178L114.266891,410.325684C115.008499,410.398224,115.864586,410.277313,116.831909,409.961304C118.560196,409.392212,119.908005,408.236267,120.875328,406.495056C121.807182,404.824829,122.177994,403.041718,121.989365,401.145752C121.862,399.991425,121.504089,398.790314,120.917244,397.544098C120.572235,397.453796,120.233673,397.242615,119.898331,396.908875L119.246994,395.893188C117.583199,396.244659,115.982277,396.520325,114.444229,396.718628C114.679611,397.052368,114.76506,397.255493,114.702179,397.328064L114.429718,397.423187L113.900917,397.584412L113.304398,397.855255L112.883614,398.005188L112.869102,398.005188C112.815903,397.716583,113.118996,397.313538,113.778389,396.799255L110.386299,397.044312L110.263779,397.044312zM109.762375,401.03775C109.83493,401.047424,109.880066,401.09256,109.897804,401.173157C109.915535,401.253784,109.88974,401.313446,109.817192,401.348907L109.626953,401.484314L109.396408,401.755188C109.37706,401.86319,109.319016,401.908325,109.219063,401.890594C109.101372,401.872864,109.056229,401.795471,109.083633,401.660065L109.32869,401.281189C109.446381,401.182831,109.564072,401.105469,109.680153,401.050629L109.762375,401.03775zM109.842987,400.009155L109.884903,400.009155C109.957458,400.017212,110.005821,400.062347,110.033226,400.144592C110.052574,400.225189,110.002594,400.297729,109.884903,400.360626L109.830093,400.388031L109.32869,400.658875L108.935318,401.024841C108.772484,401.186066,108.667686,401.263458,108.622543,401.253784L108.582245,401.186066L108.745071,400.834595L109.138451,400.415436C109.354492,400.207458,109.589874,400.072021,109.842987,400.009155zM117.130173,407.71228L116.764198,407.739685L116.316002,407.631683C116.135437,407.551056,116.067726,407.43338,116.112869,407.280212C116.148331,407.135132,116.248291,407.072235,116.411125,407.089966L117.591263,407.347931L117.728294,407.415649L117.618668,407.509155L117.130173,407.71228zM119.654892,397.368347L120.631882,398.11319L120.727005,398.235718L120.591583,398.276031L120.564171,398.276031L119.49205,398.126099L119.274406,398.005188L119.2341,397.761749L119.314713,397.490875C119.342117,397.355469,119.409828,397.295807,119.519463,397.313538L119.654892,397.368347zM120.278809,399.873718C120.369095,400.054291,120.406174,400.270325,120.386826,400.523438C120.369095,400.776581,120.306221,400.987762,120.196587,401.160278C120.08857,401.340851,119.966042,401.421448,119.83062,401.403717L119.817719,401.403717C119.682297,401.394043,119.572662,401.29892,119.49205,401.118347C119.409828,400.929718,119.379196,400.708862,119.396935,400.45575C119.414665,400.202637,119.474319,399.991425,119.572662,399.818909C119.682297,399.64801,119.808044,399.565796,119.95314,399.57547C120.08857,399.593201,120.196587,399.693176,120.278809,399.873718zM114.241089,399.006348L114.25399,399.006348C114.389412,399.024109,114.497437,399.124054,114.579659,399.304626C114.660263,399.494873,114.692513,399.710907,114.674774,399.954346C114.6651,400.217133,114.607063,400.433167,114.497437,400.604065C114.389412,400.776581,114.263664,400.857178,114.118561,400.847504C113.983139,400.839447,113.873505,400.739502,113.7929,400.550873C113.710678,400.3703,113.675201,400.149414,113.683266,399.886627C113.702614,399.633514,113.765488,399.422302,113.873505,399.249817C113.983139,399.078918,114.10405,398.998291,114.241089,399.006348zM117.022148,399.332031C117.122108,399.349762,117.194656,399.430359,117.239799,399.57547L117.375221,399.968842L117.673485,400.712067L118.610176,402.229156C118.708519,402.374268,118.700455,402.517761,118.582771,402.662842L117.90403,403.488312C117.813744,403.578583,117.686378,403.623718,117.523544,403.623718L117.239799,403.515717L117.117271,403.393188C117.099533,403.339966,117.117271,403.285156,117.172089,403.231964L117.728294,402.608032C117.845993,402.454865,117.868561,402.301727,117.796013,402.14856L117.334915,401.024841L117.022148,400.062347L116.914131,399.602875L116.927032,399.412628L117.009254,399.332031L117.022148,399.332031zM112.733673,404.070313L112.911018,403.907471L114.349106,403.082031L114.444229,403.054626C114.507111,403.073975,114.51194,403.122314,114.457123,403.204559L114.25399,403.61084C114.216911,403.673706,114.231415,403.751099,114.294296,403.839752L114.484535,404.002594L115.488937,404.463684C116.23056,404.779694,116.786766,404.973145,117.157578,405.045685L117.538055,405.100525L119.667786,405.032806C119.740334,405.032806,119.808044,405.005402,119.870926,404.950562C119.925735,404.887695,119.95314,404.819977,119.95314,404.747437L119.966042,404.558807L120.033752,404.436279L120.128876,404.516907L120.577072,405.168213C120.622208,405.23111,120.639946,405.30365,120.631882,405.384247L120.54966,405.600281L119.898331,406.440247L119.790314,406.520874L119.762901,406.385437L119.777412,406.25C119.795151,406.124268,119.740334,406.051697,119.614578,406.033966L119.545258,406.033966L118.637581,406.453156C117.921761,406.723999,117.288162,406.833649,116.736786,406.778809L116.723892,406.778809C116.170906,406.723999,115.46637,406.399963,114.607063,405.803436L113.494644,404.910278L113.38501,404.869965C113.259254,404.869965,113.159302,404.910278,113.086746,404.990875L113.019035,405.600281L112.896507,405.682526C112.851372,405.672852,112.823959,405.627716,112.815903,405.547089L112.680473,404.300842L112.733673,404.070313zM119.667786,405.289124C118.82621,405.389099,118.066864,405.40683,117.388123,405.343964L117.009254,405.289124C116.565895,405.216583,115.985504,405.023132,115.271294,404.707123L114.334595,404.260559L114.023445,404.178314C113.89608,404.160583,113.775162,404.187988,113.657471,404.260559C113.530106,404.341156,113.494644,404.441101,113.547844,404.558807L113.750977,404.774841L114.524841,405.276245L115.706589,405.938843C116.022583,406.083954,116.470779,406.187134,117.049561,406.25L117.90403,406.237122L119.62748,405.817932C119.754845,405.808258,119.848351,405.717987,119.912842,405.547089C119.975716,405.393921,119.908005,405.306885,119.708092,405.289124L119.667786,405.289124zM89.719406,423.039551C90.715752,425.070923,91.339676,427.084595,91.592789,429.078888L91.715317,429.078888C92.229614,429.720551,92.926086,430.283203,93.804741,430.771698C94.410934,431.105438,95.242828,431.471405,96.300438,431.868011C98.634918,432.761169,100.277756,433.443115,101.227341,433.912292C103.461868,434.995697,105.306229,436.04364,106.763672,437.054474L108.26947,438.110474C108.885338,438.50708,109.441551,438.773102,109.93811,438.908508C109.694664,437.60907,109.083633,435.9888,108.106644,434.047699C106.903931,431.637451,106.17038,430.05426,105.909195,429.294922L105.351379,427.671417C105.153076,426.92981,105.117599,426.3349,105.243355,425.883484C101.57074,424.584045,98.829994,423.573181,97.021103,422.850922C96.314941,422.570404,94.86235,422.088348,92.664909,421.40155C90.846336,420.824371,89.421143,420.287506,88.389336,419.790955C88.461884,420.242371,88.644058,420.792145,88.932648,421.441864L89.719406,423.039551zM93.003471,407.102875C93.130844,407.889618,93.366219,408.727966,93.709618,409.622742L94.726929,412.058807C95.849022,414.802765,96.53582,417.154999,96.78894,419.113831L98.10611,419.505585C98.078705,417.619293,98.557526,415.791077,99.544205,414.022461C100.448654,412.397369,101.693275,410.95282,103.276459,409.69046C105.438431,407.975067,107.464981,406.931976,109.354492,406.562775C109.003029,406.083954,108.717667,405.627716,108.500015,405.194031L108.364594,405.181122C107.668121,405.118256,107.152206,404.671661,106.818481,403.839752C106.473473,402.983673,106.591164,402.279144,107.169952,401.727783L107.360184,401.701965L107.211868,401.484314L107.049026,401.078064C105.899521,401.160278,104.890282,401.073212,104.022919,400.821716C103.261955,400.596008,102.655762,400.252594,102.204346,399.791504L95.934464,400.508942C93.691887,400.844269,91.642769,401.273132,89.787117,401.795471C90.828606,401.922852,91.620201,402.577393,92.161896,403.759155C92.479507,404.463684,92.760025,405.577728,93.003471,407.102875z"/>
</svg>
