<?xml version="1.0" encoding="UTF-8"?>
<svg xmlns="http://www.w3.org/2000/svg" xmlns:xlink="http://www.w3.org/1999/xlink" width="53.483mm" height="51.091mm" viewBox="-377.122559 338.373749 53.483093 51.091217">
    <path transform="matrix(-1,0,0,1,0,0)" style="stroke:none;fill:#000000;fill-rule:evenodd" d="M359.275818,338.376038L359.461731,338.392914L359.534668,338.404053L359.605591,338.424072L359.665955,338.449249L359.740906,338.485291L359.805298,338.521332L359.858765,338.559967L359.940308,338.626312L360.004333,338.687256L360.091919,338.783356L360.129333,338.828857L360.22345,338.955261L360.247498,338.989868L360.347595,339.146362L360.363037,339.172089L360.469482,339.358582L360.480652,339.378906L360.593323,339.595734L360.601318,339.611755L360.713196,339.84375L360.973206,340.311432L360.98291,340.312286L361.133972,340.297119L361.419128,340.253632L361.47406,340.247925L361.732666,340.232758L361.808777,340.233032L362.027832,340.248199L362.131958,340.264801L362.3125,340.310272L362.382874,340.332886L362.459778,340.369202L362.561646,340.426697L362.63855,340.478485L362.758118,340.573151L362.800781,340.610352L362.938354,340.742493L362.96521,340.769958L363.120544,340.939575L363.137695,340.959045L363.311096,341.165833L363.323364,341.181305L363.514465,341.425293L363.523621,341.437317L363.732727,341.718781L363.740112,341.72879L363.958679,342.036285L364.086243,342.199341L364.196411,342.299164L364.311401,342.369812L364.430359,342.414429L364.559387,342.432739L364.683838,342.426178L364.798523,342.396423L364.906372,342.343506L364.929504,342.324921L364.936401,342.314911L364.952148,342.269714L364.969849,342.118103L364.983032,342.045441L365.005066,341.975067L365.035645,341.907837L365.07428,341.845215L365.1203,341.787415L365.172974,341.735931L365.231873,341.691589L365.295654,341.654419L365.36377,341.625793L365.434692,341.605774L365.507629,341.594635L365.581421,341.592346L365.654663,341.599487L365.726746,341.615509L365.796265,341.640411L365.862061,341.673859L365.923279,341.715057L365.979004,341.763397L366.047119,341.843781L366.176697,342.02713L366.213867,342.086639L366.316833,342.276276L366.348328,342.34436L366.424377,342.539734L366.447571,342.612976L366.497375,342.814636L366.507935,342.867828L366.550293,343.145874L366.557129,343.243134L366.553406,343.534302L366.54541,343.623291L366.495361,343.927643L366.4776,344.004028L366.38092,344.322083L366.360352,344.379028L366.229309,344.69165L366.190979,344.767761L366.048279,345.006042L366.081421,345.0578L366.150635,345.180817L366.182983,345.247467L366.210144,345.331543L366.249634,345.493164L366.262817,345.565826L366.26593,345.604736L366.275085,345.787231L366.272827,345.878479L366.251648,346.081848L366.239319,346.154236L366.187561,346.378479L366.167847,346.445709L366.116882,346.587585L366.086609,346.657959L366.003662,346.819855L365.977295,346.865906L365.862915,347.047272L365.840027,347.081024L365.623474,347.37738L365.576294,347.434021L365.522522,347.484619L365.465576,347.525818L365.534485,347.859924L365.542786,347.911407L365.638916,348.740112L365.642334,348.785278L365.666931,349.411743L365.667236,349.45578L365.645813,350.072205L365.642334,350.117981L365.57428,350.724396L365.567383,350.770172L365.453003,351.366577L365.442383,351.411499L365.281921,351.997894L365.267944,352.042236L365.060791,352.618622L365.043945,352.660095L364.811951,353.178986L364.839111,353.192719L365.435547,353.569427L365.633179,353.682983L365.859436,353.787964L366.13324,353.89209L366.453308,353.993347L366.821411,354.091187L367.222168,354.181274L367.676147,354.26767L368.157288,354.345184L369.805176,354.516541L369.821533,354.465912L369.852661,354.398987L369.891602,354.336334L369.963074,354.253662L370.530029,353.707581L370.546631,353.692139L371.101868,353.196991L371.121582,353.18042L371.6651,352.73645L371.687988,352.718445L372.219727,352.325989L372.24176,352.310547L372.526367,352.119751L372.547546,352.106018L372.804138,351.94928L372.832458,351.933228L373.060974,351.810242L373.101318,351.790497L373.302124,351.701263L373.362793,351.678101L373.535522,351.622864L373.629395,351.601135L373.774109,351.579681L373.847595,351.573395L373.923706,351.576538L374.040405,351.588837L374.113098,351.601135L374.183716,351.622314L374.25238,351.652344L374.341064,351.698395L374.404297,351.73645L374.462341,351.781921L374.49292,351.811096L374.559875,351.879761L374.60791,351.935822L374.635132,351.974731L374.681763,352.047668L374.717468,352.112305L374.745544,352.182098L374.770996,352.259338L374.789856,352.330566L374.799866,352.412079L374.804443,352.493591L374.804138,352.567413L374.796143,352.632629L374.764709,352.807129L374.746948,352.878906L374.727783,352.931549L374.704651,352.98703L374.923706,352.921814L374.958069,352.912659L375.173462,352.862335L375.217529,352.85376L375.408569,352.824005L375.468628,352.817688L375.635986,352.808838L375.717224,352.810272L375.860535,352.822266L375.967224,352.841156L376.086792,352.873779L376.15686,352.897522L376.219788,352.927826L376.315369,352.981018L376.377441,353.020813L376.452393,353.085999L376.52417,353.159821L376.572205,353.215881L376.613159,353.277374L376.645996,353.34317L376.690674,353.44873L376.714966,353.51825L376.730713,353.590332L376.737244,353.663818L376.735291,353.733337L376.726379,353.832886L376.715271,353.905823L376.686646,353.999634L376.652344,354.086029L376.608582,354.173859L376.55365,354.264832L376.509033,354.328888L376.432617,354.424438L376.395447,354.467041L376.298462,354.567169L376.265015,354.598907L376.146851,354.703308L376.120544,354.725342L375.981506,354.834625L375.958374,354.851776L375.798462,354.965332L375.779602,354.97821L375.598511,355.096649L375.589966,355.102081L375.532715,355.138123L375.730408,355.146973L375.806763,355.155579L375.989258,355.187622L376.016418,355.193054L376.176025,355.22879L376.210632,355.237671L376.347656,355.27713L376.393433,355.292297L376.507568,355.33548L376.569946,355.36322L376.661499,355.410431L376.740967,355.459625L376.809937,355.510254L376.866577,355.557465L376.911499,355.60495L376.957825,355.659576L377.001892,355.718811L377.038452,355.782867L377.056519,355.823486L377.079956,355.882141L377.103149,355.952209L377.117432,356.024597L377.122559,356.098083L377.116028,356.19162L377.101135,356.290588L377.085693,356.362671L377.06134,356.432495L377.028442,356.498566L376.979553,356.570923L376.892578,356.681061L376.843384,356.736267L376.786499,356.785461L376.627136,356.907043L376.562805,356.949951L376.33136,357.082947L376.290161,357.104401L375.987,357.248566L375.959229,357.261169L375.583923,357.416504L375.564209,357.424194L375.116821,357.590973L375.100525,357.59668L374.213745,357.898193L373.883362,358.015198L373.596497,358.122742L373.341919,358.224854L373.11676,358.334686L372.985168,358.425659L372.940308,358.473419L372.944275,358.487457L372.959717,358.522644L373.299255,358.982605L373.486938,359.232025L373.494934,359.243195L373.651123,359.461151L373.661682,359.476318L373.786438,359.662231L373.80127,359.685699L373.894531,359.839874L373.920837,359.888214L374.017517,360.087585L374.051575,360.174255L374.101624,360.33902L374.11853,360.410828L374.127075,360.495209L374.130798,360.625366L374.128235,360.698883L374.116821,360.77182L374.096191,360.842773L374.079346,360.884521L374.036987,360.979492L374.00293,361.044983L373.960876,361.105652L373.911682,361.160553L373.856201,361.209198L373.794983,361.250366L373.729187,361.283844L373.659668,361.308716L373.587891,361.324768L373.480347,361.332184L372.966858,361.32074L372.893372,361.314728L372.830444,361.30188L372.604736,361.243225L372.562683,361.230652L372.328125,361.150818L372.292358,361.13739L372.04895,361.036682L372.016357,361.022095L371.764343,360.899689L371.739746,360.887085L371.380188,360.691437L371.318115,360.652527L370.969421,360.402832L370.918213,360.361633L370.579834,360.057556L370.538635,360.016357L370.211121,359.658234L370.163879,359.599884L369.900757,359.226868L369.861816,359.16394L369.831238,359.096741L369.810059,359.028931L369.79718,359.032349L368.86554,359.235748L368.809753,359.245178L368.142151,359.325562L368.099487,359.328979L367.375488,359.363892L367.338928,359.364746L366.557678,359.354187L366.52594,359.352722L365.687561,359.296692L365.657227,359.293823L364.73645,359.18454L364.694092,359.177979L363.79364,359.004913L363.751587,358.995483L362.872009,358.759186L362.8302,358.746033L361.970947,358.445984L361.902832,358.417358L361.864807,358.39563L361.549561,358.749756L361.524414,358.776062L361.058167,359.239746L361.041565,359.255768L360.563599,359.695435L360.545288,359.711426L360.055298,360.12677L360.036377,360.142212L359.534668,360.533264L359.520935,360.543823L359.11731,360.839905L359.101013,360.851349L358.699707,361.125671L358.682556,361.137085L358.283508,361.389954L358.264038,361.401428L357.86731,361.632263L357.84668,361.643982L357.451965,361.853088L357.430237,361.863953L357.038025,362.051605L357.013733,362.062469L356.623596,362.228088L356.598389,362.238098L356.21051,362.382263L356.182739,362.391998L355.79718,362.51413L355.768311,362.52243L355.38501,362.622833L355.354919,362.629974L354.973633,362.708923L354.941345,362.714661L354.562317,362.771576L354.529114,362.775574L354.152405,362.81076L354.118958,362.812775L353.744507,362.826508L353.709595,362.826782L353.337158,362.818481L353.302246,362.816772L352.932129,362.786743L352.858887,362.776154L352.787964,362.756714L352.719604,362.728668L352.655518,362.692352L352.596313,362.648285L352.592041,362.644287L352.26593,362.748962L352.194397,362.767273L352.12146,362.776428L352.032227,362.775299L351.28363,362.709503L351.237305,362.703491L350.49646,362.579346L350.450928,362.569916L349.71698,362.387146L349.673462,362.374542L348.946899,362.133698L348.87854,362.106232L348.813904,362.070465L348.754395,362.026978L348.700623,361.976379L348.653442,361.919739L348.613647,361.857361L348.582214,361.791016L348.558777,361.720917L348.544434,361.64856L348.539001,361.575043L348.54071,361.545593L348.516113,361.538422L348.448303,361.509247L348.384521,361.472046L348.368835,361.460052L348.301331,361.630249L348.198914,361.907135L348.125671,362.124817L348.070435,362.314484L348.034973,362.463806L348.017273,362.577637L347.98407,362.95636L347.961182,363.396027L347.949768,363.886871L347.949768,364.454407L347.960938,365.054504L347.984375,365.721313L348.019836,366.443298L348.067017,367.225891L348.067017,367.299713L348.057617,367.372925L348.039307,367.444153L348.01239,367.513092L347.977234,367.577759L347.934326,367.637817L347.884216,367.691895L347.827881,367.73938L347.765808,367.779694L347.699463,367.812012L347.651978,367.829163L347.439453,367.896118L347.463745,367.965332L347.559021,368.325195L347.573914,368.399567L347.620789,368.755981L347.624817,368.800018L347.646545,369.18161L347.647705,369.220795L347.643982,369.627563L347.642517,369.662476L347.613647,370.087524L347.583069,370.645599L347.593628,371.213135L347.644836,371.820129L347.737793,372.466583L347.835022,372.977478L347.942322,373.443146L348.06073,373.866211L348.254395,374.440887L348.265808,374.478943L348.305908,374.630249L348.317871,374.687164L348.337341,374.807007L348.337891,374.814453L348.35022,374.82019L348.388,374.841339L348.449768,374.881409L348.506409,374.928589L348.564209,374.992096L348.595093,375.031281L348.637146,375.091919L348.678345,375.174011L348.701782,375.231232L348.732971,375.331909L348.748962,375.406586L348.760132,375.479797L348.761841,375.553314L348.750122,375.651428L348.712952,375.832214L348.693787,375.903442L348.66571,375.971802L348.629395,376.036163L348.585632,376.095367L348.516968,376.164612L348.473816,376.201508L348.479492,376.212646L348.544128,376.354828L348.574768,376.438049L348.611389,376.566498L348.627136,376.638306L348.632568,376.683777L348.641418,376.798492L348.642273,376.872284L348.634277,376.945496L348.617371,377.017303L348.591614,377.086548L348.557312,377.151733L348.515564,377.212402L348.46637,377.267609L348.420288,377.307648L348.423157,377.314789L348.441772,377.3703L348.526123,377.672363L348.535278,377.709534L348.599365,378.012756L348.606201,378.051666L348.649719,378.356293L348.653992,378.396057L348.67688,378.701843L348.678589,378.749908L348.675476,379.256775L348.672607,379.309418L348.627686,379.781097L348.61908,379.840881L348.532166,380.277954L348.525269,380.304565L348.809631,380.39325L348.87854,380.419556L348.930054,380.445862L349.091919,380.539429L349.143433,380.572876L349.289001,380.678436L349.341675,380.721619L349.470947,380.840027L349.519287,380.889832L349.632019,381.020264L349.675781,381.077179L349.772156,381.22049L349.807068,381.279694L349.887146,381.435028L349.914917,381.497375L349.978394,381.665283L349.997864,381.725952L350.044739,381.906128L350.058228,381.973938L350.142029,382.57605L350.146301,382.615845L350.176331,383.037476L350.177185,383.057495L350.195496,383.545471L350.196106,383.560364L350.202942,384.115295L350.202942,384.127014L350.198364,384.748596L350.198059,384.758331L350.181763,385.446564L350.181519,385.454285L350.153748,386.208862L350.153442,386.215729L350.114014,387.036987L350.113708,387.042419L350.063904,387.909698L350.063904,387.918579L350.059326,387.992096L350.047913,388.055603L350.036438,388.103943L350.015015,388.174561L349.967834,388.272705L349.895142,388.393982L349.853394,388.454895L349.781006,388.532135L349.575928,388.71521L349.520142,388.759552L349.292175,388.918579L349.232117,388.9552L348.981262,389.089355L348.922302,389.116821L348.64856,389.226685L348.591614,389.246124L348.294983,389.331665L348.241821,389.344543L347.922302,389.405457L347.873962,389.412598L347.531555,389.449219L347.488342,389.452362L347.123352,389.464661L347.093872,389.464966L346.808411,389.460388L346.789001,389.459503L346.523804,389.446655L346.500916,389.44519L346.255493,389.423767L346.227722,389.420593L346.00293,389.390289L345.97229,389.385437L345.767212,389.346802L345.728882,389.338226L345.544373,389.290741L345.50116,389.277863L345.336426,389.221802L345.284058,389.201233L345.139648,389.136292L345.073242,389.101105L344.920227,389.007568L344.833862,388.943481L344.722839,388.844238L344.671082,388.791595L344.620178,388.724091L344.551819,388.61853L344.515442,388.554169L344.487427,388.486084L344.47168,388.430328L344.445679,388.318756L344.431091,388.220947L344.406799,387.836487L344.406799,387.762695L344.415894,387.689453L344.43396,387.61795L344.460571,387.549286L344.495728,387.484344L344.531189,387.43457L344.50116,387.401398L344.458557,387.341034L344.42395,387.275818L344.397644,387.206879L344.379883,387.135376L344.370422,387.039001L344.310669,383.486847L344.313782,383.413025L344.326416,383.340393L344.347534,383.269745L344.377563,383.202209L344.381592,383.195648L344.356995,383.127869L344.340698,383.056061L344.333557,382.982544L344.335571,382.905029L344.419617,382.000824L344.435669,381.908722L344.459961,381.813477L344.466248,381.790588L344.560974,381.473358L344.592102,381.391266L344.721436,381.114929L344.77179,381.027405L344.935364,380.791992L344.98114,380.734192L345.007446,380.707031L345.205994,380.512238L345.274902,380.454163L345.405945,380.359772L345.460571,380.324585L345.579834,380.25708L345.638184,380.229919L345.647339,378.707001L345.651672,378.640045L345.686279,378.350006L345.708862,378.244171L345.788086,377.989014L345.814148,377.920074L345.837891,377.873169L345.962036,377.652893L346.002319,377.591125L346.0401,377.544769L346.208862,377.359131L346.242065,377.326813L345.892517,376.974121L345.843872,376.91864L345.802673,376.857422L345.769226,376.791626L345.744019,376.722412L345.727722,376.650299L345.720581,376.576782L345.721436,376.516724L345.728333,376.410309L345.737488,376.337097L345.760071,376.252716L345.792114,376.160889L345.820679,376.092804L345.854187,376.038452L345.840698,376.019287L345.806702,375.954071L345.780945,375.884857L345.766663,375.827057L345.73114,375.646301L345.721436,375.573059L345.720886,375.499268L345.729431,375.426025L345.743469,375.366516L345.763794,375.296173L345.788635,375.226654L345.838745,375.133392L345.875366,375.077911L345.919678,375.018982L345.971191,374.966064L346.009766,374.933472L346.06012,374.894836L346.028931,374.852783L345.990051,374.793579L345.884766,374.610779L345.855286,374.552734L345.778625,374.377655L345.752075,374.303864L345.703735,374.13623L345.684814,374.044708L345.664795,373.883942L345.660217,373.818451L345.657104,373.582733L345.659912,373.517517L345.679688,373.313293L345.667358,373.319855L345.506348,373.391663L345.437378,373.417694L345.365601,373.43457L345.292114,373.442566L345.252319,373.443146L344.595276,373.430267L344.52179,373.424255L344.449646,373.409393L344.379883,373.385376L344.313538,373.353027L344.242004,373.305542L343.823792,372.980896L343.768311,372.931976L343.719666,372.87677L343.677917,372.815857L343.64386,372.750336L343.641907,372.744904L343.38269,372.732025L343.309204,372.723755L343.237671,372.706573L343.168457,372.680542L343.110413,372.650513L342.619568,372.361603L342.55835,372.320404L342.483398,372.25177L342.348633,372.105286L342.302002,372.047791L342.255981,371.97171L342.173035,371.80838L342.143555,371.740601L342.116699,371.637909L342.086365,371.457977L342.078613,371.38446L342.081787,371.292633L342.103821,371.09613L342.116699,371.023468L342.126953,370.985413L342.177307,370.823822L342.213623,370.733704L342.281982,370.597534L342.319214,370.533752L342.34491,370.498291L342.431641,370.387299L342.48053,370.332092L342.524841,370.292053L342.629578,370.206818L342.689636,370.16391L342.754578,370.128723L342.818054,370.104675L342.816895,370.101257L342.791748,370.013733L342.743713,369.780029L342.732544,369.697937L342.716492,369.446503L342.716492,369.37326L342.732544,369.104095L342.739685,369.041168L342.78772,368.754272L342.799194,368.700775L342.879578,368.396118L342.893005,368.352356L343.005127,368.029968L343.033447,367.962189L343.035767,367.957886L342.952515,367.921875L342.896729,367.894409L342.737427,367.804565L342.68219,367.769104L342.548584,367.673004L342.488831,367.62381L342.386414,367.527679L342.315491,367.448181L342.244263,367.352051L342.204224,367.290283L342.173035,367.226471L342.132996,367.130371L342.108948,367.060852L342.093811,366.988495L342.087524,366.913269L342.067749,365.919525L342.067444,365.916107L342.054871,364.999329L342.054871,364.994751L342.049744,364.155182L342.049744,364.14975L342.052002,363.387146L342.052002,363.38028L342.062012,362.694916L342.062317,362.689484L342.069763,362.375671L342.069763,362.369965L342.079468,362.075348L342.079773,362.071045L342.090942,361.795868L342.091187,361.788727L342.104675,361.53299L342.104919,361.526978L342.119812,361.290131L342.120422,361.281281L342.137268,361.064148L342.138977,361.047302L342.197083,360.501221L341.861511,360.488922L341.788025,360.48175L341.715942,360.465454L341.646667,360.440308L341.580933,360.40683L341.576599,360.403961L341.516541,360.419403L341.443604,360.428558L341.399536,360.429993L340.180725,360.418549L340.107178,360.413116L340.034851,360.398804L339.964722,360.375641L339.9599,360.373352L339.231628,361.627106L339.190674,361.688599L338.894043,362.078186L338.872925,362.104248L338.568237,362.460938L338.54364,362.488098L338.231262,362.81134L338.203003,362.838806L337.882629,363.12915L337.850281,363.156311L337.522156,363.413757L337.485596,363.440369L337.149719,363.664612L337.108276,363.689789L336.764709,363.880859L336.719788,363.903748L336.368286,364.061951L336.321655,364.080536L336.139709,364.144592L336.093079,364.158905L335.857361,364.220703L335.824463,364.228149L335.534729,364.286774L335.51239,364.291077L335.168884,364.347137L335.152832,364.349426L334.172852,364.481873L334.09906,364.487305L334.025513,364.483276L333.952881,364.470398L333.882202,364.448669L333.815002,364.418335L333.752075,364.380005L333.694275,364.333984L333.642822,364.281342L333.598206,364.222687L333.560974,364.158905L333.532104,364.09082L333.51178,364.019897L333.500366,363.947235L333.498047,363.873444L333.504944,363.799927L333.510071,363.776733L333.483459,363.787903L333.444885,363.802795L332.889343,363.993591L332.850159,364.005585L332.276672,364.159485L332.237732,364.168335L331.646179,364.285065L331.608459,364.291351L330.999146,364.371429L330.962524,364.375153L330.33551,364.418335L330.300354,364.4198L329.655334,364.426086L329.621582,364.425232L328.995117,364.395752L328.96167,364.393463L328.32489,364.327393L328.293701,364.32309L327.646118,364.220978L327.616333,364.215546L327.349487,364.159485L327.322876,364.319946L327.317749,364.347137L327.261353,364.61145L327.253967,364.641754L327.187866,364.887482L327.177856,364.921234L327.102051,365.148621L327.088318,365.186096L327.002808,365.394928L326.983887,365.436096L326.888367,365.626617L326.864624,365.669525L326.759644,365.841736L326.72821,365.888062L326.61322,366.041962L326.567993,366.095734L326.471313,366.197571L326.407532,366.255646L326.301697,366.338867L326.223572,366.39093L326.108582,366.455017L326.023926,366.493622L325.900085,366.539124L325.811707,366.563995L325.67865,366.590607L325.595459,366.601196L325.453247,366.609192L325.376892,366.608612L325.226135,366.597748L325.16095,366.589447L325.001343,366.559998L324.935547,366.543976L324.770752,366.493622L324.701538,366.46759L324.646606,366.439575L324.499329,366.354309L324.437805,366.313416L324.395203,366.277954L324.264771,366.158386L324.213562,366.105164L324.186951,366.071411L324.073975,365.917236L324.023621,365.835449L323.92749,365.646637L323.896301,365.57428L323.817627,365.350861L323.800232,365.291931L323.738403,365.033936L323.729004,364.984436L323.684631,364.691803L323.680359,364.657196L323.651428,364.344543L323.64917,364.307922L323.639465,363.984711L323.639465,363.949524L323.64917,363.615143L323.651184,363.582245L323.680359,363.236969L323.683472,363.20636L323.732117,362.85025L323.736694,362.82251L323.804749,362.4552L323.810242,362.429474L323.897766,362.0513L323.903748,362.027557L324.010742,361.63855L324.570557,359.563538L324.205261,359.405945L324.139465,359.372467L324.078247,359.331299L324.022766,359.282959L323.973572,359.227722L323.931519,359.167084L323.897461,359.101868L323.871399,359.032654L323.854553,358.960846L323.846558,358.887634L323.850281,358.786377L323.980957,357.727417L323.994446,357.65506L324.017029,357.584686L324.047913,357.517761L324.086792,357.455109L324.133423,357.397614L324.213562,357.324951L324.547913,357.072937L324.557373,357.066071L324.713257,356.953369L324.749329,356.929077L324.904602,356.833252L324.946655,356.809509L325.10199,356.730255L325.149475,356.708801L325.304504,356.646149L325.374634,356.622711L325.44696,356.608124L325.520508,356.602661L325.594299,356.606384L325.666931,356.619263L325.737305,356.641022L325.80481,356.671051L325.835693,356.689941L325.996765,356.395569L326.036255,356.333221L326.082886,356.276001L326.136353,356.225098L326.195862,356.181335L326.260193,356.145294L326.358337,356.108093L326.616028,356.036011L326.592041,356.00769L326.547974,355.948792L326.511353,355.884705L326.482727,355.81662L326.463013,355.745667L326.452454,355.672455L326.450745,355.598938L326.45813,355.525421L326.474487,355.453613L326.499939,355.384125L326.545105,355.299744L327.142395,354.372925L327.184998,354.31488L327.375488,354.085754L327.426147,354.031982L327.483032,353.985046L327.545105,353.945313L327.611755,353.913544L327.657837,353.897522L328.243958,353.716736L328.31543,353.69931L328.386963,353.69101L329.283142,353.642365L329.356934,353.642944L329.430176,353.652679L329.501404,353.671265L329.570068,353.69873L329.634705,353.734497L329.694214,353.777679L329.748291,353.828003L329.795471,353.884949L329.835205,353.947021L329.842102,353.961029L329.876709,353.953613L329.985413,353.940735L330.15387,353.936432L330.227661,353.939026L330.269165,353.944733L330.435364,353.973053L330.541504,354.001373L330.705688,354.062012L330.796936,354.104919L330.958557,354.198181L331.029785,354.246521L331.188782,354.37207L331.244019,354.421265L331.292358,354.476776L331.333557,354.537994L331.366699,354.604065L331.391602,354.673279L331.407898,354.745361L331.415039,354.818878L331.412781,354.8927L331.401611,354.965637L331.381592,355.03656L331.353027,355.10437L331.328979,355.145844L331.356995,355.147552L331.430237,355.156433L331.50177,355.174164L331.570679,355.200745L331.627625,355.230804L331.780334,355.322052L331.841309,355.363525L331.904236,355.420441L331.946289,355.464203L331.96283,355.40213L332.046692,355.030853L332.054688,354.999664L332.161682,354.621796L332.171692,354.590332L332.298401,354.222198L332.31012,354.19043L332.456543,353.832306L332.470032,353.801697L332.635925,353.453308L332.651367,353.423279L332.836731,353.084869L332.853882,353.055695L333.05896,352.72702L333.077576,352.698975L333.302429,352.380341L333.321838,352.354309L333.566162,352.04538L333.586731,352.020782L333.850464,351.721863L333.871948,351.698975L334.155396,351.410065L334.177124,351.388885L334.480347,351.109711L334.501831,351.09082L334.824463,350.821381L334.846497,350.803925L335.188904,350.544495L335.210632,350.528748L335.57251,350.279327L335.593933,350.265015L335.975525,350.025604L336.003296,350.009277L336.608276,349.674042L336.648865,349.653748L337.251038,349.377686L337.296204,349.3591L337.895752,349.141724L337.945557,349.125977L338.542786,348.967224L338.597168,348.955505L339.191528,348.855652L339.249023,348.848785L339.840881,348.807617L339.89978,348.806458L340.489075,348.823914L340.547729,348.828491L341.134644,348.904297L341.177551,348.911438L341.521667,348.981812L341.55658,348.990112L341.896973,349.08136L341.930176,349.09137L342.266296,349.202911L342.299744,349.21521L342.631836,349.347961L342.66272,349.361389L342.99054,349.514435L343.020874,349.529602L343.344666,349.703796L343.371826,349.719238L343.69165,349.913757L343.718262,349.930908L344.033752,350.146606L344.092102,350.192078L344.144165,350.244141L344.189392,350.30249L344.227112,350.365692L344.228821,350.36969L344.959961,350.498138L347.390808,350.429504L348.248413,350.357971L348.343079,350.357697L348.56073,350.374268L348.573364,350.375427L348.7724,350.394897L348.787842,350.396606L348.968079,350.418915L348.987549,350.421753L349.14917,350.447235L349.173462,350.451508L349.316223,350.480133L349.345093,350.486694L349.469543,350.518158L349.508118,350.529327L349.614258,350.563934L349.666016,350.583374L349.753296,350.621155L349.828247,350.660034L350.140564,350.851685L350.224976,350.914612L350.404602,351.074524L350.460938,351.002747L350.509888,350.94751L350.565369,350.898895L350.611145,350.866577L350.703247,350.808228L350.767883,350.772766L350.836548,350.745575L350.908081,350.72699L350.981018,350.717255L351.05481,350.716675L351.128052,350.725555L351.199829,350.742981L351.268738,350.769592L351.355713,350.818237L351.570251,350.963531L351.609985,350.994995L351.619446,350.987854L351.683228,350.950378L351.690979,350.94696L351.674377,350.905182L351.653503,350.842529L351.58197,350.579651L351.565674,350.495575L351.535645,350.249268L351.531921,350.145447L351.54425,349.915741L351.552795,349.842529L351.561646,349.801636L351.615479,349.588806L351.637756,349.518707L351.657227,349.474365L351.752747,349.277863L351.789063,349.213806L351.815369,349.176331L351.953003,348.996674L352.02478,348.918304L352.070557,348.876526L352.069092,348.873108L352.03363,348.764984L352.015076,348.693481L352.00531,348.620239L352.004761,348.5513L351.980469,348.484375L351.969849,348.444336L351.921509,348.228088L351.910095,348.155121L351.907532,348.081329L351.914063,348.008118L351.916382,347.997528L351.902649,347.954315L351.889221,347.881653L351.884644,347.808167L351.887756,347.767517L351.866882,347.748932L351.817993,347.693726L351.776184,347.632813L351.742432,347.567291L351.717285,347.498077L351.704102,347.444885L351.634033,347.094482L351.628601,347.063843L351.573669,346.688293L351.570557,346.661377L351.530518,346.26062L351.528503,346.236877L351.503052,345.810394L351.502197,345.789795L351.491577,345.370453L351.491577,345.339294L351.502441,344.94281L351.504456,344.908203L351.536499,344.534058L351.541077,344.495422L351.594543,344.14389L351.6026,344.100983L351.677551,343.772308L351.690125,343.726563L351.786194,343.420471L351.80426,343.370697L351.921814,343.087219L351.946411,343.035156L352.085449,342.774292L352.103455,342.742828L352.271362,342.46936L352.287109,342.445068L352.46875,342.179321L352.485046,342.156433L352.67981,341.898407L352.697021,341.876953L352.904968,341.626373L352.933838,341.594055L353.221008,341.29541L353.263916,341.254822L353.538574,341.020813L353.602905,340.973328L353.865784,340.804291L353.959351,340.755371L354.110046,340.692719L354.84375,340.00708L355.003418,339.851746L355.035461,339.822845L355.204773,339.68042L355.242554,339.65094L355.412415,339.529938L355.458801,339.500183L355.630127,339.400635L355.682739,339.373474L355.854675,339.29538L355.916199,339.271362L356.089539,339.214722L356.156738,339.196991L356.331238,339.161804L356.402466,339.152069L356.565186,339.139496L357.581238,339.015625L357.659058,338.990173L357.798645,338.914093L358.138184,338.713562L358.192261,338.685242L358.489746,338.548523L358.552124,338.5242L358.812683,338.438385L358.906799,338.415497L359.129883,338.380615L359.20343,338.373749L359.275818,338.376038zM364.676788,345.653717L365.143402,347.026093L365.214447,346.930847C365.429199,346.649902,365.561584,346.420624,365.608398,346.244629C365.697205,345.931427,365.705292,345.674683,365.632629,345.47287C365.553497,345.264587,365.421112,345.2323,365.238678,345.377625C365.056213,345.513245,364.868927,345.597198,364.676788,345.629486L364.676788,345.653717zM325.528107,357.197937C325.321442,357.270599,325.114777,357.386841,324.906494,357.548309L324.572266,357.800171L324.441498,358.859344L324.943634,359.075714L325.169678,359.208099L325.218109,359.245239C325.226166,358.450867,325.329529,357.767883,325.528107,357.197937zM327.643188,354.695343L327.045807,355.622131L327.331604,355.957947L327.415558,355.933716L327.941895,355.333099C328.324554,354.947235,328.741119,354.609772,329.196411,354.32077L329.315918,354.236816L328.4198,354.285248L327.83374,354.466064L327.643188,354.695343zM329.73407,356.175903C330.155487,355.589813,330.517151,355.144196,330.820679,354.83905C330.399292,354.461243,329.952057,354.428955,329.482208,354.742157C328.980072,355.063477,328.6297,355.408997,328.431122,355.778717L329.219025,355.741608C329.451538,355.765808,329.606537,355.862701,329.685638,356.030609L329.73407,356.175903zM339.122864,358.318451L337.952271,360.196228C336.773651,361.817261,335.488434,363.049164,334.093445,363.891998L335.073486,363.759583C335.567566,363.686951,335.917908,363.606201,336.124573,363.519012C337.072327,363.141205,337.936157,362.411407,338.71759,361.328033L339.494202,359.99118L339.122864,358.318451zM325.218109,359.450287L324.585205,361.796265C324.27359,362.848969,324.170227,363.783813,324.27359,364.602417C324.368835,365.429077,324.648163,365.885986,325.109924,365.974792C325.547485,366.078125,325.891388,365.98288,326.13681,365.685791C326.456482,365.299896,326.671234,364.718658,326.782623,363.94043C326.440338,364.043762,326.13681,363.79187,325.875244,363.18158C325.604004,362.538971,325.400543,361.55246,325.264923,360.220428L325.218109,359.450287zM360.591919,357.259308C359.883118,358.342682,358.911133,359.185486,357.675964,359.786102C357.062439,360.075134,356.526398,360.255951,356.063019,360.328613L355.107178,361.050323C354.375793,361.555695,353.666992,361.936737,352.980774,362.193451C354.948944,362.411407,357.010773,361.700989,359.169464,360.063812C359.845978,359.558472,360.491791,358.988525,361.105347,358.353973L361.833527,357.5354C362.104767,357.046173,362.256531,356.552124,362.287201,356.05481C361.865814,356.311554,361.412109,356.519836,360.926117,356.681274L360.591919,357.259308zM339.386047,357.897064L339.24234,358.137634L339.315002,358.305542C339.578156,358.964294,339.868774,359.469666,340.186859,359.823242L341.405884,359.834564C341.213745,359.064392,341.07489,358.318451,340.987701,357.595123C340.868225,356.519836,340.887604,355.654419,341.047424,354.995667C341.317078,353.928436,341.970978,352.704559,343.00592,351.324097C342.129211,351.789093,341.397797,352.331604,340.808472,352.948364C340.162659,353.62326,339.736389,354.630768,339.529724,355.970856C339.426392,356.652222,339.386047,357.267365,339.410248,357.81311L339.386047,357.897064zM347.592926,383.790039L346.554749,383.778748L344.906281,383.476837L344.966003,387.0289C345.474609,387.261414,345.936371,387.401855,346.351318,387.450317L347.342682,387.48584C347.660736,387.477753,347.828674,387.44223,347.844818,387.377655L347.988495,385.57254C348.05954,384.432648,348.070862,383.841705,348.024017,383.802979L347.592926,383.790039M351.022308,351.311188C350.878601,351.375763,350.818848,351.492035,350.843079,351.66156L351.022308,352.323547C351.309692,353.174408,351.380737,353.996246,351.23703,354.790619C351.030365,355.890137,350.587982,357.057465,349.911469,358.29425C349.607941,358.848053,349.289856,359.537476,348.955627,360.364136L348.716675,360.977661C349.465851,360.890472,350.106842,360.704803,350.639648,360.423889L352.252625,359.437378C352.75473,359.083771,353.026001,358.802826,353.064758,358.594543C353.080902,358.554199,352.909729,358.032684,352.5513,357.030029C352.176727,355.922424,352.013641,354.866486,352.062073,353.863831L352.049164,353.683014C352.024963,352.599609,351.75531,351.856934,351.23703,351.456512L351.022308,351.311188zM344.928894,368.298157L343.56778,368.225525C343.225494,369.108704,343.225494,369.802948,343.56778,370.308319C343.847107,370.70874,343.950439,371.070404,343.877777,371.391693C343.847107,371.495026,343.774445,371.540253,343.663055,371.524109C343.559723,371.507965,343.508057,371.443359,343.508057,371.330353C343.499969,371.049408,343.372437,370.816925,343.125397,370.632843L343.00592,370.668365C342.854156,370.765259,342.750824,370.929932,342.695923,371.162445C342.631348,371.435303,342.707214,371.664551,342.921967,371.848633L343.412781,372.137634L343.902008,372.161865L344.295959,371.848633C344.488098,371.599976,344.659241,371.291595,344.809387,370.921875C344.849762,370.808838,344.928894,370.773315,345.04837,370.81369C345.167847,370.854065,345.208191,370.933167,345.167847,371.05426L345.025757,371.403015C344.906281,371.667786,344.765808,371.892212,344.607574,372.077911C344.447754,372.27002,344.308899,372.413727,344.189392,372.51062L344.607574,372.835144L345.264709,372.848053C345.479462,372.775391,345.694183,372.610718,345.908936,372.354004C346.076843,372.161865,346.199554,371.981018,346.278656,371.81311C346.335175,371.700073,346.419128,371.672638,346.530548,371.727539C346.641937,371.767914,346.67746,371.848633,346.637115,371.969727L346.422363,372.643005C346.286743,373.132233,346.231842,373.521332,346.256073,373.810333C346.26413,374.020233,346.346497,374.247894,346.506317,374.496552C346.666168,374.729034,346.848602,374.917938,347.055267,375.063263C347.26355,375.190796,347.434692,375.227936,347.570343,375.171448C347.681732,375.131073,347.741486,375.07132,347.749542,374.990601C347.764069,374.893738,347.725342,374.712891,347.630066,374.44809C347.437927,373.934662,347.279694,373.309814,347.152161,372.570343C346.99231,371.64035,346.94873,370.800781,347.019775,370.05484C347.076263,369.460663,347.063354,368.935944,346.984253,368.477386L346.888977,368.11734L344.928894,368.298157zM373.12265,353.972015L373.779785,353.35849C374.059113,353.021027,374.202789,352.744934,374.210876,352.526978C374.218964,352.415558,374.170502,352.31546,374.067169,352.226654C373.868591,352.058746,373.36969,352.250885,372.5737,352.804688C371.872955,353.293884,371.139954,353.920349,370.376251,354.682434L370.746002,354.995667C370.984955,355.341187,371.107666,355.830383,371.115723,356.464935C371.131866,357.073608,370.976868,357.716217,370.650726,358.389496L370.387543,358.883575L370.650726,359.256531C371.0802,359.769958,371.538757,360.139709,372.02475,360.364136C372.367035,360.541748,372.685089,360.661224,372.98056,360.7258L373.494019,360.737091C373.581177,360.633759,373.545685,360.436798,373.385834,360.147766C373.282501,359.963715,373.095215,359.694092,372.823944,359.340485L372.442902,358.823822C372.346039,358.639771,372.315369,358.470245,372.346039,358.318451C372.426758,358.069824,372.677032,357.856689,373.100037,357.680695C373.450409,357.5354,373.879883,357.378784,374.390106,357.210876C375.870667,356.721649,376.58432,356.351898,376.527802,356.103271C376.495514,355.941803,376.221039,355.822327,375.704376,355.741608L374.078491,355.668945C373.967072,355.668945,373.899261,355.617279,373.876648,355.513947C373.860504,355.417053,373.896027,355.341187,373.983215,355.284668C374.444977,355.092529,374.876068,354.863251,375.273285,354.59848C375.783478,354.277161,376.070862,354.004303,376.13385,353.779877C376.158051,353.715302,376.145142,353.647491,376.098328,353.574829C375.938477,353.350403,375.525146,353.345551,374.855103,353.563538C374.33844,353.747589,373.831451,353.993011,373.338989,354.296539C373.23407,354.361145,373.146881,354.344971,373.075836,354.249725C373.01123,354.160919,373.027405,354.068878,373.12265,353.972015zM360.448212,356.81366L360.304504,356.849182C359.891174,357.46759,359.329315,357.929352,358.620514,358.234497C357.911713,358.521912,357.219055,358.591339,356.540924,358.437927C354.868225,358.029449,354.093231,356.519836,354.212708,353.912292C353.654053,353.125977,353.276245,352.515656,353.077667,352.082947C352.615875,352.07489,352.241302,351.873077,351.953918,351.480713C352.176727,352.250885,352.328491,352.96936,352.407593,353.634583L352.443115,353.828308C352.523865,355.200714,352.766052,356.359985,353.172913,357.306122L353.734802,358.594543C353.718658,359.036957,352.746674,359.758667,350.818848,360.761322L349.971222,361.231171C349.612762,361.415222,349.333435,361.528259,349.134857,361.568604C350.098755,361.92865,351.082031,362.133728,352.084686,362.182159C353.072815,361.893127,354.072235,361.3797,355.084595,360.641846L356.301971,359.593994L356.398834,359.545532C357.768005,359.393768,359.070984,358.550964,360.304504,357.01712L360.448212,356.81366zM349.469086,382.056C349.365753,381.558716,349.086426,381.193817,348.632721,380.961304L347.975586,380.756256L347.880341,380.707825L347.820587,380.564117C348.019196,380.05069,348.107971,379.445221,348.083771,378.746094C348.067627,378.337616,347.994965,377.932373,347.869019,377.530334L347.67688,377.036255C347.613922,376.973297,347.601013,376.90387,347.641357,376.832825L347.85611,376.857056L348.048248,376.844147C348.054718,376.700439,347.988495,376.519592,347.844818,376.303253L347.641357,375.96582C347.665588,375.86087,347.728546,375.809204,347.831909,375.809204C347.975586,375.809204,348.075684,375.776917,348.130585,375.712311L348.167725,375.531494C348.151581,375.420074,348.114441,375.355499,348.05954,375.339355L348.011108,375.328064L347.701111,375.544403C347.318451,375.671936,346.99231,375.652588,346.721069,375.48465L346.530548,375.328064L346.495026,375.339355C346.391693,375.363556,346.33194,375.428162,346.315796,375.531494L346.351318,375.712311C346.414307,375.776917,346.517639,375.809204,346.661316,375.809204C346.764648,375.809204,346.824402,375.86087,346.840546,375.96582C346.856689,376.069153,346.81308,376.133728,346.709778,376.157928L346.495026,376.217682C346.367462,376.290344,346.307739,376.403351,346.315796,376.555115L347.043976,377.289764C347.092407,377.370483,347.084351,377.449615,347.019775,377.530334L346.650024,377.759613C346.394928,377.984039,346.259277,378.300476,346.243134,378.710571L346.231842,380.539917C346.231842,380.644836,346.180176,380.70459,346.076843,380.720734C345.957367,380.720734,345.805603,380.793396,345.623138,380.937103C345.335754,381.169586,345.140381,381.510254,345.037048,381.960754L345.012848,382.056L344.928894,382.960144L345.824982,383.357361L346.601593,383.513977L347.652679,383.320221L348.382477,383.344421C348.453491,383.473602,348.453491,384.267975,348.382477,385.727539L348.250061,387.895935L347.760864,388.099365L346.386841,388.183319C345.781372,388.09613,345.319611,387.96698,345.001526,387.799042L345.025757,388.183319C345.032227,388.3367,345.151703,388.472321,345.384186,388.593414C345.742615,388.777496,346.315796,388.869507,347.103729,388.869507C348.107971,388.869507,348.868439,388.609558,349.385132,388.088074L349.457764,387.96698L349.469086,387.918518L349.469086,387.895935C349.62085,385.440155,349.648285,383.693176,349.55304,382.658234L349.504608,382.309479L349.469086,382.056zM346.601593,380.685211L347.008453,380.696533L347.413727,380.685211C347.533203,380.685211,347.592926,380.712677,347.592926,380.769165C347.592926,380.832153,347.533203,380.896729,347.413727,380.961304L347.008453,381.069489C346.856689,381.069489,346.721069,381.033966,346.601593,380.961304C346.490173,380.896729,346.435272,380.832153,346.435272,380.769165C346.435272,380.712677,346.490173,380.685211,346.601593,380.685211zM370.040405,355.139343L368.08194,354.935913C366.672424,354.726013,365.689117,354.441864,365.130493,354.0802L364.52179,353.695923L364.497559,353.744354C364.076172,354.449921,363.582092,355.047333,363.016998,355.53653C363.016998,356.146851,362.829712,356.797516,362.455139,357.486938L362.167725,357.884155C363.299561,358.326538,364.486267,358.599396,365.727875,358.702728C366.883911,358.807678,367.886566,358.791534,368.739075,358.654297L369.670685,358.450867C369.798248,358.362061,369.920929,358.213501,370.040405,358.005249C370.287445,357.611267,370.411774,357.138214,370.411774,356.584412C370.403687,356.079041,370.339111,355.689941,370.219635,355.417053L370.040405,355.139343zM359.408417,338.985504C359.185608,338.928986,358.862701,339.009705,358.441284,339.226074L358.094147,339.431122C357.958527,339.518311,357.830994,339.574829,357.711487,339.59903L356.624878,339.731445C356.15506,339.739502,355.69812,339.976837,355.250885,340.441833L354.438751,341.200714C354.11261,341.295959,353.754181,341.565582,353.363434,342.006378C353.077667,342.335754,352.825775,342.684509,352.611053,343.05423C352.21225,343.719452,352.041107,344.626831,352.097595,345.774811C352.121826,346.360901,352.184784,346.877563,352.288116,347.328033C352.5271,346.653137,352.906525,346.120331,353.423187,345.726379L354.020569,345.316254L354.438751,345.075684C354.215942,344.867401,354.025421,344.634918,353.86557,344.378204C353.666992,344.040741,353.599182,343.767883,353.66214,343.559601C353.749329,343.205994,353.914001,342.929901,354.152954,342.728088C354.479126,342.448761,354.892456,342.371277,355.394592,342.500427C355.546356,342.548859,355.828888,342.689331,356.242249,342.921844C356.586151,343.138184,356.820251,343.243134,356.947815,343.235077L357.939148,342.427795C358.520416,341.962769,358.946655,341.809387,359.217896,341.970856L359.958984,342.584381L360.496643,342.994507C360.64679,343.113983,360.787262,343.154327,360.913208,343.113983L361.260345,342.981567C361.547729,342.876648,361.730194,342.829803,361.809296,342.837891C361.993347,342.821747,362.200012,342.905701,362.430908,343.089752C362.574615,343.194702,362.802277,343.499847,363.112274,344.005219L363.601471,344.786682C363.82428,345.036926,364.063263,345.200012,364.318359,345.280731C364.613831,345.377625,364.868927,345.340485,365.083679,345.172577C365.417877,344.932007,365.660065,344.591309,365.811829,344.148926C365.97168,343.716217,366.007202,343.319031,365.920013,342.957367C365.871582,342.684509,365.752106,342.427795,365.561584,342.187195C365.553497,342.500427,365.442108,342.721619,365.227356,342.849182C364.939972,343.025177,364.625122,343.073608,364.282837,342.994507C363.956696,342.905701,363.690277,342.705475,363.481995,342.392273C362.853943,341.49295,362.414764,340.990814,362.167725,340.887482C361.953003,340.806732,361.634918,340.806732,361.211914,340.887482C360.885773,340.94397,360.659729,340.895538,360.532166,340.742157L360.185028,340.11731C359.858887,339.418213,359.600555,339.042023,359.408417,338.985504zM349.517517,351.16748C349.309235,351.062561,348.903961,350.991516,348.298523,350.951141L347.426636,351.023804L344.917572,351.094849L343.961761,350.92691L343.77124,350.999573C343.022064,352.042603,342.432739,353.085602,342.003265,354.128632C341.588318,355.155518,341.547943,357.078461,341.883789,359.894287L342.242218,359.907196C342.384308,359.240387,342.576447,358.602631,342.815399,357.99231L343.328827,356.873413L344.140961,355.128052C344.355713,354.671143,344.459045,354.344971,344.450958,354.152863L344.822327,354.11734C344.854614,354.414398,344.798096,354.787384,344.654388,355.236237C344.510712,355.668945,344.257202,356.271179,343.890717,357.041321C343.516113,357.829254,343.249725,358.486389,343.089874,359.015961C342.921967,359.602051,342.80249,360.299561,342.731445,361.110077C342.636169,362.217682,342.620026,364.148712,342.683014,366.90155C342.715302,367.029114,342.831543,367.158264,343.030151,367.285828C343.428925,367.542542,344.040863,367.66687,344.869141,367.658813C345.705505,367.642639,346.394928,367.566772,346.935791,367.431152L347.47345,367.261597C347.33136,365.102936,347.315216,363.519012,347.426636,362.506683C347.465393,362.130493,347.712402,361.431366,348.167725,360.412567C348.556824,359.561676,348.971802,358.743103,349.409332,357.956787C349.68866,357.435303,349.946991,356.862122,350.185944,356.235657L350.699371,354.658203C350.970642,353.783112,350.930267,352.993591,350.579895,352.286407C350.308655,351.756805,349.955078,351.38385,349.517517,351.16748zM330.307251,356.392273L330.174866,356.824982C330.152252,356.962219,330.087677,357.030029,329.984344,357.030029L329.756683,357.05426L329.338501,357.462738C329.099548,357.680695,328.960693,357.77597,328.920349,357.75174C328.817017,357.688782,328.800842,357.599976,328.873505,357.486938L329.14798,356.921844C329.315918,356.53598,329.378876,356.29541,329.338501,356.198517L329.207733,356.127472C328.897736,356.103271,328.403656,356.175903,327.727173,356.343842L327.667419,356.368042L327.678711,356.368042L327.510803,356.403564L326.51947,356.681274L325.946289,357.727539C325.658875,358.458923,325.563629,359.272675,325.658875,360.171997C325.755768,361.126221,326.002808,361.941589,326.399963,362.614868L327.081329,363.494812C327.966125,363.703094,328.821838,363.816101,329.650116,363.830627C331.39386,363.862915,332.947083,363.502869,334.309814,362.747253C335.670898,362.001312,336.838226,360.993805,337.808594,359.726379L339.027588,357.77597C339.003387,357.086548,339.055054,356.384186,339.182587,355.668945C339.413483,354.377289,339.860718,353.377838,340.521088,352.672272C341.086182,352.086182,341.683594,351.613129,342.313263,351.251465C342.703979,351.018951,343.165771,350.813904,343.698578,350.637909C342.862213,350.035675,341.982269,349.654633,341.058746,349.494781C339.497437,349.213867,337.908691,349.55777,336.292511,350.529724C334.204865,351.781036,332.95517,353.455353,332.540222,355.549469C332.477234,355.81424,332.398132,356.027374,332.30127,356.187225C332.175323,356.387421,332.034851,356.471375,331.883087,356.440704C331.757141,356.424561,331.692566,356.36322,331.692566,356.259888C331.676422,356.019287,331.553711,355.846558,331.322815,355.741608L330.904663,355.717377L330.307251,356.392273zM362.191956,343.281891C361.96106,343.12204,361.602631,343.162415,361.116638,343.402985L360.364258,343.378754L359.682892,342.970276C359.405182,342.77652,359.077423,342.70871,358.704468,342.765228C358.297577,342.829803,357.911713,343.025177,357.545197,343.354553C357.377289,343.515991,357.175446,343.575745,356.936493,343.53537L356.361725,343.306122C356.15506,343.202789,355.820831,343.086517,355.35907,342.957367C354.927979,342.845947,354.590515,343.021942,354.343475,343.486938C354.080322,343.99231,354.256287,344.470215,354.868225,344.919067L354.97641,345.040161C355.008698,345.120911,354.968323,345.183868,354.856934,345.2323C354.370941,345.4422,353.960846,345.661774,353.626617,345.894287C352.942047,346.423859,352.559387,347.063232,352.480255,347.809174C352.774109,347.271515,353.148712,346.785522,353.602386,346.352814C354.144897,345.910431,354.498474,345.669861,354.666412,345.629486C354.777802,345.605286,354.848846,345.634338,354.881134,345.715057C354.913422,345.786102,354.889221,345.842621,354.808472,345.882965L354.474274,346.088043C354.212708,346.247864,353.980194,346.415802,353.781616,346.593384C353.38443,346.890472,352.958191,347.390991,352.502869,348.098175L352.5513,348.314545L352.921051,347.796265C353.176147,347.476563,353.423187,347.223083,353.66214,347.039001C353.988281,346.790375,354.275665,346.633759,354.522705,346.569183C354.617981,346.544952,354.666412,346.585327,354.666412,346.68866C354.674469,346.79361,354.614746,346.874329,354.487183,346.930847C354.223999,347.03418,354.009277,347.155273,353.84137,347.290894C353.474854,347.587982,353.061523,348.017456,352.599731,348.579315L352.635254,348.6875C352.706299,348.695587,352.766052,348.719788,352.814484,348.760162C352.925903,348.832825,352.929108,348.92807,352.825775,349.049164C352.18158,349.417297,351.981354,349.963013,352.228394,350.68634C352.45929,351.391907,352.937195,351.745514,353.66214,351.745514C354.235321,353.134064,354.987701,354.217438,355.920929,354.995667C356.182495,355.212006,356.151825,355.284668,355.824066,355.212006C355.505981,355.14743,355.160461,354.955292,354.785889,354.634003C354.650269,356.222748,355.17984,357.238312,356.374634,357.680695C356.828339,357.840546,357.273956,357.872833,357.711487,357.77597C358.142578,357.680695,358.408997,357.491791,358.512329,357.210876L357.748627,356.981598C357.35791,356.805603,357.181915,356.689362,357.22229,356.632843L357.95047,356.765228C358.628571,356.862122,359.413269,356.77655,360.304504,356.511749C361.841583,356.046753,363.055756,355.055389,363.948608,353.539307C364.809174,352.070038,365.17569,350.492615,365.048157,348.808594C364.967407,347.692932,364.697784,346.62085,364.234406,345.593964C363.932465,345.513245,363.622467,345.313019,363.302795,344.99173L362.813568,344.173126C362.511627,343.667786,362.303375,343.370697,362.191956,343.281891zM354.41452,348.506683C354.446808,348.595459,354.419373,348.660065,354.332184,348.700409L354.164276,348.819885L353.949524,349.049164C353.925323,349.136353,353.868805,349.176727,353.781616,349.16864C353.694427,349.152496,353.66214,349.084686,353.68634,348.96521C353.710571,348.852203,353.786469,348.735931,353.914001,348.614838L354.223999,348.422699C354.303131,348.390411,354.367706,348.419495,354.41452,348.506683zM354.546936,347.592804C354.577606,347.68808,354.538849,347.763977,354.42746,347.820465L353.925323,348.073975L353.49585,348.44693C353.335999,348.58255,353.252045,348.606781,353.243958,348.519592L353.398956,348.20636L353.746094,347.844696C353.944702,347.676788,354.156189,347.560516,354.378998,347.495941C354.45813,347.479797,354.514648,347.512085,354.546936,347.592804zM359.85083,353.984924L360.05426,353.972015L361.032684,354.212585C361.184448,354.244873,361.184448,354.296539,361.032684,354.369202L360.614502,354.514526C360.39978,354.577484,360.160828,354.546814,359.899261,354.417633L359.742645,354.296539L359.731323,354.11734L359.85083,353.984924zM363.875946,346.20752L362.921753,346.063812L362.742523,345.942719L362.705383,345.715057L362.778046,345.51001C362.794189,345.429291,362.832947,345.377625,362.897522,345.353394L363.088043,345.401825L363.924408,346.063812L364.008362,346.196198L363.875946,346.20752zM358.368622,344.53479C358.433228,344.567108,358.476807,344.610687,358.501038,344.667206L358.644714,344.919067C358.731903,345.09668,358.756134,345.204865,358.715759,345.245209L358.488098,345.304962L358.023102,345.448669L357.461243,345.690857L357.102814,345.799011C357.078583,345.582672,357.249725,345.313019,357.616241,344.99173L358.202332,344.546112L358.368622,344.53479zM363.291473,347.352234C363.41095,347.36676,363.502991,347.460419,363.565948,347.628326C363.645081,347.796265,363.674133,347.993225,363.649933,348.217651C363.625702,348.442078,363.565948,348.630981,363.470703,348.784363C363.367371,348.936157,363.255951,349.003967,363.136475,348.987823C363.016998,348.981354,362.924988,348.892548,362.862,348.723022C362.781281,348.555115,362.753815,348.358124,362.778046,348.133698C362.802277,347.909271,362.862,347.720367,362.957275,347.568604C363.060608,347.415222,363.171997,347.344177,363.291473,347.352234zM356.6604,347.736511C356.899353,347.495941,357.186768,347.31189,357.520966,347.182709C358.213623,346.909851,358.811035,347.042236,359.313171,347.579895C358.644714,347.460419,358.094147,347.555695,357.664673,347.868896C357.441864,348.030365,357.286865,348.198273,357.198059,348.374268L356.6604,347.736511zM360.913208,347.290894L361.271637,348.325836C361.384674,348.598694,361.638153,349.052399,362.036957,349.68692L362.085388,349.879059L362.012726,350.059906L361.391113,350.794525C361.23291,350.946289,361.040771,350.946289,360.817932,350.794525L360.711395,350.68634L360.758209,350.541046L361.271637,350.000153C361.376587,349.879059,361.3992,349.746674,361.344299,349.602966L360.961639,348.590637L360.711395,347.71228L360.627441,347.315125C360.60321,347.147186,360.630646,347.066467,360.711395,347.074524C360.790497,347.066467,360.858307,347.13913,360.913208,347.290894zM363.183319,351.781036L363.23175,351.68576C363.264038,351.669617,363.294708,351.688995,363.326996,351.745514L363.709656,352.347748C363.788757,352.483368,363.780701,352.612549,363.685425,352.732025L363.076752,353.466644C362.973419,353.579681,362.936279,353.563538,362.968567,353.418213L362.968567,353.298737C362.984711,353.234161,362.968567,353.177643,362.921753,353.129211L362.765137,353.093689L361.965912,353.442444C361.344299,353.66687,360.787262,353.747589,360.293213,353.683014C359.80722,353.634583,359.19046,353.331024,358.441284,352.769165L357.485474,351.937653L357.282013,351.913422L357.115723,352.010315L357.04306,352.551178C356.939728,352.664215,356.880005,352.644836,356.863831,352.491455L356.779877,351.38385C356.779877,351.223999,356.847687,351.110992,356.983337,351.046387L358.273376,350.337585C358.337952,350.313385,358.376709,350.313385,358.392853,350.337585L358.381561,350.457092L358.189423,350.805817C358.150665,350.862335,358.158752,350.92691,358.213623,350.999573L358.368622,351.156189C359.405182,351.693848,360.185028,352.026459,360.711395,352.153992L362.108002,352.250885L362.921753,352.202454C362.984711,352.202454,363.041229,352.178223,363.088043,352.129791C363.144562,352.07489,363.171997,352.013519,363.171997,351.950562L363.183319,351.781036zM360.377167,353.201874L361.33139,353.226074L362.862,352.90155C362.973419,352.885406,363.060608,352.804688,363.123566,352.66098C363.171997,352.523743,363.09613,352.447845,362.897522,352.431702L362.085388,352.467224L360.578979,352.371979C359.950928,352.242798,359.166229,351.913422,358.226563,351.38385L357.987579,351.311188C357.868103,351.288574,357.751862,351.307953,357.640472,351.372559C357.529053,351.435516,357.496765,351.521088,357.545197,351.62442L357.724426,351.829468L359.408417,352.925781L360.377167,353.201874z"/>
</svg>
