<?xml version="1.0" encoding="UTF-8"?>
<svg xmlns="http://www.w3.org/2000/svg" xmlns:xlink="http://www.w3.org/1999/xlink" width="53.529mm" height="52.386mm" viewBox="-306.850464 337.726410 53.529480 52.385864">
    <path transform="matrix(-1,0,0,1,0,0)" style="stroke:none;fill:#000000;fill-rule:evenodd" d="M303.435608,355.076904L303.238281,355.223358L303.132141,355.332642L303.094116,355.395264L303.102356,355.412445L303.123535,355.444183L303.542908,355.833221L303.563782,355.853516L304.262878,356.568634L304.320068,356.637024L304.446228,356.812073L304.490845,356.884155L304.56897,357.033478L304.598999,357.100677L304.619568,357.167328L304.649902,357.290894L304.663086,357.363556L304.667053,357.437073L304.656738,357.542358L304.638489,357.640167L304.620422,357.71167L304.593811,357.780334L304.558655,357.845276L304.515747,357.905334L304.444519,357.979431L304.380188,358.035492L304.321533,358.080383L304.257996,358.117859L304.172791,358.152771L304.065247,358.187683L303.993713,358.205994L303.934204,358.214539L303.782593,358.227997L303.707397,358.229736L303.512573,358.22229L303.430481,358.213409L302.418152,358.032623L302.326904,358.008881L301.935608,357.872437L301.87207,357.84613L301.482483,357.657349L301.427307,357.62674L301.039429,357.38501L300.992493,357.352417L300.606323,357.056915L300.55426,357.012299L300.217041,356.686218L300.167236,356.631561L300.124634,356.571503L300.089722,356.506561L300.088562,356.503723L300.068542,356.513428L299.18866,356.889587L299.137512,356.908752L298.821716,357.01059L298.801392,357.016876L298.468994,357.111267L298.448975,357.116425L298.099976,357.202515L298.08252,357.206543L297.717285,357.284912L297.700073,357.28833L297.317932,357.358704L297.302185,357.361572L296.903748,357.42392L296.888855,357.425934L296.473511,357.480286L296.459778,357.481995L296.027832,357.52832L295.998108,357.530609L295.027283,357.585815L294.983765,357.58667L294.023254,357.570953L293.978638,357.568665L293.028381,357.481415L292.983459,357.475708L292.043518,357.31665L291.971741,357.299774L291.9245,357.282318L291.348145,358.028625L291.324951,358.056641L290.885315,358.559235L290.870117,358.575836L290.418213,359.054688L290.401855,359.071259L289.937622,359.526093L289.919922,359.542969L289.443054,359.973175L289.427612,359.986633L289.040894,360.312134L289.025452,360.324738L288.639526,360.628235L288.622925,360.640808L288.237671,360.922577L288.219604,360.93515L287.835449,361.19458L287.81604,361.207184L287.432739,361.444885L287.411255,361.457764L287.028503,361.673431L287.005371,361.68573L286.623779,361.87912L286.599182,361.890839L286.21814,362.062469L286.191528,362.073608L285.811707,362.223236L285.783386,362.233521L285.404053,362.361084L285.374573,362.370239L284.996155,362.476074L284.964722,362.4841L284.587402,362.567627L284.555054,362.573639L284.178345,362.635437L284.144592,362.640015L283.769043,362.679749L283.734375,362.682343L283.359375,362.700073L283.325073,362.700928L282.951233,362.69693L282.87738,362.691467L282.805298,362.67688L282.735229,362.653717L282.668579,362.621979L282.606506,362.582214L282.601074,362.577637L282.283569,362.703491L282.213501,362.726379L282.141113,362.740417L282.055908,362.74527L281.292725,362.7341L281.246643,362.731537L280.488037,362.661438L280.442017,362.655457L279.687683,362.526154L279.643372,362.516724L278.893921,362.328491L278.823547,362.306183L278.756592,362.275269L278.69397,362.236389L278.63678,362.190033L278.585571,362.136841L278.541199,362.077637L278.504578,362.01355L278.476257,361.945465L278.456543,361.874542L278.445984,361.8013L278.445374,361.771271L278.423645,361.766693L278.353882,361.74295L278.287476,361.710632L278.261719,361.693756L278.201111,361.882813L278.124756,362.142853L278.061523,362.381989L278.018005,362.578217L277.992859,362.730103L277.981689,362.84967L277.975098,363.226379L277.983154,363.671204L278.006897,364.168915L278.04718,364.739594L278.101563,365.34259L278.172791,366.011353L278.25946,366.733612L278.362976,367.516235L278.368164,367.589752L278.364136,367.663574L278.351013,367.736206L278.328979,367.80658L278.29834,367.87381L278.259766,367.936737L278.213684,367.994232L278.160767,368.045715L278.102112,368.090332L278.03833,368.127258L277.989136,368.148987L277.674805,368.271698L277.690247,368.305725L277.709106,368.364929L277.830078,368.825195L277.844666,368.898132L277.892456,369.257141L277.896484,369.302032L277.918213,369.686493L277.919373,369.726257L277.915039,370.136169L277.913635,370.169922L277.884766,370.597534L277.854126,371.160217L277.864685,371.73172L277.916748,372.347015L278.01001,372.994324L278.078125,373.365631L278.147888,373.697723L278.226013,374.019257L278.305481,374.303864L278.532349,374.987244L278.542053,375.020416L278.582947,375.172607L278.595581,375.230957L278.615295,375.351654L278.61615,375.361938L278.630432,375.368835L278.668762,375.390259L278.730835,375.430328L278.787476,375.477509L278.84729,375.543304L278.877869,375.582489L278.919678,375.643433L278.960815,375.726379L278.984009,375.783875L279.014343,375.883423L279.030334,375.959229L279.040955,376.032166L279.042664,376.105957L279.032349,376.19577L278.996887,376.378296L278.978271,376.449799L278.951111,376.518158L278.915344,376.582794L278.872192,376.642578L278.821838,376.696655L278.794373,376.721252L278.752319,376.756439L278.758057,376.767303L278.823853,376.910614L278.85498,376.99472L278.892212,377.124298L278.908203,377.196381L278.913635,377.246155L278.921936,377.362274L278.922791,377.436096L278.914246,377.509308L278.89679,377.580811L278.870728,377.650055L278.836121,377.715271L278.793823,377.775635L278.744324,377.830261L278.698547,377.870026L278.701965,377.879181L278.720581,377.934662L278.805786,378.238464L278.815247,378.275909L278.879883,378.581146L278.88678,378.6203L278.930542,378.927246L278.934814,378.967865L278.957397,379.27594L278.959106,379.322845L278.956299,379.83316L278.95343,379.886078L278.908203,380.361481L278.899658,380.421265L278.812073,380.861511L278.804077,380.891815L279.095276,380.982788L279.16394,381.009094L279.213684,381.034546L279.377319,381.128387L279.430847,381.162994L279.57782,381.269684L279.629883,381.312012L279.760376,381.431305L279.80896,381.481354L279.922852,381.612946L279.966003,381.669312L280.063293,381.813477L280.098755,381.87384L280.179382,382.030273L280.207153,382.092072L280.27124,382.261139L280.290405,382.321472L280.337891,382.503113L280.34729,382.545471L280.380188,382.723389L280.384521,382.74942L280.412842,382.952515L280.415405,382.973083L280.439148,383.20166L280.440552,383.217102L280.460327,383.470825L280.461182,383.484558L280.476318,383.763733L280.476624,383.774902L280.487488,384.079254L280.487793,384.088409L280.494324,384.417938L280.494629,384.426514L280.496643,384.781494L280.496643,384.788086L280.494629,385.168213L280.494324,385.174805L280.487793,385.580414L280.487793,385.585571L280.476868,386.016357L280.476868,386.02124L280.461731,386.477478L280.461426,386.482025L280.441711,386.96347L280.441406,386.966888L280.417664,387.473755L280.417664,387.477783L280.389343,388.009827L280.389099,388.013245L280.3573,388.551025L280.3573,388.559601L280.352722,388.633118L280.341858,388.693481L280.33075,388.741821L280.309814,388.812469L280.280396,388.880005L280.261475,388.913727L280.188843,389.035034L280.147095,389.095947L280.073547,389.174316L279.865906,389.358826L279.809814,389.402863L279.579285,389.562775L279.520325,389.598816L279.266907,389.734131L279.208557,389.761292L278.932556,389.872284L278.875061,389.892029L278.575806,389.978119L278.523499,389.990723L278.201111,390.05249L278.152161,390.059631L277.80719,390.096558L277.763733,390.09967L277.395569,390.112L277.367004,390.112274L277.078674,390.107971L277.05835,390.107117L276.790344,390.093964L276.766846,390.092529L276.519165,390.070496L276.492249,390.067383L276.264832,390.036743L276.233643,390.031616L276.02655,389.992432L275.989075,389.984131L275.802307,389.936066L275.758545,389.923218L275.592346,389.866577L275.541443,389.846527L275.395569,389.781311L275.327759,389.745544L275.174438,389.651733L275.087463,389.587097L274.975891,389.486969L274.924133,389.434326L274.876099,389.370544L274.80658,389.264709L274.769958,389.200623L274.741638,389.132568L274.725647,389.078186L274.698425,388.966064L274.682739,388.860535L274.660095,388.473206L274.6604,388.399414L274.669861,388.326202L274.688171,388.254974L274.715332,388.18631L274.750488,388.121368L274.78656,388.071594L274.753357,388.035004L274.710754,387.974915L274.675842,387.909698L274.649231,387.840759L274.631531,387.769257L274.62207,387.671997L274.562317,384.095551L274.56543,384.021759L274.578003,383.949097L274.599182,383.878448L274.629211,383.810944L274.636108,383.7995L274.624939,383.774902L274.60321,383.704529L274.590332,383.631866L274.586304,383.558075L274.588867,383.50943L274.672729,382.598969L274.691895,382.494812L274.789429,382.1427L274.818604,382.060608L274.953613,381.755371L275.003113,381.665283L275.175842,381.406982L275.220764,381.348358L275.248535,381.318604L275.458496,381.107208L275.532593,381.043701L275.664734,380.948456L275.719666,380.913269L275.840332,380.84491L275.902405,380.81601L275.911865,379.280243L275.916138,379.213287L275.95105,378.920959L275.973938,378.814545L276.054016,378.557678L276.080078,378.488739L276.10321,378.442993L276.22821,378.220703L276.268555,378.15863L276.306335,378.112579L276.476501,377.924927L276.512573,377.890045L276.156982,377.531342L276.108398,377.47583L276.0672,377.414612L276.033752,377.348846L276.008545,377.279602L275.992249,377.20752L275.985107,377.134033L275.985657,377.074219L275.992554,376.966675L276.001953,376.893738L276.024292,376.809631L276.056335,376.717255L276.0849,376.64917L276.118408,376.59082L276.108398,376.576782L276.073792,376.511566L276.047424,376.442932L276.030884,376.378296L275.995422,376.19577L275.985962,376.122559L275.985657,376.048767L275.994263,375.975525L276.007385,375.918884L276.02771,375.847656L276.052307,375.778137L276.102966,375.683746L276.139832,375.627686L276.184204,375.568756L276.235413,375.515564L276.275452,375.482086L276.328918,375.441193L276.329224,375.440918L276.295166,375.395416L276.258545,375.34021L276.17157,375.192047L276.149841,375.151428L276.080627,375.009247L276.058594,374.957764L276.007385,374.82132L275.987976,374.759247L275.954773,374.629089L275.938477,374.532715L275.927002,374.398834L275.924744,374.356201L275.92157,374.11908L275.924438,374.053864L275.945313,373.837616L275.92218,373.850189L275.759705,373.921997L275.690491,373.947754L275.618652,373.964325L275.509094,373.972626L274.845459,373.961456L274.771973,373.95575L274.699585,373.940857L274.629822,373.917114L274.563416,373.885101L274.489929,373.836182L274.068604,373.508362L274.013367,373.459747L273.964478,373.404236L273.922974,373.343323L273.889221,373.277802L273.886353,373.270081L273.620056,373.256927L273.546814,373.248932L273.475037,373.23175L273.405823,373.205719L273.347473,373.175415L272.853455,372.884766L272.792236,372.843597L272.717285,372.774933L272.581421,372.62735L272.535095,372.570129L272.488159,372.492615L272.404907,372.32785L272.375732,372.260071L272.349121,372.158813L272.318542,371.977722L272.310791,371.904205L272.313965,371.812683L272.335999,371.615021L272.348572,371.542084L272.359131,371.504028L272.40979,371.341278L272.446716,371.250031L272.51593,371.112732L272.553101,371.049225L272.579102,371.013458L272.666687,370.901917L272.715576,370.84668L272.760742,370.806366L272.866577,370.720825L272.926697,370.677917L272.991882,370.643036L273.057983,370.617859L273.037964,370.550629L272.98877,370.326965L272.976746,370.247131L272.957275,370.006866L272.955872,369.935059L272.966125,369.678192L272.971863,369.615845L273.011902,369.342377L273.022217,369.289459L273.092041,368.999115L273.104614,368.953918L273.204407,368.646973L273.231628,368.578613L273.240479,368.562317L273.215027,368.552032L273.048523,368.474213L272.987061,368.44104L272.846313,368.35379L272.781921,368.307434L272.672668,368.217651L272.594604,368.140411L272.517029,368.048004L272.473267,367.9888L272.435547,367.921295L272.390076,367.825745L272.36261,367.757385L272.343689,367.686157L272.334839,367.625244L272.241882,366.627197L272.241577,366.622925L272.162354,365.701569L272.161804,365.696716L272.096252,364.85257L272.096008,364.846863L272.043945,364.079376L272.043335,364.07196L272.005005,363.381439L272.004761,363.374847L271.990723,363.058472L271.990723,363.053345L271.980164,362.756134L271.979858,362.750977L271.972412,362.472961L271.972107,362.465515L271.968445,362.206635L271.968445,362.199493L271.967834,361.960052L271.967834,361.950897L271.970703,361.730652L271.971252,361.716644L271.991272,361.169128L271.646301,361.181732L271.572815,361.179993L271.499878,361.168854L271.42865,361.149109L271.360596,361.120514L271.337402,361.107361L271.280212,361.125946L271.20752,361.139954L271.166077,361.143982L269.948608,361.216614L269.874817,361.216339L269.801636,361.207184L269.730103,361.188873L269.672058,361.165985L269.116516,362.563629L269.083618,362.632568L268.844788,363.062775L268.827881,363.091095L268.576477,363.490112L268.556458,363.520172L268.292114,363.888306L268.268677,363.918915L267.99176,364.255859L267.96405,364.287354L267.674255,364.593414L267.642517,364.624603L267.340149,364.899475L267.304138,364.929504L266.988892,365.173523L266.948547,365.202118L266.620789,365.414948L266.568115,365.445557L266.39679,365.533356L266.355286,365.552521L266.131348,365.646362L266.103577,365.657227L265.827271,365.75705L265.806946,365.763916L265.477417,365.869751L265.469116,365.872314L264.516602,366.162964L264.444824,366.180115L264.371582,366.18811L264.297791,366.187256L264.224854,366.176971L264.153625,366.157806L264.085266,366.130066L264.020569,366.094025L263.961365,366.050537L263.907593,365.999634L263.860962,365.942688L263.821472,365.880341L263.790039,365.81369L263.766846,365.743591L263.752869,365.671234L263.747681,365.597443L263.750305,365.553101L263.70105,365.582855L263.666443,365.602295L263.138977,365.874634L263.102966,365.891785L262.552307,366.13092L262.516846,366.144928L261.943298,366.351471L261.907837,366.362915L261.311462,366.536255L261.27655,366.545105L260.657227,366.685272L260.624084,366.691864L259.981628,366.799133L259.936951,366.80484L259.307678,366.861755L259.277344,366.86377L258.631165,366.888947L258.602295,366.889526L257.939819,366.88324L257.911743,366.88208L257.631165,366.866058L257.627136,367.047699L257.625977,367.075745L257.607422,367.346344L257.604248,367.378662L257.572815,367.63208L257.567383,367.667297L257.523621,367.903259L257.515015,367.942444L257.458923,368.161285L257.445801,368.205322L257.377441,368.406433L257.358521,368.454773L257.277588,368.638428L257.252136,368.689606L257.158875,368.855804L257.127686,368.905579L257.046753,369.021423L256.992126,369.088654L256.899414,369.187042L256.83252,369.247986L256.727783,369.329773L256.650879,369.380707L256.534729,369.445343L256.453186,369.483093L256.325073,369.530884L256.24469,369.554321L256.105103,369.58493L256.030151,369.59668L255.87854,369.610107L255.812439,369.612122L255.649414,369.608398L255.568176,369.600952L255.399414,369.573792L255.327637,369.55777L255.271545,369.53833L255.113953,369.474823L255.047546,369.443054L255.000061,369.413879L254.853943,369.313782L254.795837,369.26828L254.768127,369.242249L254.632813,369.106079L254.571289,369.033142L254.447449,368.860382L254.40741,368.7966L254.294434,368.587494L254.268066,368.531982L254.166565,368.286285L254.149658,368.239929L254.05957,367.957886L254.048401,367.919006L253.9729,367.611786L253.965454,367.576019L253.907104,367.254791L253.901978,367.221039L253.860779,366.885803L253.857605,366.852905L253.834167,366.503632L253.833008,366.474182L253.826721,366.111176L253.826721,366.083435L253.837891,365.706146L253.839294,365.680664L253.867615,365.289368L253.869629,365.265625L253.915405,364.860291L253.91626,364.853699L254.183105,362.698914L253.786072,362.592529L253.716309,362.569061L253.649658,362.537018L253.587891,362.497253L253.53125,362.449768L253.480896,362.395996L253.437439,362.336212L253.401917,362.271576L253.374756,362.202911L253.356201,362.131683L253.345276,362.031006L253.320984,360.950897L253.323853,360.877075L253.335876,360.804443L253.35675,360.73349L253.38623,360.665985L253.42395,360.602478L253.493774,360.517822L253.782654,360.227173L253.817261,360.19516L254.106445,359.946869L254.169983,359.899384L254.458862,359.711731L254.522949,359.675415L254.591309,359.647369L254.662537,359.62793L254.735474,359.617615L254.809265,359.61618L254.882507,359.624207L254.954346,359.640808L255.014954,359.663391L255.142822,359.322418L255.172852,359.254913L255.211182,359.191986L255.256958,359.133911L255.309326,359.082153L255.36792,359.037231L255.4646,358.984589L255.718933,358.875031L255.667419,358.826996L255.616821,358.773499L255.573059,358.713989L255.536987,358.649902L255.508972,358.581543L255.489807,358.510315L255.479492,358.437103L255.478638,358.363312L255.486633,358.29007L255.50354,358.218262L255.530396,358.147034L255.988953,357.128143L256.03186,357.049194L256.188599,356.806915L256.232361,356.747437L256.283325,356.693939L256.34021,356.647308L256.402893,356.607819L256.43634,356.590942L256.978699,356.337524L257.027588,356.3172L257.273315,356.227966L257.326233,356.211365L257.556763,356.151306L257.622559,356.138123L257.838257,356.107239L257.915771,356.101257L258.116577,356.098938L258.190369,356.102661L258.263,356.11554L258.333374,356.137268L258.400879,356.167603L258.463806,356.205933L258.521606,356.251709L258.573364,356.304321L258.599426,356.338379L258.640869,356.322632L258.747314,356.293182L258.914673,356.262848L258.987854,356.253998L259.030762,356.253418L259.200684,356.256287L259.274231,356.261993L259.312805,356.26886L259.484741,356.304901L259.580566,356.333496L259.755066,356.402161L259.833435,356.439911L260.010193,356.541473L260.072021,356.582092L260.128052,356.629852L260.177551,356.684479L260.220154,356.744843L260.255066,356.809784L260.281677,356.878723L260.299377,356.950226L260.307983,357.023438L260.307678,357.09726L260.298279,357.170471L260.279663,357.242004L260.271057,357.263733L260.321411,357.26889L260.474731,357.297791L260.546265,357.316101L260.590027,357.331818L260.748779,357.396759L260.815125,357.428772L260.891541,357.47998L260.937561,357.516327L260.942749,357.46225L260.973328,357.071503L260.976501,357.039764L261.028809,356.645569L261.033997,356.613281L261.107178,356.225952L261.11438,356.193634L261.208435,355.813477L261.217346,355.781158L261.332336,355.407867L261.343201,355.376099L261.479065,355.009979L261.491638,354.97879L261.648682,354.619507L261.662964,354.589478L261.840881,354.237366L261.856079,354.209045L262.054565,353.86377L262.071472,353.836029L262.291138,353.497925L262.308594,353.472473L262.549133,353.141235L262.567749,353.117188L262.829468,352.793091L262.848083,352.771057L263.130432,352.454132L263.149597,352.433838L263.453064,352.123749L263.472229,352.104858L263.796631,351.801941L263.815491,351.785065L264.160767,351.489014L264.185913,351.468689L264.737427,351.045929L264.774048,351.019897L265.332397,350.655182L265.373901,350.630585L265.938232,350.323944L265.984619,350.301331L266.555542,350.05249L266.606445,350.032745L267.183716,349.841949L267.238647,349.826782L267.822449,349.694061L267.879395,349.684052L268.469788,349.6091L268.527832,349.604523L269.124512,349.587646L269.174622,349.588226L269.529602,349.607971L269.564758,349.611115L269.918579,349.652008L269.953491,349.657166L270.306213,349.719238L270.340515,349.726379L270.692078,349.809906L270.724426,349.818481L271.075073,349.922913L271.107117,349.933472L271.456665,350.059631L271.48584,350.071075L271.834534,350.218109L271.863708,350.231262L272.210999,350.400024L272.275085,350.436066L272.33429,350.480133L272.387756,350.531036L272.434387,350.588257L272.473572,350.650879L272.476135,350.656036L272.724731,350.724976L272.794495,350.749023L272.860596,350.781311L272.899475,350.807068L272.966125,350.800507L273.05426,350.80365L274.06543,350.91806L276.504822,350.683502L277.369873,350.551636L277.465942,350.544769L277.685669,350.547058L277.697937,350.547333L277.899353,350.55365L277.915039,350.554504L278.098145,350.565063L278.116455,350.566223L278.280884,350.580811L278.304626,350.583374L278.450806,350.602264L278.480835,350.607117L278.608459,350.63031L278.645935,350.638306L278.754883,350.665466L278.805237,350.680359L278.89563,350.711548L278.973999,350.744995L279.303223,350.914612L279.392517,350.971252L279.590149,351.122864L279.597595,351.111145L279.655945,351.029327L279.702576,350.971832L279.755798,350.920929L279.80127,350.885742L279.892761,350.822235L279.955994,350.78418L280.023254,350.753876L280.093872,350.732422L280.166565,350.719849L280.240051,350.716125L280.313843,350.721832L280.385925,350.73642L280.455994,350.759888L280.520935,350.791046L280.738892,350.912048L280.808716,350.958679L280.815308,350.952667L280.875916,350.910614L280.880798,350.908051L280.855896,350.858002L280.827881,350.790771L280.738037,350.53363L280.715149,350.448364L280.668823,350.204102L280.658264,350.101959L280.654846,349.870544L280.658508,349.796753L280.664856,349.753571L280.705139,349.535034L280.7229,349.463501L280.738647,349.420044L280.821899,349.214081L280.853638,349.147705L280.876221,349.110229L281.00293,348.91745L281.067871,348.835358L281.121643,348.778442L281.104492,348.739227L281.067322,348.631104L281.047852,348.559875L281.037292,348.488647L281.01355,348.447754L280.984619,348.379944L280.972046,348.33905L280.912537,348.121094L280.8974,348.048706L280.891663,347.97522L280.893982,347.924561L280.870789,347.865662L280.853027,347.794128L280.843872,347.720917L280.844727,347.671417L280.830994,347.660828L280.778381,347.60907L280.73291,347.550995L280.69458,347.488068L280.664551,347.420563L280.648254,347.371063L280.552124,347.025238L280.544434,346.99408L280.46228,346.621918L280.456848,346.595032L280.388245,346.196838L280.384766,346.172546L280.32959,345.748596L280.327026,345.727448L280.287231,345.305237L280.285217,345.274902L280.268066,344.873871L280.267822,344.838409L280.274109,344.459106L280.275818,344.421356L280.304688,344.063507L280.309814,344.020325L280.361877,343.683929L280.371033,343.637024L280.445984,343.322357L280.460571,343.271149L280.558716,342.978241L280.579895,342.924194L280.701172,342.653015L280.718018,342.618408L280.869934,342.330627L280.883972,342.30545L281.049255,342.026001L281.063843,342.002533L281.242371,341.730225L281.258118,341.707336L281.450012,341.442444L281.476318,341.408691L281.74408,341.090027L281.784119,341.047119L282.044434,340.793121L282.103943,340.741943L282.356506,340.553406L282.444641,340.499084L282.590759,340.425262L283.383423,339.549957L283.418335,339.514496L283.712097,339.240173L283.785034,339.182098L284.088257,338.977295L284.184631,338.924377L284.496704,338.789063L284.566223,338.763916L284.616028,338.751617L285.939819,338.484741L286.207581,338.345703L286.513916,338.136047L286.569702,338.102295L286.860046,337.947235L286.920105,337.91922L287.175842,337.817383L287.267395,337.789063L287.48822,337.740143L287.561157,337.728699L287.628967,337.72641L287.81488,337.730133L287.888367,337.736145L287.960449,337.751282L288.014221,337.768738L288.094055,337.799072L288.161255,337.829407L288.217651,337.863434L288.30542,337.923218L288.376953,337.980408L288.473083,338.070251L288.515381,338.114014L288.619812,338.233856L288.646423,338.266754L288.759094,338.416351L288.777405,338.442108L288.898438,338.621735L288.911316,338.641754L289.040588,338.85144L289.050598,338.868317L289.181885,339.097717L289.458191,339.544525L289.46936,339.544525L289.642456,339.510773L289.718506,339.500763L290.682495,339.43927L290.755981,339.43927L290.829224,339.44812L290.901062,339.466156L290.98053,339.498199L291.087524,339.550262L291.166504,339.596313L291.293518,339.684418L291.338684,339.719299L291.486023,339.844025L291.513489,339.868622L291.681091,340.029388L291.699951,340.048279L291.887878,340.245361L291.901367,340.259949L292.109558,340.493347L292.119568,340.504791L292.348145,340.774536L292.355896,340.783966L292.593262,341.076324L292.73291,341.22876L292.852478,341.321167L292.975708,341.384399L293.105591,341.422424L293.234009,341.43158L293.351868,341.416718L293.459473,341.378967L293.56842,341.312866L293.5979,341.28598L293.605042,341.273987L293.616211,341.234802L293.622803,341.086609L293.630798,341.013367L293.647644,340.941589L293.673401,340.872375L293.707458,340.806854L293.749207,340.745941L293.798401,340.69101L293.853882,340.642395L293.914856,340.600891L293.980591,340.567444L294.049866,340.542267L294.121948,340.52597L294.195435,340.518799L294.268982,340.520508L294.341919,340.531403L294.413147,340.551422L294.481201,340.580017L294.544983,340.616638L294.604187,340.66098L294.676025,340.734192L294.81958,340.907837L294.859924,340.962463L294.977783,341.143555L295.013245,341.205902L295.105957,341.394684L295.134521,341.464203L295.201782,341.660431L295.219482,341.721924L295.281555,341.996521L295.294983,342.094055L295.311584,342.385834L295.310181,342.474518L295.281555,342.782867L295.269287,342.860382L295.19519,343.185059L295.176025,343.250854L295.06189,343.573792L295.029297,343.649017L294.899414,343.899902L294.903992,343.904755L294.946289,343.963104L295.020996,344.081238L295.056458,344.146179L295.084778,344.217957L295.136841,344.380737L295.160278,344.487427L295.183716,344.673065L295.188293,344.762329L295.183167,344.970856L295.177429,345.040924L295.144287,345.27179L295.123657,345.362457L295.079041,345.507202L295.055847,345.570129L294.982666,345.737732L294.961792,345.780365L294.859924,345.970581L294.842224,346.001465L294.651672,346.311279L294.609375,346.371613L294.559875,346.42627L294.503784,346.474304L294.500061,346.476593L294.58905,346.819855L294.595337,346.846191L294.682007,347.256073L294.686584,347.280975L294.756104,347.696594L294.760986,347.731781L294.827881,348.361359L294.831055,348.405151L294.851074,349.027008L294.850769,349.071625L294.824463,349.68634L294.82074,349.731812L294.747803,350.338531L294.740356,350.384277L294.620483,350.983856L294.609924,351.028198L294.44342,351.620026L294.429688,351.662933L294.397705,351.750458L294.401978,351.751892L294.749207,351.891479L294.970947,351.971008L295.214905,352.03479L295.501221,352.088287L295.841064,352.131775L296.216919,352.161224L296.638,352.178375L297.110291,352.181824L297.600525,352.171234L299.277649,352.048798L299.285645,351.98703L299.303955,351.915497L299.330872,351.846863L299.366333,351.782227L299.387756,351.750183L299.851746,351.108856L299.865479,351.09082L300.327454,350.501007L300.34375,350.480988L300.804016,349.942932L300.823425,349.921204L301.282837,349.434906L301.300598,349.417175L301.548889,349.175476L301.5672,349.158295L301.794006,348.955505L301.819153,348.934326L302.024536,348.770142L302.061157,348.74295L302.245117,348.617676L302.299194,348.584778L302.46167,348.497803L302.550598,348.459198L302.69165,348.411133L302.762817,348.391968L302.83667,348.381409L302.955933,348.371948L303.029724,348.370514L303.102966,348.37854L303.172485,348.394836L303.270569,348.424011L303.339783,348.449188L303.405579,348.482941L303.448792,348.511536L303.523438,348.565308L303.580627,348.611938L303.629272,348.662872L303.684204,348.727509L303.728271,348.786438L303.76886,348.8591L303.804321,348.934326L303.831543,349.002686L303.851257,349.080505L303.867004,349.166016L303.876404,349.252136L303.882751,349.426331L303.880981,349.500122L303.871582,349.565063L303.855286,349.646851L304.069519,349.537598L304.101563,349.52243L304.306335,349.432892L304.348389,349.416595L304.533508,349.351959L304.590393,349.335083L304.755432,349.295319L304.834106,349.28186L304.979431,349.266998L305.088684,349.265869L305.213989,349.276154L305.287231,349.286743L305.353577,349.304749L305.459106,349.339935L305.527466,349.367676L305.613037,349.41745L305.698547,349.477539L305.756042,349.52359L305.820129,349.59137L305.855591,349.635437L305.898193,349.69577L305.931946,349.758423L305.953735,349.805328L305.980591,349.873993L306.00116,349.960938L306.009216,350.010712L306.016357,350.084229L306.013794,350.165771L306.008362,350.218964L306.002625,350.261017L305.986572,350.352844L305.960571,350.450928L305.9245,350.551636L305.893066,350.623993L305.836975,350.732697L305.807556,350.78363L305.731445,350.900879L305.705139,350.93808L305.609314,351.06366L305.586121,351.092255L305.470276,351.226135L305.450256,351.248169L305.314392,351.390045L305.297485,351.407196L305.141357,351.557678L305.129883,351.568237L305.107605,351.588562L305.326111,351.577393L305.36731,351.576843L305.554932,351.580261L305.580994,351.581116L305.746887,351.591431L305.779236,351.594269L305.923401,351.611145L305.969177,351.618286L306.091309,351.642334L306.149353,351.656921L306.250061,351.687531L306.333008,351.719574L306.411682,351.757019L306.476013,351.793091L306.521484,351.824829L306.57843,351.869171L306.633667,351.918091L306.702271,352.000458L306.737488,352.051392L306.775513,352.114594L306.805542,352.182098L306.827026,352.252472L306.834473,352.289673L306.842468,352.336578L306.850464,352.40979L306.84906,352.483582L306.841858,352.540527L306.832458,352.593719L306.815002,352.665527L306.79071,352.730743L306.764343,352.790222L306.714905,352.880066L306.671143,352.945557L306.629333,353.000763L306.56842,353.072266L306.534668,353.108887L306.456299,353.186707L306.430847,353.210449L306.335571,353.294556L306.313293,353.313141L306.200562,353.403259L306.175964,353.422119L305.898804,353.620911L305.874451,353.637238L305.528381,353.860626L305.515198,353.868927L305.316406,353.989929L305.309265,353.994507L305.093262,354.121796L305.086121,354.125793L304.852722,354.259094L304.84613,354.262817L304.26062,354.587463L303.945923,354.7677L303.675598,354.928162L303.435608,355.076904zM293.578247,344.64151L294.144958,345.999359L294.204712,345.902496C294.398468,345.60379,294.514709,345.364838,294.555084,345.187225C294.618042,344.864319,294.60675,344.601135,294.517944,344.399323C294.429138,344.197479,294.296753,344.173279,294.120758,344.32666C293.943146,344.480042,293.759094,344.576904,293.565338,344.617279L293.578247,344.64151zM254.783157,360.210876C254.591019,360.315826,254.397278,360.461151,254.205139,360.64682L253.916138,360.937439L253.940338,362.017609L254.482849,362.162903L254.699203,362.259796L254.734726,362.259796L254.734726,362.271088L254.783157,362.295288C254.671753,361.496094,254.671753,360.800201,254.783157,360.210876zM258.123718,356.694336C257.865387,356.678192,257.568298,356.737915,257.230865,356.87677L256.688354,357.13028L256.531738,357.372467L256.073212,358.391266L256.399353,358.694794L256.483307,358.659271L256.917633,357.990845C257.247009,357.546814,257.61676,357.146423,258.026855,356.791199L258.123718,356.694336zM258.256104,358.19751C258.488617,358.181366,258.661377,358.254028,258.774384,358.415466L258.834137,358.560791C259.163513,357.898804,259.457367,357.396667,259.714081,357.057617C259.23938,356.742767,258.790527,356.77829,258.364288,357.167389C257.913818,357.562988,257.61676,357.963379,257.471436,358.367035L258.256104,358.19751zM268.563599,362.34375L269.141602,360.889008L268.526459,359.277649L267.635193,361.313629C266.693909,363.125183,265.597595,364.550873,264.343079,365.593872L265.295685,365.303253C265.770355,365.157959,266.102966,365.028778,266.296722,364.915771C267.187958,364.389404,267.943604,363.532074,268.563599,362.34375zM254.976898,363.254364L254.807373,362.501953L254.507065,364.927063C254.361755,366.026581,254.402115,366.975952,254.626541,367.776794C254.852585,368.577637,255.198105,368.989349,255.663101,369.01355C256.113556,369.045868,256.439728,368.895691,256.639923,368.564697C256.904724,368.144928,257.038727,367.537842,257.038727,366.746704C256.71582,366.900085,256.378357,366.685333,256.02478,366.104095C255.663101,365.505096,255.314362,364.555725,254.976898,363.254364zM290.274811,356.597443C289.640289,357.745422,288.719971,358.662506,287.513885,359.350311C286.919739,359.689362,286.388519,359.91217,285.923523,360.01712L285.019379,360.805054C284.318634,361.362061,283.632446,361.794769,282.95755,362.101563C284.949951,362.182281,286.979462,361.326569,289.044525,359.531158C289.688721,358.974121,290.299042,358.350891,290.877075,357.664703L291.551941,356.791199C291.794128,356.274536,291.9104,355.769165,291.902313,355.275116C291.500275,355.559265,291.057892,355.796631,290.576752,355.990387L290.274811,356.597443zM278.304352,384.411804L277.870026,384.400513L276.820557,384.387573L275.157532,384.085663L275.217255,387.661957C275.7323,387.896057,276.197327,388.038147,276.615479,388.086578L277.616516,388.122101C277.937836,388.114014,278.107361,388.078491,278.123505,388.013916L278.267212,386.194305C278.339844,385.046326,278.351166,384.452148,278.304352,384.411804zM268.57489,356.888092C268.57489,357.575897,268.626556,358.186188,268.731506,358.719025L268.744415,358.756134L268.925262,359.167877C269.238464,359.805634,269.567871,360.291626,269.913361,360.622589L271.130768,360.549957C270.890198,359.797546,270.701294,359.062927,270.564056,358.342804C270.363831,357.25943,270.323486,356.382721,270.442963,355.712677C270.669006,354.475891,271.37619,353.003418,272.566132,351.298401L272.215759,351.201538L271.613525,351.540588C270.680298,352.188049,269.945679,352.895233,269.406403,353.66214C268.860657,354.438751,268.582947,355.514069,268.57489,356.888092zM280.450104,351.432434L280.232147,351.31131C280.08844,351.383972,280.031921,351.505066,280.06424,351.674591L280.293488,352.3172C280.639008,353.15033,280.766571,353.973755,280.679382,354.790741C280.550232,355.906403,280.188538,357.110901,279.594391,358.404175C279.327972,358.985413,279.055115,359.700684,278.77417,360.549957L278.580444,361.192535C279.327972,361.047241,279.95929,360.81311,280.474335,360.488586L282.040466,359.385834C282.515167,358.998322,282.768646,358.699646,282.800934,358.488129C282.809021,358.447754,282.599121,357.931091,282.172882,356.936523C281.707886,355.853149,281.465698,354.81012,281.449524,353.809082L281.414001,353.613708C281.317139,352.531952,280.99585,351.803772,280.450104,351.432434zM275.277008,368.806885C274.698975,368.84726,274.196838,368.855347,273.770599,368.831116C273.465454,369.672302,273.476746,370.33429,273.807739,370.820282C274.088684,371.223938,274.192017,371.587189,274.120972,371.911743C274.088684,372.016663,274.016022,372.060272,273.903015,372.044128C273.799652,372.027985,273.746399,371.963409,273.746399,371.850372C273.738312,371.56781,273.610748,371.33371,273.360504,371.148041L273.241028,371.183563C273.087646,371.280426,272.982697,371.446747,272.927795,371.680847C272.86322,371.955322,272.939087,372.186218,273.155457,372.371887L273.649506,372.662506L274.145172,372.686737L274.542358,372.371887C274.734497,372.121643,274.908875,371.810028,275.060638,371.43866C275.101013,371.325653,275.181732,371.288513,275.301208,371.328857C275.422302,371.369232,275.462677,371.449951,275.422302,371.571045L275.277008,371.923035C275.157532,372.189453,275.017059,372.417084,274.855591,372.602783C274.69577,372.796509,274.55368,372.941833,274.434204,373.038696L274.855591,373.366455L275.519196,373.377777C275.735535,373.305115,275.953522,373.140442,276.169861,372.88208C276.339386,372.686737,276.463715,372.50589,276.542847,372.336365C276.599335,372.221741,276.684906,372.194275,276.796326,372.250793C276.909332,372.291168,276.944855,372.371887,276.90451,372.492981L276.688141,373.172729C276.550903,373.665161,276.496002,374.057495,276.520233,374.348145L276.531525,374.482147C276.563812,374.651672,276.644562,374.837341,276.772095,375.039185C276.933563,375.273285,277.117615,375.463806,277.327515,375.609131C277.535797,375.738281,277.708557,375.775421,277.845795,375.718903C277.958832,375.678528,278.018555,375.617188,278.026642,375.536469C278.042786,375.439575,278.002411,375.257141,277.905548,374.990723L277.73761,374.482147C277.616516,374.076874,277.511566,373.61673,277.424377,373.100067C277.262939,372.161987,277.21933,371.317566,277.290375,370.565186C277.346893,369.967773,277.335602,369.438202,277.254852,368.97644L277.133759,368.516266L275.277008,368.806885zM301.715729,349.843689C301.10379,350.457214,300.490265,351.209595,299.87027,352.099243L300.293274,352.341431C300.59845,352.648193,300.806732,353.11319,300.919739,353.73642C301.04892,354.333801,301.008545,354.997406,300.798645,355.723969L300.630737,356.258392L300.96817,356.584534C301.481598,357.014008,301.999878,357.299805,302.52301,357.446716L303.53537,357.627563C303.824371,357.651764,303.997131,357.619476,304.05365,357.53067C304.110138,357.417664,304.037476,357.235199,303.83728,356.984955L303.138184,356.269684L302.668335,355.833771C302.539154,355.664215,302.479431,355.506012,302.487488,355.360687C302.511719,355.094269,302.715149,354.834351,303.101044,354.584076C303.432037,354.374176,303.832428,354.140076,304.307129,353.881744C305.689209,353.121277,306.336639,352.623962,306.247864,352.389862C306.183258,352.244537,305.886169,352.171906,305.356598,352.171906C304.849609,352.179962,304.303894,352.260681,303.716187,352.414093C303.612854,352.438293,303.53537,352.397949,303.486908,352.292999C303.45462,352.196106,303.478851,352.115387,303.55957,352.050812C303.985809,351.774719,304.374939,351.467926,304.728516,351.128876C305.170929,350.717163,305.400208,350.392639,305.416351,350.158508C305.432495,350.085846,305.413116,350.021271,305.356598,349.964752C305.154785,349.771027,304.741455,349.843689,304.11499,350.182739C303.632233,350.457214,303.178528,350.79306,302.752289,351.188629L302.487488,351.177307C302.398682,351.096588,302.39386,351.007782,302.474579,350.910919L303.01709,350.171448C303.235046,349.782318,303.322235,349.483612,303.28186,349.273743C303.273804,349.152649,303.21405,349.05899,303.101044,348.994415C302.86853,348.865234,302.406769,349.147797,301.715729,349.843689zM290.093994,356.159912L289.948669,356.209961C289.578949,356.863861,289.049347,357.369232,288.358307,357.724426C287.667267,358.073181,286.976227,358.189423,286.285187,358.076416C284.572144,357.77771,283.684113,356.314911,283.619537,353.686371C283.00116,352.935577,282.579742,352.349487,282.353699,351.929718C281.89679,351.953918,281.506042,351.782776,281.184753,351.419495C281.465698,352.171906,281.667511,352.879089,281.786987,353.541046L281.835419,353.73642C282.013031,355.110413,282.337555,356.258392,282.812256,357.178711L283.462921,358.439697C283.479065,358.885315,282.55069,359.676453,280.679382,360.816345L279.859192,361.350769C279.513672,361.560669,279.240784,361.693054,279.038971,361.75119C280.035156,362.041809,281.044281,362.174194,282.064697,362.149994C283.036682,361.794769,284.002197,361.208679,284.958008,360.391724L286.126984,359.251831L286.223846,359.203369C287.581696,358.953125,288.828156,358.011841,289.961609,356.379486L290.093994,356.159912zM276.579956,377.112305L277.314606,377.853394C277.363037,377.934113,277.35498,378.014832,277.290375,378.095581L276.917419,378.324829C276.660706,378.55249,276.523468,378.870575,276.507324,379.283905L276.496002,381.126129C276.496002,381.231079,276.442719,381.292419,276.339386,381.308594C276.218292,381.308594,276.064911,381.381226,275.880859,381.52655C275.575714,381.776794,275.370636,382.153015,275.265686,382.653534L275.181732,383.564148C275.897003,383.935486,276.458862,384.121185,276.868988,384.121185L277.929749,383.927429L278.666016,383.95166C278.737061,384.080811,278.737061,384.881653,278.666016,386.352539L278.531982,388.535431L278.037933,388.740479L276.652618,388.82605C276.04071,388.737244,275.575714,388.608093,275.254395,388.438568L275.277008,388.82605C275.285065,388.979431,275.406158,389.116669,275.638672,389.237762C276.000336,389.423462,276.579956,389.51709,277.375946,389.51709C278.388306,389.51709,279.155212,389.253906,279.678345,388.729187L279.751007,388.608093L279.762299,388.559662L279.762299,388.535431C279.947968,385.495178,279.947968,383.535095,279.762299,382.653534C279.657349,382.153015,279.376404,381.784882,278.917877,381.550781L278.25589,381.344086L278.159027,381.295654L278.099274,381.15036C278.2995,380.633698,278.388306,380.023376,278.364075,379.319427C278.347931,378.907715,278.275269,378.499207,278.147736,378.095581L277.953979,377.598267C277.889404,377.533691,277.878082,377.464264,277.918457,377.391602L278.134796,377.415833L278.328552,377.404541C278.336639,377.259216,278.267212,377.076782,278.123505,376.858795L277.918457,376.518127C277.942688,376.413177,278.005646,376.361511,278.110596,376.361511C278.25589,376.361511,278.356018,376.329224,278.412506,376.264648L278.448029,376.082184C278.431885,375.969177,278.396362,375.904602,278.339844,375.888428L278.291412,375.875519L277.97821,376.095093C277.592316,376.224274,277.262939,376.203278,276.990082,376.033752L276.796326,375.875519L276.760803,375.888428C276.655853,375.912659,276.5961,375.977234,276.579956,376.082184L276.615479,376.264648C276.680084,376.329224,276.785034,376.361511,276.928711,376.361511C277.033661,376.361511,277.093414,376.413177,277.109558,376.518127C277.125702,376.624695,277.082092,376.68927,276.977142,376.713501L276.760803,376.773224C276.631622,376.845886,276.571899,376.958893,276.579956,377.112305zM276.868988,381.271454L277.279083,381.284363L277.689178,381.271454C277.808655,381.271454,277.870026,381.300507,277.870026,381.357025C277.870026,381.4216,277.808655,381.486176,277.689178,381.550781L277.279083,381.660553C277.125702,381.660553,276.990082,381.623413,276.868988,381.550781C276.755951,381.486176,276.70105,381.4216,276.70105,381.357025C276.70105,381.300507,276.755951,381.271454,276.868988,381.271454zM299.618378,352.620758L297.629242,352.766052C296.190643,352.814484,295.160553,352.709564,294.542145,352.449615L294.180481,352.304291L293.964142,352.790283C293.594391,353.53299,293.140686,354.167511,292.60144,354.693878C292.641785,355.307404,292.49649,355.974243,292.167114,356.694336L292.142883,356.729858C293.389343,356.989807,294.663239,357.057617,295.9646,356.936523C297.138397,356.823486,298.134583,356.624908,298.954803,356.342346L299.834747,355.966156C299.947754,355.853149,300.04303,355.688446,300.123749,355.468872C300.309418,355.024841,300.34494,354.53241,300.231934,353.989899C300.144745,353.481323,300.010742,353.101898,299.834747,352.850006L299.618378,352.620758zM286.850311,338.627197L286.512848,338.858093L286.139893,339.051819L285.054901,339.269806C284.620575,339.31015,284.21048,339.537811,283.824585,339.949524L283.7164,340.070618L282.95755,340.906982C282.636261,341.028076,282.293945,341.323547,281.932312,341.791779C281.667511,342.140533,281.438232,342.507019,281.244476,342.896149C280.8909,343.590424,280.782715,344.517181,280.919952,345.6716C280.984528,346.254456,281.084656,346.767914,281.221893,347.211914C281.414001,346.517639,281.759521,345.95578,282.258453,345.526276L282.825165,345.079041C283.02536,344.940186,283.162598,344.848175,283.233643,344.799744L282.607178,344.132904C282.382751,343.80838,282.293945,343.538757,282.342407,343.32077C282.406982,342.963959,282.55069,342.678162,282.776733,342.458588C283.081879,342.151825,283.491974,342.046875,284.005432,342.143738C284.16687,342.176025,284.460724,342.297119,284.885376,342.507019C285.247009,342.702393,285.492432,342.786346,285.621613,342.762146L286.574219,341.888641C287.119934,341.380066,287.538116,341.197601,287.827118,341.342926L288.611816,341.90155L289.17691,342.277771C289.338379,342.38269,289.483673,342.410156,289.611237,342.361725L289.948669,342.205109C290.231232,342.084015,290.412048,342.022644,290.49118,342.022644C290.676849,341.998444,290.893219,342.067871,291.143463,342.229309C291.295227,342.326202,291.543884,342.616821,291.889404,343.101196L292.431885,343.853577C292.674072,344.087708,292.927582,344.237854,293.192383,344.302429C293.489441,344.375092,293.74295,344.318573,293.951233,344.132904C294.264435,343.866516,294.485657,343.506439,294.614807,343.052765C294.743988,342.608734,294.752045,342.208344,294.639038,341.853119C294.566376,341.586731,294.425903,341.339691,294.217621,341.113647C294.232147,341.42041,294.136902,341.646454,293.927002,341.791779C293.654144,341.995209,293.344147,342.067871,292.998627,342.011353C292.661163,341.94516,292.377014,341.764313,292.142883,341.465637C291.451843,340.60022,290.97879,340.123901,290.720459,340.033508L289.756531,340.094849C289.427185,340.183655,289.193054,340.156189,289.057434,340.009277L289.009003,339.949524L288.671539,339.403809C288.293732,338.72406,288.00473,338.365631,287.802917,338.325256C287.578491,338.284912,287.260406,338.38501,286.850311,338.627197zM280.136871,354.693878C280.345154,353.788086,280.248291,352.995331,279.846252,352.3172C279.541107,351.807007,279.160065,351.459869,278.701538,351.2742C278.485168,351.185394,278.070221,351.140167,277.4599,351.140167L276.579956,351.2742L274.059601,351.516388L272.987518,351.395294C272.256134,352.535187,271.705566,353.66214,271.335815,354.777832C270.990295,355.836975,271.087158,357.772858,271.624817,360.587067L271.975189,360.574158C272.070435,359.896027,272.218994,359.240509,272.420807,358.609222L272.866455,357.433807L273.565552,355.627106C273.751221,355.158875,273.830353,354.826263,273.807739,354.632507L274.180695,354.572784C274.229126,354.863403,274.196838,355.239594,274.083832,355.699738C273.972412,356.143768,273.759308,356.766998,273.446075,357.56781C273.123169,358.391266,272.903564,359.074219,272.782471,359.61673C272.65332,360.214111,272.580658,360.921295,272.566132,361.738281C272.541901,362.86203,272.661377,364.805969,272.927795,367.570129C272.966553,367.69931,273.092468,367.820404,273.300751,367.935028C273.718933,368.161072,274.342163,368.241791,275.168823,368.177216C276.013245,368.104553,276.704285,367.978607,277.243561,367.801025L277.773132,367.59436C277.476074,365.437286,277.346893,363.843689,277.387268,362.816803C277.403412,362.429321,277.605225,361.709198,277.989502,360.659729C278.320496,359.778168,278.677307,358.920837,279.063202,358.089325C279.311829,357.546814,279.53302,356.95752,279.726776,356.318146L280.136871,354.693878zM269.081879,353.444183C269.554932,352.782196,270.081299,352.215485,270.660919,351.747253C271.022583,351.472778,271.452057,351.201538,271.950958,350.93512C271.025818,350.457214,270.089355,350.20694,269.141602,350.182739C267.541565,350.150452,266.010925,350.736542,264.548126,351.94101C262.651001,353.500702,261.646729,355.360687,261.535339,357.519379C261.519165,357.77771,261.470734,357.995667,261.390015,358.173279C261.293152,358.391266,261.168823,358.501038,261.015442,358.501038C260.887878,358.492981,260.815216,358.439697,260.799072,358.342804C260.742554,358.100616,260.598877,357.947235,260.364746,357.88266C260.14032,357.826141,259.995026,357.842285,259.93042,357.931091C259.657562,358.294373,259.492889,358.544647,259.436371,358.683502L259.365326,359.130737C259.357269,359.269592,259.300751,359.350311,259.195801,359.374542L258.990753,359.422974L258.629089,359.883118L258.267426,360.259308C258.138245,360.194733,258.102722,360.105927,258.159241,359.99292L258.351379,359.385834C258.464386,358.966034,258.496704,358.71579,258.448242,358.633423C258.424042,358.593079,258.372375,358.5737,258.291626,358.5737C257.986481,358.597931,257.503723,358.748077,256.844971,359.022552L256.796539,359.046783L256.809448,359.058075L256.54303,359.167877L255.700241,359.531158L255.277222,360.659729C255.093155,361.44281,255.117371,362.279144,255.349884,363.168793C255.592072,364.090698,255.96019,364.859253,256.459106,365.472778L257.266388,366.24939C258.183472,366.322052,259.055328,366.309143,259.883606,366.21228C261.62735,365.970093,263.125671,365.375916,264.380219,364.429779C265.625061,363.467499,266.642242,362.283997,267.430145,360.877716C267.614227,360.538635,267.916138,359.826599,268.33432,358.743225C268.213226,358.073181,268.169617,357.36438,268.201935,356.621674C268.240662,355.304169,268.534515,354.245026,269.081879,353.444183zM292.155823,344.084473L291.600403,343.29657C291.262939,342.810577,291.033661,342.528015,290.914185,342.447296C290.671997,342.301971,290.310333,342.366547,289.829193,342.641052L289.068726,342.665253C288.884674,342.608734,288.647339,342.490875,288.358307,342.313293C288.069305,342.135681,287.735107,342.08725,287.357269,342.167969C286.955261,342.264832,286.582275,342.490875,286.236755,342.847717C286.075317,343.017242,285.875092,343.089905,285.632904,343.065674L285.041962,342.88324C284.825623,342.794434,284.480103,342.702393,284.005432,342.60553C283.564636,342.523163,283.233643,342.726624,283.017303,343.210999C282.792877,343.727661,283.005981,344.192657,283.656677,344.605988L283.764832,344.727081C283.805206,344.8078,283.768066,344.87561,283.656677,344.932129C283.181976,345.175934,282.788025,345.426178,282.474792,345.684509C281.81604,346.25769,281.47052,346.926117,281.438232,347.684967C281.703033,347.119873,282.048553,346.606445,282.474792,346.144684C282.989838,345.660309,283.330505,345.39389,283.500061,345.345459C283.603394,345.313171,283.676025,345.33255,283.7164,345.405182C283.756775,345.477844,283.737396,345.539215,283.656677,345.587646L283.330505,345.818542C283.081879,345.996124,282.863922,346.176971,282.67984,346.364258C282.302032,346.695251,281.904846,347.228058,281.486664,347.964294L281.546417,348.182281L281.89679,347.636536C282.129272,347.297485,282.358551,347.026245,282.582977,346.824402C282.89621,346.549927,283.17392,346.372314,283.41449,346.289978C283.511353,346.25769,283.564636,346.29483,283.572693,346.39978C283.58725,346.50473,283.532349,346.590302,283.403168,346.654877C283.146454,346.784058,282.941406,346.921295,282.788025,347.066589C282.442505,347.389526,282.05661,347.846436,281.630371,348.437378L281.667511,348.545563C281.740173,348.553619,281.803131,348.574615,281.85965,348.606903C281.972656,348.671478,281.980743,348.768372,281.88385,348.897522C281.257385,349.325378,281.092712,349.89212,281.389801,350.594452C281.678802,351.282257,282.189026,351.601959,282.92041,351.553497C283.58725,352.90329,284.420349,353.941467,285.416565,354.669647C285.689423,354.863403,285.661987,354.936066,285.332611,354.887604C285.003235,354.84726,284.641571,354.677734,284.247589,354.379028C284.223389,355.987152,284.830475,356.968811,286.06723,357.324005C286.533844,357.454803,286.984314,357.454803,287.417023,357.324005C287.843262,357.194855,288.096771,356.989807,288.17749,356.705627C288.048309,356.721771,287.786743,356.662048,287.392792,356.524811C286.992371,356.379486,286.806702,356.274536,286.838989,356.209961L287.586548,356.293915C288.269531,356.342346,289.049347,356.201874,289.924469,355.869293C291.443787,355.296112,292.60144,354.212708,293.39743,352.620758C294.153046,351.091736,294.40976,349.483612,294.169189,347.794769C294.007721,346.679108,293.658966,345.623169,293.11972,344.630188C292.822632,344.565613,292.501312,344.383179,292.155823,344.084473zM282.944641,348.388947L283.246552,348.170959C283.327301,348.137054,283.391876,348.162903,283.43869,348.243622C283.479065,348.332428,283.459686,348.397003,283.378967,348.437378L283.211029,348.569763C283.089935,348.666656,283.02536,348.752228,283.017303,348.82489C283.00116,348.913666,282.949493,348.954041,282.860687,348.945953C282.763794,348.937897,282.72345,348.873322,282.739594,348.752228C282.755737,348.639191,282.825165,348.518097,282.944641,348.388947zM283.511353,347.321716C283.551727,347.410492,283.516205,347.486389,283.403168,347.552582L282.92041,347.843201L282.510315,348.243622C282.366608,348.397003,282.285889,348.429291,282.269745,348.340515L282.40213,348.012756L282.728271,347.625244C282.912354,347.446014,283.117401,347.316864,283.343445,347.236115C283.41449,347.211914,283.470978,347.240967,283.511353,347.321716zM290.52832,353.66214L290.105286,353.844604L289.381958,353.809082L289.21405,353.686371L289.189819,353.505524C289.197906,353.440948,289.233429,353.392517,289.298004,353.360229L289.503052,353.335999L290.504089,353.505524C290.66394,353.529755,290.671997,353.581421,290.52832,353.66214zM291.769928,344.471985L291.962067,344.509094L292.854919,345.127502C292.919495,345.175934,292.94696,345.216278,292.938873,345.248596L292.806488,345.272797L291.84259,345.187225L291.648834,345.079041C291.600403,345.012848,291.584259,344.940186,291.600403,344.859467L291.661743,344.630188C291.66983,344.549469,291.705353,344.496185,291.769928,344.471985zM287.549408,344.654419C287.542969,344.670563,287.465454,344.70285,287.321747,344.751282L286.86322,344.920837L286.320709,345.200134L285.959045,345.33255C285.918701,345.12265,286.075317,344.840088,286.428894,344.484894L286.984314,343.998901L287.152222,343.97467L287.297546,344.095764L287.454163,344.337952C287.549408,344.509094,287.581696,344.614044,287.549408,344.654419zM292.722534,347.297485C292.714447,347.523529,292.666016,347.717285,292.577209,347.878723C292.488403,348.040192,292.385071,348.117676,292.263977,348.109619C292.142883,348.109619,292.042786,348.0289,291.962067,347.867432C291.874878,347.697906,291.834503,347.499298,291.84259,347.273254C291.850647,347.047211,291.897461,346.856689,291.986267,346.703308C292.075073,346.54187,292.180023,346.461121,292.2995,346.461121C292.420593,346.469208,292.520691,346.553162,292.60144,346.71463C292.690247,346.876068,292.730591,347.071442,292.722534,347.297485zM286.488647,346.690399C287.165131,346.375549,287.770599,346.469208,288.309875,346.969727C287.634979,346.897064,287.087646,347.031067,286.669464,347.370148C286.461182,347.547729,286.320709,347.730194,286.248077,347.915863L285.645813,347.308777C285.870239,347.050446,286.151184,346.843781,286.488647,346.690399zM289.611237,346.606445C289.578949,346.444977,289.603149,346.364258,289.683899,346.364258C289.764618,346.348114,289.83728,346.415924,289.900238,346.569305L290.334564,347.576813C290.471802,347.843201,290.760803,348.279144,291.203217,348.88623C291.243561,348.942749,291.262939,349.007324,291.262939,349.079987L291.203217,349.273743L290.636475,350.050354C290.475037,350.219879,290.278046,350.236023,290.045563,350.098785L289.937378,349.988983L289.9729,349.843689L290.442749,349.260803C290.547699,349.131653,290.563843,348.994415,290.49118,348.849091L290.034241,347.867432L289.719421,347.006866L289.611237,346.606445zM292.541687,350.814026C292.573975,350.797882,292.609497,350.817261,292.649872,350.873779L293.071259,351.443726C293.160065,351.572876,293.160065,351.702057,293.071259,351.831207L292.517487,352.607819C292.420593,352.728912,292.380249,352.717621,292.396393,352.572296L292.396393,352.449615C292.404449,352.38501,292.385071,352.333344,292.336639,352.292999L292.180023,352.255859L291.395325,352.669189C290.776947,352.935577,290.218323,353.056671,289.719421,353.032471C289.230194,353.016327,288.59082,352.753143,287.802917,352.244537L286.779266,351.480865L286.574219,351.467926C286.509613,351.48407,286.457947,351.52121,286.417603,351.577728L286.380463,352.123444C286.285187,352.244537,286.223846,352.228394,286.199615,352.075012L286.031708,350.970642C286.015564,350.809204,286.075317,350.692932,286.212555,350.6203L287.465454,349.819458L287.573639,349.806549C287.597839,349.83075,287.597839,349.871124,287.573639,349.927643L287.405731,350.292511C287.373413,350.34903,287.384735,350.413635,287.441223,350.486267L287.610779,350.631592C288.687683,351.099823,289.494995,351.37915,290.034241,351.467926C290.371704,351.524445,290.844757,351.524445,291.456696,351.467926L292.263977,351.359772C292.328552,351.351685,292.385071,351.322632,292.431885,351.2742C292.480347,351.217682,292.504547,351.156311,292.504547,351.091736L292.504547,350.922211L292.541687,350.814026zM289.913147,351.698822C289.278625,351.610016,288.469727,351.335541,287.489685,350.873779L287.236176,350.814026C287.116699,350.797882,287.003693,350.825348,286.898743,350.89798C286.787323,350.970642,286.75827,351.059448,286.814789,351.164398C286.855133,351.238678,286.919739,351.298401,287.008545,351.346832C287.867493,351.873199,288.458435,352.199341,288.779724,352.328522C289.028381,352.425385,289.357758,352.494812,289.767853,352.535187L290.744659,352.499664L292.251068,352.062103C292.364075,352.037872,292.448059,351.953918,292.504547,351.807007C292.544922,351.661682,292.464203,351.58902,292.263977,351.58902L291.443787,351.685913C290.817322,351.742432,290.307129,351.747253,289.913147,351.698822z"/>
</svg>
