<?xml version="1.0" encoding="UTF-8"?>
<svg xmlns="http://www.w3.org/2000/svg" xmlns:xlink="http://www.w3.org/1999/xlink" width="53.934mm" height="54.072mm" viewBox="-374.860718 404.779419 53.933655 54.072113">
    <path transform="matrix(-1,0,0,1,0,0)" style="stroke:none;fill:#000000;fill-rule:evenodd" d="M344.661804,418.660156L344.747925,418.646729L344.972473,418.628418L344.983643,418.627563L345.189026,418.614685L345.204163,418.614105L345.390381,418.607239L345.407288,418.606689L345.574341,418.605225L345.596619,418.60553L345.744202,418.609802L345.774536,418.611542L345.902954,418.621826L345.9422,418.626129L346.051147,418.642151L346.104919,418.65271L346.194458,418.674469L346.277161,418.70105L346.630127,418.843811L346.723938,418.891846L346.955322,419.037476L346.957336,419.033447L347.005127,418.945343L347.044312,418.882996L347.090637,418.8255L347.127869,418.788879L347.209961,418.714233L347.267456,418.667877L347.330383,418.629272L347.397583,418.598663L347.467957,418.57663L347.540344,418.563477L347.614136,418.559204L347.687622,418.564331L347.76001,418.578369L347.853516,418.611267L348.098999,418.7211L348.173645,418.761993L348.189087,418.745422L348.245728,418.698212L348.25116,418.694763L348.228271,418.658447L348.186768,418.580078L348.076355,418.32663L348.047791,418.244537L347.981689,418.000549L347.963379,417.899841L347.94165,417.665009L347.939331,417.591187L347.9422,417.550873L347.964783,417.325195L347.976563,417.252228L347.988281,417.208466L348.055176,416.991943L348.081238,416.923004L348.099243,416.886658L348.21051,416.679016L348.267151,416.592316L348.313477,416.533691L348.29834,416.505646L348.25,416.408691L348.22113,416.340881L348.201111,416.269958L348.196228,416.237335L348.174744,416.207031L348.140137,416.141785L348.117004,416.082031L348.044312,415.860626L348.025757,415.789124L348.015991,415.716156L348.004578,415.69873L347.972229,415.632355L347.948486,415.562561L347.93335,415.490479L347.928772,415.420959L347.872986,415.375763L347.821777,415.322571L347.77771,415.263641L347.74115,415.19928L347.719116,415.148651L347.589783,414.808258L347.578918,414.777069L347.46167,414.407776L347.453369,414.379181L347.348389,413.980713L347.342102,413.954956L347.249695,413.527618L347.246521,413.512177L347.167053,413.0914L347.16217,413.059937L347.108398,412.658325L347.104675,412.622864L347.07666,412.240417L347.07489,412.200073L347.072937,411.836792L347.074341,411.792725L347.098083,411.449188L347.103516,411.399994L347.15332,411.075317L347.163879,411.0224L347.23938,410.717468L347.256287,410.661133L347.357849,410.375366L347.369263,410.346191L347.493713,410.046997L347.505737,410.019531L347.645874,409.725189L347.658752,409.699738L347.814331,409.409668L347.828064,409.385651L347.99884,409.100159L348.024048,409.061829L348.26947,408.715149L348.305786,408.668823L348.54834,408.389343L348.602966,408.334137L348.842407,408.121887L348.925903,408.059814L349.067505,407.97287L349.84729,406.950256L349.87616,406.915344L350.025757,406.747437L350.059814,406.71225L350.214294,406.565216L350.256348,406.5289L350.415955,406.403015L350.465454,406.367859L350.629944,406.263428L350.685669,406.232269L350.855042,406.148743L350.917114,406.122437L351.091614,406.059784L351.159668,406.039764L351.32074,406.002869L352.347046,405.7005L352.439453,405.657593L352.563599,405.5672L352.864502,405.313202L352.921997,405.270294L353.198914,405.088654L353.255859,405.055481L353.504395,404.929321L353.592224,404.89328L353.812744,404.822632L353.884277,404.804596L353.946655,404.796295L354.138855,404.780853L354.212646,404.779419L354.286194,404.78717L354.349976,404.801758L354.433228,404.8255L354.502686,404.850098L354.560181,404.878418L354.654907,404.931335L354.729004,404.980225L354.835388,405.062622L354.881165,405.101807L354.998718,405.213654L355.026733,405.242249L355.156067,405.382996L355.176086,405.406158L355.316772,405.57608L355.331421,405.594086L355.483826,405.793457L355.494751,405.80835L355.652039,406.02774L355.919495,406.375L356.267883,406.387299L356.459534,406.328369L356.511047,406.314941L356.766785,406.260864L356.837158,406.250275L357.062256,406.230255L357.156921,406.229401L357.351196,406.243134L357.424133,406.253143L357.527649,406.283173L357.641479,406.328094L357.721619,406.367004L357.859192,406.446808L357.904358,406.475708L358.065735,406.589813L358.09375,406.610992L358.279419,406.75946L358.299988,406.776886L358.509094,406.960266L358.522522,406.97226L358.75592,407.189941L358.766541,407.200256L359.023682,407.452271L359.032288,407.460846L359.297729,407.73172L359.457336,407.873047L359.599243,407.96286L359.737366,408.01947L359.871521,408.047516L360.000244,408.044952L360.12323,408.017761L360.234558,407.967712L360.343506,407.889038L360.369568,407.860443L360.376953,407.845581L360.385559,407.79895L360.379578,407.647064L360.381287,407.573242L360.391846,407.500305L360.411621,407.429077L360.439941,407.361023L360.476257,407.296936L360.520569,407.237732L360.571777,407.184509L360.628967,407.138184L360.69165,407.099274L360.758545,407.06839L360.828918,407.045776L360.901306,407.032349L360.975098,407.027771L361.048645,407.032623L361.121277,407.046356L361.191345,407.06897L361.258301,407.099854L361.320923,407.139038L361.400146,407.207397L361.560913,407.372162L361.604126,407.421356L361.73999,407.595276L361.779785,407.652771L361.891052,407.836121L361.925049,407.901062L362.011169,408.092712L362.033203,408.149628L362.122131,408.418518L362.145874,408.517487L362.189392,408.807831L362.195984,408.898224L362.194824,409.210297L362.189087,409.288971L362.143311,409.622192L362.129883,409.690857L362.042908,410.025818L362.017151,410.102783L361.90332,410.379395L361.909363,410.384521L361.951111,410.431152L362.042664,410.544434L362.085571,410.604492L362.130432,410.692322L362.196533,410.853088L362.220276,410.922852L362.228882,410.959778L362.267212,411.146545L362.278625,411.236664L362.289185,411.449463L362.288635,411.520142L362.272034,411.758972L362.258606,411.849365L362.226257,411.991821L362.206848,412.059326L362.146179,412.230103L362.129333,412.27243L362.041199,412.470947L362.026611,412.501556L361.917053,412.714966L361.877319,412.805054L361.843567,412.870575L361.801758,412.931488L361.752869,412.986694L361.724548,413.011871L361.84552,413.351685L361.854126,413.377441L361.978577,413.783905L361.985413,413.808533L362.092957,414.222412L362.101013,414.257324L362.225159,414.888611L362.231995,414.931824L362.3078,415.559418L362.311523,415.604614L362.339294,416.22818L362.339539,416.274231L362.31897,416.893829L362.315552,416.940155L362.246887,417.55603L362.23999,417.601807L362.122986,418.213654L362.112732,418.25769L362.071533,418.409882L362.094971,418.415314L362.502625,418.546875L362.72998,418.611816L362.975708,418.657593L363.277527,418.69162L363.619324,418.709656L364.012329,418.711365L364.433105,418.695923L364.918823,418.661865L365.414551,418.612396L367.1297,418.350952L367.1297,418.349792L367.136597,418.276306L367.152588,418.204193L367.177185,418.134705L367.220947,418.051178L367.652588,417.364929L367.663757,417.347473L368.093079,416.715027L368.107117,416.695313L368.535034,416.116913L368.551636,416.095764L368.977539,415.571136L368.997864,415.547394L369.234985,415.28479L369.251587,415.267059L369.468994,415.04538L369.492737,415.022766L369.690674,414.84201L369.723572,414.813965L369.901794,414.673523L369.954163,414.636627L370.11261,414.537354L370.196106,414.493896L370.334839,414.434967L370.404358,414.410339L370.478455,414.394348L370.597717,414.376312L370.671265,414.369751L370.745056,414.372314L370.818848,414.384338L370.918091,414.406921L370.98877,414.427795L371.08429,414.472412L371.167236,414.520477L371.22876,414.561096L371.270813,414.596558L371.335449,414.655792L371.386658,414.70871L371.43158,414.768768L371.4776,414.839142L371.514221,414.903198L371.542542,414.971313L371.570313,415.051971L371.589722,415.123169L371.600891,415.199829L371.614929,415.381775L371.615784,415.455566L371.610046,415.515656L371.596313,415.608032L371.615479,415.595459L371.8349,415.464172L371.865234,415.446991L372.06604,415.342285L372.106934,415.322845L372.289978,415.244476L372.346619,415.223572L372.511414,415.172119L372.587219,415.153809L372.733948,415.128326L372.842346,415.119476L372.971069,415.120911L373.044617,415.126343L373.108093,415.138641L373.218506,415.166077L373.288879,415.18811L373.374695,415.229614L373.467346,415.283661L373.52887,415.324554L373.584656,415.372925L373.63385,415.427826L373.665039,415.471008L373.726257,415.56427L373.762878,415.628357L373.791443,415.696411L373.811218,415.767639L373.819214,415.815979L373.832336,415.91983L373.837219,415.993622L373.833496,416.059692L373.823486,416.15094L373.803467,416.251923L373.773987,416.353485L373.747437,416.426697L373.698181,416.538818L373.671875,416.591736L373.602966,416.714172L373.579773,416.751953L373.491394,416.884674L373.470215,416.914429L373.361816,417.057434L373.34491,417.078613L373.217102,417.232208L373.201599,417.250244L373.054016,417.413849L373.049194,417.419006L373.00769,417.463928L373.250854,417.432434L373.285461,417.428711L373.475098,417.415283L373.501099,417.414124L373.669861,417.409546L373.704529,417.409546L373.851807,417.414124L373.898743,417.417572L374.025146,417.43158L374.08783,417.441895L374.19281,417.465057L374.27887,417.491089L374.362671,417.523407L374.429626,417.554016L374.477112,417.582336L374.539734,417.62381L374.598694,417.668152L374.673645,417.745392L374.715088,417.79657L374.757751,417.856659L374.792908,417.9216L374.8255,418.009705L374.838684,418.056335L374.854126,418.128418L374.860718,418.201904L374.859253,418.261688L374.855286,418.31604L374.845276,418.388977L374.823792,418.468231L374.802368,418.529724L374.759155,418.625275L374.720276,418.694489L374.6828,418.753113L374.627014,418.829773L374.594421,418.870697L374.520874,418.955078L374.495728,418.982239L374.405334,419.073792L374.384705,419.093536L374.276855,419.19278L374.259705,419.207947L374.134399,419.314636L374.121277,419.325806L373.979126,419.439941L373.967102,419.449097L373.80719,419.570923L373.797485,419.578369L373.620667,419.707397L373.612366,419.713104L373.418152,419.849823L373.410706,419.85498L373.199341,419.999146L373.192749,420.003723L372.963928,420.155334L372.958496,420.158752L372.723938,420.310364L371.578857,421.101868L371.388916,421.26178L371.287659,421.379608L371.255066,421.441956L371.253357,421.452576L371.264221,421.47229L371.28595,421.500336L371.750793,421.875336L371.762512,421.885071L372.528015,422.535828L372.597229,422.605347L372.743103,422.778107L372.796021,422.851624L372.887817,423.001801L372.922424,423.067017L372.9505,423.142517L372.98822,423.269531L373.005127,423.341339L373.012573,423.414856L373.011108,423.488647L373.006287,423.528412L372.99054,423.632233L372.975098,423.704315L372.950745,423.773834L372.917847,423.839905L372.877258,423.901428L372.829224,423.957458L372.798035,423.987518L372.737671,424.04129L372.679565,424.086761L372.616394,424.124817L372.542847,424.15686L372.436157,424.19519L372.36554,424.215759L372.323486,424.223785L372.171021,424.246674L372.105774,424.252686L371.907288,424.260406L371.820313,424.257538L370.783691,424.145996L370.701599,424.131104L370.283081,424.025269L370.21698,424.004395L369.802246,423.846191L369.743896,423.820465L369.332275,423.610504L369.281067,423.581055L368.872559,423.318726L368.813965,423.275818L368.442688,422.967468L368.388855,422.91684L368.341675,422.859924L368.302185,422.797852L368.298218,422.789246L368.264465,422.808411L367.387695,423.250946L367.344788,423.270386L367.031006,423.398834L367.009827,423.40683L366.678589,423.527832L366.65918,423.534698L366.310486,423.64856L366.292175,423.654266L365.926025,423.760956L365.908569,423.765533L365.524963,423.864807L365.508972,423.868805L365.108215,423.960632L365.093628,423.963776L364.67511,424.048706L364.661133,424.051575L364.225464,424.129089L364.19574,424.133392L363.211975,424.257813L363.169922,424.261841L362.191956,424.315308L362.148743,424.315887L361.177063,424.298737L361.133606,424.296448L360.167908,424.208344L360.09491,424.197174L360.041992,424.182007L359.533691,424.952332L359.518555,424.974091L359.121216,425.521851L359.106628,425.541321L358.692444,426.065643L358.676697,426.084534L358.245667,426.585968L358.229065,426.604553L357.781128,427.083405L357.76593,427.099121L357.39978,427.462982L357.385498,427.476715L357.018188,427.818237L357.002747,427.832275L356.634338,428.151489L356.617432,428.165527L356.248169,428.462433L356.230164,428.476166L355.859985,428.751038L355.839417,428.765656L355.467834,429.017944L355.446106,429.031952L355.073669,429.261932L355.050781,429.275665L354.67749,429.483643L354.651733,429.49707L354.277039,429.682434L354.250427,429.694733L353.874817,429.858063L353.845642,429.869781L353.468933,430.010529L353.439209,430.020813L353.06134,430.139526L353.029541,430.148407L352.650818,430.244812L352.61792,430.252228L352.238098,430.326324L352.204346,430.332031L351.823303,430.38382L351.789246,430.387238L351.407104,430.416992L351.333618,430.418427L351.260071,430.4104L351.188293,430.39325L351.119324,430.367493L351.053833,430.333466L351.034119,430.319733L350.711731,430.479645L350.643677,430.50824L350.572693,430.528259L350.499756,430.539429L350.421387,430.541138L347.311768,430.406982L347.238525,430.399261L347.166748,430.382385L347.097534,430.356934L347.031982,430.323181L346.971069,430.281403L346.915894,430.232483L346.867249,430.177002L346.8255,430.116089L346.791992,430.050293L346.766846,429.981079L346.750244,429.908966L346.746521,429.872375L346.71106,429.868073L346.639282,429.850342L346.570618,429.82373L346.534302,429.804291L346.482788,430.024841L346.427612,430.289978L346.38324,430.539429L346.355225,430.744812L346.342041,430.904144L346.341187,431.022278L346.367798,431.401001L346.417297,431.85495L346.484802,432.344971L346.577209,432.913635L346.687622,433.518616L346.820923,434.187103L346.977112,434.916504L346.976807,434.916504L347.15271,435.691711L347.164734,435.764374L347.167297,435.838165L347.161011,435.911682L347.145569,435.983765L347.121277,436.053558L347.088623,436.119629L347.047729,436.181152L347,436.237213L346.945313,436.286987L346.885254,436.32959L346.832092,436.358765L346.352051,436.591614L346.372681,436.629364L346.390991,436.673431L346.480774,436.91684L346.503113,436.991791L346.573181,437.302155L346.582336,437.353638L346.631287,437.716919L346.635559,437.76239L346.657837,438.152008L346.658997,438.191467L346.655273,438.607117L346.65387,438.642578L346.623535,439.083649L346.591797,439.643463L346.602661,440.224976L346.655579,440.846283L346.751953,441.511047L346.852661,442.030518L346.964233,442.506775L347.08606,442.937286L347.286011,443.525116L347.29718,443.561737L347.338928,443.716492L347.351501,443.775116L347.371521,443.897278L347.372986,443.910431L347.384705,443.915863L347.424194,443.937012L347.487122,443.975922L347.544312,444.022278L347.606689,444.088623L347.638428,444.128113L347.68103,444.188171L347.724792,444.273407L347.74884,444.331482L347.772583,444.401276L347.781433,444.437317L347.797485,444.513977L347.808044,444.587219L347.809509,444.661011L347.79834,444.752838L347.761169,444.938477L347.742249,445.009705L347.714539,445.078064L347.678772,445.142426L347.635315,445.202209L347.584656,445.255707L347.554321,445.282288L347.510559,445.318054L347.518555,445.333221L347.58551,445.478241L347.616699,445.561768L347.654724,445.69278L347.671021,445.764587L347.676758,445.813782L347.685608,445.931061L347.686462,446.004852L347.678467,446.078094L347.661316,446.149902L347.635315,446.219116L347.601257,446.284332L347.559204,446.344971L347.509705,446.399902L347.455627,446.446808L347.460815,446.459686L347.479126,446.514038L347.56665,446.822388L347.57605,446.860718L347.642151,447.170227L347.649292,447.209961L347.693909,447.52121L347.698242,447.562103L347.72113,447.874756L347.722839,447.920807L347.72052,448.438263L347.717651,448.49234L347.671631,448.97403L347.66272,449.034393L347.573242,449.480896L347.563782,449.517242L347.870728,449.611328L347.939636,449.63739L347.990295,449.663116L348.157593,449.758362L348.211121,449.792419L348.361267,449.900543L348.412476,449.942017L348.546082,450.062744L348.595825,450.113342L348.71228,450.246948L348.755432,450.303009L348.85498,450.449188L348.891052,450.509521L348.973694,450.668579L349.001709,450.730927L349.067261,450.902588L349.08667,450.962921L349.135315,451.147156L349.14502,451.191193L349.178223,451.371399L349.182495,451.396576L349.211426,451.602539L349.213684,451.623138L349.238037,451.854828L349.239746,451.871399L349.25946,452.128571L349.260315,452.140869L349.276062,452.423767L349.276367,452.436066L349.287231,452.744415L349.287476,452.753571L349.294067,453.087708L349.294373,453.095703L349.296631,453.455536L349.296631,453.462677L349.294373,453.847992L349.294373,453.854004L349.287781,454.265045L349.287476,454.270477L349.276611,454.707275L349.276611,454.712708L349.260864,455.174988L349.26062,455.17868L349.240845,455.666687L349.240601,455.670715L349.216248,456.184143L349.216248,456.187866L349.187378,456.727051L349.187073,456.730225L349.155029,457.275696L349.155029,457.286011L349.150452,457.359497L349.13501,457.439026L349.122131,457.487366L349.098694,457.557465L349.05896,457.637573L348.986267,457.760254L348.945068,457.821167L348.896179,457.876709L348.867554,457.90387L348.654785,458.091217L348.598999,458.134705L348.362976,458.29718L348.303772,458.332947L348.044312,458.470215L347.985962,458.497131L347.703369,458.609558L347.646423,458.628998L347.340088,458.716248L347.288025,458.728516L346.958191,458.791199L346.909851,458.79834L346.55658,458.835815L346.513428,458.838928L346.136414,458.851257L346.108337,458.851532L345.813171,458.847229L345.793152,458.846375L345.518555,458.833221L345.495667,458.831787L345.242188,458.809753L345.215332,458.806915L344.982483,458.776001L344.950989,458.770874L344.739319,458.73111L344.702148,458.722839L344.511353,458.674194L344.468445,458.661621L344.298523,458.60437L344.245911,458.583801L344.096619,458.517151L344.030823,458.482819L343.873474,458.387573L343.786255,458.323212L343.672119,458.22168L343.620056,458.169006L343.570007,458.102966L343.499329,457.995117L343.462708,457.93103L343.434387,457.862976L343.41864,457.809174L343.391174,457.695923L343.375732,457.59491L343.349731,457.200745L343.349426,457.126953L343.358276,457.053741L343.376038,456.982239L343.402649,456.913269L343.437561,456.848328L343.480164,456.787994L343.480469,456.787689L343.445251,456.749634L343.402649,456.689575L343.367737,456.624634L343.340881,456.555725L343.322815,456.484192L343.31311,456.385529L343.250183,452.759308L343.253357,452.685486L343.265625,452.612854L343.287109,452.542175L343.316833,452.47467L343.326294,452.458923L343.315125,452.434052L343.293091,452.363708L343.279907,452.291321L343.275635,452.217529L343.278198,452.165741L343.364014,451.243835L343.383179,451.139709L343.482422,450.782135L343.512207,450.699188L343.650085,450.389679L343.700439,450.299011L343.877197,450.036987L343.922119,449.978638L343.951538,449.947449L344.167236,449.73349L344.239319,449.672272L344.374939,449.575012L344.431274,449.539246L344.554565,449.470337L344.62262,449.438843L344.63208,447.877319L344.636658,447.80896L344.672668,447.513184L344.695557,447.406799L344.777405,447.146484L344.803711,447.077545L344.827759,447.03064L344.955566,446.805786L344.995911,446.744293L345.034546,446.697662L345.208435,446.508301L345.248779,446.469391L344.881531,446.103821L344.832581,446.048645L344.790833,445.987701L344.756775,445.92218L344.731323,445.852966L344.714478,445.781189L344.706726,445.707642L344.707581,445.643005L344.714722,445.533447L344.723877,445.46051L344.747375,445.37442L344.780518,445.280304L344.809143,445.212524L344.844299,445.151855L344.8349,445.138428L344.799438,445.073792L344.772522,445.005127L344.755066,444.938477L344.717896,444.752838L344.707886,444.679596L344.707031,444.605804L344.715332,444.532593L344.729614,444.470215L344.750488,444.398132L344.775391,444.328613L344.828308,444.231934L344.866333,444.175293L344.911255,444.116669L344.962769,444.064026L345.00592,444.028839L345.061157,443.987946L345.062012,443.987366L345.024231,443.937012L344.985901,443.879242L344.876953,443.692169L344.847473,443.634949L344.767639,443.455902L344.740479,443.381531L344.690125,443.210449L344.670715,443.118073L344.64978,442.954742L344.644958,442.886383L344.64209,442.645508L344.644958,442.580017L344.668396,442.342316L344.62262,442.367188L344.456421,442.44043L344.387207,442.465881L344.31543,442.482758L344.205322,442.490784L343.525635,442.477905L343.452148,442.472168L343.379761,442.457031L343.309937,442.433289L343.243591,442.40094L343.173218,442.354034L342.742188,442.021362L342.686646,441.972748L342.637451,441.917816L342.595703,441.856873L342.561646,441.791687L342.556519,441.778229L342.273071,441.763641L342.199829,441.755341L342.127991,441.737885L342.059082,441.711853L342.00415,441.683838L341.498718,441.390076L341.4375,441.349152L341.362244,441.281067L341.222412,441.13089L341.175781,441.073975L341.12854,440.997314L341.042725,440.830261L341.013306,440.762482L340.98584,440.65979L340.954102,440.47644L340.946045,440.403198L340.948669,440.310516L340.970398,440.110291L340.982971,440.037628L340.995239,439.993866L341.047913,439.828796L341.084229,439.739868L341.155151,439.60025L341.192627,439.536743L341.219238,439.500427L341.308777,439.387451L341.358276,439.33252L341.404602,439.291321L341.512756,439.205231L341.573059,439.162903L341.638306,439.128571L341.710938,439.101379L341.712097,439.101105L341.699524,439.06192L341.647766,438.849396L341.634277,438.771851L341.609985,438.544464L341.606567,438.474091L341.609436,438.231506L341.613403,438.169159L341.643738,437.911438L341.652588,437.858215L341.710083,437.585327L341.721558,437.539581L341.806519,437.251831L341.83197,437.182312L341.859131,437.129089L341.779297,437.09848L341.628601,437.027832L341.549927,436.98349L341.432068,436.904541L341.373413,436.85965L341.339111,436.827332L341.25354,436.740356L341.204956,436.68457L341.15802,436.612793L341.105408,436.518372L341.073364,436.452026L341.049927,436.381958L341.039307,436.334747L340.858276,435.334167L340.857666,435.330139L340.696899,434.406494L340.696045,434.401642L340.555908,433.554932L340.555054,433.549225L340.435181,432.77948L340.434021,432.772308L340.334778,432.079224L340.333923,432.072937L340.29187,431.755402L340.291321,431.750275L340.254395,431.451904L340.253845,431.446198L340.222107,431.167023L340.221252,431.161011L340.194336,430.901001L340.193481,430.8927L340.171997,430.651855L340.171448,430.64325L340.154846,430.421875L340.154297,430.413574L340.119385,429.83432L340.115662,429.835175L339.757263,429.885223L339.683716,429.890961L339.609924,429.887238L339.537292,429.874634L339.466614,429.85321L339.422607,429.833466L339.372803,429.855194L339.30188,429.876099L339.256409,429.884369L338.009766,430.068298L337.936279,430.074585L337.862488,430.071747L337.789795,430.059723L337.718872,430.038849L337.680237,430.021973L337.679382,430.026245L337.649353,430.106934L336.995483,431.545746L336.961731,431.609528L336.699707,432.038605L336.681946,432.066071L336.408813,432.462799L336.387024,432.492279L336.102112,432.85614L336.076965,432.886169L335.780334,433.217407L335.751465,433.247437L335.443359,433.546356L335.409607,433.57666L335.090088,433.842712L335.052063,433.871887L334.72052,434.105286L334.679077,434.132172L334.336365,434.333282L334.270569,434.366455L334.218506,434.385895L333.157593,434.729736L333.126648,434.738892L332.15155,434.997192L332.079163,435.01178L332.005676,435.017212L331.931885,435.013214L331.859192,435.00061L331.788818,434.978577L331.721313,434.948547L331.658386,434.909943L331.600586,434.864166L331.549133,434.811523L331.504211,434.752899L331.467346,434.689117L331.43811,434.621338L331.417847,434.550385L331.406372,434.477448L331.404114,434.403625L331.409851,434.342133L331.341736,434.379883L331.305115,434.398499L330.756775,434.654205L330.719849,434.669952L330.149475,434.890503L330.112305,434.903381L329.519897,435.08844L329.483582,435.09845L328.869141,435.248352L328.833679,435.256042L328.197205,435.370758L328.162903,435.375916L327.50415,435.455444L327.467224,435.458588L326.813049,435.496338L326.78241,435.497498L326.115967,435.50177L326.086792,435.501221L325.408264,435.472015L325.379639,435.470032L325.083008,435.443146L325.071594,435.623901L325.069031,435.651672L325.038696,435.925964L325.034424,435.957458L324.992065,436.213745L324.985168,436.249207L324.930847,436.487213L324.920532,436.526123L324.854492,436.746094L324.839905,436.788696L324.762085,436.990662L324.741455,437.037842L324.651672,437.221771L324.623901,437.2724L324.522095,437.438019L324.488342,437.486938L324.399353,437.603638L324.344421,437.66629L324.244934,437.764709L324.17511,437.823608L324.064697,437.903442L323.984314,437.952637L323.863037,438.013855L323.778931,438.048462L323.647095,438.09137L323.562683,438.111938L323.419922,438.136261L323.343262,438.144287L323.189941,438.150269L323.121338,438.149139L322.957092,438.136566L322.888184,438.127136L322.715698,438.093353L322.64447,438.074768L322.590149,438.053894L322.430481,437.983521L322.36499,437.949493L322.31781,437.918304L322.171631,437.81073L322.11499,437.76355L322.086975,437.734955L321.953674,437.590485L321.89447,437.514984L321.774597,437.333618L321.736572,437.266968L321.629883,437.048706L321.605835,436.992645L321.512024,436.737488L321.496826,436.690002L321.416443,436.397949L321.407593,436.361328L321.342957,436.050415L321.336365,436.012665L321.290344,435.687714L321.286316,435.652802L321.258545,435.314117L321.256836,435.281525L321.247437,434.929108L321.247437,434.897644L321.256836,434.531219L321.258301,434.503479L321.286011,434.123016L321.28833,434.096985L321.334351,433.703125L321.338074,433.677917L321.752014,431.100067L321.340637,430.968506L321.272034,430.941589L321.207092,430.906433L321.147034,430.8638L321.092651,430.813751L321.044922,430.757385L321.004578,430.695618L320.972229,430.629517L320.948181,430.559723L320.933044,430.487366L320.927063,430.388672L320.951355,429.269958L320.957336,429.196442L320.972839,429.124054L320.996826,429.054565L321.029175,428.98819L321.069519,428.926392L321.117249,428.870331L321.154724,428.834595L321.450195,428.576294L321.598694,428.443268L321.627869,428.418671L321.780334,428.298828L321.815247,428.273376L321.965698,428.171814L322.007446,428.146057L322.155884,428.062836L322.222534,428.030792L322.292358,428.007324L322.364746,427.992462L322.438232,427.986755L322.512024,427.990448L322.584717,428.003052L322.655334,428.024506L322.719727,428.053101L322.859314,427.715271L322.891602,427.648926L322.931946,427.587128L322.979736,427.530762L323.033752,427.480713L323.093872,427.43811L323.158813,427.402924L323.194275,427.387756L323.46228,427.283936L323.42511,427.249603L323.374207,427.196106L323.330139,427.136902L323.294067,427.072815L323.265747,427.004456L323.246582,426.933228L323.236023,426.860291L323.234558,426.786499L323.24231,426.713257L323.259216,426.641174L323.298645,426.54306L323.766907,425.621124L323.802979,425.559326L324.025818,425.226685L324.070679,425.16803L324.122192,425.115387L324.180237,425.069641L324.243164,425.031311L324.284363,425.011566L324.852783,424.766113L324.922241,424.740967L324.995178,424.72467L325.920288,424.577637L325.993774,424.570465L326.067627,424.572754L326.140564,424.583923L326.211487,424.603943L326.279297,424.632843L326.343323,424.669739L326.401978,424.714355L326.454895,424.765839L326.500977,424.823334L326.510376,424.838776L326.554749,424.823914L326.660034,424.799316L326.832214,424.775269L326.906006,424.769562L326.944031,424.770416L327.117371,424.778992L327.224365,424.794159L327.399414,424.835358L327.492981,424.865662L327.669189,424.939484L327.745239,424.978088L327.923218,425.084778L327.984131,425.126556L328.039307,425.175476L328.087952,425.230957L328.129456,425.29187L328.162903,425.357666L328.188049,425.42691L328.204346,425.498993L328.211792,425.572205L328.210083,425.645996L328.199219,425.718964L328.179504,425.790161L328.151184,425.858276L328.147461,425.864563L328.202087,425.861389L328.275879,425.861694L328.349121,425.871124L328.420654,425.889709L328.485291,425.915192L328.651733,425.992126L328.716675,426.027313L328.782776,426.074799L328.854553,426.134583L328.912903,425.650299L328.91748,425.619141L328.98645,425.223816L328.992981,425.191193L329.08313,424.803894L329.091675,424.771271L329.202942,424.391418L329.213562,424.358521L329.346252,423.986938L329.358582,423.95575L329.512207,423.591919L329.526184,423.561005L329.700989,423.204895L329.716736,423.174866L329.912964,422.826721L329.92981,422.798981L330.146912,422.458588L330.165222,422.431702L330.403809,422.099304L330.422668,422.074158L330.682373,421.749756L330.701843,421.726593L330.983032,421.409943L331.002502,421.389038L331.304565,421.080139L331.32489,421.060394L331.648376,420.75946L331.668396,420.74173L332.013123,420.448822L332.032532,420.433075L332.398376,420.147888L332.423279,420.129578L333.005676,419.722534L333.043152,419.698242L333.629272,419.350677L333.67157,419.327789L334.262268,419.039185L334.309204,419.01886L334.904175,418.789459L334.955688,418.772003L335.554626,418.601807L335.609863,418.589233L336.21344,418.478241L336.270081,418.47052L336.877625,418.418457L336.935669,418.416168L337.547546,418.423584L337.594177,418.426178L337.954041,418.458801L337.989746,418.463074L338.34845,418.5177L338.383362,418.523987L338.740356,418.600372L338.774109,418.608673L339.129639,418.706787L339.162537,418.717102L339.516663,418.837219L339.547852,418.848663L339.900574,418.99054L339.930054,419.003418L340.281006,419.167328L340.308777,419.181061L340.658325,419.367004L340.721252,419.405609L340.759827,419.436493L340.810486,419.410767L340.878296,419.381287L340.948914,419.360413L341.027893,419.348114L341.291626,419.324371L341.518433,419.301208L341.756165,419.27002L342.018188,419.229401L342.315979,419.177612L342.644592,419.114685L342.991333,419.043182L343.356567,418.963074L344.661804,418.660156zM361.16037,410.881409C360.995697,411.046082,360.818085,411.160736,360.629181,411.225311L361.33313,412.565399L361.381561,412.455627C361.554321,412.135925,361.654449,411.888885,361.67865,411.717743C361.719025,411.381927,361.686737,411.115509,361.58017,410.918549C361.463928,410.721558,361.325073,410.708649,361.16037,410.881409zM322.447632,428.582031C322.250641,428.680511,322.048828,428.829041,321.842163,429.024414L321.546692,429.282745L321.522461,430.401642L322.064972,430.574402C322.221588,430.622864,322.320068,430.663208,322.360443,430.697113C322.279724,429.893066,322.307159,429.189117,322.447632,428.582031zM324.520752,425.557922L324.297943,425.890533L323.829712,426.812439L324.175232,427.132141L324.262421,427.10791L324.717712,426.431396C325.07132,425.99707,325.462036,425.603119,325.889893,425.25116L326.014221,425.165588L325.089081,425.3125L324.520752,425.557922zM326.655212,427.082092C327.026581,426.434631,327.346252,425.938965,327.617493,425.595062C327.141205,425.267303,326.681061,425.288269,326.235413,425.656403C325.759125,426.042297,325.437836,426.431396,325.273132,426.825378L326.088501,426.70105C326.325836,426.692963,326.495361,426.772095,326.593872,426.93515L326.655212,427.082092zM336.454102,431.299347L337.108002,429.860779L336.528381,428.213898L335.553162,430.228882C334.508514,432.016235,333.323425,433.412842,331.999481,434.421967L332.97467,434.163635L334.035461,433.819702C334.965454,433.327271,335.771118,432.487701,336.454102,431.299347zM321.990692,436.23996C322.187683,437.068237,322.525116,437.502563,323.003052,437.542938C323.455139,437.601074,323.792572,437.462219,324.015381,437.126373C324.302765,436.708191,324.462616,436.0979,324.496521,435.293823C324.159088,435.442383,323.821625,435.216339,323.484192,434.61731C323.138672,433.995697,322.817352,433.015656,322.521912,431.680389L322.386261,430.905396L321.990692,433.36441C321.793732,434.470398,321.793732,435.429443,321.990692,436.23996zM336.749573,427.747284L336.67691,427.907135L336.799622,428.102478C337.177429,428.717651,337.552002,429.176178,337.92337,429.479736L339.1698,429.295654C338.856598,428.565887,338.596649,427.840942,338.391602,427.119202C338.086426,426.045532,337.968567,425.165588,338.033142,424.476135C338.123566,423.518707,338.490082,422.391724,339.13269,421.096832C338.556274,421.547302,338.067047,422.038147,337.663422,422.570953C337.078949,423.324951,336.754395,424.395416,336.688202,425.779114C336.655914,426.476624,336.680145,427.103058,336.762482,427.660095L336.749573,427.747284zM358.32196,423.61557C357.787537,424.821655,356.931793,425.829163,355.754761,426.639679C355.186432,427.03363,354.668152,427.300049,354.199921,427.438904L353.34906,428.3237C352.690308,428.94693,352.02832,429.447449,351.361511,429.823639C353.402313,429.725159,355.396332,428.677277,357.346741,426.676819C357.955444,426.053589,358.518921,425.370636,359.037201,424.624695L359.653961,423.68985C359.85257,423.148956,359.925232,422.629059,359.876801,422.12854C359.489288,422.456299,359.053345,422.743713,358.56897,422.989136L358.32196,423.61557zM347.066711,453.081635L346.622711,453.068726L345.549011,453.057434L343.845642,452.749023L343.9086,456.375366C344.434967,456.612732,344.911255,456.756409,345.339111,456.806458L346.36438,456.84198C346.692139,456.833923,346.864899,456.798401,346.88266,456.732208L347.029572,454.888367C347.103851,453.724243,347.11676,453.122009,347.066711,453.081635zM349.028442,421.390686C348.839539,420.300842,348.448792,419.592041,347.856262,419.264282L347.61084,419.15451C347.478424,419.244904,347.43808,419.37085,347.486511,419.535553L347.7836,420.174927C348.209839,420.985443,348.411652,421.805634,348.387451,422.632294C348.36322,423.772186,348.100037,425.021881,347.5979,426.381348C347.383179,426.996521,347.170044,427.742432,346.955322,428.619171L346.819702,429.282745C347.568848,429.069641,348.193695,428.778992,348.695831,428.410889C349.296448,427.960419,349.793732,427.542236,350.189331,427.156342C350.633331,426.722015,350.864197,426.399109,350.880371,426.185974C350.888428,426.144012,350.630096,425.640259,350.102112,424.673126C349.527344,423.61557,349.185059,422.583862,349.078491,421.576355L349.028442,421.390686zM344.129791,437.273315L342.377991,437.420227C342.114807,438.20813,342.14386,438.834595,342.463562,439.301208C342.752563,439.711304,342.859131,440.079437,342.784851,440.407196C342.752563,440.513763,342.678284,440.55896,342.562042,440.542816C342.455475,440.526672,342.402191,440.46048,342.402191,440.345856C342.394135,440.060059,342.261719,439.821106,342.006622,439.63382L341.883911,439.670959C341.727295,439.767822,341.620758,439.937347,341.562622,440.174683C341.498047,440.452393,341.575531,440.686523,341.79834,440.875427L342.303711,441.169281L342.809082,441.195099L343.21756,440.875427C343.414551,440.620331,343.590546,440.305481,343.747131,439.927673C343.789124,439.813019,343.87146,439.777527,343.994171,439.817871C344.116882,439.858246,344.158875,439.940582,344.116882,440.063293L343.969971,440.420105C343.845642,440.689758,343.701935,440.920624,343.537262,441.10791C343.372559,441.304901,343.228882,441.45343,343.106171,441.550323L343.537262,441.882935L344.21698,441.895844C344.438171,441.821564,344.661011,441.653656,344.882202,441.390472C345.054962,441.195099,345.182495,441.00943,345.264862,440.838287C345.322968,440.723663,345.408539,440.69458,345.524811,440.752716C345.639435,440.793091,345.676575,440.875427,345.6362,440.998138L345.413391,441.685944C345.272919,442.186462,345.2164,442.583649,345.240631,442.87912C345.248718,443.092224,345.335876,443.324738,345.50058,443.579834C345.663635,443.8172,345.854187,444.009338,346.067291,444.15625C346.282043,444.288635,346.458038,444.324158,346.59848,444.267639C346.713135,444.227295,346.774475,444.165924,346.782562,444.083588C346.800323,443.985107,346.758331,443.801025,346.659851,443.529785C346.46286,443.005066,346.298187,442.365692,346.165771,441.611664C346.001099,440.662292,345.955902,439.804962,346.030151,439.042877C346.088287,438.437408,346.075378,437.89975,345.993011,437.433136C345.952667,437.203857,345.899384,437.019806,345.833191,436.879333L344.129791,437.273315zM368.18219,418.576477C368.511566,418.855804,368.76181,419.309509,368.93457,419.940796C369.099274,420.531738,369.10733,421.2034,368.958801,421.957397L368.823181,422.509583L369.194519,422.817993C369.73703,423.20224,370.287598,423.447662,370.847839,423.55423L371.884399,423.665619C372.179871,423.665619,372.352631,423.625275,372.402679,423.542938C372.459198,423.420227,372.373627,423.234528,372.142731,422.989136L371.377441,422.33844L370.859161,421.920288C370.720306,421.763672,370.649261,421.608673,370.649261,421.453674C370.649261,421.182404,370.839783,420.907928,371.21759,420.628601L372.389771,419.818085C373.74762,418.949463,374.369232,418.400482,374.252991,418.171234C374.170654,418.022675,373.862274,417.974243,373.32785,418.022675C372.80957,418.072723,372.259003,418.195435,371.6745,418.392426C371.576019,418.416626,371.496918,418.384338,371.440399,418.293945C371.398407,418.195435,371.414551,418.109863,371.488831,418.035583C371.90863,417.732056,372.283203,417.393005,372.612579,417.015198C373.032379,416.564728,373.242279,416.22403,373.242279,415.994781C373.250336,415.922119,373.224518,415.855927,373.167999,415.797791C372.94519,415.618561,372.530243,415.720276,371.921539,416.106171C371.451691,416.417786,371.00769,416.793976,370.587891,417.236389C370.497498,417.318726,370.411926,417.318726,370.329559,417.236389C370.239166,417.162109,370.226227,417.073303,370.292419,416.966736L370.786499,416.167542C370.983459,415.77356,371.057739,415.466797,371.00769,415.245605C370.983459,415.130981,370.90921,415.043793,370.786499,414.987274C370.547546,414.87265,370.098694,415.192322,369.439941,415.94632C368.87323,416.609924,368.301666,417.417206,367.72525,418.368195C367.79953,418.392426,367.951294,418.461853,368.18219,418.576477zM348.597351,419.178711C348.950928,419.924652,349.218964,420.625366,349.39978,421.280914L349.47406,421.477875C349.777588,422.845428,350.213531,423.972412,350.78186,424.857178L351.558472,426.074585C351.616608,426.525055,350.739899,427.406616,348.929932,428.717651L348.140411,429.332794L347.337982,429.812317L350.447632,429.94635C351.419617,429.49588,352.352844,428.816132,353.248932,427.907135L354.34848,426.665527L354.434052,426.604156C355.799988,426.226349,356.988312,425.165588,358.000641,423.420227L358.124969,423.186096L357.97644,423.247467C357.655121,423.935272,357.157837,424.489075,356.482941,424.907257C355.799988,425.325409,355.105713,425.504639,354.396912,425.44812C352.628937,425.301208,351.595612,423.907806,351.30014,421.267975C350.592957,420.555969,350.106964,419.998932,349.843811,419.596893C349.37558,419.663086,348.959015,419.522614,348.597351,419.178711zM345.302002,445.682037L346.054382,446.431183C346.104431,446.513519,346.096344,446.594269,346.030151,446.676605L345.647522,446.910706C345.384338,447.139984,345.245483,447.462891,345.227722,447.881073L345.2164,449.750763C345.2164,449.85733,345.163147,449.918671,345.054962,449.934814C344.932251,449.934814,344.775635,450.007477,344.586731,450.156036C344.273499,450.409515,344.063599,450.790558,343.957031,451.299133L343.87146,452.221069C344.602875,452.59726,345.179291,452.786163,345.59906,452.786163L346.684052,452.589203L347.43808,452.613403C347.510742,452.745819,347.510742,453.556335,347.43808,455.048187L347.300842,457.260162L346.795471,457.470062L345.376251,457.555634C344.751404,457.46521,344.273499,457.334442,343.944122,457.161682L343.969971,457.555634C343.978027,457.710632,344.100739,457.851105,344.339691,457.973816C344.709442,458.16272,345.302002,458.256348,346.11734,458.256348C347.1539,458.256348,347.938599,457.98996,348.47464,457.457153L348.547302,457.334442L348.560211,457.286011L348.560211,457.260162C348.749115,454.179565,348.749115,452.192017,348.560211,451.299133C348.453644,450.790558,348.164642,450.417572,347.696411,450.180237L347.01828,449.971954L346.9198,449.921906L346.856812,449.774994C347.063477,449.250244,347.1539,448.631866,347.128082,447.918213C347.111938,447.500031,347.037659,447.0867,346.906891,446.676605L346.7099,446.172852C346.643707,446.106659,346.630798,446.037231,346.67276,445.964569L346.893951,445.9888L347.09256,445.975891C347.100616,445.828949,347.029572,445.644897,346.88266,445.423706L346.67276,445.078186C346.696991,444.971619,346.763184,444.918335,346.869751,444.918335C347.01828,444.918335,347.119995,444.886047,347.178131,444.821442L347.215271,444.635773C347.199127,444.521149,347.161987,444.456573,347.103851,444.44043L347.05542,444.42749L346.734131,444.648682C346.338562,444.77948,346.001099,444.760101,345.721771,444.587341L345.524811,444.42749L345.487671,444.44043C345.381104,444.46463,345.318146,444.529205,345.302002,444.635773L345.339111,444.821442C345.405334,444.886047,345.511871,444.918335,345.660431,444.918335C345.766998,444.918335,345.828339,444.971619,345.8461,445.078186C345.862244,445.184723,345.817047,445.250946,345.708862,445.275146L345.487671,445.336517C345.355255,445.410767,345.293915,445.525421,345.302002,445.682037zM345.59906,449.897705L346.01886,449.910614L346.437042,449.897705C346.561371,449.897705,346.622711,449.926758,346.622711,449.983276C346.622711,450.049469,346.561371,450.114044,346.437042,450.180237L346.01886,450.291656C345.862244,450.291656,345.721771,450.254517,345.59906,450.180237C345.482819,450.114044,345.4263,450.049469,345.4263,449.983276C345.4263,449.926758,345.482819,449.897705,345.59906,449.897705zM367.502441,418.896179L365.492279,419.202942C364.027863,419.367615,362.973541,419.338562,362.33255,419.117371L361.912781,418.98175L361.75293,419.437042C361.439697,420.215271,361.032837,420.89502,360.530701,421.477875C360.637268,422.101105,360.551666,422.78891,360.270752,423.542938L360.22229,423.61557C361.50589,423.780273,362.805634,423.756042,364.121521,423.542938C365.30661,423.345947,366.30603,423.071472,367.119781,422.719482L367.99649,422.2771C368.103058,422.152771,368.185394,421.976776,368.24353,421.747498C368.392059,421.280914,368.395294,420.777161,368.256439,420.236267C368.115967,419.735748,367.951294,419.362793,367.76239,419.117371L367.502441,418.896179zM351.4729,406.578552C350.986908,406.660889,350.555817,406.967651,350.176392,407.500458L349.47406,408.422394C349.160828,408.570923,348.839539,408.898712,348.510162,409.40567C348.272797,409.783478,348.074219,410.172607,347.91922,410.574615C347.614075,411.310883,347.584991,412.253784,347.832031,413.401764C347.946655,413.991089,348.095215,414.502899,348.276031,414.937225C348.40036,414.217133,348.700684,413.618103,349.176971,413.143433L349.7211,412.639679L350.115051,412.331299L349.411102,411.704834C349.147919,411.401306,349.033264,411.134888,349.065552,410.905609C349.099487,410.537506,349.222168,410.233948,349.43692,409.996613C349.716248,409.668854,350.123108,409.529999,350.657532,409.57843C350.830292,409.594574,351.138672,409.68985,351.58432,409.860992C351.970184,410.025665,352.230133,410.087036,352.360931,410.045044L353.261871,409.085999C353.763977,408.520874,354.170868,408.299683,354.4841,408.422394L355.334991,408.926147L355.94043,409.245819L356.397369,409.282959L356.72998,409.111816L357.261169,408.877716C357.442017,408.837341,357.66803,408.885773,357.939301,409.024628C358.103973,409.106964,358.383301,409.378235,358.77887,409.836761L359.406952,410.548798C359.671722,410.761932,359.938141,410.889465,360.209381,410.92984C360.522614,410.979889,360.77771,410.902374,360.974701,410.697327C361.27179,410.393799,361.463928,410.007904,361.554321,409.54129C361.644745,409.082764,361.61731,408.680725,361.46875,408.336823C361.37027,408.075256,361.205597,407.836304,360.974701,407.623169C361.016693,407.934784,360.937561,408.173737,360.740601,408.336823C360.477417,408.566101,360.169037,408.669434,359.81543,408.643585C359.46991,408.603241,359.16153,408.44339,358.888672,408.164063C358.107208,407.353546,357.580872,406.911163,357.309601,406.836884C357.070648,406.796509,356.750977,406.84494,356.347321,406.985413L355.619141,406.959595L355.17514,406.383179C354.723053,405.735748,354.393677,405.398285,354.187012,405.374084C353.949677,405.357941,353.636444,405.488708,353.248932,405.768036L352.92926,406.037659C352.804932,406.144226,352.68222,406.218506,352.557892,406.25885L351.4729,406.578552zM341.748291,424.145172C341.674011,424.603699,341.509338,425.247925,341.254242,426.074585C340.999146,426.943237,340.834442,427.65686,340.76178,428.213898C340.687531,428.829041,340.682678,429.549164,340.748871,430.377441C340.823151,431.507629,341.115387,433.458038,341.62558,436.228668C341.674011,436.359436,341.809662,436.470856,342.032471,436.559662L343.969971,436.646851C344.817627,436.498291,345.508667,436.311005,346.043091,436.080139L346.572662,435.823395C346.072144,433.667938,345.796051,432.072754,345.746002,431.041016C345.729858,430.647064,345.873535,429.901123,346.178711,428.803223C346.42572,427.886139,346.7099,426.988434,347.029572,426.111725C347.236267,425.538544,347.408997,424.923401,347.547852,424.267883L347.832031,422.583862C347.964417,421.657104,347.794891,420.867554,347.32666,420.212036C346.964996,419.719604,346.540375,419.399902,346.054382,419.252991C345.841248,419.186798,345.421478,419.183563,344.796631,419.240082L343.895691,419.449982C342.784851,419.711517,341.937195,419.866516,341.352722,419.916595L341.081482,419.940796L339.99649,420.494598L339.909302,420.54303C339.441071,421.534393,339.090698,422.506378,338.859802,423.457336C338.606323,424.555267,338.877563,426.500824,339.675171,429.295654L340.03363,429.245605C340.073975,428.549744,340.16925,427.878082,340.316162,427.230621L340.661682,426.000305L341.205811,424.120941C341.352722,423.62851,341.407623,423.284607,341.365631,423.087616L341.748291,422.989136C341.822571,423.284607,341.822571,423.668854,341.748291,424.145172zM336.29425,425.496552C336.392731,424.161316,336.738251,423.10376,337.330811,422.325531C337.849091,421.661926,338.412567,421.108154,339.021271,420.665741C339.391022,420.396118,339.843109,420.137787,340.37915,419.892365C339.449127,419.367615,338.502991,419.076996,337.54071,419.01886C335.903534,418.92038,334.311554,419.453186,332.764771,420.61731C330.756256,422.117249,329.655121,423.953033,329.456512,426.124634C329.432281,426.402344,329.374176,426.628387,329.283752,426.79953C329.177185,427.012665,329.046417,427.115997,328.889801,427.10791C328.757385,427.099854,328.687988,427.04657,328.679901,426.948059C328.629852,426.70105,328.48291,426.537964,328.235901,426.455627L327.803192,426.479858C327.507721,426.841522,327.330109,427.095001,327.271973,427.241913C327.215485,427.34848,327.18158,427.500244,327.173492,427.697235C327.173492,427.828003,327.116974,427.902283,327.000732,427.918427L326.779541,427.968475L326.383972,428.42218L326.001312,428.778992C325.878601,428.714417,325.849548,428.623993,325.915741,428.509369L326.136932,427.907135C326.269348,427.488953,326.309692,427.238708,326.261261,427.156342C326.245117,427.10791,326.190216,427.082092,326.099792,427.082092C325.788177,427.099854,325.289276,427.230621,324.607941,427.476044L324.557892,427.500244L324.570801,427.500244L324.422241,427.550293L323.409912,427.942657L322.941681,429.074463C322.726959,429.852692,322.715637,430.692291,322.904541,431.594818C323.109619,432.552277,323.459961,433.348267,323.952423,433.979553L324.743561,434.814301C325.671936,434.920868,326.569641,434.937012,327.433441,434.864349C329.219177,434.699646,330.769165,434.158783,332.085052,433.241699C333.402527,432.322998,334.484314,431.168579,335.33197,429.775208C335.537018,429.439362,335.882538,428.733795,336.36853,427.660095C336.268433,426.97229,336.244202,426.25058,336.29425,425.496552zM358.507629,410.057953C358.112061,409.599426,357.852112,409.333008,357.729401,409.258759C357.466217,409.144104,357.104553,409.242615,356.642792,409.55423C356.405457,409.660767,356.145508,409.68985,355.86618,409.639801L355.11377,409.357239L354.077209,409.308807C353.681641,409.439575,353.319977,409.697906,352.990601,410.082184C352.842072,410.271088,352.645081,410.361511,352.398071,410.353424L351.781281,410.217804L350.707581,410.033752C350.247437,409.99176,349.926147,410.225891,349.7453,410.734467C349.564484,411.283417,349.822815,411.733887,350.521912,412.085876L350.64624,412.208588C350.694672,412.282867,350.662384,412.352295,350.54776,412.418488C350.085968,412.704254,349.70816,412.991669,349.411102,413.279053C348.786255,413.918427,348.490784,414.627228,348.523071,415.405457C348.74588,414.806427,349.05426,414.254242,349.448212,413.745667C349.934204,413.204773,350.258728,412.906067,350.423431,412.847961C350.529999,412.79953,350.6091,412.810822,350.657532,412.885101C350.707581,412.959351,350.691437,413.020721,350.6091,413.069153L350.30072,413.340393L349.68396,413.953949C349.312592,414.323669,348.95578,414.896851,348.61026,415.675079L348.682922,415.896271L348.99292,415.306946L349.620972,414.42218C349.91806,414.118622,350.184479,413.913574,350.423431,413.807007C350.521912,413.766663,350.580048,413.79895,350.596191,413.905518C350.620422,414.012054,350.57196,414.102478,350.447632,414.17514C350.194153,414.331757,349.995575,414.491608,349.85672,414.654663C349.5354,415.016327,349.176971,415.512024,348.78302,416.143311L348.831451,416.240173L349.041351,416.277313C349.16568,416.335449,349.181824,416.433929,349.0914,416.572784C348.49884,417.065247,348.379364,417.654572,348.732971,418.342377C349.094635,419.005951,349.64682,419.282043,350.386292,419.165802C351.193573,420.478455,352.134888,421.453674,353.213409,422.091431C353.508881,422.264191,353.48468,422.33844,353.13916,422.312622C352.801697,422.304535,352.422272,422.16568,352.004089,421.896057C352.118744,423.526794,352.822693,424.464844,354.114349,424.710266C354.598724,424.80069,355.055664,424.760315,355.483521,424.587555C355.90332,424.422882,356.142273,424.198456,356.198792,423.911041L355.38504,423.78833C354.96524,423.681763,354.771484,423.59137,354.805389,423.518707L355.5578,423.542938C356.264984,423.534851,357.05127,423.321716,357.91507,422.903564C359.411774,422.189911,360.493561,420.9935,361.16037,419.314331C361.793304,417.707825,361.912781,416.060974,361.517212,414.372131C361.254028,413.258057,360.806793,412.224731,360.172241,411.27536C359.860626,411.241455,359.515106,411.086456,359.135681,410.807129L358.507629,410.057953zM350.423431,415.725128C350.497711,415.691223,350.563904,415.708984,350.620422,415.77356C350.670471,415.863983,350.657532,415.930176,350.5849,415.970551L350.423431,416.130402C350.308807,416.236969,350.250671,416.327362,350.250671,416.400024C350.234528,416.490448,350.181244,416.535645,350.09082,416.535645C349.99234,416.535645,349.947144,416.474304,349.9552,416.351593C349.963287,416.236969,350.021393,416.109406,350.12796,415.970551C350.22644,415.847839,350.324951,415.765503,350.423431,415.725128zM350.521912,415.085754L350.05368,415.429657L349.671021,415.859131C349.538635,416.023834,349.461151,416.064209,349.43692,415.983459L349.54834,415.650879L349.843811,415.221375C350.016541,415.024414,350.213531,414.875854,350.43634,414.777374C350.51062,414.745087,350.57196,414.769318,350.620422,414.851654C350.670471,414.93399,350.638184,415.011505,350.521912,415.085754zM358.32196,420.628601L357.926392,420.849792L357.173981,420.875641C357.099701,420.859497,357.043213,420.822357,357.001221,420.764221L356.951172,420.58017L357.05127,420.433258L357.261169,420.383179L358.284821,420.468781C358.449493,420.478455,358.460815,420.531738,358.32196,420.628601zM358.975861,411.249512L359.95105,411.803314C360.017242,411.843689,360.049561,411.880829,360.049561,411.914734L359.91391,411.950256L358.91449,411.950256C358.824097,411.950256,358.757874,411.922791,358.715912,411.864685C358.659393,411.798492,358.633545,411.72583,358.64325,411.643494L358.680389,411.398071C358.680389,411.315735,358.712677,411.262451,358.77887,411.23822L358.975861,411.249512zM353.86731,411.17688L354.0401,411.13974L354.17572,411.249512L354.359772,411.483643C354.476013,411.648315,354.516388,411.750031,354.4841,411.790405L354.261292,411.914734C354.088531,411.987396,353.941589,412.056824,353.817261,412.123016L353.286072,412.455627L352.92926,412.615448C352.871124,412.4104,353.006744,412.110107,353.336121,411.717743L353.86731,411.17688zM359.198669,413.463104C359.271332,413.290344,359.371429,413.199921,359.494141,413.191864C359.624908,413.191864,359.736328,413.270966,359.826721,413.425964C359.934906,413.580963,359.996277,413.774719,360.012421,414.003998C360.020477,414.233276,359.98819,414.433472,359.91391,414.606232C359.831573,414.777374,359.728241,414.864563,359.60553,414.864563C359.481201,414.87265,359.374664,414.79837,359.284241,414.643372C359.177673,414.478668,359.116333,414.281708,359.098572,414.052429C359.090485,413.823151,359.12439,413.62619,359.198669,413.463104zM353.458832,415.208466L352.79364,414.643372C352.998688,414.364044,353.266693,414.129944,353.594452,413.942627C354.253204,413.564819,354.878052,413.606812,355.470612,414.065338C354.771484,414.049194,354.229004,414.233276,353.841492,414.617523C353.644501,414.814514,353.516968,415.011505,353.458832,415.208466zM358.66748,415.922119L358.630341,416.130402L358.112061,416.966736C357.963501,417.154053,357.769775,417.187958,357.53241,417.065247L357.408081,416.966736C357.383881,416.916687,357.391937,416.868256,357.433929,416.818207L357.852112,416.178833C357.942535,416.039978,357.947357,415.901123,357.865021,415.762268L357.32251,414.814514L356.915649,413.979767L356.778412,413.572906C356.72998,413.417908,356.746124,413.335571,356.828461,413.327484C356.910797,413.303253,356.988312,413.364624,357.062561,413.511536L357.593781,414.494812C357.750397,414.757996,358.082977,415.171326,358.593201,415.73645C358.64325,415.786499,358.66748,415.847839,358.66748,415.922119zM360.75351,418.539337L360.270752,419.375702C360.180328,419.50647,360.135132,419.498413,360.135132,419.351471L360.135132,419.22876C360.135132,419.162567,360.107666,419.112518,360.049561,419.080231L359.889709,419.056L359.12439,419.535553C358.515686,419.863312,357.960266,420.039276,357.45816,420.063507C356.956024,420.087738,356.277893,419.874603,355.42215,419.424133L354.322632,418.749237C354.258057,418.715332,354.187012,418.715332,354.114349,418.749237L353.952881,418.871948L353.96582,419.437042C353.883484,419.567841,353.822113,419.556519,353.780151,419.399902L353.508881,418.306854C353.476593,418.142151,353.525024,418.01944,353.65744,417.937103L354.86676,417.015198L354.978149,416.990967C355.00238,417.015198,355.00238,417.055542,354.978149,417.113678L354.840912,417.49472C354.816711,417.560913,354.832855,417.625488,354.890961,417.691681C354.949097,417.765961,355.013672,417.80957,355.087952,417.827332C356.232697,418.195435,357.083557,418.400482,357.642212,418.440857L359.08725,418.318146L359.901001,418.134094L360.062469,418.035583C360.110901,417.969391,360.131897,417.908051,360.12381,417.851532L360.110901,417.678772C360.102814,417.614197,360.110901,417.577057,360.135132,417.56897C360.169037,417.552826,360.206146,417.56897,360.246521,417.617432L360.71637,418.147003C360.822937,418.269714,360.835846,418.400482,360.75351,418.539337zM360.185181,418.563568C360.209381,418.416626,360.118988,418.350433,359.91391,418.368195L359.08725,418.539337L357.53241,418.687897C356.873657,418.653992,356.022797,418.453766,354.978149,418.084045L354.718201,418.048523C354.603577,418.040436,354.492157,418.075958,354.38562,418.158295C354.277435,418.240662,354.258057,418.33429,354.322632,418.440857L354.545441,418.589386C355.45929,419.047943,356.087372,419.325653,356.432892,419.424133L357.45816,419.546844L358.444641,419.424133L359.95105,418.84613C360.065704,418.813812,360.144806,418.720184,360.185181,418.563568z"/>
</svg>
