<?xml version="1.0" encoding="UTF-8"?>
<svg xmlns="http://www.w3.org/2000/svg" xmlns:xlink="http://www.w3.org/1999/xlink" width="53.431mm" height="53.213mm" viewBox="-304.308289 405.209076 53.431107 53.212555">
    <path transform="matrix(-1,0,0,1,0,0)" style="stroke:none;fill:#000000;fill-rule:evenodd" d="M301.482666,419.116394L301.398865,419.264587L301.373718,419.34552L301.391724,419.367554L301.413757,419.387573L301.932068,419.658173L301.938904,419.661621L302.222961,419.814636L302.235535,419.821808L302.476685,419.959381L302.492432,419.968536L302.691223,420.090118L302.715576,420.105835L302.87146,420.211975L302.910645,420.24115L303.083679,420.381042L303.144043,420.437073L303.261047,420.562103L303.307983,420.619019L303.347412,420.681091L303.407776,420.790344L303.439514,420.856995L303.462708,420.927094L303.47699,420.999451L303.481873,421.058105L303.485046,421.151917L303.482727,421.225708L303.471558,421.298676L303.451538,421.369598L303.422668,421.437683L303.37915,421.5112L303.330566,421.581268L303.28479,421.639343L303.232178,421.691132L303.162048,421.743469L303.064514,421.805817L302.999878,421.841583L302.951843,421.862183L302.805359,421.916809L302.737549,421.937408L302.542786,421.984619L302.451538,421.999481L301.411743,422.085022L301.319641,422.085297L300.899414,422.054688L300.833923,422.046387L300.404297,421.966583L300.345093,421.952271L299.906555,421.823273L299.853638,421.804962L299.40625,421.62619L299.335571,421.592438L298.919128,421.358459L298.857056,421.31842L298.80072,421.270935L298.750366,421.216858L298.746643,421.2117L298.718567,421.236298L297.937134,421.840149L297.899902,421.866455L297.621582,422.049255L297.601563,422.061829L297.303833,422.240906L297.285217,422.25177L296.968567,422.426819L296.951111,422.435974L296.615295,422.60733L296.598389,422.615631L296.243408,422.782959L296.228271,422.789825L295.854431,422.95343L295.839844,422.959747L295.446777,423.119354L295.43335,423.124512L295.021118,423.280396L295.008545,423.284973L294.490234,423.467773L294.467346,423.475494L293.946777,423.635681L293.922729,423.642548L293.399536,423.779846L293.375244,423.785553L292.849182,423.900269L292.82428,423.905121L292.295715,423.996948L292.270813,424.000671L291.739624,424.069885L291.714417,424.072754L291.180359,424.119385L291.155212,424.121094L290.618591,424.145111L290.5448,424.143677L290.471863,424.133392L290.434692,424.123383L290.3703,424.345917L290.349976,424.404297L290.190674,424.796448L290.15863,424.863098L290.110596,424.93576L289.426086,425.823639L289.402893,425.851959L288.95636,426.362854L288.941467,426.379456L288.482971,426.866272L288.466675,426.882599L287.996399,427.344543L287.978638,427.36145L287.495544,427.798798L287.479797,427.812531L287.087341,428.143188L287.071899,428.155792L286.680298,428.464142L286.663696,428.476746L286.272949,428.762787L286.254944,428.775665L285.865356,429.039124L285.845581,429.051697L285.456604,429.293121L285.435425,429.305695L285.047546,429.524811L285.024048,429.537415L284.63678,429.733917L284.612732,429.745361L284.226563,429.919861L284.199707,429.931274L283.814087,430.083191L283.786072,430.093475L283.401611,430.223053L283.372131,430.232208L282.988586,430.339783L282.956787,430.347473L282.574097,430.432434L282.541443,430.438721L282.159302,430.501373L282.125549,430.505951L281.744568,430.546295L281.709961,430.548859L281.329468,430.566895L281.294617,430.567749L280.915283,430.563446L280.841797,430.558014L280.769409,430.543427L280.699585,430.520264L280.632935,430.488525L280.570862,430.44873L280.563171,430.442169L280.237671,430.571472L280.167297,430.59436L280.09491,430.608368L280.008789,430.613525L279.234741,430.601776L279.188721,430.599213L278.418945,430.527405L278.373169,430.521393L277.608032,430.389832L277.563416,430.380371L276.803101,430.188721L276.732971,430.166138L276.666077,430.135254L276.603394,430.096344L276.545898,430.049713L276.494995,429.996521L276.450684,429.937592L276.414368,429.873505L276.386047,429.805145L276.366272,429.734192L276.355408,429.661255L276.354858,429.624939L276.326538,429.618927L276.256714,429.595184L276.190369,429.562866L276.155762,429.540253L276.093994,429.733917L276.09137,429.742798L276.091125,429.743073L276.012756,430.010254L275.951782,430.242493L275.906311,430.45047L275.880005,430.608368L275.869141,430.72879L275.862244,431.113525L275.870544,431.5672L275.894287,432.070618L275.934631,432.642151L275.990967,433.272888L276.061951,433.942261L276.150024,434.676514L276.25531,435.471741L276.260437,435.545258L276.256409,435.619049L276.243286,435.691711L276.221252,435.762085L276.190674,435.829285L276.152039,435.891937L276.105957,435.949707L276.053345,436.001221L275.994446,436.045532L275.930603,436.082733L275.881714,436.104187L275.554504,436.232056L275.574219,436.275543L275.593689,436.337036L275.714966,436.805298L275.728699,436.875946L275.777283,437.240082L275.781616,437.284424L275.804199,437.674866L275.805359,437.714905L275.801331,438.131683L275.799927,438.166595L275.769592,438.60968L275.738953,439.173187L275.750122,439.75531L275.802795,440.38031L275.897156,441.036499L275.998413,441.572845L276.106567,442.041687L276.226685,442.472168L276.425781,443.062286L276.436951,443.098633L276.478394,443.253357L276.491028,443.313171L276.510742,443.435852L276.511902,443.44931L276.529053,443.457611L276.567688,443.479065L276.629761,443.518829L276.68634,443.56604L276.74646,443.631531L276.777893,443.67157L276.819946,443.732483L276.861694,443.81604L276.885437,443.874664L276.916321,443.976776L276.932373,444.053741L276.942932,444.126678L276.944397,444.20047L276.933228,444.292877L276.896057,444.476807L276.876892,444.548035L276.849121,444.616394L276.81311,444.68103L276.769348,444.740234L276.698975,444.811462L276.64801,444.85495L276.646606,444.855804L276.657776,444.876984L276.723816,445.022858L276.754761,445.107819L276.791626,445.23941L276.807373,445.311493L276.8125,445.358398L276.820801,445.476532L276.821411,445.550323L276.812805,445.623566L276.795349,445.695374L276.769043,445.764282L276.734436,445.829529L276.692078,445.889893L276.642334,445.944519L276.592529,445.987427L276.59967,446.005737L276.617126,446.058655L276.704407,446.36731L276.714111,446.406189L276.779602,446.716248L276.786499,446.756012L276.830566,447.067535L276.834839,447.1073L276.857727,447.420502L276.859436,447.467712L276.856262,447.986328L276.853699,448.038391L276.808228,448.52121L276.799377,448.580719L276.710999,449.028381L276.700684,449.068726L277.002136,449.162231L277.071106,449.188293L277.124329,449.215759L277.290222,449.311859L277.341675,449.345032L277.491028,449.453461L277.543091,449.496094L277.675232,449.617065L277.723877,449.667114L277.839417,449.800995L277.882935,449.858215L277.981323,450.004669L278.016785,450.064728L278.098572,450.22406L278.126343,450.286713L278.190979,450.458923L278.209839,450.518127L278.257935,450.702911L278.267334,450.745239L278.300537,450.926025L278.304565,450.951782L278.33313,451.15802L278.335449,451.177185L278.360046,451.409149L278.361755,451.426331L278.38147,451.684052L278.382324,451.697205L278.397766,451.980682L278.398071,451.991547L278.409241,452.300781L278.409546,452.310486L278.416077,452.645447L278.416382,452.653442L278.418701,453.01416L278.418701,453.021332L278.416382,453.407501L278.416382,453.413483L278.40979,453.825684L278.409546,453.831421L278.398376,454.269043L278.398376,454.273621L278.382935,454.737305L278.382629,454.741608L278.362915,455.230743L278.36261,455.235046L278.338013,455.749939L278.338013,455.753052L278.309387,456.293701L278.309143,456.297119L278.2771,456.84375L278.2771,456.852631L278.272522,456.926147L278.261902,456.985352L278.250488,457.0354L278.229858,457.106079L278.200439,457.173584L278.17926,457.21106L278.104858,457.333771L278.062805,457.394409L277.993042,457.468781L277.783081,457.656708L277.726135,457.701599L277.492432,457.86438L277.433228,457.900726L277.176392,458.0383L277.117126,458.06604L276.837097,458.178467L276.780457,458.197937L276.47699,458.285461L276.424072,458.29834L276.097107,458.360962L276.048218,458.368103L275.698059,458.405579L275.654907,458.408752L275.281616,458.421326L275.252136,458.421631L274.959473,458.417023L274.939453,458.416168L274.66803,458.40271L274.644836,458.401306L274.393677,458.378967L274.367126,458.375854L274.136841,458.34494L274.104248,458.339783L273.894836,458.299744L273.857666,458.291168L273.668579,458.242249L273.625061,458.22937L273.456909,458.171875L273.404846,458.151306L273.256958,458.084656L273.192322,458.050598L273.036133,457.955627L272.947998,457.890411L272.835022,457.789154L272.783264,457.736511L272.733215,457.670166L272.663086,457.562317L272.62677,457.497986L272.598755,457.429871L272.583313,457.375824L272.556152,457.261688L272.540955,457.160431L272.516663,456.766541L272.516663,456.692749L272.525818,456.619507L272.544128,456.548004L272.570984,456.47934L272.605896,456.414429L272.647949,456.355774L272.60907,456.312561L272.566406,456.252228L272.531799,456.187012L272.505493,456.118073L272.488037,456.04657L272.478638,455.950439L272.417419,452.315918L272.420532,452.242126L272.433105,452.169464L272.454285,452.098816L272.484314,452.031311L272.493225,452.016418L272.480042,451.986969L272.458313,451.916595L272.445435,451.843933L272.441406,451.770142L272.44397,451.721527L272.529541,450.797882L272.548401,450.694885L272.647095,450.336487L272.675964,450.254944L272.812439,449.94458L272.861938,449.854187L273.036682,449.591614L273.081299,449.532959L273.109619,449.50238L273.322754,449.287537L273.397705,449.22345L273.532104,449.12677L273.586731,449.091888L273.709167,449.022644L273.775269,448.99176L273.786133,447.422791L273.790405,447.356445L273.825623,447.060364L273.848206,446.954254L273.929138,446.693359L273.9552,446.624451L273.978638,446.578094L274.105347,446.352692L274.145386,446.290894L274.183716,446.244293L274.355957,446.054626L274.399109,446.012299L274.03186,445.642456L273.983215,445.586945L273.941772,445.525726L273.908264,445.460236L273.883118,445.390717L273.866516,445.318909L273.859375,445.245422L273.860229,445.183899L273.867371,445.074341L273.876526,445.001404L273.899414,444.916748L273.932312,444.822632L273.960938,444.754822L273.999512,444.6922L273.982666,444.668152L273.948303,444.602936L273.922302,444.533997L273.907715,444.476807L273.870544,444.292877L273.860535,444.21991L273.859619,444.146118L273.867676,444.072906L273.883362,444.005981L273.904846,443.933594L273.930298,443.864075L273.978333,443.775391L274.015808,443.718475L274.060181,443.659546L274.111389,443.606354L274.149109,443.574585L274.203186,443.532837L274.21405,443.525391L274.174011,443.471619L274.135376,443.41272L274.027588,443.225342L273.998108,443.167267L273.919434,442.98764L273.892822,442.913544L273.843323,442.741913L273.824768,442.652405L273.803894,442.48877L273.799011,442.422119L273.795593,442.180969L273.798462,442.114319L273.821594,441.878052L273.785278,441.897797L273.620239,441.971008L273.551025,441.996765L273.479187,442.013641L273.406006,442.021667L273.368774,442.021942L272.697144,442.010498L272.623352,442.004761L272.55127,441.989899L272.481445,441.966156L272.414795,441.934113L272.342163,441.885498L271.914246,441.553101L271.858765,441.504486L271.809814,441.44928L271.768066,441.388336L271.734314,441.322845L271.728882,441.307953L271.455994,441.2948L271.382751,441.286804L271.310974,441.269623L271.24176,441.243591L271.183105,441.213287L270.681091,440.917786L270.619873,440.876587L270.544922,440.807953L270.406799,440.657776L270.360168,440.600586L270.313782,440.523926L270.229126,440.356873L270.199951,440.289063L270.17334,440.187805L270.141907,440.003601L270.133911,439.930359L270.136719,439.839386L270.158508,439.638611L270.171082,439.565918L270.1828,439.52359L270.235168,439.357697L270.271179,439.268738L270.341553,439.12915L270.378723,439.065643L270.404175,439.030457L270.492615,438.91748L270.541504,438.862244L270.586121,438.822205L270.693115,438.73526L270.752869,438.692352L270.81781,438.65744L270.894165,438.628265L270.871582,438.55246L270.821533,438.325348L270.809509,438.245239L270.789795,438.001251L270.78833,437.929749L270.798645,437.668884L270.804382,437.606232L270.844971,437.328186L270.855286,437.274963L270.926208,436.980072L270.938843,436.935455L271.0401,436.623657L271.067261,436.554993L271.081848,436.528381L271.044678,436.513245L270.87616,436.434021L270.81781,436.402252L270.67511,436.314453L270.609558,436.267822L270.498596,436.176849L270.444519,436.12677L270.419922,436.09906L270.341003,436.004944L270.297241,435.945709L270.260864,435.881073L270.214233,435.784393L270.186218,435.716034L270.167053,435.644806L270.157593,435.580444L270.064087,434.565826L270.063782,434.561829L269.983704,433.625885L269.983154,433.621002L269.916748,432.762878L269.916504,432.757446L269.863586,431.977661L269.862976,431.970215L269.824097,431.26886L269.823792,431.262268L269.809509,430.940735L269.809509,430.936462L269.79834,430.634674L269.798035,430.628387L269.790649,430.345764L269.790344,430.339203L269.786316,430.076324L269.786316,430.068604L269.785767,429.825439L269.785767,429.816284L269.788635,429.592316L269.789185,429.577454L269.810669,429.010803L269.806335,429.011353L269.451111,429.024231L269.377563,429.022522L269.304321,429.011353L269.233398,428.991333L269.165344,428.963013L269.139893,428.948425L269.078369,428.968445L269.005737,428.982483L268.963928,428.986481L267.728821,429.059143L267.654968,429.058838L267.581787,429.049683L267.510559,429.031097L267.445923,429.00592L266.878113,430.435028L266.845764,430.503387L266.604065,430.94046L266.587158,430.969055L266.332581,431.37439L266.312561,431.404419L266.044861,431.77829L266.021118,431.808899L265.740479,432.151306L265.712708,432.183044L265.418945,432.493713L265.386902,432.524872L265.080017,432.804077L265.043945,432.834381L264.724182,433.082092L264.684387,433.110413L264.35199,433.32666L264.298828,433.357574L264.125183,433.446533L264.083984,433.465698L263.856873,433.560944L263.828796,433.571808L263.547913,433.67337L263.529053,433.679932L263.194946,433.788055L263.185791,433.790924L262.220398,434.086426L262.14856,434.103577L262.075378,434.111572L262.001526,434.110718L261.928345,434.100708L261.857117,434.081543L261.788757,434.053802L261.724365,434.017761L261.664856,433.974274L261.611389,433.923645L261.564453,433.86673L261.524719,433.804382L261.493225,433.737732L261.470337,433.667633L261.456055,433.595276L261.450928,433.521484L261.454346,433.459686L261.391113,433.498016L261.355957,433.517456L260.82074,433.794067L260.785278,433.811218L260.226929,434.054382L260.190857,434.068665L259.609619,434.278076L259.574158,434.28949L258.969177,434.465424L258.93457,434.474304L258.306702,434.61676L258.273193,434.623322L257.621887,434.7323L257.577576,434.738037L256.939392,434.795807L256.908752,434.797821L256.253723,434.823273L256.224548,434.823853L255.552322,434.816986L255.524307,434.815826L255.2314,434.79895L255.227097,434.993744L255.225937,435.022064L255.206772,435.297546L255.203629,435.32843L255.172165,435.585876L255.166733,435.621918L255.122391,435.861908L255.113815,435.901672L255.0569,436.123657L255.044022,436.166565L254.974808,436.371063L254.956223,436.419128L254.874405,436.605927L254.848953,436.65683L254.754532,436.826172L254.721939,436.87851L254.639542,436.995789L254.586075,437.06131L254.491959,437.161438L254.424149,437.223511L254.318039,437.306152L254.241379,437.356781L254.12352,437.422302L254.041428,437.460052L253.91127,437.508392L253.832047,437.531555L253.690445,437.562744L253.615494,437.574463L253.461899,437.588196L253.396683,437.59021L253.231064,437.586792L253.148117,437.579346L252.977036,437.551575L252.904953,437.535278L252.848892,437.515839L252.689285,437.451172L252.622635,437.419159L252.576584,437.390564L252.428116,437.289001L252.370041,437.243805L252.341171,437.216614L252.203873,437.077881L252.142654,437.005249L252.017075,436.82959L251.97731,436.765533L251.8629,436.553009L251.836868,436.498352L251.733871,436.249207L251.716995,436.203156L251.625473,435.91684L251.614304,435.87735L251.537643,435.565277L251.529922,435.528931L251.470993,435.202271L251.465866,435.168518L251.424393,434.82785L251.421524,434.796387L251.397507,434.441406L251.396347,434.411072L251.39006,434.042084L251.39006,434.014893L251.401199,433.631317L251.402634,433.605286L251.431534,433.207672L251.433548,433.184784L251.479599,432.772888L251.480453,432.765747L251.752762,430.568604L251.340866,430.457031L251.271072,430.433594L251.204422,430.401245L251.142624,430.361206L251.085983,430.313721L251.035934,430.259674L250.992722,430.19989L250.957565,430.134949L250.930374,430.066589L250.912064,429.995087L250.901474,429.895813L250.877182,428.799683L250.88002,428.725891L250.892044,428.653229L250.912918,428.582581L250.942673,428.514771L250.980148,428.451569L251.049088,428.368042L251.341415,428.072571L251.376328,428.039948L251.67009,427.787079L251.733597,427.739319L252.027664,427.547943L252.092026,427.511597L252.16008,427.483582L252.231308,427.464111L252.304276,427.453552L252.378067,427.452118L252.451279,427.459839L252.523361,427.476715L252.591171,427.501587L252.723038,427.148895L252.753067,427.081665L252.791397,427.018463L252.836868,426.960693L252.889511,426.90863L252.947861,426.863708L253.04454,426.811096L253.317734,426.693237L253.253372,426.632874L253.202744,426.579102L253.158981,426.519592L253.123215,426.455231L253.095474,426.386871L253.076584,426.315369L253.066574,426.242432L253.06572,426.16861L253.07402,426.095398L253.091171,426.02359L253.117203,425.954376L253.582047,424.919434L253.624649,424.841064L253.782852,424.595642L253.826614,424.536133L253.877243,424.482666L253.934433,424.43573L254.029129,424.379669L254.579758,424.119659L254.632401,424.097931L254.881546,424.008392L254.933334,423.992371L255.167038,423.931732L255.231674,423.918579L255.450211,423.887115L255.527725,423.881104L255.730545,423.87854L255.804062,423.882263L255.876694,423.895111L255.947372,423.916565L256.014587,423.946899L256.07782,423.984924L256.135559,424.031006L256.187378,424.083344L256.218506,424.123962L256.266602,424.105652L256.336975,424.083618L256.373596,424.075897L256.543762,424.045288L256.617004,424.036713L256.659058,424.036133L256.831543,424.039001L256.905029,424.044708L256.943665,424.0513L257.118469,424.087921L257.214844,424.117096L257.391602,424.18689L257.469971,424.22464L257.649353,424.327911L257.710815,424.36853L257.766907,424.416565L257.816711,424.471222L257.859009,424.531281L257.893921,424.596497L257.920227,424.665436L257.937988,424.736938L257.946533,424.810181L257.946289,424.883972L257.936829,424.957214L257.918213,425.028717L257.905334,425.061035L257.966309,425.067322L258.121887,425.096802L258.19342,425.114807L258.238037,425.131134L258.399048,425.197479L258.465454,425.229797L258.5401,425.279877L258.598755,425.325928L258.605591,425.2547L258.63678,424.857666L258.639954,424.825928L258.693115,424.425446L258.698547,424.392822L258.773193,423.999512L258.78009,423.967468L258.87561,423.581329L258.884766,423.548706L259.00177,423.169708L259.012329,423.138519L259.150208,422.766357L259.162842,422.734924L259.322144,422.370209L259.336182,422.340454L259.516663,421.982605L259.532104,421.95401L259.733765,421.603302L259.750366,421.576141L259.973206,421.232605L259.990662,421.207123L260.234375,420.870728L260.25293,420.846436L260.518372,420.517181L260.536987,420.495453L260.823303,420.17334L260.842224,420.153046L261.149719,419.83783L261.168579,419.819214L261.497253,419.511169L261.516418,419.493713L261.866516,419.193054L261.891968,419.17276L262.451477,418.743103L262.488098,418.717102L263.054199,418.346649L263.095398,418.322052L263.667786,418.010254L263.714111,417.987366L264.293091,417.734497L264.344299,417.715057L264.92981,417.521118L264.984192,417.505951L265.575989,417.370667L265.633789,417.360352L266.232178,417.284271L266.289978,417.279694L266.895264,417.262268L266.945618,417.262817L267.30542,417.282837L267.340637,417.28598L267.699341,417.327454L267.734497,417.332611L268.092102,417.395844L268.126099,417.402985L268.482544,417.487671L268.515686,417.496521L268.871277,417.602936L268.902466,417.61322L269.256836,417.741089L269.286621,417.752533L269.639893,417.901855L269.667603,417.914429L270.02002,418.085205L270.084412,418.121521L270.143616,418.165588L270.197083,418.216492L270.243713,418.273438L270.283203,418.33606L270.288086,418.346375L270.543213,418.417297L270.613037,418.441345L270.679077,418.473938L270.720581,418.501404L270.78949,418.494537L270.879028,418.497986L271.904785,418.615265L274.381104,418.375549L275.257874,418.242523L275.352539,418.235657L275.575623,418.237671L275.589355,418.237976L275.79364,418.244537L275.808228,418.245392L275.993835,418.255981L276.013,418.257141L276.179749,418.272003L276.202087,418.274567L276.350281,418.293457L276.38147,418.298309L276.510437,418.321777L276.547363,418.329498L276.65802,418.356964L276.709839,418.372406L276.801331,418.404144L276.87915,418.437622L277.213562,418.610107L277.303345,418.667023L277.509888,418.825775L277.523071,418.804626L277.582581,418.72168L277.62915,418.664459L277.682678,418.613525L277.726135,418.580078L277.819397,418.515137L277.882324,418.476807L277.949829,418.446777L278.020203,418.425049L278.092834,418.41217L278.166687,418.408447L278.240173,418.413879L278.312561,418.428467L278.382629,418.451904L278.449829,418.483948L278.669556,418.606689L278.745056,418.657867L278.75592,418.648132L278.816589,418.60611L278.828857,418.599792L278.799377,418.540039L278.771362,418.473083L278.680115,418.211365L278.657532,418.127258L278.610046,417.878967L278.599426,417.775696L278.596008,417.540283L278.599731,417.466766L278.605774,417.424744L278.646362,417.202454L278.664124,417.130951L278.67981,417.086609L278.764221,416.877502L278.796265,416.811157L278.818542,416.773956L278.947266,416.577728L279.011963,416.495911L279.071411,416.432709L279.049683,416.38266L279.012512,416.271088L278.993652,416.19986L278.984741,416.134644L278.958984,416.090332L278.930115,416.022217L278.918091,415.983337L278.856873,415.762207L278.841431,415.690125L278.835449,415.616638L278.837708,415.558533L278.814819,415.500488L278.796814,415.428955L278.787659,415.355743L278.788513,415.301697L278.772217,415.289093L278.719604,415.23761L278.673828,415.17981L278.635498,415.116608L278.605469,415.049377L278.588562,414.998169L278.491333,414.646057L278.483887,414.616028L278.400391,414.237854L278.395203,414.210693L278.325439,413.806519L278.321716,413.782471L278.26532,413.352264L278.262756,413.329956L278.223022,412.90033L278.221008,412.869995L278.204163,412.462372L278.203857,412.427765L278.210449,412.042175L278.212158,412.00354L278.241882,411.639709L278.24707,411.597076L278.299988,411.255554L278.309143,411.208923L278.385193,410.889099L278.399536,410.838501L278.499023,410.540405L278.519958,410.487213L278.642639,410.211182L278.65979,410.17572L278.813416,409.883942L278.826843,409.859619L278.993896,409.575317L279.009338,409.55069L279.19043,409.274384L279.206177,409.251221L279.400391,408.983185L279.426147,408.950287L279.697876,408.625916L279.737915,408.582703L280.001648,408.324707L280.061157,408.273499L280.317139,408.081848L280.405823,408.026917L280.555176,407.951416L281.411011,407.006012L281.44104,406.975128L281.603821,406.819519L281.640991,406.786926L281.806641,406.653046L281.850403,406.620728L282.01886,406.508301L282.069763,406.477966L282.240845,406.387024L282.299194,406.359833L282.472839,406.290344L282.53717,406.26886L282.713074,406.220825L282.782349,406.206238L282.945374,406.181915L283.949707,405.980255L284.223999,405.837799L284.535217,405.625L284.589294,405.592102L284.883057,405.433899L284.94342,405.405579L285.202026,405.301758L285.293823,405.273132L285.517822,405.223083L285.590759,405.211639L285.659363,405.209076L285.848755,405.212799L285.922241,405.218811L285.994324,405.233673L286.050415,405.252258L286.130798,405.283142L286.197998,405.313782L286.254944,405.348389L286.343872,405.409607L286.413696,405.465942L286.51123,405.557495L286.552734,405.600677L286.658569,405.722229L286.686035,405.755981L286.800171,405.908173L286.818176,405.93335L286.940857,406.116119L286.953491,406.135864L287.084473,406.348694L287.093933,406.36499L287.224915,406.593811L287.518127,407.056946L287.525818,407.056946L287.702026,407.022339L287.778992,407.012329L288.757263,406.950806L288.831055,406.950806L288.904297,406.959961L288.97583,406.977997L289.05365,407.008881L289.162048,407.061218L289.242432,407.108429L289.371399,407.197968L289.415771,407.23172L289.565369,407.357849L289.593994,407.383606L289.76416,407.546936L289.78302,407.566101L289.973572,407.766327L289.987,407.78064L290.198364,408.018066L290.208374,408.02948L290.440369,408.303833L290.448364,408.313538L290.691833,408.613892L290.829956,408.765778L290.953247,408.861603L291.078552,408.925964L291.211853,408.9646L291.345459,408.974609L291.46698,408.958862L291.576843,408.920532L291.68927,408.852753L291.718994,408.825562L291.7276,408.810974L291.739624,408.768372L291.745605,408.61731L291.753052,408.543823L291.769653,408.472015L291.795105,408.402802L291.828857,408.337006L291.870361,408.276062L291.91925,408.220856L291.974426,408.171936L292.0354,408.130188L292.100891,408.096436L292.170105,408.070984L292.241882,408.054382L292.31543,408.046661L292.389221,408.048096L292.462158,408.058685L292.533386,408.07843L292.601501,408.106445L292.665527,408.142761L292.724731,408.187103L292.799438,408.262634L292.945313,408.439392L292.984802,408.492889L293.104919,408.677124L293.140686,408.740326L293.234802,408.932251L293.263977,409.002625L293.331726,409.201996L293.348633,409.26236L293.411865,409.54184L293.425598,409.639374L293.442444,409.935425L293.44104,410.024384L293.411865,410.337616L293.399536,410.414001L293.324585,410.744385L293.305176,410.81131L293.18927,411.13855L293.157288,411.213196L293.022522,411.474091L293.030518,411.482666L293.07489,411.544434L293.150085,411.664581L293.185303,411.729248L293.212158,411.798157L293.265381,411.963501L293.283386,412.035034L293.289429,412.07251L293.312866,412.261566L293.317139,412.349396L293.312012,412.561066L293.30603,412.632568L293.271667,412.867126L293.251953,412.954651L293.207031,413.10199L293.183838,413.165466L293.110046,413.335388L293.088623,413.37915L292.985046,413.57251L292.968445,413.601685L292.775696,413.917786L292.733643,413.978149L292.684143,414.033051L292.628357,414.081116L292.618347,414.087708L292.710144,414.442963L292.716187,414.468719L292.80426,414.885193L292.809143,414.91095L292.879211,415.33313L292.883789,415.368042L292.951599,416.007935L292.954712,416.051117L292.975342,416.683289L292.975037,416.72821L292.948425,417.352631L292.944702,417.398407L292.870361,418.015411L292.86322,418.060333L292.849182,418.131256L292.933838,418.127533L293.18042,418.103516L293.44873,418.06546L293.751953,418.009705L294.068909,417.94046L294.420715,417.852661L294.782288,417.752533L295.157288,417.638977L296.781494,417.061462L296.77948,417.053711L296.770874,416.980225L296.771179,416.906677L296.78064,416.833466L296.810364,416.730774L297.102722,415.979614L297.111267,415.959015L297.414795,415.258789L297.42511,415.236176L297.739197,414.586548L297.752014,414.561676L298.077271,413.962982L298.085571,413.947815L298.260925,413.646332L298.273804,413.625153L298.438538,413.367126L298.457153,413.339966L298.611633,413.125153L298.639343,413.089661L298.783264,412.91861L298.828125,412.87085L298.962036,412.743286L299.037537,412.682068L299.161133,412.597961L299.224609,412.560211L299.295288,412.529602L299.408569,412.488983L299.479187,412.468658L299.552124,412.45694L299.62738,412.454376L299.730652,412.45752L299.804138,412.464386L299.903442,412.488708L299.998108,412.520721L300.066467,412.548767L300.122803,412.579956L300.199219,412.627716L300.259277,412.670624L300.324768,412.732697L300.382263,412.796204L300.428345,412.853973L300.473816,412.930359L300.513245,413.009583L300.542175,413.077667L300.554749,413.117981L300.602539,413.292786L300.617676,413.365143L300.623108,413.427795L300.626526,413.517334L300.632568,413.511597L300.821899,413.339111L300.848511,413.316223L301.025024,413.173492L301.06134,413.146301L301.22522,413.033325L301.277588,413.001007L301.428894,412.918335L301.502136,412.884583L301.640869,412.831665L301.747009,412.802185L301.873169,412.779297L301.94635,412.770447L302.016479,412.770752L302.13031,412.777893L302.203552,412.787048L302.298218,412.813354L302.399475,412.850525L302.46698,412.88028L302.530457,412.91803L302.610291,412.983551L302.686401,413.057922L302.73584,413.112549L302.778198,413.173218L302.812805,413.238403L302.833984,413.291931L302.867432,413.39032L302.886902,413.461548L302.896362,413.523895L302.905762,413.619995L302.906921,413.721252L302.898926,413.831116L302.888062,413.90979L302.862305,414.032776L302.847107,414.090546L302.803955,414.22699L302.788208,414.270477L302.727539,414.42038L302.712708,414.454132L302.634583,414.617462L302.62146,414.643188L302.525879,414.820251L302.51416,414.841156L302.401184,415.031647L302.386047,415.055969L302.372559,415.076294L302.572266,415.011353L302.643738,414.993042L302.740723,414.982452L303.670654,414.958435L303.744446,414.960999L303.817383,414.972717L303.888062,414.993591L303.955872,415.022766L304.019348,415.060242L304.077698,415.105164L304.130371,415.157227L304.175842,415.215302L304.217041,415.284241L304.238464,415.326569L304.267639,415.394348L304.288269,415.465302L304.299377,415.531677L304.305115,415.584595L304.308289,415.658386L304.302246,415.735321L304.292786,415.799408L304.269104,415.898956L304.244446,415.973602L304.21759,416.041382L304.177246,416.126923L304.154358,416.17041L304.098877,416.26651L304.078857,416.298828L304.007629,416.405823L303.992188,416.427856L303.905823,416.545715L303.893188,416.562561L303.791687,416.691284L303.779663,416.705872L303.662354,416.845184L303.653503,416.855499L303.521057,417.005676L303.513062,417.014526L303.365173,417.175568L303.357727,417.183289L303.194397,417.354919L303.188965,417.360931L303.010437,417.543427L303.004761,417.549164L302.810547,417.742523L302.806213,417.746826L302.596863,417.95105L301.639465,418.915894L301.482666,419.116394zM291.692719,412.227264L292.267517,413.607727L292.327271,413.507629C292.524231,413.204071,292.64209,412.961884,292.682465,412.781067C292.74704,412.453308,292.735748,412.185272,292.645325,411.980225C292.556519,411.775177,292.420898,411.750946,292.241669,411.905945C292.062469,412.054504,291.880005,412.152985,291.692719,412.203033L291.692719,412.227264zM252.351898,428.046906C252.15654,428.153473,251.959564,428.302002,251.764191,428.490906L251.471954,428.786377L251.496185,429.88266L252.045135,430.031219L252.266327,430.1297L252.301849,430.1297L252.301849,430.140991L252.351898,430.16684C252.237274,429.353088,252.237274,428.645905,252.351898,428.046906zM254.833511,424.657898L254.282944,424.917847L254.12471,425.163269L253.659714,426.198212L253.98909,426.506592L254.074661,426.469452L254.515442,425.792938C254.849655,425.340851,255.224243,424.93399,255.639191,424.572327L255.737671,424.473846C255.477722,424.457703,255.175812,424.519043,254.833511,424.657898zM255.871689,426.001221C256.109039,425.985077,256.283417,426.059357,256.398041,426.22403L256.459381,426.370972C256.79361,425.697693,257.090698,425.189087,257.352264,424.843567C256.871124,424.523895,256.414185,424.559418,255.981476,424.954987C255.526169,425.356995,255.224243,425.763885,255.077316,426.173981L255.871689,426.001221zM266.324463,430.215271L266.91217,428.736328L266.28894,427.097534L265.383179,429.167419C264.430573,431.008026,263.318115,432.457916,262.045837,433.51709L263.011353,433.221619C263.492493,433.07309,263.831543,432.942291,264.026917,432.827667C264.931091,432.293243,265.697998,431.422974,266.324463,430.215271zM252.547272,431.138824L252.376129,430.375122L252.070969,432.838959C251.924042,433.956268,251.964401,434.921783,252.192062,435.735535C252.421326,436.547668,252.771698,436.967438,253.243149,436.991669C253.700073,437.023956,254.031067,436.872192,254.234497,436.536346C254.502518,436.10849,254.638153,435.493347,254.638153,434.687653C254.311996,434.844269,253.969711,434.626312,253.611267,434.03537C253.243149,433.426666,252.889557,432.461151,252.547272,431.138824zM288.342468,424.375336C287.698273,425.541077,286.765045,426.474304,285.542786,427.171783C284.940552,427.517303,284.401276,427.743347,283.92984,427.849915L283.012756,428.650757C282.303955,429.217468,281.606445,429.656616,280.921875,429.968231C282.943329,430.050598,285.000305,429.180328,287.096008,427.357483C287.748322,426.790741,288.366699,426.157837,288.954407,425.460327L289.638977,424.572327C289.882782,424.045959,290.000641,423.534149,289.992584,423.032013C289.585693,423.327484,289.136841,423.569672,288.647644,423.758575L288.342468,424.375336zM275.763306,452.627258L274.69928,452.614319L273.012054,452.305939L273.073395,455.940369C273.59491,456.179321,274.067993,456.322998,274.490997,456.373047L275.506561,456.408569C275.832733,456.400513,276.003876,456.363373,276.02002,456.298798L276.166931,454.450104C276.239594,453.284363,276.252502,452.680511,276.202454,452.63855L275.763306,452.627258M266.337372,424.670807C266.337372,425.369934,266.390656,425.989929,266.495605,426.530823L266.508545,426.567932L266.690979,426.987732C267.009033,427.63678,267.343262,428.129242,267.693634,428.465088L268.928772,428.392426C268.684998,427.628723,268.492859,426.881165,268.354004,426.14978C268.150543,425.048615,268.110199,424.157379,268.231293,423.476013C268.460571,422.219879,269.177429,420.724792,270.383514,418.990723L270.02832,418.892242L269.417999,419.237762C268.471863,419.894897,267.725922,420.613373,267.180206,421.393219C266.626404,422.182739,266.345459,423.2742,266.337372,424.670807zM279.357361,421.344788C279.25885,420.243652,278.932709,419.50415,278.378906,419.126343L278.159332,419.003632C278.01239,419.077911,277.955902,419.200623,277.98819,419.373383L278.220673,420.025665C278.571045,420.871704,278.700195,421.709686,278.61142,422.539581C278.480621,423.673004,278.114136,424.896851,277.510254,426.211121C277.242249,426.802063,276.964539,427.530243,276.680359,428.392426L276.483398,429.044708C277.242249,428.897766,277.881622,428.658813,278.403137,428.331055L279.991882,427.208923C280.473022,426.814972,280.729736,426.511444,280.763641,426.296692C280.771729,426.256317,280.558594,425.72998,280.127502,424.720856C279.654419,423.61972,279.410614,422.560547,279.392853,421.541748L279.357361,421.344788zM273.134766,436.781769C272.547058,436.82373,272.038452,436.831818,271.605743,436.807587C271.295746,437.661713,271.308655,438.334991,271.642883,438.827454C271.92868,439.237549,272.03363,439.607269,271.960968,439.936646C271.92868,440.043213,271.854401,440.08844,271.741394,440.072266C271.634827,440.056122,271.581543,439.989929,271.581543,439.875305C271.573456,439.587891,271.442688,439.348938,271.190796,439.160034L271.068115,439.197174C270.913086,439.295654,270.808167,439.463593,270.750031,439.702545C270.685455,439.981873,270.762939,440.215973,270.982513,440.404877L271.48465,440.700348L271.985168,440.724579L272.388824,440.404877C272.584198,440.14978,272.760193,439.833313,272.913574,439.455505C272.955536,439.340881,273.036255,439.303741,273.158966,439.345703C273.281677,439.386078,273.322052,439.468414,273.281677,439.591125L273.134766,439.949585C273.012054,440.219208,272.869965,440.450073,272.706909,440.638977C272.543823,440.835968,272.400116,440.98291,272.279022,441.083008L272.706909,441.415619L273.378571,441.42691C273.598145,441.352631,273.819336,441.184723,274.03894,440.921539C274.210083,440.724579,274.335999,440.540497,274.418335,440.367737C274.474854,440.253113,274.560425,440.22406,274.675079,440.282166C274.788086,440.32254,274.825226,440.404877,274.784851,440.527588L274.565277,441.21701C274.426422,441.719147,274.368286,442.11795,274.394135,442.413422C274.402191,442.626526,274.487793,442.860657,274.650848,443.115753C274.813934,443.353088,275.001221,443.546844,275.212708,443.693787C275.424225,443.826172,275.60022,443.863312,275.739075,443.805176C275.852112,443.764832,275.913452,443.701843,275.921509,443.621124C275.937683,443.521027,275.897308,443.336945,275.798828,443.065704C275.603455,442.540955,275.440369,441.899963,275.311218,441.144348C275.148132,440.191772,275.102936,439.332794,275.175598,438.569092C275.233704,437.960419,275.220795,437.42276,275.138458,436.954529L275.017365,436.486298L273.134766,436.781769zM302.755829,415.577515C302.266602,415.717987,301.753174,415.939178,301.215515,416.244324C301.126709,416.292755,301.044373,416.27179,300.97171,416.181366C300.913574,416.100616,300.913574,416.013428,300.97171,415.923035C301.322083,415.545227,301.627228,415.146423,301.888794,414.728241C302.213318,414.201874,302.352173,413.820831,302.303741,413.581879C302.295654,413.507629,302.258514,413.451111,302.193939,413.409119C301.94046,413.270264,301.554565,413.451111,301.033051,413.95163C300.63266,414.345581,300.270996,414.794434,299.944824,415.294952C299.870575,415.40152,299.785004,415.422516,299.68811,415.356323C299.581543,415.299805,299.55249,415.212616,299.602539,415.097961L299.931915,414.22287C300.054626,413.796631,300.07077,413.480164,299.980347,413.275116C299.940002,413.158875,299.851196,413.084595,299.712341,413.052307C299.450775,412.986115,299.081024,413.384918,298.599884,414.247101C298.159119,415.010803,297.747406,415.911713,297.364746,416.946655L297.841034,417.080688C298.225311,417.29541,298.55954,417.697449,298.843689,418.288391C299.113342,418.838959,299.24411,419.496094,299.236023,420.259796L299.210205,420.839417L299.62677,421.073547C300.229004,421.344788,300.808624,421.483643,301.362427,421.491699L302.402222,421.406128C302.694458,421.348022,302.857544,421.270508,302.889832,421.172028C302.923737,421.057373,302.80426,420.900757,302.536224,420.703796C302.357025,420.572998,302.063171,420.400238,301.656281,420.185516L301.068573,419.878754C300.905518,419.746338,300.808624,419.607483,300.776337,419.458954C300.734375,419.19577,300.87323,418.884155,301.191284,418.522491L302.18103,417.524689C303.338684,416.40741,303.84082,415.750275,303.685822,415.553284L302.755829,415.577515zM288.013092,423.981384C287.636902,424.646606,287.099243,425.160034,286.398529,425.521698C285.697784,425.873688,284.99707,425.993164,284.296326,425.87851C282.560669,425.574982,281.659729,424.087952,281.593536,421.419037C280.967072,420.653748,280.539215,420.05957,280.309937,419.631714C279.846558,419.655945,279.450989,419.484802,279.124847,419.115051C279.410614,419.878754,279.614075,420.597229,279.735168,421.270508L279.785217,421.467499C279.964417,422.864105,280.293793,424.029816,280.774933,424.966278L281.435303,426.24826C281.451447,426.700348,280.510162,427.504395,278.61142,428.663666L277.779907,429.204559C277.429535,429.419281,277.151825,429.554901,276.948395,429.61142C277.959106,429.906891,278.982758,430.042511,280.0177,430.018311C281.002594,429.656616,281.981049,429.060852,282.951385,428.230957L284.136505,427.073303L284.234985,427.024872C285.612213,426.769775,286.874817,425.812317,288.024414,424.154144L288.158417,423.931335L288.013092,423.981384zM297.254944,417.524689L295.348145,418.20282C294.246979,418.54834,293.371887,418.724304,292.719604,418.732391C292.58075,419.33139,292.369232,419.92395,292.083466,420.506805C291.708862,421.262451,291.248718,421.906647,290.701385,422.441071C290.727203,422.794678,290.690063,423.164398,290.591583,423.550293C292.026947,423.516388,293.431641,423.241913,294.810486,422.723633C295.934235,422.313538,296.85614,421.86145,297.573029,421.368988L298.354462,420.765137C298.428741,420.626282,298.477173,420.432556,298.501404,420.185516C298.55954,419.701141,298.464264,419.205475,298.220459,418.695251C297.992798,418.235107,297.76355,417.902496,297.535889,417.697449L297.254944,417.524689zM274.453857,445.222778L275.199799,445.973572C275.249847,446.055908,275.241791,446.138245,275.175598,446.220581L274.796173,446.454712C274.536224,446.68396,274.397369,447.008514,274.381226,447.426697L274.368286,449.299591C274.368286,449.407776,274.31662,449.469116,274.210083,449.48526C274.087372,449.48526,273.932373,449.55954,273.745056,449.706482C273.435059,449.961578,273.228394,450.342621,273.121857,450.852814L273.036255,451.776367C273.76123,452.154175,274.332764,452.343079,274.747711,452.343079L275.824646,452.146088L276.56897,452.170319C276.64325,452.302704,276.64325,453.114838,276.56897,454.609955L276.434967,456.828369L275.934448,457.038269L274.528137,457.12384C273.908142,457.033417,273.435059,456.902649,273.110535,456.729889L273.134766,457.12384C273.142822,457.280457,273.263916,457.419312,273.501282,457.542023C273.867767,457.730927,274.453857,457.826172,275.261169,457.826172C276.288025,457.826172,277.066254,457.559784,277.595825,457.02536L277.670105,456.902649L277.681427,456.8526L277.681427,456.828369C277.870331,453.739685,277.870331,451.747284,277.681427,450.852814C277.576477,450.342621,277.29068,449.969635,276.825684,449.730682L276.154022,449.5224L276.055542,449.472351L275.995789,449.325439C276.199219,448.799072,276.288025,448.179077,276.263824,447.463806C276.247681,447.045654,276.175018,446.630707,276.04422,446.220581L275.848877,445.71524C275.782654,445.649017,275.771362,445.57959,275.811737,445.505341L276.031311,445.529541L276.226685,445.51825C276.234741,445.36972,276.166931,445.185638,276.02002,444.96283L275.811737,444.618927C275.835938,444.510742,275.900543,444.457458,276.00708,444.457458C276.154022,444.457458,276.255737,444.425171,276.312256,444.358978L276.349396,444.174927C276.333252,444.060303,276.296112,443.99408,276.239594,443.977936L276.191162,443.965027L275.873077,444.187836C275.482361,444.318604,275.148132,444.297638,274.870422,444.124878L274.675079,443.965027L274.637939,443.977936C274.531372,444.002167,274.471619,444.068359,274.453857,444.174927L274.490997,444.358978C274.55719,444.425171,274.66214,444.457458,274.809082,444.457458C274.915649,444.457458,274.97699,444.510742,274.993134,444.618927C275.009277,444.725494,274.964081,444.79007,274.857513,444.815918L274.637939,444.877258C274.507141,444.951538,274.445801,445.066162,274.453857,445.222778zM274.747711,449.44812L275.164276,449.46106L275.579224,449.44812C275.701935,449.44812,275.763306,449.477203,275.763306,449.533691C275.763306,449.599915,275.701935,449.666107,275.579224,449.730682L275.164276,449.842102C275.009277,449.842102,274.870422,449.804962,274.747711,449.730682C274.634705,449.666107,274.576569,449.599915,274.576569,449.533691C274.576569,449.477203,274.634705,449.44812,274.747711,449.44812zM284.871124,406.116089L284.528839,406.350189L284.149414,406.54718L283.048279,406.768372C282.568756,406.810333,282.115051,407.081604,281.692017,407.582123L280.921875,408.432983C280.595734,408.555695,280.250214,408.856018,279.88208,409.332306C279.614075,409.684296,279.381561,410.058868,279.186188,410.45282C278.827759,411.160034,278.717987,412.099701,278.855225,413.275116C278.921417,413.866058,279.023132,414.387573,279.161987,414.83963C279.357361,414.132446,279.707703,413.5625,280.213074,413.126587L280.787872,412.671265C280.991302,412.530792,281.130157,412.437164,281.20282,412.387085L280.56665,411.708984C280.33902,411.381226,280.250214,411.105133,280.298645,410.883942C280.36322,410.522247,280.510162,410.231628,280.737823,410.00882C281.047821,409.697205,281.464355,409.590637,281.98587,409.689148C282.148956,409.721436,282.446045,409.845764,282.877136,410.058868C283.245239,410.255859,283.493896,410.341431,283.623047,410.3172L284.588593,409.430817C285.143982,408.912537,285.567017,408.728455,285.86087,408.875397L286.655243,409.442108L287.230042,409.824768C287.393097,409.931335,287.540039,409.960388,287.670807,409.910339L288.013092,409.750488C288.297272,409.627777,288.481323,409.566437,288.562073,409.566437C288.749359,409.540588,288.970551,409.611633,289.222412,409.774719C289.377411,409.873199,289.63092,410.170288,289.981262,410.66272L290.530243,411.426422C290.775635,411.663757,291.032349,411.817139,291.300385,411.881744C291.602295,411.955994,291.859039,411.897888,292.070526,411.708984C292.388611,411.437714,292.613037,411.072845,292.743805,410.612671C292.874603,410.160583,292.88266,409.755341,292.768036,409.393677C292.695374,409.122437,292.551697,408.872162,292.340179,408.641266C292.356323,408.954498,292.25943,409.183777,292.046326,409.332306C291.770233,409.537354,291.455383,409.611633,291.105011,409.553528C290.762726,409.487305,290.473724,409.303253,290.237976,408.999725C289.537262,408.119781,289.056122,407.635406,288.794556,407.544983L287.816132,407.606323C287.481903,407.696747,287.246185,407.667694,287.10733,407.520752L286.716583,406.903992C286.333923,406.214569,286.0401,405.84967,285.836639,405.807678C285.607391,405.767334,285.286072,405.869049,284.871124,406.116089zM278.060852,422.441071C278.272339,421.520782,278.175476,420.716705,277.766998,420.025665C277.458588,419.509003,277.071106,419.155426,276.60611,418.966492C276.386536,418.876099,275.966736,418.830872,275.346741,418.830872L274.453857,418.966492L271.899597,419.213531L270.811371,419.089203C270.070282,420.248474,269.511658,421.393219,269.137054,422.526642C268.786682,423.603577,268.883575,425.570129,269.429291,428.429565L269.784515,428.416626C269.882996,427.727203,270.033142,427.062012,270.236603,426.421021L270.68866,425.226227L271.399078,423.390442C271.586365,422.912537,271.667114,422.576691,271.642883,422.37973L272.022308,422.318359C272.07074,422.613831,272.038452,422.994873,271.923828,423.463104C271.809204,423.915192,271.594452,424.548096,271.276367,425.360229C270.950226,426.198212,270.7258,426.892487,270.603088,427.443054C270.473938,428.051727,270.399658,428.770233,270.383514,429.600128C270.359314,430.741638,270.481995,432.716248,270.750031,435.525635C270.790405,435.656403,270.917938,435.780731,271.129456,435.895355C271.55246,436.124634,272.185394,436.20697,273.024963,436.142395C273.880707,436.068115,274.581421,435.940582,275.127136,435.759735L275.664795,435.549835C275.362885,433.357239,275.233704,431.739441,275.274078,430.696411C275.290222,430.300842,275.493652,429.571045,275.884399,428.502197C276.218597,427.607727,276.581879,426.737488,276.972626,425.891418C277.226105,425.340851,277.450531,424.740234,277.645905,424.091187L278.060852,422.441071zM266.85083,421.172028C267.33197,420.498749,267.864777,419.92395,268.452484,419.447662C268.819,419.168335,269.254944,418.892242,269.760284,418.620972C268.822205,418.136627,267.872864,417.8815,266.91217,417.8573C265.28952,417.825012,263.737915,418.420776,262.25412,419.644623C260.331146,421.230133,259.312347,423.119202,259.197723,425.311798C259.18158,425.574982,259.131531,425.796173,259.050781,425.97702C258.952301,426.198212,258.826355,426.309601,258.671356,426.309601C258.542206,426.301544,258.467926,426.24826,258.451782,426.14978C258.395264,425.90274,258.248352,425.747742,258.010986,425.681549C257.783356,425.623413,257.636414,425.639557,257.571838,425.72998C257.294128,426.099701,257.127838,426.354828,257.069702,426.4953L256.99704,426.950592C256.988983,427.089447,256.932465,427.171783,256.825897,427.196014L256.617615,427.246063L256.251099,427.714294L255.884598,428.096954C255.753815,428.030762,255.71669,427.940338,255.774811,427.825714L255.970169,427.208923C256.084808,426.782684,256.117096,426.527588,256.067047,426.445251C256.042847,426.404877,255.991165,426.383881,255.908813,426.383881C255.598816,426.408112,255.109604,426.559875,254.441162,426.839203L254.392731,426.863403L254.40564,426.876343L254.136017,426.987732L253.280289,427.357483L252.852417,428.502197C252.665131,429.299805,252.689362,430.149078,252.926697,431.053253C253.170502,431.989685,253.545074,432.769531,254.050446,433.394379L254.869034,434.182281C255.799026,434.256561,256.683807,434.243652,257.523407,434.145172C259.291351,433.89975,260.810669,433.295898,262.082977,432.335205C263.345581,431.356781,264.377289,430.153931,265.174896,428.725006C265.3638,428.379486,265.668945,427.656158,266.09198,426.556641C265.970886,425.873688,265.925659,425.155182,265.957947,424.399567C265.998322,423.061066,266.297028,421.985779,266.85083,421.172028zM290.249298,411.660553L289.687408,410.859711C289.345123,410.367249,289.11264,410.079865,288.989929,409.997528C288.746124,409.848969,288.379608,409.915192,287.890381,410.194489L287.120239,410.218719C286.932953,410.160583,286.692383,410.042725,286.398529,409.861908C286.104675,409.681061,285.767212,409.631012,285.384583,409.713348C284.976074,409.811859,284.598267,410.042725,284.246277,410.402771C284.084839,410.575531,283.879791,410.649811,283.635986,410.62558L283.036957,410.439911C282.817383,410.349487,282.46701,410.255859,281.98587,410.157379C281.537018,410.075012,281.20282,410.28006,280.983215,410.772522C280.753967,411.298859,280.970306,411.771942,281.630676,412.190125L281.740479,412.312836C281.78244,412.395172,281.7453,412.4646,281.630676,412.522736C281.149536,412.769745,280.750732,413.023254,280.432648,413.286407C279.764221,413.869293,279.413849,414.547394,279.381561,415.319183C279.649597,414.744385,280.001556,414.22287,280.432648,413.754639C280.954163,413.262207,281.3013,412.990967,281.472443,412.940887C281.577393,412.9086,281.651672,412.929596,281.692017,413.003876C281.732391,413.076538,281.713013,413.139496,281.630676,413.187927L281.3013,413.422058C281.047821,413.602875,280.828217,413.786926,280.64093,413.97583C280.25827,414.313293,279.854645,414.855804,279.429993,415.603333L279.491364,415.824524L279.846558,415.270752C280.082306,414.925232,280.314789,414.650726,280.54245,414.444061C280.860504,414.164764,281.141449,413.985535,281.386871,413.903198C281.483734,413.869293,281.537018,413.906433,281.545105,414.01297C281.561249,414.119537,281.50473,414.206726,281.373962,414.272919C281.114014,414.403717,280.905731,414.542572,280.750732,414.691101C280.40036,415.020477,280.009644,415.483856,279.576935,416.082855L279.614075,416.194275C279.686707,416.202362,279.75293,416.223328,279.809418,416.255615C279.924072,416.321838,279.932129,416.420319,279.833649,416.551086C279.19751,416.98703,279.031189,417.561829,279.33313,418.277069C279.625366,418.974579,280.143646,419.299103,280.884735,419.250671C281.561249,420.62146,282.40567,421.677399,283.416382,422.41687C283.692505,422.613831,283.665039,422.68811,283.330811,422.638062C282.996613,422.597687,282.628479,422.424927,282.229675,422.121399C282.205475,423.755341,282.820618,424.753143,284.075134,425.114807C284.548218,425.245605,285.005127,425.245605,285.445923,425.114807C285.877014,424.982422,286.133728,424.774139,286.216064,424.486755C286.085297,424.502899,285.820496,424.441528,285.420074,424.301086C285.013214,424.154144,284.825928,424.045959,284.858215,423.981384L285.617065,424.066956C286.309723,424.117004,287.099243,423.973328,287.987274,423.635864C289.527588,423.053009,290.701385,421.951874,291.508667,420.334045C292.275574,418.78244,292.535522,417.146881,292.291748,415.430573C292.128662,414.29715,291.773468,413.225067,291.227722,412.214355C290.925812,412.14975,290.59967,411.964081,290.249298,411.660553zM280.908966,416.034424L281.215729,415.811615C281.296448,415.779327,281.36264,415.803558,281.411102,415.885895C281.451447,415.976318,281.43045,416.042511,281.349731,416.082855L281.178589,416.218506C281.055878,416.316986,280.991302,416.404175,280.983215,416.478455C280.967072,416.568848,280.913788,416.609222,280.823395,416.601135C280.726501,416.593079,280.686157,416.526886,280.702301,416.404175C280.718445,416.289551,280.787872,416.165222,280.908966,416.034424zM281.483734,414.949432C281.524109,415.039856,281.488586,415.118958,281.373962,415.183563L280.884735,415.479004L280.469788,415.885895C280.322876,416.042511,280.240509,416.074799,280.224365,415.984375L280.359985,415.651764L280.689362,415.257813C280.876648,415.076996,281.08493,414.946198,281.312592,414.863861C281.386871,414.83963,281.44339,414.867096,281.483734,414.949432zM288.599182,421.393219L288.171326,421.578888L287.438293,421.541748L287.267151,421.419037L287.24295,421.233368C287.251007,421.167175,287.28653,421.118744,287.352722,421.086456L287.559418,421.060608L288.574982,421.233368C288.738037,421.257599,288.746124,421.310883,288.599182,421.393219zM289.858551,412.054504L290.053925,412.091644L290.958099,412.719696C291.024292,412.769745,291.051727,412.81012,291.043671,412.842407L290.909668,412.868256L289.931213,412.781067L289.73584,412.671265C289.687408,412.605072,289.671265,412.530792,289.687408,412.448456L289.748779,412.214355C289.756836,412.131989,289.793976,412.078705,289.858551,412.054504zM284.882446,412.509796L284.331848,412.793976L283.965363,412.929596C283.924988,412.716461,284.084839,412.429077,284.443268,412.067413L285.005127,411.573364L285.1763,411.549133L285.323212,411.671844L285.481445,411.918884C285.579926,412.091644,285.612213,412.198181,285.579926,412.240173C285.571869,412.256317,285.494354,412.288605,285.347443,412.338654L284.882446,412.509796zM290.824097,414.925232C290.81601,415.15448,290.767578,415.353088,290.677155,415.516144C290.588348,415.680847,290.481781,415.758331,290.35907,415.750275C290.237976,415.750275,290.136261,415.667908,290.053925,415.504852C289.965118,415.332092,289.923157,415.13028,289.931213,414.901001C289.939301,414.670105,289.989349,414.477966,290.078156,414.32135C290.168579,414.156677,290.273499,414.075958,290.39621,414.075958C290.518921,414.084015,290.620636,414.169586,290.701385,414.33429C290.791779,414.498962,290.832153,414.695953,290.824097,414.925232zM284.502991,414.310059C285.189209,413.98877,285.804352,414.084015,286.350098,414.592621C285.665497,414.518341,285.111694,414.653961,284.687073,414.999481C284.475555,415.180328,284.331848,415.36438,284.259216,415.553284L283.647278,414.938141C283.876556,414.674957,284.160706,414.465057,284.502991,414.310059zM287.670807,414.22287C287.636902,414.058197,287.66275,413.97583,287.743469,413.97583C287.824188,413.959686,287.898468,414.030731,287.963043,414.18573L288.403839,415.209381C288.542694,415.479004,288.83493,415.923035,289.283783,416.539795C289.324127,416.596313,289.345123,416.662506,289.345123,416.736786L289.283783,416.933746L288.708984,417.72168C288.545898,417.89444,288.347321,417.910583,288.109985,417.771729L288.000183,417.660309L288.037323,417.513397L288.513611,416.920837C288.620178,416.79007,288.636322,416.649597,288.562073,416.502655L288.098663,415.504852L287.780609,414.629761L287.670807,414.22287zM290.641632,418.498291C290.67392,418.482147,290.709442,418.503113,290.751434,418.559631L291.179291,419.139282C291.268097,419.27005,291.268097,419.402435,291.179291,419.533234L290.615814,420.321136C290.518921,420.445465,290.478577,420.432556,290.49472,420.285614L290.49472,420.161285C290.502777,420.09671,290.481781,420.041809,290.43335,420.001465L290.273499,419.964325L289.479126,420.384094C288.852692,420.653748,288.28595,420.778076,287.780609,420.752228C287.283325,420.736084,286.635864,420.469666,285.836639,419.951416L284.796875,419.176392L284.588593,419.163483C284.523987,419.179626,284.470703,419.216766,284.430359,419.274902L284.393219,419.828705C284.296326,419.951416,284.234985,419.935242,284.210754,419.780243L284.039612,418.658112C284.023468,418.493439,284.084839,418.37558,284.222076,418.3013L285.494354,417.487549L285.604156,417.476257C285.628357,417.500458,285.628357,417.540833,285.604156,417.598969L285.433014,417.968689C285.400726,418.026825,285.412018,418.0914,285.470154,418.16568L285.641296,418.314209C286.732727,418.790527,287.551331,419.073059,288.098663,419.163483C288.440979,419.221619,288.920502,419.221619,289.540497,419.163483L290.35907,419.052094C290.425293,419.044006,290.481781,419.016571,290.530243,418.966492C290.580292,418.908386,290.604492,418.847015,290.604492,418.78244L290.604492,418.60968L290.641632,418.498291zM287.975952,419.397614C287.331757,419.30719,286.513153,419.027863,285.518585,418.559631L285.261871,418.498291C285.13916,418.482147,285.026123,418.5112,284.919556,418.583862C284.804932,418.658112,284.777496,418.748535,284.833984,418.855103C284.874359,418.929382,284.940552,418.990723,285.029358,419.040771C285.901245,419.573578,286.500244,419.906189,286.826385,420.038574C287.079865,420.137085,287.414093,420.206512,287.829041,420.248474L288.818787,420.211334L290.347778,419.767334C290.460815,419.743103,290.546387,419.655945,290.604492,419.509003C290.644867,419.360474,290.564148,419.286194,290.35907,419.286194L289.527588,419.384674C288.893036,419.44281,288.374756,419.447662,287.975952,419.397614z"/>
</svg>
