<?xml version="1.0" encoding="UTF-8"?>
<svg xmlns="http://www.w3.org/2000/svg" xmlns:xlink="http://www.w3.org/1999/xlink" width="25.629mm" height="21.646mm" viewBox="-543.554504 33.312901 25.629395 21.645905">
    <path transform="matrix(-1,0,0,1,0,0)" style="stroke:none;fill:#000000;fill-rule:evenodd" d="M523.18396,34.745628L521.754333,33.312901C519.201294,35.803337,517.92511,38.839466,517.92511,42.42128C517.92511,45.935764,519.167603,48.937443,521.652588,51.427879L523.08136,49.995155C521.005859,47.914177,519.967773,45.389294,519.967773,42.42128C519.967773,39.385155,521.039551,36.826603,523.18396,34.745628z"/>
    <path transform="matrix(-1,0,0,1,0,0)" style="stroke:none;fill:#000000;fill-rule:evenodd" d="M525.174866,36.792938L524.306641,35.871452C522.502808,37.611076,521.600891,39.760948,521.600891,42.3195C521.600891,44.843605,522.502808,47.009918,524.306641,48.818439L525.174866,47.896954C523.643494,46.361668,522.877808,44.502254,522.877808,42.3195C522.877808,40.101517,523.643494,38.259327,525.174866,36.792938z"/>
    <path transform="matrix(-1,0,0,1,0,0)" style="stroke:none;fill:#000000;fill-rule:evenodd" d="M525.787903,42.216942C525.787903,40.886776,526.263916,39.743729,527.216736,38.788574L526.85968,38.430004C525.804321,39.487713,525.276672,40.749767,525.276672,42.216942C525.276672,43.717781,525.838806,45.031502,526.961487,46.15733L527.319275,45.798756C526.29834,44.77549,525.787903,43.581551,525.787903,42.216942z"/>
    <path transform="matrix(-1,0,0,1,0,0)" style="stroke:none;fill:#000000;fill-rule:evenodd" d="M530.739807,40.169628C530.12677,40.169628,529.599915,40.391975,529.156738,40.835102C528.714417,41.279015,528.493652,41.80748,528.493652,42.42128C528.493652,43.035866,528.714417,43.564331,529.156738,44.00824C529.599915,44.451366,530.12677,44.672928,530.739807,44.672928C531.352844,44.672928,531.879761,44.451366,532.322876,44.00824C532.765198,43.564331,532.985962,43.035866,532.985962,42.42128C532.985962,41.80748,532.765198,41.279015,532.322876,40.835102C531.879761,40.391975,531.352844,40.169628,530.739807,40.169628z"/>
    <path transform="matrix(-1,0,0,1,0,0)" style="stroke:none;fill:#000000;fill-rule:evenodd" d="M530.178467,45.287514L529.156738,54.958805L532.322876,54.958805L531.301147,45.287514L530.178467,45.287514z"/>
    <path transform="matrix(-1,0,0,1,0,0)" style="stroke:none;fill:#000000;fill-rule:evenodd" d="M539.725281,33.312901L538.295654,34.745628C540.440063,36.826603,541.511902,39.385155,541.511902,42.42128C541.511902,45.389294,540.473755,47.914177,538.398254,49.995155L539.827026,51.427879C542.312012,48.937443,543.554504,45.935764,543.554504,42.42128C543.554504,38.839466,542.27832,35.803337,539.725281,33.312901z"/>
    <path transform="matrix(-1,0,0,1,0,0)" style="stroke:none;fill:#000000;fill-rule:evenodd" d="M537.172974,35.871452L536.304749,36.741264C537.836121,38.27655,538.601807,40.135963,538.601807,42.3195C538.601807,44.502254,537.836121,46.361668,536.304749,47.896954L537.172974,48.818439C538.976807,47.009918,539.878723,44.843605,539.878723,42.3195C539.878723,39.760948,538.976807,37.611076,537.172974,35.871452z"/>
    <path transform="matrix(-1,0,0,1,0,0)" style="stroke:none;fill:#000000;fill-rule:evenodd" d="M534.262939,38.788574C535.215698,39.743729,535.691711,40.886776,535.691711,42.216942C535.691711,43.649666,535.181274,44.843605,534.160339,45.798756L534.569031,46.15733C535.658081,44.997055,536.202942,43.684113,536.202942,42.216942C536.202942,40.749767,535.675293,39.487713,534.619934,38.430004L534.262939,38.788574z"/>
</svg>
