<?xml version="1.0" encoding="UTF-8"?>
<svg xmlns="http://www.w3.org/2000/svg" xmlns:xlink="http://www.w3.org/1999/xlink" width="25.654mm" height="24.049mm" viewBox="-228.042999 32.111183 25.654404 24.049438">
    <path transform="matrix(-1,0,0,1,0,0)" style="stroke:none;fill:#000000;fill-rule:evenodd" d="M210.656128,41.599274L211.968277,41.599274L211.968277,45.881794L208.096786,42.191936L202.388596,47.529037L203.76651,47.529037L203.76651,56.160622L205.734756,56.160622L205.734756,53.063431L207.374954,53.063431L207.374954,56.160622L215.44519,56.160622L215.44519,51.680031L217.085388,51.680031L217.085388,56.160622L221.809464,56.160622L221.809464,52.075401L224.43457,52.075401L224.43457,56.160622L226.66507,56.160622L226.66507,50.032784L228.042999,50.032784L220.694611,43.44381L220.694611,41.599274L222.00676,41.599274L219.578949,38.304787L219.578949,32.111183L218.594833,32.111183L218.594833,36.921387L216.298553,33.890739L210.656128,41.599274M205.932037,47.858643L207.572235,47.858643L207.572235,51.15313L205.932037,51.15313L205.932037,47.858643zM209.015152,51.15313L209.015152,47.858643L210.656128,47.858643L210.656128,51.15313L209.015152,51.15313zM214.198792,43.246517L215.773224,43.246517L215.773224,48.912441L214.198792,48.912441L214.198792,43.246517zM217.216919,43.246517L218.922882,43.246517L218.922882,48.912441L217.216919,48.912441L217.216919,43.246517z"/>
</svg>
