<?xml version="1.0" encoding="UTF-8"?>
<svg xmlns="http://www.w3.org/2000/svg" xmlns:xlink="http://www.w3.org/1999/xlink" width="25.654mm" height="25.654mm" viewBox="-420.678986 334.988007 25.654419 25.654419">
    <path transform="matrix(-1,0,0,1,0,0)" style="stroke:none;fill:#000000;fill-rule:evenodd" d="M406.582672,335.388855L406.181824,336.324432L406.181824,337.860504C405.380127,338.128265,404.77887,338.617584,404.378021,339.330811L403.843292,341.067291L403.843292,342.738037L403.108124,343.271973L402.841156,344.073669L402.841156,345.143127L400.436066,345.143127L399.433929,345.543976L399.033081,346.546112L399.033081,347.347809L397.095367,348.483032C396.516815,348.839264,396.293671,349.352051,396.427551,350.019897L396.96228,350.755035L397.830536,351.088562L398.030945,351.088562L398.030945,356.500031L396.427551,356.500031C396.026703,356.500031,395.692413,356.655823,395.425415,356.968201L395.024567,357.903015L395.024567,359.239441L395.425415,360.175018L396.427551,360.642426L419.276001,360.642426L420.278137,360.175018L420.678986,359.239441L420.678986,357.903015L420.278137,356.968201C420.011169,356.655823,419.676849,356.500031,419.276001,356.500031L418.073456,356.500031L418.073456,351.088562C418.741272,351.000092,419.14212,350.643097,419.276001,350.019897L419.209473,349.151642L418.608185,348.483032L416.804352,347.414368L416.804352,346.546112L416.403503,345.543976L415.401398,345.143127L412.862396,345.143127L412.862396,344.073669L412.595428,343.271973L411.860291,342.738037L411.793732,342.738037L411.793732,341.067291C411.793732,340.488739,411.615234,339.909393,411.259003,339.330811L409.45517,337.860504L409.45517,336.324432L409.054321,335.388855L408.118744,334.988007L407.517487,334.988007L406.582672,335.388855M407.517487,338.929962L407.517487,336.324432L408.118744,336.324432L408.118744,338.929962C409.009705,338.974579,409.655609,339.352722,410.056458,340.065186L410.390747,341.134644L410.390747,343.806702L411.459442,344.073669L411.459442,345.877502L412.528107,346.546112L415.401398,346.546112L415.401398,348.216064L417.939575,349.685577L416.670471,349.685577L416.670471,357.903015L419.276001,357.903015L419.276001,359.239441L396.427551,359.239441L396.427551,357.903015L399.367371,357.903015L399.367371,349.685577L397.830536,349.685577L400.436066,348.149506L400.436066,346.546112L403.308563,346.546112L404.244141,346.011383L404.244141,344.073669L405.246246,343.806702L405.246246,341.134644L405.580566,340.065186C405.981415,339.352722,406.627319,338.974579,407.517487,338.929962z"/>
</svg>
