<?xml version="1.0" encoding="UTF-8"?>
<svg xmlns="http://www.w3.org/2000/svg" xmlns:xlink="http://www.w3.org/1999/xlink" width="25.650mm" height="19.642mm" viewBox="-351.180664 337.993988 25.649719 19.641663">
    <path transform="matrix(-1,0,0,1,0,0)" style="stroke:none;fill:#000000;fill-rule:evenodd" d="M332.233459,342.064331C330.729492,342.882477,328.860657,343.658356,326.627014,344.390381C325.896576,344.605652,325.530945,345.079315,325.530945,345.812134L325.530945,356.084686C325.530945,356.516083,325.703186,356.881714,326.046906,357.183105L327.078003,357.635651L349.633636,357.635651L350.664734,357.183105C351.008423,356.924774,351.180664,356.559143,351.180664,356.084686L351.116455,345.812134C351.116455,345.036255,350.772766,344.562592,350.084595,344.390381C348.0224,343.701416,346.260864,342.926331,344.80072,342.064331L341.191498,339.674103L339.193512,338.25235L338.291626,337.993988L337.260529,338.381531L335.520111,339.803284C334.231445,340.836731,333.135376,341.590668,332.233459,342.064331zM332.941986,343.486115L336.487,341.030884L338.291626,339.544922L340.288818,340.965912L344.027222,343.421112C345.616516,344.326172,347.464203,345.122375,349.569427,345.812134L349.633636,356.084686L327.078003,356.084686L327.078003,345.812134C329.397766,345.122375,331.352661,344.347321,332.941986,343.486115z"/>
</svg>
