<?xml version="1.0" encoding="UTF-8"?>
<svg xmlns="http://www.w3.org/2000/svg" xmlns:xlink="http://www.w3.org/1999/xlink" width="25.654mm" height="20.628mm" viewBox="-281.687012 337.500854 25.654419 20.628113">
    <path transform="matrix(-1,0,0,1,0,0)" style="stroke:none;fill:#000000;fill-rule:evenodd" d="M268.339966,339.350067C268.339966,338.848999,268.127777,338.425446,267.704224,338.078613C267.24231,337.693451,266.606598,337.500854,265.797852,337.500854C265.104187,337.500854,264.526398,337.636292,264.06369,337.905609C263.485901,338.136566,263.197021,338.579681,263.197021,339.234192L263.197021,341.48819L257.419128,341.48819L256.437378,341.835022L256.032593,342.874725L256.032593,344.550171C256.032593,344.935364,256.167267,345.262604,256.437378,345.532715C256.668335,345.802032,256.995575,345.936707,257.419128,345.936707L259.210449,345.936707L260.481873,347.324005L257.419128,347.324005C256.995575,347.324005,256.668335,347.458679,256.437378,347.727997C256.167267,347.998108,256.032593,348.325348,256.032593,348.710541L256.032593,349.693115L256.437378,350.674866C256.668335,350.944977,256.995575,351.079651,257.419128,351.079651L258.63266,351.079651L258.459625,352.524109L258.459625,354.315399C257.842682,354.546356,257.535004,354.989502,257.535004,355.644012L257.535004,356.741638L257.938995,357.724213C258.209106,357.99353,258.536346,358.128967,258.921539,358.128967L262.735107,358.128967C263.1203,358.128967,263.44754,357.99353,263.717651,357.724213C263.986969,357.454865,264.121643,357.126831,264.121643,356.741638L264.121643,355.644012C264.121643,355.066223,263.871094,354.64267,263.370819,354.373352L263.370819,352.524109L263.197021,351.079651L266.66452,351.079651L266.490723,352.524109L266.490723,354.315399C265.912933,354.623077,265.624023,355.066223,265.624023,355.644012L265.624023,356.741638C265.624023,357.126831,265.778259,357.454865,266.086731,357.724213C266.317688,357.99353,266.625397,358.128967,267.010559,358.128967L270.824127,358.128967C271.170959,358.128967,271.49823,357.99353,271.806671,357.724213C272.075989,357.454865,272.211456,357.126831,272.211456,356.741638L272.211456,355.644012C272.211456,355.027863,271.941345,354.604309,271.401917,354.373352L271.401917,352.524109L271.228882,351.079651L274.926575,351.079651L274.753571,352.524109L274.753571,354.315399C274.175781,354.546356,273.886871,354.989502,273.886871,355.644012L273.886871,356.741638C273.886871,357.126831,274.021545,357.454865,274.290863,357.724213C274.522614,357.99353,274.849854,358.128967,275.273407,358.128967L279.029022,358.128967L280.011597,357.724213L280.415558,356.741638L280.415558,355.644012C280.415558,355.066223,280.165802,354.662231,279.664764,354.430481L279.664764,352.524109L279.49173,351.079651L280.300476,351.079651C280.647308,351.079651,280.954987,350.944977,281.225098,350.674866C281.532776,350.405548,281.687012,350.078308,281.687012,349.693115L281.687012,348.710541C281.687012,348.325348,281.532776,347.998108,281.225098,347.727997C280.954987,347.458679,280.647308,347.324005,280.300476,347.324005L277.353607,347.324005L278.509186,345.936707L280.300476,345.936707C280.685669,345.936707,280.993347,345.802032,281.225098,345.532715C281.532776,345.262604,281.687012,344.935364,281.687012,344.550171L281.687012,342.874725C281.687012,342.489532,281.532776,342.142731,281.225098,341.835022L280.300476,341.48819L275.157532,341.48819L275.157532,341.372345C275.735321,341.25647,276.178467,341.025513,276.486908,340.67868C276.756256,340.371002,276.8909,340.004578,276.8909,339.581024C276.8909,339.08075,276.698303,338.656403,276.31311,338.310364C275.851196,337.925171,275.215485,337.732574,274.406738,337.732574C273.713074,337.732574,273.135284,337.886047,272.67337,338.194489C272.05722,338.387085,271.748749,338.810638,271.748749,339.465942L271.748749,341.48819L266.606598,341.48819L266.606598,341.141388C267.762177,340.871277,268.339966,340.274689,268.339966,339.350067zM264.584351,339.234192L264.699432,339.234192C264.853668,339.003235,265.219269,338.888153,265.797852,338.888153C266.568237,338.888153,266.95343,339.041595,266.95343,339.350067C266.95343,339.658539,266.568237,339.811981,265.797852,339.811981L265.219269,339.754852L265.219269,342.874725L273.135284,342.874725L273.135284,339.465942L273.25116,339.465942L274.406738,339.11911L275.157532,339.234192L275.504364,339.581024L275.157532,339.927856L274.406738,340.043732L273.770996,339.985809L273.770996,342.874725L280.300476,342.874725L280.300476,344.550171L277.873444,344.550171L274.348785,348.710541L280.300476,348.710541L280.300476,349.693115L277.931396,349.693115L278.278229,355.644012L279.029022,355.644012L279.029022,356.741638L275.273407,356.741638L275.273407,355.644012L276.140106,355.644012L276.486908,349.693115L269.668549,349.693115L270.015381,355.644012L270.824127,355.644012L270.824127,356.741638L267.010559,356.741638L267.010559,355.644012L267.877258,355.644012L268.224091,349.693115L261.637451,349.693115L261.984283,355.644012L262.735107,355.644012L262.735107,356.741638L258.921539,356.741638L258.921539,355.644012L259.846161,355.644012L260.192993,349.693115L257.419128,349.693115L257.419128,348.710541L263.659729,348.710541L259.788239,344.550171L257.419128,344.550171L257.419128,342.874725L264.584351,342.874725L264.584351,339.234192zM269.437592,348.710541L272.557495,348.710541L269.437592,345.12796L269.437592,348.710541zM277.006775,344.550171L273.886871,344.550171L273.886871,348.190704L277.006775,344.550171zM265.566101,348.710541L268.80188,348.710541L268.80188,345.12796L265.566101,348.710541zM273.25116,344.550171L269.842346,344.550171L273.25116,348.421661L273.25116,344.550171zM264.237518,344.550171L260.71283,344.550171L264.237518,348.363708L264.237518,344.550171zM268.397888,344.550171L264.87323,344.550171L264.87323,348.421661L268.397888,344.550171z"/>
</svg>
