<?xml version="1.0" encoding="UTF-8"?>
<svg xmlns="http://www.w3.org/2000/svg" xmlns:xlink="http://www.w3.org/1999/xlink" width="25.302mm" height="25.454mm" viewBox="-246.760880 335.088013 25.301682 25.453979">
    <path transform="matrix(-1,0,0,1,0,0)" style="stroke:none;fill:#000000;fill-rule:evenodd" d="M222.162247,335.088013L221.842819,335.473999L221.842819,335.987579C221.842819,336.245148,221.949295,336.373566,222.162247,336.373566L222.737686,336.373566C222.950638,336.373566,223.057114,336.245148,223.057114,335.987579L223.057114,335.473999C223.057114,335.2164,222.950638,335.088013,222.737686,335.088013L222.162247,335.088013"/>
    <path transform="matrix(-1,0,0,1,0,0)" style="stroke:none;fill:#000000;fill-rule:evenodd" d="M226.124557,335.088013L225.484924,335.088013L225.165497,335.473999L225.165497,335.987579L225.484924,336.373566L226.124557,336.373566C226.294449,336.373566,226.379791,336.245148,226.379791,335.987579L226.379791,335.473999L226.124557,335.088013z"/>
    <path transform="matrix(-1,0,0,1,0,0)" style="stroke:none;fill:#000000;fill-rule:evenodd" d="M229.383026,335.088013L228.80838,335.088013L228.488953,335.473999L228.488953,335.987579L228.80838,336.373566L229.383026,336.373566C229.639038,336.373566,229.766663,336.245148,229.766663,335.987579L229.766663,335.473999C229.766663,335.2164,229.639038,335.088013,229.383026,335.088013z"/>
    <path transform="matrix(-1,0,0,1,0,0)" style="stroke:none;fill:#000000;fill-rule:evenodd" d="M232.706482,335.088013L232.131042,335.088013L231.875824,335.473999L231.875824,335.987579C231.875824,336.245148,231.960373,336.373566,232.131042,336.373566L232.706482,336.373566C232.961716,336.373566,233.089325,336.245148,233.089325,335.987579L233.089325,335.473999C233.089325,335.2164,232.961716,335.088013,232.706482,335.088013z"/>
    <path transform="matrix(-1,0,0,1,0,0)" style="stroke:none;fill:#000000;fill-rule:evenodd" d="M232.131042,347.750793L232.706482,347.750793C232.961716,347.750793,233.089325,347.622406,233.089325,347.364838L233.089325,346.915436C233.089325,346.657867,232.961716,346.52948,232.706482,346.52948L232.131042,346.52948L231.875824,346.915436L231.875824,347.364838C231.875824,347.622406,231.960373,347.750793,232.131042,347.750793z"/>
    <path transform="matrix(-1,0,0,1,0,0)" style="stroke:none;fill:#000000;fill-rule:evenodd" d="M229.383026,347.750793C229.639038,347.750793,229.766663,347.622406,229.766663,347.364838L229.766663,346.915436C229.766663,346.657867,229.639038,346.52948,229.383026,346.52948L228.80838,346.52948L228.488953,346.915436L228.488953,347.364838L228.80838,347.750793L229.383026,347.750793z"/>
    <path transform="matrix(-1,0,0,1,0,0)" style="stroke:none;fill:#000000;fill-rule:evenodd" d="M226.124557,346.52948L225.484924,346.52948L225.165497,346.915436L225.165497,347.364838L225.484924,347.750793L226.124557,347.750793C226.294449,347.750793,226.379791,347.622406,226.379791,347.364838L226.379791,346.915436L226.124557,346.52948z"/>
    <path transform="matrix(-1,0,0,1,0,0)" style="stroke:none;fill:#000000;fill-rule:evenodd" d="M222.737686,346.52948L222.162247,346.52948L221.842819,346.915436L221.842819,347.364838C221.842819,347.622406,221.949295,347.750793,222.162247,347.750793L222.737686,347.750793C222.950638,347.750793,223.057114,347.622406,223.057114,347.364838L223.057114,346.915436C223.057114,346.657867,222.950638,346.52948,222.737686,346.52948z"/>
    <path transform="matrix(-1,0,0,1,0,0)" style="stroke:none;fill:#000000;fill-rule:evenodd" d="M222.801102,337.402283L222.801102,345.500732L245.3591,345.500732L245.3591,337.402283L222.801102,337.402283z"/>
    <path transform="matrix(-1,0,0,1,0,0)" style="stroke:none;fill:#000000;fill-rule:evenodd" d="M226.507401,351.093048L226.507401,353.664124L226.891022,356.299408L226.571594,356.749573L226.507401,357.392334C226.507401,357.820587,226.933304,358.035126,227.785889,358.035126L227.785889,359.128052L222.289856,359.25647C221.736343,359.513245,221.459198,359.942291,221.459198,360.541992L246.701004,360.541992C246.828629,359.984558,246.765213,359.599365,246.509201,359.384857L243.058914,359.128052L239.99147,359.128052L239.99147,358.035126C240.843277,358.035126,241.26918,357.820587,241.26918,357.392334L241.205765,356.749573L240.885544,356.299408L241.26918,353.664124L241.26918,351.093048C240.672592,351.136108,240.183273,351.500153,239.799652,352.186005C239.245346,351.11496,238.712982,350.407227,238.201736,350.065094C237.307648,349.379272,235.90155,349.036346,233.984192,349.036346L233.792389,349.036346C231.875824,349.036346,230.469711,349.379272,229.574844,350.065094C229.063599,350.407227,228.510086,351.11496,227.913513,352.186005C227.572937,351.500153,227.103973,351.136108,226.507401,351.093048zM226.955231,353.85672L226.635803,351.543213C227.103973,352.014526,227.529877,353.128601,227.913513,354.885468C227.99884,355.056915,227.934647,355.164185,227.721695,355.207245L227.338074,355.207245L226.955231,353.85672zM239.799652,354.885468L240.310898,353.085571C240.523849,352.357452,240.800995,351.843079,241.141556,351.543213L240.822128,353.85672L240.374313,355.207245L239.99147,355.207245L239.799652,354.885468zM232.514679,356.299408L232.514679,355.207245L235.006683,355.207245L235.006683,356.299408L232.514679,356.299408zM229.574844,359.128052L229.574844,357.906708L237.946503,357.842529L237.946503,359.128052L229.574844,359.128052zM233.984192,350.321869L233.984192,349.807526L237.307648,350.25769C238.585358,350.600586,239.288406,351.307556,239.416031,352.378601L238.393555,352.186005L237.307648,351.993408L237.498688,351.479034L237.627075,350.964661C237.158112,350.493347,236.582672,350.343018,235.90155,350.514465C235.177353,350.642883,234.772583,351.049988,234.687256,351.735809L233.792389,351.735809L232.45047,351.993408L230.533905,352.314392L228.424744,352.378601C228.552368,351.307556,229.234283,350.600586,230.469711,350.25769L233.792389,349.807526C233.877716,350.107361,233.835449,350.300751,233.664764,350.386078L233.153534,350.450287L233.025909,350.836243L233.984192,350.836243L234.75145,350.578674L234.367828,350.386078L233.984192,350.321869z"/>
    <path transform="matrix(-1,0,0,1,0,0)" style="stroke:none;fill:#000000;fill-rule:evenodd" d="M235.517914,335.088013C235.262695,335.088013,235.134293,335.2164,235.134293,335.473999L235.134293,335.987579C235.134293,336.245148,235.262695,336.373566,235.517914,336.373566L236.093353,336.373566C236.263245,336.373566,236.348587,336.245148,236.348587,335.987579L236.348587,335.473999L236.093353,335.088013L235.517914,335.088013z"/>
    <path transform="matrix(-1,0,0,1,0,0)" style="stroke:none;fill:#000000;fill-rule:evenodd" d="M239.416031,335.088013L238.840591,335.088013C238.585358,335.088013,238.457748,335.2164,238.457748,335.473999L238.457748,335.987579C238.457748,336.245148,238.585358,336.373566,238.840591,336.373566L239.416031,336.373566L239.735458,335.987579L239.735458,335.473999L239.416031,335.088013z"/>
    <path transform="matrix(-1,0,0,1,0,0)" style="stroke:none;fill:#000000;fill-rule:evenodd" d="M243.058914,335.473999L242.738693,335.088013L242.099838,335.088013L241.84462,335.473999L241.84462,335.987579C241.84462,336.245148,241.929947,336.373566,242.099838,336.373566L242.738693,336.373566L243.058914,335.987579L243.058914,335.473999z"/>
    <path transform="matrix(-1,0,0,1,0,0)" style="stroke:none;fill:#000000;fill-rule:evenodd" d="M246.381577,335.473999L246.062149,335.088013L245.48671,335.088013C245.273758,335.088013,245.167282,335.2164,245.167282,335.473999L245.167282,335.987579C245.167282,336.245148,245.273758,336.373566,245.48671,336.373566L246.062149,336.373566C246.275101,336.373566,246.381577,336.245148,246.381577,335.987579L246.381577,335.473999z"/>
    <path transform="matrix(-1,0,0,1,0,0)" style="stroke:none;fill:#000000;fill-rule:evenodd" d="M246.062149,346.52948L245.48671,346.52948C245.273758,346.52948,245.167282,346.657867,245.167282,346.915436L245.167282,347.364838C245.167282,347.622406,245.273758,347.750793,245.48671,347.750793L246.062149,347.750793C246.275101,347.750793,246.381577,347.622406,246.381577,347.364838L246.381577,346.915436L246.062149,346.52948z"/>
    <path transform="matrix(-1,0,0,1,0,0)" style="stroke:none;fill:#000000;fill-rule:evenodd" d="M242.099838,347.750793L242.738693,347.750793L243.058914,347.364838L243.058914,346.915436L242.738693,346.52948L242.099838,346.52948L241.84462,346.915436L241.84462,347.364838C241.84462,347.622406,241.929947,347.750793,242.099838,347.750793z"/>
    <path transform="matrix(-1,0,0,1,0,0)" style="stroke:none;fill:#000000;fill-rule:evenodd" d="M239.735458,346.915436L239.416031,346.52948L238.840591,346.52948C238.585358,346.52948,238.457748,346.657867,238.457748,346.915436L238.457748,347.364838C238.457748,347.622406,238.585358,347.750793,238.840591,347.750793L239.416031,347.750793L239.735458,347.364838L239.735458,346.915436z"/>
    <path transform="matrix(-1,0,0,1,0,0)" style="stroke:none;fill:#000000;fill-rule:evenodd" d="M236.348587,347.364838L236.348587,346.915436L236.093353,346.52948L235.517914,346.52948C235.262695,346.52948,235.134293,346.657867,235.134293,346.915436L235.134293,347.364838C235.134293,347.622406,235.262695,347.750793,235.517914,347.750793L236.093353,347.750793C236.263245,347.750793,236.348587,347.622406,236.348587,347.364838z"/>
</svg>
