<?xml version="1.0" encoding="UTF-8"?>
<svg xmlns="http://www.w3.org/2000/svg" xmlns:xlink="http://www.w3.org/1999/xlink" width="25.654mm" height="25.654mm" viewBox="-177.442993 334.988007 25.654404 25.654419">
    <path transform="matrix(-1,0,0,1,0,0)" style="stroke:none;fill:#000000;fill-rule:evenodd" d="M154.354187,360.642426L154.354187,337.553589L174.428787,337.553589L174.428787,360.642426L177.442993,360.642426L177.442993,334.988007L151.788589,334.988007L151.788589,360.642426L154.354187,360.642426"/>
    <path transform="matrix(-1,0,0,1,0,0)" style="stroke:none;fill:#000000;fill-rule:evenodd" d="M157.368393,352.11261L158.266388,351.727417C158.523178,351.470612,158.650803,351.171539,158.650803,350.829407C158.650803,350.487274,158.523178,350.188202,158.266388,349.931427C158.009598,349.675415,157.710526,349.546997,157.368393,349.546997C156.983978,349.546997,156.684128,349.675415,156.470398,349.931427L156.085983,350.829407L156.470398,351.727417C156.684128,351.984192,156.983978,352.11261,157.368393,352.11261z"/>
</svg>
