<?xml version="1.0" encoding="UTF-8"?>
<svg xmlns="http://www.w3.org/2000/svg" xmlns:xlink="http://www.w3.org/1999/xlink" width="25.650mm" height="26.857mm" viewBox="-559.882690 370.477997 25.649719 26.856964">
    <path transform="matrix(-1,0,0,1,0,0)" style="stroke:none;fill:#000000;fill-rule:evenodd" d="M536.299072,382.517578C535.729065,382.517578,535.253845,382.707062,534.874146,383.087555L534.232971,384.44043L534.874146,385.865326C535.444092,386.435272,536.085327,386.602051,536.797791,386.364044L545.205444,394.770142C544.967407,395.530334,545.134216,396.195038,545.704163,396.764984C546.083862,397.144714,546.559082,397.334961,547.129028,397.334961C547.651245,397.334961,548.126465,397.144714,548.553955,396.764984C549.076904,396.147278,549.219421,395.482574,548.981445,394.770142L557.389099,386.364044C558.149292,386.649017,558.813965,386.483032,559.383972,385.865326C559.716675,385.485596,559.88269,385.010376,559.88269,384.44043L559.383972,383.087555L558.528992,382.588837C558.434265,379.216858,557.317871,376.343567,555.180481,373.968994C552.995422,371.641388,550.406311,370.477997,547.414001,370.477997C544.421753,370.477997,541.856934,371.641388,539.718811,373.968994C537.581482,376.295807,536.441528,379.145599,536.299072,382.517578zM546.559082,393.416473L538.222656,385.010376C538.365173,384.678436,538.365173,384.322205,538.222656,383.941711L546.559082,375.606842L547.699036,375.606842L556.035461,383.941711L556.035461,385.010376L547.699036,393.416473L546.559082,393.416473zM545.134216,384.44043C545.134216,385.010376,545.324463,385.485596,545.704163,385.865326C546.083862,386.292786,546.559082,386.506531,547.129028,386.506531C547.651245,386.506531,548.126465,386.292786,548.553955,385.865326C548.933655,385.485596,549.123901,385.010376,549.123901,384.44043C549.123901,383.918213,548.933655,383.467255,548.553955,383.087555C548.126465,382.707062,547.651245,382.517578,547.129028,382.517578C546.559082,382.517578,546.083862,382.707062,545.704163,383.087555C545.324463,383.467255,545.134216,383.918213,545.134216,384.44043z"/>
</svg>
