<?xml version="1.0" encoding="UTF-8"?>
<svg xmlns="http://www.w3.org/2000/svg" xmlns:xlink="http://www.w3.org/1999/xlink" width="25.637mm" height="26.456mm" viewBox="-525.045410 370.678009 25.637177 26.456116">
    <path transform="matrix(-1,0,0,1,0,0)" style="stroke:none;fill:#000000;fill-rule:evenodd" d="M505.000549,373.73526C502.863983,375.81546,501.607422,378.415527,501.230042,381.534637L500.35083,382.1586C499.722168,382.782593,499.408234,383.53183,499.408234,384.405548C499.408234,385.320007,499.722168,386.0896,500.35083,386.713593C500.937256,387.296051,501.670044,387.628815,502.550049,387.712585L508.958954,393.951599C508.958954,394.825317,509.273682,395.574554,509.901581,396.198547C510.571747,396.82251,511.346832,397.134125,512.226807,397.134125C513.148315,397.134125,513.923401,396.82251,514.552063,396.198547C515.179932,395.574554,515.49469,394.825317,515.49469,393.951599L521.840942,387.712585C522.720947,387.628815,523.453735,387.296051,524.040161,386.713593C524.710327,386.131866,525.04541,385.362274,525.04541,384.405548C525.04541,383.53183,524.710327,382.782593,524.040161,382.1586L523.726196,381.847015C523.432617,378.644135,522.218323,375.981445,520.081726,373.860535C517.94519,371.738861,515.410889,370.678009,512.478149,370.678009C509.629913,370.678009,507.137115,371.697357,505.000549,373.73526zM501.418732,383.219452C501.753815,382.845215,502.172668,382.658112,502.675293,382.658112C502.801361,379.74646,503.80661,377.270905,505.691864,375.232971C507.577118,373.194275,509.838928,372.17572,512.478149,372.17572C515.11731,372.17572,517.400269,373.194275,519.32782,375.232971C521.21228,377.313171,522.197205,379.808319,522.280945,382.720734L523.034912,383.219452C523.328491,383.552185,523.474915,383.947571,523.474915,384.405548C523.474915,384.904266,523.328491,385.320007,523.034912,385.653503C522.657532,386.02774,522.238647,386.214874,521.77832,386.214874L521.275696,386.0896L513.860718,393.390228C514.069763,394.097198,513.944519,394.679688,513.483398,395.137695C513.064514,395.470428,512.645691,395.636414,512.226807,395.636414C511.765686,395.636414,511.346832,395.470428,510.970245,395.137695C510.467621,394.679688,510.320435,394.097198,510.530243,393.390228L503.115295,386.0896L502.675293,386.214874C502.172668,386.214874,501.753815,386.02774,501.418732,385.653503C501.041382,385.320007,500.853485,384.904266,500.853485,384.405548C500.853485,383.947571,501.041382,383.552185,501.418732,383.219452z"/>
</svg>
