<?xml version="1.0" encoding="UTF-8"?>
<svg xmlns="http://www.w3.org/2000/svg" xmlns:xlink="http://www.w3.org/1999/xlink" width="25.023mm" height="23.616mm" viewBox="-192.668564 32.328022 25.022675 23.615711">
    <path transform="matrix(-1,0,0,1,0,0)" style="stroke:none;fill:#000000;fill-rule:evenodd" d="M174.007553,41.134201C173.591049,41.134201,173.269272,41.248505,173.042236,41.477112L168.098938,46.10881C167.644058,46.527668,167.530548,47.023251,167.757584,47.595558C167.947052,48.091141,168.30719,48.376904,168.837219,48.452843L168.837219,54.571289L169.23494,55.543663C169.500351,55.810638,169.822128,55.943733,170.20105,55.943733L190.086975,55.943733C190.465897,55.943733,190.787674,55.810638,191.053085,55.543663L191.450806,54.571289L191.450806,50.569054C191.980835,50.530689,192.359756,50.244926,192.586807,49.710983C192.776276,49.139458,192.643951,48.643875,192.189087,48.224236L186.564667,43.192471L187.302948,42.505859C187.529984,42.010277,187.473618,41.534267,187.132263,41.077045L185.314346,38.675076L185.314346,33.700466L184.916626,32.728088C184.65123,32.461117,184.329453,32.328022,183.950516,32.328022L183.098709,32.328022C182.719788,32.328022,182.39801,32.461117,182.132599,32.728088C181.867203,33.033424,181.734879,33.357552,181.734879,33.700466L181.734879,33.986225L181.110123,33.871922C180.693619,33.871922,180.333481,34.043381,180.030487,34.386295L175.087189,41.077045L174.916519,41.477112L174.007553,41.134201zM177.359985,41.934334L176.223984,41.934334L181.110123,35.244366L183.098709,37.874943L183.098709,33.700466L183.950516,33.700466L183.950516,39.075146L186.052643,41.934334L184.916626,41.934334L184.916626,43.535385L191.280121,49.253761L190.086975,49.253761L190.086975,54.571289L170.20105,54.571289L170.20105,47.080402L169.065048,47.080402L174.007553,42.505859L177.359985,45.65081L177.359985,41.934334z"/>
</svg>
