<?xml version="1.0" encoding="UTF-8"?>
<svg xmlns="http://www.w3.org/2000/svg" xmlns:xlink="http://www.w3.org/1999/xlink" width="19.285mm" height="29.337mm" viewBox="-487.037994 369.237793 19.285431 29.336609">
    <path transform="matrix(-1,0,0,1,0,0)" style="stroke:none;fill:#000000;fill-rule:evenodd" d="M472.632172,370.241241L467.752563,369.237793L467.752563,398.574402L487.037994,398.574402L487.037994,388.306641L481.616333,388.306641L481.616333,379.428436L484.559631,379.428436L484.559631,377.884094L478.441132,377.884094L478.441132,374.79599L483.93988,374.79599L483.93988,373.252258L478.441132,373.252258L478.441132,372.093994L472.632172,372.093994L472.632172,370.241241M479.292755,385.064331L479.292755,388.152435L472.244904,388.152435L472.244904,385.064331L479.292755,385.064331zM472.244904,382.670715L472.244904,379.428436L479.292755,379.428436L479.292755,382.670715L472.244904,382.670715z"/>
</svg>
