<?xml version="1.0" encoding="UTF-8"?>
<svg xmlns="http://www.w3.org/2000/svg" xmlns:xlink="http://www.w3.org/1999/xlink" width="21.292mm" height="31.084mm" viewBox="-453.209991 368.364044 21.291779 31.083893">
    <path transform="matrix(-1,0,0,1,0,0)" style="stroke:none;fill:#000000;fill-rule:evenodd" d="M439.594635,370.022919L431.918213,368.364044L431.918213,399.447937L453.209991,399.447937L453.209991,386.538208L448.068329,386.538208L448.068329,381.634369L450.820129,381.634369L450.820129,376.874146L450.24054,376.874146L450.24054,372.403046L445.17099,372.403046L445.17099,371.321167L439.594635,371.321167L439.594635,370.022919M438.001373,371.321167L438.001373,373.052155L443.505615,373.052155L443.505615,374.134033L448.575165,374.134033L448.575165,375.575897L443.505615,375.575897L443.505615,378.460876L449.154114,378.460876L449.154114,379.903381L446.402313,379.903381L446.402313,388.197083L451.544617,388.197083L451.544617,397.789063L433.583557,397.789063L433.583557,370.383545L438.001373,371.321167zM437.639465,385.167847L437.639465,388.052856L444.302246,388.052856L444.302246,385.167847L437.639465,385.167847zM437.639465,379.903381L437.639465,382.932617L444.302246,382.932617L444.302246,379.903381L437.639465,379.903381z"/>
</svg>
