<?xml version="1.0" encoding="UTF-8"?>
<svg xmlns="http://www.w3.org/2000/svg" xmlns:xlink="http://www.w3.org/1999/xlink" width="20.559mm" height="34.825mm" viewBox="-418.013000 366.493439 20.559235 34.825470">
    <path transform="matrix(-1,0,0,1,0,0)" style="stroke:none;fill:#000000;fill-rule:evenodd" d="M401.865784,376.079132L401.865784,382.411041L400.454071,384.345978L400.454071,400.08728L397.453766,400.08728L397.453766,401.318909L418.013,401.318909L418.013,400.08728L415.101166,400.08728L415.101166,384.345978L413.600983,382.411041L413.600983,376.166962L407.865784,366.493439L401.865784,376.079132zM406.189301,378.014099C406.600891,377.60376,407.100952,377.39859,407.689453,377.39859C408.336334,377.39859,408.865875,377.60376,409.277466,378.014099L409.895477,379.421387L409.277466,380.828064C408.865875,381.238373,408.336334,381.443542,407.689453,381.443542C407.100952,381.443542,406.600891,381.238373,406.189301,380.828064C405.77771,380.476715,405.571289,380.007385,405.571289,379.421387C405.571289,378.834747,405.77771,378.366058,406.189301,378.014099zM411.8367,385.928955L411.8367,387.775452L403.365936,387.775452L403.365936,385.928955L411.8367,385.928955zM409.188995,400.08728L409.188995,390.325897L412.189301,390.325897L412.189301,400.08728L409.188995,400.08728zM406.630371,390.325897L406.630371,400.08728L403.277466,400.08728L403.277466,390.325897L406.630371,390.325897z"/>
</svg>
