<?xml version="1.0" encoding="UTF-8"?>
<svg xmlns="http://www.w3.org/2000/svg" xmlns:xlink="http://www.w3.org/1999/xlink" width="23.233mm" height="36.660mm" viewBox="-384.519012 365.576141 23.232666 36.659790">
    <path transform="matrix(-1,0,0,1,0,0)" style="stroke:none;fill:#000000;fill-rule:evenodd" d="M365.667999,375.484467L365.420563,376.474945L365.420563,381.759155L364.427948,383.162994L364.097534,384.401611L364.097534,397.116913L363.270844,397.116913C362.719238,397.116913,362.25058,397.309753,361.864899,397.694763C361.479187,398.080444,361.286346,398.547699,361.286346,399.098572L361.286346,400.254272C361.286346,400.805176,361.479187,401.245453,361.864899,401.575134C362.25058,402.016144,362.719238,402.235931,363.270844,402.235931L382.534515,402.235931C383.086121,402.235931,383.554779,402.016144,383.94046,401.575134C384.326172,401.245453,384.519012,400.805176,384.519012,400.254272L384.519012,399.098572C384.519012,398.547699,384.326172,398.080444,383.94046,397.694763C383.554779,397.309753,383.086121,397.116913,382.534515,397.116913L381.790771,397.116913L381.790771,384.318665L381.294464,383.080048L380.384796,381.759155L380.384796,376.55719L380.13736,375.566711L374.680145,366.484375C374.294464,365.878876,373.743561,365.576141,373.026764,365.576141C372.255371,365.576141,371.676086,365.878876,371.290405,366.484375L365.667999,375.484467M367.404358,382.419952L367.404358,376.474945L373.026764,367.5578L378.401001,376.55719L378.401001,382.419952L379.806244,384.318665L379.806244,399.098572L382.534515,399.098572L382.534515,400.254272L363.270844,400.254272L363.270844,399.098572L366.082062,399.098572L366.082062,384.318665L367.404358,382.419952z"/>
</svg>
