<?xml version="1.0" encoding="UTF-8"?>
<svg xmlns="http://www.w3.org/2000/svg" xmlns:xlink="http://www.w3.org/1999/xlink" width="24.163mm" height="24.319mm" viewBox="-350.156372 371.746307 24.163483 24.319061">
    <path transform="matrix(-1,0,0,1,0,0)" style="stroke:none;fill:#000000;fill-rule:evenodd" d="M337.010986,377.085754L337.010986,377.39267L338.109406,377.39267L338.109406,380.276917L337.255249,380.276917L337.255249,382.302307L342.321472,381.626648L347.631958,382.240448L347.631958,380.276917L346.777008,380.276917L346.777008,377.39267L347.876221,377.39267L347.876221,377.085754L348.241852,377.085754L348.241852,376.655945L342.443604,374.262573L336.644592,376.655945L336.644592,377.085754L337.010986,377.085754M339.207855,377.39267L340.490234,377.39267L340.490234,380.276917L339.207855,380.276917L339.207855,377.39267zM344.335907,377.39267L345.678589,377.39267L345.678589,380.276917L344.335907,380.276917L344.335907,377.39267zM341.64975,377.39267L343.114563,377.39267L343.114563,380.276917L341.64975,380.276917L341.64975,377.39267z"/>
    <path transform="matrix(-1,0,0,1,0,0)" style="stroke:none;fill:#000000;fill-rule:evenodd" d="M336.278198,374.016754L329.319672,371.746307L329.319672,390.034302C328.058411,390.280151,327.162781,390.627747,326.633514,391.077942C325.860779,391.732452,325.779358,392.632782,326.389252,393.778198C326.674225,394.309784,327.427399,394.800659,328.647949,395.250854L332.676788,395.987579C335.322266,396.110474,337.519104,396.090118,339.268921,395.926514C341.466553,395.721375,343.603088,395.230499,345.678589,394.453064C348.079773,393.594208,349.524261,392.469177,350.012787,391.077942C350.622681,389.359436,349.341064,387.866425,346.167145,386.598114C343.155273,385.370514,340.225616,385.247589,337.376617,386.22937C335.748932,386.84317,334.40625,387.661316,333.348541,388.68457L332.676788,389.175476C332.147552,389.543427,331.578369,389.768921,330.967712,389.850342L329.991425,389.91217L329.991425,376.16507L336.278198,374.016754zM329.991425,391.139008L330.357025,391.139008L332.982147,391.322998C333.958435,391.568817,334.44696,392.100403,334.44696,392.919342C334.44696,394.064728,333.083923,394.493774,330.357025,394.208008C328.485107,394.002899,327.54953,393.491638,327.54953,392.673492L328.038055,391.752808C328.362976,391.507751,328.790436,391.322998,329.319672,391.200836L329.319672,392.980408L329.991425,392.980408L329.991425,391.139008z"/>
</svg>
