<?xml version="1.0" encoding="UTF-8"?>
<svg xmlns="http://www.w3.org/2000/svg" xmlns:xlink="http://www.w3.org/1999/xlink" width="25.253mm" height="25.244mm" viewBox="-315.867004 371.283691 25.252625 25.244171">
    <path transform="matrix(-1,0,0,1,0,0)" style="stroke:none;fill:#000000;fill-rule:evenodd" d="M293.788147,372.648315L293.731781,372.705444L293.731781,388.567993C292.33194,388.94693,291.385406,389.610046,290.893738,390.558167C290.439636,391.505493,290.534363,392.547546,291.177155,393.68512C291.631226,394.594849,292.671722,395.295563,294.299377,395.788788L298.215515,396.470703L301.336975,396.527863C304.85614,396.527863,308.015198,396.015839,310.815674,394.992554C312.177917,394.499329,313.313141,393.836212,314.221313,393.002411C315.280609,392.055084,315.829437,391.03183,315.867004,389.932617C315.867004,387.999603,314.334839,386.407166,311.269745,385.15686C309.566925,384.474152,307.882874,384.132813,306.218414,384.132813C304.250977,384.132813,302.358673,384.607269,300.542328,385.554565C299.445465,386.122986,298.57486,386.729736,297.931305,387.374054L297.874939,387.374054L297.647888,387.544739L297.080292,387.885315L297.080292,377.708252L300.769348,376.514313L300.542328,377.197021L300.542328,377.594727C300.542328,378.125549,300.769348,378.523254,301.22345,378.788666L301.904572,379.24353L301.904572,379.357056C301.374542,379.5849,301.109924,379.982605,301.109924,380.550995L301.109924,382.427643C301.109924,382.844147,301.299377,383.204285,301.677551,383.508057L302.472198,383.792236L302.869904,383.735107L307.467163,383.166687L311.780212,383.678711L312.120789,383.735107C312.461334,383.735107,312.745544,383.64035,312.972595,383.450897C313.313141,383.185486,313.483032,382.825348,313.483032,382.370483L313.483032,380.550995C313.483032,379.945038,313.218414,379.52774,312.688385,379.30069L312.688385,379.24353C312.991364,379.167603,313.256012,378.996918,313.483032,378.7323C313.861176,378.428528,314.050659,378.049591,314.050659,377.594727L314.050659,377.197021C314.050659,376.59024,313.767242,376.173737,313.199615,375.945923L307.864105,373.785858L307.353638,373.67157L306.842407,373.785858L302.812744,375.434692L302.983429,374.751984L302.699249,373.956543L302.018097,373.444519L295.548126,371.340851L295.150421,371.283691L294.299377,371.568665C293.958832,371.833282,293.788147,372.19342,293.788147,372.648315zM302.245148,377.594727L301.904572,377.594727L301.904572,377.197021L307.353638,375.036194L312.688385,377.197021L312.688385,377.594727L312.347809,377.594727L312.347809,377.878937L311.326111,377.878937L311.326111,380.550995L312.120789,380.550995L312.120789,382.370483L307.467163,381.802094L302.472198,382.427643L302.472198,380.550995L303.266846,380.550995L303.266846,377.878937L302.245148,377.878937L302.245148,377.594727zM295.150421,372.705444L295.150421,372.648315L301.621155,374.751984L295.718018,376.799286L295.718018,389.534119L296.62619,389.420593C297.193817,389.344635,297.723846,389.136383,298.215515,388.795044L298.839478,388.340179C300.996399,386.445526,303.456299,385.497437,306.218414,385.497437C307.694214,385.497437,309.207581,385.801208,310.758514,386.407166C313.710083,387.619904,314.902466,389.004089,314.334839,390.558167C313.880768,391.884399,312.556091,392.926453,310.361572,393.68512C307.674622,394.670013,304.666687,395.163239,301.336975,395.163239L298.271881,395.106079L294.469269,394.424164C293.334076,394.006866,292.634155,393.552002,292.369507,393.05957C291.80191,391.997925,291.877838,391.164124,292.596558,390.558167C293.088226,390.178436,293.920471,389.856659,295.094055,389.591278L295.094055,372.705444L295.150421,372.705444M296.739716,390.614532L295.718018,390.614532L295.718018,392.320496L295.094055,392.320496L295.094055,390.671692C294.639954,390.785217,294.242249,390.955872,293.901672,391.182922L293.447571,392.036285C293.447571,392.794159,294.318176,393.267822,296.058594,393.457275L297.363708,393.514435C299.066528,393.514435,299.918335,393.097137,299.918335,392.263336C299.918335,391.164124,298.858276,390.614532,296.739716,390.614532z"/>
</svg>
