<?xml version="1.0" encoding="UTF-8"?>
<svg xmlns="http://www.w3.org/2000/svg" xmlns:xlink="http://www.w3.org/1999/xlink" width="25.654mm" height="27.236mm" viewBox="-281.235992 370.287964 25.654404 27.235901">
    <path transform="matrix(-1,0,0,1,0,0)" style="stroke:none;fill:#000000;fill-rule:evenodd" d="M263.441223,376.948975L255.581589,376.948975L255.581589,397.523865L281.235992,397.523865L281.235992,374.284729L280.049896,374.284729L280.049896,370.287964L277.454529,370.287964L277.454529,374.284729L270.558655,374.284729L270.558655,382.647766L263.441223,382.647766L263.441223,376.948975zM267.000336,385.830292L268.556763,385.830292L268.556763,387.014069L267.000336,387.014069L267.000336,385.830292zM266.406891,385.830292L266.406891,387.014069L264.775299,387.014069L264.775299,385.830292L266.406891,385.830292zM270.707428,387.014069L269.075836,387.014069L269.075836,385.830292L270.707428,385.830292L270.707428,387.014069zM267.000336,389.382385L268.556763,389.382385L268.556763,391.085205L267.000336,391.085205L267.000336,389.382385zM264.775299,391.085205L264.775299,389.382385L266.406891,389.382385L266.406891,391.085205L264.775299,391.085205zM270.707428,389.382385L270.707428,391.085205L269.075836,391.085205L269.075836,389.382385L270.707428,389.382385zM267.000336,393.083191L268.556763,393.083191L268.556763,395.525085L267.000336,395.525085L267.000336,393.083191zM264.775299,393.083191L266.406891,393.083191L266.406891,395.525085L264.775299,395.525085L264.775299,393.083191zM269.075836,393.083191L270.707428,393.083191L270.707428,395.525085L269.075836,395.525085L269.075836,393.083191zM273.673065,391.529114L273.673065,395.525085L272.115875,395.525085L272.115875,391.529114L273.673065,391.529114zM272.115875,376.505066L273.673065,376.505066L273.673065,380.501831L272.115875,380.501831L272.115875,376.505066zM273.673065,390.492523L272.115875,390.492523L272.115875,386.496552L273.673065,386.496552L273.673065,390.492523zM273.673065,381.463226L273.673065,385.534363L272.115875,385.534363L272.115875,381.463226L273.673065,381.463226zM274.933563,391.529114L276.565155,391.529114L276.565155,395.525085L274.933563,395.525085L274.933563,391.529114M276.565155,380.501831L274.933563,380.501831L274.933563,376.505066L276.565155,376.505066L276.565155,380.501831zM277.825623,376.505066L279.456451,376.505066L279.456451,380.501831L277.825623,380.501831L277.825623,376.505066zM274.933563,386.496552L276.565155,386.496552L276.565155,390.492523L274.933563,390.492523L274.933563,386.496552zM279.456451,386.496552L279.456451,390.492523L277.825623,390.492523L277.825623,386.496552L279.456451,386.496552zM279.456451,391.529114L279.456451,395.525085L277.825623,395.525085L277.825623,391.529114L279.456451,391.529114zM279.456451,381.463226L279.456451,385.534363L277.825623,385.534363L277.825623,381.463226L279.456451,381.463226zM276.565155,381.463226L276.565155,385.534363L274.933563,385.534363L274.933563,381.463226L276.565155,381.463226zM256.916443,393.971008L256.916443,392.0466L261.958405,392.0466L261.958405,393.971008L256.916443,393.971008zM256.916443,388.642517L261.958405,388.642517L261.958405,390.566925L256.916443,390.566925L256.916443,388.642517zM261.958405,381.759949L261.958405,383.757935L256.916443,383.757935L256.916443,381.759949L261.958405,381.759949zM256.916443,385.164063L261.958405,385.164063L261.958405,387.162048L256.916443,387.162048L256.916443,385.164063z"/>
</svg>
