<?xml version="1.0" encoding="UTF-8"?>
<svg xmlns="http://www.w3.org/2000/svg" xmlns:xlink="http://www.w3.org/1999/xlink" width="25.650mm" height="27.057mm" viewBox="-246.402649 370.377991 25.649704 27.057373">
    <path transform="matrix(-1,0,0,1,0,0)" style="stroke:none;fill:#000000;fill-rule:evenodd" d="M230.778107,381.305084L230.778107,377.792938C230.778107,377.359192,230.626221,376.990448,230.322449,376.686676C230.062531,376.383698,229.692993,376.231812,229.216202,376.231812L222.31485,376.231812C221.838058,376.231812,221.468521,376.383698,221.208588,376.686676C220.904831,376.990448,220.752945,377.359192,220.752945,377.792938L220.752945,395.874237C220.752945,396.307983,220.904831,396.654816,221.208588,396.914734C221.468521,397.261566,221.838058,397.435364,222.31485,397.435364L244.840744,397.435364C245.231415,397.435364,245.600174,397.261566,245.946991,396.914734C246.250763,396.654816,246.402649,396.307983,246.402649,395.874237L246.402649,375.516235C246.402649,374.77951,246.055817,374.280792,245.361374,374.020081L245.361374,371.939117L244.905731,370.898621C244.601959,370.551788,244.2332,370.377991,243.798691,370.377991L241.520416,370.377991C241.085907,370.377991,240.717148,370.551788,240.413391,370.898621C240.109619,371.201599,239.957733,371.548431,239.957733,371.939117L239.957733,373.955109L235.465393,373.955109C235.031662,373.955109,234.662903,374.106995,234.359146,374.410767C234.055374,374.713745,233.903488,375.082489,233.903488,375.516235L233.903488,381.305084L230.778107,381.305084M229.216202,377.792938L229.216202,382.86618L235.465393,382.86618L235.465393,375.516235L241.520416,375.516235L241.520416,371.939117L243.798691,371.939117L243.798691,375.516235L244.840744,375.516235L244.840744,395.874237L222.31485,395.874237L222.31485,377.792938L229.216202,377.792938z"/>
</svg>
