<?xml version="1.0" encoding="UTF-8"?>
<svg xmlns="http://www.w3.org/2000/svg" xmlns:xlink="http://www.w3.org/1999/xlink" width="25.643mm" height="27.458mm" viewBox="-211.568527 370.177002 25.643448 27.458221">
    <path transform="matrix(-1,0,0,1,0,0)" style="stroke:none;fill:#000000;fill-rule:evenodd" d="M196.447388,377.942688L193.869263,370.246674L193.102798,370.177002L190.523895,377.873779L190.523895,385.154083L189.409027,385.154083L185.925079,389.037323L187.109619,389.037323L187.109619,397.635223L210.593018,397.635223L210.593018,389.037323L211.568527,389.037323L208.014893,385.223755L196.447388,385.223755L196.447388,377.942688zM194.635742,378.706024L194.635742,383.282135L192.614258,383.282135L192.614258,378.706024L194.635742,378.706024M205.715485,395.000732L205.715485,390.909241L208.014893,390.909241L208.014893,395.000732L205.715485,395.000732zM200.48877,390.909241L202.788177,390.909241L202.788177,395.000732L200.48877,395.000732L200.48877,390.909241zM195.193176,390.909241L197.562256,390.909241L197.562256,395.000732L195.193176,395.000732L195.193176,390.909241zM189.966461,395.000732L189.966461,390.909241L192.335541,390.909241L192.335541,395.000732L189.966461,395.000732z"/>
</svg>
