<?xml version="1.0" encoding="UTF-8"?>
<svg xmlns="http://www.w3.org/2000/svg" xmlns:xlink="http://www.w3.org/1999/xlink" width="25.197mm" height="26.857mm" viewBox="-176.514252 370.477997 25.196899 26.856964">
    <path transform="matrix(-1,0,0,1,0,0)" style="stroke:none;fill:#000000;fill-rule:evenodd" d="M161.072266,371.505951C160.871048,370.86084,160.406784,370.518707,159.68103,370.477997L158.955276,370.477997C158.309372,370.477997,157.866241,370.800568,157.624329,371.445679L155.385208,378.159912L155.324921,378.643738L155.324921,383.604279L154.719727,384.027832L151.695343,387.414703C151.292145,387.858612,151.211502,388.382385,151.45343,388.987549L152.360825,389.773621L152.360825,395.883423L152.784378,396.911407C153.026291,397.194031,153.369202,397.334961,153.812332,397.334961L174.200104,397.334961L175.228851,396.911407C175.511475,396.629547,175.652405,396.286621,175.652405,395.883423L175.652405,389.713318L176.378159,388.927277C176.620087,388.40274,176.539444,387.898529,176.136246,387.414703L172.990509,384.027832C172.70787,383.704498,172.36496,383.543213,171.961761,383.543213L163.371674,383.543213L163.371674,378.643738L163.310608,378.220184L161.072266,371.505951zM158.955276,371.929504L159.68103,371.929504L161.919373,378.643738L161.919373,384.995514L171.961761,384.995514L175.047211,388.382385L174.200104,388.382385L174.200104,395.883423L153.812332,395.883423L153.812332,388.382385L152.784378,388.382385L155.808762,384.995514L156.777222,384.995514L156.777222,378.643738L158.955276,371.929504z"/>
</svg>
