<?xml version="1.0" encoding="UTF-8"?>
<svg xmlns="http://www.w3.org/2000/svg" xmlns:xlink="http://www.w3.org/1999/xlink" width="25.262mm" height="33.631mm" viewBox="-563.249146 63.286655 25.261536 33.630703">
    <path transform="matrix(-1,0,0,1,0,0)" style="stroke:none;fill:#000000;fill-rule:evenodd" d="M548.946045,63.286655L547.926697,63.286655L548.01123,76.874847L546.567566,76.874847C546.114258,76.874847,545.68988,76.676773,545.292969,76.280617L544.783264,74.921486L544.868591,65.9188C542.320251,66.485626,540.621338,67.561348,539.771851,69.145958C538.922424,70.618614,538.355591,72.344925,538.072937,74.327255L537.98761,77.724304L543.763916,77.724304C544.500671,77.724304,545.208374,78.035118,545.887939,78.658318C546.68103,79.337883,547.077209,80.186562,547.077209,81.20591L547.077209,87.490326L548.181091,88.085342C548.917847,88.085342,549.483887,87.830109,549.880005,87.32122C550.389709,87.264069,550.729492,87.377594,550.900146,87.660217C551.012878,87.264069,550.928345,86.924286,550.644958,86.641655C550.814819,86.471764,550.984741,86.528137,551.154602,86.811546L551.409851,87.660217L550.729492,88.085342L550.049927,87.830109L549.370361,88.169899L548.606262,88.595016L545.292969,88.595016L544.273621,83.584389L539.006958,83.584389L538.922424,83.838837C538.752502,85.254333,538.865234,86.160164,539.262207,86.55632C539.828247,87.065994,540.507813,88.169899,541.300903,89.868813C542.15033,91.6241,542.602905,92.926079,542.660034,93.775536L543.254272,96.06868L544.019165,96.832794L547.926697,96.917358L548.096558,95.473663L548.860657,96.917358L552.17395,96.832794L553.618408,95.728897C554.467896,94.87944,555.033936,93.917236,555.317322,92.841522C555.487244,92.218323,555.91156,91.426018,556.591125,90.463043L558.120178,88.000008C559.08313,86.075607,559.734497,84.206802,560.07428,82.395149C560.414063,80.469971,560.527588,78.176826,560.414063,75.515717L560.158875,73.392464L559.139526,69.995415L557.780396,67.532379C556.761047,66.116875,555.34552,64.984787,553.533081,64.13533L552.17395,63.710995L548.946045,63.286655M551.919495,90.208595C551.919495,89.52903,552.032227,89.132874,552.259277,89.019356L552.259277,90.718269L552.683655,91.397049L550.729492,90.888161L549.370361,90.718269L545.46283,90.718269L545.46283,91.906723L549.200439,91.906723L549.880005,91.652283L550.219788,92.50174L549.62561,93.265862L548.860657,92.841522L544.443481,92.841522L544.443481,89.698921L548.690796,89.698921L550.219788,89.868813L551.919495,90.208595zM549.965393,79.507774C549.908997,78.940948,550.049927,78.686501,550.389709,78.742874L555.657104,78.233978C556.109619,78.006935,556.562927,78.006935,557.016235,78.233978L558.375366,78.912766C558.715149,79.139809,558.715149,79.252548,558.375366,79.252548L557.52594,79.167992L556.591125,79.167992L555.062134,79.677666L556.591125,80.696236L556.081482,79.932114L556.761047,80.356453L557.356018,80.951462L556.591125,80.951462L555.401917,81.715584L553.78833,82.225258C553.051575,82.225258,552.429199,82.027184,551.919495,81.631027L551.239929,80.866127L552.089417,80.017448L550.900146,79.847557L550.135254,80.441788L549.965393,79.507774zM551.579712,80.866127L552.938843,81.715584C552.59906,81.432167,552.457397,80.979645,552.513733,80.356453L551.579712,80.866127zM555.487244,81.375801L556.081482,80.951462L555.147461,80.271896L554.552429,81.715584L555.487244,81.375801z"/>
    <path transform="matrix(-1,0,0,1,0,0)" style="stroke:none;fill:#000000;fill-rule:evenodd" d="M541.895142,78.828209C541.385437,78.828209,540.932129,79.026283,540.536011,79.42244L540.026306,80.696236L540.536011,81.970032C540.932129,82.366966,541.385437,82.565041,541.895142,82.565041C542.404785,82.565041,542.858093,82.366966,543.254272,81.970032C543.594055,81.631027,543.763916,81.20591,543.763916,80.696236C543.763916,80.186562,543.594055,79.762222,543.254272,79.42244C542.858093,79.026283,542.404785,78.828209,541.895142,78.828209z"/>
    <path transform="matrix(-1,0,0,1,0,0)" style="stroke:none;fill:#000000;fill-rule:evenodd" d="M561.773193,79.762222L562.367432,79.932114C562.367432,80.102005,562.141174,80.21553,561.687866,80.271896L561.348083,80.951462L561.008301,81.800919L561.178223,82.98938L561.008301,84.093285L561.008301,83.75428L560.668518,83.414497L560.498657,84.263176L560.668518,84.942741L559.988953,85.622307C559.876221,86.075607,559.932617,86.414612,560.158875,86.641655L560.83844,86.641655L561.093628,85.96209L561.093628,85.282524L561.773193,83.499054L562.027649,81.461136C562.424622,81.800919,562.537354,82.395149,562.367432,83.244606L561.943115,85.112633C563.075989,84.036911,563.472107,82.083549,563.132324,79.252548L561.603333,78.912766L561.26355,79.337883L561.093628,80.017448L561.773193,79.762222z"/>
</svg>
