<?xml version="1.0" encoding="UTF-8"?>
<svg xmlns="http://www.w3.org/2000/svg" xmlns:xlink="http://www.w3.org/1999/xlink" width="25.654mm" height="25.654mm" viewBox="-559.213989 409.717987 25.654419 25.654419">
    <path transform="matrix(-1,0,0,1,0,0)" style="stroke:none;fill:#000000;fill-rule:evenodd" d="M541.815369,420.429779C540.95105,418.064606,540.132141,416.882385,539.359375,416.882385C538.495056,416.882385,537.266663,419.974884,535.674988,426.161438L533.55957,435.372406L542.566162,435.372406C542.747803,433.552917,543.157288,432.074768,543.793762,430.937195C544.476501,429.755005,545.226501,429.163147,546.04541,429.163147C546.86438,429.163147,547.592468,429.755005,548.229004,430.937195C548.865479,432.074768,549.297668,433.552917,549.525452,435.372406L559.213989,435.372406L557.16748,428.207977C555.620422,423.43222,554.255798,421.044342,553.073608,421.044342C552.618774,421.044342,552.049561,421.703552,551.367676,423.022766C549.320374,414.153168,547.547058,409.717987,546.04541,409.717987C544.999451,409.717987,543.589478,413.288849,541.815369,420.429779z"/>
</svg>
