<?xml version="1.0" encoding="UTF-8"?>
<svg xmlns="http://www.w3.org/2000/svg" xmlns:xlink="http://www.w3.org/1999/xlink" width="25.643mm" height="25.654mm" viewBox="-524.345520 409.717987 25.643433 25.654419">
    <path transform="matrix(-1,0,0,1,0,0)" style="stroke:none;fill:#000000;fill-rule:evenodd" d="M509.250244,411.04892C508.522919,412.13797,507.775238,414.074097,507.007202,416.857361C506.481873,416.333588,505.915833,416.07132,505.309845,416.07132C504.461182,416.07132,503.733856,416.635773,503.127106,417.765533C502.39978,419.096466,501.551086,421.637787,500.581055,425.388733L498.702087,433.678162L499.005066,434.88855C499.28772,435.211121,499.672119,435.372406,500.156738,435.372406L508.158875,435.372406C508.522919,435.372406,508.825897,435.251038,509.068604,435.009125L509.614288,434.101746C509.735657,432.85141,509.997925,431.802307,510.401886,430.9552L511.251343,429.86618L512.03894,430.9552C512.442932,431.802307,512.726379,432.85141,512.887634,434.101746C512.928345,434.464996,513.089661,434.767212,513.373047,435.009125L514.343079,435.372406L522.951172,435.372406C523.395874,435.372406,523.759888,435.190765,524.042542,434.827484L524.34552,434.403931L524.34552,433.496552L522.526855,427.144012C521.678162,424.522034,520.849854,422.646179,520.04187,421.516449C519.273865,420.346771,518.425171,419.761932,517.495056,419.761932L516.767761,419.943573C515.676392,415.708038,514.646057,412.844147,513.676025,411.351929C512.988647,410.262878,512.180664,409.717987,511.251343,409.717987C510.483307,409.717987,509.816284,410.161896,509.250244,411.04892zM507.492615,420.669342C509.068604,414.336365,510.321259,411.170288,511.251343,411.170288C512.584656,411.170288,514.160645,415.123199,515.97937,423.029022C516.586121,421.819427,517.091064,421.214233,517.495056,421.214233C518.545715,421.214233,519.758484,423.332001,521.132446,427.566772L522.951172,433.920105L514.343079,433.920105C514.141052,432.306519,513.756653,430.995911,513.190613,429.987549C512.625366,428.938446,511.978668,428.413879,511.251343,428.413879C510.523254,428.413879,509.856995,428.938446,509.250244,429.987549C508.684204,430.995911,508.320923,432.306519,508.158875,433.920105L500.156738,433.920105L502.036499,425.751984C503.450439,420.266144,504.541809,417.52359,505.309845,417.52359C505.997253,417.52359,506.724579,418.57193,507.492615,420.669342z"/>
</svg>
