<?xml version="1.0" encoding="UTF-8"?>
<svg xmlns="http://www.w3.org/2000/svg" xmlns:xlink="http://www.w3.org/1999/xlink" width="25.285mm" height="17.637mm" viewBox="-489.303009 413.726013 25.284882 17.637390">
    <path transform="matrix(-1,0,0,1,0,0)" style="stroke:none;fill:#000000;fill-rule:evenodd" d="M466.086578,413.927216L465.952698,413.726013L465.619202,413.927216L465.619202,413.994537L465.552643,413.994537L465.086029,414.396973L464.152008,416.475586C463.973511,416.744141,463.973511,416.922638,464.152008,417.011902L464.152008,417.481628L464.418976,417.548187L464.618622,417.414307L464.618622,417.347748L467.153687,419.023956L470.356567,421.036041L470.356567,426.06546L471.223267,426.06546L471.090149,427.272705C471.090149,428.390717,471.445618,429.351349,472.157257,430.156158C472.958191,430.960999,473.914124,431.363403,475.025848,431.363403C475.916016,431.363403,476.694244,431.139496,477.361267,430.692474C478.02832,430.200806,478.517639,429.552551,478.829224,428.747711L482.898804,431.162201L489.303009,431.162201L489.303009,430.022278C489.125275,429.485992,488.769073,429.217468,488.235901,429.217468C487.791199,429.217468,487.434998,429.485992,487.167999,430.022278L487.101471,430.022278L484.365967,429.150116L482.831482,427.071503L483.698944,427.406586C484.010529,427.54126,484.299438,427.429291,484.566406,427.071503L484.833374,426.467865C485.188812,426.512512,485.45578,426.355927,485.633514,425.998138C485.855865,425.68576,485.833923,425.349884,485.566956,424.992889L485.833923,424.389252L485.900482,423.852173L485.566956,423.51709C482.454102,421.77356,478.517639,419.828796,473.758331,417.682831L466.153137,414.329651L466.153137,414.262299L466.086578,413.927216M474.15918,426.06546L474.692322,426.334015C474.203796,426.512512,473.95874,426.825684,473.95874,427.272705L474.292267,427.942871L475.025848,428.278748L475.760223,427.942871L476.09375,427.272705L476.027191,427.071503L477.895233,428.144104L476.827332,429.753754C476.294159,430.111542,475.693665,430.290039,475.025848,430.290039C474.225708,430.290039,473.514038,429.977661,472.891632,429.351349C472.31308,428.770416,472.02417,428.077545,472.02417,427.272705L472.291138,426.06546L474.15918,426.06546z"/>
</svg>
