<?xml version="1.0" encoding="UTF-8"?>
<svg xmlns="http://www.w3.org/2000/svg" xmlns:xlink="http://www.w3.org/1999/xlink" width="25.534mm" height="18.621mm" viewBox="-454.567993 413.234406 25.533936 18.620728">
    <path transform="matrix(-1,0,0,1,0,0)" style="stroke:none;fill:#000000;fill-rule:evenodd" d="M431.141754,413.536591L430.177979,414.443207L429.214996,416.438843L429.214996,416.499146C429.013794,416.942261,428.973877,417.365814,429.094421,417.769012C429.094421,418.373413,429.334778,418.836914,429.817078,419.159454L430.780823,419.401398L430.840332,419.401398L432.045227,420.126373C432.968292,420.811401,433.89212,421.436157,434.815155,422.000641L434.815155,425.688171C434.815155,426.171997,435.016357,426.55484,435.417236,426.837463C435.457947,428.247498,435.939423,429.436737,436.862488,430.404419C437.826233,431.371307,439.010773,431.855133,440.416107,431.855133C441.981934,431.855133,443.266693,431.250732,444.270386,430.041138L446.678619,431.492645L447.341736,431.673492L453.122742,431.673492C453.524384,431.673492,453.865723,431.532593,454.14679,431.250732C454.427856,431.00882,454.567993,430.686249,454.567993,430.283051L454.567993,429.255096L454.447418,428.650696L453.543945,427.562439C453.102386,427.280609,452.641266,427.139679,452.158966,427.139679C451.637573,427.139679,451.155273,427.320526,450.713715,427.683807L449.870544,427.381592L449.991089,427.260254L451.015137,426.171997C451.255493,425.768799,451.315796,425.305298,451.195221,424.781555L451.255493,424.721252L451.315796,423.270538C451.155273,422.745972,450.854645,422.383484,450.413086,422.182281C447.682281,420.650116,444.169373,418.876831,439.873535,416.861633L433.611053,414.020447L432.707581,413.35498L432.647278,413.35498L432.165802,413.234406L431.141754,413.536591M432.165802,414.564575L432.345856,414.746216L432.406158,415.048401L432.345856,415.108704L439.211212,418.1315C443.427185,420.066071,446.940094,421.819,449.749969,423.391083L449.991089,423.693298L449.991089,424.177124L449.689667,424.721252C449.930817,425.043823,449.970734,425.346039,449.810242,425.627869C449.64975,425.910492,449.409393,426.051422,449.087616,426.051422L449.027344,426.051422L448.726685,426.595551L448.244415,426.958038L448.004059,426.897766L447.281433,426.595551L448.60614,428.469849L451.075439,429.255096L451.195221,429.255096C451.396423,428.772034,451.717407,428.530121,452.158966,428.530121C452.641266,428.530121,452.96225,428.772034,453.122742,429.255096L453.122742,430.283051L447.341736,430.283051L443.788086,428.106567C443.54776,428.832336,443.106201,429.416382,442.463409,429.860291L440.416107,430.464691C439.371704,430.464691,438.508942,430.102203,437.826233,429.376434C437.143555,428.650696,436.802979,427.783997,436.802979,426.776398L436.92276,425.688171L436.200134,425.688171L436.200134,421.154327L433.309631,419.340332L431.021179,417.829315L430.960907,417.889587L430.780823,418.010162L430.539703,417.94986L430.479401,417.647675L430.539703,417.5271L430.479401,417.5271L430.479401,417.043274L431.382874,415.168976L431.743805,414.806488L431.86438,414.806488L431.924652,414.746216L432.165802,414.564575zM440.114685,425.930084L439.633209,425.688171L437.946808,425.688171L437.705658,426.776398C437.705658,427.502167,437.967163,428.126923,438.488586,428.650696C439.010773,429.215179,439.652771,429.497009,440.416107,429.497009C441.018158,429.497009,441.540375,429.335724,441.981934,429.013947C442.463409,428.610748,442.784424,428.126923,442.944916,427.562439L441.31958,426.595551L441.31958,426.776398L441.078461,427.381592L440.416107,427.683807L439.753754,427.381592L439.452332,426.776398C439.452332,426.373993,439.673126,426.09137,440.114685,425.930084z"/>
</svg>
