<?xml version="1.0" encoding="UTF-8"?>
<svg xmlns="http://www.w3.org/2000/svg" xmlns:xlink="http://www.w3.org/1999/xlink" width="25.443mm" height="15.232mm" viewBox="-419.655518 414.928986 25.442993 15.232300">
    <path transform="matrix(-1,0,0,1,0,0)" style="stroke:none;fill:#000000;fill-rule:evenodd" d="M398.710327,417.252655C398.110626,417.811676,397.617371,418.780121,397.232208,420.157257L397.167999,420.157257C396.482941,420.157257,395.904388,420.393707,395.433075,420.867371C394.961761,421.34024,394.726868,421.921173,394.726868,422.609344L394.212524,426.998322L394.469299,427.515045L394.919464,427.708435L395.690643,427.708435L395.88324,427.773407L397.039612,427.773407L397.039612,429.838745L397.424805,430.161285L400.123474,430.161285L400.444489,429.838745L400.444489,427.773407L413.423553,427.773407L413.423553,429.838745C413.423553,430.054016,413.551971,430.161285,413.808746,430.161285L416.443237,430.161285L416.82843,429.838745L416.82843,427.773407L417.984802,427.773407L418.177399,427.708435L418.948547,427.708435L419.398743,427.515045L419.655518,426.998322L419.141144,422.609344C419.141144,421.921173,418.906281,421.34024,418.434967,420.867371C417.963654,420.393707,417.385101,420.157257,416.700043,420.157257L416.635834,420.157257C416.250641,418.866241,415.779327,417.940857,415.221924,417.381836C413.594238,415.746338,410.832123,414.928986,406.934021,414.928986C403.035919,414.928986,400.294952,415.703278,398.710327,417.252655zM395.819031,423.90036C395.819031,423.42749,395.989716,423.018799,396.332642,422.674316C396.675537,422.329834,397.082642,422.157593,397.553192,422.157593C398.067566,422.157593,398.47467,422.329834,398.774536,422.674316C399.159729,423.018799,399.352325,423.42749,399.352325,423.90036C399.352325,424.374023,399.159729,424.782684,398.774536,425.127167C398.47467,425.513947,398.067566,425.708099,397.553192,425.708099C397.082642,425.708099,396.675537,425.513947,396.332642,425.127167C395.989716,424.782684,395.819031,424.374023,395.819031,423.90036zM414.900909,425.127167C414.558014,424.782684,414.387329,424.374023,414.387329,423.90036C414.387329,423.42749,414.558014,423.018799,414.900909,422.674316C415.243835,422.329834,415.65094,422.157593,416.12146,422.157593C416.635834,422.157593,417.064087,422.329834,417.407013,422.674316C417.749146,423.018799,417.920593,423.42749,417.920593,423.90036C417.920593,424.374023,417.749146,424.782684,417.407013,425.127167C417.064087,425.513947,416.635834,425.708099,416.12146,425.708099C415.65094,425.708099,415.243835,425.513947,414.900909,425.127167zM402.243591,422.415955L406.934021,422.222565L411.624451,422.415955C412.90918,422.631256,413.551971,423.018799,413.551971,423.577789C413.551971,424.137573,412.90918,424.632385,411.624451,425.062195L406.934021,425.708099L402.243591,425.062195C400.958862,424.632385,400.316071,424.137573,400.316071,423.577789C400.316071,423.018799,400.958862,422.631256,402.243591,422.415955zM406.613037,416.413391L405.585052,416.413391L405.134888,416.800934C405.134888,417.102356,405.285217,417.252655,405.585052,417.252655L408.282959,417.252655C408.582825,417.252655,408.733154,417.102356,408.733154,416.800934L408.282959,416.413391L407.383423,416.413391L407.383423,415.961639C410.338898,416.0047,412.566284,416.714813,414.065552,418.091949C414.879791,418.780121,415.372223,419.576355,415.543671,420.479828L415.221924,420.73819C412.823853,419.963104,410.489227,419.511353,408.218781,419.382172L405.649261,419.382172C403.378815,419.511353,401.066101,419.963104,398.710327,420.73819L398.324341,420.479828C398.495819,419.619415,399.031311,418.823181,399.930878,418.091949C401.472443,416.757874,403.699829,416.04776,406.613037,415.961639L406.613037,416.413391z"/>
</svg>
