<?xml version="1.0" encoding="UTF-8"?>
<svg xmlns="http://www.w3.org/2000/svg" xmlns:xlink="http://www.w3.org/1999/xlink" width="25.615mm" height="16.435mm" viewBox="-384.878448 414.326996 25.615265 16.434845">
    <path transform="matrix(-1,0,0,1,0,0)" style="stroke:none;fill:#000000;fill-rule:evenodd" d="M372.070801,414.326996C366.570862,414.326996,363.301422,415.92804,362.263275,419.130157C361.493683,419.361877,360.878326,419.786224,360.417175,420.403168C359.955261,421.059235,359.724304,421.772461,359.724304,422.544434L359.494141,424.801544L359.263184,426.47934C359.263184,427.057892,359.454987,427.559753,359.840179,427.98407C360.262939,428.370056,360.743652,428.562653,361.282288,428.562653L361.801361,428.562653L361.801361,429.083282C361.801361,429.546783,361.974396,429.951538,362.320435,430.299164C362.667267,430.607605,363.070465,430.761841,363.532379,430.761841L365.955505,430.761841C366.416626,430.761841,366.801819,430.607605,367.109497,430.299164C367.455536,429.951538,367.628571,429.546783,367.628571,429.083282L367.628571,428.562653L376.513031,428.562653L376.513031,429.083282C376.513031,429.546783,376.686066,429.951538,377.032104,430.299164C377.339783,430.607605,377.724976,430.761841,378.186127,430.761841L380.609222,430.761841C381.071136,430.761841,381.474335,430.607605,381.821167,430.299164C382.167206,429.951538,382.34024,429.546783,382.34024,429.083282L382.34024,428.562653L382.859314,428.562653C383.397949,428.562653,383.8591,428.370056,384.244293,427.98407C384.667053,427.559753,384.878448,427.057892,384.878448,426.47934L384.705414,424.801544L384.417297,422.544434C384.417297,421.772461,384.18634,421.059235,383.724426,420.403168C383.263306,419.786224,382.647919,419.361877,381.878326,419.130157C381.417206,417.818787,380.532501,416.776733,379.225037,416.005554C377.494019,414.88678,375.109283,414.326996,372.070801,414.326996zM363.359375,420.403168C363.705414,419.168518,364.147766,418.301056,364.686401,417.799194C366.108948,416.410309,368.570404,415.715881,372.070801,415.715881C375.571198,415.715881,378.051453,416.448669,379.513153,417.91507C380.051788,418.455292,380.474579,419.284393,380.782257,420.403168L380.840179,420.403168C381.455566,420.403168,381.974609,420.615326,382.398163,421.039673C382.820953,421.425659,383.032349,421.92749,383.032349,422.544434L383.494263,426.47934L383.263306,426.999969L382.859314,427.173767L380.955261,427.173767L380.955261,429.083282L380.609222,429.372955L378.186127,429.372955L377.89801,429.083282L377.89801,427.173767L366.243591,427.173767L366.243591,429.083282L365.955505,429.372955L363.532379,429.372955L363.18634,429.083282L363.18634,427.173767L361.282288,427.173767L360.878326,426.999969L360.647369,426.47934L361.109283,422.544434C361.109283,421.92749,361.320679,421.425659,361.743439,421.039673C362.166992,420.615326,362.686066,420.403168,363.301422,420.403168L363.359375,420.403168z"/>
</svg>
