<?xml version="1.0" encoding="UTF-8"?>
<svg xmlns="http://www.w3.org/2000/svg" xmlns:xlink="http://www.w3.org/1999/xlink" width="25.636mm" height="17.838mm" viewBox="-350.025604 413.626007 25.635620 17.837830">
    <path transform="matrix(-1,0,0,1,0,0)" style="stroke:none;fill:#000000;fill-rule:evenodd" d="M330.022247,414.472321C329.460907,415.079865,329.180634,415.796234,329.180634,416.620636L329.180634,425.409576L324.389984,425.409576L324.389984,427.29718L336.36618,427.29718C336.539185,426.169006,337.035553,425.25769,337.855255,424.563263C338.718048,423.781921,339.710754,423.391235,340.832672,423.391235C341.955383,423.391235,342.926178,423.781921,343.74588,424.563263C344.609436,425.25769,345.126953,426.169006,345.299957,427.29718L350.025604,427.29718L350.025604,416.620636C350.025604,415.796234,349.745331,415.079865,349.18399,414.472321C348.579559,413.907867,347.86792,413.626007,347.047424,413.626007L332.093842,413.626007C331.273346,413.626007,330.582825,413.907867,330.022247,414.472321zM332.417175,416.555664L335.977844,416.555664L335.977844,420.787292L332.417175,420.787292L331.705505,420.526581L331.44635,419.811005L331.44635,417.531952L331.705505,416.816376L332.417175,416.555664M346.399963,416.555664L347.112396,416.816376L347.371552,417.531952L347.371552,419.811005L347.112396,420.526581L346.399963,420.787292L338.437744,420.787292L338.437744,416.555664L346.399963,416.555664z"/>
    <path transform="matrix(-1,0,0,1,0,0)" style="stroke:none;fill:#000000;fill-rule:evenodd" d="M343.292572,425.539551C342.602844,424.888947,341.782349,424.563263,340.832672,424.563263C339.883789,424.563263,339.063293,424.888947,338.372772,425.539551C337.682251,426.234009,337.336975,427.058411,337.336975,428.01355C337.336975,428.967926,337.682251,429.793091,338.372772,430.487549C339.063293,431.138153,339.883789,431.463837,340.832672,431.463837C341.782349,431.463837,342.602844,431.138153,343.292572,430.487549C343.940033,429.793091,344.26416,428.967926,344.26416,428.01355C344.26416,427.058411,343.940033,426.234009,343.292572,425.539551zM341.933441,426.906525C342.235657,427.210297,342.386749,427.579834,342.386749,428.01355C342.386749,428.447296,342.235657,428.81604,341.933441,429.119812C341.631256,429.424347,341.264832,429.576233,340.832672,429.576233C340.401306,429.576233,340.01297,429.424347,339.667694,429.119812C339.365509,428.81604,339.214386,428.447296,339.214386,428.01355C339.214386,427.579834,339.365509,427.210297,339.667694,426.906525C340.01297,426.559692,340.401306,426.385895,340.832672,426.385895C341.264832,426.385895,341.631256,426.559692,341.933441,426.906525z"/>
</svg>
