<?xml version="1.0" encoding="UTF-8"?>
<svg xmlns="http://www.w3.org/2000/svg" xmlns:xlink="http://www.w3.org/1999/xlink" width="25.632mm" height="18.640mm" viewBox="-315.161041 413.225006 25.632477 18.639526">
    <path transform="matrix(-1,0,0,1,0,0)" style="stroke:none;fill:#000000;fill-rule:evenodd" d="M297.841492,413.225006C296.725861,413.225006,295.78244,413.630554,295.012848,414.440857C294.204865,415.21283,293.800903,416.157776,293.800903,417.277344L293.800903,423.702698L290.914307,423.702698C290.529114,423.702698,290.201843,423.837341,289.932526,424.107452C289.663208,424.377563,289.528564,424.705597,289.528564,425.091583L289.528564,426.770142C289.528564,427.156128,289.663208,427.465363,289.932526,427.69632C290.201843,428.005585,290.529114,428.15979,290.914307,428.15979L301.190002,428.15979C301.382599,429.201843,301.882874,430.089691,302.690826,430.822479C303.537964,431.516937,304.500153,431.864532,305.577423,431.864532C306.693848,431.864532,307.675629,431.516937,308.521942,430.822479C309.329926,430.089691,309.830994,429.201843,310.022797,428.15979L313.775299,428.15979C314.160492,428.15979,314.487732,428.005585,314.75705,427.69632C315.026367,427.465363,315.161041,427.156128,315.161041,426.770142L315.161041,417.277344C315.161041,416.157776,314.775848,415.21283,314.006256,414.440857C313.198273,413.630554,312.255646,413.225006,311.177582,413.225006L297.841492,413.225006zM295.185852,417.277344C295.185852,416.543762,295.45517,415.907257,295.994598,415.367035C296.494873,414.865204,297.11026,414.614685,297.841492,414.614685L311.177582,414.614685C311.908813,414.614685,312.524963,414.865204,313.025269,415.367035C313.525543,415.907257,313.775299,416.543762,313.775299,417.277344L313.775299,426.770142L308.521942,426.770142L308.637817,427.523285C308.637817,428.371979,308.348938,429.10556,307.771149,429.722504C307.155792,430.301849,306.42453,430.590729,305.577423,430.590729C304.73111,430.590729,303.999878,430.301849,303.383728,429.722504C302.768341,429.10556,302.459869,428.371979,302.459869,427.523285L302.575745,426.770142L290.914307,426.770142L290.914307,425.091583L295.185852,425.091583L295.185852,417.277344z"/>
</svg>
