<?xml version="1.0" encoding="UTF-8"?>
<svg xmlns="http://www.w3.org/2000/svg" xmlns:xlink="http://www.w3.org/1999/xlink" width="25.454mm" height="14.406mm" viewBox="-280.208008 415.342499 25.453979 14.405579">
    <path transform="matrix(-1,0,0,1,0,0)" style="stroke:none;fill:#000000;fill-rule:evenodd" d="M255.965973,415.883514L255.427338,417.236359L254.754028,429.748077L258.861969,429.748077L258.861969,426.299347L261.083862,426.299347L261.083862,429.748077L280.208008,429.748077L279.60202,417.236359L278.996063,415.883514C278.681335,415.522583,278.255432,415.342499,277.716797,415.342499L257.312561,415.342499C256.819336,415.342499,256.369965,415.522583,255.965973,415.883514zM269.029602,417.844696L276.840698,417.844696L276.840698,420.414978L269.029602,420.414978L269.029602,417.844696zM258.457977,417.844696L266.269073,417.844696L266.269073,420.414978L258.457977,420.414978L258.457977,417.844696z"/>
</svg>
