<?xml version="1.0" encoding="UTF-8"?>
<svg xmlns="http://www.w3.org/2000/svg" xmlns:xlink="http://www.w3.org/1999/xlink" width="25.654mm" height="15.417mm" viewBox="-245.445007 414.836853 25.654404 15.417053">
    <path transform="matrix(-1,0,0,1,0,0)" style="stroke:none;fill:#000000;fill-rule:evenodd" d="M221.356415,415.740326C220.754364,416.30246,220.452942,417.00473,220.452942,417.8479L219.790604,430.253906L245.445007,430.253906L244.722382,417.8479C244.722382,417.00473,244.420959,416.30246,243.818909,415.740326C243.216843,415.138245,242.514572,414.836853,241.711304,414.836853L223.524292,414.836853C222.681107,414.836853,221.958481,415.138245,221.356415,415.740326zM222.32019,416.704071C222.641174,416.383087,223.042816,416.221802,223.524292,416.221802L241.711304,416.221802C242.152863,416.221802,242.554504,416.383087,242.915421,416.704071C243.237198,417.025085,243.39769,417.406342,243.39769,417.8479L243.999756,428.92923L226.836792,428.92923L226.836792,425.918152L224.848984,425.918152L224.848984,428.92923L221.235855,428.92923L221.837906,417.8479C221.837906,417.406342,221.998413,417.025085,222.32019,416.704071zM240.868118,418.449982L234.002777,418.449982L234.002777,420.678131L240.868118,420.678131L240.868118,418.449982zM231.413681,418.449982L224.488068,418.449982L224.488068,420.678131L231.413681,420.678131L231.413681,418.449982"/>
</svg>
