<?xml version="1.0" encoding="UTF-8"?>
<svg xmlns="http://www.w3.org/2000/svg" xmlns:xlink="http://www.w3.org/1999/xlink" width="25.643mm" height="32.870mm" viewBox="-528.000488 63.667099 25.643433 32.869705">
    <path transform="matrix(-1,0,0,1,0,0)" style="stroke:none;fill:#000000;fill-rule:evenodd" d="M504.214905,69.737785L503.695038,70.699982C503.100037,71.98317,502.703888,73.365013,502.505798,74.84549L502.357056,76.548325L502.357056,77.510521L502.579407,78.695061C502.778259,79.238403,503.149353,79.608719,503.695038,79.806015L504.363647,79.806015L504.214905,80.620239L504.363647,81.582436L503.695038,82.100723L503.546295,82.248695L503.248779,83.137299L503.248779,83.285263L503.174408,85.136063L503.695038,86.542953L504.140533,87.061241C504.487366,87.357185,504.958679,88.146355,505.552887,89.42955C506.197235,90.712738,506.519012,91.601341,506.519012,92.094574C506.569122,93.328445,506.865845,94.390068,507.41153,95.278671C507.956421,96.067841,508.625031,96.462433,509.418121,96.462433L512.911499,96.536804L513.283325,96.462433L513.729614,96.536804L513.951965,96.536804L517.074219,96.38884L519.378296,94.833977C520.220703,93.846725,520.790649,92.810936,521.088196,91.725037L522.203064,89.799866L523.466675,87.801094L523.541016,87.578751L524.209656,87.578751L525.324524,87.282806L525.993896,86.394203L526.440186,85.727951C527.282593,84.88945,527.802429,83.679855,528.000488,82.100723L528.000488,79.139755C527.901855,78.59642,527.60437,78.152504,527.108765,77.807243L527.034363,77.807243L525.622009,77.288956L525.398865,73.957672L524.4328,70.55201L522.946045,68.034958C521.856201,66.554474,520.369446,65.41925,518.486572,64.629295L518.486572,64.555702L517.074219,64.111008L513.804016,63.667099L513.580872,63.741474L512.911499,63.741474C512.415894,63.741474,512.019714,63.913715,511.722229,64.25898C511.32608,64.605026,511.127991,65.024666,511.127991,65.517899L511.127991,66.25853L510.235474,65.961807L509.790009,66.036186C507.064697,66.628067,505.206055,67.861931,504.214905,69.737785zM512.911499,65.517899L513.804016,65.44352L516.62793,65.813843L517.8172,66.184158C519.403381,66.924789,520.641907,67.911255,521.533691,69.145126L522.723694,71.292648L523.615417,74.253616L523.838562,76.104416L523.838562,78.843819L523.392273,81.952751L521.831177,86.98687L520.493164,89.133606C519.898926,89.972885,519.527039,90.688469,519.378296,91.28035C519.13092,92.168953,518.635315,92.983177,517.891541,93.723816L516.62793,94.686005L513.951965,94.760384L513.729614,94.760384L513.060242,93.501465L512.911499,94.760384L509.492493,94.686005L508.823883,94.019753L508.303253,92.020981C508.253937,91.28035,507.856995,90.145126,507.114014,88.615326C506.420349,87.184158,505.825348,86.221962,505.329773,85.727951C504.982941,85.432007,504.884277,84.642838,505.033051,83.359642L505.106628,83.137299L505.478516,83.137299C506.073517,83.729179,506.791443,84.025902,507.633881,84.025902C508.426971,84.025902,509.120605,83.778503,509.715637,83.285263L510.607361,87.505157L513.50647,87.505157L514.17511,87.134834L514.770081,86.838898L515.289978,87.061241L515.959351,86.690926L515.810608,86.024673L515.364319,85.727951L515.289978,85.802322C515.587463,86.048943,515.661804,86.344879,515.513062,86.690926C515.414429,86.493637,515.215576,86.394203,514.918823,86.394203L514.621338,86.394203C514.274536,86.838898,513.778931,87.061241,513.134583,87.061241L512.168457,86.542953L512.168457,81.064148C512.168457,79.583664,511.351135,78.645737,509.715637,78.251152L505.478516,78.028809L504.214905,78.028809L504.289276,75.067841C504.537445,73.340744,505.033051,71.835205,505.776031,70.55201C506.519012,69.170174,508.005737,68.232246,510.235474,67.739014L510.161102,75.659721L510.607361,76.844261C510.954193,77.140984,511.32608,77.288956,511.722229,77.288956L512.98584,77.288956L512.911499,65.517899zM515.067627,88.689697L514.026306,88.393753L513.50647,88.541733L509.86438,88.541733L509.86438,91.206757L513.729614,91.206757L514.398193,91.650665L514.398193,91.577072L514.918823,90.984406L514.621338,90.170181L514.026306,90.392525L510.756104,90.392525L510.756104,89.355957L514.17511,89.355957L517.074219,89.947838C516.974792,89.84919,516.851074,89.158661,516.702332,87.875473C516.553589,87.974121,516.454895,88.319382,516.405579,88.911263L516.033691,89.060013L515.067627,88.689697zM514.993225,78.917412C514.794373,78.917412,514.69574,79.189079,514.69574,79.731636L514.398193,80.620239C514.299561,81.21212,514.472595,81.706139,514.918823,82.100723C515.810608,82.890678,517.074219,83.285263,518.709717,83.285263L518.858459,83.285263C519.502014,83.235947,520.171387,82.964272,520.865051,82.471039L520.939453,82.396667L521.756775,81.286499C521.905518,80.743942,521.806885,80.249924,521.460083,79.806015L520.865051,79.213348L521.088196,79.213348L521.31134,79.287727L521.905518,79.36132C522.30249,79.36132,522.351807,79.262672,522.054321,79.065384L521.162537,78.621468L520.27002,78.325531L519.675842,78.473503L518.486572,78.621468L515.067627,78.917412L514.993225,78.917412z"/>
</svg>
