<?xml version="1.0" encoding="UTF-8"?>
<svg xmlns="http://www.w3.org/2000/svg" xmlns:xlink="http://www.w3.org/1999/xlink" width="21.811mm" height="29.994mm" viewBox="-173.797455 407.548401 21.811172 29.994019">
    <path transform="matrix(-1,0,0,1,0,0)" style="stroke:none;fill:#000000;fill-rule:evenodd" d="M162.919312,407.548401C162.376022,407.548401,161.946548,407.750946,161.629532,408.156036L160.136536,409.980286L159.797165,410.791138L157.556992,429.571411C155.067535,430.787354,153.257523,432.67868,152.126251,435.246033C151.900009,435.785919,151.945389,436.304138,152.261734,436.799316C152.578766,437.295166,153.031265,437.542419,153.619934,437.542419L172.15094,437.542419C172.739609,437.542419,173.214462,437.295166,173.576874,436.799316C173.848511,436.304138,173.870865,435.785919,173.644608,435.246033C172.558746,432.67868,170.748047,430.787354,168.213882,429.571411L165.973709,410.791138L165.634338,409.980286L164.209076,408.156036C163.847351,407.750946,163.417191,407.548401,162.919312,407.548401zM161.426315,410.993683L162.919312,409.169434L164.344559,410.993683L166.720886,430.651886C169.255051,431.642914,171.065063,433.399414,172.15094,435.921387L153.619934,435.921387C154.75119,433.399414,156.583557,431.642914,159.117722,430.651886L161.426315,410.993683z"/>
</svg>
