<?xml version="1.0" encoding="UTF-8"?>
<svg xmlns="http://www.w3.org/2000/svg" xmlns:xlink="http://www.w3.org/1999/xlink" width="25.648mm" height="23.650mm" viewBox="-490.078857 447.013000 25.648132 23.650146">
    <path transform="matrix(-1,0,0,1,0,0)" style="stroke:none;fill:#000000;fill-rule:evenodd" d="M464.430725,451.566406L465.175262,452.925537L466.055267,452.382202L466.055267,470.663147L469.641785,470.663147L469.641785,463.799377L473.972839,463.799377L473.972839,470.663147L480.401306,470.663147L480.401306,463.799377L484.867828,463.799377L484.867828,470.663147L488.318878,470.663147L488.318878,454.216553L489.198883,454.760681L490.078857,453.468872L482.634949,448.711914L478.709442,451.294739L471.807312,447.013L464.430725,451.566406zM481.957733,457.615173L478.371216,457.615173L478.371216,453.944885L481.957733,453.944885L481.957733,457.615173zM471.130096,453.944885L471.130096,457.615173L467.476257,457.615173L467.476257,453.944885L471.130096,453.944885zM472.483734,457.615173L472.483734,453.944885L476.138367,453.944885L476.138367,457.615173L472.483734,457.615173M486.966003,453.944885L486.966003,457.615173L483.244049,457.615173L483.244049,453.944885L486.966003,453.944885z"/>
</svg>
