<?xml version="1.0" encoding="UTF-8"?>
<svg xmlns="http://www.w3.org/2000/svg" xmlns:xlink="http://www.w3.org/1999/xlink" width="25.654mm" height="23.049mm" viewBox="-455.324005 447.313995 25.654419 23.048889">
    <path transform="matrix(-1,0,0,1,0,0)" style="stroke:none;fill:#000000;fill-rule:evenodd" d="M437.777405,447.313995L429.669586,452.352814L431.638611,455.479736L431.638611,470.362885L453.297058,470.362885L453.297058,456.927338L455.324005,453.974213L447.043152,448.819519L443.625763,450.962372L437.777405,447.313995zM432.217957,453.91629L431.522736,452.757568L437.777405,448.877472L443.683685,452.525818L447.043152,450.325867L453.412933,454.378967L452.717682,455.479736L451.965332,455.016266L451.965332,469.030365L448.953461,469.030365L448.953461,463.182037L445.190002,463.182037L445.190002,469.030365L439.630554,469.030365L439.630554,463.182037L435.866333,463.182037L435.866333,469.030365L432.912415,469.030365L432.912415,453.452789L432.217957,453.91629zM446.463806,454.784515L443.394806,454.784515L443.394806,457.912262L446.463806,457.912262L446.463806,454.784515zM437.198059,457.912262L437.198059,454.784515L434.129059,454.784515L434.129059,457.912262L437.198059,457.912262zM450.748688,457.912262L450.748688,454.784515L447.621735,454.784515L447.621735,457.912262L450.748688,457.912262zM438.298065,457.912262L441.483704,457.912262L441.483704,454.784515L438.298065,454.784515L438.298065,457.912262"/>
</svg>
