<?xml version="1.0" encoding="UTF-8"?>
<svg xmlns="http://www.w3.org/2000/svg" xmlns:xlink="http://www.w3.org/1999/xlink" width="25.654mm" height="31.453mm" viewBox="-420.566010 443.112061 25.654419 31.452637">
    <path transform="matrix(-1,0,0,1,0,0)" style="stroke:none;fill:#000000;fill-rule:evenodd" d="M407.655823,443.112061L407.155548,444.194031L406.406281,446.107483C403.129822,446.495789,400.40921,447.966095,398.243652,450.517609C396.022552,453.013519,394.911591,456.008942,394.911591,459.503845C394.911591,462.887604,396.022552,465.882996,398.243652,468.490875C400.40921,470.986786,403.102417,472.428925,406.32251,472.81723L406.32251,473.233765L406.656036,474.231964L407.655823,474.564697L408.654816,474.231964L409.15509,473.233765L409.15509,472.81723C412.430786,472.428925,415.123993,470.986786,417.233948,468.490875C419.455048,465.882996,420.56601,462.887604,420.56601,459.503845C420.56601,456.008942,419.427643,453.013519,417.15094,450.517609C414.985413,447.966095,412.264801,446.495789,408.988342,446.107483L408.238312,444.194031L407.655823,443.112061M409.404846,453.596008C410.681763,454.206665,411.320618,455.204895,411.320618,456.591431C411.320618,457.978729,410.681763,459.005127,409.404846,459.670624L409.404846,453.596008zM404.156982,456.591431C404.156982,455.204895,404.795837,454.206665,406.072784,453.596008L406.072784,459.670624C404.795837,459.005127,404.156982,457.978729,404.156982,456.591431zM410.904114,452.01532L409.404846,451.432831L409.404846,447.688171C411.737122,448.187653,413.652924,449.325226,415.152191,451.100098C416.707031,452.819366,417.484467,454.899567,417.484467,457.340668C417.484467,459.670624,416.707031,461.722626,415.152191,463.49826C413.652924,465.328705,411.737122,466.410675,409.404846,466.743439L409.404846,463.331512L409.654602,463.748016L410.987091,463.248505L410.570587,461.584045L410.570587,461.501068L410.654358,461.41806L412.069855,460.33609L412.153625,460.253082L413.818878,461.001556L414.485931,459.836578L413.152618,458.838379L413.069641,458.755402L413.152618,458.671631L413.486145,456.758179L413.486145,456.675201L413.569153,456.675201L415.152191,456.258698L414.985413,454.844757L413.236389,454.927734L413.236389,454.844757L412.319611,453.180298L412.236633,453.09729L412.319611,452.930542L413.236389,451.848541L412.153625,450.933319L410.904114,452.098297L410.904114,452.01532zM403.323975,450.933319L402.241211,451.848541L403.15799,452.930542L403.240997,453.09729L403.15799,453.180298L402.241211,454.844757L402.241211,454.927734L402.158234,454.927734L400.492188,454.844757L400.325439,456.258698L401.908478,456.675201L401.991455,456.675201L401.991455,456.758179L402.407959,458.671631L402.407959,458.755402L402.324982,458.838379L400.991699,459.836578L401.741699,461.001556L403.323975,460.253082L403.407745,460.33609L404.823242,461.41806L404.907013,461.501068L404.907013,461.584045L404.490509,463.248505L405.823029,463.748016L406.072784,463.331512L406.072784,466.743439C403.740479,466.410675,401.797302,465.328705,400.242432,463.49826C398.743164,461.722626,397.993134,459.670624,397.993134,457.340668C397.993134,454.899567,398.743164,452.819366,400.242432,451.100098C401.797302,449.325226,403.740479,448.187653,406.072784,447.688171L406.072784,451.432831L404.657257,452.01532L404.490509,452.098297L404.490509,452.01532L403.323975,450.933319z"/>
</svg>
