<?xml version="1.0" encoding="UTF-8"?>
<svg xmlns="http://www.w3.org/2000/svg" xmlns:xlink="http://www.w3.org/1999/xlink" width="25.654mm" height="30.631mm" viewBox="-385.808014 443.523224 25.654419 30.630585">
    <path transform="matrix(-1,0,0,1,0,0)" style="stroke:none;fill:#000000;fill-rule:evenodd" d="M371.603668,444.319458L370.58902,446.347198C367.593597,446.878021,365.10553,448.3992,363.124756,450.90921C361.143982,453.275177,360.153595,456.099121,360.153595,459.381866C360.153595,462.471222,361.11972,465.270935,363.052734,467.781708C364.936401,470.243195,367.352478,471.788635,370.299347,472.415771L371.458832,473.719299L372.980804,474.153809L374.574829,473.719299L375.662292,472.415771C378.609161,471.788635,381.025208,470.243195,382.908905,467.781708C384.841888,465.270935,385.808014,462.471222,385.808014,459.381866C385.808014,456.099121,384.817627,453.275177,382.836884,450.90921C380.90387,448.3992,378.415771,446.878021,375.372589,446.347198L374.357941,444.319458L372.980804,443.523224L371.603668,444.319458M371.894135,447.723541L372.546295,446.057526L372.980804,445.116455L373.415314,446.057526L374.067505,447.723541C376.8703,448.060974,379.261322,449.340271,381.242065,451.561371C383.175079,453.733154,384.141205,456.340271,384.141205,459.381866C384.141205,462.277863,383.175079,464.884949,381.242065,467.202362C379.309845,469.374939,376.942322,470.629944,374.140289,470.967377L374.140289,471.329865L373.777802,472.198883C373.584442,472.391479,373.319031,472.488586,372.980804,472.488586L372.110992,472.198883L371.82132,471.329865L371.82132,470.967377C369.019287,470.629944,366.676025,469.374939,364.791565,467.202362C362.810791,464.884949,361.820435,462.277863,361.820435,459.381866C361.820435,456.340271,362.810791,453.733154,364.791565,451.561371C366.676025,449.340271,369.043549,448.060974,371.894135,447.723541zM376.02478,456.846802C376.02478,455.64035,375.468903,454.771301,374.357941,454.240509L374.357941,459.526703C375.468903,458.947357,376.02478,458.054047,376.02478,456.846802zM371.603668,454.240509C370.492706,454.771301,369.936859,455.64035,369.936859,456.846802C369.936859,458.054047,370.492706,458.947357,371.603668,459.526703L371.603668,454.240509zM374.357941,452.357605L375.589478,452.864136L375.662292,452.936951L376.748962,451.923096L377.618774,452.719299L376.894592,453.661133L376.821777,453.805969L376.894592,453.878021L377.691589,455.326385L377.691589,455.3992L379.213562,455.326385L379.43042,456.557922L377.981262,456.919617L377.908447,456.919617L377.908447,456.991638L377.618774,458.657684L377.546753,458.729706L377.618774,458.802521L378.778259,459.671539L378.198914,460.685425L376.748962,460.033264L376.676941,460.106049L375.444641,461.047119L375.372589,461.119141L375.372589,461.191956L375.734314,462.64035L374.574829,463.07486L374.357941,462.712372L374.357941,465.681152C376.387268,465.391479,378.077545,464.450439,379.43042,462.857208C380.783295,461.312531,381.459717,459.526703,381.459717,457.498962C381.459717,455.374939,380.783295,453.56485,379.43042,452.067932C378.077545,450.523224,376.387268,449.53363,374.357941,449.099121L374.357941,452.357605zM369.139862,453.805969L369.067047,453.661133L368.27005,452.719299L369.212677,451.923096L370.227325,452.864136L370.227325,452.936951L370.372162,452.864136L371.603668,452.357605L371.603668,449.099121C369.526611,449.53363,367.83551,450.523224,366.531189,452.067932C365.178314,453.56485,364.501892,455.374939,364.501892,457.498962C364.501892,459.526703,365.178314,461.312531,366.531189,462.857208C367.83551,464.450439,369.526611,465.391479,371.603668,465.681152L371.603668,462.712372L371.458832,463.07486L370.227325,462.64035L370.516998,461.191956L370.58902,461.119141L370.516998,461.047119L369.284698,460.106049L369.212677,460.033264L367.762726,460.685425L367.18335,459.671539L368.342834,458.802521L368.414886,458.729706L368.414886,458.657684L368.053162,456.991638L367.980347,456.919617L367.907562,456.919617L366.60321,456.557922L366.748047,455.326385L368.197998,455.3992L368.27005,455.3992L368.27005,455.326385L369.067047,453.878021L369.139862,453.805969z"/>
</svg>
