<?xml version="1.0" encoding="UTF-8"?>
<svg xmlns="http://www.w3.org/2000/svg" xmlns:xlink="http://www.w3.org/1999/xlink" width="25.654mm" height="25.654mm" viewBox="-351.049988 446.010986 25.654419 25.654419">
    <path transform="matrix(-1,0,0,1,0,0)" style="stroke:none;fill:#000000;fill-rule:evenodd" d="M326.497131,449.703979L330.254333,453.785278L329.411926,469.268127L332.003357,471.665405L335.30722,460.652191C335.523315,460.133911,335.804382,459.874756,336.149628,459.874756C336.408783,459.788635,336.754059,459.939758,337.186218,460.328064L342.49826,465.12262L342.434052,468.555664L344.377228,470.434662L345.542999,467.324951C346.752594,468.188477,347.465027,468.534546,347.681122,468.361511L347.746094,468.231537L347.356995,467.130768L346.709534,466.158417L349.819244,464.927673L347.940277,463.049469L344.507202,463.113647L339.712677,457.736633C339.324341,457.305237,339.173248,456.959198,339.259369,456.700073C339.259369,456.440918,339.518494,456.181763,340.036774,455.922638L345.932098,454.108643L351.049988,452.618744L348.65271,450.027313L333.23407,450.86972C331.593109,449.141846,330.232391,447.889984,329.152771,447.112549C328.46225,446.637329,327.641754,446.313202,326.691284,446.140167L325.460571,446.010986L325.395569,446.075958L325.52475,447.306702C325.697784,448.213318,326.021912,449.012665,326.497131,449.703979z"/>
</svg>
