<?xml version="1.0" encoding="UTF-8"?>
<svg xmlns="http://www.w3.org/2000/svg" xmlns:xlink="http://www.w3.org/1999/xlink" width="25.294mm" height="25.432mm" viewBox="-316.110840 446.121948 25.293823 25.432068">
    <path transform="matrix(-1,0,0,1,0,0)" style="stroke:none;fill:#000000;fill-rule:evenodd" d="M296.226929,447.382446C295.087799,446.542389,293.777985,446.121948,292.297485,446.121948L292.240356,446.121948C291.860626,446.121948,291.557648,446.275391,291.329834,446.58075L291.272675,446.637878C290.968903,446.867279,290.817017,447.172607,290.817017,447.553894C290.817017,449.08136,291.215515,450.437347,292.012512,451.621124L295.087799,455.000153L294.404297,468.002747C294.36673,468.422363,294.499054,468.784851,294.802795,469.090973L297.081085,471.210327L297.991608,471.554016L298.3909,471.554016C298.884125,471.400574,299.187897,471.076447,299.301422,470.580078L302.035339,461.530426L305.850464,464.966614L305.850464,467.429626C305.850464,467.849274,305.982758,468.174194,306.248962,468.403595L307.900116,470.12207C308.203888,470.389038,308.526459,470.522919,308.868591,470.522919L309.152771,470.464996C309.64679,470.350677,309.96936,470.064148,310.121246,469.60614L310.63327,468.403595L311.658875,468.690125C312.076172,468.690125,312.437073,468.536682,312.740845,468.231354L312.797211,468.174194C313.328827,467.639465,313.385986,466.933289,312.967896,466.05484L314.164185,465.539703C314.65741,465.348663,314.942383,465.023743,315.018341,464.565765C315.131866,464.069397,314.999542,463.648956,314.619843,463.305267L312.967896,461.644714C312.702484,461.376953,312.379944,461.243866,312.000214,461.243866L309.55127,461.243866L306.134644,457.406036L315.131866,454.713623C315.625885,454.560944,315.929657,454.236816,316.043182,453.740448C316.195068,453.24408,316.100311,452.804871,315.758179,452.422821L313.651367,450.189178C313.347595,449.88385,313.006256,449.731171,312.626556,449.731171L299.643555,450.417786C298.163055,448.92868,297.023926,447.917175,296.226929,447.382446zM292.297485,448.642914L292.18396,447.611816L292.297485,447.496735C293.474213,447.496735,294.518616,447.821655,295.429138,448.470673C296.416382,449.158081,297.612671,450.265106,299.017212,451.792572L312.626556,451.105164L314.733368,453.3396L310.291901,454.656464L305.109833,456.260651C304.654175,456.489258,304.407562,456.737427,304.369965,457.005188C304.331604,457.234589,304.464722,457.539917,304.768463,457.921204L308.982086,462.618652L312.000214,462.618652L313.651367,464.279205L310.918243,465.367462L311.487427,466.169159C311.829559,466.742249,311.943054,467.085938,311.829559,467.200256L311.7724,467.258179L311.658875,467.315338L309.950562,466.39856L308.868591,469.148132L307.216644,467.429626L307.216644,464.394287L302.547363,460.155609C302.206024,459.849518,301.921021,459.696838,301.693207,459.696838C301.389435,459.696838,301.124023,459.9646,300.89621,460.499329L297.991608,470.17923L295.771271,468.059875L296.454742,454.427856C294.935913,452.976318,293.835144,451.773773,293.151642,450.819427C292.734375,450.207947,292.449371,449.483002,292.297485,448.642914z"/>
</svg>
