<?xml version="1.0" encoding="UTF-8"?>
<svg xmlns="http://www.w3.org/2000/svg" xmlns:xlink="http://www.w3.org/1999/xlink" width="25.470mm" height="35.706mm" viewBox="-281.441223 440.985199 25.469818 35.706146">
    <path transform="matrix(-1,0,0,1,0,0)" style="stroke:none;fill:#000000;fill-rule:evenodd" d="M261.290771,445.899536L261.042603,446.544647C260.677765,447.504517,260.612,448.480804,260.84375,449.473511C261.042603,450.467041,261.506866,451.277344,262.235748,451.906036C259.252869,452.80011,257.264282,454.40509,256.269989,456.72171C256.037445,457.118652,255.938019,457.466248,255.971695,457.764557L256.269989,458.657837C256.76712,459.915192,257.429474,460.941589,258.258575,461.735474L258.358002,462.629547L259.003906,463.175232L258.755707,463.72171C258.722046,463.986328,258.855133,464.184418,259.153442,464.317505L259.998199,464.366821L259.003906,473.004669C258.473877,473.136993,257.943054,473.368744,257.413025,473.69989L256.71701,474.295715C256.71701,474.824951,257.214172,475.089569,258.208466,475.089569L260.346588,474.890717L261.042603,474.642517L261.241455,474.593201L261.589081,474.84137L262.385284,474.593201L262.584137,473.749237L262.584137,473.69989L262.931763,473.550354L263.57843,470.324005C263.810181,469.231842,264.257233,468.07312,264.920349,466.848663L266.809509,471.117859C267.240906,472.04483,267.572083,472.955353,267.803802,473.848663L267.903229,474.245605L268.201538,474.444458C268.235199,475.006592,268.466949,475.503723,268.898315,475.933533C269.328918,476.397034,269.82608,476.645203,270.389771,476.678101C270.9198,476.777527,271.284637,476.364136,271.48349,475.437195C271.549255,475.040253,271.467041,474.676208,271.234528,474.345032L271.48349,474.196259L271.532806,473.153442L271.48349,471.515594C271.350403,470.025696,270.952667,467.824951,270.290344,464.912506L270.140808,464.068542C269.743073,461.421509,269.710205,458.989014,270.041382,456.771027C272.228821,456.241791,274.117981,455.29837,275.709656,453.941589C277.532257,452.353058,278.510101,450.565674,278.642426,448.580231L279.139557,447.88501C279.537292,447.289215,279.918579,446.97525,280.283417,446.942383C281.145386,446.875824,281.525879,446.594757,281.426453,446.098389C281.327026,445.60202,281.062408,445.3703,280.631012,445.403168C280.266968,445.403168,279.869232,445.551941,279.437866,445.85022C279.139557,446.147736,278.974365,446.214264,278.940704,446.048279C278.841278,445.85022,278.891388,445.667786,279.09024,445.502594L279.587402,445.154999C279.95224,444.856689,280.151093,444.575653,280.18396,444.311005C280.316284,443.880402,280.133881,443.649445,279.636719,443.615784C279.173248,443.615784,278.808411,443.731659,278.542999,443.963409C278.24469,444.261688,277.996521,444.790924,277.797668,445.551941L277.846985,444.608521L278.145264,443.71521C278.178955,443.450592,278.079498,443.25174,277.846985,443.119415L277.20108,443.169525C276.736816,443.499908,276.471405,443.963409,276.40564,444.559204L276.35553,445.998962L276.107361,445.750793C275.841949,445.551941,275.510773,445.551941,275.112274,445.750793C274.714569,445.915985,274.582245,446.180603,274.714569,446.544647L275.460663,447.289215C275.79184,447.422302,275.990692,447.537384,276.057251,447.63681L276.206787,448.034546C275.344818,449.490753,274.334076,450.467041,273.173798,450.963409L268.002686,451.161469L268.649353,450.467041L268.698669,450.467041C269.097168,450.499908,269.444794,450.301056,269.743073,449.871246C270.008484,449.407776,270.024933,448.993591,269.793182,448.629547L269.59433,448.580231L269.743073,448.431458C270.008484,448.100311,270.223785,447.571045,270.389771,446.842957C270.654388,446.015411,270.688049,445.303741,270.489197,444.707947C270.124359,443.748108,269.710205,443.185974,269.245941,443.019989L268.798889,442.474304L268.351074,441.87851L267.306671,441.580231L266.959045,441.282715C266.727325,441.083862,266.51123,440.985199,266.312378,440.985199L266.212952,440.985199C265.981201,440.985199,265.682922,441.199738,265.318085,441.630341C265.218628,441.762634,265.019775,441.829193,264.721497,441.829193L264.075592,441.87851C263.777313,441.911407,263.495453,442.093811,263.230042,442.424194L262.882446,442.77182L262.484711,442.871246C262.285065,442.871246,262.152771,442.805481,262.086212,442.672394C262.020447,442.54007,262.086212,442.325562,262.285065,442.027252L262.285065,441.977936L261.787933,442.226135L261.191345,442.82193C261.026154,443.25174,261.042603,443.665894,261.241455,444.062836C260.943176,444.360352,260.860168,444.758057,260.992493,445.254425L261.290771,445.899536"/>
</svg>
