<?xml version="1.0" encoding="UTF-8"?>
<svg xmlns="http://www.w3.org/2000/svg" xmlns:xlink="http://www.w3.org/1999/xlink" width="25.654mm" height="25.654mm" viewBox="-246.774994 446.010986 25.654404 25.654419">
    <path transform="matrix(-1,0,0,1,0,0)" style="stroke:none;fill:#000000;fill-rule:evenodd" d="M224.888733,449.779144C222.376373,452.264099,221.12059,455.283783,221.12059,458.838196C221.12059,462.365997,222.376373,465.385681,224.888733,467.897247C227.373688,470.409607,230.393372,471.665405,233.947784,471.665405C237.502197,471.665405,240.521881,470.409607,243.006851,467.897247C245.519211,465.385681,246.774994,462.365997,246.774994,458.838196C246.774994,455.283783,245.519211,452.264099,243.006851,449.779144C240.521881,447.266785,237.502197,446.010986,233.947784,446.010986C230.393372,446.010986,227.373688,447.266785,224.888733,449.779144zM236.273041,454.669189C236.273041,453.94812,236.526703,453.333557,237.034027,452.825439C237.54213,452.317322,238.170029,452.06366,238.918488,452.06366C239.639542,452.06366,240.254135,452.317322,240.762238,452.825439C241.270355,453.333557,241.524017,453.94812,241.524017,454.669189C241.524017,455.417664,241.270355,456.045563,240.762238,456.55365C240.254135,457.060974,239.639542,457.314636,238.918488,457.314636C238.170029,457.314636,237.54213,457.060974,237.034027,456.55365C236.526703,456.045563,236.273041,455.417664,236.273041,454.669189zM229.017029,457.314636C228.295959,457.314636,227.66806,457.060974,227.133331,456.55365C226.625229,456.045563,226.371567,455.417664,226.371567,454.669189C226.371567,453.94812,226.625229,453.333557,227.133331,452.825439C227.66806,452.317322,228.295959,452.06366,229.017029,452.06366C229.738861,452.06366,230.353455,452.317322,230.861557,452.825439C231.395508,453.333557,231.663254,453.94812,231.663254,454.669189C231.663254,455.417664,231.395508,456.045563,230.861557,456.55365C230.353455,457.060974,229.738861,457.314636,229.017029,457.314636zM225.008514,461.042877L226.452209,461.042877C227.040176,461.764709,228.042297,462.41922,229.458588,463.007202C231.007965,463.675018,232.504883,464.009308,233.947784,464.009308C235.417313,464.009308,236.874313,463.714935,238.317215,463.126984C239.626236,462.566406,240.669083,461.871185,241.443375,461.042877L242.887054,461.042877C242.245071,462.93985,241.109848,464.463409,239.479828,465.612701C237.822418,466.815277,235.978653,467.416534,233.947784,467.416534C231.916916,467.416534,230.073166,466.815277,228.415741,465.612701C226.785721,464.463409,225.650513,462.93985,225.008514,461.042877z"/>
</svg>
