<?xml version="1.0" encoding="UTF-8"?>
<svg xmlns="http://www.w3.org/2000/svg" xmlns:xlink="http://www.w3.org/1999/xlink" width="25.211mm" height="24.631mm" viewBox="-492.343567 67.786682 25.210999 24.630577">
    <path transform="matrix(-1,0,0,1,0,0)" style="stroke:none;fill:#000000;fill-rule:evenodd" d="M479.673248,76.767662L478.782288,76.895279C478.484772,77.150513,478.463654,77.448799,478.718079,77.78936L478.272614,77.725945L477.890564,77.981178C477.593842,78.321739,477.593842,78.620033,477.890564,78.875259L477.890564,78.939461C477.509277,78.768784,477.211761,78.854118,476.999603,79.194687C476.745148,79.492973,476.766296,79.769341,477.063019,80.025352L476.999603,80.088768L476.554138,80.025352L476.172058,80.34478C475.917603,80.642288,475.938751,80.940575,476.235474,81.238869L476.235474,81.303062L475.281097,81.430679C475.025879,81.728188,475.00473,82.026474,475.216919,82.32476L475.216919,82.388962L474.453583,82.644188L473.752869,83.155426C474.813721,83.283043,475.811157,83.687805,476.745148,84.368942L479.100159,86.221306L480.500763,85.901878C481.816833,85.901878,482.898834,86.497673,483.747498,87.690048L483.938538,88.009476L484.320587,87.626633L485.657013,86.476532C486.251251,86.093697,486.84549,85.901878,487.439697,85.901878C488.330658,85.901878,489.137054,86.200165,489.858917,86.795959C491.216461,85.688927,492.022858,84.390076,492.278107,82.899414C492.617096,80.727623,491.640808,78.811844,489.349243,77.150513C487.524261,75.915855,486.187836,74.894157,485.339172,74.084633C484.108429,73.019875,483.471924,72.125793,483.428864,71.401596C483.344299,70.975693,483.556488,70.528656,484.066162,70.060471L486.675598,69.932854L488.076202,70.954559C489.094788,72.359879,489.77356,73.019875,490.113342,72.935318L489.731293,71.912834C489.349243,71.317039,489.285797,70.933418,489.540253,70.763527C489.794708,70.59285,489.858917,70.273422,489.731293,69.805244L489.476837,69.102188C488.755005,68.378777,487.77948,67.952873,486.548767,67.824478C485.148132,67.654587,483.980804,68.03743,483.047577,68.974579C482.24118,69.741043,481.880249,70.59285,481.964813,71.529991C482.05014,72.551689,482.707794,73.65873,483.938538,74.851097L488.458282,78.428215C489.561401,79.152412,490.283234,79.982292,490.622253,80.919441C490.919739,82.069534,490.516541,82.836006,489.413422,83.218849C488.267242,83.55941,487.58847,83.261909,487.376282,82.32476C486.951965,80.535812,485.593597,78.8964,483.302032,77.406517C481.264893,76.043472,480.097565,75.511093,479.800842,75.80938C479.46106,76.064613,479.418793,76.384041,479.673248,76.767662z"/>
    <path transform="matrix(-1,0,0,1,0,0)" style="stroke:none;fill:#000000;fill-rule:evenodd" d="M488.203827,90.692505L488.267242,90.820122C488.946014,91.88488,489.81662,92.417259,490.877472,92.417259L491.705017,92.417259L491.705017,90.500694L490.877472,90.500694L490.176758,89.926041L490.049927,89.606613C489.370361,88.584915,488.500549,88.073669,487.439697,88.073669C486.930023,88.073669,486.442291,88.243561,485.975677,88.584915L484.829498,89.606613L483.875122,90.500694L483.302032,89.926041L483.110992,89.606613C482.474487,88.584915,481.582764,88.073669,480.437347,88.073669C479.970734,88.073669,479.503357,88.243561,479.036743,88.584915L477.890564,89.606613L476.936188,90.500694L476.363098,89.926041L476.235474,89.606613C475.556702,88.584915,474.665741,88.073669,473.561829,88.073669C472.798492,88.073669,471.927917,88.584915,470.952393,89.606613L469.997253,90.500694L469.297333,90.500694L469.297333,92.417259L470.124878,92.417259C470.591492,92.417259,471.036957,92.246582,471.461304,91.906021L472.607483,90.884323L473.561829,89.990234L474.134918,90.308884L474.389374,90.692505L474.453583,90.820122C475.047791,91.88488,475.896484,92.417259,476.999603,92.417259C477.466217,92.417259,477.933624,92.246582,478.400238,91.906021L479.482208,90.884323L480.500763,89.990234C480.798279,89.990234,481.073853,90.224327,481.328308,90.692505L481.391724,90.820122C482.029022,91.88488,482.877686,92.417259,483.938538,92.417259C484.405151,92.417259,484.871765,92.246582,485.339172,91.906021L486.484558,90.884323L487.439697,89.990234C487.73642,89.990234,487.991669,90.224327,488.203827,90.692505z"/>
    <path transform="matrix(-1,0,0,1,0,0)" style="stroke:none;fill:#000000;fill-rule:evenodd" d="M468.214569,83.538269C469.106293,85.284164,469.954956,86.540733,470.761383,87.307205C471.736877,86.370056,472.670898,85.901878,473.561829,85.901878C474.962463,85.901878,476.044434,86.497673,476.808563,87.690048L476.999603,88.009476L478.145782,86.923576L476.936188,85.774261C476.384216,85.135406,475.620117,84.603027,474.644592,84.177124C473.752869,83.708946,472.989532,83.474861,472.352234,83.474861L473.116364,82.579994L473.752869,82.13295L467.132568,81.111252L468.214569,83.538269z"/>
</svg>
