<?xml version="1.0" encoding="UTF-8"?>
<svg xmlns="http://www.w3.org/2000/svg" xmlns:xlink="http://www.w3.org/1999/xlink" width="28.473mm" height="28.473mm" viewBox="-214.633545 444.601563 28.473145 28.473389">
    <path transform="matrix(-1,0,0,1,0,0)" style="stroke:none;fill:#000000;fill-rule:evenodd" d="M201.088379,444.616211L201.153076,444.619141L201.800781,444.66333L201.867432,444.669434L202.502441,444.743164L202.570068,444.752686L203.192627,444.855713L203.26123,444.868896L203.871338,445.001221L203.940918,445.018311L204.538574,445.180176L204.608643,445.200928L205.193604,445.392334L205.262207,445.416748L205.834717,445.637451L205.902832,445.666016L206.462646,445.91626L206.529053,445.947998L207.076416,446.227783L207.140137,446.262207L207.675049,446.571289L207.736328,446.608887L208.258545,446.947266L208.317139,446.987305L208.827148,447.355469L208.882324,447.397461L209.379395,447.794922L209.43042,447.837891L209.915283,448.264648L209.963623,448.309082L210.435791,448.765381L210.469971,448.799805L210.92627,449.272217L210.969971,449.31958L211.396973,449.804199L211.440674,449.855957L211.838135,450.353271L211.879883,450.408447L212.247803,450.918213L212.287598,450.976318L212.626221,451.498535L212.664063,451.560059L212.973145,452.094971L213.007813,452.15918L213.287354,452.706543L213.319092,452.772461L213.569336,453.33252L213.597412,453.400391L213.818115,453.972656L213.842773,454.041748L214.03418,454.626953L214.054932,454.696533L214.216797,455.293945L214.233643,455.363281L214.366211,455.973389L214.379639,456.04248L214.482666,456.665039L214.492188,456.733154L214.565674,457.368164L214.571777,457.434326L214.615967,458.082031L214.618896,458.146729L214.633545,458.806885L214.633545,458.869629L214.618896,459.525146L214.615967,459.590088L214.571777,460.233887L214.56543,460.300293L214.491943,460.931885L214.482422,461.000244L214.379395,461.620117L214.365967,461.689453L214.233398,462.297119L214.216553,462.365967L214.054688,462.961914L214.033936,463.031494L213.842529,463.615723L213.818115,463.684082L213.597412,464.256104L213.569336,464.32373L213.319092,464.884033L213.287842,464.949463L213.008301,465.497803L212.973877,465.561279L212.664795,466.097656L212.627686,466.158203L212.289063,466.682861L212.249756,466.740723L211.881836,467.253174L211.841064,467.307373L211.443604,467.808105L211.400879,467.859131L210.973877,468.3479L210.930908,468.39502L210.474609,468.871826L210.435791,468.910889L209.963623,469.367188L209.915527,469.411377L209.430664,469.838379L209.379395,469.881592L208.882324,470.279053L208.82666,470.321289L208.31665,470.689209L208.258789,470.72876L207.736572,471.067383L207.675049,471.105225L207.140137,471.414307L207.075928,471.448975L206.528564,471.728516L206.462646,471.76001L205.902832,472.010254L205.835205,472.038574L205.262695,472.259521L205.193115,472.28418L204.608154,472.475342L204.539307,472.496094L203.94165,472.658203L203.871338,472.675293L203.26123,472.807617L203.192627,472.820801L202.570068,472.923828L202.501953,472.93335L201.866943,473.006836L201.800781,473.012939L201.153076,473.057129L201.088867,473.060059L200.428711,473.074951L200.365234,473.074951L199.705078,473.060059L199.640869,473.057129L198.993164,473.012939L198.927002,473.006836L198.291992,472.93335L198.224121,472.923828L197.601318,472.820801L197.532471,472.807617L196.922607,472.675293L196.852295,472.658203L196.254639,472.496094L196.185791,472.475342L195.60083,472.28418L195.53125,472.259521L194.95874,472.038574L194.891113,472.010254L194.331299,471.76001L194.265381,471.728516L193.718018,471.448975L193.653809,471.414307L193.118896,471.105225L193.057373,471.067383L192.535156,470.72876L192.477295,470.689209L191.967285,470.321289L191.911621,470.279053L191.414551,469.881592L191.363281,469.838379L190.878418,469.411377L190.830322,469.367188L190.358154,468.910889L190.319336,468.871826L189.863037,468.39502L189.820068,468.3479L189.393066,467.859131L189.350342,467.808105L188.952881,467.307373L188.912109,467.253174L188.544189,466.740723L188.504883,466.682861L188.16626,466.158203L188.12915,466.097656L187.820068,465.561279L187.785645,465.497803L187.506104,464.949463L187.474854,464.884033L187.224609,464.32373L187.196533,464.256104L186.97583,463.684082L186.951416,463.615723L186.76001,463.031494L186.739258,462.961914L186.577393,462.365967L186.560547,462.297119L186.427979,461.689453L186.414551,461.620117L186.311523,461.000244L186.302002,460.931885L186.228516,460.300293L186.222168,460.233887L186.177979,459.590088L186.175049,459.525146L186.1604,458.869629L186.1604,458.806885L186.175049,458.146729L186.177979,458.082031L186.222168,457.434326L186.228271,457.368164L186.301758,456.733154L186.311279,456.665039L186.414307,456.04248L186.427734,455.973389L186.560303,455.363281L186.577148,455.293945L186.739014,454.696533L186.759766,454.626953L186.951172,454.041748L186.97583,453.972656L187.196533,453.400391L187.224609,453.33252L187.474854,452.772461L187.506592,452.706543L187.786133,452.15918L187.820801,452.094971L188.129883,451.560059L188.167725,451.498535L188.506348,450.976318L188.546143,450.918213L188.914063,450.408447L188.955811,450.353271L189.353271,449.855957L189.396973,449.804199L189.823975,449.31958L189.867676,449.272217L190.323975,448.799805L190.358154,448.765381L190.830322,448.309082L190.878662,448.264648L191.363525,447.837891L191.414551,447.794922L191.911621,447.397461L191.966797,447.355469L192.476807,446.987305L192.5354,446.947266L193.057617,446.608887L193.118896,446.571289L193.653809,446.262207L193.717529,446.227783L194.264893,445.947998L194.331299,445.91626L194.891113,445.666016L194.959229,445.637451L195.531738,445.416748L195.600342,445.392334L196.185303,445.200928L196.255371,445.180176L196.853027,445.018311L196.922607,445.001221L197.532471,444.868896L197.601318,444.855713L198.224121,444.752686L198.291504,444.743164L198.926514,444.669434L198.993164,444.66333L199.640869,444.619141L199.705566,444.616211L200.365723,444.601563L200.428223,444.601563L201.088379,444.616211zM191.337906,449.779144C188.825546,452.264099,187.569763,455.283783,187.569763,458.838196C187.569763,462.365997,188.825546,465.385681,191.337906,467.897247C193.822861,470.409607,196.842545,471.665405,200.396957,471.665405C203.95137,471.665405,206.971069,470.409607,209.456024,467.897247C211.968384,465.385681,213.224167,462.365997,213.224167,458.838196C213.224167,455.283783,211.968384,452.264099,209.456024,449.779144C206.971069,447.266785,203.95137,446.010986,200.396957,446.010986C196.842545,446.010986,193.822861,447.266785,191.337906,449.779144zM202.722214,454.669189C202.722214,453.94812,202.975876,453.333557,203.4832,452.825439C203.991302,452.317322,204.619202,452.06366,205.367661,452.06366C206.088715,452.06366,206.703308,452.317322,207.211411,452.825439C207.719528,453.333557,207.97319,453.94812,207.97319,454.669189C207.97319,455.417664,207.719528,456.045563,207.211411,456.55365C206.703308,457.060974,206.088715,457.314636,205.367661,457.314636C204.619202,457.314636,203.991302,457.060974,203.4832,456.55365C202.975876,456.045563,202.722214,455.417664,202.722214,454.669189zM195.466187,457.314636C194.745132,457.314636,194.117233,457.060974,193.582504,456.55365C193.074402,456.045563,192.82074,455.417664,192.82074,454.669189C192.82074,453.94812,193.074402,453.333557,193.582504,452.825439C194.117233,452.317322,194.745132,452.06366,195.466187,452.06366C196.188034,452.06366,196.802628,452.317322,197.31073,452.825439C197.844681,453.333557,198.112427,453.94812,198.112427,454.669189C198.112427,455.417664,197.844681,456.045563,197.31073,456.55365C196.802628,457.060974,196.188034,457.314636,195.466187,457.314636zM191.457687,461.042877L192.901382,461.042877C193.489349,461.764709,194.49147,462.41922,195.907761,463.007202C197.457138,463.675018,198.954056,464.009308,200.396957,464.009308C201.866486,464.009308,203.323486,463.714935,204.766388,463.126984C206.075409,462.566406,207.118256,461.871185,207.892548,461.042877L209.336227,461.042877C208.694244,462.93985,207.559021,464.463409,205.929001,465.612701C204.271591,466.815277,202.427826,467.416534,200.396957,467.416534C198.366089,467.416534,196.522339,466.815277,194.864914,465.612701C193.234894,464.463409,192.09967,462.93985,191.457687,461.042877z"/>
</svg>
