<?xml version="1.0" encoding="UTF-8"?>
<svg xmlns="http://www.w3.org/2000/svg" xmlns:xlink="http://www.w3.org/1999/xlink" width="25.259mm" height="24.652mm" viewBox="-456.927826 67.775803 25.258759 24.652283">
    <path transform="matrix(-1,0,0,1,0,0)" style="stroke:none;fill:#000000;fill-rule:evenodd" d="M443.517548,75.23381L443.005524,75.860138L442.437134,76.315788L442.038635,76.884964L441.527374,77.397774L441.243195,77.966949L440.731171,78.478973L440.44696,79.048927L439.992096,79.503799L439.765045,80.016609L439.310181,80.357956L439.195892,80.585785L433.283325,79.675255L433.055511,79.675255C432.600647,79.675255,432.241272,79.845932,431.975891,80.187279C431.634521,80.604568,431.577393,81.060226,431.805206,81.553459L432.941986,84.001617C433.775787,85.558044,434.59079,86.734756,435.387024,87.531761L435.500549,87.645287L435.15918,87.987419L434.989288,87.987419C434.572021,87.987419,434.249451,88.119728,434.0224,88.385918L433.624695,89.353592L433.624695,91.061905L434.0224,92.029587L434.989288,92.428085L435.671204,92.428085C436.656891,92.428085,437.680176,91.896484,438.741791,90.834076C439.613159,91.896484,440.655212,92.428085,441.868744,92.428085C442.853638,92.428085,443.877686,91.896484,444.938538,90.834076C445.734741,91.896484,446.776794,92.428085,448.06546,92.428085C449.051147,92.428085,450.055634,91.896484,451.078888,90.834076C451.912689,91.896484,452.974304,92.428085,454.263,92.428085L455.002045,92.428085C455.343414,92.428085,455.665192,92.294991,455.968964,92.029587C456.233582,91.764175,456.366669,91.44162,456.366669,91.061905L456.366669,89.353592C456.366669,89.012245,456.233582,88.68969,455.968964,88.385918C455.665192,88.119728,455.343414,87.987419,455.002045,87.987419L454.774231,87.987419L454.60434,87.816742L454.149475,87.190414L454.205841,87.133263C455.68396,85.918968,456.574921,84.457275,456.877899,82.749748C457.029785,81.573029,456.840332,80.433899,456.309509,79.333122C455.741119,78.194771,454.850159,77.207527,453.637451,76.37294C450.681183,74.32328,449.127106,72.9571,448.97522,72.273621L449.088745,72.102951L449.259399,72.045799C449.638336,72.045799,450.131561,72.311203,450.737549,72.842796C451.836761,74.32328,452.766052,75.063133,453.523926,75.063133L454.035156,75.00676C454.452454,74.816513,454.755432,74.493958,454.944916,74.0383C455.096802,73.545067,454.944916,72.937531,454.490021,72.216469L454.433655,72.159317C454.812592,71.438255,454.717865,70.584885,454.149475,69.597633L453.97879,69.312653C453.485565,68.81942,452.879578,68.439713,452.159302,68.174301L449.942108,67.775803C448.501556,67.775803,447.288818,68.250244,446.303131,69.199135C445.279877,70.186386,444.825012,71.305946,444.938538,72.558601C445.014465,73.545067,445.431763,74.493958,446.189606,75.405266L444.427277,74.892456L443.517548,75.23381M443.460388,77.227097L443.915253,76.999268L444.256622,77.112793C444.028778,76.771439,444.067139,76.486465,444.370148,76.258636L444.427277,76.258636C445.109192,76.258636,446.208405,76.79023,447.724915,77.853424C449.619537,79.143661,450.757111,80.548203,451.136047,82.066269C451.28714,82.635437,451.704437,82.920418,452.386353,82.920418L453.694611,82.407616C454.073517,81.990326,454.187042,81.458725,454.035156,80.813606C453.732178,80.016609,453.08783,79.276756,452.102142,78.593277L448.06546,75.405266C446.966278,74.342072,446.379089,73.355606,446.303131,72.444298C446.227203,71.647293,446.549744,70.90744,447.27002,70.223961C447.951935,69.502899,448.842896,69.141983,449.942108,69.141983L451.704437,69.484116C452.272827,69.673576,452.708923,69.93898,453.011902,70.281113L453.239716,70.90744C453.353241,71.324738,453.296082,71.609711,453.069061,71.760818C452.841217,71.912704,452.898376,72.254829,453.239716,72.785645L453.580292,73.696953L453.523926,73.696953C453.220947,73.696953,452.632965,73.108208,451.761597,71.932274L450.965363,71.305946C450.358612,70.887871,449.790222,70.679619,449.259399,70.679619C448.842896,70.679619,448.463959,70.831505,448.12262,71.135269C447.705322,71.552559,447.534668,71.951065,447.610596,72.330772C447.648956,72.975891,448.217346,73.791687,449.316559,74.778938C450.036835,75.424057,451.230774,76.334579,452.898376,77.511292C453.884064,78.194771,454.60434,78.972984,455.059204,79.845932C455.514069,80.71888,455.665192,81.629402,455.514069,82.578285C455.286255,83.869308,454.565979,85.026451,453.353241,86.051277L451.875122,87.30394C452.557037,87.531761,453.106628,87.949051,453.523926,88.556595L453.637451,88.841568L454.263,89.353592L455.002045,89.353592L455.002045,91.061905L454.263,91.061905C453.315674,91.061905,452.538239,90.587463,451.931488,89.638573L451.875122,89.524269C451.647278,89.144562,451.420227,88.936302,451.192413,88.897942L450.339813,89.694946C449.468445,90.606247,448.709808,91.061905,448.06546,91.061905C447.118164,91.061905,446.360291,90.587463,445.791107,89.638573L445.734741,89.524269L444.995667,88.897942L444.085938,89.694946L443.119049,90.606247C442.702545,90.910019,442.285248,91.061905,441.868744,91.061905C440.883057,91.061905,440.125183,90.587463,439.594391,89.638573L439.537231,89.524269L439.310181,89.240074C439.158295,89.049828,438.98761,88.936302,438.798157,88.897942L437.945557,89.694946L436.922302,90.606247C436.543365,90.910019,436.126099,91.061905,435.671204,91.061905L434.989288,91.061905L434.989288,89.353592L435.614075,89.353592L436.467438,88.556595L437.661377,87.645287L436.978668,87.190414L436.296753,86.506935C435.15918,85.444519,434.079559,83.622696,433.055511,81.041435L439.650757,82.066269L440.276306,81.439941L440.333435,81.269264L440.844696,81.041435L441.186035,81.154961C440.920624,80.851189,440.901855,80.566994,441.129669,80.30159C441.243195,80.111336,441.413849,80.016609,441.6409,80.016609L441.868744,80.073761L441.92511,80.073761C441.698059,79.845932,441.67926,79.579742,441.868744,79.276756L442.379974,78.991776L442.664185,79.048927L442.664185,78.991776C442.398773,78.763947,442.398773,78.517334,442.664185,78.251923L443.119049,77.966949L443.403229,78.080467L443.403229,78.024101C443.176208,77.720329,443.194977,77.45414,443.460388,77.227097z"/>
</svg>
