<?xml version="1.0" encoding="UTF-8"?>
<svg xmlns="http://www.w3.org/2000/svg" xmlns:xlink="http://www.w3.org/1999/xlink" width="25.007mm" height="15.633mm" viewBox="-421.361481 72.285400 25.006622 15.633156">
    <path transform="matrix(-1,0,0,1,0,0)" style="stroke:none;fill:#000000;fill-rule:evenodd" d="M405.14505,72.2854L404.261932,72.2854L404.261932,76.525642L403.504852,76.463013L403.0625,76.589058L402.936462,77.222435L402.936462,80.070663L399.529236,80.260124C398.141113,80.386955,397.300293,80.660973,397.00592,81.082962C396.290314,81.926941,396.164276,82.918106,396.626984,84.058022C397.00592,85.070328,397.657288,85.914307,398.582703,86.589172C399.634918,87.348595,401.317383,87.791725,403.63089,87.918556L412.085541,87.665672L418.773956,86.399712L419.026825,87.095718C419.278931,87.433151,419.531036,87.559982,419.783905,87.475426C420.120544,87.559982,420.288086,87.285965,420.288086,86.652588L420.288086,85.703705L421.361481,84.754028C421.361481,84.458878,421.150848,84.162933,420.730438,83.867775L420.099426,83.614899L420.162048,80.639839L419.973358,79.880417L419.72049,79.817001L419.468384,79.817001C419.257782,79.859276,419.089447,79.986107,418.963409,80.196709L418.711304,80.956131L418.584473,83.044937L414.483612,81.589508C412.927185,81.040688,410.844635,80.597557,408.236755,80.260124L408.236755,78.488396C408.236755,77.855026,408.110718,77.496452,407.858612,77.411896L405.14505,76.715889L405.14505,72.2854M413.473633,82.855476L414.231506,83.108353L414.546234,83.867775L414.231506,84.690613L413.473633,85.006912L412.716583,84.690613C412.506744,84.480011,412.401062,84.205208,412.401062,83.867775L412.716583,83.108353L413.473633,82.855476zM404.577423,83.867775L404.829529,83.108353L405.586609,82.855476L406.343689,83.108353L406.722595,83.867775C406.722595,84.205208,406.596558,84.480011,406.343689,84.690613L405.586609,85.006912L404.829529,84.690613L404.577423,83.867775zM400.917328,84.690613L400.601807,83.867775L400.917328,83.108353L401.737823,82.855476L402.494904,83.108353L402.747772,83.867775L402.494904,84.690613L401.737823,85.006912L400.917328,84.690613zM408.489624,83.867775L408.804382,83.108353C409.014984,82.939247,409.267853,82.855476,409.562225,82.855476L410.319305,83.108353L410.634827,83.867775L410.319305,84.690613L409.562225,85.006912C409.267853,85.006912,409.014984,84.902,408.804382,84.690613L408.489624,83.867775z"/>
</svg>
