<?xml version="1.0" encoding="UTF-8"?>
<svg xmlns="http://www.w3.org/2000/svg" xmlns:xlink="http://www.w3.org/1999/xlink" width="25.198mm" height="16.836mm" viewBox="-386.017548 71.684097 25.197723 16.835709">
    <path transform="matrix(-1,0,0,1,0,0)" style="stroke:none;fill:#000000;fill-rule:evenodd" d="M369.278137,71.684097C368.899994,71.684097,368.578217,71.817192,368.313599,72.083382L367.916656,73.053406L367.916656,75.450676C367.122009,75.640923,366.724304,76.306396,366.724304,77.447884L366.724304,78.760826L366.554413,78.760826L363.660767,78.989433C362.715027,79.17968,362.033875,79.540604,361.617371,80.073761C360.937012,80.986641,360.691193,82.013817,360.879883,83.155304C361.069336,84.677277,361.882782,85.970642,363.32019,87.036186C364.757629,88.025002,367.06485,88.519806,370.242706,88.519806L376.427673,88.234825L381.648132,87.378319C382.027069,87.834755,382.537506,88.06337,383.180298,88.06337L383.350952,88.06337C383.766693,88.06337,384.126038,87.930267,384.429016,87.664078C384.844757,87.245224,385.053009,86.674484,385.053009,85.951859L385.053009,85.837555C385.696564,85.342751,386.017548,84.810371,386.017548,84.239632C386.017548,83.517006,385.658203,82.907898,384.939484,82.413101L384.939484,80.587357L384.598907,79.16011L383.237427,78.418694L383.066772,78.418694C382.424011,78.418694,381.856384,78.722458,381.364716,79.331566C381.100098,79.712059,380.948212,80.168495,380.910645,80.700874L380.910645,80.815178L378.924377,80.130135L374.215179,78.989433L374.215179,78.589371C374.215179,77.334358,373.798676,76.592163,372.966431,76.363556L371.434296,75.90712L371.434296,73.053406C371.434296,72.673698,371.301971,72.349571,371.037354,72.083382C370.772736,71.817192,370.450958,71.684097,370.072815,71.684097L369.278137,71.684097zM369.278137,73.053406L370.072815,73.053406L370.072815,76.991447L372.51236,77.619339C372.73938,77.695282,372.852905,78.018623,372.852905,78.589371L372.852905,80.187286C375.198517,80.491837,377.071228,80.891121,378.471069,81.385925L382.159363,82.69886L382.272888,80.815178L382.499939,80.130135L383.066772,79.788002L383.180298,79.845154L383.237427,79.788002C383.464478,79.788002,383.578003,80.054192,383.578003,80.587357L383.520844,83.212456C383.710327,83.250031,383.898987,83.345551,384.08847,83.497429C384.466614,83.726044,384.656067,83.973442,384.656067,84.239632L383.691528,85.152504L383.691528,85.951859C383.691528,86.445869,383.578003,86.693275,383.350952,86.693275L383.180298,86.693275C382.915649,86.693275,382.707397,86.57975,382.556305,86.351143L382.329254,85.723244C380.664795,86.332352,378.65976,86.712845,376.314178,86.864731L370.242706,87.15049C367.330261,87.15049,365.306458,86.731636,364.171234,85.894707C363.338989,85.285599,362.752594,84.524612,362.412018,83.61174C361.996307,82.584557,362.109833,81.690475,362.752594,80.929489C363.017212,80.548988,363.774292,80.30159,365.022247,80.187286L368.086548,80.016617L368.086548,77.447884L368.142944,76.877144L368.48349,76.763618L368.597015,76.763618L369.278137,76.877144L369.278137,73.053406z"/>
</svg>
