<?xml version="1.0" encoding="UTF-8"?>
<svg xmlns="http://www.w3.org/2000/svg" xmlns:xlink="http://www.w3.org/1999/xlink" width="25.648mm" height="22.848mm" viewBox="-350.801849 68.677803 25.648132 22.848457">
    <path transform="matrix(-1,0,0,1,0,0)" style="stroke:none;fill:#000000;fill-rule:evenodd" d="M332.213226,75.687981L325.153717,75.687981L328.910126,80.167015L330.529175,79.582962C331.78183,79.582962,332.796478,80.167015,333.573914,81.335114L333.703094,81.660019L334.415558,82.309052L335.452118,81.335114L336.74704,80.167015L338.431091,79.582962C339.726807,79.582962,340.719543,80.167015,341.410858,81.335114L341.605011,81.660019L342.252472,82.309052L343.353241,81.335114L344.648956,80.167015L346.268036,79.582962C347.045471,79.582962,347.757904,79.842102,348.405365,80.361954L349.571136,75.75296L346.39798,75.75296L346.462189,73.15683L346.980469,72.961891L347.045471,73.026871L347.110443,72.572784L346.462189,71.858765L344.065704,71.793785L344.84314,68.677803L341.540039,68.677803L339.726807,71.793785L335.905426,71.793785L332.213226,75.687981zM342.576599,78.414078C342.317474,78.15493,342.1875,77.851944,342.1875,77.505898L342.576599,76.661926L343.483215,76.272034C343.828491,76.272034,344.109558,76.401993,344.324829,76.661926L344.713959,77.505898L344.324829,78.414078C344.109558,78.674004,343.828491,78.803963,343.483215,78.803963C343.137939,78.803963,342.835754,78.674004,342.576599,78.414078zM338.496063,77.505898L338.819427,76.661926C339.078552,76.401993,339.380768,76.272034,339.726807,76.272034L340.633423,76.661926L341.021759,77.505898L340.633423,78.414078C340.374268,78.674004,340.072083,78.803963,339.726807,78.803963C339.380768,78.803963,339.078552,78.674004,338.819427,78.414078L338.496063,77.505898zM332.278198,76.272034C332.623474,76.272034,332.925659,76.401993,333.184814,76.661926L333.508942,77.505898C333.508942,77.895004,333.400909,78.19799,333.184814,78.414078C332.925659,78.674004,332.623474,78.803963,332.278198,78.803963C331.889893,78.803963,331.587677,78.674004,331.371582,78.414078L331.047455,77.505898L331.371582,76.661926L332.278198,76.272034zM337.26535,77.505898C337.26535,77.895004,337.136169,78.19799,336.877014,78.414078C336.617859,78.674004,336.315674,78.803963,335.969635,78.803963C335.624359,78.803963,335.344086,78.674004,335.127991,78.414078L334.739685,77.505898L335.127991,76.661926C335.344086,76.401993,335.624359,76.272034,335.969635,76.272034C336.315674,76.272034,336.617859,76.401993,336.877014,76.661926C337.136169,76.921066,337.26535,77.202911,337.26535,77.505898zM335.257172,74.779022L336.552887,72.896904L342.964935,72.961891L343.159088,73.15683L342.964935,73.805862L342.576599,74.389915L342.1875,74.779022L335.257172,74.779022"/>
    <path transform="matrix(-1,0,0,1,0,0)" style="stroke:none;fill:#000000;fill-rule:evenodd" d="M341.021759,83.347198C340.244324,82.179092,339.251587,81.595039,338.042786,81.595039L336.358734,82.114113L335.063019,83.347198L334.027222,84.321136L333.378967,83.672104L333.184814,83.347198C332.451233,82.179092,331.436584,81.595039,330.140869,81.595039L328.52179,82.114113L327.226074,83.347198L326.125305,84.321136L325.282898,84.321136L325.282898,86.52816L326.190308,86.52816C326.751648,86.52816,327.291077,86.333214,327.809357,85.944107L329.104279,84.775223L330.205841,83.802063C330.421143,83.802063,330.637207,83.91011,330.853302,84.12619L331.112457,84.516083L331.177429,84.711029C331.954071,85.922188,332.925659,86.52816,334.091431,86.52816C334.609711,86.52816,335.127991,86.333214,335.646271,85.944107L336.941223,84.775223L338.042786,83.802063C338.344971,83.802063,338.647186,84.04007,338.949371,84.516083L339.078552,84.711029C339.769867,85.922188,340.741455,86.52816,341.993347,86.52816C342.511627,86.52816,343.029907,86.333214,343.548187,85.944107L344.84314,84.775223C345.40448,84.170036,345.771667,83.845123,345.943909,83.802063C346.246887,83.802063,346.549103,84.04007,346.851288,84.516083L346.980469,84.711029C347.671783,85.922188,348.642609,86.52816,349.895264,86.52816L350.801849,86.52816L350.801849,84.321136L349.895264,84.321136L349.117828,83.672104L348.923645,83.347198C348.189301,82.179092,347.174652,81.595039,345.8797,81.595039C345.36142,81.595039,344.821991,81.768066,344.260651,82.114113L342.964935,83.347198L341.928345,84.321136C341.62616,84.278076,341.388916,84.061211,341.215912,83.672104L341.021759,83.347198z"/>
    <path transform="matrix(-1,0,0,1,0,0)" style="stroke:none;fill:#000000;fill-rule:evenodd" d="M346.851288,89.579163L346.980469,89.773323C347.62793,90.942207,348.599548,91.52626,349.895264,91.52626L350.801849,91.52626L350.801849,89.384216L349.895264,89.384216C349.549988,89.384216,349.290833,89.168137,349.117828,88.735184L348.923645,88.410278C348.189301,87.242172,347.174652,86.658127,345.8797,86.658127C345.36142,86.658127,344.821991,86.831146,344.260651,87.177193L342.964935,88.410278L341.928345,89.384216C341.583099,89.297318,341.345856,89.08123,341.215912,88.735184L341.021759,88.410278C340.244324,87.242172,339.251587,86.658127,338.042786,86.658127L336.358734,87.177193L335.063019,88.410278L334.027222,89.384216L333.378967,88.735184L333.184814,88.410278C332.451233,87.242172,331.436584,86.658127,330.140869,86.658127L328.52179,87.177193L327.226074,88.410278L326.125305,89.384216L325.282898,89.384216L325.282898,91.52626L326.190308,91.52626C327.010773,91.52626,327.981598,90.963348,329.104279,89.838303L330.205841,88.800163L330.853302,89.18927L331.112457,89.579163L331.177429,89.773323C331.954071,90.942207,332.925659,91.52626,334.091431,91.52626C334.609711,91.52626,335.127991,91.353241,335.646271,91.007187L336.941223,89.838303L338.042786,88.800163C338.431091,88.843224,338.733307,89.103149,338.949371,89.579163L339.078552,89.773323C339.726807,90.942207,340.698395,91.52626,341.993347,91.52626C342.770752,91.52626,343.720428,90.963348,344.84314,89.838303L345.943909,88.800163C346.289948,88.843224,346.592163,89.103149,346.851288,89.579163z"/>
</svg>
