<?xml version="1.0" encoding="UTF-8"?>
<svg xmlns="http://www.w3.org/2000/svg" xmlns:xlink="http://www.w3.org/1999/xlink" width="25.385mm" height="22.848mm" viewBox="-315.230560 68.677803 25.385284 22.848457">
    <path transform="matrix(-1,0,0,1,0,0)" style="stroke:none;fill:#000000;fill-rule:evenodd" d="M291.263336,74.847137C290.654999,74.847137,290.236145,75.113327,290.008331,75.646484C289.742126,76.179649,289.799286,76.674446,290.179016,77.131668L293.374847,80.844231L292.062683,82.044434L291.663391,82.443718L291.377625,82.443718C290.997131,82.443718,290.673798,82.596382,290.407623,82.90094C290.141418,83.167908,290.008331,83.472458,290.008331,83.81459L290.008331,90.15538L290.407623,91.183342L291.377625,91.52626L292.177002,91.52626C292.899628,91.52626,293.583893,91.336014,294.231354,90.954735L295.657806,89.641006C296.532318,90.897583,297.692596,91.52626,299.138641,91.52626C300.24176,91.52626,301.402008,90.897583,302.619446,89.641006C303.45639,90.897583,304.616638,91.52626,306.100281,91.52626C306.785309,91.52626,307.450775,91.336014,308.097473,90.954735L309.524719,89.641006C310.399231,90.897583,311.559509,91.52626,313.005524,91.52626L313.861267,91.52626L314.831299,91.183342L315.23056,90.15538L315.23056,83.81459C315.23056,83.472458,315.097473,83.167908,314.831299,82.90094C314.565094,82.596382,314.24176,82.443718,313.861267,82.443718L313.519135,82.443718L313.290527,82.158737L312.662628,81.358604L313.062683,80.673553L314.089874,76.617294C314.165802,76.122498,314.070282,75.722427,313.804108,75.417877C313.576263,75.075745,313.233368,74.904289,312.776917,74.904289L311.464783,74.904289L311.921204,73.989853L311.978363,73.64772C312.01593,73.228081,311.921204,72.885948,311.692596,72.618973L311.065491,71.933929C310.836884,71.629372,310.494751,71.476707,310.0383,71.476707L309.638245,71.476707L309.924011,70.334442C310.0383,69.915581,309.94278,69.534309,309.638245,69.192177C309.4104,68.849258,309.067505,68.677803,308.611053,68.677803L305.700989,68.677803C305.16861,68.677803,304.769318,68.90641,304.50235,69.363632L303.304504,71.419556L300.736542,71.419556C300.317688,71.419556,299.975555,71.57222,299.709381,71.876778L296.912811,74.847137L291.263336,74.847137zM294.231354,81.872971L295.657806,81.415756C296.760925,81.415756,297.655029,81.93013,298.339264,82.958084L298.510742,83.243851L299.081482,83.81459L300.051514,82.958084L301.192993,81.872971C301.687775,81.56842,302.163025,81.415756,302.619446,81.415756C303.722565,81.415756,304.616638,81.93013,305.301697,82.958084L305.416016,83.243851L306.043121,83.81459L306.956757,82.958084L308.097473,81.872971L309.581085,81.415756C310.684998,81.415756,311.559509,81.93013,312.206177,82.958084L312.377655,83.243851C312.567902,83.624344,312.796509,83.81459,313.062683,83.81459L313.918396,83.81459L313.918396,85.699844L313.062683,85.699844C311.921204,85.699844,311.065491,85.185471,310.494751,84.157509L310.380432,83.986046C310.190186,83.567192,309.94278,83.338585,309.638245,83.301003C309.4104,83.415306,309.067505,83.719864,308.611053,84.214661C307.660614,85.20504,306.823669,85.699844,306.100281,85.699844C304.997131,85.699844,304.141418,85.185471,303.532318,84.157509L303.475159,83.986046C303.247345,83.567192,302.98114,83.338585,302.676605,83.301003L301.649414,84.214661C300.698181,85.20504,299.880035,85.699844,299.19577,85.699844C298.054291,85.699844,297.198578,85.185471,296.627838,84.157509L296.513519,83.986046L296.285706,83.643921L295.714966,83.301003L294.744934,84.214661L293.603455,85.242622C293.147003,85.547958,292.690582,85.699844,292.233368,85.699844L291.377625,85.699844L291.377625,83.81459L292.177002,83.81459L293.089874,82.958084L294.231354,81.872971zM294.231354,86.328522L295.657806,85.8713C296.760925,85.8713,297.655029,86.385666,298.339264,87.413635L298.510742,87.699394L299.081482,88.270134L300.051514,87.413635L301.192993,86.328522C301.687775,86.023964,302.163025,85.8713,302.619446,85.8713C303.722565,85.8713,304.616638,86.385666,305.301697,87.413635L305.416016,87.699394L306.043121,88.270134L306.956757,87.413635L308.097473,86.328522L309.581085,85.8713C310.684998,85.8713,311.559509,86.385666,312.206177,87.413635L312.377655,87.699394L313.062683,88.270134L313.918396,88.270134L313.918396,90.15538L313.062683,90.15538C311.921204,90.15538,311.065491,89.641006,310.494751,88.613052L310.380432,88.441589C310.190186,88.022736,309.94278,87.794128,309.638245,87.756546L308.611053,88.670204L307.470367,89.698166L306.100281,90.15538C304.997131,90.15538,304.141418,89.641006,303.532318,88.613052L303.475159,88.441589C303.247345,88.022736,302.98114,87.794128,302.676605,87.756546L301.649414,88.670204L300.565094,89.698166C300.108643,90.002716,299.652222,90.15538,299.19577,90.15538C298.054291,90.15538,297.198578,89.641006,296.627838,88.613052L296.513519,88.441589L296.285706,88.098679L295.714966,87.756546L294.744934,88.670204L293.603455,89.698166C293.147003,90.002716,292.690582,90.15538,292.233368,90.15538L291.377625,90.15538L291.377625,88.270134L292.177002,88.270134L293.089874,87.413635L294.231354,86.328522zM291.263336,76.21801L297.483551,76.21801L300.736542,72.790428L304.103058,72.790428L305.700989,70.048676L308.611053,70.048676L307.926788,72.790428L310.0383,72.84758L310.608276,73.533417L310.55191,73.875542L310.494751,73.81839L310.0383,73.989853L309.98114,76.275162L312.776917,76.275162L311.749756,80.330643C311.179016,79.873421,310.55191,79.644814,309.866852,79.644814C309.296112,79.644814,308.744141,79.873421,308.211792,80.330643C307.526733,80.596832,306.842468,81.092415,306.15741,81.815819L305.643829,81.301453L305.58667,81.187149C304.978363,80.159187,304.103058,79.644814,302.961578,79.644814C302.391632,79.644814,301.820892,79.873421,301.250153,80.330643C300.641022,80.55925,299.956757,81.054047,299.19577,81.815819L298.739349,81.301453L298.68219,81.187149C297.997131,80.159187,297.103058,79.644814,295.999939,79.644814L294.573486,80.159187L291.263336,76.21801z"/>
</svg>
