<?xml version="1.0" encoding="UTF-8"?>
<svg xmlns="http://www.w3.org/2000/svg" xmlns:xlink="http://www.w3.org/1999/xlink" width="25.654mm" height="25.654mm" viewBox="-279.924988 67.274803 25.654404 25.654411">
    <path transform="matrix(-1,0,0,1,0,0)" style="stroke:none;fill:#000000;fill-rule:evenodd" d="M258.059082,71.063309C255.533417,73.54435,254.270584,76.556992,254.270584,80.102005C254.270584,83.647026,255.533417,86.681587,258.059082,89.207253C260.540131,91.688293,263.552765,92.929214,267.097778,92.929214C270.642792,92.929214,273.677368,91.688293,276.203033,89.207253C278.684082,86.681587,279.924988,83.647026,279.924988,80.102005C279.924988,76.556992,278.684082,73.54435,276.203033,71.063309C273.677368,68.537636,270.642792,67.274803,267.097778,67.274803C263.552765,67.274803,260.540131,68.537636,258.059082,71.063309zM267.097778,70.06588C269.047241,70.06588,270.86438,70.598259,272.547638,71.661453C274.142426,72.680016,275.361389,74.054024,276.203033,75.781906C275.716064,75.958847,275.471802,76.313507,275.471802,76.8451L275.471802,83.425461C275.471802,83.91243,275.716064,84.26709,276.203033,84.488655C275.361389,86.171913,274.142426,87.545914,272.547638,88.609108C270.86438,89.672302,269.047241,90.203903,267.097778,90.203903C264.350555,90.203903,261.979889,89.207253,259.986603,87.213181C258.03717,85.219894,257.061646,82.849243,257.061646,80.102005C257.061646,77.354774,258.03717,74.984123,259.986603,72.990829C261.979889,71.041382,264.350555,70.06588,267.097778,70.06588zM264.970612,76.8451L263.375824,80.301651C262.755768,81.541779,262.44574,82.694221,262.44574,83.757416C262.44574,84.998329,262.888855,86.083443,263.774323,87.01432C264.660583,87.900574,265.74649,88.343704,267.03125,88.343704C268.315979,88.343704,269.379974,87.900574,270.221588,87.01432C271.151703,86.083443,271.617523,84.998329,271.617523,83.757416C271.617523,82.738068,271.329407,81.630249,270.753204,80.43396L269.224945,77.044739L267.895569,72.72464L267.03125,70.797119C266.854309,70.797119,266.588104,71.417969,266.233459,72.658096C265.701843,74.652168,265.281433,76.048096,264.970612,76.8451z"/>
</svg>
