<?xml version="1.0" encoding="UTF-8"?>
<svg xmlns="http://www.w3.org/2000/svg" xmlns:xlink="http://www.w3.org/1999/xlink" width="25.654mm" height="25.654mm" viewBox="-244.485001 67.274803 25.654404 25.654411">
    <path transform="matrix(-1,0,0,1,0,0)" style="stroke:none;fill:#000000;fill-rule:evenodd" d="M231.657791,67.274803C228.15036,67.274803,225.136154,68.536072,222.613617,71.057823C220.091858,73.58036,218.830597,76.594566,218.830597,80.102005C218.830597,83.64859,220.091858,86.683151,222.613617,89.204903C225.136154,91.687515,228.15036,92.929214,231.657791,92.929214C235.204376,92.929214,238.238937,91.687515,240.760696,89.204903C243.243301,86.683151,244.485001,83.64859,244.485001,80.102005C244.485001,76.594566,243.243301,73.58036,240.760696,71.057823C238.238937,68.536072,235.204376,67.274803,231.657791,67.274803zM223.618866,72.06308C225.825119,69.81691,228.50502,68.693436,231.657791,68.693436C234.810577,68.693436,237.510056,69.81691,239.756226,72.06308C241.963242,74.269325,243.06636,76.949226,243.06636,80.102005C243.06636,83.254784,241.963242,85.954262,239.756226,88.200432C237.510056,90.407455,234.810577,91.510574,231.657791,91.510574C228.50502,91.510574,225.825119,90.407455,223.618866,88.200432C221.372711,85.954262,220.249222,83.254784,220.249222,80.102005C220.249222,76.949226,221.372711,74.269325,223.618866,72.06308zM231.598297,70.408012C231.007202,70.408012,230.534317,70.683594,230.179657,71.23555L229.411621,73.658653L228.465866,76.791862L227.460617,78.919815L226.514862,80.929543L226.101486,83.353432C226.101486,84.850357,226.633072,86.150772,227.697052,87.254677C228.761032,88.318649,230.061447,88.85025,231.598297,88.85025C233.135925,88.85025,234.43634,88.318649,235.50032,87.254677C236.564301,86.150772,237.095886,84.850357,237.095886,83.353432L236.741241,80.929543L235.85498,78.978531L234.909225,76.91008L234.022186,74.131531L233.017715,71.353767C232.663055,70.72274,232.19017,70.408012,231.598297,70.408012zM229.825012,77.205238L230.888977,73.48172C231.204498,72.377815,231.440933,71.826645,231.598297,71.826645L232.367111,73.540436L233.549316,77.382957L234.967941,80.397949C235.440826,81.461922,235.677261,82.446823,235.677261,83.353432C235.677261,84.456558,235.283447,85.421883,234.495071,86.24942C233.706665,87.037811,232.741348,87.43161,231.598297,87.43161C230.495178,87.43161,229.529846,87.037811,228.702316,86.24942C227.913925,85.421883,227.520111,84.456558,227.520111,83.353432C227.520111,82.407677,227.7957,81.382851,228.347656,80.279724L229.825012,77.205238z"/>
</svg>
