<?xml version="1.0" encoding="UTF-8"?>
<svg xmlns="http://www.w3.org/2000/svg" xmlns:xlink="http://www.w3.org/1999/xlink" width="25.654mm" height="26.445mm" viewBox="-209.044998 66.879379 25.654404 26.445152">
    <path transform="matrix(-1,0,0,1,0,0)" style="stroke:none;fill:#000000;fill-rule:evenodd" d="M200.233337,68.576729L197.603546,69.636795L197.603546,74.233261L201.654327,74.233261L201.654327,71.051514L203.643692,71.051514L203.643692,74.233261L207.694473,74.233261L207.694473,69.636795C206.70018,69.354164,205.846802,69.000282,205.136703,68.576729L202.578156,66.879379L201.796036,67.515884L200.233337,68.576729"/>
    <path transform="matrix(-1,0,0,1,0,0)" style="stroke:none;fill:#000000;fill-rule:evenodd" d="M189.360291,73.242874L187.085922,74.728058C186.138611,75.294106,184.906311,75.788902,183.390594,76.213242L183.461838,82.576736L189.07608,82.576736L189.07608,78.121979L191.918045,78.121979L191.918045,82.576736L194.263657,82.576736C192.936615,83.283707,191.349655,83.920212,189.501984,84.486252L189.501984,93.324532L197.248108,93.324532L197.248108,87.173203L201.227631,87.173203L201.227631,93.324532L209.044998,93.324532L209.044998,84.486252C207.197327,83.920212,205.586884,83.213242,204.212875,82.364563L200.943436,80.314125L199.238266,79.112358L197.532303,80.455833L197.532303,76.213242C196.206055,75.788902,195.044998,75.294106,194.050705,74.728058L190.425827,72.323738L189.360291,73.242874z"/>
</svg>
