<?xml version="1.0" encoding="UTF-8"?>
<svg xmlns="http://www.w3.org/2000/svg" xmlns:xlink="http://www.w3.org/1999/xlink" width="25.654mm" height="26.444mm" viewBox="-173.604996 66.880165 25.654404 26.443581">
    <path transform="matrix(-1,0,0,1,0,0)" style="stroke:none;fill:#000000;fill-rule:evenodd" d="M160.746475,70.013374L160.495163,70.827599L160.495163,74.525284L159.617523,74.023438L157.672775,72.769997L156.606445,72.018402L155.66539,71.705238L154.725113,72.081039C153.51239,73.083946,152.612823,73.75177,152.027985,74.086075L149.016907,75.276878C148.30603,75.527412,147.950592,76.008118,147.950592,76.718216L148.013214,82.357521L148.452438,83.423065C148.745239,83.715866,149.100677,83.861488,149.518753,83.861488L153.344849,83.861488L153.344849,91.819778L153.784058,92.947952L154.850372,93.323746L172.099457,93.323746L173.165787,92.947952L173.604996,91.819778L173.604996,83.986755C173.604996,83.318932,173.249557,82.859367,172.538666,82.608833C171.033142,82.106987,169.716278,81.522156,168.587326,80.853546L165.826782,79.099045L164.322021,77.971657L163.443604,77.721123L163.443604,76.655586L163.380966,76.405052L170.907867,76.405052C171.325943,76.405052,171.681381,76.258652,171.974197,75.965836C172.266998,75.673813,172.413406,75.318375,172.413406,74.901077L172.413406,70.827599C172.413406,70.158997,172.057968,69.700211,171.347076,69.448891C170.593918,69.198364,169.966812,68.906334,169.464966,68.572037L167.332321,67.193329L166.392044,66.880165L165.450989,67.255959L163.568863,68.572037L161.561493,69.448891L160.746475,70.013374M165.701508,68.94783L166.392044,68.384132L168.649963,69.888107C169.277069,70.263901,170.029449,70.577065,170.907867,70.827599L170.907867,74.901077L162.000702,74.901077L162.000702,70.827599L164.322021,69.888107L165.701508,68.94783zM155.66539,73.209213L156.795135,74.023438L158.864365,75.339508C159.742783,75.840576,160.767609,76.30014,161.938065,76.718216L161.938065,80.415115L163.443604,79.224312L164.949142,80.289856L167.834167,82.169617C169.04689,82.879723,170.468658,83.485695,172.099457,83.986755L172.099457,91.819778L154.850372,91.819778L154.850372,83.986755L159.05304,82.357521L149.518753,82.357521L149.456131,76.718216L152.717728,75.402145C153.261078,75.110115,153.93045,74.650551,154.725113,74.023438L155.66539,73.209213z"/>
</svg>
