<?xml version="1.0" encoding="UTF-8"?>
<svg xmlns="http://www.w3.org/2000/svg" xmlns:xlink="http://www.w3.org/1999/xlink" width="25.441mm" height="18.439mm" viewBox="-561.493713 110.345001 25.441406 18.439102">
    <path transform="matrix(-1,0,0,1,0,0)" style="stroke:none;fill:#000000;fill-rule:evenodd" d="M551.651794,124.881302L551.919556,125.149834L551.919556,128.784103L561.493713,128.784103L552.924011,110.345001L544.488159,110.345001L536.052307,128.784103L545.492615,128.784103L545.492615,125.149834L545.760376,124.881302L551.651794,124.881302zM548.705688,114.988441C548.348694,114.988441,548.059021,114.809158,547.835876,114.449799L547.434204,113.17131L547.835876,111.892815C548.059021,111.534241,548.348694,111.354172,548.705688,111.354172C549.063477,111.354172,549.353149,111.534241,549.576294,111.892815L549.977905,113.17131L549.576294,114.449799C549.353149,114.809158,549.063477,114.988441,548.705688,114.988441z"/>
</svg>
