<?xml version="1.0" encoding="UTF-8"?>
<svg xmlns="http://www.w3.org/2000/svg" xmlns:xlink="http://www.w3.org/1999/xlink" width="25.645mm" height="31.868mm" viewBox="-491.370300 103.630997 25.645020 31.867584">
    <path transform="matrix(-1,0,0,1,0,0)" style="stroke:none;fill:#000000;fill-rule:evenodd" d="M478.50708,103.630997C477.429016,103.630997,476.350159,105.1334,475.271301,108.137428C474.947968,109.049522,474.165833,109.666451,472.924927,109.988228L473.815094,110.632561L473.815094,117.955124L472.844299,119.001091L472.844299,120.772034L465.725281,126.243797L466.048645,126.888138L467.342773,126.888138L467.342773,135.498581L489.752808,135.498581L489.752808,126.888138L491.046967,126.888138L491.3703,126.243797L484.33194,120.772034L484.33194,119.001091L483.361115,117.955124L483.361115,110.632561L484.251312,109.988228C483.011169,109.666451,482.229034,109.049522,481.904907,108.137428L480.691406,105.401154C480.044708,104.221313,479.370636,103.630997,478.669159,103.630997L478.50708,103.630997zM478.426453,109.907593L478.264374,109.988228L478.426453,110.230148L478.50708,110.310005L478.264374,110.310005L478.264374,110.551926L478.021667,110.551926L478.021667,111.034195L477.94104,111.19548L477.860413,111.19548L477.617706,111.597893L477.293579,112.483368L477.212921,112.563217L477.212921,112.64386L476.970245,112.88578L476.889587,113.207558L478.50708,113.207558L478.50708,113.931747L478.669159,114.092247L478.749786,113.931747L478.749786,113.207558L480.205994,113.207558L480.205994,112.88578L479.88266,112.483368L479.88266,112.402725L479.559326,111.597893L479.235199,111.19548L479.154541,111.114838L479.154541,110.551926L478.911835,110.551926L478.911835,110.310005L478.749786,110.310005L478.749786,110.230148L478.911835,110.068871L478.911835,109.988228L478.831207,109.988228L478.831207,109.907593L480.934113,109.907593L480.934113,118.276901L476.242126,118.276901L476.242126,109.907593L478.426453,109.907593zM478.749786,114.334167L478.669159,114.092247L478.669159,114.334167L478.749786,114.334167zM481.662201,125.19783C482.687042,125.573624,483.253876,126.16394,483.361115,126.967987L483.361115,134.130829L473.815094,134.130829L473.815094,126.967987C473.86911,126.16394,474.435181,125.573624,475.514008,125.19783L478.588501,124.79541L481.662201,125.19783z"/>
</svg>
