<?xml version="1.0" encoding="UTF-8"?>
<svg xmlns="http://www.w3.org/2000/svg" xmlns:xlink="http://www.w3.org/1999/xlink" width="25.639mm" height="31.266mm" viewBox="-456.254150 103.931999 25.638733 31.266304">
    <path transform="matrix(-1,0,0,1,0,0)" style="stroke:none;fill:#000000;fill-rule:evenodd" d="M440.546631,105.692764L439.067719,108.720276L438.926788,108.931664C438.879822,109.166534,438.597961,109.354439,438.081238,109.495361C437.377411,109.683258,436.954651,110.128738,436.813721,110.833351C436.672791,111.490219,436.884186,112.053909,437.447876,112.522873L437.588806,112.522873L437.588806,117.382401L437.166016,117.874847L436.743256,119.001457L436.743256,119.776535L431.249573,124.072365C430.873779,124.353432,430.662384,124.705742,430.615417,125.12851L430.826813,126.255127L431.108643,126.818039L432.023865,127.522659L432.023865,133.507996C432.023865,133.977753,432.188293,134.377029,432.51709,134.705078C432.845917,135.033905,433.245209,135.198303,433.714172,135.198303L453.155396,135.198303C453.624359,135.198303,454.023651,135.033905,454.352478,134.705078C454.681305,134.377029,454.845703,133.977753,454.845703,133.507996L454.845703,127.522659L455.760925,126.818039L456.042786,126.255127L456.25415,125.12851C456.207184,124.705742,455.995819,124.353432,455.619995,124.072365L450.126312,119.776535L450.126312,119.001457L449.703552,117.874847L449.280792,117.382401L449.280792,112.522873L449.351257,112.522873C449.961914,112.053909,450.173309,111.490219,449.985413,110.833351C449.844482,110.128738,449.44519,109.683258,448.78833,109.495361L447.872314,108.931664L447.801849,108.720276L446.322937,105.692764C445.524384,104.51918,444.5849,103.931999,443.505249,103.931999L443.364319,103.931999C442.284698,103.931999,441.345215,104.51918,440.546631,105.692764zM440.546631,109.565819L441.603577,107.171684C442.167267,106.138237,442.753662,105.622299,443.364319,105.622299L443.505249,105.622299C444.115936,105.622299,444.702332,106.138237,445.266022,107.171684L446.322937,109.565819C446.604797,110.363609,447.285156,110.903816,448.36557,111.184883L447.590485,111.678116L447.590485,118.086235L448.436035,119.001457L448.436035,120.6213L454.563873,125.410362L454.282013,125.973274L453.155396,125.973274L453.155396,133.507996L433.714172,133.507996L433.714172,125.973274L432.587555,125.973274L432.305725,125.410362L438.433563,120.6213L438.433563,119.001457L439.279114,118.086235L439.279114,111.678116L438.504028,111.184883C439.584442,110.903816,440.264771,110.363609,440.546631,109.565819z"/>
</svg>
