<?xml version="1.0" encoding="UTF-8"?>
<svg xmlns="http://www.w3.org/2000/svg" xmlns:xlink="http://www.w3.org/1999/xlink" width="25.654mm" height="28.858mm" viewBox="-386.036987 105.135567 25.654419 28.858086">
    <path transform="matrix(-1,0,0,1,0,0)" style="stroke:none;fill:#000000;fill-rule:evenodd" d="M364.465454,105.135567L363.512665,107.095192C362.469025,109.348412,361.993042,111.736282,362.083832,114.259605C362.083832,116.692108,362.696075,119.012657,363.921326,121.220459L362.220062,121.220459L360.382568,133.993652L371.882751,133.993652L370.861847,127.572998C372.994476,128.564163,375.171753,129.059738,377.39444,129.059738C379.75412,129.059738,381.999512,128.542236,384.131378,127.505669L386.036987,126.559128L377.462555,118.111526L381.205658,110.001358L373.108002,113.718613L364.465454,105.135567M364.941467,107.771629L372.767426,115.475464L378.143677,112.974854L375.625854,118.38163L383.519135,126.154366C381.658966,127.055496,379.61792,127.505669,377.39444,127.505669C374.264374,127.505669,371.452148,126.581833,368.957001,124.734947L370.113373,132.506897L362.083832,132.506897L363.512665,122.707207L366.847076,122.707207C365.077698,120.589432,363.989441,118.178856,363.58078,115.475464C363.263702,112.772079,363.71698,110.204132,364.941467,107.771629z"/>
</svg>
