<?xml version="1.0" encoding="UTF-8"?>
<svg xmlns="http://www.w3.org/2000/svg" xmlns:xlink="http://www.w3.org/1999/xlink" width="25.654mm" height="34.453mm" viewBox="-350.924011 102.338181 25.654419 34.452759">
    <path transform="matrix(-1,0,0,1,0,0)" style="stroke:none;fill:#000000;fill-rule:evenodd" d="M336.641388,103.063156L336.186493,104.241432L336.095703,105.238861L336.368134,106.055435L336.913818,106.055435L337.187073,106.23629C337.429779,106.538498,337.338959,106.780411,336.913818,106.962051L335.185944,107.596207L334.276215,108.321968L331.364563,104.785561L331.092102,104.604706C330.909698,104.604706,330.728058,104.725273,330.546417,104.967194L333.548096,109.046936L333.457275,111.313461L333.548096,112.220856L333.548096,112.764198L333.457275,113.670807L333.457275,116.572273L333.274872,117.025581L332.729187,117.478882L331.637787,119.292892L332.274292,119.292892L333.002411,119.655373L333.457275,121.196922L334.00296,125.911613L334.457825,130.535477L334.639465,132.892822L332.001862,133.708618C328.484222,134.494659,326.239624,135.521835,325.269592,136.790939L350.924011,136.790939C349.771576,135.340988,347.194214,134.313019,343.191193,133.708618L343.191193,132.892822L342.281464,131.351273L342.463867,126.183281L341.917419,125.458305L341.917419,120.471169L342.736328,120.652802L345.101501,125.911613C346.253937,125.911613,346.648529,125.458305,346.284485,124.550919L343.919312,120.652802L343.191193,118.748764L342.190643,118.295456L342.190643,117.751335L344.374176,115.665665L344.919861,114.487381L344.919861,114.124893L346.011261,113.48996L346.284485,112.039223L344.919861,111.495102L344.374176,109.591064L343.646088,108.684456L342.918762,107.95948L340.826019,107.415352C340.097931,107.294006,339.73465,107.142899,339.73465,106.962051L339.552246,106.689598C339.91629,106.689598,340.158997,106.538498,340.280334,106.23629L341.00766,105.78299C341.311432,105.602135,341.311432,105.420502,341.00766,105.238861L340.461975,104.332253L340.097931,103.516464L339.552246,102.609848L338.370056,102.338181C337.520599,102.338181,336.944366,102.579315,336.641388,103.063156zM342.918762,112.220856L343.009583,112.945831L342.736328,112.764198L342.645508,113.217506L343.191193,114.124893L342.918762,114.487381L342.281464,115.393997L341.917419,116.753906L341.00766,114.487381L342.281464,111.767555L342.918762,112.220856zM336.458954,126.274101L337.187073,121.377777L339.279785,125.911613L339.552246,128.358994L340.461975,130.807144L340.552795,132.711182L340.826019,133.436951L336.641388,133.25531L336.913818,130.535477L336.913818,127.18071L336.458954,126.274101z"/>
</svg>
