<?xml version="1.0" encoding="UTF-8"?>
<svg xmlns="http://www.w3.org/2000/svg" xmlns:xlink="http://www.w3.org/1999/xlink" width="25.106mm" height="32.669mm" viewBox="-315.537720 103.230003 25.105957 32.669289">
    <path transform="matrix(-1,0,0,1,0,0)" style="stroke:none;fill:#000000;fill-rule:evenodd" d="M300.411102,104.433334L299.723694,106.238731L299.551453,107.013023L298.691833,105.981148L298.605713,105.895027C298.204071,105.494179,297.717102,105.292969,297.144012,105.292969C296.341522,105.292969,295.682312,105.665634,295.166382,106.410965C294.76474,107.156296,294.793732,107.786545,295.252502,108.302483L297.401581,111.139748L297.401581,116.555923C296.828491,117.013924,296.36972,117.788223,296.026031,118.877251L296.112152,120.338158L297.401581,121.112457L298.003662,125.06694L298.347351,129.623474L297.487701,129.881058C294.162689,130.512085,291.92749,131.572144,290.781311,133.062012C290.379669,133.577957,290.32251,134.180023,290.60907,134.867416C291.009918,135.555588,291.55481,135.899292,292.242981,135.899292L313.738586,135.899292C314.426758,135.899292,314.97168,135.555588,315.372528,134.867416C315.659058,134.237167,315.572937,133.635101,315.114929,133.062012C314.025909,131.572144,311.904236,130.512085,308.751434,129.881058L308.407745,129.279785L308.407745,126.613968L308.837555,126.613968C309.984528,126.613968,310.815186,126.242088,311.331146,125.496758C311.789917,124.751427,311.876038,123.977913,311.589508,123.17543L311.331146,122.745605L309.439636,119.82222L309.009796,118.102951L309.697998,117.243317L310.299255,116.211441L310.471497,116.039986C310.930298,115.810593,311.216827,115.408958,311.331146,114.835869L311.589508,113.63253C311.703796,112.715744,311.417267,112.084717,310.729065,111.74102L310.299255,111.483444L309.955566,110.451569L307.977936,108.302483L307.375885,107.958786L307.375885,107.872665C307.490967,107.184486,307.261566,106.611397,306.688477,106.153389L306.086426,104.949272L305.914185,104.777817C305.168854,103.745941,304.309204,103.230003,303.334473,103.230003L302.990784,103.230003C301.844604,103.459396,300.984192,103.860245,300.411102,104.433334zM302.217285,108.302483L302.045044,108.216362L301.529083,108.216362L301.270721,107.614304L301.442963,106.668549L301.786682,105.637451L303.248352,105.035393L303.334473,105.035393L304.194916,105.379089L304.710846,106.153389L304.968414,106.754669C305.025574,107.098366,305.226776,107.35672,305.570465,107.528961C305.741943,107.643272,305.684784,107.786545,305.398254,107.958786L304.796173,108.302483L304.108795,108.81842L304.366364,108.989876L305.312134,109.334358L307.032166,109.84951L308.235504,111.139748L308.837555,112.772896L309.869446,113.202713L309.611877,114.492172L308.751434,114.921989L308.751434,115.351807L308.235504,116.297562L306.430115,118.01683L306.430115,118.532768L307.289764,118.877251L307.891815,120.424278C308.121216,121.28392,308.809387,122.430099,309.955566,123.863602C310.127808,124.264458,309.955566,124.522034,309.439636,124.637123L308.837555,124.894699L306.946045,120.596519L306.172546,120.338158L306.172546,124.464882L306.688477,125.06694L306.688477,129.537354L307.289764,130.826813L307.289764,131.428864C310.614777,131.944809,312.764648,132.804443,313.738586,134.007782L292.242981,134.007782C293.045471,132.861603,294.90802,132.059113,297.831421,131.600327L300.067413,130.740692L300.067413,128.76384L299.723694,124.98082L299.035522,120.940216L298.691833,119.564644L298.089783,119.478523L297.573822,119.392403L298.605713,117.845375L298.949402,117.501678L299.035522,117.071075L299.035522,114.320709L299.207764,113.890892L299.207764,113.374954L299.035522,112.51532L299.207764,110.70993L296.714203,107.35672L297.144012,107.013023L297.401581,107.098366L299.809052,110.021751L300.583344,109.419693L301.270721,109.162117L302.045044,108.989876C302.331573,108.81842,302.388733,108.589027,302.217285,108.302483zM306.946045,113.976234L307.118286,113.976234L307.032166,113.460297L306.516235,112.859016L305.398254,115.351807L305.914185,116.555923L306.172546,117.243317L306.688477,116.211441L307.032166,115.437927L307.289764,114.921989L306.773804,114.234589L306.946045,113.976234zM302.045044,125.926575L302.045044,128.76384L301.786682,131.085175L302.990784,131.085175L305.312134,131.256622L305.054535,130.65535L304.968414,129.021423L304.194916,126.95845L303.936554,124.894699L302.217285,121.112457L301.529083,125.238396L302.045044,125.926575z"/>
</svg>
