<?xml version="1.0" encoding="UTF-8"?>
<svg xmlns="http://www.w3.org/2000/svg" xmlns:xlink="http://www.w3.org/1999/xlink" width="24.928mm" height="22.760mm" viewBox="-280.335602 108.184700 24.927521 22.760048">
    <path transform="matrix(-1,0,0,1,0,0)" style="stroke:none;fill:#000000;fill-rule:evenodd" d="M266.705627,108.818855C266.495819,108.607468,266.159943,108.39608,265.698029,108.1847L265.131195,108.1847L263.051788,111.294418C262.211731,112.648849,261.287903,113.474037,260.27951,113.769981C260.027405,113.600868,259.838715,113.219597,259.712677,112.627716L259.208496,111.294418C258.368408,114.044785,257.906494,116.117928,257.82196,117.514641L258.578247,115.927681L259.649261,114.531754L259.775299,115.483772L260.090027,116.245544C260.46817,116.117928,261.119568,115.779709,262.043396,115.229324C262.84198,114.722,263.555969,114.383781,264.185455,114.21389L263.303894,117.260979L262.358917,120.370697C264.039032,121.682854,265.86557,122.550323,267.840057,122.973091C267.840057,122.423492,268.344269,122.105629,269.351868,122.021072C270.36026,121.936516,270.927094,122.105629,271.053131,122.529182C272.061523,121.76741,272.607208,121.111328,272.691772,120.560944L271.619965,117.260979C269.814575,112.775681,268.175934,109.961906,266.705627,108.818855z"/>
    <path transform="matrix(-1,0,0,1,0,0)" style="stroke:none;fill:#000000;fill-rule:evenodd" d="M270.108154,123.036507L268.84845,123.226753C268.680115,123.226753,268.637848,123.312088,268.722412,123.481201L268.974518,125.194992L269.163177,125.385239L270.422882,125.194992L270.612366,124.940544L270.36026,123.226753L270.108154,123.036507z"/>
    <path transform="matrix(-1,0,0,1,0,0)" style="stroke:none;fill:#000000;fill-rule:evenodd" d="M272.754395,120.815392L273.321228,122.147903L273.636749,123.481201C273.552185,123.988525,272.838165,124.454361,271.49469,124.877129L271.557312,125.321823L271.368652,125.892563L270.108154,126.273842L268.218201,126.527504C267.966125,126.485229,267.840057,126.104736,267.840057,125.385239C267.083771,125.427513,266.012756,125.15271,264.627014,124.560051C263.11441,123.967384,261.980774,123.290955,261.224487,122.529182L261.917358,121.132469C258.431061,120.878807,256.31015,121.343857,255.553864,122.529182C255.175705,123.290955,255.532715,124.348663,256.624878,125.702316L259.712677,128.622574C261.350525,130.018509,263.660889,130.780273,266.643005,130.907104C270.422882,131.118484,273.510681,130.442062,275.904816,128.876236C278.298981,127.310417,279.769287,124.982819,280.314972,121.894241C280.398743,120.667419,280.252319,119.969063,279.874176,119.799957C278.739746,119.334122,276.36673,119.67234,272.754395,120.815392z"/>
</svg>
