<?xml version="1.0" encoding="UTF-8"?>
<svg xmlns="http://www.w3.org/2000/svg" xmlns:xlink="http://www.w3.org/1999/xlink" width="24.686mm" height="22.648mm" viewBox="-245.101639 108.240997 24.686264 22.648026">
    <path transform="matrix(-1,0,0,1,0,0)" style="stroke:none;fill:#000000;fill-rule:evenodd" d="M225.127304,110.974136L224.904968,110.974136C224.349884,111.08609,223.997574,111.40239,223.849609,111.923027C223.108963,114.228699,222.68306,116.143692,222.571899,117.668022L222.738647,118.504951L223.516083,119.006798L223.905182,119.063171C224.423477,119.063171,224.812576,118.821251,225.071716,118.33741L225.294067,117.947517L225.905518,118.058693L226.349426,117.947517C226.682953,117.835564,227.016479,117.686813,227.349991,117.501259L226.682953,119.620598L225.73877,119.56501C223.256943,119.56501,221.608917,120.197601,220.7939,121.462006L220.738312,121.573181C220.145645,122.652031,220.367996,123.897636,221.40535,125.310791L224.682617,128.490189L224.738205,128.545776C226.405014,129.958923,228.683289,130.74028,231.572235,130.889023L232.73877,130.889023C236.183563,130.889023,238.961334,130.107681,241.072067,128.545776C243.220367,126.983871,244.553665,124.752579,245.071945,121.851891L245.071945,121.740723C245.220703,120.03006,244.812805,118.988792,243.849823,118.616905L242.127426,118.33741L238.016357,119.006798L237.405701,117.333717L237.294525,117.055C235.553329,112.852341,233.979675,110.193573,232.572006,109.077927L231.405472,108.352951L230.849609,108.240997L230.350098,108.240997C229.979004,108.240997,229.664276,108.370964,229.405136,108.631668L227.7939,110.918549L226.682953,112.592415L226.238266,111.587936C225.979111,111.17926,225.608795,110.974136,225.127304,110.974136zM228.516525,112.312912L230.350098,109.579773L230.849609,109.579773L231.738983,110.137993C232.99791,111.104881,234.442383,113.577316,236.072403,117.556847L236.738647,119.397469L236.683075,119.397469L235.961227,119.955688C235.775681,120.253189,235.702087,120.569489,235.738876,120.903793L236.072403,121.79631L235.961227,121.908264C235.664505,121.498802,235.257385,121.294464,234.739105,121.294464L234.516754,121.294464L233.405029,121.462006C232.813141,121.573181,232.424042,121.908264,232.23848,122.465698C231.016357,122.131393,229.886627,121.628761,228.850052,120.959373C228.850052,120.625076,228.756882,120.364365,228.572113,120.178818L228.016251,119.732559L228.850052,117.27813L229.516312,114.934883L227.627136,115.771812L225.905518,116.719917L225.627594,115.994942L225.516418,115.158012L224.572235,116.385612L223.905182,117.779976C223.979568,116.552376,224.386673,114.730545,225.127304,112.312912L225.572006,113.484932C225.683182,114.005569,225.84993,114.339867,226.071503,114.488625C226.960892,114.228699,227.775894,113.502937,228.516525,112.312912zM222.849823,124.975708C221.886841,123.785683,221.572113,122.856369,221.904846,122.186981C222.460724,121.331261,223.738434,120.903793,225.73877,120.903793L226.738541,120.959373L227.072052,121.350052L227.294403,121.517593L226.905304,122.186981C227.53476,122.818787,228.442154,123.377007,229.627472,123.860062C230.70163,124.343903,231.627808,124.622612,232.405243,124.696991L232.405243,124.752579L232.905518,125.701462C233.201462,125.924591,233.534988,126.035767,233.905304,126.035767L235.238602,125.868225L236.238373,125.255203C236.460724,124.92012,236.553894,124.548233,236.516312,124.139557L236.516312,124.083191L237.849609,123.079498L237.682846,122.131393L238.349884,120.625076L238.349884,120.289986L242.127426,119.620598L243.350327,119.843727C243.683075,119.955688,243.813034,120.550697,243.738663,121.628761C243.294739,124.195145,242.109421,126.165726,240.183456,127.542084C238.294296,128.880859,235.812469,129.550247,232.73877,129.550247L231.683395,129.550247C229.053604,129.438293,227.016479,128.768906,225.572006,127.542084L222.849823,124.975708z"/>
</svg>
