<?xml version="1.0" encoding="UTF-8"?>
<svg xmlns="http://www.w3.org/2000/svg" xmlns:xlink="http://www.w3.org/1999/xlink" width="25.637mm" height="25.654mm" viewBox="-210.465393 106.737999 25.637192 25.654411">
    <path transform="matrix(-1,0,0,1,0,0)" style="stroke:none;fill:#000000;fill-rule:evenodd" d="M197.579468,106.737999C194.656082,106.737999,192.047424,107.657921,189.753494,109.498543L197.916901,117.646286L205.742874,109.76786C203.403534,107.747955,200.682922,106.737999,197.579468,106.737999z"/>
    <path transform="matrix(-1,0,0,1,0,0)" style="stroke:none;fill:#000000;fill-rule:evenodd" d="M187.796997,127.81395L195.960403,119.598869L187.796997,111.383789C185.81781,113.71843,184.828201,116.456268,184.828201,119.598869C184.828201,122.74147,185.81781,125.479309,187.796997,127.81395zM186.65004,118.117599C186.65004,116.905655,187.70697,116.299683,189.820831,116.299683L191.642654,116.299683L191.642654,122.494072L189.820831,122.494072L189.820831,119.666199L188.201767,122.494072L186.312607,122.494072L187.931656,119.666199C187.076721,119.352249,186.65004,118.835526,186.65004,118.117599zM189.55072,117.309639C188.786606,117.309639,188.403748,117.578957,188.403748,118.117599C188.403748,118.700867,188.763901,118.992897,189.483383,118.992897L189.820831,118.992897L189.820831,117.309639L189.55072,117.309639z"/>
    <path transform="matrix(-1,0,0,1,0,0)" style="stroke:none;fill:#000000;fill-rule:evenodd" d="M189.753494,129.631866C192.047424,131.472488,194.656082,132.39241,197.579468,132.39241C200.727554,132.39241,203.448944,131.382446,205.742874,129.362549L197.916901,121.484116L189.753494,129.631866z"/>
    <path transform="matrix(-1,0,0,1,0,0)" style="stroke:none;fill:#000000;fill-rule:evenodd" d="M207.699371,127.477295C209.543121,125.187279,210.465393,122.561401,210.465393,119.598869C210.465393,116.590927,209.543121,113.965042,207.699371,111.720444L199.873398,119.598869L207.699371,127.477295zM203.921036,118.117599C203.921036,116.905655,204.977966,116.299683,207.091827,116.299683L208.913666,116.299683L208.913666,122.494072L207.091827,122.494072L207.091827,119.666199L205.472763,122.494072L203.65094,122.494072L205.13533,119.666199C204.325806,119.352249,203.921036,118.835526,203.921036,118.117599zM205.5401,118.117599C205.5401,118.700867,205.944855,118.992897,206.754395,118.992897L207.091827,118.992897L207.091827,117.309639L206.82251,117.309639C205.96756,117.309639,205.5401,117.578957,205.5401,118.117599z"/>
</svg>
