<?xml version="1.0" encoding="UTF-8"?>
<svg xmlns="http://www.w3.org/2000/svg" xmlns:xlink="http://www.w3.org/1999/xlink" width="25.654mm" height="25.834mm" viewBox="-175.360992 106.647179 25.654404 25.834480">
    <path transform="matrix(-1,0,0,1,0,0)" style="stroke:none;fill:#000000;fill-rule:evenodd" d="M162.533783,106.647179C159.007568,106.647179,155.988663,107.923325,153.475525,110.476395C150.96315,112.988754,149.706589,116.028793,149.706589,119.594948C149.706589,123.16111,150.96315,126.180008,153.475525,128.652435C155.988663,131.205505,159.007568,132.481659,162.533783,132.481659C166.140656,132.481659,169.20105,131.205505,171.713409,128.652435C174.145126,126.180008,175.360992,123.16111,175.360992,119.594948C175.360992,116.028793,174.145126,112.988754,171.713409,110.476395C169.20105,107.923325,166.140656,106.647179,162.533783,106.647179zM174.023788,119.594948C174.023788,122.228661,173.253403,124.600098,171.713409,126.706909L164.600677,119.594948L171.713409,112.482208C173.253403,114.549095,174.023788,116.919746,174.023788,119.594948zM172.625504,116.677048L171.166153,116.677048C169.220627,116.677048,168.248245,117.224297,168.248245,118.318024C168.248245,118.96627,168.633438,119.432892,169.403046,119.716301L168.004761,122.269371L169.64653,122.269371L171.105881,119.716301L171.166153,119.716301L171.166153,122.269371L172.625504,122.269371L172.625504,116.677048zM171.166153,117.589134L171.166153,119.108765L170.862396,119.108765C170.132721,119.108765,169.767883,118.844925,169.767883,118.318024C169.767883,117.831833,170.153076,117.589134,170.923462,117.589134L171.166153,117.589134zM155.482117,110.476395C157.589706,108.815056,159.940002,107.98439,162.533783,107.98439C165.330338,107.98439,167.80278,108.895699,169.950302,110.719879L162.837555,117.831833L155.482117,110.476395zM162.533783,131.14444C159.899292,131.14444,157.548996,130.313782,155.482117,128.652435L162.837555,121.296997L169.950302,128.408951C167.80278,130.233139,165.330338,131.14444,162.533783,131.14444zM153.718994,127.010681C151.935532,124.863159,151.043793,122.390724,151.043793,119.594948C151.043793,116.757683,151.935532,114.286034,153.718994,112.178444L161.135513,119.594948L153.718994,127.010681zM155.542404,116.677048C153.637573,116.677048,152.685562,117.224297,152.685562,118.318024C152.685562,118.96627,153.070755,119.432892,153.840347,119.716301L152.442078,122.269371L154.144119,122.269371L155.542404,119.716301L155.542404,122.269371L157.184158,122.269371L157.184158,116.677048L155.542404,116.677048zM155.299698,119.108765C154.610733,119.108765,154.266251,118.844925,154.266251,118.318024C154.266251,117.831833,154.631088,117.589134,155.359985,117.589134L155.542404,117.589134L155.542404,119.108765L155.299698,119.108765z"/>
</svg>
