<?xml version="1.0" encoding="UTF-8"?>
<svg xmlns="http://www.w3.org/2000/svg" xmlns:xlink="http://www.w3.org/1999/xlink" width="25.188mm" height="33.671mm" viewBox="-561.531738 145.688995 25.187744 33.671417">
    <path transform="matrix(-1,0,0,1,0,0)" style="stroke:none;fill:#000000;fill-rule:evenodd" d="M546.904602,147.014465C546.315063,147.898361,545.93219,148.959213,545.75531,150.196213L541.512695,150.196213L541.512695,151.521683L542.396606,151.521683L542.396606,153.99646C541.688843,154.290833,541.070374,154.673676,540.540283,155.144989C539.419983,156.087616,538.771729,157.266678,538.595581,158.680603L536.385437,171.671448C536.208496,173.203598,536.562378,174.470352,537.446228,175.471695C537.976257,176.001724,538.654297,176.444061,539.479492,176.79715L539.479492,179.360413L558.573059,179.360413L558.573059,176.79715L560.429382,175.471695C561.313293,174.411621,561.667175,173.144882,561.490234,171.671448L559.45697,158.680603C559.221313,157.207169,558.543335,156.0289,557.423767,155.144989L555.479004,153.99646L555.479004,151.521683L556.451416,151.521683L556.451416,150.196213L552.120361,150.196213C551.94342,149.017929,551.560547,147.957092,550.971008,147.014465C550.322754,146.130554,549.644775,145.688995,548.937805,145.688995C548.171326,145.688995,547.494141,146.130554,546.904602,147.014465zM541.865784,157.885178L543.898987,157.885178L543.898987,159.387573L553.888184,159.387573L553.888184,157.885178L556.009827,157.885178L556.539856,159.122177L558.75,172.025314C558.808716,172.673569,558.631836,173.203598,558.219238,173.616196C557.924866,174.028,557.453552,174.234695,556.805298,174.234695L554.506653,174.234695L554.506653,171.495285L550.794067,171.495285L550.794067,171.318344L550.264038,169.992889C549.910156,169.639008,549.49762,169.462067,549.026306,169.462067C548.436768,169.462067,547.965454,169.639008,547.611572,169.992889L546.993042,171.318344L546.993042,171.495285L543.368958,171.495285L543.368958,174.234695L541.158813,174.234695L539.656433,173.616196C539.302551,173.203598,539.184326,172.673569,539.302551,172.025314L541.424194,159.122177L541.865784,157.885178z"/>
</svg>
