<?xml version="1.0" encoding="UTF-8"?>
<svg xmlns="http://www.w3.org/2000/svg" xmlns:xlink="http://www.w3.org/1999/xlink" width="24.956mm" height="32.469mm" viewBox="-526.273010 146.289993 24.956421 32.468857">
    <path transform="matrix(-1,0,0,1,0,0)" style="stroke:none;fill:#000000;fill-rule:evenodd" d="M511.477753,147.354752C510.714417,148.064072,510.154633,149.001999,509.798401,150.167755L505.753113,150.167755L505.753113,154.654602L505.523712,154.882431C504.251495,155.947189,503.488953,157.31572,503.234497,158.9888L501.402466,170.166412C501.097137,171.889603,501.555145,173.435852,502.776489,174.805161L503.997833,175.793182L503.997833,178.75885L523.690369,178.75885L523.690369,175.793182L524.911743,174.805161C526.03125,173.537628,526.464233,171.966324,526.209778,170.090469L524.377747,159.064743C524.174194,157.290665,523.435913,155.896301,522.16449,154.882431L522.011841,154.654602L522.011841,150.167755L517.889771,150.167755C517.584473,149.001999,517.075562,148.064072,516.363098,147.354752C515.599792,146.644653,514.785522,146.289993,513.92041,146.289993C513.004456,146.289993,512.190186,146.644653,511.477753,147.354752zM507.432465,151.916763L511.249146,151.916763C511.350922,150.902908,511.65625,149.990814,512.165161,149.179718L513.92041,148.039017C514.531128,148.039017,515.115967,148.418732,515.67572,149.179718C516.184631,149.939926,516.515808,150.852005,516.668457,151.916763L520.255737,151.916763L520.255737,153.057465L519.339722,153.057465L519.339722,155.186981C520.052185,155.439865,520.612,155.76947,521.019104,156.175018C521.935059,156.986115,522.494873,157.999985,522.698425,159.216629L524.453735,170.394241C524.657288,171.712662,524.351929,172.802475,523.53772,173.664459L522.011841,174.805161L522.011841,177.009827L505.753113,177.009827L505.753113,174.805161L504.073761,173.664459C503.259552,172.751587,502.954224,171.661774,503.157776,170.394241L504.989777,159.216629C505.142456,157.949097,505.702209,156.935226,506.669128,156.175018L508.271729,155.186981L508.271729,153.057465L507.432465,153.057465L507.432465,151.916763zM509.569794,158.532364L507.737793,158.532364L507.432465,159.597122L505.600433,170.698792C505.498657,171.256226,505.625488,171.712662,505.98172,172.067322C506.236176,172.421982,506.64328,172.599701,507.203064,172.599701L509.111786,172.599701L509.111786,170.242355L512.31781,170.242355L512.31781,170.090469L512.775818,168.949768C513.132019,168.645218,513.513306,168.493332,513.92041,168.493332L515.065063,168.949768L515.523071,170.090469L515.523071,170.242355L518.576416,170.242355L518.576416,172.599701L520.561096,172.599701C521.069946,172.599701,521.477112,172.421982,521.78241,172.067322C522.138672,171.712662,522.266235,171.256226,522.16449,170.698792L520.332458,159.597122L519.950439,158.532364L518.04248,158.532364L518.04248,159.824951L509.569794,159.824951L509.569794,158.532364zM520.332458,170.318298L520.408386,170.850677L520.332458,170.850677L520.332458,170.318298z"/>
</svg>
