<?xml version="1.0" encoding="UTF-8"?>
<svg xmlns="http://www.w3.org/2000/svg" xmlns:xlink="http://www.w3.org/1999/xlink" width="25.654mm" height="39.484mm" viewBox="-491.481995 142.783005 25.654419 39.483734">
    <path transform="matrix(-1,0,0,1,0,0)" style="stroke:none;fill:#000000;fill-rule:evenodd" d="M468.332886,142.882431L468.332886,143.181503L471.940552,146.472076L472.140991,146.571503L472.3414,146.37265L472.44162,145.275787L474.345642,147.170441L474.646301,147.269867L474.74649,147.070221L474.84671,146.27243L476.650543,147.967438L476.951172,147.967438C477.151611,147.835129,477.185272,147.734909,477.051392,147.668365L474.646301,144.577438L474.345642,144.478012L474.245453,144.677643L474.145233,145.375214L472.24118,143.480576L471.940552,143.480576L471.840332,143.580795L471.639923,144.777084L468.633545,142.783005L468.332886,142.882431"/>
    <path transform="matrix(-1,0,0,1,0,0)" style="stroke:none;fill:#000000;fill-rule:evenodd" d="M476.349915,149.563004L476.149475,149.363373L472.3414,148.865433L472.140991,148.964859L472.140991,149.164505L472.54184,149.76265L469.83609,149.76265L469.635651,149.862076L469.73587,150.161148L470.337158,151.058365L466.829712,151.856155L466.729492,152.055801L466.929932,152.255432L471.840332,152.155228L471.940552,151.95636L471.940552,151.756729L471.339264,150.958939L474.045013,150.958939L474.245453,150.759293L474.245453,150.56044L473.744385,149.862076L476.149475,149.76265L476.349915,149.563004z"/>
    <path transform="matrix(-1,0,0,1,0,0)" style="stroke:none;fill:#000000;fill-rule:evenodd" d="M478.654785,149.463577L478.153717,150.061722L478.153717,154.64801L477.652679,154.947083L467.531189,182.266739L471.539703,182.266739L478.755005,180.372101L479.757141,180.571747L485.569458,182.266739L489.778381,182.266739L479.656921,154.947083L479.155853,154.64801L479.155853,150.061722L478.654785,149.463577zM487.5737,180.571747L487.874329,181.468964L482.963928,180.372101L487.172852,180.372101L487.5737,180.571747zM474.546082,180.372101L469.435242,181.468964L469.73587,180.571747L470.136719,180.372101L474.546082,180.372101zM477.55246,159.633591L478.654785,156.741516L479.757141,159.633591L477.55246,159.633591zM477.752869,160.730438L477.953308,160.630234L479.155853,160.630234L479.456482,160.730438L478.554565,165.117096L477.752869,160.730438zM477.251831,166.213943L475.147339,166.213943L476.450104,162.425446L477.251831,166.213943zM482.162231,166.213943L479.95755,166.213943L480.659058,162.2258L482.162231,166.213943zM472.642029,172.794312L474.345642,168.108582L477.051392,172.794312L472.642029,172.794312zM480.258179,172.794312L482.863708,168.008377L484.667542,172.794312L480.258179,172.794312zM470.337158,179.474884L470.136719,179.375458L471.940552,174.589523L476.850952,179.474884L470.337158,179.474884zM481.560944,167.21138L478.755005,172.694885L475.548218,167.21138L481.560944,167.21138zM487.172852,179.375458L486.972443,179.474884L480.358398,179.474884L485.268829,174.489304L487.172852,179.375458zM478.654785,179.175812L473.143097,173.791733L483.966064,173.791733L478.654785,179.175812z"/>
    <path transform="matrix(-1,0,0,1,0,0)" style="stroke:none;fill:#000000;fill-rule:evenodd" d="M470.236938,154.947083L470.437378,155.046509L471.539703,155.246155L467.932037,158.736374L467.932037,159.035446L468.032257,159.134872L469.73587,159.433945L465.827576,164.718582L465.827576,165.017654L466.128235,165.017654L472.140991,159.035446L472.140991,158.8358L471.940552,158.636154L470.437378,158.437302L474.045013,154.847656L474.045013,154.64801L473.944794,154.548584L472.742249,154.348938L475.848846,151.058365L475.848846,150.759293L475.548218,150.659866L470.337158,154.64801L470.236938,154.947083z"/>
    <path transform="matrix(-1,0,0,1,0,0)" style="stroke:none;fill:#000000;fill-rule:evenodd" d="M485.569458,143.680222L485.369019,143.480576L485.16861,143.480576L483.264557,145.375214L483.164368,144.677643L482.963928,144.478012L482.763519,144.577438L480.358398,147.668365L480.358398,147.967438L480.659058,147.967438L482.46286,146.37265L482.763519,147.369293L482.963928,147.269867L484.867981,145.375214L485.06839,146.37265L485.16861,146.571503L485.469238,146.472076L488.976685,143.181503L488.976685,142.882431L488.676056,142.882431L485.669678,144.777084L485.569458,143.680222z"/>
    <path transform="matrix(-1,0,0,1,0,0)" style="stroke:none;fill:#000000;fill-rule:evenodd" d="M487.5737,150.161148L487.67392,149.862076L487.47348,149.76265L484.767761,149.76265L485.16861,149.164505L485.16861,148.964859L484.96817,148.865433L481.160095,149.363373L480.959686,149.563004L481.160095,149.76265L483.565216,149.862076L483.064148,150.56044L483.064148,150.759293L483.264557,150.958939L485.970306,150.958939L485.369019,151.756729L485.369019,151.95636L485.469238,152.155228L490.379669,152.255432L490.580078,152.055801L490.479858,151.856155L486.972443,151.058365L487.5737,150.161148z"/>
    <path transform="matrix(-1,0,0,1,0,0)" style="stroke:none;fill:#000000;fill-rule:evenodd" d="M489.277313,159.134872L489.377533,159.035446L489.377533,158.736374L485.769867,155.246155L486.872223,155.046509L487.072632,154.947083L486.972443,154.64801L481.761383,150.659866L481.460754,150.759293L481.460754,151.058365L484.567322,154.348938L483.364777,154.548584L483.264557,154.64801L483.264557,154.847656L486.872223,158.437302L485.369019,158.636154L485.16861,158.8358L485.16861,159.035446L491.181366,165.017654L491.481995,165.017654L491.481995,164.718582L487.5737,159.433945L489.277313,159.134872z"/>
</svg>
