<?xml version="1.0" encoding="UTF-8"?>
<svg xmlns="http://www.w3.org/2000/svg" xmlns:xlink="http://www.w3.org/1999/xlink" width="25.404mm" height="36.861mm" viewBox="-456.214966 144.093613 25.404327 36.860992">
    <path transform="matrix(-1,0,0,1,0,0)" style="stroke:none;fill:#000000;fill-rule:evenodd" d="M433.434387,145.007278C433.045288,145.449615,432.879303,145.948334,432.934875,146.501068C432.934875,147.054581,433.156464,147.525116,433.601135,147.912659L435.84967,150.071136C435.072235,150.182312,434.544556,150.569077,434.267395,151.233765L434.100647,151.56572L433.267639,151.731689L431.93512,152.561584C431.601593,153.0047,431.490417,153.50264,431.601593,154.056152C431.657166,154.665253,431.906921,155.135788,432.351624,155.467743C432.739929,155.855286,433.212036,156.04866,433.76712,156.04866L434.517151,155.965668L434.600128,156.71257L433.184631,158.041168C432.573181,158.650269,432.407196,159.369766,432.684357,160.199646L433.017883,160.863556L431.185089,163.188019C430.852356,163.686737,430.74118,164.212067,430.852356,164.765579L431.601593,166.17717L432.934875,166.67511C433.545563,166.67511,434.073242,166.453537,434.517151,166.0112L438.431702,162.192154L432.434601,178.297409C432.21228,178.906509,432.267853,179.51561,432.601379,180.123932C432.989685,180.67746,433.545563,180.954605,434.267395,180.954605L438.181946,180.954605L443.595795,179.460022L448.67688,180.954605L452.758179,180.954605C453.480011,180.954605,454.035889,180.67746,454.424225,180.123932C454.757721,179.51561,454.813324,178.906509,454.590973,178.297409L448.593872,162.192154L452.508423,166.0112C452.952332,166.453537,453.480011,166.67511,454.090698,166.67511L455.423981,166.17717L456.173248,164.765579C456.284424,164.212067,456.173248,163.686737,455.840485,163.188019L454.007721,160.863556L454.341217,160.199646C454.618378,159.369766,454.452393,158.650269,453.840942,158.041168L452.425446,156.71257L452.508423,155.965668L453.258453,156.04866C453.813538,156.04866,454.285645,155.855286,454.67395,155.467743C455.118652,155.135788,455.368408,154.665253,455.423981,154.056152L455.090485,152.561584L453.674957,151.731689L452.924927,151.56572L452.758179,151.233765C452.425446,150.569077,451.925171,150.182312,451.258911,150.071136L453.424438,147.995651C453.869141,147.553299,454.118866,147.054581,454.174469,146.501068L453.674957,145.007278C453.230286,144.453751,452.647003,144.176605,451.925171,144.176605L450.842407,144.509338L450.09314,145.007278L449.759644,144.841293L449.093384,144.758316C448.482697,144.758316,447.955017,144.951691,447.511108,145.339233L447.261353,145.588196L447.094604,145.588196C446.428345,145.588196,445.845093,145.865341,445.345581,146.418076L443.595795,148.743317L441.763763,146.335098C441.319092,145.837158,440.736603,145.588196,440.01474,145.588196L439.847992,145.588196L439.598236,145.339233C439.153534,144.896103,438.625854,144.675323,438.015198,144.675323L437.348938,144.841293L437.016205,145.007278L436.349152,144.509338L435.100433,144.093613C434.378571,144.093613,433.822723,144.398178,433.434387,145.007278zM448.926605,146.750824L449.093384,146.750824L449.260132,146.833801L449.34314,147.829666L451.842163,146.169113L452.091919,146.252106L452.091919,146.501068L449.176361,149.241257L448.926605,149.324249L448.843628,149.158264L448.67688,148.244614L447.094604,149.822174C447.039032,149.932571,446.983429,149.960754,446.927856,149.905167L446.844849,149.739182L446.678101,149.075272L445.178833,150.486084L444.929077,150.486084L444.929077,150.237122L446.927856,147.663696L447.094604,147.580704L447.261353,147.746674L447.34436,148.327591L448.926605,146.750824zM450.842407,151.980652L451.009155,152.063644L450.926178,152.22963L450.425903,153.060287L453.341461,153.641205L453.424438,153.80719L453.258453,154.056152L449.176361,153.890182L449.093384,153.80719L449.093384,153.558228L449.592865,152.893524L447.34436,152.893524L447.177612,152.810547L447.177612,152.561584L447.594116,152.063644L445.595337,151.980652L445.428589,151.814682L445.595337,151.56572L448.760651,151.150772L448.926605,151.233765L448.926605,151.482727L448.593872,151.980652L450.842407,151.980652zM441.430237,151.56572L441.597015,151.814682L441.430237,151.980652L439.431488,152.063644L439.847992,152.561584L439.847992,152.810547L439.681213,152.893524L437.432709,152.893524L437.93222,153.558228L437.93222,153.80719L437.849213,153.890182L433.76712,154.056152L433.601135,153.80719L433.684143,153.641205L436.599701,153.060287L436.099426,152.22963L436.016418,152.063644L436.183197,151.980652L438.431702,151.980652L438.098969,151.482727L438.098969,151.233765L438.264954,151.150772L441.430237,151.56572zM434.933655,146.501068L434.933655,146.252106L435.183411,146.169113L437.682465,147.746674L437.849213,146.833801L437.93222,146.667831L438.181946,146.750824L439.764221,148.327591L439.847992,147.746674L439.930969,147.580704L440.180725,147.580704L442.180267,150.154129L442.096497,150.403091L441.846771,150.403091L440.347473,149.075272L440.264496,149.739182L440.180725,149.905167L439.930969,149.822174L438.348724,148.244614L438.264954,149.075272L438.098969,149.241257L437.93222,149.241257L434.933655,146.501068zM436.51593,156.21463L436.599701,156.04866L440.930756,152.727554L441.180511,152.727554L441.180511,152.977295L438.59845,155.716705L439.598236,155.88269L439.681213,156.04866L439.681213,156.21463L436.682678,159.120026L437.93222,159.369766L438.098969,159.452759L438.098969,159.701721L433.100861,164.682602L432.851135,164.682602L432.851135,164.433624L436.099426,159.950684L434.683899,159.784714L434.600128,159.618729L434.600128,159.452759L437.598694,156.546585L436.682678,156.380615L436.51593,156.21463zM452.425446,159.452759L452.425446,159.618729L452.341675,159.784714L450.926178,159.950684L454.174469,164.433624L454.174469,164.682602L453.924713,164.682602L448.926605,159.701721L448.926605,159.452759L449.093384,159.369766L450.342896,159.120026L447.34436,156.21463L447.34436,156.04866L447.427338,155.88269L448.427124,155.716705L445.845093,152.977295L445.845093,152.727554L446.094818,152.727554L450.425903,156.04866L450.509674,156.21463L450.342896,156.380615L449.42691,156.546585L452.425446,159.452759zM443.096283,152.146637L443.512787,151.731689L443.929291,152.146637L443.929291,156.04866L444.345795,156.297623L452.758179,178.962097L449.260132,178.962097L443.595795,177.467529L437.598694,178.962097L434.267395,178.962097L442.679779,156.297623L443.096283,156.04866L443.096283,152.146637zM447.094604,177.467529L451.175934,178.380402L450.926178,177.633499L450.592651,177.467529L447.094604,177.467529zM435.84967,178.380402L440.097748,177.467529L436.432922,177.467529L436.099426,177.550507L435.84967,178.380402zM443.512787,157.709213L442.596802,160.199646L444.428802,160.199646L443.512787,157.709213zM442.762756,161.029541L443.42981,164.765579L444.179047,161.029541L442.762756,161.029541zM440.597229,165.678452L442.347046,165.678452L441.679993,162.524109L440.597229,165.678452zM444.595551,165.678452L446.428345,165.678452L445.178833,162.275146L444.595551,165.678452zM439.930969,167.256027L438.515472,171.158051L442.180267,171.158051L439.930969,167.256027zM448.510101,171.158051L447.010834,167.173035L444.845306,171.158051L448.510101,171.158051zM436.432922,176.637634L442.013519,176.637634L437.93222,172.652618L436.432922,176.637634zM443.595795,170.992065L445.92807,166.509125L440.930756,166.509125L443.595795,170.992065zM444.929077,176.637634L450.592651,176.637634L449.010376,172.486649L444.929077,176.637634zM438.931976,171.98793L443.512787,176.471664L447.927612,171.98793L438.931976,171.98793z"/>
</svg>
