<?xml version="1.0" encoding="UTF-8"?>
<svg xmlns="http://www.w3.org/2000/svg" xmlns:xlink="http://www.w3.org/1999/xlink" width="25.654mm" height="25.440mm" viewBox="-421.197998 149.804047 25.654419 25.439880">
    <path transform="matrix(-1,0,0,1,0,0)" style="stroke:none;fill:#000000;fill-rule:evenodd" d="M408.370789,149.804047C404.828918,149.804047,401.806091,151.049652,399.300781,153.539307C396.796234,155.986679,395.543579,158.971146,395.543579,162.491882C395.543579,166.012634,396.796234,169.018234,399.300781,171.508667C401.806091,173.998322,404.828918,175.243927,408.370789,175.243927C411.912689,175.243927,414.935486,173.998322,417.440796,171.508667C419.945343,169.018234,421.197998,166.012634,421.197998,162.491882C421.197998,158.971146,419.945343,155.986679,417.440796,153.539307C414.935486,151.049652,411.912689,149.804047,408.370789,149.804047zM400.467316,154.698792C402.669647,152.509003,405.304138,151.41449,408.370789,151.41449C411.437439,151.41449,414.07196,152.509003,416.274261,154.698792C418.433533,156.845535,419.513947,159.443237,419.513947,162.491882C419.513947,165.540543,418.433533,168.159378,416.274261,170.349182C414.07196,172.495911,411.437439,173.56929,408.370789,173.56929C405.304138,173.56929,402.669647,172.495911,400.467316,170.349182C398.308044,168.159378,397.227631,165.540543,397.227631,162.491882C397.227631,159.443237,398.308044,156.845535,400.467316,154.698792zM408.370789,160.946426C407.895569,160.946426,407.485321,161.117874,407.140045,161.461578C406.750946,161.804489,406.556793,162.234314,406.556793,162.749466L407.140045,163.97316C407.485321,164.316849,407.895569,164.488312,408.370789,164.488312C408.846008,164.488312,409.256256,164.316849,409.601532,163.97316L410.184784,162.749466C410.184784,162.234314,409.990631,161.804489,409.601532,161.461578C409.256256,161.117874,408.846008,160.946426,408.370789,160.946426zM412.776245,170.413376L409.795685,165.196838L408.370789,165.582825L406.945892,165.261047L403.965363,170.413376C405.347198,171.186111,406.815948,171.572861,408.370789,171.572861C409.925659,171.572861,411.394409,171.186111,412.776245,170.413376zM416.274261,157.918915C415.496857,156.544907,414.439148,155.450394,413.100342,154.634598L409.860687,160.237885C410.768066,160.796112,411.221375,161.611893,411.221375,162.685272L411.221375,162.749466L417.569977,162.749466L417.569977,162.427689C417.569977,160.796112,417.137817,159.292923,416.274261,157.918915zM403.641235,154.634598C402.30246,155.450394,401.222809,156.544907,400.402344,157.918915C399.581848,159.292923,399.1716,160.796112,399.1716,162.427689L399.1716,162.749466L405.455231,162.749466L405.455231,162.685272C405.455231,161.611893,405.93045,160.796112,406.88092,160.237885L403.641235,154.634598z"/>
</svg>
