<?xml version="1.0" encoding="UTF-8"?>
<svg xmlns="http://www.w3.org/2000/svg" xmlns:xlink="http://www.w3.org/1999/xlink" width="25.654mm" height="25.654mm" viewBox="-386.057007 149.697006 25.654419 25.654404">
    <path transform="matrix(-1,0,0,1,0,0)" style="stroke:none;fill:#000000;fill-rule:evenodd" d="M373.229797,149.697006C369.687927,149.697006,366.6651,150.949661,364.15979,153.454193C361.655243,155.959503,360.402588,158.98233,360.402588,162.524216C360.402588,166.066101,361.655243,169.066986,364.15979,171.529251C366.6651,174.077621,369.687927,175.35141,373.229797,175.35141C376.771698,175.35141,379.794495,174.077621,382.299805,171.529251C384.804352,169.066986,386.057007,166.066101,386.057007,162.524216C386.057007,158.98233,384.804352,155.959503,382.299805,153.454193C379.794495,150.949661,376.771698,149.697006,373.229797,149.697006zM365.326324,154.620728C367.528656,152.461456,370.163147,151.381042,373.229797,151.381042C376.296448,151.381042,378.930969,152.461456,381.13327,154.620728C383.292542,156.823059,384.372955,159.45755,384.372955,162.524216C384.372955,165.590866,383.292542,168.203445,381.13327,170.362701C378.930969,172.565811,376.296448,173.667374,373.229797,173.667374C370.163147,173.667374,367.528656,172.565811,365.326324,170.362701C363.167053,168.203445,362.086639,165.590866,362.086639,162.524216C362.086639,159.45755,363.167053,156.823059,365.326324,154.620728zM368.759399,153.51918L368.111908,153.908279C366.557068,154.814896,365.369385,156.02449,364.548889,157.535507C363.685333,159.047302,363.253174,160.667145,363.253174,162.395035L363.253174,163.495804L370.768341,163.495804L371.35083,164.467392L367.722809,170.751816L368.436035,171.140137C369.903992,171.961411,371.501923,172.371658,373.229797,172.371658C374.957672,172.371658,376.555603,171.961411,378.02356,171.140137L378.736786,170.751816L375.108795,164.467392L375.627075,163.495804L383.141449,163.495804L383.206421,162.395035C383.206421,160.667145,382.753113,159.047302,381.845734,157.535507C380.982178,156.02449,379.816437,154.814896,378.347687,153.908279L377.635254,153.51918L373.748077,160.191925L373.229797,160.126938L372.646545,160.191925L368.759399,153.51918M372.517365,162.00592L373.229797,161.681793L373.942261,162.00592L374.266388,162.718369L373.942261,163.366623L373.229797,163.689957L372.517365,163.366623L372.193237,162.718369L372.517365,162.00592zM369.860931,170.103561L372.128235,166.217194C372.81955,166.432495,373.553925,166.432495,374.33136,166.217194L376.598663,170.103561C374.352509,171.097076,372.107117,171.097076,369.860931,170.103561zM381.651581,161.940948L376.792816,161.940948C376.663635,161.163513,376.296448,160.516052,375.691284,159.997757L378.218506,155.72229C380.334717,157.276367,381.47934,159.349503,381.651581,161.940948zM370.768341,159.997757C370.163147,160.516052,369.774811,161.163513,369.601807,161.940948L364.808044,161.940948C364.937225,159.349503,366.081818,157.276367,368.241089,155.72229L370.768341,159.997757z"/>
</svg>
