<?xml version="1.0" encoding="UTF-8"?>
<svg xmlns="http://www.w3.org/2000/svg" xmlns:xlink="http://www.w3.org/1999/xlink" width="15.814mm" height="33.827mm" viewBox="-345.995026 145.610794 15.814331 33.827469">
    <path transform="matrix(-1,0,0,1,0,0)" style="stroke:none;fill:#000000;fill-rule:evenodd" d="M345.995026,158.658295L330.180695,158.658295L330.180695,179.438263L345.995026,179.438263L345.995026,158.658295M331.728424,177.940231L331.728424,160.205078L344.496033,160.205078L344.496033,177.940231L331.728424,177.940231zM333.469238,169.483353C333.243835,169.70874,333.13092,169.982864,333.13092,170.304764L333.469238,171.126175L334.242859,171.367966L335.016968,171.126175C335.242371,170.900803,335.355286,170.627151,335.355286,170.304764C335.355286,169.982864,335.242371,169.70874,335.016968,169.483353L334.242859,169.241577C333.920471,169.241577,333.66275,169.322174,333.469238,169.483353zM333.324432,162.041428L333.324432,166.728592L342.851257,166.728592L342.851257,162.041428L333.324432,162.041428zM334.823456,165.23056L334.823456,163.587738L341.304016,163.587738L341.304016,165.23056L334.823456,165.23056z"/>
    <path transform="matrix(-1,0,0,1,0,0)" style="stroke:none;fill:#000000;fill-rule:evenodd" d="M334.485138,152.714417L337.386627,152.714417L337.386627,159.528458L338.595581,159.528458L338.595581,152.714417L341.497528,152.714417L341.497528,145.610794L334.485138,145.610794L334.485138,152.714417"/>
</svg>
