<?xml version="1.0" encoding="UTF-8"?>
<svg xmlns="http://www.w3.org/2000/svg" xmlns:xlink="http://www.w3.org/1999/xlink" width="25.654mm" height="23.631mm" viewBox="-210.348999 150.708405 25.654404 23.631363">
    <path transform="matrix(-1,0,0,1,0,0)" style="stroke:none;fill:#000000;fill-rule:evenodd" d="M184.694595,154.993271L187.869293,158.109253L189.229218,156.746201L195.254486,162.784012L188.970062,169.015976L188.451782,168.496902L185.537003,171.417938L188.257614,174.209808L191.173172,171.288757L190.654892,170.703934L196.938522,164.406982L200.178207,167.652924L197.197678,170.638947L197.133469,170.638947L198.817505,172.326904C200.113235,173.40889,201.278976,174.014862,202.315552,174.144821L207.628387,174.339767L208.275848,174.339767L208.275848,173.690735L208.081696,168.366943C207.951721,167.371857,207.325394,166.202972,206.202713,164.861069L204.58287,163.173111L204.58287,163.238098L201.603104,166.159912L198.364212,162.978165L203.935394,157.395233L209.960678,164.601929L210.348999,164.277023L209.312424,161.485168C208.318909,159.278137,207.131241,157.309113,205.749405,155.577316L206.78598,154.603378L205.101151,152.915421L204.194534,153.824387C202.855759,152.526321,201.538132,151.552383,200.242401,150.903351L198.428406,152.656281L202.251358,155.707275L196.679382,161.290222L190.654892,155.253189L192.079788,153.824387L188.970062,150.708405L184.694595,154.993271zM188.970062,152.526321L190.265778,153.824387L187.869293,156.356308L186.508591,154.993271L188.970062,152.526321"/>
</svg>
