<?xml version="1.0" encoding="UTF-8"?>
<svg xmlns="http://www.w3.org/2000/svg" xmlns:xlink="http://www.w3.org/1999/xlink" width="25.454mm" height="13.623mm" viewBox="-560.965027 194.177124 25.453979 13.622650">
    <path transform="matrix(-1,0,0,1,0,0)" style="stroke:none;fill:#000000;fill-rule:evenodd" d="M535.511047,200.04425C535.511047,200.493652,536.294739,200.741043,537.861328,200.786453L538.197205,201.527878C537.480835,202.202744,536.719849,202.562103,535.914246,202.60672C536.943787,203.640945,537.951355,204.180374,538.936279,204.225784C539.428711,204.315811,539.921204,204.02301,540.413635,203.348923C542.070251,204.248489,544.107422,204.945282,546.525818,205.439301L546.525818,206.451599L546.860901,207.327667C547.130188,207.642395,547.420654,207.799774,547.734619,207.799774L553.644836,207.799774L554.315796,207.530441L554.786316,206.451599L555.390686,205.035309C557.719055,204.180374,559.173706,202.921448,559.756226,201.258545C560.561829,200.988449,560.965027,200.583679,560.965027,200.04425C560.965027,199.459427,560.561829,199.055435,559.756226,198.829971C559.308411,197.481796,558.27887,196.357529,556.66687,195.457962C554.965576,194.603821,553.062317,194.177124,550.957886,194.177124L545.58551,194.918549C543.659546,195.367935,542.00293,195.997391,540.615601,196.806931C540.077759,195.908142,539.518005,195.503372,538.936279,195.593414C537.951355,195.682663,536.943787,196.244797,535.914246,197.279022L536.719849,197.413681L538.39917,198.493317L537.92865,199.234726C536.31665,199.324768,535.511047,199.594864,535.511047,200.04425zM548.540222,205.979507L553.644836,205.979507L554.047241,206.316147L553.644836,206.720917L548.540222,206.720917L548.137024,206.316147L548.540222,205.979507z"/>
</svg>
