<?xml version="1.0" encoding="UTF-8"?>
<svg xmlns="http://www.w3.org/2000/svg" xmlns:xlink="http://www.w3.org/1999/xlink" width="25.640mm" height="14.831mm" viewBox="-526.041992 193.572006 25.640350 14.831451">
    <path transform="matrix(-1,0,0,1,0,0)" style="stroke:none;fill:#000000;fill-rule:evenodd" d="M502.383209,195.67334L501.18222,196.63475C500.782135,197.074753,500.681946,197.575027,500.882355,198.13559L501.242493,198.675797C500.681946,198.996002,500.401642,199.476715,500.401642,200.117142C500.401642,200.677704,500.641998,201.138046,501.122711,201.498184L500.882355,201.91861C500.681946,202.479172,500.782135,202.959106,501.18222,203.359955C502.343262,204.480301,503.564606,205.101151,504.845459,205.220932L505.025513,205.220932C505.546143,205.220932,506.026062,205.061218,506.466858,204.741013L510.249878,205.941208C510.289795,206.662262,510.570099,207.262756,511.089935,207.742691C511.570648,208.183456,512.131226,208.403458,512.771606,208.403458L517.995239,208.403458C518.716248,208.403458,519.276855,208.163101,519.67688,207.683182L520.397156,206.361633L520.697815,205.58107C522.539246,204.820862,523.839661,203.720093,524.600647,202.278748C525.561279,201.758118,526.041992,201.037842,526.041992,200.117142C526.041992,199.156509,525.561279,198.43544,524.600647,197.955521C523.880371,196.59404,522.719299,195.513626,521.118225,194.712708C519.476501,193.952499,517.635071,193.572006,515.594055,193.572006L511.150238,194.052719C509.509247,194.412857,508.027985,194.892776,506.706421,195.493271C506.226501,195.013351,505.665955,194.772995,505.025513,194.772995L504.845459,194.772995C504.004608,194.852844,503.184113,195.153488,502.383209,195.67334zM505.025513,196.154037C505.465515,196.154037,505.906281,196.514191,506.346283,197.234467C507.587189,196.514191,509.108398,195.953613,510.909882,195.553558L515.594055,194.892776C517.515259,194.892776,519.216553,195.27327,520.697815,196.034256C522.138367,196.834396,523.059082,197.834961,523.4599,199.035934C524.260071,199.236359,524.660889,199.596497,524.660889,200.117142C524.660889,200.597061,524.260071,200.957977,523.4599,201.197556C522.93927,202.678818,521.67804,203.799942,519.67688,204.56015L519.076416,205.821426L518.656006,206.782059L517.995239,207.0224L512.771606,207.0224C512.491333,207.0224,512.231445,206.882263,511.991058,206.60199L511.69043,205.821426L511.69043,204.921082C509.488892,204.480301,507.647491,203.860229,506.166229,203.059311C505.846008,203.579956,505.465515,203.839874,505.025513,203.839874L504.905731,203.839874C503.985046,203.799942,503.064331,203.319244,502.143616,202.398544C502.863892,202.358612,503.564606,202.038391,504.244965,201.437912L503.944305,200.777908C502.503754,200.737198,501.782715,200.517212,501.782715,200.117142C501.782715,199.717072,502.523346,199.476715,504.004608,199.396866L504.425018,198.736084L502.924194,197.775452L502.143616,197.654877C503.064331,196.734177,503.985046,196.233902,504.905731,196.154037L505.025513,196.154037z"/>
</svg>
