<?xml version="1.0" encoding="UTF-8"?>
<svg xmlns="http://www.w3.org/2000/svg" xmlns:xlink="http://www.w3.org/1999/xlink" width="25.072mm" height="24.040mm" viewBox="-403.042450 32.115883 25.071991 24.040047">
    <path transform="matrix(-1,0,0,1,0,0)" style="stroke:none;fill:#000000;fill-rule:evenodd" d="M390.271118,34.419205L389.506989,38.495033L389.272125,38.436317C388.879883,38.436317,388.566711,38.574108,388.331055,38.849693L378.337982,49.126961C377.94577,49.559906,377.867462,50.032784,378.103119,50.544807C378.337982,51.135124,378.768585,51.430283,379.395691,51.430283L383.09967,51.430283L382.864014,51.784939C382.62912,52.296963,382.707428,52.769058,383.09967,53.202789L385.568176,55.742554C385.803833,56.018135,386.117004,56.15593,386.509216,56.15593L399.147766,56.15593C399.65744,56.15593,400.048889,55.939064,400.323669,55.506111L401.734497,52.966351C402.047638,52.493473,402.047638,52.060524,401.734497,51.666718L401.558319,51.430283L401.675781,51.430283C402.145508,51.430283,402.53775,51.214195,402.850922,50.78125C403.086578,50.347515,403.10614,49.914566,402.910431,49.481617L396.326141,35.895771C396.130402,35.384533,395.757751,35.128521,395.208923,35.128521L395.208923,33.474232C395.208923,32.962208,394.993622,32.568405,394.562256,32.29282L393.915558,32.115883L393.328369,32.2341L390.976501,33.415512L390.271118,34.419205M386.509216,54.738075L384.098633,52.25782L400.617279,52.25782L399.147766,54.738075L386.509216,54.738075zM387.155914,50.07193L379.395691,50.07193L389.213409,39.853386L387.155914,50.07193zM401.675781,50.07193L395.150208,50.07193L395.150208,36.545589L401.675781,50.07193zM390.624207,40.089825L390.624207,39.735165L391.564484,34.655643L393.915558,33.474232L393.915558,50.07193L388.625427,50.07193L390.624207,40.089825z"/>
</svg>
