<?xml version="1.0" encoding="UTF-8"?>
<svg xmlns="http://www.w3.org/2000/svg" xmlns:xlink="http://www.w3.org/1999/xlink" width="25.654mm" height="27.845mm" viewBox="-491.032990 187.066055 25.654419 27.844986">
    <path transform="matrix(-1,0,0,1,0,0)" style="stroke:none;fill:#000000;fill-rule:evenodd" d="M477.140259,188.75087L477.140259,187.066055L475.596344,187.066055C472.705048,187.066055,470.793976,188.702332,469.862305,191.975677L465.378571,204.725372L466.040131,206.338165C466.677429,207.558731,467.779785,208.438721,469.347931,208.9758C470.132416,209.2686,470.867554,209.757141,471.553406,210.441406L471.553406,208.169403C471.553406,206.313126,472.214966,204.725372,473.538086,203.406952C474.910522,202.185623,476.478699,201.574951,478.242584,201.574951C480.055817,201.574951,481.648254,202.185623,483.020691,203.406952C484.343811,204.725372,485.005371,206.313126,485.005371,208.169403L485.005371,210.441406C485.642639,209.757141,486.352753,209.2686,487.137238,208.9758C488.705383,208.438721,489.807739,207.558731,490.445038,206.338165L491.03299,204.725372L486.695679,191.975677C485.764771,188.702332,483.829437,187.066055,480.888824,187.066055L479.34491,187.066055L479.34491,188.75087L477.140259,188.75087M469.200745,199.376541L470.891846,196.371719L485.666931,196.371719L487.284424,199.376541L483.608643,201.574951L479.492096,197.910919L476.993073,197.910919L472.950104,201.574951L469.200745,199.376541z"/>
    <path transform="matrix(-1,0,0,1,0,0)" style="stroke:none;fill:#000000;fill-rule:evenodd" d="M478.242584,203.186951C476.870148,203.186951,475.718475,203.675491,474.787598,204.652573C473.75885,205.580322,473.243713,206.753113,473.243713,208.169403L473.243713,211.027802L473.685272,213.079025C474.910522,214.300369,476.380035,214.911041,478.095398,214.911041L478.316162,214.911041C480.080078,214.911041,481.550385,214.300369,482.726318,213.079025C483.118561,212.444092,483.31427,211.76062,483.31427,211.027802L483.31427,208.169403C483.31427,206.753113,482.799896,205.580322,481.771149,204.652573C480.790955,203.675491,479.615021,203.186951,478.242584,203.186951z"/>
</svg>
