<?xml version="1.0" encoding="UTF-8"?>
<svg xmlns="http://www.w3.org/2000/svg" xmlns:xlink="http://www.w3.org/1999/xlink" width="25.654mm" height="27.436mm" viewBox="-456.016998 187.269958 25.654419 27.436310">
    <path transform="matrix(-1,0,0,1,0,0)" style="stroke:none;fill:#000000;fill-rule:evenodd" d="M435.493774,187.408539L435.839844,188.447464L436.463806,189.41748L436.394928,190.526093C436.441101,191.31134,436.764465,192.419952,437.365723,193.851898L439.167969,197.385162L440.069885,198.216614L440.624207,198.424866L443.675201,208.331818C442.935364,207.362579,442.196289,206.877167,441.456421,206.877167C440.762787,206.92337,440.046417,207.500366,439.307343,208.608963L437.088562,202.71991C435.839844,199.533478,434.869812,197.662323,434.176147,197.108017L431.818817,197.316269L430.570831,203.898193L430.570831,204.036774L432.095947,201.958145L433.552155,199.810623C433.967896,200.780655,434.776642,203.297699,435.979187,207.362579L435.562683,207.292892C434.962189,207.292892,434.222351,207.731323,433.343903,208.608963L432.58136,209.371521L430.362579,209.371521L430.362579,210.964752L432.651031,210.964752C433.205353,210.964752,433.921692,210.526321,434.80014,209.648682L435.632355,208.955795C435.770935,208.955795,435.909515,209.048187,436.048096,209.232941L436.256348,209.440414L436.394928,209.648682C436.856842,210.526321,437.573181,210.964752,438.544006,210.964752C439.099091,210.964752,439.791962,210.526321,440.624207,209.648682L441.456421,208.955795C441.733582,208.955795,441.964539,209.117081,442.150085,209.440414L442.218994,209.648682C442.820251,210.526321,443.536621,210.964752,444.368866,210.964752C444.923157,210.964752,445.639526,210.526321,446.517944,209.648682L447.419067,208.955795C447.603851,208.955795,447.812103,209.117081,448.04306,209.440414L448.112732,209.648682C448.667023,210.526321,449.406891,210.964752,450.331512,210.964752L450.539764,210.964752L450.539764,211.034424L456.016998,211.034424L456.016998,209.371521L453.86792,209.371521L454.14505,203.967087C454.237457,200.133957,453.86792,197.662323,453.035675,196.553711C453.220428,198.586151,453.104584,201.334167,452.688843,204.798538L451.995178,209.371521L451.025146,209.371521L450.747223,199.533478L449.499268,193.436172L448.944977,191.981522L449.291016,194.475876C449.615143,199.602371,449.453064,204.036774,448.806396,207.777512L448.459564,207.570053L448.389893,206.738602C447.974152,204.336624,447.372894,202.050522,446.587616,199.879517C447.326691,198.909485,447.026062,197.316269,445.685699,195.09906L444.576324,193.574738C444.160614,193.159012,443.74408,192.951538,443.328369,192.951538L442.912659,191.981522L442.635498,191.496109L442.288666,191.288635L442.150085,191.634689L442.427246,192.120087L442.981537,193.020447C442.704376,194.360001,443.005035,195.953217,443.883453,197.800888L444.714905,199.325211C445.085236,199.740936,445.570618,199.995392,446.171112,200.087769L447.003357,203.621048L447.697021,207.362579L447.350189,207.292892C446.933685,207.292892,446.517944,207.431473,446.102234,207.708618L445.131409,208.608963L445.061737,208.747543L444.507446,208.955795L440.971039,198.00914L441.248169,197.593414L441.248169,196.553711C439.861633,191.935333,438.382721,189.509872,436.810638,189.278915L436.325226,188.23999L435.770935,187.269958L435.770935,187.339645L435.493774,187.408539"/>
    <path transform="matrix(-1,0,0,1,0,0)" style="stroke:none;fill:#000000;fill-rule:evenodd" d="M438.475098,213.113052L437.989716,212.558746L437.851135,212.350494C437.342224,211.472855,436.579681,211.034424,435.562683,211.034424C434.915985,211.034424,434.176147,211.472855,433.343903,212.350494L432.58136,213.113052L430.362579,213.113052L430.362579,214.706268L432.651031,214.706268C433.251526,214.706268,433.967896,214.267059,434.80014,213.390198L435.632355,212.697327C435.770935,212.697327,435.909515,212.789703,436.048096,212.974472L436.256348,213.251633L436.394928,213.390198C436.810638,214.267059,437.527008,214.706268,438.544006,214.706268C439.145264,214.706268,439.838165,214.267059,440.624207,213.390198L441.456421,212.697327C441.595001,212.697327,441.75708,212.76622,441.941833,212.9048L442.150085,213.251633L442.218994,213.390198C442.774078,214.267059,443.490417,214.706268,444.368866,214.706268C445.015533,214.706268,445.731903,214.267059,446.517944,213.390198L447.419067,212.697327L448.04306,213.251633L448.112732,213.390198C448.62085,214.267059,449.360687,214.706268,450.331512,214.706268L456.016998,214.706268L456.016998,213.113052L450.331512,213.113052L449.70752,212.558746L449.568939,212.350494C449.013855,211.472855,448.274811,211.034424,447.350189,211.034424C446.933685,211.034424,446.517944,211.173004,446.102234,211.45015L445.131409,212.350494L444.368866,213.113052L443.883453,212.558746L443.74408,212.350494C443.189789,211.472855,442.427246,211.034424,441.456421,211.034424C441.04071,211.034424,440.624207,211.173004,440.208466,211.45015L439.307343,212.350494L438.475098,213.113052z"/>
</svg>
