<?xml version="1.0" encoding="UTF-8"?>
<svg xmlns="http://www.w3.org/2000/svg" xmlns:xlink="http://www.w3.org/1999/xlink" width="25.654mm" height="27.056mm" viewBox="-421.001007 187.459778 25.654419 27.055817">
    <path transform="matrix(-1,0,0,1,0,0)" style="stroke:none;fill:#000000;fill-rule:evenodd" d="M400.686035,187.703262C400.154449,187.987457,399.888275,188.414154,399.888275,188.983322C399.888275,189.551712,400.112946,190.160828,400.563141,190.811417L400.686035,190.993835L400.686035,191.847214C400.726746,192.659866,401.054016,193.796661,401.667816,195.259918L403.448151,198.610779L404.675751,199.768707L406.209473,204.704956L405.350616,205.070572C404.409576,202.47052,403.652496,200.561005,403.079407,199.34201C402.384186,197.798889,401.729675,196.823395,401.115875,196.417053L400.19516,196.112503L399.458435,196.112503L397.617828,196.295715C397.044739,196.5392,396.717468,196.945526,396.635254,197.513916L395.530579,203.181412L395.530579,203.608093C395.530579,204.298615,395.837494,204.766022,396.451294,205.009506L397.004028,205.070572C397.412689,205.070572,397.781464,204.928085,398.108704,204.64389L399.274475,203.120331L399.949341,205.436188C399.663574,205.558319,399.15155,205.964661,398.415619,206.655182L398.230835,206.837601L396.819244,206.837601C396.369873,206.837601,396.021484,206.980087,395.776428,207.264282C395.489868,207.548477,395.346588,207.893738,395.346588,208.300079L395.346588,213.053116L395.776428,214.028625C396.021484,214.353531,396.369873,214.515594,396.819244,214.515594L398.844635,214.515594C399.744995,214.515594,400.604614,214.109268,401.42276,213.297394C402.159485,214.109268,403.038696,214.515594,404.061951,214.515594C404.920807,214.515594,405.760101,214.109268,406.578247,213.297394C407.314941,214.109268,408.194153,214.515594,409.217438,214.515594C410.076263,214.515594,410.935913,214.109268,411.794769,213.297394C412.490784,214.109268,413.39035,214.515594,414.495026,214.515594L419.528351,214.515594C419.937042,214.515594,420.284637,214.353531,420.571198,214.028625L421.001007,213.053116L421.001007,208.300079L420.571198,207.264282C420.284637,206.980087,419.937042,206.837601,419.528351,206.837601L419.221466,206.837601C419.630127,201.353302,419.241821,197.798889,418.054901,196.173569C417.768372,195.767242,417.380035,195.564468,416.88916,195.564468L416.336426,195.685822L415.784485,196.112503L415.170685,193.918793L414.61795,192.395248C414.33139,191.826859,413.881226,191.542664,413.268188,191.542664L412.838379,191.602951C412.469635,191.725082,412.183868,191.928635,411.97876,192.21283L411.794769,193.248627L412.101654,195.320206L412.101654,195.807953L411.610779,194.95459L410.445038,193.370758L409.339569,192.639511L409.217438,192.334183L409.155579,192.273895C408.828308,191.379822,408.276367,190.93277,407.498932,190.93277L407.069122,190.93277C406.537506,191.054901,406.148407,191.339096,405.902588,191.786148C405.248077,190.607864,404.490997,189.835922,403.632141,189.470291L402.957275,188.251312C402.670715,187.723618,402.220551,187.459778,401.60675,187.459778L400.686035,187.703262zM402.097626,211.834915L402.03656,211.712784L401.8526,211.469299L401.42276,211.225021L400.686035,211.834915C399.990814,212.606857,399.377014,212.99205,398.844635,212.99205L396.758179,212.99205L396.758179,211.590652L398.722504,211.590652L399.458435,210.920471L400.318085,210.128174L401.42276,209.762543C402.281616,209.762543,402.957275,210.148529,403.448151,210.920471L403.509216,211.103668L404.000122,211.590652L404.675751,210.920471L405.534607,210.128174C405.902588,209.884689,406.271332,209.762543,406.639313,209.762543C407.457428,209.762543,408.112732,210.148529,408.603607,210.920471L408.726532,211.103668L409.155579,211.590652L409.892303,210.920471C410.628998,210.148529,411.263153,209.762543,411.794769,209.762543C412.654388,209.762543,413.329254,210.148529,413.82016,210.920471L413.943085,211.103668L414.43396,211.590652L419.528351,211.590652L419.528351,212.99205L414.43396,212.99205C413.5336,212.99205,412.899445,212.606857,412.531494,211.834915L412.469635,211.712784L412.285645,211.408234L411.856628,211.225021L411.119904,211.834915C410.423889,212.606857,409.789734,212.99205,409.217438,212.99205C408.357788,212.99205,407.723633,212.606857,407.314941,211.834915L407.253113,211.712784L406.639313,211.225021L405.902588,211.834915C405.166656,212.606857,404.532501,212.99205,404.000122,212.99205C403.181976,212.99205,402.547821,212.606857,402.097626,211.834915zM401.545685,188.983322L401.60675,188.983322L401.60675,188.922256L402.097626,189.714569L402.527466,190.62822C403.918701,190.871704,405.227722,193.025497,406.455322,197.088013C406.578247,197.534271,406.496033,197.940598,406.209473,198.306229L409.339569,207.934448L409.831238,207.752045L409.892303,207.629898L410.75116,206.837601C411.119904,206.594116,411.487854,206.471985,411.856628,206.471985L412.163513,206.533051L411.549713,203.242477L410.812988,200.134323C410.280609,200.093613,409.851593,199.870483,409.524323,199.464142L408.787598,198.12381C407.969452,196.5392,407.703278,195.137787,407.989807,193.918793L407.498932,193.126495L407.253113,192.699799L407.376007,192.395248L407.498932,192.395248L407.743988,192.578445L407.927979,193.005142L408.296722,193.857727C408.746887,193.898438,409.114868,194.081635,409.401398,194.40654L410.383179,195.746887C411.570068,197.697113,411.83548,199.118881,411.180969,200.01297L412.77652,205.984222L412.838379,206.715454L413.145294,206.898666C413.71759,203.608093,413.86087,199.727982,413.575104,195.259918L413.268188,193.005142L413.759094,194.345474L414.86377,199.647354L415.108826,208.300079L415.968445,208.300079L416.582275,204.278259C416.950226,201.231171,417.052795,198.814331,416.88916,197.026947C417.625092,198.001663,417.953125,200.175034,417.870941,203.547028L417.625092,208.300079L419.528351,208.300079L419.528351,209.762543L414.740845,209.762543L413.39035,208.665695L411.36496,208.361145C410.710419,208.483276,410.035553,208.848892,409.339569,209.457993L407.989807,208.544342L406.087341,208.361145C405.432037,208.483276,404.777527,208.848892,404.123016,209.457993C402.93692,208.320435,401.872955,207.954803,400.931885,208.361145C400.154449,208.523987,399.397369,208.970245,398.660645,209.701477L396.819244,209.701477L396.819244,208.300079L398.783569,208.300079L399.458435,207.629898C400.19516,206.857956,400.84967,206.471985,401.42276,206.471985L401.790741,206.533051L399.642426,199.890839L398.35376,201.779999L397.004028,203.608093L397.004028,203.485962L398.108704,197.697113L399.458435,197.574982L400.19516,197.574982C400.80896,198.022034,401.667816,199.647354,402.772522,202.450165L404.736816,207.629898C405.391327,206.655182,406.025513,206.147064,406.639313,206.106354L406.762207,206.106354C407.376007,206.106354,407.989807,206.533051,408.603607,207.386414L405.902588,198.671844L405.411682,198.489426L404.613922,197.758179L403.018341,194.650024C402.486755,193.391113,402.200195,192.415604,402.159485,191.725082L402.220551,190.750351L401.667816,189.896988L401.360931,189.04361L401.545685,188.983322"/>
</svg>
