<?xml version="1.0" encoding="UTF-8"?>
<svg xmlns="http://www.w3.org/2000/svg" xmlns:xlink="http://www.w3.org/1999/xlink" width="25.648mm" height="26.256mm" viewBox="-385.981842 187.860001 25.648132 26.255676">
    <path transform="matrix(-1,0,0,1,0,0)" style="stroke:none;fill:#000000;fill-rule:evenodd" d="M361.923798,192.83461C363.03006,194.585205,363.582794,196.404678,363.582794,198.29306C363.582794,200.181442,363.167847,201.794235,362.338745,203.129883C361.923798,203.866608,361.462677,204.373138,360.956116,204.649506L361.992706,206.722656C363.006561,208.334671,364.458862,209.716507,366.348022,210.868164C368.652924,212.25,370.957031,213.332764,373.261139,214.115677L375.404724,213.286575L380.036438,210.868164C381.971802,209.716507,383.377899,208.334671,384.253174,206.722656L385.221649,204.649506C384.760529,204.373138,384.345581,203.866608,383.976807,203.129883C383.239319,201.794235,382.870575,200.181442,382.870575,198.29306C382.870575,196.404678,383.354401,194.585205,384.322876,192.83461L385.981842,190.692566L383.700439,187.860001L382.663086,189.31073C381.511444,190.232224,380.128815,190.692566,378.515228,190.692566C377.363586,190.692566,376.142242,190.393494,374.851227,189.794571C374.206085,189.518204,373.676056,189.219131,373.261139,188.896576L371.602142,189.794571C370.265717,190.393494,369.021667,190.692566,367.869232,190.692566C366.301819,190.692566,364.942688,190.232224,363.790253,189.31073L362.546204,187.860001L360.33371,190.692566L361.923798,192.83461zM365.449249,197.671432L371.325775,197.532852L373.261139,191.936615L375.128357,197.532852L381.00412,197.671432L376.303528,201.126419L378.101074,206.860443L373.261139,203.40625L368.421967,206.860443L370.150635,201.126419L365.449249,197.671432z"/>
</svg>
