<?xml version="1.0" encoding="UTF-8"?>
<svg xmlns="http://www.w3.org/2000/svg" xmlns:xlink="http://www.w3.org/1999/xlink" width="25.643mm" height="25.855mm" viewBox="-350.963501 188.061005 25.643433 25.854828">
    <path transform="matrix(-1,0,0,1,0,0)" style="stroke:none;fill:#000000;fill-rule:evenodd" d="M330.326782,189.760696L329.349701,188.061005L325.320068,192.976898L326.236084,193.827133L327.456635,195.344421C328.230133,196.598648,328.616913,197.892792,328.616913,199.228439C328.616913,200.482666,328.352264,201.555252,327.823029,202.445419C327.538055,203.011459,327.273438,203.334808,327.029175,203.416229L326.29715,203.962692L326.480347,204.872437L327.456635,207.057541C328.393005,208.595184,329.797546,209.890106,331.669464,210.941559C333.582916,212.196564,335.598114,213.167374,337.714325,213.854767L337.775391,213.854767L337.958588,213.915833L338.141785,213.915833L340.705811,213.066376L344.675171,210.941559C346.424988,209.890106,347.788818,208.595184,348.765869,207.057541L349.742188,204.872437L349.925385,203.962692L349.193359,203.476501L348.399475,202.445419C347.91095,201.555252,347.666687,200.482666,347.666687,199.228439C347.666687,197.892792,348.033081,196.598648,348.765869,195.344421L349.98645,193.827133L350.963501,192.976898L346.872803,188.061005L346.017883,189.820984L345.223999,190.731506C344.532684,191.257629,343.677765,191.520691,342.659973,191.520691C341.438629,191.520691,340.197723,191.075211,338.935669,190.185043L338.141785,189.699631L337.408997,190.185043L336.187653,190.913147C335.211365,191.317917,334.356415,191.520691,333.623627,191.520691C332.11731,191.520691,331.01886,190.933502,330.326782,189.760696zM329.166504,190.488815L330.204651,191.702316C331.181702,192.471146,332.320862,192.855545,333.623627,192.855545C334.519257,192.855545,335.557404,192.612839,336.737244,192.127441L338.141785,191.338272L339.546326,192.127441L342.659973,192.855545C344.044159,192.855545,345.203644,192.471146,346.140015,191.702316L347.117065,190.488815L349.071228,192.855545L347.666687,194.615524C346.730316,196.072525,346.262146,197.610168,346.262146,199.228439C346.262146,200.84671,346.608185,202.22229,347.300262,203.355164L348.399475,204.62973L347.605621,206.389725C346.750671,207.725372,345.549683,208.878586,344.003448,209.849396L340.034882,211.852081L338.141785,212.580978C336.146942,211.933502,334.213928,211.02298,332.341217,209.849396C330.754242,208.878586,329.512543,207.725372,328.616913,206.389725L327.823029,204.62973L328.861176,203.355164C329.634674,202.22229,330.021454,200.84671,330.021454,199.228439C330.021454,197.610168,329.532898,196.072525,328.555847,194.615524L327.151306,192.855545L329.166504,190.488815M336.615112,198.743027L331.974792,198.803314L335.638824,201.534897L334.295349,206.025665L338.141785,203.355164L341.927155,206.025665L340.644745,201.534897L344.369843,198.803314L339.668457,198.743027L338.141785,194.312546L336.615112,198.743027z"/>
</svg>
