<?xml version="1.0" encoding="UTF-8"?>
<svg xmlns="http://www.w3.org/2000/svg" xmlns:xlink="http://www.w3.org/1999/xlink" width="25.454mm" height="18.218mm" viewBox="-245.820999 191.879181 25.453979 18.218323">
    <path transform="matrix(-1,0,0,1,0,0)" style="stroke:none;fill:#000000;fill-rule:evenodd" d="M229.0448,193.881866L229.0448,200.535828L229.687561,201.246704L230.71553,200.277466L231.037308,199.954895L231.037308,193.881866L234.958115,193.881866L234.958115,198.856476L236.564651,200.277466L236.693832,200.535828L237.014816,200.923355L237.014816,193.881866L240.935638,193.881866L240.935638,198.598114L241.321609,198.533142L242.928146,198.985657L242.928146,193.881866L245.306625,193.881866L245.306625,191.879181L220.36702,191.879181L220.36702,193.881866L223.130692,193.881866L223.130692,200.213257L225.123199,198.727295L225.123199,193.881866L229.0448,193.881866"/>
    <path transform="matrix(-1,0,0,1,0,0)" style="stroke:none;fill:#000000;fill-rule:evenodd" d="M225.701767,200.342438L224.095245,200.859161L222.809692,202.086761L221.780945,202.991028L220.945587,202.991028L220.945587,205.122894L221.845154,205.122894C222.617096,205.122894,223.559723,204.56311,224.673813,203.443542L225.701767,202.474304C225.91629,202.474304,226.130798,202.603485,226.344543,202.861847L226.602112,203.185196L226.666321,203.378571C227.394424,204.541977,228.358963,205.122894,229.55838,205.122894C230.330338,205.122894,231.251038,204.56311,232.322845,203.443542L233.415787,202.474304C233.757919,202.474304,234.058548,202.711533,234.315353,203.185196L234.379547,203.378571C235.107651,204.541977,236.051056,205.122894,237.207413,205.122894C237.721786,205.122894,238.23616,204.950653,238.750534,204.606171L239.971878,203.443542L241.064819,202.474304C241.450012,202.474304,241.749863,202.711533,241.964386,203.185196L242.092773,203.378571C242.69249,204.541977,243.635895,205.122894,244.921432,205.122894L245.820999,205.122894L245.820999,202.991028L244.921432,202.991028C244.620804,202.991028,244.363998,202.775726,244.14949,202.345123L243.956894,202.02179C243.22879,200.902222,242.264236,200.342438,241.064819,200.342438C240.507385,200.342438,239.971878,200.514679,239.457504,200.859161L238.171967,202.086761L237.143219,202.991028L236.500458,202.345123L236.307861,202.02179C235.622025,200.902222,234.636337,200.342438,233.3508,200.342438L231.808472,200.859161L230.522934,202.086761L229.494186,202.991028L228.787216,202.345123L228.59462,202.02179C227.908798,200.902222,226.945038,200.342438,225.701767,200.342438z"/>
    <path transform="matrix(-1,0,0,1,0,0)" style="stroke:none;fill:#000000;fill-rule:evenodd" d="M225.701767,207.448914L226.344543,207.772263L226.602112,208.094818L226.666321,208.288986C227.352142,209.494659,228.315903,210.097504,229.55838,210.097504C230.030487,210.097504,230.522934,209.925262,231.037308,209.58078L232.322845,208.418167L233.415787,207.448914C233.757919,207.448914,234.058548,207.664215,234.315353,208.094818L234.379547,208.288986C235.022324,209.494659,235.964935,210.097504,237.207413,210.097504C237.721786,210.097504,238.23616,209.925262,238.750534,209.58078L239.971878,208.418167L241.064819,207.448914C241.450012,207.448914,241.749863,207.664215,241.964386,208.094818L242.092773,208.288986L242.993134,209.387405C243.549774,209.861069,244.192551,210.097504,244.921432,210.097504L245.820999,210.097504L245.820999,207.965637L244.921432,207.965637L244.14949,207.319733L243.956894,206.932205C243.271057,205.855698,242.307297,205.317047,241.064819,205.317047C240.507385,205.317047,239.971878,205.489288,239.457504,205.833771L238.171967,206.996399L237.143219,207.901443L236.500458,207.255539L236.307861,206.996399C235.622025,205.876831,234.636337,205.317047,233.3508,205.317047L231.808472,205.833771L230.522934,206.996399L229.494186,207.901443L228.787216,207.319733L228.59462,206.996399C227.951859,205.876831,226.987305,205.317047,225.701767,205.317047L224.095245,205.833771L222.809692,206.996399L221.780945,207.965637L220.945587,207.965637L220.945587,210.097504L221.845154,210.097504C222.359528,210.097504,222.873901,209.925262,223.388275,209.58078L224.673813,208.418167L225.701767,207.448914z"/>
</svg>
