<?xml version="1.0" encoding="UTF-8"?>
<svg xmlns="http://www.w3.org/2000/svg" xmlns:xlink="http://www.w3.org/1999/xlink" width="25.628mm" height="19.040mm" viewBox="-210.891693 191.468002 25.627792 19.040375">
    <path transform="matrix(-1,0,0,1,0,0)" style="stroke:none;fill:#000000;fill-rule:evenodd" d="M186.648865,196.040192L187.745728,196.040192L187.745728,201.133026L187.399689,201.421921L187.110779,201.421921C186.725601,201.421921,186.417908,201.557373,186.186951,201.827469C185.879272,202.135941,185.725815,202.463974,185.725815,202.811584L185.725815,209.119507C185.725815,209.543839,185.879272,209.871872,186.186951,210.103622C186.417908,210.373718,186.725601,210.508377,187.110779,210.508377L187.976685,210.508377C188.669556,210.508377,189.342865,210.315781,189.996597,209.92981L191.382339,208.713959C192.305389,209.910233,193.478973,210.508377,194.903091,210.508377C195.980377,210.508377,197.115601,209.910233,198.308746,208.713959C199.23259,209.910233,200.386597,210.508377,201.771561,210.508377C202.84964,210.508377,203.984848,209.910233,205.177231,208.713959C206.101059,209.910233,207.274643,210.508377,208.698761,210.508377L209.506714,210.508377L210.487701,210.103622L210.891693,209.119507L210.891693,202.811584L210.487701,201.827469C210.218384,201.557373,209.891129,201.421921,209.506714,201.421921L209.159897,201.421921L208.986862,201.133026L208.294769,200.322723L208.294769,196.040192L209.0448,196.040192C209.390854,196.040192,209.69931,195.904755,209.968643,195.634659C210.276321,195.364548,210.429779,195.036514,210.429779,194.651321L210.429779,192.856888C210.429779,192.470917,210.276321,192.142868,209.968643,191.872772L209.0448,191.468002L186.648865,191.468002L185.667877,191.872772L185.263901,192.856888L185.263901,194.651321C185.263901,195.036514,185.39856,195.364548,185.667877,195.634659C185.93721,195.904755,186.264465,196.040192,186.648865,196.040192zM189.939438,200.959229L191.439499,200.438583C192.594299,200.438583,193.46019,200.939651,194.037201,201.943344L194.21022,202.232239L194.845154,202.811584L195.71106,202.001282L196.692825,201.075089L196.807922,200.959229L198.308746,200.438583C198.924118,200.438583,199.636566,200.82457,200.444534,201.595734L201.714417,202.811584L202.637466,201.943344L203.792252,200.901291C204.254181,200.592819,204.734879,200.438583,205.235168,200.438583L206.909027,200.959229L207.428879,201.421921L207.832855,201.943344L208.005875,202.232239L208.698761,202.811584L209.506714,202.811584L209.506714,204.721115L208.698761,204.721115L208.005875,204.60524L207.370941,204.431427L206.966965,204.142532L206.101059,203.158417L206.043121,202.984619C205.812164,202.560272,205.542847,202.348114,205.235168,202.348114L204.254181,203.216354C203.291977,204.219269,202.464447,204.721115,201.771561,204.721115C200.655914,204.721115,199.809586,204.20047,199.23259,203.158417L199.174652,202.984619L198.366684,202.348114L197.384918,203.216354C196.423508,204.219269,195.595963,204.721115,194.903091,204.721115C193.787445,204.721115,192.921539,204.20047,192.305389,203.158417L192.248245,202.984619L192.017288,202.637787L191.439499,202.348114L190.516449,203.216354C189.515884,204.219269,188.669556,204.721115,187.976685,204.721115L187.110779,204.721115L187.110779,202.811584L187.918747,202.811584L188.84259,201.943344L189.534683,201.248901L189.823578,201.075089L189.939438,200.959229zM192.017288,207.094116L191.439499,206.74649L190.516449,207.614746L189.304504,208.713959L189.130692,208.829819L188.899734,208.945694L188.438599,209.119507L187.110779,209.119507L187.110779,207.209976L187.918747,207.209976L188.84259,206.399673L189.996597,205.299683L191.439499,204.836975C192.555923,204.836975,193.421829,205.338043,194.037201,206.341736L194.21022,206.63063L194.845154,207.209976L195.71106,206.399673L196.865845,205.299683L198.308746,204.836975C199.424408,204.836975,200.309875,205.338043,200.963608,206.341736L201.137405,206.63063C201.252502,206.978241,201.445099,207.170837,201.714417,207.209976L202.637466,206.399673L203.792252,205.299683C204.254181,204.991211,204.734879,204.836975,205.235168,204.836975C206.312439,204.836975,207.178345,205.338043,207.832855,206.341736L208.005875,206.63063C208.198471,207.016602,208.429443,207.209976,208.698761,207.209976L209.506714,207.209976L209.506714,209.119507L208.120972,209.119507L207.543961,208.945694L207.255859,208.771881L207.197922,208.713959L206.909027,208.483002L206.67807,208.309189L206.332016,207.904419L206.101059,207.556808L206.043121,207.383011C205.850525,206.997025,205.581207,206.784866,205.235168,206.74649L204.254181,207.614746C203.291977,208.617645,202.464447,209.119507,201.771561,209.119507C200.732651,209.119507,199.886322,208.598862,199.23259,207.556808L199.174652,207.383011L198.366684,206.74649L197.384918,207.614746C196.423508,208.617645,195.595963,209.119507,194.903091,209.119507C193.825806,209.119507,192.959915,208.598862,192.305389,207.556808L192.248245,207.383011L192.017288,207.094116zM196.230911,194.651321L196.230911,200.090973L196.115036,200.206848L195.018188,201.190964L194.441177,200.612396L194.441177,194.651321L190.862488,194.651321L190.862488,198.933838C190.400574,199.126434,189.861938,199.550766,189.246567,200.206848L189.130692,200.264786L189.130692,194.651321L186.648865,194.651321L186.648865,192.856888L209.0448,192.856888L209.0448,194.651321L206.909027,194.651321L206.909027,199.222733L205.466125,198.817963L205.120071,198.8759L205.120071,194.651321L201.598541,194.651321L201.598541,200.959229L201.194565,200.380661L199.751663,199.049713L199.751663,194.651321L196.230911,194.651321"/>
</svg>
