<?xml version="1.0" encoding="UTF-8"?>
<svg xmlns="http://www.w3.org/2000/svg" xmlns:xlink="http://www.w3.org/1999/xlink" width="25.654mm" height="25.654mm" viewBox="-175.889008 188.160995 25.654404 25.654404">
    <path transform="matrix(-1,0,0,1,0,0)" style="stroke:none;fill:#000000;fill-rule:evenodd" d="M150.234604,213.815399L175.889008,213.815399L175.889008,192.936752L163.403152,188.160995L150.234604,192.936752L150.234604,213.815399zM171.181366,196.212448L171.181366,203.307968L167.701324,203.307968L167.701324,196.212448L171.181366,196.212448M161.287735,196.212448L164.835876,196.212448L164.835876,203.307968L161.287735,203.307968L161.287735,196.212448zM158.558502,196.212448L158.558502,203.307968L155.010345,203.307968L155.010345,196.212448L158.558502,196.212448zM159.581772,205.218262L166.67807,205.218262L166.67807,212.246445L159.581772,212.246445L159.581772,205.218262z"/>
</svg>
