<?xml version="1.0" encoding="UTF-8"?>
<svg xmlns="http://www.w3.org/2000/svg" xmlns:xlink="http://www.w3.org/1999/xlink" width="25.651mm" height="25.254mm" viewBox="-368.274445 31.509100 25.651276 25.253557">
    <path transform="matrix(-1,0,0,1,0,0)" style="stroke:none;fill:#000000;fill-rule:evenodd" d="M350.709839,35.486286L349.251282,34.690849L348.323517,33.166523L347.262695,32.503395L347.262695,46.42276L345.472961,46.42276L346.003754,48.212494L347.262695,48.212494L347.262695,50.067993L343.948639,50.067993L342.623169,49.736816L342.623169,56.762657L368.274445,56.762657L368.274445,49.272552L367.479004,48.742523L367.479004,40.655842L368.274445,40.125813L368.274445,34.491989L367.081268,34.491989L367.081268,31.5091L364.496124,32.967663L364.496124,34.491989L362.905243,34.491989L363.302948,35.685143L363.03833,36.546345L363.634918,36.546345L363.634918,40.456982L360.718567,40.456982L361.977478,41.318966L363.634918,41.318966L363.634918,45.229607L361.977478,45.229607L361.182037,44.831886L360.718567,45.229607L360.718567,50.067993L359.127686,50.067993L359.127686,48.874832L357.735687,48.874832L357.735687,51.194595L356.542511,51.194595L356.542511,48.278259L357.07254,48.278259L356.940247,47.615913L356.542511,47.615913L356.542511,44.633026L356.674835,44.633026L356.542511,43.638729L356.542511,38.800343L355.481689,38.800343L355.481689,42.512123L354.355072,42.512123L354.355072,44.633026L355.481689,44.633026L355.481689,47.615913L354.355072,47.615913L354.355072,48.278259L355.481689,48.278259L355.481689,51.194595L354.288513,51.194595L354.288513,47.283962L353.161926,47.283962L353.161926,51.194595L351.836456,51.194595L351.836456,48.278259L352.565338,48.278259L352.366486,47.615913L351.836456,47.615913L351.836456,46.488525L351.239868,45.627323L352.167633,42.512123L350.709839,42.512123L350.709839,35.486286zM354.288513,51.924271L355.481689,51.924271L355.481689,54.840614L354.288513,54.840614L354.288513,51.924271zM353.161926,51.924271L353.161926,54.840614L351.836456,54.840614L351.836456,51.924271L353.161926,51.924271zM366.418152,50.995739L366.418152,54.840614L364.828064,54.840614L364.828064,50.995739L366.418152,50.995739zM364.828064,40.456982L364.828064,36.546345L366.418152,36.546345L366.418152,40.456982L364.828064,40.456982zM347.262695,51.460007L347.262695,53.38205L343.948639,53.38205L343.948639,51.460007L347.262695,51.460007zM363.634918,50.995739L363.634918,54.840614L361.977478,54.840614L361.977478,50.995739L363.634918,50.995739"/>
</svg>
