<?xml version="1.0" encoding="UTF-8"?>
<svg xmlns="http://www.w3.org/2000/svg" xmlns:xlink="http://www.w3.org/1999/xlink" width="25.654mm" height="25.654mm" viewBox="-560.551025 224.701996 25.654419 25.654404">
    <path transform="matrix(-1,0,0,1,0,0)" style="stroke:none;fill:#000000;fill-rule:evenodd" d="M547.382446,224.838226L536.056885,229.000168C535.283386,229.318817,534.896606,229.864502,534.896606,230.638016L534.896606,248.650436C534.896606,249.105316,535.055542,249.514771,535.374207,249.87883C535.73822,250.197479,536.147705,250.3564,536.6026,250.3564L558.845093,250.3564C559.299927,250.3564,559.709412,250.197479,560.073425,249.87883C560.39209,249.514771,560.551025,249.105316,560.551025,248.650436L560.551025,230.638016C560.551025,229.864502,560.186951,229.318817,559.459656,229.000168L548.61084,224.838226L547.99707,224.701996L547.382446,224.838226M536.6026,248.650436L536.6026,230.638016L547.99707,226.407959L558.845093,230.638016L558.845093,248.650436L536.6026,248.650436z"/>
</svg>
