<?xml version="1.0" encoding="UTF-8"?>
<svg xmlns="http://www.w3.org/2000/svg" xmlns:xlink="http://www.w3.org/1999/xlink" width="25.654mm" height="31.465mm" viewBox="-525.609985 221.795776 25.654419 31.465179">
    <path transform="matrix(-1,0,0,1,0,0)" style="stroke:none;fill:#000000;fill-rule:evenodd" d="M512.742859,226.881561C512.049988,226.881561,511.384491,227.06633,510.744873,227.437439L509.46637,229.026749L509.46637,221.795776C506.695648,222.537979,504.431488,224.020813,502.673065,226.24585C500.86142,228.576569,499.955566,231.198532,499.955566,234.11174L499.955566,241.103912L525.609985,241.103912L525.609985,234.11174C525.609985,231.198532,524.730774,228.576569,522.972351,226.24585C521.160706,224.020813,518.869934,222.537979,516.099182,221.795776L516.099182,229.026749L514.820679,227.437439L512.742859,226.881561zM509.46637,231.966568C510.105225,233.396942,511.197388,234.11174,512.742859,234.11174L514.820679,233.555878L516.099182,231.966568L516.099182,238.323013L509.46637,238.323013L509.46637,231.966568z"/>
    <path transform="matrix(-1,0,0,1,0,0)" style="stroke:none;fill:#000000;fill-rule:evenodd" d="M515.69989,246.66571L519.136108,246.66571L519.136108,253.260956L522.333496,253.260956L522.333496,244.122818L507.388519,244.122818L507.388519,253.260956L515.69989,253.260956L515.69989,246.66571z"/>
    <path transform="matrix(-1,0,0,1,0,0)" style="stroke:none;fill:#000000;fill-rule:evenodd" d="M525.609985,244.122818L523.612,244.122818L523.612,253.260956L525.609985,253.260956L525.609985,244.122818z"/>
    <path transform="matrix(-1,0,0,1,0,0)" style="stroke:none;fill:#000000;fill-rule:evenodd" d="M501.953552,244.122818L499.955566,244.122818L499.955566,253.260956L501.953552,253.260956L501.953552,244.122818z"/>
    <path transform="matrix(-1,0,0,1,0,0)" style="stroke:none;fill:#000000;fill-rule:evenodd" d="M506.029388,253.260956L506.029388,244.122818L503.31192,244.122818L503.31192,253.260956L506.029388,253.260956z"/>
</svg>
