<?xml version="1.0" encoding="UTF-8"?>
<svg xmlns="http://www.w3.org/2000/svg" xmlns:xlink="http://www.w3.org/1999/xlink" width="25.654mm" height="25.654mm" viewBox="-455.729004 224.701996 25.654419 25.654404">
    <path transform="matrix(-1,0,0,1,0,0)" style="stroke:none;fill:#000000;fill-rule:evenodd" d="M430.074585,230.793045L430.934235,230.793045L430.934235,231.509399L433.299408,231.509399L433.299408,246.917084L431.436066,246.917084L431.436066,248.135284L430.934235,248.135284L430.934235,249.281464L430.074585,249.281464L430.074585,250.3564L455.729004,250.3564L455.729004,249.281464L455.012634,249.281464L455.012634,248.135284L454.438782,248.135284L454.438782,246.917084L452.504211,246.917084L452.504211,231.509399L455.012634,231.509399L455.012634,230.793045L455.729004,230.793045L455.729004,229.861374L442.973816,224.701996L430.074585,229.861374L430.074585,230.793045zM438.674072,231.509399L438.674072,246.917084L435.735809,246.917084L435.735809,231.509399L438.674072,231.509399zM450.139801,231.509399L450.139801,246.917084L447.129517,246.917084L447.129517,231.509399L450.139801,231.509399M441.253784,231.509399L444.478577,231.509399L444.478577,246.917084L441.253784,246.917084L441.253784,231.509399z"/>
</svg>
