<?xml version="1.0" encoding="UTF-8"?>
<svg xmlns="http://www.w3.org/2000/svg" xmlns:xlink="http://www.w3.org/1999/xlink" width="25.654mm" height="25.654mm" viewBox="-420.787994 224.701996 25.654419 25.654404">
    <path transform="matrix(-1,0,0,1,0,0)" style="stroke:none;fill:#000000;fill-rule:evenodd" d="M407.455017,224.765411L396.081696,229.377533C395.44989,229.630417,395.133575,230.093903,395.133575,230.76799L395.133575,231.589264C395.133575,232.263351,395.44989,232.726822,396.081696,232.979706C396.376068,233.443192,396.81842,233.674927,397.408722,233.674927L397.977112,233.674927L397.977112,244.22699L397.851074,244.22699C397.471344,244.22699,397.134705,244.374969,396.839539,244.669342L396.333801,245.7435L395.892212,246.564774C395.386475,246.902206,395.133575,247.344543,395.133575,247.8918L395.133575,248.839905L395.575928,249.914063L396.650085,250.3564L419.271484,250.3564L420.345642,249.914063L420.787994,248.839905L420.787994,247.8918C420.787994,247.344543,420.577393,246.92334,420.156189,246.628189L419.650421,245.7435C419.650421,245.322296,419.503235,244.964508,419.208069,244.669342C418.913696,244.374969,418.555145,244.22699,418.133942,244.22699L417.944458,244.22699L417.944458,233.674927L418.639679,233.674927C419.186951,233.674927,419.629272,233.422058,419.966736,232.91629C420.513977,232.663406,420.787994,232.221069,420.787994,231.589264L420.787994,230.76799C420.787994,230.093903,420.47171,229.630417,419.839905,229.377533L408.59259,224.765411L408.0242,224.701996L407.455017,224.765411M397.408722,232.158432L397.408722,231.589264L396.650085,231.589264L396.650085,230.76799L408.0242,226.218491L419.271484,230.76799L419.271484,231.589264L418.639679,231.589264L418.639679,232.158432L416.427979,232.158432L416.427979,245.7435L418.133942,245.7435L418.133942,246.881058L418.639679,246.881058L418.639679,247.8918L419.271484,247.8918L419.271484,248.839905L396.650085,248.839905L396.650085,247.8918L397.408722,247.8918L397.408722,246.881058L397.851074,246.881058L397.851074,245.7435L399.493622,245.7435L399.493622,232.158432L397.408722,232.158432z"/>
</svg>
