<?xml version="1.0" encoding="UTF-8"?>
<svg xmlns="http://www.w3.org/2000/svg" xmlns:xlink="http://www.w3.org/1999/xlink" width="25.424mm" height="26.451mm" viewBox="-350.791199 224.303345 25.423615 26.451416">
    <path transform="matrix(-1,0,0,1,0,0)" style="stroke:none;fill:#000000;fill-rule:evenodd" d="M327.870544,227.360611C327.453278,227.360611,326.931854,227.609573,326.306305,228.10907L325.930511,228.42067L325.367584,229.605988C325.409088,230.105499,325.638489,230.52121,326.055786,230.853958L328.996399,233.224609L328.93454,233.598831C328.93454,234.139832,329.16394,234.555557,329.622711,234.846802L330.373535,235.095764L333.439392,237.591675L325.930511,248.134354C325.596985,248.550079,325.513214,248.986938,325.680756,249.444153L326.43158,250.505005L327.245026,250.754761C327.7453,250.754761,328.182953,250.567642,328.558746,250.193405L335.128937,244.328629L335.503937,246.07608L336.067627,247.073517L337.068176,247.448517L337.130829,247.448517C337.714874,247.40625,338.173676,247.136139,338.507965,246.637421L339.94696,244.453888L340.509857,244.765488L341.260681,245.015244L344.326569,249.444153C344.660858,249.860672,344.994385,250.151917,345.327881,250.317886L345.57843,250.442368L345.703705,250.442368L346.203979,250.567642L347.330566,250.255249L349.832764,248.571213L350.64621,247.448517L350.708832,247.385895C350.917877,246.595932,350.72998,245.950821,350.145935,245.452103L345.703705,241.833496L345.453156,240.960541L344.702362,239.899704L343.951538,239.213089L343.763641,239.088608L349.019318,231.789536C349.31134,231.37381,349.395111,230.91658,349.269836,230.417084C349.144592,229.959869,348.93634,229.627136,348.644318,229.418884L347.768219,229.169128C347.309448,229.169128,346.850647,229.335892,346.391876,229.668625L342.575195,233.161972L342.011475,231.352661L343.763641,229.980225C344.306213,229.605988,344.472961,229.086136,344.263916,228.42067C344.097168,227.755188,343.659515,227.422455,342.950195,227.422455L340.697754,227.360611L340.009583,225.238922C339.71756,224.615723,339.279144,224.303345,338.695068,224.303345C338.028046,224.303345,337.569244,224.615723,337.318726,225.238922L336.693176,227.360611L334.440735,227.422455C333.772919,227.422455,333.335266,227.755188,333.126251,228.42067C332.917969,229.086136,333.084747,229.605988,333.627289,229.980225L335.379456,231.352661L335.003662,232.476151L328.93454,227.734833L327.870544,227.360611zM326.931854,229.418884L327.870544,228.794907L328.058472,228.857529L335.379456,234.534424L334.064941,236.343719L330.811157,233.661469L330.748535,233.723328L330.561432,233.78595L330.498779,233.723328L330.436157,233.47435L331.061707,233.037491L326.931854,229.731262L326.931854,229.418884M334.503387,228.857529L337.631897,228.794907L338.695068,225.801056L339.633789,228.794907L342.887573,228.857529L340.384613,230.791321L341.323303,233.848587L338.695068,231.976654L336.13028,233.848587L337.005554,230.791321L334.503387,228.857529zM343.826263,241.0224L344.076813,241.334778L344.389191,242.457474L344.577087,242.769073L349.207214,246.637421L349.332489,246.94902L349.332489,247.011658L349.08194,247.385895L346.579773,248.94545L346.203979,249.132568L346.141327,249.132568L345.890808,248.94545L345.515808,248.63385L342.136749,243.954391L341.761749,243.767273L341.573853,243.767273L341.198059,243.705429L340.948303,243.58017L340.885651,243.518311L343.07547,240.398407L343.826263,241.0224zM337.881622,233.973068L338.069519,234.097549L338.945618,238.402771L347.455078,230.729477L347.768219,230.604202L347.893494,230.604202L347.893494,230.978439L337.318726,245.763702L337.068176,245.950821L336.818451,245.763702L336.005005,241.709015L327.557404,249.132568L327.245026,249.319672L327.182373,249.25705C327.015625,249.174057,326.994476,249.049576,327.119751,248.882813L337.569244,234.097549L337.881622,233.973068z"/>
</svg>
