<?xml version="1.0" encoding="UTF-8"?>
<svg xmlns="http://www.w3.org/2000/svg" xmlns:xlink="http://www.w3.org/1999/xlink" width="25.654mm" height="25.654mm" viewBox="-315.966003 224.701996 25.654419 25.654404">
    <path transform="matrix(-1,0,0,1,0,0)" style="stroke:none;fill:#000000;fill-rule:evenodd" d="M313.481049,235.514771L313.682251,237.529205C313.682251,239.051178,313.36908,240.483902,312.742767,241.827377C312.160278,243.170853,311.33197,244.312332,310.257813,245.252609L311.063416,247.670242C312.585388,246.461426,313.772278,244.98407,314.622528,243.237396C315.518188,241.446884,315.966003,239.543625,315.966003,237.529205C315.966003,236.320389,315.809418,235.156204,315.496246,234.036636L313.481049,235.514771"/>
    <path transform="matrix(-1,0,0,1,0,0)" style="stroke:none;fill:#000000;fill-rule:evenodd" d="M303.608551,224.769333L304.347626,227.052292C306.183533,227.276199,307.862091,227.925232,309.384857,229.000168C310.862213,230.119736,311.980988,231.50705,312.742767,233.163696L315.1604,233.163696C314.309357,230.746063,312.832001,228.753555,310.727539,227.186951C308.623077,225.664978,306.250092,224.836655,303.608551,224.701996L303.608551,224.769333z"/>
    <path transform="matrix(-1,0,0,1,0,0)" style="stroke:none;fill:#000000;fill-rule:evenodd" d="M298.035004,246.729965L296.019806,248.207306C298.168884,249.640045,300.541901,250.3564,303.138794,250.3564C305.735718,250.3564,308.108704,249.640045,310.257813,248.207306L308.242584,246.729965C306.631348,247.62561,304.929321,248.072647,303.138794,248.072647C301.348297,248.072647,299.64624,247.62561,298.035004,246.729965z"/>
    <path transform="matrix(-1,0,0,1,0,0)" style="stroke:none;fill:#000000;fill-rule:evenodd" d="M291.117218,233.701553L298.572083,239.073883L295.683929,247.871445L303.138794,242.431778L310.593658,247.871445L307.705505,239.073883L315.1604,233.701553L306.026947,233.701553L303.138794,224.903198L300.250641,233.701553L291.117218,233.701553z"/>
    <path transform="matrix(-1,0,0,1,0,0)" style="stroke:none;fill:#000000;fill-rule:evenodd" d="M290.781342,234.036636C290.46817,235.156204,290.311584,236.320389,290.311584,237.529205C290.311584,239.543625,290.75943,241.446884,291.65506,243.237396C292.50531,244.98407,293.6922,246.461426,295.214172,247.670242L296.019806,245.252609C294.945648,244.312332,294.11731,243.170853,293.534851,241.827377C292.908508,240.483902,292.595337,239.051178,292.595337,237.529205L292.79657,235.514771L290.781342,234.036636z"/>
    <path transform="matrix(-1,0,0,1,0,0)" style="stroke:none;fill:#000000;fill-rule:evenodd" d="M302.669067,224.769333L302.669067,224.701996C300.027527,224.836655,297.65451,225.664978,295.550049,227.186951C293.445587,228.753555,291.968231,230.746063,291.117218,233.163696L293.534851,233.163696C294.2966,231.50705,295.415405,230.119736,296.892731,229.000168C298.415497,227.925232,300.094055,227.276199,301.929993,227.052292L302.669067,224.769333z"/>
</svg>
