<?xml version="1.0" encoding="UTF-8"?>
<svg xmlns="http://www.w3.org/2000/svg" xmlns:xlink="http://www.w3.org/1999/xlink" width="25.654mm" height="25.654mm" viewBox="-281.026001 224.701996 25.654404 25.654404">
    <path transform="matrix(-1,0,0,1,0,0)" style="stroke:none;fill:#000000;fill-rule:evenodd" d="M268.198792,224.701996C265.233124,224.701996,262.593933,225.626617,260.282776,227.475067C257.971649,229.247574,256.469238,231.558731,255.776352,234.409302L255.371597,237.529205C255.371597,239.531891,255.814728,241.419479,256.700195,243.191986C257.586456,244.925354,258.780396,246.388611,260.282776,247.583328L261.380432,248.334152C263.460632,249.682312,265.733398,250.3564,268.198792,250.3564C270.664185,250.3564,272.936981,249.682312,275.017151,248.334152L276.403687,247.351593C277.828583,246.157654,278.945801,244.713181,279.754547,243.018188C280.602448,241.284821,281.026001,239.455154,281.026001,237.529205L280.621246,234.409302L280.101379,232.791031C279.176758,230.403152,277.635986,228.457611,275.479095,226.955215C273.283813,225.452805,270.856781,224.701996,268.198792,224.701996zM257.740692,242.209442C257.085388,240.707031,256.758118,239.146698,256.758118,237.529205L256.989075,235.275986L262.593933,239.378433L260.456604,245.90712C259.301025,244.829056,258.395203,243.595978,257.740692,242.209442zM279.350586,235.275986L279.408508,235.275986L279.639465,237.529205C279.639465,239.146698,279.312225,240.707031,278.656921,242.209442C278.002411,243.595978,277.096588,244.829056,275.94101,245.90712L273.80365,239.378433L279.350586,235.275986zM268.198792,248.969864C266.272827,248.969864,264.404816,248.468811,262.593933,247.467468L268.198792,243.422943L273.80365,247.467468C271.992767,248.468811,270.124756,248.969864,268.198792,248.969864zM278.656921,232.791031L271.665527,232.791031L269.527405,226.204407L269.470245,226.146469C271.511292,226.377426,273.360535,227.089874,275.017151,228.284592C276.596283,229.478531,277.809814,230.980942,278.656921,232.791031zM264.732056,232.791031L257.740692,232.791031C258.587799,230.980942,259.8013,229.478531,261.380432,228.284592C263.037079,227.089874,264.886292,226.377426,266.927338,226.146469L266.870209,226.204407L264.732056,232.791031M265.71463,234.177567L268.198792,226.666321L270.682983,234.177567L278.54184,234.177567L272.128235,238.800644L274.612396,246.369827L268.198792,241.68959L261.785187,246.369827L264.269379,238.800644L257.855774,234.177567L265.71463,234.177567z"/>
</svg>
