<?xml version="1.0" encoding="UTF-8"?>
<svg xmlns="http://www.w3.org/2000/svg" xmlns:xlink="http://www.w3.org/1999/xlink" width="25.654mm" height="17.637mm" viewBox="-246.085007 228.710007 25.654404 17.637405">
    <path transform="matrix(-1,0,0,1,0,0)" style="stroke:none;fill:#000000;fill-rule:evenodd" d="M233.257797,228.710007C229.751923,228.710007,226.736938,229.564941,224.214401,231.275604C221.691864,233.028534,220.430603,235.123611,220.430603,237.560806C220.430603,239.954956,221.691864,242.028885,224.214401,243.781815C226.736938,245.492477,229.751923,246.347412,233.257797,246.347412C236.806732,246.347412,239.842072,245.492477,242.365402,243.781815C244.844879,242.028885,246.085007,239.954956,246.085007,237.560806C246.085007,235.123611,244.844879,233.028534,242.365402,231.275604C239.842072,229.564941,236.806732,228.710007,233.257797,228.710007zM241.851807,232.365417L240.569397,235.444595L239.286209,230.890411L241.851807,232.365417zM222.932007,240.960205C222.162399,239.890747,221.777206,238.757874,221.777206,237.560806C221.777206,236.320679,222.162399,235.166672,222.932007,234.097214L222.932007,240.960205zM244.802597,237.560806C244.802597,238.800934,244.396271,239.933807,243.583603,240.960205L243.583603,234.097214C244.396271,235.123611,244.802597,236.278397,244.802597,237.560806zM239.414612,244.102814L239.414612,239.356812L240.569397,241.473007L241.467407,239.421005L241.467407,243.012207L239.414612,244.102814zM227.165192,237.112198L224.984009,237.112198L224.984009,234.097214L227.165192,232.622208L227.165192,237.112198zM224.984009,239.035812L227.165192,239.035812L227.165192,244.102814L224.984009,242.948013L224.984009,239.035812zM234.284195,232.173599L236.4646,232.173599L236.4646,230.05661L237.041611,230.120804L237.041611,244.936615L234.284195,245.256821L234.284195,232.173599zM229.794205,232.173599L231.975403,232.173599L231.975403,245.256821L229.153,244.808212L229.153,230.249207L229.794205,230.120804L229.794205,232.173599z"/>
</svg>
