<?xml version="1.0" encoding="UTF-8"?>
<svg xmlns="http://www.w3.org/2000/svg" xmlns:xlink="http://www.w3.org/1999/xlink" width="25.454mm" height="25.250mm" viewBox="-333.117004 31.510666 25.453979 25.250423">
    <path transform="matrix(-1,0,0,1,0,0)" style="stroke:none;fill:#000000;fill-rule:evenodd" d="M313.982666,32.628662L313.163757,32.393787L312.519409,32.511227C312.012878,32.786026,311.759216,33.217411,311.759216,33.80616L311.759216,44.753593L311.583832,44.753593C311.154816,44.753593,310.783691,44.950104,310.472107,45.342342C310.198853,45.734581,310.120575,46.147175,310.238007,46.57856L310.647461,48.049648L310.413391,48.049648L309.418304,47.756058L309.067566,47.696556L308.189911,47.990929C307.838379,48.304878,307.663025,48.677544,307.663025,49.109711L307.663025,55.348721L308.072479,56.349281C308.345734,56.624084,308.67688,56.761089,309.067566,56.761089L331.712463,56.761089L332.70755,56.349281C332.980774,56.074478,333.117004,55.740959,333.117004,55.348721L333.117004,48.697113C333.117004,48.226585,332.922058,47.85392,332.532166,47.579117L332.414734,47.520401L332.414734,41.810635L332.532166,41.751915C332.922058,41.437969,333.117004,41.045731,333.117004,40.575203L333.117004,35.631123L332.766266,34.748001L332.063995,34.217968L332.063995,32.923035C332.063995,32.374214,331.829895,31.961622,331.361725,31.687603L330.659454,31.510666L329.898468,31.746323L328.670074,32.511227L327.792419,32.981754C327.245972,33.217411,326.953156,33.629223,326.914795,34.217968C326.484985,34.217968,326.134216,34.394909,325.860992,34.748001C325.587769,35.101093,325.510254,35.512905,325.626892,35.984215L325.860992,36.690399L325.744324,36.984776C325.587769,37.455303,325.646484,37.886688,325.919708,38.279709L326.212524,38.51458L326.212524,39.456421L325.042053,39.456421C324.418091,39.456421,323.989044,39.77037,323.754974,40.398266C323.520874,41.026157,323.676666,41.55619,324.222351,41.987572L325.276154,42.811195C325.510254,43.007706,325.802277,43.105568,326.153809,43.105568L326.212524,43.105568L326.212524,43.576881L326.153809,43.518162L325.451538,43.341225C325.061646,43.341225,324.749268,43.478233,324.515167,43.753036L324.105713,44.106129C323.793335,44.380928,323.637512,44.73402,323.637512,45.166187L323.637512,46.990368L323.110626,46.990368L322.759888,46.225468L322.759888,45.166187L322.818604,44.459221L322.759888,43.635597L322.759888,39.456421L322.350433,38.455864C322.077179,38.181061,321.745239,38.044052,321.355347,38.044052L320.418976,38.044052C319.98996,38.044052,319.658783,38.181061,319.424683,38.455864L319.015228,39.456421L319.015228,41.340103L318.488312,41.693199L317.610687,41.281387L317.610687,36.513462L317.493256,36.101654L316.908417,35.277248L315.91333,34.748001L315.269775,33.688721L314.860321,33.217411L313.982666,32.628662M313.163757,33.80616L314.099335,34.394909L314.919037,35.807278L316.206146,36.513462L316.206146,42.693756L317.493256,42.693756L316.674316,45.519279L317.201233,46.284184L317.201233,47.226025L318.37088,47.226025L318.37088,46.990368L319.365967,46.990368L319.365967,47.226025L320.418976,47.226025L320.418976,44.636158L319.424683,44.636158L319.424683,42.693756L320.418976,42.693756L320.418976,39.456421L321.355347,39.456421L321.355347,43.753036L321.472778,44.636158L321.355347,44.636158L321.355347,47.226025L321.706879,47.226025L321.823517,47.873493L321.355347,47.873493L321.355347,50.46336L322.409149,50.46336L322.409149,48.403522L323.637512,48.403522L323.637512,49.404083L325.042053,49.404083L325.042053,45.166187L325.451538,44.753593L326.153809,45.166187L327.616272,45.166187L327.616272,41.693199L326.153809,41.693199L325.042053,40.869576L327.616272,40.869576L327.616272,37.455303L327.090149,37.455303L327.324249,36.690399L326.972717,35.631123L328.318542,35.631123L328.318542,34.217968L329.313629,33.74744L330.659454,32.923035L330.659454,35.631123L331.712463,35.631123L331.712463,40.575203L331.010193,41.045731L331.010193,48.226585L331.712463,48.697113L331.712463,55.348721L309.067566,55.348721L309.067566,49.109711L310.238007,49.462799L313.163757,49.462799L313.163757,47.814774L312.052002,47.814774L311.583832,46.166748L313.163757,46.166748L313.163757,33.80616z"/>
</svg>
