<?xml version="1.0" encoding="UTF-8"?>
<svg xmlns="http://www.w3.org/2000/svg" xmlns:xlink="http://www.w3.org/1999/xlink" width="25.654mm" height="18.638mm" viewBox="-211.143997 228.209778 25.654404 18.637970">
    <path transform="matrix(-1,0,0,1,0,0)" style="stroke:none;fill:#000000;fill-rule:evenodd" d="M198.345764,228.209778C194.78743,228.209778,191.745041,229.132828,189.220154,230.979721C186.732849,232.78746,185.489594,234.960815,185.489594,237.499802C185.489594,240.077133,186.732849,242.288864,189.220154,244.135742C191.745041,245.943481,194.78743,246.847748,198.345764,246.847748C201.865723,246.847748,204.868973,245.943481,207.356277,244.135742C209.881165,242.288864,211.143997,240.077133,211.143997,237.499802C211.143997,234.960815,209.881165,232.78746,207.356277,230.979721C204.868973,229.132828,201.865723,228.209778,198.345764,228.209778zM190.252823,231.960709C192.472366,230.383148,195.169495,229.594757,198.345764,229.594757C201.48288,229.594757,204.161224,230.383148,206.380768,231.960709C208.637894,233.46077,209.766861,235.30687,209.766861,237.499802C209.766861,239.731094,208.637894,241.596771,206.380768,243.096817C204.161224,244.636017,201.48288,245.404846,198.345764,245.404846C195.169495,245.404846,192.472366,244.636017,190.252823,243.096817C188.034042,241.596771,186.924667,239.731094,186.924667,237.499802C186.924667,235.30687,188.034042,233.46077,190.252823,231.960709zM204.773453,235.653687L205.921204,232.883759L203.682861,231.613876L204.773453,235.653687zM188.072418,237.499802C188.072418,238.615448,188.435684,239.654373,189.16301,240.615784L189.16301,234.441742C188.435684,235.403168,188.072418,236.422516,188.072418,237.499802zM207.470581,240.615784C208.197906,239.692734,208.561172,238.653809,208.561172,237.499802C208.561172,236.384155,208.197906,235.364807,207.470581,234.441742L207.470581,240.615784zM204.773453,241.077698L203.740021,239.115723L203.740021,243.385712L205.576721,242.404724L205.576721,239.230804L204.773453,241.077698zM192.89357,237.09581L192.89357,233.056778L190.941772,234.441742L190.941772,237.09581L192.89357,237.09581zM190.941772,238.826828L190.941772,242.346802L192.89357,243.385712L192.89357,238.826828L190.941772,238.826828zM201.157974,232.768677L199.206177,232.768677L199.206177,244.481796L201.67392,244.135742L201.67392,230.921783L201.157974,230.806702L201.157974,232.768677zM197.140076,232.768677L195.131134,232.768677L195.131134,230.863846L194.615189,231.036865L194.615189,244.02066L197.140076,244.481796L197.140076,232.768677"/>
</svg>
