<?xml version="1.0" encoding="UTF-8"?>
<svg xmlns="http://www.w3.org/2000/svg" xmlns:xlink="http://www.w3.org/1999/xlink" width="25.454mm" height="20.638mm" viewBox="-176.102997 227.210129 25.453979 20.637527">
    <path transform="matrix(-1,0,0,1,0,0)" style="stroke:none;fill:#000000;fill-rule:evenodd" d="M154.092255,228.228699L155.172668,228.228699L155.172668,227.210129L153.687485,227.210129L153.687485,236.306763L155.172668,236.306763L155.172668,232.097839L154.092255,232.097839L154.092255,230.536713L155.172668,230.536713L155.172668,229.789825L154.092255,229.789825L154.092255,228.228699"/>
    <path transform="matrix(-1,0,0,1,0,0)" style="stroke:none;fill:#000000;fill-rule:evenodd" d="M150.649017,236.306763L150.649017,238.139557L151.796768,238.139557L151.796768,247.847656L160.641296,247.847656L160.641296,245.538849L166.448151,245.538849L166.448151,247.847656L175.022583,247.847656L175.022583,238.139557L176.102997,238.139557L176.102997,236.306763L150.649017,236.306763M153.281937,239.226242L159.021454,239.226242L159.021454,243.027267L153.281937,243.027267L153.281937,239.226242zM162.127258,243.027267L162.127258,239.226242L173.604736,239.226242L173.604736,243.027267L162.127258,243.027267z"/>
</svg>
