<?xml version="1.0" encoding="UTF-8"?>
<svg xmlns="http://www.w3.org/2000/svg" xmlns:xlink="http://www.w3.org/1999/xlink" width="25.452mm" height="19.642mm" viewBox="-559.973206 263.799011 25.452393 19.641663">
    <path transform="matrix(-1,0,0,1,0,0)" style="stroke:none;fill:#000000;fill-rule:evenodd" d="M538.941895,264.700134L539.897827,264.700134L539.897827,263.799011L538.583313,263.799011L538.583313,271.848114L539.897827,271.848114L539.897827,268.12381L538.941895,268.12381L538.941895,266.741974L539.897827,266.741974L539.897827,266.081207L538.941895,266.081207L538.941895,264.700134"/>
    <path transform="matrix(-1,0,0,1,0,0)" style="stroke:none;fill:#000000;fill-rule:evenodd" d="M534.520813,270.466278L534.520813,274.730774L535.476746,274.730774L535.476746,283.440674L559.017273,283.440674L559.017273,274.730774L559.973206,274.730774L559.973206,270.466278L534.520813,270.466278M536.850769,273.469513L535.894836,273.469513L535.894836,271.848114L558.599182,271.848114L558.599182,273.469513L557.64325,273.469513L557.64325,282.058838L549.816528,282.058838L549.816528,280.016998L544.737793,280.016998L544.737793,282.058838L536.850769,282.058838L536.850769,273.469513zM543.244019,274.430939L538.224731,274.430939L538.224731,277.794312L543.244019,277.794312L543.244019,274.430939zM546.052307,274.430939L546.052307,277.794312L556.328796,277.794312L556.328796,274.430939L546.052307,274.430939z"/>
</svg>
