<?xml version="1.0" encoding="UTF-8"?>
<svg xmlns="http://www.w3.org/2000/svg" xmlns:xlink="http://www.w3.org/1999/xlink" width="25.654mm" height="25.437mm" viewBox="-525.239014 260.901611 25.654419 25.436768">
    <path transform="matrix(-1,0,0,1,0,0)" style="stroke:none;fill:#000000;fill-rule:evenodd" d="M512.378174,260.901611C508.786926,260.901611,505.778992,262.151154,503.355103,264.650208C500.841187,267.149231,499.584595,270.116486,499.584595,273.552673C499.584595,277.123535,500.841187,280.158081,503.355103,282.657135C505.778992,285.111542,508.786926,286.338379,512.378174,286.338379C515.96936,286.338379,518.977295,285.111542,521.401184,282.657135C523.959717,280.158081,525.239014,277.123535,525.239014,273.552673L525.171692,272.281219L525.171692,273.486115L521.737854,273.151031L518.437866,273.486115L518.437866,272.147339L521.737854,271.812256L525.171692,272.147339C524.723083,268.978912,523.286438,266.323273,520.862549,264.181244C518.527893,261.994568,515.700012,260.901611,512.378174,260.901611zM511.435516,267.863251L511.166199,264.582855L511.435516,261.303253L512.782104,261.303253L512.445496,264.582855L512.714783,267.863251L511.435516,267.863251zM513.590088,282.924896L513.32074,286.27182L511.974152,286.27182L512.243469,282.924896L511.974152,279.711823L513.32074,279.711823L513.590088,282.924896zM503.085785,272.950623L506.31842,272.682861L506.31842,274.021637L503.085785,274.289398L499.651947,274.021637L499.651947,272.682861L503.085785,272.950623zM508.540314,269.937958C509.617615,268.866943,510.919586,268.331451,512.445496,268.331451C513.926758,268.331451,515.205994,268.866943,516.283325,269.937958C517.360596,270.919739,517.899231,272.147339,517.899231,273.619995C517.899231,275.181915,517.360596,276.476044,516.283325,277.502441C515.205994,278.573486,513.926758,279.108978,512.445496,279.108978C510.919586,279.108978,509.617615,278.573486,508.540314,277.502441C507.463043,276.476044,506.924377,275.181915,506.924377,273.619995C506.924377,272.147339,507.463043,270.919739,508.540314,269.937958z"/>
</svg>
