<?xml version="1.0" encoding="UTF-8"?>
<svg xmlns="http://www.w3.org/2000/svg" xmlns:xlink="http://www.w3.org/1999/xlink" width="25.654mm" height="25.834mm" viewBox="-490.403015 260.702179 25.654419 25.834473">
    <path transform="matrix(-1,0,0,1,0,0)" style="stroke:none;fill:#000000;fill-rule:evenodd" d="M477.454468,260.702179C473.986176,260.702179,471.021271,261.972839,468.560608,264.51416C466.019287,267.014771,464.748596,270.039948,464.748596,273.588867C464.748596,277.179291,466.019287,280.26474,468.560608,282.846008C471.021271,285.306702,473.986176,286.536652,477.454468,286.536652C481.004181,286.536652,484.030121,285.346619,486.530731,282.966583C488.991425,280.465942,490.281677,277.461151,490.403015,273.952148L490.342743,272.319L490.281677,272.13736C489.919189,268.910187,488.527161,266.207581,486.107178,264.029541C483.646484,261.811554,480.762268,260.702179,477.454468,260.702179zM466.200897,273.588867C466.200897,270.483063,467.310303,267.800812,469.528259,265.542114C471.707123,263.283417,474.348663,262.154449,477.454468,262.154449C480.439697,262.154449,483.020966,263.142487,485.199799,265.118561C487.337128,267.054688,488.567871,269.455109,488.890442,272.319L485.98584,272.015991L483.020966,272.319L483.020966,273.528595L485.98584,273.226379L488.950714,273.528595L488.950714,272.439545L489.010986,273.588867C489.010986,276.81604,487.88205,279.558563,485.623352,281.817261C483.404572,284.036011,480.68161,285.145416,477.454468,285.145416C474.348663,285.145416,471.707123,284.036011,469.528259,281.817261C467.310303,279.558563,466.200897,276.81604,466.200897,273.588867zM477.394165,282.059174L477.09198,285.084351L478.301575,285.084351L478.544281,282.059174L478.301575,279.155365L477.09198,279.155365L477.394165,282.059174zM469.347412,273.044739L466.321472,272.802826L466.321472,274.012421L469.347412,274.254333L472.130676,274.012421L472.130676,272.802826L469.347412,273.044739zM476.607361,262.516937L476.365417,265.481842L476.607361,268.446716L477.817719,268.446716L477.575806,265.481842L477.817719,262.516937L476.607361,262.516937M477.515533,268.87027C476.183807,268.87027,475.05484,269.354095,474.127075,270.321777C473.199341,271.209595,472.735077,272.319,472.735077,273.649933C472.735077,275.061523,473.199341,276.231201,474.127075,277.158936C475.05484,278.126617,476.183807,278.610443,477.515533,278.610443C478.886414,278.610443,480.056854,278.126617,481.024536,277.158936C481.952271,276.231201,482.416534,275.061523,482.416534,273.649933C482.416534,272.319,481.952271,271.209595,481.024536,270.321777C480.056854,269.354095,478.886414,268.87027,477.515533,268.87027zM475.034485,271.22995C475.720306,270.584045,476.547058,270.261505,477.515533,270.261505C478.523926,270.261505,479.371033,270.584045,480.056854,271.22995C480.701965,271.915009,481.024536,272.722198,481.024536,273.649933C481.024536,274.617615,480.701965,275.464722,480.056854,276.190491C479.371033,276.876312,478.523926,277.219238,477.515533,277.219238C476.547058,277.219238,475.720306,276.876312,475.034485,276.190491C474.429291,275.464722,474.127075,274.617615,474.127075,273.649933C474.127075,272.722198,474.429291,271.915009,475.034485,271.22995z"/>
</svg>
