<?xml version="1.0" encoding="UTF-8"?>
<svg xmlns="http://www.w3.org/2000/svg" xmlns:xlink="http://www.w3.org/1999/xlink" width="25.654mm" height="25.654mm" viewBox="-455.566986 260.792999 25.654419 25.654419">
    <path transform="matrix(-1,0,0,1,0,0)" style="stroke:none;fill:#000000;fill-rule:evenodd" d="M436.292511,284.750854C437.01593,285.882141,437.96637,286.447418,439.143097,286.447418C439.685638,286.447418,440.206299,286.289246,440.70343,285.972168L441.992889,284.750854L443.078796,283.800385C443.441284,283.800385,443.734863,284.049347,443.961121,284.547272L444.029236,284.750854C444.753418,285.882141,445.703094,286.447418,446.879822,286.447418L448.440948,285.972168L449.730377,284.750854C450.272949,284.207489,450.635437,283.891205,450.816284,283.800385C451.177979,283.800385,451.472351,284.049347,451.698639,284.547272L451.765961,284.750854C452.490143,285.882141,453.440613,286.447418,454.616547,286.447418L455.566986,286.447418L455.566986,284.343719L454.616547,284.343719L453.937744,283.732269L453.734192,283.39328C453.010773,282.261963,452.014923,281.696716,450.748169,281.696716C450.205627,281.696716,449.684967,281.854858,449.187042,282.171936L447.897583,283.39328L446.879822,284.343719L446.132904,283.664948L445.997467,283.39328C445.273285,282.261963,444.278198,281.696716,443.011444,281.696716C442.468109,281.696716,441.948273,281.854858,441.450317,282.171936L440.160889,283.39328L439.143097,284.343719L438.39621,283.732269L438.260742,283.39328C437.53656,282.261963,436.541473,281.696716,435.273956,281.696716C434.731384,281.696716,434.210754,281.854858,433.713623,282.171936L432.42337,283.39328L431.337463,284.343719L430.455933,284.343719L430.455933,286.447418L431.405579,286.447418L432.966705,285.972168L434.256165,284.750854L435.342072,283.800385C435.522919,283.800385,435.726471,283.91391,435.952728,284.140167L436.224396,284.547272L436.292511,284.750854z"/>
    <path transform="matrix(-1,0,0,1,0,0)" style="stroke:none;fill:#000000;fill-rule:evenodd" d="M433.713623,277.285004L432.42337,278.439026L431.337463,279.388672L430.455933,279.388672L430.455933,281.560486L431.405579,281.560486C431.948914,281.560486,432.468781,281.356934,432.966705,280.949799L434.256165,279.863922L435.342072,278.84613C435.522919,278.84613,435.726471,278.981567,435.952728,279.253235L436.224396,279.524902L436.292511,279.728455C437.01593,280.949799,437.96637,281.560486,439.143097,281.560486C439.685638,281.560486,440.206299,281.356934,440.70343,280.949799L441.992889,279.863922L443.078796,278.84613L443.961121,279.524902L444.029236,279.728455C444.753418,280.949799,445.703094,281.560486,446.879822,281.560486L448.440948,280.949799L449.730377,279.863922L450.816284,278.84613L451.698639,279.524902L451.765961,279.728455C452.490143,280.949799,453.440613,281.560486,454.616547,281.560486L455.566986,281.560486L455.566986,279.388672L454.616547,279.388672C454.345642,279.388672,454.119385,279.163208,453.937744,278.710693L453.734192,278.439026C453.010773,277.262299,452.014923,276.674347,450.748169,276.674347C450.205627,276.674347,449.684967,276.877899,449.187042,277.285004L447.897583,278.439026L446.879822,279.388672L446.132904,278.710693L445.997467,278.439026C445.273285,277.262299,444.278198,276.674347,443.011444,276.674347C442.468109,276.674347,441.948273,276.877899,441.450317,277.285004L440.160889,278.439026L439.143097,279.388672L438.39621,278.710693L438.260742,278.439026C437.53656,277.262299,436.541473,276.674347,435.273956,276.674347C434.731384,276.674347,434.210754,276.877899,433.713623,277.285004z"/>
    <path transform="matrix(-1,0,0,1,0,0)" style="stroke:none;fill:#000000;fill-rule:evenodd" d="M434.32428,266.222473C433.28302,266.222473,431.812714,270.068146,429.912567,277.760223L430.455933,277.421234L431.337463,277.421234L432.42337,276.402679L433.713623,275.249451C434.210754,274.886963,434.731384,274.706085,435.273956,274.706085C436.541473,274.706085,437.53656,275.271362,438.260742,276.402679L438.39621,276.742462L439.143097,277.353119L440.160889,276.402679L441.450317,275.249451C441.948273,274.886963,442.468109,274.706085,443.011444,274.706085C444.278198,274.706085,445.273285,275.271362,445.997467,276.402679L446.132904,276.674347L446.879822,277.353119L447.897583,276.402679L449.526825,275.045105C448.214661,271.244843,447.015259,269.344727,445.929352,269.344727C445.522247,269.344727,445.047028,269.864594,444.504456,270.90506C442.739777,264.163422,441.22406,260.792999,439.957306,260.792999C439.097687,260.792999,437.898254,263.485413,436.359833,268.869507C435.636444,267.104828,434.957642,266.222473,434.32428,266.222473z"/>
</svg>
