<?xml version="1.0" encoding="UTF-8"?>
<svg xmlns="http://www.w3.org/2000/svg" xmlns:xlink="http://www.w3.org/1999/xlink" width="25.475mm" height="25.434mm" viewBox="-420.641998 260.903198 25.474731 25.433624">
    <path transform="matrix(-1,0,0,1,0,0)" style="stroke:none;fill:#000000;fill-rule:evenodd" d="M407.785034,262.392273C407.107056,261.399536,406.32962,260.903198,405.452759,260.903198C404.77475,260.903198,404.19696,261.240631,403.718597,261.915497C403.120453,262.709351,402.482391,264.119385,401.805176,266.144775C401.365967,265.826904,400.927521,265.667969,400.489105,265.667969C399.81189,265.667969,399.213745,266.025757,398.695465,266.74057L397.080322,270.374054L395.227173,276.865936C395.067444,277.461731,395.227173,277.958099,395.705505,278.355042L395.645233,278.65332L395.645233,284.907227C395.645233,285.304932,395.804962,285.642365,396.123596,285.920288C396.363159,286.198242,396.681824,286.336823,397.080322,286.336823L397.91803,286.336823C398.994537,286.336823,400.130524,285.721436,401.326813,284.490723C402.203674,285.721436,403.339691,286.336823,404.734833,286.336823C405.81134,286.336823,406.947327,285.721436,408.143616,284.490723C409.020477,285.721436,410.157257,286.336823,411.552399,286.336823C412.668854,286.336823,413.80484,285.721436,414.961212,284.490723C415.838074,285.721436,416.97406,286.336823,418.369202,286.336823L419.206909,286.336823L420.223145,285.920288L420.641998,284.907227L420.641998,278.65332C420.641998,278.256378,420.502655,277.918945,420.223145,277.641022C419.944427,277.362305,419.605438,277.223724,419.206909,277.223724L418.907837,277.223724L418.728577,276.985718C417.890839,275.715057,416.754852,275.019836,415.319763,274.900848L415.260284,274.364532C414.502411,272.260071,413.764923,270.750641,413.046997,269.837769C412.329834,268.884949,411.552399,268.408173,410.715485,268.408173L410.236328,268.527161C409.359467,265.588898,408.542114,263.543945,407.785034,262.392273zM403.957397,282.167816L404.077179,282.465332L404.675323,283.001617L405.63205,282.167816L406.768036,281.154724C407.206482,280.837646,407.665253,280.678711,408.143616,280.678711C409.26004,280.678711,410.136902,281.175079,410.774963,282.167816L410.894775,282.465332L411.552399,283.001617L412.449615,282.167816L413.585632,281.154724L414.961212,280.678711C416.076843,280.678711,416.954498,281.175079,417.59256,282.167816L417.711578,282.465332C417.951141,282.82312,418.170349,283.001617,418.369202,283.001617L419.206909,283.001617L419.206909,284.907227L418.369202,284.907227C417.333405,284.907227,416.495697,284.391266,415.857635,283.358612L415.798126,283.180115C415.59848,282.743256,415.339355,282.524811,415.020691,282.524811L414.063995,283.418121L412.927979,284.431213C412.489563,284.749084,412.030762,284.907227,411.552399,284.907227C410.515839,284.907227,409.678894,284.391266,409.040833,283.358612L408.98056,283.180115C408.781677,282.743256,408.522552,282.524811,408.203125,282.524811L407.246399,283.418121L406.110413,284.431213C405.671967,284.749084,405.213196,284.907227,404.734833,284.907227C403.698242,284.907227,402.861328,284.391266,402.223236,283.358612L402.163757,283.180115L401.924164,282.882599C401.725311,282.643829,401.546021,282.524811,401.386322,282.524811L400.429596,283.418121L399.29361,284.431213C398.814453,284.749084,398.356445,284.907227,397.91803,284.907227L397.080322,284.907227L397.080322,283.001617L397.857727,283.001617L398.814453,282.167816L399.951233,281.154724C400.389679,280.837646,400.847687,280.678711,401.326813,280.678711C402.442474,280.678711,403.320099,281.175079,403.957397,282.167816zM399.951233,276.806427C400.389679,276.489349,400.847687,276.330444,401.326813,276.330444C402.442474,276.330444,403.320099,276.826782,403.957397,277.819519L404.077179,278.117035L404.675323,278.65332C404.914124,278.573486,405.233551,278.295532,405.63205,277.819519L406.768036,276.806427C407.206482,276.489349,407.665253,276.330444,408.143616,276.330444C409.26004,276.330444,410.136902,276.826782,410.774963,277.819519L410.894775,278.057526L411.552399,278.65332L412.449615,277.819519L413.585632,276.806427L414.961212,276.330444C416.076843,276.330444,416.954498,276.826782,417.59256,277.819519L417.711578,278.117035C417.951141,278.474823,418.170349,278.65332,418.369202,278.65332L419.206909,278.65332L419.206909,280.559723L418.369202,280.559723C417.333405,280.559723,416.495697,280.042999,415.857635,279.010345L415.798126,278.831818C415.59848,278.434906,415.339355,278.216461,415.020691,278.176544L414.063995,279.069824L412.927979,280.082916C412.489563,280.400787,412.030762,280.559723,411.552399,280.559723C410.515839,280.559723,409.678894,280.042999,409.040833,279.010345L408.98056,278.831818C408.781677,278.434906,408.522552,278.216461,408.203125,278.176544L407.246399,279.069824L406.110413,280.082916C405.671967,280.400787,405.213196,280.559723,404.734833,280.559723C403.698242,280.559723,402.861328,280.042999,402.223236,279.010345L402.163757,278.831818L401.924164,278.534332L401.386322,278.176544L400.429596,279.069824C399.47287,280.062561,398.635162,280.559723,397.91803,280.559723L397.080322,280.559723L397.080322,278.65332L397.857727,278.65332L398.814453,277.819519L399.951233,276.806427zM402.283539,269.47998C403.638763,264.715179,404.694885,262.332764,405.452759,262.332764C406.6091,262.332764,407.94397,265.290619,409.459686,271.207855C409.977203,270.294189,410.396057,269.837769,410.715485,269.837769C411.67218,269.837769,412.728333,271.505371,413.884705,274.841339L412.449615,276.091644L411.552399,276.926239L410.894775,276.330444L410.774963,276.091644C410.136902,275.098907,409.26004,274.602539,408.143616,274.602539C407.665253,274.602539,407.206482,274.741913,406.768036,275.019836L405.63205,276.091644L404.675323,276.926239L404.077179,276.330444L403.957397,276.091644C403.320099,275.098907,402.442474,274.602539,401.326813,274.602539C400.847687,274.602539,400.389679,274.741913,399.951233,275.019836L398.814453,276.091644L397.857727,276.926239L396.662231,276.985718C398.33609,270.393616,399.612244,267.097565,400.489105,267.097565C401.047302,267.097565,401.645447,267.891449,402.283539,269.47998z"/>
</svg>
