<?xml version="1.0" encoding="UTF-8"?>
<svg xmlns="http://www.w3.org/2000/svg" xmlns:xlink="http://www.w3.org/1999/xlink" width="25.636mm" height="24.988mm" viewBox="-385.886597 261.122009 25.635620 24.988159">
    <path transform="matrix(-1,0,0,1,0,0)" style="stroke:none;fill:#000000;fill-rule:evenodd" d="M360.639313,263.452728L360.768494,263.841064L361.092621,264.035217L362.387543,265.45932L362.128418,265.524323L361.415955,265.718475L361.415955,265.847656C361.502869,265.977631,361.67511,266.041809,361.934235,266.041809L362.128418,266.106812L361.67511,266.365936L360.962646,266.624298L360.898438,266.754272L361.610107,267.142578L361.740082,267.401733C361.955383,267.573975,362.27951,267.682007,362.710876,267.725067L363.099213,267.725067L363.164185,268.890045C363.293365,269.365265,363.530609,269.645569,363.875854,269.731689L364.847443,269.537506L365.624084,268.631683L365.624084,268.501709L365.88324,267.854248L377.4711,268.243347L378.118561,266.948425L377.988586,267.271759L377.859436,268.049194C377.773315,268.652832,377.880554,269.1492,378.18277,269.537506L378.247742,269.602509C378.506897,269.904694,378.809082,270.033875,379.154358,269.990814L380.125153,269.408325C380.729584,268.803925,381.009857,268.027283,380.966797,267.077606L381.031769,267.271759L381.16095,267.854248L381.355103,267.91925C381.484283,268.005371,381.614258,267.941162,381.743439,267.725067L382.196747,266.624298L382.261719,266.495117C382.650055,266.538177,382.908417,266.452057,383.038361,266.235992L383.038361,266.106812L382.455902,265.912628L382.520081,265.588501L383.62085,265.588501C383.880005,265.545441,384.074158,265.45932,384.203339,265.330139L384.203339,265.265167L382.908417,265.135986L382.844208,265.135986L382.908417,265.006042L383.426697,264.746887L383.491669,264.746887L383.491669,264.617706L383.750031,264.552734L384.13916,263.970245L383.880005,263.258575L383.815033,263.258575L383.426697,262.99942L383.555878,262.805267L383.491669,262.740295L383.426697,262.934448L382.650055,262.675293L382.520081,262.675293L382.650055,262.48114L382.844208,261.834473L382.585083,261.76947L382.131775,261.834473L380.060181,262.286987L375.981995,263.452728L374.557892,261.122009L374.298737,261.122009L372.5513,261.381165C371.213287,261.639526,370.047546,261.984772,369.05481,262.416931L366.919037,263.258575L364.005829,263.776062L361.67511,263.452728L361.027618,263.387756L360.639313,263.452728M364.199982,268.243347L364.005829,267.401733L364.976624,267.401733L364.717499,268.049194C364.545258,268.264496,364.372223,268.329468,364.199982,268.243347zM379.736847,266.883453C380.082092,267.271759,380.125153,267.79007,379.866028,268.437531C379.606873,269.084991,379.261627,269.257233,378.830231,268.955017L378.830231,268.890045C378.441895,268.544769,378.376923,268.027283,378.636078,267.336761C378.938263,266.68927,379.30545,266.538177,379.736847,266.883453zM370.026398,264.164398L370.28476,263.452728L370.868042,262.675293L374.104584,262.028625L374.169556,262.092804L374.169556,262.157806L373.716248,264.035217L373.457123,264.035217L373.586304,263.387756L373.716248,262.740295L373.651276,262.740295L373.39212,263.193604L373.197968,264.100189L370.28476,264.294373C370.155579,264.294373,370.069458,264.251312,370.026398,264.164398z"/>
    <path transform="matrix(-1,0,0,1,0,0)" style="stroke:none;fill:#000000;fill-rule:evenodd" d="M370.80304,268.695892L368.472321,268.760864L365.818268,269.537506L365.105804,269.796661L365.689087,269.279144L365.559113,269.084991L364.65329,270.055786L363.487549,270.638275L363.746674,270.767456L364.264954,270.509094L363.358368,271.933228L361.286774,273.486511L360.898438,273.486511L360.962646,273.551483L361.157593,273.551483L360.639313,274.133972L360.574341,274.069L360.574341,274.004791C360.53125,273.918671,360.467072,273.874847,360.380157,273.874847L360.315979,273.874847L360.510132,274.263947L360.250977,274.58728L360.510132,274.716461L360.704285,274.458099L361.351746,275.040588L361.286774,275.104797L361.351746,275.234741L361.480927,275.104797L362.516724,275.688049L366.206573,276.658875L366.983215,278.018005C367.71759,278.795441,368.34314,278.859619,368.860657,278.212158L368.925629,278.212158C369.227844,277.823853,369.357025,277.306335,369.313965,276.658875L369.313965,276.464691L369.508118,276.464691L369.443909,276.658875L369.702271,276.788055L369.832245,276.529694L377.729462,276.270538C377.643341,276.874939,377.751373,277.392456,378.053589,277.823853L378.118561,277.823853C378.376923,278.169098,378.679138,278.32019,379.024384,278.27713L379.995972,277.759644C380.470428,277.327484,380.772644,276.744995,380.901825,276.011414L381.031769,276.076385L381.16095,276.076385L381.095978,276.33551L381.355103,276.464691L381.420105,276.011414C382.801147,275.795319,383.944214,275.406982,384.8508,274.846436L385.886597,273.874847L385.821625,273.810638L385.433289,273.616486L385.433289,273.551483L381.87262,272.321533L381.16095,271.544891L380.966797,271.414917L379.348511,271.220764L375.981995,271.544891L375.140381,271.479919L374.817017,271.350739L373.197968,270.055786L370.80304,268.695892zM378.830231,276.140564C379.046326,275.666138,379.283539,275.515045,379.542664,275.688049L379.671844,276.205566L379.542664,276.788055C379.283539,277.220215,379.024384,277.349396,378.765259,277.176361C378.549957,276.96106,378.571075,276.615814,378.830231,276.140564zM367.372345,276.011414C367.630707,275.882233,367.86792,276.033325,368.084015,276.464691C368.300079,277.026062,368.321228,277.392456,368.148987,277.565491C367.889832,277.737732,367.630707,277.586609,367.372345,277.112183C367.19931,276.507751,367.19931,276.140564,367.372345,276.011414zM370.738068,269.537506L370.80304,269.602509L370.93222,269.602509L371.191376,269.796661L372.939606,271.026611L374.169556,272.386536L372.356354,272.580688L372.809662,271.933228L372.680481,271.803253L372.421326,271.739044L371.838837,272.644897L369.508118,272.644897L367.889832,272.386536L367.695679,272.192352L367.760651,272.321533L367.760651,272.386536L366.400757,271.997406C366.573761,271.479919,367.005157,270.961639,367.695679,270.444122L369.119781,269.796661L369.832245,269.602509L370.608887,269.537506L370.738068,269.537506z"/>
    <path transform="matrix(-1,0,0,1,0,0)" style="stroke:none;fill:#000000;fill-rule:evenodd" d="M361.480927,279.377899L361.351746,279.442902L361.092621,280.089569L361.480927,280.672852L361.480927,280.737061L361.740082,280.802032L361.740082,280.867004L361.804291,280.931213L361.869263,280.867004L362.322571,281.190338L362.451752,281.255341L362.322571,281.255341L361.092621,281.384521L361.092621,281.514465L361.610107,281.772827L362.710876,281.772827L362.840057,282.031982C362.494812,282.031982,362.27951,282.118103,362.19339,282.291138L362.19339,282.420288L363.034241,282.614471L363.034241,282.808624L363.229187,283.391113L363.487549,283.909393C363.574432,284.038574,363.724762,284.103546,363.940826,284.103546L364.070007,284.038574L364.199982,283.391113L364.264954,283.19696C364.22113,284.146606,364.523315,284.94519,365.170807,285.592651L366.077393,286.110168C366.422668,286.153229,366.746002,286.024048,367.048218,285.721832C367.350403,285.333496,367.479584,284.837158,367.436523,284.232727L367.242371,283.456085L367.11319,283.132751L367.760651,284.362701L367.82486,284.42691L379.348511,284.038574L379.606873,284.686035L379.606873,284.751038L380.384308,285.721832L381.355103,285.915985L382.067566,285.010162L382.131775,283.844421L382.520081,283.844421L383.491669,283.58606L383.62085,283.261932L384.333313,282.873596L384.268311,282.808624L383.555878,282.550262C383.469757,282.377228,383.318665,282.269196,383.103363,282.226135L383.297516,282.226135L383.880005,282.031982L383.815033,281.902802L383.103363,281.643646L382.844208,281.643646L383.555878,280.737061L384.203339,280.219543L384.462494,279.960388L384.591675,279.637054L384.203339,279.572083L383.62085,279.637054L381.225922,279.895416L378.312714,279.377899L376.24115,278.601257L374.039612,278.212158L373.975403,278.27713L374.363739,278.795441L374.946198,279.572083L375.269562,280.348724L374.946198,280.478699L372.097992,280.283752L371.838837,279.312927C371.795776,278.967682,371.709656,278.838501,371.579712,278.924622L371.644684,279.50708L371.773865,280.219543L371.579712,280.154572L371.256348,279.183746L371.062195,278.27713L371.062195,278.212158L370.349731,278.601257L369.443909,279.701263L365.170807,278.407104L363.099213,277.953796L362.451752,277.953796L362.645905,278.601257L362.710876,278.795441L362.581696,278.795441L362.19339,278.924622L361.869263,279.118774L361.740082,278.924622L361.740082,278.989594L361.804291,279.118774L361.480927,279.377899zM381.031769,284.362701C380.858765,284.491882,380.686523,284.448822,380.513489,284.232727L380.254333,283.58606L381.225922,283.521088C381.312042,283.952454,381.24707,284.232727,381.031769,284.362701zM365.36496,284.556854C365.105804,283.909393,365.170807,283.413025,365.559113,283.06778C365.947449,282.679443,366.292694,282.830536,366.59491,283.521088C366.854065,284.211609,366.789063,284.729095,366.400757,285.074371L366.400757,285.139343C365.96936,285.441559,365.624084,285.247406,365.36496,284.556854z"/>
</svg>
