<?xml version="1.0" encoding="UTF-8"?>
<svg xmlns="http://www.w3.org/2000/svg" xmlns:xlink="http://www.w3.org/1999/xlink" width="25.537mm" height="25.053mm" viewBox="-351.001160 261.092987 25.537445 25.053131">
    <path transform="matrix(-1,0,0,1,0,0)" style="stroke:none;fill:#000000;fill-rule:evenodd" d="M332.334229,263.113678L330.202393,263.459717L328.646729,263.286713L327.667297,263.113678L327.379211,263.113678C326.764618,263.113678,326.323059,263.363434,326.054504,263.863708L325.766418,264.671661C325.766418,265.21109,326.034943,265.691803,326.572815,266.115356L326.514862,266.403473L326.457703,266.461395L326.054504,267.327301L326.284698,268.193207L327.149017,269.00116L327.321259,269.174957L328.013367,269.578949L328.128448,269.809906L328.473724,270.559937L328.416565,271.252808L327.264099,272.118713L326.91806,272.176636L326.341858,272.63858L325.708466,273.157623L325.535461,274.081482C325.420349,274.427521,325.439941,274.774353,325.593384,275.120392C325.823547,275.582306,326.207977,275.871216,326.745819,275.986298C327.014374,276.293976,327.360413,276.448212,327.78241,276.448212L327.840332,276.506134L327.667297,276.679169L327.437134,277.141083L326.91806,277.660156L326.802979,277.833191C326.419342,278.218384,326.226746,278.73822,326.226746,279.391937L326.284698,279.969727C326.054504,280.470032,326.111664,280.989075,326.457703,281.52774L326.514862,281.52774L327.437134,282.162659L328.185608,282.85556L328.646729,283.721436L329.511078,284.299225L330.260315,285.280212C330.835754,285.857239,331.46991,286.146118,332.161224,286.146118C332.852539,286.146118,333.44754,285.876801,333.947021,285.338165L334.35022,284.645294L342.992798,284.356384L344.029358,285.511169C344.490479,285.818848,344.95163,285.973083,345.411987,285.973083C346.526062,285.973083,347.275299,285.395294,347.658936,284.241302L347.658936,283.952393L348.408173,283.548431L348.581207,283.43335L349.445526,282.567444C349.790802,281.989655,349.733643,281.412628,349.272522,280.835632L349.214569,280.835632L349.099487,280.4888C349.637329,280.104401,349.905884,279.642487,349.905884,279.103851L349.67572,278.237946C349.368805,277.776031,348.926453,277.545074,348.35025,277.545074L348.004974,277.545074L347.486694,277.602997L347.428741,277.660156L347.082703,277.660156L345.815948,277.833191L346.103271,277.487122L346.79538,276.967285C347.8703,276.737091,348.792572,276.351898,349.560608,275.813263L350.828156,274.658478L351.00116,273.67749L350.367004,272.63858L350.309082,272.63858L349.963806,272.407593L349.905884,272.34967L346.910461,271.252808L346.161224,270.559937L345.931061,270.444855L345.873108,270.444855L346.161224,269.867065C346.507263,269.751984,346.79538,269.578949,347.025543,269.347992L347.543854,268.482086L348.35025,267.789215C348.73465,267.634979,349.022766,267.423615,349.214569,267.154266C349.598969,266.692352,349.656128,266.153717,349.387604,265.537567L349.502686,264.960571C349.541046,264.345184,349.329651,263.84491,348.869324,263.459717L348.754211,263.22876L348.293091,262.766846L348.062897,262.304932C347.793579,261.882172,347.390381,261.669983,346.852539,261.669983L346.161224,261.727936L344.08728,262.18985L341.78241,262.882721L341.494293,262.997803L340.802979,261.785858C340.534454,261.323944,340.131256,261.092987,339.593384,261.092987L339.190186,261.092987L337.51947,261.381866L334.178009,262.362854L332.334229,263.113678M331.239746,277.891113L331.411987,278.006989L331.815186,278.526062C332.391388,279.142212,333.063904,279.44989,333.83194,279.44989C334.523254,279.44989,335.099487,279.199341,335.560608,278.699066L335.617767,278.583984L335.963806,278.006989L336.424957,277.718079L336.482117,277.833191L336.943237,279.44989L337.116272,279.507813L337.000397,278.872894L336.943237,278.353027L337.000397,278.353027L337.173401,278.757019L337.346436,279.564972L339.93866,279.73877L340.169617,279.622925L339.93866,278.930023L339.420349,278.237946L339.075104,277.776031L339.132263,277.718079L339.420349,277.718079C339.919861,277.718079,340.669098,277.910675,341.667328,278.295105C342.128448,278.911255,342.743042,279.218933,343.511078,279.218933L344.08728,279.103851L345.527832,279.218933L347.658936,278.987976L348.178009,278.930023L348.35025,278.930023L348.523254,278.987976L348.408173,279.334808L348.178009,279.564972C347.563416,279.988525,347.160217,280.392517,346.967621,280.77771L347.198578,280.77771L347.83194,281.008667L347.83194,281.123749L347.31366,281.296783L347.198578,281.296783L347.601776,281.585663L348.235138,281.81662L348.235138,281.874573L347.658936,282.220612L347.543854,282.509491L346.679504,282.740448L346.449341,282.798401L346.334259,282.798401L346.276306,283.837311C346.161224,284.337585,345.873108,284.587341,345.411987,284.587341L344.778595,284.414307L344.08728,283.548431L344.08728,283.490479L343.857117,282.913483L333.601776,283.259521L333.543823,283.202362L332.967621,282.162659L333.082703,282.393616L333.198578,283.086517C333.275299,283.548431,333.179016,283.990753,332.910461,284.414307L332.852539,284.414307C332.660706,284.645294,332.429749,284.760376,332.161224,284.760376C331.815186,284.760376,331.50827,284.606934,331.239746,284.299225C330.663513,283.759796,330.394196,283.067719,330.432556,282.220612L330.432556,282.047577L330.260315,282.913483L330.08728,282.971405L329.684082,282.798401L329.338043,281.81662L329.280884,281.643616L329.049927,281.701538C328.819763,281.701538,328.666321,281.624023,328.588806,281.470581L328.588806,281.354706C328.666321,281.201263,328.819763,281.123749,329.049927,281.123749L329.165009,281.123749L329.049927,280.892792L328.876923,280.950714L328.070526,280.892792L327.609375,280.661835L327.552216,280.604675L328.128448,280.373718L328.646729,280.430878L328.76181,280.4888L328.704681,280.430878L328.30069,280.084839L328.185608,280.142761L328.128448,280.026886L328.185608,280.026886L327.955414,279.969727L327.955414,279.911804L327.609375,279.391937L327.840332,278.814941L327.897491,278.814941L328.185608,278.526062L328.128448,278.41095L328.185608,278.353027L328.30069,278.526062L328.588806,278.41095L328.934845,278.295105L329.049927,278.237946L328.934845,278.064148L328.819763,277.833191L328.76181,277.487122L329.395966,277.487122L331.239746,277.891113zM338.095673,271.31076L336.597198,270.213898L336.309082,270.098022L336.309082,270.040863L337.864716,270.098022L339.36322,271.252808L339.823547,271.598846L340.111664,271.772675L340.630737,271.772675L342.76181,271.598846L343.569,271.772675L344.663513,271.483765L345.296875,271.656799L345.46991,271.772675L346.103271,272.464752C347.179016,272.695709,348.235138,273.080902,349.272522,273.619568L349.617767,273.792572L349.67572,273.908447L348.754211,274.7164C347.985413,275.216675,346.967621,275.562744,345.700073,275.755341L345.642944,276.159302L345.584991,276.159302L345.411987,276.04422L345.46991,275.813263L345.239746,275.813263C345.163025,276.42865,344.893677,276.928925,344.432556,277.314117L344.029358,277.660156L342.5896,277.198242C342.397003,276.737091,342.339844,276.351898,342.416565,276.04422L335.387604,276.217255L335.214569,276.448212L335.041534,276.390259L335.041534,276.332336L335.099487,276.159302L334.869293,276.159302L334.926453,276.332336L334.869293,277.141083L334.466095,277.429199L332.334229,276.79425L332.161224,276.332336L328.876923,275.466431L327.955414,274.947357L327.840332,275.062469L327.78241,274.947357L327.840332,274.889435L327.264099,274.370361L327.091095,274.600525L327.033936,274.600525L326.91806,274.543396L326.860901,274.485443L327.091095,274.196564L326.91806,273.850525L326.976013,273.850525L327.149017,273.965607L327.149017,274.023529L327.206177,274.081482L327.667297,273.561615L327.609375,273.561615L327.494293,273.619568L327.437134,273.619568L327.379211,273.561615L327.437134,273.504456L327.552216,273.446533L327.78241,273.504456L329.62616,272.118713L329.914276,271.541718L330.317474,271.598846C330.855316,271.598846,331.316467,271.445404,331.700073,271.136932C332.122864,270.867615,332.487701,270.463654,332.794586,269.924988L335.732849,270.040863L334.926453,270.155945L334.869293,270.155945L334.753448,270.213898L333.485901,270.790894L332.334229,272.176636L333.485901,272.522705L333.543823,272.34967L333.543823,272.464752L333.601776,272.580627L335.099487,272.753662L337.173401,272.753662L337.691711,271.945679L337.749634,271.945679L337.922668,272.002838L338.03775,272.118713L337.634552,272.695709L339.247345,272.580627L338.095673,271.31076zM327.379211,264.498657L327.494293,264.498657L328.128448,264.55658L330.202393,264.84549L332.794586,264.383545L334.696289,263.632751L337.807556,262.766846L339.36322,262.478729L339.593384,262.478729L340.802979,264.614532L344.490479,263.51767L346.334259,263.113678L346.679504,263.113678L346.852539,263.055756L346.967621,263.113678L346.79538,263.690674L346.679504,263.863708L346.79538,263.863708L347.428741,264.094666L347.543854,263.979584L347.486694,264.152588L347.83194,264.383545L347.889893,264.383545L348.120056,265.018494L347.774811,265.537567L347.543854,265.59549L347.543854,265.768524L347.486694,265.768524L347.486694,265.711365L347.025543,265.999481L346.967621,266.057434L347.025543,266.057434L347.601776,265.942322L348.178009,266.172516L348.178009,266.288391L347.658936,266.461395L346.852539,266.519348L346.679504,266.461395L346.564423,266.750305L346.679504,266.750305L347.140656,266.923309L347.140656,267.038422C347.063904,267.192627,346.910461,267.269379,346.679504,267.269379L346.449341,267.269379L346.391388,267.385223L345.98819,268.366211C345.911469,268.482086,345.796387,268.540039,345.642944,268.540039L345.584991,268.540039C345.50827,268.540039,345.46991,268.520447,345.46991,268.482086L345.354828,267.96225L345.239746,267.674133L345.239746,267.789215C345.316467,268.635559,345.066711,269.347992,344.490479,269.924988L344.317474,270.098022L343.741241,270.098022L342.992798,270.213898L342.819763,270.040863L342.819763,269.982941C342.550446,269.636108,342.435364,269.193756,342.473724,268.655121L342.646729,267.96225L342.646729,267.904297L342.76181,267.731293L342.185608,268.828156L342.128448,268.886078L341.552216,268.828156L338.325867,268.713043L336.655121,267.904297L335.502686,267.789215L333.889893,267.96225L332.276306,268.366211L331.584991,268.193207L331.008789,268.366211L331.066711,268.078125L330.202393,268.078125C330.125641,268.462524,330.1828,268.713043,330.375397,268.828156L329.914276,269.29007L329.511078,269.521027L329.395966,269.405945L329.338043,268.366211L329.049927,268.366211C328.704681,268.366211,328.416565,268.269928,328.185608,268.078125L328.070526,267.847168L327.437134,267.500336L327.494293,267.443176L328.128448,267.154266L328.473724,266.923309L328.358612,266.923309L327.840332,266.750305L327.897491,266.63443L328.531647,266.403473L328.704681,266.403473C328.550446,265.980682,328.185608,265.557129,327.609375,265.133575C327.264099,264.902618,327.129456,264.710815,327.206177,264.55658L327.379211,264.498657zM335.790802,264.55658L335.560608,265.191528C335.560608,265.26825,335.637329,265.30661,335.790802,265.30661L338.325867,265.133575L338.498871,264.325623L338.729065,263.921631L338.786987,263.921631L338.786987,263.979584L338.729065,264.498657L338.613953,265.076447L338.844147,265.076447L339.247345,263.401794L339.247345,263.344635L339.190186,263.286713L336.251923,263.863708L335.790802,264.55658z"/>
</svg>
