<?xml version="1.0" encoding="UTF-8"?>
<svg xmlns="http://www.w3.org/2000/svg" xmlns:xlink="http://www.w3.org/1999/xlink" width="24.961mm" height="23.851mm" viewBox="-315.873199 261.694000 24.961090 23.850586">
    <path transform="matrix(-1,0,0,1,0,0)" style="stroke:none;fill:#000000;fill-rule:evenodd" d="M299.936707,263.908081C299.684601,264.92038,299.726868,265.953827,300.062744,267.008392L301.196411,270.044525C301.616028,271.056824,301.805511,271.62677,301.763214,271.752838L300.188782,270.107941C299.012848,268.674438,297.962982,267.704407,297.039154,267.197845C295.694885,266.438446,294.624634,266.122131,293.826874,266.248962C292.944519,266.418091,292.503754,267.13443,292.503754,268.399628L292.315063,271.120239L291.370087,272.891968C290.823608,273.650604,290.760986,274.388885,291.180634,275.106049C291.642548,275.865448,292.461456,276.286652,293.63739,276.371216C295.191467,276.540344,296.975739,276.265533,298.99173,275.549164L301.637177,274.726318C301.889282,274.895447,300.650696,276.054932,297.920715,278.205566C296.996857,278.922729,296.346252,279.661011,295.968109,280.420441C295.506195,281.474243,295.737152,282.297058,296.661011,282.88739C297.458771,283.393921,298.215088,283.583374,298.929077,283.456573C299.810638,283.330505,300.461243,283.330505,300.881653,283.456573C302.01532,284.047668,302.834259,284.48999,303.337646,284.785156L305.668365,284.975403C306.844299,284.342804,307.327362,283.140259,307.117554,281.369324C306.991486,280.019592,306.592224,278.712128,305.920471,277.44693C305.542328,276.687531,305.353638,276.097198,305.353638,275.675201L305.479706,275.169464L308.25119,278.142944C310.098877,280.631042,311.001556,283.097992,310.960083,285.544586L313.290802,284.532288L312.534515,282.254791C311.905029,280.567627,311.232513,279.323578,310.518524,278.521881L307.495697,275.802032L305.731812,274.536865L307.180176,274.47345C308.272339,274.599487,309.510895,275.274353,310.896667,276.498047C312.28241,277.805511,313.458344,278.205566,314.424438,277.699829C315.096191,277.362396,315.558105,276.750946,315.810211,275.865448C315.936249,275.401184,315.893982,274.768616,315.684143,273.966919L315.243378,271.943085L315.11734,269.475342C314.991272,268.420776,314.634277,267.725555,314.046295,267.388123L311.589539,267.13443C310.707977,267.388123,309.972809,267.89386,309.384857,268.65329C308.083649,270.171356,306.844299,271.099091,305.668365,271.436523C306.718262,269.623322,307.747009,268.231293,308.755402,267.261261C309.720734,266.333527,310.246063,265.468414,310.329834,264.66748C310.413605,263.908081,310.141144,263.275482,309.510895,262.769714L307.558319,262.45343L305.542328,262.642883L303.653168,261.820831L301.511139,261.694C300.713348,262.115997,300.188782,262.853485,299.936707,263.908081z"/>
</svg>
