<?xml version="1.0" encoding="UTF-8"?>
<svg xmlns="http://www.w3.org/2000/svg" xmlns:xlink="http://www.w3.org/1999/xlink" width="25.654mm" height="24.251mm" viewBox="-298.158997 32.010201 25.654419 24.251434">
    <path transform="matrix(-1,0,0,1,0,0)" style="stroke:none;fill:#000000;fill-rule:evenodd" d="M275.043579,33.880573L277.24823,36.820404L274.241882,38.824654L275.110107,40.227627L278.316925,38.15683L279.18515,39.292049L278.250366,42.699276L277.11438,41.630604L274.108002,44.370007L274.84314,47.509476L276.513092,47.509476L276.513092,50.916702L274.84314,50.916702L274.84314,49.513725L272.504578,49.513725L272.504578,56.261635L274.642731,56.261635L274.642731,52.988281L276.379211,52.988281L276.379211,56.261635L284.930939,56.261635L284.930939,51.517979L286.668213,51.517979L286.668213,56.261635L291.611511,56.261635L291.611511,51.918831L294.41748,51.918831L294.41748,56.261635L296.756012,56.261635L296.756012,49.781483L298.158997,49.781483L295.820435,47.643356L294.150482,49.112877L292.280121,48.110752L292.814056,45.037827L290.408966,42.8997L290.408966,40.895451L291.811951,40.895451L289.273743,37.488224L289.54071,34.01445L293.615753,35.150455L293.749634,33.880573L288.472046,32.010201L288.204285,36.0187L285.799194,32.811901L284.062683,35.150455L285.465668,36.486099L285.064819,38.690773L282.325409,41.697151L281.256744,42.031452L281.256744,45.438679L279.653351,43.969154L280.988983,38.95853L279.719879,37.221252L280.722015,36.553429L279.85376,35.150455L278.651215,35.884823L276.312653,32.878448L275.043579,33.880573zM278.116486,47.509476L279.85376,47.509476L279.85376,50.916702L278.116486,50.916702L278.116486,47.509476zM288.538605,42.699276L288.538605,48.578934L286.801331,48.578934L286.801331,42.699276L288.538605,42.699276M285.265259,42.699276L285.265259,48.578934L283.527954,48.578934L283.527954,42.699276L285.265259,42.699276z"/>
</svg>
