<?xml version="1.0" encoding="UTF-8"?>
<svg xmlns="http://www.w3.org/2000/svg" xmlns:xlink="http://www.w3.org/1999/xlink" width="24.840mm" height="24.043mm" viewBox="-280.981079 261.597900 24.840210 24.043182">
    <path transform="matrix(-1,0,0,1,0,0)" style="stroke:none;fill:#000000;fill-rule:evenodd" d="M260.406067,265.81076C259.623138,265.81076,258.970184,266.05423,258.447998,266.541199C257.85141,267.140137,257.553131,267.983337,257.553131,269.069214L257.38559,271.091492L256.770233,272.327698C256.061676,273.33844,255.949738,274.368744,256.434357,275.417053C256.993347,276.65329,258.112915,277.364929,259.79068,277.552063L262.084625,277.439331C260.965851,278.562805,260.424835,279.66748,260.462433,280.75415C260.499237,281.727325,260.984619,282.51413,261.91629,283.113068L264.154633,283.843536L265.105072,283.675201L265.888763,283.675201L267.063141,284.292908C268.219513,284.96701,269.151947,285.304443,269.860474,285.304443L271.203186,284.96701C272.620239,284.217743,273.291992,282.907166,273.216827,281.034454C273.702209,282.121124,273.944153,283.207031,273.944153,284.292908C273.944153,284.779877,274.149261,285.172913,274.559509,285.472748L275.286835,285.641083L275.846619,285.529114L277.86026,284.630341L278.531982,284.011841L278.643951,283.057495L277.020996,278.787476L277.58075,278.900238C278.438843,278.900238,279.165375,278.581573,279.762726,277.945068C280.284943,277.458099,280.657593,276.840393,280.8815,276.091156C281.067841,275.454651,280.993469,274.461914,280.657593,273.113739L280.378113,272.046631L280.378113,271.147858L280.097809,268.956482C279.874695,268.057709,279.389282,267.402405,278.643951,266.990601L276.741486,266.484833L275.902191,266.597565C276.088531,266.148193,276.144897,265.71759,276.070526,265.305786C276.032959,264.369415,275.622711,263.601379,274.839783,263.002441C274.242432,262.589844,273.571472,262.383942,272.825378,262.383942L271.539032,262.55307L270.699768,262.608643L270.587799,262.608643L269.860474,262.272003C269.039978,261.822601,268.331451,261.5979,267.734894,261.5979L266.280243,261.93457C265.42215,262.383942,264.788788,263.11441,264.37854,264.125916C264.042664,265.024719,263.949524,266.035431,264.098267,267.158936L263.594849,266.822266C262.401703,266.148193,261.338501,265.81076,260.406067,265.81076zM265.497314,265.136658C265.720459,264.163513,266.187073,263.488647,266.895599,263.11441L267.734894,262.946075L269.133148,263.395477L270.475861,263.956818L270.699768,263.956818L271.762939,263.901245L272.825378,263.732117L274.000519,264.06955C274.559509,264.518951,274.802216,265.080292,274.727844,265.755157C274.652679,266.466034,274.186859,267.252869,273.328766,268.114075C272.433899,268.938477,271.520264,270.17392,270.587799,271.82193C271.632202,271.522095,272.732208,270.679657,273.88855,269.293915C274.671478,268.319977,275.622711,267.833008,276.741486,267.833008L278.028595,268.170441C278.550018,268.470306,278.867096,269.088013,278.979034,270.024384L279.091003,272.214966L279.482452,274.068878C279.669556,274.780548,279.70636,275.323883,279.594421,275.69812L278.979034,276.87796C278.606384,277.327362,278.139771,277.552063,277.58075,277.552063C276.909027,277.552063,276.126129,277.140259,275.231262,276.315826C273.850983,275.042816,272.620239,274.406311,271.539032,274.406311L270.643402,274.574646C272.471497,275.773285,273.88855,276.952362,274.895386,278.113403C275.529541,278.825073,276.126129,279.929749,276.685883,281.428253L277.356842,283.4505L275.286835,284.292908C275.324402,282.121124,274.522705,279.948547,272.881744,277.776764C272.061249,276.65329,271.240753,275.773285,270.420258,275.135986C270.121979,275.435852,270.251953,276.091156,270.811707,277.102661C271.408295,278.263733,271.762939,279.424774,271.874115,280.585052C272.061249,282.158691,271.632202,283.2258,270.587799,283.78714L269.860474,283.956268L268.126343,283.337769L266.335815,282.438995L265.552917,282.327026L264.825592,282.438995L264.154633,282.495361L262.588013,281.933228C261.767548,281.409454,261.562408,280.697784,261.972656,279.799011C262.308533,279.087341,262.886322,278.413269,263.706818,277.776764C266.130707,275.904022,267.231476,274.873718,267.007568,274.686615L266.951202,274.686615L264.658051,275.417053C263.2034,275.94162,261.879486,276.203888,260.685547,276.203888L259.902649,276.203888C258.858246,276.091156,258.13092,275.716919,257.720673,275.080414C257.348022,274.443115,257.403595,273.769043,257.889008,273.057373L258.728271,271.484497L258.895813,269.12558C258.895813,267.814209,259.399231,267.158936,260.406067,267.158936C261.114594,267.158936,261.953857,267.439972,262.923889,268.002106C263.706818,268.451508,264.601685,269.275116,265.609283,270.473755L267.007568,272.046631L267.119507,272.046631C267.156311,271.933899,266.98877,271.428925,266.616089,270.530121L265.609283,267.889374C265.310211,266.915436,265.273407,265.997864,265.497314,265.136658z"/>
</svg>
