<?xml version="1.0" encoding="UTF-8"?>
<svg xmlns="http://www.w3.org/2000/svg" xmlns:xlink="http://www.w3.org/1999/xlink" width="25.654mm" height="25.654mm" viewBox="-246.552002 260.792999 25.654404 25.654419">
    <path transform="matrix(-1,0,0,1,0,0)" style="stroke:none;fill:#000000;fill-rule:evenodd" d="M223.87735,265.392609L223.748169,265.586761C221.848053,267.919037,220.897598,270.596619,220.897598,273.620209C220.897598,277.162079,222.150253,280.184906,224.654785,282.690216C227.160095,285.194763,230.182907,286.447418,233.724792,286.447418C237.266693,286.447418,240.289505,285.194763,242.794815,282.690216C245.299347,280.184906,246.552002,277.162079,246.552002,273.620209C246.552002,270.596619,245.601547,267.897919,243.701431,265.522552L243.57225,265.392609C242.362656,263.967712,240.915833,262.844238,239.231796,262.023743C237.503906,261.203247,235.667984,260.792999,233.724792,260.792999C231.781616,260.792999,229.945694,261.203247,228.217804,262.023743C226.533768,262.844238,225.086945,263.967712,223.87735,265.392609zM241.304153,267.530731L241.4991,267.335785L241.628281,267.335785L241.75824,267.271576L241.887421,267.271576L242.01738,267.206604L242.340729,266.947449L242.081589,266.947449L242.211548,266.947449C242.340729,266.947449,242.448761,266.904388,242.535675,266.818268L242.794815,267.271576L242.794815,269.279755L242.340729,269.214752L242.01738,269.14978L242.211548,269.14978L242.470688,269.085571L242.599869,268.955627L242.01738,268.890656L241.822433,269.020599L241.563293,269.020599L240.980804,269.279755L240.656693,269.279755L240.462524,269.344727L240.009216,269.279755L239.166809,269.279755L238.77771,269.214752L238.454361,269.344727L237.676926,269.279755L237.222839,269.279755L237.611954,269.214752L238.648529,268.826447L238.842682,268.696472L239.101822,268.6315L240.267578,267.984039L240.915833,267.59491L241.304153,267.530731zM229.190186,268.761475L229.254379,268.761475L231.004181,269.408936L229.254379,269.538879L229.125198,269.473907L228.93103,269.538879L228.801071,269.66806L228.736099,269.603882L228.736099,269.473907L227.958664,269.344727L226.598755,269.408936L226.533768,269.408936L226.533768,269.473907L226.468781,269.473907L226.468781,269.14978L226.274628,269.085571L226.274628,269.214752L225.9505,269.085571L225.43222,268.955627L224.849731,269.214752L224.849731,269.344727L224.590576,269.408936L224.590576,267.271576L224.913925,266.818268L225.627151,267.077423L225.043884,266.947449L225.043884,267.141632L226.145447,267.465759L226.08046,267.530731L226.274628,267.659912L226.404587,267.465759L227.635315,268.11322L227.764496,268.243164L228.15361,268.502319L228.541931,268.6315L228.736099,268.6315L228.736099,268.437347L228.801071,268.502319L229.190186,268.761475zM223.748169,278.543915C222.970734,276.989075,222.581635,275.348083,222.581635,273.620209C222.581635,271.892334,222.970734,270.251343,223.748169,268.696472L223.748169,278.543915zM244.867966,273.620209C244.867966,275.30423,244.478851,276.967133,243.701431,278.608917L243.701431,268.6315C244.478851,270.273254,244.867966,271.936157,244.867966,273.620209zM241.23996,266.429169L241.109985,266.494141L240.656693,266.947449L240.462524,267.077423L239.944244,267.271576L238.907669,267.465759L238.842682,267.530731L238.259415,267.854065L237.806107,268.11322L237.611954,268.11322L237.352814,268.243164L236.510391,268.502319L235.538803,268.6315L235.020508,268.826447L234.631409,268.761475L234.372269,268.372345L234.372269,268.243164L234.502228,267.854065L234.567215,267.854065L234.761368,267.530731L234.761368,267.206604L234.631409,267.206604C234.675247,266.731384,234.524155,266.407257,234.178101,266.235016L241.4991,266.235016L241.23996,266.429169zM229.319366,268.11322L228.93103,268.11322L228.995239,267.984039L228.995239,267.919037L228.93103,267.789856L228.023651,267.465759C227.376175,267.292725,226.987076,267.120483,226.857895,266.947449L226.792908,266.947449L226.727936,267.077423L226.663727,267.077423L226.857895,266.818268L226.792908,266.688324L226.598755,266.753296L226.3396,266.494141L225.886307,266.235016L233.2715,266.235016L233.012344,266.364197L232.818192,267.271576L232.688232,267.271576L232.688232,267.530731L232.818192,267.724884L232.882385,267.854065L233.012344,268.243164L233.141525,268.437347L232.818192,268.955627C232.559052,268.610352,232.212997,268.437347,231.781616,268.437347L231.263336,268.567291L229.449326,268.243164L229.384338,268.178192L229.384338,268.11322L229.319366,268.11322zM226.209641,265.392609C228.325851,263.449402,230.831161,262.477051,233.724792,262.477051C236.618439,262.477051,239.123749,263.449402,241.23996,265.392609L226.209641,265.392609zM241.434113,270.05719L241.952408,269.927216L242.276535,269.927216L242.664856,269.798035L242.405716,269.733063L242.794815,269.733063L242.794815,280.033813C241.196899,282.409149,238.972641,283.899048,236.12207,284.504211L234.955536,284.504211L234.955536,284.374268L235.020508,283.985931L234.890549,283.855957L234.890549,283.402679L235.408844,282.431091L235.473816,282.041962L235.538803,281.847809L235.60379,280.357941L235.408844,279.904633L235.408844,279.062225L235.344635,278.608917L235.344635,278.349762L235.538803,277.572327L235.732971,277.960663L235.992111,278.28479L235.992111,278.349762L236.12207,278.413971L236.186264,278.543915L236.769531,279.191406L237.093658,279.774658L237.222839,280.098785L237.936066,281.264526L238.259415,281.717834L238.454361,282.236145L238.583542,282.690216L238.648529,283.208496L238.713501,283.272705L238.713501,283.337677L239.29599,283.143524L239.944244,282.690216L239.944244,282.625244L239.879257,282.625244L239.55513,282.560242L239.29599,282.431091L239.101822,282.041962L238.518555,279.83963L237.676926,278.608917L237.287827,278.28479L237.287827,278.154816L236.899506,277.76651L236.769531,277.37738L236.769531,277.248199L236.510391,276.470764L236.38121,276.081665L236.316238,275.693359L236.057083,275.30423L235.60379,274.526825L235.344635,273.491028L235.344635,272.972748L235.149689,272.518646L235.408844,271.741211L235.538803,271.417877L235.538803,271.09375L235.797943,270.769623L235.797943,270.510498C235.884064,270.337463,235.992111,270.251343,236.12207,270.251343L236.316238,270.316315L236.963699,270.316315L237.352814,270.186371L237.676926,270.251343L238.324402,270.186371L238.583542,270.251343L238.842682,270.251343L239.29599,270.316315L239.879257,270.186371L240.203384,270.122162L240.397537,270.05719L240.785873,270.05719L241.045013,269.927216C241.088852,270.01413,241.218033,270.05719,241.434113,270.05719zM231.522476,270.251343L231.84581,270.381287L232.10495,271.806213L232.234924,272.065338L232.429077,273.361053L232.623245,273.296082L232.559052,273.879333L232.429077,274.138489L232.429077,274.656769L232.364105,274.656769L232.364105,274.591797L232.299896,274.656769L232.040756,275.045105L231.58667,276.211639L231.06839,277.76651L231.198349,278.025635L231.06839,278.349762L230.745041,278.673096L230.550095,278.608917L230.226761,279.580505L229.578506,281.070374L229.060211,282.106964L229.190186,282.106964L229.190186,282.236145L229.060211,282.106964L228.606918,282.49527L227.89447,282.49527L227.182022,282.106964L227.052048,282.301117L227.246216,282.560242L228.023651,283.01355L228.541931,283.01355L228.93103,283.208496L229.190186,283.596832L229.384338,283.467651L229.254379,282.884369L229.513519,282.431091L229.449326,282.366089L229.578506,282.236145L229.643494,282.236145L230.420914,281.199554L230.745041,280.876221C231.133362,280.444061,231.306396,280.119934,231.263336,279.904633L231.133362,279.709686L231.32753,279.32135L231.716629,278.997223L231.781616,278.997223L231.781616,279.127197L231.84581,279.127197L232.429077,277.831482L232.494064,278.738098L232.559052,278.80307L232.688232,278.738098L232.688232,278.997223L232.494064,279.386353L232.623245,279.83963L232.494064,279.774658L232.559052,279.904633L232.882385,282.236145L232.882385,283.078552L232.947372,283.078552L232.882385,283.208496L232.623245,283.596832L232.040756,283.790985L231.32753,283.920959L231.32753,284.180084L231.84581,284.374268L232.429077,284.43924L232.882385,284.245087L233.2715,284.43924L233.465652,284.43924L233.465652,284.374268L233.400681,283.985931L233.400681,283.337677L233.336472,283.272705L233.595612,282.431091L233.595612,282.366089C233.853973,281.286469,233.853973,280.617065,233.595612,280.357941L233.400681,280.292938L233.400681,279.774658L233.53064,279.386353L233.595612,279.127197L233.659821,279.127197L233.659821,279.062225L233.724792,277.701508L233.853973,276.8591L233.983948,277.313202L234.178101,278.025635L234.113129,278.543915L234.178101,278.932251L234.178101,279.127197L234.30806,279.32135L234.30806,279.515503L234.372269,279.709686L234.437241,279.83963L234.567215,280.357941L234.437241,280.746246L234.372269,281.523682L234.437241,281.847809L234.372269,282.041962L234.372269,282.106964L234.243088,283.208496L234.04892,283.53186L234.04892,283.790985L233.918961,283.985931L233.595612,284.245087L233.53064,284.43924L233.53064,284.504211L231.32753,284.504211C228.476944,283.899048,226.209641,282.387238,224.525604,279.968811L224.590576,269.863007L225.497192,269.798035L225.497192,269.863007L224.849731,269.927216L224.913925,270.05719L226.209641,270.05719L226.209641,270.186371L226.468781,270.186371L226.468781,269.992188L227.635315,270.05719L227.764496,270.186371L228.217804,270.251343L228.736099,270.122162L228.736099,269.992188L228.801071,269.992188L229.125198,270.186371L229.254379,270.122162L229.319366,270.122162L231.522476,270.251343z"/>
</svg>
