<?xml version="1.0" encoding="UTF-8"?>
<svg xmlns="http://www.w3.org/2000/svg" xmlns:xlink="http://www.w3.org/1999/xlink" width="25.654mm" height="25.654mm" viewBox="-211.716995 260.792999 25.654404 25.654419">
    <path transform="matrix(-1,0,0,1,0,0)" style="stroke:none;fill:#000000;fill-rule:evenodd" d="M198.889786,260.792999C195.345551,260.792999,192.32196,262.044861,189.818207,264.548615C187.314468,267.052368,186.062592,270.075958,186.062592,273.620209C186.062592,277.164429,187.314468,280.188049,189.818207,282.691772C192.32196,285.195526,195.345551,286.447418,198.889786,286.447418C202.434021,286.447418,205.457626,285.195526,207.96138,282.691772C210.465118,280.188049,211.716995,277.164429,211.716995,273.620209C211.716995,270.075958,210.465118,267.052368,207.96138,264.548615C205.457626,262.044861,202.434021,260.792999,198.889786,260.792999zM192.014267,265.473236L191.551575,265.704193L190.280914,267.033569L190.165039,267.322479L189.934082,267.495483L189.124542,268.939972L189.067398,269.228851L189.067398,279.398071C187.988541,277.587982,187.449127,275.662048,187.449127,273.620209C187.449127,270.461945,188.56633,267.764801,190.800766,265.531158C193.034409,263.296753,195.731537,262.179535,198.889786,262.179535C202.04805,262.179535,204.745178,263.296753,206.978821,265.531158C209.213242,267.764801,210.33046,270.461945,210.33046,273.620209C210.33046,276.008087,209.618011,278.223724,208.192337,280.264771L208.192337,269.170929L208.134399,268.824097L207.325653,267.495483L206.978821,267.033569L206.978821,266.975647L206.805801,266.801849L205.70816,265.704193L205.245453,265.473236L192.014267,265.473236M196.578644,272.17572L196.694504,272.348755L196.751663,273.331299L196.867538,273.562256L196.751663,274.024963L196.751663,274.082123L196.058792,275.642456L195.654022,276.91391L195.596085,276.971832L195.538147,277.202789L195.538147,277.317902L195.134171,277.780579L194.325424,279.860779L193.920654,280.669525L193.804794,280.727478L193.63176,280.727478L193.111908,280.495728L192.880951,280.438568L192.823013,280.438568L192.765091,280.380646C192.534119,280.380646,192.341522,280.495728,192.187302,280.727478L192.071426,280.84256C191.917969,281.11264,191.936768,281.381989,192.129364,281.651306L192.303162,281.883026L192.534119,282.113983L193.284943,282.517975L193.804794,282.575928L193.862732,282.575928L194.03653,282.806885L194.614319,283.095764L194.903214,283.038605L195.134171,282.922729C195.403488,282.768494,195.519363,282.517975,195.481003,282.171936L195.365128,281.883026L195.538147,281.594147L195.538147,281.536224L195.596085,281.536224L196.231812,280.727478L196.462769,280.438568L197.040558,279.744904L197.156433,281.189392L197.214371,281.825104L196.347687,282.056061L195.827835,282.575928L195.827835,282.864807L196.11673,283.442596L196.636581,283.905304L198.658829,284.078308L200.681091,283.905304L201.085068,283.616394L201.200943,283.153717C201.162582,282.730133,200.931625,282.517975,200.507278,282.517975L200.450134,282.517975L200.392197,282.402893L200.739029,281.536224L200.912048,281.073517L200.969986,279.398071L200.854111,279.051239L200.854111,278.99411L201.027924,279.28299L201.085068,279.513947L201.316818,279.975861L201.373962,280.033813L202.183502,281.305237L202.183502,281.362396L202.298584,281.883026L202.356522,281.998138L202.414459,282.344971L202.587479,282.691772L202.645416,282.691772L202.992249,282.864807L203.165268,282.864807L203.858917,282.63385L203.916855,282.63385L204.378769,282.344971L204.667664,282.056061L204.841476,281.651306L204.841476,281.536224L204.494644,280.900482L204.147812,280.784607L204.031952,280.727478L204.031952,280.55365L203.858917,279.744904L203.5121,278.820282L202.819214,277.780579L202.472382,277.375824L202.472382,277.317902L202.414459,277.202789L202.125565,276.798035L202.067627,276.740112L202.067627,276.682159L201.778732,275.758331L201.662857,275.526581L201.662857,275.411499L201.605713,275.237701L201.373962,274.717834L201.316818,274.602753L201.027924,274.197998L200.969986,274.082123L200.796173,273.331299L200.681091,272.580505L200.796173,272.002716L200.854111,271.944763L200.912048,271.770966L200.912048,271.482086L201.085068,271.251129L201.605713,271.251129L202.645416,271.136017L202.934311,271.251129L202.992249,271.251129L203.165268,271.193176L203.281128,271.251129L203.62796,271.251129L204.20575,271.136017L204.320847,271.136017L204.378769,271.078094L204.552582,271.078094L204.667664,271.020142L205.014496,271.020142L205.130371,270.962219L205.419266,271.020142L205.534348,271.020142L205.88118,270.904297L206.054199,270.904297L206.054199,282.517975C203.935654,284.212982,201.547775,285.060883,198.889786,285.060883C195.962494,285.060883,193.381241,284.039948,191.147598,281.998138L191.204742,271.020142L191.551575,271.020142L191.956329,271.136017L192.187302,271.136017L192.592056,271.020142L193.111908,271.078094L193.63176,271.251129L193.747635,271.251129C193.862732,271.251129,194.03653,271.193176,194.267487,271.078094L194.498444,271.136017L194.845276,271.078094L196.347687,271.193176L196.578644,272.17572zM194.614319,269.170929L194.556381,269.170929L194.267487,268.882019L194.151611,268.882019L194.151611,269.055847L193.978592,269.055847L193.63176,268.997894L193.342865,268.709015L192.129364,268.01535L192.014267,268.189148L191.840469,268.131226L191.898407,268.01535L190.858704,267.668518L190.858704,267.553436L191.436493,267.668518L191.436493,267.611359L190.858704,267.437561L192.014267,266.166901L205.245453,266.166901L206.28595,267.264526L206.228012,267.264526L206.112137,267.322479L205.939117,267.437561L206.343094,267.322479L206.458969,267.495483L206.228012,267.495483L206.112137,267.611359L206.343094,267.611359L206.054199,267.784393L205.939117,267.842316L205.765305,267.842316L205.70816,267.957397L205.592285,267.957397L205.361328,268.073273L205.187515,268.131226L205.072433,268.131226L204.494644,268.478058L203.454163,269.055847L203.165268,269.055847L202.992249,269.170929L202.587479,269.344727L202.125565,269.575684L202.703354,269.690765L202.819214,269.690765L203.165268,269.575684L203.339066,269.575684L203.454163,269.690765L204.20575,269.633636L204.609741,269.690765L204.841476,269.690765L205.014496,269.633636L205.130371,269.690765L205.592285,269.401886L205.70816,269.401886L206.054199,269.286804L206.401031,269.344727L206.574844,269.344727L206.401031,269.517761L206.112137,269.517761L206.28595,269.575684L206.747864,269.575684L206.747864,267.842316L207.498672,269.170929L207.498672,281.131439L206.747864,281.883026L206.747864,270.037598L206.401031,270.037598L206.631989,270.095551L206.458969,270.211426L205.765305,270.211426L205.534348,270.326508L205.419266,270.326508C205.303391,270.326508,205.226669,270.288147,205.187515,270.211426L205.072433,270.268555L204.898636,270.326508L204.609741,270.326508L204.147812,270.442383L203.62796,270.558228L203.165268,270.500305L202.992249,270.558228L202.934311,270.558228L202.761292,270.442383L202.703354,270.442383L202.241425,270.500305L202.125565,270.500305L201.894608,270.442383L201.547775,270.558228L200.739029,270.558228L200.507278,270.731262L200.507278,270.962219L200.276321,271.251129L200.16124,271.828918L199.872345,272.522552L200.045364,273.389252L200.218384,273.851166L200.334259,274.313873L200.739029,275.006744L200.912048,275.411499L201.143005,276.047211L201.373962,276.682159L201.373962,276.855957L201.4319,276.971832L201.489838,277.202789L201.778732,277.549622L201.83667,277.664734L202.125565,278.011536L202.934311,279.051239L203.454163,281.016357L203.62796,281.362396L203.800995,281.478271L203.916855,281.478271L204.147812,281.536224L204.147812,281.651306L203.62796,281.998138L203.165268,282.171936L203.108109,282.171936L203.050171,282.056061L202.992249,281.594147L202.819214,281.189392L202.414459,280.322693L201.951752,279.629028L201.778732,279.28299L201.662857,278.99411L201.373962,278.531403L201.085068,278.18457L200.854111,277.895691L200.681091,277.722656L200.681091,277.664734L200.392197,277.375824L200.276321,277.028992L200.103302,277.722656L200.045364,278.011536L200.16124,278.76236L200.16124,279.109192L200.334259,279.571899C200.450134,280.033813,200.430557,280.457367,200.276321,280.84256L200.103302,281.362396L199.814407,281.998138L199.698532,282.229095L199.698532,282.63385L199.814407,282.749725L199.698532,283.095764L199.75647,283.153717L199.698532,283.211639L199.409637,283.327515L198.658829,283.385437C198.196136,283.385437,198.138977,283.327515,198.485031,283.211639L198.542969,282.980682L198.716766,282.864807L198.773926,282.749725L198.947723,282.575928L198.947723,282.344971L199.120758,281.998138L199.17868,281.594147L199.236618,281.131439L199.236618,281.016357L199.294556,280.84256L199.17868,280.55365L199.351715,279.571899L199.294556,279.28299L199.294556,279.051239L199.17868,278.936157L199.17868,278.589325L199.06282,278.416321L199.005661,278.242493L199.005661,277.491699L198.889786,276.798035L198.773926,276.451202L198.658829,277.144867L198.600891,278.358368L198.600891,278.416321L198.542969,278.416321L198.485031,278.7052L198.312012,278.99411L198.369934,279.456024L198.542969,279.571899C198.773926,279.764496,198.755127,280.342285,198.485031,281.305237L198.485031,281.362396L198.369934,281.998138L198.369934,282.056061L198.312012,281.998138L198.312012,282.113983L198.369934,282.171936L198.312012,282.749725L198.427872,283.095764L198.427872,283.211639L198.254074,283.211639L197.907242,283.038605L197.445328,283.153717L196.983398,283.095764L196.520706,282.922729L196.520706,282.691772L197.618347,282.402893L197.850082,282.056061L197.907242,282.056061L197.965179,281.940186L197.907242,281.940186L197.907242,281.883026L197.618347,279.109192L197.561188,278.99411L197.618347,279.051239L197.561188,278.7052L197.734222,278.358368L197.734222,278.069489L197.618347,278.127411L197.618347,278.18457L197.561188,278.069489L197.503265,277.317902L196.983398,278.416321L196.925476,278.416321L196.867538,278.242493L196.520706,278.589325L196.347687,278.936157L196.462769,279.109192C196.501923,279.340149,196.347687,279.629028,196.000854,279.975861L195.71196,280.264771L195.018295,281.189392L194.960358,281.189392L194.960358,281.131439L194.845276,281.305237L194.903214,281.362396L194.671478,281.767181L194.787338,282.287018L194.614319,282.402893L194.325424,282.056061L193.978592,281.883026L193.573822,281.883026L192.880951,281.478271L192.707153,281.247314L192.765091,281.073517L192.823013,281.131439L193.400803,281.420349L194.093689,281.420349L194.498444,281.131439L194.614319,281.189392L194.614319,281.131439L194.498444,281.073517L194.960358,280.149689L195.481003,278.820282L195.827835,278.011536L196.000854,278.011536L196.231812,277.722656L196.347687,277.433746L196.231812,277.202789L196.694504,275.815491L197.156433,274.775787L197.38739,274.428955L197.38739,274.371002L197.445328,274.428955L197.445328,274.024963L197.618347,273.736084L197.618347,273.215424L197.445328,273.215424L197.329453,272.117798L197.214371,271.828918L196.983398,270.615387L196.925476,270.615387L196.694504,270.500305L194.671478,270.38443L194.498444,270.442383L194.267487,270.268555L194.151611,270.268555L194.209549,270.326508L194.209549,270.38443L194.151611,270.38443L194.03653,270.442383C193.920654,270.519104,193.824356,270.558228,193.747635,270.558228L193.169846,270.38443L192.187302,270.268555L192.187302,270.442383L191.956329,270.442383L191.956329,270.326508L190.800766,270.38443L190.742828,270.211426L191.320618,270.095551L190.511871,270.095551L190.453934,281.305237L189.760269,280.438568L189.760269,269.228851L190.511871,267.900269L190.511871,269.748718L190.742828,269.690765L190.742828,269.575684L191.26268,269.344727L192.014267,269.575684L192.014267,269.517761L192.187302,269.517761L192.187302,269.864594L192.245224,269.864594L192.245224,269.748718L193.45874,269.690765L194.209549,269.748718L194.267487,269.806641L194.151611,269.922516L194.267487,269.922516L194.325424,269.864594L194.498444,269.864594L196.231812,269.748718L194.614319,269.170929zM201.83667,269.633636L202.067627,269.575684L201.778732,269.633636L201.83667,269.633636zM204.841476,267.611359L205.245453,267.148651L205.592285,266.917694L199.06282,266.917694C199.332916,267.07193,199.467575,267.36084,199.467575,267.784393L199.525513,267.784393L199.58345,268.131226L199.351715,268.362183L199.17868,268.651062L199.17868,268.824097L199.467575,269.170929L199.75647,269.228851L200.276321,269.055847L200.739029,268.882019L201.143005,268.997894L201.894608,268.709015L202.125565,268.651062L202.298584,268.651062L202.703354,268.362183L203.165268,268.131226L203.281128,268.01535L204.20575,267.842316L204.494644,267.72644L204.609741,267.668518L204.841476,267.611359zM201.662857,268.01535L201.027924,268.246307L200.739029,268.189148L200.218384,268.30423L200.218384,267.611359L202.587479,267.611359L202.298584,267.784393L202.125565,267.957397L202.067627,267.957397L201.720795,268.01535L201.662857,268.01535zM194.556381,268.535187L194.614319,268.535187L194.729401,268.651062L194.787338,268.651062L194.845276,268.709015L196.462769,268.997894L196.925476,268.882019C197.272293,268.882019,197.579987,269.036255,197.850082,269.344727L198.138977,268.824097L197.965179,268.709015L197.907242,268.362183L197.792145,268.30423L197.734222,267.842316L197.792145,267.842316L198.023117,267.090729L198.254074,266.917694L191.66745,266.917694L192.071426,267.148651L192.303162,267.379639L192.418259,267.322479L192.534119,267.437561L192.360321,267.668518L192.418259,267.668518L192.476196,267.553436L192.534119,267.611359C192.649216,267.72644,192.996048,267.861115,193.573822,268.01535C194.151611,268.131226,194.440506,268.285461,194.440506,268.478058L194.325424,268.59314L194.440506,268.651062L194.556381,268.535187zM195.192108,268.073273L195.018295,267.957397L194.960358,267.957397L194.556381,267.611359L197.098495,267.611359L197.040558,267.72644L197.098495,268.189148L196.925476,268.189148L196.405624,268.30423L195.192108,268.073273z"/>
</svg>
