<?xml version="1.0" encoding="UTF-8"?>
<svg xmlns="http://www.w3.org/2000/svg" xmlns:xlink="http://www.w3.org/1999/xlink" width="25.654mm" height="26.253mm" viewBox="-176.880997 260.493561 25.654404 26.252563">
    <path transform="matrix(-1,0,0,1,0,0)" style="stroke:none;fill:#000000;fill-rule:evenodd" d="M151.226593,260.493561L151.226593,286.746124L176.880997,286.746124L176.880997,275.87384L171.164963,271.564697L171.164963,275.807312L165.516266,271.564697L165.516266,275.807312L160.132202,271.697021L160.132202,260.493561L156.609879,260.493561L156.609879,274.680695L154.748901,274.680695L154.748901,260.493561L151.226593,260.493561zM161.594666,281.840393L165.050446,281.840393L165.050446,283.497833L161.594666,283.497833L161.594666,281.840393zM171.032654,279.055603L174.488419,279.055603L174.488419,280.713013L171.032654,280.713013L171.032654,279.055603zM161.594666,279.055603L165.050446,279.055603L165.050446,280.713013L161.594666,280.713013L161.594666,279.055603zM166.313278,279.055603L169.769821,279.055603L169.769821,280.713013L166.313278,280.713013L166.313278,279.055603zM171.032654,283.497833L171.032654,281.840393L174.488419,281.840393L174.488419,283.497833L171.032654,283.497833zM169.769821,283.497833L166.313278,283.497833L166.313278,281.840393L169.769821,281.840393L169.769821,283.497833"/>
</svg>
