<?xml version="1.0" encoding="UTF-8"?>
<svg xmlns="http://www.w3.org/2000/svg" xmlns:xlink="http://www.w3.org/1999/xlink" width="25.654mm" height="26.231mm" viewBox="-558.815979 298.184509 25.654419 26.230652">
    <path transform="matrix(-1,0,0,1,0,0)" style="stroke:none;fill:#000000;fill-rule:evenodd" d="M538.540955,298.420959L537.71344,298.184509L534.5802,298.184509C534.186401,298.184509,533.851318,298.322327,533.575745,298.5979L533.16156,299.602386L533.16156,322.997314L533.575745,324.00177C533.851318,324.277374,534.186401,324.415161,534.5802,324.415161L557.397339,324.415161C557.752014,324.415161,558.067505,324.277374,558.343079,324.00177C558.65863,323.726196,558.815979,323.391113,558.815979,322.997314L558.815979,313.308777C558.815979,312.835907,558.618713,312.46167,558.224854,312.186096L553.141418,308.345917L552.313904,308.050751L551.66333,308.168976C551.151306,308.404633,550.895264,308.838379,550.895264,309.468597L550.895264,310.354858L548.176208,308.345917L547.289185,308.050751L546.639404,308.168976C546.126587,308.404633,545.870544,308.838379,545.870544,309.468597L545.870544,310.354858L543.86084,308.877502L543.86084,299.602386C543.86084,299.208557,543.723022,298.873474,543.446655,298.5979C543.171082,298.322327,542.835999,298.184509,542.4422,298.184509L539.368469,298.184509L538.540955,298.420959M534.5802,299.602386L537.71344,299.602386L537.71344,312.244812L539.368469,312.244812L539.368469,299.602386L542.4422,299.602386L542.4422,309.586823L547.289185,313.249298L547.289185,309.468597L552.313904,313.249298L552.313904,309.468597L557.397339,313.308777L557.397339,322.997314L534.5802,322.997314L534.5802,299.602386z"/>
</svg>
