<?xml version="1.0" encoding="UTF-8"?>
<svg xmlns="http://www.w3.org/2000/svg" xmlns:xlink="http://www.w3.org/1999/xlink" width="25.628mm" height="28.861mm" viewBox="-524.173706 296.868988 25.627808 28.861206">
    <path transform="matrix(-1,0,0,1,0,0)" style="stroke:none;fill:#000000;fill-rule:evenodd" d="M511.359802,296.868988C508.870148,296.868988,506.698364,297.670685,504.842865,299.274078C502.939606,300.828949,501.767578,302.820679,501.328369,305.250031L521.391235,305.250031C520.952026,302.820679,519.780029,300.828949,517.87677,299.274078C516.02124,297.670685,513.849487,296.868988,511.359802,296.868988z"/>
    <path transform="matrix(-1,0,0,1,0,0)" style="stroke:none;fill:#000000;fill-rule:evenodd" d="M524.173706,325.730194L524.173706,322.085754L521.537659,322.085754L521.537659,306.853455L501.181976,306.853455L501.181976,322.085754L498.545898,322.085754L498.545898,325.730194L524.173706,325.730194zM503.525238,313.486267C505.282074,315.623596,507.503204,316.838684,510.188568,317.129913L510.188568,322.085754L503.525238,322.085754L503.525238,313.486267zM519.194397,322.085754L512.531067,322.085754L512.531067,317.129913C515.216431,316.838684,517.437561,315.623596,519.194397,313.486267L519.194397,322.085754z"/>
</svg>
