<?xml version="1.0" encoding="UTF-8"?>
<svg xmlns="http://www.w3.org/2000/svg" xmlns:xlink="http://www.w3.org/1999/xlink" width="25.651mm" height="28.460mm" viewBox="-489.555450 297.069000 25.651276 28.460358">
    <path transform="matrix(-1,0,0,1,0,0)" style="stroke:none;fill:#000000;fill-rule:evenodd" d="M469.962341,299.504639C468.028534,301.128387,466.825989,303.179626,466.353119,305.658325L466.4823,306.491333L466.223938,307.325134L466.223938,319.247284L465.450409,319.247284C465.021362,319.247284,464.655762,319.39682,464.355133,319.695892C464.054474,320.038025,463.904175,320.401306,463.904175,320.785706L463.904175,323.990936C463.904175,324.418396,464.054474,324.781677,464.355133,325.08075C464.655762,325.379822,465.021362,325.529358,465.450409,325.529358L488.009186,325.529358L489.040283,325.08075C489.383972,324.781677,489.55545,324.418396,489.55545,323.990936L489.55545,320.785706C489.55545,320.401306,489.383972,320.038025,489.040283,319.695892C488.739655,319.39682,488.395966,319.247284,488.009186,319.247284L487.235687,319.247284L487.235687,307.325134L486.977325,306.491333L487.042297,305.658325C486.612488,303.179626,485.409149,301.128387,483.433075,299.504639C481.499298,297.88089,479.264862,297.069,476.729797,297.069C474.194733,297.069,471.939178,297.88089,469.962341,299.504639zM467.964325,305.658325C468.394165,303.650146,469.425262,301.983337,471.058411,300.65863C472.690765,299.290894,474.581482,298.607422,476.729797,298.607422C478.878113,298.607422,480.768829,299.290894,482.401215,300.65863C483.991302,301.983337,485.0224,303.650146,485.49527,305.658325L485.68866,307.453522L485.68866,320.785706L488.009186,320.785706L488.009186,323.990936L465.450409,323.990936L465.450409,320.785706L467.770966,320.785706L467.770966,307.453522L467.964325,305.658325zM469.83316,313.222015L469.83316,320.785706L475.6987,320.785706L475.6987,316.363037C473.335114,316.107025,471.380188,315.059509,469.83316,313.222015zM471.380188,316.555634L474.151672,317.645447L474.151672,319.247284L471.380188,319.247284L471.380188,316.555634zM483.626465,320.785706L483.626465,313.222015C482.079437,315.059509,480.124512,316.107025,477.760895,316.363037L477.760895,320.785706L483.626465,320.785706zM479.307922,317.645447L482.079437,316.555634L482.079437,319.247284L479.307922,319.247284L479.307922,317.645447z"/>
</svg>
