<?xml version="1.0" encoding="UTF-8"?>
<svg xmlns="http://www.w3.org/2000/svg" xmlns:xlink="http://www.w3.org/1999/xlink" width="25.654mm" height="25.654mm" viewBox="-420.299011 298.471985 25.654419 25.654419">
    <path transform="matrix(-1,0,0,1,0,0)" style="stroke:none;fill:#000000;fill-rule:evenodd" d="M407.471802,298.471985C403.927582,298.471985,400.903961,299.723846,398.400238,302.2276C395.896484,304.731354,394.644592,307.754944,394.644592,311.299194C394.644592,314.804291,395.896484,317.828674,398.400238,320.370758C400.903961,322.874512,403.927582,324.126404,407.471802,324.126404C411.016052,324.126404,414.039642,322.874512,416.543396,320.370758C419.04715,317.828674,420.299011,314.804291,420.299011,311.299194C420.299011,307.754944,419.04715,304.731354,416.543396,302.2276C414.039642,299.723846,411.016052,298.471985,407.471802,298.471985zM399.382782,303.210144C401.616425,300.975739,404.313538,299.858521,407.471802,299.858521C410.630066,299.858521,413.327209,300.975739,415.560852,303.210144C417.795258,305.443787,418.912476,308.14093,418.912476,311.299194C418.912476,314.457458,417.795258,317.13501,415.560852,319.330292C413.327209,321.603058,410.630066,322.739868,407.471802,322.739868C404.313538,322.739868,401.616425,321.603058,399.382782,319.330292C397.148346,317.13501,396.031128,314.457458,396.031128,311.299194C396.031128,308.14093,397.148346,305.443787,399.382782,303.210144zM403.542389,307.312622L398.16925,307.312622L398.16925,315.170685L403.542389,315.170685L403.542389,320.543793L411.401245,320.543793L411.401245,315.170685L416.774353,315.170685L416.774353,307.312622L411.401245,307.312622L411.401245,301.938721L403.542389,301.938721L403.542389,307.312622zM404.929688,308.699158L404.929688,303.325256L410.013916,303.325256L410.013916,308.699158L415.387817,308.699158L415.387817,313.783356L410.013916,313.783356L410.013916,319.157257L404.929688,319.157257L404.929688,313.783356L399.555786,313.783356L399.555786,308.699158L404.929688,308.699158z"/>
</svg>
