<?xml version="1.0" encoding="UTF-8"?>
<svg xmlns="http://www.w3.org/2000/svg" xmlns:xlink="http://www.w3.org/1999/xlink" width="25.399mm" height="24.251mm" viewBox="-262.972687 32.010201 25.398712 24.251434">
    <path transform="matrix(-1,0,0,1,0,0)" style="stroke:none;fill:#000000;fill-rule:evenodd" d="M241.454865,33.131329L240.278931,34.016018L239.749695,34.960205C239.671402,35.354012,239.769257,35.707886,240.043274,36.022617L241.101776,37.379398L239.690979,38.323589L239.102997,39.209061L239.27916,40.270687L240.102005,41.510033L240.808182,42.040848L239.396591,43.339699C239.004364,43.732719,238.886917,44.185242,239.043503,44.69648L239.63147,47.469551L239.63147,47.529049L238.984787,47.529049C238.593323,47.529049,238.259811,47.666058,237.985794,47.941643C237.710999,48.217228,237.573975,48.551529,237.573975,48.94455L237.573975,54.845348L237.985794,55.848255C238.259811,56.12384,238.593323,56.261635,238.984787,56.261635L260.269775,56.261635C260.701141,56.261635,261.053467,56.12384,261.328278,55.848255L261.680573,54.845348L261.680573,50.597275C262.268555,50.518204,262.660767,50.203468,262.856506,49.653084C263.092163,49.062771,262.974731,48.551529,262.504211,48.118584L260.387207,46.230984C260.11319,45.994545,259.818817,45.876328,259.505646,45.876328C259.113403,45.876328,258.799469,45.994545,258.564606,46.230984L257.917908,46.702297L258.211487,45.227295C258.329712,44.676907,258.191925,44.224384,257.800476,43.87051L256.388885,42.68988C256.781128,42.533298,257.055145,42.29686,257.212494,41.982132C257.447388,41.431744,257.408234,40.940079,257.095062,40.507126L255.154236,37.910995L255.271667,37.085026L257.153778,37.615837L257.564819,37.674557L258.329712,37.4389C258.682037,37.163315,258.898102,36.809441,258.97641,36.376492L259.035126,35.196648C259.113403,34.488113,258.799469,34.016018,258.094055,33.780361L253.507782,32.128422L253.038025,32.010201L252.273132,32.305359C251.920807,32.501869,251.704727,32.797024,251.626434,33.190048C251.391571,32.875317,251.077621,32.717953,250.686157,32.717953C250.215637,32.717953,249.823395,32.934818,249.509445,33.366985L248.039932,35.373585L247.74556,36.376492C247.74556,36.730366,247.883347,37.025524,248.157364,37.261963L248.804047,37.851494L248.627899,38.736965L247.86377,39.681156L247.569397,38.736965L247.334534,38.441811L247.334534,38.383091C247.765121,37.871067,247.785477,37.320683,247.39325,36.730366L246.62912,35.491802C246.31517,35.058853,245.903366,34.84277,245.393692,34.84277L244.688293,35.019707L243.453644,33.366985C243.218765,33.052254,242.885254,32.875317,242.453857,32.83617L242.27771,32.83617L241.454865,33.131329M246.217316,37.49762L245.27626,38.087933L246.452179,39.562935L245.27626,44.047447L246.62912,45.286797L246.62912,42.277287L247.628113,42.040848L249.97998,39.385998L250.333069,37.379398L249.157135,36.25827L250.686157,34.134235L252.802368,37.025524L253.038025,33.426487L257.623535,35.137146L257.564819,36.25827L253.978302,35.196648L253.743423,38.323589L255.977859,41.333099L254.742432,41.333099L254.742432,43.04454L256.859406,44.932137L256.33017,47.705986L257.976624,48.590675L259.505646,47.29261L261.563141,49.180992L260.269775,49.180992L260.269775,54.845348L238.984787,54.845348L238.984787,48.94455L241.04306,48.94455L241.04306,50.183899L242.512573,50.183899L242.512573,47.174393L241.04306,47.174393L240.396378,44.401321L242.983109,41.923412L244.041595,42.926319L244.864441,39.916813L244.041595,38.913902L241.219208,40.684067L240.455093,39.444717L243.160049,37.734058L241.160492,35.137146L242.27771,34.252457L244.394699,36.907303L245.393692,36.25827L246.217316,37.49762z"/>
</svg>
