<?xml version="1.0" encoding="UTF-8"?>
<svg xmlns="http://www.w3.org/2000/svg" xmlns:xlink="http://www.w3.org/1999/xlink" width="25.654mm" height="31.658mm" viewBox="-351.040009 295.470703 25.654419 31.657776">
    <path transform="matrix(-1,0,0,1,0,0)" style="stroke:none;fill:#000000;fill-rule:evenodd" d="M331.605042,298.186615C329.842712,299.996704,328.961945,302.169281,328.961945,304.704346L328.961945,316.963928L327.251282,316.963928C326.733002,316.963928,326.292206,317.144806,325.929718,317.507263C325.56723,317.817322,325.38559,318.257294,325.38559,318.826477L325.38559,325.266693L325.929718,326.585114C326.292206,326.947601,326.733002,327.128479,327.251282,327.128479L349.174347,327.128479C349.692627,327.128479,350.133392,326.947601,350.49588,326.585114L351.040009,325.266693L351.040009,318.826477C351.040009,318.30899,350.858368,317.868988,350.49588,317.507263C350.133392,317.144806,349.692627,316.963928,349.174347,316.963928L347.463684,316.963928L347.463684,304.704346C347.463684,302.169281,346.557068,299.996704,344.743073,298.186615C342.929047,296.375732,340.752563,295.470703,338.212799,295.470703C335.673035,295.470703,333.470703,296.375732,331.605042,298.186615zM330.827606,304.704346C330.827606,302.686798,331.526733,300.95343,332.926605,299.505035C334.377319,298.056641,336.139648,297.332458,338.212799,297.332458C340.234283,297.332458,341.970001,298.056641,343.421509,299.505035C344.872253,300.95343,345.597992,302.686798,345.597992,304.704346L345.597992,318.826477L349.174347,318.826477L349.174347,325.266693L327.251282,325.266693L327.251282,318.826477L330.827606,318.826477L330.827606,304.704346z"/>
</svg>
