<?xml version="1.0" encoding="UTF-8"?>
<svg xmlns="http://www.w3.org/2000/svg" xmlns:xlink="http://www.w3.org/1999/xlink" width="25.654mm" height="24.035mm" viewBox="-316.411011 299.281830 25.654419 24.035339">
    <path transform="matrix(-1,0,0,1,0,0)" style="stroke:none;fill:#000000;fill-rule:evenodd" d="M303.259674,299.28183L303.259674,300.577545L302.288086,301.419952L302.288086,303.946411L301.38147,303.946411L301.38147,306.667786L300.733215,306.667786L300.733215,308.610962L291.987335,308.610962L291.987335,306.667786L290.756592,306.667786L290.756592,323.317169L316.411011,323.317169L316.411011,306.667786L315.115295,306.667786L315.115295,308.610962L306.434387,308.610962L306.434387,306.667786L305.721924,306.667786L305.721924,303.946411L304.814545,303.946411L304.814545,301.419952L304.555389,301.095825L303.907928,300.577545L303.907928,299.28183L303.259674,299.28183M294.384613,311.396576L294.384613,313.145599L292.24649,313.145599L292.24649,311.396576L293.348022,310.619141L294.384613,311.396576zM312.264709,313.145599L312.264709,311.396576L313.3013,310.619141L314.402832,311.396576L314.402832,313.145599L312.264709,313.145599zM298.984222,313.145599L298.984222,311.396576L300.020782,310.619141L301.122345,311.396576L301.122345,313.145599L298.984222,313.145599zM307.730103,311.396576L307.730103,313.145599L305.59198,313.145599L305.59198,311.396576L306.62854,310.619141L307.730103,311.396576zM305.462799,319.494995L305.462799,322.539734L301.963959,322.539734L301.963959,319.494995L303.777954,318.328461L305.462799,319.494995zM312.588837,315.607849L314.791168,315.607849L314.791168,321.373199L312.588837,321.373199L312.588837,315.607849zM297.494324,315.607849L299.761627,315.607849L299.761627,321.373199L297.494324,321.373199L297.494324,315.607849zM292.958923,315.607849L295.22702,315.607849L295.22702,321.373199L292.958923,321.373199L292.958923,315.607849zM310.256561,321.373199L307.989258,321.373199L307.989258,315.607849L310.256561,315.607849L310.256561,321.373199z"/>
</svg>
