<?xml version="1.0" encoding="UTF-8"?>
<svg xmlns="http://www.w3.org/2000/svg" xmlns:xlink="http://www.w3.org/1999/xlink" width="25.645mm" height="24.251mm" viewBox="-281.776306 299.174011 25.645020 24.251434">
    <path transform="matrix(-1,0,0,1,0,0)" style="stroke:none;fill:#000000;fill-rule:evenodd" d="M266.643433,301.778748L266.412476,302.473206L266.412476,303.457306C265.873047,303.688263,265.603729,304.113403,265.603729,304.730316L265.603729,306.00412C265.218536,306.274231,265.02594,306.659424,265.02594,307.161255L265.02594,307.508881L260.001221,307.508881L260.001221,307.161255C260.001221,306.814423,259.866577,306.486389,259.596466,306.177155C259.327148,305.907043,258.999878,305.772369,258.614685,305.772369L257.517059,305.772369L256.535278,306.177155L256.131287,307.161255L256.131287,322.03656L256.535278,323.020691L257.517059,323.425446L280.390564,323.425446L281.372314,323.020691L281.776306,322.03656L281.776306,307.161255L281.372314,306.177155L280.390564,305.772369L279.234985,305.772369C278.849792,305.772369,278.522522,305.907043,278.253204,306.177155C277.983887,306.486389,277.84845,306.814423,277.84845,307.161255L277.84845,307.508881L272.881653,307.508881L272.881653,307.161255C272.881653,306.659424,272.669495,306.274231,272.245941,306.00412L272.245941,304.730316C272.245941,304.113403,271.976624,303.688263,271.437195,303.457306L271.437195,302.473206L271.26416,301.778748L270.628448,301.026367L270.628448,300.562897L270.224457,299.578766C269.955139,299.308685,269.627899,299.174011,269.242706,299.174011L268.664917,299.174011L267.625214,299.578766L267.279144,300.562897L267.279144,301.026367L266.643433,301.778748M268.664917,301.720825L268.664917,300.562897L269.242706,300.562897L269.242706,301.720825L269.820496,302.183533L270.051453,302.473206L270.051453,304.730316L270.860199,304.730316L270.860199,307.161255L271.495117,307.161255L271.495117,308.897766L279.234985,308.897766L279.234985,307.161255L280.390564,307.161255L280.390564,322.03656L257.517059,322.03656L257.517059,307.161255L258.614685,307.161255L258.614685,308.897766L266.412476,308.897766L266.412476,307.161255L266.990265,307.161255L266.990265,304.730316L267.798218,304.730316L267.798218,302.473206L268.664917,301.720825z"/>
</svg>
