<?xml version="1.0" encoding="UTF-8"?>
<svg xmlns="http://www.w3.org/2000/svg" xmlns:xlink="http://www.w3.org/1999/xlink" width="25.639mm" height="31.667mm" viewBox="-247.144165 295.466003 25.638748 31.667145">
    <path transform="matrix(-1,0,0,1,0,0)" style="stroke:none;fill:#000000;fill-rule:evenodd" d="M234.324783,295.466003L227.9151,301.863159L232.24147,301.863159L224.149307,309.94046L231.120331,309.94046L221.505417,319.455933L232.722168,319.455933L232.722168,323.614777C230.639633,323.721252,228.770035,324.094696,227.114182,324.734314C225.511566,325.373962,224.389648,326.173309,223.749237,327.133148L244.82048,327.133148C244.179276,326.226563,243.111389,325.453827,241.61525,324.814178C240.119888,324.174561,238.357559,323.774475,236.327469,323.614777L235.846771,323.614777L235.846771,319.455933L247.144165,319.455933L237.529236,309.94046L244.500275,309.94046L236.408112,301.863159L240.734482,301.863159L234.324783,295.466003"/>
</svg>
