<?xml version="1.0" encoding="UTF-8"?>
<svg xmlns="http://www.w3.org/2000/svg" xmlns:xlink="http://www.w3.org/1999/xlink" width="25.099mm" height="30.264mm" viewBox="-212.244476 296.166992 25.099365 30.264191">
    <path transform="matrix(-1,0,0,1,0,0)" style="stroke:none;fill:#000000;fill-rule:evenodd" d="M198.536087,296.643799L193.08313,302.096741C192.53743,302.597046,192.401215,303.187347,192.67366,303.869263C192.946106,304.460358,193.378281,304.800934,193.968597,304.891754L189.879456,308.981659C189.379166,309.481171,189.265656,310.072266,189.538101,310.753387C189.810562,311.435303,190.310837,311.775879,191.038162,311.775879L193.015015,311.775879L187.629364,317.092621C187.129868,317.638306,187.016342,318.251343,187.288803,318.933228C187.561249,319.615173,188.061539,319.955719,188.788071,319.955719L196.695465,319.955719L196.695465,320.296295C193.060425,320.79657,190.605988,322.000671,189.333771,323.909424C188.97049,324.408905,188.925079,324.95459,189.19754,325.544922C189.515396,326.136017,190.015686,326.431183,190.696808,326.431183L208.62468,326.431183C209.305801,326.431183,209.783386,326.136017,210.055832,325.544922C210.373703,325,210.350998,324.454315,209.987717,323.909424C208.7155,322.000671,206.283768,320.79657,202.694122,320.296295L202.694122,319.955719L210.601517,319.955719C211.282654,319.955719,211.782928,319.615173,212.1008,318.933228C212.373245,318.251343,212.259735,317.638306,211.760239,317.092621L206.374588,311.775879L208.35144,311.775879C209.078766,311.775879,209.579041,311.435303,209.851501,310.753387C210.123947,310.072266,210.010422,309.481171,209.510147,308.981659L205.352112,304.891754C205.988617,304.800934,206.419998,304.460358,206.647827,303.869263C206.965683,303.187347,206.852173,302.597046,206.306473,302.096741L200.853516,296.643799C200.535645,296.325928,200.148895,296.166992,199.694794,296.166992C199.195297,296.166992,198.808548,296.325928,198.536087,296.643799zM197.922287,303.256256L194.241821,303.256256L199.694794,297.803284L205.147766,303.256256L201.467316,303.256256L208.35144,310.140381L202.421677,310.140381L210.601517,318.319458L201.057846,318.319458L201.057846,321.796356L201.3992,321.796356C203.080109,321.932587,204.602859,322.273132,205.965912,322.818817C207.238144,323.363739,208.12439,324.022949,208.62468,324.794891L190.696808,324.794891C191.197083,324.022949,192.151459,323.363739,193.559921,322.818817C194.968369,322.273132,196.55925,321.932587,198.331757,321.796356L198.331757,318.319458L188.788071,318.319458L196.967926,310.140381L191.038162,310.140381L197.922287,303.256256z"/>
</svg>
