<?xml version="1.0" encoding="UTF-8"?>
<svg xmlns="http://www.w3.org/2000/svg" xmlns:xlink="http://www.w3.org/1999/xlink" width="25.364mm" height="25.315mm" viewBox="-177.748001 298.642639 25.364334 25.314789">
    <path transform="matrix(-1,0,0,1,0,0)" style="stroke:none;fill:#000000;fill-rule:evenodd" d="M152.413803,298.686646C152.200073,298.985718,153.053436,300.520996,154.972351,303.293274C157.019669,306.236237,158.91745,308.49649,160.666458,310.07486L163.353409,312.37738C166.08342,314.979797,166.871811,317.644806,165.720154,320.374817L164.761078,319.479156L162.521957,318.135681C162.905594,319.244293,163.694763,320.395966,164.888702,321.590668C166.125702,322.869965,167.277359,323.637207,168.343689,323.893219L168.471298,323.957428L168.471298,323.893219C168.300629,323.296631,167.639847,322.336792,166.48819,321.014465L168.72731,315.960754L169.558762,316.02417L169.814774,315.832367L169.878967,315.256927L169.751358,315.000916L174.805038,312.697601C176.12738,313.891541,177.108368,314.574249,177.748001,314.744904C177.449707,313.636322,176.660538,312.441589,175.381256,311.162323C174.144272,310.010651,172.992599,309.221466,171.926285,308.7948C172.224564,309.519775,172.65126,310.266663,173.205551,311.033905L174.101212,311.993774C171.457321,313.145416,168.791504,312.356262,166.104553,309.627014L163.865433,306.940063C162.287079,305.19104,160.026825,303.293274,157.083862,301.245972C154.268524,299.283997,152.712097,298.430634,152.413803,298.686646z"/>
</svg>
