<?xml version="1.0" encoding="UTF-8"?>
<svg xmlns="http://www.w3.org/2000/svg" xmlns:xlink="http://www.w3.org/1999/xlink" width="25.137mm" height="25.254mm" viewBox="-559.411804 335.187988 25.136536 25.253571">
    <path transform="matrix(-1,0,0,1,0,0)" style="stroke:none;fill:#000000;fill-rule:evenodd" d="M540.935974,337.975159C538.296814,336.11731,536.581421,335.187988,535.789917,335.187988L534.828491,335.529327L534.602234,335.700012C534.263245,336.11731,534.187317,336.62854,534.375977,337.235291C534.639832,338.069885,535.450928,339.47287,536.807678,341.444214C538.655396,344.09906,540.408325,346.18396,542.067261,347.701233L543.198608,348.668152L544.386292,349.748566C545.667908,350.999634,546.384277,352.194366,546.535339,353.33194L545.121399,352.592072L544.612549,352.478577C544.272766,352.478577,543.952515,352.611664,543.651123,352.877075C543.236206,353.293579,543.142212,353.786804,543.368469,354.355988C543.782654,355.493561,544.574951,356.668701,545.743835,357.882202C547.025452,359.246826,548.288269,360.081421,549.532349,360.384399L549.872131,360.441559C550.248718,360.441559,550.569702,360.289673,550.833557,359.986664C551.210144,359.645325,551.323669,359.228027,551.172546,358.735596C550.983887,358.014526,550.493774,357.180725,549.702209,356.232605L550.889893,353.445465C551.228882,353.369507,551.531128,353.218414,551.794983,352.990601L552.02124,352.762756L552.473755,351.910156L555.244446,350.658295C556.187073,351.492889,557.016968,351.986115,557.732544,352.137207L558.01593,352.194366C558.430115,352.194366,558.751099,352.061279,558.977356,351.795868C559.353943,351.455292,559.486267,351.037994,559.372742,350.544769C559.07135,349.293671,558.242249,348.004242,556.884644,346.677185C555.678162,345.463684,554.509277,344.648682,553.377991,344.231384L552.86908,344.174225C552.454163,344.174225,552.133972,344.307343,551.907715,344.572723C551.492737,345.027618,551.398804,345.520844,551.625061,346.051666L552.360229,347.473419C551.228882,347.321533,550.04126,346.601257,548.79718,345.311798L546.761597,342.980286C545.404053,341.463806,543.462463,339.79541,540.935974,337.975159zM542.972351,346.677185C541.42688,345.311798,539.749084,343.302856,537.939026,340.64801C536.242432,338.183411,535.488525,336.818787,535.677185,336.553375L535.789917,336.553375C536.317627,336.553375,537.731506,337.368408,540.031738,338.998413C542.519836,340.781097,544.442627,342.411133,545.800232,343.890045L547.779419,346.278687C549.438416,347.985443,551.097351,348.838806,552.756348,348.838806C553.472717,348.838806,554.170288,348.68692,554.848328,348.383148L554.056763,347.530579C553.529114,346.84787,553.132935,346.18396,552.86908,345.539642C553.849304,345.880981,554.867859,346.582458,555.923218,347.644104C557.092102,348.781647,557.789673,349.843292,558.01593,350.828979C557.44989,350.677856,556.602051,350.071106,555.470703,349.009491L551.002625,351.056793L551.11615,351.284637L551.059814,351.795868L550.833557,352.023682L550.550903,352.137207L550.04126,351.910156L548.118408,356.460449C549.136963,357.598022,549.721008,358.470184,549.872131,359.076141C548.891907,358.81073,547.835754,358.090454,546.705261,356.915314C545.649109,355.853699,544.951538,354.829651,544.612549,353.843964L546.591736,355.037903L547.44043,355.834106C548.458191,353.445465,547.76062,351.075592,545.347656,348.724518L542.972351,346.677185z"/>
</svg>
