<?xml version="1.0" encoding="UTF-8"?>
<svg xmlns="http://www.w3.org/2000/svg" xmlns:xlink="http://www.w3.org/1999/xlink" width="25.650mm" height="26.456mm" viewBox="-524.920654 334.587006 25.649750 26.456116">
    <path transform="matrix(-1,0,0,1,0,0)" style="stroke:none;fill:#000000;fill-rule:evenodd" d="M502.695374,336.256958L501.755859,336.256958L501.755859,339.531097L500.345856,339.664185L499.270905,344.073517L499.741455,344.674805L499.942657,344.674805L500.949463,343.27182C501.441925,342.915619,501.979004,342.737885,502.561493,342.737885C503.187805,342.737885,503.747589,342.915619,504.240051,343.27182C504.732483,343.628052,505.068359,344.096222,505.246887,344.674805L509.074524,344.674805L509.007202,344.006989C509.007202,342.759796,509.455017,341.713043,510.349884,340.86673C511.200134,339.976563,512.25238,339.531097,513.505798,339.531097C514.490723,339.531097,515.340942,339.798065,516.057312,340.332794L516.057312,334.587006L509.074524,334.587006L507.19397,338.92981L502.695374,339.330658L502.695374,336.256958M509.343048,335.254822L511.626038,335.254822L511.626038,338.92981L508.335449,338.92981L509.343048,335.254822z"/>
    <path transform="matrix(-1,0,0,1,0,0)" style="stroke:none;fill:#000000;fill-rule:evenodd" d="M510.954285,341.468018C510.193298,342.181244,509.812805,343.026794,509.812805,344.006989C509.812805,344.853302,510.081329,345.610382,510.618408,346.278198C511.155487,346.946808,511.82724,347.369568,512.632874,347.548096L509.007202,347.948944L513.640442,349.485016C517.444641,350.910675,521.204956,352.647186,524.920654,354.696045L524.920654,349.151489L521.160278,347.948944L514.781921,347.480743C515.497498,347.213776,516.057312,346.768311,516.46051,346.145111C516.952148,345.521118,517.198792,344.808685,517.198792,344.006989C517.198792,342.982941,516.841003,342.136597,516.124634,341.468018C515.408264,340.710938,514.535339,340.332794,513.505798,340.332794C512.476257,340.332794,511.626038,340.710938,510.954285,341.468018zM512.230408,342.804443C512.588196,342.448212,513.013367,342.269714,513.505798,342.269714C513.99823,342.269714,514.42334,342.448212,514.781921,342.804443C515.095093,343.116028,515.251709,343.516876,515.251709,344.006989C515.251709,344.49707,515.095093,344.919861,514.781921,345.276093C514.42334,345.58847,513.99823,345.744263,513.505798,345.744263C513.013367,345.744263,512.588196,345.58847,512.230408,345.276093C511.916473,344.919861,511.759888,344.49707,511.759888,344.006989C511.759888,343.516876,511.916473,343.116028,512.230408,342.804443z"/>
    <path transform="matrix(-1,0,0,1,0,0)" style="stroke:none;fill:#000000;fill-rule:evenodd" d="M503.971497,346.946808C504.373932,346.545959,504.575928,346.077789,504.575928,345.543823C504.575928,345.009094,504.373932,344.541718,503.971497,344.140869C503.568298,343.740021,503.098572,343.539581,502.561493,343.539581C502.024414,343.539581,501.553894,343.740021,501.151459,344.140869C500.74826,344.541718,500.547058,345.009094,500.547058,345.543823C500.547058,346.077789,500.74826,346.545959,501.151459,346.946808C501.553894,347.347656,502.024414,347.548096,502.561493,347.548096C503.098572,347.548096,503.568298,347.347656,503.971497,346.946808zM502.561493,344.474365L503.367096,344.808685L503.702972,345.543823C503.702972,345.855438,503.591003,346.122406,503.367096,346.345551C503.143188,346.567871,502.874664,346.679047,502.561493,346.679047L501.822418,346.345551L501.487335,345.543823L501.822418,344.808685L502.561493,344.474365z"/>
    <path transform="matrix(-1,0,0,1,0,0)" style="stroke:none;fill:#000000;fill-rule:evenodd" d="M505.246887,348.149353L509.947449,351.890106C513.57312,355.008453,516.549744,358.058655,518.877319,361.043121L524.920654,361.043121L524.920654,358.50415C520.936401,355.297333,518.384888,353.360413,517.266113,352.691803C513.461182,350.286713,509.455017,348.772552,505.246887,348.149353z"/>
    <path transform="matrix(-1,0,0,1,0,0)" style="stroke:none;fill:#000000;fill-rule:evenodd" d="M504.508575,352.224426C506.030579,355.47583,507.23938,358.41568,508.134247,361.043121L514.446045,361.043121C510.50647,354.851868,506.544922,350.554474,502.561493,348.149353L504.508575,352.224426z"/>
    <path transform="matrix(-1,0,0,1,0,0)" style="stroke:none;fill:#000000;fill-rule:evenodd" d="M499.741455,361.043121L504.642456,361.043121L502.695374,354.763397C501.755859,351.957428,500.770966,349.752747,499.741455,348.149353L499.741455,361.043121z"/>
</svg>
