<?xml version="1.0" encoding="UTF-8"?>
<svg xmlns="http://www.w3.org/2000/svg" xmlns:xlink="http://www.w3.org/1999/xlink" width="25.528mm" height="26.248mm" viewBox="-490.112000 334.690918 25.528015 26.247864">
    <path transform="matrix(-1,0,0,1,0,0)" style="stroke:none;fill:#000000;fill-rule:evenodd" d="M468.199127,336.169067C467.802979,336.169067,467.466309,336.306854,467.189178,336.583221L466.773438,337.587708L466.773438,339.184052C466.140076,339.223206,465.743927,339.57785,465.585754,340.248016L464.636108,344.208771C464.51709,344.642487,464.596161,345.036316,464.873322,345.390961L465.289032,345.92334L465.764282,346.336731L465.882477,346.809601C465.289032,347.046021,464.99231,347.479767,464.99231,348.110779L464.99231,359.519348C464.99231,359.91394,465.150452,360.249023,465.466766,360.524628C465.704773,360.800201,466.021057,360.938782,466.417206,360.938782L488.687103,360.938782L489.696289,360.524628L490.112,359.519348L490.112,348.99704C490.112,348.366791,489.815277,347.933075,489.221039,347.696625L489.043335,347.5784C486.945129,346.790039,484.90564,346.317139,482.926453,346.15979L483.282684,344.445221C483.282684,343.42038,482.946014,342.474609,482.273499,341.607941L482.273499,336.110352L481.857788,335.105072C481.580627,334.829498,481.243988,334.690918,480.847809,334.690918L474.672211,334.690918C474.038055,334.690918,473.602783,334.967285,473.36554,335.519257L472.058868,338.592957L470.455475,338.769897L470.455475,337.587708C470.455475,337.233032,470.316895,336.897949,470.039734,336.583221C469.762604,336.306854,469.425934,336.169067,469.030579,336.169067L468.199127,336.169067zM466.417206,348.110779C467.327728,349.529419,468.199127,351.479645,469.030579,353.963043L470.752197,359.519348L466.417206,359.519348L466.417206,348.110779zM469.980255,348.820099L470.158752,348.938324L470.455475,349.23349L471.702637,350.17923C474.196991,352.307983,476.770416,355.420837,479.422913,359.519348L473.840759,359.519348C472.771332,356.445648,471.267334,352.91864,469.327301,348.938324L469.980255,348.820099zM472.593597,349.115265L471.405914,348.110779C475.087158,348.661957,478.630615,350.002319,482.035492,352.130249L488.687103,357.273193L488.687103,359.519348L483.342163,359.519348C480.610596,356.011932,477.027222,352.544403,472.593597,349.115265zM469.030579,337.587708L469.030579,340.307526L473.009338,339.952881L474.672211,336.110352L480.847809,336.110352L480.847809,342.139526C481.521118,342.809692,481.857788,343.578522,481.857788,344.445221C481.857788,345.115387,481.659698,345.745605,481.26355,346.336731L479.719635,347.518921L480.610596,347.460205L485.65802,347.992584L488.687103,348.99704L488.687103,353.903534L482.570221,350.711609C479.363434,349.095703,477.205719,348.110779,476.097107,347.755341L477.819519,347.5784C477.186157,347.421051,476.651428,347.125122,476.216125,346.691376L475.444183,345.036316L470.514954,345.036316L470.692688,345.805115C470.692688,346.278015,470.514954,346.691376,470.158752,347.046021C469.841675,347.400696,469.425934,347.5784,468.91156,347.5784C468.43634,347.5784,468.02063,347.400696,467.664398,347.046021C467.308167,346.691376,467.129669,346.278015,467.129669,345.805115L467.367676,345.036316L466.417206,345.036316L466.001495,344.5047L466.951935,340.602692L468.199127,340.484467L468.199127,337.587708L469.030579,337.587708z"/>
</svg>
