<?xml version="1.0" encoding="UTF-8"?>
<svg xmlns="http://www.w3.org/2000/svg" xmlns:xlink="http://www.w3.org/1999/xlink" width="25.654mm" height="25.654mm" viewBox="-455.427002 334.988007 25.654419 25.654419">
    <path transform="matrix(-1,0,0,1,0,0)" style="stroke:none;fill:#000000;fill-rule:evenodd" d="M442.265503,337.927826C441.286072,337.972473,440.528992,338.395233,439.994263,339.19693L439.659973,340.399475L439.659973,343.405853L438.52475,343.740173L438.52475,345.744415L437.522614,346.412231L434.315826,346.412231L434.315826,348.216064L431.376007,349.953339L433.113281,349.953339L433.113281,359.239441L429.772583,359.239441L429.772583,360.642426L455.427002,360.642426L455.427002,359.239441L452.420624,359.239441L452.420624,349.953339L453.890137,349.953339L451.084198,348.349945L451.084198,346.412231L447.877411,346.412231L446.608307,345.744415L446.608307,343.740173L445.405762,343.405853L445.405762,340.399475L445.071442,339.19693C444.625977,338.395233,443.868896,337.972473,442.800232,337.927826L442.800232,334.988007L442.265503,334.988007L442.265503,337.927826zM436.320068,349.41861L435.91922,349.218201L435.58493,348.683472L435.91922,348.216064L436.320068,347.949097C436.542419,347.949097,436.720917,348.037567,436.854004,348.216064L436.987885,348.683472L436.854004,349.218201L436.320068,349.41861zM448.41214,348.216064L448.946838,347.949097L449.480804,348.216064L449.614685,348.683472L449.480804,349.218201L448.946838,349.41861L448.41214,349.218201L448.2117,348.683472C448.2117,348.461121,448.278259,348.305298,448.41214,348.216064zM450.282501,351.022003C450.81723,351.022003,451.084198,351.133179,451.084198,351.356323L451.084198,353.761414L449.480804,353.761414L449.480804,351.356323C449.480804,351.133179,449.748566,351.022003,450.282501,351.022003zM440.328583,351.022003C440.817902,351.022003,441.062958,351.133179,441.062958,351.356323L441.062958,353.761414L439.459534,353.761414L439.459534,351.356323C439.459534,351.133179,439.749207,351.022003,440.328583,351.022003zM434.516235,353.761414L434.516235,351.356323C434.516235,351.133179,434.761292,351.022003,435.25061,351.022003C435.829956,351.022003,436.119659,351.133179,436.119659,351.356323L436.119659,353.761414L434.516235,353.761414zM449.480804,355.164398C449.480804,354.941254,449.748566,354.830078,450.282501,354.830078C450.81723,354.830078,451.084198,354.941254,451.084198,355.164398L451.084198,357.636047L449.480804,357.636047L449.480804,355.164398zM439.459534,355.164398C439.459534,354.941254,439.749207,354.830078,440.328583,354.830078C440.817902,354.830078,441.062958,354.941254,441.062958,355.164398L441.062958,357.636047L439.459534,357.636047L439.459534,355.164398zM434.516235,355.164398C434.516235,354.941254,434.761292,354.830078,435.25061,354.830078C435.829956,354.830078,436.119659,354.941254,436.119659,355.164398L436.119659,357.636047L434.516235,357.636047L434.516235,355.164398zM441.931976,343.071564L441.931976,340.733795C441.931976,340.2883,442.198944,340.065186,442.733673,340.065186C443.222992,340.065186,443.468048,340.2883,443.468048,340.733795L443.468048,343.071564L441.931976,343.071564zM444.403625,351.356323C444.403625,351.133179,444.693298,351.022003,445.271881,351.022003C445.80661,351.022003,446.073578,351.133179,446.073578,351.356323L446.073578,353.761414L444.403625,353.761414L444.403625,351.356323zM444.403625,355.164398C444.403625,354.941254,444.693298,354.830078,445.271881,354.830078C445.80661,354.830078,446.073578,354.941254,446.073578,355.164398L446.073578,357.636047L444.403625,357.636047L444.403625,355.164398zM444.136658,348.216064L444.871033,349.619049L440.795959,349.619049L441.531128,348.216064C441.88736,347.859833,442.31012,347.681335,442.800232,347.681335C443.245697,347.681335,443.691162,347.859833,444.136658,348.216064z"/>
</svg>
