<?xml version="1.0" encoding="UTF-8"?>
<svg xmlns="http://www.w3.org/2000/svg" xmlns:xlink="http://www.w3.org/1999/xlink" width="25.654mm" height="25.654mm" fill="white" stroke="black" stroke-width="0.5" viewBox="-508.507996 31.308701 25.654419 25.654408">
    <path transform="matrix(-1,0,0,1,0,0)" d="M490.549591,35.426807L488.186768,33.46875L485.013641,36.641888L486.97171,39.004711L485.891266,41.637638L482.853577,41.907742L482.853577,46.364067L485.891266,46.634171L486.97171,49.267097L485.013641,51.629921L488.186768,54.803059L490.549591,52.777668L493.182526,53.925415L493.452637,56.963108L497.908966,56.963108L498.179047,53.925415L500.811981,52.777668L503.174805,54.803059L506.347931,51.629921L504.322571,49.267097L505.470306,46.634171L508.507996,46.364067L508.507996,41.907742L505.470306,41.637638L504.322571,39.004711L506.347931,36.641888L503.174805,33.46875L500.811981,35.426807L498.179047,34.346394L497.908966,31.308701L493.452637,31.308701L493.182526,34.346394L490.549591,35.426807M495.680786,40.895439C496.581146,40.895439,497.346039,41.210167,497.976288,41.840412C498.606537,42.470654,498.921265,43.235558,498.921265,44.135902C498.921265,45.036251,498.606537,45.801155,497.976288,46.431396C497.346039,47.061638,496.581146,47.376373,495.680786,47.376373C494.780457,47.376373,494.015533,47.061638,493.385315,46.431396C492.755066,45.801155,492.440338,45.036251,492.440338,44.135902C492.440338,43.235558,492.755066,42.470654,493.385315,41.840412C494.015533,41.210167,494.780457,40.895439,495.680786,40.895439z"/>
</svg>
