<?xml version="1.0" encoding="UTF-8"?>
<svg xmlns="http://www.w3.org/2000/svg" xmlns:xlink="http://www.w3.org/1999/xlink" width="25.654mm" height="25.654mm" fill="white" stroke="black" stroke-width="0.5" viewBox="-473.450012 31.308701 25.654419 25.654408">
    <path transform="matrix(-1,0,0,1,0,0)" d="M452.950287,33.646469L450.133362,36.463383L449.713745,37.362946L450.07309,38.381512L451.212219,39.760216L450.972656,40.479713L449.114014,40.659C448.714752,40.739639,448.395325,40.899353,448.154968,41.138924L447.795593,42.097988L447.795593,46.054035L448.154968,47.072601C448.395325,47.352882,448.714752,47.492241,449.114014,47.492241L450.972656,47.67231L451.212219,48.391808L450.07309,49.830009L449.713745,50.849358L450.133362,51.748142L452.950287,54.565838C453.18985,54.845337,453.529633,54.984692,453.969635,54.984692L454.868408,54.685623L456.307404,53.486202L457.026123,53.786057L457.206177,55.584404L457.686096,56.543468C457.92569,56.822968,458.245117,56.963108,458.644409,56.963108L462.601227,56.963108C463.000519,56.963108,463.319946,56.822968,463.559509,56.543468L464.039429,55.584404L464.15921,53.786057L464.938202,53.486202L466.316925,54.685623L467.27597,54.984692C467.676056,54.984692,468.015045,54.845337,468.295319,54.565838L471.112244,51.748142L471.471588,50.849358C471.512299,50.449295,471.412109,50.110291,471.172516,49.830009L470.033386,48.391808L470.272949,47.67231L472.131592,47.492241C472.530884,47.492241,472.850311,47.352882,473.090668,47.072601L473.450012,46.054035L473.450012,42.097988L473.090668,41.138924C472.850311,40.899353,472.530884,40.739639,472.131592,40.659L470.272949,40.479713L470.033386,39.760216L471.172516,38.381512C471.412109,38.102013,471.512299,37.76223,471.471588,37.362946L471.112244,36.463383L468.295319,33.646469C468.015045,33.366974,467.676056,33.22683,467.27597,33.22683C466.956543,33.22683,466.637115,33.346615,466.316925,33.586185L464.938202,34.725323L464.15921,34.485752L464.039429,32.627121L463.559509,31.668056C463.319946,31.428486,463.000519,31.308701,462.601227,31.308701L458.644409,31.308701C458.245117,31.308701,457.92569,31.428486,457.686096,31.668056L457.206177,32.627121L457.026123,34.485752L456.307404,34.725323L454.868408,33.586185L453.969635,33.22683C453.529633,33.22683,453.18985,33.366974,452.950287,33.646469zM456.067047,36.343597L458.404816,35.444817L458.644409,32.746906L462.601227,32.746906L462.84079,35.444817L465.178558,36.343597L467.27597,34.665039L470.093689,37.422447L468.295319,39.520645L469.313904,41.858418L472.01181,42.097988L472.01181,46.054035L469.313904,46.353889L468.295319,48.691658L470.093689,50.729576L467.27597,53.546486L465.178558,51.808426L462.84079,52.76749L462.601227,55.524902L458.644409,55.524902L458.404816,52.76749L456.067047,51.808426L453.969635,53.546486L451.151947,50.729576L452.890778,48.691658L451.931732,46.353889L449.233826,46.054035L449.233826,42.097988L451.931732,41.858418L452.890778,39.520645L451.151947,37.422447L453.969635,34.665039L456.067047,36.343597z"/>
</svg>
