<?xml version="1.0" encoding="UTF-8"?>
<svg xmlns="http://www.w3.org/2000/svg" xmlns:xlink="http://www.w3.org/1999/xlink" width="32.670mm" height="58.085mm" viewBox="-592.819763 86.467880 32.669861 58.085251">
    <path transform="matrix(-1,0,0,1,0,0)" style="stroke:none;fill:#000000;fill-rule:evenodd" d="M575.445251,86.470261L575.479797,86.474884L575.555115,86.487183L575.60791,86.498459L575.676819,86.522217L575.76532,86.559631L575.835693,86.595688L575.937561,86.657883L575.981995,86.688293L576.096802,86.775436L576.125183,86.798508L576.253296,86.910431L576.273499,86.929047L576.414795,87.065918L576.429626,87.08078L576.58429,87.242767L576.595398,87.25473L576.757874,87.435852L577.028198,87.720001L577.371155,87.694885L577.428223,87.670105L577.447998,87.662079L577.581116,87.610641L577.604553,87.602097L577.730469,87.560074L577.758179,87.551697L577.877075,87.519058L577.909729,87.5112L578.021606,87.487961L578.060242,87.481476L578.164978,87.467621L578.209778,87.463531L578.307495,87.458908L578.360657,87.459091L578.451355,87.463867L578.523499,87.47258L578.648743,87.496506L578.700989,87.509323L578.732117,87.519577L578.877197,87.572708L578.931335,87.596115L579.096375,87.678314L579.133789,87.698807L579.318542,87.810043L579.345154,87.827133L579.549866,87.96759L579.569336,87.981598L579.794067,88.151108L579.809082,88.163071L580.053589,88.361786L580.065369,88.371521L580.308044,88.580505L580.452087,88.67926L580.588928,88.742142L580.732117,88.779388L580.894104,88.792542L580.95459,88.788269L581.024475,88.777176L581.092163,88.759918L581.155029,88.73735L581.21637,88.708481L581.278381,88.671921L581.339722,88.628006L581.39801,88.57811L581.416809,88.558792L581.422791,88.550766L581.426208,88.544281L581.428772,88.537262L581.431641,88.524109L581.433899,88.498306L581.432678,88.464813L581.422791,88.391006L581.418335,88.337189L581.419189,88.283188L581.425659,88.229538L581.4375,88.17691L581.454407,88.125641L581.476624,88.076431L581.503601,88.029785L581.535217,87.98587L581.571106,87.945557L581.610901,87.909149L581.654114,87.876694L581.700439,87.849014L581.749329,87.826111L581.800232,87.808167L581.852661,87.795532L581.906189,87.788177L581.960022,87.786301L582.013977,87.789886L582.067139,87.79895L582.119263,87.813461L582.169495,87.832947L582.217468,87.857559L582.280396,87.899933L582.433105,88.019699L582.482849,88.063965L582.617004,88.199295L582.661743,88.250549L582.7771,88.40126L582.81488,88.457809L582.911194,88.623901L582.934998,88.669693L582.986084,88.781448L583.0047,88.828262L583.045532,88.945816L583.059204,88.991776L583.089966,89.115143L583.099182,89.159912L583.119873,89.289093L583.125,89.332321L583.135376,89.467316L583.136963,89.506958L583.137268,89.647751L583.136108,89.684479L583.126343,89.831268L583.123108,89.865097L583.103088,90.017685L583.098694,90.045364L583.069458,90.203583L583.061401,90.239807L583.022461,90.391022L583.011841,90.42691L582.963684,90.571121L582.949524,90.609055L582.927979,90.660141L582.933411,90.664764L582.976807,90.70372L583.015137,90.741821L583.044312,90.776855L583.085876,90.831192L583.126343,90.892532L583.2005,91.023758L583.224792,91.072113L583.247009,91.132599L583.294495,91.290482L583.307312,91.342941L583.313599,91.384125L583.334473,91.568314L583.337708,91.642639L583.332092,91.853149L583.327942,91.906982L583.322021,91.942688L583.290039,92.103485L583.27533,92.160889L583.216919,92.345093L583.202209,92.385406L583.117432,92.59285L583.104309,92.622757L582.993042,92.853592L582.967102,92.900925L582.936707,92.945526L582.901794,92.986694L582.862854,93.024124L582.859619,93.026688L582.994263,93.314087L583.005188,93.338699L583.139832,93.668472L583.14978,93.694962L583.265076,94.026611L583.273621,94.053436L583.352051,94.324265L583.357544,94.344604L583.4245,94.615601L583.429443,94.637299L583.48468,94.908813L583.488586,94.930679L583.532166,95.20253L583.535217,95.224411L583.567383,95.496765L583.56958,95.519669L583.589905,95.792206L583.591125,95.814758L583.599854,96.087799L583.599976,96.110184L583.59729,96.383575L583.596558,96.406128L583.582214,96.680038L583.580505,96.702423L583.554565,96.976501L583.552002,96.998535L583.514404,97.273132L583.510986,97.29483L583.461792,97.569748L583.457642,97.590424L583.396973,97.865875L583.392029,97.886551L583.319763,98.162155L583.314148,98.181808L583.230225,98.457932L583.22406,98.477066L583.12854,98.75354L583.121887,98.771988L583.011169,99.058029L583.002808,99.078186L582.882324,99.355164L582.873108,99.37532L582.743103,99.64325L582.732483,99.663925L582.592712,99.922623L582.581116,99.942963L582.431763,100.192429L582.419128,100.212585L582.260193,100.453003L582.246216,100.47316L582.077576,100.704514L582.062683,100.723831L581.88446,100.946121L581.868591,100.965271L581.794922,101.048813L581.804016,101.063004L581.82843,101.111191L581.847717,101.161591L581.859009,101.201065L582.196472,102.588348L582.229309,102.575363L582.28125,102.560669L582.334351,102.55127L582.362915,102.548538L582.424561,102.544266L582.500305,102.544434L582.572876,102.549728L582.628784,102.556747L582.712158,102.571777L582.752136,102.580658L582.846436,102.60527L582.877197,102.614319L582.982483,102.648666L583.006226,102.657043L583.122437,102.701126L583.140869,102.708466L583.267822,102.762131L583.283203,102.768967L583.421265,102.83252L583.436646,102.839874L583.67981,102.961365L583.722534,102.985107L583.92804,103.112579L583.979309,103.148804L584.147278,103.282593L584.204529,103.335388L584.335388,103.475327L584.370117,103.51651L584.404602,103.567596L584.529846,103.778793L584.554993,103.826462L584.561646,103.843048L584.841553,103.788712L584.89502,103.781189L584.948853,103.778961L585.002808,103.782211L585.054626,103.790756L585.75293,103.940262L585.821106,103.959747L586.213806,104.100372L586.261108,104.119858L586.62915,104.293106L586.676514,104.318405L587.019409,104.524124L587.06488,104.554718L587.382874,104.793076L587.423035,104.826401L587.713501,105.09227L587.740479,105.118576L588.001587,105.393845L588.028259,105.424438L588.259766,105.709106L588.285889,105.74379L588.487549,106.037689L588.51178,106.076645L588.592285,106.218811L588.601868,106.236572L588.668152,106.364731L588.679443,106.387634L588.731689,106.50177L588.745056,106.533722L588.783142,106.633514L588.799744,106.684769L588.813354,106.752426L588.826538,106.849655L588.868408,106.834961L588.920837,106.822311L588.974365,106.814972L589.02832,106.813095L589.082153,106.816681L589.135498,106.825729L589.187439,106.840088L589.237793,106.859573L589.285828,106.884171L589.349548,106.927231L590.234985,107.623688L590.283569,107.666931L590.504333,107.889053L590.524109,107.910065L590.725098,108.135452L590.745056,108.159195L590.926025,108.38765L590.945679,108.414307L591.106812,108.646011L591.125916,108.6754L591.267212,108.910004L591.285522,108.942978L591.40686,109.181L591.423096,109.216019L591.524536,109.456955L591.53894,109.495056L591.609314,109.705734L591.811462,110.119751L591.888,110.260376L591.904602,110.293869L591.958252,110.411423L591.9823,110.474304L592.009644,110.562134L592.023132,110.61441L592.031189,110.667892L592.033752,110.712845L592.034607,110.771103L592.032532,110.825104L592.025208,110.878586L592.012573,110.93103L591.994446,110.981949L591.971375,111.030655L591.958069,111.054398L591.937561,111.088409L591.907288,111.133179L591.872803,111.17453L591.834167,111.21228L591.791992,111.246124L591.776611,111.256027L591.942871,111.668854L591.944214,111.672104L592.225281,112.383423L592.226807,112.38736L592.385071,112.797104L592.386414,112.801025L592.521423,113.158997L592.523621,113.16481L592.635071,113.471176L592.637939,113.479202L592.725952,113.73381L592.728821,113.742859L592.764038,113.850845L592.766602,113.858536L592.796021,113.953537L592.809326,114.005829L592.8172,114.059143L592.819763,114.113129L592.816833,114.166962L592.808472,114.220261L592.7948,114.272552L592.775818,114.323135L592.751892,114.37149L592.723206,114.417282L592.693665,114.455551L592.426941,114.770813L592.425232,114.77269L592.167542,115.074265L592.165466,115.076828L591.916382,115.364914L591.91449,115.366974L591.674438,115.641556L591.67218,115.644119L591.440979,115.905212L591.438293,115.908279L591.21582,116.155701L591.213257,116.158615L590.999634,116.3927L590.996582,116.39595L590.79187,116.616531L590.788269,116.6203L590.592468,116.827225L590.588562,116.831314L590.401611,117.02475L590.396973,117.029358L590.218811,117.20929L590.213989,117.214233L590.044861,117.380661L590.038696,117.386475L589.878235,117.539398L589.871399,117.545898L589.719849,117.685318L589.711975,117.692505L589.569458,117.818436L589.559387,117.826981L589.425598,117.939407L589.40509,117.955811L589.317627,118.022278L589.279358,118.048935L589.209656,118.09285L589.162476,118.119324L589.129517,118.134201L589.077576,118.155731L589.026611,118.173843L588.974365,118.186829L588.920837,118.194336L588.854553,118.196045L588.82074,118.194855L588.766907,118.190247L588.713928,118.180161L588.66217,118.16478L588.612122,118.144272L588.564575,118.11882L588.519836,118.088745L588.478333,118.05423L588.440552,118.015778L588.398682,117.962128L588.382629,117.938553L588.354614,117.89241L588.33136,117.843719L588.318176,117.807159L588.294617,117.832962L588.28833,117.839615L587.874634,118.275681L587.867981,118.282684L587.455627,118.701828L587.434814,118.721817L586.661804,119.426651L586.650208,119.459976L586.744507,119.539261L586.767212,119.517212L586.807922,119.481674L586.85199,119.450409L586.87793,119.435028L586.95874,119.389908L587.007141,119.365997L587.047791,119.350266L587.153381,119.31456L587.205322,119.299866L587.273315,119.288925L587.535645,119.263809L587.5896,119.261414L587.643616,119.264496L587.696899,119.272873L587.749023,119.286713L587.799622,119.305847L587.847778,119.329773L587.875305,119.346344L587.91803,119.373856L587.961914,119.405289L587.997498,119.436386L588.038635,119.475693L588.090088,119.532425L588.129883,119.58316L588.165588,119.634766L588.203735,119.697311L588.226257,119.737976L588.263,119.812134L588.278564,119.846817L588.313782,119.93277L588.324707,119.961807L588.358215,120.059372L588.365723,120.08313L588.397461,120.192139L588.401062,120.20462L588.625793,121.050598L588.636902,121.103394L588.6427,121.157043L588.643005,121.211044L588.637878,121.264694L588.627502,121.317657L588.620117,121.343796L588.345398,122.23967L588.292908,122.417892L588.28302,122.448471L588.23175,122.590469L588.210571,122.640533L588.162354,122.740662L588.136597,122.788162L588.103088,122.836517L588.057983,122.894608L588.022766,122.935623L587.983643,122.972702L587.940918,123.005676L587.894958,123.03421L587.846619,123.057968L587.795837,123.076584L587.743591,123.090088L587.690247,123.098114L587.636292,123.100845L587.582458,123.098114L587.519897,123.08786L587.13324,123.001068L586.817627,122.931686L586.53418,122.878204L586.302124,122.843185L586.106445,122.823868L585.958679,122.819427L585.869507,122.825745L585.849121,122.830368L585.844177,122.832764L585.772095,122.879745L585.700989,122.918701L585.580872,122.973038L585.52179,122.99559L585.379944,123.040359L585.33313,123.052841L585.169617,123.088547L585.116272,123.097427L585.062439,123.100845L585.008484,123.098801L584.955017,123.091278L584.90271,123.078461L584.851807,123.060349L584.803101,123.037109L584.760193,123.011322L584.774536,123.078293L584.780701,123.111618L584.854492,123.605087L584.858459,123.638229L584.901672,124.139389L584.903381,124.172195L584.915833,124.681213L584.916016,124.703262L584.912292,124.924881L584.911926,124.935989L584.904053,125.144104L584.903381,125.157257L584.891235,125.351532L584.890259,125.365891L584.874023,125.546494L584.872131,125.563934L584.851624,125.730698L584.848877,125.750183L584.82428,125.903275L584.819824,125.926682L584.790955,126.066284L584.784607,126.093628L584.751648,126.219376L584.742065,126.251846L584.705017,126.36377L584.690491,126.402557L584.649109,126.500977L584.62677,126.547623L584.581116,126.632202L584.548828,126.684662L584.499084,126.755737L584.450562,126.815369L584.396729,126.87262L584.357788,126.910034L584.3349,126.928665L584.321899,127.077148L584.321228,127.084671L584.313232,127.164795L584.349915,127.15181L584.411255,127.137634L584.476013,127.126526L584.529724,127.120041L584.583679,127.119186L584.623474,127.121918L584.683655,127.128403L584.736938,127.136948L584.789063,127.150787L584.836731,127.168564L584.89209,127.192307L584.940491,127.216064L584.986267,127.244598L585.020081,127.270233L585.070679,127.311752L585.110657,127.347977L585.152527,127.395309L585.198486,127.454086L585.229431,127.498337L585.247498,127.529266L585.288879,127.60582L585.316528,127.665451L585.353088,127.759262L585.369324,127.807617L585.416138,127.972839L585.427246,128.019836L585.461975,128.204712L585.467773,128.243835L585.490662,128.448715L585.493408,128.48288L585.503967,128.707748L585.504517,128.735428L585.503296,128.980118L585.502625,129.004379L585.489319,129.26889L585.487915,129.289566L585.462463,129.574051L585.460571,129.59166L585.423157,129.895981L585.422852,129.898712L585.382874,130.210037L585.543457,130.291702L585.572144,130.30452L585.619141,130.331177L585.683044,130.379196L585.703247,130.39679L585.756042,130.449768L585.781128,130.478806L585.806274,130.510071L585.836487,130.550919L585.85083,130.571243L585.886047,130.623703L585.894958,130.637375L585.935242,130.70163L585.940918,130.711014L585.986328,130.78688L585.990479,130.793716L586.041016,130.881027L586.051636,130.900177L586.187805,131.15921L586.204224,131.19339L586.326355,131.472412L586.339355,131.5047L586.447693,131.803894L586.457581,131.83432L586.551941,132.153503L586.559448,132.182037L586.602173,132.36264L586.608826,132.394928L586.643188,132.594681L586.647095,132.621338L586.673401,132.840042L586.675659,132.863281L586.693726,133.100967L586.694946,133.120956L586.704834,133.377777L586.7052,133.395035L586.706909,133.67099L586.706726,133.68602L586.700256,133.980774L586.69989,133.993927L586.685181,134.307816L586.684326,134.320633L586.574341,135.872971L586.577759,136.000275L586.588867,136.15303L586.607971,136.316727L586.634277,136.485886L586.671021,136.677948L586.713074,136.866928L586.76532,137.073853L586.825989,137.29068L586.90271,137.527328L586.981323,137.73204L587.056335,137.893158L587.124512,138.010376L587.179382,138.082993L587.209106,138.111526L587.228943,138.11734L587.292969,138.130676L587.315552,138.135971L587.424072,138.163483L587.437866,138.167068L587.570984,138.204651L587.580566,138.207565L587.738098,138.255234L587.7453,138.257462L587.927429,138.315384L587.932373,138.316925L588.13916,138.384918L588.14325,138.386292L588.374451,138.464371L588.378174,138.465744L588.888916,138.642593L588.892334,138.643784L589.133789,138.729233L589.137207,138.730423L589.364929,138.812775L589.368896,138.814148L589.583008,138.893433L589.587402,138.895142L589.787659,138.971344L589.79248,138.973221L589.979248,139.046356L589.984863,139.048584L590.157959,139.118637L590.164246,139.121201L590.323853,139.188187L590.372559,139.211594L590.418518,139.239777L590.461426,139.272415L590.500916,139.309326L590.536438,139.349991L590.567688,139.394073L590.594177,139.441071L590.616577,139.492157L590.729309,139.792038L590.735657,139.809464L590.825195,140.075165L590.83252,140.09874L590.898865,140.330276L590.907227,140.363754L590.950073,140.561111L590.958801,140.614426L590.962219,140.668243L590.960205,140.722244L590.952515,140.775726L590.945801,140.80307L590.952637,140.81485L590.974854,140.863892L590.99231,140.914978L591.004272,140.967606L591.010925,141.021271L591.012146,141.076279L591.008057,141.211441L591.003601,141.265259L590.995056,141.312759L590.970764,141.420074L590.956238,141.472183L590.936584,141.52243L590.916809,141.561722L590.872681,141.641006L590.844177,141.686798L590.811035,141.72934L590.773743,141.768478L590.739929,141.798035L590.675537,141.84964L590.631775,141.881241L590.584961,141.908249L590.546875,141.925842L590.31958,142.02034L590.250061,142.043747L590.018494,142.104401L589.94281,142.118591L589.706665,142.145065L589.629456,142.14798L589.388855,142.139938L589.332642,142.135162L589.121826,142.105606L589.074158,142.09671L588.85321,142.044937L588.812195,142.033493L588.581177,141.959503L588.546143,141.947037L588.305237,141.85083L588.275818,141.838013L588.024658,141.719772L587.99939,141.706955L587.737915,141.566513L587.716431,141.554382L587.444885,141.391876L587.42627,141.380264L587.144653,141.195557L587.140259,141.192474L586.446655,140.727371L586.296814,140.653214L586.138916,140.598877L585.971985,140.564529L585.590271,140.532913L585.554565,140.528641L585.395996,140.50473L585.357361,140.497375L585.209412,140.463715L585.167908,140.452606L585.030151,140.409378L584.984192,140.392639L584.857056,140.339493L584.81012,140.31694L584.693542,140.254227L584.645386,140.225006L584.539063,140.15239L584.492432,140.116684L584.396729,140.0345L584.346497,139.985107L584.216858,139.839874L584.182983,139.797836L584.161987,139.766739L584.060852,139.604416L584.034668,139.557083L584.01947,139.523422L583.94635,139.343842L583.928589,139.292923L583.920532,139.261993L583.875427,139.065323L583.86792,139.026199L583.64325,137.546646L583.637939,137.492813L583.637939,137.438828L583.643372,137.385162L583.654358,137.332367L583.670593,137.280762L583.691895,137.231216L583.718262,137.184052L583.744202,137.146637L583.345398,136.617798L583.337219,136.606522L583.170593,136.373108L583.165466,136.365936L583.008789,136.138504L583.003662,136.130814L582.856567,135.909195L582.850708,135.900482L582.713501,135.684677L582.707703,135.675278L582.580261,135.465286L582.574097,135.454681L582.45636,135.250336L582.450073,135.239227L582.342041,135.041016L582.335388,135.028198L582.237122,134.835632L582.229126,134.819229L582.146729,134.643066L582.132202,134.609055L582.06012,134.422119L582.049011,134.39035L581.987,134.193161L581.978271,134.162399L581.926331,133.954636L581.919861,133.924896L581.878296,133.706528L581.873901,133.679871L581.842285,133.45108L581.839355,133.425613L581.817993,133.186401L581.816467,133.162994L581.805176,132.913345L581.805176,132.866531L581.842957,131.983994L581.8479,131.930176L581.858337,131.877197L581.874023,131.825592L581.895081,131.775879L581.920837,131.728378L581.951294,131.683777L581.968872,131.662933L581.132141,130.691544L581.114197,130.669327L581.015747,130.541855L580.993896,130.511612L580.913086,130.390305L580.890015,130.352188L580.826599,130.237198L580.802002,130.186447L580.756226,130.077606L580.733337,130.011475L580.705322,129.908966L580.693848,129.856155L580.689758,129.826599L580.679138,129.730225L580.675903,129.676407L580.677612,129.629593L580.684814,129.539719L580.691772,129.486053L580.704102,129.433609L580.721863,129.382507L580.744446,129.333649L580.78186,129.272812L580.967957,129.011383L581.001404,128.969009L581.039001,128.930389L581.044312,128.925949L580.735535,128.388229L578.950989,126.118393L578.919861,126.07431L578.89325,126.027328L578.871704,125.977951L578.855103,125.926514L578.843872,125.873718L578.837891,125.820068L578.837524,125.766068L578.842468,125.712418L578.852905,125.659439L578.868652,125.607666L578.889465,125.557953L578.915283,125.51062L578.945862,125.466019L578.98053,125.424667L579.019348,125.387253L579.028076,125.380417L577.099609,123.690002L577.060852,123.65242L577.026123,123.611069L576.995728,123.566467L576.96991,123.518967L576.94928,123.469238L576.933533,123.417465L576.923096,123.364502L576.918152,123.310852L576.918823,123.256851L576.924622,123.203201L576.936096,123.150406L576.952698,123.099136L576.974548,123.049591L577.001221,123.002777L577.032471,122.958694L577.06781,122.918015L577.1073,122.881287L577.165588,122.838562L577.458618,122.652832L577.730103,122.46077L577.988647,122.25676L578.235229,122.0401L578.402527,121.87709L578.555237,121.714249L578.69281,121.55278L578.812439,121.395752L578.91748,121.240433L579.009583,121.084595L579.083435,120.937988L579.152954,120.771042L579.156189,120.763535L579.216675,120.624451L579.237183,120.582413L579.318542,120.432892L579.338013,120.399918L579.440369,120.240158L579.457642,120.214874L579.581177,120.04451L579.596008,120.024857L579.740417,119.843918L579.753906,119.82785L579.919312,119.636475L579.930908,119.623322L580.117371,119.421524L580.127747,119.410583L580.335388,119.198196L580.354492,119.179749L581.913147,117.736755L581.943604,117.711288L581.779236,117.783401L581.759216,117.791779L581.569885,117.865768L581.552124,117.872421L581.345703,117.944702L581.330322,117.949829L581.106873,118.020569L581.093201,118.024673L580.852417,118.093872L580.830872,118.099518L580.452087,118.191437L580.429688,118.196396L580.041504,118.273117L580.019592,118.276871L579.622131,118.338379L579.600952,118.341293L579.194153,118.387589L579.173828,118.389481L578.757751,118.420746L578.737915,118.421936L578.312622,118.438004L578.293457,118.438339L577.858643,118.439194L577.840881,118.439026L577.39679,118.425018L577.370789,118.423477L576.924805,118.387589L576.899353,118.385025L576.452515,118.327454L576.427917,118.323685L575.980286,118.244583L575.955811,118.239624L575.507446,118.138641L575.48407,118.132828L575.034851,118.009979L575.012634,118.003311L574.562561,117.858932L574.540833,117.85141L574.089905,117.68515L574.06958,117.677292L573.617981,117.489334L573.595093,117.47908L573.0849,117.237991L573.0625,117.226715L572.591248,116.976395L572.567139,116.962891L572.134705,116.703506L572.108215,116.686417L571.714661,116.417648L571.671631,116.38501L571.632141,116.348267L571.596619,116.307602L571.565369,116.263519L571.538879,116.216537L571.516968,116.167145L571.501099,116.118286L571.013611,114.338852L570.972412,114.352524L570.919617,114.364136L570.865967,114.370285L570.811951,114.37114L570.758301,114.366531L570.7052,114.356445L570.653381,114.34108L570.603516,114.320572L570.55603,114.295105L570.51123,114.264862L570.454529,114.21582L569.381958,113.146179L569.380432,113.144653L569.210754,112.974121L569.199829,112.962677L569.052185,112.80513L569.03833,112.789917L568.913269,112.645706L568.897217,112.626236L568.794189,112.495346L568.773315,112.46698L568.692505,112.349075L568.666687,112.307724L568.608276,112.203156L568.578064,112.13942L568.55481,112.080811L567.549927,112.495178L567.847229,112.87468L567.855774,112.885956L568.007324,113.090317L568.024414,113.114746L568.166077,113.330032L568.180908,113.353958L568.313354,113.580368L568.326355,113.603943L568.445801,113.834106L568.519104,113.970123L568.611511,114.130737L568.726501,114.322449L568.865784,114.546967L569.029663,114.804977L569.214172,115.090164L569.422485,115.40712L569.422668,115.40712L569.654846,115.75621L569.663391,115.769531L570.423401,116.988693L570.449585,117.035843L570.466797,117.074814L570.50647,117.17511L570.520447,117.21817L570.769592,116.832169L570.801208,116.788254L570.836914,116.74794L570.876709,116.711365L570.919983,116.678909L570.966125,116.651047L571.014954,116.627991L571.065918,116.610046L571.118347,116.597397L571.171814,116.589874L571.225647,116.587997L571.279663,116.591583L571.332764,116.600479L571.384888,116.614822L571.435303,116.634308L571.500244,116.668823L571.824524,116.871307L571.841614,116.882416L572.160156,117.098557L572.176392,117.110184L572.489075,117.339996L572.504761,117.351959L572.811462,117.595276L572.826538,117.607574L573.127441,117.864731L573.141602,117.87738L573.436523,118.148209L573.449707,118.160858L573.73877,118.445175L573.751587,118.457993L574.034912,118.756165L574.045837,118.768127L574.272583,119.021866L574.284363,119.035538L574.497131,119.290298L574.509094,119.305161L574.707458,119.560959L574.719238,119.576843L574.903625,119.833664L574.915405,119.850754L575.085571,120.108414L575.097229,120.126709L575.253357,120.385391L575.264832,120.405212L575.406799,120.664932L575.417603,120.685959L575.54541,120.946533L575.555664,120.968567L575.669434,121.230179L575.679016,121.253754L575.778625,121.516388L575.787354,121.541153L575.872803,121.80481L575.88031,121.830093L575.951721,122.094604L575.958191,122.121262L576.015442,122.386795L576.020569,122.414124L576.06366,122.680511L576.067383,122.708023L576.096436,122.975433L576.098694,123.003799L576.113342,123.272232L576.113708,123.326233L576.108398,123.380051L576.097839,123.432846L576.081909,123.484451L576.060913,123.533997L575.337646,125.026031L575.335571,125.030136L575.162476,125.37973L575.159058,125.386566L574.988037,125.719757L574.984253,125.726944L574.815613,126.043732L574.811523,126.051254L574.645264,126.351639L574.640442,126.360001L574.47644,126.644165L574.47113,126.653397L574.309326,126.92131L574.303162,126.931046L574.143738,127.182571L574.13678,127.193512L573.230774,128.548325L573.22583,128.555511L573.086426,128.75679L573.080444,128.765335L572.951965,128.943375L572.943726,128.954315L572.825989,129.108948L572.815613,129.122284L572.708801,129.253677L572.694458,129.270599L572.598755,129.378754L572.575684,129.403183L572.490784,129.487762L572.454712,129.520569L572.38092,129.581741L572.329651,129.619339L572.293091,129.642914L572.244873,129.670425L572.191589,129.697418L572.163025,129.710922L572.092957,129.741333L572.075012,129.748688L571.98822,129.782684L571.975769,129.787476L571.872192,129.825058L571.863159,129.82814L571.743042,129.869324L571.735168,129.872055L571.598145,129.916656L571.592651,129.918365L571.439087,129.966537L571.38678,129.980042L571.356018,129.985504L571.086548,130.024643L571.05188,130.131439L571.036987,130.171753L570.387695,131.731964L570.422058,131.772964L570.452271,131.817734L570.477783,131.865417L570.498413,131.915298L570.513794,131.966904L570.523865,132.02005L570.528992,132.093521L570.528992,133.113953L570.526123,133.170166L570.495178,133.46167L570.492126,133.485428L570.449036,133.769409L570.444763,133.794006L570.389404,134.070816L570.383972,134.095261L570.316772,134.364716L570.309631,134.39035L570.230164,134.652466L570.221802,134.678085L570.130371,134.932678L570.120483,134.958145L570.01709,135.205383L570.005493,135.231018L569.889954,135.470917L569.877991,135.494507L569.666992,135.88237L569.661499,135.89212L569.433899,136.290405L569.42865,136.299469L569.184265,136.708191L569.179138,136.716553L568.917908,137.135696L568.913086,137.143219L568.635254,137.572952L568.630493,137.580124L568.335754,138.020294L568.331482,138.026611L568.019958,138.477371L568.015686,138.483521L567.712952,138.908813L566.985535,140.542999L566.816528,140.955307L566.67865,141.314987L566.555603,141.664078L566.458557,141.970444L566.384399,142.242813L566.332825,142.477417L566.30188,142.677841L566.289063,142.862717L566.285461,142.897751L566.263611,143.058701L566.25354,143.111847L566.244995,143.143463L566.1922,143.315353L566.16687,143.381485L566.083008,143.564133L566.056519,143.614548L565.941162,143.807968L565.919128,143.841797L565.839172,143.955429L565.80896,143.994553L565.725037,144.092972L565.686768,144.133301L565.599121,144.21669L565.550598,144.25769L565.458984,144.32605L565.399536,144.364487L565.304199,144.417633L565.234619,144.450089L565.135193,144.488022L565.059814,144.51059L564.956604,144.53331L564.879211,144.544586L564.771912,144.552109L564.717957,144.553131L564.6875,144.551254L564.539551,144.538086L564.486084,144.530579L564.433777,144.517761L564.301331,144.478119L564.250427,144.460007L564.191162,144.431122L564.07428,144.364838L564.028625,144.335785L563.976868,144.293915L563.875549,144.200974L563.837585,144.162521L563.803955,144.120483L563.769287,144.065979L563.655823,143.860931L563.627808,143.868622L563.574463,143.877518L563.52063,143.881104L563.466675,143.879044L563.394531,143.867767L562.796509,143.731766L562.773071,143.725952L561.688049,143.426926L561.645874,143.413437L561.534668,143.372589L561.485107,143.35141L561.450745,143.33313L561.365967,143.28392L561.32074,143.254517L561.262268,143.205307L561.203857,143.14859L561.167114,143.109116L561.13446,143.066055L561.097534,143.003006L561.065613,142.938583L561.044067,142.889038L561.027649,142.837601L561.016541,142.784805L561.011414,142.739868L561.010071,142.720901L561.00885,142.667068L561.013123,142.613251L561.022888,142.560104L561.034363,142.518936L561.042725,142.492966L561.061829,142.442551L561.082886,142.399841L561.100952,142.366852L561.130005,142.320038L561.157715,142.28006L561.179749,142.250504L561.217346,142.203506L561.232056,142.185913L561.279175,142.131912L561.290955,142.118927L561.348022,142.057755L561.357117,142.048355L561.420471,141.983765L561.420349,141.983597L562.009827,141.371201L564.558533,138.411575L564.529114,138.372284L564.501465,138.325974L564.478394,138.2771L564.460571,138.226181L564.447937,138.173737L564.442322,138.136826L564.242554,136.420959L564.239685,136.387115L564.216064,135.935349L564.215393,135.918091L564.207031,135.494843L564.207031,135.475189L564.213684,135.080826L564.214539,135.058105L564.23645,134.692276L564.238831,134.665787L564.275879,134.328827L564.280151,134.297897L564.332458,133.989655L564.339966,133.953262L564.407654,133.673889L564.419434,133.63237L564.502136,133.381882L564.512207,133.353851L564.638123,133.033646L564.642578,133.022873L564.789551,132.671921L564.793274,132.662857L564.961243,132.281311L564.964661,132.273788L565.153809,131.861649L565.156738,131.855667L565.366699,131.412781L565.369263,131.407318L565.600464,130.933838L565.602661,130.929214L565.854736,130.425156L565.85675,130.421219L566.129822,129.886398L566.156799,129.839584L566.188232,129.795837L566.224121,129.755356L566.263794,129.718781L566.307007,129.686493L566.353333,129.65863L566.402161,129.635574L566.453125,129.61763L566.505554,129.604813L566.559021,129.597473L566.612854,129.595581L566.66687,129.599167L566.720032,129.608231L566.772095,129.622406L566.822327,129.641891L566.870544,129.666504L566.916016,129.695709L566.916321,129.695892L567.092163,128.840179L567.105652,128.787888L567.124451,128.737305L567.148193,128.688782L567.162537,128.664185L567.242859,128.536194L567.228516,128.533463L567.176758,128.518082L567.126831,128.497757L567.079163,128.47229L567.034241,128.442215L566.992737,128.407867L566.954773,128.369431L566.920959,128.327225L566.891724,128.281937L566.866943,128.233932L566.843384,128.171051L566.78595,127.983612L566.773315,127.934052L566.727173,127.707825L566.721008,127.671432L566.685852,127.406235L566.682922,127.378387L566.658691,127.074417L566.657104,127.04895L566.646851,126.727203L566.646729,126.700714L566.65271,126.369232L566.653687,126.344116L566.675903,126.002716L566.678162,125.979141L566.716736,125.628006L566.719482,125.60614L566.774353,125.245255L566.777954,125.224579L566.849182,124.854141L566.853271,124.835175L566.940918,124.454987L566.94519,124.437393L567.049072,124.047638L567.05542,124.026108L567.153137,123.713074L567.159302,123.694443L567.27771,123.359039L567.283386,123.343658L567.422302,122.985687L567.427551,122.972351L567.586975,122.591995L567.591919,122.580719L567.772034,122.177643L567.776672,122.167557L567.977417,121.741928L567.981689,121.733215L568.103333,121.486984L567.817322,121.564911L567.764709,121.576523L567.71106,121.582672L567.665955,121.583191L567.62561,121.600616L567.574036,121.616852L567.53418,121.625565L566.911011,121.73732L566.857544,121.744156L566.803589,121.745514L566.749756,121.741409L566.696594,121.73201L566.644653,121.717148L566.594421,121.697159L566.54657,121.672211L566.501465,121.642487L566.459595,121.608475L566.421509,121.570206L566.387329,121.528519L566.357605,121.483398L566.341675,121.454697L566.191833,121.160797L566.055481,120.896973L565.931641,120.661346L565.823425,120.4599L565.721985,120.276215L565.642517,120.137466L565.56665,120.011536L565.508911,119.922165L565.481873,119.875519L565.459839,119.826141L565.442749,119.775055L565.430969,119.72226L565.424622,119.668594L565.423767,119.614777L565.428223,119.560959L565.438293,119.507813L565.453491,119.456039L565.473999,119.406143L565.499329,119.358475L565.529358,119.313705L565.548889,119.288925L565.604553,119.222977L565.598083,119.215454L565.567139,119.171371L565.540649,119.124207L565.519165,119.074661L565.502747,119.023224L565.491089,118.967178L565.445984,118.669876L565.36554,118.362473L565.36261,118.351547L565.337158,118.245087L565.327393,118.191956L565.322815,118.13829L565.325012,118.070633L565.335266,117.962814L565.34314,117.909332L565.356323,117.85704L565.374756,117.806122L565.420898,117.696594L565.444275,117.648071L565.483093,117.58725L565.565125,117.476013L565.611389,117.421158L565.715454,117.313858L565.770996,117.26413L565.855774,117.198181L564.884033,116.746399L564.851379,116.729828L564.468811,116.518967L564.454956,116.511108L564.099365,116.300949L564.084351,116.291718L563.755615,116.082397L563.738525,116.071121L563.436768,115.86232L563.418457,115.848999L563.143555,115.641052L563.123352,115.624985L562.875427,115.417892L562.853394,115.398407L562.632141,115.191833L562.608215,115.168076L562.414124,114.962357L562.392761,114.938263L562.220703,114.732361L562.206482,114.7146L562.033386,114.488525L562.021423,114.472305L561.847351,114.226074L561.837219,114.21138L561.661743,113.944824L561.653076,113.931152L561.476563,113.644272L561.469177,113.63179L561.291504,113.324738L561.285156,113.313629L561.106079,112.98642L561.100464,112.97583L560.920349,112.628281L560.915771,112.619217L560.779053,112.34259L560.776001,112.336258L560.652954,112.078766L560.649353,112.071075L560.540039,111.832718L560.535889,111.823654L560.440247,111.604263L560.435242,111.592636L560.353394,111.392212L560.348267,111.378708L560.279968,111.197418L560.273621,111.179993L560.21875,111.01767L560.211243,110.993744L560.170227,110.850555L560.158142,110.798096L560.151306,110.744446L560.149902,110.69046L560.153992,110.636627L560.163391,110.583496L560.178284,110.531723L560.198242,110.481476L560.223206,110.43364L560.256897,110.383224L561.790283,108.344254L561.802368,108.328522L561.977539,108.1129L561.980774,108.109131L562.150818,107.903748L562.154358,107.899307L562.319275,107.704346L562.323181,107.699738L562.483154,107.515015L562.487427,107.510071L562.642212,107.335602L562.647522,107.329971L562.797363,107.165939L562.802856,107.159958L562.947754,107.00618L562.953735,107.000015L563.093323,106.856491L563.100342,106.849319L563.234985,106.716034L563.243164,106.708176L563.372681,106.585327L563.38208,106.576614L563.506653,106.464005L563.517578,106.454269L563.637024,106.352081L563.649475,106.341827L563.763794,106.249908L563.778809,106.238113L563.888184,106.156448L563.905945,106.143799L564.010193,106.072372L564.032043,106.058197L564.131165,105.997192L564.146729,105.987961L564.339783,105.87793L564.35791,105.868011L564.538513,105.7742L564.561584,105.762924L564.729919,105.685532L564.75824,105.673569L564.914063,105.612564L564.949829,105.599915L565.093323,105.555145L565.139099,105.543198L565.27002,105.514832L565.328613,105.505432L565.447205,105.493301L565.522217,105.490906L565.628174,105.49501L565.681824,105.499786L565.734924,105.51004L565.78656,105.525589L565.836426,105.546265L565.867554,105.563019L565.974854,105.302948L565.997925,105.254257L566.025757,105.207947L566.046448,105.179245L566.207031,104.972321L566.22583,104.949585L566.408142,104.739761L566.425598,104.720627L566.629639,104.507553L566.645691,104.491486L566.871216,104.275345L566.883362,104.264069L567.117249,104.053391L567.136902,104.036636L567.37085,103.845612L567.39325,103.828171L567.627136,103.656967L567.6521,103.639709L567.885864,103.488312L567.914185,103.471237L568.147949,103.339661L568.179382,103.323257L568.412964,103.211517L568.448181,103.196304L568.681763,103.104553L568.720215,103.091049L568.953918,103.019287L568.981445,103.011597L569.255005,102.94342L569.277222,102.938461L569.542908,102.884125L569.566711,102.879852L569.824707,102.839188L569.850159,102.83577L570.100159,102.808609L570.128479,102.806381L570.370789,102.793045L570.40033,102.792206L570.634766,102.792374L570.666931,102.793396L570.893677,102.807236L570.927856,102.810303L571.146545,102.837814L571.199707,102.847214L571.251465,102.862091L571.301697,102.88208L571.349548,102.906845L571.394653,102.936584L571.405396,102.945297L571.481262,102.89267L571.513245,102.87233L571.631653,102.802277L571.660706,102.786224L571.791565,102.719406L571.817383,102.707108L571.960754,102.643372L571.988403,102.631927L572.282288,102.520523L572.339233,102.502579L572.622009,102.430298L572.689148,102.417648L572.960815,102.384338L573.03772,102.380569L573.298462,102.386383L573.352295,102.39032L573.405457,102.399536L573.457397,102.41423L573.507629,102.434235L573.553772,102.458496L573.699158,101.732635L573.71228,101.680359L573.730774,101.629608L573.744629,101.601242L573.743896,101.600891L573.713989,101.579712L573.356079,101.306656L573.328857,101.284454L572.982544,100.982346L572.957947,100.959457L572.623352,100.628311L572.601501,100.60524L572.278564,100.244888L572.259094,100.221817L572.145081,100.079132L572.138428,100.079987L571.897339,100.094009L571.818726,100.092804L571.593872,100.072647L571.540405,100.065125L571.507385,100.057602L571.298462,100.003265L571.246826,99.987045L571.210266,99.971832L571.017212,99.883316L570.96936,99.858368L570.935364,99.83667L570.758301,99.713821L570.715637,99.680847L570.690674,99.658112L570.529358,99.501251L570.476746,99.44162L570.331299,99.250427L570.291321,99.189758L570.172913,98.979935L570.148865,98.93158L570.136353,98.900482L570.061157,98.694244L570.045288,98.642639L570.0354,98.594971L570.003235,98.392151L569.99762,98.338501L569.99762,98.279037L570.008728,98.079803L570.014343,98.026138L570.027344,97.966858L570.081665,97.77121L570.098755,97.71994L570.120117,97.672104L570.217896,97.479874L570.24469,97.43306L570.265869,97.402649L570.288086,97.372742L570.274231,97.365051L570.22998,97.334122L570.189148,97.29892L570.1521,97.259628L570.11908,97.216904L570.090576,97.171112L570.066833,97.122589L570.041687,97.049805L569.979004,96.813492L569.967896,96.760513L569.962097,96.706863L569.961731,96.652863L569.964661,96.621948L569.949402,96.593414L569.928955,96.54335L569.913574,96.491745L569.904175,96.442017L569.863159,96.416046L569.820618,96.382721L569.781616,96.345306L569.746765,96.304123L569.716187,96.259705L569.690369,96.212708L569.551819,95.926849L569.53949,95.899506L569.409973,95.588699L569.400085,95.562897L569.280151,95.227142L569.272461,95.203903L569.161865,94.843018L569.154236,94.815338L569.063477,94.449677L569.057007,94.42012L568.990845,94.069672L568.985535,94.036011L568.944214,93.70076L568.940979,93.663681L568.924072,93.343643L568.923523,93.301956L568.931213,92.997131L568.934326,92.951843L568.966431,92.662048L568.974121,92.613174L569.03064,92.33876L569.044006,92.28717L569.125183,92.027786L569.138489,91.990189L569.250732,91.707581L569.260132,91.685532L569.384705,91.40889L569.395142,91.386856L569.532166,91.116196L569.543945,91.094498L569.693787,90.829651L569.707458,90.80658L569.816833,90.634171L569.829651,90.615036L569.939331,90.457489L569.955078,90.436142L570.065125,90.293808L570.084229,90.270401L570.194641,90.143265L570.218018,90.118149L570.328735,90.006058L570.357788,89.978546L570.469055,89.881668L570.504578,89.853302L570.616333,89.771622L570.658508,89.743774L570.673035,89.735062L571.230591,88.944794L571.234009,88.939835L571.36438,88.759399L571.388,88.729156L571.523987,88.566833L571.552185,88.535736L571.693481,88.391861L571.727295,88.360413L571.874268,88.234665L571.913208,88.204239L572.065674,88.096603L572.110901,88.067886L572.268616,87.978699L572.318726,87.953751L572.482056,87.882843L572.536072,87.862854L572.704712,87.810394L572.708313,87.809189L572.913696,87.746826L573.132019,87.668396L573.37793,87.569122L573.615601,87.464386L573.880432,87.288391L574.149048,87.043182L574.186462,87.011917L574.317688,86.912476L574.33667,86.898804L574.462097,86.81218L574.484802,86.797302L574.604248,86.723495L574.632935,86.706924L574.746582,86.646088L574.781067,86.629349L574.888733,86.581329L574.931641,86.56424L575.033447,86.529037L575.086609,86.513672L575.182617,86.491287L575.247375,86.480347L575.337463,86.470779L575.391418,86.46788L575.445251,86.470261zM582.275635,91.155045L581.776978,91.515755L582.026794,91.901535L582.512878,92.621986C582.678772,92.298897,582.774231,92.037529,582.799316,91.838844C582.824402,91.540825,582.779053,91.312248,582.662354,91.155045C582.554382,90.989159,582.42511,90.989159,582.275635,91.155045zM567.665039,119.136002L567.764343,118.973969L567.614868,119.011581C567.490417,119.060776,567.348633,119.164932,567.190491,119.322144C567.016907,119.496704,566.945496,119.707924,566.979248,119.956757C566.995667,120.146759,567.062195,120.312637,567.178894,120.453453L567.440308,120.752434L567.677551,121.050453L568.088379,120.938576L567.852112,120.628021L567.577271,119.993408C567.494324,119.769653,567.469238,119.60376,567.502991,119.496704L567.665039,119.136002zM566.979248,118.538994L566.417969,119.085846L565.95697,119.632698C566.115112,119.865128,566.40155,120.391724,566.817261,121.212479L567.440308,121.100601L567.32843,121.013809C567.170227,120.889389,566.995667,120.669495,566.804688,120.354111C566.588684,120.005936,566.500916,119.75325,566.542358,119.596046C566.567444,119.479347,566.750671,119.289352,567.091125,119.024124C567.390137,118.791687,567.510681,118.646049,567.45282,118.588181C567.369873,118.505241,567.294678,118.463768,567.228088,118.463768L566.979248,118.538994zM585.029297,112.826141L585.013062,112.871429L584.935364,113.061264L584.924561,113.086044L584.84668,113.251785L584.831299,113.281677L584.753357,113.423508L584.730835,113.46109L584.652893,113.578827L584.618042,113.625473L584.5401,113.719116L584.485291,113.776001L584.407349,113.845551L584.365295,113.879379L584.321045,113.908264L584.243164,113.953705L584.195129,113.978485L584.144897,113.998306L584.113647,114.007874L584.035889,114.0289L583.983093,114.040344L583.929443,114.046326L583.875427,114.047012L583.846191,114.044952L583.80127,114.04068L583.747803,114.032822L583.695496,114.019669L583.644775,114.001389L583.635376,113.996948L583.506531,114.575333L583.492371,114.62677L582.657166,117.151703L582.637634,117.202103L582.61322,117.250122L582.583862,117.295578L582.550171,117.337769L582.51239,117.376221L582.470886,117.410736L582.445435,117.42868L582.324829,117.508652L582.293884,117.527786L582.156006,117.606216L582.148804,117.60997L582.201416,117.599884L582.255066,117.595108L582.309082,117.595795L582.362732,117.601944L582.415527,117.613388L582.466797,117.63031L582.516174,117.652176L582.562988,117.679001L582.606934,117.710266L582.6474,117.745987L582.684143,117.785446L582.716797,117.82869L582.744812,117.874817L582.767883,117.923508L582.792664,117.998352L582.960938,118.670044L582.993408,118.538986L583.01001,118.48465L583.064514,118.334793L583.087402,118.281143L583.157593,118.138809L583.186462,118.087723L583.272583,117.952911L583.274841,117.94931L583.872864,117.02919L583.877686,117.022003L584.057556,116.754776L584.07312,116.732895L584.263977,116.478134L584.280884,116.456604L584.482727,116.214142L584.500977,116.193466L584.713379,115.963654L584.721558,115.954758L584.897034,115.7733L584.881714,115.763382L584.839478,115.729721L584.801025,115.691971L584.766357,115.650436L584.736267,115.60585L584.710632,115.558167L584.690125,115.508286L584.674744,115.456512L584.66449,115.403534L584.659912,115.349716L584.660583,115.295715L584.666931,115.242233L584.678528,115.189438L584.692017,115.147064L584.978394,114.363968L585.003662,114.305527L585.107056,114.10202L585.123291,114.072464L585.233704,113.885529L585.253296,113.854782L585.370544,113.684082L585.394775,113.651611L585.519043,113.497314L585.548218,113.463837L585.679626,113.325943L585.713501,113.293472L585.851685,113.171814L585.891357,113.14003L586.03656,113.034943L586.080505,113.006409L586.189514,112.942856L586.179077,112.939087L586.132629,112.919785L586.009949,112.861862L585.968933,112.840332L585.847107,112.769241L585.802002,112.739685L585.766418,112.711487L585.379578,112.3759L585.340637,112.338486L585.305603,112.297302L585.263733,112.233566L585.230286,112.173599L585.029297,112.826141zM582.574646,89.948502C582.641174,89.533783,582.59967,89.181755,582.450195,88.891457C582.334473,88.659981,582.167603,88.469017,581.951599,88.319527C582.001709,88.593437,581.939026,88.80851,581.764465,88.966682C581.515625,89.198151,581.224365,89.31871,580.891602,89.327393C580.551147,89.327393,580.248352,89.219368,579.982117,89.003334C579.250122,88.35714,578.731262,88.021507,578.423584,87.996429C578.191162,87.971359,577.883484,88.045624,577.50061,88.220184L576.815796,88.27034L576.366394,87.797752C575.901489,87.266335,575.577454,87.001106,575.394226,87.001106C575.161743,87.009789,574.866638,87.154457,574.50885,87.437042L574.209839,87.709991L573.87323,87.933746C573.473938,88.116028,573.13739,88.245262,572.863464,88.319527C572.406311,88.435265,572.007019,88.74678,571.666565,89.252159L571.043518,90.135605C570.743591,90.292816,570.449402,90.612053,570.158142,91.092354C569.949829,91.44149,569.776245,91.806053,569.63446,92.187019C569.38562,92.858284,569.397156,93.691574,569.672058,94.686905C569.812866,95.184563,569.979736,95.615677,570.170654,95.98024C570.244934,95.366844,570.503418,94.811317,570.943237,94.313652L571.803528,93.50544L571.117798,93.032852C570.860291,92.792702,570.73584,92.568947,570.743591,92.361588C570.760925,92.046204,570.864136,91.76844,571.05603,91.52829C571.313538,91.205193,571.695496,91.039307,572.20282,91.030624L573.100708,91.205193L573.848145,91.292L574.658325,90.35936C575.115479,89.811546,575.49353,89.580078,575.793457,89.663025L576.628723,89.998657L577.226685,90.234947C577.392578,90.301498,577.534363,90.301498,577.651062,90.234947L577.962585,90.035301C578.220093,89.878098,578.385986,89.791298,578.461182,89.774902L579.109314,89.836624C579.267456,89.894493,579.550049,90.106674,579.957092,90.471237L580.580139,91.043167C580.837646,91.209053,581.096069,91.295853,581.353638,91.304535L581.54071,91.266922L581.564819,91.292C581.773132,91.266922,581.943848,91.175301,582.075989,91.018089C582.342163,90.736465,582.509033,90.379616,582.574646,89.948502zM580.717041,119.570969C580.135498,120.151573,579.778625,120.619339,579.645569,120.976189C579.46228,121.465172,579.113159,121.950294,578.598145,122.431564C578.249023,122.754654,577.867065,123.040138,577.451416,123.288971L580.842468,126.261444L580.455688,126.559456L579.370667,125.788849L581.179016,128.089096L581.864746,129.283096L581.402771,129.320709L581.216675,129.582077C581.174194,129.813553,581.319824,130.112534,581.652588,130.477097L582.712524,131.70871L582.375916,132.006729L582.338318,132.889221C582.354736,133.569153,582.479126,134.137238,582.712524,134.593414C582.961365,135.098801,583.314331,135.66687,583.771484,136.296661L584.906677,137.802185L584.86908,138.274765L584.170776,137.466553L584.395508,138.94603C584.437012,139.21994,584.552734,139.447556,584.744629,139.629837C584.985779,139.862274,585.338745,139.99054,585.80365,140.015625C586.136353,140.023331,586.440186,140.106277,586.714111,140.26445L587.437439,140.749573C588.202271,141.271347,588.858093,141.5578,589.40686,141.606979C589.730896,141.640747,590.042419,141.581909,590.342407,141.43338C590.441711,141.383224,590.487061,141.25882,590.47937,141.060135L590.254639,140.910645L590.042419,140.761154L590.242065,140.724503L590.429199,140.674347C590.387695,140.434204,590.283569,140.102417,590.117676,139.679993C589.710693,139.505417,589.15802,139.298065,588.459778,139.057907C587.745117,138.809082,587.291809,138.668274,587.10083,138.635483C586.800903,138.594009,586.53949,138.195679,586.314819,137.441467C586.132507,136.819397,586.040894,136.292801,586.040894,135.861679L586.152771,134.282867C586.202942,133.420639,586.165283,132.760941,586.040894,132.304749C585.924194,131.865921,585.770813,131.480133,585.579895,131.148361C585.43811,130.899536,585.351318,130.775116,585.317566,130.775116L584.806396,130.514709L584.894165,129.830902C585.009888,128.992798,584.997314,128.366852,584.856506,127.953102C584.764893,127.679199,584.624084,127.592392,584.43219,127.691734C584.332825,127.740921,584.246033,127.820007,584.170776,127.928024L584.046387,129.917709L583.272888,130.426941C583.614319,128.528885,583.79657,127.251938,583.821655,126.597076C584.187195,126.546921,584.374329,125.913269,584.382996,124.694183C584.390686,123.326584,584.071472,122.041916,583.422363,120.839233L582.487793,118.973969L582.275635,118.128136L580.717041,119.570969zM572.264526,91.44149C571.824707,91.449203,571.533447,91.685501,571.392639,92.149406C571.243164,92.647064,571.508362,93.020309,572.190247,93.269142L572.302124,93.343407C572.352295,93.409958,572.327209,93.476501,572.227905,93.543053C571.778442,93.866142,571.429321,94.160309,571.180481,94.425529C570.615295,95.038933,570.365479,95.686081,570.432068,96.366028C570.631714,95.793137,570.901733,95.283905,571.243164,94.836395C571.675232,94.313652,571.970337,94.015633,572.127563,93.940407L572.339783,93.95295C572.389893,94.010811,572.37738,94.06868,572.302124,94.127518L572.028259,94.387917L571.466919,94.972382C571.15155,95.320557,570.827454,95.888618,570.494751,96.676582L570.557434,96.91288C570.789856,96.315872,571.084961,95.814354,571.441833,95.408318C571.699341,95.109337,571.945313,94.901978,572.177734,94.78624C572.260681,94.744766,572.314697,94.769844,572.339783,94.860504C572.35614,94.943451,572.310791,95.02639,572.20282,95.109337L571.653992,95.581924C571.437988,95.83075,571.126465,96.303337,570.719482,96.99968L570.768616,97.074905L570.968262,97.099022C571.076294,97.140488,571.092712,97.223434,571.018433,97.347847C570.469666,97.83683,570.382874,98.363426,570.756104,98.927643C571.12262,99.48317,571.657898,99.673164,572.364807,99.499565C573.178833,100.576866,574.118225,101.343613,575.182007,101.799805C575.971924,102.140259,576.537109,102.347618,576.877563,102.421883C577.91626,102.645638,578.855652,102.525078,579.695679,102.061172C581.083557,101.290565,582.05957,100.129356,582.624756,98.579468C583.164856,97.103844,583.211182,95.644608,582.761719,94.201775C582.479126,93.314476,581.993042,92.448387,581.303467,91.602554C580.970703,91.594841,580.651489,91.490677,580.343811,91.292L579.695679,90.694992C579.304138,90.330429,579.046631,90.12693,578.92218,90.085457C578.67334,89.993835,578.33197,90.110535,577.899902,90.433624C577.675171,90.558044,577.434998,90.612053,577.176514,90.595657L576.441589,90.408554L575.444336,90.471237C575.070129,90.619766,574.737427,90.885956,574.447083,91.266922C574.321716,91.44149,574.143311,91.536003,573.910889,91.553368L573.299377,91.503212L572.264526,91.44149zM571.978088,96.714203L572.240417,96.477905L572.42749,96.502014C572.476685,96.568565,572.468994,96.626434,572.402466,96.676582L572.25293,96.82608C572.161316,96.933136,572.115051,97.020897,572.115051,97.086479C572.115051,97.169426,572.065857,97.215721,571.965515,97.223434C571.873901,97.223434,571.828613,97.169426,571.828613,97.06237C571.828613,96.979424,571.878723,96.862724,571.978088,96.714203zM572.389893,95.681259C572.439087,95.74781,572.414978,95.818214,572.314697,95.89344L572.289612,95.917557L571.878723,96.241615L571.542114,96.664047C571.425415,96.829933,571.355042,96.875267,571.329956,96.801003C571.304871,96.750847,571.333801,96.647652,571.416748,96.490448L571.679077,96.079582C571.83728,95.888618,572.015686,95.740097,572.215332,95.632072C572.28186,95.59832,572.339783,95.615677,572.389893,95.681259zM578.959839,99.896919L579.695679,99.896919L579.957092,99.87281C580.023621,99.87281,580.061218,99.885345,580.06897,99.909462L579.99469,99.997223L579.60791,100.246056C579.408264,100.353111,579.171997,100.38205,578.897156,100.332855C578.731262,100.316467,578.656006,100.241234,578.67334,100.1091C578.689758,99.968292,578.785278,99.896919,578.959839,99.896919zM581.116333,92.224632L580.16925,92.323975C580.086304,92.332649,580.019775,92.311432,579.969604,92.262245C579.919434,92.212097,579.899231,92.149406,579.906921,92.075142L579.919434,91.863922L580.007202,91.701897C580.065063,91.669098,580.131653,91.669098,580.205872,91.701897L581.141418,92.087677C581.216675,92.120468,581.249451,92.149406,581.240784,92.174477L581.116333,92.224632zM575.743347,92.733864L575.31897,92.970161L574.832886,93.306755C574.666992,93.431175,574.55896,93.492897,574.50885,93.492897C574.442261,93.319298,574.55896,93.041534,574.857971,92.659607L575.31897,92.137833C575.452087,92.046204,575.556213,92.058746,575.63147,92.174477L575.817627,92.361588C575.934326,92.486,575.979614,92.568947,575.955505,92.610413L575.743347,92.733864zM580.268616,94.425529C580.24353,94.226852,580.29364,94.003098,580.418091,93.754265C580.53479,93.514114,580.655334,93.38102,580.779785,93.355942C580.896484,93.339546,581.037292,93.442749,581.204102,93.667465C581.369995,93.89122,581.465515,94.10244,581.49054,94.301117C581.515625,94.475685,581.46936,94.582741,581.353638,94.624214L580.991943,94.686905L580.567566,94.724518C580.393005,94.69944,580.29364,94.600098,580.268616,94.425529zM580.840454,94.119049L580.826477,94.166046L580.885071,94.160919L580.856201,94.106232L580.850037,94.097183L580.840454,94.119049zM575.469421,95.457504C575.252441,95.466187,575.136719,95.3871,575.1203,95.221214C575.095215,95.031212,575.178162,94.782387,575.369141,94.475685C575.552368,94.185379,575.70575,94.032028,575.830139,94.015633C575.963257,93.990562,576.15033,94.098579,576.391479,94.33873C576.648987,94.57888,576.756958,94.7901,576.715515,94.972382C576.682739,95.138268,576.574707,95.246292,576.391479,95.29644L575.955505,95.35817L575.469421,95.457504zM580.032288,95.681259C580.14032,95.781563,580.156738,95.897301,580.081482,96.029434L579.620483,96.813538C579.487366,96.987144,579.304138,97.037292,579.071716,96.962067C579.005127,96.954353,578.963684,96.929276,578.947266,96.887802C578.92218,96.846329,578.926086,96.797142,578.959839,96.738312L579.346558,96.153847C579.420837,96.021713,579.416992,95.897301,579.334045,95.781563L578.772705,94.997459C578.547974,94.674362,578.357056,94.330048,578.198853,93.965485L578.174744,93.815994L578.23645,93.74173C578.319397,93.708939,578.398499,93.754265,578.473755,93.878685L579.021545,94.686905L579.620483,95.29644L580.032288,95.681259zM575.294861,98.429977C575.261108,98.296883,575.306458,98.185005,575.431824,98.094345L576.528381,97.174248C576.653809,97.091301,576.695251,97.116379,576.653809,97.248512L576.540955,97.59668C576.524536,97.654549,576.5448,97.712418,576.603638,97.771248L576.790771,97.858047C577.887329,98.081802,578.702332,98.185005,579.233704,98.16861L580.605164,97.907242L581.378662,97.670944L581.528198,97.571602C581.569641,97.522415,581.58606,97.464554,581.577393,97.398003L581.553223,97.248512C581.535889,97.116379,581.582214,97.095161,581.690186,97.186783L582.163757,97.609222C582.2052,97.650696,582.230286,97.704697,582.238037,97.771248C582.255371,97.83683,582.246704,97.89566,582.213928,97.944855L581.776978,98.727997C581.710449,98.852409,581.669006,98.848549,581.652588,98.716423L581.640076,98.603577C581.640076,98.545715,581.61499,98.504242,581.564819,98.480125C581.523376,98.455055,581.474182,98.455055,581.415344,98.480125L580.705505,98.976822C580.131653,99.324997,579.60791,99.532356,579.134399,99.598907C578.652161,99.665451,578.000183,99.544891,577.176514,99.238197L576.079956,98.753067C575.93042,98.720276,575.817627,98.769463,575.743347,98.902565L575.780945,99.387688C575.70575,99.519821,575.647827,99.515961,575.606384,99.375145L575.294861,98.429977zM581.589905,97.883125C581.54071,97.858047,581.478027,97.858047,581.402771,97.883125L580.617737,98.119423C580.019775,98.276627,579.524963,98.368248,579.134399,98.392365C578.519043,98.426117,577.708923,98.326782,576.703003,98.094345C576.445435,98.069267,576.254517,98.110741,576.130066,98.218758C576.029785,98.309418,576.013367,98.392365,576.079956,98.46759L576.292114,98.603577L578.137146,99.138855C578.378235,99.180328,578.702332,99.180328,579.109314,99.138855L580.043884,98.952713L581.452942,98.293022C581.560974,98.260231,581.631348,98.16861,581.665161,98.019119C581.672852,97.953529,581.648743,97.907242,581.589905,97.883125zM565.008911,133.548904C564.767761,134.178711,564.689636,135.11615,564.772583,136.359344L564.972229,138.075119L565.52002,138.112732L562.40387,141.7314L561.804932,142.353485C561.613953,142.544434,561.527161,142.660172,561.543579,142.701645C561.568665,142.792313,561.664124,142.863678,561.830017,142.912857L562.915039,143.211853L563.513,143.347839L563.94989,142.875244L564.099365,143.560013L564.236328,143.807892C564.360779,143.949661,564.527588,144.020065,564.734985,144.020065C565.026245,144.020065,565.275085,143.858032,565.483398,143.534943C565.657959,143.269714,565.748596,143.033417,565.757324,142.826065C565.765991,142.312012,566.010986,141.482574,566.493164,140.338715L567.240662,138.659592L567.240662,138.647049L567.253174,138.635483C568.151123,137.391327,568.869629,136.26001,569.409729,135.239609C569.733765,134.609818,569.929565,133.90094,569.996094,133.113937L569.996094,132.093536L569.360535,132.354904L569.871704,131.584305L570.544861,129.966904L570.681824,129.544464L571.279785,129.457672C571.711914,129.32457,571.965515,129.229095,572.040771,129.171219C572.223022,129.039093,572.52301,128.657166,572.937744,128.027374L573.536621,127.132347C573.952332,126.526665,574.393066,125.747375,574.857971,124.793533L575.581299,123.301506C575.539856,121.867355,574.895569,120.47467,573.648499,119.123459C572.901062,118.310417,572.090942,117.643013,571.218079,117.121239L570.656738,117.99118C570.681824,118.497528,570.627808,118.970108,570.494751,119.408936C570.336548,119.948074,570.091614,120.341568,569.75885,120.590408C569.542786,120.764969,569.265076,120.91832,568.923645,121.050453C568.250427,122.336082,567.798096,123.380592,567.564697,124.184952C567.265747,125.237183,567.141296,126.18718,567.190491,127.032043C567.215576,127.463158,567.269592,127.791077,567.353516,128.014832L568.126038,127.255798L568.338196,127.255798C568.479004,127.273163,568.549438,127.327164,568.549438,127.417831C568.549438,127.492096,568.404724,127.737061,568.113464,128.151779L567.614868,128.947464L567.402649,129.979431L567.265747,131.160904L567.32843,131.820587C567.353516,132.01059,567.332275,132.131149,567.265747,132.181305L567.028442,132.367447C566.962891,132.400238,566.929138,132.325974,566.929138,132.143692C566.929138,131.986481,566.821106,131.314255,566.605042,130.128937C565.848938,131.595871,565.316528,132.73587,565.008911,133.548904zM569.895813,129.4702C570.104126,129.486603,570.22467,129.540604,570.257507,129.631271C570.29126,129.722885,570.166809,130.087463,569.884216,130.725922L569.447327,131.671112C569.247681,131.447342,569.21875,131.294006,569.360535,131.21106C569.459839,131.153183,569.535095,130.891815,569.58429,130.426941C569.63446,130.013199,569.643127,129.689133,569.609375,129.457672L569.895813,129.4702zM565.458313,106.861298C565.599121,106.314445,565.649292,106.036682,565.607788,106.028C565.341614,105.995209,564.942322,106.136024,564.410889,106.451401C563.895874,106.74942,563.163879,107.487228,562.216797,108.664841L560.683289,110.703712C560.774902,111.060562,561.011169,111.619949,561.394104,112.382843C561.876282,113.336693,562.345032,114.074509,562.802185,114.596275C563.284424,115.144089,564.053101,115.699623,565.109192,116.262863L566.580017,116.946671L567.078613,117.245651L567.539612,117.581284L567.066101,117.5186L566.542358,117.419258C566.30127,117.5186,566.118958,117.643013,565.994568,117.792503C565.86145,117.941994,565.823853,118.086662,565.881714,118.227478L565.969482,118.56311L566.018677,118.887169L566.605042,118.476303C566.995667,118.203362,567.236816,118.066406,567.32843,118.066406L567.764343,118.128136L568.01416,118.190826L567.888794,117.195503L567.963989,116.959206L568.063354,116.809715C568.147217,116.809715,568.225342,116.888802,568.300598,117.046005C568.374878,117.211899,568.412476,117.39032,568.412476,117.581284C568.412476,117.846512,568.512756,118.095345,568.711426,118.327782L568.99884,118.351891C569.189819,118.393356,569.285278,118.484985,569.285278,118.625793C569.285278,118.840874,569.247681,119.077164,569.173401,119.334671C569.081787,119.624985,568.986328,119.74939,568.885986,119.707924C568.820435,119.682846,568.820435,119.542038,568.885986,119.284523C568.952576,119.053055,568.940002,118.936356,568.849365,118.936356C568.325684,118.936356,568.063354,119.053055,568.063354,119.284523L568.026672,119.769653C568.018005,119.960617,568.059448,120.101425,568.151123,120.193047L568.350769,120.465988L568.587036,120.714821L569.185974,120.528679L569.547607,120.304924C569.821533,119.956757,569.992249,119.405083,570.058777,118.650871C570.116699,117.970924,570.087708,117.51088,569.971008,117.270729L569.21106,116.051651C568.561951,115.081406,568.151123,114.426529,567.976501,114.087044C567.818359,113.762985,567.636047,113.468826,567.427734,113.203598L566.716919,112.296036C566.193237,111.599701,565.404297,111.027771,564.348206,110.5793C564.007751,110.430771,563.667297,110.347824,563.325928,110.331429L562.889954,110.293816C562.839783,110.243668,562.96521,110.178078,563.26416,110.095139L563.974976,110.032448C563.865967,109.709351,563.920959,109.31971,564.137024,108.863518L564.497742,108.253983C564.348206,109.440262,564.348206,110.090317,564.497742,110.207016C564.839111,110.314072,565.375366,110.662239,566.106445,111.251526L567.116211,112.097359L568.475159,111.537003L569.484924,110.268738L568.363281,109.038086C568.3797,108.8722,568.541687,108.888596,568.849365,109.087273L569.63446,109.646667L570.606628,110.207016C571.080139,110.430771,571.463074,110.562897,571.753357,110.60437L573.012939,110.567719L574.458679,110.467422L576.267029,110.629448L577.675171,110.72879C577.833313,110.695999,578.01178,110.596657,578.211365,110.430771L578.461182,110.207016L578.398499,110.567719C578.340637,110.832947,578.25769,111.019089,578.149658,111.127113C578.049377,111.226448,577.813049,111.259239,577.438843,111.226448L576.328735,111.127113L575.232178,111.102036L573.972595,111.213913C573.723755,111.255386,573.33313,111.396194,572.800781,111.636345C572.393738,111.819595,572.003174,111.89386,571.628967,111.861069C571.213257,111.819595,570.540039,111.334473,569.609375,110.405693L569.023926,111.7733C569.031677,111.964264,569.276611,112.296036,569.75885,112.768623L570.83136,113.838211C570.980835,113.282684,571.134155,113.154411,571.292358,113.452423C571.375305,113.609634,571.446655,113.829529,571.504517,114.111153L572.015686,115.977386C572.514343,116.341949,573.117126,116.681442,573.82312,116.996819C575.028687,117.527275,576.225586,117.825294,577.413757,117.891846C578.610657,117.949707,579.707275,117.846512,580.705505,117.581284C581.369995,117.399002,581.852234,117.199356,582.151245,116.984283L582.98645,114.45932L583.460022,112.333649C583.551636,112.274818,583.614319,112.453247,583.647095,112.867966C583.688599,113.315475,583.771484,113.531509,583.896912,113.514153C584.104248,113.490044,584.312561,113.207451,584.519958,112.669281L584.768738,111.861069L584.881592,111.1763C584.199707,111.508072,583.680847,111.724113,583.323059,111.823448C583.065552,111.889999,582.66626,111.848526,582.12616,111.699036L580.891602,111.388481L579.820129,111.139648C579.46228,111.022949,579.283875,110.932289,579.283875,110.865738C579.283875,110.782799,579.31665,110.699852,579.38324,110.616913C579.467102,110.51757,579.550049,110.484779,579.632996,110.51757L580.493286,110.853203C580.83374,110.977615,581.141418,111.040314,581.415344,111.040314L582.375916,110.96508L583.373169,110.865738C583.67218,110.840668,584.141846,110.708534,584.781311,110.467422L586.377502,109.821228C586.768066,109.664024,587.009216,109.584938,587.10083,109.584938L587.113342,109.646667C586.863586,110.028587,586.224121,110.484779,585.193115,111.015228L585.72937,111.972946L586.116089,112.308578C586.440186,112.515938,586.771973,112.581512,587.113342,112.507256L588.933289,111.985481C589.7724,111.794518,590.283569,111.868782,590.466797,112.209236C590.042419,112.126289,589.356689,112.303757,588.409607,112.743546C587.437439,113.191055,586.800903,113.402275,586.501892,113.378159C586.086243,113.593239,585.745789,113.98288,585.479553,114.547089L585.193115,115.330231L585.691772,114.994598C586.007141,114.787239,586.148926,114.725517,586.116089,114.807495L585.866333,115.355309C585.675354,115.694794,585.421692,116.01886,585.105347,116.325554C584.815063,116.623573,584.552734,116.955353,584.320313,117.319916L583.722351,118.240013C583.596924,118.414581,583.513977,118.609406,583.472534,118.824478L584.382996,120.702286C584.698364,121.299286,584.923096,121.921364,585.056152,122.567551C585.288635,122.526077,585.463196,122.460495,585.579895,122.368874C585.770813,122.228058,586.327332,122.265671,587.250305,122.480743L587.637085,122.567551C587.694946,122.518364,587.761475,122.356339,587.835754,122.083389L588.110596,121.187408L587.885925,120.341568C587.802979,120.034874,587.702637,119.852592,587.586914,119.794724L587.324585,119.819801C587.167358,119.861267,587.075745,119.927818,587.050659,120.018478L587.050659,120.453453L587.025635,120.839233C586.984131,120.847916,586.838501,120.602943,586.589661,120.105286L586.116089,119.707924C586.082336,119.674164,586.078491,119.574829,586.103577,119.408936L586.202942,119.123459L587.075745,118.327782C587.624512,117.779968,588.177185,117.18779,588.733643,116.549316C589.822571,115.272362,590.412781,114.359985,590.504395,113.813141C590.703125,114.036888,590.391602,114.848969,589.568909,116.250328L588.883179,117.431793C588.758728,117.705704,588.825317,117.738495,589.082825,117.531136C589.7724,116.967888,590.841003,115.827896,592.286743,114.111153C592.145935,113.638565,591.754333,112.615273,591.114929,111.040314C591.081177,110.948685,591.127441,110.894676,591.251892,110.878281C591.410034,110.861885,591.492981,110.828125,591.501648,110.778938C591.518066,110.721069,591.46405,110.584122,591.339661,110.36808L591.114929,109.908035C590.92395,109.253159,590.520813,108.631088,589.905518,108.042763L589.020142,107.34642L588.858093,107.930885C588.742371,108.311844,588.654602,108.477737,588.596741,108.428543C588.521484,108.378395,588.418274,107.844086,588.285217,106.823685C588.243713,106.700233,588.164612,106.5382,588.047913,106.339523C587.799133,105.9412,587.470215,105.567955,587.063232,105.219788C586.656189,104.880295,586.181702,104.627609,585.641602,104.461716L584.943359,104.312225L583.148499,104.6604L583.596924,104.361412L584.071472,104.050858L583.946106,103.839638C583.79657,103.648682,583.547729,103.475075,583.198608,103.316902C582.815735,103.134621,582.550476,103.056496,582.400024,103.080612L582.288147,103.180916L582.201355,103.441315L582.113586,103.66507L581.926514,103.379593L581.764465,103.068069L581.341064,101.327217C580.817383,101.767014,580.289795,102.106506,579.757446,102.347618C577.887329,103.026596,576.042297,102.856857,574.222412,101.837418L573.935913,103.267715C573.927246,103.300507,573.827942,103.255173,573.635986,103.13076L573.286865,102.91954C572.946411,102.885788,572.577026,102.956192,572.177734,103.13076C571.978088,103.213707,571.812195,103.304367,571.679077,103.404663L572.302124,103.715225C572.726501,103.93898,572.921326,104.079788,572.88855,104.137657C572.863464,104.196487,572.659973,104.196487,572.277039,104.137657L571.329956,104.013245L570.681824,104.050858C570.515015,104.050858,570.424316,104.021927,570.406982,103.964058C570.390564,103.906189,570.507263,103.78949,570.756104,103.615883L571.080139,103.36705C570.507263,103.275429,569.850464,103.329437,569.110718,103.529083C568.487671,103.694008,567.864624,104.072075,567.240662,104.6604C566.925293,104.950699,566.667786,105.232323,566.46814,105.506226L566.093872,106.413788C565.877869,107.043579,565.823853,107.458298,565.931885,107.656982C566.355286,107.508453,566.812439,107.499771,567.303345,107.632866C567.785583,107.764999,567.980408,107.930885,567.888794,108.129562L567.539612,108.117027C567.240662,107.976212,566.995667,107.893272,566.804688,107.869156L566.018677,107.955963C565.703308,108.013824,565.516174,108.013824,565.458313,107.955963C565.308838,107.806473,565.308838,107.441902,565.458313,106.861298zM576.591125,104.063393C576.807129,104.503189,576.877563,104.772278,576.803284,104.871613C576.736755,104.970955,576.598816,105.008568,576.391479,104.98349C576.175415,104.967094,576.067383,104.888008,576.067383,104.7472L575.768433,103.926437C575.635315,103.529083,575.689331,103.33812,575.93042,103.354515C576.137817,103.370911,576.358643,103.607208,576.591125,104.063393zM579.109314,107.781395C578.851807,107.002106,578.868164,106.612465,579.159485,106.612465C579.31665,106.612465,579.420837,106.736877,579.471008,106.98571L579.582886,107.91835C579.649414,108.282913,579.649414,108.726563,579.582886,109.249306C579.516296,109.763359,579.429504,110.012192,579.321472,109.994835C579.246277,109.978439,579.208618,109.68428,579.208618,109.11235C579.208618,108.441086,579.175842,107.997437,579.109314,107.781395zM577.625977,104.871613C577.54303,104.548523,577.538208,104.208061,577.613403,103.85218C577.679993,103.504005,577.771606,103.354515,577.887329,103.404663C577.921082,103.421066,577.982788,103.760551,578.074463,104.424103C578.15741,105.087654,578.344482,105.468613,578.635742,105.567955L579.159485,105.593033C579.300293,105.576637,579.370667,105.613281,579.370667,105.70491C579.370667,105.986526,579.167175,106.085869,578.760193,106.00293C578.511353,105.953735,578.290466,105.841858,578.099487,105.667297C577.867065,105.459938,577.708923,105.19471,577.625977,104.871613zM577.114807,115.939774L576.341309,115.902161C576.166748,115.819214,576.146484,115.703476,576.279602,115.553986C576.403992,115.404495,576.749268,115.29744,577.314453,115.230896C577.845886,115.173027,578.299133,115.17688,578.67334,115.243431C579.894409,115.483582,580.518372,115.687088,580.54248,115.852974C580.559875,115.96003,580.414246,115.997635,580.106567,115.964851L579.071716,115.852974L577.114807,115.939774zM579.769958,113.738876C580.410339,113.937546,580.742126,114.13623,580.767212,114.335876L580.16925,114.37252L579.071716,114.248108L577.874817,114.285721L577.027039,114.248108C576.844727,114.181557,576.807129,114.033035,576.915161,113.800598C577.039551,113.551765,577.363647,113.427353,577.887329,113.427353C578.493958,113.427353,579.121826,113.531509,579.769958,113.738876zM579.894409,106.998253C579.778625,106.865158,579.890503,106.637543,580.230957,106.314445C580.538635,106.032822,580.858826,105.812927,581.191589,105.654755L582.849487,104.834L583.596924,104.722122C583.996216,104.698013,584.195862,104.734657,584.195862,104.834C584.195862,104.909225,583.979858,105.050041,583.547729,105.257401L582.288147,105.829323L580.879089,106.675156C580.322571,107.014648,579.99469,107.122665,579.894409,106.998253zM577.725281,106.650078C577.592224,106.765816,577.47168,106.823685,577.363647,106.823685C577.297058,106.823685,576.981689,106.646225,576.416504,106.289368C575.817627,105.908409,575.381653,105.684654,575.107788,105.618103L573.486511,105.219788C572.771851,105.028824,572.414978,104.884155,572.414978,104.784813C572.414978,104.669075,572.447754,104.586136,572.514343,104.53598C572.589539,104.469437,572.730347,104.436646,572.937744,104.436646C573.1875,104.436646,574.068054,104.734657,575.581299,105.331665C577.118652,105.937347,577.887329,106.318306,577.887329,106.47551L577.725281,106.650078zM580.68042,113.576843L579.719788,113.029991L579.009949,112.768623L578.198853,112.681824C578.016602,112.698219,577.3974,112.950905,576.341309,113.439888C575.410583,113.871002,574.911987,114.024353,574.845398,113.89994C574.753784,113.726334,575.149231,113.407097,576.029785,112.94223C576.911316,112.478317,577.663574,112.204414,578.286621,112.121468C578.810303,112.047211,579.458435,112.270966,580.230957,112.793701C580.621582,113.058929,580.958191,113.328011,581.240784,113.601913C581.240784,113.791916,581.05365,113.784203,580.68042,113.576843z"/>
</svg>
