<?xml version="1.0" encoding="UTF-8"?>
<svg xmlns="http://www.w3.org/2000/svg" xmlns:xlink="http://www.w3.org/1999/xlink" width="37.895mm" height="56.503mm" viewBox="-550.084351 87.259048 37.894653 56.503006">
    <path transform="matrix(-1,0,0,1,0,0)" style="stroke:none;fill:#000000;fill-rule:evenodd" d="M528.729492,87.26178L528.762939,87.26622L528.836243,87.278351L528.888916,87.28981L528.955872,87.312866L529.041992,87.349091L529.113098,87.385498L529.212158,87.445984L529.256287,87.476044L529.368164,87.560806L529.396729,87.583862L529.521606,87.692719L529.54126,87.710831L529.679138,87.843765L529.693848,87.858459L529.844543,88.015488L529.855835,88.027618L530.013367,88.202423L530.280823,88.476318L530.611267,88.452393L530.664246,88.429504L530.683533,88.421463L530.812866,88.371399L530.836609,88.362869L530.958984,88.322021L530.986511,88.313644L531.102173,88.281876L531.13446,88.274185L531.243286,88.25145L531.281372,88.244965L531.38324,88.231293L531.429382,88.22702L531.524719,88.22258L531.578369,88.222748L531.666687,88.227539L531.745972,88.237961L531.857422,88.261017L531.909668,88.274521L531.940613,88.285461L532.074402,88.336884L532.126343,88.359955L532.282349,88.439926L532.315857,88.458725L532.494202,88.567047L532.517273,88.581909L532.718079,88.718445L532.735168,88.730576L532.958313,88.895462L532.97113,88.905197L533.216675,89.09845L533.226563,89.106491L533.475891,89.312546L533.620422,89.411835L533.748779,89.471283L533.883545,89.506653L534.033569,89.519135L534.091858,89.515198L534.16156,89.50444L534.22583,89.488037L534.286621,89.466339L534.342834,89.43985L534.399109,89.406357L534.454102,89.366211L534.514099,89.313232L534.541443,89.286575L534.54657,89.279922L534.547913,89.277527L534.549133,89.274109L534.552002,89.261627L534.553711,89.243179L534.552856,89.211914L534.543823,89.14357L534.539368,89.089737L534.540588,89.035751L534.547058,88.982086L534.559021,88.929459L534.576294,88.878372L534.598511,88.829163L534.625671,88.782516L534.65741,88.73877L534.693298,88.698624L534.733276,88.662231L534.77655,88.629929L534.822998,88.602417L534.871887,88.579529L534.922791,88.561752L534.975403,88.549286L535.028931,88.542099L535.082886,88.54039L535.136719,88.544327L535.18988,88.553375L535.241821,88.567902L535.292236,88.587723L535.340027,88.612335L535.385315,88.641891L535.410461,88.661194L535.563721,88.786789L535.606628,88.826096L535.738708,88.960907L535.780212,89.008575L535.891113,89.152451L535.928528,89.207809L536.018433,89.360733L536.045593,89.413544L536.095154,89.524597L536.112549,89.568863L536.152344,89.684875L536.16571,89.72998L536.195618,89.850967L536.204468,89.894699L536.22467,90.02063L536.229797,90.063858L536.239868,90.194748L536.241394,90.23439L536.24176,90.370239L536.24054,90.407822L536.230957,90.548615L536.227356,90.583649L536.207703,90.729568L536.20343,90.756226L536.174744,90.909836L536.167053,90.944702L536.129272,91.091644L536.118225,91.128891L536.071045,91.26918L536.057373,91.30574L536.039429,91.348465L536.064392,91.369476L536.103821,91.406219L536.131714,91.437134L536.175293,91.489594L536.207581,91.532822L536.237976,91.584091L536.304626,91.712067L536.327148,91.761108L536.345764,91.816467L536.388184,91.970078L536.39978,92.022705L536.404724,92.058762L536.422668,92.238007L536.425049,92.307541L536.418762,92.512253L536.415833,92.55275L536.40918,92.614944L536.402039,92.662613L536.387634,92.734375L536.379272,92.769913L536.357239,92.850906L536.349548,92.876541L536.320007,92.966934L536.312988,92.986588L536.275879,93.086533L536.269592,93.102768L536.224976,93.21196L536.219543,93.225281L536.167236,93.34404L536.162598,93.354126L536.102966,93.482269L536.077698,93.529938L536.047791,93.57489L536.013428,93.616577L535.975159,93.65451L535.965759,93.662033L536.088623,93.92363L536.099548,93.948227L536.230774,94.268951L536.240723,94.295441L536.353149,94.618042L536.361877,94.645035L536.438049,94.908005L536.443542,94.928513L536.508606,95.191986L536.513428,95.213181L536.567383,95.477173L536.57135,95.498871L536.614075,95.763031L536.617126,95.784912L536.648743,96.049576L536.65094,96.071625L536.671448,96.336639L536.672668,96.35936L536.681885,96.624893L536.682251,96.647446L536.680176,96.913147L536.679504,96.935364L536.666321,97.201584L536.664795,97.223618L536.640564,97.490173L536.638123,97.512558L536.602417,97.779633L536.599182,97.800644L536.552551,98.067886L536.548279,98.089249L536.490173,98.356995L536.485413,98.377167L536.416199,98.645248L536.410706,98.664902L536.330444,98.933334L536.32428,98.952652L536.232483,99.22142L536.225159,99.241592L536.117493,99.51976L536.109131,99.540268L535.991943,99.809555L535.982666,99.829544L535.856262,100.089951L535.845459,100.110794L535.709473,100.36232L535.697998,100.382477L535.552795,100.625122L535.539795,100.645615L535.38501,100.879364L535.371338,100.899185L535.207275,101.124222L535.192078,101.144043L535.018494,101.360016L535.002563,101.378983L534.930481,101.460663L534.950989,101.500473L534.970825,101.55072L534.983643,101.594971L535.309326,102.929459L535.35321,102.915955L535.405518,102.902634L535.471985,102.893738L535.529236,102.889648L535.607117,102.889816L535.675659,102.894943L535.732178,102.902115L535.812195,102.916809L535.851624,102.92569L535.943054,102.949783L535.972778,102.958511L536.075317,102.991989L536.097351,102.99968L536.211487,103.042572L536.229065,103.049576L536.354492,103.101868L536.368347,103.107849L536.505188,103.169525L536.523987,103.178406L536.760986,103.296478L536.803528,103.320236L537.003967,103.444107L537.054871,103.479828L537.10907,103.522888L537.282471,103.332703L537.318542,103.296829L537.568848,103.070084L537.606445,103.038986L537.884277,102.830185L537.924438,102.802841L538.217651,102.621719L538.269592,102.593353L538.573242,102.449478L538.629456,102.426758L538.943359,102.319794L539.002991,102.303223L539.327087,102.233337L539.387756,102.223938L539.722168,102.191299L539.780579,102.188736L540.125244,102.193008L540.180237,102.196594L540.535156,102.237946L540.585205,102.246155L540.950195,102.324402L540.982483,102.332443L541.353455,102.436493L541.382141,102.445389L541.730408,102.564651L541.761475,102.576447L542.08667,102.710922L542.119629,102.725784L542.422058,102.875626L542.473999,102.905197L542.924072,103.194992L542.967834,103.226425L543.008301,103.262146L543.060974,103.321945L543.110474,103.387558L543.114441,103.382431L543.151489,103.343124L543.192322,103.307755L543.23645,103.276657L543.283447,103.250351L543.332947,103.228821L543.384399,103.212418L543.437195,103.201141L543.490845,103.195496L543.564819,103.196518L543.810059,103.216858L543.84082,103.220276L544.102417,103.257355L544.128723,103.261795L544.407227,103.315628L544.42981,103.320404L544.725037,103.390808L544.749634,103.397293L545.042358,103.48204L545.069885,103.490768L545.346863,103.587479L545.376038,103.598755L545.637512,103.707596L545.667542,103.721268L545.913452,103.842072L545.944885,103.85881L546.175232,103.991745L546.207153,104.011734L546.421936,104.156815L546.453369,104.179703L546.652771,104.336731L546.683899,104.36322L546.83783,104.504868L547.217712,104.761337L547.349792,104.849518L547.377808,104.869507L547.477234,104.945541L547.525269,104.987061L547.589661,105.049774L547.626404,105.089249L547.673035,105.154175L547.702942,105.203217L547.728577,105.250717L547.749451,105.30043L547.765137,105.352203L547.775574,105.405182L547.780334,105.458832L547.780701,105.492157L547.779846,105.532303L547.776062,105.586304L547.766663,105.639435L547.752136,105.691391L547.732361,105.741623L547.723999,105.758194L547.756592,105.784515L547.758667,105.786041L548.118164,106.078918L548.120239,106.080627L548.458557,106.358978L548.460938,106.360855L548.778076,106.624847L548.78064,106.62706L549.076599,106.876709L549.079834,106.87944L549.354553,107.114899L549.357849,107.117798L549.611389,107.33873L549.615845,107.342667L549.848022,107.549591L549.886475,107.587524L549.921021,107.629044L549.950928,107.673981L549.976379,107.721649L549.996704,107.771545L550.011902,107.823318L550.02179,107.876465L550.026245,107.930283L550.025391,107.984283L550.017029,108.048019L549.944214,108.428024L549.943726,108.430923L549.87146,108.797104L549.870789,108.800522L549.798828,109.152847L549.797974,109.156952L549.726196,109.49527L549.725525,109.498688L549.654419,109.823166L549.653442,109.827438L549.582703,110.138077L549.581665,110.142868L549.51123,110.439499L549.510071,110.444626L549.440002,110.727417L549.43866,110.732712L549.36908,111.00148L549.367371,111.007813L549.298035,111.262909L549.296326,111.269073L549.2276,111.510162L549.225403,111.517685L549.157043,111.744934L549.15448,111.753311L549.086487,111.966553L549.083374,111.975784L549.015747,112.175354L549.012146,112.185608L548.945007,112.37117L548.940369,112.383301L548.873596,112.554855L548.864502,112.576721L548.821289,112.674637L548.802002,112.713943L548.763733,112.784332L548.735535,112.830292L548.717224,112.855759L548.684082,112.898651L548.648865,112.939651L548.609741,112.97673L548.567017,113.009888L548.516296,113.041321L548.487915,113.056702L548.439209,113.079941L548.388306,113.098221L548.335999,113.111206L548.282532,113.118896L548.228516,113.121124L548.174744,113.117874L548.121399,113.109161L548.069275,113.095139L548.01886,113.076004L547.981445,113.057724L547.958252,113.045258L547.911926,113.017395L547.869385,112.985275L547.86731,112.994156L547.723267,113.560928L547.720398,113.572037L547.567444,114.123611L547.559265,114.150436L547.237183,115.112946L547.241089,115.136688L547.330444,115.153259L547.332825,115.144897L547.350464,115.093796L547.372986,115.044937L547.392822,115.01059L547.439148,114.936432L547.46991,114.892181L547.50238,114.854065L547.574646,114.777008L547.60199,114.750015L547.671021,114.686279L547.715271,114.649536L547.776611,114.604095L547.821533,114.574188L547.851929,114.557449L547.905579,114.530106L547.954834,114.508057L548.006104,114.49115L548.045044,114.481918L548.091187,114.47287L548.144653,114.465179L548.22052,114.463638L548.268372,114.466034L548.322021,114.471329L548.369873,114.480896L548.421631,114.493713L548.473206,114.50943L548.499023,114.519333L548.555054,114.542755L548.612976,114.571106L548.673157,114.605286L548.713806,114.63092L548.778076,114.675507L548.80896,114.698746L548.877319,114.753937L548.900757,114.773941L548.973206,114.839722L548.991455,114.857147L549.068054,114.933533L549.075012,114.940536L549.670654,115.557541L549.706055,115.598206L549.737305,115.642288L549.763794,115.689285L549.785522,115.738831L549.807739,115.813507L550.001648,116.695526L550.002319,116.698441L550.042297,116.885193L550.047607,116.913391L550.071228,117.062378L550.07666,117.112274L550.083679,117.223343L550.084351,117.277161L550.080261,117.326035L550.070679,117.39917L550.060974,117.452301L550.045898,117.504074L550.025757,117.554153L550.00061,117.60199L549.970703,117.646927L549.936523,117.688614L549.898254,117.72673L549.856262,117.760727L549.811157,117.790283L549.763306,117.815231L549.690186,117.842224L549.011475,118.038559L548.74884,118.123306L548.536804,118.201233L548.364563,118.275208L548.240845,118.339462L548.170776,118.38559L548.158997,118.396362L548.149414,118.410721L548.108276,118.481461L548.068115,118.540909L547.99292,118.637451L547.963013,118.672485L547.862183,118.781158L547.839111,118.804565L547.712341,118.925369L547.671509,118.960571L547.627258,118.991501L547.579956,119.017639L547.530396,119.039001L547.478943,119.055237L547.426147,119.066162L547.35437,119.072495L547.096008,119.077271L547.029724,119.074371L546.770691,119.04686L546.707153,119.036087L546.447205,118.97612L546.388611,118.95903L546.128052,118.866425L546.076477,118.845062L545.815002,118.719986L545.770447,118.695892L545.508301,118.538345L545.470398,118.513412L545.207581,118.323227L545.175964,118.298447L544.912292,118.075638L544.883606,118.0495L544.627319,117.79866L544.597229,117.766708L544.374756,117.509888L544.344543,117.471451L544.155884,117.208481L544.127197,117.163879L543.972168,116.894928L543.946045,116.843338L543.825073,116.568237L543.804077,116.511841L543.716736,116.230942L543.701721,116.170624L543.648071,115.88356L543.640198,115.821701L543.620361,115.528656L543.619507,115.474503L543.655579,114.410843L543.658813,114.36676L543.692322,114.081573L543.696411,114.053207L543.747864,113.754532L543.752991,113.729065L543.82251,113.416885L543.828003,113.394165L543.973022,112.856094L543.973572,112.853882L543.961914,112.853027L543.908997,112.84346L543.857056,112.828415L543.806946,112.808258L543.759094,112.783142L543.714172,112.753403L543.672302,112.719238L543.634216,112.680954L543.60022,112.639099L543.570679,112.593979L543.545715,112.546143L543.525696,112.495911L543.515625,112.462936L543.466614,112.28096L543.458374,112.24559L543.4198,112.05011L543.41449,112.01799L543.386292,111.80867L543.383057,111.778595L543.365784,111.55545L543.364441,111.527939L543.358765,111.309219L543.358948,111.275894L543.366638,111.067612L543.369202,111.031052L543.390198,110.83284L543.395996,110.793198L543.430359,110.60524L543.439758,110.56337L543.487244,110.385666L543.501099,110.341415L543.561951,110.173798L543.580933,110.12851L543.65509,109.971146L543.67865,109.926544L543.728394,109.842484L543.639343,109.852737L543.587036,109.856155L543.445251,109.858368L543.395142,109.856827L543.248901,109.845383L543.209106,109.840088L543.189087,109.881958L543.161072,109.928085L543.128418,109.971146L543.091736,110.010788L543.051208,110.046326L543.015137,110.072464L542.468384,110.436081L542.454346,110.445129L541.913025,110.781067L541.897522,110.790298L541.361511,111.09819L541.344727,111.107422L540.814026,111.387482L540.795715,111.396713L540.270508,111.648743L540.250977,111.657623L539.731079,111.881805L539.709839,111.89035L539.19519,112.08667L539.172485,112.094879L538.662964,112.263184L538.61084,112.277359L538.557678,112.286423L538.503845,112.290009L538.474487,112.289673L538.451599,112.288818L538.447632,112.289154L538.418945,112.294449L538.372986,112.30658L538.305847,112.328629L538.241577,112.35289L538.070007,112.906158L538.056519,112.944778L537.983398,113.129318L537.972473,113.154953L537.898682,113.316086L537.882751,113.347855L537.808105,113.485748L537.78418,113.525558L537.708618,113.640045L537.672607,113.688568L537.596375,113.779648L537.540161,113.837402L537.463257,113.905243L537.421082,113.938721L537.373718,113.968964L537.295837,114.013229L537.24762,114.037491L537.197205,114.056793L537.170227,114.064651L537.091614,114.085678L537.038818,114.096954L536.985168,114.102936L536.931213,114.103271L536.897522,114.100876L536.854126,114.096268L536.800842,114.087723L536.748718,114.074051L536.710449,114.059708L536.588928,114.604599L536.575439,114.65416L535.773376,117.108688L535.754089,117.159103L535.729614,117.207275L535.700562,117.252899L535.667114,117.295105L535.629333,117.333893L535.588013,117.368576L535.556396,117.390793L535.436096,117.468704L535.406189,117.486649L535.337341,117.525101L535.368225,117.522369L535.422241,117.523041L535.475891,117.529205L535.528503,117.540817L535.579773,117.557556L535.62915,117.579605L535.675964,117.606262L535.71991,117.637695L535.746704,117.660431L535.967834,117.861191L535.992615,117.885284L536.201233,118.100922L536.224304,118.126221L536.420105,118.356552L536.440979,118.38269L536.624146,118.627716L536.642944,118.654709L536.813293,118.914612L536.829712,118.941269L536.987427,119.215683L537.00177,119.24234L537.146851,119.531616L537.159119,119.557922L537.291382,119.861908L537.301636,119.88736L537.421265,120.206207L537.42981,120.230469L537.536743,120.563843L537.543762,120.587921L537.637756,120.936157L537.643188,120.958206L537.724731,121.321304L537.729126,121.342651L537.797852,121.720276L537.801086,121.740433L537.857117,122.132919L537.859497,122.152237L537.902588,122.559418L537.904114,122.576843L537.934692,122.998718L537.93573,123.01889L537.956726,123.627853L537.957092,123.656738L537.945801,124.238373L537.944275,124.26947L537.901062,124.824112L537.897278,124.857437L537.822449,125.385086L537.817993,125.412079L537.774414,125.636093L537.770325,125.655228L537.724854,125.850357L537.718384,125.875473L537.671082,126.041565L537.659973,126.075897L537.610718,126.212769L537.590942,126.260437L537.539856,126.368423L537.500366,126.437973L537.447388,126.516739L537.4151,126.559982L537.411011,126.56424L537.408936,126.59346L537.408081,126.602859L537.394592,126.757675L537.393921,126.765015L537.388611,126.81662L537.402954,126.811844L537.461426,126.799026L537.527039,126.788422L537.580688,126.78244L537.63446,126.782104L537.668823,126.784668L537.729309,126.791168L537.782654,126.79953L537.8349,126.81337L537.877808,126.829102L537.933533,126.852325L537.982178,126.875748L538.02832,126.903763L538.060608,126.927689L538.111206,126.968018L538.15155,127.003723L538.195618,127.052414L538.241394,127.109833L538.272827,127.15358L538.291626,127.185013L538.332458,127.259171L538.361389,127.320862L538.3974,127.412277L538.41449,127.462677L538.459961,127.623291L538.471252,127.671478L538.504578,127.85141L538.510559,127.892075L538.531738,128.091141L538.534119,128.125473L538.543152,128.344025L538.543701,128.372894L538.540588,128.61058L538.539734,128.635178L538.524536,128.892166L538.522827,128.913528L538.4953,129.189987L538.493103,129.208099L538.4552,129.490723L538.422729,129.790421L538.592712,129.877228L538.639526,129.904221L538.683289,129.935669L538.723755,129.971542L538.760315,130.011185L538.793335,130.05545L539.035767,130.417511L539.060242,130.45784L539.198303,130.709534L539.216553,130.746094L539.3396,131.017776L539.35376,131.052124L539.461792,131.343109L539.473022,131.376602L539.565308,131.686737L539.572998,131.715958L539.614502,131.891434L539.621338,131.924927L539.654358,132.118866L539.658264,132.146881L539.682861,132.359451L539.685059,132.383362L539.701294,132.614548L539.702515,132.635223L539.710388,132.884872L539.710571,132.902298L539.710205,133.170395L539.710022,133.185944L539.701294,133.472824L539.700623,133.486328L539.683533,133.791672L539.683044,133.799866L539.575378,135.308823L539.578613,135.431335L539.5896,135.580154L539.607361,135.733429L539.634338,135.90686L539.668152,136.083191L539.708862,136.264832L539.761963,136.473969L539.819397,136.677139L539.895935,136.914139L539.970581,137.108063L540.043762,137.264923L540.108826,137.376846L540.161133,137.446045L540.186768,137.47049L540.203186,137.475266L540.264648,137.488083L540.286194,137.493042L540.392456,137.519867L540.406311,137.523621L540.536865,137.560364L540.545776,137.562927L540.700562,137.609406L540.706909,137.611282L540.886108,137.667496L540.891907,137.669373L541.095276,137.735672L541.098877,137.736862L541.326477,137.812897L541.329712,137.813934L541.581543,137.899872L541.584473,137.900909L541.832214,137.987015L541.835327,137.988052L542.06958,138.071091L542.073303,138.072449L542.294067,138.152588L542.298218,138.154129L542.50531,138.231186L542.510071,138.233078L542.703491,138.307236L542.708801,138.30928L542.88855,138.380356L542.894531,138.382751L543.060608,138.45076L543.067444,138.453659L543.219849,138.5186L543.268372,138.542175L543.314331,138.570541L543.357056,138.603516L543.396362,138.640594L543.43158,138.681427L543.462646,138.725693L543.488953,138.772842L543.506897,138.813339L543.604126,139.059738L543.611633,139.079895L543.696594,139.323212L543.70343,139.344238L543.776184,139.584473L543.782166,139.606003L543.843201,139.842834L543.854126,139.895798L543.859436,139.949448L543.859436,140.003448L543.853943,140.057266L543.845093,140.099823L543.849182,140.106827L543.871582,140.156036L543.888794,140.207123L543.900757,140.25975L543.907288,140.3134L543.907593,140.384308L543.899231,140.519806L543.89325,140.573471L543.88623,140.608841L543.86145,140.714432L543.846436,140.766205L543.826294,140.816437L543.809021,140.850281L543.767334,140.925797L543.738953,140.971756L543.705994,141.014481L543.668884,141.053772L543.628601,141.088638L543.570313,141.134094L543.526062,141.165009L543.478882,141.191498L543.447815,141.205688L543.226501,141.298126L543.155945,141.322037L542.930603,141.380997L542.854736,141.395004L542.624878,141.420639L542.547852,141.423538L542.313904,141.41568L542.258545,141.411072L542.050415,141.382187L542.003296,141.373474L541.785767,141.323074L541.745056,141.311798L541.518005,141.239853L541.483154,141.227554L541.24646,141.134094L541.216919,141.121277L540.970886,141.006454L540.945251,140.993637L540.689636,140.857101L540.667908,140.844971L540.40271,140.687088L540.383789,140.675308L540.109009,140.495728L540.100281,140.489914L539.441284,140.040359L539.297241,139.971146L539.137939,139.917328L538.975098,139.883835L538.621582,139.855652L538.594116,139.852737L538.454468,139.83429L538.422729,139.829163L538.291626,139.803696L538.25592,139.795502L538.132935,139.762695L538.075317,139.743729L537.85437,139.656921L537.805176,139.634705L537.769836,139.614716L537.581848,139.499039L537.518311,139.453079L537.436768,139.384552L537.39679,139.347305L537.323486,139.271622L537.286926,139.229752L537.221863,139.146713L537.190247,139.101944L537.133484,139.011887L537.107727,138.966095L537.059021,138.868698L537.038513,138.822403L536.998169,138.718002L536.982971,138.672379L536.950989,138.560623L536.940735,138.5186L536.916992,138.399841L536.91272,138.37558L536.693848,136.937378L536.688538,136.883545L536.688538,136.829559L536.694031,136.775894L536.704956,136.723099L536.721191,136.671494L536.742554,136.621948L536.768677,136.574783L536.790588,136.543518L536.40918,136.043732L536.378967,135.999634L535.359375,134.34375L535.330505,134.2901L535.250366,134.118713L535.236023,134.08522L535.165771,133.903763L535.15448,133.871643L535.093994,133.679749L535.085266,133.648483L535.034912,133.44635L535.028564,133.417633L534.987915,133.205414L534.983276,133.178085L534.952515,132.955612L534.949646,132.930313L534.928772,132.697769L534.927246,132.674011L534.916321,132.431213L534.916321,132.384735L534.952515,131.526459L534.957458,131.472809L534.967896,131.41983L534.983643,131.36824L535.004456,131.318344L535.030273,131.271011L535.060669,131.22641L535.07074,131.214447L534.377563,130.410675L534.266846,130.285782L534.247009,130.262192L534.149292,130.138153L534.126892,130.107391L534.046936,129.989487L534.02179,129.948654L533.959778,129.836731L533.934326,129.784103L533.890076,129.678329L533.866638,129.609482L533.840149,129.509857L533.828918,129.457062L533.824463,129.421356L533.815918,129.327713L533.81366,129.273712L533.816589,129.223312L533.825806,129.135651L533.834167,129.082352L533.847839,129.030228L533.866821,128.97966L533.890747,128.931122L533.913452,128.894226L534.083801,128.640472L534.11615,128.597244L534.15271,128.557602L534.167542,128.544449L533.877441,128.039703L532.130127,125.83429L532.098694,125.790375L532.072021,125.743561L532.050171,125.694183L532.033386,125.642746L532.021973,125.590118L532.015808,125.536469L532.015137,125.482468L532.019897,125.42865L532.030151,125.375687L532.045715,125.323914L532.066345,125.274185L532.09198,125.226517L532.122437,125.181915L532.156921,125.140564L532.195374,125.103149L530.328613,123.475449L530.289673,123.438019L530.254822,123.396851L530.224426,123.352249L530.198608,123.304916L530.177612,123.25502L530.161865,123.203415L530.151428,123.150452L530.146301,123.096802L530.146667,123.042801L530.152466,122.989151L530.163757,122.936356L530.180298,122.884918L530.201843,122.835541L530.228333,122.788376L530.259583,122.744293L530.294983,122.703629L530.33429,122.666718L530.399048,122.619736L530.683899,122.444077L530.946838,122.26091L531.201965,122.060989L531.445068,121.848083L531.610474,121.687134L531.754517,121.533691L531.888672,121.376312L532.005737,121.223053L532.108093,121.072174L532.194336,120.925735L532.266785,120.781525L532.333984,120.619873L532.337891,120.610992L532.396851,120.476013L532.417664,120.433456L532.497131,120.288223L532.516418,120.255753L532.616394,120.100266L532.633301,120.075485L532.753601,119.909744L532.768982,119.889587L532.90979,119.71376L532.923096,119.697876L533.084412,119.511795L533.096191,119.498459L533.278015,119.302307L533.287903,119.291885L533.489868,119.08548L533.509033,119.067017L534.993164,117.69426L534.899048,117.735092L534.879761,117.74295L534.694031,117.814896L534.676941,117.821381L534.474792,117.891785L534.459412,117.896744L534.241028,117.965424L534.227722,117.969528L533.993103,118.036682L533.972778,118.041977L533.607117,118.131165L533.584534,118.136124L533.209473,118.210632L533.187805,118.214554L532.802979,118.274536L532.781433,118.277435L532.387085,118.32254L532.36676,118.324417L531.96283,118.355011L531.94281,118.356201L531.52948,118.371933L531.510559,118.372269L531.08783,118.373291L531.069519,118.373123L530.637207,118.359451L530.611755,118.35791L530.174683,118.323059L530.149536,118.320496L529.711975,118.264618L529.686829,118.260864L529.248901,118.183624L529.224792,118.178848L528.78656,118.080597L528.762939,118.074615L528.324158,117.955002L528.301758,117.948334L527.862793,117.807709L527.841492,117.800369L527.401978,117.638733L527.381287,117.630692L526.94165,117.447861L526.921509,117.43898L526.660583,117.317657L526.650696,117.312881L526.401917,117.190872L526.39093,117.18541L526.154297,117.062561L526.143005,117.05658L525.918335,116.933044L525.905701,116.925858L525.693481,116.801468L525.680664,116.79361L525.480408,116.668533L525.466187,116.65947L525.278259,116.533722L525.26355,116.523468L525.087708,116.397018L525.045532,116.363358L525.006897,116.325592L524.972412,116.284073L524.942322,116.239304L524.916687,116.191635L524.896179,116.141739L524.88562,116.108429L524.404236,114.395966L524.394836,114.399384L524.34259,114.412888L524.289124,114.420914L524.235291,114.423477L524.181274,114.420746L524.119568,114.410492L524.092957,114.40451L524.040833,114.390167L524.010559,114.379059L523.966003,114.361115L523.931824,114.345901L523.869629,114.315659L523.853882,114.307632L523.77356,114.265259L523.764038,114.260132L523.665955,114.205795L523.658752,114.201691L523.542725,114.135056L523.539001,114.132828L523.405029,114.054398L523.387268,114.04364L523.077148,113.845428L523.05249,113.82869L522.765259,113.621597L522.73999,113.60228L522.475159,113.386307L522.449524,113.363922L522.207397,113.139236L522.154236,113.082153L520.727478,111.304611L520.676086,111.315536L520.634399,111.320496L518.971619,111.453598L518.917664,111.455139L518.863831,111.451385L518.810669,111.441986L518.784058,111.43515L518.345093,111.310928L518.420105,111.688889L518.422791,111.703583L518.465027,111.952194L518.469299,111.981934L518.497314,112.231918L518.499695,112.261307L518.513916,112.513L518.514771,112.542725L518.514893,112.771866L518.718567,114.991104L518.776367,115.487656L518.776855,115.49176L518.799927,115.704834L518.800293,115.70842L518.819214,115.895172L518.819763,115.900482L518.834412,116.061264L518.835144,116.067932L518.845703,116.202744L518.846375,116.213501L518.852722,116.322006L518.853394,116.339783L518.855469,116.422134L518.853943,116.47818L518.84552,116.582245L518.835632,116.650421L518.810547,116.768661L518.797546,116.817703L518.755859,116.950302L518.742676,116.987366L518.684265,117.134323L518.672119,117.162689L518.596924,117.32399L518.585999,117.346024L518.49408,117.521515L518.484497,117.53894L518.375854,117.728943L518.367615,117.74295L518.242371,117.947144L518.235718,117.957565L518.090149,118.183121L518.076477,118.203445L517.93103,118.407471L517.914124,118.429855L517.768555,118.612854L517.747375,118.637802L517.601807,118.799438L517.575989,118.826096L517.43042,118.966721L517.397766,118.995941L517.252014,119.115204L517.211853,119.14476L517.066101,119.242844L517.017578,119.272064L516.871643,119.349121L516.822632,119.371857L516.771729,119.389618L516.719055,119.4021L516.669006,119.408752L516.256165,119.444809L516.202209,119.446869L516.126526,119.440369L515.519592,119.344513L515.466797,119.333405L515.415344,119.317001L515.365784,119.295471L515.318787,119.269165L515.314697,119.266251L515.309937,119.268982L515.260559,119.290863L515.20929,119.307602L515.156494,119.319046L515.102844,119.325211L515.048828,119.325882L514.994995,119.321106L514.962402,119.31546L514.549561,119.230881L514.497253,119.217392L514.446533,119.198593L514.40979,119.180481L514.372375,119.177917L514.319214,119.168518L514.281799,119.1586L513.687378,118.976974L513.636597,118.958527L513.587891,118.935104L513.541931,118.906921L513.498901,118.874283L513.459595,118.837372L513.424011,118.796707L513.392944,118.752625L513.366272,118.705627L513.344604,118.65625L513.328003,118.604828L513.316711,118.552017L513.31073,118.498367L513.309875,118.458893L513.314148,118.172516L513.315002,117.912125L513.312439,117.672211L513.306641,117.453339L513.297791,117.256836L513.286316,117.086823L513.271301,116.930481L513.25354,116.793945L513.249268,116.740128L513.250427,116.686127L513.25708,116.632645L513.269226,116.580017L513.286682,116.528931L513.309021,116.479721L513.336243,116.433243L513.368164,116.389496L513.404236,116.34935L513.444031,116.313126L513.48761,116.281006L513.533936,116.253494L513.567932,116.237091L513.645813,116.202911L513.642944,116.188553L513.637634,116.134903L513.637817,116.080917L513.643433,116.027084L513.654541,115.974289L513.666687,115.934311L513.76355,115.655441L513.817017,115.378983L513.819946,115.364456L513.842651,115.2621L513.856995,115.210159L513.876526,115.15976L513.90979,115.097214L513.965881,115.006653L513.996643,114.962234L514.031677,114.921051L514.067505,114.886368L514.157043,114.80777L514.199463,114.774277L514.25415,114.740097L514.376953,114.673294L514.425659,114.649887L514.46106,114.636551L514.597046,114.590591L514.620789,114.584274L513.99353,114.011688L513.954224,113.972046L513.667847,113.649612L513.651123,113.629623L513.392944,113.308563L513.375854,113.286011L513.145508,112.966309L513.128113,112.940674L512.925964,112.622528L512.908875,112.593643L512.734558,112.277023L512.717834,112.244049L512.571716,111.928787L512.556519,111.892746L512.438293,111.579025L512.42511,111.539047L512.3349,111.227036L512.324646,111.185333L512.273926,110.936035L512.268311,110.903412L512.23053,110.633087L512.227295,110.603867L512.20282,110.312195L512.201294,110.286743L512.190002,109.973877L512.189697,109.951157L512.191895,109.617111L512.192444,109.597626L512.207764,109.242386L512.208801,109.22496L512.237549,108.848358L512.238892,108.832993L512.280762,108.435379L512.282288,108.422729L512.343262,107.951645L512.345337,107.9366L512.418152,107.47731L512.421021,107.461426L512.505981,107.014252L512.509399,106.997513L512.606445,106.562469L512.620789,106.510529L512.640442,106.460297L512.665039,106.412109L512.694275,106.366837L512.728088,106.324631L512.765869,106.286179L512.807373,106.251663L512.831116,106.234924L513.18158,106.001343L513.189453,105.996216L513.536987,105.773239L513.545044,105.768112L513.889465,105.55571L513.89801,105.550583L514.239441,105.348785L514.248291,105.343674L514.586609,105.152466L514.596191,105.147171L514.931458,104.966553L514.94104,104.961609L515.27301,104.791412L515.28363,104.786118L515.612549,104.626526L515.625671,104.620377L515.938721,104.478897L515.95343,104.472412L516.254822,104.346985L516.271057,104.340668L516.560669,104.23114L516.579834,104.224304L516.858154,104.131012L516.879211,104.124344L517.145752,104.047104L517.169495,104.040787L517.424622,103.979446L517.451782,103.973816L517.695068,103.928528L517.726379,103.923569L517.958252,103.894531L517.992737,103.891281L518.213013,103.878128L518.252136,103.877274L518.460938,103.880173L518.504639,103.882568L518.701843,103.901535L518.749695,103.908371L518.935242,103.94339L518.986694,103.955704L519.160645,104.00679L519.214111,104.025757L519.376465,104.092911L519.429749,104.11853L519.580627,104.201584L519.633057,104.234558L519.772339,104.333832L519.814575,104.367325L519.853333,104.404907L519.888,104.446259L519.889526,104.448486L520.085693,104.279327L520.128235,104.246338L520.179321,104.214737L520.420105,104.084015L520.441467,104.07309L520.701721,103.94664L520.721863,103.937241L521.00177,103.815414L521.020203,103.807892L521.319885,103.690506L521.346924,103.680771L521.654297,103.579102L521.680115,103.571243L521.976563,103.489563L522.005798,103.482391L522.291809,103.4207L522.324463,103.414719L522.599731,103.373032L522.635925,103.368759L522.900635,103.347061L522.940247,103.345352L523.194153,103.343475L523.238098,103.345016L523.481567,103.363297L523.528015,103.368759L523.760925,103.407028L523.812866,103.41832L524.11377,103.49913L524.397949,103.574142L524.397949,103.57431L524.541809,103.611389L524.550537,103.578247L524.569519,103.527664L524.593567,103.479309L524.622314,103.433685L524.65564,103.391144L524.692871,103.352188L524.75592,103.30127L524.859314,103.230011L524.890869,103.209854L525.006409,103.141678L525.035095,103.125961L525.16272,103.060852L525.189575,103.048035L525.329163,102.986359L525.356018,102.97525L525.641724,102.867264L525.698059,102.849487L525.973206,102.779099L526.040527,102.766449L526.305176,102.733978L526.381897,102.730225L526.635803,102.735855L526.689636,102.739792L526.74292,102.749023L526.794861,102.763718L526.844971,102.783539L526.879456,102.801651L527.024719,102.107407L527.038391,102.055115L527.057373,102.004547L527.064331,101.990356L527.038391,101.971909L526.691528,101.706039L526.665039,101.684326L526.329285,101.390945L526.305359,101.368744L525.98053,101.047852L525.959167,101.025467L525.645264,100.676895L525.62616,100.654327L525.520203,100.522766L525.519348,100.522934L525.284729,100.536606L525.205994,100.535416L524.986938,100.515762L524.933472,100.50824L524.900635,100.500717L524.697144,100.447922L524.645691,100.431686L524.608948,100.416489L524.421021,100.330368L524.373169,100.305588L524.339478,100.284058L524.167114,100.164627L524.124207,100.131638L524.098572,100.108231L523.941895,99.955643L523.889099,99.895844L523.748108,99.709946L523.709167,99.650818L523.593506,99.446976L523.569397,99.398788L523.55658,99.367172L523.483093,99.16658L523.467224,99.115143L523.457153,99.066788L523.425842,98.869781L523.420227,98.816116L523.420227,98.756668L523.430969,98.563065L523.436646,98.509415L523.449463,98.450119L523.502258,98.259781L523.519348,98.208511L523.540833,98.160492L523.635864,97.97374L523.662659,97.926926L523.684387,97.895828L523.713623,97.856857L523.697571,97.82782L523.660278,97.754517L523.638428,97.705139L523.621521,97.65387L523.621338,97.652847L523.618286,97.649597L523.585815,97.606537L523.5578,97.560242L523.540161,97.524353L523.454407,97.331436L523.434937,97.281036L523.420715,97.229095L523.414917,97.194229L523.405029,97.180054L523.378723,97.132889L523.357361,97.083344L523.341125,97.031738L523.3302,96.978943L523.329834,96.975006L523.305237,96.961166L523.260986,96.930069L523.220337,96.894699L523.183228,96.855408L523.150452,96.812515L523.122253,96.766556L523.106323,96.735275L522.961609,96.424301L522.950134,96.397476L522.819092,96.070251L522.809509,96.044632L522.691956,95.701004L522.684143,95.676407L522.580078,95.315872L522.573242,95.289902L522.493286,94.949356L522.487427,94.920471L522.429504,94.593781L522.424744,94.561829L522.388672,94.24913L522.385803,94.212906L522.371765,93.914398L522.37146,93.874756L522.379272,93.590088L522.382202,93.546524L522.411926,93.275696L522.41925,93.228531L522.471069,92.97171L522.483521,92.922501L522.55719,92.679535L522.575439,92.628616L522.588806,92.599045L523.111145,91.535385L523.138977,91.48584L523.245056,91.317703L523.257568,91.298737L523.363647,91.145462L523.378845,91.124619L523.485168,90.986038L523.503418,90.963669L523.609558,90.839783L523.632629,90.814316L523.738892,90.705307L523.766418,90.679001L523.872498,90.584671L523.90686,90.556824L524.013,90.477203L524.055176,90.448486L524.067505,90.440979L524.612061,89.672226L524.615112,89.667953L524.742065,89.492477L524.76532,89.46257L524.897583,89.304688L524.92627,89.273087L525.063965,89.133133L525.097473,89.101868L525.240295,88.979706L525.279602,88.949112L525.427917,88.844543L525.473389,88.815842L525.627014,88.729202L525.676697,88.704605L525.835815,88.635574L525.889771,88.615402L526.054199,88.564316L526.066284,88.56073L526.275269,88.501266L526.486145,88.427109L526.718506,88.331757L526.938049,88.23027L527.208923,88.057175L527.466431,87.821716L527.495789,87.796768L527.617981,87.700226L527.638306,87.68486L527.755859,87.600784L527.78064,87.584213L527.893555,87.512619L527.924011,87.494675L528.032471,87.435562L528.068909,87.41745L528.172607,87.370789L528.218079,87.352859L528.317505,87.31868L528.372681,87.302963L528.467529,87.281433L528.53125,87.271011L528.62146,87.26178L528.675476,87.259048L528.729492,87.26178zM535.375854,91.830383C535.230347,91.991676,535.069031,92.108986,534.890808,92.181175L535.145752,92.556786L535.619446,93.257248C535.788696,92.903069,535.877808,92.649277,535.885681,92.495872C535.910461,92.205994,535.869873,91.98378,535.764954,91.830383C535.651062,91.670212,535.521362,91.670212,535.375854,91.830383zM514.486084,117.970779L514.595459,118.34639C514.643982,118.515587,514.664307,118.636276,514.656372,118.708466L515.069214,118.79306C515.012817,118.688164,514.988037,118.564087,514.995911,118.418579L515.031982,117.753082C515.056824,117.5196,515.109863,117.362816,515.189941,117.281601L515.482056,117.040222L515.639954,116.943214L515.493347,116.90712L514.995911,117.00412C514.769165,117.076309,514.615784,117.225204,514.534546,117.45079C514.470276,117.621117,514.454468,117.793694,514.486084,117.970779zM514.207458,117.729401C514.174744,117.334618,514.210876,117.076309,514.316895,116.95562C514.389038,116.866516,514.631592,116.781914,515.044434,116.701828C515.408752,116.629639,515.579041,116.55294,515.55426,116.471725C515.522644,116.366829,515.473022,116.299149,515.408752,116.266441L515.153809,116.230347C515.016235,116.214554,514.559387,116.379234,513.782227,116.725517C513.838623,117.096619,513.858948,117.677513,513.84314,118.467087L514.437561,118.648682L514.365356,118.526863C514.28418,118.333984,514.23114,118.067787,514.207458,117.729401zM535.67926,90.658432C535.74469,90.26252,535.704102,89.920746,535.558594,89.630867C535.452515,89.421066,535.29126,89.234955,535.072388,89.073654C535.120911,89.339851,535.056641,89.549652,534.878418,89.703056C534.643799,89.928642,534.360657,90.045952,534.029053,90.053848C533.705322,90.053848,533.414307,89.948952,533.154907,89.739151C532.410461,89.110878,531.90509,88.783768,531.637817,88.760078C531.411072,88.735268,531.112183,88.808586,530.739929,88.977776L530.072205,89.026283L529.62323,88.566071C529.1698,88.050598,528.854004,87.792297,528.675781,87.792297C528.441162,87.800194,528.15802,87.941185,527.826416,88.215279L527.5354,88.481476L527.194763,88.699173C526.830444,88.876259,526.503296,89.001465,526.212341,89.073654C525.766785,89.186447,525.378784,89.488739,525.047119,89.98053L524.439148,90.838905C524.156067,90.99231,523.872925,91.302498,523.589844,91.770599L523.067566,92.834259C522.84198,93.463661,522.849854,94.240822,523.092407,95.168007C523.222107,95.659798,523.387939,96.106468,523.589844,96.510277L523.625916,96.34108L523.625916,96.352356C523.72406,95.828987,523.966553,95.345093,524.354553,94.90181L525.192627,94.115623L524.512512,93.65654C524.262085,93.423058,524.144775,93.20536,524.160583,93.003456C524.176331,92.688759,524.273376,92.419174,524.451599,92.193581C524.703125,91.878883,525.078735,91.717583,525.580688,91.709686L526.442444,91.878883L527.171082,91.963478L527.959534,91.056602C528.412964,90.525337,528.785156,90.299744,529.076172,90.379829L529.889465,90.706932L530.460205,90.935913C530.630493,91.000206,530.771545,91.000206,530.885437,90.935913L531.176453,90.743027L531.661499,90.489243L532.305542,90.549019C532.458923,90.605423,532.729675,90.810707,533.118774,91.166016L533.725647,91.722099C533.983948,91.883392,534.238831,91.967995,534.490417,91.975891C534.781433,91.98378,535.015991,91.891289,535.194214,91.69841C535.452515,91.424316,535.61499,91.076904,535.67926,90.658432zM533.871155,119.458557C533.304932,120.022537,532.95636,120.478226,532.82666,120.824509C532.649536,121.300507,532.308899,121.771996,531.808105,122.238968C531.459595,122.561569,531.082825,122.840172,530.679016,123.073662L533.992981,125.963486L533.616211,126.253372L532.548035,125.503281L534.320068,127.740021L534.987793,128.90181L534.526489,128.937912L534.35614,129.191696C534.307678,129.417297,534.449768,129.707184,534.781433,130.062485L535.813477,131.259247L535.485229,131.549133L535.449158,132.407501C535.464966,133.068481,535.586792,133.621185,535.813477,134.064468L536.83313,135.720306L537.949829,137.183273L537.901306,137.643478L537.221191,136.8573L537.440002,138.295441C537.544922,138.948517,538.001709,139.2948,538.811584,139.335419C539.135315,139.343307,539.434204,139.42453,539.709473,139.577927L540.400879,140.049408C541.146484,140.556992,541.789429,140.834473,542.33197,140.882965C542.646667,140.91568,542.950073,140.859283,543.242188,140.713776C543.331299,140.673172,543.375305,140.55249,543.375305,140.3517L543.156494,140.206207L542.938782,140.060699L543.132813,140.024597L543.326782,139.976105C543.253479,139.662521,543.14856,139.339935,543.010986,139.00943C542.622986,138.84024,542.088318,138.638336,541.409302,138.404846C540.705444,138.162338,540.259888,138.025848,540.073792,137.993149C539.782776,137.953674,539.527832,137.566772,539.309021,136.832474C539.130798,136.22789,539.041687,135.716934,539.041687,135.297333L539.151123,133.762177C539.20752,132.922974,539.175903,132.282303,539.054077,131.83902C538.941284,131.412643,538.786804,131.037033,538.592773,130.714447L538.350281,130.352371L537.852844,130.098572L537.925049,129.433075C538.046814,128.618698,538.03894,128.010727,537.901306,127.608047C537.812195,127.341843,537.670105,127.257248,537.476074,127.353134L537.221191,127.583237L537.099365,129.51767L536.359436,130.013977C536.69104,128.167511,536.869263,126.926758,536.892944,126.289459C537.047485,126.273674,537.180542,125.946564,537.294495,125.310394C537.415161,124.624603,537.452393,123.867744,537.402771,123.037567C537.27417,120.74781,536.601929,119.087463,535.388245,118.055382L533.871155,119.458557zM526.648804,92.169899L525.62915,92.108986C525.208435,92.116882,524.928711,92.346985,524.792236,92.798172C524.645569,93.282059,524.900513,93.644135,525.555847,93.886642C525.588562,93.886642,525.624634,93.910332,525.665283,93.958832C525.713745,94.023132,525.693481,94.087425,525.605469,94.152847L524.585815,95.011223C524.035339,95.606781,523.792847,96.236183,523.857117,96.897163C524.027466,96.364769,524.290283,95.869598,524.645569,95.409386C525.050537,94.909706,525.333618,94.61982,525.496033,94.539734L525.713745,94.55101C525.762268,94.607414,525.750977,94.663811,525.677673,94.720207L525.399048,94.973999L524.86438,95.542488C524.532776,95.905685,524.224854,96.429062,523.941711,97.114861L524.027466,97.307739C524.269958,96.743759,524.537292,96.295959,524.828308,95.965469C525.078735,95.683479,525.317871,95.482704,525.544556,95.360886C525.633667,95.321411,525.685547,95.345093,525.702454,95.434204C525.726135,95.51429,525.685547,95.595505,525.580688,95.675583L525.047119,96.134666C524.836182,96.377174,524.532776,96.836258,524.135742,97.513031L524.172974,97.586342L524.367004,97.610031C524.479797,97.650635,524.500061,97.730721,524.427856,97.852539C523.89325,98.327415,523.808655,98.839508,524.172974,99.387695C524.528259,99.927986,525.050537,100.112968,525.738586,99.943771C526.531555,100.983749,527.441772,101.729332,528.46936,102.180511C529.270203,102.518898,529.820679,102.720802,530.120667,102.785095C531.140381,103.002792,532.058533,102.885483,532.876282,102.434303C534.2276,101.685341,535.178467,100.556259,535.727783,99.049301C536.246643,97.614548,536.286072,96.195572,535.849609,94.793526C535.574341,93.930634,535.100586,93.088051,534.429504,92.26577C534.130554,92.257874,533.818115,92.157486,533.494385,91.963478L532.876282,91.383713C532.495056,91.028404,532.240112,90.831009,532.111511,90.791534C531.876892,90.702423,531.548706,90.815216,531.12793,91.129921C530.909119,91.25061,530.6745,91.302498,530.424133,91.286705L529.695435,91.105103L528.736694,91.166016C528.372375,91.310394,528.048645,91.568695,527.765503,91.939789C527.635803,92.108986,527.457581,92.201477,527.231995,92.21727L526.648804,92.169899zM525.361816,97.23555C525.419373,97.154335,525.503967,97.078766,525.61676,97.005447L525.7995,97.030258C525.847961,97.094559,525.840088,97.150955,525.774658,97.199455L525.62915,97.343834C525.532166,97.44873,525.483643,97.533333,525.483643,97.597626C525.483643,97.678841,525.438538,97.722824,525.350586,97.730721C525.261475,97.730721,525.216309,97.678841,525.216309,97.573936C525.216309,97.46904,525.264832,97.356239,525.361816,97.23555zM525.762268,96.231667C525.810791,96.295959,525.787048,96.364769,525.690063,96.436958L525.665283,96.461769L525.264832,96.776474L524.937744,97.18705C524.815918,97.348343,524.742615,97.392334,524.718872,97.320145C524.703125,97.271645,524.73468,97.171257,524.815918,97.017853L525.070801,96.618561C525.24115,96.417786,525.414856,96.272278,525.593079,96.183167C525.657349,96.151581,525.713745,96.167374,525.762268,96.231667zM532.147644,100.330666L532.863892,100.330666L533.118774,100.306976C533.28009,100.306976,533.29248,100.346458,533.154907,100.427666L532.790588,100.669052C532.596558,100.773949,532.366455,100.802155,532.099121,100.753647L531.928772,100.681458L531.86792,100.53595C531.8927,100.399467,531.985168,100.330666,532.147644,100.330666zM534.247864,92.870354L533.336487,92.967361C533.256409,92.975258,533.190979,92.954956,533.142456,92.906448C533.08606,92.859077,533.062378,92.798172,533.070313,92.725983L533.093994,92.519562L533.179688,92.362778C533.236084,92.330063,533.296997,92.330063,533.361328,92.362778L534.283997,92.737259C534.348267,92.769966,534.376465,92.798172,534.368591,92.821854C534.368591,92.846672,534.327942,92.862457,534.247864,92.870354zM528.614868,92.785759C528.663391,92.746284,528.71637,92.729362,528.772766,92.737259C528.838196,92.746284,528.886719,92.774483,528.918274,92.821854L529.101013,93.003456C529.213806,93.124146,529.258911,93.20536,529.234131,93.245964L529.02771,93.366661L528.614868,93.595634L528.142273,93.922745L527.814026,94.10434C527.749695,93.93515,527.862488,93.664436,528.153503,93.293343L528.614868,92.785759zM533.422241,95.011223C533.405273,94.817215,533.458313,94.599518,533.580139,94.358131C533.692932,94.124649,533.810242,93.994934,533.932068,93.971245C534.044861,93.954323,534.182434,94.05584,534.34491,94.273537C534.506165,94.491234,534.599792,94.696518,534.623474,94.889397C534.648315,95.058594,534.60321,95.16349,534.490417,95.204102L534.138489,95.265007L533.713257,95.301102C533.542908,95.276291,533.445923,95.180412,533.422241,95.011223zM534.001648,94.72261L533.995667,94.741745L534.011719,94.740555L534.001953,94.722092L534.001648,94.72261zM528.760376,96.013969C528.550598,96.021866,528.436646,95.946297,528.420837,95.784996C528.397156,95.590988,528.473877,95.349609,528.6521,95.058594C528.829163,94.776604,528.979187,94.627716,529.101013,94.611923C529.230713,94.587105,529.41687,94.692009,529.659363,94.92662C529.909729,95.16011,530.014648,95.365395,529.975159,95.542488C529.942444,95.703781,529.837585,95.808685,529.659363,95.857185L529.234131,95.918098L528.760376,96.013969zM533.203369,96.231667C533.308289,96.336571,533.325195,96.449364,533.251892,96.570053L532.802979,97.332558C532.673279,97.501747,532.491638,97.550247,532.257019,97.476936L532.135193,97.404747L532.160034,97.259239L532.523254,96.691879C532.612366,96.562157,532.612366,96.441467,532.523254,96.328674L531.964905,95.567299L531.418945,94.563423L531.395264,94.417915L531.455078,94.345726C531.528381,94.313011,531.601685,94.358131,531.673889,94.478821L532.208557,95.265007L532.802979,95.857185L533.203369,96.231667zM528.591187,98.903801C528.550598,98.775215,528.594543,98.665802,528.724243,98.57782L529.792419,97.68335C529.840942,97.642746,529.877075,97.630333,529.901855,97.646126C529.926697,97.663048,529.926697,97.699142,529.901855,97.755539L529.792419,98.093925L529.853333,98.263123L530.034973,98.347717C531.112183,98.565414,531.908508,98.665802,532.426208,98.650009C532.749939,98.642113,533.190979,98.557518,533.749329,98.396217L534.502808,98.166115L534.659607,98.070236C534.692322,98.021736,534.704712,97.96534,534.696777,97.899918L534.684387,97.755539L534.708069,97.658539C534.73291,97.642746,534.765625,97.655151,534.806213,97.694626L535.266418,98.106331C535.31604,98.137917,535.344238,98.190933,535.352173,98.263123L535.327332,98.432312L534.890808,99.19368L534.817505,99.266998L534.781433,99.182404L534.768982,99.07299L534.696777,98.952301C534.648315,98.928612,534.595276,98.928612,534.538879,98.952301L533.846313,99.436195C533.296997,99.774582,532.78717,99.976486,532.317932,100.040779C531.847595,100.105072,531.212524,99.987762,530.411682,99.689987L529.355957,99.218498C529.210449,99.185791,529.101013,99.234291,529.02771,99.362877L529.063782,99.835495L528.882202,99.823082L528.591187,98.903801zM534.72052,98.372528C534.671997,98.347717,534.611084,98.347717,534.538879,98.372528L533.774109,98.601509C533.190979,98.754906,532.709351,98.844017,532.329224,98.867706C531.722412,98.900414,530.929443,98.803413,529.950378,98.57782C529.699951,98.553001,529.513855,98.593613,529.392029,98.698509C529.302917,98.787621,529.287109,98.867706,529.343506,98.939896L529.549927,99.07299L531.346802,99.592979C531.589294,99.633591,531.908508,99.633591,532.305542,99.592979L533.21582,99.411377L534.587402,98.770699C534.692322,98.739113,534.75769,98.650009,534.781433,98.504501C534.79718,98.440208,534.776917,98.396217,534.72052,98.372528zM513.126892,106.678802C512.989258,107.250679,512.884399,107.855263,512.811035,108.491432C512.681335,109.57991,512.693726,110.442795,512.847168,111.078964C513.050171,111.909142,513.552124,112.756241,514.352966,113.617996L515.505737,114.67038L515.821594,115.154274C515.999817,115.452057,516.080994,115.617867,516.064087,115.649445L515.688477,115.371971C515.436951,115.16217,515.299316,115.057266,515.275635,115.057266C515.016235,115.041481,514.80188,115.069679,514.631592,115.141869C514.445435,115.223083,514.34845,115.335876,514.340576,115.480255L514.279663,115.794952L514.170227,116.10965L515.663635,115.964149C515.760681,116.01265,515.882507,116.092735,516.028015,116.205528L516.209595,116.374725L516.367493,115.964149L516.537842,115.456566C516.545715,115.400169,516.602112,115.339256,516.70813,115.274963L516.864929,115.190369C516.938232,115.230972,516.970947,115.339256,516.963074,115.51635C516.954041,115.685539,516.905518,115.854736,516.816406,116.025055C516.703613,116.250648,516.687866,116.507828,516.767944,116.798836L516.999146,116.943214C517.144653,117.056007,517.185303,117.176704,517.119873,117.306419C517.022827,117.491402,516.885254,117.680901,516.70813,117.874908C516.505127,118.092606,516.372009,118.160278,516.30658,118.080193C516.258118,118.023796,516.319031,117.903107,516.489319,117.716995C516.650635,117.532013,516.691223,117.419212,516.609985,117.378601C516.14978,117.160912,515.870056,117.148499,515.773071,117.342506L515.530579,117.753082C515.441467,117.914383,515.413269,118.051994,515.444824,118.164795L515.505737,118.490768L515.602783,118.817879L516.209595,118.913757L516.622437,118.877655C517.011597,118.700569,517.399597,118.29789,517.787598,117.668488C518.144043,117.104507,518.322266,116.693939,518.322266,116.435631C518.322266,116.250648,518.277161,115.787056,518.188049,115.044861L517.981628,112.796844C517.990662,112.457329,517.962463,112.123459,517.897034,111.792961L517.678223,110.692078C517.532715,109.8619,517.099548,109.020447,516.379883,108.165451C516.145325,107.891357,515.882507,107.67028,515.591492,107.501083L515.227173,107.283386L515.639954,107.270981C515.946777,107.319489,516.161072,107.407471,516.282898,107.537186C516.331421,107.206688,516.550232,106.887482,516.938232,106.581802L517.521423,106.218597C516.873962,107.186386,516.586304,107.750366,516.658508,107.911667C516.910034,108.153046,517.225891,108.689957,517.606018,109.520126L518.115845,110.692078L518.929077,110.92218L520.591675,110.789078C520.963928,110.668388,521.307983,110.478897,521.623779,110.220589C521.49408,110.486786,521.307983,110.704483,521.06543,110.87368L522.570129,112.748344C522.878052,113.054016,523.245789,113.336006,523.674438,113.594307C524.055664,113.819901,524.245178,113.916901,524.245178,113.884193C524.390686,113.343903,524.54071,113.219826,524.694092,113.509712L524.889221,114.150391L525.399048,115.964149C525.851379,116.302536,526.434509,116.633026,527.14624,116.95562C528.319336,117.4711,529.489014,117.762108,530.654236,117.826401C531.819397,117.882805,532.884155,117.781288,533.846313,117.524109C534.493774,117.347023,534.967529,117.153015,535.266418,116.943214L536.06842,114.488777L536.529724,112.421234C536.618835,112.364838,536.67865,112.538544,536.711365,112.941223C536.751953,113.376617,536.83313,113.586411,536.953857,113.570625C537.164795,113.545807,537.366699,113.271713,537.560669,112.748344L537.804321,111.962158C538.128052,111.808754,538.358154,111.739944,538.495789,111.756866C539.847046,111.345169,541.254761,110.635681,542.719971,109.62841C541.764587,109.217834,541.157715,108.605354,540.899414,107.79097C540.744934,107.089386,540.616333,106.585182,540.510315,106.27951C540.324158,105.771927,539.980164,105.396317,539.47937,105.154938C539.122925,104.985741,538.738281,104.876328,538.325439,104.828957C538.179932,104.812035,538.062622,104.707138,537.973511,104.514259C537.884399,104.320251,537.941956,104.235649,538.14386,104.260468C539.058594,104.381157,539.851563,104.747742,540.522705,105.360222C540.708801,105.529419,540.86676,105.735832,540.99646,105.977219C541.134033,106.226494,541.218628,106.469009,541.251343,106.702492C541.323547,107.299179,541.461182,107.783081,541.664185,108.153046C541.89093,108.564751,542.218018,108.874939,542.646667,109.08474L542.635376,109.048645L542.780884,109.144516L543.29071,109.313713C543.686646,109.362213,544.035156,109.266342,544.334045,109.023827L545.633484,107.717651C546.256104,107.161575,546.725342,106.984482,547.041138,107.186386C546.644104,107.322868,546.146667,107.798866,545.547729,108.613251C544.933044,109.451324,544.492004,109.930702,544.22467,110.051399C543.974243,110.430389,543.864868,110.917664,543.897522,111.514359C543.91333,111.821159,543.958435,112.090744,544.03064,112.324234L544.297974,111.81665C544.468323,111.48616,544.556274,111.365463,544.565308,111.454575C544.654419,112.018555,544.609314,112.602837,544.431091,113.20742C544.301331,113.650711,544.221252,114.057899,544.188538,114.429001L544.152466,115.492661C544.160339,116.282234,544.528076,117.007507,545.256714,117.668488C545.960571,118.305786,546.656555,118.595673,547.344604,118.539276C547.530701,118.370079,547.64801,118.233597,547.696533,118.128693C547.793518,117.911003,548.28302,117.680901,549.1651,117.439514L549.54187,117.330101C549.565552,117.257912,549.545227,117.084213,549.480957,116.810112L549.286926,115.928055L548.691345,115.311058C548.481567,115.093369,548.315735,114.988464,548.193909,114.996361C548.137512,114.996361,548.060852,115.044861,547.963806,115.141869C547.849915,115.246765,547.805908,115.343765,547.82959,115.431747L548.048462,115.794952C548.170227,116.01265,548.21875,116.12883,548.193909,116.145752C548.162354,116.17733,547.923218,116.036331,547.477661,115.722763L546.88324,115.613358L546.737732,115.359566L546.68927,115.069679L547.053589,113.981201C547.263367,113.25592,547.449463,112.490036,547.611938,111.683548C547.943542,110.087494,548.015747,109.03624,547.82959,108.528656C548.112732,108.616638,548.234558,109.454712,548.193909,111.04287L548.170227,112.372734C548.186035,112.663742,548.254822,112.659233,548.376648,112.36145C548.731995,111.482773,549.104187,110.011917,549.493347,107.947754C548.902283,107.415359,548.084534,106.73069,547.041138,105.892624C546.967834,105.828323,546.984741,105.759521,547.089661,105.687332C547.211487,105.598221,547.263367,105.529419,547.247559,105.480911C547.230652,105.424515,547.122375,105.332024,546.919373,105.203438L546.506531,104.924835C546.037292,104.457855,545.402222,104.119476,544.601379,103.909668C544.196472,103.804771,543.83667,103.743866,543.520813,103.728073L543.642639,104.308968C543.722717,104.687958,543.727234,104.872948,543.655029,104.865051C543.573853,104.848129,543.233154,104.44207,542.635376,103.643471L542.185303,103.353592C541.797302,103.143791,541.348389,102.974594,540.838501,102.846008C539.851563,102.587708,538.9729,102.72419,538.204773,103.256584C537.815613,103.522781,537.500916,103.837479,537.257263,104.199554L537.124146,104.368752L537.014771,104.16346C536.869263,103.978477,536.62677,103.80928,536.286072,103.655884C535.906006,103.47879,535.647644,103.402092,535.510071,103.425781C535.436768,103.441566,535.396118,103.474281,535.388245,103.522781L535.30365,103.776573C535.270935,103.929977,535.242737,104.002167,535.217896,103.99427L535.036316,103.715668L534.878418,103.413368L534.465576,101.721436C533.98053,102.139908,533.470703,102.470398,532.936035,102.712906C531.11554,103.373894,529.318726,103.208084,527.546692,102.216606L527.255676,103.607376C527.247803,103.640091,527.150757,103.594971,526.964661,103.474281L526.624023,103.26899C526.292419,103.236282,525.932556,103.305084,525.544556,103.474281C525.350586,103.554367,525.18811,103.643471,525.058411,103.740479L525.665283,104.04277C526.085999,104.260468,526.281128,104.39695,526.248413,104.453346C526.19989,104.558243,525.341553,104.385666,523.674438,103.933357C523.067566,103.804771,522.347961,103.889366,521.514343,104.187149C521.101563,104.340553,520.741699,104.506363,520.433777,104.683449L519.717529,105.300446C519.248291,105.759521,519.018188,106.097908,519.026123,106.315605C519.462646,106.372002,519.863037,106.56601,520.227356,106.8965C520.591675,107.217972,520.688721,107.448074,520.519531,107.585686C520.454102,107.633057,520.357117,107.57666,520.227356,107.415359C520.025452,107.166084,519.847229,106.988991,519.693848,106.884094C519.579956,106.802879,519.341919,106.714905,518.9776,106.617897C518.669678,106.537811,518.503845,106.456596,518.480164,106.376511C518.414734,106.174606,518.577148,105.856522,518.96521,105.421135C519.329529,105.00943,519.495361,104.791733,519.462646,104.768051C518.750854,104.196175,517.545105,104.308968,515.845276,105.10643C514.972229,105.518143,514.065369,106.041512,513.126892,106.678802zM529.840942,104.381157C530.059753,104.808655,530.131958,105.070343,530.059753,105.167343C529.98645,105.263222,529.848877,105.300446,529.646973,105.275627C529.437134,105.259834,529.331116,105.183136,529.331116,105.046654L529.05249,104.248062C528.914917,103.861168,528.966797,103.676186,529.210449,103.691978C529.412354,103.707764,529.62323,103.937866,529.840942,104.381157zM530.860596,105.167343C530.779419,104.852646,530.776001,104.522156,530.848206,104.175873C530.913635,103.837479,531.002747,103.691978,531.11554,103.740479C531.180969,103.772064,531.192261,104.094658,531.151611,104.707138C531.176453,105.336533,531.403198,105.71553,531.831787,105.844116L532.354065,105.867805C532.491638,105.852013,532.560425,105.888107,532.560425,105.977219C532.560425,106.251312,532.361938,106.348312,531.964905,106.267105C531.722412,106.218597,531.508057,106.110313,531.32196,105.941124C531.095215,105.73922,530.941833,105.480911,530.860596,105.167343zM532.305542,107.996262C532.191589,107.665771,532.135193,107.399567,532.135193,107.198792C532.135193,106.972076,532.204041,106.859276,532.341614,106.859276C532.495056,106.859276,532.596558,106.981094,532.645081,107.222481L532.766846,108.129356C532.823242,108.483536,532.823242,108.915543,532.766846,109.423126C532.701477,109.922806,532.616882,110.164192,532.511963,110.148399C532.43866,110.132614,532.402527,109.846107,532.402527,109.290024C532.402527,108.63694,532.369812,108.206062,532.305542,107.996262zM529.549927,115.553574C529.671753,115.408066,530.006775,115.303162,530.55719,115.238876C531.074951,115.182472,531.515991,115.185852,531.88031,115.251282C533.053345,115.484764,533.660217,115.682159,533.700806,115.84346C533.717712,115.948357,533.572205,115.984451,533.264282,115.951736L532.257019,115.84346L530.350769,115.928055L529.59845,115.89196C529.437134,115.810745,529.420227,115.697952,529.549927,115.553574zM533.907227,114.368088L533.325195,114.404182L532.257019,114.283493L531.103149,114.319588L530.266174,114.283493C530.095886,114.211304,530.06427,114.065796,530.169189,113.848099C530.281982,113.60672,530.597839,113.486023,531.11554,113.486023C531.706604,113.486023,532.317932,113.586411,532.948486,113.788315C533.572205,113.981201,533.891418,114.175209,533.907227,114.368088zM533.057861,107.234886C532.945068,107.105171,533.057861,106.884094,533.3974,106.569397C533.697449,106.295303,534.008728,106.082115,534.332458,105.928711C535.263062,105.452713,535.801086,105.187645,535.946594,105.131248L536.675232,105.021835C537.063232,104.998154,537.257263,105.034241,537.257263,105.131248C537.257263,105.203438,537.047485,105.33992,536.62677,105.541824L535.388245,106.097908L534.016663,106.920189C533.474121,107.250679,533.154907,107.355576,533.057861,107.234886zM530.957642,106.8965C530.827942,107.009293,530.710632,107.065697,530.605713,107.065697C530.533508,107.065697,530.225586,106.891991,529.683044,106.545708C529.101013,106.174606,528.675781,105.956909,528.408447,105.892624C526.65332,105.480911,525.774658,105.211334,525.774658,105.082748C525.774658,104.969948,525.807373,104.888741,525.871643,104.84024C525.945007,104.77594,526.082581,104.744362,526.284485,104.744362C526.527039,104.744362,527.385376,105.034241,528.858521,105.614014C530.36322,106.202805,531.11554,106.573906,531.11554,106.726181L530.957642,106.8965zM533.822632,113.630402L532.887573,113.099136L532.196106,112.844215L531.406555,112.759621C531.237366,112.776543,530.638428,113.022438,529.61084,113.497307C528.703979,113.916901,528.218933,114.065796,528.153503,113.945107C528.064392,113.775909,528.445679,113.465721,529.295044,113.013412C530.152283,112.562225,530.885437,112.296036,531.49231,112.215942C532.002136,112.143753,532.637146,112.36145,533.3974,112.869034L534.380981,113.65522C534.380981,113.840202,534.194885,113.832306,533.822632,113.630402zM539.369934,109.97921C539.757935,109.825806,539.992554,109.749107,540.073792,109.749107L540.086182,109.810013C539.940674,110.035606,539.624878,110.305191,539.138672,110.619888L538.520569,110.983093C538.455139,111.022568,538.123535,111.180481,537.524597,111.454575L536.407898,111.926064C536.157532,111.990356,535.768372,111.949753,535.242737,111.805374L534.041443,111.503082L532.996948,111.260567C532.649536,111.147774,532.474731,111.059792,532.474731,110.99437C532.474731,110.914284,532.507446,110.833069,532.571716,110.752991C532.645081,110.655983,532.721741,110.624397,532.802979,110.655983L533.639893,110.983093C533.972656,111.103783,534.271545,111.163559,534.538879,111.163559L535.485229,111.09137L536.444031,110.99437C536.736145,110.97068,537.192993,110.842094,537.815613,110.607483L539.369934,109.97921zM529.525146,110.765396L530.896729,110.861267C531.059143,110.829689,531.232849,110.732681,531.418945,110.571381L531.661499,110.353691L531.612976,110.704483C531.55658,110.962784,531.475342,111.144386,531.370483,111.248161C531.273438,111.345169,531.038818,111.377876,530.666626,111.345169L529.58606,111.248161L528.530273,111.224472L527.304199,111.333885C527.061646,111.373367,526.681519,111.510971,526.163818,111.744461C525.766785,111.921547,525.386658,111.993744,525.022339,111.962158C524.690674,111.929443,524.030823,111.465851,523.043884,110.571381C522.995361,110.47438,522.781067,110.220589,522.40094,109.810013L521.84259,109.217834C521.858398,109.056541,522.01178,109.072327,522.302795,109.266342L523.067566,109.810013L524.027466,110.353691C524.48877,110.571381,524.861023,110.701096,525.144165,110.740578L526.357849,110.704483L527.765503,110.607483L529.525146,110.765396z"/>
    <path transform="matrix(-1,0,0,1,0,0)" style="stroke:none;fill:#000000;fill-rule:evenodd" d="M524.651489,116.544647L524.705017,116.551483L524.757629,116.563965L524.808533,116.581558L524.857605,116.604111L524.887817,116.621368L525.201172,116.81308L525.219482,116.824707L525.528259,117.031281L525.545166,117.043076L525.849304,117.264175L525.865723,117.276657L526.165222,117.512619L526.180603,117.525101L526.475708,117.775757L526.490051,117.788574L526.780701,118.054108L526.794373,118.066925L527.080261,118.347153L527.092712,118.359787L527.374146,118.654709L527.386963,118.668732L527.606323,118.915634L527.618164,118.929306L527.823669,119.177063L527.83551,119.191757L528.027527,119.440536L528.039307,119.456604L528.217529,119.706238L528.229187,119.722992L528.39386,119.97348L528.405518,119.991943L528.55658,120.243454L528.56781,120.263275L528.7052,120.515823L528.715942,120.536667L528.839661,120.79007L528.849915,120.812286L528.959961,121.066696L528.96936,121.090118L529.065735,121.345398L529.07428,121.369659L529.157166,121.625961L529.164856,121.651764L529.233887,121.909088L529.240051,121.935226L529.295532,122.19342L529.300659,122.220749L529.342407,122.479797L529.34613,122.507126L529.374329,122.767365L529.376526,122.795563L529.39093,123.056641L529.391235,123.110641L529.385925,123.164291L529.375366,123.217255L529.359436,123.26886L529.339844,123.315689L528.647278,124.76619L528.642822,124.77507L528.473999,125.112366L528.470764,125.118866L528.304199,125.440781L528.300781,125.447281L528.136536,125.753983L528.132446,125.761337L527.970459,126.052841L527.966003,126.060699L527.806274,126.337158L527.801453,126.345367L527.644104,126.606796L527.638306,126.616028L527.482971,126.862411L527.476685,126.87233L527.32373,127.103516L527.319458,127.110001L526.724976,127.980759L526.724854,127.980759L526.580933,128.195358L526.576172,128.202362L526.440308,128.398178L526.434204,128.407074L526.30896,128.579987L526.301392,128.589905L526.186951,128.740433L526.176147,128.754272L526.072266,128.881912L526.057068,128.899689L525.963623,129.004776L525.94104,129.028687L525.858337,129.110886L525.822327,129.143524L525.750183,129.203156L525.70697,129.235443L525.660645,129.263123L525.598267,129.291321L524.858459,129.570007L524.807007,129.586411L524.747009,129.598709L524.502502,129.634079L524.478394,129.716446L524.457581,129.774536L523.822266,131.270493L523.826538,131.274765L523.860718,131.316452L523.890625,131.361404L523.915771,131.409241L523.936096,131.459305L523.951111,131.511078L523.960876,131.564224L523.965271,131.633591L523.965271,132.624969L523.962402,132.681534L523.932129,132.965179L523.928894,132.989441L523.886536,133.2659L523.88208,133.291031L523.827576,133.560135L523.821777,133.585602L523.755127,133.847717L523.74762,133.874207L523.66864,134.128967L523.659973,134.15477L523.569031,134.402527L523.558472,134.429184L523.455261,134.669601L523.443298,134.69574L523.327942,134.92897L523.31958,134.945038L523.116943,135.321976L523.110962,135.332733L522.891235,135.719757L522.885376,135.729675L522.648438,136.126938L522.642944,136.136002L522.388855,136.54335L522.383728,136.551376L522.112732,136.968979L522.107605,136.976669L521.819336,137.404526L521.814758,137.411362L521.509583,137.849472L521.504944,137.855957L521.241272,138.222824L521.235474,138.238022L520.498535,139.863327L520.341187,140.246429L520.202087,140.60849L520.084717,140.940491L519.990173,141.238998L519.917419,141.504868L519.867004,141.734344L519.837769,141.924866L519.825623,142.104279L519.824097,142.12291L519.808044,142.278915L519.799866,142.33223L519.7901,142.371689L519.742126,142.538635L519.716125,142.609543L519.636353,142.787415L519.609009,142.840042L519.497925,143.028336L519.473999,143.065414L519.395935,143.175797L519.366211,143.213913L519.284485,143.309601L519.245728,143.350433L519.160278,143.431427L519.111572,143.472427L519.0224,143.538727L518.963074,143.577011L518.870178,143.628601L518.802124,143.660217L518.705444,143.697296L518.628906,143.720367L518.528442,143.742401L518.452576,143.753342L518.348328,143.760864L518.294312,143.762054L518.263733,143.760178L518.114075,143.747192L518.060547,143.739838L518.011902,143.728226L517.879089,143.689774L517.828003,143.67218L517.769043,143.643982L517.653076,143.579742L517.607239,143.551376L517.553101,143.508316L517.454163,143.41861L517.416077,143.380341L517.38208,143.33847L517.345825,143.281738L517.242432,143.094818L517.241943,143.094986L517.188782,143.104721L517.134949,143.108994L517.081177,143.107803L517.003418,143.096344L516.408936,142.963242L516.384155,142.957092L515.328369,142.66713L515.28479,142.653122L515.176147,142.612961L515.126587,142.591599L515.094604,142.574692L515.011902,142.527008L514.966675,142.497787L514.907532,142.44841L514.850647,142.393387L514.813904,142.353928L514.781067,142.310867L514.745178,142.250031L514.713745,142.187668L514.691895,142.13829L514.675171,142.087021L514.663696,142.034225L514.657715,141.980576L514.658386,141.903687L514.659912,141.885056L514.667114,141.831573L514.679749,141.779114L514.695618,141.732635L514.70575,141.707184L514.728088,141.657974L514.74231,141.632339L514.76123,141.60022L514.784302,141.564682L514.811829,141.525543L514.829773,141.50145L514.866028,141.455658L514.878662,141.440109L514.923584,141.387482L514.93335,141.376556L514.987,141.317093L514.993469,141.310089L515.055481,141.24379L515.06488,141.233871L515.648254,140.641479L518.113525,137.78334L518.086731,137.747467L518.058716,137.701324L518.035645,137.652451L518.0177,137.601532L518.004883,137.549255L517.999084,137.510971L517.804932,135.842789L517.802063,135.808777L517.779175,135.369308L517.778442,135.352386L517.770081,134.940765L517.770081,134.920776L517.776733,134.53717L517.777588,134.51445L517.79895,134.158875L517.801392,134.132553L517.837402,133.804825L517.841675,133.77356L517.892761,133.473846L517.900269,133.437805L517.966064,133.166122L517.977844,133.12442L518.05835,132.880768L518.071655,132.845062L518.188904,132.560211L518.192505,132.551849L518.331543,132.229752L518.334656,132.222748L518.495972,131.863419L518.498169,131.858459L518.681152,131.461533L518.683228,131.457092L518.888428,131.022736L518.890137,131.01915L519.117249,130.547379L519.118774,130.544296L519.368042,130.03511L519.36908,130.032715L519.640076,129.485931L519.666565,129.438782L519.69751,129.394699L519.732849,129.353851L519.772156,129.316772L519.815063,129.283966L519.86084,129.2556L519.909363,129.231857L519.960144,129.213409L520.01239,129.200073L520.065918,129.192047L520.11969,129.189484L520.173706,129.192383L520.227051,129.20076L520.279114,129.214432L520.329712,129.233215L520.378235,129.257141L520.421326,129.284317L520.578003,128.473373L520.59082,128.420914L520.608887,128.370163L520.632141,128.321289L520.649902,128.29071L520.718628,128.181519L520.68634,128.172302L520.636108,128.15213L520.588257,128.127182L520.543274,128.097458L520.501465,128.063278L520.463135,128.025177L520.429138,127.983322L520.399414,127.938202L520.374512,127.890366L520.354492,127.840302L520.3396,127.788361L520.327332,127.709579L520.254028,126.779022L520.252502,126.729477L520.256897,126.421234L520.257263,126.407043L520.270447,126.087006L520.271301,126.073853L520.293152,125.742371L520.294006,125.730057L520.324585,125.386795L520.325806,125.375336L520.365112,125.020447L520.366272,125.009674L520.41449,124.643158L520.415833,124.633591L520.472534,124.255295L520.474121,124.246231L520.539551,123.85614L520.543152,123.836487L520.661743,123.262207L520.668884,123.232132L520.824219,122.652191L520.832581,122.62384L521.024658,122.038437L521.034058,122.012299L521.262817,121.421082L521.273071,121.396652L521.538757,120.799805L521.549377,120.77742L521.851807,120.174942L521.86261,120.154266L522.201904,119.546143L522.213013,119.527344L522.589294,118.913574L522.615234,118.875137L524.180786,116.759094L524.214966,116.717407L524.253357,116.679291L524.295227,116.645294L524.340332,116.615738L524.388367,116.590958L524.438599,116.570969L524.49054,116.556442L524.543701,116.547043L524.597534,116.543106L524.651489,116.544647zM518.564758,133.048187C518.330139,133.66066,518.253418,134.572052,518.334656,135.781219L518.528687,137.449463L519.074585,137.485565L516.040405,141.003662L515.444824,141.608246C515.267761,141.794357,515.182007,141.907166,515.189941,141.947754C515.214722,142.035736,515.307251,142.104553,515.469666,142.153046L516.525391,142.442932L517.119873,142.576035L517.532715,142.116959L517.678223,142.781326L517.812439,143.023834C517.933105,143.160309,518.098938,143.229126,518.309875,143.229126C518.592957,143.229126,518.835449,143.071213,519.038513,142.757629C519.207703,142.499329,519.293457,142.269226,519.293457,142.068451C519.301331,141.568771,519.539307,140.762283,520.009705,139.650116L520.749634,138.01796L520.749634,137.993149C521.631653,136.783981,522.332153,135.684219,522.849854,134.692749C523.173584,134.080261,523.367615,133.391083,523.431885,132.625198L523.431885,131.633728L522.801392,131.887512L523.298828,131.13855L523.966553,129.566177L524.087219,129.155609L524.67041,129.071014L525.410339,128.792404C525.588562,128.663818,525.879578,128.292725,526.284485,127.680237L526.878906,126.809448C527.283875,126.212769,527.712524,125.455902,528.165955,124.536621L528.858521,123.086067C528.817871,121.690781,528.194153,120.337234,526.988342,119.023163C526.243896,118.216675,525.450928,117.5681,524.609497,117.076309L523.043884,119.19236C521.991516,120.836922,521.332764,122.420578,521.06543,123.944443C520.879333,125.000214,520.785706,125.930771,520.785706,126.737259L520.859009,127.667831L521.598999,126.930145L521.805359,126.930145C521.942993,126.947067,522.01178,126.998947,522.01178,127.088058C522.01178,127.160248,521.870789,127.398247,521.587708,127.800926L521.101563,128.574707L520.907532,129.578583L520.774414,130.726852L520.834229,131.367523C520.859009,131.553635,520.838745,131.669815,520.774414,131.718323L520.543213,131.899918C520.471008,131.931503,520.433777,131.859314,520.433777,131.68222C520.433777,131.400238,520.328918,130.747147,520.117981,129.722961C519.365601,131.231049,518.8479,132.338699,518.564758,133.048187zM523.3349,129.082291C523.528931,129.099213,523.642822,129.151093,523.674438,129.240204C523.707153,129.328186,523.586426,129.683487,523.311218,130.303864L522.885986,131.223145C522.691956,131.005447,522.663757,130.855438,522.801392,130.77536C522.890503,130.718948,522.962646,130.465164,523.019043,130.013977C523.067566,129.619202,523.079956,129.304489,523.056274,129.071014L523.3349,129.082291z"/>
</svg>
