<?xml version="1.0" encoding="UTF-8"?>
<svg xmlns="http://www.w3.org/2000/svg" xmlns:xlink="http://www.w3.org/1999/xlink" width="39.112mm" height="58.961mm" viewBox="-505.904388 86.030228 39.111938 58.960617">
    <path transform="matrix(-1,0,0,1,0,0)" style="stroke:none;fill:#000000;fill-rule:evenodd" d="M484.050385,86.032791L484.084381,86.037399L484.16098,86.050049L484.213593,86.061493L484.281403,86.084732L484.371307,86.122665L484.442047,86.159058L484.545441,86.22229L484.588837,86.251846L484.705719,86.340179L484.734711,86.363937L484.865082,86.477737L484.885101,86.496017L485.028778,86.634933L485.043182,86.649292L485.200531,86.813492L485.211823,86.825623L485.374481,87.006241L485.664093,87.301666L486.024994,87.275528L486.084259,87.249893L486.104095,87.241699L486.23941,87.189575L486.263153,87.181198L486.391327,87.138657L486.419159,87.130112L486.540314,87.097137L486.571564,87.089615L486.685577,87.065872L486.724152,87.059372L486.830963,87.045197L486.87558,87.041092L486.975189,87.036301L487.027435,87.036484L487.11972,87.041092L487.17337,87.046387L487.202606,87.051682L487.318939,87.076126L487.371246,87.089966L487.401825,87.100723L487.541412,87.154724L487.592194,87.177444L487.755341,87.261002L487.788849,87.2798L487.97525,87.392914L487.998322,87.407608L488.20816,87.55011L488.225067,87.562241L488.458466,87.734482L488.471466,87.744217L488.728119,87.946014L488.738007,87.954041L488.999603,88.170029L489.152924,88.275284L489.290253,88.338669L489.435333,88.37677L489.595306,88.390106L489.659332,88.385666L489.736786,88.373871L489.805634,88.356445L489.86972,88.33371L489.932892,88.303986L489.992523,88.268616L490.050629,88.226242L490.116119,88.168655L490.145111,88.139954L490.15213,88.131073L490.156403,88.123718L490.159637,88.115173L490.162201,88.104065L490.164642,88.080154L490.163605,88.045807L490.153839,87.973862L490.149261,87.920212L490.150116,87.866226L490.156403,87.812561L490.16806,87.759933L490.18515,87.708679L490.207184,87.659302L490.234161,87.612656L490.265594,87.568741L490.301483,87.528412L490.341095,87.491852L490.384369,87.459381L490.430511,87.431534L490.47934,87.408463L490.530304,87.390518L490.582733,87.377869L490.6362,87.370361L490.690216,87.368484L490.744049,87.37207L490.797333,87.380951L490.849274,87.395309L490.899689,87.41478L490.947723,87.439224L490.993134,87.46843L491.019806,87.488937L491.180267,87.620163L491.222992,87.659119L491.361053,87.799576L491.40274,87.847427L491.518585,87.997452L491.557037,88.05452L491.650177,88.213943L491.676666,88.265533L491.728607,88.381897L491.746002,88.426163L491.787689,88.547638L491.801056,88.592758L491.832306,88.719193L491.841156,88.763107L491.862213,88.894684L491.867157,88.936203L491.878082,89.072891L491.879791,89.113571L491.880341,89.255386L491.87912,89.292465L491.869354,89.439407L491.866119,89.473755L491.846161,89.625824L491.841339,89.655212L491.811127,89.815491L491.803436,89.850006L491.763763,90.003448L491.752838,90.040009L491.703644,90.186279L491.689789,90.222839L491.663971,90.284363L491.703644,90.317856L491.743134,90.354752L491.772491,90.387558L491.817596,90.442581L491.849579,90.485977L491.877777,90.533493L491.947662,90.667099L491.970184,90.716141L491.9888,90.771332L492.033417,90.93161L492.045197,90.984406L492.05014,91.019775L492.069489,91.206711L492.072052,91.276428L492.066071,91.490524L492.062775,91.535797L492.05545,91.600571L492.047943,91.648071L492.032562,91.722733L492.024689,91.755371L492.001617,91.839951L491.99411,91.865234L491.963165,91.9599L491.955841,91.980743L491.916901,92.085144L491.910736,92.100876L491.863922,92.215179L491.858246,92.228516L491.803436,92.352737L491.798615,92.363327L491.735931,92.497284L491.710663,92.544952L491.680573,92.58989L491.646027,92.631424L491.607758,92.669357L491.586578,92.686264L491.722748,92.976059L491.733734,93.001175L491.870575,93.335907L491.880463,93.362061L491.997894,93.698502L492.006439,93.725494L492.086212,94.000427L492.091827,94.020752L492.160004,94.295853L492.164825,94.317383L492.221222,94.59317L492.225128,94.614517L492.269867,94.890472L492.27298,94.912689L492.305939,95.189163L492.308197,95.211365L492.329559,95.488174L492.330719,95.510727L492.340302,95.788055L492.340607,95.81044L492.338593,96.088104L492.337921,96.110306L492.324249,96.388321L492.322723,96.410706L492.297211,96.689041L492.29483,96.710922L492.257782,96.989609L492.254364,97.011139L492.205475,97.290329L492.201385,97.311523L492.140717,97.591064L492.135956,97.611221L492.063629,97.891113L492.058197,97.910767L491.974274,98.190994L491.96817,98.210129L491.872467,98.490692L491.86496,98.511536L491.752167,98.802185L491.743988,98.822174L491.621429,99.103592L491.611908,99.1241L491.479462,99.396133L491.469025,99.416458L491.326874,99.67926L491.315277,99.699768L491.163177,99.953339L491.15036,99.973663L490.988556,100.217834L490.974701,100.237823L490.803131,100.472778L490.788116,100.492416L490.606659,100.71814L490.590607,100.737106L490.504669,100.834503L490.508759,100.84082L490.533539,100.888672L490.553497,100.938904L490.566315,100.983337L490.912689,102.403076L490.927521,102.397278L490.978302,102.38121L491.030609,102.367538L491.099762,102.357803L491.15976,102.353363L491.239716,102.353531L491.311493,102.358994L491.36734,102.36618L491.45108,102.381546L491.489166,102.390091L491.584869,102.415039L491.615997,102.424103L491.723297,102.459122L491.744843,102.466644L491.864227,102.511414L491.88205,102.518417L492.013092,102.572922L492.027802,102.579254L492.170807,102.643829L492.188934,102.652557L492.43631,102.775742L492.479034,102.7995L492.688385,102.928848L492.739594,102.964905L492.910675,103.100739L492.926178,103.115097L492.932037,103.10553L492.964813,103.062637L493.00174,103.023331L493.042572,102.987961L493.067169,102.969681L493.30777,102.802567L493.320587,102.794037L493.556854,102.63974L493.571259,102.630508L493.803253,102.489365L493.818329,102.480652L494.046051,102.352158L494.063507,102.342758L494.287201,102.227264L494.306,102.218033L494.525177,102.115509L494.546051,102.106277L494.761017,102.016754L494.783539,102.007858L494.994232,101.931137L495.019012,101.922775L495.225433,101.858856L495.253265,101.851181L495.455414,101.80043L495.484772,101.79393L495.682648,101.755997L495.714447,101.75087L495.908051,101.725754L495.943085,101.722336L496.132416,101.710373L496.168427,101.709351L496.353668,101.710205L496.391449,101.711746L496.572235,101.725418L496.611664,101.729858L496.788177,101.756516L496.825409,101.763519L497.218781,101.851852L497.259613,101.862625L497.62735,101.976425L497.670197,101.991806L498.012482,102.130722L498.057037,102.151215L498.374054,102.315262L498.439789,102.355759L498.896698,102.683823L498.938934,102.717484L498.977509,102.755249L499.012054,102.7966L499.04483,102.845627L499.076324,102.898941L499.093048,102.875366L499.128571,102.834869L499.16806,102.797958L499.21109,102.76532L499.257233,102.737305L499.305756,102.713898L499.35672,102.695602L499.408966,102.682617L499.462433,102.674942L499.516449,102.672714L499.589264,102.678345L500.133453,102.758667L500.06424,102.705688L499.982758,102.659042L499.937286,102.62999L499.895111,102.596512L499.856293,102.558746L499.821625,102.517395L499.788666,102.468353L499.697235,102.314407L499.673126,102.268951L499.595551,102.103897L499.57663,102.05809L499.513031,101.882095L499.499359,101.838013L499.449677,101.650909L499.440094,101.608536L499.404388,101.410507L499.398895,101.371368L499.377045,101.162231L499.374481,101.126175L499.366425,100.90593L499.366241,100.873123L499.372101,100.641769L499.379242,100.567093L499.518707,99.7341L499.530304,99.681305L499.547028,99.630051L499.569061,99.580658L499.595917,99.533844L499.62735,99.489929L499.663055,99.449615L499.702728,99.412872L499.745758,99.380402L499.791901,99.352386L499.84079,99.329315L499.89151,99.311203L499.944,99.298386L499.997467,99.290878L500.013519,99.290192L500.003754,99.243027L499.952362,99.043106L499.926056,98.969467L499.895294,98.905396L499.857513,98.844055L499.812897,98.786469L499.75943,98.730255L499.698761,98.677963L499.626129,98.626358L499.418732,98.505905L499.372589,98.47583L499.283234,98.410721L499.232819,98.368866L499.15744,98.298294L499.105499,98.242249L499.044525,98.166046L499.013092,98.122299L498.998016,98.097687L498.951202,98.015839L498.926788,97.967667L498.914642,97.938095L498.88205,97.850952L498.865631,97.79953L498.858246,97.766724L498.839996,97.673767L498.832123,97.620453L498.830414,97.593109L498.826324,97.494873L498.82663,97.440872L498.832611,97.387222L498.843903,97.334427L498.860687,97.283157L498.882355,97.233612L498.896027,97.208145L498.954987,97.10495L498.714386,97.062057L498.713715,97.065643L498.70108,97.118103L498.683319,97.169189L498.667938,97.203705L498.626068,97.288803L498.599762,97.335953L498.572723,97.375092L498.503693,97.466324L498.469025,97.507675L498.430267,97.545273L498.401337,97.569016L498.185699,97.733063L498.141144,97.763474L498.093658,97.789276L498.043915,97.810287L497.992279,97.826004L497.939362,97.836426L497.875458,97.841736L497.825165,97.842926L497.77121,97.841553L497.722504,97.835403L497.666656,97.825836L497.590607,97.807037L497.529083,97.78688L497.471649,97.764328L497.404694,97.733398L497.364044,97.712387L497.291229,97.670868L497.259125,97.651047L497.180817,97.598755L497.156952,97.581833L497.073212,97.518951L497.055573,97.505112L496.966034,97.431808L496.950531,97.418655L496.279022,96.824539L496.240387,96.786789L496.205841,96.74527L496.175629,96.7005L496.150177,96.652817L496.121307,96.577301L495.854218,95.680923L495.843781,95.640259L495.730194,95.109528L495.721649,95.056396L495.718353,95.002396L495.720612,94.948578L495.728302,94.895096L495.741425,94.842636L495.759735,94.791885L495.783112,94.743195L495.81131,94.69722L495.843964,94.65416L495.880707,94.6147L495.921356,94.579147L495.965424,94.547882L496.012421,94.521408L496.05484,94.502258L496.430206,94.353088L496.602448,94.278595L496.775543,94.187698L496.963348,94.072876L497.16391,93.934296L497.368805,93.777267L497.591278,93.590851L497.821625,93.383072L498.062897,93.149841L498.103546,93.114288L498.147614,93.083023L498.194611,93.056534L498.243988,93.034836L498.295258,93.018097L498.367889,93.004089L498.643463,92.96991L498.693573,92.965973L498.968842,92.957947L499.018707,92.958801L499.293671,92.976578L499.343536,92.982208L499.618134,93.026123L499.665314,93.035858L499.939362,93.105576L499.984283,93.11908L500.258026,93.214935L500.298553,93.231003L500.57193,93.352661L500.608978,93.370941L500.88205,93.518738L500.920685,93.541809L501.19577,93.722244L501.236786,93.751984L501.478546,93.94574L501.521088,93.983841L501.729584,94.191116L501.770905,94.237411L501.946198,94.458008L501.984833,94.513535L502.126678,94.747635L502.159088,94.80983L502.267609,95.057419L502.291534,95.123718L502.36673,95.38446L502.381561,95.452118L502.416595,95.682449L502.427216,95.714584L502.44278,95.772675L502.465973,95.884079L502.471649,95.915863L502.493195,96.063324L502.49588,96.084167L502.51535,96.268021L502.516571,96.280334L502.534149,96.492889L502.537445,96.495972L502.561371,96.519196L502.621979,96.582077L502.636505,96.597626L502.706085,96.67572L502.716339,96.687515L502.794952,96.781143L502.802277,96.790375L502.88974,96.899384L502.895905,96.907074L502.992096,97.031647L502.99588,97.036423L503.101288,97.176193L503.105072,97.18132L503.219208,97.336472L503.22226,97.340744L503.345306,97.511444L503.347321,97.514343L503.479401,97.700256L503.481842,97.703674L503.622589,97.905121L503.625031,97.908539L503.933746,98.35759L503.939545,98.366302L504.280609,98.883865L504.288177,98.895477L504.59433,99.387405L504.60257,99.401077L504.873688,99.867386L504.882782,99.883438L505.11911,100.324112L505.128815,100.34343L505.330109,100.758469L505.340729,100.78154L505.507111,101.170944L505.518219,101.199142L505.649811,101.562912L505.661102,101.597946L505.757599,101.935928L505.766144,101.969757L505.806854,102.157883L505.811981,102.184708L505.844757,102.386002L505.847992,102.409744L505.873138,102.624191L505.875153,102.646393L505.892242,102.874161L505.893463,102.893646L505.902679,103.134567L505.903046,103.152008L505.904388,103.406082L505.904205,103.421982L505.897736,103.689392L505.897247,103.703568L505.882843,103.984131L505.881989,103.99678L505.859955,104.29068L505.858978,104.302811L505.828888,104.609863L505.82785,104.620453L505.79007,104.940659L505.788727,104.950745L505.74295,105.284271L505.741547,105.293167L505.687897,105.639862L505.686737,105.647888L505.625397,106.007904L505.623993,106.015762L505.554657,106.388947L505.553253,106.396118L505.476044,106.782623L505.462677,106.834915L505.444244,106.885666L505.420868,106.934189L505.392487,106.980148L505.35965,107.023041L505.322784,107.062347L505.281952,107.097885L505.237823,107.128983L505.203827,107.148636L504.809296,107.358963L504.806366,107.360504L504.421417,107.562653L504.417999,107.564529L504.04245,107.758286L504.038849,107.760178L503.673004,107.945389L503.669403,107.947098L503.313141,108.124115L503.308868,108.126175L502.962189,108.294647L502.958099,108.296707L502.621002,108.45697L502.61618,108.459198L502.288666,108.610931L502.283661,108.613144L501.965851,108.756516L501.960541,108.758896L501.652313,108.89389L501.646515,108.896454L501.347809,109.023071L501.341705,109.025635L501.052582,109.143875L501.045746,109.146606L500.766205,109.25647L500.758514,109.259384L500.488678,109.360703L500.480682,109.363602L500.220428,109.456558L500.211884,109.459641L499.961212,109.544388L499.926178,109.55481L499.717926,109.609665L499.667145,109.620422L499.429291,109.658875L499.387604,109.664001L499.119843,109.685867L499.085724,109.687576L499.07901,109.687744L499.07547,109.730118L499.065521,109.783096L499.05014,109.834869L499.029633,109.884933L499.004181,109.932434L498.974091,109.977371L498.939606,110.01889L498.893097,110.06366L498.801544,110.141739L498.78067,110.158661L498.677155,110.238281L498.658356,110.251953L498.542511,110.333282L498.526276,110.344391L498.398468,110.427261L498.384125,110.436157L498.244171,110.520737L498.231171,110.528427L498.079132,110.614548L498.067474,110.620865L497.90329,110.708511L497.892853,110.713989L497.716522,110.803177L497.707123,110.8078L497.518646,110.898529L497.510651,110.902283L497.310211,110.99472L497.302338,110.998306L497.08963,111.092285L497.082794,111.0952L496.858063,111.190704L496.851776,111.193451L496.614899,111.290497L496.609283,111.292725L496.360321,111.391479L496.354889,111.393707L496.093781,111.494003L496.088837,111.49588L495.815582,111.597717L495.799896,111.603195L493.966095,112.222412L493.793182,112.783035L493.779022,112.822845L493.702301,113.015762L493.691193,113.041733L493.613617,113.21022L493.598053,113.241318L493.519989,113.385361L493.496063,113.425339L493.417084,113.544769L493.380524,113.593643L493.300751,113.688644L493.264008,113.728287L493.2435,113.747086L493.163055,113.81749L493.120636,113.850967L493.074371,113.880356L492.993011,113.926331L492.944672,113.950592L492.894257,113.969727L492.865692,113.977936L492.783539,113.999451L492.730743,114.010559L492.67691,114.016205L492.622894,114.016373L492.594574,114.01416L492.549103,114.009537L492.495758,114.001343L492.443512,113.987839L492.392731,113.969208L492.376678,113.961349L492.243256,114.559402L492.229767,114.608612L491.393158,117.172501L491.373871,117.2229L491.349579,117.271088L491.320526,117.316544L491.287079,117.358917L491.249298,117.397705L491.207916,117.432388L491.175507,117.455109L491.04953,117.536453L491.019623,117.554398L490.876617,117.634018L490.850983,117.647339L490.690887,117.725433L490.668671,117.735687L490.491486,117.812225L490.471832,117.820267L490.27774,117.895111L490.260651,117.901428L490.049469,117.974731L490.03476,117.979507L489.806671,118.051285L489.793488,118.055206L489.548492,118.125443L489.527985,118.130905L489.145538,118.224197L489.123199,118.229156L488.730865,118.307236L488.708832,118.311172L488.30661,118.373703L488.28537,118.376617L487.873444,118.42395L487.85257,118.425827L487.430511,118.457611L487.411041,118.458801L486.979279,118.475372L486.959991,118.475723L486.51828,118.476746L486.500336,118.476578L486.048737,118.462387L486.022919,118.460846L485.565826,118.424286L485.540741,118.421722L485.083282,118.363281L485.058563,118.359528L484.600922,118.279053L484.576874,118.274261L484.118927,118.171738L484.09549,118.165924L483.637054,118.041199L483.614532,118.034531L483.155731,117.887756L483.134186,117.880402L482.674896,117.711594L482.654388,117.703384L482.194611,117.51236L482.174103,117.503479L481.901398,117.376511L481.891632,117.371902L481.631561,117.244431L481.620819,117.238968L481.373383,117.110641L481.362152,117.104492L481.12735,116.975479L481.114899,116.968475L480.892914,116.838623L480.879913,116.830765L480.670624,116.700211L480.656586,116.691162L480.45993,116.559769L480.444733,116.549332L480.260895,116.417084L480.218842,116.383255L480.180206,116.34549L480.145721,116.30397L480.115448,116.259201L480.089996,116.2117L480.069489,116.161804L480.059052,116.128662L479.548859,114.316757L479.501373,114.332657L479.4487,114.344437L479.39505,114.350937L479.341278,114.351959L479.287445,114.347351L479.238068,114.338455L479.210052,114.33197L479.158234,114.317108L479.129547,114.306335L479.082916,114.287369L479.051483,114.273361L478.986176,114.241745L478.969757,114.233551L478.885895,114.189301L478.876495,114.184174L478.773956,114.127441L478.766632,114.123337L478.645477,114.053787L478.641571,114.051407L478.501801,113.969559L478.484528,113.959137L478.160065,113.752213L478.135406,113.735458L477.835052,113.519485L477.809418,113.499832L477.532745,113.274292L477.506317,113.251221L477.253754,113.016113L477.201263,112.959717L475.690826,111.077942L475.65921,111.034195L475.652191,111.022232L475.501678,111.052475L475.474457,111.057266L475.061005,111.118256L475.044403,111.120316L474.65976,111.164917L474.640289,111.166962L474.284576,111.194977L474.261139,111.196182L473.934296,111.207458L473.906586,111.207794L473.608612,111.202667L473.574615,111.200958L473.30545,111.179092L473.264282,111.174133L473.024231,111.135696L472.97467,111.125275L472.763306,111.070419L472.724518,111.058807L472.477112,110.974045L472.468719,110.971146L472.211212,110.878189L472.203186,110.875122L471.935944,110.773788L471.928619,110.771057L471.651276,110.661194L471.644806,110.658447L471.357574,110.540207L471.35141,110.537643L471.054443,110.411041L471.048981,110.408646L470.741913,110.273651L470.736786,110.271439L470.41983,110.128082L470.414886,110.125854L470.088165,109.974121L470.08374,109.971909L469.746948,109.81163L469.743011,109.809753L469.396332,109.641266L469.392212,109.639389L469.035614,109.462372L469.032196,109.460495L468.665863,109.275269L468.662445,109.27356L468.286011,109.079788L468.282776,109.078079L467.896423,108.875946L467.893524,108.874405L467.497284,108.663895L467.450989,108.636215L467.407593,108.603928L467.367767,108.567535L467.331879,108.527206L467.300262,108.483459L467.273102,108.436813L467.250885,108.387604L467.233795,108.336349L467.226288,108.305923L467.124786,107.83757L467.121887,107.823227L467.033203,107.351456L467.03064,107.336929L466.954773,106.861908L466.952728,106.847733L466.889496,106.369461L466.887787,106.355453L466.843719,105.937515L466.842346,105.921967L466.812439,105.526917L466.811432,105.509827L466.795197,105.137665L466.794678,105.117844L466.79245,104.7686L466.792786,104.746216L466.804413,104.419846L466.805939,104.393875L466.831573,104.090591L466.834839,104.061203L466.874298,103.780624L466.880096,103.747131L466.933258,103.489639L466.944183,103.446411L467.000916,103.254349L467.015106,103.212662L467.096436,103.002838L467.110107,102.970703L467.215881,102.743286L467.228516,102.717987L467.358887,102.472626L467.370331,102.45195L467.525299,102.18898L467.535553,102.172241L467.715149,101.891678L467.72403,101.878342L467.92804,101.579834L467.936249,101.56839L468.164886,101.252106L468.170166,101.244583L469.797028,99.073868L469.997772,98.764938L470.180786,98.442673L470.348572,98.101288L470.495697,97.753052L470.704498,97.117584L470.723969,97.067184L470.74823,97.019165L471.471191,95.755936L471.500397,95.71048L471.529449,95.673401L471.601044,95.590012L471.644958,95.544571L471.738953,95.458282L471.77652,95.426834L471.89325,95.337982L471.923492,95.316452L472.062897,95.224869L472.087006,95.210007L472.248993,95.115509L472.268982,95.104401L472.453339,95.007187L472.469757,94.998978L472.676849,94.898682L472.690857,94.892181L472.920319,94.789154L472.946472,94.778214L473.209625,94.676544L473.231659,94.668518L473.481781,94.584274L473.506927,94.576599L473.743744,94.509613L473.773468,94.50209L473.997162,94.452545L474.031647,94.446045L474.24234,94.413757L474.282684,94.409134L474.480194,94.394104L474.527191,94.392563L474.711578,94.394791L474.765228,94.398209L474.936615,94.417679L474.989899,94.426392L475.042023,94.440582L475.092438,94.459885L475.14505,94.486893L475.512909,94.701324L475.558014,94.730713L475.615448,94.779068L476.072357,95.22197L476.109283,95.261429L476.141876,95.304489L476.169952,95.350464L476.193329,95.399155L476.19931,95.415894L476.224945,95.418457L476.277924,95.42923L476.329315,95.445114L476.379059,95.466309L476.426422,95.492447L476.470795,95.523209L476.51181,95.558228L476.536957,95.583527L476.828644,95.898773L476.863312,95.940292L476.893524,95.985062L476.918304,96.031204L476.953339,96.060928L477.005463,96.117142L477.410797,96.622238L477.442413,96.665985L477.469391,96.712631L477.491608,96.761841L477.508698,96.813095L477.520477,96.865723L477.526947,96.919373L477.527802,96.973373L477.523407,97.027191L477.513458,97.08017L477.49826,97.131943L477.477936,97.182007L477.452667,97.229675L477.428375,97.266586L477.248932,97.516907L477.087982,97.746048L476.946686,97.951935L476.818512,98.143829L476.701141,98.326309L476.61026,98.47377L476.532684,98.607056L476.462616,98.736908L476.434601,98.783051L476.40213,98.826111L476.365387,98.865753L476.324921,98.901459L476.280975,98.932724L476.234161,98.959549L476.184784,98.981598L476.133514,98.998337L476.080719,99.009964L476.027069,99.016113L475.973053,99.0168L475.919403,99.012009L475.883209,99.005692L475.78476,98.985016L475.769745,99.01799L475.742584,99.064636L475.710785,99.108383L475.674896,99.148544L475.634918,99.184937L475.591522,99.217224L475.545074,99.244904L475.519257,99.258575L475.49173,99.277039L475.437592,99.318558L475.371979,99.37323L475.130035,99.603043L475.107941,99.622696L475.022003,99.695663L474.979156,99.72847L474.933197,99.756836L474.880035,99.782288L474.775116,99.825516L474.724213,99.84346L474.671722,99.856277L474.629852,99.862595L474.506195,99.876099L474.452179,99.879181L474.388458,99.875931L474.245941,99.859863L474.19278,99.850983L474.149933,99.839874L474.007904,99.796478L473.941254,99.771011L473.794647,99.70369L473.742584,99.676346L473.591156,99.585449L473.563141,99.566818L473.35434,101.816147L473.353973,102.0569L473.353119,102.086288L473.338287,102.349091L473.335907,102.378647L473.306488,102.63974L473.302582,102.667755L473.259338,102.926971L473.256592,102.942169L473.162445,103.421463L473.259521,103.38678L473.33432,103.365936L473.616425,103.30954L473.694366,103.299973L473.983978,103.285446L474.05954,103.286987L474.356659,103.314331L474.42569,103.325256L474.730377,103.394287L474.791534,103.412064L475.103668,103.5233L475.154816,103.544495L475.358124,103.641708L475.391449,103.611816L475.435028,103.580032L475.50351,103.542099L475.936859,103.342178L475.96524,103.330048L476.383331,103.165665L476.415985,103.154053L476.819061,103.02504L476.856659,103.014618L477.244659,102.921158L477.287567,102.912613L477.660614,102.854523L477.709137,102.849228L478.067108,102.82666L478.120758,102.825989L478.463654,102.838974L478.521576,102.844437L478.849335,102.89296L478.875824,102.897583L479.256683,102.973785L479.309113,102.986938L479.359711,103.005402L479.408417,103.028976L479.456085,103.058365L479.492157,103.083313L479.693085,103.123978L479.695465,103.109283L479.709137,103.057175L479.728119,103.006592L479.752045,102.958237L479.780914,102.912445L479.814056,102.869904L479.851471,102.830933L479.9133,102.780701L480.020966,102.706039L480.052948,102.685532L480.17337,102.614105L480.203278,102.597702L480.336761,102.529694L480.362396,102.517563L480.508148,102.452805L480.537018,102.440842L480.835846,102.328583L480.891876,102.310989L481.179779,102.237686L481.246429,102.225204L481.52359,102.191208L481.598785,102.187271L481.864471,102.192398L481.918304,102.196335L481.971588,102.205383L482.023529,102.21991L482.073822,102.239731L482.130035,102.269119L482.136993,102.273392L482.29538,101.518158L482.309235,101.466034L482.328217,101.415451L482.344269,101.383163L482.329926,101.373596L482.301056,101.352921L481.938629,101.075424L481.91214,101.053894L481.561188,100.747696L481.537079,100.725311L481.197601,100.390076L481.176239,100.367691L480.847992,100.003738L480.828827,99.981354L480.709747,99.833557L480.697296,99.835083L480.45224,99.849442L480.373444,99.848251L480.144501,99.827744L480.091034,99.820221L480.058075,99.812698L479.84549,99.757523L479.793915,99.741287L479.757294,99.726074L479.560822,99.636032L479.51297,99.611084L479.47934,99.589722L479.299225,99.464981L479.2565,99.432007L479.230682,99.4086L479.066864,99.249008L479.014069,99.189209L478.866608,98.994751L478.837555,98.952209L478.771759,98.845413L478.752106,98.810898L478.697235,98.704956L478.678802,98.665314L478.634857,98.560242L478.6185,98.51564L478.58548,98.411407L478.572357,98.361008L478.550446,98.257797L478.541779,98.202942L478.530975,98.100433L478.528107,98.044724L478.528107,97.943222L478.531342,97.883942L478.542633,97.783127L478.551849,97.727417L478.573883,97.627625L478.589081,97.572952L478.622223,97.474197L478.641693,97.424469L478.685944,97.326385L478.70816,97.282822L478.763214,97.18576L478.787628,97.146637L478.82608,97.090759L478.811554,97.082901L478.766937,97.052658L478.725433,97.018143L478.687836,96.979523L478.654205,96.937317L478.624969,96.891876L478.600555,96.843689L478.578827,96.78627L478.503815,96.547226L478.490326,96.495117L478.482147,96.441635L478.479401,96.387802L478.482147,96.333817L478.485382,96.311768L478.482635,96.306808L478.461273,96.257263L478.445038,96.205658L478.434113,96.152863L478.433929,96.151154L478.41037,96.138672L478.365448,96.108948L478.3237,96.074768L478.285614,96.036499L478.251617,95.994461L478.222076,95.949356L478.202057,95.911942L478.061798,95.621628L478.048431,95.591904L477.919098,95.276474L477.908661,95.248795L477.790619,94.908081L477.782562,94.882782L477.675812,94.516785L477.670135,94.496109L477.577911,94.124817L477.571564,94.095932L477.503754,93.740021L477.498627,93.707382L477.455353,93.367004L477.451935,93.330444L477.433319,93.005615L477.432465,92.964783L477.438446,92.655334L477.441193,92.610748L477.471588,92.316681L477.479095,92.267639L477.534454,91.988953L477.54715,91.938202L477.626923,91.674896L477.645233,91.623978L477.658356,91.594925L478.203278,90.48291L478.231964,90.431641L478.343231,90.2565L478.355194,90.238571L478.466034,90.078629L478.481415,90.057449L478.592499,89.912888L478.610809,89.890503L478.72171,89.761322L478.744598,89.736206L478.855621,89.622406L478.883331,89.5961L478.994232,89.497681L479.029266,89.468979L479.140289,89.386093L479.182343,89.35791L479.198761,89.347992L479.768768,88.540817L479.772675,88.535339L479.905609,88.352173L479.92868,88.322617L480.066925,88.157898L480.09549,88.12645L480.239349,87.980362L480.273163,87.948914L480.422516,87.821457L480.461456,87.791031L480.616425,87.681854L480.66153,87.653488L480.821991,87.562927L480.872223,87.537979L481.0383,87.466049L481.090973,87.446396L481.262482,87.392746L481.276337,87.388641L481.497467,87.325928L481.718231,87.24852L481.957428,87.15062L482.192902,87.041428L482.478424,86.858597L482.749908,86.611191L482.778778,86.586578L482.906586,86.485764L482.92746,86.470215L483.050507,86.382568L483.074738,86.366333L483.192963,86.291489L483.223053,86.273712L483.336334,86.212036L483.372711,86.193924L483.481415,86.14505L483.526703,86.127106L483.630585,86.0914L483.685577,86.075851L483.784698,86.053299L483.848297,86.042709L483.942596,86.032959L483.996613,86.030228L484.050385,86.032791zM490.999847,90.780861C490.847504,90.9496,490.678772,91.071465,490.492462,91.147629L490.758453,91.538994L491.25293,92.271347C491.431061,91.90107,491.523621,91.635078,491.53299,91.475723C491.557617,91.172234,491.515411,90.941399,491.405273,90.780861C491.286926,90.613304,491.152161,90.613304,490.999847,90.780861zM475.130676,97.170486L474.534241,97.183372C474.584625,97.308754,474.779144,97.422417,475.117767,97.524361C475.354462,97.59935,475.578278,97.561852,475.790375,97.410698C475.950897,97.300552,476.069244,97.162285,476.145416,96.993546L476.437164,96.2612L476.145416,95.945992C476.127838,96.08075,476.073944,96.202606,475.980194,96.311584L475.536102,96.854111C475.383759,97.048622,475.249023,97.152908,475.130676,97.170486zM474.331512,97.638016C474.297546,97.746994,474.297546,97.834877,474.331512,97.90284L474.521332,98.091492C474.589294,98.151253,474.838898,98.230934,475.270111,98.331703L475.993073,98.484032C476.161804,98.15477,476.495758,97.646225,476.994934,96.956055L476.589508,96.451027L476.57663,96.589294C476.534424,96.792007,476.419586,97.052139,476.234467,97.372032C476.022369,97.725899,475.83606,97.923927,475.675537,97.96611C475.55719,97.990723,475.299408,97.919243,474.902161,97.751678C474.547119,97.591148,474.35614,97.55365,474.331512,97.638016zM491.317383,89.556374C491.384186,89.143913,491.34201,88.786522,491.189667,88.48304C491.080688,88.263916,490.910797,88.07058,490.682281,87.90184C490.733856,88.17955,490.665894,88.398674,490.479584,88.559204C490.23468,88.794724,489.938232,88.916588,489.59137,88.924789C489.253906,88.924789,488.949249,88.815819,488.678589,88.596695C487.900543,87.940514,487.37207,87.599525,487.093201,87.573753C486.856506,87.549141,486.54245,87.624138,486.153442,87.801071L485.456238,87.851456L484.986359,87.372208C484.51297,86.833199,484.183716,86.56369,483.997375,86.56369C483.752502,86.571892,483.456024,86.719536,483.109192,87.005447L482.804535,87.28315L482.449493,87.510475C482.069855,87.69561,481.726501,87.826851,481.421844,87.90184C480.956665,88.020195,480.551239,88.335396,480.204407,88.848625L479.570465,89.746201C479.274017,89.905556,478.978729,90.230133,478.682281,90.71759L478.13739,91.82959C477.891327,92.511559,477.908905,93.3564,478.187805,94.36763C478.32254,94.872658,478.487762,95.309723,478.682281,95.68C478.774841,95.048424,479.041992,94.484802,479.481415,93.987976L480.35672,93.167747L479.646637,92.687325C479.384155,92.443596,479.261139,92.21627,479.278717,92.005356C479.295105,91.677261,479.397064,91.396042,479.583374,91.15934C479.844666,90.831253,480.238373,90.663689,480.762146,90.654312L481.663239,90.831253L482.424896,90.920303L483.248627,89.973518C483.723206,89.416931,484.112213,89.181404,484.41571,89.265778L485.266418,89.606758L485.861664,89.84697C486.039764,89.913757,486.187408,89.913757,486.305756,89.84697L486.610413,89.644257L487.117798,89.379433L487.790375,89.442711C487.950928,89.501297,488.234497,89.715729,488.639923,90.087181L489.275024,90.667206C489.545685,90.835938,489.811676,90.92382,490.074158,90.932022C490.378815,90.941399,490.623718,90.844139,490.810028,90.642593C491.080688,90.355515,491.24942,89.993439,491.317383,89.556374zM479.938416,91.790924C479.786072,92.295952,480.052063,92.675606,480.737549,92.927536C480.771515,92.927536,480.809021,92.953308,480.851196,93.0037C480.902771,93.070488,480.881683,93.138451,480.787933,93.205238L479.722809,94.101639C479.147461,94.725014,478.893188,95.381203,478.961151,96.071373C479.139252,95.515961,479.413452,94.998039,479.786072,94.518784C480.209076,93.996178,480.504364,93.693863,480.674286,93.609497L480.902771,93.622391C480.953156,93.680977,480.940247,93.739563,480.864105,93.799324L480.572327,94.06414L480.014557,94.657059C479.684143,95.019127,479.350189,95.595634,479.012726,96.387749L479.087708,96.626785C479.333771,96.004578,479.629059,95.494865,479.975891,95.099983C480.238373,94.804695,480.487976,94.594955,480.72467,94.468399C480.81723,94.426216,480.872314,94.450821,480.889862,94.543396C480.91449,94.627762,480.872314,94.712128,480.762146,94.796494L480.204407,95.275742C479.9841,95.528847,479.667725,96.008095,479.25293,96.715843L479.291595,96.792007L479.494293,96.816612C479.61264,96.858795,479.633759,96.943161,479.557587,97.069717C478.999817,97.565369,478.910767,98.100868,479.291595,98.672684C479.663025,99.237473,480.209076,99.430817,480.927368,99.253876C481.756989,100.340103,482.707275,101.118156,483.781799,101.589203C484.619598,101.943077,485.193756,102.153992,485.506622,102.220779C486.572937,102.448105,487.532593,102.326241,488.38681,101.855194C489.798798,101.072456,490.79245,99.893661,491.367767,98.318817C491.909119,96.821304,491.951324,95.33902,491.494324,93.874313C491.207245,92.974403,490.712769,92.094406,490.010864,91.235504C489.698029,91.227303,489.372253,91.121849,489.03363,90.920303L488.38681,90.313332C487.989594,89.943054,487.722412,89.736824,487.587677,89.694641C487.342773,89.602074,486.999451,89.720421,486.560028,90.048515C486.331543,90.175064,486.086639,90.230133,485.824158,90.212555L485.062531,90.023903L484.060669,90.087181C483.67984,90.238335,483.342377,90.507843,483.045929,90.894524C482.911163,91.071465,482.724854,91.168716,482.488159,91.18512L481.878845,91.134735L480.813721,91.071465C480.373138,91.079666,480.08136,91.319878,479.938416,91.790924zM480.534821,96.425247C480.593414,96.340881,480.682465,96.2612,480.800812,96.185036L480.990662,96.210815C481.042206,96.277603,481.032837,96.337364,480.966034,96.387749L480.813721,96.53891C480.711761,96.647881,480.661377,96.736931,480.661377,96.803726C480.661377,96.888092,480.614502,96.934959,480.521942,96.943161C480.428192,96.943161,480.382507,96.888092,480.382507,96.779114C480.382507,96.668968,480.432892,96.551796,480.534821,96.425247zM480.953156,95.377686C481.00354,95.444481,480.978943,95.515961,480.876984,95.592125L480.851196,95.61673L480.432892,95.945992L480.090729,96.374863C479.963013,96.543594,479.886841,96.589294,479.862244,96.513123C479.844666,96.462738,479.878632,96.358452,479.963013,96.197922L480.230164,95.780777C480.407104,95.57103,480.589905,95.419876,480.775055,95.327301C480.843018,95.29332,480.902771,95.309723,480.953156,95.377686zM487.625183,99.658142L488.373932,99.658142L488.639923,99.632355C488.809814,99.632355,488.822723,99.674545,488.678589,99.758911L488.29776,100.010841C488.095032,100.120987,487.853668,100.150276,487.574768,100.099892L487.396667,100.023727L487.333405,99.872574C487.359192,99.729614,487.456421,99.658142,487.625183,99.658142zM489.819885,91.867088L488.868408,91.967857C488.784027,91.976059,488.716064,91.954971,488.66568,91.904587C488.605927,91.854202,488.581329,91.790924,488.589539,91.715927L488.615295,91.500328L488.703186,91.336281C488.762939,91.303467,488.826233,91.303467,488.894196,91.336281L489.858551,91.727646C489.925323,91.761627,489.955811,91.790924,489.946442,91.816704C489.946442,91.841309,489.904236,91.858887,489.819885,91.867088zM483.934113,91.77803C483.984497,91.737022,484.039581,91.719444,484.099335,91.727646C484.166138,91.737022,484.217682,91.766319,484.251648,91.816704L484.441498,92.005356C484.559845,92.131905,484.60672,92.21627,484.580933,92.258453L484.365326,92.38501L483.934113,92.624046L483.439636,92.965027L483.096313,93.154854C483.02951,92.977921,483.147858,92.696693,483.452515,92.308846L483.934113,91.77803zM488.957458,94.101639C488.941071,93.900093,488.994965,93.672775,489.122681,93.41967C489.241028,93.175949,489.362885,93.041191,489.490601,93.016586C489.608948,92.999008,489.751923,93.104469,489.921814,93.331787C490.090546,93.559113,490.187805,93.773544,490.213593,93.976257C490.23819,94.152023,490.192505,94.262169,490.074158,94.304352L489.706207,94.36763L489.262115,94.405128C489.084015,94.379349,488.983246,94.27858,488.957458,94.101639zM489.541107,93.791443L489.523529,93.847672L489.611542,93.840317L489.576324,93.773514L489.559906,93.749069L489.541107,93.791443zM484.086456,95.150368C483.86615,95.158569,483.747803,95.078888,483.731384,94.910156C483.705627,94.708611,483.786469,94.455513,483.971619,94.152023C484.157928,93.85791,484.314941,93.702072,484.441498,93.685661C484.576233,93.659882,484.770752,93.770027,485.025024,94.013756C485.287506,94.257484,485.397644,94.471916,485.354279,94.657059C485.321472,94.82579,485.211334,94.934761,485.025024,94.98632L484.580933,95.048424L484.086456,95.150368zM488.728973,95.377686C488.839111,95.486664,488.85553,95.605011,488.779358,95.730392L488.310638,96.526016C488.174713,96.70295,487.984894,96.753342,487.73999,96.678345L487.612274,96.60218L487.638062,96.451027L488.01889,95.856941C488.11145,95.722183,488.11145,95.595634,488.01889,95.478462L487.435333,94.682831L486.864685,93.635277L486.838928,93.482948L486.902191,93.407959C486.978363,93.373978,487.054504,93.41967,487.130676,93.546227L487.688446,94.36763L488.310638,94.98632L488.728973,95.377686zM484.212982,99.127327L483.908325,98.167656C483.86615,98.032906,483.913025,97.919243,484.047791,97.826675L485.164459,96.892776C485.214844,96.850594,485.25351,96.837708,485.278137,96.854111C485.303894,96.871689,485.303894,96.90918,485.278137,96.967773L485.164459,97.32164L485.227753,97.498581L485.418732,97.586464C486.54245,97.813782,487.37558,97.919243,487.916931,97.90284C488.255585,97.894638,488.716064,97.80558,489.299622,97.638016L490.087036,97.397812L490.251099,97.297035C490.285065,97.246651,490.297974,97.18689,490.289764,97.120102L490.276855,96.967773L490.302643,96.866997C490.32724,96.850594,490.361237,96.863487,490.403412,96.90567L490.886169,97.334534C490.936584,97.368515,490.965851,97.422417,490.97406,97.498581L490.949463,97.675514L490.492462,98.471146L490.416321,98.546135L490.378815,98.458252L490.365906,98.344589L490.289764,98.21804C490.23819,98.193436,490.184296,98.193436,490.124542,98.21804L489.40155,98.723068C488.826233,99.076942,488.29306,99.287857,487.803284,99.354652C487.312317,99.422615,486.649078,99.299576,485.811279,98.989059L484.707489,98.49575C484.555145,98.462936,484.441498,98.513329,484.365326,98.648079L484.403992,99.140221L484.212982,99.127327zM490.314362,97.612244C490.263977,97.586464,490.200714,97.586464,490.124542,97.612244L489.325378,97.852448C488.716064,98.01181,488.213379,98.104378,487.816162,98.130157C487.181061,98.164139,486.352631,98.062195,485.329681,97.826675C485.0672,97.802063,484.872711,97.844246,484.746155,97.953224C484.652405,98.045792,484.635986,98.130157,484.69577,98.205154L484.911377,98.344589L486.788513,98.887115C487.041626,98.929306,487.37558,98.929306,487.790375,98.887115L488.741852,98.698463L490.174927,98.029388C490.285065,97.995407,490.353027,97.90284,490.378815,97.751678C490.395203,97.683716,490.374115,97.638016,490.314362,97.612244zM473.138672,95.275742C472.496552,95.554626,472.094635,95.801865,471.934082,96.020988L471.211121,97.284149L470.995514,97.940331C470.791626,98.462936,470.538513,98.942192,470.233856,99.380432L468.596924,101.564598C467.954773,102.431702,467.573975,103.108978,467.455627,103.597603C467.295074,104.253792,467.282196,105.154877,467.418121,106.29969C467.494293,106.939468,467.603271,107.571053,467.747375,108.193253C469.887024,109.338074,471.603668,110.125496,472.897278,110.554359C473.422241,110.723091,474.255371,110.71489,475.396667,110.529755L476.970337,110.213379L476.652771,110.428978C476.484039,110.554359,476.30127,110.659821,476.10675,110.744186L477.617126,112.626038C477.938202,112.945923,478.32254,113.240036,478.771332,113.509544C479.168549,113.745071,479.367767,113.84584,479.367767,113.813034C479.520081,113.248245,479.675934,113.118179,479.836456,113.421661L480.039185,114.090744L480.572327,115.984306C481.045715,116.338181,481.655029,116.682678,482.399109,117.020142C483.625946,117.559158,484.846924,117.861473,486.065552,117.929428C487.28302,117.988022,488.39502,117.882568,489.40155,117.613052C490.077667,117.427917,490.573334,117.226379,490.886169,117.007256L491.722809,114.443436L492.204407,112.285049C492.298157,112.225296,492.36142,112.406914,492.395416,112.827576C492.437592,113.282227,492.521973,113.501343,492.648529,113.483765C492.868805,113.45916,493.079712,113.173248,493.2836,112.626038L493.536713,111.804626L495.629486,111.098053C497.118774,110.550842,498.091339,110.070419,498.54718,109.657959C497.702332,109.599373,497.016846,109.440018,496.493073,109.178711L495.731415,108.698288L497.292206,109.014664C498.441711,109.199799,499.274841,109.208008,499.790405,109.039268C501.101624,108.610405,502.822937,107.822983,504.953186,106.678169C505.385559,104.581886,505.482819,103.050392,505.244965,102.082512C505.034058,101.215408,504.4505,100.074112,503.494354,98.659798C502.623718,97.380234,502.133942,96.758026,502.023773,96.792007L501.985107,96.324471C501.96051,96.05497,501.930054,95.882721,501.896057,95.806557C501.829285,95.0578,501.406281,94.450821,500.628204,93.987976C499.900543,93.559113,499.169373,93.407959,498.433502,93.533333C497.757385,94.2071,497.156281,94.64534,496.632507,94.846878L496.251678,94.998039L496.365356,95.528847L496.632507,96.425247L497.303925,97.019325C497.549988,97.229073,497.736298,97.326332,497.862854,97.308754L498.078461,97.144707C498.188599,97.019325,498.226105,96.90918,498.192139,96.816612C497.862854,96.379547,497.71405,96.142853,497.748016,96.110039C497.765594,96.092461,497.896851,96.147537,498.141724,96.274086L498.535461,96.488518L499.245544,96.615067L499.65097,95.668289L500.234497,96.008095L499.777527,96.740448L499.359192,97.472801C499.350983,97.74231,499.495117,97.953224,499.790405,98.104378C500.137238,98.28952,500.361053,98.550819,500.463013,98.887115C500.641113,99.5187,500.686798,100.133873,500.602448,100.731476C500.586029,100.882629,500.399719,100.579147,500.044678,99.822182L499.905243,100.655304C499.871246,101.286888,499.984924,101.800117,500.247406,102.196175C500.526276,102.321556,500.987946,102.823067,501.630066,103.69838C502.255798,104.549072,502.776062,105.041214,503.190857,105.175964C502.868622,105.385712,502.403442,105.221664,501.795288,104.68383L500.450104,103.344505L499.511536,103.206238L500.01889,104.620552C500.357544,105.554443,500.4841,106.017296,500.399719,106.009094C500.315369,105.992691,499.710724,105.028328,498.585846,103.11718L498.128845,102.789085C497.723419,102.553566,497.250031,102.384827,496.708679,102.284058C495.77829,102.107124,494.66629,102.482086,493.37149,103.407776L493.499207,103.635101L493.19455,103.76165L492.82663,103.875313L492.711792,103.660881C492.560638,103.46637,492.306366,103.290604,491.951324,103.130074C491.554077,102.944931,491.283417,102.86525,491.139282,102.889862C491.06311,102.90744,491.020935,102.940247,491.012726,102.991806L490.923676,103.256622C490.889709,103.415977,490.860413,103.492142,490.834625,103.483948L490.644806,103.193344L490.479584,102.878143L490.04837,101.109955C489.540985,101.548187,489.007843,101.892693,488.450073,102.14579C486.54715,102.83596,484.669983,102.662537,482.817413,101.627869L482.512756,103.079681C482.504578,103.113663,482.403778,103.066795,482.20929,102.940247L481.854248,102.725815C481.507385,102.693008,481.130096,102.764481,480.72467,102.940247C480.521942,103.024612,480.352051,103.11718,480.217285,103.219124L480.851196,103.534332C481.291779,103.76165,481.494507,103.904602,481.46051,103.963196L480.534821,103.837814L479.278717,103.584717L479.152161,103.496834L478.771332,103.42067C477.917114,103.243729,476.902374,103.446449,475.727081,104.026466C476.57193,104.615868,477.151947,105.625923,477.464813,107.056648L476.805115,105.870819C476.271973,105.020126,475.751709,104.456505,475.244324,104.178802C474.381897,103.714783,473.599182,103.69838,472.897278,104.127243L472.289124,105.504059C471.9505,106.210632,471.666931,106.674652,471.438446,106.892601C471.362274,107.069534,471.663422,107.66362,472.339539,108.673676L471.730194,108.295197C471.324768,107.975311,471.096283,107.642532,471.045898,107.29686C470.909973,107.43161,470.686157,107.524178,470.373291,107.57457L469.942108,107.549957L470.322906,107.322639C470.627563,107.1539,470.901764,106.926582,471.146667,106.640671C471.900116,105.747787,472.352417,104.868965,472.50473,104.001862L472.733246,102.839478C472.800018,102.494972,472.830505,102.14579,472.821106,101.791916L473.037903,99.455421L473.049622,99.380432L473.0625,99.380432C473.232422,98.513329,473.34137,98.066887,473.392944,98.041107C473.417542,98.024704,473.472626,98.175858,473.556976,98.49575L473.70932,99.013672C473.921387,99.182404,474.119415,99.287857,474.305725,99.330048C474.508453,99.371056,474.660797,99.333557,474.762726,99.216385L475.015839,98.976173C475.143555,98.866028,475.236115,98.79924,475.295868,98.77346C474.44986,98.394974,473.992889,98.138359,473.924927,98.003609C473.840546,97.852448,473.769073,97.62513,473.70932,97.32164L472.872681,97.915726L472.441467,97.953224C472.399292,97.868858,472.432098,97.755196,472.542236,97.612244C472.652374,97.469284,472.796509,97.350937,472.97345,97.258369C473.117584,97.183372,473.24881,97.056824,473.367157,96.87989L473.493713,96.639679L473.380035,96.374863C473.320282,96.18972,473.358948,96.059654,473.493713,95.98349C473.688232,95.882721,473.921387,95.806557,474.192078,95.756165C474.495575,95.688202,474.652588,95.709297,474.660797,95.819443C474.668976,95.89444,474.54245,95.967087,474.279968,96.033875C474.035065,96.084259,473.934296,96.152222,473.976471,96.23542C474.229584,96.690063,474.458069,96.866997,474.660797,96.766228L475.117767,96.564682C475.295868,96.480316,475.401337,96.374863,475.435333,96.248306L475.599365,95.933105C475.667328,95.806557,475.701294,95.697578,475.701294,95.605011L475.244324,95.162086L474.876404,94.947655C474.436981,94.872658,473.858124,94.981636,473.138672,95.275742zM485.214844,103.888199C485.443359,104.333473,485.519501,104.607666,485.443359,104.708435C485.367188,104.809204,485.224213,104.847878,485.012146,104.822098C484.79303,104.805695,484.682861,104.724838,484.682861,104.581886L484.391113,103.748764C484.246979,103.344505,484.302063,103.151161,484.555145,103.167572C484.767242,103.185143,484.986359,103.425354,485.214844,103.888199zM486.281158,104.708435C486.196777,104.380341,486.192108,104.034668,486.26828,103.672592C486.336243,103.319901,486.428802,103.167572,486.54715,103.219124C486.615112,103.251938,486.627991,103.589401,486.585815,104.229187C486.610413,104.885368,486.847107,105.281425,487.295898,105.416183L487.840759,105.440788C487.984894,105.424377,488.056366,105.461876,488.056366,105.554443C488.056366,105.840363,487.850159,105.942299,487.435333,105.857933C487.181061,105.807549,486.957275,105.693886,486.762756,105.516953C486.526062,105.30603,486.365509,105.03653,486.281158,104.708435zM487.790375,107.66362C487.672028,107.317947,487.612274,107.040237,487.612274,106.829323C487.612274,106.593803,487.684937,106.476624,487.829041,106.476624C487.989594,106.476624,488.095032,106.603172,488.145416,106.855103L488.271973,107.801888C488.331726,108.172165,488.331726,108.623291,488.271973,109.152931C488.2052,109.675537,488.11615,109.927467,488.005981,109.911057C487.92981,109.893486,487.892334,109.594681,487.892334,109.014664C487.892334,108.332695,487.858337,107.881569,487.790375,107.66362zM484.911377,115.555443C485.037903,115.403114,485.388275,115.294144,485.963623,115.227348C486.504974,115.167587,486.965454,115.172272,487.346283,115.239067C488.57312,115.483963,489.207031,115.690193,489.249237,115.857758C489.265625,115.967903,489.114471,116.005402,488.792236,115.97142L487.73999,115.857758L485.748016,115.946808L484.961761,115.908142C484.79303,115.824944,484.775452,115.706604,484.911377,115.555443zM489.464844,114.318062L488.85553,114.35556L487.73999,114.229004L486.534241,114.26767L485.658936,114.229004C485.482025,114.154015,485.448029,114.001686,485.558167,113.774368C485.676514,113.52243,486.005798,113.395882,486.54715,113.395882C487.164673,113.395882,487.803284,113.501343,488.462982,113.71109C489.114471,113.913803,489.448425,114.115349,489.464844,114.318062zM488.57663,106.867996C488.458282,106.733238,488.57663,106.501228,488.931671,106.173141C489.244537,105.88723,489.570282,105.664597,489.908936,105.504059C490.8815,105.007233,491.443939,104.729523,491.596283,104.670937L492.35675,104.557281C492.763336,104.531502,492.966064,104.570168,492.966064,104.670937C492.966064,104.745934,492.745758,104.89006,492.306366,105.099808L491.012726,105.681L489.578491,106.539902C489.012543,106.884399,488.678589,106.994545,488.57663,106.867996zM486.381927,106.514122C486.247162,106.632469,486.124146,106.691055,486.014008,106.691055C485.937836,106.691055,485.61676,106.510605,485.050812,106.148529C484.441498,105.760681,483.997375,105.533356,483.718506,105.466568L482.056946,105.062309C481.329285,104.868965,480.966034,104.721329,480.966034,104.620552C480.966034,104.502205,481.000031,104.417839,481.066803,104.367447C481.142975,104.300659,481.287109,104.266678,481.498016,104.266678C481.752289,104.266678,482.648682,104.570168,484.187225,105.175964C485.760895,105.78997,486.54715,106.177826,486.54715,106.337189L486.381927,106.514122zM489.375793,113.547043L488.399689,112.991623L487.676727,112.726807L486.851807,112.637756C486.673706,112.655327,486.047974,112.911942,484.97464,113.408775C484.026672,113.84584,483.519318,114.001686,483.452515,113.876305C483.358765,113.699371,483.756012,113.374786,484.644196,112.903748C485.540588,112.431519,486.305756,112.153816,486.940857,112.070618C487.472839,111.994453,488.137238,112.221779,488.931671,112.751411L489.95932,113.572815C489.95932,113.766159,489.764801,113.757957,489.375793,113.547043zM495.909515,109.493912L495.921234,109.55719C495.770081,109.792709,495.439667,110.075104,494.932281,110.403198L494.285461,110.781677C494.217499,110.823868,493.870667,110.987907,493.244934,111.274994L492.077881,111.767136C491.815399,111.833923,491.409973,111.79174,490.860413,111.640579L489.604279,111.325378L488.513367,111.072281C488.150116,110.955101,487.968506,110.862534,487.968506,110.794571C487.968506,110.710205,488.001312,110.625839,488.069275,110.542641C488.145416,110.440697,488.226288,110.40789,488.310638,110.440697L489.185944,110.781677C489.532806,110.908234,489.845642,110.971504,490.124542,110.971504L491.113495,110.89534L492.116547,110.794571C492.420013,110.769966,492.898102,110.635208,493.549591,110.390312L495.173676,109.734123C495.579102,109.573593,495.824005,109.493912,495.909515,109.493912zM486.07843,111.161331L484.948853,111.059387L483.845062,111.034782L482.564331,111.148438C482.310059,111.190628,481.912811,111.33358,481.37146,111.577309C480.956665,111.762451,480.559448,111.838608,480.178619,111.804626C479.832947,111.77182,479.142792,111.286713,478.111633,110.352814C478.061249,110.252045,477.836273,109.986053,477.439026,109.55719L476.855499,108.938499C476.873077,108.76976,477.0336,108.787338,477.337097,108.988884L478.13739,109.55719L479.139252,110.125496C479.62085,110.352814,480.009888,110.487564,480.306335,110.529755L481.574188,110.492256L483.045929,110.390312L484.88559,110.554359L486.318665,110.656303C486.488556,110.622322,486.670166,110.521545,486.864685,110.352814L487.117798,110.125496L487.067413,110.492256C487.00766,110.76059,486.923279,110.950417,486.813141,111.059387C486.712372,111.161331,486.467468,111.194138,486.07843,111.161331z"/>
    <path transform="matrix(-1,0,0,1,0,0)" style="stroke:none;fill:#000000;fill-rule:evenodd" d="M491.046844,117.636063L491.100494,117.642395L491.15329,117.653839L491.204498,117.670746L491.253937,117.692627L491.300751,117.719452L491.344635,117.750885L491.370941,117.77327L491.602142,117.982925L491.627228,118.00737L491.84494,118.232574L491.867645,118.257523L492.072357,118.498108L492.093536,118.524582L492.28476,118.780548L492.303375,118.807205L492.481415,119.078537L492.497833,119.105377L492.662567,119.39209L492.67691,119.418579L492.828461,119.720673L492.84079,119.746979L492.978973,120.064453L492.989227,120.089752L493.114349,120.422607L493.122894,120.44754L493.234467,120.795776L493.241486,120.819183L493.339874,121.1828L493.345367,121.205017L493.430634,121.584L493.434906,121.605362L493.506805,121.999725L493.510223,122.019882L493.568817,122.429626L493.571075,122.448425L493.616486,122.87355L493.618195,122.891663L493.650177,123.332153L493.651031,123.346176L493.665924,123.66774L493.666229,123.681412L493.67276,123.995987L493.672882,124.009827L493.671173,124.317215L493.670868,124.332596L493.660614,124.632813L493.659943,124.648026L493.641449,124.941238L493.640289,124.957474L493.613434,125.2435L493.611542,125.26059L493.576385,125.539612L493.573822,125.557556L493.53006,125.82959L493.527008,125.846161L493.48172,126.080078L493.47757,126.09938L493.430267,126.303055L493.423798,126.328522L493.37442,126.501953L493.363434,126.535782L493.312225,126.678802L493.292206,126.727158L493.238922,126.839767L493.200104,126.907944L493.144928,126.990463L493.112823,127.033691L493.103241,127.04361L493.100494,127.083588L493.09964,127.092651L493.085602,127.254288L493.08493,127.262146L493.075714,127.352203L493.123016,127.336304L493.182343,127.323151L493.250702,127.312042L493.304352,127.306061L493.358307,127.305725L493.389435,127.30777L493.452484,127.314087L493.505951,127.322296L493.558258,127.3358L493.604889,127.352707L493.662994,127.376968L493.7117,127.400208L493.757843,127.428406L493.788727,127.451126L493.841522,127.492996L493.88205,127.528702L493.926666,127.577744L493.974457,127.637543L494.006073,127.681458L494.024567,127.712219L494.067413,127.789627L494.097198,127.852509L494.134735,127.947845L494.151825,127.998932L494.199188,128.167068L494.210297,128.214401L494.245148,128.402527L494.251129,128.44371L494.273163,128.651993L494.275543,128.685654L494.285126,128.91394L494.285614,128.942993L494.282562,129.191437L494.281708,129.216202L494.265839,129.484818L494.26413,129.50618L494.235382,129.794937L494.233185,129.813232L494.192841,130.112762L494.157135,130.437241L494.350067,130.535828L494.396881,130.562836L494.440643,130.594437L494.480927,130.630157L494.517487,130.669968L494.549957,130.713364L494.80423,131.091843L494.82901,131.132507L494.973236,131.395126L494.991486,131.431702L495.119843,131.714828L495.134186,131.749863L495.246613,132.053665L495.257538,132.086472L495.354279,132.411118L495.362274,132.44136L495.405365,132.624542L495.412018,132.656998L495.446503,132.859482L495.45047,132.887497L495.476227,133.109467L495.478485,133.133377L495.495575,133.374649L495.496735,133.395157L495.505157,133.655731L495.50528,133.673508L495.504974,133.953384L495.504791,133.968597L495.49588,134.267792L495.495209,134.281631L495.477448,134.600296L495.476959,134.608673L495.363983,136.186646L495.367401,136.315308L495.378876,136.470291L495.398529,136.636887L495.425873,136.812546L495.462433,137.002197L495.506317,137.197678L495.558929,137.403748L495.621002,137.623657L495.700592,137.870728L495.779205,138.075089L495.856415,138.240829L495.925323,138.35907L495.982025,138.434082L496.015167,138.465866L496.038055,138.472534L496.103363,138.486038L496.12558,138.49115L496.236603,138.51918L496.250275,138.522766L496.386627,138.561035L496.395721,138.563782L496.557343,138.612305L496.563812,138.614182L496.750946,138.672958L496.755707,138.6745L496.967926,138.743362L496.972198,138.74472L497.209869,138.824005L497.212799,138.825043L497.475616,138.914398L497.478668,138.915421L497.738251,139.005478L497.741669,139.006668L497.986847,139.093643L497.99057,139.095001L498.221283,139.178741L498.225189,139.180099L498.441681,139.260574L498.446136,139.262283L498.648285,139.339523L498.653717,139.341751L498.841522,139.415894L498.847992,139.418457L499.021454,139.489548L499.02829,139.492447L499.187347,139.560287L499.23587,139.583862L499.28183,139.612396L499.324554,139.645386L499.363861,139.682449L499.399078,139.723297L499.430023,139.767548L499.456329,139.814713L499.474091,139.854691L499.575897,140.112198L499.583466,140.132355L499.672272,140.386444L499.679108,140.407455L499.755341,140.658295L499.761627,140.680679L499.825226,140.928268L499.835968,140.981064L499.841278,141.034882L499.841278,141.088882L499.835663,141.142532L499.825043,141.19397L499.832367,141.206604L499.854767,141.255814L499.872223,141.306915L499.884308,141.359543L499.891022,141.413025L499.89151,141.484268L499.882965,141.626602L499.876984,141.680252L499.869843,141.716476L499.843842,141.827209L499.828827,141.878983L499.808624,141.929047L499.791718,141.962708L499.748138,142.041824L499.719818,142.087616L499.686798,142.130493L499.64975,142.1698L499.606842,142.206711L499.545502,142.254044L499.501068,142.28479L499.453888,142.310944L499.424713,142.324097L499.194,142.42012L499.123444,142.443878L498.88797,142.505219L498.812286,142.519226L498.572235,142.545883L498.495697,142.548782L498.250458,142.540588L498.195099,142.535965L497.977753,142.505905L497.93045,142.497177L497.703339,142.44455L497.663055,142.433456L497.425873,142.358444L497.391205,142.34613L497.143951,142.248734L497.113495,142.235748L496.856537,142.115631L496.83139,142.102982L496.564362,141.96048L496.542145,141.948013L496.26535,141.782944L496.246552,141.770996L495.959625,141.583206L495.95163,141.577911L495.261322,141.108185L495.106171,141.033524L494.939545,140.977478L494.762543,140.941086L494.393463,140.911682L494.366486,140.908951L494.220734,140.889816L494.188263,140.884521L494.051178,140.857864L494.016022,140.84967L493.887543,140.815491L493.849945,140.804047L493.730133,140.762527L493.688934,140.746292L493.577728,140.697083L493.535858,140.676407L493.433319,140.619843L493.390106,140.593185L493.296112,140.528946L493.254425,140.49733L493.169037,140.425735L493.128693,140.388321L493.051971,140.309204L493.015411,140.267166L492.947418,140.180542L492.915924,140.136108L492.856476,140.041962L492.830536,139.996002L492.779572,139.894333L492.759125,139.847687L492.716888,139.738495L492.701691,139.693558L492.668182,139.577026L492.657928,139.534821L492.632965,139.410599L492.628571,139.385315L492.401154,137.883209L492.395844,137.829559L492.395844,137.775558L492.401459,137.721909L492.412384,137.66893L492.428619,137.617508L492.449982,137.567947L492.476105,137.520798L492.50705,137.476532L492.507416,137.476028L492.098175,136.940186L492.06778,136.896088L491.002533,135.16655L490.973541,135.112564L490.889984,134.933655L490.875946,134.900681L490.80246,134.711197L490.791168,134.679062L490.727997,134.478806L490.719086,134.447708L490.66629,134.236679L490.659943,134.207642L490.617401,133.986023L490.612823,133.958511L490.580658,133.726135L490.577789,133.7005L490.556061,133.457352L490.554535,133.434113L490.543121,133.180374L490.543121,133.133896L490.580658,132.23735L490.585663,132.183701L490.596039,132.130722L490.611786,132.078949L490.632477,132.029221L490.658234,131.98172L490.68869,131.937134L490.711578,131.909958L489.980438,131.061935L489.859589,130.92627L489.839264,130.90184L489.737091,130.772308L489.714386,130.741394L489.630829,130.618195L489.606232,130.578033L489.54129,130.461334L489.515167,130.407516L489.469025,130.296951L489.445404,130.227753L489.417938,130.12352L489.40683,130.070557L489.402557,130.035522L489.393646,129.937622L489.391449,129.883621L489.394501,129.832016L489.404449,129.740601L489.412994,129.687302L489.426788,129.63501L489.445953,129.58461L489.470062,129.53624L489.491241,129.501724L489.668243,129.236877L489.700531,129.193481L489.736908,129.153671L489.766998,129.127014L489.453094,128.582626L487.626678,126.277435L487.595245,126.233521L487.568573,126.186707L487.546722,126.137314L487.529999,126.085892L487.518524,126.033264L487.51236,125.979599L487.511688,125.925613L487.51651,125.87178L487.526764,125.818817L487.542267,125.767044L487.562958,125.717316L487.588593,125.669815L487.618988,125.625046L487.653534,125.58371L487.692291,125.545944L487.712616,125.529877L485.739594,123.810425L485.700836,123.772995L485.665985,123.731659L485.635406,123.687225L485.609589,123.639893L485.588715,123.589996L485.572845,123.538391L485.562408,123.485428L485.557281,123.431778L485.557648,123.377777L485.563446,123.324127L485.574738,123.271332L485.591156,123.219894L485.612823,123.170349L485.639313,123.123352L485.670441,123.079269L485.70578,123.038605L485.74527,123.001526L485.788116,122.968887L485.810883,122.953857L486.110748,122.769653L486.386871,122.577423L486.649689,122.371872L486.910614,122.1436L487.07785,121.981094L487.23526,121.81398L487.374176,121.651154L487.496979,121.49054L487.60434,121.332474L487.697113,121.17511L487.773834,121.023209L487.844208,120.854553L487.847321,120.847549L487.908661,120.706421L487.929291,120.663696L488.011993,120.511963L488.031342,120.479492L488.135345,120.317169L488.152802,120.291718L488.278412,120.118622L488.293793,120.098465L488.440887,119.91478L488.454071,119.89888L488.622528,119.704437L488.634674,119.691116L488.82486,119.486069L488.835114,119.475128L489.0466,119.259491L489.065399,119.241379L490.650726,117.776688L490.692291,117.742004L490.736847,117.711761L490.784515,117.686295L490.834442,117.665619L490.886017,117.650253L490.939178,117.640167L490.993011,117.635376L491.046844,117.636063zM489.427338,119.633179C488.834412,120.222572,488.471191,120.698303,488.336426,121.060379C488.150116,121.557205,487.795074,122.049347,487.270111,122.537979C486.906891,122.874268,486.513153,123.164871,486.090149,123.408592L489.553894,126.427055L489.160187,126.72937L488.044647,125.946632L489.896057,128.283127L490.594421,129.494736L490.111633,129.533401L489.934723,129.798218C489.883148,130.033737,490.031982,130.337219,490.378815,130.707504L491.456818,131.957779L491.113495,132.260086L491.076019,133.156494C491.092407,133.847824,491.220123,134.424332,491.456818,134.887177L492.521973,136.616699L493.689026,138.144684L493.638641,138.623932L492.928558,137.803696L493.155884,139.305908C493.266022,139.987869,493.74411,140.349945,494.590118,140.39212C494.927582,140.40033,495.240448,140.484695,495.528717,140.645218L496.251678,141.13736C497.029724,141.668167,497.702332,141.957596,498.26828,142.00798C498.598724,142.041962,498.9151,141.983383,499.219757,141.832214C499.313507,141.790039,499.359192,141.663483,499.359192,141.452576L499.130707,141.301422L498.903381,141.150253L499.10611,141.111588L499.308807,141.061203C499.232635,140.733109,499.122498,140.396805,498.978363,140.051147C498.572937,139.874207,498.015198,139.664459,497.303925,139.419556C496.569244,139.167633,496.104034,139.024673,495.909515,138.990692C495.604858,138.948517,495.337708,138.54425,495.110382,137.777924C494.924072,137.147507,494.830322,136.61319,494.830322,136.174957L494.94516,134.570801C495.003754,133.695496,494.969788,133.026428,494.843231,132.563568C494.724884,132.117126,494.564331,131.725769,494.361633,131.389465L494.107361,131.010986L493.587097,130.744995L493.663269,130.051315C493.790985,129.200623,493.781616,128.565521,493.638641,128.143692C493.544922,127.865982,493.397278,127.778099,493.19455,127.878868L492.928558,128.11908L492.800842,130.139191L492.027466,130.65712C492.374329,128.729568,492.560638,127.432434,492.585236,126.768036C492.745758,126.750465,492.885223,126.409477,493.003571,125.745087C493.131287,125.029144,493.168762,124.238205,493.118378,123.371101C492.982452,120.980705,492.280579,119.24649,491.012726,118.168472L489.427338,119.633179z"/>
    <path transform="matrix(-1,0,0,1,0,0)" style="stroke:none;fill:#000000;fill-rule:evenodd" d="M479.789642,116.613754L479.843109,116.62059L479.895538,116.633057L479.946625,116.650665L479.995697,116.673386L480.025726,116.690475L480.353302,116.8909L480.371429,116.902359L480.694183,117.118164L480.711273,117.130295L481.029266,117.361481L481.045502,117.373611L481.358734,117.62001L481.374054,117.632477L481.682526,117.894257L481.697052,117.907059L482.000519,118.184219L482.013641,118.196686L482.312653,118.489044L482.32547,118.502029L482.619537,118.809937L482.632355,118.823944L482.861481,119.081619L482.87326,119.095291L483.088226,119.354156L483.099884,119.368683L483.300629,119.628403L483.312775,119.644638L483.498993,119.90538L483.510651,119.92247L483.682709,120.184235L483.694305,120.202515L483.85202,120.465149L483.863129,120.484802L484.006683,120.748444L484.017609,120.76947L484.146759,121.034134L484.15683,121.056183L484.271881,121.321884L484.281403,121.345459L484.38205,121.612198L484.390778,121.636795L484.477081,121.904373L484.484589,121.92984L484.556671,122.198608L484.563019,122.225098L484.620758,122.494736L484.625702,122.521729L484.669281,122.792206L484.673065,122.819901L484.702301,123.091583L484.704498,123.119263L484.719513,123.3918L484.719879,123.445786L484.714569,123.499435L484.70401,123.552414L484.68808,123.604019L484.668427,123.650833L483.945465,125.165924L483.941071,125.174988L483.764862,125.526978L483.761627,125.533295L483.587677,125.869568L483.584259,125.876236L483.41275,126.196777L483.408783,126.203781L483.239655,126.508621L483.235199,126.516647L483.068451,126.80542L483.063324,126.813965L482.898773,127.087006L482.89328,127.095901L482.731293,127.353226L482.72464,127.36348L482.56485,127.604736L482.560455,127.611572L481.938141,128.520767L481.7883,128.744446L481.783661,128.751282L481.641998,128.955811L481.635712,128.964691L481.504974,129.145462L481.497101,129.156067L481.377472,129.313095L481.367096,129.326416L481.258575,129.459869L481.243011,129.478149L481.145477,129.587677L481.122711,129.611603L481.036285,129.697372L480.999176,129.730865L480.923676,129.792892L480.88028,129.825012L480.833771,129.852524L480.772797,129.880035L479.99942,130.170685L479.948029,130.187088L479.888885,130.199051L479.617401,130.238693L479.587311,130.340363L479.56662,130.398117L478.895966,131.974716L478.911835,131.990448L478.946014,132.032135L478.975922,132.07724L479.001068,132.124908L479.02121,132.174973L479.036102,132.226929L479.045807,132.28006L479.050262,132.348923L479.050262,133.38353L479.047333,133.439758L479.0159,133.736038L479.012665,133.760651L478.968414,134.049408L478.963959,134.074707L478.906891,134.355957L478.901093,134.381409L478.83139,134.655151L478.823883,134.681625L478.741302,134.947678L478.732452,134.973816L478.637299,135.232513L478.627045,135.258316L478.519379,135.509491L478.507416,135.535629L478.387115,135.779297L478.378387,135.795868L478.166534,136.189545L478.160553,136.200317L477.930756,136.604584L477.925079,136.614502L477.677338,137.029373L477.671844,137.038254L477.406342,137.463715L477.401215,137.471924L477.117889,137.908157L477.112762,137.915665L476.811737,138.362488L476.807098,138.369324L476.488251,138.82692L476.483795,138.833237L476.206329,139.219406L476.199677,139.237L475.42923,140.931854L475.265167,141.332031L475.117706,141.716309L474.995697,142.062317L474.897614,142.371429L474.820709,142.653015L474.76828,142.891556L474.73703,143.094376L474.724213,143.282501L474.722687,143.300781L474.705902,143.463791L474.697723,143.517105L474.687958,143.55658L474.637909,143.730865L474.611786,143.802109L474.528412,143.987671L474.500031,144.042007L474.382965,144.23851L474.360931,144.272522L474.279755,144.387848L474.249847,144.426636L474.164764,144.526596L474.125641,144.567947L474.036469,144.652527L473.987579,144.693542L473.89444,144.762741L473.834991,144.801178L473.737946,144.855011L473.668732,144.887131L473.567596,144.925583L473.492584,144.947784L473.387665,144.970856L473.31076,144.981964L473.202087,144.989655L473.148102,144.990845L473.119232,144.989136L472.962708,144.975815L472.909241,144.96846L472.85968,144.95668L472.720917,144.916519L472.670013,144.898926L472.610901,144.870895L472.489563,144.803741L472.443787,144.775208L472.390137,144.732666L472.286407,144.638855L472.248291,144.600586L472.214294,144.558716L472.177063,144.500626L472.060852,144.28978L472.043274,144.294891L471.990112,144.304642L471.93631,144.308914L471.882294,144.307709L471.805573,144.296432L471.183289,144.158203L471.157471,144.151703L470.054871,143.848251L470.012817,143.834915L469.899017,143.793228L469.849487,143.772034L469.816681,143.754776L469.730194,143.705063L469.684753,143.675674L469.625122,143.625778L469.565674,143.568192L469.528748,143.528717L469.496124,143.48584L469.457336,143.419022L469.425385,143.353577L469.404175,143.304031L469.388123,143.252426L469.37735,143.199631L469.37207,143.145798L469.37207,143.091461L469.373077,143.072159L469.378723,143.018341L469.389648,142.96553L469.407959,142.908981L469.418213,142.882324L469.440063,142.832947L469.455963,142.803894L469.475616,142.770401L469.499359,142.73349L469.528076,142.692657L469.545654,142.668915L469.583435,142.621063L469.597107,142.604492L469.644073,142.549637L469.654327,142.538025L469.710541,142.476166L469.717743,142.468475L469.78299,142.399445L469.790344,142.391754L470.399506,141.772354L472.990204,138.771042L472.983398,138.763687L472.950928,138.720642L472.923065,138.674332L472.899994,138.625626L472.881897,138.574707L472.86908,138.522263L472.863251,138.484146L472.659424,136.741623L472.656525,136.707291L472.632599,136.248322L472.631897,136.231064L472.623535,135.801331L472.623535,135.781509L472.630524,135.380997L472.631561,135.358276L472.653961,134.987137L472.656158,134.960495L472.694092,134.618576L472.698364,134.58783L472.751678,134.274963L472.759216,134.238739L472.828064,133.955093L472.839844,133.913574L472.92392,133.659149L472.936218,133.625656L472.994659,133.481781L472.997559,133.474777L473.131683,133.157654L473.135101,133.149963L473.292328,132.794037L473.294891,132.788406L473.474823,132.393356L473.47702,132.388397L473.680206,131.954391L473.681915,131.950623L473.907806,131.477493L473.909515,131.474243L474.158478,130.961975L474.159821,130.959244L474.431671,130.407852L474.432526,130.405975L474.577057,130.115662L474.603546,130.068512L474.634674,130.024414L474.670013,129.983749L474.70932,129.946671L474.752228,129.913864L474.798187,129.885681L474.846893,129.862091L474.897614,129.843643L474.949921,129.830307L475.003204,129.822449L475.05722,129.820068L475.111053,129.822968L475.164337,129.831512L475.216644,129.845352L475.267242,129.864319L475.315582,129.888245L475.361176,129.917114L475.387543,129.937622L475.558563,129.052353L475.571381,128.999893L475.589508,128.948975L475.612701,128.900269L475.630646,128.86969L475.719513,128.728378L475.706207,128.725983L475.654266,128.710953L475.604156,128.690781L475.556305,128.665833L475.511383,128.635941L475.469513,128.601761L475.431427,128.563492L475.39743,128.521622L475.367889,128.476517L475.342926,128.42868L475.322906,128.378433L475.308258,128.326492L475.296112,128.248413L475.219879,127.277008L475.218353,127.227631L475.222992,126.905548L475.223297,126.891357L475.236969,126.557144L475.237823,126.543823L475.260712,126.197464L475.261566,126.185669L475.293365,125.827026L475.294586,125.815063L475.335724,125.444275L475.336945,125.434189L475.386993,125.051102L475.388336,125.041016L475.447662,124.645966L475.449188,124.636917L475.517548,124.229401L475.521149,124.209579L475.644989,123.609985L475.652191,123.579926L475.814545,122.974365L475.823029,122.945831L476.024017,122.334625L476.033417,122.308487L476.272797,121.691132L476.282867,121.666702L476.560699,121.043533L476.57132,121.021332L476.887421,120.392181L476.898346,120.371506L477.253082,119.736389L477.264008,119.717758L477.657013,119.076492L477.682953,119.037872L479.318695,116.828018L479.353058,116.786331L479.391327,116.74823L479.43338,116.714401L479.478485,116.684845L479.526459,116.659897L479.576569,116.640076L479.62851,116.625381L479.681793,116.61615L479.735626,116.612213L479.789642,116.613754zM473.43042,133.826736C473.185547,134.466522,473.104675,135.416809,473.189056,136.679977L473.392944,138.422394L473.963593,138.459885L470.791626,142.134537L470.170593,142.766113C469.984283,142.959457,469.895233,143.077805,469.904602,143.11998C469.929199,143.212555,470.026459,143.284027,470.196381,143.334412L471.299011,143.637909L471.921204,143.776184L472.352417,143.296921L472.50473,143.990601L472.644196,144.243713C472.770721,144.386658,472.944153,144.458145,473.164429,144.458145C473.459717,144.458145,473.713989,144.294098,473.924927,143.966003C474.103027,143.696487,474.192078,143.456284,474.192078,143.246536C474.200287,142.723938,474.44986,141.882599,474.939667,140.720215L475.714203,139.016479L475.714203,138.990692C476.635193,137.727539,477.367554,136.579208,477.908905,135.543365C478.246368,134.903595,478.450256,134.184128,478.517059,133.383804L478.517059,132.349152L477.857361,132.613968L478.377625,131.831223L479.075989,130.18959L479.202545,129.760712L479.811859,129.671661L480.585205,129.381073C480.771515,129.247482,481.076172,128.859634,481.498016,128.219849L482.120239,127.310562C482.543243,126.688362,482.990845,125.896248,483.464233,124.936569L484.187225,123.421486C484.14502,121.964981,483.49469,120.550667,482.233887,119.178528C481.455841,118.337204,480.627411,117.659927,479.747406,117.145523L478.111633,119.355469C477.012512,121.073273,476.322357,122.726624,476.043457,124.317886C475.848938,125.420517,475.751709,126.393074,475.751709,127.235573L475.82785,128.20697L476.602386,127.437119L476.817993,127.437119C476.960968,127.453522,477.0336,127.508591,477.0336,127.601166C477.0336,127.677322,476.884796,127.925735,476.589508,128.346405L476.082123,129.153748L475.879425,130.202484L475.7388,131.402359L475.803253,132.071442C475.82785,132.264771,475.806763,132.386642,475.7388,132.437027L475.498596,132.626846C475.422424,132.660828,475.383759,132.584671,475.383759,132.399536C475.383759,132.104248,475.273621,131.423447,475.054504,130.353638C474.26825,131.928482,473.726898,133.085007,473.43042,133.826736zM478.41629,129.684555C478.618988,129.700958,478.737335,129.756042,478.771332,129.848602C478.805298,129.941162,478.677582,130.311447,478.390503,130.959442L477.946411,131.919113C477.743683,131.691788,477.714386,131.537109,477.857361,131.452744C477.951111,131.39299,478.027252,131.128174,478.085846,130.65712C478.13739,130.244659,478.149109,129.916565,478.124512,129.671661L478.41629,129.684555z"/>
</svg>
