<?xml version="1.0" encoding="UTF-8"?>
<svg xmlns="http://www.w3.org/2000/svg" xmlns:xlink="http://www.w3.org/1999/xlink" width="39.594mm" height="60.087mm" viewBox="-461.937042 85.466942 39.593964 60.087166">
    <path transform="matrix(-1,0,0,1,0,0)" style="stroke:none;fill:#000000;fill-rule:evenodd" d="M442.111084,85.473091L442.164734,85.479424L442.233765,85.495995L442.306732,85.518715L442.357483,85.537346L442.420013,85.56913L442.503906,85.618843L442.566956,85.66259L442.661804,85.739143L442.69989,85.77314L442.805664,85.876686L442.830444,85.902657L442.946991,86.033211L442.963562,86.052513L443.091034,86.209877L443.103149,86.225609L443.241394,86.409798L443.250793,86.422615L443.396545,86.629372L443.64566,86.964958L444.063599,86.995537L444.994507,86.89814L445.048492,86.895241L445.102325,86.897804L445.155792,86.90583L445.232697,86.927528L445.339996,86.966667L445.38974,86.987679L445.41861,87.002708L445.547272,87.074989L445.593231,87.104042L445.743073,87.209633L445.771606,87.231163L445.942841,87.369911L445.962494,87.386665L446.15506,87.558723L446.169067,87.571541L446.382813,87.776756L446.393066,87.78701L446.628174,88.025368L446.636383,88.033745L446.888092,88.300468L446.955902,88.367271L447.019318,88.420067L447.081848,88.463814L447.147797,88.501411L447.215637,88.532341L447.28775,88.557793L447.364624,88.577614L447.448181,88.591805L447.525085,88.597786L447.600616,88.596931L447.671509,88.589409L447.740875,88.574883L447.804443,88.555061L447.872101,88.52636L447.93927,88.490135L448.012238,88.441948L448.041107,88.420418L448.047943,88.413582L448.053741,88.405891L448.05957,88.395805L448.066742,88.377525L448.074768,88.345924L448.08075,88.304222L448.084167,88.225624L448.089294,88.171974L448.099701,88.118996L448.115601,88.067406L448.136444,88.017677L448.162262,87.970177L448.192841,87.925743L448.227692,87.884407L448.266479,87.846977L448.309021,87.813667L448.354645,87.784782L448.402832,87.760521L448.4534,87.741386L448.505524,87.727547L448.558838,87.718834L448.612671,87.715752L448.666656,87.717979L448.719971,87.725838L448.77243,87.738823L448.823181,87.757271L448.871857,87.78051L448.917847,87.808708L448.960876,87.841515L448.999847,87.877739L449.142181,88.024513L449.186096,88.076118L449.304352,88.234001L449.343628,88.294487L449.437775,88.463814L449.468719,88.529594L449.53894,88.710045L449.549194,88.738914L449.588318,88.85955L449.601807,88.909615L449.629333,89.034691L449.637878,89.084236L449.653778,89.213768L449.657532,89.262291L449.661621,89.396248L449.661102,89.441536L449.653595,89.579933L449.649658,89.621284L449.630707,89.764137L449.624023,89.803093L449.593292,89.950203L449.5849,89.984718L449.542542,90.136116L449.537415,90.153206L449.487854,90.309883L449.475037,90.34594L449.416077,90.494423L449.400024,90.530647L449.331848,90.670937L449.312195,90.707664L449.266571,90.785423L449.30365,90.825737L449.338165,90.867256L449.360199,90.899391L449.40036,90.96209L449.427185,91.008919L449.449249,91.058632L449.50528,91.204735L449.522034,91.255989L449.534851,91.317162L449.559967,91.485634L449.565247,91.539284L449.565582,91.579964L449.559967,91.77047L449.552429,91.845314L449.515717,92.058388L449.50528,92.105721L449.487854,92.17083L449.473999,92.214729L449.447357,92.288216L449.434204,92.321022L449.398132,92.403038L449.386688,92.427635L449.341431,92.51786L449.331848,92.535973L449.277344,92.634911L449.268463,92.650276L449.204712,92.757423L449.197388,92.769371L449.124237,92.885231L449.117737,92.895302L449.0354,93.019524L449.003448,93.062935L448.967041,93.102913L448.92688,93.138969L448.883331,93.170753L448.869812,93.17878L448.951141,93.435432L448.980042,93.411156L449.003601,93.39254L449.147644,93.284889L449.16629,93.271568L449.33783,93.154518L449.351654,93.145287L449.550568,93.018501L449.562012,93.01133L449.788055,92.875145L449.797119,92.86985L450.050537,92.72393L450.066406,92.715218L450.340485,92.569466L450.349365,92.564842L450.617645,92.428658L450.62738,92.423882L450.890167,92.297096L450.900757,92.292137L451.157745,92.175102L451.169037,92.170143L451.420563,92.062492L451.433014,92.057198L451.678894,91.959282L451.692566,91.954155L451.932831,91.86599L451.946991,91.861031L452.181427,91.782433L452.233368,91.767906L452.28653,91.75869L452.340515,91.754753L452.394348,91.756462L452.470367,91.768257L452.625,91.803795L452.655609,91.811821L452.822876,91.860863L452.847992,91.868904L453.027924,91.931435L453.047913,91.938789L453.240814,92.014656L453.257904,92.021828L453.46347,92.111015L453.478149,92.117683L453.696533,92.220375L453.709167,92.226357L453.940369,92.342552L453.950958,92.348183L454.194794,92.477699L454.20401,92.482658L454.460663,92.625511L454.468872,92.630119L454.738495,92.786461L454.74585,92.790901L455.028107,92.960747L455.03479,92.964684L455.329681,93.148018L455.335175,93.151619L455.643066,93.348289L455.648193,93.351524L455.96875,93.561531L455.973694,93.564766L456.306885,93.788277L456.311005,93.791176L456.657166,94.028175L456.660767,94.030556L456.989532,94.259529L456.992767,94.261925L457.306305,94.483879L457.309723,94.486275L457.608246,94.701057L457.612335,94.703957L457.89563,94.911903L457.900085,94.915154L458.167999,95.116096L458.172272,95.119347L458.425171,95.313103L458.43045,95.317375L458.668152,95.504311L458.67395,95.508751L458.896423,95.688683L458.902405,95.693626L459.10965,95.866386L459.116852,95.872536L459.308899,96.038445L459.316742,96.04528L459.493591,96.204185L459.501984,96.211876L459.663788,96.363609L459.674377,96.373863L459.820648,96.518761L459.831421,96.529701L459.962646,96.667412L459.975616,96.681602L460.091644,96.812477L460.105988,96.829231L460.206818,96.952934L460.224762,96.976341L460.383667,97.195061L460.403656,97.224617L460.558136,97.470161L460.573853,97.496819L460.723877,97.769173L460.736176,97.793098L460.881744,98.092125L460.891663,98.113655L461.032806,98.439674L461.040649,98.458809L461.177338,98.811653L461.183838,98.829079L461.315918,99.20858L461.321045,99.224129L461.4487,99.630623L461.452271,99.642586L461.587433,100.11129L461.591034,100.124779L461.713531,100.59536L461.717133,100.6092L461.82666,101.081642L461.829559,101.095482L461.92627,101.569649L461.934479,101.623131L461.937042,101.676964L461.934296,101.730949L461.926086,101.784264L461.912445,101.836555L461.893646,101.887123L461.869873,101.935478L461.841187,101.98127L461.818115,102.012032L460.426544,103.729439L460.415619,103.742424L460.067902,104.144646L460.064148,104.149086L459.728729,104.528587L459.724457,104.533379L459.401672,104.889809L459.396729,104.895103L459.086243,105.228813L459.080963,105.234459L458.783142,105.545265L458.776825,105.55175L458.491302,105.839836L458.4841,105.847023L458.211243,106.112038L458.202698,106.120064L457.942108,106.362358L457.900757,106.397041L457.869507,106.418922L457.531525,106.638481L457.50708,106.653526L457.175415,106.844383L457.147064,106.859596L456.821899,107.0214L456.789612,107.036095L456.470764,107.169197L456.434204,107.183037L456.394714,107.196205L456.407379,107.221657L456.426178,107.27224L456.440002,107.324516L456.448364,107.377831L456.451294,107.431664L456.44873,107.485649L456.440857,107.538963L456.427521,107.591255L456.409088,107.642006L456.385498,107.690529L456.357147,107.736488L456.324341,107.779381L456.287262,107.818672L456.231873,107.86515L455.956268,108.065758L455.954041,108.067299L455.661194,108.278145L455.658966,108.279686L455.348999,108.50045L455.34729,108.50164L455.020416,108.732658L455.018707,108.733849L454.674591,108.974953L454.672363,108.976494L453.932678,109.489098L453.930115,109.490974L453.12207,110.044075L453.119843,110.045616L452.243286,110.639046L452.241394,110.640236L451.296509,111.274162L451.2948,111.275185L450.281525,111.94944L450.280518,111.950294L449.907166,112.197548L449.705719,112.8489L449.691864,112.888023L449.614136,113.084007L449.60318,113.109642L449.52475,113.280678L449.508881,113.312462L449.429596,113.458733L449.406189,113.497856L449.326202,113.619347L449.289642,113.668556L449.208832,113.765099L449.172089,113.804558L449.151917,113.823189L449.070068,113.895119L449.027863,113.92878L448.981232,113.958519L448.898682,114.005333L448.850494,114.029594L448.799927,114.048744L448.772766,114.05677L448.689392,114.078987L448.636566,114.090263L448.582916,114.096062L448.528931,114.096413L448.49527,114.093849L448.449127,114.08889L448.395813,114.080513L448.343536,114.066673L448.293121,114.047539L448.270935,114.03643L448.133209,114.654472L448.11969,114.704018L447.269806,117.306694L447.250488,117.357109L447.226044,117.405296L447.197021,117.450737L447.163513,117.493111L447.125916,117.531731L447.084564,117.566414L447.048187,117.591713L446.917633,117.674416L446.889435,117.690987L446.74234,117.77198L446.717712,117.784798L446.554016,117.864067L446.532837,117.873817L446.352753,117.951561L446.333771,117.959251L446.137115,118.035286L446.121033,118.041267L445.907959,118.115929L445.89328,118.12072L445.663788,118.193687L445.650482,118.197777L445.404236,118.269035L445.382721,118.274849L444.994324,118.36985L444.971619,118.374809L444.572815,118.454079L444.550598,118.458015L444.141541,118.521584L444.120178,118.524483L443.7005,118.572319L443.680023,118.574211L443.249756,118.606499L443.230103,118.607704L442.789429,118.624443L442.770294,118.624779L442.319214,118.625801L442.301422,118.625633L441.839569,118.61129L441.813263,118.609749L441.352783,118.57267L441.327301,118.569939L440.865967,118.510307L440.84137,118.506538L440.378998,118.42469L440.354889,118.419914L439.891663,118.315681L439.868256,118.309868L439.404175,118.18325L439.381622,118.176598L438.91687,118.027428L438.895508,118.020073L438.429871,117.848518L438.409393,117.840492L437.943085,117.646553L437.923584,117.63784L437.646606,117.509346L437.636353,117.50457L437.372375,117.375221L437.361603,117.369743L437.110443,117.23954L437.098999,117.233391L436.860779,117.102516L436.848145,117.095329L436.622955,116.963417L436.609772,116.955559L436.3974,116.822792L436.383545,116.813911L436.18399,116.680458L436.169128,116.670036L435.982513,116.535912L435.940308,116.502251L435.901886,116.464485L435.867188,116.422966L435.837128,116.378197L435.811646,116.330696L435.790985,116.2808L435.780396,116.247139L435.260956,114.397484L435.213104,114.414391L435.160645,114.427208L435.107178,114.434563L435.053162,114.43644L434.999359,114.432854L434.946045,114.42379L434.917511,114.417473L434.865387,114.403114L434.83139,114.390648L434.784058,114.371346L434.753967,114.358009L434.687683,114.326057L434.670929,114.317513L434.585846,114.272743L434.575928,114.267448L434.471863,114.209862L434.464691,114.205772L434.34201,114.135368L434.337219,114.132637L434.195587,114.049416L434.181915,114.041054L433.847015,113.830544L433.821899,113.813789L433.512787,113.594048L433.486298,113.574059L433.203003,113.344933L433.176178,113.321693L432.917999,113.082817L432.906525,113.071877L431.013641,111.21299L431.009552,111.208885L430.597748,110.795723L430.594849,110.792824L430.222198,110.412987L430.218781,110.409401L429.885071,110.062874L429.881989,110.059624L429.729736,109.898842L429.727173,109.896111L429.584839,109.74369L429.582275,109.740959L429.449524,109.596748L429.446442,109.593498L429.323578,109.457832L429.320343,109.454063L429.207062,109.326591L429.202606,109.321648L429.099243,109.20237L429.095123,109.197594L429.001312,109.086693L428.995514,109.079689L428.911621,108.976997L428.90564,108.969475L428.831482,108.875328L428.823456,108.864906L428.759033,108.778786L428.728973,108.733849L428.703491,108.686348L428.682983,108.636284L428.667603,108.584511L428.657715,108.531548L428.653107,108.477715L428.653259,108.46508L428.304352,108.358971L428.287933,108.353676L427.916656,108.227562L427.898193,108.220909L427.560913,108.092232L427.538696,108.083351L427.235229,107.95179L427.209259,107.939659L426.939789,107.805183L426.909546,107.78878L426.67392,107.651573L426.638214,107.628838L426.436401,107.488731L426.39505,107.456947L426.227081,107.314095L426.202332,107.291542L426.003754,107.099998L425.997437,107.093849L425.794464,106.891365L425.788116,106.885048L425.580872,106.671288L425.575409,106.665474L425.363861,106.44062L425.358917,106.435143L425.142914,106.199181L425.138153,106.194054L424.917908,105.946983L424.913635,105.942024L424.689087,105.683846L424.685181,105.679222L424.456207,105.409767L424.452454,105.405495L424.219208,105.125099L424.21579,105.120827L423.978271,104.829155L423.97522,104.825218L423.733429,104.522606L423.730347,104.518852L423.484131,104.204964L423.481384,104.201546L423.230896,103.876732L423.228333,103.873131L422.973572,103.537041L422.971191,103.533958L422.712158,103.186928L422.709747,103.183678L422.446442,102.825371L422.416718,102.780434L422.391754,102.732582L422.371613,102.68235L422.35675,102.630577L422.347168,102.577431L422.343079,102.523613L422.344421,102.469612L422.356049,102.392052L422.460968,101.927971L422.464569,101.912758L422.585175,101.443718L422.589294,101.42852L422.726166,100.954521L422.730591,100.939995L422.883698,100.46122L422.888306,100.447548L423.028412,100.047203L423.034058,100.031822L423.177948,99.657967L423.184601,99.641396L423.331879,99.294014L423.340424,99.274879L423.491638,98.953819L423.502075,98.932793L423.656891,98.63839L423.669861,98.615318L423.828247,98.347404L423.844482,98.321602L424.00647,98.080162L424.026825,98.051964L424.192383,97.836845L424.214935,97.809502L424.333191,97.675377L424.359833,97.647179L424.499084,97.510658L424.523193,97.488441L424.683472,97.349525L424.705322,97.331581L424.88681,97.190453L424.905762,97.176262L425.108063,97.032906L425.125153,97.021461L425.348663,96.87571L425.363861,96.866142L425.608368,96.718163L425.621704,96.710304L425.887238,96.559944L425.899536,96.553276L426.186249,96.400688L426.196838,96.395226L426.504425,96.240242L426.51416,96.235283L426.842743,96.078087L426.85144,96.073982L427.201233,95.914391L427.209259,95.910973L427.579865,95.749168L427.587219,95.745918L427.979004,95.581718L427.985687,95.578972L428.398499,95.41256L428.40448,95.410164L428.838318,95.241341L428.859161,95.233818L432.270721,94.067131L432.322693,94.052269L432.375824,94.042702L432.429657,94.038597L432.483643,94.039955L432.526184,94.044914L433.99411,94.275764L434.046906,94.286873L434.096985,94.302589L434.201904,94.341545L434.2612,94.367851L434.37619,94.427315L434.41806,94.451408L434.543121,94.531212L434.574738,94.55291L434.709717,94.653374L434.732269,94.67115L434.877502,94.791954L434.895294,94.807503L435.050446,94.948647L435.06427,94.9618L435.206787,95.101051L435.211731,95.077477L435.21344,95.07235L435.209015,95.061073L435.194489,95.008965L435.185242,94.955818L435.181488,94.902L435.181671,94.898582L435.170898,94.891228L435.129883,94.856209L435.092468,94.817238L435.059326,94.774696L435.030457,94.728905L435.006531,94.68055L434.988739,94.633553L434.886566,94.320351L434.87735,94.289085L434.789673,93.95179L434.783203,93.923943L434.709717,93.562553L434.705292,93.537086L434.646149,93.151619L434.643768,93.133507L434.597809,92.745461L434.59491,92.714867L434.572693,92.346138L434.571838,92.311958L434.573212,91.962364L434.574738,91.923744L434.600037,91.593452L434.60498,91.551247L434.653839,91.24044L434.663086,91.194481L434.735687,90.902626L434.750397,90.8536L434.846771,90.581062L434.86795,90.530144L434.988251,90.276909L435.024292,90.212669L435.707092,89.174294L435.745697,89.122688L435.882904,88.960701L435.898102,88.943611L436.033447,88.797005L436.05191,88.778038L436.185181,88.647331L436.207214,88.626656L436.338776,88.511482L436.364746,88.490303L436.49411,88.390678L436.525879,88.367958L436.653351,88.283897L436.69162,88.260826L436.817047,88.192482L436.862488,88.170601L436.883179,88.16172L437.722321,87.26841L437.748627,87.242271L437.908051,87.094643L437.940002,87.067467L438.102509,86.939156L438.139923,86.91198L438.305664,86.802971L438.348206,86.777687L438.517212,86.687798L438.565735,86.665077L438.738129,86.594505L438.790771,86.576225L438.9664,86.524971L439.021423,86.511986L439.185455,86.482582L440.241608,86.234657L440.286377,86.219444L440.339874,86.195702L440.401215,86.162376L440.481506,86.11129L440.806671,85.886604L440.843933,85.863014L440.994293,85.776558L441.015808,85.764946L441.157654,85.691811L441.183624,85.679161L441.316895,85.619362L441.348511,85.606544L441.473236,85.559898L441.513397,85.546562L441.629913,85.513252L441.678619,85.501793L441.786621,85.481636L441.847961,85.473778L441.947388,85.466942L442.019836,85.466942L442.111084,85.473091zM447.986053,91.480186L448.192047,91.903984L448.591125,92.724495C448.823029,92.381927,448.956055,92.130005,448.990204,91.967552C449.059662,91.668541,449.046692,91.429565,448.951355,91.249458C448.848938,91.061104,448.711212,91.039917,448.539337,91.18589C448.376862,91.322441,448.192047,91.420151,447.986053,91.480186zM435.058014,98.738815L434.388184,98.521034L433.950256,98.23851L433.718353,97.674629L433.641846,97.815887C433.598267,97.952446,433.585327,98.131378,433.602997,98.353874C433.619476,98.610504,433.731293,98.811806,433.937317,98.956604C434.109192,99.068436,434.289307,99.127296,434.478821,99.136711L435.276978,99.161438L435.470032,98.764717L435.058014,98.738815zM432.959045,97.738197L432.843689,97.98188L432.881348,98.790619L432.997894,99.520477C433.238037,99.546379,433.84314,99.682938,434.813141,99.93132L435.147461,99.367447L435.006195,99.405113L434.143311,99.354492C433.731293,99.286217,433.47348,99.1838,433.371063,99.046066C433.302795,98.951889,433.280426,98.67878,433.306335,98.225555C433.323975,97.840614,433.289856,97.648727,433.203918,97.648727C433.092072,97.656967,433.010864,97.687576,432.959045,97.738197zM430.789459,99.094093L430.673462,99.323067L430.661652,99.3451L430.528717,99.579369L430.515411,99.601402L430.371368,99.829002L430.356476,99.851387L430.200836,100.071983L430.19281,100.082924L429.900452,100.475578L430.036957,100.493523L430.095734,100.504631L430.378876,100.574684L430.454407,100.599449L430.725739,100.71154L430.79425,100.745888L431.053986,100.900017L431.112427,100.940163L431.360504,101.136162L431.408539,101.179039L431.644836,101.417229L431.682098,101.459099L431.906769,101.739159L431.947784,101.797768L432.072876,102.005363L432.098145,101.999046L432.151642,101.991524L432.205475,101.989311L432.243042,101.99102L432.462463,102.008949L432.481934,102.011009L432.722015,102.039543L432.737366,102.041588L432.997955,102.080208L433.01178,102.082436L433.292694,102.131645L433.303986,102.13369L433.60556,102.193321L433.615631,102.195381L433.937561,102.265434L433.946442,102.267479L434.288879,102.348137L434.296204,102.349846L434.658966,102.440742L434.701691,102.453392L435.191406,102.620674L435.253082,102.646294L435.335602,102.686623L435.548187,102.769661L435.568176,102.748817L435.630371,102.698586L435.73938,102.623238L435.771667,102.602562L435.893829,102.530449L435.923248,102.514381L436.05838,102.445702L436.085052,102.433052L436.233185,102.367775L436.259338,102.357018L436.562805,102.242195L436.619873,102.224251L436.912231,102.149757L436.979553,102.137108L437.26062,102.102928L437.336151,102.099174L437.605774,102.10482L437.659607,102.108574L437.712921,102.117805L437.764862,102.1325L437.815094,102.152321L437.870636,102.181526L437.883606,102.1894L438.166931,100.787758L438.180237,100.735466L438.198883,100.684715L438.222443,100.636192L438.250824,100.590233L438.271149,100.563744L438.031921,100.325035L438.008362,100.299919L437.696167,99.945198L437.674805,99.919395L437.379211,99.537682L437.360596,99.512047L437.08139,99.103493L437.064972,99.077873L436.959198,98.902214L436.939392,98.901527L436.895142,98.898109L436.750763,98.880852L436.705292,98.873512L436.565033,98.844292L436.518707,98.832497L436.382538,98.791145L436.338104,98.775429L436.205841,98.722115L436.162964,98.702461L436.034637,98.637016L435.998932,98.617027L435.994659,98.6213L435.984924,98.629341L435.993469,98.663506L436.000977,98.716988L436.003204,98.770988L435.999786,98.824806L435.991058,98.87812L435.977051,98.930229L435.949371,98.998405L435.756287,99.395164L435.730316,99.442329L435.699554,99.486763L435.664551,99.527931L435.651215,99.540749L435.639435,99.573387L435.60611,99.639687L435.271698,100.203545L435.241821,100.248497L435.207458,100.290352L435.169189,100.328285L435.127319,100.362297L435.082214,100.391853L435.03421,100.416801L434.984131,100.436623L434.93219,100.451317L434.878876,100.460716L434.825043,100.464638L434.77124,100.46328L434.71759,100.456261L434.681854,100.448402L434.338257,100.361259L434.338257,100.361443L434.025726,100.284035L434.025726,100.283867L433.755249,100.218758L433.755249,100.218925L433.51123,100.162376L433.51123,100.162209L433.315613,100.119316L433.140808,100.083778L433.024597,100.06292L432.924469,100.04908L432.871521,100.038841L432.819733,100.02346L432.769836,100.002953L432.722168,99.977318L432.677582,99.947243L432.636047,99.91256L432.598297,99.874123L432.564636,99.831917L432.5354,99.786461L432.510803,99.738274L432.491333,99.688042L432.477142,99.635918L432.471161,99.60482L432.454926,99.502815L432.404877,99.499229L432.351715,99.490181L432.299774,99.475655L432.249542,99.455833L432.17865,99.417046L431.902527,99.237633L431.615112,99.082314L431.517212,99.032249L431.470398,99.005241L431.426636,98.97364L431.378448,98.929893L431.298676,98.848045L431.262939,98.807549L431.231689,98.763634L431.204346,98.71563L431.148651,98.605064L431.12677,98.555687L431.117371,98.52459L430.789459,99.094093zM452.220551,96.018456L452.169312,96.035194L452.116516,96.046822L452.084717,96.050407L451.968353,96.187614L451.991608,96.211189L452.027313,96.251686L452.058929,96.295433L452.075317,96.322945L452.122131,96.406151L452.14624,96.454338L452.162811,96.497231L452.199554,96.606239L452.215424,96.664513L452.235596,96.758324L452.243958,96.808723L452.252869,96.885109L452.256439,96.939095L452.256104,96.968483L452.253723,97.027092L452.248749,97.080925L452.238342,97.133888L452.226532,97.174721L452.21286,97.215569L452.193054,97.2658L452.154785,97.336021L452.126251,97.380104L452.094635,97.423851L452.061127,97.461952L452.020477,97.503822L451.980835,97.54055L451.959656,97.557472L451.907013,97.597282L451.855408,97.631798L451.790833,97.669731L451.746216,97.693138L451.669342,97.729027L451.633636,97.74424L451.544769,97.778069L451.5159,97.788139L451.414917,97.820091L451.390991,97.826927L451.277863,97.857002L451.267792,97.859566L450.378937,98.077431L450.325958,98.087685L450.272156,98.092461L450.21814,98.091774L450.16449,98.085625L450.111877,98.074013L450.065399,98.059151L449.827026,97.970116L449.559265,97.877174L449.276825,97.785072L448.949615,97.684258L448.931671,97.677757L448.862457,97.892891L448.855469,97.913048L448.755493,98.186104L448.747803,98.205757L448.635895,98.477776L448.627869,98.496223L448.50415,98.76722L448.495605,98.785164L448.360107,99.05497L448.350555,99.073082L448.197968,99.349892L448.187378,99.368172L448.026398,99.63456L448.014282,99.653694L447.844421,99.909492L447.831451,99.928108L447.653046,100.173485L447.638885,100.192268L447.451782,100.427055L447.436554,100.445335L447.240936,100.669518L447.224335,100.68763L447.019806,100.901375L447.002899,100.918297L446.790009,101.121635L446.771362,101.138542L446.549591,101.331291L446.543091,101.336754L446.551819,101.356239L446.572815,101.424065L446.786591,102.318916L446.791718,102.316353L446.842102,102.297035L446.894226,102.28286L446.967529,102.27227L447.030914,102.267479L447.109863,102.267311L447.184692,102.272774L447.239899,102.279778L447.325836,102.295158L447.366669,102.304039L447.464081,102.329506L447.494507,102.33857L447.602997,102.37394L447.627441,102.382469L447.747375,102.428093L447.76532,102.43528L447.896729,102.490807L447.911926,102.497475L448.054596,102.563087L448.068268,102.569572L448.332611,102.700294L448.37619,102.724556L448.616577,102.872871L448.661011,102.90345L448.859894,103.05587L448.898865,102.990257L448.906738,102.97744L449.069733,102.719093L449.078949,102.70507L449.243347,102.461754L449.253601,102.44706L449.419495,102.218437L449.431305,102.202721L449.598755,101.98896L449.611725,101.973076L449.780365,101.77401L449.795746,101.756752L449.965942,101.572731L449.982697,101.555305L450.154236,101.385963L450.174072,101.367348L450.347137,101.213051L450.368683,101.194939L450.542969,101.055336L450.567413,101.036888L450.743225,100.91198L450.771088,100.893349L450.948273,100.783485L450.978516,100.766228L451.157074,100.671043L451.190552,100.65464L451.370483,100.574333L451.406891,100.559639L451.588348,100.494194L451.626434,100.482063L451.809113,100.431328L451.861908,100.419533L451.911621,100.413383L453.431335,100.298042L453.485321,100.296669L453.539154,100.300774L453.578125,100.307274L454.144379,100.4226L454.196655,100.435936L454.247253,100.454552L454.295776,100.47831L454.349243,100.512138L454.40564,100.552635L454.410767,100.528038L454.427002,100.476601L454.448364,100.427055L454.47467,100.37989L454.505585,100.33564L454.540802,100.294624L454.579926,100.257545L454.62265,100.224571L454.66861,100.196037L454.717133,100.172279L454.786163,100.148186L455.363007,99.990654L455.341644,99.983299L455.238098,99.958519L455.143799,99.949135L455.090485,99.941093L455.038208,99.927773L454.987457,99.909142L454.938904,99.885567L454.885773,99.852074L454.735931,99.744774L454.69577,99.71299L454.555145,99.590309L454.518585,99.555107L454.38736,99.416527L454.356598,99.381157L454.234436,99.227028L454.208282,99.190987L454.09552,99.021309L454.074158,98.986275L453.970612,98.801064L453.953186,98.767052L453.859039,98.566109L453.845367,98.534676L453.760437,98.318184L453.739258,98.251366L453.533173,97.41787L453.522919,97.364906L453.517975,97.311073L453.518646,97.257088L453.524628,97.203438L453.536072,97.15081L453.552826,97.099373L453.574524,97.049995L453.601349,97.003166L453.632629,96.959084L453.668152,96.918587L453.707642,96.881691L453.750702,96.849052L453.796844,96.821022L453.806213,96.816582L453.6427,96.607277L453.585114,96.544044L453.528564,96.493645L453.469604,96.451607L453.406219,96.416069L453.336334,96.38633L453.260132,96.362923L453.171448,96.34481L452.92746,96.317299L452.870544,96.307732L452.758789,96.282616L452.697113,96.264854L452.596649,96.229134L452.530518,96.200432L452.441162,96.154289L452.373138,96.112434L452.295227,96.056038L452.253204,96.022377L452.240051,96.009911L452.220551,96.018456zM447.380951,89.121078C447.037231,89.077522,446.74527,88.928017,446.505127,88.671387C445.792908,87.902672,445.307922,87.488297,445.05011,87.428261L444.071838,87.530678L443.363159,87.478882L442.964111,86.940895C442.552063,86.341698,442.255432,86.029739,442.075317,86.00502C441.843414,85.970879,441.522034,86.076828,441.110016,86.325218L440.775665,86.555954C440.637939,86.650131,440.508453,86.713699,440.388367,86.747833L439.294769,87.004463C438.813293,87.064507,438.367126,87.329376,437.955109,87.800255L437.195801,88.607819C436.86972,88.72789,436.521271,89.013947,436.152802,89.467171L435.470032,90.505463C435.118042,91.155281,435.019165,92.009933,435.17337,93.070587C435.242828,93.600327,435.349945,94.066505,435.495911,94.467926C435.667786,93.83577,436.006836,93.301323,436.513031,92.865753L437.079254,92.429016L437.504242,92.160614L436.860291,91.582603C436.628387,91.301254,436.53421,91.052864,436.577759,90.838615C436.646057,90.513702,436.792023,90.2453,437.015686,90.031052C437.324127,89.74028,437.740845,89.624916,438.264709,89.684952C438.427155,89.702614,438.723816,89.800323,439.152313,89.980431C439.530212,90.133469,439.779755,90.198219,439.899841,90.172318L440.865143,89.325912C441.414886,88.830307,441.835144,88.64666,442.127106,88.774979C442.204803,88.80912,442.34137,88.885635,442.539124,89.005707L442.925262,89.236443L443.504425,89.556641L443.942352,89.608437L444.290802,89.454224L444.831146,89.24939C445.02066,89.223495,445.243164,89.278824,445.500977,89.415375C445.655182,89.493073,445.912994,89.744995,446.273224,90.172318L446.827667,90.838615C447.08429,91.044624,447.342102,91.168228,447.599915,91.210609C447.900116,91.262405,448.157898,91.197662,448.372162,91.018723C448.690002,90.762093,448.908966,90.420708,449.029053,89.992203C449.157349,89.582542,449.162079,89.218781,449.041992,88.90329C448.964294,88.654907,448.823029,88.437119,448.617035,88.248772C448.617035,88.539536,448.518127,88.749077,448.320374,88.877396C448.037842,89.08223,447.724701,89.163452,447.380951,89.121078zM437.929199,91.967552L438.032806,92.057022C438.083405,92.134712,438.053986,92.19828,437.942139,92.250076C437.444183,92.506706,437.045135,92.758629,436.744934,93.005844C436.075104,93.56266,435.731354,94.190109,435.714874,94.891724C435.963287,94.370224,436.311737,93.882858,436.757874,93.429634C437.264099,92.95993,437.603119,92.698593,437.774994,92.646797C437.88681,92.612656,437.963348,92.62561,438.006897,92.685646C438.049286,92.753922,438.023376,92.80925,437.929199,92.852806L437.607819,93.083542L436.963898,93.608574C436.577759,93.933479,436.165741,94.467926,435.727844,95.211922L435.766693,95.468552C436.083344,94.887009,436.453003,94.412598,436.87326,94.045311C437.20874,93.754547,437.487762,93.57914,437.710236,93.519104C437.804413,93.484962,437.856201,93.515572,437.864441,93.608574C437.882111,93.702744,437.826782,93.783974,437.697296,93.852249L437.066315,94.263092C436.697845,94.596245,436.281128,95.070656,435.817291,95.686333L435.830261,95.69928L435.830261,95.853493C436.20813,96.425613,436.380005,96.88826,436.345856,97.237885C436.336456,97.486275,436.272888,97.768806,436.152802,98.08429C436.478882,98.306786,436.847351,98.400963,437.259369,98.366821C437.937439,99.564041,438.792084,100.474014,439.822144,101.097931C440.603821,101.56057,441.152374,101.850166,441.470215,101.970238C442.500275,102.337524,443.479706,102.342232,444.406158,101.983185C445.934174,101.375748,447.093719,100.319801,447.883636,98.815338C448.638214,97.37915,448.887787,95.895874,448.629974,94.365509C448.458099,93.424927,448.080231,92.472572,447.496338,91.506088C447.179657,91.463707,446.861816,91.314201,446.543976,91.057571L445.977722,90.364204C445.625763,89.946297,445.38913,89.702614,445.269043,89.633156L444.612183,89.659058C444.466217,89.710854,444.320221,89.774422,444.174255,89.852119L443.402008,89.915688L442.680389,89.621384C442.388458,89.47541,442.049408,89.449516,441.6633,89.543694C441.251282,89.646111,440.873383,89.873306,440.530823,90.224113C440.367188,90.386566,440.165894,90.463089,439.925751,90.454849L439.320648,90.313583L438.264709,90.108749C437.817383,90.056953,437.487762,90.258255,437.272339,90.711479C437.049835,91.197662,437.268799,91.616745,437.929199,91.967552zM437.517181,95.609818L437.324127,95.853493C437.315887,95.938255,437.264099,95.977104,437.169922,95.968864C437.075745,95.968864,437.032166,95.913536,437.040405,95.801697C437.066315,95.673386,437.135773,95.562729,437.246429,95.468552L437.55603,95.250771C437.641968,95.216629,437.701996,95.233109,437.736145,95.301392C437.779694,95.379082,437.762054,95.439117,437.684357,95.481499L437.517181,95.609818zM437.697296,94.673935L437.684357,94.68689L437.684357,94.673935L437.20874,94.955292L436.809692,95.340233C436.663696,95.494446,436.581299,95.533295,436.564819,95.455605C436.55542,95.395561,436.598969,95.293144,436.693146,95.148354L437.027466,94.763405C437.233459,94.575058,437.440674,94.451447,437.646667,94.391411C437.714966,94.357269,437.766754,94.378464,437.800903,94.454979C437.843262,94.532677,437.809143,94.605659,437.697296,94.673935zM443.749298,99.700592L443.942352,99.674698L444.972412,99.777115C445.04187,99.78653,445.080719,99.803009,445.088959,99.828911L444.998291,99.918373L444.573334,100.111435C444.35083,100.196198,444.101257,100.196198,443.826996,100.111435L443.659821,100.007843L443.633911,99.841858C443.642151,99.781822,443.681,99.734734,443.749298,99.700592zM447.264404,91.993446C447.333862,92.035828,447.363312,92.069969,447.355072,92.095863L447.213806,92.121765L446.234375,92.082916L446.04129,92.006401C445.990692,91.946358,445.973022,91.878082,445.990692,91.800385L446.04129,91.582603L446.157837,91.441345L446.350922,91.454292L447.264404,91.993446zM440.749786,91.697968L441.30307,91.236511L441.483185,91.210609L441.612671,91.314201L441.779846,91.531982C441.882263,91.676781,441.916382,91.770958,441.882263,91.813339L441.65033,91.903984L441.187683,92.082916L440.646179,92.365448L440.27301,92.506706C440.229462,92.318359,440.388367,92.048775,440.749786,91.697968zM446.04129,94.250145C446.05072,94.045311,446.131958,93.82753,446.286163,93.596802C446.440369,93.366066,446.582825,93.245995,446.711121,93.237755C446.839447,93.228333,446.973633,93.353119,447.110199,93.608574C447.247925,93.848717,447.316223,94.074745,447.316223,94.288994C447.316223,94.467926,447.256165,94.575058,447.136108,94.609192L446.762939,94.622139L446.299103,94.596245C446.127228,94.545624,446.04129,94.43026,446.04129,94.250145zM446.657745,94.014503L446.627838,94.080803L446.743347,94.087288L446.710876,94.000145L446.690369,93.959816L446.657745,94.014503zM442.088257,93.621521C442.32016,93.912292,442.401398,94.147728,442.33313,94.327843C442.273071,94.490295,442.148285,94.583298,441.95993,94.609192L441.509064,94.609192L440.993469,94.648041C440.779205,94.630386,440.672089,94.532677,440.672089,94.352562C440.672089,94.155968,440.787445,93.917,441.019348,93.634468C441.243042,93.361359,441.423126,93.2248,441.560883,93.2248C441.697418,93.215385,441.874023,93.348412,442.088257,93.621521zM444.277863,93.455536L444.728729,94.352562L445.256104,95.070656L445.629272,95.507401C445.73288,95.626297,445.73642,95.746368,445.642242,95.866447L445.063049,96.597488C444.899414,96.768181,444.70282,96.794083,444.470917,96.674004L444.35437,96.584534L444.393219,96.443275L444.857025,95.892342C444.968872,95.76403,444.985352,95.639244,444.908844,95.520348L444.432068,94.635094C444.251953,94.276047,444.105988,93.899338,443.994141,93.506157C443.951782,93.369598,443.972961,93.293083,444.058899,93.275421C444.144836,93.258942,444.217804,93.318977,444.277863,93.455536zM446.968933,97.315582L447.007782,97.213165C447.033691,97.203751,447.06781,97.221405,447.110199,97.263786L447.548126,97.764091L447.599915,97.944206L447.548126,98.123138L446.994843,98.867134C446.908905,98.977791,446.865356,98.964844,446.865356,98.828285L446.878296,98.712921C446.887726,98.652885,446.870056,98.610504,446.827667,98.584602L446.659332,98.558708L445.861206,98.969551C445.234924,99.242661,444.672211,99.383926,444.174255,99.393341C443.66806,99.393341,443.0159,99.179092,442.217743,98.75177L441.161804,98.110191C441.101776,98.08429,441.037018,98.08429,440.96875,98.110191C440.899292,98.127853,440.843964,98.161987,440.800415,98.212608L440.762726,98.712921L440.646179,98.777664L440.581451,98.674072L440.401337,97.674629C440.384857,97.528656,440.448425,97.417999,440.594391,97.341476L441.843414,96.545692L441.95993,96.532738C441.98584,96.5504,441.98584,96.584534,441.95993,96.635155L441.792786,96.994202C441.757477,97.046005,441.770416,97.106041,441.830444,97.174316L442.011749,97.28968C443.110077,97.666389,443.929413,97.884171,444.470917,97.944206L445.912994,97.866508L446.73703,97.72525L446.904205,97.648727L446.968933,97.481567L446.968933,97.315582zM446.968933,98.123138C447.011322,97.986588,446.934814,97.926544,446.73703,97.944206L445.900055,98.071342L444.341431,98.14904C443.698669,98.106659,442.878174,97.897118,441.882263,97.520416C441.624451,97.443893,441.423126,97.460373,441.277161,97.572212C441.174744,97.648727,441.148865,97.729958,441.200653,97.815887L441.393707,97.968925C442.268372,98.40567,442.873444,98.674072,443.208954,98.777664L444.213104,98.917755L445.204315,98.841232L446.724091,98.366821C446.844147,98.340927,446.925385,98.259697,446.968933,98.123138zM429.031921,95.738129C426.662201,96.644577,425.189514,97.452133,424.615051,98.161987C424.168884,98.699966,423.760406,99.520477,423.391937,100.62352C423.176514,101.265091,423.005798,101.893723,422.876312,102.509399C424.29248,104.449425,425.525024,105.916222,426.572723,106.907425C426.975342,107.292374,427.739349,107.646706,428.864746,107.971619L430.44809,108.35656L429.997223,108.434258L429.186127,108.458977C429.503967,108.895721,430.237366,109.685623,431.387482,110.832214L433.280426,112.691017C433.607697,113.01593,434.002045,113.314941,434.465881,113.589226C434.868469,113.828194,435.070953,113.930611,435.070953,113.896469C435.225159,113.324356,435.384094,113.19133,435.547729,113.498581L435.753723,114.179001L436.294067,116.102554C436.774353,116.461601,437.392395,116.812408,438.148163,117.153793C439.392456,117.701187,440.6297,118.008438,441.856354,118.077896C443.101837,118.136757,444.234314,118.030807,445.256104,117.756523C445.934174,117.568169,446.436829,117.363335,446.762939,117.140846L447.612854,114.538055L448.10141,112.344925C448.196747,112.284882,448.260315,112.468529,448.295654,112.895851C448.338013,113.35849,448.42395,113.579811,448.552277,113.563324C448.77594,113.53743,448.990204,113.246658,449.196198,112.691017L449.45401,111.857559C452.338165,109.951675,454.493622,108.476639,455.91803,107.433632C455.274109,107.621986,454.703156,107.633759,454.2052,107.471306C453.88736,107.378304,453.480042,107.155815,452.982086,106.805008C452.441742,106.420059,452.012085,106.163437,451.694214,106.035118C451.127991,105.813805,450.49231,105.740814,449.78833,105.817337C450.389893,105.526566,450.999695,105.475945,451.617706,105.663124C451.763672,105.70668,452.295776,105.96331,453.213989,106.433014C453.892059,106.766159,454.505402,106.928612,455.055145,106.920372C455.827393,106.912132,456.669098,106.595467,457.579071,105.97155C458.257141,105.355873,459.068237,104.496513,460.012329,103.393478L461.403809,101.675941C461.283722,101.042603,461.128326,100.413979,460.939972,99.790062C460.605652,98.67054,460.223053,97.837082,459.793396,97.28968C459.2966,96.648109,458.149994,95.70752,456.355957,94.467926C454.475952,93.168297,453.141022,92.441963,452.351105,92.28775C451.733063,92.484344,451.055023,92.784531,450.316895,93.185959C449.604706,93.587379,449.183258,93.887566,449.054932,94.08416C449.312744,95.101265,449.329224,96.131317,449.10675,97.174316C449.561127,97.310875,449.943726,97.439186,450.252167,97.559265L451.14093,97.341476C451.458801,97.263786,451.647156,97.166077,451.707184,97.046005C451.733063,97.003624,451.728363,96.912979,451.694214,96.776421C451.651855,96.613968,451.582397,96.519791,451.48822,96.495071L450.638275,96.443275C450.630035,96.400894,450.887848,96.259628,451.411713,96.019478L451.82373,95.533295L452.029724,95.520348C451.986176,95.357895,451.969696,95.011795,451.977936,94.480881L451.977936,93.583847L452.660706,93.66037L452.531219,94.532677L452.441742,95.392029C452.544159,95.639244,452.767822,95.776978,453.110413,95.801697C453.505951,95.827599,453.819092,95.981812,454.050995,96.263161C454.342926,96.613968,454.570129,96.973015,454.733765,97.341476L454.939789,97.918304C454.965668,98.003067,454.823242,97.926544,454.514801,97.687576L454.050995,97.28968L454.256989,98.123138C454.471252,98.721161,454.784393,99.153191,455.196411,99.41806C455.506012,99.41806,456.141693,99.695885,457.102295,100.251526C458.038177,100.79068,458.725647,101.03907,459.162415,100.995514C458.948151,101.320419,458.450195,101.359268,457.669708,101.110878C457.231781,100.974327,456.630249,100.738884,455.866241,100.405739L454.926819,100.662369L455.982788,101.778351C456.677338,102.512924,456.986938,102.889633,456.909241,102.906113C456.858612,102.915527,456.364197,102.594154,455.428314,101.944336L454.038025,100.944893L453.471802,100.829529L451.952026,100.944893C450.973785,101.175629,450.054382,102.038513,449.196198,103.534744L449.003143,103.996201L448.745331,103.676003C448.505188,103.419373,448.200287,103.209831,447.831818,103.047379C447.436279,102.859024,447.161987,102.777802,447.007782,102.803696L446.891235,102.906113L446.801788,103.17569L446.711121,103.406425L446.518066,103.112122L446.350922,102.790749L446.05426,101.547623C445.522156,101.872528,444.981812,102.116211,444.432068,102.278664C442.371948,102.730713,440.457825,102.269249,438.689667,100.893097L438.264709,102.996758C438.25528,103.030899,438.152863,102.98381,437.955109,102.855499L437.594879,102.637711C437.242889,102.603577,436.860291,102.675385,436.448273,102.855499C436.242279,102.940254,436.070404,103.034431,435.933838,103.136841L436.577759,103.458221C437.023926,103.688957,437.22995,103.833748,437.195801,103.893784C437.161682,103.953827,436.865021,103.872597,436.307007,103.650108L435.418243,103.291061L435.122742,103.17569L435.019165,103.125076L434.529449,102.957909C433.534698,102.701279,432.757751,102.556488,432.199768,102.522346C432.551758,103.368759,432.576477,104.419998,432.276276,105.676071C432.285706,105.36058,432.268036,104.992119,432.224487,104.574211C432.147949,103.727798,431.993744,103.047379,431.761841,102.534119L431.748901,102.534119L431.722992,102.457596L431.491089,102.072655C430.907196,101.269806,430.199707,100.914291,429.366241,101.008461L428.207855,102.009087C427.589844,102.512924,427.126007,102.81665,426.816406,102.919067C426.722229,102.996758,426.70575,103.355804,426.765808,103.996201L426.868225,104.933258L426.482086,104.317581C426.250183,103.846695,426.185425,103.445274,426.289032,103.112122L425.541504,103.073273C425.241333,102.987343,425.113007,102.919067,425.155396,102.868446L425.606262,102.829597C425.958221,102.803696,426.310211,102.709518,426.662201,102.547066C427.752289,102.051468,428.550415,101.440498,429.0578,100.714165L429.765289,99.76416C429.980743,99.474571,430.164368,99.166145,430.319763,98.841232L431.220337,97.276733L431.233276,97.263786L431.581726,96.712852L432.495239,96.904739C432.512909,96.922394,432.383392,97.028343,432.1091,97.224937L431.671204,97.559265C431.585266,97.806473,431.559357,98.028961,431.593506,98.225555C431.619385,98.430389,431.710052,98.558708,431.864258,98.610504L432.173859,98.777664L432.46933,98.969551C432.529388,98.037209,432.611786,97.512177,432.714203,97.392097L433.074432,97.097801L433.293396,96.943588L432.430481,96.366753C432.345734,96.332619,432.280975,96.199593,432.237427,95.968864L432.598816,95.942963C432.770691,96.002998,432.933167,96.097176,433.087372,96.225494C433.216858,96.336151,433.384033,96.413841,433.590027,96.456223L433.873749,96.495071L434.079742,96.289063L434.49176,96.263161C434.654236,96.417374,434.808441,96.610435,434.954407,96.841171C435.126282,97.106041,435.165131,97.263786,435.070953,97.315582C435.002686,97.349716,434.890839,97.255547,434.735443,97.033051C434.589478,96.819977,434.487061,96.746994,434.427032,96.815269L434.143311,97.224937C434.049133,97.413292,434.057373,97.55455,434.16922,97.648727L434.516479,98.007774C434.662476,98.152573,434.800201,98.222023,434.929688,98.212608L435.276978,98.23851L435.637177,98.225555L435.907959,97.63578L435.972687,97.213165C435.886749,96.768181,435.572449,96.259628,435.032104,95.686333C434.551819,95.174248,434.17746,94.878769,433.911407,94.802254L432.443451,94.571518L429.031921,95.738129zM441.006409,103.817268C441.238312,104.270493,441.31601,104.548309,441.238312,104.650726C441.161804,104.753143,441.015839,104.791992,440.800415,104.766098C440.577911,104.748436,440.466064,104.667206,440.466064,104.522415L440.169434,103.676003C440.023438,103.26516,440.079956,103.068573,440.337769,103.086227C440.552002,103.102707,440.775665,103.34639,441.006409,103.817268zM442.088257,104.650726C442.002319,104.308167,441.99408,103.958534,442.062347,103.599487C442.140045,103.24868,442.238953,103.094467,442.359009,103.136841C442.427307,103.17099,442.440247,103.51355,442.397858,104.163368C442.423767,104.829666,442.66391,105.232269,443.118317,105.36882L443.659821,105.394722C443.805786,105.37706,443.878784,105.415909,443.878784,105.510086C443.878784,105.800858,443.67276,105.903275,443.260742,105.817337C443.00293,105.766716,442.775757,105.651352,442.577972,105.471237C442.33783,105.258163,442.174194,104.983871,442.088257,104.650726zM443.620972,107.651413C443.500916,107.300613,443.440857,107.019257,443.440857,106.805008C443.440857,106.56604,443.513855,106.445961,443.659821,106.445961C443.822266,106.445961,443.929413,106.57428,443.981201,106.830902L444.110687,107.792679C444.170715,108.168213,444.170715,108.626144,444.110687,109.164124C444.041229,109.695038,443.951782,109.951675,443.839935,109.934013C443.762238,109.917526,443.723389,109.613815,443.723389,109.024033C443.723389,108.330658,443.68924,107.873909,443.620972,107.651413zM441.547913,116.063705L440.749786,116.026031C440.577911,115.940102,440.560242,115.820023,440.697998,115.666985C440.826294,115.512772,441.182983,115.40094,441.766876,115.332664C442.31546,115.272621,442.783997,115.277328,443.170105,115.345612C444.423828,115.594002,445.067749,115.803543,445.101898,115.974236C445.118378,116.084892,444.964172,116.123741,444.638092,116.0896L443.569183,115.974236L441.547913,116.063705zM445.320862,114.409737L444.70282,114.448586L443.569183,114.320267L442.346069,114.357941L441.457275,114.320267C441.277161,114.242569,441.243042,114.089539,441.354858,113.85881C441.474945,113.602173,441.809265,113.473862,442.359009,113.473862C442.985291,113.473862,443.633911,113.579811,444.303741,113.79406C444.964172,113.998894,445.303192,114.204903,445.320862,114.409737zM445.436218,106.509529C444.861755,106.860336,444.522705,106.972168,444.419128,106.843857C444.299042,106.707298,444.419128,106.471863,444.779358,106.13871C445.097198,105.847946,445.427979,105.620743,445.771729,105.45829C446.758209,104.954445,447.329163,104.671921,447.483368,104.611877L448.256805,104.496513C448.668823,104.470612,448.874817,104.50946,448.874817,104.611877C448.874817,104.689575,448.651154,104.834373,448.205017,105.048622L446.891235,105.638397L445.436218,106.509529zM442.191864,106.48481C442.054108,106.603706,441.929321,106.663742,441.818665,106.663742C441.740997,106.663742,441.414886,106.480103,440.839233,106.112816C440.221222,105.719627,439.770355,105.488892,439.487823,105.420616C437.624298,104.983871,436.693146,104.697815,436.693146,104.561264C436.693146,104.441185,436.727295,104.355247,436.796722,104.304626C436.87326,104.236351,437.019226,104.202217,437.233459,104.202217C437.491272,104.202217,438.401245,104.50946,439.963409,105.125137C441.560883,105.749054,442.359009,106.142242,442.359009,106.304695L442.191864,106.48481zM445.230225,113.626892L444.239014,113.063019C443.852875,112.908798,443.608032,112.819336,443.504425,112.793434L442.66745,112.703972C442.487335,112.721626,441.852814,112.981789,440.762726,113.486809C439.800964,113.930611,439.285339,114.089539,439.217072,113.96122C439.122894,113.781105,439.526672,113.452667,440.427216,112.973549C441.337219,112.494431,442.114166,112.211899,442.758087,112.127136C443.298431,112.050621,443.968262,112.281357,444.766388,112.819336L445.809387,113.652794L445.230225,113.626892zM450.329865,108.202347C450.415802,108.177628,450.522919,108.280045,450.651215,108.510773C450.80661,108.767403,450.866669,109.058174,450.831329,109.38308C450.728912,110.357803,449.835419,111.254837,448.153198,112.075348L446.930084,111.98587L445.655182,111.66568L444.560394,111.409042C444.191925,111.288971,444.007111,111.194794,444.007111,111.126518C444.007111,111.041763,444.041229,110.955826,444.110687,110.869888C444.187195,110.767471,444.268433,110.728622,444.35437,110.754524L445.230225,111.113571C445.582184,111.241882,445.900055,111.306625,446.183746,111.306625L447.161987,111.241882L448.179108,111.126518C449.432831,110.767471,450.14032,110.177689,450.303955,109.357185C450.346344,109.134689,450.351044,108.86982,450.316895,108.561394C450.291016,108.330658,450.295715,108.211761,450.329865,108.202347zM442.140045,111.050003C442.054108,111.331352,441.955231,111.540894,441.843414,111.678627C441.740997,111.797523,441.504364,111.828133,441.135895,111.768097L440.067017,111.626831L437.697296,111.639778C437.448914,111.648018,437.015686,111.742195,436.396484,111.922302C435.933838,112.058861,435.499451,112.067101,435.096863,111.947029C434.813141,111.870514,434.50824,111.558548,434.182159,111.011154C433.847839,110.473175,433.650085,109.951675,433.590027,109.446655C433.529999,109.027565,433.49939,108.480164,433.49939,107.805634L433.512329,106.907425C433.607697,106.694351,433.727783,106.770874,433.873749,107.138153C433.993805,107.428925,434.096222,107.787971,434.182159,108.215294C434.242218,108.566101,434.405823,108.972237,434.671875,109.433701C434.963837,109.938721,435.251068,110.271866,435.53476,110.434326C435.946808,110.673294,436.723755,110.895782,437.864441,111.100616L441.406647,111.204216C441.569122,111.1689,441.757477,111.066483,441.9729,110.895782L442.230713,110.665054L442.140045,111.050003z"/>
    <path transform="matrix(-1,0,0,1,0,0)" style="stroke:none;fill:#000000;fill-rule:evenodd" d="M446.925171,117.788551L446.978821,117.794701L447.031616,117.806328L447.082855,117.823067L447.132263,117.8451L447.179077,117.871941L447.222992,117.903206L447.249634,117.925926L447.484406,118.139L447.509186,118.162926L447.730469,118.391548L447.75354,118.417L447.961304,118.661354L447.98233,118.68766L448.176422,118.947548L448.195068,118.974205L448.375824,119.249825L448.392242,119.276649L448.559509,119.567818L448.573883,119.594292L448.727814,119.901176L448.740143,119.927666L448.880402,120.250084L448.890656,120.275551L449.017456,120.613701L449.026001,120.63813L449.139435,120.991829L449.146454,121.015587L449.246246,121.384834L449.251709,121.407051L449.338165,121.792015L449.342621,121.813377L449.415588,122.214058L449.418823,122.23423L449.478271,122.650459L449.480499,122.66909L449.526642,123.100868L449.528351,123.11898L449.560822,123.566658L449.561676,123.580498L449.576874,123.907036L449.577209,123.920708L449.583893,124.240059L449.584045,124.254066L449.582336,124.566078L449.582001,124.581108L449.571747,124.885948L449.571075,124.901314L449.552429,125.19915L449.551239,125.215553L449.524078,125.50602L449.522186,125.522606L449.486664,125.806068L449.4841,125.823494L449.440186,126.0998L449.43692,126.118416L449.390442,126.356102L449.386536,126.374718L449.338348,126.581642L449.331665,126.607109L449.281433,126.783104L449.270691,126.816597L449.218567,126.961998L449.198578,127.010185L449.144409,127.124672L449.105774,127.193016L449.049927,127.276573L449.017609,127.319801L449.003448,127.334663L448.999512,127.38166L448.99881,127.389351L448.982941,127.553551L448.982239,127.5597L448.970978,127.663765L448.986023,127.657784L449.037109,127.640526L449.09433,127.627876L449.163544,127.616432L449.21701,127.610283L449.271027,127.609596L449.304352,127.611992L449.368408,127.618477L449.421722,127.626518L449.473999,127.640175L449.520477,127.657097L449.579254,127.681709L449.62796,127.705116L449.674103,127.733131L449.704681,127.755684L449.758331,127.798241L449.799011,127.833946L449.843597,127.883156L449.891968,127.943642L449.923401,127.987556L449.943054,128.020355L449.986115,128.098969L450.014801,128.160309L450.052734,128.256836L450.069489,128.30658L450.117859,128.477448L450.12912,128.525635L450.16449,128.716644L450.170288,128.756805L450.193024,128.968353L450.195587,129.002869L450.205322,129.234741L450.205841,129.263611L450.202759,129.515808L450.201904,129.540771L450.185852,129.813293L450.184143,129.834473L450.15509,130.127533L450.152863,130.146149L450.112213,130.447571L450.07547,130.786224L450.275055,130.887726L450.321869,130.914703L450.365601,130.946167L450.406097,130.981873L450.442657,131.021515L450.476166,131.066284L450.734009,131.45108L450.758606,131.491577L450.905029,131.75882L450.922974,131.794708L451.053528,132.082275L451.067871,132.117126L451.182373,132.425537L451.193481,132.458679L451.291718,132.787964L451.301453,132.825714L451.342468,133.012146L451.348267,133.042389L451.381256,133.248291L451.384674,133.274414L451.409454,133.499969L451.411499,133.521484L451.428406,133.76651L451.42926,133.785675L451.437988,134.050171L451.438324,134.066406L451.438995,134.350739L451.438843,134.364899L451.431488,134.668701L451.431152,134.681183L451.415771,135.004639L451.414917,135.016937L451.301453,136.619537L451.304718,136.748871L451.31665,136.911377L451.335815,137.076599L451.363831,137.257385L451.400574,137.449951L451.444489,137.64679L451.500702,137.868591L451.560669,138.081818L451.641663,138.332672L451.722473,138.54248L451.800232,138.709076L451.872162,138.832458L451.930267,138.909698L451.964783,138.942657L451.990906,138.950348L452.056854,138.96402L452.0784,138.968964L452.191162,138.997345L452.205688,139.001282L452.344086,139.040222L452.353149,139.042786L452.517365,139.092163L452.523499,139.094055L452.713531,139.153687L452.718475,139.155212L452.934296,139.225281L452.937714,139.226471L453.179321,139.306793L453.182556,139.3078L453.449951,139.398529L453.453888,139.399902L453.717041,139.491486L453.720276,139.492676L453.968903,139.581024L453.972473,139.582397L454.206573,139.66748L454.21051,139.668854L454.43042,139.750702L454.435028,139.752411L454.640228,139.831024L454.645355,139.833069L454.836212,139.908417L454.841858,139.910645L455.018188,139.982574L455.025543,139.985657L455.187347,140.054504L455.235901,140.078094L455.28186,140.106628L455.324585,140.139435L455.363861,140.176514L455.399231,140.217346L455.430176,140.261597L455.456482,140.308746L455.477997,140.358154L455.590271,140.657837L455.595062,140.671356L455.688354,140.942352L455.694153,140.960114L455.768158,141.20224L455.774811,141.22583L455.829498,141.439392L455.840088,141.492371L455.845551,141.546021L455.845367,141.600006L455.839752,141.653687L455.828796,141.706482L455.828644,141.706818L455.83786,141.722351L455.860413,141.771393L455.877686,141.822479L455.889801,141.875122L455.896637,141.928772L455.896973,142.001038L455.888092,142.145599L455.882111,142.199249L455.874756,142.235992L455.848114,142.348419L455.833069,142.400208L455.812744,142.450256L455.795654,142.483917L455.751221,142.564056L455.722687,142.609863L455.689728,142.652588L455.652466,142.691864L455.608734,142.729126L455.546173,142.776978L455.50177,142.807556L455.454437,142.833527L455.425049,142.84668L455.186493,142.944763L455.118164,142.967499L454.877563,143.030182L454.802917,143.044037L454.560608,143.071381L454.483215,143.074463L454.23938,143.066406L454.183502,143.061646L453.962585,143.030884L453.915253,143.022156L453.68457,142.968506L453.644592,142.957581L453.403656,142.881378L453.368134,142.868713L453.117279,142.76944L453.087555,142.756622L452.826813,142.634644L452.801331,142.621826L452.530334,142.476929L452.508636,142.46463L452.227753,142.296997L452.208588,142.285034L451.91745,142.094177L451.909576,142.08905L451.207825,141.611115L451.05011,141.535431L450.880096,141.47818L450.698975,141.441101L450.47821,141.422668L450.326294,141.411194L450.297272,141.408295L450.149445,141.389008L450.116821,141.383698L449.977722,141.356689L449.942719,141.348663L449.8125,141.314148L449.773712,141.302185L449.652069,141.259827L449.612427,141.244263L449.499634,141.19455L449.456573,141.173187L449.352509,141.115601L449.309967,141.089447L449.21463,141.024353L449.172424,140.992249L449.085968,140.919617L449.045807,140.882202L448.967896,140.801727L448.931335,140.759857L448.862305,140.671844L448.831024,140.627441L448.770721,140.531921L448.744385,140.485443L448.69281,140.38205L448.672638,140.336273L448.629761,140.225372L448.614532,140.179932L448.580536,140.06134L448.570282,140.019318L448.544983,139.893219L448.540558,139.868439L448.308502,138.342743L448.303223,138.289093L448.303223,138.235107L448.308685,138.181427L448.319611,138.128479L448.335846,138.077026L448.357208,138.027496L448.383362,137.980316L448.414276,137.935913L448.41684,137.932983L447.998199,137.378357L447.987457,137.363647L447.818451,137.123077L447.81369,137.116241L447.654266,136.881653L447.649292,136.874115L447.499603,136.645508L447.494507,136.637482L447.35437,136.415009L447.348755,136.405945L447.218353,136.189453L447.212555,136.179535L447.091919,135.969025L447.085938,135.958252L446.974884,135.753723L446.968719,135.742126L446.867218,135.543549L446.858856,135.526306L446.773926,135.34433L446.759583,135.310852L446.685242,135.118256L446.673981,135.085968L446.610077,134.882477L446.601532,134.851898L446.548035,134.637604L446.541565,134.608734L446.498505,134.383698L446.494049,134.356201L446.461578,134.120392L446.458679,134.095459L446.436462,133.848724L446.434937,133.825317L446.423157,133.567627L446.423157,133.520477L446.461945,132.610413L446.466888,132.556763L446.477295,132.503815L446.493042,132.452026L446.513885,132.402313L446.539673,132.354797L446.570251,132.310364L446.597443,132.278076L445.843384,131.404083L445.72583,131.271667L445.705658,131.247559L445.602112,131.115997L445.579742,131.085419L445.494995,130.960327L445.470215,130.91983L445.404419,130.80127L445.378632,130.748108L445.331787,130.636017L445.30838,130.567352L445.280365,130.461731L445.269257,130.408783L445.264832,130.373413L445.255768,130.274139L445.25354,130.220123L445.256287,130.170929L445.265839,130.078156L445.274231,130.024841L445.28772,129.972534L445.306519,129.921967L445.330444,129.873444L445.353851,129.835175L445.535126,129.565521L445.567444,129.522461L445.604004,129.482666L445.637665,129.452759L445.316254,128.893341L443.460785,126.552254L443.429352,126.508171L443.402679,126.461357L443.380829,126.41198L443.364075,126.36071L443.352631,126.307915L443.346466,126.254265L443.345795,126.200264L443.350586,126.146614L443.36084,126.093468L443.376373,126.041878L443.397064,125.991982L443.422668,125.944481L443.452911,125.899712L443.48761,125.85836L443.526215,125.820763L443.554932,125.797874L441.544647,124.044746L441.505707,124.007332L441.470856,123.966148L441.44043,123.921562L441.414612,123.874229L441.393616,123.824333L441.377899,123.772728L441.36731,123.719765L441.362335,123.6661L441.362671,123.612114L441.3685,123.558464L441.379761,123.505653L441.396332,123.454231L441.417877,123.404671L441.444366,123.357689L441.475616,123.313606L441.510986,123.272942L441.550293,123.236031L441.59317,123.203224L441.615906,123.18853L441.918335,123.002617L442.199768,122.806984L442.469055,122.595955L442.730316,122.366814L442.904785,122.197319L443.062653,122.029518L443.204651,121.863091L443.328369,121.701454L443.439087,121.537758L443.532379,121.379372L443.610626,121.224052L443.681885,121.052834L443.685486,121.044456L443.748016,120.901268L443.76886,120.858727L443.853088,120.704781L443.872406,120.67231L443.978333,120.507591L443.99527,120.482643L444.122894,120.306816L444.138275,120.286827L444.287628,120.10041L444.300781,120.084694L444.471802,119.887169L444.483429,119.874001L444.676178,119.665718L444.686249,119.655128L444.900513,119.435905L444.91983,119.417107L446.529083,117.929176L446.570618,117.894661L446.615204,117.864418L446.662872,117.838783L446.712769,117.818275L446.764374,117.802727L446.817505,117.792656L446.871155,117.787865L446.925171,117.788551zM445.282013,119.80838C444.681641,120.407578,444.311981,120.890236,444.174255,121.257523C443.985901,121.762543,443.625671,122.261673,443.092407,122.758453C442.723938,123.099838,442.32489,123.395325,441.895203,123.642532L445.410309,126.70797L445.011261,127.015221L443.878784,126.220612L445.758789,128.592667L446.466278,129.82402L445.977722,129.862869L445.796448,130.132446C445.745819,130.371414,445.895325,130.678665,446.247314,131.055374L447.342102,132.324402L446.994843,132.632828L446.955994,133.542801C446.973633,134.244415,447.101959,134.829483,447.342102,135.300369C447.599915,135.821869,447.960144,136.406937,448.42395,137.056763L449.595276,138.608307L449.556427,139.095673L448.835968,138.262207L449.067902,139.787872C449.179718,140.481232,449.664734,140.848511,450.522919,140.8909C450.866669,140.900314,451.183319,140.985077,451.475281,141.147537L452.209839,141.647842C452.999756,142.186996,453.681335,142.481308,454.256989,142.533096C454.583069,142.56723,454.90564,142.507202,455.22229,142.352997C455.317657,142.310608,455.364746,142.182281,455.364746,141.968048L455.132843,141.815002L454.90094,141.660797L455.106934,141.621948L455.312958,141.57132C455.252899,141.305267,455.141083,140.963882,454.978638,140.5448C454.566589,140.365875,453.999176,140.151611,453.278748,139.903229C452.531219,139.647781,452.059174,139.501801,451.861389,139.467667C451.552979,139.425278,451.282196,139.014435,451.050293,138.236313C450.861938,137.595917,450.767761,137.052048,450.767761,136.608246L450.883148,134.978989C450.934937,134.09021,450.900787,133.41095,450.780731,132.940079C450.660645,132.486847,450.497009,132.090134,450.291016,131.747574L450.033203,131.362625L449.505798,131.094223L449.582336,130.387909C449.711823,129.525009,449.702393,128.879913,449.556427,128.451401C449.46225,128.170044,449.312744,128.080582,449.10675,128.182999L448.835968,128.426682L448.707672,130.478546L447.908356,131.003571C448.260315,129.045898,448.4534,127.729782,448.488708,127.054062C448.651154,127.037582,448.792419,126.690308,448.913666,126.015778C449.041992,125.288261,449.080841,124.485413,449.029053,123.604858C448.891296,121.176292,448.179108,119.415199,446.891235,118.320404L445.282013,119.80838z"/>
    <path transform="matrix(-1,0,0,1,0,0)" style="stroke:none;fill:#000000;fill-rule:evenodd" d="M435.499146,116.750862L435.552612,116.757698L435.605255,116.770164L435.656158,116.787773L435.7052,116.810493L435.735291,116.827583L436.067627,117.030922L436.085907,117.042534L436.4133,117.261589L436.430359,117.273552L436.753143,117.508324L436.769379,117.520622L437.087189,117.770958L437.102386,117.783424L437.415619,118.049294L437.430115,118.062111L437.738373,118.343697L437.751862,118.356346L438.055328,118.653496L438.06781,118.66613L438.366486,118.978828L438.379639,118.993172L438.612213,119.255119L438.62381,119.268623L438.841858,119.53141L438.853638,119.546288L439.057159,119.810097L439.068939,119.825829L439.258087,120.090675L439.269714,120.10775L439.444336,120.373451L439.456116,120.391914L439.616241,120.658806L439.62735,120.678459L439.772919,120.946205L439.783691,120.967064L439.914917,121.235832L439.925171,121.258049L440.04187,121.527855L440.05127,121.551262L440.153442,121.82209L440.161987,121.846352L440.249817,122.118034L440.257507,122.144005L440.330627,122.41671L440.336945,122.442848L440.395721,122.716759L440.400848,122.744102L440.444946,123.018684L440.448517,123.046028L440.478271,123.3218L440.480499,123.349831L440.495697,123.62664L440.496033,123.680626L440.490723,123.734276L440.480133,123.787254L440.464264,123.83886L440.444611,123.885338L439.711243,125.423836L439.706787,125.432899L439.527893,125.79052L439.524628,125.797188L439.347961,126.138588L439.344543,126.145073L439.170258,126.470589L439.166168,126.477928L438.994263,126.787376L438.98999,126.795067L438.820496,127.088448L438.815369,127.09716L438.648071,127.374474L438.642456,127.383537L438.477722,127.644798L438.471222,127.654869L438.308899,127.899895L438.30481,127.906059L437.673798,128.830109L437.52121,129.057892L437.516418,129.06488L437.372559,129.272491L437.366394,129.281219L437.233643,129.464722L437.225586,129.475494L437.104095,129.634918L437.093689,129.648071L436.98349,129.783569L436.968597,129.801178L436.86969,129.912567L436.84729,129.93631L436.759644,130.023621L436.723236,130.05661L436.646851,130.119843L436.603638,130.15213L436.557343,130.179993L436.494629,130.20816L435.709473,130.503601L435.658051,130.52002L435.598083,130.532318L435.317688,130.572968L435.28537,130.681641L435.265045,130.738037L434.579163,132.353607L434.586853,132.361115L434.621368,132.402466L434.651611,132.447235L434.677094,132.494904L434.697601,132.5448L434.713135,132.596588L434.723206,132.649567L434.72818,132.722687L434.72818,133.773865L434.725281,133.829926L434.693481,134.130829L434.690399,134.154724L434.645996,134.447937L434.641724,134.472565L434.584656,134.758087L434.57901,134.782684L434.509644,135.060516L434.502625,135.085815L434.420776,135.356293L434.412231,135.382446L434.317749,135.64505L434.307831,135.670349L434.20105,135.925446L434.189606,135.95108L434.070343,136.198517L434.05957,136.219696L433.844452,136.619537L433.83847,136.63028L433.605225,137.04071L433.599579,137.050293L433.348236,137.471832L433.342773,137.480865L433.073303,137.913177L433.068024,137.921387L432.780426,138.364441L432.775482,138.371948L432.469971,138.825775L432.465363,138.832611L432.141907,139.297394L432.137299,139.303894L431.854828,139.696869L431.848175,139.714478L431.064911,141.438385L430.898987,141.84317L430.748108,142.235992L430.626617,142.579956L430.524109,142.904083L430.447571,143.183472L430.393402,143.429169L430.362305,143.633026L430.348969,143.826111L430.346069,143.856171L430.324524,144.027039L430.314972,144.08017L430.307098,144.110596L430.254639,144.289337L430.230225,144.355804L430.147186,144.542542L430.120514,144.594666L430.006897,144.789459L429.982117,144.828064L429.899597,144.945129L429.870361,144.98288L429.784088,145.084564L429.744598,145.126251L429.654053,145.212189L429.60553,145.253021L429.511017,145.323425L429.45105,145.36203L429.352448,145.416718L429.2836,145.448853L429.180908,145.487976L429.106232,145.510345L428.999603,145.533936L428.922211,145.545044L428.811646,145.552917L428.75766,145.554108L428.728119,145.552399L428.569366,145.538727L428.5159,145.531372L428.46582,145.519257L428.325195,145.478241L428.274261,145.460632L428.216187,145.432953L428.093323,145.36496L428.047546,145.336426L427.993713,145.293518L427.888611,145.198364L427.850525,145.160248L427.816345,145.118378L427.780304,145.062012L427.657623,144.841064L427.634186,144.8479L427.581238,144.857635L427.527405,144.861908L427.473419,144.860718L427.395508,144.849274L426.764465,144.707947L426.739532,144.70163L425.618805,144.393219L425.575745,144.379364L425.461243,144.337158L425.411713,144.315979L425.379578,144.298889L425.292084,144.248505L425.246643,144.219269L425.187195,144.169556L425.126709,144.110931L425.089966,144.071289L425.057312,144.028412L425.019897,143.964325L424.986938,143.897705L424.965393,143.848145L424.949005,143.796722L424.938049,143.743927L424.932251,143.690247L424.933258,143.619171L424.934814,143.599701L424.94165,143.546204L424.954132,143.493774L424.970337,143.445923L424.980957,143.419098L425.003326,143.369873L425.017181,143.344604L425.03717,143.310577L425.060577,143.274353L425.08963,143.233002L425.108063,143.208405L425.146515,143.159882L425.159332,143.144348L425.207001,143.088623L425.217255,143.076843L425.274323,143.013947L425.281342,143.006287L425.347626,142.936035L425.355652,142.927856L425.974213,142.300079L428.608337,139.245941L428.595673,139.2323L428.563385,139.189056L428.535522,139.142761L428.512482,139.094055L428.494537,139.043121L428.481873,138.990662L428.476074,138.952911L428.270172,137.183563L428.267273,137.149719L428.242828,136.683441L428.242157,136.666168L428.233429,136.229614L428.233429,136.209778L428.240448,135.803101L428.241455,135.780212L428.264191,135.403107L428.266418,135.376617L428.304871,135.029236L428.309143,134.998138L428.363312,134.680511L428.370819,134.64444L428.440704,134.356354L428.45282,134.314148L428.538605,134.055634L428.550232,134.023682L428.609344,133.877411L428.611755,133.871948L428.676849,133.715942L428.678558,133.71167L428.749451,133.545746L428.751678,133.540466L428.91095,133.178741L428.913849,133.172577L429.09668,132.771393L429.098877,132.766602L429.304962,132.325928L429.306671,132.322174L429.53598,131.841675L429.537689,131.838257L429.790405,131.318146L429.791779,131.315399L430.067719,130.755646L430.068573,130.753754L430.215363,130.459015L430.241821,130.411835L430.272919,130.367767L430.308289,130.327087L430.347595,130.290009L430.390503,130.257202L430.436462,130.229034L430.485138,130.205444L430.535889,130.186981L430.588196,130.173645L430.64151,130.165802L430.695496,130.163391L430.749481,130.166473L430.802795,130.174866L430.854919,130.18869L430.905487,130.207672L430.953857,130.231567L430.999481,130.260468L431.035858,130.288818L431.212189,129.376892L431.225006,129.324432L431.243286,129.273682L431.266357,129.225006L431.283966,129.194916L431.379639,129.042328L431.339996,129.034973L431.288239,129.019623L431.238159,128.999268L431.190491,128.973816L431.145721,128.943756L431.104218,128.909241L431.066437,128.870789L431.032623,128.828583L431.003235,128.783295L430.978607,128.735291L430.959137,128.685059L430.944611,128.632935L430.935577,128.579803L430.933014,128.551422L430.868256,127.563637L430.867035,127.521263L430.871643,127.191826L430.872009,127.177635L430.885834,126.836586L430.886688,126.82325L430.909943,126.470406L430.910797,126.458107L430.943237,126.093651L430.944458,126.082191L430.986145,125.706108L430.987335,125.695518L431.038269,125.307823L431.039795,125.297569L431.100098,124.898247L431.101654,124.888847L431.171204,124.477913L431.174774,124.458946L431.30072,123.849968L431.307709,123.820061L431.472443,123.204933L431.480804,123.176567L431.684662,122.555458L431.694061,122.529137L431.936859,121.902046L431.947113,121.877617L432.229034,121.244545L432.239624,121.22216L432.560516,120.583122L432.571289,120.562614L432.931152,119.91758L432.942078,119.898949L433.341064,119.247597L433.367188,119.208809L435.028229,116.965126L435.062561,116.923439L435.10083,116.885338L435.142883,116.851509L435.187988,116.821938L435.235992,116.796989L435.286224,116.777168L435.338165,116.762474L435.391327,116.753258L435.445129,116.749321L435.499146,116.750862zM429.044861,134.223221C428.795288,134.873047,428.71405,135.838348,428.799988,137.12149L429.006012,138.890839L429.585205,138.929688L426.36673,142.661407L425.735748,143.301819C425.546204,143.498398,425.456757,143.618484,425.464996,143.660858C425.490875,143.755035,425.589783,143.828018,425.760468,143.878632L426.881165,144.187073L427.512146,144.328339L427.950073,143.840973L428.104279,144.546112L428.246704,144.80275C428.375031,144.94754,428.550415,145.020523,428.774109,145.020523C429.07428,145.020523,429.332092,144.853363,429.546356,144.520218C429.718231,144.255341,429.808868,144.011658,429.817108,143.789169C429.825348,143.25943,430.07843,142.404785,430.576385,141.224045L431.362762,139.493561L431.362762,139.467667C432.297455,138.185684,433.040283,137.017914,433.590027,135.96666C433.924347,135.316849,434.126831,134.585815,434.195129,133.773529L434.195129,132.72229L433.538239,132.991882L434.066803,132.196075L434.774292,130.529175L434.903809,130.093597L435.52182,130.004135L436.307007,129.708649C436.495361,129.572098,436.804962,129.178925,437.233459,128.529099L437.864441,127.604996C438.294128,126.972839,438.749725,126.168808,439.230011,125.194084L439.963409,123.655487C439.921021,122.176918,439.25943,120.74073,437.980988,119.346924C437.191101,118.492279,436.349396,117.803612,435.457092,117.282104L433.796051,119.525856C432.680054,121.27047,431.980804,122.950333,431.697083,124.566635C431.499329,125.677917,431.400452,126.665588,431.400452,127.528473L431.465179,128.516144L432.263336,127.733307L432.4823,127.733307C432.628265,127.750969,432.701233,127.806297,432.701233,127.900467C432.701233,127.97699,432.551758,128.230087,432.250366,128.65741L431.735931,129.477921L431.529938,130.542114L431.387482,131.760529L431.45224,132.439758C431.478149,132.636353,431.45694,132.761139,431.387482,132.811768L431.143799,133.004822C431.066101,133.038956,431.027252,132.961273,431.027252,132.774094C431.027252,132.473907,430.915436,131.781708,430.692932,130.696335C429.894806,132.294968,429.345032,133.469818,429.044861,134.223221zM434.104462,130.0159C434.310486,130.033569,434.431732,130.088898,434.465881,130.183075C434.5,130.277252,434.371704,130.653946,434.079742,131.312012L433.628876,132.286728C433.422882,132.056,433.392273,131.897079,433.538239,131.812317C433.632416,131.752274,433.710114,131.482697,433.770142,131.003571C433.82196,130.584503,433.8349,130.251343,433.80899,130.004135L434.104462,130.0159z"/>
</svg>
