<?xml version="1.0" encoding="UTF-8"?>
<svg xmlns="http://www.w3.org/2000/svg" xmlns:xlink="http://www.w3.org/1999/xlink" width="16.139mm" height="20.025mm" viewBox="-520.034973 60.455833 16.138611 20.025490">
    <path transform="matrix(-1,0,0,1,0,0)" style="stroke:none;fill:#000000;fill-rule:evenodd" d="M504.341614,60.900574C504.044617,61.049309,503.896362,61.327087,503.896362,61.735378L503.896362,73.695023L504.00769,74.02845C504.230286,75.549324,505.435974,77.014053,507.625183,78.423126C508.812134,79.239212,510.055237,79.887848,511.353485,80.370018L511.965668,80.481323L512.466553,80.370018L516.306152,78.423126C518.495361,77.014053,519.737976,75.549324,520.034973,74.02845L520.034973,61.735378C520.034973,61.327087,519.886719,61.049309,519.589722,60.900574C519.367126,60.60408,519.033203,60.455833,518.587952,60.455833L505.28772,60.455833C504.953796,60.455833,504.63858,60.60408,504.341614,60.900574zM505.510345,73.750671L505.510345,70.468582L511.186523,70.468582L511.186523,78.590088C509.776947,77.996613,508.589508,77.29232,507.625183,76.476227C506.326416,75.586258,505.621643,74.677582,505.510345,73.750671zM518.476685,69.022079L512.744812,69.022079L512.744812,61.9575L518.476685,61.9575L518.476685,69.022079z"/>
</svg>
