<?xml version="1.0" encoding="UTF-8"?>
<svg xmlns="http://www.w3.org/2000/svg" xmlns:xlink="http://www.w3.org/1999/xlink" width="22.491mm" height="14.049mm" viewBox="-240.432999 63.444118 22.491486 14.048939">
    <path transform="matrix(-1,0,0,1,0,0)" style="stroke:none;fill:#000000;fill-rule:evenodd" d="M224.902832,64.136681L225.344177,64.168251L225.281036,64.703636L224.902832,64.829933L224.65094,65.144981L222.446259,65.144981L222.004913,65.33374L221.847733,65.775085L221.847733,66.026985L221.689865,66.026985L221.312347,66.153282L221.12291,66.46833C220.70285,66.698959,220.398773,67.024307,220.209335,67.444374L219.988998,67.444374L219.579224,67.602242L219.358902,67.948868C219.043854,68.01133,218.72879,68.169197,218.413742,68.421097C218.11998,68.651726,217.962799,69.009331,217.941513,69.491859L218.098694,70.405441L218.508469,71.130264C218.907257,71.465904,219.400772,71.634071,219.988998,71.634071L220.776291,71.539352C221.091339,71.455612,221.374817,71.455612,221.627411,71.539352L222.13121,72.075417L222.225937,72.295746C222.288391,72.358894,222.319962,72.442635,222.319962,72.547653C222.278091,72.778961,222.046783,73.229919,221.627411,73.901886C221.186066,74.553268,220.944458,75.235535,220.902588,75.949379C220.839432,76.327576,220.850418,76.622032,220.934158,76.831383L223.138824,77.493057C223.706467,77.199287,223.978958,76.422295,223.958374,75.162094L223.832077,73.776276L223.768921,72.988312L223.895218,72.264175L224.58847,71.570923L225.217896,71.539352L225.659241,72.075417L226.352478,72.295746L226.981903,72.137878L227.360092,72.799553L227.801437,73.209328L228.336823,73.33493L228.809052,73.33493L228.809052,74.783897L228.903778,75.004913L229.124115,75.098946L229.344437,75.004913L229.407593,74.783897L229.407593,74.216942L229.912079,74.216942L229.912079,74.783897L229.974548,75.004913L230.163986,75.098946L230.384308,75.004913L230.447464,74.783897L230.447464,74.216942L230.982849,74.216942L230.982849,74.783897L231.04599,75.004913L231.266312,75.098946L231.455078,75.004913L231.549789,74.783897L231.549789,74.216942L232.022034,74.216942L232.022034,74.783897L232.148331,75.004913L232.305511,75.098946C232.410522,75.098946,232.48465,75.067368,232.52652,75.004913L232.62056,74.783897L232.62056,73.33493L233.093475,73.33493L233.502563,73.146179L233.692001,72.736404L233.692001,72.106308L234.00705,72.106308L234.00705,73.051453L234.164246,73.492805C234.290527,73.618408,234.437424,73.681557,234.605591,73.681557L237.755402,73.681557L238.133606,73.492805L238.322357,73.051453L238.322357,71.665642L238.227646,71.255875L237.881699,71.035545L237.881699,70.783638L238.133606,70.563309L238.259216,70.24826L238.259216,69.01963L239.267517,69.01963C239.414398,69.01963,239.540695,68.966774,239.645721,68.861755L239.866043,68.515823L240.432999,68.515823L240.432999,67.633812L239.866043,67.633812L239.645721,67.287193L239.267517,67.160896L238.259216,67.160896L238.259216,66.657089C238.259216,66.425774,238.175476,66.258301,238.007309,66.153282L238.007309,64.924652L237.913284,64.798355L237.755402,64.703636L237.56665,64.798355L237.471924,64.924652L237.471924,66.026985L233.345383,66.026985L233.313812,65.176552L233.093475,64.766785L232.65213,64.609596L232.62056,64.136681L232.55809,64.074219L232.998749,64.042648L232.715271,63.601299L232.211472,63.444118L231.70697,63.664448L231.486649,64.136681L231.927994,64.105789L231.927994,64.199829L231.959564,64.641174L231.518219,64.861504L231.361038,65.302162L231.455078,66.026985L229.817352,66.026985L229.659485,65.271278L229.439163,64.861504L228.966919,64.766785L228.903778,64.294548L228.903778,64.199829L229.344437,64.136681L228.998505,63.727592L228.462433,63.632874C228.273682,63.654152,228.116501,63.737888,227.990204,63.884777L227.801437,64.389267L228.242096,64.326126L228.242096,64.389267L228.305252,64.861504C228.137085,64.882782,228.011475,64.956223,227.927048,65.081833L227.801437,65.554756L227.863907,66.026985L227.328522,66.026985L227.328522,65.775085C227.328522,65.606918,227.265381,65.46003,227.139771,65.33374C227.034744,65.20813,226.887863,65.144981,226.698425,65.144981L226.509659,65.144981L226.289337,64.893074L225.974289,64.798355L226.005859,64.326126L226.005859,64.2314L226.446518,64.294548L226.226196,63.821629L225.722382,63.538151L225.217896,63.696022L224.902832,64.136681M233.313812,67.035286L233.59729,67.696274C233.59729,67.96946,233.502563,68.189789,233.313812,68.357956C233.103775,68.546707,232.883438,68.641426,232.65213,68.641426C232.379639,68.641426,232.148331,68.546707,231.959564,68.357956C231.791397,68.189789,231.70697,67.96946,231.70697,67.696274C231.70697,67.423782,231.791397,67.202766,231.959564,67.035286C232.148331,66.84584,232.379639,66.751808,232.65213,66.751808C232.883438,66.751808,233.103775,66.84584,233.313812,67.035286zM228.6203,68.988052C228.410263,68.819893,228.305252,68.599564,228.305252,68.326378C228.305252,68.0532,228.410263,67.83287,228.6203,67.664703C228.809052,67.475945,229.019089,67.381226,229.250397,67.381226C229.52359,67.381226,229.754211,67.475945,229.942963,67.664703C230.11113,67.83287,230.195557,68.0532,230.195557,68.326378C230.195557,68.599564,230.11113,68.819893,229.942963,68.988052C229.754211,69.176811,229.52359,69.27153,229.250397,69.27153C229.019089,69.27153,228.809052,69.176811,228.6203,68.988052zM225.974289,67.444374C226.184326,67.633812,226.289337,67.864441,226.289337,68.137619C226.289337,68.389526,226.184326,68.609856,225.974289,68.799301C225.806122,68.966774,225.596085,69.051201,225.344177,69.051201C225.070999,69.051201,224.850677,68.966774,224.68251,68.799301C224.472473,68.609856,224.367462,68.389526,224.367462,68.137619C224.367462,67.864441,224.472473,67.633812,224.68251,67.444374C224.850677,67.276207,225.070999,67.192467,225.344177,67.192467C225.596085,67.192467,225.806122,67.276207,225.974289,67.444374zM219.988998,69.523438L220.209335,69.491859C220.419373,69.933205,220.734421,70.268852,221.15448,70.50016L221.532684,70.846786L221.532684,70.878357L220.61911,70.940819C219.883987,71.108986,219.327332,71.014267,218.949814,70.657341L218.666336,70.185112L218.571609,69.491859L218.791946,68.893333L219.358902,68.609856L219.358902,68.893333L219.54834,69.334679C219.67395,69.460289,219.820831,69.523438,219.988998,69.523438z"/>
</svg>
