<?xml version="1.0" encoding="UTF-8"?>
<svg xmlns="http://www.w3.org/2000/svg" xmlns:xlink="http://www.w3.org/1999/xlink" width="22.485mm" height="22.491mm" viewBox="-209.009567 59.222900 22.484619 22.491486">
    <path transform="matrix(-1,0,0,1,0,0)" style="stroke:none;fill:#000000;fill-rule:evenodd" d="M194.17952,61.319809L193.605011,61.509937L193.4142,62.081696L193.605011,62.463326L197.049988,65.893883L197.049988,68.753365L194.849426,66.656456L194.371017,66.465645L193.796524,66.656456L193.605011,67.037399L193.796524,67.609848L195.99707,69.801476L193.222702,69.801476L189.873825,66.370918L189.300003,66.084702L188.821594,66.370918L188.630096,66.847275L188.821594,67.323624L191.213654,69.801476L187.290955,69.801476L186.716446,69.992294L186.524948,70.468643L186.716446,71.040405L187.290955,71.231216L191.117554,71.231216L188.821594,73.518257L188.630096,73.994606L188.821594,74.566368L189.300003,74.757179L189.873825,74.566368L193.222702,71.231216L195.99707,71.231216L193.796524,73.327438L193.605011,73.804474L193.796524,74.376236L194.371017,74.566368L194.849426,74.376236L197.049988,72.183922L197.049988,74.947998L193.605011,78.283142L193.4142,78.760178L193.605011,79.33194L194.17952,79.522751L194.657928,79.33194L197.049988,76.949493L197.049988,80.951813L197.240799,81.523567L197.815308,81.714386L198.197617,81.523567L198.484528,80.951813L198.484528,76.949493L200.781174,79.33194L201.354996,79.522751L201.833405,79.33194L202.120316,78.760178L201.833405,78.283142L198.484528,74.947998L198.484528,72.183922L200.589676,74.376236L201.163498,74.566368L201.641907,74.376236L201.833405,73.804474L201.641907,73.327438L199.441345,71.231216L202.311813,71.231216L205.756104,74.566368L206.139099,74.757179L206.712921,74.566368L206.904419,73.994606L206.712921,73.518257L204.416962,71.231216L208.339661,71.231216L208.72197,71.040405L209.009567,70.468643L208.72197,69.992294L208.339661,69.801476L204.225464,69.801476L206.712921,67.323624L206.904419,66.847275L206.712921,66.370918L206.139099,66.084702L205.756104,66.370918L202.311813,69.801476L199.441345,69.801476L201.641907,67.609848L201.833405,67.037399L201.641907,66.656456L201.163498,66.465645L200.589676,66.656456L198.484528,68.753365L198.484528,65.893883L201.833405,62.463326L202.120316,62.081696L201.833405,61.509937L201.354996,61.319809L200.781174,61.509937L198.484528,63.893066L198.484528,59.985474L198.197617,59.509125L197.815308,59.2229L197.240799,59.509125L197.049988,59.985474L197.049988,63.893066L194.657928,61.509937L194.17952,61.319809"/>
</svg>
