<?xml version="1.0" encoding="UTF-8"?>
<svg xmlns="http://www.w3.org/2000/svg" xmlns:xlink="http://www.w3.org/1999/xlink" width="22.414mm" height="22.368mm" viewBox="-489.810242 92.580811 22.413940 22.367874">
    <path transform="matrix(-1,0,0,1,0,0)" style="stroke:none;fill:#000000;fill-rule:evenodd" d="M473.950623,101.180473L471.518738,100.760406L467.396301,104.788803L468.453339,105.804657L470.180298,104.123009L471.660156,105.664635L470.003906,107.311272L472.505768,109.798737L472.576477,109.938751L475.078339,112.46122L476.804596,110.744568L478.355164,112.25119L476.628876,113.967842L477.685913,114.948685L481.738342,110.919601L481.315521,108.362129C482.349213,108.17543,483.371246,107.825371,484.38092,107.311272L487.306305,105.209557C488.903534,103.574585,489.737488,101.460518,489.808167,98.868042C489.854858,97.023033,489.572754,95.236374,488.961853,93.508057C487.200592,92.807259,485.379608,92.503876,483.500305,92.597221C480.939392,92.690567,478.848663,93.54306,477.227417,95.154694C476.335114,96.042191,475.606873,97.011368,475.042664,98.062225C474.502472,99.090431,474.138672,100.129616,473.950623,101.180473z"/>
</svg>
