<?xml version="1.0" encoding="UTF-8"?>
<svg xmlns="http://www.w3.org/2000/svg" xmlns:xlink="http://www.w3.org/1999/xlink" width="22.478mm" height="11.246mm" viewBox="-458.861145 98.141998 22.477753 11.245743">
    <path transform="matrix(-1,0,0,1,0,0)" style="stroke:none;fill:#000000;fill-rule:evenodd" d="M443.541016,98.216125L443.369415,98.141998L443.222534,98.216125L443.173126,98.363701L443.173126,98.708267L440.599854,98.708267L440.403564,98.756996L440.354828,98.929283L440.354828,99.00341L439.619019,99.00341L439.178345,98.880547L439.178345,98.756996L439.0802,98.609428L438.932617,98.560005L438.9086,98.560005L438.761017,98.609428L438.687592,98.756996L438.687592,98.880547L437.82959,98.953995C437.747925,99.052147,437.617523,99.126274,437.437683,99.175697L437.437683,99.052147C437.535828,99.00341,437.584564,98.929283,437.584564,98.831131L437.584564,98.732292L437.48642,98.560005L437.339539,98.486565L436.62912,98.486565L436.45752,98.560005L436.383392,98.732292L436.383392,98.831131C436.383392,98.929283,436.416321,99.00341,436.481537,99.052147L436.481537,101.414688L436.579712,101.636391C436.61264,101.81691,436.669617,101.915062,436.751282,101.931534L437.364227,101.956245C437.592804,102.005661,437.747925,102.079109,437.82959,102.177948L438.687592,102.251389L438.761017,102.398964L438.9086,102.44838L438.932617,102.44838L439.0802,102.398964L439.153656,102.251389L439.178345,102.251389L439.619019,102.128525L439.913483,102.128525L439.913483,102.398964L439.619019,102.398964L439.373962,102.423676L439.153656,102.522514L438.712311,102.768234L438.589447,102.891098L438.54071,103.112801L438.54071,108.673897L438.589447,108.895599L438.712311,109.043175L439.153656,109.264877L439.619019,109.387741L443.565735,109.387741L443.982361,109.264877L444.447723,109.043175L444.570587,108.895599L444.644043,108.673897L444.644043,108.575745L445.698334,108.575745L445.893951,108.526329L445.943359,108.378754L445.943359,106.779472L445.893951,106.607193L445.698334,106.55777L444.644043,106.55777L444.644043,103.112801L444.570587,102.891098L444.447723,102.768234L443.982361,102.522514L443.614471,102.398964L443.614471,102.2761L444.300842,102.251389L444.717499,102.153236L445.011932,102.029686C445.142365,102.128525,445.273468,102.177948,445.40387,102.177948L445.40387,102.005661L445.869934,102.005661L445.869934,102.054398L445.918671,102.201973C445.967407,102.251389,446.016815,102.2761,446.065552,102.2761C446.131439,102.2761,446.188416,102.251389,446.237152,102.201973L446.28656,102.054398L446.28656,102.005661L446.506897,102.005661L446.506897,102.054398L446.556305,102.201973C446.605042,102.251389,446.662018,102.2761,446.727905,102.2761C446.776642,102.2761,446.825378,102.251389,446.874786,102.201973L446.923523,102.054398L446.923523,101.956245L447.144531,101.956245L447.144531,102.054398L447.217987,102.201973C447.250244,102.251389,447.299683,102.2761,447.364868,102.2761C447.430084,102.2761,447.479492,102.251389,447.511749,102.201973C447.561188,102.169708,447.585205,102.120293,447.585205,102.054398L447.585205,102.005661L447.806213,102.005661L447.806213,102.054398L447.85495,102.201973C447.904358,102.251389,447.953094,102.2761,448.002533,102.2761C448.067719,102.2761,448.124695,102.251389,448.174133,102.201973L448.22287,102.054398L448.22287,102.005661L448.443176,102.029686L448.443176,102.054398L448.492615,102.201973L448.664215,102.2761C448.712952,102.2761,448.76236,102.251389,448.811096,102.201973L448.859833,102.054398L448.859833,102.029686L449.080841,102.029686L449.080841,102.054398C449.080841,102.120293,449.10556,102.169708,449.154297,102.201973C449.187225,102.251389,449.235962,102.2761,449.301178,102.2761C449.366364,102.2761,449.407562,102.251389,449.424042,102.201973L449.522186,102.054398L449.522186,102.029686L449.717804,102.054398C449.717804,102.120293,449.742523,102.169708,449.79126,102.201973C449.824188,102.251389,449.872925,102.2761,449.938812,102.2761C449.987549,102.2761,450.036987,102.251389,450.085693,102.201973L450.159149,102.054398L450.159149,102.029686L450.380157,102.005661L450.380157,102.054398L450.428894,102.201973C450.477631,102.251389,450.518829,102.2761,450.551086,102.2761C450.616974,102.2761,450.66571,102.251389,450.698639,102.201973L450.796814,102.054398L450.796814,101.685806L456.826691,101.661095C456.858948,101.742775,456.924164,101.783958,457.022308,101.783958L457.120483,101.759247L457.193909,101.636391L457.806854,101.636391L457.904999,101.759247L458.003174,101.783958L458.125336,101.759247L458.174774,101.636391L458.272217,101.636391C458.338135,101.636391,458.386841,101.611679,458.4198,101.562256L458.517944,101.389977L458.493256,101.316528L458.861145,101.070122L458.836426,100.159973L458.517944,99.938271L458.517944,99.913559L458.4198,99.716568L458.272217,99.667831L458.174774,99.667831L458.125336,99.544968L458.003174,99.495552L457.904999,99.544968L457.855591,99.667831L457.193909,99.618416L457.022308,99.495552L456.826691,99.618416L450.796814,99.544968L450.796814,98.953995L450.698639,98.806419L450.551086,98.732292L450.428894,98.806419L450.380157,98.953995L450.380157,99.200409L450.159149,99.175697L450.159149,98.953995L450.085693,98.806419L449.938812,98.732292L449.79126,98.806419L449.717804,98.953995L449.717804,99.126274L449.522186,99.126274L449.522186,98.953995L449.424042,98.806419L449.301178,98.732292L449.154297,98.806419L449.080841,98.953995L449.080841,99.175697L448.859833,99.175697L448.859833,98.953995L448.811096,98.806419L448.664215,98.732292L448.492615,98.806419L448.443176,98.953995L448.443176,99.175697L448.22287,99.200409L448.22287,98.953995L448.174133,98.806419L448.002533,98.732292L447.85495,98.806419L447.806213,98.953995L447.806213,99.200409L447.585205,99.200409L447.585205,98.953995L447.511749,98.806419L447.364868,98.732292L447.217987,98.806419L447.144531,98.953995L447.144531,99.200409L446.923523,99.224426L446.923523,98.953995L446.874786,98.806419L446.727905,98.732292L446.556305,98.806419L446.506897,98.953995L446.506897,99.175697L446.28656,99.175697L446.28656,98.953995L446.237152,98.806419L446.065552,98.732292L445.918671,98.806419L445.869934,98.953995L445.869934,99.175697L445.40387,99.175697L445.40387,98.978699L445.011932,99.126274L444.717499,99.052147L444.300842,98.929283L443.614471,98.880547L443.614471,98.363701L443.541016,98.216125M457.806854,100.897835L457.806854,101.144249L457.193909,101.094826L457.193909,100.897835L457.806854,100.897835zM457.193909,100.356964L457.193909,100.159973L457.806854,100.159973L457.806854,100.405701L457.193909,100.356964zM456.826691,100.922546L456.826691,101.094826L450.796814,101.04541L450.796814,100.947258L456.826691,100.922546zM456.826691,100.159973L456.826691,100.356964L450.796814,100.307549L450.796814,100.209389L456.826691,100.159973z"/>
</svg>
