<?xml version="1.0" encoding="UTF-8"?>
<svg xmlns="http://www.w3.org/2000/svg" xmlns:xlink="http://www.w3.org/1999/xlink" width="22.614mm" height="7.156mm" viewBox="-427.947235 100.184998 22.613678 7.156158">
    <path transform="matrix(-1,0,0,1,0,0)" style="stroke:none;fill:#000000;fill-rule:evenodd" d="M414.292267,100.4925L414.215393,100.723122L414.215393,102.184441L414.292267,102.415749L414.547607,102.620293L414.776855,102.697853L413.39859,104.030815L413.169342,103.08223C413.084229,102.911324,412.8797,102.782967,412.556396,102.697853L411.791077,102.620293L409.519165,102.928482L407.273285,103.210587L406.634949,103.107628L406.226563,102.95388L405.818848,103.030754L405.333557,103.28746L405.435852,104.876442L405.614288,106.594467L405.741974,107.107193C405.809937,107.24379,405.920441,107.320663,406.073486,107.337822C406.210083,107.372139,406.439331,107.287033,406.762634,107.081802L407.171021,106.7743C407.494324,106.534752,407.88623,106.295204,408.345428,106.056343C409.315308,105.526451,410.182892,105.21003,410.948883,105.107758L412.046417,105.184631L412.556396,105.363777L412.811737,105.594406L413.194733,105.67128L413.603149,105.594406L414.266876,104.927925L416.870331,104.927925L417.151062,104.31292L417.406403,104.31292L417.482605,104.954002L417.201874,104.954002C417.11676,104.954002,417.048798,104.98764,416.998016,105.056274L416.895721,105.312302L416.895721,105.363777L416.998016,105.594406L417.201874,105.645882L418.503937,105.645882L418.707794,105.620483L418.835449,105.492134L422.995636,105.517525C423.08075,105.603325,423.174103,105.645882,423.276367,105.645882L427.615692,105.645882L427.615692,103.005356C427.836731,103.005356,427.947235,102.894165,427.947235,102.671776L427.947235,100.902954C427.947235,100.697731,427.836731,100.595459,427.615692,100.595459L426.083679,100.595459L425.777557,100.774605L424.986847,100.774605C424.986847,100.552216,424.875641,100.441704,424.654633,100.441704L420.289917,100.441704L420.11145,100.415627L419.677643,100.415627C419.643341,100.27903,419.558228,100.210396,419.422333,100.210396L415.492065,100.184998L415.33902,100.236473L415.236755,100.364143L414.522217,100.364143L414.292267,100.4925M414.955994,104.338318L414.955994,104.286835L415.058289,104.056213L415.287537,103.953941L416.410461,103.953941L416.665802,104.056213L416.768066,104.286835L416.768066,104.338318L416.665802,104.595024L416.410461,104.671898L415.287537,104.671898L415.058289,104.595024L414.955994,104.338318zM409.417572,103.646439C409.570618,103.492004,409.731934,103.415131,409.902161,103.415131C410.089539,103.415131,410.259766,103.492004,410.412811,103.646439C410.515106,103.765869,410.565887,103.927856,410.565887,104.133087C410.565887,104.321159,410.515106,104.474907,410.412811,104.595024C410.259766,104.731613,410.089539,104.799568,409.902161,104.799568C409.731934,104.799568,409.570618,104.731613,409.417572,104.595024C409.280975,104.474907,409.213013,104.321159,409.213013,104.133087C409.213013,103.927856,409.280975,103.765869,409.417572,103.646439zM411.510345,103.364334C411.663422,103.210587,411.833649,103.133713,412.021027,103.133713C412.224884,103.133713,412.395111,103.210587,412.531006,103.364334C412.667603,103.483765,412.735565,103.654678,412.735565,103.877068C412.735565,104.082298,412.667603,104.261444,412.531006,104.415192C412.395111,104.534622,412.224884,104.595024,412.021027,104.595024C411.833649,104.595024,411.663422,104.534622,411.510345,104.415192L411.280426,103.877068L411.510345,103.364334zM406.91568,105.415253C406.729004,105.227188,406.634949,105.004799,406.634949,104.748779C406.634949,104.474907,406.729004,104.253204,406.91568,104.082298C407.103058,103.894226,407.324097,103.800194,407.579407,103.800194C407.851929,103.800194,408.072937,103.894226,408.243164,104.082298C408.447693,104.253204,408.549286,104.474907,408.549286,104.748779C408.549286,105.004799,408.447693,105.227188,408.243164,105.415253C408.072937,105.586166,407.851929,105.67128,407.579407,105.67128C407.324097,105.67128,407.103058,105.586166,406.91568,105.415253zM425.752167,102.671776C425.752167,102.894165,425.862671,103.005356,426.083679,103.005356L427.130432,103.005356L427.130432,104.568939L426.56897,105.056274L423.276367,105.056274C423.157623,105.056274,423.063599,105.107758,422.995636,105.21003L418.835449,105.184631L418.835449,105.133148L418.171722,104.056213L417.61026,103.159103L419.549988,103.210587L420.570648,103.54348L420.596741,103.54348L420.596741,103.723312L420.724396,103.825584L420.877472,103.723312L420.877472,103.54348L421.259766,103.54348L421.259766,103.723312L421.387451,103.825584L421.515106,103.723312L421.515106,103.54348L421.923523,103.54348L421.923523,103.723312L422.051178,103.825584L422.153442,103.723312L422.153442,103.54348L422.536438,103.54348L422.536438,103.723312L422.689514,103.825584L422.817169,103.723312L422.817169,103.54348L423.200195,103.54348L423.200195,103.723312L423.327179,103.825584L423.454834,103.723312L423.454834,103.54348L423.86322,103.54348L423.86322,103.723312C423.86322,103.791267,423.905792,103.825584,423.990906,103.825584L424.06778,103.723312L424.06778,103.54348L424.32312,103.54348C424.561279,103.54348,424.680023,103.441208,424.680023,103.235985L424.680023,102.825523L424.935364,102.671776L425.752167,102.671776z"/>
</svg>
