<?xml version="1.0" encoding="UTF-8"?>
<svg xmlns="http://www.w3.org/2000/svg" xmlns:xlink="http://www.w3.org/1999/xlink" width="22.482mm" height="18.977mm" viewBox="-396.901215 94.276100 22.481903 18.977188">
    <path transform="matrix(-1,0,0,1,0,0)" style="stroke:none;fill:#000000;fill-rule:evenodd" d="M384.689728,94.599388C384.474182,94.401711,384.240814,94.293945,383.988922,94.2761C383.737701,94.2761,383.530396,94.357094,383.36911,94.518394L382.560547,95.354416C382.39856,95.516396,382.326477,95.714081,382.34433,95.947449C382.34433,96.180817,382.443176,96.396347,382.640839,96.594025C382.425323,96.594025,382.227661,96.666092,382.047821,96.810234L381.454773,96.459496L380.592682,97.268059L380.619446,97.268059L379.999634,97.915314L380.377167,98.56189L380.268707,98.831642L379.595367,98.642883C379.343445,98.67926,379.12793,98.778107,378.94809,98.939407L374.770081,102.524399L374.419312,103.198425C374.419312,103.468178,374.5271,103.692627,374.743286,103.872459L377.384521,106.487587C377.600037,106.666733,377.834106,106.747726,378.085297,106.729881C378.337219,106.729881,378.552734,106.622116,378.732574,106.406593L382.209808,102.093346C382.389648,101.895668,382.470642,101.653374,382.452789,101.365776C382.434265,101.060333,382.335419,100.817352,382.15625,100.63752L382.102051,100.610756C382.174103,100.610756,382.236572,100.583984,382.290802,100.529762C384.141968,102.147568,385.381592,103.342567,386.011017,104.11544L387.628143,105.705795L387.358368,106.271378L387.277374,106.622116L387.277374,106.675659C387.36731,107.430679,387.439362,107.834961,387.493591,107.889191C387.582825,108.176781,387.744812,108.374458,387.97818,108.482224L388.652222,108.643524C388.616516,108.859734,388.661133,109.038879,388.787445,109.183022C388.94873,109.398544,389.191711,109.50631,389.515015,109.50631C389.532837,109.739685,389.613831,109.937363,389.757294,110.09935C389.937134,110.261337,390.171204,110.323799,390.458771,110.288101C390.584381,110.575699,390.75531,110.764458,390.970825,110.85437L391.671631,110.773376L392.425964,110.395866L394.933319,112.93C395.166718,113.145531,395.445374,113.253288,395.768677,113.253288C396.092651,113.253288,396.370636,113.145531,396.604675,112.93C396.802368,112.695946,396.901215,112.417961,396.901215,112.093987C396.901215,111.770699,396.802368,111.500946,396.604675,111.285423L394.205078,108.886505L394.906555,106.999634C394.942261,106.819794,395.023254,106.666733,395.148865,106.541122L395.310852,106.433365L395.148865,106.002312L394.852325,106.163612L394.421295,106.810875L394.124756,107.64621L393.66626,108.913277L392.911255,109.560539L391.806152,110.207108L391.456116,110.369095L391.132141,110.395866L390.970825,110.207108L391.725159,109.857056L391.806152,109.776062L391.375122,109.50631L391.078583,109.668297L390.539093,109.802826L390.108032,109.74929L390.000275,109.452774C390.359955,109.416397,390.637939,109.308632,390.835602,109.128799L390.889832,109.047806L390.485565,108.77874L390.000275,108.967499L389.73053,109.021034L389.164276,108.913277C389.110718,108.823357,389.101807,108.706673,389.137482,108.563217L390.21582,108.212471L389.973511,107.808197L389.299469,107.996948L389.299469,107.970184L388.840973,108.104713L388.46347,108.131485C388.21225,108.095787,388.041321,107.960571,387.951416,107.727203L387.762665,106.648888L387.97818,106.055847L388.302155,106.379135L388.247925,106.86441L388.355713,107.241928L388.652222,107.377144L389.649536,106.972176C390.189026,106.70311,390.548004,106.477982,390.727844,106.298828L390.782074,106.244606C390.907684,106.082619,390.997589,105.822479,391.051819,105.462814C391.087524,105.121681,391.051819,104.84301,390.943359,104.62748C390.799927,104.357735,390.566559,104.241043,390.242584,104.276741L390.21582,104.330963L390.134827,104.330963L390.000275,104.411957L389.757294,104.168976L390.377777,103.683701L390.646851,103.549171L390.70108,103.549171L391.456116,103.387184L392.183685,103.252655L392.102692,102.76738L391.375122,102.901909L390.512329,103.117432L390.108032,103.279419L389.407257,103.845688L387.762665,102.308868C387.008331,101.69799,385.7948,100.494064,384.123444,98.697113C384.213348,98.552971,384.258667,98.39167,384.258667,98.211838C384.474182,98.337448,384.680786,98.400589,384.878479,98.400589C385.111847,98.400589,385.300598,98.337448,385.444733,98.211838L386.28006,97.375816C386.442047,97.178139,386.51413,96.95369,386.495605,96.702477C386.4599,96.450569,386.343231,96.235046,386.145538,96.055214L384.689728,94.599388z"/>
</svg>
