<?xml version="1.0" encoding="UTF-8"?>
<svg xmlns="http://www.w3.org/2000/svg" xmlns:xlink="http://www.w3.org/1999/xlink" width="22.623mm" height="10.719mm" viewBox="-365.991028 98.405502 22.623260 10.718597">
    <path transform="matrix(-1,0,0,1,0,0)" style="stroke:none;fill:#000000;fill-rule:evenodd" d="M352.72525,101.251259L352.353241,101.118095L351.316101,101.118095L350.917328,101.251259L350.784851,101.623962L350.784851,101.862823L349.987274,101.862823L349.534943,102.022751L349.534943,101.889595L349.482086,101.570427L349.88089,101.570427C349.969421,101.570427,350.040131,101.543655,350.093658,101.490807L350.146515,101.251259L350.093658,101.011711L349.88089,100.958855L346.796936,100.958855L346.796936,99.57579L347.302124,99.123459L347.302124,98.618279L345.759827,98.618279L345.759827,100.958855L344.989014,100.958855L344.803009,101.011711L344.696594,101.251259L344.803009,101.490807L344.989014,101.570427L345.653442,101.570427L345.387787,101.756439L345.334961,102.075607L345.334961,102.394775L344.430969,102.394775L344.430969,103.671455L343.367767,103.671455L343.367767,105.320839L344.297821,106.357964L344.297821,106.783524L344.05896,107.023071L344.696594,107.820656L345.122162,107.581795L345.122162,108.592148L345.25531,108.964859L345.653442,109.1241L352.991577,109.1241C353.132965,109.1241,353.257202,109.071251,353.363586,108.964859C353.452148,108.875626,353.496063,108.752083,353.496063,108.592148L353.496063,107.448631L361.711426,107.448631C361.81781,107.555023,361.932434,107.607872,362.056671,107.607872L364.874969,107.607872L365.167358,107.475403L365.273773,107.182312L365.140594,106.889915L365.299835,106.889915L365.512634,106.810295L365.592255,106.650368L365.512634,106.517891L365.512634,105.640007L365.672546,105.640007L365.858551,105.586472L365.991028,105.34761L365.858551,105.134827L365.672546,105.081291L365.512634,105.081291L365.512634,102.394775L365.672546,102.394775L365.858551,102.288383L365.991028,102.129143L365.858551,101.889595L365.672546,101.783203L365.512634,101.783203L365.512634,100.932091L365.592255,100.746078L365.512634,100.586151L365.299835,100.479759L357.218353,100.479759L357.218353,98.777527L357.085175,98.538658L356.846313,98.405502L356.580017,98.538658C356.527161,98.591515,356.500366,98.671135,356.500366,98.777527L356.500366,100.479759L353.868774,100.479759L353.656006,100.586151L353.602448,100.746078L353.656006,100.932091L353.868774,100.985626L356.048737,100.985626L356.048737,101.650047L355.171539,101.650047L355.011597,101.304794L354.666351,101.144867L354.240814,101.144867C354.081573,101.144867,353.957336,101.198402,353.868774,101.304794L353.708862,101.650047L352.885193,101.862823L352.885193,101.623962C352.885193,101.48188,352.831665,101.357651,352.72525,101.251259zM356.048737,105.852783L356.048737,106.411507L354.958771,106.411507L354.533203,105.852783L356.048737,105.852783zM364.236633,102.341927C364.254486,102.377617,364.299103,102.394775,364.369781,102.394775L364.635437,102.394775L364.635437,105.081291L364.369781,105.081291L364.236633,105.108055L364.236633,102.341927zM350.784851,105.108055L350.784851,105.533615L350.917328,105.879555C351.023712,105.985947,351.15686,106.038795,351.316101,106.038795L351.342896,106.038795L351.07724,106.411507L350.545288,106.411507L349.322174,105.108055L350.784851,105.108055zM351.901611,106.411507L352.167236,106.038795L352.353241,106.038795L352.72525,105.879555C352.831665,105.790329,352.885193,105.675011,352.885193,105.533615L352.885193,105.108055L353.230438,105.108055L354.161194,106.411507L351.901611,106.411507zM357.855988,106.411507L357.855988,105.852783L364.236633,105.852783L364.236633,105.613235L364.369781,105.640007L364.635437,105.640007L364.635437,106.411507L357.855988,106.411507zM364.369781,101.783203L364.236633,101.862823L364.236633,101.650047L357.855988,101.650047L357.855988,100.985626L364.635437,100.985626L364.635437,101.783203L364.369781,101.783203z"/>
</svg>
