<?xml version="1.0" encoding="UTF-8"?>
<svg xmlns="http://www.w3.org/2000/svg" xmlns:xlink="http://www.w3.org/1999/xlink" width="22.211mm" height="20.206mm" viewBox="-334.803375 93.661789 22.211151 20.205818">
    <path transform="matrix(-1,0,0,1,0,0)" style="stroke:none;fill:#000000;fill-rule:evenodd" d="M321.456207,93.661789L321.417755,93.661789C320.587921,93.766121,319.538452,94.549286,318.268616,96.011284L315.70224,99.378693L315.313751,100.005363C315.054291,100.214714,314.639709,100.345123,314.069336,100.397293L312.748016,100.553787L312.592224,100.710281L312.592224,101.885376L312.631348,102.002747C312.656738,102.054916,312.708893,102.080994,312.786469,102.080994C314.419373,101.872337,315.456512,101.649948,315.896484,101.415199L316.324799,100.984154L317.335144,99.614128L319.473236,96.755325C320.354553,95.685257,320.96405,95.110748,321.301086,95.032501L327.132599,96.324966L329.815002,99.731499L329.65921,99.809746L329.348267,100.044487L328.765533,100.161858L327.521118,99.96624L326.704987,99.731499L326.004883,99.339569L325.499695,98.870087L324.877838,98.282539L323.672546,97.852173L323.633423,97.852173L323.516724,97.969543C322.739044,99.32653,321.715668,100.436417,320.445831,101.297829L320.134216,101.53257L320.017548,101.649948L320.095795,101.767319L320.717651,102.590294C320.769806,102.642456,320.821289,102.668541,320.873474,102.668541L320.989471,102.629417L321.417755,102.354858C322.557861,101.597778,323.478302,100.658119,324.177734,99.535873L324.527771,99.96624L324.488647,100.905899C323.710968,101.454323,323.115204,102.289658,322.700623,103.412582L322.700623,103.529953L322.817322,103.647324L323.244934,103.803825C322.467255,104.326164,321.88382,105.096291,321.495331,106.114197L321.495331,106.309814L321.612,106.427185L322.233887,106.54525C321.612,107.066902,321.08075,107.784859,320.640076,108.698441L320.640076,108.854935L320.795227,108.972992L321.962067,109.364235C321.339508,109.938736,320.834351,110.669739,320.445831,111.557236L320.523407,111.71373L320.600952,111.791977L322.894867,112.496895L321.612,112.614273C319.486267,111.778938,317.698242,110.682777,316.246521,109.325111L316.0914,109.285988L312.980713,109.598976L312.942261,109.598976L312.864014,109.559853L312.786469,109.520729L312.669769,109.559853L312.592224,109.717033L312.592224,111.126183L312.669769,111.283371L312.786469,111.322495L312.864014,111.283371L313.175659,111.008812L315.663788,110.774071C317.451843,112.262154,319.318115,113.293106,321.261963,113.867607L321.301086,113.867607L322.661499,113.828484L324.450226,113.436562L326.35495,113.436562L327.210175,113.319183C328.687286,113.162689,329.698334,112.757721,330.242615,112.105659C330.579651,111.687653,330.722412,111.165314,330.670258,110.539322L330.592682,110.264771C332.251678,109.925697,333.003265,109.077324,332.847473,107.71965L332.80835,107.288605C333.378723,107.053856,333.793304,106.740868,334.052765,106.348938C334.389771,105.957703,334.519501,105.474487,334.441254,104.899979C334.415863,104.456573,334.247009,103.999443,333.936066,103.529953C334.584015,102.616379,334.868866,101.649948,334.79129,100.632034C334.661591,99.378693,333.819397,98.452072,332.264038,97.852173L329.775879,97.342873L327.987854,95.149872L327.910278,95.110748L321.456207,93.661789M329.154022,110.539322C329.180115,110.90448,329.050385,111.204437,328.765533,111.439865C328.402435,111.674606,327.845093,111.844147,327.093475,111.948471L326.35495,111.987602L322.583923,110.891441L322.700623,110.813194L323.594299,109.795288L327.054352,110.695824L327.093475,110.774071L329.154022,110.539322zM327.754486,108.07177L327.754486,108.032646L331.331238,107.71965L331.370361,107.837021C331.421844,108.515862,330.618774,108.946915,328.959778,109.129486L327.249298,109.325111L322.817322,108.032646C323.102142,107.615326,323.46524,107.275558,323.905914,107.014732L327.715363,108.032646L327.754486,108.07177zM324.682892,104.508743L325.072083,104.352249L328.803955,105.331032L328.843079,105.370155L330.087494,105.213661C331.201508,105.083244,332.069794,104.860855,332.69165,104.547867L332.964142,104.978912C333.015625,105.317993,332.834412,105.604897,332.41983,105.840332L330.359314,106.348938L327.910278,106.662621L323.555847,105.448402L324.682892,104.508743zM331.875549,100.044487L331.836426,99.927116L331.020294,98.90921L331.292114,98.948334C332.510437,99.287407,333.171448,99.861908,333.275085,100.671158C333.352631,101.454323,333.106903,102.146202,332.53653,102.746788C332.018311,103.346687,331.292114,103.699493,330.359314,103.803825L328.998901,103.921196L324.838715,102.746788L324.838715,102.550484C325.30545,101.976662,325.914276,101.623863,326.665863,101.493446L327.404419,101.415199L327.871155,101.454323L327.987854,101.493446L329.620758,101.846252L329.698334,101.846252L330.942749,101.297829L331.020294,101.258705L331.564606,100.35817L331.836426,100.161858L331.875549,100.044487z"/>
</svg>
