<?xml version="1.0" encoding="UTF-8"?>
<svg xmlns="http://www.w3.org/2000/svg" xmlns:xlink="http://www.w3.org/1999/xlink" width="22.476mm" height="18.950mm" viewBox="-303.954468 94.289474 22.476410 18.950417">
    <path transform="matrix(-1,0,0,1,0,0)" style="stroke:none;fill:#000000;fill-rule:evenodd" d="M291.67981,94.585991C291.500671,94.406158,291.285156,94.30732,291.033936,94.289474C290.782715,94.271629,290.576111,94.352623,290.414825,94.531769L289.58017,95.366409C289.436707,95.52771,289.364655,95.725388,289.364655,95.958763C289.383179,96.192131,289.472412,96.398048,289.634399,96.577881L289.095581,96.792717L288.638458,96.550423L288.449677,96.443352L287.830566,97.062469L287.803802,97.062469L287.615051,97.22377L287.023376,97.923882L287.130463,98.111954L287.426971,98.543007L287.319214,98.838837L286.61911,98.650078L285.999969,98.892372L281.800659,102.526787C281.585846,102.705933,281.478058,102.921455,281.478058,103.172676C281.478058,103.423889,281.567993,103.657265,281.747131,103.872101L284.439148,106.429573C284.618286,106.645103,284.842743,106.743942,285.111786,106.72541L285.75769,106.376038L289.257568,102.095734C289.418854,101.880211,289.499847,101.628998,289.499847,101.342087C289.481323,101.055176,289.364655,100.821808,289.149811,100.641968L289.149811,100.615204L289.33786,100.534897L292.056641,103.064911L291.384003,104.464455C291.258392,104.715668,291.159546,105.146721,291.087463,105.75692L291.545288,105.810455L291.814362,104.626442L292.406708,103.41497L292.702545,103.684036C292.541229,104.186462,292.595459,104.527603,292.864532,104.706749L293.806244,104.760971L294.559906,104.437683L294.6409,104.356689L295.206482,103.360748L295.502289,102.419022C295.537994,102.329109,295.502289,102.23027,295.394531,102.122505L295.0177,102.015427L294.533112,102.06897L294.290833,101.853439L294.990936,101.476616L296.067871,101.611145C296.300568,101.701065,296.435089,101.862366,296.471466,102.095734L296.444702,102.526787L296.309479,102.957153L296.336945,102.930382L296.094666,103.630493L296.551788,103.872101L296.901855,102.769081L297.198364,102.822617C297.323975,102.894691,297.35965,103.073837,297.306122,103.360748L297.278656,103.657265L297.117371,104.141853L297.35965,104.572212L297.440643,104.491219L297.790039,103.630493L298.086548,103.76503C298.157928,103.854256,298.16684,104.007324,298.113312,104.22216L297.97879,104.733513L297.844238,105.056801L298.113312,105.460396L298.194305,105.40686L298.516907,104.626442L298.732422,104.814507L298.705658,105.083572L298.490143,105.460396L297.897797,106.590874L297.251892,107.344528L295.152252,108.071411C294.883179,108.161324,294.667664,108.313705,294.506348,108.529228L294.317596,108.798294L294.775421,108.987045L294.883179,108.798294C294.990936,108.690529,295.143311,108.601303,295.341003,108.529228L295.744598,108.394699L295.825592,109.22934C295.914825,109.498405,296.076813,109.686478,296.309479,109.794235L296.956055,109.956223C296.938232,110.188911,296.99176,110.368744,297.117371,110.494354C297.278656,110.691345,297.520966,110.790184,297.844238,110.790184C297.862091,111.041397,297.943085,111.239075,298.086548,111.382538C298.265686,111.561684,298.490143,111.642677,298.759216,111.624832L299.298004,112.136185L299.997437,112.109421L300.751099,111.705826L301.962555,112.889839C302.195923,113.123207,302.464996,113.239891,302.770447,113.239891C303.093048,113.239891,303.371033,113.123207,303.604401,112.889839C303.837769,112.656464,303.954468,112.378479,303.954468,112.055191C303.954468,111.73259,303.837769,111.47245,303.604401,111.274773L302.528137,110.19783L303.22757,108.286934C303.263947,108.089256,303.344269,107.945801,303.469879,107.856567L303.631866,107.74881L303.469879,107.264221L303.174042,107.479744C302.994202,107.641045,302.850739,107.865494,302.742981,108.152405L301.989319,110.19783C301.881561,110.485428,301.262451,110.906868,300.131989,111.463531L299.781921,111.651596L299.45932,111.678368L299.298004,111.517067C299.692688,111.391457,299.943909,111.274773,300.051666,111.167007L300.131989,111.0867L299.701599,110.816956L299.432556,110.952171L298.866974,111.0867L298.436615,111.032478L298.328827,110.790184C298.723511,110.718796,299.001495,110.602112,299.162811,110.440125L299.21701,110.333054L298.813416,110.090759L298.328827,110.25206L298.032318,110.305595L297.494202,110.19783L297.440643,109.848465C297.960938,109.758545,298.319916,109.641861,298.516907,109.498405L298.274628,109.067352L297.628723,109.309647L297.628723,109.282883L297.170898,109.417412L296.794067,109.471634C296.542877,109.417412,296.37265,109.273956,296.282715,109.040588L296.229187,108.20594L296.551788,108.098862C296.570313,108.313705,296.614929,108.466766,296.687012,108.556C296.758392,108.645912,296.848297,108.68161,296.956055,108.663757L297.97879,108.233398C298.499054,108.017868,298.858032,107.802345,299.055725,107.586823L299.109253,107.560051L299.351563,106.779633C299.40509,106.438499,299.378326,106.151588,299.270569,105.918221C299.199188,105.810455,299.0914,105.720535,298.947968,105.649155L299.109253,105.325867C299.21701,105.146721,299.252716,104.975807,299.21701,104.814507L300.508789,104.518677L300.428497,104.034088L298.974731,104.356689L298.624664,104.114395C298.66037,103.809639,298.5979,103.576271,298.436615,103.41497C298.29245,103.271515,298.095459,103.181595,297.844238,103.145905C297.808563,102.840462,297.700806,102.607094,297.520966,102.445793L296.956055,102.284492L296.821533,101.637917C296.713776,101.405235,296.516083,101.234322,296.229187,101.126556L294.964172,100.992027L294.883179,100.992027L293.914001,101.503387L291.168457,98.704308L291.303009,98.219719C291.482819,98.345322,291.688751,98.407784,291.922119,98.407784C292.155487,98.407784,292.343567,98.327477,292.487701,98.165489L293.321655,97.331535C293.483643,97.169548,293.555023,96.963631,293.53717,96.71241C293.501495,96.461197,293.384796,96.245674,293.187134,96.066521L291.67981,94.585991z"/>
</svg>
