<?xml version="1.0" encoding="UTF-8"?>
<svg xmlns="http://www.w3.org/2000/svg" xmlns:xlink="http://www.w3.org/1999/xlink" width="15.579mm" height="25.660mm" viewBox="-488.334991 57.638382 15.578613 25.660416">
    <path transform="matrix(-1,0,0,1,0,0)" style="stroke:none;fill:#000000;fill-rule:evenodd" d="M479.184082,61.987541L476.786987,66.227829L474.063782,71.120865C473.192322,72.933174,472.756378,74.564346,472.756378,76.013908C472.756378,78.043488,473.518951,79.746918,475.044098,81.124222C476.641998,82.574257,478.493774,83.298798,480.600342,83.298798C482.779205,83.298798,484.630981,82.574257,486.156128,81.124222C487.608551,79.746918,488.334991,78.043488,488.334991,76.013908C488.334991,74.564346,487.899017,72.897049,487.027588,71.012474L484.304352,66.119431L481.907288,61.987541C481.253571,60.46524,480.926971,59.160683,480.926971,58.072918L480.600342,57.638382L480.382141,57.74678L480.273254,58.072918C480.273254,59.160683,479.910034,60.46524,479.184082,61.987541zM481.907288,67.206718L482.343262,67.859001L484.413239,71.120865C485.139221,72.280899,485.502441,73.332054,485.502441,74.274338C485.502441,75.216629,485.175812,76.050041,484.522095,76.775063C483.868408,77.500076,482.996948,78.007355,481.907288,78.297363L481.907288,67.206718z"/>
</svg>
