<?xml version="1.0" encoding="UTF-8"?>
<svg xmlns="http://www.w3.org/2000/svg" xmlns:xlink="http://www.w3.org/1999/xlink" width="22.491mm" height="11.006mm" viewBox="-272.980988 98.261284 22.491486 11.006477">
    <path transform="matrix(-1,0,0,1,0,0)" style="stroke:none;fill:#000000;fill-rule:evenodd" d="M261.680328,98.731461C261.624725,98.565353,261.50531,98.43631,261.322052,98.344337L260.853241,98.261284L255.230362,99.976563L255.092407,100.032158L254.789017,99.699951C254.495255,99.49678,254.145874,99.395882,253.742279,99.395882C253.319473,99.395882,252.814285,99.506386,252.226059,99.727402L251.206085,100.225723C250.912323,100.410355,250.709839,100.742569,250.600006,101.222351L250.489502,102.135246L250.600006,103.989174L250.875244,105.705139L251.095581,106.812279C251.169708,107.107422,251.306992,107.338051,251.509476,107.503464C251.784714,107.780769,252.180069,107.918732,252.694855,107.918732L253.93515,107.725166C254.504852,107.559067,254.91806,107.328438,255.175461,107.033295C255.377258,106.848656,255.506302,106.599495,255.561203,106.286507C255.653183,105.898697,255.699173,105.345467,255.699173,104.626137L257.049286,104.017311C256.737,104.92128,256.553711,105.788185,256.498108,106.618027L258.124176,106.618027L258.23468,105.400383L258.868896,103.131187L259.805817,102.716614L261.624725,108.583153L261.845764,109.081467C261.882141,109.246887,261.909576,109.302483,261.928131,109.246887L263.995514,108.36145L264.408722,107.918732L264.436157,107.338051L263.223328,103.491539L263.74704,103.491539C263.968048,104.321381,264.243286,105.004333,264.574127,105.539032C265.180908,106.534973,265.860413,107.033295,266.614075,107.033295L266.641541,107.033295C267.523529,107.033295,268.240112,106.516441,268.79129,105.483437L269.122131,104.653595C269.618378,104.450424,270.013062,104.063301,270.307526,103.491539L271.492889,103.491539C271.584198,103.491539,271.648712,103.463402,271.685791,103.408493L271.823059,103.131187L271.823059,102.965088L272.126434,102.965088L272.236938,102.993225L272.677612,102.993225L272.926086,102.854576L272.980988,102.577965L272.980988,99.229774L272.926086,98.953163L272.677612,98.787056L272.236938,98.787056C272.163513,98.787056,272.098969,98.823433,272.044067,98.89756L271.933563,99.091125L271.685791,99.091125L271.492889,98.980614L261.680328,98.731461zM252.529434,102.356949L253.108063,102.301346L253.714142,102.301346L253.769745,104.044769L253.769745,105.705139L253.35585,105.705139L252.859589,105.677681L252.666718,104.017311L252.529434,102.356949zM264.794464,103.491539L266.310699,103.491539L267.027283,104.348839C267.321045,104.570541,267.634033,104.708504,267.964203,104.764099C267.634033,105.464905,267.183777,105.825256,266.614075,105.843102C266.209778,105.843102,265.832977,105.576096,265.483612,105.040718C265.226898,104.635063,264.996948,104.11821,264.794464,103.491539z"/>
</svg>
