<?xml version="1.0" encoding="UTF-8"?>
<svg xmlns="http://www.w3.org/2000/svg" xmlns:xlink="http://www.w3.org/1999/xlink" width="22.449mm" height="7.003mm" viewBox="-241.978729 100.263000 22.448929 7.002502">
    <path transform="matrix(-1,0,0,1,0,0)" style="stroke:none;fill:#000000;fill-rule:evenodd" d="M226.033295,100.420181L225.92897,100.682381L225.92897,101.285713C225.648926,101.285713,225.395645,101.399658,225.16777,101.626846C224.975571,101.906204,224.86232,102.212334,224.827316,102.544548L222.755127,102.544548L222.597931,102.623482L222.466843,102.859596L220.578583,102.859596L220.552505,102.335197L220.447495,102.125168C220.429642,102.072311,220.386398,102.046234,220.316391,102.046234L220.106354,102.125168L220.054199,102.335197L219.949173,105.298325L219.581955,105.980591L219.5298,106.189941L219.608032,106.347122L219.818069,106.426056L219.97525,106.347122L221.785263,104.22345L224.932343,104.22345C225.00235,104.22345,225.063431,104.196678,225.115601,104.144508L225.16777,103.934479L225.036667,103.698364L225.220612,103.698364C225.447815,103.908394,225.692841,104.013412,225.955048,104.013412L226.007217,104.013412C226.199402,104.275612,226.278336,104.476723,226.243332,104.616745L225.613922,105.639458C225.299545,106.25103,225.2117,106.679337,225.351715,106.92437C225.508896,107.169411,225.710007,107.282669,225.955048,107.265503L226.348343,107.134407L227.213882,105.193306L229.941574,105.115059L229.941574,105.613373L230.045914,105.927742L230.255936,106.006676L231.331512,106.006676L231.540863,105.927742L231.645874,105.613373L231.645874,105.01004L232.144196,105.01004L232.144196,105.508362L232.249207,105.796638L232.485321,105.980591L235.344116,105.980591L235.579544,105.796638L235.68457,105.508362L235.68457,105.01004L237.651749,105.01004L237.651749,105.770561L237.730682,106.058838L237.96611,106.189941L240.038315,106.189941L240.274429,106.058838L240.37944,105.770561L240.37944,104.013412C240.37944,103.856232,240.309433,103.733368,240.169403,103.646194L240.195496,103.567261L240.195496,102.701729L241.664352,102.701729L241.900467,102.570625L241.978729,102.335197L241.978729,100.971352L241.900467,100.682381L241.664352,100.578049L240.169403,100.578049L240.038315,100.341934L239.828278,100.263L226.269409,100.263L226.033295,100.420181M229.2854,100.997437L229.495422,100.866333L238.77948,100.866333L239.015594,100.997437L239.120605,101.285713L239.120605,102.256264L239.015594,102.492378L238.77948,102.623482L238.700546,102.623482L238.700546,101.547913L238.59552,101.259636C238.543365,101.137459,238.464432,101.075684,238.360092,101.075684L238.123978,101.075684L237.887863,101.259636L237.835007,101.547913L237.835007,102.623482L237.101273,102.623482L237.101273,101.547913L236.996246,101.259636L236.760132,101.075684L236.524017,101.075684L236.26181,101.259636L236.182877,101.547913L236.182877,102.623482L235.47522,102.623482L235.47522,101.547913L235.370209,101.259636L235.160172,101.075684L234.897964,101.075684L234.687927,101.259636L234.583603,101.547913L234.583603,102.623482L233.875259,102.623482L233.875259,101.547913L233.770233,101.259636L233.534119,101.075684L233.298004,101.075684L233.06189,101.259636L232.95755,101.547913L232.95755,102.623482L232.249207,102.623482L232.249207,101.547913L232.170273,101.259636C232.118103,101.137459,232.039169,101.075684,231.934158,101.075684L231.671951,101.075684L231.462616,101.259636L231.35759,101.547913L231.35759,102.623482L230.649246,102.623482L230.649246,101.547913L230.597076,101.259636L230.308105,101.075684L230.098755,101.075684L229.836563,101.259636L229.731537,101.547913L229.731537,102.623482L229.495422,102.623482C229.408249,102.623482,229.338242,102.579552,229.2854,102.492378L229.154297,102.256264L229.154297,101.285713L229.2854,100.997437z"/>
</svg>
