<?xml version="1.0" encoding="UTF-8"?>
<svg xmlns="http://www.w3.org/2000/svg" xmlns:xlink="http://www.w3.org/1999/xlink" width="22.043mm" height="6.501mm" viewBox="-210.794724 100.514000 22.043167 6.501442">
    <path transform="matrix(-1,0,0,1,0,0)" style="stroke:none;fill:#000000;fill-rule:evenodd" d="M197.235168,103.406425L197.745148,103.406425L198.612061,105.070229C199.138519,105.838295,199.759003,106.486244,200.472168,107.015442L200.676025,107.015442L200.77829,106.963966L201.492126,105.838295L201.568314,105.786812L201.492126,105.607666L200.166718,104.302162C199.809799,103.790115,199.520828,103.235519,199.29982,102.638367L200.701416,102.510696C200.956757,102.647285,201.168839,102.71524,201.339066,102.71524L201.822968,102.612968L202.43454,102.356949L204.932297,102.356949L205.110764,102.305466L205.162231,102.12632L205.544556,102.12632L205.544556,102.100922L206.767685,102.100922L206.895355,102.356949L207.099213,102.356949L207.226196,102.229279L207.863846,102.177795L207.863846,102.100922L210.616257,102.100922L210.769318,102.075531L210.794724,101.921776L210.769318,101.794106L210.616257,101.717232L210.513977,101.717232L210.513977,100.77002L210.412399,100.565475L210.259338,100.514L210.080872,100.514C209.995758,100.514,209.76651,100.914848,209.393112,101.717232L207.863846,101.717232L207.863846,101.665756L207.685394,101.61496C207.549484,101.563484,207.464371,101.503769,207.430054,101.435127L207.30307,101.153709L207.150009,100.949165L206.895355,100.949165L206.793091,100.923775L205.059967,100.923775L205.009171,100.77002L203.989883,100.718544L202.511414,100.667747L201.950638,100.77002L201.874451,100.565475L201.72139,100.514L200.574432,100.514L200.421371,100.565475L200.345184,100.77002L200.345184,100.820816L194.661224,100.795418L193.921982,101.61496L192.494995,101.435127L191.908813,101.461212L191.322647,101.538086L188.875671,101.8703C188.756927,101.956093,188.72261,102.11808,188.774094,102.356949L189.130325,104.32756C189.130325,104.635056,189.232605,104.762726,189.436462,104.711937L191.271851,104.020744L193.921982,102.766716L194.2789,102.766716L194.304306,102.996658C194.321457,103.150406,194.313232,103.244446,194.2789,103.278076L193.488876,104.532791L193.539673,104.711937L193.794998,105.070229L194.304306,105.147102L194.661224,105.070229L194.712021,104.916481L194.712021,104.762726L195.578918,103.381035L195.858963,103.381035L195.858963,102.945862L196.215881,103.329552L196.419739,103.406425L196.547409,103.329552L196.318161,103.073532L196.368942,102.740631L197.235168,102.740631L197.235168,103.406425M206.64003,101.409737L206.64003,101.717232L205.544556,101.717232L205.544556,101.538086L205.110764,101.538086L205.110764,101.409737L206.64003,101.409737z"/>
</svg>
