<?xml version="1.0" encoding="UTF-8"?>
<svg xmlns="http://www.w3.org/2000/svg" xmlns:xlink="http://www.w3.org/1999/xlink" width="22.483mm" height="22.316mm" viewBox="-522.536926 123.224998 22.483276 22.315773">
    <path transform="matrix(-1,0,0,1,0,0)" style="stroke:none;fill:#000000;fill-rule:evenodd" d="M511.189575,132.899597L511.048859,133.146698L507.982788,136.113266L507.66568,136.324661L507.348541,136.466064L506.150116,136.81955L505.833008,136.960266L505.5159,137.207367L500.124359,142.609909L500.05365,142.821991L500.230042,142.963394L500.864258,143.174805L501.181396,143.174805L501.498505,142.998398L502.87262,141.585815L503.154724,141.515121L503.436829,141.585815L503.471863,141.6922L501.604187,143.52829L501.533508,143.739685L501.604187,143.987473L501.815613,144.093185L502.062012,143.987473L503.930359,142.150711L504.000366,142.186401L504.106079,142.433502L504.000366,142.680603L502.591217,144.128189L502.449829,144.37529L502.449829,144.728775L502.626221,145.364365L502.802612,145.540771L503.014038,145.470062L508.405579,140.032532L508.617004,139.749725L508.793396,139.431931L509.110504,138.267136L509.286896,137.913651L509.498322,137.631546L512.634399,134.66568C512.75177,134.524277,512.916504,134.524277,513.12793,134.66568L513.585754,135.124176C513.633118,135.218216,513.714783,135.265579,513.832825,135.265579C513.950195,135.265579,514.032593,135.218216,514.079224,135.124176L515.559082,133.67659C515.723816,133.464493,515.735474,133.312119,515.594788,133.217407C515.500732,133.052673,515.535767,132.899597,515.7005,132.758896L521.937683,126.473663C522.125732,126.332268,522.219788,126.120171,522.219788,125.838066L522.536926,123.542793C522.536926,123.330704,522.419556,123.224998,522.184753,123.224998L519.858643,123.50779C519.647217,123.50779,519.435791,123.601822,519.224426,123.789894L512.986511,130.075134L512.528687,130.110138L512.070862,130.180832L510.590363,131.628418C510.449646,131.817169,510.449646,131.993576,510.590363,132.15831L511.048859,132.652512L511.189575,132.899597"/>
</svg>
