<?xml version="1.0" encoding="UTF-8"?>
<svg xmlns="http://www.w3.org/2000/svg" xmlns:xlink="http://www.w3.org/1999/xlink" width="22.283mm" height="6.956mm" viewBox="-491.365509 130.904999 22.282806 6.956009">
    <path transform="matrix(-1,0,0,1,0,0)" style="stroke:none;fill:#000000;fill-rule:evenodd" d="M478.635803,131.570786L478.512939,131.768478L477.503265,131.768478L477.281555,131.841919L477.20813,132.039597L477.20813,132.187164L477.134003,132.187164C477.002899,132.187164,476.904053,132.236588,476.838837,132.335434L476.420166,132.80423L476.32132,132.80423L476.124329,132.902374L476.026184,133.149475L476.026184,133.198212L475.730347,133.198212L474.942352,132.384842L469.082703,132.384842L469.304382,132.655975L469.895386,133.494736C469.960571,133.72467,469.968811,134.160522,469.920074,134.801605L469.920074,134.973892L470.042938,134.973892L470.855621,134.776901L470.978485,134.727478C471.044373,135.352097,471.266083,135.713821,471.643585,135.812653L471.840576,135.812653C472.069855,135.812653,472.250366,135.738525,472.382141,135.590958L472.751434,135.097443C473.014313,134.66983,473.457031,134.209946,474.080963,133.716431C474.16333,133.667007,474.310883,133.708191,474.524353,133.839981C474.737823,134.004028,474.901855,134.069916,475.01651,134.036972C475.213501,134.020508,475.361053,133.962845,475.4599,133.8647L476.001465,133.8647L476.370728,134.185242L476.370728,134.628647C476.469574,134.743958,476.518311,134.883972,476.518311,135.048019L476.469574,135.196289C476.501831,135.245697,476.411926,135.450928,476.198456,135.812653L475.902618,136.306168L475.607483,136.453735C475.410492,136.552582,475.320557,136.700836,475.336365,136.897827L475.607483,136.996674L475.4599,137.391342C475.410492,137.637756,475.4599,137.785324,475.607483,137.834747C475.787994,137.900635,475.960266,137.842987,476.124329,137.66246L476.32132,137.366638L476.567719,137.440079C476.74826,137.391342,476.838837,137.251328,476.838837,137.021378L476.814148,136.724869L477.232849,135.88678L477.774384,134.973892L478.094238,134.973892L478.438812,135.048019C478.537659,135.048019,478.693451,134.842789,478.906921,134.431641L479.202087,134.431641L479.817749,135.368561L480.014771,135.541534L480.261169,135.615662L480.507568,135.615662L480.507568,136.306168L480.531616,136.404327L480.630432,136.453735L480.728607,136.404327L480.778015,136.306168L480.778015,136.009644L480.999725,136.009644L480.999725,136.306168L481.024414,136.404327L481.147278,136.453735L481.221436,136.404327L481.294861,136.306168L481.294861,136.009644L481.491852,136.009644L481.491852,136.306168L481.516571,136.404327L481.640106,136.453735L481.738281,136.404327L481.76297,136.306168L481.76297,136.009644L482.009399,136.009644L482.009399,136.306168L482.034088,136.404327L482.156952,136.453735L482.255127,136.404327L482.279816,136.306168L482.279816,135.615662L482.501526,135.615662L482.723236,135.51683L482.821381,135.319138L482.821381,135.048019L482.920227,135.048019L482.920227,135.492111L482.994354,135.664398L483.240082,135.763229L484.693146,135.763229C484.774841,135.763229,484.840729,135.730286,484.890167,135.664398L484.988312,135.492111L484.988312,134.826324L485.653412,134.826324L485.850403,134.727478L485.948547,134.555191L485.948547,134.086395L485.923859,133.962845L485.948547,133.962845C486.063873,134.258682,486.244385,134.514008,486.490112,134.727478C486.76947,135.023315,487.105804,135.237457,487.499786,135.368561C488.041351,135.549774,488.52594,135.500351,488.952881,135.220993C489.165649,135.072739,489.330383,134.743958,489.445007,134.23465L489.666718,134.23465L489.913116,134.431641C490.077179,134.431641,490.158844,134.349289,490.158844,134.185242L490.158844,133.987564L491.267365,133.987564L491.365509,133.839981L491.267365,133.716431L490.158844,133.716431L490.158844,133.174194L491.267365,133.174194L491.365509,133.050644L491.267365,132.927094L490.158844,132.927094L490.158844,132.409561L491.267365,132.409561L491.365509,132.310715L491.267365,132.187164L490.158844,132.187164L490.158844,132.039597C490.158844,131.891342,490.077179,131.8172,489.913116,131.8172C489.748383,131.8172,489.666718,131.891342,489.666718,132.039597L489.666718,132.08902L488.681732,132.08902C488.484741,132.08902,488.386597,132.178925,488.386597,132.360138L488.386597,132.458969L488.312469,132.458969C488.213623,132.458969,488.140198,132.507706,488.090759,132.606552L487.302795,132.458969L486.514832,132.310715L485.726868,132.236588L485.628693,132.187164L485.185303,132.187164L485.185303,131.965469L485.135864,131.841919L485.03772,131.8172L484.914856,131.841919L484.865448,131.965469L484.865448,132.187164L482.600372,132.187164L482.575653,131.768478L482.501526,131.546082L482.304535,131.496658L482.279816,131.250244L482.452118,131.22554L482.329254,131.003845L482.058136,130.904999L481.861145,131.028549L481.738281,131.274963L481.959961,131.274963L481.959961,131.496658L481.76297,131.595505L481.713562,131.8172L481.738281,132.187164L480.950287,132.187164L480.900879,131.8172L480.778015,131.595505L480.556305,131.546082L480.531616,131.324387L480.507568,131.299667L480.728607,131.274963L480.556305,131.053253L480.334625,131.003845L480.088898,131.151413L480.014771,131.398514L480.211761,131.373795L480.211761,131.398514L480.23645,131.595505L480.064178,131.719055L480.014771,131.916046L480.064178,132.187164L479.79306,132.187164L479.79306,132.039597L479.694885,131.841919L479.522614,131.768478L479.399078,131.768478L479.128632,131.570786L479.153351,131.373795L479.153351,131.324387L479.374359,131.324387L479.276215,131.10199L479.029785,130.979126L478.783386,131.053253L478.685242,131.274963L478.857513,131.299667L478.832794,131.521378L478.635803,131.570786M469.77182,132.730103L469.77182,132.77951L469.723083,132.730103L469.77182,132.730103zM486.219696,132.927094L485.973267,132.507706L487.22937,132.754807L486.219696,132.927094zM470.21524,134.160522L470.855621,134.160522L470.855621,134.45636L470.21524,134.653351L470.21524,134.160522zM474.819519,132.730103L475.312317,133.174194L474.006836,133.174194L473.539398,132.730103L474.819519,132.730103zM481.959961,132.507706C482.058136,132.409561,482.165192,132.360138,482.279816,132.360138L482.575653,132.507706L482.723236,132.80423L482.575653,133.149475C482.493286,133.231155,482.395142,133.272339,482.279816,133.272339L481.959961,133.149475C481.877594,133.050644,481.837097,132.935333,481.837097,132.80423L481.959961,132.507706zM479.251495,133.025925C479.251495,133.157715,479.210297,133.255875,479.128632,133.321762C479.046265,133.420609,478.931641,133.470016,478.783386,133.470016C478.685242,133.470016,478.587067,133.420609,478.48822,133.321762L478.340668,133.025925L478.48822,132.730103L478.783386,132.581833C478.931641,132.581833,479.046265,132.631256,479.128632,132.730103C479.210297,132.77951,479.251495,132.87767,479.251495,133.025925zM480.679871,132.655975L480.999725,132.77951L481.147278,133.124771L480.999725,133.420609C480.933838,133.51944,480.827423,133.568176,480.679871,133.568176C480.564545,133.568176,480.4664,133.51944,480.384033,133.420609C480.285889,133.338242,480.23645,133.239395,480.23645,133.124771C480.23645,132.992981,480.285889,132.87767,480.384033,132.77951L480.679871,132.655975zM472.505005,134.949188L472.160461,135.467407L471.692322,135.51683C471.463074,135.500351,471.323059,135.212753,471.274323,134.653351L472.455597,134.555191L473.71167,133.642303L472.505005,134.949188zM472.357422,134.258682L472.209869,134.258682L472.209869,132.730103L473.145416,132.730103L473.71167,133.272339L472.357422,134.258682zM488.681732,134.23465L489.125153,134.23465C489.026306,134.694534,488.895203,134.965652,488.731171,135.048019C488.057831,135.409744,487.376923,135.245697,486.687103,134.555191L486.269104,133.962845L488.016632,133.913422L488.016632,134.505783C488.016632,134.686295,488.115479,134.776901,488.312469,134.776901C488.52594,134.776901,488.632324,134.686295,488.632324,134.505783L488.632324,134.185242L488.681732,134.23465z"/>
</svg>
