<?xml version="1.0" encoding="UTF-8"?>
<svg xmlns="http://www.w3.org/2000/svg" xmlns:xlink="http://www.w3.org/1999/xlink" width="22.416mm" height="5.447mm" viewBox="-460.360260 131.660004 22.415985 5.447159">
    <path transform="matrix(-1,0,0,1,0,0)" style="stroke:none;fill:#000000;fill-rule:evenodd" d="M446.17746,132.43837L446.077271,132.26265L445.90155,132.21254L445.72583,132.21254L445.55011,132.287354L445.474609,132.463074L445.474609,132.688889L445.298889,132.614075C445.1987,132.614075,445.131409,132.647034,445.09848,132.714294L444.997589,132.915405L444.997589,133.06572L444.897369,133.040329L444.84726,133.040329L444.69693,133.115829L444.596039,133.31694L444.596039,133.341644L444.545929,133.341644L443.767578,133.642975L443.742859,132.638794L443.190308,132.839905L443.064697,133.442551C442.981659,133.86055,442.856049,134.12825,442.688568,134.245621L442.361847,134.321121L441.960327,134.195511L441.508667,134.04451L441.006927,134.019791L438.295715,134.621765C438.479645,134.956711,438.479645,135.375412,438.295715,135.877151L437.944275,136.529907L438.069885,136.831238C438.153625,136.897812,438.262085,136.897812,438.395905,136.831238L440.002747,136.102982L440.479797,137.107162L441.734497,136.429703L442.311737,136.781128L443.291229,136.881332C443.591858,136.814072,443.851318,136.663757,444.068909,136.429703L444.495819,135.827057L444.897369,136.328796L447.131561,134.79747L452.151764,134.79747C452.319244,134.79747,452.402985,134.714417,452.402985,134.546936L459.6073,134.546936L459.6073,135.199692C459.6073,135.366486,459.69928,135.450226,459.883209,135.450226L460.08432,135.450226C460.26828,135.450226,460.36026,135.366486,460.36026,135.199692L460.36026,132.864609C460.36026,132.697815,460.26828,132.614075,460.08432,132.614075L459.883209,132.614075C459.69928,132.614075,459.6073,132.697815,459.6073,132.864609L459.6073,132.965515L457.524109,132.965515L457.524109,133.040329L455.540466,133.040329L455.540466,132.940109C455.540466,132.789795,455.482117,132.714294,455.364746,132.714294C455.264526,132.714294,455.214417,132.789795,455.214417,132.940109L455.214417,133.040329L452.402985,133.040329C452.402985,132.839905,452.319244,132.739685,452.151764,132.739685L450.319824,132.739685C450.236084,132.739685,450.168793,132.772629,450.118713,132.839905L450.018494,133.040329L450.018494,133.693085L449.667053,133.693085L449.667053,132.714294L449.566162,132.513184L449.566162,131.785614L449.541443,131.685394L449.415833,131.660004L449.365723,131.685394L449.290222,131.785614L449.290222,132.513184L449.190033,132.714294L449.190033,132.362869L449.089813,132.161758L448.914093,132.111649L446.42868,132.111649L446.25296,132.161758L446.17746,132.362869L446.17746,132.43837M448.813202,133.567474L448.813202,133.668365L446.554291,133.668365L446.554291,133.567474L448.813202,133.567474zM448.813202,132.463074L448.813202,132.588684L446.554291,132.588684L446.554291,132.463074L448.813202,132.463074zM448.813202,132.965515L448.813202,133.19133L446.554291,133.19133L446.554291,132.965515L448.813202,132.965515zM457.524109,133.467255L457.524109,133.718475L457.448608,133.81868L455.540466,133.81868L455.540466,133.36705L457.448608,133.36705L457.524109,133.467255zM455.214417,133.36705L455.214417,133.81868L452.402985,133.81868L452.402985,133.36705L455.214417,133.36705zM441.784607,136.078262L440.604706,136.705627L440.278687,136.027481L441.634277,135.450226L444.118988,135.375412L444.294708,135.601227C444.194519,135.835281,444.068909,136.036392,443.918579,136.203186C443.734619,136.420776,443.517029,136.563538,443.265839,136.630127L442.236938,136.454407L441.960327,136.278687L441.784607,136.078262z"/>
</svg>
