<?xml version="1.0" encoding="UTF-8"?>
<svg xmlns="http://www.w3.org/2000/svg" xmlns:xlink="http://www.w3.org/1999/xlink" width="19.523mm" height="20.306mm" viewBox="-427.843262 124.227997 19.523224 20.305801">
    <path transform="matrix(-1,0,0,1,0,0)" style="stroke:none;fill:#000000;fill-rule:evenodd" d="M418.655212,140.285522C418.442871,141.65274,417.935303,142.961273,417.133148,144.211136C418.949829,143.574707,420.318268,142.265564,421.239014,140.285522L418.655212,140.285522z"/>
    <path transform="matrix(-1,0,0,1,0,0)" style="stroke:none;fill:#000000;fill-rule:evenodd" d="M421.876038,137.809418C421.946838,137.125809,421.923218,136.535965,421.805267,136.041107L418.938354,136.041107L418.726013,139.436157L421.522156,139.436157L421.876038,137.809418z"/>
    <path transform="matrix(-1,0,0,1,0,0)" style="stroke:none;fill:#000000;fill-rule:evenodd" d="M418.938354,131.832382L418.124054,131.832382C418.525146,133.010849,418.749603,134.142731,418.796783,135.227432L421.663696,135.227432C421.569336,134.591003,421.321289,133.860214,420.920197,133.034439L420.424744,132.292145C420.235992,132.032623,419.987946,131.879562,419.681244,131.832382L418.938354,131.832382z"/>
    <path transform="matrix(-1,0,0,1,0,0)" style="stroke:none;fill:#000000;fill-rule:evenodd" d="M416.920807,142.831818C417.227509,142.218994,417.498535,141.405319,417.734467,140.391388L417.770172,140.320618L417.734467,140.285522L412.460999,140.285522L413.239594,142.831818C413.853027,144.058075,414.549347,144.623718,415.327942,144.529343C415.894165,144.458557,416.425323,143.892914,416.920807,142.831818z"/>
    <path transform="matrix(-1,0,0,1,0,0)" style="stroke:none;fill:#000000;fill-rule:evenodd" d="M412.142181,137.774323L412.212982,139.436157L417.840942,139.436157L418.017578,137.774323L417.982513,136.041107L412.142181,136.041107L412.142181,137.774323z"/>
    <path transform="matrix(-1,0,0,1,0,0)" style="stroke:none;fill:#000000;fill-rule:evenodd" d="M409.098633,140.285522C409.900818,142.218994,411.245636,143.527527,413.133728,144.211136L412.248657,142.37204L411.611633,140.285522L409.098633,140.285522z"/>
    <path transform="matrix(-1,0,0,1,0,0)" style="stroke:none;fill:#000000;fill-rule:evenodd" d="M411.399292,136.041107L408.390808,136.041107C408.225647,136.937057,408.343628,138.068939,408.74472,139.436157L411.505157,139.436157L411.328522,137.774323L411.399292,136.041107z"/>
    <path transform="matrix(-1,0,0,1,0,0)" style="stroke:none;fill:#000000;fill-rule:evenodd" d="M410.549927,131.832382C410.125244,131.903168,409.806427,132.079803,409.594086,132.36293L408.921356,133.671463L408.461609,135.227432L411.399292,135.227432C411.470093,134.048355,411.693909,132.928574,412.071411,131.867462L412.036316,131.832382L410.549927,131.832382z"/>
    <path transform="matrix(-1,0,0,1,0,0)" style="stroke:none;fill:#000000;fill-rule:evenodd" d="M412.885681,131.832382C412.531799,132.799118,412.307343,133.931,412.212982,135.227432L417.911713,135.227432C417.793762,133.695068,417.557831,132.563171,417.203918,131.832382L412.885681,131.832382z"/>
    <path transform="matrix(-1,0,0,1,0,0)" style="stroke:none;fill:#000000;fill-rule:evenodd" d="M410.868134,126.774284L412.355133,126.774284L411.682434,130.983612L418.548737,130.983612L418.23053,129.250397L420.212402,129.285492C420.165222,130.393784,420.389038,131.289734,420.884521,131.973938C421.309814,132.563171,421.970428,133.034439,422.866974,133.388351C423.197296,134.732574,423.386047,136.324234,423.433228,138.163315L423.539093,138.976379L423.893585,139.436157L424.282593,139.401077L424.60141,139.224426L424.707275,138.623093L424.67218,137.809418C424.67218,136.630341,424.57782,135.215942,424.389069,133.565002L424.848846,133.424042L425.309204,133.317566C426.087799,133.058029,426.713318,132.586761,427.185211,131.903168C427.704254,131.124573,427.916595,130.240723,427.822235,129.250397C427.727844,128.330856,427.326752,127.540771,426.618347,126.88076C425.886963,126.220139,425.026093,125.878334,424.035156,125.854744C423.04361,125.854744,422.20636,126.173561,421.522156,126.809982C421.262604,126.621231,420.920197,126.350204,420.495514,125.9963L419.398132,125.041672L418.690308,124.475426L417.770172,124.227997L412.071411,124.227997C411.670319,124.227997,411.387207,124.310272,411.222046,124.475426C411.033295,124.687767,410.915314,125.123947,410.868134,125.783958L410.868134,126.774284zM425.663116,127.871086C426.111389,128.295166,426.370911,128.814224,426.441711,129.427048C426.512482,130.157837,426.335236,130.771271,425.910553,131.266129C425.48587,131.738007,424.908112,132.032623,424.176727,132.150589L423.645569,130.064072C423.409637,129.332672,423.126495,128.754929,422.796204,128.330856L422.194244,129.214706L421.592926,130.064072C421.545746,129.214706,421.769562,128.519608,422.265045,127.976952C422.736908,127.482094,423.350342,127.246155,424.105927,127.269753C424.67218,127.293343,425.191254,127.493584,425.663116,127.871086z"/>
</svg>
