<?xml version="1.0" encoding="UTF-8"?>
<svg xmlns="http://www.w3.org/2000/svg" xmlns:xlink="http://www.w3.org/1999/xlink" width="20.064mm" height="19.948mm" viewBox="-397.041992 124.409485 20.064484 19.947906">
    <path transform="matrix(-1,0,0,1,0,0)" style="stroke:none;fill:#000000;fill-rule:evenodd" d="M386.672089,129.282104C386.980133,128.646423,387.086823,128.104782,386.992126,127.657211C386.96814,127.327682,386.850098,127.05687,386.636719,126.844757C386.518066,126.703354,386.376007,126.609291,386.209991,126.561943C387.015503,126.067657,387.785645,125.773483,388.519836,125.678795C389.822784,124.972397,390.972321,124.560173,391.967224,124.442757C393.00946,124.324707,393.767609,124.501465,394.241058,124.972397C394.951904,125.678795,394.892548,126.974167,394.06369,128.858521C393.139496,131.189819,391.327118,133.697876,388.626526,136.38269C386.091949,138.90274,383.628082,140.586365,381.234924,141.434158C380.003296,141.881729,379.020386,142.081848,378.285583,142.0345C378.048859,142.011139,377.788147,141.857742,377.504089,141.575562C377.029999,141.10463,376.875946,140.338898,377.041992,139.278992C377.136658,138.290405,377.539429,137.15979,378.250244,135.887772C378.321564,135.181381,378.628998,134.416275,379.174438,133.591827L379.423157,134.016037C379.635895,134.227524,379.9086,134.357559,380.240021,134.404282C380.690125,134.45163,381.234924,134.333572,381.875031,134.051392C382.798584,133.627182,383.722778,132.956131,384.646942,132.037628C385.594482,131.095764,386.269318,130.177261,386.672089,129.282104z"/>
    <path transform="matrix(-1,0,0,1,0,0)" style="stroke:none;fill:#000000;fill-rule:evenodd" d="M394.632477,129.847107C395.295288,128.316895,395.55603,127.009521,395.413971,125.926254L396.870972,128.469666C397.273712,129.552933,396.977661,131.06041,395.982758,132.991486C394.963898,134.945908,393.471558,136.90097,391.505127,138.855408C389.562683,140.786469,387.596283,142.258606,385.605865,143.271164C383.663422,144.283737,382.159088,144.589905,381.092865,144.189667L378.676361,142.740906C379.742584,142.906296,381.010193,142.646835,382.479156,141.963806C383.592712,141.469513,384.753021,140.774475,385.961273,139.879959L389.47937,136.876984L392.500031,133.379715C393.424194,132.155045,394.13501,130.977722,394.632477,129.847107z"/>
    <path transform="matrix(-1,0,0,1,0,0)" style="stroke:none;fill:#000000;fill-rule:evenodd" d="M384.397614,127.33905L386.209991,127.268341C386.518066,127.574509,386.49469,128.175491,386.139282,129.070007C385.736542,129.871094,385.085052,130.718887,384.184845,131.613403C383.332001,132.485199,382.479156,133.120895,381.626312,133.521118L379.884613,133.591827C379.529205,133.238937,379.541199,132.649963,379.920593,131.825516C380.299347,130.954361,380.92749,130.083206,381.80368,129.211411C382.703888,128.340256,383.568726,127.715919,384.397614,127.33905z"/>
</svg>
