<?xml version="1.0" encoding="UTF-8"?>
<svg xmlns="http://www.w3.org/2000/svg" xmlns:xlink="http://www.w3.org/1999/xlink" width="22.316mm" height="13.864mm" viewBox="-367.097992 127.451927 22.315765 13.863609">
    <path transform="matrix(-1,0,0,1,0,0)" style="stroke:none;fill:#000000;fill-rule:evenodd" d="M349.295197,128.780762L349.510742,129.463028C349.176453,129.53511,348.877869,129.773972,348.61499,130.181686C348.328094,130.612045,348.101593,130.851593,347.934113,130.899643L347.397339,131.294998C347.30127,131.438446,347.289581,131.618286,347.360962,131.833817L347.504425,132.839371C346.764496,133.581345,346.107635,134.575241,345.534485,135.820343C345.104828,136.801865,344.853607,138.023636,344.782227,139.484268L344.782227,141.315536L349.367279,141.315536L349.008972,139.124603C348.818176,137.568558,348.913574,136.418869,349.295197,135.67688C349.534058,135.173767,349.832642,134.803116,350.190948,134.563568L351.193756,134.132507L351.946014,134.671326L352.232941,135.281525L352.913147,136.215698C353.414886,136.670776,354.13147,136.886292,355.062225,136.862274C356.161133,136.814224,356.865356,136.371506,357.175598,135.533432L357.354736,134.634949L357.391113,133.988373C357.462524,133.844925,357.66568,133.713135,357.999939,133.593704L358.823608,133.378174L359.46814,132.731598L359.71936,132.300552L360.578705,130.145294L367.097992,130.145294L367.097992,127.954361L360.578705,127.954361L360.578705,127.738831L353.092285,127.738831L352.913147,127.559685L352.626923,127.451927L352.375702,127.595375L352.197235,127.954361L352.197235,128.780762L349.295197,128.780762M353.450592,133.809235L354.883759,133.701462L356.172791,133.809235C356.50705,133.928665,356.67453,134.203903,356.67453,134.634949C356.67453,135.090027,356.483032,135.485382,356.10141,135.820343C355.743103,136.179321,355.289429,136.359146,354.740295,136.359146C354.214539,136.359146,353.773193,136.179321,353.414886,135.820343C353.05661,135.485382,352.877441,135.090027,352.877441,134.634949C352.877441,134.203903,353.068268,133.928665,353.450592,133.809235z"/>
</svg>
