<?xml version="1.0" encoding="UTF-8"?>
<svg xmlns="http://www.w3.org/2000/svg" xmlns:xlink="http://www.w3.org/1999/xlink" width="22.600mm" height="6.677mm" viewBox="-336.169373 131.044998 22.599945 6.677155">
    <path transform="matrix(-1,0,0,1,0,0)" style="stroke:none;fill:#000000;fill-rule:evenodd" d="M322.992828,132.285294L322.362732,132.20636C322.362732,132.012802,322.336639,131.854248,322.283783,131.731384L321.995514,131.519974L319.238983,131.22963L318.976776,131.36142L318.766754,131.044998L318.53064,131.150696L318.425629,131.467133L318.34668,132.865982L318.399536,133.288101L318.582794,133.472748L318.871765,133.262024L319.10788,133.472748L319.974091,133.552368L319.843018,133.842712L313.622284,133.842712L313.569427,136.085815L318.976776,135.689774L319.212891,136.217606L319.974091,136.164749L319.790161,136.640411L316.588165,136.640411L316.588165,137.062546L318.740662,137.062546L319.370087,137.722153L320.761383,137.722153L321.49649,136.560791L322.388794,136.560791L322.992828,137.115387L324.174103,137.563599L324.436279,137.168243L323.780121,135.954025C327.787231,136.129745,330.963135,135.874405,333.308502,135.188705C334.498016,134.854431,335.268158,134.502319,335.618195,134.133041L336.169373,132.443848L332.625549,133.367722L332.625549,133.31488C332.713409,133.31488,332.783417,133.262024,332.835602,133.156326L332.966705,132.83989L332.861664,132.496704L332.651642,132.312073L332.284424,132.285294L331.497131,132.259216C330.779877,132.259216,330.315887,132.391006,330.105835,132.654572L328.924561,132.522781C328.207306,132.50563,327.708282,132.584564,327.428925,132.760269L326.010864,132.734192L325.354675,132.628494L324.593475,132.312073L323.675079,132.20636L322.992828,132.285294M331.969391,133.262024L331.969391,133.525589L330.499817,133.815933L330.499817,133.420578L331.024902,133.288101L331.969391,133.262024zM324.830292,133.94841L324.830292,133.420578L325.145325,133.552368L326.71991,133.815933L326.71991,134.133041L326.693817,134.133041L325.748657,134.027344L324.830292,133.94841zM324.174103,133.895554L323.622925,133.789856L322.546661,133.974487L322.283783,133.472748L322.309875,133.209167L323.176086,133.288101L323.780121,133.182404L324.174103,133.209167L324.174103,133.895554zM329.843628,133.578445L329.843628,133.974487L329.134613,134.106277L328.504517,134.053421L327.901184,134.053421L327.402161,134.106277L327.402161,133.895554C327.525024,133.91272,327.612213,133.851624,327.665039,133.710922C327.770081,133.587372,328.032257,133.517365,328.452332,133.499512L329.843628,133.578445z"/>
</svg>
