<?xml version="1.0" encoding="UTF-8"?>
<svg xmlns="http://www.w3.org/2000/svg" xmlns:xlink="http://www.w3.org/1999/xlink" width="22.467mm" height="15.814mm" viewBox="-460.359650 62.561501 22.466766 15.814323">
    <path transform="matrix(-1,0,0,1,0,0)" style="stroke:none;fill:#000000;fill-rule:evenodd" d="M438.002716,67.001045L438.039063,67.331192L438.222351,67.624969L440.161377,69.01902L440.344666,69.31279L440.381042,69.642944L437.892883,76.871269L437.929932,77.165039L438.185974,77.348305L443.930328,78.375824L444.259796,78.302383L444.443054,78.045677L446.052643,72.284836C446.223541,71.697983,446.430817,71.428917,446.6745,71.477654L449.052826,71.771423C450.711823,71.771423,451.919159,71.208588,452.675568,70.083603C453.163574,69.39859,453.443634,68.5914,453.51709,67.662033C453.51709,67.441704,453.797821,67.331192,454.358582,67.331192L459.04248,67.331192L459.334869,67.221375L459.444702,66.927597L459.444702,65.827324L459.590912,65.533554L459.846924,65.386665L459.956757,65.386665L460.249847,65.27684L460.35965,64.98307L460.35965,62.965096L460.249847,62.671322L459.956757,62.561501L439.832611,62.561501L439.503143,62.671322L439.283508,62.965096L438.002716,67.001045zM448.248383,67.331192C448.101501,68.358711,448.211304,69.165901,448.577148,69.753448L449.199707,70.266869L449.785187,70.230484L449.565552,69.826897C449.418671,69.508408,449.358276,69.165901,449.382294,68.79937C449.407013,68.456863,449.650665,67.967476,450.113983,67.331192L451.578033,67.331192L451.980255,67.40464L452.163513,67.69841C452.114777,68.774666,451.821716,69.594208,451.284943,70.157043C450.821655,70.621727,450.223785,70.853729,449.492126,70.853729L448.248383,70.743904L447.077393,70.450134L446.821381,70.010155L446.784332,69.716385L447.333435,67.734787L447.55307,67.441704L447.882538,67.331192L448.248383,67.331192z"/>
</svg>
