<?xml version="1.0" encoding="UTF-8"?>
<svg xmlns="http://www.w3.org/2000/svg" xmlns:xlink="http://www.w3.org/1999/xlink" width="22.479mm" height="6.853mm" viewBox="-305.037842 130.957001 22.479156 6.852875">
    <path transform="matrix(-1,0,0,1,0,0)" style="stroke:none;fill:#000000;fill-rule:evenodd" d="M291.544861,132.050415L291.492004,132.263885L291.598389,132.450577L291.891479,132.663361L291.785095,132.850052L290.371826,131.73056L290.211914,131.703781L290.051971,131.756638L290.025208,131.917252L290.105499,132.077179L291.171478,132.903595L291.118622,132.903595L290.931915,133.009979L290.824829,133.196671L290.824829,133.22345L289.518646,132.797195L289.305176,132.797195L289.145264,132.930359L288.985321,133.463684L284.105804,133.463684L284.105804,133.22345L284.025513,133.009979L283.838806,132.930359L283.732422,132.930359L283.518951,133.009979L283.465424,133.22345L283.465424,133.463684L282.825714,133.463684L282.612244,133.570068L282.558685,133.756775L282.558685,135.196808L282.612244,135.437042L282.825714,135.489899L283.43866,135.489899L283.43866,136.476913C283.43866,136.796768,283.518951,137.045242,283.678894,137.223022C283.820953,137.41864,284.025513,137.516785,284.292511,137.516785L284.878693,137.516785L286.878815,137.543564L287.598816,137.516785L287.998993,137.543564L288.585175,137.756332L289.1185,137.809875L290.452148,137.809875L291.145386,137.623184C291.340332,137.481094,291.438477,137.294403,291.438477,137.06308L291.438477,136.049988L291.678711,135.89006L291.945007,136.076752L292.611511,136.42337L293.225128,136.583298L293.838074,136.45015L293.891602,136.42337L294.238251,136.369843L294.584869,136.42337L295.118195,136.636841L295.705048,136.743225L296.184814,136.743225L296.79776,136.636841L297.357849,136.42337L297.78479,136.236679L298.264587,136.183136L298.478027,136.183136L298.931061,136.236679L299.277679,136.369843L299.784241,136.556534L300.34433,136.610077L302.104218,136.610077L302.691071,136.502991L303.25116,136.236679L304.477753,135.329956L304.877228,134.82341L305.037842,134.236557L304.797607,133.677155C304.619812,133.534378,304.415283,133.463684,304.18396,133.463684L304.077576,133.463684L303.784485,133.410141L303.624573,133.090286C303.463959,132.930359,303.242249,132.858978,302.957397,132.876816L302.077454,132.903595L301.010803,132.876816L299.837769,132.716888L299.250916,132.690125L298.691498,132.663361L296.184814,132.663361L295.705048,132.636581L294.238251,131.863708L294.051544,131.810181L293.891602,131.943344L292.691803,131.010544L292.505127,130.957001L292.31842,131.063385L291.544861,132.050415M284.292511,136.956696C284.096893,136.956696,283.998749,136.796768,283.998749,136.476913L283.998749,135.489899L289.518646,135.489899L289.732117,135.356735L289.811737,135.516663L289.811737,135.809753L288.611938,135.89006L287.998993,136.023209L288.132141,136.316299L288.985321,136.42337L289.651794,136.636841L290.878387,136.369843L290.878387,137.06308L290.772003,137.196243L290.452148,137.249786L290.105499,137.303329L288.798645,137.223022L288.238525,137.036316L287.438904,136.956696L284.292511,136.956696z"/>
</svg>
