<?xml version="1.0" encoding="UTF-8"?>
<svg xmlns="http://www.w3.org/2000/svg" xmlns:xlink="http://www.w3.org/1999/xlink" width="22.491mm" height="7.365mm" viewBox="-273.972992 130.701553 22.491486 7.364914">
    <path transform="matrix(-1,0,0,1,0,0)" style="stroke:none;fill:#000000;fill-rule:evenodd" d="M260.972839,131.047485L260.812927,131.33989L260.812927,131.765442L260.467682,131.765442L260.228119,131.845062L260.175262,132.08461L260.175262,132.695496L259.510162,132.695496L259.297394,132.775803L259.191681,133.014664L259.191681,133.094284L258.686493,133.094284L258.473724,133.174591L258.394104,133.387375L258.394104,133.972183L258.36734,134.051804L258.048157,134.477356L257.755768,134.742996L257.356964,134.76976L256.958191,134.530212L256.453003,134.264572L255.947815,134.131424L251.481506,134.131424C251.623596,134.556976,251.685364,135.062164,251.667511,135.646957L251.561127,136.391006C251.50827,136.585938,251.526123,136.728012,251.61467,136.816559C251.703217,136.905106,251.818527,136.93187,251.959915,136.896179L256.373383,135.912598L256.772156,135.885818L257.064575,135.992218L257.915009,136.577011C258.28772,136.204987,258.624023,136.010056,258.925354,135.992218L259.244537,136.018982L259.244537,136.922943L259.749695,137.188583L259.749695,137.747299L259.85611,137.960083L260.068878,138.066467L264.774048,138.066467L265.013611,137.960083L265.119995,137.747299L265.119995,136.550934L266.076813,135.966125L267.166779,135.966125L267.166779,136.045746L267.273193,136.311386L267.459198,136.391006L270.331024,136.391006L270.543121,136.311386L270.649506,136.045746L270.649506,135.966125L273.069031,135.966125L273.069031,135.753342L273.972992,135.540573L273.972992,134.477356L273.069031,134.290665L273.069031,134.051804L270.649506,134.051804L270.649506,132.589798L270.543121,132.403107C270.508118,132.332397,270.437408,132.296707,270.331024,132.296707L269.134674,132.296707L269.134674,130.994644L269.028259,130.755081L268.815491,130.701553L268.389923,130.701553L268.203918,130.755081L268.097534,130.994644L268.097534,132.296707L267.459198,132.296707L267.299957,132.35025L267.193573,132.536255L264.455566,132.536255L264.455566,132.08461L264.349182,131.845062L264.136414,131.765442L264.082855,131.765442L264.082855,131.33989L263.950378,131.047485C263.878998,130.958939,263.772614,130.914337,263.631226,130.914337L261.318085,130.914337L260.972839,131.047485M267.166779,133.599472L267.166779,134.051804L264.800812,134.051804L264.800812,133.599472L267.166779,133.599472zM261.158844,131.260269L261.318085,131.206726L263.631226,131.206726L263.73761,131.260269L263.764374,131.33989L263.764374,131.765442L261.13208,131.765442L261.13208,131.33989L261.158844,131.260269z"/>
</svg>
