<?xml version="1.0" encoding="UTF-8"?>
<svg xmlns="http://www.w3.org/2000/svg" xmlns:xlink="http://www.w3.org/1999/xlink" width="22.490mm" height="14.936mm" viewBox="-242.901306 126.916000 22.490112 14.935745">
    <path transform="matrix(-1,0,0,1,0,0)" style="stroke:none;fill:#000000;fill-rule:evenodd" d="M231.361786,128.128845L228.520157,127.886551L224.915939,128.301819L222.143631,129.030075C221.150436,129.260696,220.572495,129.468674,220.411194,129.653305L221.381744,130.312241L222.07431,130.554535L221.762695,130.831833C222.66391,131.571075,223.668777,131.987015,224.777298,132.079681L226.025146,132.113998L227.133652,132.287659L227.792587,132.807251L228.069885,133.257523L228.623795,133.326843C229.01709,133.41951,229.317047,133.639145,229.525024,133.985092C229.687012,134.239731,229.501678,134.678329,228.970428,135.302261L227.341629,137.277679L226.198105,139.148773C225.944153,139.726013,225.805496,140.338272,225.782166,140.985535C225.759506,141.493454,226.059464,141.782425,226.68338,141.851746L227.653931,141.782425L228.589478,141.678787C229.305374,141.5168,229.802322,141.274506,230.07962,140.950531C230.333588,140.696564,230.437912,140.280609,230.391235,139.703369L230.287598,138.629166C230.310242,138.167236,230.391235,137.878265,230.529892,137.762955L230.772873,137.727951L232.263016,138.213226C233.371521,138.421204,234.08812,138.178223,234.411407,137.485657C234.688705,137.000381,235.035324,136.584427,235.450592,136.237808L236.282486,135.683197L237.079376,135.787537L237.668991,136.099152L238.32724,135.475235L238.846832,134.92131L240.787231,133.846436C242.104416,133.037872,242.80864,132.47229,242.901306,132.149002C242.76265,131.825027,241.965759,131.328766,240.509933,130.658859L238.361557,129.757629L237.806946,129.376694L236.351822,128.683441L234.861664,128.406143L234.237747,128.44046L233.891129,128.128845L233.024902,127.470596C232.655624,127.216637,232.204666,127.031311,231.673416,126.916L230.668549,127.054649C230.599213,127.193298,230.795517,127.435593,231.257462,127.782219L231.569763,128.094528L231.361786,128.128845M231.153809,137.208359L231.53476,136.931061C232.043365,137.185013,232.40097,137.277679,232.608948,137.208359L233.163559,136.342133L233.510178,135.510239L233.995453,135.475235C234.29541,135.452576,234.480728,135.510239,234.550049,135.64888C234.619385,135.879517,234.538391,136.261139,234.307068,136.792404C234.076447,137.416321,233.718155,137.739609,233.23288,137.762955L231.673416,137.554977L231.153809,137.208359z"/>
</svg>
