<?xml version="1.0" encoding="UTF-8"?>
<svg xmlns="http://www.w3.org/2000/svg" xmlns:xlink="http://www.w3.org/1999/xlink" width="22.843mm" height="4.910mm" viewBox="-212.007004 131.927811 22.842911 4.910400">
    <path transform="matrix(-1,0,0,1,0,0)" style="stroke:none;fill:#000000;fill-rule:evenodd" d="M198.606018,132.411026L198.504425,132.309433L198.352051,132.309433L198.275864,132.385635L198.225067,132.411026L198.225067,132.614883L197.920319,132.614883L197.920319,132.003998L197.894913,131.927811L197.540054,131.927811L197.514664,132.003998L197.514664,132.614883L196.524887,132.614883L196.423309,132.691071L196.397903,132.716461L196.397903,133.021912L195.889984,133.021912L195.73761,133.047302L195.712204,133.199677L195.712204,133.352753L190.610992,133.352753L190.484009,133.327347L190.382431,133.174286L190.230042,132.868851L190.153854,132.741867L190.00148,132.741867L189.646622,132.843445L189.570435,132.919632L189.494232,133.072693L189.570435,134.242981L189.494232,134.650009L189.164093,136.074951L189.164093,136.278809L189.265671,136.354996L190.103058,136.838211L190.230042,136.838211L190.331635,136.762024L191.067444,135.490143C191.219818,135.235504,191.431213,135.082443,191.702347,135.031647L192.361969,135.184708L194.519272,136.304199L194.671646,136.304199L194.773224,136.228012L195.788391,135.184708L196.397903,135.184708L196.499496,136.125748L196.676575,136.125748C196.592148,135.70224,196.710907,135.328857,197.032135,135.006256L197.590851,135.006256L197.767929,134.95546L197.920319,134.828476L198.047287,134.675415L198.986267,134.675415L199.037064,134.777679L199.138641,134.828476L200.407776,134.828476L200.712524,135.082443L201.093475,135.260895L204.342133,135.260895L204.469116,135.184708L204.545303,135.031647L204.545303,134.03981L204.443726,133.861359L204.595413,133.861359L204.6716,133.810562L205.255722,134.624619L205.408096,134.726196L205.611267,134.803085L207.260651,134.803085L207.387634,134.726196L207.387634,134.624619L206.753403,133.759766L206.601028,133.632111L206.601028,133.327347L211.88002,133.327347C211.964447,133.327347,212.007004,133.30127,212.007004,133.250473L212.007004,132.716461L211.88002,132.614883L206.601028,132.614883L206.601028,132.436417L206.499451,132.385635L204.900162,132.385635L204.798584,132.436417L204.773178,132.512604L204.773178,132.614883L202.03244,132.614883L202.03244,132.411026L201.956253,132.385635L201.930862,132.309433L201.753082,132.309433L201.651505,132.385635L201.651505,132.614883L198.606018,132.614883L198.606018,132.411026M204.773178,133.327347L204.773178,133.581314L204.6716,133.581314L204.595413,133.555908L202.03244,133.555908L202.03244,133.327347L204.773178,133.327347zM199.138641,134.242981L199.062454,134.319183L198.986267,134.396057L198.275864,134.396057L198.580612,133.937546L198.631409,133.861359L201.017288,133.861359L200.712524,134.03981L200.407776,134.242981L199.138641,134.242981zM195.585236,134.242981L195.661423,134.268387L195.636017,134.396057L194.468475,135.820984L194.21521,135.693314L194.012024,135.464752L194.417679,134.497635L194.519272,134.369965L194.62085,134.268387L195.585236,134.242981z"/>
</svg>
