<?xml version="1.0" encoding="UTF-8"?>
<svg xmlns="http://www.w3.org/2000/svg" xmlns:xlink="http://www.w3.org/1999/xlink" width="22.470mm" height="14.409mm" viewBox="-489.023010 159.167007 22.469513 14.408615">
    <path transform="matrix(-1,0,0,1,0,0)" style="stroke:none;fill:#000000;fill-rule:evenodd" d="M475.926788,159.499908L475.594574,159.399689L475.26236,159.499908L475.095551,159.899384L475.095551,161.629761L472.07135,161.629761C471.62793,161.629761,471.273071,161.784882,471.007446,162.095123C470.697205,162.406067,470.542084,162.760925,470.542084,163.1604L470.542084,163.559189L469.611328,163.559189L469.145966,163.426025L468.946228,162.960663L468.946228,161.363434L468.813751,160.963959C468.680603,160.830811,468.536469,160.764221,468.381348,160.764221L467.883026,160.930328L467.55011,161.329803L466.553497,163.725983L466.586426,164.158401C466.653015,164.269592,466.774506,164.324509,466.952271,164.324509L467.616699,164.324509L468.049133,164.457672L468.21524,164.790558L468.115723,165.256622L467.915955,165.722672L467.583771,166.188049L467.384033,166.720688L467.351074,167.28627L467.55011,168.950058L467.749878,169.549271L468.049133,169.981705L470.010132,171.978394L470.475494,172.24472L471.074036,172.377869L472.170868,172.377869L472.436493,172.344238C472.614288,172.876877,473.245758,173.242722,474.331604,173.442459L476.591888,173.575623C476.946045,173.575623,477.666077,173.220749,478.751953,172.511032L480.979248,170.980392L481.145355,171.179443L481.145355,171.346237C481.145355,171.812286,481.311462,172.211075,481.644379,172.543976C481.95462,172.876877,482.342438,173.042984,482.807098,173.042984C483.161957,173.042984,483.494171,172.932465,483.804413,172.71077L484.369995,171.944763L485.433228,171.179443L486.397583,171.013336C486.840302,170.835571,487.106628,170.569931,487.19516,170.214386L489.02301,169.882172L489.02301,167.28627L487.19516,166.920425C487.083984,166.542908,486.773743,166.277283,486.264435,166.12146C486.486145,165.789261,486.773743,165.600494,487.128601,165.555878C486.884918,164.868134,486.46347,164.291565,485.865631,163.8255L485.865631,159.466278L485.766113,159.233582L485.566376,159.167007L482.940277,159.167007L482.640991,159.266541L482.541473,159.599426C482.541473,159.710632,482.575104,159.81015,482.640991,159.899384C482.752197,159.965958,482.851715,159.998901,482.940277,159.998901L485.234161,159.998901L485.234161,161.097122L484.967834,160.731277L484.502472,160.598114L481.810486,160.598114C481.655365,160.598114,481.356079,160.75325,480.912689,161.063492L479.782898,161.961975L477.921417,161.961975C477.633118,161.740265,477.31189,161.629761,476.957031,161.629761L476.092896,161.629761L476.092896,159.899384L475.926788,159.499908"/>
</svg>
