<?xml version="1.0" encoding="UTF-8"?>
<svg xmlns="http://www.w3.org/2000/svg" xmlns:xlink="http://www.w3.org/1999/xlink" width="22.491mm" height="11.421mm" viewBox="-458.673004 160.660995 22.491486 11.421463">
    <path transform="matrix(-1,0,0,1,0,0)" style="stroke:none;fill:#000000;fill-rule:evenodd" d="M443.873169,160.660995L441.629364,160.660995C441.513367,160.660995,441.425507,160.700119,441.367157,160.778366L439.299072,162.834091L437.143158,162.834091L437.143158,161.336395L436.181519,161.336395L436.268677,165.182907L439.327911,165.182907L439.357422,166.562546L439.50293,166.826797L443.407104,169.851013L443.639771,169.909363L443.901978,169.762466L443.931488,169.733643L446.669495,171.993912L446.931702,172.082458C446.990021,172.082458,447.068268,172.043335,447.16507,171.965088L449.583191,168.999207L449.641541,168.734955L449.524841,168.529724L447.019562,166.415649L448.330536,164.742249L452.671234,164.859619L457.186981,164.88913L458.031921,164.88913L458.265289,164.712723L458.410797,164.448471L458.235779,164.21373L457.973572,164.12587L455.730469,164.184219L455.730469,163.391434L456.021484,163.567841L457.30365,163.45047L458.673004,163.186203L458.673004,162.188202L457.30365,161.952774L456.021484,161.864914L455.788818,161.952774L455.672119,162.217026L449.087616,162.188202L449.087616,161.336395L448.942108,161.072144L448.679901,160.954773L448.447235,161.072144L448.330536,161.336395L448.330536,162.188202L446.727844,162.217026L446.727844,161.952774C446.727844,161.757156,446.659882,161.61026,446.523987,161.512802C446.427185,161.375519,446.300903,161.306885,446.145081,161.306885L444.251343,161.336395L444.251343,161.042633L444.105835,160.749542L443.873169,160.660995M440.085693,165.182907L440.580566,165.182907L441.658875,167.413651L441.600525,167.531723L440.085693,166.357315L440.085693,165.182907zM441.94989,161.600662L441.862732,161.952774L441.862732,163.039322L441.367157,163.802582L439.735626,163.861618L441.746033,161.365921L442.212097,161.365921L441.94989,161.600662zM455.089386,163.333099L455.089386,164.184219L449.175476,164.12587L448.85495,164.096359L449.029968,163.861618L449.087616,163.626862L449.087616,163.274063L455.089386,163.333099z"/>
</svg>
