<?xml version="1.0" encoding="UTF-8"?>
<svg xmlns="http://www.w3.org/2000/svg" xmlns:xlink="http://www.w3.org/1999/xlink" width="16.148mm" height="23.486mm" viewBox="-425.140625 154.628006 16.147705 23.486115">
    <path transform="matrix(-1,0,0,1,0,0)" style="stroke:none;fill:#000000;fill-rule:evenodd" d="M411.559265,156.36174L411.440887,156.204407L411.283051,156.125488L411.204132,155.967651L411.006836,155.731384L410.927399,155.613007L410.809021,155.061569L410.414429,154.667465L409.822052,154.628006L409.42746,154.982651L409.388,155.573547C409.545837,156.151627,409.835388,156.676926,410.256592,157.149948C410.677826,157.622955,411.309174,157.9776,412.151642,158.213852L414.362335,158.726334L414.757416,158.844711L415.191467,159.041519L415.5466,159.238312L415.902222,159.475067L416.296814,159.987061L416.336273,160.105438L416.49411,160.420609L415.230927,160.420609L414.836334,160.578445L414.757416,160.93309L414.757416,162.312195C413.046387,162.837494,411.664795,163.796356,410.611725,165.188766C409.532532,166.633957,408.99292,168.249313,408.99292,170.035828C408.99292,172.268723,409.795929,174.160309,411.401428,175.710556C412.954132,177.313095,414.849152,178.11412,417.086487,178.11412C419.323822,178.11412,421.218872,177.313095,422.771576,175.710556C424.350922,174.160309,425.140625,172.268723,425.140625,170.035828C425.140625,168.249313,424.601013,166.633957,423.52179,165.188766C422.468719,163.796356,421.100494,162.837494,419.415588,162.312195L419.415588,160.93309L419.297211,160.578445C419.218292,160.473389,419.086578,160.420609,418.902618,160.420609L417.994568,160.420609L417.520538,159.080978C417.125946,158.476761,416.520752,158.003738,415.704926,157.662415L413.533203,157.03157L412.546234,156.795303L412.112183,156.637955L411.677643,156.440659L411.677643,156.401199L411.559265,156.36174"/>
</svg>
