<?xml version="1.0" encoding="UTF-8"?>
<svg xmlns="http://www.w3.org/2000/svg" xmlns:xlink="http://www.w3.org/1999/xlink" width="22.111mm" height="21.964mm" viewBox="-397.761597 155.389008 22.111420 21.964340">
    <path transform="matrix(-1,0,0,1,0,0)" style="stroke:none;fill:#000000;fill-rule:evenodd" d="M379.073883,156.62793L379.110962,156.66568L379.148682,156.66568L379.148682,157.003387L379.110962,157.078888L379.110962,157.115952L379.073883,157.191452C378.948975,157.541519,378.724518,157.879211,378.399841,158.205246L377.689453,158.730331C377.464996,158.880646,377.265259,158.956146,377.090912,158.956146L376.941284,158.956146L376.790955,158.842896L375.85611,160.83342C375.581543,161.534225,375.581543,162.022232,375.85611,162.297485L376.117615,162.4478L376.379822,162.484863L376.529449,162.4478C377.028442,162.422394,377.626984,162.197266,378.325043,161.771713C378.999054,161.371552,379.659363,160.845779,380.308014,160.195084C381.380829,159.11882,382.104279,158.067291,382.478363,157.041138C382.577881,156.7659,382.64035,156.515366,382.665039,156.290237L382.627991,155.877029L382.478363,155.614136L382.478363,155.577072L381.730194,155.389008L380.495392,155.802216L379.036133,156.553116L379.073883,156.590179L379.073883,156.62793"/>
    <path transform="matrix(-1,0,0,1,0,0)" style="stroke:none;fill:#000000;fill-rule:evenodd" d="M378.587219,156.853073L378.47467,156.853073L377.651703,157.416595L377.127991,158.129745L377.090912,158.205246L377.090912,158.430389L377.390167,158.28006L378.025757,157.829788C378.300323,157.553864,378.487701,157.291672,378.587219,157.041138L378.587219,156.853073z"/>
    <path transform="matrix(-1,0,0,1,0,0)" style="stroke:none;fill:#000000;fill-rule:evenodd" d="M381.393188,160.607605C382.066528,159.882095,382.565521,159.18129,382.889496,158.505203L383.076874,158.091995L383.226501,157.52916C383.276611,157.153702,383.251221,156.890823,383.151703,156.740494L383.002075,157.228516L383.002075,157.266266L382.739868,157.754288L382.290985,158.617767C381.866791,159.293854,381.330719,159.94455,380.682068,160.570526L378.886505,162.072342L378.025757,162.560364L377.502075,162.785492L377.016113,162.935822L377.764252,163.048386L378.773926,162.672928C379.472687,162.322189,380.158386,161.834167,380.831726,161.208878L381.393188,160.607605z"/>
    <path transform="matrix(-1,0,0,1,0,0)" style="stroke:none;fill:#000000;fill-rule:evenodd" d="M382.702789,159.856689L381.767273,160.983047L381.24353,161.54657L380.121307,162.484863L379.485016,162.860321L378.773926,163.273514L380.121307,164.625015C380.295654,164.80072,380.6203,164.80072,381.093903,164.625015L381.505737,164.399872C382.104279,164.09993,382.69046,163.674362,383.26358,163.123199C383.862793,162.49791,384.324036,161.884277,384.64801,161.283691L384.835388,160.870483L384.835388,160.79567C385.009735,160.320007,385.009735,160.007004,384.835388,159.856689L383.450958,158.505203L383.076874,159.256104L382.702789,159.856689z"/>
    <path transform="matrix(-1,0,0,1,0,0)" style="stroke:none;fill:#000000;fill-rule:evenodd" d="M386.331726,158.993225C386.232208,158.842896,386.0448,158.768082,385.770935,158.768082L384.68576,158.993225L385.246552,159.518997C385.545807,159.84433,385.571198,160.357758,385.32135,161.058548C385.022095,161.834167,384.461334,162.635178,383.638336,163.461594C382.939606,164.162384,382.228516,164.675125,381.505737,165.000458C380.682068,165.351212,380.095917,165.351212,379.747223,165.000458L379.26059,164.512451L379.26059,164.550201L379.036133,165.489166L379.223511,166.126831L379.822052,166.314896C380.320374,166.3396,380.956635,166.126831,381.730194,165.676559C382.503052,165.226288,383.26358,164.638062,384.012421,163.911865C384.560852,163.361374,385.035156,162.785492,385.433929,162.184906C385.858124,161.609039,386.157379,161.058548,386.331726,160.532776C386.606262,159.781876,386.606262,159.268463,386.331726,158.993225z"/>
    <path transform="matrix(-1,0,0,1,0,0)" style="stroke:none;fill:#000000;fill-rule:evenodd" d="M386.743561,162.109406C386.418884,162.985931,385.808014,163.874115,384.910217,164.77533C384.361115,165.325806,383.800323,165.76442,383.226501,166.089752C382.678101,166.439819,382.179077,166.640244,381.730194,166.690353L387.49173,172.434708L388.801331,172.24733L390.746552,170.820328L391.607269,169.882034L391.607269,169.844284L391.719177,169.73172L391.719177,169.69397L391.868805,169.543655L392.31839,168.830505L392.31839,168.755676L392.579895,168.229904L392.692474,167.778961C392.767273,167.453613,392.741882,167.240829,392.617645,167.14061L386.893188,161.471756L386.743561,162.109406z"/>
    <path transform="matrix(-1,0,0,1,0,0)" style="stroke:none;fill:#000000;fill-rule:evenodd" d="M393.178406,167.14061L393.216187,167.178375L393.253235,167.253189L393.253235,167.816711L393.216187,167.929276L393.216187,167.967026L393.141357,168.229904L393.103607,168.266968L393.028778,168.567612L392.99173,168.605362L392.916901,168.830505L392.842102,168.98082L392.430267,169.656219L392.393188,169.69397L392.056183,170.144241L392.018433,170.219742L391.943604,170.332306L391.868805,170.370056L391.719177,170.557449L390.784302,171.496414L389.47467,172.472458L389.43692,172.472458L388.838409,172.772415L387.566528,172.99823L387.790985,174.387482C388.065521,174.61261,388.551483,174.61261,389.250244,174.387482L390.222839,173.89946L392.355438,172.209579L392.430267,172.097C393.153717,171.39621,393.727539,170.670013,394.151031,169.919098L394.637665,168.905319C394.862122,168.204514,394.862122,167.716492,394.637665,167.441254C394.538147,167.341034,394.388519,167.27858,394.188782,167.253189L393.178406,167.14061z"/>
    <path transform="matrix(-1,0,0,1,0,0)" style="stroke:none;fill:#000000;fill-rule:evenodd" d="M393.59024,171.608978L392.842102,172.472458L392.729523,172.585022L391.906555,173.298187L391.308014,173.823959L390.148041,174.500046L390.485046,174.875488L390.671753,174.950317L390.971008,174.950317L391.569519,174.799988L392.130981,174.500046L393.55249,173.373688L394.787323,171.796371L395.0495,171.233536L395.086578,171.158035L395.199127,170.63295L395.199127,170.370056L395.124329,170.181992L394.787323,169.844284L394.076202,171.008392L393.59024,171.608978z"/>
    <path transform="matrix(-1,0,0,1,0,0)" style="stroke:none;fill:#000000;fill-rule:evenodd" d="M394.076202,173.86171C393.153717,174.762924,392.28064,175.363525,391.457642,175.663467L391.008759,175.776718L390.784302,175.813782L391.233215,176.26474C391.507751,176.439774,391.968994,176.36496,392.617645,176.038925C393.315704,175.738968,394.014435,175.225555,394.712494,174.500046C395.585571,173.648926,396.159393,172.82251,396.433258,172.0215C396.632996,171.496414,396.658386,171.120972,396.508087,170.895142L396.096924,170.482635L396.059174,170.670013L395.909546,171.120972L395.909546,171.158035C395.585571,172.05925,394.974701,172.96048,394.076202,173.86171z"/>
    <path transform="matrix(-1,0,0,1,0,0)" style="stroke:none;fill:#000000;fill-rule:evenodd" d="M397.406555,173.148544L397.593262,172.585022C397.817688,171.934326,397.817688,171.496414,397.593262,171.270599L397.518433,171.195786L397.331726,172.0215C396.957672,172.99823,396.246552,174.012024,395.199127,175.062881C394.550507,175.713577,393.901855,176.22699,393.253235,176.602448C392.604614,176.97789,392.018433,177.203033,391.49472,177.278534L391.607269,177.315598L392.729523,177.353348L393.739899,177.203033L394.936951,177.315598C395.560852,177.165283,396.109283,176.852966,396.583588,176.377304C397.032471,175.901642,397.344086,175.351166,397.518433,174.725174C397.643372,174.174698,397.605621,173.786194,397.406555,173.561066L397.406555,173.148544z"/>
</svg>
