<?xml version="1.0" encoding="UTF-8"?>
<svg xmlns="http://www.w3.org/2000/svg" xmlns:xlink="http://www.w3.org/1999/xlink" width="22.480mm" height="18.977mm" viewBox="-367.584503 156.882996 22.480499 18.977188">
    <path transform="matrix(-1,0,0,1,0,0)" style="stroke:none;fill:#000000;fill-rule:evenodd" d="M351.427673,161.328033L348.651245,161.328033L348.651245,157.655869C348.651245,157.423874,348.574371,157.244034,348.419922,157.11499C348.265503,156.960556,348.085663,156.882996,347.880432,156.882996L347.571564,156.882996L347.032074,157.11499L346.800751,157.655869L346.800751,163.144211L345.721069,163.144211L345.296875,163.376205L345.104004,163.917068L345.104004,164.226639L367.584503,167.357239L367.584503,161.868896L367.35318,161.404907L367.045013,161.328033L363.381775,161.328033C363.098969,160.451508,362.417389,159.730118,361.337708,159.163162C360.181152,158.570816,358.895538,158.274292,357.481598,158.274292C355.965363,158.274292,354.666718,158.570816,353.587036,159.163162C352.430481,159.730118,351.710449,160.451508,351.427673,161.328033zM353.162842,161.328033C353.445648,160.889435,353.98584,160.490631,354.782715,160.129593L357.481598,159.704727L360.1427,160.129593C360.86203,160.490631,361.402222,160.889435,361.761902,161.328033L353.162842,161.328033z"/>
    <path transform="matrix(-1,0,0,1,0,0)" style="stroke:none;fill:#000000;fill-rule:evenodd" d="M367.584503,172.188705L367.584503,168.74855L345.104004,165.617935L345.104004,169.096542L367.584503,172.188705z"/>
    <path transform="matrix(-1,0,0,1,0,0)" style="stroke:none;fill:#000000;fill-rule:evenodd" d="M367.045013,175.860184L367.35318,175.782623L367.584503,175.435318L367.584503,173.502457L345.104004,170.371841L345.104004,172.304703L345.296875,172.845581L345.721069,173.077576L348.111755,173.077576L348.111755,175.435318L348.304626,175.782623L348.651245,175.860184L367.045013,175.860184z"/>
</svg>
