<?xml version="1.0" encoding="UTF-8"?>
<svg xmlns="http://www.w3.org/2000/svg" xmlns:xlink="http://www.w3.org/1999/xlink" width="18.004mm" height="21.605mm" viewBox="-426.708679 59.666138 18.004089 21.604996">
    <path transform="matrix(-1,0,0,1,0,0)" style="stroke:none;fill:#000000;fill-rule:evenodd" d="M412.653259,62.68726C412.714539,63.11459,412.592529,63.694302,412.286102,64.426392L411.092468,66.715424L409.531097,70.010941L408.70459,73.123711C408.765869,75.137794,409.255585,76.815643,410.173737,78.158356C411.031158,79.501083,412.347382,80.447388,414.122955,80.996735L414.2146,80.996735L414.398468,80.905083C414.459747,80.721786,414.428833,80.569405,414.306274,80.447388C413.449402,79.958778,413.020966,79.013016,413.020966,77.609566C413.020966,76.144829,413.419037,74.771194,414.2146,73.489754C415.010742,72.269051,416.143127,71.201279,417.612274,70.285339L418.62262,72.116669L420.000122,73.581406L421.745331,75.412186L422.38797,77.609566C422.38797,79.19632,421.836975,80.264091,420.734985,80.813431L420.459473,81.088379L420.82663,81.271133C422.663483,80.96582,424.102264,80.294456,425.142975,79.25705C426.183716,78.097626,426.704346,76.419228,426.704346,74.221848C426.765625,72.452347,426.428833,70.468636,425.694,68.271255L424.408142,65.433434L424.224823,65.250687L424.040985,65.525085L423.581635,67.264214C423.337036,68.484917,422.908051,69.339577,422.296326,69.827637C422.357056,67.264214,421.653137,64.823357,420.18396,62.50396L417.888306,59.75779L417.704468,59.666138L417.612274,59.666138L417.52063,60.032185L417.336761,62.778908C417.030914,64.731705,416.388245,66.074425,415.408264,66.806519L414.765625,64.609688C414.337189,63.572285,413.786163,62.870007,413.11261,62.50396L412.928741,62.412312L412.745453,62.50396L412.653259,62.68726z"/>
</svg>
