<?xml version="1.0" encoding="UTF-8"?>
<svg xmlns="http://www.w3.org/2000/svg" xmlns:xlink="http://www.w3.org/1999/xlink" width="21.971mm" height="21.875mm" viewBox="-336.968079 155.432922 21.971497 21.874969">
    <path transform="matrix(-1,0,0,1,0,0)" style="stroke:none;fill:#000000;fill-rule:evenodd" d="M324.786591,160.843018C323.950592,161.189636,323.115265,161.790909,322.279907,162.646149C321.443909,163.478043,320.840576,164.310638,320.469238,165.142532C320.074554,165.975113,320.039551,166.553055,320.364899,166.876343L322.105591,166.807022C322.940918,166.414398,323.788605,165.801468,324.647278,164.969559C325.482605,164.114319,326.085938,163.281738,326.457947,162.472488C326.829285,161.663239,326.851929,161.085312,326.527283,160.738678L324.786591,160.843018z"/>
    <path transform="matrix(-1,0,0,1,0,0)" style="stroke:none;fill:#000000;fill-rule:evenodd" d="M327.118927,155.432922C326.817627,155.502243,326.573944,155.641586,326.387939,155.849548L326.2836,156.022522C326.074951,156.346497,326.016602,156.69313,326.109253,157.06308L326.770935,159.768127L328.407288,159.143524L329.347626,158.90123L328.75528,156.40416L328.407288,155.849548L328.094299,155.571564L327.118927,155.432922z"/>
    <path transform="matrix(-1,0,0,1,0,0)" style="stroke:none;fill:#000000;fill-rule:evenodd" d="M331.227631,156.785782C330.832977,156.785782,330.507629,156.924438,330.252289,157.201736C329.99765,157.455704,329.869965,157.768005,329.869965,158.13797L329.869965,163.166428C329.869965,163.513046,329.99765,163.825363,330.252289,164.102661C330.507629,164.379959,330.832977,164.5186,331.227631,164.5186L331.471313,164.483597L331.679962,164.414276L331.749969,164.379959C332.0513,164.241302,332.272339,164.021667,332.41098,163.721024L332.550323,163.166428L332.550323,158.13797L332.515991,157.96431C332.492645,157.641022,332.341644,157.363724,332.062988,157.132416C331.830963,156.901093,331.552307,156.785782,331.227631,156.785782z"/>
    <path transform="matrix(-1,0,0,1,0,0)" style="stroke:none;fill:#000000;fill-rule:evenodd" d="M334.152344,162.12587C334.430328,161.385941,334.616333,160.704361,334.708984,160.079742L334.743988,159.247849L334.569641,158.866226L334.291656,158.519592C333.966309,158.195618,333.525665,158.022659,332.968323,157.999313L333.003326,158.13797L333.003326,163.166428C333.003326,163.628357,332.828979,164.044998,332.480988,164.414276C332.132996,164.761581,331.714966,164.934555,331.227631,164.934555C330.809631,164.934555,330.438293,164.807571,330.113647,164.552917C329.416962,165.662811,328.534943,166.737686,327.467621,167.778259C326.446289,168.818817,325.389923,169.685715,324.299255,170.378967C324.531281,170.702942,324.647278,171.061234,324.647278,171.453842C324.647278,171.985794,324.472931,172.401749,324.124939,172.702377C323.776917,173.072342,323.358917,173.256989,322.871582,173.256989L317.579559,173.222656C317.625549,173.823944,317.811554,174.297546,318.1362,174.644165C318.786224,175.268784,320.051239,175.199448,321.931244,174.436188C324.183258,173.511627,326.619934,171.754486,329.242615,169.165436C331.656647,166.737686,333.292969,164.391632,334.152344,162.12587z"/>
    <path transform="matrix(-1,0,0,1,0,0)" style="stroke:none;fill:#000000;fill-rule:evenodd" d="M335.962341,166.287415C336.914337,164.414276,337.193024,162.98111,336.79834,161.987213L335.40567,159.628799C335.545013,160.669357,335.289673,161.894547,334.639679,163.305069C334.152344,164.391632,333.490662,165.500824,332.654633,166.634048C331.795959,167.813263,330.809631,168.957458,329.695618,170.066666L326.318604,172.979675C325.134613,173.834915,323.997253,174.493851,322.906586,174.956467L322.662933,175.06012L322.174896,175.268784C320.991577,175.708069,319.981903,175.857697,319.145874,175.719055L321.583252,177.141235C322.581238,177.533844,324.032257,177.244888,325.935608,176.274338C327.838959,175.303101,329.74231,173.869919,331.644958,171.974121C333.548309,170.078323,334.987671,168.182526,335.962341,166.287415z"/>
    <path transform="matrix(-1,0,0,1,0,0)" style="stroke:none;fill:#000000;fill-rule:evenodd" d="M329.416962,159.594482C328.743622,159.617813,327.943298,159.895111,327.014618,160.426376C327.432617,160.934982,327.420959,161.698242,326.979614,162.715469C326.585632,163.616699,325.935608,164.506943,325.030273,165.385513C324.148254,166.264084,323.254578,166.923019,322.349243,167.362305C321.327911,167.80159,320.56189,167.80159,320.051239,167.362305C319.563904,168.217545,319.27356,168.991776,319.180878,169.685715L322.871582,169.685715C323.196259,169.685715,323.49826,169.766708,323.776917,169.928009C324.89093,169.258102,325.96994,168.402176,327.014618,167.362305C328.105286,166.252411,328.976288,165.154205,329.62561,164.067657C329.486969,163.790344,329.416962,163.489716,329.416962,163.166428L329.416962,159.594482z"/>
    <path transform="matrix(-1,0,0,1,0,0)" style="stroke:none;fill:#000000;fill-rule:evenodd" d="M315.037872,167.362305C314.94519,167.732269,315.002869,168.078888,315.212219,168.402176C315.397522,168.726151,315.676208,168.922455,316.047546,168.991776L318.55423,169.616394C318.600891,168.899811,318.890564,168.055557,319.424561,167.085007L316.674194,166.391068C316.302887,166.298401,315.966553,166.35675,315.664551,166.564728C315.339874,166.749359,315.130524,167.015671,315.037872,167.362305z"/>
    <path transform="matrix(-1,0,0,1,0,0)" style="stroke:none;fill:#000000;fill-rule:evenodd" d="M317.823212,170.135986C317.451874,170.135986,317.138214,170.263657,316.882874,170.517609C316.627533,170.794922,316.499878,171.107224,316.499878,171.453842C316.499878,171.777817,316.593201,172.066788,316.778534,172.320755L317.579559,172.771713L317.823212,172.806717L322.871582,172.806717L323.393921,172.702377L323.428253,172.66806C323.706909,172.575394,323.91626,172.378403,324.055603,172.078461L324.194244,171.453842C324.194244,171.107224,324.066589,170.794922,323.811249,170.517609C323.555908,170.263657,323.24292,170.135986,322.871582,170.135986L317.823212,170.135986z"/>
</svg>
