<?xml version="1.0" encoding="UTF-8"?>
<svg xmlns="http://www.w3.org/2000/svg" xmlns:xlink="http://www.w3.org/1999/xlink" width="21.611mm" height="21.620mm" viewBox="-306.427429 155.561493 21.610718 21.619965">
    <path transform="matrix(-1,0,0,1,0,0)" style="stroke:none;fill:#000000;fill-rule:evenodd" d="M289.473053,160.188217L289.438751,160.188217L287.039124,162.999649L289.95285,161.388016L290.63855,160.702316L292.250183,157.754288L289.473053,160.188217"/>
    <path transform="matrix(-1,0,0,1,0,0)" style="stroke:none;fill:#000000;fill-rule:evenodd" d="M295.164581,158.919785C295.484436,159.21698,295.564728,159.662445,295.404816,160.256851L298.45578,158.610901C298.867615,157.354126,298.821625,156.474182,298.318512,155.971069C297.930023,155.559921,297.267639,155.456955,296.330048,155.662872L294.719116,158.645218C294.879028,158.691208,295.027283,158.782501,295.164581,158.919785z"/>
    <path transform="matrix(-1,0,0,1,0,0)" style="stroke:none;fill:#000000;fill-rule:evenodd" d="M294.684784,159.365234C294.432892,159.114029,293.93045,159.205307,293.176117,159.639801C292.421783,160.02829,291.621429,160.645355,290.775818,161.490982C289.930176,162.336609,289.301453,163.136932,288.89032,163.891266C288.478485,164.668259,288.398865,165.171371,288.650085,165.399948C288.901978,165.673813,289.404419,165.605179,290.158752,165.194031C290.93573,164.782883,291.736084,164.165131,292.559052,163.34285C293.404663,162.497223,294.044373,161.696899,294.478882,160.942551C294.890015,160.165573,294.958649,159.639801,294.684784,159.365234zM290.913086,161.662567L291.770386,160.976868L292.353119,160.908234C292.467072,160.976868,292.433441,161.148468,292.250183,161.422333L291.598785,162.31395C291.278931,162.61116,290.98172,162.839722,290.707184,162.999649L290.124451,163.068298L290.227386,162.554184L290.913086,161.662567z"/>
    <path transform="matrix(-1,0,0,1,0,0)" style="stroke:none;fill:#000000;fill-rule:evenodd" d="M293.999084,158.610901L294.341583,157.925201L293.415649,156.965637L292.04425,159.571152C292.798584,159.022736,293.449982,158.702881,293.999084,158.610901z"/>
    <path transform="matrix(-1,0,0,1,0,0)" style="stroke:none;fill:#000000;fill-rule:evenodd" d="M294.101349,164.85083L294.101349,164.8172L296.467316,162.142365L292.970184,163.822632L291.392883,167.182495C292.330475,166.496796,293.233063,165.719803,294.101349,164.85083z"/>
    <path transform="matrix(-1,0,0,1,0,0)" style="stroke:none;fill:#000000;fill-rule:evenodd" d="M294.581818,165.296982L294.547516,165.331299C293.336029,166.54277,292.09024,167.559998,290.81015,168.382294L290.775818,168.519562L292.90155,170.645309C294.227661,169.799683,295.50708,168.748138,296.741882,167.491364L296.741882,167.457047L296.776215,167.457047C298.056305,166.176941,299.096191,164.89682,299.895813,163.616714L297.735779,161.490982L297.667114,161.525299C296.844849,162.805405,295.815948,164.062866,294.581818,165.296982z"/>
    <path transform="matrix(-1,0,0,1,0,0)" style="stroke:none;fill:#000000;fill-rule:evenodd" d="M291.701752,164.988113C291.06134,165.491226,290.467621,165.845413,289.918518,166.051331L290.775818,166.942932L291.701752,164.988113z"/>
    <path transform="matrix(-1,0,0,1,0,0)" style="stroke:none;fill:#000000;fill-rule:evenodd" d="M295.336151,160.633682C295.130249,161.13681,294.764404,161.742874,294.238647,162.451233L296.159149,161.525299L295.336151,160.633682z"/>
    <path transform="matrix(-1,0,0,1,0,0)" style="stroke:none;fill:#000000;fill-rule:evenodd" d="M288.170288,165.87973L287.930054,165.434265L284.913391,167.045212C284.707489,167.982819,284.821411,168.645172,285.25589,169.034363C285.507111,169.308228,285.861969,169.445496,286.319122,169.445496L287.86142,169.170944L289.507385,166.188599C288.93631,166.302536,288.490143,166.199585,288.170288,165.87973z"/>
    <path transform="matrix(-1,0,0,1,0,0)" style="stroke:none;fill:#000000;fill-rule:evenodd" d="M287.210052,165.091064L287.895752,164.714249C288.010376,164.119843,288.330231,163.46846,288.855988,162.759415L286.28479,164.165131L287.210052,165.091064z"/>
    <path transform="matrix(-1,0,0,1,0,0)" style="stroke:none;fill:#000000;fill-rule:evenodd" d="M286.28479,170.131195L287.895752,171.708511C288.284241,172.119659,288.947296,172.210953,289.884216,171.982376L287.792786,169.856644L286.28479,170.131195z"/>
    <path transform="matrix(-1,0,0,1,0,0)" style="stroke:none;fill:#000000;fill-rule:evenodd" d="M287.039124,171.811478C286.810577,172.908325,286.936188,173.696976,287.415955,174.176758C288.216278,174.953751,289.667297,174.851471,291.770386,173.868576C293.896118,172.839676,296.067169,171.228043,298.284882,169.034363C300.501892,166.81665,302.101868,164.645599,303.084778,162.519867C304.090332,160.416779,304.204254,158.965759,303.427277,158.165436C302.947479,157.662323,302.158844,157.525726,301.061981,157.754288L301.438812,158.165436C302.170502,158.873795,302.26178,159.9823,301.713379,161.490982C301.713379,161.514313,301.370178,161.685226,300.684479,162.005768L299.690582,162.48555L300.718811,163.513763C299.850525,164.999786,298.696014,166.474136,297.255981,167.936829L297.22168,167.936829L297.187347,167.971146C295.72467,169.457169,294.261963,170.62265,292.798584,171.468277L291.736084,170.405762L290.775818,172.428528C289.244476,172.976959,288.124298,172.896652,287.415955,172.188293L287.039124,171.811478z"/>
    <path transform="matrix(-1,0,0,1,0,0)" style="stroke:none;fill:#000000;fill-rule:evenodd" d="M290.501953,171.60556L291.256287,169.925293L289.987152,168.622528L290.501953,167.525681L289.850555,166.942932L288.410522,169.548462L290.501953,171.60556z"/>
    <path transform="matrix(-1,0,0,1,0,0)" style="stroke:none;fill:#000000;fill-rule:evenodd" d="M289.918518,176.680008C290.696198,177.457001,292.147217,177.33139,294.272949,176.30249C296.398682,175.296936,298.558746,173.696976,300.753113,171.502594C302.970154,169.308228,304.581787,167.148163,305.587341,165.02243C306.592896,162.874039,306.695831,161.411362,305.89621,160.633682L304.593445,159.330917C304.661407,160.588379,304.124634,162.200012,302.981812,164.165131C301.907623,165.971024,300.490234,167.742584,298.730347,169.479828C296.993103,171.217056,295.210541,172.622772,293.382019,173.696976C291.461517,174.862457,289.861542,175.399902,288.581451,175.308609L289.918518,176.680008z"/>
    <path transform="matrix(-1,0,0,1,0,0)" style="stroke:none;fill:#000000;fill-rule:evenodd" d="M296.844849,161.217117L297.907349,160.702316L299.175812,161.971451L300.890381,161.217117L298.833313,159.160019L296.193451,160.600052L296.844849,161.217117z"/>
    <path transform="matrix(-1,0,0,1,0,0)" style="stroke:none;fill:#000000;fill-rule:evenodd" d="M301.267212,160.633682C301.495789,159.696762,301.392822,159.022736,300.959045,158.610901L299.381714,157.034271L299.141479,158.542267L301.267212,160.633682z"/>
</svg>
