<?xml version="1.0" encoding="UTF-8"?>
<svg xmlns="http://www.w3.org/2000/svg" xmlns:xlink="http://www.w3.org/1999/xlink" width="22.448mm" height="22.316mm" viewBox="-276.485596 155.214005 22.447571 22.315765">
    <path transform="matrix(-1,0,0,1,0,0)" style="stroke:none;fill:#000000;fill-rule:evenodd" d="M257.124023,156.49205L256.425964,156.894272L255.837723,156.309479L255.139679,157.040482L255.690842,157.624588L255.323624,158.318527C255.128006,158.82988,255.189087,159.231415,255.507584,159.523819L254.69902,161.204086C254.233643,162.421051,254.208939,163.24884,254.62558,163.687439L254.038025,164.271545L254.515747,164.746521L255.250183,164.052597L255.690842,164.491196L255.47052,165.294266L259.071289,168.873764L258.813904,169.34874L259.952606,169.457886L259.805725,169.860107C259.732269,170.15181,259.793365,170.395477,259.989685,170.590424L259.438507,170.991943C259.144745,171.357117,259.157104,171.698242,259.474884,172.014664L262.120209,174.644211C262.316528,174.839142,262.597931,174.839142,262.965149,174.644211L263.47995,174.279053L263.884216,174.242676L263.884216,176.434296L264.214386,177.200989C264.434723,177.419952,264.692108,177.52977,264.98587,177.52977L265.978394,177.52977C266.272156,177.52977,266.52887,177.419952,266.749878,177.200989L267.080048,176.434296L267.080048,173.366165L267.043671,173.219955L268.476135,171.795715L269.798828,173.110138C270.019135,173.329788,270.27655,173.438919,270.570313,173.438919L271.341797,173.110138L272.039856,172.416199C272.260193,172.221954,272.370697,171.965927,272.370697,171.649506C272.370697,171.333084,272.260193,171.077057,272.039856,170.882813L270.717194,169.567703L272.15036,168.143448L272.297241,168.179825L275.38324,168.179825C275.677032,168.179825,275.946777,168.070007,276.191803,167.851044C276.387421,167.632095,276.485596,167.376068,276.485596,167.084351L276.485596,166.098022C276.485596,165.805618,276.387421,165.550293,276.191803,165.330643C275.970795,165.111679,275.701721,165.002548,275.38324,165.002548L273.17926,165.002548L273.17926,164.600327L273.546478,164.088974C273.742096,163.723816,273.754456,163.443771,273.582855,163.24884L270.937531,160.619293L269.909332,160.582916L269.505035,161.130646C269.308746,160.935715,269.052032,160.87532,268.733551,160.948074L268.366333,161.094269L268.255829,159.961731L267.778107,160.254135L264.14093,156.63826L263.333069,156.894272L262.891724,156.455673L263.626831,155.725357L263.149109,155.214005L262.524506,155.798126L260.06311,155.871567L258.37323,156.674637C258.054749,156.382919,257.638123,156.321838,257.124023,156.49205z"/>
</svg>
