<?xml version="1.0" encoding="UTF-8"?>
<svg xmlns="http://www.w3.org/2000/svg" xmlns:xlink="http://www.w3.org/1999/xlink" width="22.491mm" height="22.491mm" viewBox="-246.147003 155.125000 22.491486 22.491486">
    <path transform="matrix(-1,0,0,1,0,0)" style="stroke:none;fill:#000000;fill-rule:evenodd" d="M226.731216,155.125C225.88559,155.125,225.167633,155.419464,224.578018,156.009064C223.963013,156.598663,223.655518,157.328979,223.655518,158.200699C223.655518,159.046326,223.963013,159.764282,224.578018,160.353882C224.860123,160.686783,225.244507,160.93045,225.731842,161.084198C225.628876,161.468582,225.70575,161.789124,225.962463,162.045135L226.539032,162.622391C226.71817,162.801544,226.936447,162.891449,227.192459,162.891449C227.474564,162.891449,227.718231,162.801544,227.923462,162.622391L228.269409,163.00676C227.858948,163.800919,227.628326,164.557312,227.576843,165.275269C227.551437,166.018631,227.743637,166.595184,228.154083,167.004959L228.576904,167.350906L235.420166,174.233292C235.753754,174.566193,236.265793,174.681503,236.958359,174.579224L236.188919,175.347977C236.112045,175.42485,236.073608,175.527817,236.073608,175.655487L236.188919,175.962982L236.650864,176.11673L238.034607,177.462738L238.380554,177.616486L238.80336,177.462738L238.918671,177.078354L238.80336,176.693985L237.419617,175.386414L238.841797,174.00267L239.957184,175.040482L240.303116,175.194229L239.611237,175.847672C239.534363,175.924545,239.495926,176.014465,239.495926,176.11673L239.611237,176.386475L239.841858,176.463348L240.110931,176.386475L241.610001,174.848297L241.802185,175.347977L242.340988,175.540161L242.802246,175.347977L243.878494,174.271729L244.070694,173.733597L243.878494,173.271667L243.455688,173.079468L243.494125,172.964157L244.917007,171.580414L244.993881,171.31134L244.917007,171.042282L244.685684,170.965408L244.416626,171.042282L243.878494,171.618851L243.68631,171.272903L242.648499,170.195969L243.955368,168.889099L245.262939,170.195969C245.365204,170.29892,245.493561,170.349716,245.647308,170.349716L245.993256,170.195969L246.147003,169.850037C246.147003,169.696289,246.09552,169.580963,245.993256,169.504089L244.647247,168.081909L244.531937,167.658401L244.186005,167.504654L243.878494,167.658401L243.109741,168.389404C243.263504,167.722916,243.161224,167.21019,242.802246,166.851212L235.458603,159.508255C234.99736,159.123199,234.420792,158.957092,233.728912,159.007889C233.036346,159.059357,232.30603,159.303024,231.537292,159.738892L231.191345,159.354507C231.370499,159.149277,231.460403,158.918655,231.460403,158.661942C231.460403,158.40593,231.357452,158.175293,231.152908,157.970062L230.768539,157.585693L231.38353,157.201309L232.459793,157.893188L233.228546,158.623505L233.728912,158.123825L231.114471,155.509369L229.576279,157.047562C229.447922,156.663193,229.230347,156.316559,228.922836,156.009064C228.307846,155.419464,227.576843,155.125,226.731216,155.125zM225.270584,156.70163C225.654953,156.291168,226.141602,156.085938,226.731216,156.085938C227.320816,156.085938,227.807465,156.291168,228.192535,156.70163C228.525421,157.034531,228.730652,157.405853,228.807526,157.816315L226.423706,160.200134C225.987854,160.148651,225.603485,159.969513,225.270584,159.662003C224.860123,159.251556,224.654892,158.764908,224.654892,158.200699C224.654892,157.611084,224.860123,157.111404,225.270584,156.70163z"/>
</svg>
