<?xml version="1.0" encoding="UTF-8"?>
<svg xmlns="http://www.w3.org/2000/svg" xmlns:xlink="http://www.w3.org/1999/xlink" width="22.491mm" height="22.546mm" viewBox="-215.785995 155.098389 22.491486 22.545715">
    <path transform="matrix(-1,0,0,1,0,0)" style="stroke:none;fill:#000000;fill-rule:evenodd" d="M193.949326,155.480713C193.561508,155.164978,193.343246,155.043488,193.29451,155.116928L193.694672,155.771744L194.750336,157.191177L194.968597,157.482208C194.701599,157.724503,194.543732,158.076614,194.495682,158.537186L194.532059,159.301819L194.968597,159.811111C195.186874,159.932602,195.514282,160.150879,195.951508,160.466614L196.569946,160.975922L197.224762,161.594345L198.025772,162.577255L199.517975,165.488907L201.701355,169.455521C202.235367,170.280563,202.914886,171.117264,203.739929,171.966324L205.959702,173.822311L206.250732,175.314514L208.580322,177.644104L210.144592,176.079147L210.690948,175.897247L212.07402,175.023483L213.165375,176.115524L214.293793,174.987106L213.201752,173.895065L214.075516,172.51268L214.257416,171.966324L215.785995,170.401367L213.493469,168.072449L212.001266,167.81781L210.144592,165.561661C209.295532,164.736618,208.458832,164.057098,207.633789,163.523087C206.905533,163.037811,205.583557,162.310242,203.666489,161.339706L200.755524,159.847504L199.117813,158.391678L198.644196,157.773239L197.98938,156.790329L197.480087,156.35379L196.715454,156.317413C196.254883,156.36615,195.890427,156.524017,195.623413,156.790329L195.332397,156.572067L193.949326,155.480713zM202.684265,168.946228C201.883255,168.121185,201.422684,167.211044,201.301193,166.216461C201.131668,165.197189,201.34993,164.384506,201.956009,163.778427C202.562775,163.171661,203.375458,162.953384,204.394745,163.122925C205.389313,163.268448,206.299454,163.729691,207.124496,164.505997C207.92482,165.30632,208.386078,166.216461,208.506882,167.235748C208.653076,168.230316,208.422455,169.030655,207.815689,169.637421C207.208923,170.244186,206.4086,170.474121,205.414017,170.328613C204.394745,170.207794,203.484589,169.746552,202.684265,168.946228zM202.247726,166.216461L202.393234,166.871277L202.611511,167.344894L203.339081,168.290726C203.969864,168.921509,204.661743,169.285294,205.414017,169.382767C206.117569,169.479553,206.675598,169.321686,207.08812,168.909164C207.500641,168.49733,207.657822,167.939301,207.561035,167.235748C207.463562,166.483475,207.099792,165.791595,206.468994,165.160812C205.862228,164.554733,205.171036,164.190262,204.394745,164.069458C203.691193,163.971985,203.133163,164.129852,202.720642,164.542374C202.284103,164.954895,202.126236,165.512924,202.247726,166.216461z"/>
</svg>
