<?xml version="1.0" encoding="UTF-8"?>
<svg xmlns="http://www.w3.org/2000/svg" xmlns:xlink="http://www.w3.org/1999/xlink" width="22.491mm" height="22.491mm" viewBox="-521.247986 190.164993 22.491486 22.491486">
    <path transform="matrix(-1,0,0,1,0,0)" style="stroke:none;fill:#000000;fill-rule:evenodd" d="M501.112183,190.164993C500.449829,190.164993,499.88562,190.398361,499.418854,190.864426C498.977509,191.306458,498.7565,191.858307,498.7565,192.520676C498.7565,193.159012,498.977509,193.710861,499.418854,194.177597L502.032623,196.79068C501.738159,197.232712,501.627655,197.735825,501.701111,198.300034C501.7258,198.888962,501.946808,199.379715,502.364136,199.772339L503.725922,201.134811C503.995697,201.379852,504.388306,201.52742,504.903778,201.576157L506.192108,201.465652L507.995941,203.306534L507.811981,204.742447C507.8367,205.281952,507.983582,205.711624,508.254028,206.030792L512.781433,210.521133C513.100586,210.840302,513.480835,211.048965,513.922852,211.14711L513.922852,211.919983C513.922852,212.141006,513.996338,212.312592,514.143188,212.435455C514.266052,212.583038,514.426025,212.656479,514.622314,212.656479L515.137085,212.435455L515.358093,211.919983L515.358093,211.110733L516.241516,210.521133L519.11261,207.649979L519.665161,206.766602L520.511475,206.766602C520.732483,206.766602,520.916443,206.693161,521.064026,206.545593L521.247986,206.067169L521.064026,205.51532L520.511475,205.331375L519.738647,205.331375C519.615784,204.889343,519.407104,204.521439,519.11261,204.226974L514.585266,199.698883C514.315491,199.404434,513.898193,199.245193,513.333984,199.220474L511.898041,199.330994L510.131287,197.527161C510.302887,196.398056,510.167664,195.612839,509.726318,195.171494L508.363831,193.809021C507.947205,193.39238,507.456451,193.159012,506.891541,193.109589C506.352051,193.060852,505.836578,193.183716,505.345795,193.47818L504.388306,192.484283L504.572937,192.44722C504.842682,192.398499,505.124786,192.496643,505.41925,192.741684L505.750763,193.183716L506.229187,192.668243L504.057465,190.496521L503.504913,191.600906L502.769104,190.864426C502.302368,190.398361,501.750519,190.164993,501.112183,190.164993zM501.112183,190.97493C501.52951,190.97493,501.885742,191.121811,502.180176,191.416275L502.805481,192.079315L500.633759,194.251053L500.007782,193.588684C499.713318,193.29422,499.566437,192.937988,499.566437,192.520676C499.566437,192.079315,499.713318,191.710739,500.007782,191.416275C500.326965,191.121811,500.695557,190.97493,501.112183,190.97493z"/>
</svg>
