<?xml version="1.0" encoding="UTF-8"?>
<svg xmlns="http://www.w3.org/2000/svg" xmlns:xlink="http://www.w3.org/1999/xlink" width="22.183mm" height="20.383mm" viewBox="-490.370880 191.218994 22.182739 20.382904">
    <path transform="matrix(-1,0,0,1,0,0)" style="stroke:none;fill:#000000;fill-rule:evenodd" d="M477.089996,191.442749C476.941742,191.293808,476.720032,191.218994,476.424225,191.218994C477.385834,192.038544,477.694031,192.970657,477.348785,194.013962C477.052948,194.858215,476.387146,195.703156,475.351379,196.547409C474.808472,197.268112,474.685608,198.125412,474.981415,199.118607C475.277252,200.137207,475.868927,200.82016,476.757111,201.168152L476.757111,200.460495L475.721344,199.19342C475.474243,198.621658,475.585449,198.100006,476.05426,197.628464C477.213562,196.709396,477.977509,195.802673,478.347473,194.90831C478.865692,193.715378,478.569855,192.722183,477.459961,191.926651L477.089996,191.442749z"/>
    <path transform="matrix(-1,0,0,1,0,0)" style="stroke:none;fill:#000000;fill-rule:evenodd" d="M478.717438,197.069061C478.19989,197.789764,478.088684,198.647064,478.384521,199.640259C478.680359,200.658859,479.272705,201.341812,480.160217,201.689804L480.160217,200.982147C479.61795,200.485199,479.272705,200.050034,479.124451,199.678009C478.878052,199.106247,478.976868,198.584595,479.420288,198.112366C480.57959,197.193298,481.344238,196.286575,481.714172,195.392212C482.232422,194.22467,481.948242,193.243835,480.863068,192.44899L480.456726,191.926651L479.790253,191.703583C480.752563,192.523132,481.06076,193.454559,480.715485,194.497864C480.419678,195.342804,479.753876,196.200089,478.717438,197.069061z"/>
    <path transform="matrix(-1,0,0,1,0,0)" style="stroke:none;fill:#000000;fill-rule:evenodd" d="M470.911835,199.975906L469.099091,199.417191L468.247986,199.454254C468.125122,199.578491,468.17453,199.739792,468.39624,199.938843L469.247375,200.6465L470.874786,201.689804L473.168671,202.882065L475.943054,203.96312C475.943054,203.615112,476.078949,203.304871,476.350067,203.031693L476.313019,202.956879L473.390381,201.131088L470.911835,199.975906z"/>
    <path transform="matrix(-1,0,0,1,0,0)" style="stroke:none;fill:#000000;fill-rule:evenodd" d="M468.729126,203.96312L468.729126,204.633713L470.32019,204.819733C470.492462,204.869827,470.690155,205.242538,470.911835,205.937851L471.540588,207.875519L472.243439,208.844696L473.501587,210.036942C473.871552,210.31012,474.290924,210.53389,474.759033,210.70755L475.610168,210.968369L475.610168,211.601898L483.526917,211.601898L483.526917,210.968369L484.378052,210.70755L485.635498,210.036942C486.720673,209.266815,487.374115,208.546112,487.596497,207.875519L488.151123,206.124542C488.397522,205.329025,488.619904,204.894547,488.816895,204.819733L490.37088,204.633713L490.37088,203.96312L477.829926,203.96312L476.608856,203.217697L476.461273,203.142883C476.263611,203.31723,476.140747,203.590408,476.091309,203.96312L468.729126,203.96312z"/>
    <path transform="matrix(-1,0,0,1,0,0)" style="stroke:none;fill:#000000;fill-rule:evenodd" d="M484.118591,191.554642L483.452789,191.330872C484.439148,192.125702,484.748016,193.057129,484.378052,194.125839C484.106232,194.970093,483.452789,195.815033,482.417053,196.659286C481.874786,197.37999,481.751251,198.236603,482.047089,199.230484C482.342926,200.249084,482.935272,200.932037,483.822754,201.280029L483.822754,200.572372C483.280518,200.050034,482.935272,199.615555,482.787018,199.267548C482.540588,198.696472,482.651093,198.18718,483.119904,197.740341C484.279205,196.795883,485.043854,195.88916,485.413818,195.019516C485.931335,193.827255,485.635498,192.834061,484.525635,192.038544L484.118591,191.554642z"/>
</svg>
