<?xml version="1.0" encoding="UTF-8"?>
<svg xmlns="http://www.w3.org/2000/svg" xmlns:xlink="http://www.w3.org/1999/xlink" width="22.491mm" height="22.485mm" viewBox="-459.798004 190.168427 22.491486 22.484619">
    <path transform="matrix(-1,0,0,1,0,0)" style="stroke:none;fill:#000000;fill-rule:evenodd" d="M442.816833,190.168427C441.292358,190.19313,439.993042,190.742249,438.918152,191.814377C437.843964,192.887192,437.306519,194.196136,437.306519,195.742569C437.306519,197.264282,437.856323,198.573898,438.955902,199.670746L444.578766,205.245575C446.477997,204.771973,448.1521,203.836426,449.601746,202.439621C451.001282,201.042831,451.938202,199.37149,452.413177,197.42627L446.753235,191.777313C445.653656,190.704498,444.341278,190.168427,442.816833,190.168427zM443.041962,193.086258C442.792114,192.786987,442.792114,192.487717,443.041962,192.188461C443.341919,191.939301,443.641846,191.939301,443.941803,192.188461L449.714325,197.987732L449.901703,198.43663L449.714325,198.847778C449.589386,198.972687,449.439758,199.035156,449.26474,199.035156C449.089691,199.035156,448.952423,198.972687,448.852203,198.847778L443.041962,193.086258z"/>
    <path transform="matrix(-1,0,0,1,0,0)" style="stroke:none;fill:#000000;fill-rule:evenodd" d="M454.212891,212.653046C455.737335,212.653046,457.049042,212.116974,458.148621,211.044159C459.248199,209.947311,459.798004,208.637695,459.798004,207.115967C459.798004,205.56955,459.260559,204.260605,458.186371,203.18779L453.462677,198.473694C452.888153,200.319382,451.901123,201.940628,450.501587,203.337418C449.12677,204.709503,447.502777,205.694473,445.628265,206.292999L450.314209,211.007095C451.388397,212.079224,452.688416,212.628342,454.212891,212.653046z"/>
</svg>
