<?xml version="1.0" encoding="UTF-8"?>
<svg xmlns="http://www.w3.org/2000/svg" xmlns:xlink="http://www.w3.org/1999/xlink" width="22.081mm" height="22.039mm" viewBox="-428.867737 190.389008 22.081207 22.039246">
    <path transform="matrix(-1,0,0,1,0,0)" style="stroke:none;fill:#000000;fill-rule:evenodd" d="M415.265442,192.162628L415.371826,192.234009C415.702667,192.754288,415.631989,193.475677,415.159058,194.397507C414.780182,195.225281,414.177521,196.053055,413.349762,196.880844C412.497955,197.732651,411.64682,198.359314,410.795013,198.761536C409.873199,199.187103,409.163483,199.234467,408.666534,198.902939L408.56015,198.832245L408.56015,198.867935L408.453766,198.761536L408.383057,199.151413L408.098907,204.153778L408.772919,204.82782L407.851105,205.785324L407.424866,205.749634C407.25946,205.773651,407.12973,205.84436,407.035004,205.963104C406.869568,206.104492,406.78653,206.282272,406.78653,206.495041L407.035004,207.026993L409.411957,209.403946L409.624725,209.687424C410.310425,210.37381,411.611145,210.314102,413.526825,209.510345C415.844757,208.564499,418.328094,206.766861,420.976868,204.118088C423.436188,201.658081,425.103424,199.257797,425.978546,196.916534C426.262726,196.183472,426.451477,195.485428,426.546204,194.823746L426.581879,193.971939L426.120636,193.227219L425.837158,193.014435L423.42453,190.601791L422.927582,190.389008L422.360626,190.601791C422.147156,190.838593,422.088135,191.110397,422.182861,191.417892L421.260345,192.375412L420.5513,191.666367L415.265442,192.162628M423.353821,197.590561C424.110229,195.934998,424.204926,194.823746,423.637299,194.256104C423.448547,194.066666,423.176056,193.948608,422.821198,193.901245L421.650909,192.73027L422.53772,191.84346L424.098541,193.404297L424.59549,194.04332C425.139099,194.989166,424.985352,196.360565,424.134247,198.158203C423.28244,199.955856,421.922699,201.776825,420.054352,203.621155C418.138672,205.560883,416.258667,206.943939,414.413635,207.771729C412.592651,208.599503,411.221252,208.694229,410.298767,208.055893L409.199188,207.026993L408.276672,206.104492L409.163483,205.217682L410.369476,206.388657C410.393494,206.743515,410.499878,207.01532,410.688629,207.204086C411.256287,207.771729,412.368225,207.677689,414.023773,206.920609C415.797394,206.140182,417.595032,204.839478,419.416016,203.018509C421.237,201.173492,422.549377,199.364182,423.353821,197.590561z"/>
    <path transform="matrix(-1,0,0,1,0,0)" style="stroke:none;fill:#000000;fill-rule:evenodd" d="M414.37796,193.936249C414.685455,193.297913,414.756836,192.884018,414.591431,192.69458C414.331268,192.458466,413.786987,192.387756,412.959198,192.481796C411.895294,192.576523,410.984467,193.014435,410.227386,193.794861C409.44696,194.551254,409.009735,195.462082,408.915009,196.525986C408.820282,197.377792,408.903351,197.921402,409.163483,198.158203C409.328888,198.347656,409.73114,198.287933,410.369476,197.980438C411.126556,197.626251,411.895294,197.058624,412.67572,196.278198C413.479492,195.473755,414.047119,194.693329,414.37796,193.936249z"/>
    <path transform="matrix(-1,0,0,1,0,0)" style="stroke:none;fill:#000000;fill-rule:evenodd" d="M427.823578,201.173492C428.793427,199.257797,429.088562,197.791672,428.710388,196.77446L427.25592,194.362488C427.39801,195.403061,427.137878,196.64473,426.475494,198.087509C425.978546,199.198761,425.304535,200.345718,424.4534,201.528366C423.578278,202.734344,422.573395,203.905319,421.43811,205.040588C420.326172,206.151855,419.167542,207.14505,417.961578,208.020203C416.778931,208.871994,415.643646,209.546036,414.555725,210.042282C412.994873,210.727982,411.694183,210.988129,410.653625,210.822708L413.171967,212.242157C414.189209,212.667709,415.666992,212.383545,417.60672,211.39035C419.545746,210.397156,421.485474,208.942703,423.42453,207.026993C425.363556,205.087952,426.830353,203.136566,427.823578,201.173492z"/>
</svg>
