<?xml version="1.0" encoding="UTF-8"?>
<svg xmlns="http://www.w3.org/2000/svg" xmlns:xlink="http://www.w3.org/1999/xlink" width="22.335mm" height="21.224mm" viewBox="-398.269989 190.798004 22.335266 21.224411">
    <path transform="matrix(-1,0,0,1,0,0)" style="stroke:none;fill:#000000;fill-rule:evenodd" d="M385.646667,199.974289L383.300598,197.624115C383.698029,196.530014,383.821564,195.621918,383.672638,194.901215C383.474274,194.080307,383.139313,193.446075,382.667755,192.99855C382.170807,192.476212,381.537964,192.12822,380.768524,191.954559C380.023804,191.804932,379.266724,191.892105,378.497284,192.215393L380.395813,194.080307L379.837799,195.833328L378.161621,196.355667L376.263092,194.45369C375.939819,195.174393,375.853333,195.908142,376.002258,196.654251C376.151215,197.400345,376.486176,198.034561,377.007813,198.556915C377.504089,199.053848,378.161621,199.401855,378.981171,199.600906C379.77533,199.750534,380.669006,199.62561,381.662201,199.228195L384.00827,201.577698L376.560974,209.038025L379.055298,211.53714L386.502594,204.076813L392.945007,210.306458C392.969727,210.729279,393.143372,211.114334,393.465973,211.462326C393.838684,211.81102,394.260803,211.997025,394.732361,212.022415C395.203918,212.047134,395.588959,211.910538,395.886871,211.611969C396.184753,211.338089,396.33371,210.953033,396.33371,210.455399C396.308289,210.007874,396.109924,209.585068,395.737915,209.187653C395.389923,208.838959,394.980835,208.639908,394.508606,208.5905L388.103943,202.435669L392.982086,197.587051L395.700165,200.272186L395.92392,200.309937L398.269989,197.922684L398.232239,197.698929L393.056885,192.513962C392.038971,192.314911,391.145294,192.078796,390.375854,191.804932L387.620026,190.798004L386.949432,191.507034L390.487061,195.087921L385.646667,199.974289M394.024689,209.821182C394.297882,209.497894,394.657532,209.535645,395.10437,209.93306C395.477081,210.331161,395.51416,210.679169,395.216248,210.977737C394.893646,211.276321,394.546356,211.238571,394.173645,210.86586C393.776215,210.467758,393.726807,210.119766,394.024689,209.821182z"/>
</svg>
