<?xml version="1.0" encoding="UTF-8"?>
<svg xmlns="http://www.w3.org/2000/svg" xmlns:xlink="http://www.w3.org/1999/xlink" width="22.302mm" height="20.910mm" viewBox="-397.437134 60.013599 22.302032 20.910053">
    <path transform="matrix(-1,0,0,1,0,0)" style="stroke:none;fill:#000000;fill-rule:evenodd" d="M380.710602,60.013599C379.009735,61.02739,377.654816,62.389866,376.647217,64.100342C375.638916,65.874649,375.135101,67.743675,375.135101,69.708107L383.923584,69.708107L384.301788,68.472618L385.152222,67.712097L380.710602,60.013599z"/>
    <path transform="matrix(-1,0,0,1,0,0)" style="stroke:none;fill:#000000;fill-rule:evenodd" d="M386.286102,68.282486L385.340973,68.757469L384.868713,69.708107L385.340973,70.753479C385.592865,71.007439,385.907928,71.133736,386.286102,71.133736C386.727448,71.133736,387.073395,71.007439,387.325317,70.753479L387.703491,69.708107L387.325317,68.757469L386.286102,68.282486z"/>
    <path transform="matrix(-1,0,0,1,0,0)" style="stroke:none;fill:#000000;fill-rule:evenodd" d="M391.861633,60.013599L387.51474,67.712097L388.365173,68.472618L388.648651,69.708107L397.437134,69.708107C397.437134,67.743675,396.964905,65.906219,396.019745,64.195747C395.011444,62.42144,393.625641,61.02739,391.861633,60.013599z"/>
    <path transform="matrix(-1,0,0,1,0,0)" style="stroke:none;fill:#000000;fill-rule:evenodd" d="M386.380829,80.923653C388.333618,80.923653,390.160767,80.416412,391.861633,79.402618L387.51474,71.79953L386.286102,72.084381L385.152222,71.79953L380.710602,79.402618C382.474609,80.416412,384.364929,80.923653,386.380829,80.923653z"/>
</svg>
