<?xml version="1.0" encoding="UTF-8"?>
<svg xmlns="http://www.w3.org/2000/svg" xmlns:xlink="http://www.w3.org/1999/xlink" width="19.714mm" height="22.017mm" viewBox="-366.233704 190.401993 19.713745 22.017014">
    <path transform="matrix(-1,0,0,1,0,0)" style="stroke:none;fill:#000000;fill-rule:evenodd" d="M350.756287,191.943405C349.604919,192.701691,348.980499,193.386688,348.882385,193.997803L346.531189,208.235703C346.482727,208.578506,346.568146,208.871643,346.788605,209.116333C347.009064,209.361023,347.314911,209.483368,347.706787,209.483368L351.013092,209.483368L351.968231,204.639877C352.042114,204.223801,352.274689,203.868881,352.666534,203.575745C353.033569,203.281998,353.450287,203.135422,353.915405,203.135422L358.8013,203.135422C359.267059,203.135422,359.683136,203.281998,360.050781,203.575745C360.442627,203.868881,360.675201,204.223801,360.748505,204.639877L361.74057,209.483368L365.083221,209.483368C365.450836,209.483368,365.744598,209.361023,365.965057,209.116333C366.185516,208.871643,366.270905,208.578506,366.222473,208.235703L363.761047,193.997803C363.662933,193.386688,363.050598,192.701691,361.924072,191.943405C360.429901,190.915588,358.580841,190.401993,356.376831,190.401993C354.197052,190.401993,352.32373,190.915588,350.756287,191.943405zM349.837494,199.465714C349.886566,199.12291,350.070679,198.829773,350.388641,198.585083C350.682404,198.340393,351.025818,198.218048,351.417664,198.218048L361.299652,198.218048C361.691498,198.218048,362.034302,198.340393,362.328064,198.585083C362.646637,198.829773,362.830139,199.12291,362.879211,199.465714L363.393433,201.740585C363.442474,202.083389,363.356476,202.36441,363.136627,202.584869C362.916168,202.829559,362.60968,202.951904,362.217834,202.951904L361.116119,202.951904C360.968964,202.951904,360.332397,202.6091,359.205261,201.924103C358.078735,201.23909,357.148438,200.896896,356.413788,200.896896C355.703339,200.896896,354.650085,201.22699,353.254028,201.887756L350.976746,202.841675L350.572174,202.841675C350.180298,202.841675,349.874451,202.71933,349.653992,202.47464C349.433533,202.22995,349.348114,201.936218,349.397186,201.594009L349.837494,199.465714z"/>
    <path transform="matrix(-1,0,0,1,0,0)" style="stroke:none;fill:#000000;fill-rule:evenodd" d="M354.098938,203.832535C353.756134,203.832535,353.438171,203.942169,353.143799,204.162628C352.850067,204.383087,352.67865,204.651993,352.629608,204.969971L351.380737,211.28157C351.331665,211.599548,351.404968,211.868454,351.601196,212.088913C351.796814,212.308777,352.066345,212.419006,352.409149,212.419006L360.344513,212.419006C360.687317,212.419006,360.968964,212.308777,361.189423,212.088913C361.38504,211.868454,361.446228,211.599548,361.372925,211.28157L360.087097,204.969971C360.038055,204.651993,359.866638,204.383087,359.572906,204.162628C359.279144,203.942169,358.960571,203.832535,358.617767,203.832535L354.098938,203.832535zM354.723969,206.657944C355.189117,206.241852,355.740265,206.034119,356.376831,206.034119C357.013367,206.034119,357.57663,206.241852,358.06662,206.657944L354.723969,206.657944zM356.376831,210.327652C355.666382,210.327652,355.078888,210.070251,354.613739,209.556641L358.176849,209.556641C357.7117,210.070251,357.111511,210.327652,356.376831,210.327652zM354.246124,209.006104L354.062592,208.41922L358.727997,208.41922L358.544495,209.006104L354.246124,209.006104zM354.062592,207.868668L354.283051,207.244843L358.507538,207.244843L358.691071,207.868668L354.062592,207.868668z"/>
</svg>
