<?xml version="1.0" encoding="UTF-8"?>
<svg xmlns="http://www.w3.org/2000/svg" xmlns:xlink="http://www.w3.org/1999/xlink" width="19.862mm" height="24.209mm" viewBox="-335.582397 189.306000 19.862427 24.208832">
    <path transform="matrix(-1,0,0,1,0,0)" style="stroke:none;fill:#000000;fill-rule:evenodd" d="M315.921814,190.395325L316.447998,191.404022C316.960236,192.130249,317.634308,192.708542,318.470856,193.138947C318.793945,193.273514,318.969757,194.255554,318.996429,196.084427C319.023682,198.047882,318.713318,199.460297,318.065918,200.321091C317.499725,201.073975,316.933563,201.491043,316.36676,201.571655L315.719971,201.491043L316.36676,208.067596C318.30899,208.659851,319.657166,209.210876,320.412476,209.721893L321.909149,211.779907C322.691162,212.828629,323.756836,213.407532,325.105011,213.514832L326.197357,213.514832C327.545532,213.407532,328.611206,212.828629,329.393188,211.779907C330.013336,210.649979,330.512207,209.964371,330.889893,209.721893C331.348755,209.399399,332.15741,209.022964,333.317078,208.59256L334.935608,208.067596L335.582397,201.491043L335.17807,201.612274C334.584625,201.612274,333.937805,201.181885,333.23645,200.321091C332.58902,199.460297,332.278656,198.047882,332.305939,196.084427C332.332611,194.255554,332.508423,193.273514,332.831512,193.138947C333.66806,192.708542,334.342133,192.130249,334.85437,191.404022L335.380554,190.395325L329.069489,189.306C328.449341,189.817017,328.206268,190.664474,328.341461,191.847763L327.896515,192.654602C327.464905,193.219574,326.898712,193.556,326.197357,193.6633L325.954895,193.6633L325.833038,193.703918L325.46933,193.703918L325.347473,193.6633L325.105011,193.6633C324.403625,193.556,323.837463,193.219574,323.405853,192.654602L322.960907,191.847763L322.960907,190.879669C322.852997,190.153458,322.610535,189.628494,322.23288,189.306L315.921814,190.395325M326.318604,195.519455L326.521057,195.479446C327.491577,195.317596,328.328125,194.887192,329.02887,194.188263C329.541718,193.649963,329.905426,193.058319,330.121216,192.41272C330.175171,192.278152,330.296417,192.35878,330.485535,192.654602L330.728027,193.340805C330.458282,194.470749,330.364319,195.761932,330.444946,197.214371C330.580109,199.043243,331.011108,200.455658,331.739746,201.451035L332.710266,202.459732C332.818176,202.567032,332.939423,203.30658,333.074585,204.678391L333.195831,206.695801C331.550629,207.260757,330.43161,207.758453,329.838135,208.188843C329.379852,208.484665,328.894287,209.062973,328.38208,209.923752L327.451569,211.134323C327.100586,211.430145,326.642303,211.604721,326.076111,211.658676L325.711792,211.658676L325.711792,195.560074L325.914276,195.560074L326.076111,195.519455L326.318604,195.519455z"/>
</svg>
