<?xml version="1.0" encoding="UTF-8"?>
<svg xmlns="http://www.w3.org/2000/svg" xmlns:xlink="http://www.w3.org/1999/xlink" width="20.743mm" height="20.777mm" viewBox="-274.572998 191.022018 20.742615 20.776962">
    <path transform="matrix(-1,0,0,1,0,0)" style="stroke:none;fill:#000000;fill-rule:evenodd" d="M258.124115,211.695007C263.688324,211.833633,267.300934,211.833633,268.963226,211.695007C269.840576,211.602585,271.040771,211.09491,272.564453,210.171341L274.572998,208.786301C274.019104,208.370407,273.384186,207.943756,272.668243,207.505081C271.16803,206.627716,269.933014,206.120041,268.963226,205.981415C267.901031,205.842789,265.777252,205.79657,262.591309,205.842789L258.124115,205.946594L258.124115,211.695007z"/>
    <path transform="matrix(-1,0,0,1,0,0)" style="stroke:none;fill:#000000;fill-rule:evenodd" d="M253.830383,205.946594L253.830383,211.695007L256.773895,211.695007L256.773895,205.946594L253.830383,205.946594z"/>
    <path transform="matrix(-1,0,0,1,0,0)" style="stroke:none;fill:#000000;fill-rule:evenodd" d="M253.830383,198.53653L253.830383,204.284302L256.773895,204.284302L256.773895,198.53653L253.830383,198.53653z"/>
    <path transform="matrix(-1,0,0,1,0,0)" style="stroke:none;fill:#000000;fill-rule:evenodd" d="M258.124115,198.53653L258.124115,204.284302C263.688324,204.44635,267.300934,204.44635,268.963226,204.284302C269.840576,204.191879,271.040771,203.684204,272.564453,202.760635L274.572998,201.410416L272.668243,200.094376C271.16803,199.217026,269.933014,198.709351,268.963226,198.570709C267.901031,198.432083,265.777252,198.38588,262.591309,198.432083L258.124115,198.53653z"/>
    <path transform="matrix(-1,0,0,1,0,0)" style="stroke:none;fill:#000000;fill-rule:evenodd" d="M253.830383,191.125839L253.830383,196.874237L256.773895,196.874237L256.773895,191.125839L253.830383,191.125839z"/>
    <path transform="matrix(-1,0,0,1,0,0)" style="stroke:none;fill:#000000;fill-rule:evenodd" d="M258.124115,196.874237C263.688324,197.03566,267.300934,197.03566,268.963226,196.874237C269.840576,196.804611,271.040771,196.296936,272.564453,195.350571C273.326599,194.888474,273.995697,194.4384,274.572998,193.999725L272.668243,192.718506C271.16803,191.818359,269.933014,191.298645,268.963226,191.160645L262.591309,191.022018L258.124115,191.125839L258.124115,196.874237z"/>
</svg>
