<?xml version="1.0" encoding="UTF-8"?>
<svg xmlns="http://www.w3.org/2000/svg" xmlns:xlink="http://www.w3.org/1999/xlink" width="19.864mm" height="26.535mm" viewBox="-243.408997 188.142792 19.863846 26.535172">
    <path transform="matrix(-1,0,0,1,0,0)" style="stroke:none;fill:#000000;fill-rule:evenodd" d="M224.278046,188.406021L224.074371,188.933426L224.278046,189.419586L226.882874,192.014709L223.545151,192.014709L223.545151,193.393204L232.459274,202.272156L232.459274,211.880371C232.459274,212.502335,232.188309,212.813309,231.645157,212.813309L229.121552,212.813309L229.121552,214.677963L237.873215,214.677963L237.873215,212.813309L235.309006,212.813309C234.820404,212.813309,234.576111,212.502335,234.576111,211.880371L234.576111,202.272156L243.408997,193.393204L243.408997,192.014709L228.959091,192.014709L225.335861,188.406021C224.983658,188.055038,224.630859,188.055038,224.278046,188.406021zM232.256195,199.231476C231.740326,199.231476,231.279007,199.041748,230.872253,198.663483C230.492172,198.257935,230.301819,197.785095,230.301819,197.24437C230.301819,196.676971,230.492172,196.204132,230.872253,195.825867C231.279007,195.446991,231.740326,195.257858,232.256195,195.257858C232.826019,195.257858,233.300674,195.446991,233.680756,195.825867C234.060242,196.204132,234.25058,196.676971,234.25058,197.24437C234.25058,197.785095,234.060242,198.257935,233.680756,198.663483C233.300674,199.041748,232.826019,199.231476,232.256195,199.231476z"/>
</svg>
