<?xml version="1.0" encoding="UTF-8"?>
<svg xmlns="http://www.w3.org/2000/svg" xmlns:xlink="http://www.w3.org/1999/xlink" width="22.491mm" height="22.485mm" viewBox="-213.996994 190.168427 22.491486 22.484619">
    <path transform="matrix(-1,0,0,1,0,0)" style="stroke:none;fill:#000000;fill-rule:evenodd" d="M201.005081,190.805389C200.679733,191.204865,200.517059,191.67984,200.517059,192.229645L200.854767,193.503571C201.130692,193.903046,201.518509,194.102783,202.018875,194.102783L202.20694,194.253113C202.281769,194.378021,202.319519,194.640228,202.319519,195.039703L202.319519,195.152267L200.705139,195.152267L200.479309,196.052124L198.489487,196.052124L191.505508,201.635864L193.64566,204.408875L198.489487,200.473816L197.813385,212.578232L199.46553,212.653046L202.319519,212.465668L205.023193,212.241211L207.538788,212.578232L206.824951,200.623444L211.631714,204.445938L213.996994,201.635864L206.824951,196.052124L204.985443,196.052124L204.684799,195.152267L202.957855,195.152267L202.957855,195.039703C202.957855,193.990906,202.745071,193.46582,202.319519,193.46582C201.769028,193.46582,201.442993,193.340897,201.343475,193.091049L201.155411,192.229645C201.155411,191.779373,201.255615,191.430008,201.456039,191.180161C201.705887,190.930313,202.119095,190.805389,202.694962,190.805389C203.070419,190.805389,203.358017,190.904922,203.558441,191.105347L203.896149,191.704559L204.046463,192.304459C204.046463,192.479492,204.146667,192.56665,204.347092,192.56665C204.547516,192.56665,204.647736,192.454086,204.647736,192.229645C204.647736,191.779373,204.509766,191.317429,204.234528,190.842453C203.95929,190.392868,203.445877,190.168427,202.694962,190.168427C201.918671,190.168427,201.355835,190.380524,201.005081,190.805389z"/>
</svg>
