<?xml version="1.0" encoding="UTF-8"?>
<svg xmlns="http://www.w3.org/2000/svg" xmlns:xlink="http://www.w3.org/1999/xlink" width="18.199mm" height="27.071mm" viewBox="-487.618988 220.787354 18.199188 27.070663">
    <path transform="matrix(-1,0,0,1,0,0)" style="stroke:none;fill:#000000;fill-rule:evenodd" d="M477.19577,223.333694L477.039093,224.313049L477.234955,225.606369L477.274139,225.723892L477.156616,225.723892L476.92157,225.998123L484.052979,225.998123L484.013824,225.488846L484.366943,225.018188C484.523651,224.757401,484.53653,224.444016,484.406128,224.078003C484.614868,223.869263,484.706085,223.621353,484.680359,223.333694L477.19577,223.333694"/>
    <path transform="matrix(-1,0,0,1,0,0)" style="stroke:none;fill:#000000;fill-rule:evenodd" d="M477.54892,227.330048L475.746338,227.408401C474.152496,227.538788,472.820557,227.865067,471.74942,228.387756L470.025177,229.602173L482.721069,229.602173L482.486023,229.48465C482.904053,229.196991,483.243195,228.81868,483.504547,228.348587L484.013824,226.938309L477.039093,226.938309L477.54892,227.330048z"/>
    <path transform="matrix(-1,0,0,1,0,0)" style="stroke:none;fill:#000000;fill-rule:evenodd" d="M469.437561,230.894928C469.332916,231.678406,469.686035,232.461899,470.49585,233.245392L486.168976,233.245392C486.038574,232.931992,485.869019,232.788162,485.659698,232.814468L485.542175,232.814468L485.542175,232.775299C485.202484,231.9655,484.680359,231.221191,483.97464,230.542358L469.5159,230.542358L469.437561,230.894928zM473.512817,231.482544L473.316956,231.639236L472.846863,231.678406L472.768524,231.09079L474.100433,230.659882L474.022095,231.012451L473.669525,231.247498L473.512817,231.482544z"/>
    <path transform="matrix(-1,0,0,1,0,0)" style="stroke:none;fill:#000000;fill-rule:evenodd" d="M483.230316,222.393509L482.760223,221.884247L482.329315,221.727539C482.120026,221.675491,481.989624,221.597153,481.937561,221.492493L481.38858,220.787354L481.310211,220.787354L480.76178,220.865707L480.40921,221.0224L480.056641,221.0224L479.625732,220.983231L479.15506,221.374969L478.724152,221.68837C478.437042,221.714676,478.084473,221.949722,477.666443,222.393509L483.230316,222.393509z"/>
    <path transform="matrix(-1,0,0,1,0,0)" style="stroke:none;fill:#000000;fill-rule:evenodd" d="M487.18808,234.146408L486.953033,234.146408L486.717987,234.420624L486.796326,234.146408L482.01593,234.146408C482.407654,234.851547,482.851471,235.412857,483.347839,235.830902C483.948914,236.327301,484.562836,236.575226,485.189606,236.575226L485.267975,236.536041L485.894745,236.614395C486.260742,236.588089,486.508667,236.392212,486.639618,236.026779L486.83551,236.261826C487.017944,236.313873,487.161774,236.261826,487.266418,236.105133L487.423126,235.870087L487.618988,234.96907L487.423126,234.34227L487.18808,234.146408z"/>
    <path transform="matrix(-1,0,0,1,0,0)" style="stroke:none;fill:#000000;fill-rule:evenodd" d="M481.623627,242.020477L481.819489,241.354507L477.940674,241.354507L477.783966,242.020477L477.666443,242.412216L477.117432,244.058105L480.918488,244.058105L481.623627,242.020477z"/>
    <path transform="matrix(-1,0,0,1,0,0)" style="stroke:none;fill:#000000;fill-rule:evenodd" d="M481.976746,240.414322L481.976746,240.061737C481.872101,239.434952,481.323639,238.677765,480.330872,237.789627L470.887573,237.789627L470.887573,238.455597L471.553558,240.414322L481.976746,240.414322z"/>
    <path transform="matrix(-1,0,0,1,0,0)" style="stroke:none;fill:#000000;fill-rule:evenodd" d="M479.272583,236.849442L479.115906,236.692749L479.585999,236.222656L481.231873,234.146408L471.475189,234.146408C471.710236,234.459793,471.997894,234.629364,472.337036,234.65567L472.376221,234.65567L471.827759,235.399979L471.788605,235.478333L471.044281,236.849442L479.272583,236.849442z"/>
    <path transform="matrix(-1,0,0,1,0,0)" style="stroke:none;fill:#000000;fill-rule:evenodd" d="M478.606628,245.70343L479.311768,245.977646L479.468475,246.016815L481.114349,246.212692L482.211792,246.016815L482.525177,245.70343C482.550934,245.546722,482.198364,245.311676,481.466919,244.998291L476.92157,244.998291L477.117432,245.03746L477.274139,245.07663L477.313873,245.507553C477.54892,245.846695,477.940674,246.003387,478.489105,245.977646L478.606628,245.70343z"/>
    <path transform="matrix(-1,0,0,1,0,0)" style="stroke:none;fill:#000000;fill-rule:evenodd" d="M476.647339,242.568909L476.764862,242.020477L476.843201,241.354507L471.984467,241.354507L472.297852,241.707077L472.062805,242.020477L471.592712,242.803955L470.77005,244.058105L475.824677,244.058105L476.647339,242.568909z"/>
    <path transform="matrix(-1,0,0,1,0,0)" style="stroke:none;fill:#000000;fill-rule:evenodd" d="M472.180328,246.291046L472.337036,246.3694L473.630341,247.466278C474.048401,247.727066,474.40097,247.858017,474.688049,247.858017L475.080353,247.740494C475.184448,247.662155,475.132416,247.45285,474.923096,247.113708L474.061279,245.899292L475.080353,244.998291L470.809235,244.998291C470.861267,245.337433,471.096313,245.625076,471.514374,245.860123L471.553558,245.860123L471.788605,245.70343L472.180328,246.291046z"/>
</svg>
