<?xml version="1.0" encoding="UTF-8"?>
<svg xmlns="http://www.w3.org/2000/svg" xmlns:xlink="http://www.w3.org/1999/xlink" width="22.491mm" height="22.124mm" viewBox="-428.302002 223.260239 22.491486 22.123581">
    <path transform="matrix(-1,0,0,1,0,0)" style="stroke:none;fill:#000000;fill-rule:evenodd" d="M413.344971,227.542603C413.344971,228.343613,413.632568,229.032059,414.207062,229.607925C414.756866,230.159103,415.43158,230.434341,416.231903,230.434341L416.943695,230.321777L408.359741,238.922867L407.685028,241.064392C407.4599,242.090546,407.260162,242.766632,407.085144,243.092667L405.810516,245.38382L408.134613,244.144211L410.383911,243.580688C411.333191,243.480469,412.033295,243.30545,412.48288,243.054916L421.217133,234.303497L421.067505,235.279541C421.067505,236.081238,421.342041,236.757324,421.891846,237.3078C422.467041,237.883682,423.154114,238.171967,423.953735,238.171967C424.728668,238.171967,425.403381,237.883682,425.977905,237.3078C426.52771,236.757324,426.802246,236.081238,426.802246,235.279541C426.802246,234.578735,426.577789,233.952759,426.127533,233.401581C425.677948,232.875809,425.115814,232.550461,424.441071,232.425537L423.316101,230.92305L425.903076,228.331253L427.439911,229.533112L428.302002,228.668961L422.904266,223.260239L422.042175,224.12439L423.204224,225.664642L420.654968,228.218689L419.043335,227.053894C418.917725,226.377792,418.593079,225.81427,418.068665,225.364014C417.543579,224.913055,416.931335,224.687912,416.231903,224.687912C415.43158,224.687912,414.756866,224.963165,414.207062,225.514328C413.632568,226.09021,413.344971,226.766296,413.344971,227.542603zM421.442261,229.007339L423.990814,226.453308L424.890656,227.316772L422.304352,229.908569L421.442261,229.007339zM415.032104,226.340729C415.356781,226.014694,415.756927,225.85202,416.231903,225.85202C416.706207,225.85202,417.106354,226.014694,417.43103,226.340729C417.755676,226.666077,417.918365,227.066925,417.918365,227.542603C417.918365,228.018265,417.755676,228.419113,417.43103,228.744461C417.106354,229.0952,416.706207,229.270233,416.231903,229.270233C415.756927,229.270233,415.356781,229.0952,415.032104,228.744461C414.682037,228.419113,414.507019,228.018265,414.507019,227.542603C414.507019,227.066925,414.682037,226.666077,415.032104,226.340729zM422.716888,234.077667C423.066254,233.727615,423.47876,233.551895,423.953735,233.551895C424.428741,233.551895,424.828217,233.727615,425.152863,234.077667C425.47821,234.403702,425.640198,234.803864,425.640198,235.279541C425.640198,235.75589,425.47821,236.156052,425.152863,236.482086C424.828217,236.807434,424.428741,236.970108,423.953735,236.970108C423.47876,236.970108,423.066254,236.807434,422.716888,236.482086C422.391541,236.156052,422.229553,235.75589,422.229553,235.279541C422.229553,234.803864,422.391541,234.403702,422.716888,234.077667zM416.006775,232.875809L416.419281,232.763245L417.693237,233.927353C417.943756,233.852539,417.956116,233.702225,417.730988,233.477081L416.643738,232.237473L417.018494,232.161972L417.880615,232.875809L418.293121,233.326767C418.542969,233.251266,418.556,233.101639,418.330872,232.875809L417.243652,231.6362L417.618408,231.561386L418.893036,232.725494C419.142883,232.675385,419.142883,232.52507,418.893036,232.275223L417.843536,231.035614L418.256073,230.92305L419.529999,232.087158C419.780518,232.012344,419.792877,231.862015,419.567749,231.6362L418.480499,230.397278L418.855286,230.321777L419.718079,231.035614L420.129883,231.485886C420.37973,231.411072,420.392792,231.260742,420.167633,231.035614L419.080414,229.796005L419.49292,229.382797L422.191803,232.049408L411.845917,242.416565L409.147034,239.712219L409.858826,239.036118C410.009125,238.835693,410.146423,238.797943,410.271332,238.922867L411.133423,239.636719L411.545959,240.087662C411.795807,240.012161,411.808167,239.861847,411.583008,239.636719L410.49646,238.397095C410.646118,238.24678,410.783386,238.209717,410.908295,238.284531L411.771088,238.998367L412.182922,239.449326C412.43277,239.373825,412.445801,239.223511,412.220673,238.998367L411.133423,237.758759C411.283752,237.608444,411.421021,237.570694,411.545959,237.646194L412.820587,238.810303C413.020325,238.785599,413.020325,238.647629,412.820587,238.397095L411.733337,237.158173L412.108093,237.082672L412.970215,237.796509L413.382721,238.24678C413.632568,238.171967,413.644928,238.021652,413.420471,237.796509L412.333252,236.5569L412.745056,236.444336L414.019684,237.608444C414.269531,237.53363,414.282562,237.383301,414.057434,237.158173L412.970215,235.918564C413.120514,235.768234,413.245453,235.742844,413.344971,235.843063L414.619598,237.007858C414.844727,236.932358,414.844727,236.782028,414.619598,236.5569L413.570099,235.317291L413.944885,235.242462L414.806976,235.955627L415.219482,236.406586C415.46933,236.331757,415.481689,236.181442,415.257233,235.955627L414.170013,234.716705L414.58252,234.603439L415.856445,235.768234C416.106293,235.692734,416.119354,235.542419,415.894196,235.317291L414.806976,234.077667L415.181732,234.002853L416.45636,235.166962C416.706207,235.092148,416.718567,234.941833,416.49411,234.716705L415.40686,233.477081L415.781647,233.401581L417.056274,234.566376C417.306091,234.490875,417.318451,234.340561,417.094025,234.115417L416.006775,232.875809z"/>
</svg>
