<?xml version="1.0" encoding="UTF-8"?>
<svg xmlns="http://www.w3.org/2000/svg" xmlns:xlink="http://www.w3.org/1999/xlink" width="22.491mm" height="23.865mm" viewBox="-397.571014 222.389801 22.491486 23.864594">
    <path transform="matrix(-1,0,0,1,0,0)" style="stroke:none;fill:#000000;fill-rule:evenodd" d="M375.079529,229.270813L378.475067,232.57164L383.668945,243.311523C383.828186,243.708939,384.108246,243.841415,384.507721,243.708939L384.947021,243.549698L385.346497,243.192093L385.386292,242.714371L383.588654,237.583633L392.25769,246.055695C392.577545,246.320633,392.896729,246.320633,393.216583,246.055695L393.536438,245.697388C393.855621,245.379608,393.855621,245.061111,393.536438,244.743317L386.584717,237.941238L387.183929,237.344772L394.574951,244.584076L395.533813,244.544266L395.852997,244.185974L396.052734,243.748749L395.852997,243.271713L388.462677,236.032394L388.981598,235.515549L395.733551,242.078079L396.172852,242.27713L396.651947,242.078079L397.011597,241.720474L397.171539,241.282562L396.971802,240.805527L390.260315,234.202499L390.819733,233.645844L396.133026,238.816376L396.572327,239.015427L397.051422,238.816376L397.411072,238.458771L397.571014,238.020859L397.411072,237.543823L381.870636,222.389801L375.079529,229.270813"/>
</svg>
