<?xml version="1.0" encoding="UTF-8"?>
<svg xmlns="http://www.w3.org/2000/svg" xmlns:xlink="http://www.w3.org/1999/xlink" width="22.491mm" height="22.491mm" viewBox="-366.112000 59.222900 22.491486 22.491486">
    <path transform="matrix(-1,0,0,1,0,0)" style="stroke:none;fill:#000000;fill-rule:evenodd" d="M354.416687,59.410282L354.229279,59.859867L354.229279,62.671303C352.329376,62.846329,350.717743,63.608906,349.393005,64.958336C348.043579,66.283066,347.294037,67.894699,347.144409,69.793922L344.295227,69.793922L343.845642,69.981308L343.620514,70.468643L343.845642,70.918228L344.295227,71.105606L347.144409,71.105606C347.294037,73.005524,348.043579,74.617157,349.393005,75.941879C350.717743,77.291321,352.329376,78.040848,354.229279,78.190483L354.229279,81.039673L354.416687,81.48925L354.866272,81.714386C355.06601,81.714386,355.228668,81.639572,355.353577,81.48925L355.540985,81.039673L355.540985,78.190483C357.440216,78.040848,359.06488,77.291321,360.414307,75.941879C361.738342,74.617157,362.488556,73.005524,362.663605,71.105606L365.475037,71.105606L365.924622,70.918228L366.112,70.468643L365.924622,69.981308L365.475037,69.793922L362.663605,69.793922C362.488556,67.894699,361.738342,66.283066,360.414307,64.958336C359.06488,63.608906,357.440216,62.846329,355.540985,62.671303L355.540985,59.859867L355.353577,59.410282L354.866272,59.2229L354.416687,59.410282M350.330627,65.858192C351.404816,64.78331,352.704834,64.171051,354.229279,64.021423L354.229279,65.67012L354.416687,66.157455L354.866272,66.30777L355.353577,66.157455L355.540985,65.67012L355.540985,64.021423C357.06543,64.171051,358.377106,64.78331,359.476715,65.858192C360.551575,66.957779,361.163849,68.269463,361.313477,69.793922L359.814423,69.793922L359.327087,69.981308L359.139709,70.468643L359.327087,70.918228L359.814423,71.105606L361.313477,71.105606C361.163849,72.630074,360.551575,73.942444,359.476715,75.04203C358.377106,76.116226,357.06543,76.728477,355.540985,76.878799L355.540985,75.229416L355.353577,74.779831C355.228668,74.629517,355.06601,74.554695,354.866272,74.554695C354.691223,74.554695,354.541595,74.629517,354.416687,74.779831L354.229279,75.229416L354.229279,76.878799C352.704834,76.728477,351.404816,76.116226,350.330627,75.04203C349.231018,73.942444,348.606415,72.630074,348.456116,71.105606L350.105499,71.105606L350.555054,70.918228C350.705383,70.793304,350.780212,70.643669,350.780212,70.468643C350.780212,70.268906,350.705383,70.106232,350.555054,69.981308L350.105499,69.793922L348.456116,69.793922C348.606415,68.269463,349.231018,66.957779,350.330627,65.858192z"/>
</svg>
