<?xml version="1.0" encoding="UTF-8"?>
<svg xmlns="http://www.w3.org/2000/svg" xmlns:xlink="http://www.w3.org/1999/xlink" width="21.956mm" height="18.977mm" viewBox="-366.571808 224.834000 21.955963 18.977188">
    <path transform="matrix(-1,0,0,1,0,0)" style="stroke:none;fill:#000000;fill-rule:evenodd" d="M351.196136,226.897278L351.452148,229.034683L349.476746,229.034683C348.69632,229.034683,347.97699,229.317474,347.318054,229.88237C346.659821,230.447266,346.269958,231.122665,346.147766,231.909256L344.64801,240.715591C344.525848,241.600342,344.720764,242.337524,345.232819,242.927124C345.745544,243.516724,346.416138,243.811188,347.2453,243.811188L363.926544,243.811188C364.780396,243.811188,365.462677,243.516724,365.975403,242.927124C366.487427,242.288101,366.670013,241.550919,366.523804,240.715591L365.024078,231.909256C364.901886,231.122665,364.512024,230.447266,363.853088,229.88237C363.194855,229.317474,362.475525,229.034683,361.695099,229.034683L359.902252,229.034683L360.121887,226.897278C360.24408,226.357086,360.134247,225.877991,359.792419,225.460663C359.451294,225.042664,359.000336,224.834,358.438873,224.834L352.915527,224.834C352.354767,224.834,351.903107,225.042664,351.561981,225.460663C351.244873,225.829254,351.122711,226.307663,351.196136,226.897278zM352.659515,226.639877L352.695892,226.418182L352.915527,226.344742L358.438873,226.344742L358.622131,226.418182L358.658539,226.639877L358.402496,229.034683L352.951904,229.034683L352.659515,226.639877zM350.647034,238.394241L350.647034,234.341125L353.573792,234.341125L353.573792,231.393097L357.598053,231.393097L357.598053,234.341125L360.561188,234.341125L360.561188,238.394241L357.598053,238.394241L357.598053,241.342255L353.573792,241.342255L353.573792,238.394241L350.647034,238.394241z"/>
</svg>
