<?xml version="1.0" encoding="UTF-8"?>
<svg xmlns="http://www.w3.org/2000/svg" xmlns:xlink="http://www.w3.org/1999/xlink" width="22.482mm" height="22.491mm" viewBox="-336.103210 223.076996 22.481873 22.491486">
    <path transform="matrix(-1,0,0,1,0,0)" style="stroke:none;fill:#000000;fill-rule:evenodd" d="M324.889038,223.076996C321.776947,223.076996,319.130249,224.183456,316.948242,226.397049C314.73053,228.574951,313.621338,231.216843,313.621338,234.322739C313.621338,237.428635,314.73053,240.070526,316.948242,242.248428C319.130249,244.462021,321.776947,245.568481,324.889038,245.568481C327.965393,245.568481,330.612122,244.462021,332.830505,242.248428C335.011841,240.070526,336.10321,237.428635,336.10321,234.322739C336.10321,232.858673,335.816986,231.431,335.244537,230.038315L334.708466,229.449402L333.90332,229.449402L333.313049,230.038315L333.313049,230.788544C333.814087,231.930679,334.063934,233.109207,334.063934,234.322739C334.063934,236.857559,333.170258,239.035461,331.381561,240.855759C329.592834,242.605347,327.42865,243.479813,324.889038,243.479813C322.349396,243.479813,320.185242,242.605347,318.396515,240.855759C316.608459,239.035461,315.714111,236.857559,315.714111,234.322739C315.714111,231.96637,316.500702,229.931244,318.074585,228.218018C319.612793,226.50412,321.526428,225.504745,323.816223,225.219208L323.816223,229.556473C323.816223,229.84201,323.923279,230.074005,324.138123,230.253159C324.352264,230.503006,324.602814,230.62793,324.889038,230.62793C325.175262,230.62793,325.407928,230.503006,325.586395,230.253159L325.908325,229.556473L325.908325,224.147751L325.586395,223.398224C325.407928,223.184067,325.175262,223.076996,324.889038,223.076996z"/>
    <path transform="matrix(-1,0,0,1,0,0)" style="stroke:none;fill:#000000;fill-rule:evenodd" d="M324.084595,232.126984L322.95755,232.822983C322.528534,233.287674,322.331543,233.840897,322.367249,234.483353C322.367249,235.161499,322.599945,235.714722,323.064606,236.143723C323.565674,236.536331,324.12027,236.732635,324.728424,236.732635C325.372253,236.732635,325.926147,236.482788,326.391541,235.983109L326.928284,234.858124C327.03537,234.4655,326.999664,234.055054,326.820526,233.62674L331.703461,227.146576L325.372253,232.180527L324.084595,232.126984z"/>
</svg>
