<?xml version="1.0" encoding="UTF-8"?>
<svg xmlns="http://www.w3.org/2000/svg" xmlns:xlink="http://www.w3.org/1999/xlink" width="22.475mm" height="15.814mm" viewBox="-305.368774 226.414993 22.475006 15.814331">
    <path transform="matrix(-1,0,0,1,0,0)" style="stroke:none;fill:#000000;fill-rule:evenodd" d="M284.279572,226.790451L283.005646,230.847672L283.043396,231.185379L283.230774,231.448257L285.140991,232.875946L285.328369,233.138824L285.328369,233.514282L282.893768,240.726822L282.930817,241.027451L283.155975,241.214844L288.924347,242.229324L289.261353,242.15451L289.448761,241.89093L291.059692,236.143829C291.20932,235.543243,291.409058,235.267303,291.658905,235.317413L294.056458,235.618057C295.679749,235.618057,296.878174,235.054535,297.652435,233.92749C298.15213,233.251389,298.439026,232.438034,298.513855,231.486008C298.513855,231.285583,298.801453,231.185379,299.375244,231.185379L304.05777,231.148315L304.357727,231.0728L304.432556,230.772171L304.432556,229.645813L304.582184,229.382233L304.882141,229.232605L304.95694,229.232605L305.256897,229.157104L305.368774,228.856461L305.368774,226.828201L305.256897,226.527557L304.95694,226.414993L284.803986,226.414993L284.466949,226.527557L284.279572,226.790451zM292.10849,234.265869C291.858643,234.190369,291.759125,233.96524,291.808533,233.589783L292.332947,231.561508L292.558075,231.297943L292.895081,231.148315L293.232117,231.148315C293.082489,232.199844,293.195038,233.013901,293.569122,233.589783L294.206085,234.153305L294.805298,234.077805C294.70578,233.977585,294.630951,233.840317,294.580841,233.664597C294.405823,233.339249,294.331024,233.00087,294.355713,232.650803C294.381104,232.274673,294.643311,231.774292,295.143005,231.148315L296.565887,231.148315C296.965363,231.148315,297.165771,231.285583,297.165771,231.561508C297.115662,232.613052,296.815735,233.414063,296.266632,233.96524C295.791626,234.440903,295.192413,234.679077,294.468292,234.679077C293.569122,234.679077,292.782532,234.541107,292.10849,234.265869z"/>
</svg>
