<?xml version="1.0" encoding="UTF-8"?>
<svg xmlns="http://www.w3.org/2000/svg" xmlns:xlink="http://www.w3.org/1999/xlink" width="22.188mm" height="15.807mm" viewBox="-243.761673 226.418427 22.188370 15.807465">
    <path transform="matrix(-1,0,0,1,0,0)" style="stroke:none;fill:#000000;fill-rule:evenodd" d="M224.459549,229.758377L224.311981,230.017838L223.719635,231.613678L223.497925,233.245911L223.497925,235.212402C223.497925,235.682571,223.374374,236.202164,223.127274,236.771179C222.856155,237.315491,222.547974,237.73555,222.202713,238.032761L222.091522,238.143951C221.721558,238.441162,221.548584,238.799454,221.573303,239.2202C221.598007,239.640961,221.807358,239.986893,222.202713,240.258698L223.534988,241.22377C223.904953,241.495575,224.398468,241.743362,225.014832,241.965744L226.606567,242.225891L229.641083,242.225891L231.195053,241.854553C231.737991,241.607452,232.169724,241.310242,232.490265,240.96431L234.007858,239.33139C234.3284,238.984772,234.760147,238.700607,235.30307,238.478226C235.870712,238.230438,236.388931,238.106888,236.857742,238.106888L240.595108,238.106888L242.112701,237.958633L243.407913,237.587296C243.703751,237.439026,243.814941,237.229004,243.740814,236.956497L243.000885,236.214523L242.963821,236.214523L241.816864,235.138275C241.421509,234.668777,241.16275,234.210968,241.0392,233.765503L240.18808,230.648621L239.448151,229.201721L238.374649,228.014267L237.63472,227.457611C237.264755,227.161087,236.771255,226.913315,236.15419,226.715637L234.563141,226.418427L229.752274,226.418427L228.123474,226.678558C227.507111,226.876251,227.013596,227.098633,226.643631,227.34642L225.458923,228.422668L224.459549,229.758377"/>
</svg>
