<?xml version="1.0" encoding="UTF-8"?>
<svg xmlns="http://www.w3.org/2000/svg" xmlns:xlink="http://www.w3.org/1999/xlink" width="22.614mm" height="6.080mm" viewBox="-334.753235 67.427200 22.613678 6.080162">
    <path transform="matrix(-1,0,0,1,0,0)" style="stroke:none;fill:#000000;fill-rule:evenodd" d="M318.751526,67.720284L318.434418,67.879532L318.11731,67.4272L317.905212,67.4272L317.7995,68.279007L316.874268,68.91803C316.715027,69.024422,316.48645,69.077957,316.186493,69.077957L315.393036,69.077957L313.567932,69.636673L312.139557,70.14254L312.32489,70.995033L312.641998,72.352707L312.959808,73.177742C313.083344,73.444054,313.197968,73.550446,313.30368,73.497597L314.255707,72.72541L314.943451,71.979996L315.419128,71.526985L316.265442,70.808334L316.847473,70.489166L317.111755,70.382088L317.058899,70.754799C317.058899,71.021118,317.120667,71.181046,317.244232,71.234581L317.826263,71.234581C318.037689,71.181046,318.187317,71.065727,318.275848,70.887955C318.346558,70.746559,318.37265,70.550941,318.354797,70.302467L318.301941,70.009384L324.914581,70.009384C325.143158,70.009384,325.346313,69.929764,325.522705,69.769836C325.681274,69.610596,325.760895,69.41497,325.760895,69.184349L325.760895,68.971565L334.753235,68.971565L334.753235,67.879532L319.598511,67.879532L319.51889,67.826675L319.43927,67.746368L318.751526,67.720284M317.640961,70.196083L317.905212,70.222847C318.0466,70.364929,318.090515,70.515251,318.037689,70.675179C318.019836,70.835106,317.87912,70.896881,317.614868,70.861877L317.349915,70.70195L317.402771,70.382088L317.640961,70.196083z"/>
</svg>
