<?xml version="1.0" encoding="UTF-8"?>
<svg xmlns="http://www.w3.org/2000/svg" xmlns:xlink="http://www.w3.org/1999/xlink" width="22.030mm" height="5.271mm" viewBox="-303.041901 67.832901 22.030304 5.271439">
    <path transform="matrix(-1,0,0,1,0,0)" style="stroke:none;fill:#000000;fill-rule:evenodd" d="M289.994415,68.090294L289.89212,67.909775L289.712311,67.832901L289.686218,67.832901L289.506378,67.909775L289.454895,68.090294L289.454895,68.501442L288.530334,69.1185L287.734131,69.272942L286.475983,69.427376L283.393433,69.761642C281.88681,69.933243,281.099548,70.069832,281.030884,70.172791C280.979431,70.258591,281.030884,70.507057,281.184631,70.918892L281.621185,71.844139C281.672668,72.050056,281.698761,72.315689,281.698761,72.641716L281.698761,73.10434L283.368042,72.409721L285.911102,71.072639C286.407349,70.747292,286.843903,70.533142,287.220734,70.430183L287.657257,70.352623L287.862488,70.661499C287.862488,70.781616,287.768463,70.978607,287.580383,71.253159L287.117767,71.998573L286.912537,72.641716L288.556427,72.821548L288.684784,72.641716L288.581818,72.281364C288.564667,71.973183,288.642212,71.656067,288.813141,71.330032L289.044434,70.815933L289.249664,70.455582C289.421265,70.267509,289.90036,70.172791,290.688354,70.172791L293.641846,70.172791C293.607544,70.275749,293.659027,70.327225,293.795624,70.327225L298.419098,70.327225C298.572845,70.327225,298.710144,70.267509,298.830261,70.147392L302.348663,70.147392L302.503113,70.224266L302.682922,70.224266C302.853851,70.224266,302.939636,70.130234,302.939636,69.941475L302.939636,69.658684C302.939636,69.487091,302.853851,69.401291,302.682922,69.401291L302.503113,69.401291L302.400146,69.427376L302.400146,69.246857L303.041901,69.246857L303.041901,68.604401L302.065857,68.604401L302.065857,68.141777C302.065857,68.004494,301.997925,67.93586,301.860626,67.93586C301.741211,67.93586,301.680817,68.004494,301.680817,68.141777L301.680817,68.604401L293.847076,68.604401L293.847076,68.424568L293.744812,68.270126C293.693329,68.201492,293.632935,68.167168,293.564972,68.167168L289.994415,68.167168L289.994415,68.090294M301.244263,69.246857L301.244263,69.452774L299.240692,69.452774L299.266785,69.401291L299.318268,69.246857L301.244263,69.246857z"/>
</svg>
