<?xml version="1.0" encoding="UTF-8"?>
<svg xmlns="http://www.w3.org/2000/svg" xmlns:xlink="http://www.w3.org/1999/xlink" width="22.151mm" height="11.421mm" viewBox="-271.682129 64.757896 22.151489 11.421455">
    <path transform="matrix(-1,0,0,1,0,0)" style="stroke:none;fill:#000000;fill-rule:evenodd" d="M254.920593,64.757896L254.639862,64.863602L254.499847,65.109329L253.307587,65.109329L252.921844,65.250038L252.781815,65.636467L252.781815,67.990776L252.956848,68.412903L252.60611,69.185768C252.396072,69.467186,252.103668,69.75959,251.729584,70.064346C250.8414,70.743866,250.139923,72.079575,249.625824,74.070778C249.462448,74.820313,249.509125,75.370789,249.765839,75.722221C249.976563,76.026978,250.30397,76.179352,250.748047,76.179352L254.324814,76.179352L254.815582,75.897934C254.862244,75.710556,254.815582,75.546509,254.675552,75.406487L253.904053,74.949348L253.307587,74.703629L253.412598,74.035774L253.693329,72.840775L254.464828,71.716476L254.990601,71.189331L256.638611,71.189331L257.235077,71.575768L258.848083,71.575768L259.163818,71.470062L259.163818,71.329353L258.707397,70.345764L258.392334,69.642906L262.669891,69.642906C263.605438,70.041008,264.154541,70.240059,264.317902,70.240059L264.423615,70.240059L264.423615,70.486473L264.493622,70.626495L264.633636,70.697189L264.809357,70.626495L264.84436,70.486473L264.84436,70.240059L265.510162,70.240059L265.510162,70.486473L265.580841,70.626495L265.685852,70.697189L265.860901,70.626495L265.930908,70.486473L265.930908,70.240059L266.527374,70.240059L266.527374,70.486473L266.597382,70.626495L266.7724,70.697189L266.94812,70.626495L266.983124,70.486473L266.983124,70.240059L267.614624,70.240059L267.614624,70.486473L267.684631,70.626495L267.824646,70.697189L267.964661,70.626495L268.03537,70.486473L268.03537,70.240059L268.701172,70.240059L268.701172,70.486473L268.736176,70.626495L268.876862,70.697189L269.05191,70.626495L269.121918,70.486473L269.121918,70.240059L269.753387,70.240059L269.753387,70.486473L269.788391,70.626495L269.963409,70.697189L270.104126,70.626495L270.174133,70.486473L270.174133,70.240059L270.59491,70.240059C270.734924,70.240059,270.852295,70.181717,270.945648,70.064346L271.120667,69.67791L271.120667,69.08075C271.261383,69.08075,271.38974,69.021721,271.506409,68.905037L271.682129,68.517914L271.682129,65.671478L271.506409,65.285042L271.120667,65.144333L269.612671,65.144333L269.402649,65.109329L268.631134,65.109329L268.491119,64.863602L268.210388,64.757896L254.920593,64.757896M257.270081,69.185768L257.655853,69.361488L257.830872,69.747917L257.830872,70.029335C257.830872,70.193382,257.772522,70.322426,257.655853,70.415771L257.270081,70.591484L256.568604,70.591484L256.147858,70.415771C256.054504,70.322426,256.007843,70.193382,256.007843,70.029335L256.007843,69.747917L256.147858,69.361488L256.568604,69.185768L257.270081,69.185768z"/>
</svg>
